{
    "asset": {
        "version": "2.0",
        "generator": "gltfpack 0.23"
    },
    "extensionsUsed": [
        "EXT_meshopt_compression"
    ],
    "buffers": [
        {
            "uri": "textured_green_box.bin",
            "byteLength": 436
        },
        {
            "uri": "textured_green_box.fallback.bin",
            "byteLength": 840,
            "extensions": {
                "EXT_meshopt_compression": {
                    "fallback": true
                }
            }
        }
    ],
    "bufferViews": [
        {
            "buffer": 0,
            "byteOffset": 0,
            "byteLength": 93
        },
        {
            "buffer": 1,
            "byteOffset": 0,
            "byteLength": 288,
            "byteStride": 12,
            "target": 34962,
            "extensions": {
                "EXT_meshopt_compression": {
                    "buffer": 0,
                    "byteOffset": 96,
                    "byteLength": 92,
                    "byteStride": 12,
                    "mode": "ATTRIBUTES",
                    "count": 24
                }
            }
        },
        {
            "buffer": 1,
            "byteOffset": 288,
            "byteLength": 192,
            "byteStride": 8,
            "target": 34962,
            "extensions": {
                "EXT_meshopt_compression": {
                    "buffer": 0,
                    "byteOffset": 188,
                    "byteLength": 100,
                    "byteStride": 8,
                    "mode": "ATTRIBUTES",
                    "count": 24
                }
            }
        },
        {
            "buffer": 1,
            "byteOffset": 480,
            "byteLength": 288,
            "byteStride": 12,
            "target": 34962,
            "extensions": {
                "EXT_meshopt_compression": {
                    "buffer": 0,
                    "byteOffset": 288,
                    "byteLength": 113,
                    "byteStride": 12,
                    "mode": "ATTRIBUTES",
                    "count": 24
                }
            }
        },
        {
            "buffer": 1,
            "byteOffset": 768,
            "byteLength": 72,
            "target": 34963,
            "extensions": {
                "EXT_meshopt_compression": {
                    "buffer": 0,
                    "byteOffset": 404,
                    "byteLength": 29,
                    "byteStride": 2,
                    "mode": "TRIANGLES",
                    "count": 36
                }
            }
        }
    ],
    "accessors": [
        {
            "bufferView": 1,
            "byteOffset": 0,
            "componentType": 5126,
            "count": 24,
            "type": "VEC3",
            "min": [
                -1,
                -1,
                -1
            ],
            "max": [
                1,
                1,
                1
            ]
        },
        {
            "bufferView": 2,
            "byteOffset": 0,
            "componentType": 5126,
            "count": 24,
            "type": "VEC2"
        },
        {
            "bufferView": 3,
            "byteOffset": 0,
            "componentType": 5126,
            "count": 24,
            "type": "VEC3"
        },
        {
            "bufferView": 4,
            "byteOffset": 0,
            "componentType": 5123,
            "count": 36,
            "type": "SCALAR"
        }
    ],
    "samplers": [
        {
            "magFilter": 9729,
            "minFilter": 9987
        }
    ],
    "images": [
        {
            "name": "box",
            "bufferView": 0,
            "mimeType": "image/png"
        }
    ],
    "textures": [
        {
            "sampler": 0,
            "source": 0
        }
    ],
    "materials": [
        {
            "name": "Material.002",
            "pbrMetallicRoughness": {
                "baseColorTexture": {
                    "index": 0
                },
                "metallicFactor": 0,
                "roughnessFactor": 0.5
            },
            "doubleSided": true
        }
    ],
    "meshes": [
        {
            "primitives": [
                {
                    "attributes": {
                        "POSITION": 0,
                        "TEXCOORD_0": 1,
                        "NORMAL": 2
                    },
                    "indices": 3,
                    "material": 0
                }
            ]
        }
    ],
    "nodes": [
        {
            "name": "Cube",
            "mesh": 0
        }
    ],
    "scenes": [
        {
            "name": "Scene",
            "nodes": [
                0
            ]
        }
    ],
    "scene": 0
}