{
    "asset": {
        "version": "2.0",
        "generator": "gltfpack 0.23"
    },
    "extensionsUsed": [
        "EXT_meshopt_compression"
    ],
    "buffers": [
        {
            "uri": "tri_tree.bin",
            "byteLength": 76
        },
        {
            "uri": "tri_tree.fallback.bin",
            "byteLength": 44,
            "extensions": {
                "EXT_meshopt_compression": {
                    "fallback": true
                }
            }
        }
    ],
    "bufferViews": [
        {
            "buffer": 1,
            "byteOffset": 0,
            "byteLength": 36,
            "byteStride": 12,
            "target": 34962,
            "extensions": {
                "EXT_meshopt_compression": {
                    "buffer": 0,
                    "byteOffset": 0,
                    "byteLength": 55,
                    "byteStride": 12,
                    "mode": "ATTRIBUTES",
                    "count": 3
                }
            }
        },
        {
            "buffer": 1,
            "byteOffset": 36,
            "byteLength": 6,
            "target": 34963,
            "extensions": {
                "EXT_meshopt_compression": {
                    "buffer": 0,
                    "byteOffset": 56,
                    "byteLength": 18,
                    "byteStride": 2,
                    "mode": "TRIANGLES",
                    "count": 3
                }
            }
        }
    ],
    "accessors": [
        {
            "bufferView": 0,
            "byteOffset": 0,
            "componentType": 5126,
            "count": 3,
            "type": "VEC3",
            "min": [
                -1,
                0,
                -1
            ],
            "max": [
                1,
                0,
                1
            ]
        },
        {
            "bufferView": 1,
            "byteOffset": 0,
            "componentType": 5123,
            "count": 3,
            "type": "SCALAR"
        }
    ],
    "materials": [
        {
            "name": "Material.002",
            "pbrMetallicRoughness": {
                "baseColorFactor": [
                    0.800000012,
                    0,
                    0.800000012,
                    1
                ],
                "metallicFactor": 0,
                "roughnessFactor": 0.5
            },
            "doubleSided": true
        }
    ],
    "meshes": [
        {
            "primitives": [
                {
                    "attributes": {
                        "POSITION": 0
                    },
                    "indices": 1,
                    "material": 0
                }
            ]
        }
    ],
    "nodes": [
        {
            "name": "child_tri",
            "translation": [
                -0.5,
                0.5,
                -0.25
            ],
            "mesh": 0
        },
        {
            "name": "root_tri",
            "translation": [
                1,
                3,
                -2
            ],
            "children": [
                0
            ],
            "mesh": 0
        },
        {
            "name": "empty_root",
            "translation": [
                -1,
                -3,
                2
            ]
        }
    ],
    "scenes": [
        {
            "name": "Scene",
            "nodes": [
                1
            ]
        }
    ],
    "scene": 0
}