# generated by collision_forge
v -0.004526 -0.006669 0.035650
v -0.004982 -0.006608 0.035193
v -0.004982 -0.006429 0.033838
v -0.002594 -0.006429 0.033838
v -0.002594 -0.006667 0.035650
v -0.004526 -0.006366 0.037458
v -0.004982 -0.006366 0.037458
v -0.004982 -0.006668 0.035650
v -0.004982 -0.005790 0.032545
v -0.000905 -0.006427 0.033839
v -0.004526 -0.005790 0.032545
v -0.002594 -0.005789 0.032546
v -0.000905 -0.006663 0.035650
v 0.000905 -0.006423 0.033839
v 0.001534 -0.006551 0.036278
v 0.001534 -0.006351 0.037459
v 0.001534 -0.006149 0.037890
v 0.001534 -0.005766 0.038696
v -0.004982 -0.005767 0.038715
v -0.004982 -0.004526 0.031920
v -0.004526 -0.004526 0.031919
v -0.000905 -0.005787 0.032547
v 0.000905 -0.005785 0.032549
v 0.001534 -0.005784 0.032550
v 0.000905 -0.004527 0.031925
v 0.001534 -0.006420 0.033839
v 0.001534 -0.006653 0.035650
v 0.001534 -0.004527 0.039558
v -0.004982 -0.002673 0.041083
v -0.004982 -0.002715 0.031653
v -0.002594 -0.002716 0.031647
v 0.001534 -0.002716 0.031640
v 0.001534 -0.004527 0.031926
v 0.001534 -0.003513 0.040132
v 0.001534 -0.003197 0.040264
v -0.004589 -0.002584 0.041083
v -0.004982 0.001399 0.041083
v -0.004982 -0.002261 0.031765
v 0.001534 -0.000906 0.032096
v 0.001534 -0.002608 0.040459
v -0.004544 -0.002573 0.041083
v -0.004982 0.001399 0.036802
v -0.003941 0.001399 0.041083
v -0.004982 -0.000906 0.032130
v -0.004982 -0.000627 0.032294
v 0.001534 -0.000226 0.032532
v 0.001534 -0.001969 0.040481
v -0.003004 -0.000810 0.041083
v 0.001534 0.001080 0.035650
v 0.001534 -0.001019 0.040481
v 0.001534 -0.000181 0.040058
v 0.001534 0.000021 0.039796
v 0.001534 0.000459 0.039214
v 0.001534 0.001081 0.037459
v 0.001534 0.000140 0.032766
v -0.004982 0.000138 0.032784
v -0.004982 0.001196 0.035650
v 0.001534 0.000917 0.035020
v -0.004982 0.000347 0.033064
v -0.004982 0.000709 0.033858
v -0.004982 0.000870 0.034422
v 0.001534 0.000608 0.033839
f 29 19 18
f 28 34 29
f 29 18 28
f 19 7 6
f 6 18 19
f 47 48 40
f 50 48 47
f 26 27 13
f 13 27 15
f 15 6 13
f 21 9 20
f 62 55 60
f 43 50 51
f 43 42 37
f 48 50 43
f 42 43 49
f 49 43 54
f 16 6 15
f 29 34 35
f 24 26 14
f 26 13 14
f 32 33 25
f 25 21 32
f 33 22 25
f 32 21 31
f 20 30 31
f 31 21 20
f 59 55 56
f 59 60 55
f 54 43 53
f 42 49 57
f 18 6 17
f 6 16 17
f 41 35 40
f 41 40 48
f 1 8 2
f 2 3 1
f 3 4 1
f 7 8 1
f 1 6 7
f 24 14 10
f 23 33 24
f 23 22 33
f 24 10 23
f 23 10 22
f 12 10 4
f 22 10 12
f 12 25 22
f 39 44 45
f 45 46 39
f 55 46 45
f 56 55 45
f 38 44 39
f 38 31 30
f 38 39 32
f 32 31 38
f 52 43 51
f 52 53 43
f 62 57 58
f 58 57 49
f 62 60 61
f 61 57 62
f 29 35 36
f 35 41 36
f 5 1 4
f 4 10 5
f 5 13 6
f 6 1 5
f 5 14 13
f 5 10 14
f 21 25 11
f 25 12 11
f 9 21 11
f 11 12 4
f 58 16 15
f 58 33 32
f 15 27 58
f 58 52 51
f 58 26 24
f 51 50 58
f 58 46 55
f 34 28 58
f 58 27 26
f 24 33 58
f 58 55 62
f 32 39 58
f 58 28 18
f 47 40 58
f 58 50 47
f 58 35 34
f 58 49 54
f 18 17 58
f 40 35 58
f 39 46 58
f 54 53 58
f 58 17 16
f 53 52 58
f 61 29 37
f 42 57 61
f 2 8 61
f 61 19 29
f 61 3 2
f 61 7 19
f 37 42 61
f 61 30 20
f 20 9 61
f 61 9 3
f 61 59 56
f 61 8 7
f 56 45 61
f 60 59 61
f 61 38 30
f 61 45 44
f 44 38 61
f 37 29 36
f 36 43 37
f 48 43 36
f 36 41 48
f 3 9 11
f 11 4 3
