# generated by collision_forge
v 0.065442 0.002717 0.013652
v 0.065759 0.004325 0.013652
v 0.065448 0.001500 0.013652
v 0.066925 0.001500 0.018039
v 0.067485 0.001500 0.019495
v 0.065909 0.004540 0.013652
v 0.068172 0.001500 0.020999
v 0.069723 0.004576 0.021896
v 0.069921 0.005079 0.021896
v 0.068720 0.005518 0.018699
v 0.066966 0.005458 0.014888
v 0.073965 0.001500 0.013652
v 0.066563 0.005426 0.013652
v 0.069324 0.001500 0.021896
v 0.070271 0.005687 0.021896
v 0.066705 0.005518 0.013652
v 0.070139 0.005753 0.021162
v 0.074771 0.001500 0.013925
v 0.070094 0.005015 0.013652
v 0.074556 0.001500 0.021896
v 0.071464 0.006045 0.021896
v 0.067904 0.005692 0.013920
v 0.067898 0.005674 0.013652
v 0.071525 0.006136 0.021162
v 0.069716 0.005944 0.017541
v 0.075038 0.001500 0.014080
v 0.069398 0.005558 0.013652
v 0.074774 0.001500 0.021097
v 0.074531 0.002717 0.021896
v 0.073225 0.005835 0.021896
v 0.069716 0.005835 0.015731
v 0.071525 0.006009 0.019351
v 0.072505 0.005504 0.018231
v 0.073804 0.005449 0.021896
v 0.074107 0.005086 0.021896
v 0.074276 0.004632 0.021896
v 0.074426 0.004196 0.021896
v 0.075056 0.001500 0.015731
v 0.070636 0.005444 0.014800
v 0.070926 0.005591 0.015731
v 0.074461 0.003780 0.021896
v 0.073047 0.005815 0.021162
v 0.072713 0.005658 0.019351
v 0.071580 0.005734 0.017593
f 7 14 8
f 24 17 21
f 16 17 24
f 1 3 4
f 15 21 17
f 1 4 5
f 38 26 37
f 24 21 30
f 30 32 24
f 17 16 11
f 11 15 17
f 34 26 33
f 35 26 34
f 33 40 44
f 44 40 32
f 33 26 39
f 39 40 33
f 39 26 27
f 27 40 39
f 27 23 31
f 31 40 27
f 32 40 31
f 24 32 31
f 25 16 24
f 24 31 25
f 38 37 28
f 36 26 35
f 36 37 26
f 8 9 2
f 2 7 8
f 2 11 6
f 2 5 7
f 1 5 2
f 6 11 13
f 13 11 16
f 10 9 15
f 15 11 10
f 10 2 9
f 11 2 10
f 19 18 12
f 26 18 19
f 27 26 19
f 43 44 32
f 33 44 43
f 43 34 33
f 22 23 16
f 16 25 22
f 22 31 23
f 22 25 31
f 20 28 29
f 32 30 42
f 42 43 32
f 30 34 42
f 34 43 42
f 41 28 37
f 41 29 28
f 12 18 28
f 14 7 28
f 28 4 3
f 28 20 14
f 3 12 28
f 28 26 38
f 7 5 28
f 28 5 4
f 28 18 26
f 19 12 3
f 19 3 1
f 19 23 27
f 1 2 19
f 6 13 19
f 16 23 19
f 19 2 6
f 19 13 16
f 14 20 41
f 8 14 41
f 41 30 21
f 41 36 35
f 21 15 41
f 35 34 41
f 41 9 8
f 15 9 41
f 41 34 30
f 37 36 41
f 20 29 41
