# generated by collision_forge
v 0.054261 -0.000926 0.022921
v 0.054601 -0.000540 0.022921
v 0.054581 -0.002739 0.022921
v 0.052399 -0.001984 0.023810
v 0.041393 -0.001518 0.029340
v 0.041822 -0.000976 0.029340
v 0.055472 0.000236 0.022921
v 0.042187 -0.000595 0.029340
v 0.054144 -0.003688 0.023787
v 0.042245 -0.003405 0.029340
v 0.041995 -0.003171 0.029340
v 0.041354 -0.002197 0.029340
v 0.055545 0.000259 0.022921
v 0.043128 0.000130 0.029340
v 0.056981 -0.003910 0.022921
v 0.043000 -0.003815 0.029340
v 0.057087 0.000657 0.022921
v 0.043818 0.000301 0.029340
v 0.057020 -0.003915 0.022921
v 0.044367 -0.004076 0.029340
v 0.058899 0.000935 0.022921
v 0.049801 -0.004452 0.028405
v 0.046218 -0.004316 0.029340
v 0.058849 -0.004152 0.022921
v 0.047053 0.000884 0.029340
v 0.060712 0.001031 0.022921
v 0.048866 0.001042 0.029340
v 0.051611 -0.004471 0.028405
v 0.047989 -0.004455 0.029340
v 0.062471 -0.004282 0.022973
v 0.069796 0.001358 0.022921
v 0.050675 0.001035 0.029340
v 0.051611 -0.004382 0.029340
v 0.049801 -0.004467 0.029340
v 0.064281 -0.004226 0.022973
v 0.069796 0.000970 0.023227
v 0.069796 0.001021 0.022921
v 0.052488 0.000931 0.029340
v 0.054297 0.000736 0.029340
v 0.056171 0.000378 0.029340
v 0.056792 0.000254 0.029340
v 0.062471 -0.004142 0.024784
v 0.055230 -0.003943 0.029340
v 0.063440 -0.001737 0.027532
v 0.067118 -0.001692 0.025745
v 0.069796 -0.001208 0.024183
v 0.057808 -0.000122 0.029340
v 0.069713 -0.003494 0.022921
v 0.068290 -0.003826 0.022921
v 0.067343 -0.003703 0.024041
v 0.056558 -0.003748 0.029340
v 0.063440 -0.001878 0.027532
v 0.058521 -0.000795 0.029340
v 0.058741 -0.001026 0.029340
v 0.069796 -0.003189 0.023365
v 0.068421 -0.003796 0.022921
v 0.064957 -0.003526 0.025527
v 0.056942 -0.003630 0.029340
v 0.058741 -0.001578 0.029340
v 0.058688 -0.002468 0.029340
v 0.069796 -0.002279 0.024198
v 0.057524 -0.003304 0.029340
f 5 6 1
f 26 27 31
f 21 27 26
f 1 3 4
f 4 3 12
f 12 5 4
f 4 5 1
f 12 3 11
f 9 3 15
f 15 16 9
f 28 30 35
f 35 24 49
f 30 24 35
f 45 61 46
f 1 6 2
f 41 47 31
f 31 27 32
f 20 16 15
f 20 24 23
f 10 9 16
f 10 11 3
f 3 9 10
f 22 30 28
f 22 24 30
f 23 24 22
f 42 35 49
f 50 42 49
f 43 42 50
f 48 55 50
f 45 46 36
f 36 44 45
f 31 47 36
f 47 44 36
f 52 61 45
f 45 44 52
f 8 14 7
f 7 2 8
f 8 2 6
f 31 39 40
f 40 41 31
f 38 39 31
f 31 32 38
f 19 20 15
f 24 20 19
f 28 34 29
f 29 22 28
f 23 22 29
f 33 42 43
f 33 34 28
f 28 35 33
f 35 42 33
f 37 55 48
f 56 50 49
f 48 50 56
f 53 44 47
f 53 54 44
f 60 52 59
f 7 14 13
f 14 17 13
f 21 17 25
f 25 27 21
f 43 50 51
f 57 50 55
f 57 55 61
f 58 51 57
f 57 51 50
f 61 52 62
f 62 57 61
f 58 57 62
f 62 52 60
f 18 17 14
f 18 25 17
f 37 46 61
f 31 36 37
f 61 55 37
f 37 36 46
f 44 54 59
f 59 52 44
f 13 19 15
f 49 24 13
f 13 3 1
f 13 26 31
f 15 3 13
f 1 2 13
f 21 26 13
f 13 17 21
f 31 37 13
f 13 2 7
f 13 56 49
f 24 19 13
f 13 37 48
f 48 56 13
f 12 11 18
f 18 5 12
f 16 20 18
f 18 10 16
f 27 25 18
f 6 5 18
f 47 41 18
f 18 32 27
f 23 29 18
f 18 33 43
f 60 59 18
f 18 8 6
f 18 40 39
f 18 20 23
f 39 38 18
f 11 10 18
f 18 53 47
f 14 8 18
f 41 40 18
f 18 38 32
f 18 29 34
f 34 33 18
f 43 51 18
f 54 53 18
f 18 59 54
f 18 62 60
f 18 51 58
f 58 62 18
