# generated by collision_forge
v 0.004530 0.005788 0.044702
v 0.001637 0.005769 0.045782
v 0.003447 0.005772 0.045782
v 0.013519 0.005523 0.045782
v 0.009958 0.005686 0.042892
v 0.006399 0.005761 0.042834
v 0.001535 0.005765 0.045782
v 0.007684 0.005735 0.041547
v 0.014683 0.005455 0.045782
v 0.011767 0.005601 0.041547
v 0.009958 0.005692 0.041547
v 0.009492 0.005702 0.041547
v 0.001535 0.005678 0.044702
v 0.001053 0.004521 0.043510
v 0.001535 -0.000878 0.045782
v 0.006289 0.005664 0.041547
v 0.015073 0.005295 0.045782
v 0.012745 0.005479 0.041547
v 0.005764 0.005632 0.041547
v 0.001535 0.005611 0.044302
v 0.001054 0.004363 0.043510
v 0.001535 0.005474 0.043705
v 0.001426 0.005180 0.043510
v 0.004125 0.004531 0.041547
v 0.004015 0.004149 0.041547
v 0.003833 0.003252 0.041547
v 0.003833 0.003024 0.041547
v 0.003838 0.001465 0.041547
v 0.004901 -0.002482 0.041547
v 0.005247 -0.002552 0.041547
v 0.006340 -0.002766 0.041547
v 0.004584 -0.001377 0.045782
v 0.001080 0.002922 0.043510
v 0.001535 -0.000594 0.044930
v 0.015603 0.004929 0.045782
v 0.016720 0.004108 0.045782
v 0.005148 0.005546 0.041547
v 0.005139 0.005545 0.041547
v 0.004052 -0.000679 0.041547
v 0.004601 -0.002148 0.041547
v 0.006788 -0.002803 0.041547
v 0.008151 -0.001749 0.045340
v 0.004103 -0.000903 0.041547
v 0.013369 0.004484 0.041547
v 0.017199 0.003075 0.045782
v 0.008151 -0.002874 0.041547
v 0.008581 -0.002881 0.041547
v 0.009958 -0.001755 0.045383
v 0.008151 -0.001552 0.045782
v 0.013491 0.004104 0.041547
v 0.017264 0.002715 0.045782
v 0.013873 0.002717 0.041547
v 0.009958 -0.002890 0.041547
v 0.011767 -0.002833 0.041547
v 0.012686 -0.001383 0.045782
v 0.010598 -0.001553 0.045782
v 0.017174 0.000907 0.045782
v 0.014373 -0.000905 0.041547
v 0.013438 -0.002500 0.041547
v 0.014741 -0.000875 0.045782
v 0.016630 -0.000183 0.045782
v 0.016214 -0.000371 0.045782
f 14 15 7
f 14 22 23
f 23 24 14
f 38 23 22
f 24 23 38
f 21 15 14
f 21 33 15
f 14 28 21
f 28 33 21
f 15 33 34
f 34 29 15
f 39 33 28
f 58 52 51
f 59 58 61
f 54 59 55
f 14 7 13
f 13 7 8
f 27 28 14
f 14 26 27
f 14 24 25
f 25 26 14
f 40 34 33
f 29 34 40
f 55 59 60
f 57 58 51
f 57 61 58
f 53 54 48
f 48 54 55
f 48 49 42
f 18 36 44
f 10 11 4
f 8 6 12
f 6 11 12
f 42 49 32
f 32 41 42
f 42 41 46
f 31 32 15
f 41 32 31
f 20 22 14
f 14 13 20
f 19 20 13
f 4 1 3
f 4 11 5
f 5 1 4
f 5 11 6
f 6 1 5
f 33 39 43
f 43 40 33
f 59 61 62
f 62 60 59
f 56 48 55
f 49 48 56
f 9 17 18
f 18 10 9
f 9 10 4
f 35 36 18
f 18 17 35
f 45 44 36
f 51 52 45
f 53 48 47
f 47 48 42
f 42 46 47
f 15 29 30
f 30 31 15
f 16 13 8
f 16 19 13
f 20 19 37
f 37 38 22
f 22 20 37
f 2 3 1
f 2 1 6
f 2 6 8
f 8 7 2
f 50 45 52
f 44 45 50
f 2 7 15
f 55 60 2
f 36 35 2
f 15 32 2
f 2 56 55
f 2 57 51
f 2 62 61
f 4 3 2
f 61 57 2
f 2 9 4
f 2 32 49
f 51 45 2
f 60 62 2
f 49 56 2
f 17 9 2
f 2 35 17
f 2 45 36
f 50 10 18
f 8 12 50
f 52 58 50
f 50 54 53
f 53 47 50
f 50 39 28
f 29 40 50
f 28 27 50
f 24 38 50
f 50 25 24
f 50 58 59
f 59 54 50
f 38 37 50
f 50 43 39
f 50 27 26
f 26 25 50
f 50 30 29
f 18 44 50
f 11 10 50
f 50 12 11
f 50 46 41
f 41 31 50
f 50 16 8
f 40 43 50
f 50 47 46
f 31 30 50
f 19 16 50
f 50 37 19
