# generated by collision_forge
v 0.084065 0.006212 0.046647
v 0.071523 0.006245 0.046647
v 0.066095 0.006050 0.050135
v 0.084214 0.005772 0.048459
v 0.085888 0.006005 0.046647
v 0.069582 0.006120 0.046647
v 0.064006 0.005939 0.050412
v 0.084827 0.005319 0.049152
v 0.083621 0.005488 0.049290
v 0.076199 0.005494 0.050412
v 0.072861 0.005774 0.050412
v 0.060747 0.005649 0.050412
v 0.085489 0.004112 0.049399
v 0.086998 0.005512 0.047545
v 0.087094 0.005605 0.046647
v 0.067773 0.005750 0.046647
v 0.057969 0.005017 0.050412
v 0.080579 0.004083 0.050412
v 0.082072 0.002716 0.050412
v 0.085769 0.002716 0.049503
v 0.086672 0.002716 0.049059
v 0.087183 0.004527 0.047851
v 0.087562 0.004527 0.046647
v 0.067041 0.005104 0.046647
v 0.054660 0.003183 0.050412
v 0.087878 0.002716 0.046647
v 0.066642 0.004447 0.046647
v 0.054245 0.002716 0.050412
v 0.080579 -0.000778 0.050412
v 0.084201 -0.000905 0.049895
v 0.086689 -0.000905 0.049096
v 0.087404 -0.000905 0.048191
v 0.087882 0.002572 0.046647
v 0.066708 0.002791 0.046647
v 0.055431 0.000906 0.050412
v 0.084201 -0.002257 0.049526
v 0.085535 -0.002085 0.049383
v 0.087206 -0.002716 0.047882
v 0.087911 -0.000905 0.046647
v 0.087905 0.000762 0.046647
v 0.067878 0.001269 0.046647
v 0.057039 0.000255 0.050412
v 0.078747 -0.001135 0.050412
v 0.086969 -0.003669 0.047526
v 0.087569 -0.002716 0.046647
v 0.087882 -0.001082 0.046647
v 0.058852 -0.000208 0.050412
v 0.069582 0.000597 0.046647
v 0.078766 -0.002684 0.046647
v 0.080668 -0.003313 0.046647
v 0.076957 -0.001281 0.050412
v 0.080579 -0.002238 0.049675
v 0.086010 -0.003911 0.046647
v 0.084550 -0.003675 0.047552
v 0.086135 -0.003905 0.046647
v 0.087071 -0.003761 0.046647
v 0.087522 -0.002841 0.046647
v 0.060144 -0.000493 0.050412
v 0.081284 -0.003436 0.046647
v 0.071523 -0.001203 0.050412
v 0.064283 -0.000852 0.050412
v 0.084019 -0.003820 0.046647
f 14 15 5
f 1 2 3
f 2 7 3
f 28 24 27
f 27 34 28
f 39 32 38
f 37 44 38
f 52 44 36
f 36 44 37
f 36 43 51
f 36 51 52
f 29 43 36
f 54 44 52
f 41 42 35
f 35 34 41
f 28 34 35
f 23 15 14
f 40 32 39
f 26 23 22
f 22 23 14
f 22 21 32
f 32 26 22
f 14 8 13
f 13 22 14
f 21 22 13
f 13 20 21
f 19 20 13
f 14 5 4
f 4 8 14
f 4 5 1
f 30 20 19
f 19 29 30
f 30 36 37
f 29 36 30
f 21 20 31
f 32 21 31
f 31 30 37
f 20 30 31
f 37 38 31
f 31 38 32
f 53 54 62
f 44 54 53
f 45 38 44
f 52 51 60
f 62 54 58
f 48 42 41
f 33 26 32
f 32 40 33
f 12 16 17
f 17 16 25
f 25 16 24
f 25 24 28
f 19 13 18
f 18 13 8
f 11 3 7
f 1 3 11
f 11 4 1
f 55 56 44
f 44 53 55
f 39 38 46
f 38 45 46
f 44 56 57
f 57 45 44
f 62 58 59
f 59 58 50
f 42 50 47
f 50 58 47
f 61 54 52
f 61 58 54
f 52 60 61
f 49 50 42
f 42 48 49
f 16 12 6
f 6 12 7
f 6 7 2
f 10 18 9
f 9 18 8
f 8 4 9
f 9 11 10
f 4 11 9
f 51 43 61
f 61 29 19
f 28 35 61
f 7 12 61
f 61 25 28
f 61 11 7
f 61 43 29
f 61 35 42
f 19 18 61
f 61 60 51
f 42 47 61
f 61 12 17
f 17 25 61
f 61 18 10
f 10 11 61
f 61 47 58
f 6 2 1
f 6 27 24
f 6 40 39
f 41 34 6
f 6 53 62
f 15 23 6
f 1 5 6
f 56 55 6
f 6 5 15
f 34 27 6
f 50 49 6
f 6 57 56
f 6 23 26
f 6 48 41
f 24 16 6
f 26 33 6
f 39 46 6
f 62 59 6
f 6 33 40
f 6 55 53
f 6 46 45
f 45 57 6
f 6 59 50
f 6 49 48
