# generated by collision_forge
v 0.044364 0.001089 0.032027
v 0.042974 0.001061 0.032027
v 0.042974 0.001084 0.033419
v 0.047986 0.001088 0.030217
v 0.048863 0.001042 0.029340
v 0.042974 0.000989 0.031608
v 0.042974 0.001077 0.033545
v 0.049796 0.001047 0.030217
v 0.050673 0.001035 0.029340
v 0.047052 0.000884 0.029340
v 0.044364 0.000776 0.030217
v 0.042974 0.000510 0.030155
v 0.042974 -0.004804 0.033545
v 0.044658 0.000986 0.033545
v 0.047986 0.000718 0.033545
v 0.051606 0.000884 0.030217
v 0.052482 0.000931 0.029340
v 0.045266 0.000595 0.029340
v 0.042974 0.000393 0.029886
v 0.042974 -0.004864 0.032027
v 0.044364 -0.004797 0.032027
v 0.049796 -0.004481 0.030217
v 0.051606 -0.004298 0.030217
v 0.044364 -0.004640 0.033545
v 0.049796 0.000539 0.033545
v 0.054293 0.000736 0.029340
v 0.043816 0.000302 0.029340
v 0.042974 -0.004243 0.030122
v 0.044364 -0.004487 0.030217
v 0.046175 -0.004603 0.030217
v 0.047986 -0.004602 0.030217
v 0.051606 -0.004382 0.029340
v 0.055228 -0.003944 0.029340
v 0.049597 -0.003938 0.033545
v 0.047986 -0.004161 0.033545
v 0.051479 0.000296 0.033545
v 0.056175 0.000378 0.029340
v 0.043126 0.000130 0.029340
v 0.042974 -0.000072 0.029340
v 0.042974 -0.003833 0.029379
v 0.044364 -0.004077 0.029340
v 0.046217 -0.004316 0.029340
v 0.047986 -0.004456 0.029340
v 0.049796 -0.004467 0.029340
v 0.056561 -0.003748 0.029340
v 0.049844 -0.003887 0.033545
v 0.054236 -0.000950 0.033545
v 0.057809 -0.000122 0.029340
v 0.056795 0.000254 0.029340
v 0.042974 -0.003801 0.029340
v 0.056943 -0.003630 0.029340
v 0.056482 -0.003722 0.029473
v 0.050879 -0.003635 0.033545
v 0.058513 -0.002275 0.029571
v 0.058513 -0.001256 0.029571
v 0.058742 -0.001026 0.029340
v 0.058521 -0.000795 0.029340
v 0.053356 -0.002621 0.033545
v 0.057524 -0.003305 0.029340
v 0.051870 -0.003295 0.033545
v 0.058692 -0.002468 0.029340
v 0.058742 -0.001579 0.029340
f 36 48 49
f 47 48 36
f 56 47 55
f 47 54 55
f 58 54 47
f 2 3 1
f 57 47 56
f 57 48 47
f 36 26 25
f 11 18 12
f 54 58 61
f 53 51 60
f 60 51 58
f 9 8 17
f 14 8 7
f 7 8 3
f 37 36 49
f 37 26 36
f 15 8 14
f 19 38 39
f 12 18 19
f 6 11 12
f 2 5 6
f 28 29 20
f 29 28 41
f 20 29 30
f 30 29 43
f 54 61 62
f 58 51 59
f 59 61 58
f 21 13 20
f 4 9 5
f 4 5 2
f 2 1 4
f 8 9 4
f 4 1 3
f 3 8 4
f 17 8 16
f 8 15 16
f 16 15 25
f 16 26 17
f 16 25 26
f 27 19 18
f 38 19 27
f 10 6 5
f 11 6 10
f 18 11 10
f 43 29 42
f 29 41 42
f 50 41 40
f 40 41 28
f 44 30 43
f 13 21 22
f 22 23 13
f 32 23 22
f 13 23 24
f 53 46 52
f 52 51 53
f 31 44 32
f 31 21 20
f 20 30 31
f 30 44 31
f 32 22 31
f 31 22 21
f 35 23 34
f 35 24 23
f 33 23 32
f 34 23 33
f 51 52 45
f 34 33 45
f 45 46 34
f 45 52 46
f 56 55 62
f 62 55 54
f 40 3 2
f 40 19 39
f 40 7 3
f 2 6 40
f 39 50 40
f 20 13 40
f 13 7 40
f 12 19 40
f 40 6 12
f 40 28 20
f 47 36 35
f 53 60 35
f 35 58 47
f 35 7 13
f 35 46 53
f 36 25 35
f 35 15 14
f 34 46 35
f 35 60 58
f 14 7 35
f 25 15 35
f 13 24 35
f 43 42 45
f 45 50 39
f 39 38 45
f 45 27 18
f 49 48 45
f 45 57 56
f 5 9 45
f 45 37 49
f 45 10 5
f 48 57 45
f 17 26 45
f 45 59 51
f 56 62 45
f 45 44 43
f 45 9 17
f 26 37 45
f 45 41 50
f 45 62 61
f 61 59 45
f 38 27 45
f 18 10 45
f 45 42 41
f 32 44 45
f 45 33 32
