# generated by collision_forge
v 0.074773 0.001499 0.021098
v 0.074724 0.001499 0.019788
v 0.074540 0.001499 0.022921
v 0.075105 0.001263 0.019395
v 0.075105 0.001262 0.019231
v 0.074538 0.001499 0.019231
v 0.074446 0.000984 0.022921
v 0.075105 -0.001249 0.021872
v 0.075105 -0.000905 0.021880
v 0.075105 0.000948 0.020978
v 0.069819 0.001499 0.022921
v 0.075105 -0.003932 0.019231
v 0.067411 0.001499 0.019231
v 0.074493 -0.001978 0.022161
v 0.071469 -0.002734 0.022921
v 0.075105 -0.002623 0.021371
v 0.068170 0.001499 0.020999
v 0.060714 0.001032 0.022921
v 0.067903 -0.004145 0.019352
v 0.069714 -0.004078 0.019231
v 0.075105 -0.003915 0.019349
v 0.064283 -0.004227 0.022921
v 0.066093 -0.004235 0.021162
v 0.067484 0.001499 0.019496
v 0.064403 0.001068 0.019231
v 0.058904 0.000935 0.022921
v 0.071453 -0.002742 0.022921
v 0.070926 -0.003691 0.022216
v 0.075105 -0.003673 0.020368
v 0.067892 -0.004127 0.019231
v 0.064283 -0.004248 0.021162
v 0.066093 -0.004100 0.019352
v 0.066093 -0.004088 0.022921
v 0.062473 -0.004278 0.022921
v 0.062573 0.000772 0.019231
v 0.057090 0.000657 0.022921
v 0.068292 -0.003827 0.022921
v 0.060659 -0.004246 0.022921
v 0.058851 -0.004153 0.022921
v 0.064642 -0.003936 0.019231
v 0.060951 0.000325 0.019231
v 0.055543 0.000259 0.022921
v 0.057392 -0.003963 0.022921
v 0.062473 -0.003816 0.019648
v 0.060861 0.000292 0.019231
v 0.056094 0.000023 0.022041
v 0.055474 0.000236 0.022921
v 0.056984 -0.003910 0.022921
v 0.062473 -0.003633 0.019231
v 0.059996 -0.000559 0.019231
v 0.059702 -0.000938 0.019231
v 0.054260 -0.000926 0.022921
v 0.054601 -0.000539 0.022921
v 0.055207 -0.003163 0.022921
v 0.056409 -0.003454 0.022261
v 0.057617 -0.003716 0.021891
v 0.059881 -0.003582 0.020341
v 0.060796 -0.002942 0.019231
v 0.060583 -0.002820 0.019231
v 0.057874 -0.001904 0.020208
v 0.055774 -0.002247 0.021828
v 0.054580 -0.002740 0.022921
f 14 15 16
f 9 10 3
f 52 61 62
f 18 11 17
f 18 17 26
f 15 14 7
f 4 5 1
f 1 10 4
f 3 10 1
f 16 15 29
f 37 33 29
f 52 46 51
f 3 7 8
f 8 9 3
f 8 7 14
f 8 14 16
f 5 6 2
f 2 1 5
f 12 23 19
f 39 43 44
f 44 43 48
f 49 40 44
f 34 23 22
f 22 23 12
f 28 29 15
f 37 29 28
f 21 29 33
f 33 22 21
f 21 22 12
f 54 55 48
f 62 55 54
f 48 55 56
f 56 44 48
f 53 46 52
f 47 46 53
f 60 61 52
f 52 51 60
f 60 62 61
f 60 55 62
f 50 46 45
f 50 51 46
f 36 35 42
f 25 36 26
f 25 35 36
f 12 19 20
f 20 19 30
f 31 38 39
f 31 19 23
f 34 38 31
f 31 23 34
f 27 28 15
f 37 28 27
f 49 44 57
f 44 56 57
f 57 56 55
f 59 60 51
f 55 60 59
f 59 57 55
f 41 42 35
f 47 42 41
f 41 46 47
f 45 46 41
f 13 25 26
f 32 31 39
f 39 44 32
f 32 44 40
f 32 40 30
f 30 19 32
f 19 31 32
f 49 57 58
f 57 59 58
f 26 17 24
f 24 13 26
f 16 29 21
f 4 10 21
f 21 5 4
f 21 12 5
f 10 9 21
f 21 8 16
f 9 8 21
f 27 54 48
f 27 38 34
f 27 7 3
f 26 36 27
f 3 11 27
f 27 18 26
f 52 62 27
f 48 43 27
f 27 53 52
f 27 42 47
f 34 22 27
f 27 43 39
f 11 18 27
f 15 7 27
f 39 38 27
f 27 33 37
f 27 22 33
f 62 54 27
f 47 53 27
f 36 42 27
f 5 12 58
f 58 40 49
f 58 6 5
f 45 41 58
f 12 20 58
f 30 40 58
f 58 50 45
f 58 13 6
f 51 50 58
f 35 25 58
f 58 20 30
f 58 59 51
f 58 41 35
f 25 13 58
f 24 11 3
f 17 11 24
f 24 2 6
f 3 1 24
f 1 2 24
f 6 13 24
