# generated by collision_forge
v 0.008813 0.002716 0.031062
v 0.008938 0.003866 0.031062
v 0.008877 0.001428 0.031062
v 0.006530 0.001428 0.034294
v 0.009287 0.004305 0.031062
v 0.004596 0.001428 0.037506
v 0.004124 0.004532 0.041547
v 0.014334 0.001428 0.031062
v 0.009640 0.004725 0.031062
v 0.004184 0.001428 0.039499
v 0.003832 0.003253 0.041547
v 0.004012 0.004150 0.041547
v 0.005137 0.005545 0.041547
v 0.014418 0.002113 0.031062
v 0.014570 0.001428 0.033838
v 0.010596 0.005522 0.031062
v 0.003843 0.001428 0.041516
v 0.003835 0.001467 0.041547
v 0.003832 0.003025 0.041547
v 0.005147 0.005547 0.041547
v 0.014530 0.003357 0.031062
v 0.014021 0.001428 0.041547
v 0.014521 0.003702 0.031062
v 0.011158 0.005567 0.031062
v 0.005762 0.005633 0.041547
v 0.003840 0.001428 0.041547
v 0.013874 0.002718 0.041547
v 0.014218 0.004133 0.031062
v 0.012964 0.005213 0.041547
v 0.013370 0.004485 0.041547
v 0.013493 0.004104 0.041547
v 0.011770 0.005600 0.031062
v 0.009959 0.005681 0.035649
v 0.006288 0.005665 0.041547
v 0.013811 0.004584 0.031062
v 0.012746 0.005479 0.041547
v 0.011770 0.005621 0.032028
v 0.012371 0.005564 0.031062
v 0.007683 0.005737 0.041547
v 0.009959 0.005713 0.037459
v 0.012863 0.005510 0.031062
v 0.011770 0.005602 0.041547
v 0.009959 0.005710 0.039270
v 0.009492 0.005703 0.041547
v 0.009959 0.005693 0.041547
f 1 3 4
f 11 6 10
f 16 13 20
f 20 25 16
f 12 6 11
f 12 7 6
f 9 7 13
f 9 13 16
f 23 22 15
f 42 36 41
f 39 43 40
f 16 25 24
f 26 18 17
f 17 18 10
f 11 10 19
f 10 18 19
f 2 4 6
f 1 4 2
f 6 7 2
f 21 23 15
f 41 36 35
f 45 42 43
f 39 40 33
f 33 34 39
f 32 24 33
f 25 34 33
f 33 24 25
f 32 33 37
f 37 33 40
f 43 42 37
f 37 40 43
f 7 9 5
f 5 2 7
f 15 8 14
f 14 21 15
f 28 35 36
f 22 23 27
f 23 31 27
f 30 31 23
f 44 43 39
f 44 45 43
f 32 37 38
f 38 42 41
f 38 37 42
f 29 30 23
f 23 28 29
f 29 28 36
f 6 4 17
f 15 22 17
f 22 26 17
f 17 8 15
f 17 4 3
f 3 8 17
f 17 10 6
f 38 8 3
f 1 2 38
f 38 3 1
f 16 24 38
f 38 28 23
f 38 9 16
f 38 5 9
f 38 24 32
f 41 35 38
f 23 21 38
f 38 14 8
f 2 5 38
f 21 14 38
f 35 28 38
f 29 26 22
f 29 12 11
f 29 20 13
f 29 44 39
f 39 34 29
f 13 7 29
f 11 19 29
f 29 18 26
f 25 20 29
f 7 12 29
f 36 42 29
f 29 34 25
f 29 19 18
f 22 27 29
f 42 45 29
f 29 27 31
f 31 30 29
f 45 44 29
