# generated by collision_forge
v -0.067008 -0.002716 0.034241
v -0.067008 -0.000826 0.034374
v -0.067006 0.000509 0.035570
v -0.067008 -0.003773 0.034590
v -0.072372 -0.003600 0.034751
v -0.075146 0.000867 0.034303
v -0.067006 0.000830 0.036564
v -0.067008 0.000050 0.034696
v -0.073006 0.001703 0.035570
v -0.067006 -0.004223 0.035650
v -0.084200 -0.003855 0.036214
v -0.075146 -0.002074 0.034703
v -0.086010 -0.003764 0.036351
v -0.084200 -0.002716 0.035651
v -0.077630 0.001703 0.035570
v -0.086010 -0.000907 0.035850
v -0.086650 0.001703 0.036344
v -0.067006 0.001086 0.037460
v -0.071830 0.001703 0.037512
v -0.067006 -0.004550 0.037460
v -0.078767 -0.004425 0.037460
v -0.080575 -0.004385 0.037460
v -0.086010 -0.004022 0.037460
v -0.086980 -0.003676 0.036480
v -0.087101 -0.002716 0.036356
v -0.087109 0.000905 0.036392
v -0.067006 -0.004525 0.039272
v -0.078767 -0.004531 0.041080
v -0.084200 -0.004337 0.039272
v -0.086010 -0.004146 0.039272
v -0.087764 -0.000907 0.037460
v -0.087259 0.001703 0.036795
v -0.068289 0.001703 0.045671
v -0.067006 0.001181 0.039272
v -0.067006 -0.004387 0.041080
v -0.078767 -0.004394 0.042890
v -0.080575 -0.004369 0.042890
v -0.084200 -0.004296 0.041080
v -0.087109 -0.003767 0.042890
v -0.087176 -0.003812 0.039272
v -0.087791 -0.002716 0.039272
v -0.087910 0.001703 0.038258
v -0.068264 0.001703 0.045938
v -0.067006 0.001148 0.040183
v -0.067006 -0.004026 0.042890
v -0.076961 -0.004368 0.042890
v -0.084200 -0.003613 0.045938
v -0.086010 -0.004003 0.042890
v -0.087034 -0.003710 0.044369
v -0.087741 -0.002716 0.042890
v -0.088210 -0.000907 0.041080
v -0.068120 0.000889 0.045938
v -0.067006 0.000395 0.044176
v -0.067006 0.000689 0.043610
v -0.067006 0.001105 0.041080
v -0.088275 0.001703 0.045938
v -0.067006 -0.003684 0.043857
v -0.082971 -0.003397 0.045938
v -0.086548 -0.003556 0.045938
v -0.086842 -0.003614 0.045577
v -0.088187 -0.000907 0.045938
v -0.088210 0.001703 0.040070
f 43 54 55
f 18 19 33
f 10 11 4
f 21 10 20
f 23 40 24
f 9 7 3
f 18 7 9
f 9 19 18
f 34 33 43
f 18 33 34
f 47 57 58
f 57 52 58
f 53 52 57
f 43 52 53
f 53 54 43
f 17 26 32
f 42 32 31
f 31 32 26
f 24 31 25
f 25 31 26
f 17 6 16
f 16 26 17
f 16 25 26
f 62 51 56
f 42 31 62
f 62 31 51
f 56 51 61
f 41 40 50
f 50 61 41
f 41 61 51
f 24 40 41
f 41 31 24
f 51 31 41
f 28 21 20
f 13 23 24
f 11 23 13
f 30 23 29
f 40 23 30
f 22 23 11
f 11 10 22
f 10 21 22
f 29 23 22
f 22 28 29
f 21 28 22
f 3 2 8
f 8 2 6
f 8 9 3
f 6 9 8
f 6 2 1
f 1 12 6
f 1 10 4
f 3 10 1
f 1 2 3
f 15 6 17
f 15 9 6
f 43 55 44
f 44 34 43
f 46 35 45
f 45 57 47
f 47 46 45
f 6 12 14
f 14 16 6
f 14 13 24
f 24 25 14
f 25 16 14
f 29 28 38
f 38 30 29
f 48 30 38
f 36 35 46
f 36 46 47
f 27 28 20
f 35 36 27
f 27 36 28
f 40 30 39
f 39 30 48
f 50 40 39
f 11 13 5
f 13 14 5
f 4 11 5
f 5 1 4
f 12 1 5
f 5 14 12
f 37 38 28
f 28 36 37
f 48 38 37
f 37 60 48
f 37 36 47
f 48 60 49
f 49 39 48
f 50 39 49
f 49 61 50
f 49 60 61
f 59 37 47
f 60 37 59
f 61 60 59
f 17 32 15
f 56 43 15
f 15 62 56
f 43 33 15
f 15 33 19
f 19 9 15
f 15 32 42
f 42 62 15
f 27 10 3
f 3 7 27
f 18 34 27
f 57 45 27
f 27 55 54
f 27 7 18
f 20 10 27
f 54 53 27
f 27 44 55
f 27 53 57
f 34 44 27
f 27 45 35
f 59 43 56
f 47 58 59
f 59 52 43
f 59 58 52
f 56 61 59
