# generated by collision_forge
v 0.009464 -0.001538 0.045783
v 0.009464 -0.001181 0.046514
v 0.009464 0.005517 0.045783
v 0.009960 -0.001546 0.045783
v 0.027965 -0.000553 0.051954
v 0.027965 -0.000213 0.053029
v 0.027965 -0.000198 0.053069
v 0.026596 -0.000098 0.052953
v 0.009464 -0.000332 0.047707
v 0.019685 -0.000070 0.051114
v 0.013583 0.005547 0.046514
v 0.016221 0.005445 0.049251
v 0.010601 -0.001553 0.045783
v 0.027965 -0.000551 0.051831
v 0.027965 0.000837 0.053504
v 0.025388 0.000033 0.052836
v 0.009464 0.000906 0.048097
v 0.020824 0.000906 0.051770
v 0.013521 0.005524 0.045783
v 0.024444 0.005488 0.051184
v 0.027965 0.005453 0.050983
v 0.009464 0.005102 0.047109
v 0.009464 0.004429 0.047816
v 0.019013 0.004098 0.051303
v 0.021708 0.005435 0.051044
v 0.012690 -0.001383 0.045783
v 0.027965 -0.000358 0.050341
v 0.027965 0.000898 0.053523
v 0.024865 0.001240 0.052959
v 0.018015 0.001655 0.051075
v 0.009464 0.002716 0.048233
v 0.023657 0.002250 0.052824
v 0.020824 0.002716 0.052081
v 0.014687 0.005456 0.045783
v 0.027965 0.005306 0.052332
v 0.027965 0.005453 0.051426
v 0.027965 0.004415 0.049997
v 0.017910 0.003790 0.051113
v 0.023504 0.003643 0.052860
v 0.024444 0.003848 0.052966
v 0.026256 0.004176 0.053156
v 0.027965 0.004401 0.053324
v 0.027965 0.005255 0.052391
v 0.014745 -0.000875 0.045783
v 0.025768 -0.000075 0.049153
v 0.027965 0.002614 0.053765
v 0.027965 0.002716 0.053779
v 0.027965 0.004385 0.049970
v 0.016216 -0.000371 0.045783
v 0.026977 0.000439 0.049296
v 0.016633 -0.000183 0.045783
v 0.027965 0.000957 0.049505
v 0.015606 0.004929 0.045783
v 0.027288 0.003690 0.049203
v 0.027965 0.002972 0.049338
v 0.027965 0.000986 0.049489
v 0.017178 0.000906 0.045783
v 0.016723 0.004108 0.045783
v 0.017201 0.003076 0.045783
v 0.027965 0.002716 0.049336
v 0.017265 0.002716 0.045783
v 0.017205 0.001468 0.045783
f 7 8 1
f 10 17 9
f 36 20 35
f 26 44 27
f 27 14 26
f 1 5 6
f 6 7 1
f 10 8 16
f 16 28 29
f 18 17 10
f 10 16 18
f 18 16 29
f 10 9 2
f 1 8 2
f 2 8 10
f 13 14 5
f 13 26 14
f 27 44 45
f 8 7 15
f 15 16 8
f 28 16 15
f 47 29 46
f 29 28 46
f 47 42 41
f 32 29 47
f 47 39 32
f 32 18 29
f 38 23 31
f 4 5 1
f 4 13 5
f 49 45 44
f 51 45 49
f 56 51 57
f 55 61 59
f 54 48 55
f 54 59 58
f 55 59 54
f 48 54 34
f 40 39 47
f 47 41 40
f 24 23 38
f 38 39 24
f 39 40 24
f 17 18 30
f 30 31 17
f 3 20 11
f 11 19 3
f 27 45 50
f 50 45 51
f 51 56 50
f 60 56 57
f 57 62 60
f 60 62 61
f 60 61 55
f 21 34 19
f 21 19 11
f 11 20 21
f 21 20 36
f 53 54 58
f 53 34 54
f 12 3 22
f 20 3 12
f 12 22 23
f 23 24 12
f 25 40 41
f 25 24 40
f 25 12 24
f 42 43 25
f 25 41 42
f 25 43 35
f 25 35 20
f 20 12 25
f 18 32 33
f 33 30 18
f 33 32 39
f 33 39 38
f 38 31 33
f 31 30 33
f 27 50 52
f 52 50 56
f 48 34 37
f 34 21 37
f 3 9 17
f 1 2 3
f 3 2 9
f 17 31 3
f 3 31 23
f 23 22 3
f 57 51 53
f 19 34 53
f 53 49 44
f 44 26 53
f 53 4 1
f 58 59 53
f 26 13 53
f 53 62 57
f 13 4 53
f 51 49 53
f 61 62 53
f 53 59 61
f 1 3 53
f 53 3 19
f 37 42 47
f 37 43 42
f 37 15 7
f 5 14 37
f 37 14 27
f 47 46 37
f 36 35 37
f 37 6 5
f 37 60 55
f 7 6 37
f 35 43 37
f 55 48 37
f 28 15 37
f 37 46 28
f 37 21 36
f 56 60 37
f 27 52 37
f 37 52 56
