# generated by collision_forge
v 0.001536 0.005786 0.046513
v 0.002717 0.005569 0.048091
v 0.002717 0.005762 0.046513
v 0.003447 0.005773 0.045783
v 0.001536 0.005773 0.045884
v 0.001536 0.005582 0.048158
v 0.002717 0.005296 0.048996
v 0.007341 0.005446 0.047441
v 0.004527 0.005534 0.047767
v 0.004527 0.005701 0.046513
v 0.001536 0.005447 0.048749
v 0.001536 0.005352 0.049063
v 0.005258 0.005713 0.045783
v 0.001636 0.005770 0.045783
v 0.001536 0.005765 0.045783
v 0.001536 0.004762 0.049457
v 0.002717 0.004391 0.049594
v 0.004527 0.004016 0.049387
v 0.009462 0.004429 0.047816
v 0.009462 0.005102 0.047110
v 0.009462 0.005276 0.046917
v 0.009462 0.005487 0.046079
v 0.006337 0.005614 0.046513
v 0.007067 0.005634 0.045783
v 0.001536 -0.000879 0.045783
v 0.001536 0.004447 0.049664
v 0.002717 0.002716 0.049924
v 0.001536 0.003298 0.049967
v 0.001536 0.002716 0.050082
v 0.005557 0.003708 0.049265
v 0.009462 0.003910 0.047975
v 0.009462 0.005517 0.045783
v 0.001536 -0.001185 0.046513
v 0.004581 -0.001378 0.045783
v 0.002717 0.000906 0.049749
v 0.004549 0.001080 0.049367
v 0.005436 0.001799 0.049230
v 0.004527 0.002716 0.049502
v 0.001536 0.001535 0.049969
v 0.005529 0.002716 0.049257
v 0.009462 0.002716 0.048232
v 0.009462 -0.001539 0.045783
v 0.006337 -0.001493 0.045783
v 0.004527 -0.001316 0.046513
v 0.001536 -0.000871 0.048324
v 0.001536 0.000906 0.049908
v 0.003960 -0.000084 0.049305
v 0.005167 0.000593 0.049151
v 0.009462 0.000906 0.048097
v 0.008148 -0.001552 0.045783
v 0.009462 -0.001181 0.046513
v 0.002717 -0.000789 0.048324
v 0.001536 -0.000272 0.049490
v 0.002717 -0.000199 0.049418
v 0.009462 -0.000332 0.047707
f 7 18 19
f 19 8 7
f 7 2 12
f 7 8 2
f 6 2 1
f 1 4 5
f 18 7 17
f 16 7 12
f 26 17 16
f 16 17 7
f 12 2 11
f 2 6 11
f 20 8 19
f 20 21 8
f 8 21 22
f 1 2 3
f 2 10 3
f 3 4 1
f 2 8 9
f 9 10 2
f 8 10 9
f 4 3 13
f 13 3 10
f 34 33 25
f 50 42 45
f 15 5 14
f 14 5 4
f 29 17 28
f 28 17 26
f 27 17 29
f 18 17 27
f 23 22 32
f 23 10 8
f 8 22 23
f 24 13 10
f 24 23 32
f 10 23 24
f 33 34 43
f 42 51 52
f 52 45 42
f 53 45 52
f 52 51 53
f 18 27 30
f 30 27 38
f 30 41 31
f 30 31 19
f 19 18 30
f 40 30 38
f 41 30 40
f 44 45 33
f 33 43 44
f 44 43 50
f 50 45 44
f 39 27 29
f 35 39 46
f 27 39 35
f 38 27 37
f 37 40 38
f 37 48 49
f 49 41 37
f 41 40 37
f 53 51 54
f 54 46 53
f 36 35 48
f 48 37 36
f 27 35 36
f 36 37 27
f 47 51 55
f 47 54 51
f 55 49 47
f 49 48 47
f 48 35 47
f 47 35 46
f 46 54 47
f 41 42 32
f 41 49 55
f 55 51 41
f 19 31 41
f 32 22 41
f 41 20 19
f 41 51 42
f 21 20 41
f 41 22 21
f 25 15 43
f 15 14 43
f 43 42 50
f 32 42 43
f 43 24 32
f 4 13 43
f 43 34 25
f 43 14 4
f 13 24 43
f 25 33 39
f 39 45 53
f 29 28 39
f 39 15 25
f 39 6 1
f 1 5 39
f 39 16 12
f 12 11 39
f 39 5 15
f 26 16 39
f 39 11 6
f 33 45 39
f 39 28 26
f 53 46 39
