# generated by collision_forge
v 0.077209 0.004527 0.033846
v 0.076465 0.004527 0.030216
v 0.076077 0.005467 0.029200
v 0.076191 0.005609 0.030216
v 0.076387 0.005813 0.032026
v 0.076596 0.005927 0.033846
v 0.077207 0.004515 0.033846
v 0.076177 0.003356 0.028777
v 0.076275 0.004526 0.029339
v 0.076164 0.004526 0.028827
v 0.075121 0.004526 0.024785
v 0.074426 0.004196 0.021897
v 0.074579 0.004615 0.022896
v 0.074156 0.005279 0.022240
v 0.074375 0.005569 0.023447
v 0.074574 0.005736 0.024785
v 0.075146 0.006248 0.030216
v 0.076591 0.005937 0.033846
v 0.074817 0.005904 0.026594
v 0.076552 0.002618 0.033846
v 0.076497 0.002938 0.032026
v 0.076326 0.003114 0.030216
v 0.076236 0.003261 0.029339
v 0.074556 0.001500 0.021897
v 0.074531 0.002717 0.021897
v 0.074462 0.003780 0.021897
v 0.074276 0.004632 0.021897
v 0.073803 0.005449 0.021897
v 0.073225 0.005835 0.021897
v 0.075146 0.006450 0.032026
v 0.073336 0.006202 0.024785
v 0.073336 0.006404 0.026594
v 0.075146 0.006563 0.033837
v 0.075138 0.006561 0.033846
v 0.076462 0.002562 0.033846
v 0.074521 0.001500 0.024672
v 0.069324 0.001500 0.021897
v 0.075329 0.001887 0.033846
v 0.071465 0.006045 0.021897
v 0.073336 0.006507 0.028404
v 0.073336 0.006449 0.030216
v 0.073336 0.006265 0.032026
v 0.073177 0.005972 0.033846
v 0.074378 0.001500 0.026312
v 0.072503 0.004527 0.033846
v 0.072399 0.005491 0.033281
v 0.069723 0.004576 0.021897
v 0.070049 0.001500 0.023461
v 0.073471 0.002631 0.033846
v 0.073386 0.002728 0.033846
v 0.072428 0.003614 0.032957
v 0.072517 0.004312 0.033846
v 0.075146 0.001880 0.033846
v 0.074096 0.001500 0.027698
v 0.070272 0.005687 0.021897
v 0.071959 0.005919 0.028404
v 0.072143 0.005810 0.030216
v 0.073149 0.005952 0.033846
v 0.069921 0.005079 0.021897
v 0.072101 0.001500 0.026594
v 0.072250 0.001677 0.028019
v 0.073260 0.001500 0.027953
f 53 54 38
f 34 18 33
f 34 42 43
f 25 8 24
f 2 3 1
f 1 8 2
f 43 42 56
f 51 52 37
f 46 47 37
f 46 59 47
f 55 59 46
f 24 38 36
f 60 53 48
f 48 49 37
f 62 53 60
f 54 53 62
f 12 3 11
f 21 20 24
f 35 38 24
f 24 20 35
f 14 15 3
f 55 40 39
f 41 40 55
f 55 56 41
f 41 56 42
f 42 34 41
f 41 34 33
f 33 40 41
f 52 51 50
f 37 49 50
f 50 51 37
f 37 52 45
f 45 46 37
f 55 46 57
f 57 56 55
f 43 56 57
f 38 54 44
f 44 36 38
f 61 53 49
f 49 48 61
f 61 48 53
f 12 11 10
f 8 25 10
f 10 11 3
f 20 21 7
f 7 8 1
f 29 15 28
f 15 14 28
f 13 3 12
f 12 14 13
f 13 14 3
f 18 6 5
f 5 6 1
f 3 15 16
f 19 5 16
f 16 15 29
f 29 19 16
f 33 18 30
f 32 39 40
f 32 40 33
f 33 30 32
f 46 45 58
f 43 57 58
f 58 57 46
f 12 10 26
f 26 10 25
f 9 2 8
f 8 10 9
f 3 2 9
f 9 10 3
f 22 7 21
f 22 21 24
f 27 14 12
f 27 28 14
f 3 16 4
f 4 16 5
f 1 3 4
f 4 5 1
f 18 5 17
f 17 30 18
f 17 5 19
f 17 32 30
f 29 39 31
f 39 32 31
f 31 19 29
f 31 17 19
f 32 17 31
f 8 7 23
f 7 22 23
f 24 8 23
f 23 22 24
f 37 24 44
f 24 36 44
f 44 48 37
f 44 62 60
f 60 48 44
f 54 62 44
f 49 53 58
f 58 34 43
f 38 35 58
f 1 6 58
f 58 50 49
f 58 53 38
f 58 6 18
f 18 34 58
f 58 7 1
f 58 35 20
f 52 50 58
f 58 45 52
f 20 7 58
f 27 24 37
f 55 39 27
f 37 47 27
f 27 59 55
f 12 26 27
f 27 25 24
f 47 59 27
f 27 39 29
f 29 28 27
f 27 26 25
