# generated by collision_forge
v 0.008877 0.001428 0.031062
v 0.009017 -0.000055 0.031062
v 0.001536 -0.002715 0.031641
v 0.001536 -0.000906 0.032096
v 0.001536 0.000141 0.032765
v 0.001536 0.000446 0.033463
v 0.001536 0.000608 0.033838
v 0.001536 0.000917 0.035020
v 0.001536 0.001080 0.035649
v 0.006531 0.001428 0.034294
v 0.014335 0.001428 0.031062
v 0.001536 -0.004526 0.031926
v 0.001536 0.001081 0.037459
v 0.003841 0.001428 0.041547
v 0.014570 0.001428 0.033838
v 0.017282 0.001054 0.035649
v 0.017282 0.000748 0.033838
v 0.017282 0.000236 0.032666
v 0.017282 0.000186 0.032637
v 0.017282 -0.000906 0.032016
v 0.017282 -0.002715 0.031678
v 0.014271 0.000920 0.031062
v 0.011770 -0.001312 0.031062
v 0.001536 0.000460 0.039214
v 0.001536 -0.001968 0.040482
v 0.001536 -0.002608 0.040460
v 0.014020 0.001428 0.041547
v 0.017282 0.000975 0.037459
v 0.017282 -0.004526 0.032021
v 0.001536 -0.005784 0.032550
v 0.011770 -0.004526 0.031967
v 0.004900 -0.002483 0.041547
v 0.004599 -0.002150 0.041547
v 0.017282 -0.000913 0.041408
v 0.017282 0.000218 0.040615
v 0.017282 0.000665 0.039190
v 0.017282 -0.005690 0.032627
v 0.009959 -0.005754 0.032575
v 0.006338 -0.005776 0.032556
v 0.001536 -0.006421 0.033838
v 0.001536 -0.005765 0.038696
v 0.013441 -0.002502 0.041547
v 0.017282 -0.002708 0.041213
v 0.017282 -0.006231 0.033838
v 0.008149 -0.006384 0.033838
v 0.006338 -0.006400 0.033838
v 0.001536 -0.006655 0.035649
v 0.002717 -0.005768 0.038703
v 0.017282 -0.006474 0.035649
v 0.013579 -0.006568 0.035649
v 0.009959 -0.006607 0.035649
v 0.001536 -0.006550 0.036278
v 0.013579 -0.006322 0.037459
v 0.011770 -0.006330 0.037459
v 0.006338 -0.005766 0.038723
v 0.009959 -0.002890 0.041547
v 0.017282 -0.005680 0.038731
v 0.017282 -0.006222 0.037459
v 0.004528 -0.006347 0.037459
v 0.013579 -0.005762 0.038720
v 0.015390 -0.005750 0.038709
v 0.009959 -0.005765 0.038732
f 16 11 15
f 27 28 16
f 16 15 27
f 24 25 14
f 3 23 12
f 7 1 6
f 6 1 5
f 4 1 3
f 5 1 4
f 2 23 3
f 3 1 2
f 40 46 47
f 30 12 39
f 39 40 30
f 46 40 39
f 23 22 21
f 21 22 11
f 11 20 21
f 17 11 16
f 17 18 11
f 19 20 11
f 11 18 19
f 10 9 14
f 1 9 10
f 8 1 7
f 8 9 1
f 13 24 14
f 14 9 13
f 46 39 38
f 49 50 44
f 28 27 36
f 27 35 36
f 34 35 27
f 41 32 26
f 14 25 26
f 52 59 41
f 58 57 61
f 23 21 29
f 37 38 29
f 53 49 58
f 53 50 49
f 58 61 53
f 37 44 45
f 45 38 37
f 46 38 45
f 45 44 50
f 43 34 42
f 42 34 27
f 14 26 33
f 33 26 32
f 31 12 23
f 23 29 31
f 31 39 12
f 31 38 39
f 31 29 38
f 51 53 47
f 50 53 51
f 47 46 51
f 46 45 51
f 51 45 50
f 56 57 43
f 43 42 56
f 56 61 57
f 56 32 41
f 59 62 55
f 62 56 55
f 47 53 54
f 54 52 47
f 59 52 54
f 41 59 48
f 59 55 48
f 48 56 41
f 48 55 56
f 60 54 53
f 60 53 61
f 60 62 59
f 59 54 60
f 61 56 60
f 60 56 62
f 2 1 11
f 11 22 2
f 2 22 23
f 11 1 10
f 14 27 10
f 10 15 11
f 10 27 15
f 52 26 25
f 3 12 52
f 52 4 3
f 7 6 52
f 52 40 47
f 25 24 52
f 24 13 52
f 52 12 30
f 52 8 7
f 52 6 5
f 5 4 52
f 30 40 52
f 9 8 52
f 52 13 9
f 41 26 52
f 16 28 29
f 29 34 43
f 20 19 29
f 43 57 29
f 29 44 37
f 29 17 16
f 58 49 29
f 28 36 29
f 29 57 58
f 29 21 20
f 18 17 29
f 29 19 18
f 49 44 29
f 29 36 35
f 35 34 29
f 56 27 14
f 56 42 27
f 14 33 56
f 56 33 32
