# generated by collision_forge
v -0.065142 0.001885 0.013783
v -0.072706 0.001885 0.013783
v -0.065163 0.002109 0.013783
v -0.066064 0.001885 0.017056
v -0.073472 0.001885 0.014136
v -0.070398 0.004749 0.013783
v -0.065314 0.003374 0.013783
v -0.066491 0.001885 0.018484
v -0.074107 0.001885 0.015396
v -0.072488 0.005483 0.018292
v -0.070668 0.005470 0.014735
v -0.069571 0.005672 0.013783
v -0.065544 0.004559 0.013783
v -0.065571 0.004644 0.013783
v -0.071617 0.004527 0.029471
v -0.071801 0.002716 0.029471
v -0.072000 0.002123 0.029471
v -0.072109 0.001885 0.029471
v -0.074453 0.001885 0.017538
v -0.076205 0.004308 0.029471
v -0.076012 0.005239 0.029471
v -0.076000 0.005267 0.029443
v -0.074329 0.005519 0.023553
v -0.072694 0.005628 0.019352
v -0.070939 0.005627 0.015731
v -0.069692 0.005692 0.014047
v -0.069453 0.005700 0.013783
v -0.065608 0.004719 0.013783
v -0.072039 0.005773 0.029471
v -0.075538 0.001885 0.029471
v -0.074724 0.001885 0.019323
v -0.076132 0.004060 0.028942
v -0.076205 0.003906 0.029471
v -0.076003 0.005274 0.029471
v -0.074493 0.005654 0.024783
v -0.071525 0.006013 0.019352
v -0.071571 0.005750 0.017630
v -0.073017 0.005782 0.021163
v -0.069715 0.006000 0.015731
v -0.067906 0.005966 0.013783
v -0.066435 0.005694 0.013783
v -0.072773 0.006073 0.029471
v -0.075862 0.002327 0.029471
v -0.076189 0.003178 0.029471
v -0.076132 0.003327 0.028942
v -0.075159 0.005896 0.029471
v -0.074703 0.005785 0.026594
v -0.073335 0.006059 0.024783
v -0.073335 0.006176 0.026594
v -0.071525 0.006104 0.021163
v -0.069715 0.006083 0.017541
v -0.067904 0.005984 0.013920
v -0.067745 0.005966 0.013783
v -0.073335 0.006251 0.029471
v -0.074559 0.006033 0.029471
v -0.073335 0.006230 0.028405
f 16 8 15
f 14 29 15
f 15 8 14
f 42 41 54
f 29 41 42
f 6 2 5
f 6 5 12
f 35 23 34
f 18 8 17
f 8 16 17
f 28 41 29
f 29 14 28
f 9 10 5
f 23 10 9
f 52 40 39
f 55 49 46
f 46 49 48
f 48 49 36
f 12 5 11
f 5 10 11
f 24 23 35
f 24 10 23
f 4 7 8
f 13 14 8
f 8 7 13
f 43 31 30
f 43 44 31
f 31 44 45
f 21 9 20
f 20 9 19
f 53 40 52
f 54 41 53
f 53 52 54
f 27 39 40
f 36 49 50
f 50 39 36
f 56 55 54
f 49 55 56
f 56 50 49
f 46 48 47
f 47 34 46
f 35 34 47
f 38 24 35
f 35 47 38
f 38 47 48
f 38 48 36
f 36 24 38
f 36 39 37
f 37 24 36
f 3 4 1
f 7 4 3
f 33 45 44
f 31 45 32
f 32 19 31
f 20 19 32
f 22 21 34
f 9 21 22
f 22 34 23
f 23 9 22
f 52 39 51
f 39 50 51
f 54 52 51
f 51 56 54
f 50 56 51
f 25 37 39
f 25 11 10
f 10 24 25
f 24 37 25
f 26 25 39
f 26 27 12
f 39 27 26
f 12 11 26
f 11 25 26
f 19 2 1
f 19 9 5
f 19 8 18
f 5 2 19
f 18 30 19
f 30 31 19
f 1 4 19
f 19 4 8
f 1 2 3
f 41 28 3
f 12 27 3
f 3 6 12
f 2 6 3
f 3 28 14
f 3 53 41
f 14 13 3
f 3 13 7
f 40 53 3
f 3 27 40
f 33 16 15
f 18 17 33
f 33 42 54
f 15 29 33
f 33 30 18
f 33 21 20
f 33 43 30
f 29 42 33
f 46 34 33
f 33 17 16
f 54 55 33
f 33 55 46
f 44 43 33
f 34 21 33
f 32 33 20
f 45 33 32
