# generated by collision_forge
v -0.029927 0.002716 0.007393
v -0.029927 0.000926 0.006903
v -0.029927 0.002965 0.007365
v -0.036506 0.002716 0.005001
v -0.036506 0.001504 0.004706
v -0.029927 0.000834 0.006852
v -0.036506 0.000803 0.004510
v -0.036506 0.000102 0.004168
v -0.029927 0.004576 0.006607
v -0.036506 0.004504 0.004482
v -0.030997 -0.000065 0.005860
v -0.029927 -0.000132 0.006045
v -0.036506 -0.000077 0.004058
v -0.029927 0.005345 0.004913
v -0.034830 0.005484 0.004038
v -0.036506 0.005359 0.003672
v -0.036506 -0.000202 0.003580
v -0.029927 -0.000137 0.006020
v -0.029927 0.005225 0.004686
v -0.031523 0.005039 0.003107
v -0.032015 0.005480 0.003746
v -0.033499 0.005507 0.004101
v -0.036506 0.005507 0.002799
v -0.036506 -0.000277 0.003158
v -0.035310 -0.000322 0.003055
v -0.029927 -0.000246 0.004865
v -0.029927 0.004338 0.003043
v -0.029984 0.004347 0.003024
v -0.031689 0.004038 0.001902
v -0.033499 0.005294 0.002568
v -0.033499 0.005507 0.003473
v -0.034614 0.005405 0.002318
v -0.035822 0.005470 0.002081
v -0.036506 0.005498 0.002010
v -0.036506 -0.000282 0.002139
v -0.036506 -0.000238 0.001730
v -0.035310 -0.000192 0.001849
v -0.029927 -0.000246 0.004825
v -0.029927 0.002958 0.002411
v -0.030658 0.003730 0.002086
v -0.036506 0.002955 0.000321
v -0.033499 0.004388 0.001614
v -0.036506 0.004548 0.001062
v -0.036506 0.000605 0.000991
v -0.033906 -0.000103 0.002004
v -0.029927 -0.000114 0.003746
v -0.029927 0.002716 0.002399
v -0.030604 0.002716 0.002064
v -0.031689 0.002716 0.001676
v -0.033499 0.002716 0.001091
v -0.035310 0.002716 0.000581
v -0.036254 0.002716 0.000348
v -0.036506 0.000899 0.000781
v -0.035310 0.000906 0.001062
v -0.033381 0.000755 0.001643
v -0.032700 0.000051 0.002244
v -0.029927 -0.000098 0.003721
v -0.030670 0.001689 0.002098
v -0.029927 0.001013 0.002880
v -0.031689 0.001305 0.001924
v -0.036506 0.002050 0.000469
v -0.029927 0.000953 0.002913
f 5 1 4
f 4 1 3
f 10 3 9
f 4 3 10
f 31 23 22
f 13 6 8
f 25 26 18
f 18 24 25
f 11 12 6
f 11 6 13
f 13 12 11
f 45 56 46
f 46 56 57
f 35 36 25
f 25 24 35
f 17 12 13
f 17 18 12
f 24 18 17
f 44 53 45
f 16 10 9
f 41 43 42
f 42 29 41
f 33 42 43
f 7 8 2
f 2 8 6
f 2 5 7
f 1 5 2
f 57 56 62
f 62 58 59
f 62 56 58
f 55 56 45
f 38 26 25
f 36 44 37
f 37 44 45
f 45 46 37
f 46 38 37
f 25 36 37
f 37 38 25
f 23 16 15
f 22 23 15
f 15 16 9
f 9 14 15
f 15 14 22
f 34 33 43
f 23 31 34
f 59 58 47
f 27 39 40
f 41 29 40
f 21 31 22
f 22 14 21
f 21 34 31
f 33 34 21
f 58 56 60
f 56 55 60
f 41 52 61
f 51 52 41
f 41 40 51
f 51 40 50
f 51 50 58
f 58 60 51
f 39 47 48
f 48 40 39
f 48 47 58
f 20 21 14
f 54 51 60
f 54 60 55
f 52 51 54
f 45 53 54
f 54 55 45
f 53 61 54
f 54 61 52
f 50 40 49
f 40 48 49
f 58 50 49
f 49 48 58
f 27 20 19
f 19 20 14
f 29 20 28
f 28 20 27
f 28 40 29
f 27 40 28
f 29 42 30
f 30 20 29
f 21 20 30
f 42 33 32
f 32 30 42
f 33 21 32
f 21 30 32
f 23 34 61
f 36 35 61
f 61 43 41
f 61 5 4
f 4 10 61
f 7 5 61
f 13 8 61
f 61 17 13
f 61 44 36
f 61 16 23
f 61 8 7
f 61 35 24
f 24 17 61
f 53 44 61
f 10 16 61
f 61 34 43
f 19 62 59
f 1 2 19
f 19 3 1
f 19 14 9
f 6 12 19
f 19 18 26
f 9 3 19
f 26 38 19
f 12 18 19
f 19 46 57
f 19 39 27
f 59 47 19
f 19 2 6
f 57 62 19
f 19 38 46
f 19 47 39
