# generated by collision_forge
v 0.075148 0.006580 0.035648
v 0.075139 0.006561 0.033847
v 0.073177 0.005972 0.033847
v 0.073387 0.006038 0.035648
v 0.075148 0.006557 0.036300
v 0.077008 0.006019 0.036300
v 0.076591 0.005937 0.033847
v 0.073148 0.005952 0.033847
v 0.073318 0.005985 0.036300
v 0.078889 0.003759 0.036300
v 0.077890 0.005554 0.036300
v 0.078619 0.004526 0.036300
v 0.080248 0.001608 0.036300
v 0.076596 0.005927 0.033847
v 0.072502 0.004526 0.033847
v 0.072662 0.004582 0.036300
v 0.078889 0.001600 0.036300
v 0.079899 0.001600 0.036300
v 0.079908 0.001600 0.036220
v 0.076707 0.001600 0.034925
v 0.075331 0.001887 0.033847
v 0.076462 0.002561 0.033847
v 0.076553 0.002619 0.033847
v 0.077206 0.004515 0.033847
v 0.077208 0.004526 0.033847
v 0.072517 0.004313 0.033847
v 0.073294 0.001600 0.036300
v 0.075148 0.001600 0.034663
v 0.075148 0.001880 0.033847
v 0.073387 0.002728 0.033847
v 0.073487 0.001600 0.035576
v 0.074403 0.001600 0.034683
v 0.074055 0.001600 0.034808
v 0.073472 0.002632 0.033847
f 1 2 3
f 1 3 4
f 13 23 24
f 24 25 13
f 21 28 29
f 34 29 33
f 9 3 8
f 9 4 3
f 13 7 12
f 12 7 11
f 12 10 13
f 11 10 12
f 13 25 14
f 14 7 13
f 22 23 13
f 13 21 22
f 34 33 31
f 31 30 34
f 26 30 31
f 27 26 31
f 29 28 32
f 32 33 29
f 10 9 16
f 15 26 16
f 16 26 27
f 16 8 15
f 16 9 8
f 5 9 10
f 1 4 5
f 4 9 5
f 20 21 13
f 28 21 20
f 17 16 27
f 10 16 17
f 6 10 11
f 6 5 10
f 1 5 6
f 6 2 1
f 6 7 2
f 11 7 6
f 13 18 19
f 19 20 13
f 15 8 22
f 22 24 23
f 22 26 15
f 22 3 2
f 2 7 22
f 22 29 34
f 8 3 22
f 25 24 22
f 34 30 22
f 22 14 25
f 22 21 29
f 7 14 22
f 22 30 26
f 13 10 17
f 17 18 13
f 27 31 19
f 28 20 19
f 19 32 28
f 19 31 33
f 33 32 19
f 19 17 27
f 18 17 19
