# generated by collision_forge
v 0.066081 0.005527 0.010549
v 0.064890 0.005484 0.010549
v 0.066544 0.005516 0.010549
v 0.058791 0.005456 0.005066
v 0.063935 0.004765 0.010549
v 0.058186 0.005397 0.005418
v 0.056563 0.004969 0.005066
v 0.055212 0.004466 0.005066
v 0.052771 0.002716 0.005066
v 0.066662 0.005317 0.009700
v 0.067620 0.005031 0.010549
v 0.063632 0.005479 0.007433
v 0.059040 0.005456 0.005066
v 0.058560 0.005440 0.005066
v 0.063856 0.004679 0.010549
v 0.057041 0.005139 0.005066
v 0.054150 0.000862 0.005066
v 0.063374 0.000518 0.010549
v 0.063080 0.000935 0.010549
v 0.062711 0.002716 0.010549
v 0.064840 0.005323 0.007891
v 0.068031 0.004785 0.010549
v 0.067407 0.004110 0.008952
v 0.061582 0.005436 0.005763
v 0.060662 0.005080 0.005066
v 0.054681 0.000525 0.005066
v 0.064334 -0.000424 0.010549
v 0.065615 0.004116 0.007189
v 0.063732 0.003988 0.005508
v 0.068483 0.004352 0.010549
v 0.069236 0.002716 0.010549
v 0.068570 0.002716 0.009689
v 0.067665 0.002716 0.008658
v 0.066815 0.002716 0.007753
v 0.062193 0.004496 0.005066
v 0.055728 -0.000056 0.005066
v 0.064440 -0.000478 0.010549
v 0.065910 0.002716 0.006959
v 0.064837 0.002716 0.006054
v 0.063931 0.002716 0.005363
v 0.063497 0.002716 0.005066
v 0.069251 0.001021 0.010549
v 0.069244 0.000906 0.010549
v 0.068483 0.000906 0.009702
v 0.066654 0.000906 0.007885
v 0.057036 -0.000267 0.005066
v 0.066336 -0.000889 0.010549
v 0.064579 0.000906 0.006223
v 0.065749 0.000906 0.007128
v 0.063674 0.000906 0.005554
v 0.063200 0.001712 0.005066
v 0.068946 0.000050 0.010549
v 0.067291 -0.000180 0.009128
v 0.065399 -0.000119 0.007414
v 0.059051 -0.000441 0.005066
v 0.068225 -0.000556 0.010549
v 0.062471 -0.000483 0.006676
v 0.063389 -0.000007 0.005762
v 0.068467 -0.000383 0.010549
v 0.064108 -0.000215 0.006757
v 0.061153 -0.000238 0.005066
v 0.061979 0.000084 0.005066
f 9 18 19
f 19 20 9
f 17 18 9
f 36 47 37
f 23 30 31
f 23 21 10
f 9 20 15
f 15 5 9
f 2 8 9
f 9 5 2
f 1 4 2
f 4 6 2
f 46 47 36
f 46 55 47
f 14 6 4
f 14 16 6
f 32 31 42
f 23 31 32
f 24 12 21
f 21 29 24
f 28 21 23
f 28 29 21
f 8 2 7
f 6 16 7
f 7 2 6
f 27 26 36
f 36 37 27
f 17 26 27
f 18 17 27
f 34 28 23
f 3 11 10
f 3 12 1
f 21 12 3
f 3 10 21
f 10 11 22
f 22 30 23
f 23 10 22
f 29 41 35
f 35 24 29
f 44 52 45
f 45 34 44
f 56 54 53
f 45 52 53
f 53 54 45
f 24 35 25
f 52 44 43
f 33 32 42
f 42 43 33
f 33 43 44
f 33 44 34
f 23 32 33
f 33 34 23
f 51 50 62
f 41 50 51
f 62 50 58
f 58 61 62
f 55 61 57
f 47 55 57
f 57 56 47
f 56 53 59
f 59 53 52
f 38 34 45
f 45 39 38
f 38 39 29
f 29 28 38
f 28 34 38
f 40 50 41
f 40 41 29
f 29 39 40
f 24 25 13
f 12 24 13
f 13 4 1
f 1 12 13
f 49 39 45
f 45 54 49
f 54 58 49
f 61 58 60
f 56 57 60
f 60 57 61
f 60 54 56
f 60 58 54
f 48 58 50
f 48 49 58
f 50 40 48
f 48 40 39
f 39 49 48
f 30 22 59
f 42 31 59
f 59 15 20
f 59 19 18
f 1 2 59
f 18 27 59
f 20 19 59
f 59 37 47
f 59 31 30
f 47 56 59
f 5 15 59
f 59 2 5
f 59 3 1
f 59 43 42
f 59 27 37
f 11 3 59
f 59 22 11
f 52 43 59
f 13 14 4
f 9 8 13
f 62 61 13
f 13 17 9
f 13 46 36
f 36 26 13
f 8 7 13
f 55 46 13
f 13 26 17
f 16 14 13
f 13 51 62
f 13 7 16
f 13 35 41
f 13 61 55
f 13 25 35
f 41 51 13
