# generated by collision_forge
v 0.027883 0.002716 0.003459
v 0.027883 0.001207 0.003747
v 0.027075 0.001694 0.003912
v 0.027110 0.003668 0.003933
v 0.027883 0.000401 0.004254
v 0.025460 0.000057 0.005852
v 0.024911 0.001264 0.005470
v 0.024709 0.002716 0.005323
v 0.027883 0.004049 0.003809
v 0.024934 0.004005 0.005475
v 0.027883 -0.000169 0.005029
v 0.026667 -0.000125 0.005527
v 0.023403 -0.000063 0.007483
v 0.022986 0.000906 0.007144
v 0.019875 0.001724 0.009345
v 0.023803 0.002716 0.005967
v 0.027883 0.004970 0.004966
v 0.022663 0.002716 0.006872
v 0.022974 0.004136 0.007121
v 0.027883 -0.000227 0.006685
v 0.024445 -0.000376 0.008486
v 0.022733 -0.000208 0.008554
v 0.020335 0.000517 0.009789
v 0.017342 0.001507 0.012823
v 0.017010 0.002716 0.012823
v 0.021760 0.002716 0.007610
v 0.023984 0.005343 0.007983
v 0.019947 0.003407 0.009420
v 0.021154 0.004168 0.008824
v 0.027883 -0.000191 0.007013
v 0.022634 -0.000406 0.010297
v 0.019735 -0.000109 0.010996
v 0.017957 0.000174 0.012823
v 0.017529 0.000879 0.012823
v 0.017600 0.004188 0.012823
v 0.017688 0.004078 0.012504
v 0.027883 0.005095 0.005193
v 0.022068 0.005376 0.009889
v 0.019393 0.004148 0.010627
v 0.027883 0.000028 0.007616
v 0.022105 -0.000134 0.012823
v 0.020810 -0.000327 0.012823
v 0.019060 -0.000259 0.012823
v 0.018164 -0.000073 0.012823
v 0.018819 0.005003 0.012823
v 0.027883 0.005442 0.006604
v 0.019865 0.005443 0.012823
v 0.027883 0.000888 0.008292
v 0.022754 0.000573 0.012823
v 0.027167 0.005434 0.007586
v 0.020265 0.005447 0.012823
v 0.020592 0.005446 0.012823
v 0.027883 0.002738 0.008885
v 0.023031 0.000920 0.012823
v 0.021299 0.005324 0.012823
v 0.022058 0.004865 0.012823
v 0.023625 0.002716 0.012823
v 0.027883 0.004384 0.008198
v 0.022497 0.004527 0.012823
v 0.027171 0.003633 0.009400
v 0.023564 0.002883 0.012823
v 0.024103 0.004163 0.011778
f 41 42 30
f 30 42 31
f 35 36 25
f 25 36 28
f 28 15 25
f 53 57 54
f 4 9 1
f 46 27 38
f 37 27 46
f 19 27 10
f 9 4 10
f 10 18 19
f 43 22 31
f 31 42 43
f 13 22 32
f 32 43 44
f 22 43 32
f 31 22 21
f 1 2 3
f 2 6 3
f 19 28 29
f 29 27 19
f 29 38 27
f 18 15 26
f 15 28 26
f 19 18 26
f 26 28 19
f 53 54 48
f 53 58 60
f 60 57 53
f 50 58 46
f 36 35 45
f 9 10 17
f 27 37 17
f 17 10 27
f 13 32 23
f 20 21 11
f 20 30 31
f 31 21 20
f 5 6 2
f 13 6 12
f 12 22 13
f 12 5 11
f 6 5 12
f 11 21 12
f 12 21 22
f 8 4 1
f 1 3 8
f 8 10 4
f 25 15 24
f 15 34 24
f 33 34 15
f 33 32 44
f 15 23 33
f 33 23 32
f 39 28 36
f 39 29 28
f 36 45 39
f 38 29 39
f 39 45 38
f 49 48 54
f 38 45 47
f 51 46 47
f 46 38 47
f 18 10 16
f 10 8 16
f 16 15 18
f 40 49 41
f 48 49 40
f 41 30 40
f 62 60 58
f 58 59 62
f 14 6 13
f 13 23 14
f 14 23 15
f 7 8 3
f 7 16 8
f 7 3 6
f 6 14 7
f 15 16 7
f 7 14 15
f 61 62 59
f 57 60 61
f 60 62 61
f 52 55 50
f 52 46 51
f 52 50 46
f 50 55 56
f 58 50 56
f 56 59 58
f 40 37 46
f 1 9 40
f 40 2 1
f 40 58 53
f 40 20 11
f 9 17 40
f 46 58 40
f 53 48 40
f 11 5 40
f 40 17 37
f 30 20 40
f 40 5 2
f 44 43 56
f 56 42 41
f 41 49 56
f 56 35 25
f 56 33 44
f 51 47 56
f 56 54 57
f 56 43 42
f 25 24 56
f 56 45 35
f 56 24 34
f 34 33 56
f 56 49 54
f 57 61 56
f 56 47 45
f 56 52 51
f 56 61 59
f 55 52 56
