# generated by collision_forge
v -0.009139 0.002716 0.029472
v -0.009354 0.001346 0.029472
v -0.009429 0.002716 0.028405
v -0.010703 0.003918 0.025240
v -0.010459 0.004245 0.026594
v -0.009913 0.004558 0.029472
v -0.009451 0.000905 0.029472
v -0.010661 0.001303 0.025146
v -0.012414 0.004030 0.021163
v -0.010929 0.002716 0.024039
v -0.012638 0.003694 0.020184
v -0.012648 0.005447 0.023781
v -0.010402 0.005106 0.029472
v -0.009909 0.000203 0.029472
v -0.010733 -0.000104 0.027054
v -0.010965 0.000096 0.025846
v -0.012647 -0.000023 0.021998
v -0.012631 0.001690 0.020161
v -0.014739 0.005331 0.018851
v -0.014404 0.002716 0.016498
v -0.014461 0.003669 0.016591
v -0.010777 0.005478 0.029472
v -0.010244 -0.000299 0.029472
v -0.014224 -0.000154 0.019352
v -0.014425 -0.000050 0.018307
v -0.014402 0.001610 0.016498
v -0.016040 0.004026 0.014486
v -0.016635 0.005234 0.015348
v -0.012244 0.005550 0.026594
v -0.017843 0.005510 0.014440
v -0.011752 0.005550 0.029472
v -0.011770 -0.000648 0.029472
v -0.015393 -0.000369 0.019352
v -0.017684 -0.000163 0.013873
v -0.016402 0.000077 0.014965
v -0.016276 0.002004 0.013873
v -0.016163 0.002716 0.013873
v -0.017163 0.004698 0.013873
v -0.019120 0.005507 0.013873
v -0.012896 0.005503 0.029472
v -0.012491 -0.000561 0.029472
v -0.020746 -0.000230 0.013873
v -0.019058 -0.000392 0.013873
v -0.017708 -0.000169 0.013873
v -0.019389 0.005507 0.013873
v -0.019835 0.005416 0.014736
v -0.013268 0.005317 0.029472
v -0.013358 -0.000309 0.029472
v -0.020758 -0.000227 0.013873
v -0.021125 0.004914 0.013873
v -0.013878 0.004745 0.029472
v -0.014184 0.000629 0.029472
v -0.021624 0.000446 0.013873
v -0.021564 0.004495 0.013873
v -0.014644 0.003927 0.029472
v -0.014330 0.000936 0.029472
v -0.021924 0.000905 0.013873
v -0.022388 0.002716 0.013873
v -0.014697 0.003625 0.029472
v -0.014567 0.001526 0.029472
v -0.022056 0.001378 0.013873
v -0.014730 0.002716 0.029472
f 58 55 54
f 42 43 32
f 32 24 23
f 32 43 33
f 33 24 32
f 43 44 33
f 33 44 24
f 26 37 20
f 16 8 7
f 1 5 6
f 47 46 50
f 40 46 47
f 49 42 41
f 41 48 49
f 41 42 32
f 53 48 52
f 52 57 53
f 49 48 53
f 58 60 62
f 61 60 58
f 57 60 61
f 56 57 52
f 56 60 57
f 17 23 24
f 17 8 16
f 38 27 37
f 2 7 8
f 13 5 22
f 13 6 5
f 4 5 1
f 50 46 45
f 45 46 40
f 22 29 31
f 31 45 40
f 29 45 31
f 50 54 51
f 51 47 50
f 51 54 55
f 59 55 58
f 58 62 59
f 15 17 16
f 23 17 15
f 14 23 15
f 15 7 14
f 16 7 15
f 8 17 18
f 18 17 26
f 18 10 8
f 18 26 20
f 34 35 25
f 25 44 34
f 24 44 25
f 25 17 24
f 26 17 25
f 25 35 26
f 36 35 34
f 37 26 36
f 26 35 36
f 22 5 12
f 12 29 22
f 30 29 12
f 12 19 30
f 27 38 28
f 28 38 30
f 30 19 28
f 3 4 1
f 10 4 3
f 8 10 3
f 1 2 3
f 3 2 8
f 11 4 10
f 11 18 20
f 10 18 11
f 30 38 39
f 39 29 30
f 39 45 29
f 21 11 20
f 20 37 21
f 37 27 21
f 27 28 21
f 21 28 19
f 4 11 9
f 5 4 9
f 9 12 5
f 19 12 9
f 9 21 19
f 11 21 9
f 59 56 52
f 1 6 59
f 32 23 59
f 22 31 59
f 59 41 32
f 59 13 22
f 52 48 59
f 59 51 55
f 59 23 14
f 14 7 59
f 59 2 1
f 40 47 59
f 48 41 59
f 59 62 60
f 60 56 59
f 7 2 59
f 6 13 59
f 59 31 40
f 47 51 59
f 50 45 39
f 39 42 49
f 49 53 39
f 58 54 39
f 39 61 58
f 39 54 50
f 43 42 39
f 34 44 39
f 39 44 43
f 39 53 57
f 57 61 39
f 39 38 37
f 39 36 34
f 37 36 39
