# generated by collision_forge
v -0.076433 0.000511 0.045939
v -0.076433 -0.001234 0.048395
v -0.076433 0.006155 0.045939
v -0.073335 0.000520 0.045939
v -0.076433 -0.001224 0.048956
v -0.072122 0.000525 0.045939
v -0.071525 0.000528 0.045939
v -0.070328 0.000604 0.045939
v -0.069714 0.000644 0.045939
v -0.068636 -0.000043 0.047373
v -0.069714 -0.000607 0.048324
v -0.062472 -0.000565 0.050134
v -0.060790 -0.000774 0.051816
v -0.060790 -0.000782 0.051945
v -0.076433 0.006138 0.046513
v -0.076433 -0.000912 0.050133
v -0.068120 0.000889 0.045939
v -0.062472 -0.000124 0.049095
v -0.060790 -0.000333 0.050059
v -0.060790 -0.000409 0.053225
v -0.076433 0.006056 0.048324
v -0.076433 -0.000704 0.050423
v -0.060790 -0.000378 0.053308
v -0.067726 0.002716 0.045939
v -0.060790 0.002716 0.048841
v -0.060790 0.001010 0.049080
v -0.061473 -0.000024 0.049207
v -0.076433 0.005720 0.049828
v -0.069714 0.006005 0.050134
v -0.067905 0.006065 0.050134
v -0.076232 -0.000069 0.051073
v -0.060790 0.000824 0.053980
v -0.067639 0.004526 0.045939
v -0.060790 0.002845 0.048855
v -0.076433 0.004657 0.050760
v -0.074036 0.005360 0.050984
v -0.069714 0.005680 0.051373
v -0.060790 0.005848 0.051945
v -0.066094 0.006077 0.050134
v -0.071525 0.006174 0.046513
v -0.071525 0.006166 0.045939
v -0.076433 0.000906 0.051078
v -0.060790 0.000906 0.054018
v -0.060790 0.002716 0.054292
v -0.067682 0.004650 0.045939
v -0.060790 0.004392 0.049078
v -0.076349 0.003846 0.051091
v -0.066094 0.004074 0.053018
v -0.063638 0.005477 0.052901
v -0.060790 0.005576 0.053071
v -0.060790 0.005690 0.050450
v -0.062472 0.005897 0.050134
v -0.064282 0.006066 0.050134
v -0.069738 0.005970 0.045939
v -0.076433 0.002656 0.051107
v -0.060790 0.004526 0.053804
v -0.062472 0.004526 0.053521
v -0.076433 0.002753 0.051107
v -0.068329 0.005654 0.045939
v -0.060790 0.005132 0.049394
v -0.060790 0.005655 0.050127
v -0.061528 0.005444 0.049216
f 44 31 43
f 14 2 13
f 40 41 3
f 4 2 1
f 13 2 12
f 31 23 32
f 32 43 31
f 22 23 31
f 22 16 23
f 23 16 20
f 20 16 14
f 2 14 5
f 14 16 5
f 48 47 44
f 47 48 36
f 6 7 2
f 2 4 6
f 13 12 19
f 19 12 18
f 17 25 26
f 9 10 2
f 17 18 9
f 18 10 9
f 18 12 11
f 11 10 18
f 11 12 2
f 2 10 11
f 37 29 28
f 28 36 37
f 37 36 49
f 28 29 21
f 53 41 40
f 44 47 58
f 58 55 44
f 42 22 31
f 42 31 44
f 44 55 42
f 35 36 28
f 47 36 35
f 35 58 47
f 27 26 19
f 27 19 18
f 27 18 17
f 17 26 27
f 2 7 8
f 8 9 2
f 29 37 50
f 50 37 49
f 49 56 50
f 40 3 15
f 30 50 38
f 29 50 30
f 30 21 29
f 30 15 21
f 40 15 30
f 41 53 52
f 52 53 38
f 44 56 57
f 57 48 44
f 57 56 49
f 49 36 57
f 57 36 48
f 24 25 17
f 24 33 25
f 59 60 46
f 39 53 40
f 40 30 39
f 38 53 39
f 39 30 38
f 41 52 54
f 59 54 61
f 61 54 52
f 59 46 45
f 45 46 33
f 25 33 34
f 33 46 34
f 51 52 38
f 51 61 52
f 62 61 60
f 62 60 59
f 59 61 62
f 2 5 15
f 1 2 15
f 15 3 1
f 28 21 15
f 16 22 15
f 15 5 16
f 22 42 15
f 15 35 28
f 55 58 15
f 15 42 55
f 58 35 15
f 7 6 45
f 1 3 45
f 17 9 45
f 45 3 41
f 45 4 1
f 45 6 4
f 45 24 17
f 45 8 7
f 41 54 45
f 9 8 45
f 33 24 45
f 45 54 59
f 44 43 51
f 51 14 13
f 51 26 25
f 51 32 23
f 23 20 51
f 43 32 51
f 51 20 14
f 51 56 44
f 13 19 51
f 19 26 51
f 38 50 51
f 25 34 51
f 51 50 56
f 51 46 60
f 60 61 51
f 51 34 46
