# generated by collision_forge
v 0.066616 -0.001427 0.034344
v 0.066616 -0.002716 0.034366
v 0.066616 -0.000864 0.034361
v 0.075149 0.001599 0.034663
v 0.071528 -0.002492 0.034614
v 0.070277 -0.003574 0.034766
v 0.066616 0.000067 0.034683
v 0.074405 0.001599 0.034684
v 0.088024 0.001600 0.045646
v 0.076711 0.001599 0.034926
v 0.084198 -0.002716 0.035650
v 0.084198 -0.004005 0.036113
v 0.066616 -0.003664 0.034700
v 0.066616 0.000562 0.035604
v 0.074056 0.001599 0.034808
v 0.067660 0.001600 0.046647
v 0.088009 0.001600 0.045818
v 0.087952 -0.000906 0.046513
v 0.087998 0.001599 0.039271
v 0.087376 0.001599 0.037684
v 0.086353 0.001599 0.036758
v 0.085515 0.001599 0.036417
v 0.085610 -0.003865 0.036294
v 0.084198 -0.004510 0.037460
v 0.066616 0.001145 0.037460
v 0.066616 0.001237 0.039271
v 0.066616 0.001165 0.040559
v 0.066616 0.000692 0.042362
v 0.066616 -0.000022 0.043789
v 0.066616 -0.003249 0.043546
v 0.067880 0.001269 0.046647
v 0.087893 0.001600 0.046647
v 0.087568 -0.002716 0.046647
v 0.087399 -0.000906 0.037555
v 0.086810 -0.002716 0.036653
v 0.087161 -0.003883 0.037857
v 0.086009 -0.004516 0.039271
v 0.084198 -0.004595 0.039271
v 0.082387 -0.004525 0.037460
v 0.066616 -0.003719 0.042900
v 0.078766 -0.002684 0.046647
v 0.087072 -0.003762 0.046647
v 0.087216 -0.003889 0.044701
v 0.087874 -0.002716 0.042891
v 0.088125 -0.000906 0.042891
v 0.087979 -0.000906 0.039271
v 0.087821 -0.002716 0.039271
v 0.087302 -0.004027 0.039271
v 0.086009 -0.004445 0.041080
v 0.087313 -0.004010 0.041080
v 0.084198 -0.004485 0.041080
v 0.066616 -0.004475 0.037460
v 0.080577 -0.004519 0.037460
v 0.066616 -0.004183 0.036170
v 0.066616 -0.003894 0.042640
v 0.082390 -0.003633 0.046647
v 0.086137 -0.003904 0.046647
v 0.086009 -0.004182 0.044701
v 0.066616 -0.004486 0.039271
v 0.084050 -0.003822 0.046647
v 0.066616 -0.004300 0.041080
v 0.066616 -0.004436 0.039791
f 16 29 30
f 61 58 57
f 38 59 52
f 13 39 54
f 45 44 47
f 45 19 9
f 36 47 48
f 48 47 44
f 48 37 36
f 36 37 24
f 38 39 24
f 24 37 38
f 39 13 24
f 16 15 26
f 15 25 26
f 8 15 16
f 16 9 8
f 8 9 4
f 8 7 15
f 51 59 38
f 51 58 59
f 59 58 62
f 58 61 62
f 53 52 54
f 54 39 53
f 53 39 38
f 38 52 53
f 16 30 31
f 30 41 31
f 56 41 30
f 30 40 56
f 56 40 55
f 20 9 19
f 46 19 45
f 45 47 46
f 10 9 22
f 4 9 10
f 44 33 43
f 18 44 45
f 18 33 44
f 45 9 18
f 32 33 18
f 14 25 15
f 15 7 14
f 28 29 16
f 7 8 3
f 3 4 1
f 3 8 4
f 1 4 2
f 4 5 2
f 6 13 2
f 2 5 6
f 11 5 4
f 4 10 11
f 6 5 11
f 22 35 11
f 11 10 22
f 60 56 55
f 55 61 60
f 60 61 57
f 22 9 21
f 9 20 21
f 21 35 22
f 21 20 35
f 35 20 34
f 34 46 47
f 34 20 19
f 19 46 34
f 34 47 36
f 36 35 34
f 49 43 58
f 58 51 49
f 38 37 49
f 49 51 38
f 37 48 50
f 50 49 37
f 43 49 50
f 50 48 44
f 44 43 50
f 57 58 42
f 58 43 42
f 42 43 33
f 32 18 17
f 17 18 9
f 16 26 27
f 27 28 16
f 6 11 12
f 12 13 6
f 12 24 13
f 23 11 35
f 23 12 11
f 23 35 36
f 36 24 23
f 24 12 23
f 42 60 57
f 42 32 16
f 16 31 42
f 42 33 32
f 42 31 41
f 41 56 42
f 56 60 42
f 16 32 17
f 17 9 16
f 54 52 27
f 55 40 27
f 27 3 1
f 27 61 55
f 27 30 29
f 29 28 27
f 25 14 27
f 27 52 59
f 27 40 30
f 27 13 54
f 59 62 27
f 27 26 25
f 27 62 61
f 27 14 7
f 1 2 27
f 7 3 27
f 27 2 13
