# generated by collision_forge
v -0.070860 0.001885 0.024780
v -0.071234 0.001096 0.024780
v -0.072001 0.001885 0.024780
v -0.072110 0.001885 0.029472
v -0.072225 0.001636 0.029472
v -0.071346 0.000863 0.024780
v -0.074783 0.001883 0.024780
v -0.074783 0.001885 0.024784
v -0.075539 0.001885 0.029472
v -0.073336 0.001291 0.029472
v -0.073336 0.000946 0.026595
v -0.073336 0.000857 0.024780
v -0.073336 0.001148 0.028405
v -0.074917 0.001885 0.025433
v -0.074610 0.001420 0.024780
v -0.075478 0.001802 0.029472
v -0.074945 0.001466 0.029472
v -0.074856 0.001429 0.028405
v -0.074752 0.001389 0.026595
f 3 7 8
f 12 19 15
f 8 7 14
f 7 15 14
f 14 15 9
f 1 4 5
f 10 6 5
f 19 17 16
f 9 15 16
f 16 15 19
f 11 17 12
f 12 6 11
f 18 19 12
f 12 17 18
f 18 17 19
f 1 5 2
f 2 5 6
f 10 17 13
f 17 11 13
f 13 6 10
f 13 11 6
f 14 4 1
f 9 4 14
f 1 3 14
f 14 3 8
f 16 4 9
f 16 5 4
f 16 17 10
f 10 5 16
f 2 3 1
f 12 15 2
f 2 6 12
f 7 3 2
f 2 15 7
