# generated by collision_forge
v -0.075147 0.006260 0.042011
v -0.076078 0.006250 0.042011
v -0.076959 0.006186 0.044702
v -0.075147 0.006241 0.042892
v -0.073338 0.006217 0.044702
v -0.073338 0.006223 0.042892
v -0.073338 0.006166 0.042011
v -0.076959 0.006239 0.042011
v -0.076959 0.006222 0.042892
v -0.076959 0.006150 0.045939
v -0.075147 0.006167 0.045939
v -0.075147 0.006203 0.044702
v -0.078767 0.006204 0.042011
v -0.084200 0.005975 0.044702
v -0.074574 0.006171 0.045939
v -0.073338 0.006180 0.045939
v -0.071526 0.006166 0.045939
v -0.071526 0.006147 0.044702
v -0.069739 0.005970 0.045939
v -0.068331 0.005654 0.045939
v -0.071850 0.005755 0.042011
v -0.084200 0.005925 0.045939
v -0.084200 0.006026 0.042011
v -0.084200 0.006020 0.042892
v -0.086011 0.005923 0.042892
v -0.086011 0.005867 0.044702
v -0.067682 0.004650 0.045939
v -0.068624 0.005550 0.045465
v -0.071417 0.004920 0.042011
v -0.086011 0.005787 0.045939
v -0.085130 0.005976 0.042011
v -0.086011 0.005922 0.042011
v -0.086637 0.005774 0.042011
v -0.087229 0.005635 0.042892
v -0.087182 0.005605 0.044702
v -0.086735 0.005637 0.045939
v -0.067638 0.004527 0.045939
v -0.071295 0.004527 0.042011
v -0.087223 0.005634 0.042011
v -0.087930 0.004527 0.042892
v -0.087902 0.004527 0.044702
v -0.087105 0.005554 0.045939
v -0.087334 0.005213 0.045939
v -0.067727 0.002716 0.045939
v -0.068363 0.001703 0.044938
v -0.070189 0.001703 0.042806
v -0.070981 0.001703 0.042011
v -0.087912 0.004527 0.042011
v -0.088307 0.002716 0.042892
v -0.088338 0.002716 0.044702
v -0.088289 0.002716 0.045939
v -0.087790 0.004527 0.045939
v -0.068264 0.001703 0.045939
v -0.068290 0.001703 0.045672
v -0.088275 0.001703 0.042011
v -0.088285 0.002716 0.042011
v -0.088303 0.001703 0.043689
v -0.088281 0.002223 0.042011
v -0.088277 0.001835 0.042011
v -0.088311 0.001703 0.044702
v -0.088275 0.001703 0.045939
f 60 61 50
f 37 45 46
f 44 45 37
f 57 60 50
f 38 46 47
f 37 46 38
f 7 20 21
f 54 44 53
f 45 44 54
f 26 35 36
f 34 41 35
f 37 38 29
f 21 20 28
f 6 7 1
f 1 5 6
f 6 5 17
f 20 7 19
f 17 5 16
f 3 14 10
f 26 36 30
f 27 28 20
f 21 28 27
f 27 29 21
f 37 29 27
f 17 19 18
f 18 6 17
f 7 6 18
f 18 19 7
f 11 3 10
f 4 5 1
f 1 3 4
f 14 3 13
f 22 14 26
f 26 30 22
f 10 14 22
f 50 61 51
f 51 41 50
f 51 52 41
f 35 41 43
f 41 52 43
f 39 34 33
f 41 34 40
f 50 41 40
f 40 39 48
f 34 39 40
f 25 35 26
f 25 34 35
f 26 14 25
f 25 32 33
f 33 34 25
f 15 16 5
f 5 11 15
f 12 11 5
f 3 11 12
f 5 4 12
f 12 4 3
f 24 13 23
f 14 13 24
f 24 25 14
f 23 25 24
f 42 36 35
f 35 43 42
f 55 57 49
f 49 57 50
f 50 40 49
f 48 56 49
f 49 40 48
f 31 25 23
f 32 25 31
f 2 3 1
f 58 49 56
f 9 2 8
f 3 2 9
f 9 8 13
f 9 13 3
f 55 49 59
f 49 58 59
f 54 57 55
f 54 46 45
f 55 47 54
f 54 53 61
f 61 60 54
f 47 46 54
f 60 57 54
f 61 53 42
f 10 22 42
f 42 44 37
f 53 44 42
f 42 19 17
f 42 11 10
f 17 16 42
f 20 19 42
f 37 27 42
f 42 30 36
f 42 51 61
f 42 27 20
f 16 15 42
f 42 22 30
f 52 51 42
f 42 43 52
f 42 15 11
f 59 47 55
f 59 38 47
f 21 29 59
f 33 32 59
f 1 7 59
f 59 7 21
f 59 29 38
f 59 39 33
f 59 2 1
f 59 31 23
f 23 13 59
f 48 39 59
f 59 56 48
f 13 8 59
f 32 31 59
f 8 2 59
f 59 58 56
