# generated by collision_forge
v -0.066086 0.005729 0.010890
v -0.066152 0.005713 0.010227
v -0.066780 0.005725 0.010890
v -0.064759 0.005717 0.010890
v -0.060129 0.005601 0.006303
v -0.067331 0.005588 0.010783
v -0.064315 0.005657 0.008438
v -0.063732 0.005542 0.007329
v -0.065588 0.005566 0.009008
v -0.064481 0.005661 0.010890
v -0.058935 0.005547 0.006303
v -0.059149 0.005572 0.006303
v -0.061850 0.005590 0.006303
v -0.066794 0.005313 0.009576
v -0.068245 0.004912 0.010890
v -0.064940 0.005289 0.007801
v -0.063599 0.005105 0.010890
v -0.058123 0.005190 0.006303
v -0.067328 0.004105 0.009035
v -0.065529 0.004082 0.007253
v -0.063361 0.004963 0.006303
v -0.063568 0.005070 0.010890
v -0.056195 0.003471 0.006303
v -0.057249 0.004583 0.006303
v -0.066600 0.002716 0.007964
v -0.067503 0.002716 0.008869
v -0.068409 0.002716 0.009881
v -0.068955 0.003895 0.010890
v -0.064058 0.004367 0.006303
v -0.064734 0.002851 0.006303
v -0.065695 0.002716 0.007104
v -0.063154 0.004551 0.010890
v -0.055940 0.002716 0.006303
v -0.062968 0.004138 0.010890
v -0.066399 0.000906 0.008147
v -0.068251 0.000906 0.009929
v -0.069190 0.000906 0.010890
v -0.069112 0.002716 0.010787
v -0.069033 0.003510 0.010890
v -0.064766 0.002716 0.006303
v -0.065494 0.000906 0.007306
v -0.056926 0.000767 0.006303
v -0.062758 0.002716 0.010890
v -0.062837 0.002085 0.010890
v -0.062996 0.001264 0.010890
v -0.063248 0.000436 0.010890
v -0.068787 -0.000182 0.010890
v -0.065261 -0.000045 0.007521
v -0.069099 0.000575 0.010890
v -0.064228 0.000799 0.006303
v -0.058236 -0.000184 0.006303
v -0.063669 0.000093 0.010890
v -0.067862 -0.000589 0.010890
v -0.064282 -0.000220 0.007133
v -0.064344 -0.000369 0.010890
v -0.060661 -0.000465 0.006676
v -0.066093 -0.000720 0.010890
v -0.066093 -0.000708 0.010298
v -0.062588 -0.000367 0.006535
v -0.064282 -0.000580 0.008487
v -0.062470 -0.000319 0.006303
v -0.060632 -0.000419 0.006303
f 33 46 42
f 18 11 10
f 50 41 40
f 45 46 33
f 34 43 33
f 33 23 34
f 34 23 32
f 51 55 57
f 51 42 52
f 52 55 51
f 52 42 46
f 11 12 4
f 4 10 11
f 4 12 5
f 4 5 1
f 37 39 38
f 38 27 37
f 39 27 38
f 37 27 26
f 35 47 36
f 25 35 36
f 37 26 36
f 36 26 25
f 48 41 50
f 53 47 48
f 35 41 48
f 48 47 35
f 33 43 44
f 44 45 33
f 23 24 17
f 17 24 18
f 18 10 17
f 51 57 56
f 37 36 49
f 49 36 47
f 50 61 54
f 54 48 50
f 53 48 54
f 30 20 29
f 25 20 31
f 31 40 41
f 31 30 40
f 20 30 31
f 31 35 25
f 31 41 35
f 8 13 21
f 1 5 2
f 14 15 6
f 32 23 22
f 23 17 22
f 51 56 62
f 5 13 7
f 7 2 5
f 7 13 8
f 8 2 7
f 1 2 3
f 3 2 6
f 6 15 3
f 9 2 8
f 6 2 9
f 9 14 6
f 19 14 20
f 15 14 19
f 19 26 27
f 25 26 19
f 19 20 25
f 8 21 16
f 16 9 8
f 14 9 16
f 20 14 16
f 16 21 29
f 29 20 16
f 60 62 56
f 15 19 28
f 28 27 39
f 28 19 27
f 61 62 59
f 62 60 59
f 59 60 53
f 53 54 59
f 59 54 61
f 58 57 53
f 53 60 58
f 58 56 57
f 58 60 56
f 62 61 50
f 18 24 62
f 62 23 33
f 33 42 62
f 62 11 18
f 5 12 62
f 50 40 62
f 62 42 51
f 29 21 62
f 62 12 11
f 62 13 5
f 62 24 23
f 62 30 29
f 40 30 62
f 62 21 13
f 53 57 28
f 28 52 46
f 28 39 37
f 32 22 28
f 37 49 28
f 46 45 28
f 28 34 32
f 28 44 43
f 28 47 53
f 28 4 1
f 43 34 28
f 28 57 55
f 55 52 28
f 10 4 28
f 45 44 28
f 28 17 10
f 28 49 47
f 1 3 28
f 28 22 17
f 28 3 15
