# generated by collision_forge
v -0.041262 -0.003003 0.029491
v -0.041262 -0.001765 0.029472
v -0.017190 -0.002716 0.031717
v -0.017190 -0.002729 0.031718
v -0.017190 -0.004535 0.031961
v -0.041262 -0.001409 0.029516
v -0.017190 -0.000906 0.032005
v -0.041262 -0.003913 0.029986
v -0.017204 -0.005776 0.032564
v -0.041262 -0.000856 0.029729
v -0.017190 0.000275 0.032609
v -0.041262 -0.004283 0.030319
v -0.017190 -0.006307 0.033839
v -0.041262 0.000363 0.030551
v -0.017190 0.000823 0.033829
v -0.041262 -0.004839 0.031417
v -0.017190 -0.006434 0.035649
v -0.041262 0.000931 0.032028
v -0.017190 0.000827 0.033839
v -0.017190 -0.006188 0.037459
v -0.036627 -0.005457 0.032874
v -0.041262 0.001102 0.033839
v -0.040742 0.001123 0.033839
v -0.019013 0.001138 0.035649
v -0.017190 0.001108 0.035637
v -0.041262 -0.005130 0.033319
v -0.019013 -0.006127 0.037459
v -0.017190 -0.005718 0.038690
v -0.041262 -0.003764 0.042241
v -0.020826 -0.006311 0.035649
v -0.022635 -0.006223 0.035649
v -0.041262 0.001156 0.039269
v -0.035308 0.001244 0.035649
v -0.019013 0.001101 0.037459
v -0.017190 0.001073 0.037459
v -0.024447 -0.003483 0.041829
v -0.026257 -0.003598 0.041949
v -0.033498 -0.003688 0.042107
v -0.041262 -0.002716 0.043107
v -0.041262 -0.004069 0.041080
v -0.029191 -0.005450 0.038391
v -0.034745 -0.005455 0.036636
v -0.041262 0.000957 0.041080
v -0.035308 0.000877 0.041080
v -0.017190 0.000778 0.039269
v -0.035954 -0.005413 0.036258
v -0.024447 -0.002578 0.042320
v -0.035308 -0.002716 0.042939
v -0.041262 -0.000906 0.043496
v -0.041262 0.000794 0.041533
v -0.041262 0.000398 0.042630
v -0.031688 0.000325 0.042453
v -0.017190 0.000273 0.040593
v -0.028069 0.000249 0.042298
v -0.029876 -0.000906 0.043065
v -0.017190 -0.002703 0.041187
v -0.031688 -0.000906 0.043195
v -0.035308 -0.000906 0.043312
v -0.041262 0.000021 0.042882
v -0.029876 0.000297 0.042392
v -0.017190 -0.000897 0.041357
v -0.023394 0.000021 0.042007
f 3 6 7
f 35 44 45
f 44 60 45
f 2 3 1
f 2 6 3
f 10 7 6
f 18 19 14
f 19 18 25
f 11 10 14
f 7 10 11
f 52 60 44
f 58 52 49
f 51 52 44
f 33 32 34
f 34 44 35
f 53 45 54
f 54 45 60
f 54 62 53
f 5 13 9
f 5 9 1
f 18 22 23
f 23 22 32
f 23 32 33
f 14 19 15
f 15 11 14
f 49 39 48
f 48 58 49
f 53 62 61
f 47 56 61
f 47 61 55
f 55 61 62
f 62 54 55
f 44 34 43
f 43 34 32
f 49 52 59
f 52 51 59
f 35 25 24
f 24 34 35
f 33 34 24
f 24 23 33
f 24 25 18
f 18 23 24
f 1 3 4
f 4 5 1
f 13 17 30
f 36 28 56
f 36 56 47
f 20 28 29
f 57 48 47
f 47 55 57
f 58 48 57
f 60 52 57
f 52 58 57
f 57 54 60
f 57 55 54
f 50 51 44
f 44 43 50
f 1 9 8
f 9 12 8
f 9 13 16
f 16 12 9
f 27 17 20
f 27 30 17
f 20 29 27
f 30 27 31
f 28 36 37
f 47 48 37
f 37 36 47
f 26 16 21
f 21 16 13
f 13 30 21
f 30 31 21
f 41 29 40
f 41 27 29
f 38 29 28
f 28 37 38
f 38 37 48
f 39 29 38
f 38 48 39
f 40 26 46
f 26 21 46
f 46 21 31
f 42 41 40
f 40 46 42
f 42 46 31
f 42 31 27
f 27 41 42
f 7 11 4
f 4 45 53
f 4 15 19
f 3 7 4
f 4 25 35
f 35 45 4
f 53 61 4
f 20 17 4
f 19 25 4
f 4 28 20
f 13 5 4
f 4 17 13
f 56 28 4
f 11 15 4
f 4 61 56
f 16 43 32
f 16 18 14
f 16 39 49
f 16 2 1
f 14 10 16
f 6 2 16
f 51 50 16
f 16 10 6
f 49 59 16
f 32 22 16
f 16 26 40
f 16 22 18
f 40 29 16
f 16 59 51
f 1 8 16
f 16 29 39
f 16 50 43
f 16 8 12
