# generated by collision_forge
v 0.079033 0.001484 0.013652
v 0.077224 0.001490 0.013652
v 0.074540 0.001499 0.019230
v 0.080845 0.001457 0.013652
v 0.073967 0.001499 0.013652
v 0.067415 0.001499 0.019230
v 0.080413 0.000304 0.019230
v 0.083812 0.000128 0.018601
v 0.084330 0.000448 0.017698
v 0.086009 0.000887 0.015730
v 0.086009 0.001255 0.013652
v 0.084467 0.001341 0.013652
v 0.082655 0.001408 0.013652
v 0.065450 0.001499 0.013652
v 0.064405 0.001068 0.019230
v 0.085019 -0.000063 0.018406
v 0.087821 0.001026 0.013919
v 0.059702 -0.000939 0.019230
v 0.059997 -0.000560 0.019230
v 0.060862 0.000293 0.019230
v 0.060951 0.000326 0.019230
v 0.062474 0.000745 0.019230
v 0.062574 0.000772 0.019230
v 0.085509 -0.001270 0.018622
v 0.087215 0.000155 0.016845
v 0.083432 -0.000889 0.019230
v 0.089104 0.000228 0.015187
v 0.065438 0.000752 0.013652
v 0.061198 -0.002155 0.018193
v 0.060582 -0.002820 0.019230
v 0.085509 -0.002126 0.018622
v 0.088793 -0.001674 0.016687
v 0.088424 -0.000467 0.016395
v 0.083078 -0.002634 0.019230
v 0.090548 -0.000099 0.013652
v 0.090069 0.000301 0.013652
v 0.066041 -0.000945 0.013652
v 0.060795 -0.002942 0.019230
v 0.067735 -0.002139 0.013652
v 0.083423 -0.003665 0.018501
v 0.087081 -0.003700 0.016740
v 0.088793 -0.001917 0.016687
v 0.090721 -0.000599 0.013652
v 0.062474 -0.003419 0.018742
v 0.082390 -0.004150 0.017540
v 0.086009 -0.004155 0.015730
v 0.088814 -0.003663 0.014924
v 0.090541 -0.001818 0.014830
v 0.090743 -0.002145 0.013919
v 0.070918 -0.003321 0.013652
v 0.064006 -0.003875 0.019230
v 0.080577 -0.004250 0.017540
v 0.082390 -0.004497 0.015730
v 0.073337 -0.003884 0.013652
v 0.064643 -0.003936 0.019230
v 0.076955 -0.004399 0.013652
v 0.076852 -0.003888 0.019230
v 0.067896 -0.004128 0.019230
v 0.087821 -0.004133 0.013652
v 0.086009 -0.004430 0.013652
v 0.090005 -0.003094 0.013652
v 0.080577 -0.004556 0.013652
f 23 15 14
f 14 15 6
f 1 3 4
f 3 17 11
f 11 12 3
f 16 26 24
f 62 58 56
f 19 14 18
f 20 14 19
f 21 14 20
f 3 12 13
f 13 4 3
f 26 34 31
f 24 26 31
f 10 17 3
f 42 48 32
f 40 34 57
f 40 31 34
f 53 60 46
f 62 60 53
f 53 58 62
f 54 56 51
f 54 44 50
f 51 44 54
f 51 56 55
f 55 56 58
f 38 44 51
f 29 30 18
f 29 37 30
f 18 14 28
f 28 29 18
f 37 29 28
f 50 44 39
f 44 38 39
f 39 38 30
f 30 37 39
f 23 14 22
f 14 21 22
f 2 5 3
f 2 3 1
f 36 11 17
f 43 48 49
f 43 35 48
f 49 61 43
f 48 35 27
f 35 36 27
f 17 10 27
f 27 36 17
f 3 7 8
f 8 7 26
f 26 16 8
f 48 42 47
f 47 61 49
f 49 48 47
f 41 42 31
f 31 40 41
f 41 47 42
f 46 47 41
f 57 58 52
f 58 53 52
f 32 48 33
f 48 27 33
f 24 32 33
f 33 16 24
f 9 10 3
f 3 8 9
f 9 8 16
f 61 47 59
f 46 60 59
f 59 47 46
f 45 40 57
f 57 52 45
f 46 41 45
f 45 41 40
f 45 53 46
f 45 52 53
f 16 33 25
f 25 33 27
f 25 27 10
f 25 9 16
f 10 9 25
f 5 6 3
f 5 14 6
f 24 31 42
f 42 32 24
f 22 58 57
f 3 6 22
f 22 38 51
f 57 34 22
f 18 30 22
f 22 19 18
f 22 15 23
f 51 55 22
f 6 15 22
f 22 34 26
f 22 7 3
f 20 19 22
f 22 21 20
f 26 7 22
f 22 55 58
f 30 38 22
f 59 28 14
f 59 13 12
f 1 4 59
f 11 36 59
f 59 43 61
f 50 39 59
f 12 11 59
f 62 56 59
f 59 54 50
f 14 5 59
f 4 13 59
f 59 2 1
f 59 60 62
f 56 54 59
f 37 28 59
f 59 39 37
f 5 2 59
f 59 36 35
f 35 43 59
