# generated by collision_forge
v 0.042971 -0.000906 0.043415
v 0.042553 -0.000906 0.043404
v 0.037121 -0.002716 0.042983
v 0.040742 -0.002716 0.043053
v 0.042971 -0.002297 0.043169
v 0.042971 0.000364 0.042575
v 0.035311 0.000298 0.042456
v 0.033500 0.000281 0.042420
v 0.040742 -0.000906 0.043356
v 0.038931 -0.000906 0.043305
v 0.035311 -0.000906 0.043203
v 0.035311 -0.002716 0.042926
v 0.035311 -0.003737 0.042178
v 0.037121 -0.003759 0.042212
v 0.042971 -0.002716 0.043091
v 0.033500 -0.000906 0.043145
v 0.040742 0.000842 0.041080
v 0.031699 0.000265 0.042361
v 0.031699 -0.000906 0.043069
v 0.033500 -0.003701 0.042123
v 0.031699 -0.005566 0.036923
v 0.038931 -0.003765 0.042225
v 0.042971 -0.003529 0.042448
v 0.042971 0.000923 0.040661
v 0.038931 0.000807 0.041080
v 0.031699 0.001056 0.037458
v 0.035311 0.000730 0.041080
v 0.031699 0.000643 0.041080
v 0.031699 -0.002706 0.042764
v 0.031699 -0.002716 0.042761
v 0.031699 -0.003665 0.042061
v 0.031699 -0.005756 0.035650
v 0.042971 -0.004451 0.039270
v 0.042971 -0.004136 0.041080
v 0.042971 -0.004052 0.041353
v 0.042971 -0.003775 0.042251
v 0.042971 0.001065 0.039270
v 0.031699 0.001201 0.035649
v 0.033500 -0.005577 0.033972
v 0.036498 -0.005467 0.034971
v 0.042971 -0.004799 0.033839
v 0.042971 0.001084 0.033420
v 0.042971 0.001061 0.032028
v 0.031699 0.000855 0.033830
v 0.031699 -0.005566 0.033487
v 0.032511 -0.005428 0.032951
v 0.042553 -0.004884 0.032028
v 0.042971 -0.004864 0.032028
v 0.042971 0.000989 0.031608
v 0.031699 0.000267 0.032607
v 0.042971 0.000393 0.029887
v 0.042971 -0.003802 0.029340
v 0.042971 -0.003833 0.029380
v 0.042971 -0.004243 0.030123
v 0.042971 0.000217 0.029568
v 0.042971 -0.000072 0.029340
v 0.031699 -0.000906 0.031871
v 0.031699 -0.004694 0.032324
v 0.042242 -0.003406 0.029340
v 0.042184 -0.000595 0.029340
v 0.031699 -0.002717 0.031473
v 0.041353 -0.002198 0.029340
f 40 33 32
f 32 33 21
f 1 6 7
f 46 58 52
f 52 58 61
f 18 19 16
f 33 40 41
f 41 40 48
f 34 21 33
f 1 7 8
f 8 16 11
f 18 16 8
f 17 6 24
f 17 7 6
f 24 26 17
f 17 8 7
f 18 8 17
f 37 38 26
f 37 26 24
f 44 38 49
f 49 51 44
f 44 51 50
f 55 56 50
f 50 51 55
f 39 40 32
f 48 40 39
f 50 56 57
f 12 29 30
f 11 16 12
f 12 3 11
f 19 29 12
f 12 16 19
f 21 14 13
f 13 14 3
f 3 12 13
f 22 23 15
f 15 14 22
f 36 23 22
f 22 21 36
f 22 14 21
f 4 14 15
f 3 14 4
f 15 5 4
f 4 5 1
f 1 3 4
f 36 21 35
f 21 34 35
f 26 28 27
f 27 28 18
f 38 37 42
f 53 46 52
f 53 54 46
f 47 54 48
f 46 54 47
f 48 39 47
f 52 61 59
f 61 62 59
f 60 62 61
f 61 57 60
f 60 57 56
f 31 21 20
f 21 13 20
f 20 30 31
f 20 12 30
f 20 13 12
f 1 8 2
f 8 9 2
f 2 3 1
f 2 9 3
f 10 8 11
f 10 9 8
f 11 3 10
f 3 9 10
f 25 17 26
f 26 27 25
f 18 17 25
f 25 27 18
f 49 38 43
f 38 42 43
f 46 47 45
f 45 47 39
f 45 39 32
f 58 46 45
f 60 56 52
f 52 59 60
f 60 59 62
f 43 6 1
f 56 55 43
f 33 41 43
f 43 34 33
f 1 5 43
f 43 51 49
f 52 56 43
f 24 6 43
f 15 23 43
f 43 23 36
f 36 35 43
f 43 5 15
f 43 41 48
f 43 53 52
f 43 37 24
f 43 55 51
f 48 54 43
f 43 35 34
f 43 42 37
f 54 53 43
f 31 30 45
f 45 19 18
f 45 44 50
f 45 29 19
f 32 21 45
f 18 28 45
f 50 57 45
f 45 21 31
f 26 38 45
f 45 28 26
f 45 61 58
f 38 44 45
f 45 57 61
f 30 29 45
