# generated by collision_forge
v -0.015392 -0.001289 0.031904
v -0.015390 -0.001289 0.031905
v -0.017189 -0.001289 0.031944
v -0.015392 -0.000905 0.031949
v -0.015390 -0.000907 0.031949
v -0.015390 -0.001289 0.040472
v -0.017189 -0.000905 0.032005
v -0.017189 -0.001289 0.041324
v -0.015390 0.000376 0.032538
v -0.015390 -0.001289 0.041331
v -0.015392 -0.001289 0.041330
v -0.017189 0.000275 0.032610
v -0.015773 -0.001289 0.041365
v -0.015390 -0.000905 0.041415
v -0.017189 -0.000905 0.041362
v -0.015392 0.000377 0.032539
v -0.015390 0.000915 0.033837
v -0.017189 0.000823 0.033829
v -0.015392 0.000406 0.040733
v -0.017189 -0.000896 0.041357
v -0.015390 0.000407 0.040730
v -0.017189 0.000827 0.033839
v -0.017189 0.001109 0.035636
v -0.015390 0.001108 0.035646
v -0.015392 0.000958 0.039270
v -0.017189 0.000779 0.039270
v -0.017189 0.000277 0.040582
v -0.017189 0.000273 0.040593
v -0.015390 0.000959 0.039267
v -0.017189 0.001110 0.035649
v -0.015390 0.001122 0.037456
v -0.017189 0.001073 0.037459
f 14 13 10
f 8 13 14
f 14 21 19
f 21 25 19
f 3 4 1
f 17 9 16
f 4 9 5
f 2 1 5
f 5 1 4
f 7 4 3
f 7 9 4
f 11 10 13
f 15 8 14
f 29 25 21
f 31 32 29
f 16 9 12
f 9 7 12
f 26 19 25
f 25 29 26
f 26 29 32
f 30 32 31
f 10 11 6
f 14 19 20
f 20 15 14
f 20 19 28
f 16 12 18
f 18 17 16
f 22 17 18
f 28 19 27
f 19 26 27
f 24 30 31
f 23 17 22
f 23 24 17
f 30 24 23
f 6 8 3
f 13 8 6
f 3 1 6
f 6 1 2
f 6 11 13
f 24 6 2
f 2 5 24
f 24 21 14
f 31 29 24
f 14 10 24
f 9 17 24
f 24 5 9
f 24 29 21
f 10 6 24
f 23 7 3
f 3 8 23
f 23 20 28
f 28 27 23
f 22 18 23
f 8 15 23
f 23 12 7
f 23 26 32
f 32 30 23
f 15 20 23
f 23 18 12
f 23 27 26
