# generated by collision_forge
v 0.075105 0.001263 0.019395
v 0.075268 0.001237 0.019231
v 0.075105 0.001262 0.019231
v 0.075105 0.000998 0.020870
v 0.079879 0.000407 0.019231
v 0.075105 -0.003932 0.019231
v 0.075105 0.000948 0.020978
v 0.081724 -0.000025 0.019231
v 0.080413 0.000304 0.019231
v 0.075148 -0.003933 0.019231
v 0.075105 -0.003915 0.019349
v 0.075105 -0.000906 0.021880
v 0.079466 -0.000136 0.020166
v 0.082905 -0.000556 0.019231
v 0.076854 -0.003888 0.019231
v 0.075148 -0.003913 0.019352
v 0.075105 -0.003673 0.020368
v 0.075105 -0.001249 0.021873
v 0.081532 -0.001851 0.020274
v 0.081532 -0.001763 0.020274
v 0.083434 -0.000889 0.019231
v 0.077793 -0.003859 0.019231
v 0.076841 -0.003841 0.019441
v 0.075105 -0.002623 0.021371
v 0.076159 -0.003635 0.020280
v 0.080579 -0.002086 0.020400
v 0.082237 -0.002559 0.019568
v 0.083080 -0.002634 0.019231
v 0.078769 -0.003750 0.019231
v 0.077366 -0.003523 0.020104
v 0.078769 -0.003340 0.019921
v 0.078769 -0.002434 0.020632
v 0.080579 -0.003463 0.019231
v 0.080579 -0.002991 0.019739
v 0.082293 -0.002992 0.019231
f 13 7 12
f 21 19 28
f 12 19 20
f 20 13 12
f 20 19 21
f 21 13 20
f 14 13 21
f 14 8 7
f 7 13 14
f 35 28 27
f 27 28 19
f 25 29 33
f 31 33 35
f 11 6 10
f 24 17 25
f 24 31 32
f 26 27 19
f 26 24 32
f 34 31 35
f 32 31 34
f 34 26 32
f 35 27 34
f 27 26 34
f 25 33 30
f 33 31 30
f 30 24 25
f 31 24 30
f 2 3 1
f 1 5 2
f 4 5 1
f 9 5 4
f 8 9 4
f 7 8 4
f 22 29 25
f 25 17 22
f 18 19 12
f 18 26 19
f 24 26 18
f 23 22 17
f 10 15 16
f 16 11 10
f 17 11 16
f 16 23 17
f 16 15 22
f 22 23 16
f 18 4 1
f 1 3 18
f 12 7 18
f 3 6 18
f 6 11 18
f 18 11 17
f 17 24 18
f 7 4 18
f 21 28 15
f 10 6 15
f 35 33 15
f 3 2 15
f 15 6 3
f 15 28 35
f 15 14 21
f 15 9 8
f 8 14 15
f 15 33 29
f 15 5 9
f 15 2 5
f 29 22 15
