# generated by collision_forge
v -0.004983 -0.002674 0.041083
v -0.004589 -0.002583 0.041083
v -0.004983 -0.002160 0.042252
v -0.004983 0.005091 0.041083
v -0.004544 -0.002572 0.041083
v -0.004983 -0.001587 0.043509
v -0.004983 0.005515 0.041411
v -0.004546 0.004828 0.041083
v -0.003004 -0.000809 0.041083
v -0.003142 -0.000463 0.043509
v -0.003573 -0.000881 0.043509
v -0.004983 0.005691 0.043509
v -0.004983 0.005543 0.041439
v -0.001010 0.004529 0.043509
v -0.004438 0.004737 0.041083
v -0.001179 0.002713 0.043509
v -0.002010 0.001043 0.043509
v -0.004405 0.004663 0.041083
v -0.002828 0.000227 0.043509
v -0.004479 0.005711 0.043509
v -0.004983 0.005685 0.042827
v -0.002389 0.005526 0.043509
v -0.004983 0.005552 0.041480
v -0.002828 0.005557 0.043509
v -0.004451 0.005657 0.042802
f 14 9 18
f 14 22 24
f 24 22 20
f 24 19 14
f 13 22 14
f 14 19 16
f 16 9 14
f 17 9 16
f 20 22 25
f 21 12 20
f 20 25 21
f 6 3 5
f 5 11 6
f 10 9 17
f 10 5 9
f 11 5 10
f 17 16 10
f 10 16 19
f 22 13 23
f 23 25 22
f 23 21 25
f 7 8 4
f 7 13 14
f 14 8 7
f 14 18 15
f 15 8 14
f 2 3 1
f 2 5 3
f 10 12 6
f 20 12 10
f 10 24 20
f 19 24 10
f 6 11 10
f 7 4 1
f 6 12 7
f 1 3 7
f 7 3 6
f 7 23 13
f 12 21 7
f 21 23 7
f 1 4 2
f 4 8 2
f 2 18 9
f 2 15 18
f 9 5 2
f 8 15 2
