# generated by collision_forge
v -0.004983 0.001399 0.036803
v -0.004598 0.001399 0.037493
v -0.004983 0.001399 0.041083
v -0.004983 0.005063 0.040620
v -0.004438 0.004737 0.041083
v -0.004596 0.001400 0.037499
v -0.004594 0.001399 0.037509
v -0.004405 0.004663 0.041083
v -0.003942 0.001399 0.041083
v -0.004983 0.005091 0.041083
v -0.004546 0.004828 0.041083
v -0.004219 0.001399 0.039262
v -0.004049 0.002578 0.041083
f 8 6 2
f 11 4 10
f 12 13 9
f 8 13 12
f 4 11 5
f 1 4 5
f 5 2 1
f 8 2 5
f 7 2 6
f 7 6 8
f 8 12 7
f 4 3 10
f 1 3 4
f 10 3 5
f 5 3 9
f 9 13 5
f 5 13 8
f 5 11 10
f 9 3 7
f 7 3 1
f 1 2 7
f 7 12 9
