# generated by collision_forge
v 0.065814 0.005996 0.050412
v 0.064004 0.005939 0.050412
v 0.042976 0.005503 0.052723
v 0.042976 0.005515 0.053511
v 0.042976 0.005512 0.053793
v 0.060663 0.005851 0.051946
v 0.069316 0.005905 0.050412
v 0.060980 0.005685 0.050412
v 0.042976 0.004527 0.051910
v 0.060747 0.005649 0.050412
v 0.042976 0.005461 0.054509
v 0.042976 0.005444 0.054677
v 0.060663 0.005605 0.053096
v 0.057972 0.005016 0.050412
v 0.042976 0.002716 0.051215
v 0.059277 0.005363 0.050412
v 0.042976 0.004567 0.055193
v 0.051611 0.005330 0.054410
v 0.062473 0.005531 0.052978
v 0.056636 0.004553 0.050412
v 0.054248 0.002716 0.050412
v 0.055430 0.000906 0.050412
v 0.042976 0.002716 0.055776
v 0.046176 0.002716 0.055795
v 0.049796 0.004459 0.055172
v 0.074319 0.005444 0.051052
v 0.042976 0.000906 0.051346
v 0.046176 0.000906 0.055530
v 0.055231 0.004164 0.054900
v 0.058175 0.003727 0.054704
v 0.080098 0.004505 0.050412
v 0.076198 0.005494 0.050412
v 0.049796 0.002716 0.055660
v 0.042976 0.000591 0.051535
v 0.058852 -0.000208 0.050412
v 0.060146 -0.000494 0.050412
v 0.042976 0.000906 0.055535
v 0.042976 -0.000288 0.054961
v 0.044365 -0.000293 0.054971
v 0.051611 -0.000179 0.054832
v 0.051611 0.002716 0.055512
v 0.059315 0.002716 0.054580
v 0.078146 0.003786 0.051093
v 0.080378 0.004260 0.050412
v 0.051611 0.000906 0.055243
v 0.042976 -0.000447 0.052168
v 0.042976 -0.000737 0.053756
v 0.051611 -0.000664 0.053756
v 0.053421 -0.000107 0.054756
v 0.076956 -0.001281 0.050412
v 0.058335 0.001614 0.054726
v 0.078307 0.000906 0.051126
v 0.082073 0.002716 0.050412
v 0.054523 -0.000036 0.054691
v 0.042976 -0.000515 0.052534
v 0.069715 -0.001153 0.050412
v 0.071525 -0.001204 0.050412
v 0.078747 -0.001135 0.050412
v 0.078116 -0.000127 0.051090
v 0.082008 0.000906 0.050412
v 0.080428 -0.000897 0.050412
v 0.080577 -0.000779 0.050412
f 51 59 52
f 51 30 41
f 42 30 51
f 42 52 53
f 51 52 42
f 53 43 42
f 43 30 42
f 17 23 24
f 12 17 25
f 25 17 24
f 1 5 6
f 21 15 20
f 15 14 20
f 9 14 15
f 22 15 21
f 53 52 60
f 60 52 59
f 1 6 7
f 51 41 45
f 55 56 47
f 39 38 47
f 29 30 19
f 29 41 30
f 12 25 18
f 18 29 19
f 25 29 18
f 4 1 3
f 4 5 1
f 12 6 11
f 11 6 5
f 3 1 2
f 2 8 3
f 10 9 3
f 3 8 10
f 15 22 27
f 59 61 62
f 62 60 59
f 44 43 53
f 44 31 43
f 32 7 26
f 26 31 32
f 19 30 26
f 26 30 43
f 43 31 26
f 51 45 54
f 54 59 51
f 54 61 59
f 54 58 61
f 24 23 37
f 37 38 39
f 33 45 41
f 33 25 24
f 41 29 33
f 33 29 25
f 50 47 57
f 57 47 56
f 48 47 50
f 39 47 48
f 13 18 19
f 12 18 13
f 13 6 12
f 13 7 6
f 19 26 13
f 13 26 7
f 14 9 16
f 9 10 16
f 36 27 35
f 35 27 22
f 36 56 46
f 46 56 55
f 39 48 40
f 40 48 50
f 28 33 24
f 45 33 28
f 24 37 28
f 28 40 45
f 28 37 39
f 39 40 28
f 34 27 36
f 36 46 34
f 49 54 45
f 45 40 49
f 58 54 49
f 50 58 49
f 49 40 50
f 35 58 50
f 35 22 21
f 35 44 53
f 21 20 35
f 1 7 35
f 53 60 35
f 35 62 61
f 35 20 14
f 35 2 1
f 14 16 35
f 35 56 36
f 50 57 35
f 61 58 35
f 32 31 35
f 35 7 32
f 8 2 35
f 35 10 8
f 60 62 35
f 31 44 35
f 35 57 56
f 35 16 10
f 23 17 34
f 55 47 34
f 12 11 34
f 3 9 34
f 34 37 23
f 34 17 12
f 34 4 3
f 34 9 15
f 34 47 38
f 5 4 34
f 34 11 5
f 15 27 34
f 38 37 34
f 34 46 55
