# generated by collision_forge
v -0.060788 0.002716 0.048841
v -0.060788 0.001010 0.049080
v -0.060788 0.002844 0.048855
v -0.041262 0.002716 0.051142
v -0.041262 0.000906 0.051297
v -0.060264 0.000477 0.049413
v -0.060788 -0.000333 0.050058
v -0.060788 0.004392 0.049078
v -0.041262 0.003236 0.051355
v -0.041262 -0.000401 0.052148
v -0.060788 -0.000773 0.051817
v -0.060788 0.005133 0.049394
v -0.041262 0.004527 0.051903
v -0.041262 -0.000679 0.053756
v -0.042555 -0.000718 0.053756
v -0.057037 -0.000792 0.051946
v -0.058850 -0.000828 0.051946
v -0.060788 -0.000783 0.051946
v -0.060788 0.005654 0.050128
v -0.041262 0.005479 0.052760
v -0.041262 0.004801 0.052145
v -0.042555 -0.000312 0.055017
v -0.044365 -0.000748 0.053756
v -0.049797 -0.000688 0.053756
v -0.058850 -0.000441 0.053496
v -0.060788 0.005690 0.050451
v -0.058850 0.005837 0.051946
v -0.041262 0.005479 0.053326
v -0.041262 0.000906 0.055569
v -0.044365 0.000906 0.055693
v -0.046175 -0.000321 0.055033
v -0.047987 -0.000296 0.055010
v -0.049797 -0.000265 0.054959
v -0.054681 -0.000040 0.054697
v -0.060788 -0.000378 0.053308
v -0.055889 0.000083 0.054619
v -0.060660 0.005850 0.051946
v -0.047987 0.005414 0.054520
v -0.044365 0.005396 0.054386
v -0.041262 0.005450 0.053586
v -0.042555 0.002716 0.055912
v -0.044365 0.002716 0.055951
v -0.046175 0.002716 0.055935
v -0.046175 0.000906 0.055675
v -0.049797 0.000906 0.055515
v -0.060788 0.000823 0.053980
v -0.060788 0.005577 0.053072
v -0.049797 0.005403 0.054484
v -0.047987 0.004509 0.055279
v -0.042555 0.004478 0.055288
v -0.041262 0.004466 0.055263
v -0.047987 0.002716 0.055890
v -0.049797 0.004498 0.055240
v -0.049797 0.002716 0.055796
v -0.051605 0.002716 0.055628
v -0.058207 0.001585 0.054707
v -0.060788 0.004527 0.053804
v -0.051605 0.004442 0.055164
v -0.055227 0.004186 0.054941
v -0.057037 0.003990 0.054825
v -0.058326 0.003794 0.054732
v -0.060788 0.002716 0.054292
f 1 4 5
f 4 8 9
f 17 7 16
f 16 7 10
f 18 25 35
f 1 5 2
f 3 4 1
f 3 8 4
f 19 20 12
f 13 8 12
f 13 9 8
f 11 7 17
f 17 18 11
f 6 5 10
f 6 2 5
f 7 2 6
f 10 7 6
f 37 47 48
f 48 38 37
f 26 47 37
f 27 28 20
f 27 26 37
f 19 26 27
f 20 19 27
f 37 38 27
f 27 38 39
f 40 27 39
f 28 27 40
f 12 20 21
f 21 13 12
f 57 62 61
f 47 57 60
f 60 57 61
f 38 48 49
f 10 14 15
f 15 16 10
f 17 16 15
f 15 14 22
f 35 36 46
f 35 25 34
f 34 36 35
f 55 60 61
f 39 38 51
f 51 40 39
f 58 48 47
f 24 18 17
f 25 18 24
f 62 46 56
f 56 46 36
f 61 62 56
f 56 55 61
f 41 42 30
f 60 55 54
f 38 49 50
f 50 51 38
f 49 42 50
f 41 51 50
f 50 42 41
f 53 49 48
f 48 58 53
f 53 54 52
f 58 54 53
f 47 60 59
f 59 58 47
f 60 54 59
f 59 54 58
f 17 15 23
f 23 24 17
f 23 15 22
f 33 34 25
f 25 24 33
f 43 42 49
f 49 53 43
f 43 53 52
f 43 30 42
f 41 30 29
f 29 30 22
f 22 14 29
f 29 51 41
f 52 54 45
f 34 33 45
f 36 34 45
f 45 54 55
f 45 56 36
f 55 56 45
f 22 30 31
f 31 23 22
f 24 23 31
f 52 45 44
f 44 43 52
f 30 43 44
f 44 45 33
f 44 31 30
f 32 44 33
f 31 44 32
f 32 33 24
f 24 31 32
f 1 2 46
f 46 18 35
f 46 3 1
f 12 8 46
f 7 11 46
f 46 19 12
f 46 2 7
f 8 3 46
f 46 57 47
f 46 11 18
f 47 26 46
f 46 26 19
f 62 57 46
f 10 5 29
f 29 5 4
f 4 9 29
f 9 13 29
f 20 28 29
f 28 40 29
f 29 14 10
f 29 21 20
f 13 21 29
f 40 51 29
