# generated by collision_forge
v -0.004983 0.001378 0.043509
v -0.004984 0.005691 0.043509
v -0.004983 -0.001289 0.043509
v -0.004984 0.005684 0.042827
v -0.006339 0.005755 0.042891
v -0.006339 0.005746 0.043509
v -0.013181 -0.001289 0.043509
v -0.004983 -0.001289 0.032027
v -0.004984 0.005552 0.041479
v -0.010775 0.005478 0.029472
v -0.011750 0.005550 0.029472
v -0.010576 0.005605 0.043509
v -0.011770 0.005569 0.030217
v -0.011770 0.005590 0.032028
v -0.013661 -0.000948 0.043509
v -0.015390 -0.001288 0.041330
v -0.007784 -0.001289 0.031617
v -0.011769 -0.000647 0.029472
v -0.010241 -0.000299 0.029472
v -0.009909 0.000203 0.029472
v -0.009452 0.000906 0.029472
v -0.009354 0.001346 0.029472
v -0.009140 0.002716 0.029472
v -0.004983 -0.000905 0.032130
v -0.004984 0.005542 0.041437
v -0.010400 0.005106 0.029472
v -0.012894 0.005503 0.029472
v -0.009959 0.005631 0.042891
v -0.011770 0.005556 0.043509
v -0.012216 0.005531 0.043509
v -0.014128 -0.000406 0.043509
v -0.015390 -0.000905 0.041414
v -0.015390 -0.001289 0.040470
v -0.014462 0.000906 0.043509
v -0.011769 -0.001289 0.031151
v -0.012491 -0.000561 0.029472
v -0.015390 -0.001289 0.031904
v -0.009911 0.004558 0.029472
v -0.004983 0.000348 0.033064
v -0.004984 0.005063 0.040618
v -0.013266 0.005316 0.029472
v -0.012873 0.005476 0.043509
v -0.014503 0.002716 0.043509
v -0.014491 0.003543 0.043509
v -0.015390 0.000408 0.040731
v -0.014476 0.001378 0.043509
v -0.013357 -0.000309 0.029472
v -0.015390 -0.000906 0.031948
v -0.014729 0.002716 0.029472
v -0.014566 0.001526 0.029472
v -0.014330 0.000936 0.029472
v -0.014183 0.000629 0.029472
v -0.004983 0.000138 0.032785
v -0.013875 0.004745 0.029472
v -0.014180 0.004328 0.043509
v -0.015390 0.001122 0.037454
v -0.015390 0.000959 0.039265
v -0.014642 0.003927 0.029472
v -0.015390 0.000377 0.032538
v -0.014695 0.003624 0.029472
v -0.015390 0.001108 0.035647
v -0.015390 0.000915 0.033838
f 5 2 4
f 4 2 1
f 33 7 16
f 37 18 35
f 44 45 32
f 25 39 40
f 9 25 10
f 10 4 9
f 9 39 25
f 1 39 9
f 9 4 1
f 14 28 5
f 6 2 5
f 16 7 15
f 15 31 16
f 17 18 8
f 17 35 18
f 8 22 23
f 8 18 19
f 34 32 16
f 16 31 34
f 57 45 44
f 44 56 57
f 41 42 27
f 41 55 42
f 54 55 41
f 11 4 10
f 5 4 11
f 39 53 38
f 38 40 39
f 25 40 38
f 21 22 8
f 44 32 43
f 62 60 59
f 62 61 58
f 58 60 62
f 58 61 56
f 58 56 44
f 44 55 58
f 58 55 54
f 13 14 5
f 5 11 13
f 13 11 27
f 27 14 13
f 30 29 14
f 27 42 30
f 30 14 27
f 5 28 12
f 12 6 5
f 28 14 12
f 14 29 12
f 24 38 53
f 23 38 24
f 8 23 24
f 10 25 26
f 25 38 26
f 8 19 20
f 20 21 8
f 32 34 46
f 46 43 32
f 48 59 60
f 37 52 47
f 36 18 37
f 37 47 36
f 49 50 37
f 37 48 49
f 49 48 60
f 51 52 37
f 37 50 51
f 3 7 17
f 8 3 17
f 17 33 37
f 7 33 17
f 37 35 17
f 1 3 24
f 24 3 8
f 24 39 1
f 24 53 39
f 1 2 46
f 46 3 1
f 44 43 46
f 46 7 3
f 46 15 7
f 2 6 46
f 46 55 44
f 31 15 46
f 46 34 31
f 42 55 46
f 46 30 42
f 6 12 46
f 29 30 46
f 46 12 29
f 37 33 48
f 48 61 62
f 16 32 48
f 48 33 16
f 48 32 45
f 45 57 48
f 48 57 56
f 56 61 48
f 62 59 48
f 51 41 27
f 22 21 51
f 51 11 10
f 51 19 18
f 51 23 22
f 51 58 54
f 54 41 51
f 51 20 19
f 27 11 51
f 51 38 23
f 10 26 51
f 18 36 51
f 60 58 51
f 51 26 38
f 21 20 51
f 51 47 52
f 51 49 60
f 51 36 47
f 50 49 51
