# generated by collision_forge
v -0.071544 -0.003463 0.013781
v -0.071544 -0.003447 0.013716
v -0.071426 -0.003430 0.013781
v -0.071544 0.002632 0.013781
v -0.066094 -0.000720 0.010890
v -0.064345 -0.000369 0.010890
v -0.068040 -0.002203 0.013781
v -0.071544 -0.003381 0.013609
v -0.071544 -0.002428 0.012211
v -0.071544 -0.002392 0.012161
v -0.067862 -0.000589 0.010890
v -0.067162 -0.001799 0.013781
v -0.063670 0.000093 0.010890
v -0.070396 0.004748 0.013781
v -0.071544 -0.000905 0.011503
v -0.068787 -0.000182 0.010890
v -0.066050 -0.000997 0.013781
v -0.063249 0.000436 0.010890
v -0.071544 0.002610 0.013715
v -0.069570 0.005671 0.013781
v -0.069072 0.005585 0.012691
v -0.069396 0.004551 0.012096
v -0.068988 0.003964 0.010950
v -0.071544 0.001041 0.012262
v -0.069189 0.000906 0.010890
v -0.069099 0.000575 0.010890
v -0.071544 -0.000675 0.011521
v -0.068956 0.003894 0.010890
v -0.069034 0.003510 0.010890
v -0.069183 0.002714 0.010890
v -0.065131 -0.000082 0.013781
v -0.065082 -0.000003 0.013781
v -0.062996 0.001263 0.010890
v -0.069451 0.005700 0.013781
v -0.067923 0.005747 0.012096
v -0.067380 0.005600 0.010890
v -0.068539 0.005171 0.011484
v -0.068897 0.004022 0.010890
v -0.071544 0.000933 0.012174
v -0.062838 0.002084 0.010890
v -0.062759 0.002716 0.010890
v -0.065038 0.000837 0.013781
v -0.067905 0.005967 0.013781
v -0.066782 0.005725 0.010890
v -0.068244 0.004912 0.010890
v -0.062969 0.004137 0.010890
v -0.063255 0.003886 0.011326
v -0.065162 0.002108 0.013781
v -0.067744 0.005966 0.013781
v -0.066088 0.005729 0.010890
v -0.063155 0.004552 0.010890
v -0.065571 0.004643 0.013781
v -0.065315 0.003374 0.013781
v -0.065544 0.004559 0.013781
v -0.064761 0.005717 0.010890
v -0.066436 0.005693 0.013781
v -0.064482 0.005661 0.010890
v -0.063568 0.005069 0.010890
v -0.065260 0.005329 0.012924
v -0.065608 0.004719 0.013781
v -0.064821 0.005609 0.011717
v -0.063599 0.005105 0.010890
f 32 18 33
f 42 32 41
f 41 48 42
f 7 3 6
f 12 7 6
f 41 32 40
f 32 33 40
f 31 18 32
f 31 17 18
f 5 10 11
f 11 10 15
f 15 16 11
f 28 15 27
f 27 39 28
f 47 53 48
f 47 48 41
f 13 17 12
f 12 6 13
f 18 17 13
f 4 14 19
f 30 25 15
f 26 16 15
f 15 25 26
f 9 10 5
f 5 8 9
f 5 6 2
f 2 8 5
f 2 3 1
f 2 6 3
f 46 47 41
f 46 51 52
f 52 47 46
f 54 47 52
f 53 47 54
f 60 59 56
f 52 51 60
f 51 59 60
f 21 14 20
f 36 37 21
f 21 35 36
f 28 39 23
f 24 19 14
f 24 23 39
f 14 23 24
f 43 35 34
f 34 21 20
f 35 21 34
f 43 49 50
f 50 49 55
f 29 15 28
f 29 30 15
f 58 59 51
f 58 62 59
f 56 59 61
f 59 62 61
f 22 23 14
f 37 23 22
f 14 21 22
f 22 21 37
f 45 37 36
f 36 35 44
f 44 35 43
f 43 50 44
f 57 61 62
f 56 61 57
f 57 49 56
f 55 49 57
f 28 23 38
f 38 23 37
f 37 45 38
f 1 4 24
f 24 27 15
f 15 10 24
f 10 9 24
f 4 19 24
f 39 27 24
f 24 2 1
f 24 9 8
f 8 2 24
f 52 60 34
f 34 14 4
f 34 4 1
f 34 49 43
f 1 3 34
f 32 42 34
f 34 7 12
f 12 17 34
f 34 31 32
f 34 54 52
f 34 42 48
f 48 53 34
f 34 3 7
f 17 31 34
f 20 14 34
f 56 49 34
f 53 54 34
f 34 60 56
f 38 6 5
f 18 13 38
f 16 26 38
f 41 40 38
f 38 33 18
f 38 58 51
f 38 46 41
f 5 11 38
f 38 40 33
f 36 44 38
f 38 50 55
f 38 11 16
f 38 13 6
f 25 30 38
f 38 26 25
f 51 46 38
f 38 29 28
f 55 57 38
f 30 29 38
f 62 58 38
f 38 45 36
f 38 44 50
f 38 57 62
