# generated by collision_forge
v -0.004984 -0.001289 0.043509
v -0.013182 -0.001289 0.043509
v -0.004984 -0.001589 0.043509
v -0.004984 -0.001289 0.032026
v -0.013108 -0.001406 0.043509
v -0.017190 -0.001289 0.041325
v -0.017190 -0.002703 0.041187
v -0.017190 -0.002717 0.041184
v -0.005279 -0.001878 0.043509
v -0.004984 -0.005768 0.038715
v -0.004984 -0.002261 0.031765
v -0.007783 -0.001289 0.031616
v -0.012716 -0.001840 0.043509
v -0.017190 -0.001289 0.031944
v -0.017190 -0.003841 0.040415
v -0.006339 -0.005766 0.038724
v -0.004984 -0.006367 0.037458
v -0.006339 -0.002029 0.043509
v -0.009245 -0.002174 0.043509
v -0.009959 -0.002182 0.043509
v -0.004984 -0.002717 0.031652
v -0.011770 -0.001289 0.031150
v -0.017190 -0.004746 0.039596
v -0.017190 -0.005718 0.038690
v -0.017190 -0.002717 0.031716
v -0.008149 -0.005764 0.038728
v -0.006339 -0.006366 0.037458
v -0.004984 -0.006442 0.037004
v -0.015391 -0.005746 0.038710
v -0.013580 -0.005757 0.038720
v -0.009959 -0.005762 0.038728
v -0.004984 -0.004527 0.031920
v -0.006339 -0.004527 0.031921
v -0.015391 -0.004527 0.031950
v -0.017190 -0.004536 0.031961
v -0.011935 -0.001995 0.043509
v -0.017190 -0.006188 0.037458
v -0.015391 -0.006240 0.037458
v -0.008149 -0.006353 0.037458
v -0.006339 -0.006668 0.035649
v -0.004984 -0.006669 0.035649
v -0.013580 -0.006276 0.037458
v -0.009959 -0.006328 0.037458
v -0.004984 -0.005792 0.032544
v -0.008149 -0.005794 0.032541
v -0.009959 -0.005794 0.032540
v -0.011770 -0.005795 0.032541
v -0.013580 -0.005794 0.032545
v -0.015391 -0.005788 0.032554
v -0.017190 -0.005780 0.032573
v -0.017190 -0.006432 0.035662
v -0.013580 -0.006527 0.035649
v -0.009959 -0.006611 0.035649
v -0.008149 -0.006649 0.035649
v -0.011770 -0.006390 0.033838
v -0.009959 -0.006407 0.033838
v -0.008149 -0.006422 0.033838
v -0.006339 -0.006428 0.033838
v -0.004984 -0.006429 0.033838
v -0.004984 -0.006269 0.033513
v -0.015391 -0.006343 0.033838
v -0.017190 -0.006308 0.033850
f 25 14 22
f 35 25 22
f 12 21 22
f 13 8 15
f 7 2 6
f 7 8 2
f 5 8 13
f 2 8 5
f 9 18 10
f 52 51 62
f 22 21 32
f 11 12 4
f 21 12 11
f 24 13 23
f 13 15 23
f 28 17 27
f 27 17 26
f 3 9 10
f 36 13 24
f 24 20 36
f 29 20 24
f 30 20 29
f 10 18 19
f 19 20 10
f 62 54 53
f 53 52 62
f 40 59 41
f 41 28 40
f 40 28 27
f 55 40 54
f 31 30 27
f 27 26 31
f 31 20 30
f 31 26 20
f 16 17 10
f 16 26 17
f 10 20 16
f 20 26 16
f 24 37 38
f 38 29 24
f 42 29 38
f 38 37 51
f 51 52 38
f 52 53 38
f 54 42 38
f 38 53 54
f 27 30 39
f 30 29 39
f 39 40 27
f 54 40 39
f 59 40 58
f 58 40 57
f 57 48 58
f 61 54 62
f 61 55 54
f 62 50 61
f 50 55 61
f 56 55 50
f 57 40 56
f 40 55 56
f 49 50 35
f 35 48 49
f 49 48 57
f 57 56 49
f 49 56 50
f 22 32 33
f 43 29 42
f 43 39 29
f 43 42 54
f 54 39 43
f 45 32 44
f 45 46 32
f 44 60 45
f 45 60 59
f 59 46 45
f 47 46 59
f 59 58 47
f 47 58 48
f 48 33 47
f 32 46 47
f 47 33 32
f 34 48 35
f 34 33 48
f 34 35 22
f 22 33 34
f 1 4 12
f 12 14 6
f 6 2 12
f 22 14 12
f 12 2 1
f 6 14 23
f 23 50 62
f 62 51 23
f 23 7 6
f 14 25 23
f 23 37 24
f 25 35 23
f 23 15 8
f 8 7 23
f 51 37 23
f 35 50 23
f 3 4 1
f 3 28 41
f 41 59 3
f 3 60 44
f 44 32 3
f 3 11 4
f 59 60 3
f 10 17 3
f 3 32 21
f 21 11 3
f 17 28 3
f 1 2 19
f 19 5 13
f 19 3 1
f 2 5 19
f 18 9 19
f 13 36 19
f 9 3 19
f 19 36 20
