# generated by collision_forge
v -0.090034 -0.003114 0.013782
v -0.090555 -0.001848 0.014855
v -0.090729 -0.000981 0.013782
v -0.089129 -0.003815 0.013782
v -0.088789 -0.003660 0.014909
v -0.088772 -0.001889 0.016676
v -0.088529 -0.000453 0.016472
v -0.089724 0.000388 0.013782
v -0.087817 -0.004122 0.013920
v -0.087033 -0.003674 0.016710
v -0.086325 -0.000906 0.018092
v -0.085424 -0.002077 0.018579
v -0.089079 0.000267 0.015265
v -0.085203 0.000063 0.018503
v -0.086008 -0.004293 0.013920
v -0.086008 -0.004064 0.015731
v -0.081878 -0.003681 0.018553
v -0.081541 -0.001853 0.020278
v -0.087817 0.001107 0.013920
v -0.085888 0.000415 0.017517
v -0.081541 -0.001713 0.020278
v -0.079898 0.000090 0.020331
v -0.074429 0.001885 0.021341
v -0.084335 -0.004312 0.013782
v -0.062297 -0.004214 0.021341
v -0.064106 -0.004178 0.021341
v -0.071358 -0.003494 0.021341
v -0.074940 -0.002443 0.021341
v -0.076092 -0.001676 0.021341
v -0.076750 -0.000906 0.021341
v -0.086008 0.001149 0.015731
v -0.086008 0.001419 0.013920
v -0.068764 0.001885 0.021341
v -0.084061 0.001591 0.013782
v -0.084195 0.001587 0.013782
v -0.084195 -0.004309 0.013782
v -0.060484 -0.004147 0.021341
v -0.078903 -0.004152 0.013782
v -0.074880 -0.002478 0.021341
v -0.068059 0.001885 0.020948
v -0.062474 0.001225 0.021341
v -0.074453 0.001885 0.017538
v -0.077094 -0.004080 0.013782
v -0.060664 0.001027 0.021341
v -0.072710 0.001885 0.013782
v -0.063132 -0.003689 0.018328
v -0.073278 -0.003761 0.013782
v -0.072183 -0.003640 0.013782
v -0.059579 -0.003694 0.020158
v -0.066066 0.001885 0.017056
v -0.058808 0.000583 0.021341
v -0.065145 0.001885 0.013782
v -0.068043 -0.002202 0.013782
v -0.057566 -0.003473 0.021341
v -0.067165 -0.001799 0.013782
v -0.058080 0.000389 0.021341
v -0.057125 -0.000393 0.021341
v -0.056651 -0.000995 0.021341
v -0.065038 0.000836 0.013782
v -0.056892 -0.002872 0.021341
v -0.056671 -0.001742 0.021341
v -0.065085 -0.000005 0.013782
f 35 32 23
f 23 14 22
f 23 32 31
f 58 52 57
f 52 56 57
f 52 44 51
f 51 56 52
f 50 44 52
f 50 40 44
f 9 4 24
f 21 22 14
f 20 14 23
f 23 31 20
f 18 10 17
f 17 27 18
f 18 27 39
f 37 38 43
f 25 38 37
f 59 52 58
f 55 62 49
f 54 37 49
f 60 49 62
f 54 49 60
f 35 8 19
f 32 35 19
f 19 31 32
f 40 33 41
f 44 40 41
f 5 1 4
f 5 9 10
f 4 9 5
f 10 6 5
f 10 9 16
f 16 17 10
f 23 22 30
f 22 21 30
f 18 29 30
f 30 21 18
f 18 21 12
f 12 10 18
f 12 6 10
f 14 7 11
f 7 6 11
f 6 12 11
f 11 21 14
f 11 12 21
f 3 1 2
f 2 6 7
f 1 5 2
f 2 5 6
f 13 7 14
f 14 20 13
f 13 8 3
f 13 20 31
f 3 2 13
f 13 2 7
f 31 19 13
f 13 19 8
f 27 17 26
f 17 16 26
f 28 29 18
f 18 39 28
f 36 25 24
f 36 38 25
f 48 37 47
f 47 37 43
f 55 49 53
f 61 60 62
f 62 59 61
f 61 59 58
f 34 42 45
f 23 42 34
f 34 35 23
f 15 9 24
f 15 16 9
f 15 26 16
f 25 26 15
f 24 25 15
f 48 53 46
f 46 53 49
f 46 37 48
f 46 49 37
f 52 45 42
f 42 50 52
f 23 33 42
f 42 33 40
f 40 50 42
f 61 51 44
f 23 30 61
f 25 37 61
f 58 57 61
f 44 41 61
f 61 33 23
f 61 26 25
f 61 57 56
f 56 51 61
f 29 28 61
f 61 39 27
f 61 37 54
f 54 60 61
f 61 41 33
f 61 30 29
f 27 26 61
f 61 28 39
f 34 1 3
f 52 59 34
f 34 45 52
f 48 47 34
f 3 8 34
f 24 4 34
f 34 36 24
f 34 62 55
f 34 8 35
f 34 53 48
f 4 1 34
f 43 38 34
f 34 59 62
f 38 36 34
f 34 47 43
f 55 53 34
