# generated by collision_forge
v -0.014506 0.002418 0.043510
v -0.014504 0.002716 0.043510
v -0.014464 0.000906 0.043510
v -0.022687 0.002716 0.047931
v -0.014493 0.003542 0.043510
v -0.014130 -0.000407 0.043510
v -0.022687 0.000906 0.048141
v -0.022687 0.000957 0.048135
v -0.022687 0.002763 0.047941
v -0.014181 0.004328 0.043510
v -0.013662 -0.000948 0.043510
v -0.022687 -0.000333 0.048771
v -0.022687 0.004696 0.048661
v -0.012876 0.005476 0.043510
v -0.012717 -0.001839 0.043510
v -0.022687 -0.000692 0.050134
v -0.022687 0.005447 0.050093
v -0.022117 0.005453 0.049186
v -0.022635 -0.000696 0.050134
v -0.022687 -0.000358 0.051627
v -0.011935 -0.001994 0.043510
v -0.010606 -0.002121 0.043510
v -0.022687 0.005447 0.050135
v -0.010606 0.005605 0.043510
v -0.011771 0.005556 0.043510
v -0.020823 -0.000709 0.050134
v -0.010606 -0.001739 0.045183
v -0.020823 -0.000278 0.051399
v -0.022687 0.000211 0.051987
v -0.010606 -0.001947 0.044364
v -0.022687 0.005444 0.050195
v -0.017688 0.005444 0.049264
v -0.010606 0.005578 0.044702
v -0.010606 0.005596 0.043935
v -0.010606 -0.001823 0.044875
v -0.010606 -0.001204 0.046514
v -0.019012 -0.000113 0.051166
v -0.022687 0.001001 0.052484
v -0.022127 0.005409 0.050754
v -0.016481 0.005425 0.049140
v -0.010606 0.005554 0.045218
v -0.010606 -0.000379 0.047755
v -0.018091 -0.000006 0.051045
v -0.022687 0.002471 0.052710
v -0.022687 0.004545 0.051887
v -0.020823 0.004398 0.051638
v -0.019012 0.004113 0.051347
v -0.010606 0.004376 0.047946
v -0.010606 0.004958 0.047294
v -0.010606 0.005281 0.046919
v -0.010606 0.005433 0.046337
v -0.010606 0.005489 0.046014
v -0.010606 0.000906 0.048227
v -0.017931 0.000906 0.051107
v -0.019012 0.000906 0.051445
v -0.020823 0.002716 0.052203
v -0.022687 0.002716 0.052721
v -0.017851 0.003821 0.051138
v -0.010606 0.003766 0.048166
v -0.010606 0.002716 0.048417
v -0.017752 0.002716 0.051176
v -0.019012 0.002716 0.051625
f 4 1 3
f 14 10 13
f 6 12 7
f 7 3 6
f 16 12 15
f 18 13 17
f 14 13 18
f 18 25 14
f 24 25 18
f 18 17 24
f 9 13 10
f 10 5 9
f 9 5 4
f 43 42 53
f 60 54 53
f 53 54 43
f 36 42 43
f 43 54 55
f 55 38 43
f 40 32 39
f 4 3 8
f 3 7 8
f 11 12 6
f 11 15 12
f 22 16 21
f 16 15 21
f 2 1 4
f 4 5 2
f 22 30 26
f 26 30 35
f 38 55 44
f 41 32 40
f 33 32 41
f 40 52 41
f 40 50 51
f 51 52 40
f 45 39 31
f 31 39 32
f 46 45 57
f 40 39 46
f 46 39 45
f 19 20 16
f 19 26 20
f 19 16 22
f 22 26 19
f 20 28 29
f 29 28 38
f 43 38 37
f 38 28 37
f 37 36 43
f 37 28 36
f 36 28 27
f 27 28 20
f 27 26 35
f 20 26 27
f 33 34 23
f 23 32 33
f 23 31 32
f 23 34 24
f 24 17 23
f 57 58 47
f 47 46 57
f 40 46 47
f 47 48 40
f 58 48 47
f 56 58 57
f 56 62 58
f 57 44 56
f 56 44 55
f 56 55 54
f 54 62 56
f 60 58 61
f 58 62 61
f 61 54 60
f 61 62 54
f 59 58 60
f 59 48 58
f 49 50 40
f 40 48 49
f 2 25 24
f 2 24 22
f 2 11 6
f 2 3 1
f 6 3 2
f 2 10 14
f 14 25 2
f 22 21 2
f 2 5 10
f 15 11 2
f 2 21 15
f 4 8 23
f 57 45 23
f 23 9 4
f 23 12 16
f 17 13 23
f 16 20 23
f 23 44 57
f 23 7 12
f 13 9 23
f 20 29 23
f 23 8 7
f 38 44 23
f 45 31 23
f 23 29 38
f 22 24 49
f 60 53 49
f 42 36 49
f 49 30 22
f 49 51 50
f 24 34 49
f 49 53 42
f 35 30 49
f 49 27 35
f 49 34 33
f 33 41 49
f 49 41 52
f 52 51 49
f 49 59 60
f 36 27 49
f 48 59 49
