# generated by collision_forge
v -0.067893 -0.003904 0.021341
v -0.067893 0.001482 0.021341
v -0.064277 0.001331 0.021341
v -0.067893 0.001014 0.022974
v -0.047987 0.000739 0.033236
v -0.046179 0.000869 0.033236
v -0.044365 0.000965 0.033236
v -0.042555 0.001034 0.033236
v -0.041265 0.001029 0.033236
v -0.065913 -0.004074 0.021341
v -0.057037 -0.004499 0.026594
v -0.055227 -0.004454 0.028404
v -0.067116 -0.003647 0.023936
v -0.067893 -0.003687 0.023016
v -0.062467 0.001225 0.021341
v -0.041265 0.000931 0.032027
v -0.067893 0.000384 0.024488
v -0.049865 0.000420 0.033236
v -0.049319 0.000526 0.033236
v -0.041265 -0.005126 0.033236
v -0.041163 -0.002304 0.029472
v -0.064102 -0.004179 0.021341
v -0.055227 -0.004644 0.026594
v -0.043157 -0.004984 0.033236
v -0.047987 -0.004422 0.033236
v -0.061452 -0.003578 0.027413
v -0.049915 -0.004080 0.033236
v -0.060659 0.001027 0.021341
v -0.041265 0.000363 0.030551
v -0.067893 0.000261 0.024567
v -0.066920 -0.000183 0.025635
v -0.065714 0.000189 0.025919
v -0.050692 -0.000029 0.033236
v -0.041265 -0.005071 0.032027
v -0.041163 -0.002478 0.029472
v -0.041346 -0.005127 0.033236
v -0.041265 -0.000856 0.029728
v -0.056645 -0.000994 0.021341
v -0.041265 -0.001409 0.029515
v -0.062291 -0.004214 0.021341
v -0.053419 -0.004677 0.026594
v -0.067893 -0.002653 0.024642
v -0.051655 -0.002857 0.033236
v -0.067127 -0.001926 0.025758
v -0.058804 0.000582 0.021341
v -0.056080 0.000031 0.022035
v -0.058074 0.000389 0.021341
v -0.067893 -0.000838 0.025253
v -0.051655 -0.000793 0.033236
v -0.041265 -0.004839 0.031415
v -0.060478 -0.004147 0.021341
v -0.058743 -0.003914 0.021341
v -0.041265 -0.004283 0.030318
v -0.041265 -0.003776 0.029862
v -0.041265 -0.003003 0.029490
v -0.056755 -0.002608 0.021341
v -0.056661 -0.001743 0.021341
v -0.056205 -0.001904 0.031230
v -0.058440 -0.003852 0.021341
v -0.056108 -0.003633 0.022055
v -0.056886 -0.002872 0.021341
v -0.057561 -0.003473 0.021341
f 13 12 25
f 41 40 34
f 25 12 24
f 23 40 41
f 58 48 44
f 44 43 58
f 27 13 25
f 27 43 44
f 2 5 6
f 2 8 9
f 21 16 9
f 16 28 15
f 21 38 39
f 39 37 21
f 60 53 59
f 51 34 40
f 59 53 50
f 11 14 1
f 11 24 12
f 11 23 24
f 12 13 11
f 13 14 11
f 24 23 36
f 36 23 41
f 41 34 36
f 36 34 20
f 40 23 22
f 32 17 31
f 48 58 31
f 4 5 2
f 32 31 33
f 44 48 42
f 42 14 13
f 7 8 2
f 2 6 7
f 2 9 3
f 3 9 16
f 16 15 3
f 38 47 46
f 46 39 38
f 37 39 46
f 29 28 16
f 29 46 47
f 37 46 29
f 29 16 21
f 21 37 29
f 62 60 59
f 61 60 62
f 55 60 61
f 61 56 55
f 34 51 52
f 59 50 52
f 52 50 34
f 10 22 23
f 10 11 1
f 23 11 10
f 48 31 30
f 30 31 17
f 49 58 43
f 49 31 58
f 49 33 31
f 32 33 18
f 18 17 32
f 18 4 17
f 26 27 44
f 44 42 26
f 13 27 26
f 26 42 13
f 28 29 45
f 45 29 47
f 35 57 38
f 35 38 21
f 56 57 35
f 35 55 56
f 35 50 53
f 34 50 35
f 20 34 35
f 53 60 54
f 60 55 54
f 54 35 53
f 55 35 54
f 5 4 19
f 4 18 19
f 30 2 1
f 1 14 30
f 30 42 48
f 30 4 2
f 17 4 30
f 14 42 30
f 45 47 38
f 1 2 45
f 45 62 59
f 59 52 45
f 2 3 45
f 38 57 45
f 45 15 28
f 45 10 1
f 45 56 61
f 45 51 40
f 40 22 45
f 45 3 15
f 45 57 56
f 61 62 45
f 45 52 51
f 22 10 45
f 35 9 20
f 21 9 35
f 19 27 25
f 19 36 20
f 25 24 19
f 19 6 5
f 20 9 19
f 43 27 19
f 19 49 43
f 19 9 8
f 24 36 19
f 8 7 19
f 19 7 6
f 33 49 19
f 19 18 33
