# generated by collision_forge
v 0.084199 -0.000906 0.006330
v 0.084199 0.000518 0.007060
v 0.086012 0.000419 0.007156
v 0.086012 -0.000906 0.006501
v 0.084199 -0.002716 0.006669
v 0.082389 -0.002716 0.006840
v 0.082389 -0.000906 0.006528
v 0.082389 0.000442 0.007140
v 0.084199 0.001284 0.008487
v 0.086012 0.001145 0.008487
v 0.082389 0.001185 0.008487
v 0.087339 0.000207 0.007366
v 0.088841 -0.001945 0.007484
v 0.085501 -0.003711 0.007464
v 0.084199 -0.003766 0.007400
v 0.081345 -0.003668 0.007532
v 0.079295 -0.002142 0.007404
v 0.079545 0.000062 0.007531
v 0.084199 0.001503 0.010297
v 0.086012 0.001433 0.010297
v 0.087822 0.001284 0.010297
v 0.072719 0.001274 0.012766
v 0.072719 0.001607 0.013652
v 0.089194 0.000361 0.008898
v 0.088547 -0.000292 0.007691
v 0.090563 -0.001854 0.009358
v 0.088832 -0.003681 0.009290
v 0.082389 -0.004088 0.008487
v 0.077672 -0.003693 0.009284
v 0.075719 -0.002142 0.009193
v 0.076958 -0.000906 0.008542
v 0.087822 0.001263 0.012108
v 0.089632 0.000788 0.012108
v 0.072719 0.000445 0.011377
v 0.072719 -0.003784 0.013652
v 0.090680 0.000146 0.010865
v 0.090763 -0.002145 0.010297
v 0.087822 -0.004119 0.010297
v 0.084199 -0.004454 0.010297
v 0.082389 -0.004456 0.010297
v 0.078770 -0.004177 0.010297
v 0.074351 -0.003580 0.011326
v 0.072719 -0.002067 0.011015
v 0.072719 0.000076 0.011121
v 0.082656 0.001408 0.013652
v 0.086012 0.001255 0.013652
v 0.089672 0.000474 0.013652
v 0.090651 0.000117 0.013283
v 0.073337 -0.003884 0.013652
v 0.072719 -0.003706 0.013217
v 0.076958 -0.004274 0.012108
v 0.091140 -0.000906 0.012108
v 0.090947 -0.002440 0.012108
v 0.090155 -0.003346 0.012108
v 0.086012 -0.004501 0.012108
v 0.082389 -0.004589 0.012108
v 0.072719 -0.003648 0.012897
v 0.090801 -0.001962 0.013652
v 0.090006 -0.003094 0.013652
v 0.087822 -0.004133 0.013652
v 0.084199 -0.004567 0.013652
v 0.078770 -0.004515 0.013652
f 23 11 22
f 3 4 1
f 57 43 42
f 56 62 40
f 13 4 25
f 60 38 54
f 32 33 21
f 47 32 46
f 33 32 47
f 61 62 56
f 18 34 22
f 22 11 18
f 18 17 31
f 7 17 18
f 44 18 31
f 34 18 44
f 11 23 9
f 42 41 51
f 51 57 42
f 51 49 35
f 62 49 51
f 41 40 51
f 51 40 62
f 31 17 30
f 43 44 30
f 30 44 31
f 55 61 56
f 60 61 55
f 55 38 60
f 38 55 39
f 56 40 39
f 39 55 56
f 29 41 42
f 29 16 41
f 42 43 29
f 43 30 29
f 17 16 29
f 29 30 17
f 28 40 41
f 41 16 28
f 28 16 15
f 15 39 28
f 28 39 40
f 6 17 7
f 6 16 17
f 6 7 1
f 27 54 38
f 60 54 59
f 52 58 53
f 58 59 53
f 53 59 54
f 19 9 23
f 21 33 36
f 36 24 21
f 21 24 10
f 12 24 25
f 25 4 12
f 4 3 12
f 3 10 12
f 12 10 24
f 48 47 58
f 48 58 52
f 52 36 48
f 33 47 48
f 48 36 33
f 8 18 11
f 1 7 8
f 7 18 8
f 50 51 35
f 57 51 50
f 5 6 1
f 1 4 5
f 15 16 5
f 16 6 5
f 4 13 5
f 13 27 14
f 15 5 14
f 14 5 13
f 14 27 38
f 14 39 15
f 38 39 14
f 26 36 52
f 26 27 13
f 26 13 25
f 25 24 26
f 24 36 26
f 45 19 23
f 46 32 45
f 11 9 2
f 2 8 11
f 2 10 3
f 9 10 2
f 2 3 1
f 1 8 2
f 52 53 37
f 37 26 52
f 37 53 54
f 54 27 37
f 27 26 37
f 20 45 32
f 19 45 20
f 20 32 21
f 9 19 20
f 21 10 20
f 20 10 9
f 35 23 50
f 50 23 22
f 22 34 50
f 50 44 43
f 43 57 50
f 34 44 50
f 35 49 45
f 60 59 45
f 45 47 46
f 45 23 35
f 45 61 60
f 58 47 45
f 62 61 45
f 45 49 62
f 45 59 58
