# generated by collision_forge
v 0.042974 -0.004804 0.033546
v 0.042974 -0.004799 0.033838
v 0.042974 0.001077 0.033546
v 0.044365 -0.004640 0.033546
v 0.066614 -0.003664 0.034699
v 0.066614 -0.003779 0.034967
v 0.066614 -0.004059 0.035649
v 0.066614 -0.004183 0.036169
v 0.066614 -0.004475 0.037460
v 0.066614 -0.004485 0.039269
v 0.042974 -0.004451 0.039269
v 0.044657 0.000986 0.033546
v 0.042974 0.001065 0.039269
v 0.044365 0.001093 0.039269
v 0.053418 0.001236 0.037460
v 0.066614 0.001145 0.037460
v 0.047987 -0.004161 0.033546
v 0.066614 -0.002984 0.034447
v 0.049598 -0.003938 0.033546
v 0.049797 -0.004509 0.039269
v 0.042974 -0.004136 0.041081
v 0.066614 0.000562 0.035604
v 0.066614 0.000067 0.034682
v 0.042974 0.000923 0.040661
v 0.047987 0.001148 0.039269
v 0.066614 0.001238 0.039269
v 0.066614 -0.002716 0.034365
v 0.049845 -0.003887 0.033546
v 0.066614 -0.004300 0.041081
v 0.042974 -0.004052 0.041353
v 0.066614 -0.004183 0.041542
v 0.066614 -0.003894 0.042642
v 0.066614 -0.000864 0.034361
v 0.051481 0.000296 0.033546
v 0.042974 0.000877 0.041081
v 0.047987 0.000948 0.041081
v 0.049797 0.000971 0.041081
v 0.058850 0.001082 0.041081
v 0.060659 0.001103 0.041081
v 0.064281 0.001135 0.041081
v 0.066614 0.001165 0.040560
v 0.051872 -0.003295 0.033546
v 0.054237 -0.000949 0.033546
v 0.042974 -0.003775 0.042251
v 0.066614 -0.003719 0.042901
v 0.042974 0.000365 0.042575
v 0.055228 0.000459 0.042771
v 0.064281 0.000525 0.042864
v 0.066614 0.001129 0.041081
v 0.042974 -0.003529 0.042448
v 0.066614 -0.003249 0.043546
v 0.042974 -0.000906 0.043414
v 0.060659 -0.000217 0.043735
v 0.066614 -0.000022 0.043791
v 0.066614 0.000692 0.042363
v 0.042974 -0.002716 0.043092
v 0.066614 -0.002343 0.043941
v 0.060659 -0.002149 0.043913
v 0.042974 -0.002297 0.043169
v 0.054321 -0.001810 0.043797
v 0.060659 -0.001123 0.043913
v 0.066614 -0.000444 0.043862
f 26 16 15
f 15 16 3
f 1 9 10
f 62 61 57
f 54 61 62
f 53 54 46
f 53 61 54
f 52 53 46
f 61 53 52
f 4 5 1
f 3 16 22
f 42 27 28
f 43 27 42
f 25 40 26
f 26 15 25
f 1 5 6
f 6 7 1
f 8 9 1
f 1 7 8
f 20 10 29
f 20 21 11
f 29 21 20
f 44 45 51
f 32 45 44
f 26 40 41
f 40 49 41
f 55 48 54
f 55 49 40
f 40 48 55
f 46 54 47
f 54 48 47
f 17 19 5
f 5 4 17
f 12 22 23
f 3 22 12
f 18 28 27
f 19 28 18
f 5 19 18
f 27 43 33
f 3 13 14
f 14 15 3
f 14 25 15
f 2 20 11
f 1 10 2
f 10 20 2
f 30 32 44
f 21 32 30
f 31 21 29
f 31 32 21
f 61 52 60
f 44 51 50
f 51 56 50
f 34 33 43
f 23 33 34
f 34 12 23
f 24 14 13
f 35 25 24
f 25 14 24
f 36 25 35
f 36 35 46
f 46 47 36
f 39 47 48
f 39 38 47
f 39 48 40
f 40 25 39
f 25 38 39
f 59 60 52
f 56 60 59
f 57 61 58
f 61 60 58
f 58 60 56
f 58 51 57
f 58 56 51
f 37 38 25
f 25 36 37
f 47 38 37
f 37 36 47
f 31 16 26
f 9 8 31
f 29 10 31
f 31 33 23
f 31 55 54
f 23 22 31
f 31 62 57
f 5 18 31
f 31 6 5
f 31 10 9
f 57 51 31
f 26 41 31
f 54 62 31
f 31 22 16
f 7 6 31
f 31 8 7
f 31 51 45
f 45 32 31
f 31 41 49
f 49 55 31
f 31 18 27
f 27 33 31
f 1 3 34
f 42 28 34
f 34 4 1
f 19 17 34
f 34 28 19
f 34 43 42
f 34 17 4
f 3 12 34
f 59 3 1
f 59 30 44
f 59 13 3
f 46 35 59
f 59 52 46
f 44 50 59
f 1 2 59
f 11 21 59
f 59 24 13
f 59 2 11
f 21 30 59
f 59 50 56
f 35 24 59
