# generated by collision_forge
v -0.022687 0.002716 0.047931
v -0.022687 0.002763 0.047941
v -0.022687 0.000906 0.048141
v -0.041262 0.000906 0.051297
v -0.041262 0.002716 0.051142
v -0.022687 0.004696 0.048663
v -0.038417 0.003719 0.051001
v -0.022687 -0.000333 0.048771
v -0.037782 0.000207 0.051079
v -0.041262 -0.000401 0.052147
v -0.041262 0.003236 0.051355
v -0.023325 0.005412 0.049559
v -0.041262 0.004527 0.051902
v -0.041262 0.004801 0.052144
v -0.041262 0.005478 0.052760
v -0.022687 -0.000693 0.050135
v -0.041262 -0.000678 0.053756
v -0.022687 0.005448 0.050094
v -0.022687 -0.000357 0.051628
v -0.028069 -0.000603 0.051945
v -0.041262 -0.000278 0.054979
v -0.022687 0.005448 0.050136
v -0.041262 0.005450 0.053586
v -0.031689 0.005468 0.052924
v -0.022687 0.000211 0.051987
v -0.025245 -0.000023 0.052873
v -0.028069 -0.000259 0.053171
v -0.037120 -0.000550 0.053756
v -0.041262 0.000906 0.055570
v -0.040741 -0.000264 0.054965
v -0.023336 0.005442 0.051061
v -0.041262 0.005372 0.054231
v -0.030403 0.005455 0.052889
v -0.022687 0.001001 0.052484
v -0.023447 0.001674 0.052876
v -0.032409 0.001567 0.054703
v -0.034416 0.000005 0.054658
v -0.035624 -0.000066 0.054725
v -0.037120 -0.000138 0.054802
v -0.038931 -0.000206 0.054891
v -0.041262 0.002197 0.055774
v -0.040741 0.000906 0.055541
v -0.022687 0.004545 0.051888
v -0.040741 0.004461 0.055252
v -0.026258 0.004160 0.053180
v -0.038931 0.004403 0.055186
v -0.037120 0.004299 0.055086
v -0.035309 0.004167 0.054969
v -0.033498 0.003936 0.054822
v -0.022687 0.002716 0.052721
v -0.026258 0.002716 0.053512
v -0.032295 0.002716 0.054730
v -0.035309 0.002716 0.055252
v -0.037120 0.000906 0.055196
v -0.041262 0.002716 0.055853
v -0.040741 0.002716 0.055828
v -0.038931 0.002716 0.055686
v -0.024447 0.003880 0.052999
v -0.023394 0.003693 0.052887
v -0.041262 0.003960 0.055442
v -0.037120 0.002716 0.055480
v -0.032378 0.003726 0.054710
f 5 1 4
f 4 1 3
f 3 8 4
f 9 10 4
f 4 8 9
f 8 10 9
f 16 10 8
f 18 12 15
f 1 5 2
f 5 7 2
f 11 7 5
f 13 7 11
f 54 42 37
f 10 16 17
f 55 46 44
f 46 32 44
f 33 32 46
f 13 14 6
f 6 7 13
f 6 2 7
f 12 18 6
f 6 14 15
f 15 12 6
f 41 29 42
f 36 54 37
f 37 26 36
f 36 26 35
f 42 40 39
f 42 29 30
f 30 40 42
f 30 29 21
f 34 50 35
f 35 26 34
f 19 26 27
f 27 26 37
f 55 44 60
f 60 44 32
f 31 33 43
f 59 50 43
f 47 33 46
f 47 48 33
f 37 42 38
f 42 39 38
f 38 27 37
f 39 27 38
f 25 26 19
f 25 34 26
f 20 16 19
f 19 27 20
f 20 17 16
f 22 31 43
f 15 23 24
f 24 23 32
f 32 33 24
f 24 22 18
f 24 18 15
f 33 31 24
f 31 22 24
f 43 33 45
f 54 36 53
f 53 61 54
f 42 54 57
f 54 61 57
f 48 47 57
f 17 20 28
f 28 20 27
f 40 30 28
f 28 39 40
f 28 27 39
f 21 17 28
f 28 30 21
f 58 59 43
f 43 45 58
f 51 36 35
f 35 50 51
f 50 59 51
f 52 53 36
f 36 51 52
f 61 53 49
f 48 57 49
f 49 57 61
f 49 58 45
f 33 48 49
f 49 45 33
f 55 41 56
f 56 46 55
f 56 41 42
f 42 57 56
f 56 47 46
f 56 57 47
f 53 52 62
f 62 49 53
f 62 51 59
f 62 52 51
f 59 58 62
f 58 49 62
f 4 10 23
f 23 5 4
f 55 60 23
f 23 11 5
f 15 14 23
f 23 17 21
f 23 41 55
f 23 14 13
f 13 11 23
f 21 29 23
f 10 17 23
f 29 41 23
f 23 60 32
f 22 3 1
f 19 16 22
f 1 2 22
f 8 3 22
f 22 16 8
f 22 25 19
f 22 6 18
f 43 50 22
f 2 6 22
f 50 34 22
f 34 25 22
