# generated by collision_forge
v -0.078138 0.002717 0.035569
v -0.077628 0.001703 0.035569
v -0.085956 0.001703 0.036253
v -0.077645 0.004706 0.035569
v -0.073003 0.001703 0.035569
v -0.086651 0.001703 0.036343
v -0.076939 0.005806 0.035569
v -0.072690 0.002822 0.035569
v -0.071830 0.001703 0.037511
v -0.087023 0.002168 0.036474
v -0.076763 0.005872 0.035569
v -0.086407 0.003375 0.036629
v -0.085887 0.004360 0.037077
v -0.087037 0.005542 0.038215
v -0.072428 0.004527 0.035569
v -0.071287 0.001703 0.039264
v -0.072421 0.005150 0.035569
v -0.087259 0.001703 0.036794
v -0.087452 0.002749 0.037323
v -0.087296 0.004527 0.037855
v -0.075148 0.006378 0.035569
v -0.087145 0.005611 0.039269
v -0.086010 0.005883 0.039269
v -0.086010 0.005645 0.038057
v -0.087764 0.004527 0.039269
v -0.071296 0.004527 0.042010
v -0.070979 0.001703 0.042010
v -0.072805 0.005664 0.035569
v -0.071850 0.005755 0.042010
v -0.071416 0.004920 0.042010
v -0.087599 0.001703 0.037400
v -0.088165 0.002717 0.039269
v -0.075148 0.006381 0.035649
v -0.075069 0.006366 0.035569
v -0.084199 0.005992 0.039269
v -0.087218 0.005633 0.041080
v -0.087892 0.004527 0.041080
v -0.086010 0.005921 0.041080
v -0.084199 0.006031 0.041080
v -0.088275 0.001703 0.042010
v -0.073061 0.005806 0.035569
v -0.073180 0.005867 0.035569
v -0.073337 0.006165 0.042010
v -0.087911 0.001703 0.038257
v -0.088168 0.001703 0.039269
v -0.088211 0.001703 0.040067
v -0.088260 0.002717 0.041080
v -0.078770 0.006231 0.041080
v -0.075148 0.006374 0.037460
v -0.086637 0.005774 0.042010
v -0.087913 0.004527 0.042010
v -0.087225 0.005634 0.042010
v -0.088285 0.002717 0.042010
v -0.086010 0.005922 0.042010
v -0.085129 0.005975 0.042010
v -0.084199 0.006025 0.042010
v -0.088277 0.001835 0.042010
v -0.088251 0.001703 0.041080
v -0.075148 0.006260 0.042010
v -0.078770 0.006203 0.042010
v -0.076959 0.006239 0.042010
v -0.076078 0.006250 0.042010
f 13 7 12
f 12 14 13
f 13 14 7
f 44 45 32
f 3 1 2
f 3 6 7
f 12 7 10
f 7 6 10
f 49 59 43
f 49 43 33
f 33 48 49
f 49 48 61
f 7 14 11
f 14 21 11
f 43 29 42
f 14 23 24
f 24 21 14
f 23 21 24
f 8 9 5
f 8 15 9
f 57 58 40
f 53 58 57
f 47 58 53
f 53 37 47
f 47 37 32
f 4 3 7
f 1 3 4
f 20 14 12
f 12 10 20
f 62 49 61
f 59 49 62
f 61 48 60
f 48 56 60
f 39 48 33
f 39 56 48
f 29 28 41
f 41 42 29
f 43 42 34
f 33 43 34
f 34 21 33
f 17 16 9
f 9 15 17
f 17 28 29
f 51 37 53
f 22 23 14
f 32 37 25
f 14 20 25
f 25 20 32
f 25 22 14
f 37 22 25
f 58 47 46
f 46 32 45
f 46 47 32
f 32 20 19
f 19 20 10
f 35 39 33
f 23 39 35
f 33 21 35
f 35 21 23
f 55 39 54
f 56 39 55
f 54 39 38
f 38 39 23
f 38 50 54
f 27 16 26
f 16 17 26
f 36 22 37
f 36 51 52
f 37 51 36
f 52 50 36
f 50 38 36
f 23 22 36
f 36 38 23
f 44 32 31
f 32 19 31
f 30 17 29
f 30 26 17
f 18 19 10
f 18 31 19
f 18 10 6
f 17 5 2
f 2 1 17
f 17 8 5
f 17 4 7
f 7 11 17
f 21 34 17
f 17 11 21
f 17 41 28
f 15 8 17
f 1 4 17
f 42 41 17
f 17 34 42
f 43 59 30
f 54 50 30
f 30 40 27
f 30 55 54
f 30 29 43
f 61 60 30
f 53 57 30
f 30 51 53
f 30 62 61
f 30 50 52
f 30 57 40
f 59 62 30
f 30 60 56
f 52 51 30
f 56 55 30
f 27 26 30
f 27 40 18
f 40 58 18
f 2 5 18
f 18 3 2
f 5 9 18
f 18 45 44
f 18 46 45
f 18 16 27
f 6 3 18
f 9 16 18
f 58 46 18
f 44 31 18
