# generated by collision_forge
v 0.069796 -0.003458 0.022921
v 0.071433 -0.002750 0.022921
v 0.071455 -0.002742 0.022921
v 0.069796 -0.003189 0.023364
v 0.069796 0.001021 0.022921
v 0.071469 -0.002735 0.022921
v 0.069796 -0.002279 0.024198
v 0.069796 0.001358 0.022921
v 0.070769 -0.001960 0.023957
v 0.074447 0.000983 0.022921
v 0.074513 0.001444 0.024482
v 0.074488 0.001429 0.024482
v 0.074290 0.001319 0.024482
v 0.073336 0.000933 0.024482
v 0.072898 0.000940 0.024482
v 0.071489 0.001299 0.024482
v 0.071326 0.001369 0.024482
v 0.071293 0.001499 0.024482
v 0.069796 -0.001250 0.024198
v 0.069820 0.001499 0.022921
v 0.069796 0.000970 0.023227
v 0.074540 0.001499 0.022921
v 0.074523 0.001499 0.024482
v 0.070049 0.001499 0.023460
v 0.069796 -0.001208 0.024182
f 11 6 10
f 22 23 10
f 10 23 11
f 19 7 18
f 6 7 4
f 9 6 11
f 11 7 9
f 9 7 6
f 1 5 2
f 7 15 16
f 14 15 7
f 24 19 18
f 1 2 3
f 3 4 1
f 6 4 3
f 18 7 17
f 7 16 17
f 13 14 7
f 21 24 20
f 20 8 21
f 12 7 11
f 12 13 7
f 19 24 25
f 24 21 25
f 24 23 22
f 22 20 24
f 18 23 24
f 3 20 22
f 22 10 3
f 3 10 6
f 3 8 20
f 3 2 5
f 5 8 3
f 12 23 18
f 11 23 12
f 18 17 12
f 12 16 15
f 15 14 12
f 12 17 16
f 14 13 12
f 25 5 1
f 7 19 25
f 1 4 25
f 25 4 7
f 25 8 5
f 25 21 8
