# generated by collision_forge
v -0.047236 0.005580 0.002486
v -0.047236 0.005580 0.001623
v -0.047236 0.005173 0.003017
v -0.036506 0.005360 0.003672
v -0.038932 0.005568 0.002591
v -0.044364 0.005579 0.001547
v -0.046174 0.005295 0.000648
v -0.047236 0.004832 0.003391
v -0.036506 0.004503 0.004482
v -0.040743 0.005578 0.001647
v -0.044364 0.005301 0.000641
v -0.044364 0.004396 -0.000113
v -0.046174 0.004390 -0.000102
v -0.047236 0.004323 -0.000066
v -0.047236 0.004301 0.003807
v -0.036506 0.002716 0.005001
v -0.047236 0.003927 0.004092
v -0.036506 0.005497 0.002009
v -0.040743 0.005224 0.000742
v -0.042553 0.004367 -0.000124
v -0.044364 0.002716 -0.000601
v -0.046174 0.002716 -0.000584
v -0.047236 0.003631 -0.000265
v -0.036506 0.001505 0.004706
v -0.047236 0.003184 0.004149
v -0.047236 0.002651 0.004147
v -0.047236 0.001942 0.004051
v -0.047236 0.001679 0.004008
v -0.036506 0.004548 0.001062
v -0.038932 0.005045 0.000851
v -0.040743 0.004318 -0.000077
v -0.042553 0.002716 -0.000596
v -0.044364 0.000906 -0.000222
v -0.046174 0.000906 -0.000218
v -0.047236 0.001968 -0.000345
v -0.047236 0.002716 -0.000497
v -0.036506 0.000802 0.004510
v -0.047236 0.000811 0.003569
v -0.036506 0.000102 0.004168
v -0.036506 0.002955 0.000321
v -0.037470 0.003870 0.000220
v -0.038932 0.004140 0.000068
v -0.040743 0.002716 -0.000493
v -0.042553 0.000906 -0.000203
v -0.042553 -0.000063 0.000269
v -0.046174 -0.000068 0.000264
v -0.047236 -0.000049 0.000285
v -0.047236 -0.000270 0.002627
v -0.036506 -0.000077 0.004058
v -0.036506 0.002716 0.000295
v -0.037427 0.001493 0.000216
v -0.040646 0.000740 -0.000021
v -0.041184 -0.000041 0.000293
v -0.042553 -0.000346 0.001244
v -0.046174 -0.000343 0.001244
v -0.036506 -0.000276 0.003157
v -0.036506 -0.000202 0.003579
v -0.039978 0.000026 0.000371
v -0.036506 0.000899 0.000781
v -0.036506 -0.000238 0.001730
v -0.036506 -0.000282 0.002139
v -0.036506 0.000605 0.000991
f 4 18 5
f 1 4 5
f 10 18 19
f 1 5 10
f 10 5 18
f 3 4 1
f 3 8 4
f 17 16 9
f 9 15 17
f 8 15 9
f 4 8 9
f 47 55 48
f 2 7 14
f 11 10 19
f 7 11 12
f 28 16 27
f 16 26 27
f 25 16 17
f 25 26 16
f 39 37 28
f 24 16 28
f 28 37 24
f 47 34 46
f 46 55 47
f 46 45 54
f 54 55 46
f 35 34 47
f 21 34 22
f 36 23 22
f 22 35 36
f 34 35 22
f 22 23 14
f 38 48 49
f 49 39 38
f 38 39 28
f 45 46 33
f 33 46 34
f 33 34 21
f 56 55 54
f 56 48 55
f 6 2 1
f 1 10 6
f 10 11 6
f 7 2 6
f 6 11 7
f 21 12 20
f 20 12 11
f 19 31 20
f 20 11 19
f 40 41 29
f 13 22 14
f 14 7 13
f 7 12 13
f 13 12 21
f 21 22 13
f 50 51 43
f 50 41 40
f 43 41 50
f 43 51 52
f 32 33 21
f 21 20 32
f 31 43 32
f 32 20 31
f 54 60 61
f 61 56 54
f 49 48 57
f 48 56 57
f 18 29 30
f 19 18 30
f 30 29 41
f 30 31 19
f 51 50 59
f 54 45 53
f 53 60 54
f 33 32 44
f 52 53 44
f 43 52 44
f 44 32 43
f 45 33 44
f 44 53 45
f 31 30 42
f 42 30 41
f 42 43 31
f 42 41 43
f 60 53 58
f 51 59 58
f 58 52 51
f 58 53 52
f 60 58 62
f 62 58 59
f 17 15 38
f 38 35 47
f 14 23 38
f 38 25 17
f 38 3 1
f 1 2 38
f 8 3 38
f 38 15 8
f 28 27 38
f 47 48 38
f 38 2 14
f 38 23 36
f 38 27 26
f 26 25 38
f 36 35 38
f 16 24 62
f 62 18 4
f 4 9 62
f 62 61 60
f 62 9 16
f 62 39 49
f 62 29 18
f 37 39 62
f 62 24 37
f 62 50 40
f 40 29 62
f 49 57 62
f 56 61 62
f 62 57 56
f 62 59 50
