# generated by collision_forge
v -0.076434 0.006155 0.045939
v -0.076434 0.006138 0.046513
v -0.076434 0.000511 0.045939
v -0.076959 0.006149 0.045939
v -0.076434 -0.001233 0.048396
v -0.080717 -0.002295 0.045939
v -0.076959 0.006049 0.048324
v -0.084200 0.005902 0.046513
v -0.076434 0.005720 0.049827
v -0.077647 -0.001849 0.049303
v -0.082977 -0.003397 0.045939
v -0.086012 0.005787 0.045939
v -0.078769 0.005988 0.048324
v -0.076959 0.005715 0.049775
v -0.086012 0.005554 0.047663
v -0.076434 0.004657 0.050761
v -0.076434 -0.000703 0.050424
v -0.078769 -0.001923 0.049394
v -0.084200 -0.003406 0.046676
v -0.084200 -0.003613 0.045939
v -0.078769 0.005676 0.049610
v -0.086969 0.005466 0.047474
v -0.081818 0.005493 0.049301
v -0.080580 0.005584 0.049431
v -0.076434 0.003932 0.051040
v -0.080580 0.004527 0.050018
v -0.076434 -0.000305 0.050807
v -0.080580 -0.001968 0.049412
v -0.084200 -0.002573 0.048324
v -0.086149 -0.003478 0.046426
v -0.085772 -0.003607 0.045939
v -0.087107 0.005554 0.045939
v -0.087792 0.004527 0.045939
v -0.087741 0.004527 0.046513
v -0.087260 0.004527 0.047804
v -0.076434 0.003750 0.051079
v -0.085230 0.003721 0.049262
v -0.076434 0.000906 0.051078
v -0.085136 -0.001816 0.049233
v -0.082389 -0.001952 0.049352
v -0.085849 -0.002399 0.048455
v -0.087302 -0.002278 0.047939
v -0.086549 -0.003557 0.045939
v -0.088290 0.002716 0.045939
v -0.088267 0.002716 0.046513
v -0.087549 0.002716 0.048140
v -0.086296 0.002716 0.049045
v -0.076434 0.002753 0.051107
v -0.082389 0.002716 0.050024
v -0.076434 0.002656 0.051107
v -0.082389 0.000906 0.050011
v -0.086316 -0.000905 0.049117
v -0.087542 -0.000905 0.048212
v -0.088181 -0.000905 0.046513
v -0.087509 -0.002609 0.046513
v -0.087500 -0.002708 0.045939
v -0.088269 0.000906 0.046513
v -0.087581 0.000906 0.048200
v -0.086484 0.000906 0.049105
v -0.085579 0.000906 0.049345
v -0.088249 0.000332 0.045939
v -0.088189 -0.000905 0.045939
f 44 45 33
f 6 3 5
f 12 32 22
f 56 54 62
f 57 45 44
f 32 33 34
f 22 32 34
f 34 33 45
f 60 49 37
f 35 37 22
f 22 34 35
f 45 46 35
f 35 34 45
f 37 49 36
f 22 37 23
f 11 6 5
f 20 19 30
f 27 38 39
f 39 38 52
f 39 40 27
f 51 38 50
f 50 49 51
f 49 60 51
f 52 38 51
f 51 60 52
f 10 11 5
f 20 11 10
f 10 19 20
f 4 12 8
f 8 7 4
f 2 7 9
f 1 4 2
f 2 4 7
f 61 57 44
f 61 62 54
f 54 57 61
f 58 46 45
f 45 57 58
f 52 60 59
f 46 58 59
f 37 35 47
f 47 35 46
f 46 59 47
f 47 60 37
f 47 59 60
f 48 49 50
f 48 36 49
f 26 23 37
f 16 23 26
f 20 30 31
f 31 30 43
f 29 30 19
f 56 43 55
f 55 54 56
f 27 40 28
f 40 29 28
f 28 29 19
f 53 57 54
f 53 58 57
f 52 59 53
f 53 59 58
f 16 26 25
f 37 36 25
f 25 26 37
f 14 16 9
f 14 21 16
f 9 7 14
f 24 23 16
f 16 21 24
f 30 29 41
f 40 39 41
f 41 29 40
f 27 28 18
f 19 10 18
f 18 28 19
f 13 14 7
f 21 14 13
f 13 7 8
f 13 24 21
f 42 55 43
f 43 30 42
f 30 41 42
f 54 55 42
f 42 53 54
f 52 53 42
f 42 39 52
f 42 41 39
f 27 18 17
f 17 18 10
f 17 10 5
f 24 13 15
f 22 23 15
f 23 24 15
f 15 13 8
f 15 12 22
f 8 12 15
f 1 3 31
f 31 11 20
f 31 4 1
f 31 61 44
f 44 33 31
f 31 33 32
f 3 6 31
f 31 43 56
f 32 12 31
f 56 62 31
f 6 11 31
f 12 4 31
f 62 61 31
f 17 3 1
f 1 2 17
f 50 38 17
f 5 3 17
f 16 25 17
f 9 16 17
f 17 38 27
f 17 48 50
f 17 2 9
f 36 48 17
f 17 25 36
