# generated by collision_forge
v -0.000906 0.005817 0.046514
v -0.002717 0.005791 0.046514
v -0.000906 0.005602 0.048095
v -0.004528 0.005800 0.044703
v -0.010605 0.005553 0.045219
v -0.004528 0.005542 0.047814
v 0.000905 0.005383 0.049099
v 0.001535 0.005582 0.048158
v 0.001535 0.005786 0.046514
v 0.001535 0.005773 0.045884
v -0.006337 0.005746 0.043510
v -0.000906 0.005334 0.049000
v -0.010605 0.005488 0.046015
v -0.002717 0.005247 0.048890
v 0.001535 0.004762 0.049456
v -0.000906 0.004428 0.049707
v 0.000905 0.004477 0.049702
v 0.001535 0.005679 0.044703
v -0.004480 0.005711 0.043510
v -0.010605 0.005604 0.043510
v -0.002717 0.004342 0.049619
v -0.010605 0.005433 0.046337
v -0.010605 0.005281 0.046919
v -0.004528 0.005013 0.048720
v -0.000906 0.002715 0.050181
v 0.000905 0.002715 0.050166
v 0.001535 0.005611 0.044303
v 0.001535 0.005475 0.043705
v 0.001535 0.005205 0.043510
v -0.010605 -0.002121 0.043510
v -0.004528 0.004108 0.049427
v -0.002717 0.002715 0.049981
v -0.010605 0.004958 0.047293
v -0.010605 0.004375 0.047946
v -0.000906 0.000906 0.050003
v 0.000905 0.000906 0.049994
v 0.001535 0.001536 0.049969
v 0.001535 0.002514 0.043510
v -0.005621 0.003831 0.049292
v -0.010605 0.002715 0.048417
v -0.010605 0.000906 0.048226
v -0.002717 0.000906 0.049774
v -0.010605 0.003766 0.048166
v -0.000906 -0.000311 0.049529
v 0.000905 -0.000311 0.049529
v -0.003979 -0.000075 0.049296
v -0.002717 -0.000192 0.049411
v 0.001535 -0.000272 0.049490
v 0.001535 0.000906 0.044091
v -0.003574 -0.000880 0.043510
v -0.009959 -0.001753 0.045380
v -0.010605 -0.000379 0.047755
v -0.010605 -0.001204 0.046514
v -0.000906 -0.000923 0.048324
v 0.000905 -0.000915 0.048324
v 0.001535 -0.000871 0.048324
v 0.001535 0.000362 0.044381
v -0.005278 -0.001877 0.043510
v -0.008148 -0.002157 0.043510
v 0.001535 -0.001184 0.046514
v 0.001535 -0.000595 0.044932
v -0.005754 -0.001967 0.043510
f 5 4 20
f 2 4 5
f 13 2 5
f 34 39 31
f 31 24 34
f 21 24 31
f 34 24 33
f 33 24 23
f 8 9 1
f 4 2 1
f 4 1 10
f 10 1 9
f 19 28 29
f 19 10 18
f 58 61 60
f 25 26 17
f 3 7 8
f 8 1 3
f 3 1 2
f 43 39 34
f 43 40 39
f 53 54 44
f 47 46 52
f 52 53 47
f 47 53 44
f 44 35 47
f 47 35 46
f 52 46 41
f 11 20 4
f 4 10 11
f 10 19 11
f 27 19 18
f 28 19 27
f 50 38 49
f 49 58 50
f 57 58 49
f 61 58 57
f 62 60 59
f 62 58 60
f 36 48 37
f 36 37 26
f 36 26 25
f 25 35 36
f 32 35 25
f 39 40 32
f 40 41 32
f 32 31 39
f 25 21 32
f 21 31 32
f 16 17 7
f 16 12 21
f 7 12 16
f 16 21 25
f 25 17 16
f 8 7 15
f 7 17 15
f 26 37 15
f 15 17 26
f 23 24 14
f 14 24 21
f 21 12 14
f 6 3 2
f 13 22 6
f 2 13 6
f 6 22 23
f 23 14 6
f 6 14 12
f 6 12 7
f 7 3 6
f 51 53 30
f 54 53 51
f 51 30 59
f 60 56 55
f 59 60 55
f 55 51 59
f 54 51 55
f 48 36 45
f 45 35 44
f 45 36 35
f 44 54 45
f 54 55 45
f 45 56 48
f 45 55 56
f 46 35 42
f 35 32 42
f 42 41 46
f 42 32 41
f 41 13 5
f 5 20 41
f 23 22 41
f 41 43 34
f 34 33 41
f 41 53 52
f 41 33 23
f 41 22 13
f 40 43 41
f 20 30 41
f 30 53 41
f 29 38 62
f 38 50 62
f 62 19 29
f 62 30 20
f 20 11 62
f 59 30 62
f 62 11 19
f 62 50 58
f 29 28 15
f 60 61 15
f 15 9 8
f 15 38 29
f 15 56 60
f 15 57 49
f 49 38 15
f 15 27 18
f 18 10 15
f 15 10 9
f 37 48 15
f 28 27 15
f 61 57 15
f 48 56 15
