# generated by collision_forge
v 0.072663 0.004582 0.036300
v 0.073295 0.001600 0.036300
v 0.071492 0.001600 0.039139
v 0.071487 0.001600 0.039153
v 0.070881 0.004527 0.042390
v 0.070889 0.004559 0.042390
v 0.072429 0.005437 0.038305
v 0.073318 0.005985 0.036300
v 0.084239 0.001600 0.036300
v 0.070984 0.001600 0.041160
v 0.070872 0.001600 0.042390
v 0.071604 0.005889 0.042390
v 0.075148 0.006558 0.036300
v 0.071948 0.006021 0.042390
v 0.084200 0.001629 0.036300
v 0.085377 0.002319 0.036473
v 0.085518 0.001600 0.036416
v 0.088165 0.001600 0.042390
v 0.077010 0.006019 0.036300
v 0.073337 0.006349 0.042390
v 0.073839 0.006392 0.042390
v 0.075148 0.006400 0.042390
v 0.084200 0.006349 0.042390
v 0.084200 0.006378 0.041081
v 0.086011 0.006319 0.041081
v 0.084200 0.006313 0.039270
v 0.086011 0.006131 0.039270
v 0.086011 0.005687 0.038048
v 0.077891 0.005554 0.036300
v 0.086011 0.004527 0.037334
v 0.085992 0.002840 0.036798
v 0.084200 0.003418 0.036587
v 0.086356 0.001600 0.036757
v 0.088167 0.001600 0.042197
v 0.088167 0.001909 0.042390
v 0.084200 0.004527 0.036986
v 0.084701 0.006333 0.042390
v 0.086011 0.006289 0.042390
v 0.087357 0.005833 0.042390
v 0.087374 0.005848 0.041081
v 0.087190 0.005693 0.039270
v 0.086988 0.005510 0.038276
v 0.087185 0.004527 0.038025
v 0.087361 0.002716 0.037752
v 0.087378 0.001600 0.037683
v 0.088172 0.001600 0.041081
v 0.088177 0.002716 0.041081
v 0.088171 0.002716 0.042390
v 0.087810 0.004892 0.042390
v 0.087982 0.004527 0.042390
v 0.087998 0.004527 0.041081
v 0.087715 0.004527 0.039270
v 0.087988 0.002716 0.039270
v 0.088001 0.001600 0.039270
v 0.088121 0.003218 0.042390
f 3 1 2
f 13 22 23
f 13 23 24
f 43 33 31
f 30 43 31
f 42 43 30
f 47 55 48
f 51 55 47
f 21 22 13
f 13 20 21
f 14 20 13
f 13 8 14
f 14 8 12
f 11 5 10
f 7 8 1
f 12 8 7
f 16 29 32
f 16 30 31
f 32 30 16
f 46 54 47
f 13 24 25
f 36 30 32
f 30 36 19
f 32 29 19
f 19 36 32
f 39 25 38
f 52 43 42
f 4 10 5
f 1 3 4
f 4 5 1
f 1 5 6
f 6 7 1
f 12 7 6
f 29 16 15
f 15 16 9
f 9 16 17
f 31 33 17
f 17 16 31
f 47 48 34
f 34 46 47
f 38 25 37
f 37 24 23
f 37 25 24
f 44 45 33
f 33 43 44
f 43 52 44
f 28 19 13
f 13 27 28
f 28 27 42
f 42 30 28
f 30 19 28
f 55 51 50
f 40 50 51
f 25 39 40
f 40 27 25
f 47 54 53
f 53 51 47
f 53 52 51
f 53 44 52
f 54 45 53
f 45 44 53
f 18 34 35
f 35 34 48
f 13 25 26
f 26 27 13
f 25 27 26
f 41 52 42
f 42 27 41
f 27 40 41
f 51 52 41
f 41 40 51
f 49 40 39
f 50 40 49
f 2 1 15
f 15 8 13
f 1 8 15
f 15 9 2
f 13 19 15
f 15 19 29
f 34 18 11
f 11 10 34
f 34 3 2
f 2 9 34
f 34 4 3
f 34 17 33
f 33 45 34
f 54 46 34
f 34 45 54
f 10 4 34
f 9 17 34
f 11 18 49
f 55 50 49
f 49 23 22
f 49 5 11
f 12 6 49
f 49 14 12
f 22 21 49
f 49 39 38
f 49 48 55
f 49 21 20
f 20 14 49
f 38 37 49
f 49 6 5
f 49 37 23
f 18 35 49
f 49 35 48
