# generated by collision_forge
v -0.029927 0.002716 0.002400
v -0.029927 0.001013 0.002881
v -0.029927 0.002958 0.002411
v -0.027063 0.001686 0.003906
v -0.029927 0.004338 0.003044
v -0.028067 0.004046 0.003669
v -0.027097 0.003689 0.003925
v -0.024704 0.002716 0.005323
v -0.024886 0.001257 0.005453
v -0.025468 0.000050 0.005854
v -0.028902 -0.000027 0.003925
v -0.029927 -0.000098 0.003722
v -0.029927 0.005226 0.004687
v -0.027054 0.005458 0.005716
v -0.024952 0.004020 0.005491
v -0.021698 0.003673 0.007553
v -0.021713 0.001776 0.007567
v -0.023366 -0.000081 0.007453
v -0.024445 -0.000177 0.007095
v -0.029927 0.005346 0.004914
v -0.023759 0.005385 0.007786
v -0.028067 0.005479 0.005564
v -0.021810 0.005419 0.009468
v -0.019906 0.003644 0.009377
v -0.021693 0.002716 0.007549
v -0.019894 0.001757 0.009366
v -0.020321 0.000550 0.009792
v -0.024445 -0.000360 0.008487
v -0.029927 -0.000246 0.004826
v -0.029927 0.004576 0.006607
v -0.029344 0.005469 0.005867
v -0.020339 0.005505 0.013527
v -0.019121 0.005508 0.013873
v -0.019545 0.005505 0.012501
v -0.020021 0.005414 0.011293
v -0.017704 0.004152 0.012479
v -0.017451 0.002716 0.012187
v -0.016278 0.002004 0.013873
v -0.017690 0.000906 0.012501
v -0.018022 -0.000060 0.012896
v -0.020825 -0.000402 0.012108
v -0.029927 0.002965 0.007366
v -0.022160 0.004170 0.013569
v -0.021565 0.004495 0.013873
v -0.021127 0.004915 0.013873
v -0.018338 0.005359 0.013231
v -0.017143 0.004677 0.013873
v -0.016163 0.002716 0.013873
v -0.016717 0.000794 0.013873
v -0.017686 -0.000163 0.013873
v -0.019092 -0.000204 0.012219
v -0.019060 -0.000393 0.013873
v -0.020748 -0.000230 0.013873
v -0.029927 -0.000137 0.006021
v -0.029927 0.002716 0.007394
v -0.022389 0.002716 0.013873
v -0.017709 -0.000169 0.013873
v -0.019015 -0.000387 0.013873
v -0.021926 0.000906 0.013873
v -0.022058 0.001378 0.013873
v -0.021627 0.000445 0.013873
v -0.029927 0.000834 0.006852
f 48 38 37
f 51 52 41
f 41 29 28
f 48 37 24
f 35 24 16
f 15 21 16
f 26 37 38
f 26 24 37
f 16 24 26
f 32 45 33
f 33 22 32
f 54 29 41
f 36 47 48
f 48 24 36
f 24 35 36
f 33 47 46
f 47 36 46
f 46 36 35
f 16 21 23
f 23 35 16
f 16 8 7
f 7 15 16
f 7 4 1
f 8 4 7
f 51 50 57
f 27 18 17
f 17 26 27
f 25 26 17
f 16 26 25
f 17 8 25
f 25 8 16
f 11 12 2
f 1 4 2
f 2 4 11
f 29 12 19
f 19 28 29
f 18 51 19
f 19 11 18
f 19 12 11
f 19 51 41
f 41 28 19
f 9 8 17
f 9 4 8
f 17 18 9
f 20 30 31
f 31 22 20
f 31 32 22
f 31 30 45
f 45 32 31
f 61 54 53
f 41 52 53
f 53 54 41
f 60 56 55
f 55 59 60
f 62 59 55
f 61 59 62
f 62 54 61
f 33 46 34
f 34 46 35
f 35 23 34
f 34 22 33
f 3 7 1
f 52 51 58
f 51 57 58
f 18 11 10
f 10 9 18
f 11 4 10
f 4 9 10
f 44 43 56
f 45 30 44
f 30 43 44
f 42 43 30
f 55 56 42
f 56 43 42
f 22 34 14
f 14 34 23
f 14 23 21
f 21 15 14
f 5 13 14
f 14 13 20
f 20 22 14
f 6 3 5
f 7 3 6
f 5 14 6
f 15 7 6
f 6 14 15
f 40 49 50
f 40 50 51
f 40 51 18
f 18 27 40
f 49 40 39
f 38 49 39
f 39 26 38
f 39 27 26
f 39 40 27
f 44 38 48
f 48 47 44
f 56 60 44
f 33 45 44
f 44 47 33
f 44 49 38
f 44 53 52
f 52 58 44
f 44 59 61
f 44 57 50
f 61 53 44
f 44 60 59
f 44 58 57
f 50 49 44
f 42 3 1
f 1 2 42
f 20 13 42
f 42 12 29
f 42 30 20
f 29 54 42
f 42 62 55
f 42 2 12
f 54 62 42
f 42 13 5
f 5 3 42
