# generated by collision_forge
v -0.076206 0.003905 0.029472
v -0.076206 0.004308 0.029472
v -0.076190 0.003178 0.029472
v -0.078138 0.002716 0.035569
v -0.076012 0.005239 0.029472
v -0.075862 0.002327 0.029472
v -0.077521 0.000867 0.035569
v -0.077751 0.004527 0.035569
v -0.076004 0.005274 0.029472
v -0.075478 0.001803 0.029472
v -0.074945 0.001467 0.029472
v -0.073336 0.001292 0.029472
v -0.075147 0.000867 0.034302
v -0.072955 0.000867 0.035569
v -0.077644 0.004706 0.035569
v -0.076169 0.005558 0.030651
v -0.075159 0.005896 0.029472
v -0.072224 0.001636 0.029472
v -0.072001 0.002123 0.029472
v -0.071802 0.002716 0.029472
v -0.072431 0.003619 0.034773
v -0.072427 0.004527 0.035569
v -0.076937 0.005807 0.035569
v -0.076329 0.005702 0.032027
v -0.075147 0.006233 0.032027
v -0.074560 0.006033 0.029472
v -0.071617 0.004527 0.029472
v -0.072421 0.005150 0.035569
v -0.076762 0.005872 0.035569
v -0.076520 0.005828 0.033838
v -0.075147 0.006337 0.033838
v -0.073336 0.006251 0.029472
v -0.072040 0.005773 0.029472
v -0.072090 0.005757 0.030216
v -0.072408 0.005465 0.035304
v -0.072805 0.005664 0.035569
v -0.075147 0.006379 0.035569
v -0.073336 0.006266 0.030216
v -0.072775 0.006073 0.029472
v -0.073336 0.006199 0.032027
v -0.073179 0.005867 0.035569
v -0.073060 0.005806 0.035569
v -0.072217 0.005668 0.032027
v -0.075067 0.006366 0.035569
v -0.073336 0.006054 0.033838
f 27 35 28
f 14 12 18
f 14 7 13
f 13 12 14
f 7 12 13
f 37 32 31
f 32 25 31
f 27 28 22
f 27 33 34
f 34 35 27
f 40 34 33
f 45 41 40
f 41 34 40
f 27 22 20
f 3 7 4
f 4 1 3
f 11 12 7
f 7 10 11
f 37 31 29
f 29 25 23
f 29 31 25
f 4 8 5
f 8 9 5
f 36 28 35
f 44 41 45
f 45 40 44
f 38 32 37
f 37 44 38
f 38 44 40
f 14 18 19
f 19 20 14
f 21 22 14
f 14 20 21
f 21 20 22
f 6 10 7
f 7 3 6
f 26 25 32
f 26 17 25
f 25 17 24
f 2 1 4
f 4 5 2
f 35 34 43
f 43 36 35
f 32 38 39
f 39 40 33
f 39 38 40
f 23 25 30
f 30 24 23
f 25 24 30
f 16 17 9
f 16 24 17
f 16 9 8
f 8 15 16
f 16 15 23
f 23 24 16
f 36 43 42
f 42 34 41
f 42 43 34
f 27 20 39
f 39 33 27
f 10 6 39
f 1 2 39
f 39 18 12
f 39 3 1
f 12 11 39
f 39 26 32
f 39 19 18
f 39 11 10
f 9 17 39
f 39 5 9
f 20 19 39
f 39 6 3
f 17 26 39
f 39 2 5
f 42 8 4
f 4 7 42
f 14 22 42
f 42 7 14
f 23 15 42
f 28 36 42
f 42 15 8
f 37 29 42
f 42 22 28
f 42 29 23
f 42 44 37
f 41 44 42
