# generated by collision_forge
v 0.027965 0.002716 0.049337
v 0.027965 0.001264 0.049464
v 0.027965 0.002971 0.049337
v 0.042971 0.002716 0.051215
v 0.042971 0.002298 0.051242
v 0.042971 0.000906 0.051346
v 0.027965 0.000985 0.049489
v 0.027965 0.004385 0.049971
v 0.042971 0.004526 0.051909
v 0.042971 0.000591 0.051535
v 0.036522 -0.000032 0.051011
v 0.027965 0.000957 0.049505
v 0.027965 0.004414 0.049997
v 0.029221 0.005442 0.051021
v 0.042971 0.005503 0.052723
v 0.042971 -0.000447 0.052168
v 0.027965 -0.000284 0.050263
v 0.027965 0.005454 0.050983
v 0.042971 0.005515 0.053510
v 0.042971 -0.000515 0.052534
v 0.027965 -0.000358 0.050341
v 0.027965 0.005454 0.051427
v 0.031689 0.005497 0.052974
v 0.042971 -0.000737 0.053756
v 0.029878 -0.000616 0.051946
v 0.027965 -0.000551 0.051832
v 0.030233 0.005474 0.052920
v 0.041414 0.005447 0.054680
v 0.042971 0.005461 0.054508
v 0.042971 -0.000289 0.054962
v 0.042552 -0.000288 0.054958
v 0.028068 -0.000564 0.051946
v 0.040742 -0.000683 0.053756
v 0.027965 0.005255 0.052391
v 0.027965 0.004401 0.053324
v 0.033500 0.003866 0.054790
v 0.035310 0.004108 0.054928
v 0.038931 0.004396 0.055100
v 0.042552 0.004526 0.055218
v 0.042552 0.000906 0.055526
v 0.040742 -0.000243 0.054895
v 0.029878 -0.000293 0.053226
v 0.027965 0.002716 0.053779
v 0.032482 0.003675 0.054685
v 0.035310 0.002716 0.055168
v 0.038931 0.002716 0.055542
v 0.040742 0.002716 0.055685
v 0.042552 0.002716 0.055767
v 0.042971 0.002716 0.055776
v 0.042971 0.004567 0.055193
v 0.040742 0.000906 0.055415
v 0.042971 0.001324 0.055591
v 0.038931 -0.000169 0.054813
v 0.037120 -0.000078 0.054730
v 0.036036 -0.000020 0.054679
v 0.027965 -0.000198 0.053070
v 0.027965 0.002614 0.053765
v 0.032512 0.001727 0.054678
v 0.033500 0.001397 0.054768
v 0.037120 0.000906 0.055072
v 0.034830 0.000137 0.054585
v 0.027965 0.000837 0.053504
f 11 7 6
f 7 2 6
f 6 2 1
f 3 9 4
f 3 4 1
f 42 33 41
f 24 30 31
f 31 33 24
f 41 33 31
f 31 40 41
f 30 40 31
f 56 42 55
f 11 16 17
f 16 21 17
f 24 21 20
f 20 21 16
f 33 42 32
f 32 42 56
f 10 16 11
f 11 6 10
f 1 4 5
f 5 6 1
f 9 3 8
f 8 15 9
f 14 15 8
f 19 28 29
f 49 40 52
f 52 40 30
f 56 55 61
f 53 42 41
f 59 61 60
f 60 61 55
f 56 61 62
f 62 61 59
f 12 7 11
f 11 17 12
f 24 33 25
f 33 32 25
f 25 21 24
f 50 29 28
f 18 15 14
f 54 55 42
f 42 53 54
f 46 60 51
f 40 47 51
f 51 47 46
f 51 60 55
f 55 54 51
f 51 54 53
f 41 40 51
f 51 53 41
f 58 62 59
f 21 25 26
f 26 25 32
f 26 32 56
f 14 8 13
f 13 18 14
f 48 40 49
f 48 47 40
f 57 58 43
f 62 58 57
f 46 36 45
f 45 58 59
f 59 60 45
f 45 60 46
f 44 35 43
f 36 35 44
f 43 58 44
f 44 45 36
f 58 45 44
f 34 35 27
f 27 22 34
f 27 35 36
f 49 50 39
f 39 48 49
f 39 50 28
f 28 27 37
f 37 27 36
f 37 36 46
f 46 47 37
f 23 18 22
f 22 27 23
f 19 15 23
f 15 18 23
f 23 28 19
f 23 27 28
f 47 48 38
f 48 39 38
f 38 37 47
f 38 39 28
f 28 37 38
f 4 9 50
f 50 30 24
f 50 15 19
f 16 10 50
f 50 5 4
f 49 52 50
f 24 20 50
f 50 20 16
f 50 10 6
f 6 5 50
f 9 15 50
f 19 29 50
f 50 52 30
f 1 2 57
f 57 35 34
f 57 3 1
f 57 2 7
f 34 22 57
f 56 62 57
f 57 26 56
f 57 17 21
f 57 8 3
f 7 12 57
f 57 13 8
f 57 12 17
f 22 18 57
f 43 35 57
f 21 26 57
f 18 13 57
