# generated by collision_forge
v -0.047237 0.002716 -0.000497
v -0.047986 0.002716 -0.000435
v -0.047986 0.004277 -0.000040
v -0.047237 0.000828 -0.000096
v -0.052582 0.001758 0.000320
v -0.052541 0.003640 0.000330
v -0.051607 0.003811 0.000237
v -0.049797 0.004078 0.000083
v -0.047237 0.005229 0.000718
v -0.047420 -0.000045 0.000289
v -0.052585 0.002716 0.000318
v -0.054789 -0.000107 0.002010
v -0.057038 0.001372 0.001934
v -0.057980 0.001765 0.002131
v -0.055230 0.002716 0.001156
v -0.051607 0.004716 0.001046
v -0.057965 0.003641 0.002140
v -0.055230 0.004322 0.001693
v -0.052795 0.005467 0.002083
v -0.051607 0.005531 0.001951
v -0.049797 0.005578 0.001805
v -0.047237 0.005462 0.001249
v -0.053419 -0.000183 0.001859
v -0.057038 -0.000255 0.003383
v -0.059822 -0.000026 0.003927
v -0.055997 0.000064 0.002233
v -0.061567 0.001808 0.003959
v -0.061536 0.003055 0.003979
v -0.060328 0.004110 0.003628
v -0.059393 0.005317 0.004165
v -0.058185 0.005479 0.003873
v -0.061848 0.005591 0.006302
v -0.047237 -0.000283 0.001172
v -0.053419 -0.000371 0.003054
v -0.063269 0.000110 0.005836
v -0.064645 0.002716 0.006198
v -0.063635 0.003925 0.005595
v -0.061716 0.005484 0.005678
v -0.047237 0.005579 0.002486
v -0.047237 -0.000270 0.002627
v -0.060630 -0.000419 0.006302
v -0.062469 -0.000319 0.006302
v -0.064215 0.000775 0.006302
v -0.062922 0.005131 0.006121
v -0.064733 0.002851 0.006302
v -0.064057 0.004367 0.006302
v -0.058933 0.005547 0.006302
v -0.047237 0.005173 0.003017
v -0.047237 0.000811 0.003569
v -0.058234 -0.000185 0.006302
v -0.058967 -0.000263 0.006302
v -0.047237 0.003926 0.004092
v -0.047237 0.004301 0.003806
v -0.047237 0.004832 0.003391
v -0.047237 0.001679 0.004008
v -0.056925 0.000767 0.006302
v -0.057248 0.004583 0.006302
v -0.047237 0.003184 0.004150
v -0.056194 0.003471 0.006302
v -0.055940 0.002716 0.006302
v -0.047237 0.001942 0.004051
v -0.047237 0.002651 0.004147
f 47 39 32
f 36 43 45
f 52 47 57
f 42 43 35
f 35 43 27
f 43 36 27
f 35 27 25
f 25 42 35
f 34 40 41
f 10 12 5
f 2 3 1
f 59 60 52
f 52 57 59
f 53 47 52
f 53 54 47
f 39 47 48
f 47 54 48
f 52 60 58
f 60 62 58
f 56 50 55
f 55 61 56
f 56 61 62
f 56 62 60
f 49 50 40
f 55 50 49
f 41 40 51
f 40 50 51
f 26 25 13
f 12 25 26
f 13 5 26
f 5 12 26
f 41 42 24
f 24 34 41
f 24 25 12
f 42 25 24
f 12 10 23
f 23 24 12
f 34 24 23
f 1 3 9
f 11 2 5
f 6 2 11
f 4 10 5
f 5 2 4
f 4 2 1
f 3 2 8
f 8 9 3
f 21 39 22
f 22 9 21
f 32 39 21
f 32 31 38
f 14 5 13
f 27 17 14
f 13 25 14
f 14 25 27
f 28 27 36
f 28 17 27
f 34 23 33
f 33 23 10
f 40 34 33
f 10 4 33
f 15 17 6
f 6 11 15
f 15 14 17
f 15 11 5
f 5 14 15
f 7 2 6
f 7 8 2
f 44 46 32
f 32 38 44
f 30 38 31
f 20 21 9
f 9 19 20
f 20 19 31
f 20 31 32
f 32 21 20
f 31 19 18
f 6 17 18
f 18 30 31
f 17 30 18
f 8 7 16
f 9 8 16
f 16 19 9
f 16 7 6
f 6 18 16
f 16 18 19
f 29 44 38
f 38 30 29
f 29 30 17
f 17 28 29
f 46 44 37
f 44 29 37
f 37 29 28
f 45 46 37
f 37 36 45
f 37 28 36
f 51 42 41
f 51 47 32
f 51 46 45
f 32 46 51
f 45 43 51
f 51 56 60
f 51 57 47
f 60 59 51
f 43 42 51
f 51 59 57
f 50 56 51
f 39 48 33
f 1 9 33
f 33 49 40
f 22 39 33
f 33 61 55
f 33 53 52
f 52 58 33
f 54 53 33
f 33 48 54
f 33 58 62
f 62 61 33
f 55 49 33
f 33 9 22
f 33 4 1
