# generated by collision_forge
v 0.075147 0.006400 0.042391
v 0.073839 0.006392 0.042391
v 0.075147 0.006389 0.042892
v 0.084199 0.006350 0.042391
v 0.073337 0.006349 0.042391
v 0.073337 0.006378 0.042892
v 0.073337 0.006334 0.044702
v 0.075147 0.006331 0.044702
v 0.084199 0.006293 0.044702
v 0.084199 0.006339 0.042892
v 0.084701 0.006333 0.042391
v 0.071948 0.006021 0.042391
v 0.067879 0.005776 0.046647
v 0.069581 0.006120 0.046647
v 0.071527 0.006256 0.044702
v 0.071394 0.006245 0.046647
v 0.073204 0.006258 0.046647
v 0.075147 0.006267 0.046513
v 0.084199 0.006233 0.046513
v 0.086010 0.006277 0.042892
v 0.086010 0.006289 0.042391
v 0.071605 0.005889 0.042391
v 0.067773 0.005750 0.046647
v 0.075015 0.006261 0.046647
v 0.084067 0.006212 0.046647
v 0.084201 0.006201 0.046647
v 0.085888 0.006005 0.046647
v 0.086010 0.006022 0.046513
v 0.086010 0.006169 0.044702
v 0.087352 0.005827 0.042892
v 0.087359 0.005833 0.042391
v 0.070888 0.004559 0.042391
v 0.070370 0.005654 0.043435
v 0.067042 0.005105 0.046647
v 0.087095 0.005605 0.046647
v 0.087110 0.005620 0.046513
v 0.087247 0.005741 0.044702
v 0.087848 0.004527 0.044702
v 0.087976 0.004527 0.042892
v 0.087810 0.004892 0.042391
v 0.070882 0.004527 0.042391
v 0.066641 0.004448 0.046647
v 0.087563 0.004527 0.046647
v 0.087605 0.004527 0.046513
v 0.087923 0.002716 0.046513
v 0.088113 0.002716 0.044702
v 0.088170 0.002716 0.042892
v 0.087982 0.004527 0.042391
v 0.070871 0.001600 0.042391
v 0.069965 0.001600 0.043074
v 0.066707 0.002793 0.046647
v 0.087881 0.002574 0.046647
v 0.087938 0.001600 0.046513
v 0.088010 0.001600 0.045819
v 0.088103 0.001600 0.044702
v 0.088164 0.001600 0.042892
v 0.088168 0.001909 0.042391
v 0.088172 0.002716 0.042391
v 0.088166 0.001600 0.042391
v 0.068216 0.001600 0.045226
v 0.067662 0.001600 0.046647
v 0.087894 0.001600 0.046647
f 50 51 42
f 50 41 49
f 42 41 50
f 32 41 42
f 22 23 12
f 14 5 13
f 5 12 13
f 13 12 23
f 21 30 31
f 61 51 60
f 51 50 60
f 56 59 57
f 27 19 26
f 19 25 26
f 8 18 19
f 9 8 19
f 5 6 2
f 42 34 33
f 22 32 33
f 33 32 42
f 33 34 23
f 33 23 22
f 20 30 21
f 20 29 30
f 19 29 20
f 20 9 19
f 56 46 55
f 47 46 56
f 47 57 58
f 56 57 47
f 58 48 47
f 24 25 19
f 19 18 24
f 18 17 24
f 8 9 3
f 1 2 3
f 3 2 6
f 39 31 30
f 46 47 39
f 39 47 48
f 11 20 21
f 46 45 53
f 14 16 15
f 15 16 6
f 15 5 14
f 15 6 5
f 7 16 17
f 6 16 7
f 7 3 6
f 8 3 7
f 18 8 7
f 7 17 18
f 10 3 9
f 10 11 4
f 9 20 10
f 20 11 10
f 31 39 40
f 40 39 48
f 27 35 28
f 28 19 27
f 28 29 19
f 38 39 30
f 38 45 46
f 46 39 38
f 54 55 46
f 46 53 54
f 45 43 52
f 62 53 52
f 52 53 45
f 37 38 30
f 30 29 37
f 29 28 37
f 35 43 44
f 44 43 45
f 45 38 44
f 36 28 35
f 36 37 28
f 38 37 36
f 35 44 36
f 36 44 38
f 10 4 1
f 1 3 10
f 58 57 40
f 49 41 40
f 22 12 40
f 40 32 22
f 40 2 1
f 1 4 40
f 40 59 49
f 41 32 40
f 40 48 58
f 40 12 5
f 21 31 40
f 40 57 59
f 5 2 40
f 40 11 21
f 4 11 40
f 49 59 54
f 54 50 49
f 54 62 61
f 54 59 56
f 61 60 54
f 54 60 50
f 56 55 54
f 54 53 62
f 14 13 52
f 42 51 52
f 25 24 52
f 52 51 61
f 52 34 42
f 61 62 52
f 27 26 52
f 23 34 52
f 52 13 23
f 52 26 25
f 52 16 14
f 17 16 52
f 52 24 17
f 52 35 27
f 52 43 35
