# generated by collision_forge
v 0.051608 0.005480 0.002042
v 0.058789 0.005456 0.005065
v 0.059037 0.005455 0.005065
v 0.058001 0.005447 0.003931
v 0.052915 0.005464 0.002091
v 0.046372 0.005281 0.001002
v 0.046372 0.005468 0.002227
v 0.062192 0.004496 0.005065
v 0.057039 0.003969 0.001917
v 0.055227 0.004366 0.001582
v 0.051608 0.003894 0.000163
v 0.049797 0.004148 -0.000000
v 0.047987 0.005218 0.001015
v 0.046372 0.005468 0.001908
v 0.046372 0.004376 -0.000169
v 0.046372 0.004570 0.003132
v 0.057039 0.005140 0.005065
v 0.058013 0.003675 0.002119
v 0.061654 0.003704 0.003904
v 0.052664 0.003693 0.000298
v 0.049797 0.002716 -0.000339
v 0.047987 0.002716 -0.000577
v 0.046372 0.002716 -0.000743
v 0.047987 0.004313 -0.000093
v 0.046372 0.003664 0.003980
v 0.055227 0.002716 0.000997
v 0.063496 0.002716 0.005065
v 0.052677 0.001705 0.000300
v 0.051608 0.001399 0.000186
v 0.047987 0.000906 -0.000215
v 0.046372 0.002519 -0.000703
v 0.046372 0.002794 0.003992
v 0.052771 0.002716 0.005065
v 0.055210 0.004466 0.005065
v 0.058088 0.001648 0.002086
v 0.061661 0.001671 0.003904
v 0.056161 -0.000008 0.002140
v 0.049033 -0.000020 0.000316
v 0.046372 0.002521 0.003977
v 0.046827 0.001768 0.003974
v 0.054149 0.000862 0.005065
v 0.059921 -0.000066 0.003873
v 0.062714 0.000648 0.005065
v 0.046372 0.000800 -0.000303
v 0.053418 -0.000198 0.001822
v 0.051608 -0.000271 0.001582
v 0.047987 -0.000059 0.000268
v 0.046372 0.001253 0.003680
v 0.055726 -0.000056 0.005065
v 0.054680 0.000525 0.005065
v 0.061153 -0.000238 0.005065
v 0.058850 -0.000434 0.004865
v 0.047987 -0.000326 0.001244
v 0.046372 -0.000128 0.000325
v 0.046372 0.001110 0.003616
v 0.057034 -0.000267 0.005065
v 0.046372 0.001025 0.003567
v 0.046372 -0.000152 0.002687
v 0.046372 -0.000255 0.002588
v 0.059049 -0.000441 0.005065
v 0.046372 -0.000354 0.001244
v 0.046372 -0.000347 0.001395
f 9 4 19
f 19 18 9
f 23 12 22
f 33 34 25
f 13 15 6
f 6 5 13
f 10 4 9
f 10 5 4
f 27 19 8
f 4 3 8
f 8 19 4
f 41 33 40
f 48 49 40
f 56 59 60
f 56 49 59
f 17 16 25
f 25 34 17
f 17 7 16
f 61 52 60
f 36 19 27
f 60 52 51
f 52 42 51
f 1 3 4
f 4 5 1
f 1 14 7
f 6 14 1
f 1 5 6
f 15 13 24
f 23 15 24
f 24 12 23
f 24 5 12
f 24 13 5
f 20 10 9
f 9 18 20
f 12 5 11
f 5 10 11
f 10 20 11
f 11 20 21
f 11 22 12
f 11 21 22
f 41 40 50
f 50 40 49
f 32 33 25
f 59 49 58
f 49 57 58
f 55 49 48
f 55 57 49
f 54 44 47
f 47 44 38
f 23 22 30
f 22 21 30
f 21 29 30
f 30 29 38
f 38 44 30
f 60 59 62
f 62 61 60
f 26 20 18
f 46 45 52
f 38 45 46
f 46 47 38
f 37 42 52
f 52 45 37
f 38 29 37
f 37 45 38
f 43 36 27
f 42 36 43
f 43 51 42
f 3 1 2
f 2 1 7
f 7 17 2
f 28 29 21
f 21 20 28
f 20 26 28
f 28 37 29
f 39 40 33
f 33 32 39
f 48 40 39
f 23 30 31
f 31 30 44
f 53 61 54
f 54 47 53
f 47 46 53
f 52 61 53
f 53 46 52
f 35 28 26
f 37 28 35
f 35 26 18
f 35 36 42
f 42 37 35
f 18 19 35
f 19 36 35
f 34 33 2
f 2 17 34
f 27 8 2
f 2 56 60
f 2 33 41
f 41 50 2
f 2 8 3
f 49 56 2
f 2 43 27
f 60 51 2
f 2 50 49
f 51 43 2
f 31 14 6
f 31 32 25
f 6 15 31
f 31 15 23
f 31 55 48
f 25 16 31
f 48 39 31
f 16 7 31
f 59 58 31
f 31 44 54
f 54 61 31
f 7 14 31
f 31 62 59
f 31 58 57
f 57 55 31
f 61 62 31
f 31 39 32
