# generated by collision_forge
v 0.036656 0.002342 0.000222
v 0.036230 0.001943 0.000343
v 0.036165 0.003647 0.000323
v 0.036656 0.003742 0.000265
v 0.036656 0.001764 0.000286
v 0.033499 0.002716 0.001115
v 0.031689 0.001297 0.001899
v 0.030637 0.001662 0.002080
v 0.031689 0.002716 0.001699
v 0.030732 0.003660 0.002127
v 0.031689 0.003930 0.001950
v 0.033499 0.004318 0.001639
v 0.036656 0.004030 0.000531
v 0.036656 0.000869 0.000740
v 0.033410 0.000765 0.001648
v 0.032747 0.000068 0.002266
v 0.028891 -0.000030 0.003920
v 0.027883 0.001207 0.003747
v 0.027883 0.002716 0.003458
v 0.029730 0.002716 0.002510
v 0.030635 0.002716 0.002080
v 0.028068 0.004026 0.003677
v 0.030130 0.004491 0.003176
v 0.027883 0.002899 0.003469
v 0.027883 0.003957 0.003727
v 0.036083 0.005442 0.002132
v 0.030735 0.005438 0.003948
v 0.036656 -0.000241 0.001702
v 0.035310 -0.000195 0.001849
v 0.033954 -0.000100 0.002012
v 0.029878 -0.000129 0.003740
v 0.027883 -0.000169 0.005029
v 0.027883 0.000402 0.004253
v 0.029529 0.005322 0.004442
v 0.027883 0.004049 0.003809
v 0.036656 0.005451 0.002107
v 0.028551 0.005449 0.005648
v 0.036656 -0.000271 0.003149
v 0.035310 -0.000335 0.003055
v 0.031689 -0.000206 0.003405
v 0.027883 -0.000228 0.006684
v 0.029878 -0.000279 0.004865
v 0.027883 0.004970 0.004966
v 0.027883 0.005442 0.006617
v 0.036656 -0.000078 0.004000
v 0.027883 -0.000191 0.007012
v 0.027883 0.005426 0.006655
v 0.034561 0.005446 0.003983
v 0.036656 -0.000065 0.004043
v 0.027883 0.000028 0.007615
v 0.036656 0.005430 0.002717
v 0.027883 0.004504 0.008055
v 0.028375 0.005105 0.007026
v 0.036656 0.004417 0.004478
v 0.036656 0.005286 0.003312
v 0.036656 0.000806 0.004535
v 0.027883 0.000887 0.008291
v 0.036656 0.003920 0.004695
v 0.027883 0.004336 0.008250
v 0.036656 0.002716 0.005052
v 0.027883 0.002737 0.008885
v 0.027883 0.002760 0.008890
f 18 8 17
f 60 58 62
f 19 8 18
f 14 28 29
f 29 28 39
f 8 6 2
f 16 17 8
f 3 12 4
f 3 4 1
f 1 2 3
f 3 2 6
f 11 3 10
f 12 3 11
f 9 6 8
f 10 3 9
f 9 3 6
f 8 19 20
f 38 39 28
f 45 46 38
f 46 39 38
f 18 17 33
f 17 32 33
f 31 32 17
f 57 56 61
f 61 56 60
f 61 60 62
f 49 56 57
f 57 50 49
f 49 50 46
f 49 46 45
f 8 2 7
f 7 16 8
f 15 16 7
f 5 2 1
f 5 14 15
f 15 7 5
f 5 7 2
f 15 14 30
f 30 16 15
f 30 14 29
f 29 31 30
f 17 16 30
f 30 31 17
f 13 26 36
f 4 12 13
f 12 26 13
f 36 26 27
f 27 26 12
f 10 9 21
f 21 9 8
f 21 20 10
f 8 20 21
f 22 25 35
f 10 25 22
f 35 34 22
f 34 27 22
f 24 25 10
f 10 20 24
f 24 20 19
f 32 42 41
f 41 39 46
f 41 42 39
f 40 31 29
f 29 39 40
f 39 42 40
f 40 42 32
f 32 31 40
f 48 54 55
f 48 52 54
f 55 51 48
f 48 51 36
f 54 52 59
f 58 54 59
f 62 58 59
f 43 34 35
f 23 22 27
f 12 11 23
f 23 27 12
f 23 11 10
f 10 22 23
f 52 48 53
f 37 43 44
f 34 43 37
f 37 27 34
f 36 27 37
f 37 48 36
f 44 48 37
f 52 53 47
f 47 48 44
f 47 53 48
f 1 4 13
f 13 54 58
f 45 38 13
f 13 5 1
f 36 51 13
f 13 49 45
f 58 60 13
f 28 14 13
f 55 54 13
f 60 56 13
f 13 38 28
f 13 51 55
f 56 49 13
f 14 5 13
f 47 41 46
f 46 50 47
f 35 25 47
f 47 19 18
f 18 33 47
f 47 50 57
f 47 24 19
f 62 59 47
f 47 61 62
f 47 33 32
f 47 43 35
f 57 61 47
f 25 24 47
f 32 41 47
f 47 59 52
f 44 43 47
