# generated by collision_forge
v -0.068762 0.001885 0.021341
v -0.070118 0.001885 0.024416
v -0.067895 0.001483 0.021341
v -0.074431 0.001885 0.021341
v -0.067895 0.000384 0.024486
v -0.067895 0.001014 0.022973
v -0.067895 0.001475 0.021368
v -0.070861 0.001885 0.024779
v -0.067895 0.000474 0.021341
v -0.075412 0.000474 0.021341
v -0.076751 -0.000906 0.021341
v -0.074616 0.001885 0.021584
v -0.067895 0.000261 0.024566
v -0.072001 0.001885 0.024779
v -0.067895 -0.000837 0.025252
v -0.067895 -0.003904 0.021341
v -0.074884 -0.002478 0.021341
v -0.074943 -0.002443 0.021341
v -0.076094 -0.001677 0.021341
v -0.069705 -0.003728 0.021341
v -0.070685 -0.003620 0.021341
v -0.071355 -0.003494 0.021341
v -0.074609 0.001419 0.024779
v -0.074782 0.001883 0.024779
v -0.074792 0.001885 0.023882
v -0.074778 0.001885 0.022162
v -0.067895 -0.000900 0.025241
v -0.067895 -0.003738 0.022827
v -0.069213 -0.003674 0.022267
v -0.070421 -0.003589 0.021837
v -0.068328 -0.003465 0.023473
v -0.067895 -0.002909 0.024349
v -0.067895 -0.002653 0.024641
v -0.069716 -0.002184 0.024160
v -0.067895 -0.003733 0.022867
v -0.067895 -0.003688 0.023016
f 16 10 9
f 4 10 11
f 32 17 31
f 8 5 2
f 11 10 19
f 22 17 10
f 1 2 3
f 36 32 31
f 17 32 33
f 2 5 6
f 14 24 15
f 15 8 14
f 13 8 15
f 5 8 13
f 10 17 18
f 18 19 10
f 21 22 10
f 31 17 30
f 17 22 30
f 30 36 31
f 22 21 30
f 15 24 23
f 19 18 23
f 23 18 17
f 23 24 11
f 11 19 23
f 3 2 7
f 2 6 7
f 24 14 25
f 11 24 25
f 20 10 16
f 20 21 10
f 15 23 27
f 27 23 33
f 17 33 34
f 34 23 17
f 33 23 34
f 11 25 26
f 36 30 35
f 12 4 11
f 11 26 12
f 29 20 16
f 29 35 30
f 29 30 21
f 21 20 29
f 28 29 16
f 35 29 28
f 3 9 1
f 1 9 10
f 10 4 1
f 12 1 4
f 12 8 2
f 2 1 12
f 12 14 8
f 12 25 14
f 12 26 25
f 28 9 3
f 3 7 28
f 16 9 28
f 15 27 28
f 28 13 15
f 32 36 28
f 28 33 32
f 28 6 5
f 5 13 28
f 28 7 6
f 28 27 33
f 36 35 28
