# generated by collision_forge
v -0.051657 -0.002857 0.033236
v -0.051657 -0.000793 0.033236
v -0.049913 -0.004081 0.033236
v -0.067006 -0.002716 0.034242
v -0.050692 -0.000028 0.033236
v -0.067006 -0.003773 0.034590
v -0.067006 -0.000825 0.034375
v -0.049863 0.000420 0.033236
v -0.043155 -0.004985 0.033236
v -0.067006 -0.004001 0.035127
v -0.041346 -0.005127 0.033236
v -0.067006 -0.000294 0.034564
v -0.067006 0.000050 0.034696
v -0.067006 -0.004223 0.035649
v -0.041265 -0.005130 0.033318
v -0.067006 -0.004550 0.037460
v -0.067006 0.000240 0.035049
v -0.047386 0.000796 0.033236
v -0.041265 0.001029 0.033236
v -0.041265 -0.005104 0.033838
v -0.067006 -0.004525 0.039270
v -0.067006 0.000508 0.035567
v -0.046176 0.000870 0.033236
v -0.041265 0.001103 0.033838
v -0.042555 0.001033 0.033236
v -0.041265 -0.004387 0.039270
v -0.051609 -0.004514 0.039270
v -0.067006 -0.004388 0.041080
v -0.067006 0.000831 0.036562
v -0.041265 0.001155 0.039270
v -0.060658 0.001197 0.037460
v -0.055228 0.001244 0.037460
v -0.049797 0.001249 0.037460
v -0.067006 0.001086 0.037460
v -0.041265 -0.004068 0.041080
v -0.060658 -0.004327 0.041080
v -0.067006 -0.004026 0.042891
v -0.044364 0.001197 0.039270
v -0.041265 0.000957 0.041080
v -0.060658 0.001235 0.039270
v -0.046176 0.001209 0.039270
v -0.067006 0.001138 0.038373
v -0.041265 -0.003764 0.042242
v -0.067006 -0.003684 0.043858
v -0.047986 0.001031 0.041080
v -0.041265 0.000794 0.041533
v -0.067006 0.000689 0.043610
v -0.067006 0.001148 0.040182
v -0.067006 0.001105 0.041080
v -0.064282 0.001115 0.041080
v -0.049797 0.001042 0.041080
v -0.060658 0.001101 0.041080
v -0.041265 -0.002716 0.043107
v -0.065038 -0.003629 0.043804
v -0.045151 -0.001818 0.043799
v -0.067006 -0.003216 0.043951
v -0.041265 0.000398 0.042629
v -0.067006 0.000395 0.044177
v -0.041265 -0.000906 0.043496
v -0.067006 -0.002716 0.044048
v -0.052872 -0.000077 0.043781
v -0.041265 0.000021 0.042882
f 37 43 44
f 11 19 15
f 15 16 11
f 58 60 55
f 58 57 47
f 61 57 58
f 58 55 61
f 61 55 59
f 19 25 24
f 4 1 3
f 4 3 6
f 21 16 15
f 59 55 53
f 44 55 56
f 56 55 60
f 49 40 48
f 31 25 34
f 31 24 25
f 33 40 41
f 39 47 46
f 46 47 57
f 34 25 23
f 2 1 4
f 4 7 2
f 62 61 59
f 57 61 62
f 49 47 50
f 50 40 49
f 50 41 40
f 14 11 16
f 11 6 9
f 9 6 3
f 28 21 20
f 20 21 15
f 35 43 37
f 43 53 54
f 54 44 43
f 54 55 44
f 54 53 55
f 32 40 33
f 32 31 40
f 33 24 32
f 24 31 32
f 42 31 34
f 42 48 40
f 40 31 42
f 33 41 38
f 30 24 38
f 38 24 33
f 39 30 38
f 34 23 29
f 29 23 22
f 22 23 18
f 18 8 13
f 13 8 12
f 8 7 12
f 5 7 8
f 5 2 7
f 47 51 52
f 52 50 47
f 51 41 52
f 41 50 52
f 10 6 11
f 11 14 10
f 27 20 26
f 28 20 27
f 37 28 36
f 36 35 37
f 26 35 36
f 28 27 36
f 36 27 26
f 39 38 45
f 45 47 39
f 45 51 47
f 45 41 51
f 45 38 41
f 17 18 13
f 22 18 17
f 15 19 35
f 19 24 35
f 39 46 35
f 35 62 59
f 59 53 35
f 35 30 39
f 35 24 30
f 35 20 15
f 35 53 43
f 35 46 57
f 57 62 35
f 26 20 35
f 19 11 5
f 5 25 19
f 5 23 25
f 5 3 1
f 1 2 5
f 11 9 5
f 8 18 5
f 5 9 3
f 5 18 23
f 17 42 34
f 17 60 58
f 17 28 37
f 17 14 16
f 37 44 17
f 44 56 17
f 58 47 17
f 4 6 17
f 16 21 17
f 17 47 49
f 6 10 17
f 17 7 4
f 17 21 28
f 17 56 60
f 49 48 17
f 34 29 17
f 13 12 17
f 48 42 17
f 17 29 22
f 17 12 7
f 17 10 14
