# generated by collision_forge
v -0.084201 -0.000905 0.006319
v -0.084201 0.000539 0.007045
v -0.082390 0.000498 0.007112
v -0.082390 -0.000905 0.006484
v -0.084201 -0.002716 0.006727
v -0.086010 -0.002716 0.006830
v -0.086010 -0.000905 0.006471
v -0.086010 0.000439 0.007134
v -0.084201 0.001347 0.008487
v -0.082390 0.001319 0.008487
v -0.080581 0.000284 0.007329
v -0.079457 0.000101 0.007506
v -0.079321 -0.002080 0.007432
v -0.080581 -0.002425 0.007185
v -0.082890 -0.003699 0.007490
v -0.086994 -0.003656 0.007540
v -0.088845 -0.001968 0.007488
v -0.087388 0.000253 0.007335
v -0.086010 0.001195 0.008487
v -0.086010 0.001529 0.010297
v -0.071544 0.002648 0.013775
v -0.071544 0.002610 0.013715
v -0.075814 0.000151 0.009264
v -0.078341 -0.000905 0.007775
v -0.075702 -0.002114 0.009201
v -0.077785 -0.003646 0.009350
v -0.087821 -0.004129 0.010297
v -0.088828 -0.003675 0.009280
v -0.088595 -0.000253 0.007691
v -0.089120 0.000286 0.008899
v -0.087821 0.001225 0.010297
v -0.086010 0.001514 0.012108
v -0.071549 0.002647 0.013781
v -0.071544 0.000932 0.012173
v -0.072303 -0.001938 0.011119
v -0.074501 -0.003550 0.011449
v -0.080581 -0.004094 0.010297
v -0.086010 -0.004277 0.010297
v -0.089426 -0.003917 0.012108
v -0.090565 -0.001722 0.009352
v -0.090767 -0.002240 0.010297
v -0.090611 0.000080 0.011019
v -0.087821 0.001118 0.013781
v -0.084201 0.001587 0.013781
v -0.071544 -0.003463 0.013781
v -0.071544 -0.000905 0.011502
v -0.071544 -0.002392 0.012160
v -0.071544 -0.003448 0.013716
v -0.086010 -0.004349 0.012108
v -0.087943 -0.004107 0.013781
v -0.086149 -0.004292 0.013781
v -0.089132 -0.003816 0.013781
v -0.090330 -0.003449 0.012108
v -0.091038 -0.000905 0.012108
v -0.090603 0.000069 0.013156
v -0.089664 0.000416 0.013781
v -0.076959 -0.004071 0.013781
v -0.073274 -0.003760 0.013781
v -0.090036 -0.003114 0.013781
v -0.090754 -0.002208 0.013781
v -0.090746 -0.001046 0.013781
v -0.090731 -0.000979 0.013781
f 21 22 3
f 33 45 21
f 34 46 23
f 23 22 34
f 21 3 10
f 12 22 23
f 54 62 55
f 52 53 39
f 21 20 32
f 32 33 21
f 57 51 49
f 49 37 57
f 48 36 47
f 45 36 48
f 7 8 1
f 2 3 1
f 1 8 2
f 2 10 3
f 19 8 18
f 18 7 29
f 8 7 18
f 9 20 21
f 21 10 9
f 19 20 9
f 10 2 9
f 9 8 19
f 9 2 8
f 1 3 4
f 11 3 22
f 22 12 11
f 11 4 3
f 12 4 11
f 23 46 24
f 46 25 24
f 24 12 23
f 24 4 12
f 35 46 47
f 35 25 46
f 26 25 35
f 47 36 35
f 35 36 26
f 26 14 13
f 13 25 26
f 13 24 25
f 14 4 13
f 4 24 13
f 56 55 62
f 43 32 31
f 31 32 20
f 31 56 43
f 55 56 31
f 31 20 19
f 61 62 54
f 54 60 61
f 59 53 52
f 59 60 53
f 52 39 50
f 49 51 50
f 50 27 49
f 50 39 27
f 1 4 5
f 5 4 14
f 27 16 38
f 49 27 38
f 38 37 49
f 44 32 43
f 33 32 44
f 58 36 45
f 58 57 37
f 58 37 26
f 26 36 58
f 29 7 17
f 17 40 29
f 55 31 42
f 54 55 42
f 42 40 54
f 6 7 1
f 1 5 6
f 6 5 16
f 16 17 6
f 6 17 7
f 15 14 26
f 15 5 14
f 16 5 15
f 26 37 15
f 37 38 15
f 15 38 16
f 28 39 53
f 28 17 16
f 40 17 28
f 27 39 28
f 28 16 27
f 54 40 41
f 41 60 54
f 53 60 41
f 41 28 53
f 40 28 41
f 30 42 31
f 19 18 30
f 30 31 19
f 30 18 29
f 29 40 30
f 40 42 30
f 46 34 48
f 21 45 48
f 47 46 48
f 48 22 21
f 48 34 22
f 58 59 52
f 52 50 58
f 58 44 43
f 45 33 58
f 62 61 58
f 43 56 58
f 51 57 58
f 58 56 62
f 58 61 60
f 60 59 58
f 58 50 51
f 33 44 58
