# generated by collision_forge
v 0.023626 0.002716 0.012824
v 0.023030 0.000920 0.012824
v 0.023563 0.002883 0.012824
v 0.014521 0.003701 0.031061
v 0.014531 0.003356 0.031061
v 0.014419 0.002114 0.031061
v 0.014273 0.000921 0.031061
v 0.013848 -0.000363 0.031061
v 0.022754 0.000574 0.012824
v 0.013554 -0.000784 0.031061
v 0.022498 0.004527 0.012824
v 0.014219 0.004133 0.031061
v 0.022103 -0.000134 0.012824
v 0.011772 -0.001311 0.031061
v 0.022055 0.004864 0.012824
v 0.012864 0.005510 0.031061
v 0.013813 0.004583 0.031061
v 0.020808 -0.000327 0.012824
v 0.009972 -0.001008 0.031061
v 0.017076 -0.000307 0.015617
v 0.019012 -0.000392 0.013922
v 0.021297 0.005324 0.012824
v 0.012372 0.005564 0.031061
v 0.019058 -0.000259 0.012824
v 0.009027 -0.000085 0.031061
v 0.012637 -0.000032 0.021974
v 0.014425 -0.000047 0.018334
v 0.011772 0.005600 0.031061
v 0.009017 -0.000054 0.031061
v 0.010684 0.001335 0.025230
v 0.012648 0.001728 0.020204
v 0.016072 0.001300 0.014470
v 0.016391 0.000092 0.014941
v 0.020264 0.005447 0.012824
v 0.012310 0.005527 0.026593
v 0.017955 0.000174 0.012824
v 0.008827 0.000892 0.031061
v 0.010122 0.002716 0.026593
v 0.010968 0.002716 0.024150
v 0.014524 0.002310 0.016701
v 0.016564 0.002716 0.013388
v 0.017009 0.002716 0.012824
v 0.010597 0.005522 0.031061
v 0.019864 0.005443 0.012824
v 0.018069 0.005445 0.014753
v 0.014485 0.005433 0.020250
v 0.008812 0.002715 0.031061
v 0.010738 0.003862 0.025304
v 0.012684 0.003515 0.020271
v 0.014480 0.003633 0.016624
v 0.016070 0.003910 0.014471
v 0.017598 0.004188 0.012824
v 0.009642 0.004725 0.031061
v 0.014254 0.003936 0.017542
v 0.012389 0.004028 0.021478
v 0.012065 0.004370 0.022970
v 0.012781 0.005420 0.023984
v 0.010842 0.005446 0.029183
v 0.008937 0.003865 0.031061
v 0.010523 0.004190 0.026593
v 0.009288 0.004305 0.031061
v 0.011099 0.005347 0.027974
f 7 8 1
f 16 11 15
f 14 13 10
f 1 8 2
f 8 10 2
f 1 4 5
f 3 4 1
f 3 11 4
f 11 16 17
f 9 10 13
f 9 2 10
f 31 30 39
f 36 24 33
f 26 30 31
f 31 27 26
f 25 30 26
f 26 19 25
f 26 27 19
f 6 7 1
f 1 5 6
f 4 11 12
f 11 17 12
f 21 24 18
f 18 13 14
f 14 21 18
f 53 62 60
f 48 59 60
f 29 30 25
f 29 37 30
f 38 37 47
f 47 59 38
f 30 37 38
f 38 39 30
f 38 59 48
f 48 39 38
f 27 33 20
f 20 33 24
f 19 27 20
f 20 24 21
f 14 19 20
f 20 21 14
f 57 35 46
f 22 16 15
f 35 43 28
f 56 62 57
f 57 46 56
f 56 46 55
f 56 60 62
f 56 55 48
f 48 60 56
f 53 60 61
f 61 60 59
f 53 43 58
f 58 62 53
f 57 62 58
f 58 35 57
f 58 43 35
f 36 33 32
f 32 42 36
f 41 42 32
f 32 27 31
f 32 33 27
f 45 44 52
f 45 46 35
f 35 28 45
f 45 28 44
f 44 28 34
f 16 22 34
f 31 39 49
f 49 50 31
f 55 50 49
f 49 39 48
f 48 55 49
f 41 32 40
f 40 50 41
f 40 32 31
f 31 50 40
f 41 50 51
f 52 42 51
f 51 42 41
f 51 45 52
f 46 45 51
f 55 46 54
f 54 50 55
f 46 51 54
f 54 51 50
f 16 34 23
f 23 34 28
f 1 2 34
f 34 22 15
f 34 3 1
f 15 11 34
f 34 24 36
f 34 9 13
f 11 3 34
f 13 18 34
f 2 9 34
f 52 44 34
f 34 18 24
f 36 42 34
f 34 42 52
f 23 19 14
f 7 6 23
f 23 59 47
f 14 10 23
f 23 5 4
f 8 7 23
f 4 12 23
f 25 19 23
f 23 10 8
f 47 37 23
f 23 17 16
f 53 61 23
f 23 43 53
f 23 6 5
f 23 12 17
f 23 29 25
f 37 29 23
f 23 28 43
f 23 61 59
