# generated by collision_forge
v 0.067897 0.005675 0.013652
v 0.067861 0.005572 0.012148
v 0.066545 0.005516 0.010549
v 0.066082 0.005526 0.010549
v 0.064892 0.005483 0.010549
v 0.066705 0.005518 0.013652
v 0.069397 0.005558 0.013652
v 0.067230 0.005504 0.010908
v 0.067622 0.005030 0.010549
v 0.063937 0.004764 0.010549
v 0.065135 0.005453 0.011290
v 0.066563 0.005426 0.013652
v 0.070093 0.005014 0.013652
v 0.070158 0.004937 0.013593
v 0.068951 0.005510 0.012778
v 0.068436 0.005223 0.011571
v 0.068031 0.004785 0.010549
v 0.063859 0.004679 0.010549
v 0.065910 0.004539 0.013652
v 0.070247 0.004873 0.013652
v 0.069085 0.004015 0.010846
v 0.072719 0.000446 0.011377
v 0.068483 0.004352 0.010549
v 0.062713 0.002715 0.010549
v 0.065100 0.003832 0.013131
v 0.065760 0.004325 0.013652
v 0.070814 0.004159 0.013652
v 0.072719 0.001274 0.012767
v 0.072719 0.000076 0.011121
v 0.072719 -0.000290 0.010999
v 0.072719 -0.000905 0.010935
v 0.069238 0.002715 0.010549
v 0.062900 0.001814 0.010549
v 0.065405 0.000851 0.013652
v 0.065442 0.002715 0.013652
v 0.072719 0.001607 0.013652
v 0.072719 -0.002066 0.011015
v 0.068946 0.000050 0.010549
v 0.069244 0.000906 0.010549
v 0.069250 0.001020 0.010549
v 0.063082 0.000936 0.010549
v 0.065437 0.000752 0.013652
v 0.072719 -0.003785 0.013652
v 0.072719 -0.002422 0.011377
v 0.066338 -0.000888 0.010549
v 0.068225 -0.000556 0.010549
v 0.068467 -0.000383 0.010549
v 0.063376 0.000518 0.010549
v 0.066039 -0.000944 0.013652
v 0.071983 -0.003666 0.013652
v 0.072719 -0.003706 0.013217
v 0.072719 -0.002987 0.011953
v 0.064442 -0.000477 0.010549
v 0.072719 -0.003648 0.012897
v 0.064335 -0.000424 0.010549
v 0.067733 -0.002139 0.013652
v 0.072428 -0.003622 0.013012
v 0.070916 -0.003321 0.013652
v 0.068065 -0.002293 0.013652
f 45 54 53
f 28 27 36
f 24 34 35
f 41 48 49
f 1 5 6
f 1 3 4
f 4 5 1
f 52 54 45
f 56 53 59
f 25 35 26
f 24 35 25
f 25 18 24
f 26 18 25
f 33 34 24
f 33 41 34
f 42 41 49
f 34 41 42
f 11 6 5
f 19 18 26
f 45 37 44
f 44 52 45
f 43 50 51
f 59 53 58
f 53 50 58
f 55 56 49
f 53 56 55
f 49 48 55
f 21 14 22
f 20 28 22
f 22 14 20
f 27 28 20
f 46 37 45
f 10 11 5
f 54 51 57
f 57 51 50
f 57 53 54
f 57 50 53
f 17 21 23
f 23 29 30
f 22 29 23
f 23 21 22
f 30 31 23
f 14 15 7
f 8 7 15
f 38 31 37
f 39 31 38
f 12 10 18
f 18 19 12
f 6 11 12
f 11 10 12
f 32 23 31
f 13 20 14
f 14 7 13
f 3 8 9
f 9 8 17
f 17 8 16
f 16 8 15
f 16 21 17
f 14 21 16
f 16 15 14
f 1 7 2
f 7 8 2
f 2 3 1
f 2 8 3
f 37 46 47
f 47 38 37
f 40 31 39
f 40 32 31
f 31 36 43
f 31 29 22
f 31 44 37
f 22 28 31
f 43 51 31
f 31 28 36
f 54 52 31
f 30 29 31
f 52 44 31
f 31 51 54
f 43 36 13
f 26 35 13
f 1 6 13
f 59 58 13
f 13 50 43
f 36 27 13
f 49 56 13
f 13 35 34
f 13 42 49
f 13 19 26
f 13 56 59
f 34 42 13
f 13 7 1
f 13 58 50
f 27 20 13
f 6 12 13
f 13 12 19
f 45 53 40
f 40 4 3
f 40 55 48
f 24 18 40
f 40 33 24
f 40 47 46
f 48 41 40
f 40 46 45
f 5 4 40
f 40 10 5
f 41 33 40
f 53 55 40
f 17 23 40
f 18 10 40
f 39 38 40
f 3 9 40
f 23 32 40
f 40 9 17
f 38 47 40
