# generated by collision_forge
v 0.044363 0.002716 -0.000817
v 0.044363 0.000905 -0.000421
v 0.042552 0.000905 -0.000332
v 0.042552 0.002716 -0.000714
v 0.040743 0.004242 -0.000097
v 0.042552 0.004306 -0.000169
v 0.044363 0.004354 -0.000204
v 0.046175 0.004383 -0.000179
v 0.046175 0.002716 -0.000763
v 0.046175 0.000905 -0.000373
v 0.042552 -0.000106 0.000214
v 0.046175 -0.000103 0.000212
v 0.044363 -0.000120 0.000191
v 0.040743 -0.000054 0.000278
v 0.039780 -0.000011 0.000327
v 0.040743 0.000905 -0.000169
v 0.040743 0.002716 -0.000544
v 0.038932 0.004104 0.000029
v 0.040743 0.005147 0.001089
v 0.042552 0.005212 0.001070
v 0.046175 0.005289 0.001001
v 0.046371 0.005281 0.001002
v 0.046371 0.004376 -0.000169
v 0.046371 0.002518 -0.000703
v 0.046371 0.000800 -0.000302
v 0.044363 -0.000362 0.001244
v 0.042552 -0.000338 0.001244
v 0.037121 -0.000257 0.001652
v 0.046371 -0.000128 0.000325
v 0.046175 -0.000357 0.001244
v 0.037439 0.001435 0.000180
v 0.036658 -0.000241 0.001702
v 0.038932 0.002716 -0.000290
v 0.036658 0.004030 0.000530
v 0.036658 0.005052 0.001606
v 0.036658 0.005451 0.002107
v 0.046371 0.005468 0.001907
v 0.036658 -0.000271 0.003148
v 0.046371 -0.000347 0.001395
v 0.036658 0.000869 0.000739
v 0.036658 0.001764 0.000285
v 0.036658 0.002342 0.000222
v 0.036658 0.002999 0.000208
v 0.036658 0.003742 0.000265
v 0.036658 0.005455 0.002329
v 0.046371 0.005468 0.002227
v 0.036658 -0.000078 0.003999
v 0.046371 -0.000255 0.002587
v 0.036658 0.002814 0.000208
v 0.046371 0.004570 0.003132
v 0.036658 0.005430 0.002716
v 0.036658 0.005286 0.003311
v 0.036658 0.004417 0.004477
v 0.036658 -0.000065 0.004042
v 0.046371 -0.000152 0.002686
v 0.046371 0.003664 0.003980
v 0.036658 0.003920 0.004695
v 0.036658 0.000806 0.004535
v 0.046371 0.001025 0.003567
v 0.046371 0.002794 0.003992
v 0.036658 0.002716 0.005052
v 0.046371 0.001253 0.003680
f 62 60 61
f 26 38 27
f 58 62 61
f 54 47 48
f 48 47 38
f 5 36 19
f 50 46 53
f 53 46 52
f 28 38 32
f 28 27 38
f 15 28 32
f 14 28 15
f 15 3 14
f 35 36 18
f 18 36 5
f 18 5 4
f 31 41 33
f 59 58 54
f 62 58 59
f 39 48 38
f 52 46 51
f 20 19 36
f 50 53 56
f 61 60 56
f 9 23 24
f 4 5 1
f 1 3 4
f 1 2 3
f 10 24 25
f 9 24 10
f 10 1 9
f 2 1 10
f 14 3 11
f 3 2 11
f 11 2 13
f 11 28 14
f 27 28 11
f 26 27 11
f 11 13 26
f 40 41 31
f 40 15 32
f 31 15 40
f 3 15 16
f 16 15 31
f 4 3 16
f 35 18 34
f 34 18 44
f 43 33 49
f 44 33 43
f 44 18 17
f 17 33 44
f 17 18 4
f 4 16 17
f 31 33 17
f 17 16 31
f 49 33 42
f 42 33 41
f 54 48 55
f 55 59 54
f 26 13 30
f 30 38 26
f 30 39 38
f 45 51 46
f 46 37 45
f 45 37 36
f 21 37 22
f 36 37 21
f 21 20 36
f 61 56 57
f 57 56 53
f 39 30 29
f 22 23 8
f 8 21 22
f 8 23 9
f 9 1 8
f 12 30 13
f 12 29 30
f 25 29 12
f 12 10 25
f 13 2 12
f 2 10 12
f 20 21 7
f 21 8 7
f 7 8 1
f 19 20 6
f 20 7 6
f 5 19 6
f 6 1 5
f 6 7 1
f 57 45 36
f 57 58 61
f 57 47 54
f 32 38 57
f 57 36 35
f 57 40 32
f 52 51 57
f 35 34 57
f 38 47 57
f 54 58 57
f 57 53 52
f 57 43 49
f 49 42 57
f 41 40 57
f 57 34 44
f 44 43 57
f 57 42 41
f 51 45 57
f 29 55 48
f 60 62 29
f 62 59 29
f 22 37 29
f 29 23 22
f 29 46 50
f 29 56 60
f 25 24 29
f 48 39 29
f 29 37 46
f 50 56 29
f 29 24 23
f 59 55 29
