# generated by collision_forge
v 0.074524 0.001499 0.024482
v 0.074514 0.001444 0.024482
v 0.071293 0.001499 0.024482
v 0.074521 0.001499 0.024671
v 0.074379 0.001499 0.026312
v 0.074290 0.001319 0.024482
v 0.071326 0.001369 0.024482
v 0.071942 0.001499 0.026325
v 0.074096 0.001499 0.027698
v 0.073336 0.000934 0.024482
v 0.071489 0.001300 0.024482
v 0.072101 0.001499 0.026594
v 0.073260 0.001499 0.027955
v 0.072899 0.000941 0.024482
f 9 13 10
f 10 6 5
f 5 9 10
f 7 8 3
f 11 8 7
f 10 13 14
f 2 5 6
f 11 14 12
f 12 8 11
f 12 14 13
f 4 2 1
f 5 2 4
f 3 1 2
f 10 14 2
f 2 7 3
f 2 6 10
f 11 7 2
f 2 14 11
f 3 8 4
f 4 1 3
f 13 9 4
f 4 12 13
f 9 5 4
f 8 12 4
