# generated by collision_forge
v 0.031699 -0.002716 0.031472
v 0.031699 -0.000907 0.031871
v 0.031699 -0.004694 0.032325
v 0.024446 -0.004527 0.032071
v 0.017283 -0.004527 0.032022
v 0.017283 -0.002716 0.031678
v 0.017283 -0.000906 0.032017
v 0.031699 0.000267 0.032607
v 0.017283 0.000236 0.032666
v 0.026256 -0.005574 0.032750
v 0.024446 -0.005613 0.032706
v 0.022636 -0.005639 0.032678
v 0.019013 -0.005673 0.032642
v 0.017283 -0.005691 0.032628
v 0.031699 0.000855 0.033831
v 0.017283 0.000748 0.033838
v 0.031688 0.000858 0.033838
v 0.031302 -0.005456 0.032893
v 0.022636 -0.006094 0.033838
v 0.020825 -0.006151 0.033838
v 0.017283 -0.006230 0.033838
v 0.017283 0.001054 0.035649
v 0.019013 0.001081 0.035649
v 0.031688 0.001201 0.035649
v 0.031699 -0.005607 0.033679
v 0.017283 -0.006474 0.035649
v 0.017283 0.000975 0.037458
v 0.019013 0.001014 0.037458
v 0.020825 0.001045 0.037458
v 0.031699 0.001056 0.037458
v 0.031699 -0.005756 0.035650
v 0.026256 -0.006095 0.035649
v 0.022636 -0.006281 0.035649
v 0.017283 -0.006222 0.037458
v 0.017283 0.000665 0.039191
v 0.031699 0.000643 0.041080
v 0.031699 -0.005566 0.036925
v 0.026256 -0.005840 0.037458
v 0.026256 -0.005529 0.038497
v 0.024446 -0.005574 0.038550
v 0.017283 -0.006202 0.037512
v 0.017283 0.000651 0.039269
v 0.031688 0.000262 0.042369
v 0.031699 -0.003665 0.042062
v 0.027564 -0.005480 0.038433
v 0.017283 -0.005720 0.038691
v 0.017283 0.000238 0.040553
v 0.026256 0.000158 0.042168
v 0.028066 0.000215 0.042251
v 0.031699 -0.000906 0.043070
v 0.026256 -0.003516 0.041807
v 0.017283 0.000218 0.040615
v 0.029877 -0.000906 0.042953
v 0.031688 -0.002716 0.042761
v 0.024446 -0.003397 0.041718
v 0.026256 -0.002611 0.042422
v 0.017283 -0.000913 0.041408
v 0.023557 -0.000008 0.041979
v 0.019911 -0.001813 0.041987
v 0.024446 -0.002492 0.042296
v 0.017283 -0.002709 0.041213
v 0.017283 -0.003782 0.040459
f 6 1 5
f 1 6 7
f 5 1 4
f 50 36 43
f 1 7 2
f 2 7 9
f 9 8 2
f 15 8 9
f 9 17 15
f 15 17 24
f 24 30 15
f 16 17 9
f 24 17 16
f 29 30 24
f 36 30 29
f 3 25 18
f 3 4 1
f 5 4 14
f 18 25 19
f 37 44 45
f 49 48 50
f 50 43 49
f 49 43 36
f 49 36 42
f 42 48 49
f 50 48 53
f 23 16 22
f 24 16 23
f 23 29 24
f 22 29 23
f 32 19 25
f 47 48 42
f 47 52 48
f 58 52 57
f 48 52 58
f 58 53 48
f 54 44 50
f 50 53 54
f 22 27 28
f 28 29 22
f 36 29 28
f 12 11 21
f 4 3 12
f 3 11 12
f 18 19 10
f 10 3 18
f 10 11 3
f 21 11 20
f 20 10 19
f 11 10 20
f 31 32 25
f 37 45 38
f 38 31 37
f 32 31 38
f 59 58 57
f 53 58 59
f 35 28 27
f 42 36 35
f 36 28 35
f 21 14 13
f 13 12 21
f 13 14 4
f 4 12 13
f 40 44 46
f 56 54 53
f 32 38 33
f 38 34 33
f 19 32 33
f 41 40 46
f 41 34 40
f 39 38 45
f 39 34 38
f 40 34 39
f 39 45 44
f 44 40 39
f 53 59 60
f 60 56 53
f 61 59 57
f 61 60 59
f 46 44 51
f 44 54 51
f 54 56 51
f 26 33 34
f 21 20 26
f 26 20 19
f 19 33 26
f 55 62 46
f 46 51 55
f 55 61 62
f 60 61 55
f 56 60 55
f 55 51 56
f 8 15 31
f 31 30 36
f 31 36 50
f 50 44 31
f 1 2 31
f 31 3 1
f 31 44 37
f 31 2 8
f 31 15 30
f 25 3 31
f 26 6 5
f 26 47 42
f 9 7 26
f 5 14 26
f 26 16 9
f 26 7 6
f 42 35 26
f 46 62 26
f 22 16 26
f 26 14 21
f 57 52 26
f 26 27 22
f 52 47 26
f 26 35 27
f 26 61 57
f 26 41 46
f 34 41 26
f 62 61 26
