####
#
# OBJ File Generated by Meshlab
#
####
# Object ATI_sensor_chull.obj
#
# Vertices: 52
# Faces: 100
#
####
vn -2.762988 0.857286 -2.358445
v -0.053818 0.052733 -0.038517
vn -5.021794 -1.741945 -3.024277
v -0.035964 -0.011601 -0.038506
vn 0.976533 -2.861532 -3.920321
v 0.013667 -0.034804 -0.039662
vn 1.162242 -5.854660 -1.332516
v 0.007821 -0.048387 -0.006155
vn -2.325958 1.274967 2.006366
v -0.053554 0.054277 -0.000048
vn 0.589454 2.884107 2.603030
v -0.016082 0.073903 -0.000000
vn 2.457932 5.410753 0.119809
v -0.009992 0.073070 -0.018163
vn -3.920788 -3.442975 -3.083755
v -0.028401 -0.024927 -0.038506
vn -1.827675 -2.400759 -3.976357
v -0.022520 -0.029849 -0.039662
vn -2.619693 -1.489295 -3.984103
v -0.032522 -0.018449 -0.039662
vn -1.497407 -5.635129 -0.085886
v -0.012588 -0.047560 -0.005329
vn -1.173691 -2.787821 -3.911701
v -0.015997 -0.033797 -0.039662
vn -0.105543 -3.022141 -3.851204
v -0.001261 -0.037369 -0.039662
vn 4.329191 -1.583988 -3.548336
v 0.035098 -0.014005 -0.038506
vn 3.410844 4.986104 -0.888251
v -0.009062 0.071888 -0.026268
vn 4.181188 -4.293905 -0.720699
v 0.034575 -0.035094 -0.005043
vn 2.465265 -1.737356 -3.913912
v 0.031205 -0.020606 -0.039652
vn 1.770666 -2.450730 -3.921885
v 0.020449 -0.031306 -0.039660
vn 4.209439 4.209667 -1.934791
v -0.007242 0.068189 -0.031607
vn 0.589777 2.891104 -2.622910
v -0.016275 0.073535 -0.038518
vn -2.740009 3.680700 -2.438045
v -0.052126 0.054745 -0.037998
vn -0.008243 -0.054039 -0.076518
v 0.036954 0.009037 -0.038506
vn 3.475451 2.701473 -3.556310
v 0.029863 0.025017 -0.038506
vn -5.748380 -1.561840 -0.171087
v -0.048118 -0.011636 -0.004216
vn -4.706602 -2.253920 0.964133
v -0.045478 -0.019899 -0.003809
vn -5.866642 -0.687271 1.200257
v -0.049409 -0.003070 -0.002362
vn -1.497931 4.284903 2.314360
v -0.018430 0.073711 -0.000503
vn -1.625532 4.274981 -2.410761
v -0.018803 0.073216 -0.037998
vn 4.039516 -2.780342 1.261884
v 0.040197 -0.029119 -0.003823
vn 2.994011 0.189211 2.390768
v 0.049961 0.003661 -0.000005
vn 5.391046 -1.246057 0.380830
v 0.048802 -0.009210 -0.004358
vn 0.271984 -2.995645 2.378509
v 0.004481 -0.049771 -0.000000
vn -0.950006 -5.485895 0.423128
v -0.005291 -0.049221 -0.004216
vn -3.781650 -2.633437 1.480879
v -0.041265 -0.027498 -0.003969
vn -4.489786 -3.524251 0.172240
v -0.035855 -0.034289 -0.003896
vn -2.232606 -5.490287 -0.399848
v -0.021911 -0.044484 -0.003969
vn 2.826075 3.365135 2.779931
v 0.028787 0.040275 -0.000508
vn 2.677080 -5.232649 -0.544592
v 0.024647 -0.043132 -0.004290
vn 5.989283 0.255826 -1.611835
v 0.048977 0.002442 -0.005785
vn 5.787653 1.583765 -0.569483
v 0.047973 0.012219 -0.004216
vn 3.540323 2.213055 1.706796
v 0.039592 0.030856 -0.002476
vn 4.037269 -1.919056 1.536789
v 0.044666 -0.021659 -0.003811
vn 1.816064 -2.497672 2.867364
v 0.027656 -0.041022 -0.000008
vn 2.008932 1.808822 4.721140
v 0.033107 0.035416 0.000000
vn -2.960572 -0.752815 3.804639
v -0.047579 -0.009309 0.000000
vn -1.700436 -2.288146 1.946952
v -0.030047 -0.041077 -0.000003
vn 4.679159 2.240501 1.032709
v 0.045217 0.020436 -0.003849
vn 2.834676 1.034738 -3.826984
v 0.034235 0.016613 -0.039662
vn 3.726574 -0.357145 -3.788532
v 0.037208 -0.006598 -0.038506
vn -0.073628 0.080316 -6.281001
v -0.022570 0.027651 -0.039662
vn -2.442908 -0.682122 -4.991430
v -0.036225 -0.007510 -0.039662
vn 1.111661 1.084674 -5.867966
v 0.017728 0.034854 -0.039662
# 52 vertices, 0 vertices normals

f 26//26 5//5 1//1
f 1//1 24//24 26//26
f 4//4 3//3 38//38
f 34//34 25//25 10//10
f 25//25 45//45 24//24
f 24//24 45//45 26//26
f 2//2 25//25 24//24
f 2//2 10//10 25//25
f 20//20 6//6 7//7
f 6//6 5//5 45//45
f 27//27 5//5 6//6
f 16//16 29//29 43//43
f 12//12 36//36 9//9
f 11//11 36//36 12//12
f 6//6 37//37 7//7
f 6//6 44//44 37//37
f 44//44 47//47 41//41
f 14//14 31//31 42//42
f 14//14 42//42 17//17
f 29//29 17//17 42//42
f 1//1 2//2 24//24
f 1//1 51//51 2//2
f 10//10 2//2 51//51
f 5//5 28//28 21//21
f 38//38 3//3 18//18
f 3//3 4//4 13//13
f 4//4 33//33 13//13
f 34//34 45//45 25//25
f 35//35 45//45 34//34
f 26//26 45//45 5//5
f 5//5 21//21 1//1
f 6//6 20//20 27//27
f 46//46 35//35 9//9
f 46//46 9//9 36//36
f 11//11 46//46 36//36
f 15//15 20//20 7//7
f 44//44 41//41 37//37
f 49//49 14//14 17//17
f 28//28 27//27 20//20
f 46//46 45//45 35//35
f 43//43 32//32 38//38
f 10//10 9//9 8//8
f 35//35 34//34 8//8
f 8//8 9//9 35//35
f 8//8 34//34 10//10
f 11//11 12//12 13//13
f 11//11 13//13 33//33
f 48//48 40//40 22//22
f 14//14 49//49 31//31
f 22//22 40//40 39//39
f 7//7 41//41 15//15
f 19//19 41//41 23//23
f 19//19 23//23 20//20
f 20//20 15//15 19//19
f 44//44 30//30 47//47
f 30//30 42//42 31//31
f 52//52 50//50 20//20
f 1//1 50//50 51//51
f 16//16 18//18 17//17
f 17//17 29//29 16//16
f 16//16 38//38 18//18
f 32//32 46//46 11//11
f 31//31 49//49 39//39
f 15//15 41//41 19//19
f 20//20 23//23 52//52
f 39//39 48//48 22//22
f 48//48 52//52 23//23
f 29//29 42//42 43//43
f 1//1 20//20 50//50
f 21//21 28//28 1//1
f 28//28 20//20 1//1
f 40//40 48//48 47//47
f 47//47 48//48 41//41
f 23//23 41//41 48//48
f 48//48 39//39 49//49
f 5//5 27//27 28//28
f 32//32 4//4 38//38
f 4//4 32//32 33//33
f 33//33 32//32 11//11
f 41//41 7//7 37//37
f 38//38 16//16 43//43
f 40//40 30//30 39//39
f 39//39 30//30 31//31
f 43//43 44//44 6//6
f 6//6 45//45 43//43
f 42//42 30//30 43//43
f 43//43 30//30 44//44
f 45//45 46//46 43//43
f 43//43 46//46 32//32
f 47//47 30//30 40//40
f 13//13 12//12 48//48
f 48//48 51//51 50//50
f 48//48 10//10 51//51
f 48//48 3//3 13//13
f 48//48 9//9 10//10
f 49//49 17//17 48//48
f 48//48 17//17 18//18
f 12//12 9//9 48//48
f 52//52 48//48 50//50
f 48//48 18//18 3//3
# 100 faces, 0 coords texture

# End of File