####
#
# OBJ File Generated by Meshlab
#
####
# Object base_link_chull.obj
#
# Vertices: 52
# Faces: 100
#
####
vn -1.767056 3.777878 -3.921790
v 0.039784 -0.084522 0.145087
vn 6.071000 0.786103 0.703158
v -0.310177 -0.061082 0.064038
vn 4.995088 2.646831 1.689728
v -0.269588 -0.095853 -0.105421
vn -2.176100 -2.170891 4.399353
v 0.061699 -0.012000 -0.148954
vn 3.999852 4.647981 0.743326
v -0.237288 -0.134833 -0.093938
vn -1.672975 3.621464 4.232685
v 0.038265 -0.085435 -0.143700
vn -5.404178 0.594941 -2.874271
v 0.155248 -0.035215 0.048170
vn -3.981328 3.534906 1.293277
v 0.143368 -0.085587 -0.040775
vn 1.807348 3.185394 -4.584610
v -0.248246 -0.084044 0.147962
vn 3.052776 2.097731 4.195218
v -0.255613 -0.070525 -0.152400
vn 2.511519 1.650034 -5.257223
v -0.254638 -0.059399 0.155445
vn 4.110593 2.429246 -1.959239
v -0.303291 -0.086779 0.105962
vn 3.177543 -0.995893 -3.708727
v -0.267404 -0.014132 0.159487
vn -3.985653 3.576064 -1.252947
v 0.143396 -0.085521 0.040850
vn -0.680854 6.154955 -0.880275
v -0.140766 -0.136000 0.092558
vn 3.515956 -0.199020 2.938864
v -0.271691 -0.021459 -0.158567
vn 1.852213 -3.288121 2.101266
v -0.260500 -0.002500 -0.158000
vn 1.814319 -3.425250 -2.175240
v -0.260500 -0.002500 0.158000
vn 5.026427 -1.501543 -0.294728
v -0.313154 -0.049971 0.086039
vn 4.974379 0.337288 -2.131575
v -0.309711 -0.062819 0.107000
vn 5.721896 2.247611 0.555204
v -0.303757 -0.085041 0.063000
vn 4.255520 3.828918 -0.456461
v -0.296778 -0.101709 0.080717
vn -3.192333 -2.367646 2.709229
v 0.127504 -0.010383 -0.098665
vn -2.363532 -2.696423 2.965907
v 0.097014 -0.009500 -0.126431
vn -0.607354 5.438071 -2.559928
v -0.089284 -0.126030 0.107978
vn -0.128797 5.406095 -2.344027
v -0.161120 -0.136843 0.099424
vn -2.414206 -2.195267 -2.746553
v 0.106479 -0.010496 0.124497
vn -3.067832 2.843808 -2.948144
v 0.110987 -0.082666 0.106800
vn -0.949177 1.944799 -4.878633
v -0.036090 -0.043059 0.201751
vn -1.351744 -2.350558 -4.105968
v -0.032610 -0.009000 0.200892
vn 0.372941 -2.927308 -3.087462
v -0.090742 -0.000011 0.200921
vn 0.683598 1.668404 -5.590104
v -0.091411 -0.036285 0.200892
vn -0.326485 -4.484451 -2.801246
v -0.068421 -0.000000 0.199254
vn 0.051260 -6.282796 -0.004536
v -0.100760 0.000000 0.000000
vn -2.872516 -3.179834 1.169359
v 0.166140 0.000000 -0.021140
vn -0.191938 -2.504510 2.965190
v -0.077769 0.000479 -0.201873
vn -2.891630 -2.985953 -1.002002
v 0.169154 0.000010 0.018779
vn -5.133783 0.365302 0.100584
v 0.178351 -0.025667 -0.000036
vn -4.937901 0.943920 3.380103
v 0.133141 -0.043168 -0.088560
vn -3.039857 1.452892 4.933405
v 0.079374 -0.061076 -0.136746
vn -3.004582 3.372309 2.978609
v 0.102530 -0.086623 -0.107457
vn -1.674194 5.813733 1.230163
v 0.075098 -0.110024 -0.064975
vn 1.360162 4.864933 -1.988128
v -0.234247 -0.137021 0.097482
vn 1.394166 3.877164 2.257564
v -0.212274 -0.149744 -0.126189
vn 3.255169 -1.700369 3.196897
v -0.268755 -0.015104 -0.159209
vn 0.839682 -0.338253 5.397938
v -0.097550 -0.036285 -0.197975
vn -0.489951 1.473994 5.399220
v -0.076239 -0.036285 -0.201075
vn -1.745376 5.857525 -0.744702
v 0.090627 -0.109500 0.037539
vn -0.232329 4.666330 1.691168
v -0.164812 -0.149220 -0.126689
vn -0.501255 5.994920 0.612186
v -0.178000 -0.152500 -0.092094
vn -1.920019 5.853952 0.192868
v 0.097254 -0.109500 -0.012804
vn -1.278095 5.817458 -1.641288
v 0.053146 -0.109587 0.083168
# 52 vertices, 0 vertices normals

f 22//22 12//12 43//43
f 4//4 40//40 24//24
f 21//21 22//22 3//3
f 44//44 46//46 10//10
f 20//20 12//12 22//22
f 1//1 29//29 28//28
f 27//27 28//28 29//29
f 29//29 1//1 25//25
f 16//16 2//2 3//3
f 3//3 5//5 44//44
f 36//36 24//24 35//35
f 24//24 36//36 4//4
f 23//23 35//35 24//24
f 41//41 49//49 42//42
f 1//1 52//52 25//25
f 26//26 43//43 29//29
f 17//17 36//36 34//34
f 36//36 17//17 45//45
f 45//45 17//17 19//19
f 16//16 45//45 19//19
f 33//33 37//37 27//27
f 33//33 30//30 31//31
f 27//27 30//30 33//33
f 34//34 31//31 18//18
f 9//9 43//43 12//12
f 9//9 29//29 43//43
f 19//19 18//18 13//13
f 13//13 20//20 19//19
f 30//30 27//27 29//29
f 2//2 19//19 21//21
f 2//2 21//21 3//3
f 2//2 16//16 19//19
f 22//22 44//44 5//5
f 47//47 49//49 6//6
f 47//47 46//46 44//44
f 47//47 44//44 49//49
f 47//47 4//4 36//36
f 40//40 4//4 47//47
f 40//40 6//6 41//41
f 47//47 6//6 40//40
f 37//37 7//7 27//27
f 39//39 38//38 35//35
f 39//39 35//35 23//23
f 8//8 41//41 42//42
f 50//50 26//26 15//15
f 3//3 22//22 5//5
f 16//16 10//10 46//46
f 9//9 32//32 29//29
f 7//7 28//28 27//27
f 41//41 6//6 49//49
f 42//42 49//49 51//51
f 7//7 37//37 38//38
f 7//7 38//38 14//14
f 28//28 7//7 14//14
f 39//39 41//41 8//8
f 38//38 39//39 8//8
f 8//8 42//42 51//51
f 15//15 26//26 25//25
f 14//14 48//48 28//28
f 16//16 46//46 45//45
f 11//11 9//9 12//12
f 32//32 9//9 11//11
f 12//12 20//20 13//13
f 13//13 31//31 32//32
f 18//18 31//31 13//13
f 44//44 51//51 49//49
f 52//52 15//15 25//25
f 52//52 48//48 15//15
f 1//1 28//28 52//52
f 44//44 10//10 3//3
f 13//13 11//11 12//12
f 11//11 13//13 32//32
f 48//48 50//50 15//15
f 10//10 16//16 3//3
f 39//39 40//40 41//41
f 34//34 18//18 17//17
f 17//17 18//18 19//19
f 20//20 22//22 21//21
f 20//20 21//21 19//19
f 26//26 29//29 25//25
f 26//26 50//50 43//43
f 31//31 30//30 29//29
f 29//29 32//32 31//31
f 37//37 33//33 35//35
f 35//35 34//34 36//36
f 34//34 35//35 31//31
f 35//35 33//33 31//31
f 38//38 37//37 35//35
f 39//39 23//23 24//24
f 40//40 39//39 24//24
f 47//47 36//36 45//45
f 47//47 45//45 46//46
f 38//38 8//8 14//14
f 14//14 8//8 51//51
f 14//14 51//51 48//48
f 22//22 43//43 44//44
f 43//43 50//50 44//44
f 51//51 44//44 50//50
f 50//50 48//48 51//51
f 28//28 48//48 52//52
# 100 faces, 0 coords texture

# End of File