####
#
# OBJ File Generated by Meshlab
#
####
# Object link5_chull.obj
#
# Vertices: 52
# Faces: 100
#
####
vn -2.995018 -0.691668 2.705305
v 0.408205 -0.720908 0.016491
vn -3.101206 0.294428 -2.878973
v 0.407887 -0.706898 -0.015499
vn 1.850528 -2.496413 2.863458
v 0.475673 -0.745823 0.016501
vn -2.648072 -2.151898 -2.822241
v 0.417842 -0.739567 -0.015379
vn -2.591609 -1.699803 2.799909
v 0.415160 -0.735882 0.016500
vn 3.015872 -0.770840 -2.810832
v 0.491288 -0.722098 -0.015485
vn 1.422212 2.792487 3.029580
v 0.469626 -0.674529 0.016500
vn 3.481283 5.136708 0.014227
v 0.474160 -0.676658 0.000049
vn 1.916062 2.478881 3.046834
v 0.475374 -0.678155 0.016500
vn 0.941644 -2.950828 2.813932
v 0.463092 -0.752452 0.016500
vn 2.886525 -1.187371 2.929212
v 0.489141 -0.727717 0.016500
vn 2.768562 1.302558 -2.766804
v 0.488716 -0.694249 -0.015525
vn -0.420059 -3.105356 3.002306
v 0.444484 -0.753939 0.016500
vn -2.747401 -1.466911 -2.816104
v 0.411940 -0.730458 -0.015500
vn -0.006814 3.131342 -2.980324
v 0.449740 -0.669701 -0.015500
vn -1.272044 2.843874 -2.888015
v 0.432515 -0.673349 -0.015499
vn -1.463909 2.768426 2.984924
v 0.430374 -0.674529 0.016500
vn 2.947749 0.919925 2.813600
v 0.490416 -0.699517 0.016500
vn -2.942979 1.039867 2.914273
v 0.409602 -0.699458 0.016500
vn -3.101708 0.357751 2.928422
v 0.408178 -0.705657 0.016500
vn 3.073254 -0.261770 2.833918
v 0.492146 -0.716625 0.016510
vn -2.632004 1.677283 2.912010
v 0.415228 -0.687913 0.016500
vn -0.215716 3.109178 2.896836
v 0.447269 -0.669701 0.016500
vn 0.977338 2.974988 -2.981384
v 0.463204 -0.671813 -0.015500
vn 0.990591 2.970698 2.981813
v 0.463378 -0.671870 0.016500
vn 0.465699 3.093526 2.958940
v 0.456780 -0.670246 0.016500
vn 0.740744 -3.026494 -2.886293
v 0.460292 -0.753113 -0.015500
vn 1.444518 2.777380 -3.011392
v 0.469501 -0.674463 -0.015500
vn -1.873849 2.508554 2.976174
v 0.424626 -0.678155 0.016500
vn -0.577444 3.073763 -2.961350
v 0.442930 -0.670295 -0.015500
vn -0.929581 2.985900 2.960806
v 0.436634 -0.671866 0.016500
vn -2.492980 1.911921 -2.846734
v 0.417316 -0.685002 -0.015476
vn 0.479245 3.093991 -2.973079
v 0.456558 -0.670211 -0.015500
vn 2.167767 2.223001 -2.875646
v 0.478615 -0.680583 -0.015500
vn 2.311393 1.853070 2.871544
v 0.481796 -0.684041 0.016587
vn -3.161693 -0.655499 -2.830510
v 0.408488 -0.721453 -0.015424
vn -1.814983 -2.503338 2.806968
v 0.425179 -0.746529 0.016500
vn -1.381249 -2.811754 -2.948057
v 0.430879 -0.749773 -0.015493
vn -0.987246 -2.962907 2.940027
v 0.437990 -0.752559 0.016500
vn -0.720559 -3.034650 -2.910485
v 0.440156 -0.753219 -0.015500
vn -1.898577 -2.476118 -2.976111
v 0.424704 -0.745903 -0.015500
vn -2.922806 1.080251 -2.895375
v 0.409604 -0.699451 -0.015500
vn -2.251561 2.177212 2.991035
v 0.419534 -0.682655 0.016500
vn -1.899472 2.481719 -2.945199
v 0.424284 -0.678413 -0.015500
vn 1.904447 -2.486585 -2.995698
v 0.475711 -0.745589 -0.015500
vn 2.351772 -1.780211 2.889452
v 0.483285 -0.738169 0.016582
vn 2.278835 -2.148687 -2.991697
v 0.480786 -0.741009 -0.015500
vn 2.652562 -1.642885 -2.917563
v 0.485057 -0.735671 -0.015500
vn 1.435067 -2.779490 -2.964635
v 0.469964 -0.749292 -0.015500
vn 3.094551 0.276520 -2.848771
v 0.492229 -0.708323 -0.015500
vn 0.117526 -3.123480 2.942203
v 0.450000 -0.754288 0.016500
vn 0.033282 -3.120978 -2.912785
v 0.450218 -0.754313 -0.015500
# 52 vertices, 0 vertices normals

f 33//33 15//15 23//23
f 31//31 22//22 23//23
f 31//31 17//17 22//22
f 8//8 34//34 28//28
f 28//28 34//34 42//42
f 42//42 15//15 33//33
f 28//28 42//42 24//24
f 24//24 42//42 33//33
f 34//34 50//50 48//48
f 42//42 34//34 48//48
f 2//2 1//1 20//20
f 1//1 5//5 20//20
f 14//14 42//42 48//48
f 19//19 2//2 20//20
f 47//47 3//3 45//45
f 46//46 3//3 47//47
f 45//45 14//14 47//47
f 47//47 14//14 48//48
f 10//10 3//3 11//11
f 49//49 14//14 45//45
f 27//27 14//14 49//49
f 34//34 8//8 35//35
f 42//42 32//32 44//44
f 18//18 25//25 26//26
f 24//24 25//25 28//28
f 22//22 18//18 23//23
f 23//23 18//18 26//26
f 26//26 24//24 33//33
f 50//50 34//34 12//12
f 27//27 52//52 14//14
f 42//42 19//19 22//22
f 38//38 14//14 40//40
f 29//29 17//17 16//16
f 29//29 22//22 17//17
f 40//40 14//14 52//52
f 46//46 11//11 3//3
f 3//3 49//49 45//45
f 49//49 10//10 27//27
f 8//8 28//28 7//7
f 7//7 28//28 25//25
f 25//25 18//18 7//7
f 16//16 42//42 44//44
f 30//30 23//23 15//15
f 15//15 42//42 30//30
f 42//42 16//16 30//30
f 50//50 18//18 21//21
f 40//40 13//13 39//39
f 39//39 13//13 51//51
f 51//51 37//37 39//39
f 5//5 37//37 51//51
f 20//20 5//5 51//51
f 51//51 11//11 20//20
f 51//51 10//10 11//11
f 40//40 39//39 38//38
f 5//5 1//1 4//4
f 1//1 14//14 4//4
f 38//38 39//39 37//37
f 41//41 14//14 38//38
f 41//41 4//4 14//14
f 37//37 5//5 4//4
f 2//2 36//36 1//1
f 43//43 22//22 29//29
f 6//6 21//21 11//11
f 6//6 48//48 50//50
f 11//11 48//48 6//6
f 9//9 18//18 35//35
f 9//9 7//7 18//18
f 31//31 30//30 16//16
f 12//12 18//18 50//50
f 52//52 27//27 10//10
f 42//42 2//2 19//19
f 41//41 37//37 4//4
f 44//44 43//43 29//29
f 21//21 6//6 50//50
f 48//48 11//11 46//46
f 46//46 47//47 48//48
f 3//3 10//10 49//49
f 9//9 8//8 7//7
f 8//8 9//9 35//35
f 13//13 40//40 52//52
f 51//51 52//52 10//10
f 37//37 41//41 38//38
f 22//22 32//32 42//42
f 12//12 35//35 18//18
f 13//13 52//52 51//51
f 1//1 36//36 14//14
f 16//16 17//17 31//31
f 18//18 19//19 20//20
f 20//20 11//11 18//18
f 22//22 19//19 18//18
f 11//11 21//21 18//18
f 26//26 25//25 24//24
f 44//44 29//29 16//16
f 30//30 31//31 23//23
f 26//26 33//33 23//23
f 35//35 12//12 34//34
f 2//2 42//42 14//14
f 14//14 36//36 2//2
f 32//32 22//22 43//43
f 44//44 32//32 43//43
# 100 faces, 0 coords texture

# End of File