####
#
# OBJ File Generated by Meshlab
#
####
# Object link3_chull.obj
#
# Vertices: 52
# Faces: 100
#
####
vn -2.201522 -2.798831 -2.375618
v -0.048480 -0.800755 -0.049539
vn -0.729025 -6.164162 -0.075045
v -0.023923 -0.808995 0.001973
vn -2.116436 -3.205493 1.917375
v -0.044428 -0.805331 0.068515
vn 1.772667 5.514350 1.518988
v 0.182061 -0.613439 0.065595
vn -3.464196 0.784708 2.733982
v -0.077209 -0.684951 0.072112
vn -2.790641 3.603968 1.763299
v -0.043253 -0.615826 0.061175
vn 0.535874 -5.246549 -2.287519
v 0.132209 -0.806380 -0.048000
vn -0.489906 -5.261906 -2.249949
v -0.022249 -0.806373 -0.047998
vn -0.726872 -2.264416 -5.205296
v -0.021205 -0.796650 -0.057886
vn 0.644535 -3.421443 -4.814437
v 0.139203 -0.796380 -0.058000
vn -3.464657 0.237534 -3.850183
v -0.075144 -0.692329 -0.050009
vn -0.924057 -0.020546 -6.211972
v 0.015000 -0.712000 -0.065000
vn -1.950877 3.272408 -2.063527
v -0.039832 -0.611576 -0.047850
vn 0.578196 3.578576 -4.840470
v 0.171493 -0.621628 -0.058050
vn 0.991656 5.064249 -2.176777
v 0.178627 -0.611353 -0.046068
vn -0.856393 2.255796 -5.143028
v -0.022805 -0.620875 -0.057667
vn 1.049051 6.057097 -0.001705
v 0.179303 -0.609016 -0.000070
vn -0.666585 6.180241 0.078074
v -0.023770 -0.609006 -0.000015
vn 0.638524 -5.105473 2.443813
v 0.111368 -0.805331 0.072000
vn -0.706220 -2.311924 4.993479
v -0.020269 -0.794836 0.082079
vn 0.619507 -2.438131 5.111708
v 0.111368 -0.795331 0.082000
vn 0.771025 3.633344 3.086231
v 0.171676 -0.612868 0.073306
vn -0.739724 5.048347 2.439100
v -0.015500 -0.612773 0.072000
vn -1.065582 2.242864 4.958886
v -0.015500 -0.622773 0.082000
vn 0.272282 2.059236 5.484730
v 0.132204 -0.622773 0.082000
vn 0.856301 -6.100932 0.126451
v 0.144500 -0.809082 0.003672
vn -3.978423 -1.567554 -2.467149
v -0.064335 -0.778436 -0.045378
vn -3.473608 -0.703828 2.678325
v -0.077643 -0.737513 0.072344
vn -0.329246 -0.718257 -6.159321
v 0.149693 -0.718849 -0.083011
vn 0.489060 -1.043772 -5.997140
v 0.175295 -0.720516 -0.083218
vn -0.491173 0.383330 -6.208798
v 0.145468 -0.686606 -0.083000
vn 0.388775 1.314603 -5.894041
v 0.169532 -0.676396 -0.083246
vn 3.338953 0.404001 3.085446
v 0.308500 -0.691824 0.063000
vn 3.693879 2.725524 -1.312580
v 0.308500 -0.661568 -0.041663
vn 3.347598 1.648371 -2.594768
v 0.308500 -0.674040 -0.056527
vn 3.370093 -1.621077 -2.649328
v 0.308500 -0.742202 -0.054449
vn 3.203052 -0.629788 -3.038571
v 0.308500 -0.722205 -0.063000
vn 3.862346 2.749880 1.243788
v 0.308500 -0.661568 0.041663
vn 3.649503 1.625566 2.566494
v 0.308500 -0.674040 0.056527
vn 3.685934 -2.446115 1.848271
v 0.308500 -0.758096 0.039645
vn 3.502990 -2.993729 0.681913
v 0.308500 -0.768000 0.020240
vn 3.477053 -2.990766 -0.703522
v 0.308500 -0.768000 -0.020240
vn 3.304774 0.517041 -3.065736
v 0.308500 -0.691824 -0.063000
vn 3.601707 -1.637642 2.608698
v 0.308500 -0.742202 0.054449
vn 3.570429 -2.442615 -1.882684
v 0.308500 -0.758096 -0.039645
vn 4.008423 2.941103 -0.027606
v 0.308839 -0.655365 -0.000365
vn 3.263587 -0.515742 3.059603
v 0.308500 -0.722205 0.063000
vn -5.744637 0.525173 -1.112694
v -0.078972 -0.691051 -0.040186
vn -4.538013 2.265092 -2.090194
v -0.063651 -0.643901 -0.041620
vn -0.209165 -0.225462 6.257669
v 0.010587 -0.764557 0.084963
vn -0.248440 0.196002 6.256331
v 0.011702 -0.658209 0.085041
vn 0.428125 -0.095124 6.244035
v 0.128108 -0.720845 0.085020
# 52 vertices, 0 vertices normals

f 35//35 32//32 14//14
f 7//7 10//10 45//45
f 44//44 21//21 40//40
f 12//12 9//9 11//11
f 1//1 11//11 9//9
f 11//11 1//1 27//27
f 8//8 1//1 9//9
f 8//8 2//2 1//1
f 3//3 28//28 27//27
f 42//42 7//7 45//45
f 14//14 32//32 16//16
f 11//11 16//16 12//12
f 30//30 37//37 10//10
f 30//30 10//10 9//9
f 30//30 9//9 29//29
f 45//45 10//10 36//36
f 37//37 36//36 10//10
f 43//43 32//32 35//35
f 38//38 46//46 4//4
f 39//39 38//38 4//4
f 47//47 21//21 44//44
f 15//15 34//34 35//35
f 15//15 35//35 14//14
f 6//6 24//24 23//23
f 18//18 13//13 6//6
f 19//19 41//41 40//40
f 19//19 40//40 21//21
f 19//19 26//26 41//41
f 3//3 1//1 2//2
f 27//27 1//1 3//3
f 7//7 42//42 26//26
f 26//26 42//42 41//41
f 13//13 16//16 11//11
f 31//31 12//12 16//16
f 30//30 43//43 37//37
f 34//34 15//15 46//46
f 23//23 18//18 6//6
f 17//17 4//4 46//46
f 17//17 46//46 15//15
f 22//22 4//4 17//17
f 20//20 24//24 5//5
f 11//11 49//49 13//13
f 28//28 3//3 20//20
f 31//31 29//29 12//12
f 29//29 9//9 12//12
f 31//31 16//16 32//32
f 32//32 43//43 30//30
f 33//33 22//22 25//25
f 22//22 33//33 39//39
f 22//22 39//39 4//4
f 51//51 24//24 20//20
f 52//52 33//33 25//25
f 5//5 24//24 6//6
f 21//21 47//47 52//52
f 48//48 49//49 11//11
f 6//6 13//13 49//49
f 5//5 6//6 49//49
f 51//51 52//52 25//25
f 28//28 48//48 27//27
f 52//52 50//50 21//21
f 7//7 2//2 8//8
f 7//7 26//26 2//2
f 8//8 9//9 7//7
f 7//7 9//9 10//10
f 13//13 15//15 14//14
f 13//13 14//14 16//16
f 15//15 13//13 17//17
f 17//17 13//13 18//18
f 19//19 20//20 3//3
f 20//20 19//19 21//21
f 22//22 17//17 18//18
f 18//18 23//23 22//22
f 22//22 23//23 24//24
f 25//25 22//22 24//24
f 2//2 19//19 3//3
f 19//19 2//2 26//26
f 32//32 29//29 31//31
f 32//32 30//30 29//29
f 35//35 34//34 33//33
f 33//33 36//36 37//37
f 33//33 38//38 39//39
f 33//33 40//40 41//41
f 46//46 33//33 34//34
f 41//41 42//42 33//33
f 37//37 43//43 33//33
f 44//44 40//40 33//33
f 33//33 42//42 45//45
f 45//45 36//36 33//33
f 33//33 43//43 35//35
f 46//46 38//38 33//33
f 33//33 47//47 44//44
f 51//51 20//20 50//50
f 48//48 5//5 49//49
f 11//11 27//27 48//48
f 28//28 20//20 5//5
f 51//51 25//25 24//24
f 33//33 52//52 47//47
f 50//50 20//20 21//21
f 52//52 51//51 50//50
f 48//48 28//28 5//5
# 100 faces, 0 coords texture

# End of File