# File produced by Open Asset Import Library (http://www.assimp.sf.net)
# (assimp v3.1.187496374)

mtllib inner_finger_coarse.obj.mtl

# 120 vertex positions
v  0.0179014 0.0075 -0.0115147
v  -0.0078003 0.011 0.00699966
v  -0.0010003 0.011 0.00699996
v  -0.00100177 -0.0106985 0.0407101
v  0.0235395 -0.007 -0.00446234
v  0.00399835 -0.007 0.0380002
v  -0.00780173 -0.010924 0.0398679
v  -0.00780177 -0.0106985 0.0407098
v  -0.00100173 -0.010924 0.0398682
v  -0.00780184 -0.00983022 0.0422136
v  -0.0078017 -0.011 0.0389997
v  -0.0078018 -0.0103301 0.0414997
v  -0.00780186 -0.00921394 0.0428299
v  -0.00780188 -0.0085 0.0433298
v  -0.00780184 0.00983022 0.0422136
v  -0.0078003 -0.011 0.00699966
v  -0.0078017 0.011 0.0389997
v  -0.00780173 0.010924 0.0398679
v  -0.00780186 0.00921394 0.0428299
v  -0.00780188 0.0085 0.0433298
v  -0.0078018 0.0103301 0.0414997
v  -0.00780191 0.00686824 0.0439237
v  -0.0078019 0.0077101 0.0436981
v  -0.00780191 -0.006 0.0439997
v  -0.00780191 0.006 0.0439997
v  -0.00780191 -0.00686824 0.0439237
v  -0.0078019 -0.0077101 0.0436981
v  -0.00780177 0.0106985 0.0407098
v  0.0179014 -0.0075 -0.0115147
v  -0.0010003 -0.011 0.00699996
v  0.0238102 -0.007 -0.00547256
v  0.0228255 -0.0075 -0.00564647
v  0.0239014 -0.007 -0.00651444
v  -0.0010017 -0.011 0.039
v  0.0225999 -0.0075 -0.00480461
v  0.00399835 0.007 0.0380002
v  0.0235395 0.007 -0.00446234
v  -0.00100177 0.0106985 0.0407101
v  -0.00100173 0.010924 0.0398682
v  0.0225999 0.0075 -0.00480461
v  -0.0010017 0.011 0.039
v  0.0238102 0.007 -0.00547256
v  -0.00100191 -0.006 0.044
v  -0.00100191 -0.00686824 0.043924
v  -0.0010018 -0.0103301 0.0415
v  0.0229014 0.0075 -0.00651471
v  -0.00100186 -0.00921394 0.0428302
v  -0.00100184 -0.00983022 0.0422139
v  -0.0010019 -0.0077101 0.0436984
v  0.0204014 0.0075 -0.0108448
v  0.0196115 0.0075 -0.0112132
v  0.0211154 0.0075 -0.0103449
v  0.0238103 0.007 -0.00755634
v  0.0239014 0.007 -0.00651444
v  0.0229014 -0.0075 -0.00651471
v  0.0228255 -0.0075 -0.00738295
v  -0.0010019 0.0077101 0.0436984
v  -0.00100188 0.0085 0.0433301
v  -0.00100184 0.00983022 0.0422139
v  -0.00100186 0.00921394 0.0428302
v  0.0228255 0.0075 -0.00564647
v  0.0225999 0.0075 -0.00822481
v  0.0222316 0.0075 -0.00901471
v  0.0230977 0.007 -0.00951448
v  -0.00100188 -0.0085 0.0433301
v  0.0187697 0.0075 -0.0114387
v  0.0217316 0.0075 -0.00972865
v  0.0225999 -0.0075 -0.00822481
v  0.0222316 -0.0075 -0.00901471
v  0.0235397 -0.007 -0.00856658
v  -0.0025 -0.0075 -0.00433012
v  -0.00171011 -0.0075 -0.00469846
v  -0.00100191 0.00686824 0.043924
v  -0.00100191 0.006 0.044
v  -0.0010018 0.0103301 0.0415
v  0.0228255 0.0075 -0.00738295
v  0.0238103 -0.007 -0.00755634
v  0.0235397 0.007 -0.00856658
v  -0.0025 0.0075 -0.00433012
v  -0.00171011 0.0075 -0.00469846
v  -0.0059088 -0.007 -0.00104215
v  -0.00563807 -0.007 -0.00205237
v  0.0158495 -0.007 -0.012153
v  0.0161913 -0.0075 -0.0112132
v  -0.00205188 -0.007 -0.00563825
v  0.0199538 0.007 -0.0121528
v  0.0217584 -0.007 -0.0111108
v  0.0211154 -0.0075 -0.0103449
v  0.0209017 -0.007 -0.0117107
v  0.0217316 -0.0075 -0.00972865
v  0.0224979 -0.007 -0.0103712
v  0.0196115 -0.0075 -0.0112132
v  0.0204014 -0.0075 -0.0108448
v  -0.00563807 0.007 -0.00205237
v  -0.0059088 0.007 -0.00104215
v  -0.0045961 -0.007 -0.00385693
v  -0.00385652 -0.007 -0.00459643
v  0.0161913 0.0075 -0.0112132
v  0.0158495 0.007 -0.012153
v  -0.00205188 0.007 -0.00563825
v  0.0170332 -0.0075 -0.0114387
v  -0.00299978 -0.007 -0.00519628
v  0.0230977 -0.007 -0.00951448
v  0.0189436 0.007 -0.0124235
v  0.0209017 0.007 -0.0117107
v  -0.0045961 0.007 -0.00385693
v  -0.00385652 0.007 -0.00459643
v  0.0170332 0.0075 -0.0114387
v  -0.00299978 0.007 -0.00519628
v  0.0179017 0.007 -0.0125147
v  0.0217584 0.007 -0.0111108
v  0.0187697 -0.0075 -0.0114387
v  0.0189436 -0.007 -0.0124235
v  0.0199538 -0.007 -0.0121528
v  0.0168598 -0.007 -0.0124236
v  -0.00519602 -0.007 -0.00300023
v  0.0168598 0.007 -0.0124236
v  0.0224979 0.007 -0.0103712
v  0.0179017 -0.007 -0.0125147
v  -0.00519602 0.007 -0.00300023

# 0 UV coordinates

# 197 vertex normals
vn 8.12004e-06 0.982599 -0.185742
vn 0.667928 -0.677783 0.307379
vn -1.13441e-05 -0.965926 0.258819
vn -1.13441e-05 -0.965926 0.258819
vn -1 -8.60447e-08 -4.34351e-05
vn -1 -2.41989e-06 -4.2496e-05
vn -1 -1.66181e-06 -4.14072e-05
vn -1 8.60357e-08 -4.34351e-05
vn -1 0 -4.34811e-05
vn -1 1.66181e-06 -4.14072e-05
vn -1 2.31549e-07 -4.2487e-05
vn -1 9.61583e-07 -4.30268e-05
vn -1 0 -4.29111e-05
vn -1 -2.31549e-07 -4.2487e-05
vn -1 2.41989e-06 -4.2496e-05
vn 8.12004e-06 -0.982599 -0.185742
vn 0.446877 -0.89374 0.0391171
vn 0.282134 -0.956392 0.0755963
vn 0.433286 -0.893747 0.116097
vn 0.433296 -0.89374 0.11612
vn 0.528175 -0.820196 0.219794
vn 0.295678 -0.951651 0.0832721
vn 0.420087 -0.894427 0.153386
vn -3.81973e-06 -0.996195 0.0871562
vn -3.81979e-06 -0.996195 0.0871562
vn 0.667928 0.677783 0.307379
vn 0.528175 0.820196 0.219794
vn -1.13432e-05 0.965926 0.258819
vn -1.13432e-05 0.965926 0.258819
vn 0.295677 0.951652 0.0832715
vn 0.420087 0.894427 0.153386
vn 0.433296 0.89374 0.11612
vn -3.81973e-06 0.996195 0.0871562
vn -3.81973e-06 0.996195 0.0871562
vn 0.762327 -0.0564045 0.644729
vn -1.85207e-05 -0.906308 0.422618
vn -1.85221e-05 -0.906308 0.422618
vn 0.144891 0.989448 6.30651e-06
vn 0.705736 -0.500951 0.500983
vn -3.09904e-05 -0.707106 0.707108
vn -3.09894e-05 -0.707106 0.707108
vn 0.751047 -0.170876 0.637754
vn 0.0580989 0.990505 -0.124594
vn 0.0740237 0.991637 -0.105717
vn 0.446879 0.89374 -0.039077
vn 0.446862 -0.893748 0.0390941
vn 0.138182 -0.990333 -0.0120892
vn 0.144891 -0.989448 6.29845e-06
vn 0.173022 -0.984802 0.0151369
vn -3.97207e-05 0.42262 0.906307
vn -3.97207e-05 0.42262 0.906307
vn 0.705736 0.500951 0.500983
vn -3.09904e-05 0.707106 0.707108
vn -3.09904e-05 0.707106 0.707108
vn 0.282134 0.956392 0.0755963
vn 0.173022 0.984802 0.0151369
vn 0.433286 0.893747 0.116097
vn 0.446877 0.89374 0.0391171
vn 0.446862 0.893748 0.0390941
vn 0.113117 0.992181 -0.0527469
vn 0.406545 0.893746 -0.189574
vn -3.59009e-05 0.573576 0.819152
vn 0.668728 -0.673835 0.314244
vn 0.687616 -0.594752 0.416478
vn -2.5138e-05 -0.819153 0.573575
vn -2.51386e-05 -0.819153 0.573575
vn 0.72257 -0.396497 0.566289
vn 0.737751 -0.285287 0.611829
vn 0.0149574 0.985164 -0.170965
vn 0.0390575 0.988548 -0.145767
vn 0.100837 0.992394 -0.0706078
vn 0.0880066 0.992225 -0.0880065
vn 0.125377 -0.99154 -0.0335944
vn 0.113117 -0.992181 -0.0527469
vn 0.433287 -0.893747 -0.116098
vn -0.168892 -0.916675 -0.362191
vn 0.762327 0.0564045 0.644729
vn 0.751047 0.170876 0.637754
vn 0.72257 0.396497 0.566289
vn 0.737751 0.285287 0.611829
vn 0.668728 0.673835 0.314244
vn 0.687616 0.594752 0.416478
vn -2.51386e-05 0.819153 0.573575
vn -2.5138e-05 0.819153 0.573575
vn 0.138182 0.990333 -0.0120892
vn 0.125377 0.99154 -0.0335944
vn 0.446863 0.893748 -0.0390951
vn -3.59001e-05 -0.573576 0.819152
vn -3.97173e-05 -0.42262 0.906307
vn -3.97207e-05 -0.42262 0.906307
vn 0.433305 -0.89374 -0.116085
vn 0.446879 -0.89374 -0.039077
vn 0.446863 -0.893748 -0.0390951
vn 0.406566 0.893739 -0.189564
vn 0.433305 0.89374 -0.116085
vn 0.433287 0.893747 -0.116098
vn -0.168892 0.916675 -0.362191
vn -0.963963 -0.0635409 -0.258338
vn -0.152938 -0.894428 -0.420249
vn -0.152938 -0.894427 -0.42025
vn -0.125033 -0.930765 -0.343573
vn -1.85221e-05 0.906308 0.422618
vn 0.189574 0.893747 -0.406543
vn 0.257314 -0.89374 -0.367448
vn 0.100837 -0.992394 -0.0706078
vn 0.0880066 -0.992225 -0.0880065
vn 0.367444 -0.893748 -0.257292
vn 0.317187 -0.893748 -0.317187
vn 0.317211 -0.89374 -0.317184
vn 0.058099 -0.990505 -0.124594
vn 0.0740237 -0.991637 -0.105717
vn 0.257289 -0.893748 -0.367447
vn -0.963963 0.0635409 -0.258338
vn -0.420294 -0.804161 -0.42033
vn -0.152938 0.894428 -0.420249
vn -0.152938 0.894427 -0.42025
vn -0.125033 0.930765 -0.343573
vn -0.0184013 -0.977458 -0.210326
vn -0.0760686 -0.955835 -0.28389
vn -0.116099 -0.893748 -0.433285
vn -0.189574 -0.893748 -0.406542
vn -0.189562 -0.89374 -0.406565
vn -0.277437 -0.87522 -0.396257
vn -0.22971 -0.894404 -0.383763
vn 0.367473 -0.893739 -0.257283
vn 0.406545 -0.893746 -0.189574
vn 0.406566 -0.893739 -0.189564
vn 0.116097 0.893748 -0.433285
vn 0.116122 0.89374 -0.433295
vn 0.257289 0.893748 -0.367447
vn 0.189598 0.89374 -0.406548
vn -0.420294 0.804161 -0.42033
vn -0.0184013 0.977458 -0.210326
vn -0.0760686 0.955835 -0.28389
vn -0.116099 0.893748 -0.433285
vn -0.277437 0.87522 -0.396257
vn -0.22971 0.894404 -0.383763
vn -0.189574 0.893748 -0.406542
vn -0.189562 0.89374 -0.406565
vn 0.0390952 0.893748 -0.446863
vn 0.0391164 0.89374 -0.446876
vn 0.317187 0.893748 -0.317187
vn 0.257314 0.89374 -0.367448
vn 0.116097 -0.893748 -0.433285
vn 0.0149578 -0.985164 -0.170965
vn 0.0390577 -0.988548 -0.145767
vn 0.116122 -0.89374 -0.433295
vn 0.189574 -0.893747 -0.406543
vn 0.189598 -0.89374 -0.406548
vn -0.0390958 -0.893748 -0.446863
vn -0.116083 -0.89374 -0.433306
vn -0.821292 -0.422819 -0.383019
vn -0.608638 -0.669254 -0.426213
vn -0.0390958 0.893748 -0.446863
vn -0.0390774 0.89374 -0.44688
vn -0.116083 0.89374 -0.433306
vn 0.317211 0.89374 -0.317184
vn 0.367473 0.893739 -0.257283
vn 0.367444 0.893748 -0.257292
vn -0.0390774 -0.89374 -0.44688
vn 0.0390952 -0.893748 -0.446863
vn 0.0391164 -0.89374 -0.446876
vn -0.821292 0.422819 -0.383019
vn -0.608638 0.669254 -0.426213
vn 0 -1 0
vn 0.908422 0 0.418054
vn 0.996191 0 0.0872009
vn 0.965915 0 0.258858
vn 0 1 0
vn 0.768194 0 0.640217
vn -4.38269e-05 0 1
vn -4.36606e-05 -0.0871571 0.996195
vn -4.23334e-05 -0.258817 0.965926
vn -4.23336e-05 -0.258817 0.965926
vn -4.36594e-05 0.0871571 0.996195
vn -4.36602e-05 0.0871571 0.996195
vn -4.23336e-05 0.258817 0.965926
vn -4.23334e-05 0.258817 0.965926
vn 0.996199 0 -0.0871118
vn 0.965936 0 -0.25878
vn -0.973436 0 -0.22896
vn -0.965915 0 -0.258861
vn -0.341979 0 -0.939708
vn 0.906326 0 -0.422579
vn -0.707076 0 -0.707138
vn -0.573542 0 -0.819176
vn -0.422578 0 -0.906326
vn 0.573613 0 -0.819127
vn 0.422657 0 -0.90629
vn 0.258862 0 -0.965914
vn -0.258776 -0 -0.965937
vn 0.819178 0 -0.573539
vn 0.707138 0 -0.707076
vn 0.0871994 0 -0.996191
vn -0.0871124 0 -0.996198
vn -0.906289 0 -0.422659
vn -0.819127 0 -0.573613

# Mesh '<STL_BINARY>' with 236 faces
g <STL_BINARY>
usemtl DefaultMaterial
f  1//1 2//1 3//1
f  4//2 5//2 6//2
f  7//3 4//3 8//3
f  4//3 7//3 9//4
f  7//5 10//5 11//5
f  12//6 7//5 8//6
f  7//5 12//6 10//5
f  10//5 13//7 14//7
f  11//5 10//5 15//8
f  14//7 15//8 10//5
f  16//9 11//5 17//8
f  15//8 17//8 11//5
f  17//8 15//8 18//8
f  19//10 15//8 20//11
f  18//8 15//8 21//12
f  15//8 14//7 20//11
f  17//8 2//9 16//9
f  22//11 23//11 20//11
f  14//7 22//11 20//11
f  22//11 24//13 25//13
f  22//11 26//14 24//13
f  26//14 22//11 14//7
f  27//14 26//14 14//7
f  21//12 28//15 18//8
f  29//16 30//16 16//16
f  31//17 32//17 33//17
f  34//18 32//18 35//18
f  31//19 35//19 32//19
f  35//20 31//20 5//20
f  9//21 5//21 4//21
f  34//22 35//22 9//22
f  9//23 35//23 5//23
f  9//24 11//24 34//24
f  9//24 7//25 11//24
f  36//26 37//26 38//26
f  38//27 37//27 39//27
f  18//28 38//28 39//28
f  28//29 38//28 18//28
f  40//30 41//30 39//30
f  37//31 40//31 39//31
f  42//32 40//32 37//32
f  39//33 41//33 17//33
f  17//33 18//34 39//33
f  43//35 44//35 6//35
f  12//36 8//36 4//36
f  45//37 12//36 4//36
f  46//38 3//38 41//38
f  6//39 47//39 48//39
f  48//40 47//40 10//40
f  10//40 47//40 13//41
f  44//42 49//42 6//42
f  3//43 50//43 51//43
f  52//44 50//44 3//44
f  53//45 46//45 54//45
f  33//46 32//46 55//46
f  56//47 55//47 30//47
f  30//48 55//48 34//48
f  55//49 32//49 34//49
f  57//50 20//50 23//50
f  58//51 20//50 57//50
f  59//52 60//52 36//52
f  59//53 15//53 60//53
f  60//53 15//53 19//54
f  41//55 40//55 61//55
f  61//56 46//56 41//56
f  61//57 40//57 42//57
f  61//58 42//58 54//58
f  46//59 61//59 54//59
f  62//60 63//60 3//60
f  62//61 64//61 63//61
f  19//62 20//62 60//62
f  58//62 60//62 20//62
f  45//63 4//63 6//63
f  6//64 48//64 45//64
f  45//65 10//65 12//65
f  45//65 48//66 10//65
f  65//67 47//67 6//67
f  49//68 65//68 6//68
f  66//69 1//69 3//69
f  3//70 51//70 66//70
f  63//71 67//71 3//71
f  67//72 52//72 3//72
f  68//73 56//73 30//73
f  69//74 68//74 30//74
f  68//75 70//75 56//75
f  71//76 72//76 16//76
f  73//77 74//77 36//77
f  57//78 73//78 36//78
f  36//79 60//79 58//79
f  58//80 57//80 36//80
f  36//81 38//81 75//81
f  75//82 59//82 36//82
f  75//83 15//83 59//83
f  21//84 15//83 75//83
f  76//85 3//85 46//85
f  76//86 62//86 3//86
f  53//87 76//87 46//87
f  14//88 13//88 47//88
f  47//88 65//88 14//88
f  14//89 49//89 27//89
f  14//89 65//90 49//89
f  56//91 70//91 77//91
f  33//92 55//92 77//92
f  77//93 55//93 56//93
f  78//94 64//94 62//94
f  78//95 76//95 53//95
f  78//96 62//96 76//96
f  79//97 2//97 80//97
f  81//98 82//98 16//98
f  72//99 83//99 84//99
f  85//100 83//99 72//99
f  84//101 16//101 72//101
f  38//102 28//102 21//102
f  21//102 75//102 38//102
f  86//103 51//103 50//103
f  87//104 88//104 89//104
f  90//105 69//105 30//105
f  88//106 90//106 30//106
f  90//107 91//107 69//107
f  90//108 88//108 87//108
f  90//109 87//109 91//109
f  92//110 93//110 30//110
f  93//111 88//111 30//111
f  93//112 89//112 88//112
f  94//113 95//113 2//113
f  96//114 97//114 16//114
f  98//115 99//115 80//115
f  80//115 99//115 100//116
f  98//117 80//117 2//117
f  101//118 29//118 16//118
f  101//119 16//119 84//119
f  101//120 84//120 83//120
f  71//121 102//121 72//121
f  102//122 85//122 72//122
f  97//123 102//123 16//123
f  102//124 71//124 16//124
f  69//125 91//125 103//125
f  103//126 68//126 69//126
f  70//127 68//127 103//127
f  104//128 66//128 51//128
f  51//129 86//129 104//129
f  105//130 50//130 52//130
f  105//131 86//131 50//131
f  106//132 2//132 107//132
f  108//133 2//133 1//133
f  108//134 98//134 2//134
f  99//135 98//135 108//135
f  109//136 107//136 2//136
f  109//137 2//137 79//137
f  109//138 79//138 80//138
f  80//139 100//139 109//139
f  110//140 1//140 66//140
f  110//141 66//141 104//141
f  67//142 111//142 52//142
f  111//143 105//143 52//143
f  112//144 113//144 92//144
f  30//145 29//145 112//145
f  112//146 92//146 30//146
f  92//147 113//147 114//147
f  114//148 93//148 92//148
f  89//149 93//149 114//149
f  29//150 101//150 115//150
f  115//151 101//151 83//151
f  82//152 116//152 16//152
f  116//153 96//153 16//153
f  117//154 108//154 1//154
f  110//155 117//155 1//155
f  108//156 117//156 99//156
f  118//157 111//157 67//157
f  63//158 64//158 118//158
f  118//159 67//159 63//159
f  29//160 115//160 119//160
f  119//161 112//161 29//161
f  119//162 113//162 112//162
f  120//163 94//163 2//163
f  120//164 2//164 106//164
f  16//165 30//165 11//165
f  11//165 30//165 34//165
f  37//166 6//166 5//166
f  6//166 37//166 36//166
f  42//167 31//167 33//167
f  54//167 42//167 33//167
f  42//168 37//168 5//168
f  5//168 31//168 42//168
f  17//169 41//169 3//169
f  17//169 3//169 2//169
f  43//170 6//170 36//170
f  36//170 74//170 43//170
f  43//171 74//171 25//171
f  25//171 24//171 43//171
f  26//172 43//172 24//172
f  43//172 26//172 44//172
f  49//173 44//173 26//173
f  49//173 26//173 27//174
f  73//175 25//175 74//175
f  73//175 22//176 25//175
f  73//177 23//177 22//177
f  73//177 57//178 23//177
f  77//179 54//179 33//179
f  77//179 53//179 54//179
f  77//180 78//180 53//180
f  78//180 77//180 70//180
f  16//181 2//181 95//181
f  95//181 81//181 16//181
f  95//182 94//182 82//182
f  82//182 81//182 95//182
f  85//183 100//183 83//183
f  100//183 99//183 83//183
f  103//184 78//184 70//184
f  78//184 103//184 64//184
f  96//185 106//185 97//185
f  106//185 107//185 97//185
f  97//186 107//186 109//186
f  109//186 102//186 97//186
f  109//187 100//187 85//187
f  85//187 102//187 109//187
f  111//188 89//188 105//188
f  87//188 89//188 111//188
f  114//189 105//189 89//189
f  86//189 105//189 114//189
f  114//190 104//190 86//190
f  114//190 113//190 104//190
f  99//191 117//191 83//191
f  117//191 115//191 83//191
f  103//192 118//192 64//192
f  118//192 103//192 91//192
f  87//193 111//193 118//193
f  118//193 91//193 87//193
f  104//194 113//194 119//194
f  119//194 110//194 104//194
f  115//195 117//195 119//195
f  119//195 117//195 110//195
f  82//196 94//196 120//196
f  120//196 116//196 82//196
f  120//197 106//197 96//197
f  96//197 116//197 120//197

