####
#
# OBJ File Generated by Meshlab
#
####
# Object link_1_chull.obj
#
# Vertices: 112
# Faces: 220
#
####
vn 0.306006 -0.195191 0.931805
v -0.062376 0.003607 -0.011366
vn 0.262854 -0.113634 0.958121
v -0.063087 0.002252 -0.011366
vn 0.259328 -0.313887 0.913359
v -0.061361 0.004753 -0.011366
vn 0.262854 -0.113634 -0.958121
v -0.063087 0.002252 0.011366
vn 0.306006 -0.195191 -0.931805
v -0.062376 0.003607 0.011366
vn 0.259328 -0.313887 -0.913359
v -0.061361 0.004753 0.011366
vn -0.095740 0.890607 0.444582
v 0.002856 -0.027794 -0.009017
vn -0.080915 0.752680 -0.653395
v 0.002856 -0.027794 0.009017
vn -0.089026 0.884688 -0.457604
v -0.053697 -0.033605 0.009017
vn -0.074022 0.764948 0.639824
v -0.053697 -0.033605 -0.009017
vn -0.219008 0.874741 -0.432278
v 0.006786 -0.027103 0.009017
vn -0.186526 0.745003 0.640452
v 0.006786 -0.027103 -0.009017
vn -0.642400 -0.766369 -0.000763
v 0.004098 0.004884 0.009017
vn -0.640993 -0.767545 0.001305
v 0.004098 0.004884 -0.009017
vn -0.711234 -0.675637 0.194066
v 0.024937 -0.012602 -0.009017
vn -0.788022 -0.537631 -0.299957
v 0.024937 -0.012602 0.009017
vn -0.083564 -0.992597 -0.088138
v -0.010224 0.007493 0.015240
vn -0.109643 -0.993971 0.000433
v 0.000000 0.006375 -0.009017
vn -0.082487 -0.995344 0.049859
v -0.010224 0.007493 -0.015240
vn -0.110093 -0.993921 -0.000931
v 0.000000 0.006375 0.009017
vn 0.852987 -0.505104 0.131462
v -0.067049 0.005715 -0.009017
vn 0.834776 -0.494320 -0.242480
v -0.067049 0.005715 0.009017
vn 0.858605 -0.489749 -0.151472
v -0.078843 -0.014713 0.009017
vn 0.846501 -0.470480 0.249169
v -0.078843 -0.014713 -0.009017
vn -0.000029 -0.014340 0.999897
v 0.000000 0.006350 -0.015367
vn 0.054750 -0.103164 0.993156
v -0.044890 0.006350 -0.015367
vn 0.020414 -0.693238 0.720420
v -0.037910 0.007493 -0.015240
vn -0.308690 0.798630 0.516624
v 0.010577 -0.025861 -0.009017
vn -0.339182 0.786163 -0.516627
v 0.010577 -0.025861 0.009017
vn -0.421861 0.750397 0.508859
v 0.014153 -0.024090 -0.009017
vn -0.450415 0.733616 -0.508856
v 0.014153 -0.024090 0.009017
vn -0.618192 -0.779745 -0.099180
v 0.003847 0.005052 0.015367
vn -0.614222 -0.784051 0.089413
v 0.003847 0.005052 -0.015367
vn -0.209713 -0.977763 -0.000724
v 0.001470 0.006204 0.009017
vn -0.265997 -0.963973 0.000724
v 0.001470 0.006204 -0.009017
vn -0.000664 0.340646 -0.940192
v -0.057518 -0.033780 0.009017
vn 0.003945 0.340599 0.940201
v -0.057518 -0.033780 -0.009017
vn 0.237630 0.681547 -0.692117
v -0.068759 -0.031725 0.009017
vn 0.191026 0.789163 0.583721
v -0.065098 -0.032834 -0.009017
vn 0.146927 0.606982 -0.781016
v -0.065098 -0.032834 0.009017
vn 0.258382 0.673953 0.692117
v -0.068759 -0.031725 -0.009017
vn -0.568901 0.712061 0.411485
v 0.017440 -0.021829 -0.009017
vn -0.662771 0.622144 -0.416740
v 0.020371 -0.019122 0.009017
vn -0.570580 0.535619 0.622536
v 0.020371 -0.019122 -0.009017
vn -0.490894 0.614425 -0.617661
v 0.017440 -0.021829 0.009017
vn -0.448263 -0.893902 -0.000530
v 0.002861 0.005697 0.009017
vn -0.433757 -0.901029 0.001034
v 0.002861 0.005697 -0.009017
vn -0.073543 -0.996165 -0.047409
v -0.056253 0.011395 0.009017
vn -0.063570 -0.991735 0.111449
v -0.056253 0.011395 -0.009017
vn 0.138715 -0.942750 0.303284
v -0.058820 0.011307 -0.009017
vn 0.130472 -0.888501 -0.439936
v -0.058820 0.011307 0.009017
vn 0.053051 -0.102593 -0.993308
v -0.044890 0.006350 0.015367
vn -0.000030 -0.009265 -0.999957
v -0.000000 0.006350 0.015367
vn 0.022987 -0.762334 -0.646776
v -0.037910 0.007493 0.015240
vn 0.379492 0.243593 -0.892552
v -0.078652 -0.025189 0.009017
vn 0.630594 0.246488 0.735931
v -0.079611 -0.023212 -0.009017
vn 0.266736 0.173258 0.948069
v -0.078652 -0.025189 -0.009017
vn 0.643973 0.209056 -0.735931
v -0.079611 -0.023212 0.009017
vn 0.102262 0.819159 -0.564377
v -0.061335 -0.033522 0.009017
vn 0.079723 0.638611 0.765389
v -0.061335 -0.033522 -0.009017
vn 0.350904 0.701032 -0.620823
v -0.072271 -0.030209 0.009017
vn 0.380056 0.604008 0.700522
v -0.075589 -0.028306 -0.009017
vn 0.374625 0.543829 -0.750937
v -0.075589 -0.028306 0.009017
vn 0.262946 0.525310 0.809265
v -0.072271 -0.030209 -0.009017
vn 0.534215 0.524993 0.662568
v -0.077290 -0.026914 -0.009017
vn 0.388638 0.381930 -0.838505
v -0.077290 -0.026914 0.009017
vn 0.320710 -0.903019 -0.285835
v -0.061302 0.010649 0.009017
vn 0.375181 -0.881781 0.285836
v -0.061302 0.010649 -0.009017
vn 0.781177 0.099386 0.616348
v -0.080123 -0.021075 -0.009017
vn 0.587218 0.074709 -0.805974
v -0.080123 -0.021075 0.009017
vn 0.753831 -0.045896 -0.655464
v -0.080162 -0.018878 0.009017
vn 0.749838 -0.090056 0.655464
v -0.080162 -0.018878 -0.009017
vn 0.546130 -0.189542 -0.815975
v -0.079729 -0.016723 0.009017
vn 0.419075 -0.150881 0.895327
v -0.079729 -0.016723 -0.009017
vn -0.746514 0.522694 0.411713
v 0.022887 -0.016025 -0.009017
vn -0.644062 0.450959 -0.617915
v 0.022887 -0.016025 0.009017
vn 0.738131 -0.640034 -0.213354
v -0.065523 0.007781 0.009017
vn 0.693145 -0.688496 0.213361
v -0.065523 0.007781 -0.009017
vn -0.028788 0.020218 0.999381
v 0.006490 -0.006032 -0.015367
vn -0.382351 -0.202078 0.901650
v 0.005614 0.002967 -0.015367
vn -0.414109 -0.351012 0.839824
v 0.004844 0.004106 -0.015367
vn -0.124847 -0.942484 0.310060
v 0.001367 0.006201 -0.015367
vn -0.287288 -0.671873 0.682680
v 0.002669 0.005762 -0.015367
vn 0.119653 -0.011510 0.992749
v -0.049336 -0.000000 -0.015367
vn 0.033423 0.170741 0.984749
v -0.044890 -0.006350 -0.015367
vn -0.013663 0.253126 0.967337
v 0.005855 -0.006350 -0.015367
vn -0.072166 0.288961 0.954617
v 0.006037 -0.006329 -0.015367
vn -0.354940 -0.097957 0.929743
v 0.006121 0.001689 -0.015367
vn -0.333139 -0.024350 0.942563
v 0.006341 0.000332 -0.015367
vn -0.330591 -0.016159 0.943636
v 0.006648 -0.005515 -0.015367
vn -0.137329 0.277145 0.950963
v 0.006210 -0.006266 -0.015367
vn -0.196613 0.245613 0.949219
v 0.006364 -0.006166 -0.015367
vn -0.307179 0.055746 0.950018
v 0.006636 -0.005698 -0.015367
vn -0.283349 0.123624 0.951015
v 0.006583 -0.005874 -0.015367
vn 0.503795 -0.736556 -0.451305
v -0.063575 0.009453 0.009017
vn 0.439264 -0.639718 0.630720
v -0.063575 0.009453 -0.009017
vn -0.008602 0.017359 -0.999812
v 0.006210 -0.006266 0.015367
vn -0.013719 0.254174 -0.967061
v 0.005855 -0.006350 0.015367
vn 0.033594 0.171615 -0.984591
v -0.044890 -0.006350 0.015367
vn -0.072189 0.289054 -0.954587
v 0.006037 -0.006329 0.015367
vn -0.282490 -0.660653 -0.695512
v 0.002669 0.005762 0.015367
vn -0.124529 -0.940080 -0.317400
v 0.001367 0.006201 0.015367
vn -0.374132 -0.197735 -0.906050
v 0.005614 0.002967 0.015367
vn -0.403485 -0.342007 -0.848665
v 0.004844 0.004106 0.015367
vn 0.119899 -0.011534 -0.992719
v -0.049336 0.000000 0.015367
vn -0.328311 -0.023997 -0.944265
v 0.006341 0.000332 0.015367
vn -0.325920 -0.015931 -0.945263
v 0.006648 -0.005515 0.015367
vn -0.348687 -0.096232 -0.932286
v 0.006121 0.001689 0.015367
vn -0.196613 0.245613 -0.949219
v 0.006364 -0.006166 0.015367
vn -0.257285 0.180691 -0.949292
v 0.006490 -0.006032 0.015367
vn -0.303860 0.055143 -0.951120
v 0.006636 -0.005698 0.015367
vn -0.281224 0.122697 -0.951766
v 0.006583 -0.005874 0.015367
# 112 vertices, 0 vertices normals

f 3//3 1//1 26//26
f 78//78 1//1 3//3
f 27//27 19//19 49//49
f 11//11 100//100 29//29
f 11//11 8//8 100//100
f 98//98 8//8 9//9
f 100//100 8//8 98//98
f 24//24 2//2 1//1
f 84//84 26//26 1//1
f 84//84 1//1 2//2
f 82//82 83//83 35//35
f 82//82 35//35 18//18
f 82//82 18//18 19//19
f 87//87 7//7 12//12
f 23//23 22//22 5//5
f 78//78 21//21 1//1
f 21//21 24//24 1//1
f 35//35 83//83 47//47
f 60//60 37//37 85//85
f 41//41 85//85 64//64
f 84//84 74//74 72//72
f 74//74 2//2 24//24
f 74//74 84//84 2//2
f 85//85 84//84 57//57
f 25//25 82//82 19//19
f 80//80 88//88 15//15
f 81//81 80//80 15//15
f 33//33 15//15 14//14
f 33//33 81//81 15//15
f 33//33 47//47 83//83
f 99//99 63//63 66//66
f 28//28 87//87 12//12
f 10//10 7//7 86//86
f 87//87 86//86 7//7
f 86//86 37//37 10//10
f 85//85 37//37 86//86
f 32//32 13//13 16//16
f 36//36 99//99 98//98
f 36//36 98//98 9//9
f 39//39 60//60 85//85
f 39//39 85//85 41//41
f 38//38 99//99 40//40
f 56//56 57//57 84//84
f 85//85 62//62 64//64
f 91//91 28//28 30//30
f 87//87 28//28 91//91
f 88//88 89//89 15//15
f 89//89 90//90 15//15
f 20//20 34//34 102//102
f 102//102 17//17 20//20
f 102//102 53//53 17//17
f 26//26 68//68 96//96
f 96//96 3//3 26//26
f 96//96 78//78 3//3
f 48//48 17//17 54//54
f 51//51 48//48 54//54
f 50//50 68//68 26//26
f 50//50 26//26 27//27
f 50//50 27//27 49//49
f 52//52 51//51 54//54
f 52//52 105//105 5//5
f 6//6 52//52 5//5
f 70//70 105//105 58//58
f 71//71 105//105 70//70
f 5//5 4//4 23//23
f 4//4 5//5 105//105
f 55//55 105//105 99//99
f 99//99 66//66 55//55
f 58//58 105//105 55//55
f 59//59 40//40 99//99
f 59//59 99//99 36//36
f 61//61 63//63 99//99
f 61//61 99//99 38//38
f 85//85 57//57 65//65
f 65//65 62//62 85//85
f 92//92 30//30 42//42
f 92//92 91//91 30//30
f 92//92 42//42 44//44
f 104//104 32//32 16//16
f 101//101 46//46 32//32
f 101//101 34//34 46//46
f 101//101 102//102 34//34
f 52//52 67//67 51//51
f 69//69 84//84 72//72
f 69//69 56//56 84//84
f 4//4 73//73 23//23
f 73//73 4//4 105//105
f 73//73 105//105 71//71
f 90//90 93//93 15//15
f 106//106 108//108 16//16
f 107//107 106//106 16//16
f 43//43 110//110 76//76
f 76//76 110//110 16//16
f 108//108 103//103 16//16
f 103//103 104//104 16//16
f 77//77 5//5 22//22
f 77//77 6//6 5//5
f 15//15 93//93 94//94
f 44//44 75//75 79//79
f 79//79 92//92 44//44
f 79//79 75//75 15//15
f 15//15 94//94 79//79
f 111//111 107//107 16//16
f 109//109 43//43 45//45
f 109//109 110//110 43//43
f 31//31 109//109 45//45
f 52//52 6//6 95//95
f 6//6 77//77 95//95
f 95//95 67//67 52//52
f 110//110 112//112 16//16
f 112//112 111//111 16//16
f 97//97 109//109 31//31
f 97//97 31//31 29//29
f 97//97 29//29 100//100
f 9//9 8//8 7//7
f 7//7 10//10 9//9
f 8//8 11//11 7//7
f 7//7 11//11 12//12
f 13//13 14//14 15//15
f 16//16 13//13 15//15
f 17//17 19//19 18//18
f 17//17 18//18 20//20
f 21//21 22//22 23//23
f 24//24 21//21 23//23
f 25//25 27//27 26//26
f 27//27 25//25 19//19
f 28//28 12//12 11//11
f 28//28 11//11 29//29
f 30//30 28//28 29//29
f 30//30 29//29 31//31
f 13//13 32//32 14//14
f 32//32 33//33 14//14
f 18//18 34//34 20//20
f 34//34 18//18 35//35
f 9//9 10//10 36//36
f 10//10 37//37 36//36
f 38//38 40//40 39//39
f 38//38 39//39 41//41
f 42//42 43//43 44//44
f 45//45 43//43 42//42
f 42//42 30//30 31//31
f 42//42 31//31 45//45
f 46//46 33//33 32//32
f 33//33 46//46 47//47
f 46//46 34//34 35//35
f 47//47 46//46 35//35
f 48//48 19//19 17//17
f 49//49 19//19 48//48
f 49//49 48//48 50//50
f 50//50 48//48 51//51
f 54//54 17//17 52//52
f 17//17 53//53 52//52
f 56//56 55//55 57//57
f 55//55 56//56 58//58
f 59//59 39//39 40//40
f 60//60 39//39 59//59
f 59//59 36//36 37//37
f 59//59 37//37 60//60
f 61//61 62//62 63//63
f 64//64 62//62 61//61
f 61//61 38//38 41//41
f 61//61 41//41 64//64
f 55//55 65//65 57//57
f 65//65 55//55 66//66
f 63//63 62//62 65//65
f 65//65 66//66 63//63
f 67//67 50//50 51//51
f 68//68 50//50 67//67
f 71//71 70//70 69//69
f 72//72 71//71 69//69
f 58//58 56//56 69//69
f 69//69 70//70 58//58
f 73//73 24//24 23//23
f 73//73 74//74 24//24
f 73//73 71//71 72//72
f 73//73 72//72 74//74
f 75//75 16//16 15//15
f 75//75 76//76 16//16
f 44//44 43//43 75//75
f 75//75 43//43 76//76
f 21//21 77//77 22//22
f 77//77 21//21 78//78
f 79//79 80//80 81//81
f 83//83 82//82 79//79
f 79//79 84//84 85//85
f 84//84 79//79 26//26
f 81//81 33//33 79//79
f 82//82 25//25 79//79
f 79//79 86//86 87//87
f 79//79 25//25 26//26
f 88//88 80//80 79//79
f 79//79 33//33 83//83
f 85//85 86//86 79//79
f 90//90 89//89 79//79
f 87//87 91//91 79//79
f 79//79 89//89 88//88
f 91//91 92//92 79//79
f 79//79 93//93 90//90
f 79//79 94//94 93//93
f 68//68 67//67 95//95
f 95//95 96//96 68//68
f 95//95 77//77 78//78
f 96//96 95//95 78//78
f 97//97 98//98 99//99
f 100//100 98//98 97//97
f 102//102 101//101 97//97
f 104//104 103//103 97//97
f 97//97 99//99 105//105
f 52//52 97//97 105//105
f 53//53 102//102 97//97
f 97//97 52//52 53//53
f 97//97 106//106 107//107
f 32//32 104//104 97//97
f 97//97 101//101 32//32
f 108//108 106//106 97//97
f 110//110 109//109 97//97
f 97//97 103//103 108//108
f 107//107 111//111 97//97
f 111//111 112//112 97//97
f 97//97 112//112 110//110
# 220 faces, 0 coords texture

# End of File