####
#
# OBJ File Generated by Meshlab
#
####
# Object link_3_chull.obj
#
# Vertices: 153
# Faces: 302
#
####
vn -0.478671 0.877874 -0.014526
v 0.037436 0.002487 0.009645
vn -0.389095 0.003370 -0.921191
v 0.036046 0.006350 0.012794
vn -0.478602 0.877989 -0.008633
v 0.037795 0.002652 0.007505
vn -0.977317 0.000061 -0.211782
v 0.037458 0.006350 0.009655
vn -0.982359 0.004948 -0.186939
v 0.037459 0.006350 0.009649
vn 0.317178 -0.914752 -0.250255
v -0.002051 0.006010 0.011366
vn 0.167253 -0.976304 -0.137317
v -0.001039 0.006264 0.011366
vn 0.430785 -0.792683 -0.431368
v -0.003007 0.005593 0.011366
vn 0.430785 -0.792683 0.431368
v -0.003007 0.005593 -0.011366
vn 0.317178 -0.914752 0.250255
v -0.002051 0.006010 -0.011366
vn 0.167253 -0.976304 0.137317
v -0.001039 0.006264 -0.011366
vn -0.474456 0.877882 0.064923
v 0.036618 0.002111 -0.012375
vn -0.402861 0.683604 0.608596
v 0.035704 0.001691 -0.012877
vn -0.997472 0.000008 -0.071066
v 0.038028 0.006350 0.005348
vn -0.999388 0.001250 -0.034961
v 0.038029 0.006350 0.005346
vn -0.602700 0.797733 -0.019379
v 0.038003 0.002748 0.005703
vn -0.623766 0.002515 -0.781607
v 0.036359 0.006350 0.012627
vn -0.547127 0.763392 -0.343343
v 0.036273 0.001953 0.012676
vn -0.475660 0.878030 -0.053024
v 0.036623 0.002113 0.012381
vn -0.677205 0.731849 -0.076095
v 0.037231 0.002393 0.010700
vn -0.400733 0.684281 -0.609239
v 0.035704 0.001691 0.012877
vn -0.487413 0.691066 -0.533720
v 0.035881 0.001772 0.012841
vn -0.294201 0.376649 0.878397
v 0.018423 -0.006258 -0.015305
vn -0.992716 -0.000000 0.120481
v 0.037815 0.006350 -0.007507
vn -0.989081 0.005340 0.147278
v 0.037795 0.002652 -0.007504
vn -0.988698 0.004081 0.149867
v 0.037814 0.006350 -0.007511
vn -0.568379 0.822545 0.019077
v 0.037901 0.002701 -0.006795
vn -0.989896 0.000027 -0.141798
v 0.037814 0.006350 0.007511
vn -0.699403 0.712209 -0.059954
v 0.037713 0.002615 0.008216
vn -0.993705 0.004053 -0.111958
v 0.037815 0.006350 0.007507
vn -0.632019 0.701293 -0.329759
v 0.036592 0.002099 0.012422
vn -0.578185 0.806699 -0.122220
v 0.036823 0.002205 0.012109
vn -0.294201 0.376649 -0.878397
v 0.018423 -0.006258 0.015305
vn -0.883475 0.002346 0.468472
v 0.036830 0.006350 -0.012101
vn -0.617107 0.778579 0.113996
v 0.036916 0.002248 -0.011909
vn -0.998773 0.000000 0.049517
v 0.038029 0.006350 -0.005346
vn -0.602692 0.797898 0.010997
v 0.038082 0.002784 -0.004272
vn -0.997200 0.005250 0.074592
v 0.038028 0.006350 -0.005348
vn -0.981621 -0.000000 0.190841
v 0.037459 0.006350 -0.009649
vn -0.583509 0.811184 0.038696
v 0.037527 0.002529 -0.009298
vn -0.737024 0.002808 0.675860
v 0.036625 0.006350 -0.012392
vn -0.621286 0.760638 0.188238
v 0.036739 0.002167 -0.012244
vn -0.532581 0.002999 0.846374
v 0.036359 0.006350 -0.012627
vn -0.595052 0.743254 0.305756
v 0.036471 0.002043 -0.012536
vn -0.533208 0.739279 0.411285
v 0.036118 0.001881 -0.012757
vn -0.122921 0.974904 0.185612
v -0.000299 -0.017704 -0.009017
vn 0.085247 0.964112 0.251439
v -0.001318 -0.017731 -0.009017
vn 0.048072 0.955960 -0.289535
v -0.001318 -0.017731 0.009017
vn -0.118172 0.944449 -0.306678
v -0.000299 -0.017704 0.009017
vn 0.264421 -0.964407 -0.001237
v -0.001828 0.006108 0.009017
vn 0.121586 -0.992581 -0.000588
v -0.000924 0.006308 0.009017
vn 0.130410 -0.991459 0.001343
v -0.000924 0.006308 -0.009017
vn 0.305397 -0.952224 0.001237
v -0.001828 0.006108 -0.009017
vn 0.061487 -0.997786 0.025342
v 0.012700 0.007938 -0.015367
vn 0.044550 -0.985128 -0.165945
v 0.012700 0.007938 0.015367
vn 0.641945 0.535354 -0.548911
v -0.013812 -0.011196 0.009017
vn 0.647193 0.644235 0.407557
v -0.012601 -0.012544 -0.009017
vn 0.656166 0.517821 0.548915
v -0.013812 -0.011196 -0.009017
vn 0.559811 0.557252 -0.613255
v -0.012601 -0.012544 0.009017
vn 0.419063 -0.907957 -0.000963
v -0.002694 0.005778 0.009017
vn 0.419000 -0.907984 0.001809
v -0.002694 0.005778 -0.009017
vn 0.516266 -0.831597 -0.204736
v -0.017737 -0.001236 0.009017
vn 0.516711 -0.848100 0.117203
v -0.017737 -0.001236 -0.009017
vn 0.861797 0.149287 -0.484787
v -0.017519 -0.003035 0.009017
vn 0.709309 0.122872 0.694107
v -0.017519 -0.003035 -0.009017
vn -0.505089 0.863067 0.000139
v 0.038100 0.002793 -0.003175
vn -0.472479 0.879934 -0.049793
v 0.001621 -0.017052 0.009017
vn -0.470616 0.880400 0.058452
v 0.001621 -0.017052 -0.009017
vn -0.628869 0.777507 -0.002435
v 0.038100 0.002793 0.003175
vn -0.979581 -0.200974 0.005513
v 0.038100 0.007938 -0.003175
vn -0.930202 -0.366925 -0.009463
v 0.038100 0.007938 0.003175
vn -0.319402 0.940740 -0.113973
v 0.000694 -0.017475 0.009017
vn -0.315251 0.929375 0.192036
v 0.000694 -0.017475 -0.009017
vn 0.152774 0.933148 -0.325416
v -0.003115 -0.017505 0.009017
vn 0.177918 0.928681 0.325418
v -0.003115 -0.017505 -0.009017
vn 0.837700 0.234960 0.493003
v -0.017119 -0.004802 -0.009017
vn 0.685705 0.192328 -0.702010
v -0.017119 -0.004802 0.009017
vn 0.437853 0.837154 -0.327807
v -0.008240 -0.015755 0.009017
vn 0.396784 0.758631 0.516760
v -0.008240 -0.015755 -0.009017
vn 0.351156 0.878663 0.323482
v -0.006594 -0.016512 -0.009017
vn 0.320030 0.800385 -0.506917
v -0.006594 -0.016512 0.009017
vn 0.509733 0.770343 0.383072
v -0.009801 -0.014835 -0.009017
vn 0.449586 0.678673 -0.580754
v -0.009801 -0.014835 0.009017
vn 0.445259 0.170192 -0.879079
v -0.016542 -0.006519 0.009017
vn 0.766186 0.396124 0.506009
v -0.015793 -0.008168 -0.009017
vn 0.348763 0.131873 0.927887
v -0.016542 -0.006519 -0.009017
vn 0.625287 0.323190 -0.710327
v -0.015793 -0.008168 0.009017
vn 0.745603 0.487693 -0.454127
v -0.014880 -0.009733 0.009017
vn 0.626169 0.409572 0.663448
v -0.014880 -0.009733 -0.009017
vn -0.929358 0.000127 -0.369180
v 0.036961 0.006350 0.011772
vn -0.969759 -0.000024 -0.244066
v 0.036963 0.006350 0.011764
vn -0.611243 -0.777399 -0.148435
v 0.036961 0.007938 0.011772
vn -0.564317 0.823649 -0.056117
v 0.036963 0.002270 0.011764
vn -0.215473 -0.969492 -0.116858
v 0.036830 0.007938 0.012101
vn -0.893129 0.000304 -0.449801
v 0.036830 0.006350 0.012101
vn -0.133604 0.000433 0.991035
v 0.018474 0.006350 -0.015305
vn -0.132539 -0.060802 0.989311
v 0.018474 0.007938 -0.015305
vn -0.140327 -0.012901 0.990021
v 0.035702 0.007938 -0.012884
vn -0.140311 0.000751 0.990107
v 0.035702 0.006350 -0.012884
vn 0.585212 0.715216 -0.382091
v -0.011259 -0.013761 0.009017
vn 0.514095 0.628301 0.583905
v -0.011259 -0.013761 -0.009017
vn -0.973563 -0.000036 0.228420
v 0.036963 0.006350 -0.011764
vn -0.951867 0.000069 0.306510
v 0.036961 0.006350 -0.011772
vn -0.923367 -0.270530 0.272411
v 0.036961 0.007938 -0.011772
vn -0.596241 0.801029 0.053378
v 0.036963 0.002270 -0.011764
vn -0.974187 0.001370 0.225740
v 0.037458 0.006350 -0.009655
vn -0.967447 -0.172630 0.185053
v 0.037458 0.007938 -0.009655
vn -0.810668 0.000820 -0.585505
v 0.036625 0.006350 0.012392
vn -0.151030 -0.976303 -0.154991
v 0.036625 0.007938 0.012392
vn -0.133306 0.000431 -0.991075
v 0.018474 0.006350 0.015305
vn -0.018306 -0.991891 -0.125768
v 0.035702 0.007938 0.012884
vn -0.008455 -0.998061 -0.061675
v 0.018474 0.007938 0.015305
vn -0.139578 0.000752 -0.990211
v 0.035702 0.006350 0.012884
vn -0.001053 -0.866860 -0.498550
v 0.017590 0.007938 0.015367
vn -0.010802 0.000038 -0.999942
v 0.017590 0.006350 0.015367
vn -0.002945 0.000009 0.999996
v 0.017590 0.006350 -0.015367
vn -0.166769 0.362602 0.916901
v 0.012700 -0.008890 -0.015367
vn -0.170306 0.335669 0.926457
v 0.017539 -0.006664 -0.015367
vn 0.201521 0.221470 0.954118
v 0.010434 -0.008849 -0.015367
vn 0.158320 0.298780 0.941098
v 0.010735 -0.009070 -0.015367
vn -0.101124 0.466284 0.878836
v 0.011823 -0.009245 -0.015367
vn -0.227381 0.527374 0.818642
v 0.012178 -0.009130 -0.015367
vn 0.213233 0.139781 0.966950
v 0.010192 -0.008564 -0.015367
vn 0.029065 0.449696 0.892709
v 0.011450 -0.009274 -0.015367
vn 0.107976 0.378454 0.919301
v 0.011081 -0.009214 -0.015367
vn 0.166386 0.062526 0.984076
v 0.010023 -0.008230 -0.015367
vn 0.204228 -0.049947 0.977648
v 0.004717 0.006350 -0.015367
vn -0.005947 -0.831427 0.555603
v 0.017590 0.007938 -0.015367
vn 0.264168 0.925506 -0.271393
v -0.004880 -0.017097 0.009017
vn 0.246420 0.863326 0.440392
v -0.004880 -0.017097 -0.009017
vn -0.045531 0.098997 -0.994045
v 0.012700 -0.008890 0.015367
vn 0.214411 -0.052437 -0.975335
v 0.004717 0.006350 0.015367
vn 0.219552 0.082504 -0.972106
v 0.010023 -0.008230 0.015367
vn 0.232368 0.152324 -0.960626
v 0.010192 -0.008564 0.015367
vn 0.218633 0.240276 -0.945763
v 0.010434 -0.008849 0.015367
vn 0.182493 0.344398 -0.920916
v 0.010735 -0.009070 0.015367
vn -0.170306 0.335669 -0.926457
v 0.017539 -0.006664 0.015367
vn 0.127420 0.446604 -0.885612
v 0.011081 -0.009214 0.015367
vn 0.036194 0.560007 -0.827697
v 0.011450 -0.009274 0.015367
vn -0.156593 0.722049 -0.673888
v 0.011823 -0.009245 0.015367
vn -0.355133 0.823673 -0.442089
v 0.012178 -0.009130 0.015367
vn -0.000949 -0.999997 0.002171
v 0.036046 0.007938 -0.012794
vn -0.177743 -0.951271 -0.251976
v 0.036359 0.007938 0.012627
vn -0.805668 -0.582996 -0.104954
v 0.037814 0.007938 0.007511
vn -0.739764 -0.670053 -0.061464
v 0.038028 0.007938 0.005348
vn -0.968850 -0.238983 0.064942
v 0.038028 0.007938 -0.005348
vn -0.103705 -0.959099 -0.263392
v 0.036046 0.007938 0.012794
vn -0.723761 -0.674722 -0.144637
v 0.037458 0.007938 0.009655
vn -0.976651 -0.169308 0.132241
v 0.037814 0.007938 -0.007511
vn -0.877879 -0.055765 0.475625
v 0.036830 0.007938 -0.012101
vn -0.742779 -0.025271 0.669059
v 0.036625 0.007938 -0.012392
vn -0.563892 -0.006501 0.825823
v 0.036359 0.007938 -0.012627
vn -0.271556 0.002114 0.962420
v 0.036046 0.006350 -0.012794
# 153 vertices, 0 vertices normals

f 8//8 132//132 62//62
f 18//18 67//67 22//22
f 67//67 16//16 69//69
f 5//5 29//29 20//20
f 5//5 148//148 29//29
f 147//147 22//22 111//111
f 37//37 27//27 68//68
f 118//118 68//68 23//23
f 13//13 23//23 68//68
f 10//10 53//53 61//61
f 20//20 29//29 1//1
f 1//1 67//67 20//20
f 67//67 1//1 29//29
f 73//73 68//68 122//122
f 122//122 121//121 73//73
f 73//73 121//121 46//46
f 2//2 22//22 147//147
f 18//18 2//2 147//147
f 2//2 18//18 22//22
f 3//3 67//67 29//29
f 29//29 16//16 3//3
f 3//3 16//16 67//67
f 143//143 18//18 147//147
f 67//67 93//93 20//20
f 93//93 67//67 32//32
f 20//20 148//148 4//4
f 4//4 5//5 20//20
f 5//5 4//4 148//148
f 57//57 119//119 58//58
f 101//101 119//119 57//57
f 80//80 120//120 79//79
f 82//82 79//79 120//120
f 82//82 120//120 119//119
f 82//82 119//119 101//101
f 86//86 85//85 126//126
f 119//119 123//123 58//58
f 85//85 123//123 126//126
f 67//67 21//21 22//22
f 55//55 7//7 51//51
f 7//7 50//50 51//51
f 7//7 55//55 132//132
f 60//60 8//8 62//62
f 64//64 62//62 132//132
f 64//64 132//132 77//77
f 66//66 37//37 68//68
f 40//40 68//68 27//27
f 40//40 105//105 68//68
f 122//122 68//68 117//117
f 117//117 68//68 118//118
f 45//45 68//68 44//44
f 45//45 13//13 68//68
f 99//99 23//23 13//13
f 66//66 70//70 37//37
f 9//9 61//61 63//63
f 9//9 10//10 61//61
f 49//49 140//140 72//72
f 125//125 130//130 75//75
f 125//125 120//120 80//80
f 125//125 80//80 130//130
f 15//15 145//145 71//71
f 15//15 71//71 69//69
f 15//15 69//69 16//16
f 148//148 144//144 29//29
f 144//144 145//145 16//16
f 31//31 67//67 18//18
f 95//95 93//93 32//32
f 92//92 148//148 20//20
f 58//58 123//123 89//89
f 89//89 123//123 85//85
f 33//33 21//21 67//67
f 50//50 7//7 6//6
f 6//6 60//60 50//50
f 6//6 8//8 60//60
f 6//6 132//132 8//8
f 6//6 7//7 132//132
f 11//11 54//54 52//52
f 53//53 11//11 52//52
f 10//10 11//11 53//53
f 127//127 63//63 65//65
f 127//127 9//9 63//63
f 127//127 65//65 76//76
f 9//9 127//127 10//10
f 127//127 86//86 126//126
f 127//127 76//76 86//86
f 127//127 11//11 10//10
f 11//11 127//127 54//54
f 133//133 84//84 132//132
f 84//84 77//77 132//132
f 84//84 133//133 87//87
f 59//59 56//56 135//135
f 12//12 44//44 68//68
f 12//12 68//68 42//42
f 12//12 42//42 44//44
f 35//35 68//68 105//105
f 35//35 42//42 68//68
f 149//149 40//40 26//26
f 45//45 153//153 13//13
f 153//153 99//99 13//13
f 70//70 146//146 37//37
f 146//146 149//149 27//27
f 107//107 40//40 149//149
f 47//47 46//46 124//124
f 124//124 46//46 121//121
f 124//124 75//75 47//47
f 124//124 125//125 75//75
f 16//16 145//145 14//14
f 14//14 15//15 16//16
f 15//15 14//14 145//145
f 30//30 16//16 29//29
f 30//30 144//144 16//16
f 18//18 143//143 17//17
f 17//17 31//31 18//18
f 31//31 17//17 143//143
f 67//67 19//19 32//32
f 19//19 31//31 32//32
f 19//19 67//67 31//31
f 109//109 31//31 143//143
f 91//91 20//20 93//93
f 91//91 92//92 20//20
f 90//90 93//93 95//95
f 33//33 113//113 21//21
f 113//113 111//111 22//22
f 21//21 113//113 22//22
f 23//23 99//99 96//96
f 96//96 118//118 23//23
f 59//59 135//135 100//100
f 100//100 135//135 83//83
f 134//134 56//56 88//88
f 134//134 135//135 56//56
f 134//134 88//88 87//87
f 133//133 134//134 87//87
f 136//136 78//78 83//83
f 135//135 136//136 83//83
f 136//136 81//81 78//78
f 103//103 35//35 105//105
f 35//35 103//103 104//104
f 150//150 35//35 104//104
f 27//27 149//149 24//24
f 24//24 26//26 27//27
f 26//26 24//24 149//149
f 25//25 40//40 27//27
f 27//27 26//26 25//25
f 25//25 26//26 40//40
f 38//38 27//27 37//37
f 38//38 146//146 27//27
f 106//106 105//105 40//40
f 102//102 107//107 104//104
f 29//29 144//144 28//28
f 28//28 30//30 29//29
f 30//30 28//28 144//144
f 108//108 32//32 31//31
f 31//31 109//109 108//108
f 108//108 95//95 32//32
f 110//110 113//113 33//33
f 137//137 33//33 67//67
f 115//115 110//110 137//137
f 137//137 110//110 33//33
f 116//116 118//118 96//96
f 48//48 74//74 139//139
f 139//139 49//49 48//48
f 139//139 140//140 49//49
f 34//34 42//42 35//35
f 34//34 150//150 42//42
f 35//35 150//150 34//34
f 150//150 151//151 42//42
f 37//37 146//146 36//36
f 36//36 38//38 37//37
f 38//38 36//36 146//146
f 39//39 107//107 106//106
f 107//107 39//39 40//40
f 39//39 106//106 40//40
f 67//67 72//72 141//141
f 141//141 72//72 140//140
f 138//138 74//74 129//129
f 138//138 139//139 74//74
f 138//138 129//129 81//81
f 136//136 138//138 81//81
f 41//41 44//44 42//42
f 41//41 151//151 44//44
f 42//42 151//151 41//41
f 151//151 152//152 44//44
f 131//131 137//137 67//67
f 67//67 141//141 131//131
f 43//43 45//45 44//44
f 44//44 152//152 43//43
f 43//43 152//152 45//45
f 142//142 153//153 45//45
f 45//45 152//152 142//142
f 46//46 47//47 48//48
f 49//49 46//46 48//48
f 50//50 52//52 51//51
f 50//50 53//53 52//52
f 54//54 51//51 52//52
f 54//54 55//55 51//51
f 56//56 57//57 58//58
f 56//56 59//59 57//57
f 53//53 50//50 60//60
f 60//60 61//61 53//53
f 60//60 62//62 63//63
f 63//63 61//61 60//60
f 64//64 63//63 62//62
f 64//64 65//65 63//63
f 67//67 66//66 68//68
f 66//66 67//67 69//69
f 70//70 66//66 69//69
f 71//71 70//70 69//69
f 72//72 46//46 49//49
f 72//72 73//73 46//46
f 72//72 67//67 68//68
f 72//72 68//68 73//73
f 48//48 47//47 74//74
f 47//47 75//75 74//74
f 64//64 76//76 65//65
f 76//76 64//64 77//77
f 80//80 79//79 78//78
f 78//78 81//81 80//80
f 79//79 82//82 78//78
f 82//82 83//83 78//78
f 84//84 85//85 86//86
f 87//87 85//85 84//84
f 84//84 76//76 77//77
f 86//86 76//76 84//84
f 88//88 85//85 87//87
f 88//88 89//89 85//85
f 88//88 56//56 58//58
f 58//58 89//89 88//88
f 91//91 90//90 92//92
f 90//90 91//91 93//93
f 90//90 94//94 92//92
f 90//90 95//95 94//94
f 96//96 98//98 97//97
f 96//96 99//99 98//98
f 100//100 57//57 59//59
f 101//101 57//57 100//100
f 100//100 83//83 82//82
f 100//100 82//82 101//101
f 103//103 102//102 104//104
f 102//102 103//103 105//105
f 105//105 106//106 102//102
f 102//102 106//106 107//107
f 108//108 109//109 94//94
f 95//95 108//108 94//94
f 110//110 112//112 111//111
f 111//111 113//113 110//110
f 110//110 114//114 112//112
f 110//110 115//115 114//114
f 116//116 117//117 118//118
f 116//116 119//119 120//120
f 116//116 121//121 122//122
f 116//116 123//123 119//119
f 125//125 124//124 116//116
f 116//116 126//126 123//123
f 127//127 116//116 54//54
f 117//117 116//116 122//122
f 120//120 125//125 116//116
f 116//116 127//127 126//126
f 116//116 124//124 121//121
f 116//116 128//128 54//54
f 116//116 96//96 97//97
f 116//116 97//97 128//128
f 80//80 81//81 129//129
f 129//129 130//130 80//80
f 129//129 74//74 75//75
f 129//129 75//75 130//130
f 55//55 114//114 131//131
f 131//131 132//132 55//55
f 114//114 115//115 131//131
f 131//131 133//133 132//132
f 135//135 134//134 131//131
f 131//131 136//136 135//135
f 131//131 134//134 133//133
f 115//115 137//137 131//131
f 139//139 138//138 131//131
f 140//140 139//139 131//131
f 131//131 141//141 140//140
f 131//131 138//138 136//136
f 142//142 109//109 143//143
f 142//142 111//111 112//112
f 145//145 144//144 142//142
f 104//104 107//107 142//142
f 142//142 146//146 70//70
f 147//147 111//111 142//142
f 142//142 55//55 54//54
f 142//142 114//114 55//55
f 71//71 145//145 142//142
f 142//142 143//143 147//147
f 142//142 92//92 94//94
f 112//112 114//114 142//142
f 142//142 70//70 71//71
f 142//142 128//128 97//97
f 142//142 144//144 148//148
f 148//148 92//92 142//142
f 142//142 97//97 98//98
f 149//149 146//146 142//142
f 142//142 107//107 149//149
f 94//94 109//109 142//142
f 54//54 128//128 142//142
f 142//142 150//150 104//104
f 142//142 151//151 150//150
f 142//142 152//152 151//151
f 98//98 99//99 142//142
f 99//99 153//153 142//142
# 302 faces, 0 coords texture

# End of File