####
#
# OBJ File Generated by Meshlab
#
####
# Object link_3_chull_1.obj
#
# Vertices: 153
# Faces: 302
#
####
vn -0.478683 0.877869 -0.014428
v 0.037436 0.002487 0.009645
vn -0.389285 0.003396 -0.921111
v 0.036046 0.006350 0.012794
vn -0.478617 0.877980 -0.008766
v 0.037795 0.002652 0.007505
vn -0.977410 0.000182 -0.211354
v 0.037458 0.006350 0.009655
vn -0.982349 0.004975 -0.186992
v 0.037459 0.006350 0.009649
vn 0.317056 -0.914839 -0.250090
v -0.002051 0.006010 0.011366
vn 0.167260 -0.976300 -0.137337
v -0.001039 0.006264 0.011366
vn 0.430775 -0.792700 -0.431346
v -0.003007 0.005593 0.011366
vn 0.430775 -0.792700 0.431346
v -0.003007 0.005593 -0.011366
vn 0.317056 -0.914839 0.250090
v -0.002051 0.006010 -0.011366
vn 0.167260 -0.976300 0.137337
v -0.001039 0.006264 -0.011366
vn -0.474679 0.877912 0.062848
v 0.036618 0.002111 -0.012375
vn -0.402842 0.683574 0.608641
v 0.035704 0.001691 -0.012877
vn -0.996958 -0.000529 -0.077938
v 0.038028 0.006350 0.005348
vn -0.999383 0.001212 -0.035097
v 0.038029 0.006350 0.005346
vn -0.602692 0.797742 -0.019238
v 0.038003 0.002748 0.005703
vn -0.623613 0.002561 -0.781729
v 0.036359 0.006350 0.012627
vn -0.547135 0.763388 -0.343338
v 0.036273 0.001953 0.012676
vn -0.475603 0.878022 -0.053657
v 0.036623 0.002113 0.012381
vn -0.677231 0.731798 -0.076355
v 0.037231 0.002393 0.010700
vn -0.400725 0.684264 -0.609264
v 0.035704 0.001691 0.012877
vn -0.487739 0.691434 -0.532945
v 0.035881 0.001772 0.012841
vn -0.294175 0.376617 0.878419
v 0.018423 -0.006258 -0.015305
vn -0.992698 -0.000000 0.120622
v 0.037815 0.006350 -0.007507
vn -0.989060 0.005345 0.147419
v 0.037795 0.002652 -0.007504
vn -0.988646 0.004124 0.150206
v 0.037814 0.006350 -0.007511
vn -0.568387 0.822539 0.019123
v 0.037901 0.002701 -0.006795
vn -0.989613 -0.000262 -0.143756
v 0.037814 0.006350 0.007511
vn -0.699427 0.712180 -0.060014
v 0.037713 0.002615 0.008216
vn -0.993710 0.004033 -0.111913
v 0.037815 0.006350 0.007507
vn -0.631452 0.700862 -0.331754
v 0.036592 0.002099 0.012422
vn -0.578381 0.806677 -0.121441
v 0.036823 0.002205 0.012109
vn -0.294175 0.376617 -0.878419
v 0.018423 -0.006258 0.015305
vn -0.884409 0.002381 0.466707
v 0.036830 0.006350 -0.012101
vn -0.616990 0.778729 0.113594
v 0.036916 0.002248 -0.011909
vn -0.998743 0.000000 0.050121
v 0.038029 0.006350 -0.005346
vn -0.602719 0.797879 0.010902
v 0.038082 0.002784 -0.004272
vn -0.997172 0.005206 0.074978
v 0.038028 0.006350 -0.005348
vn -0.981830 -0.000000 0.189765
v 0.037459 0.006350 -0.009649
vn -0.583499 0.811188 0.038771
v 0.037527 0.002529 -0.009298
vn -0.737320 0.002760 0.675538
v 0.036625 0.006350 -0.012392
vn -0.621531 0.760421 0.188304
v 0.036739 0.002167 -0.012244
vn -0.531621 0.002974 0.846977
v 0.036359 0.006350 -0.012627
vn -0.594887 0.743523 0.305423
v 0.036471 0.002043 -0.012536
vn -0.532775 0.738958 0.412423
v 0.036118 0.001881 -0.012757
vn -0.122743 0.974925 0.185623
v -0.000299 -0.017704 -0.009017
vn 0.085165 0.964127 0.251407
v -0.001318 -0.017731 -0.009017
vn 0.047947 0.955987 -0.289467
v -0.001318 -0.017731 0.009017
vn -0.118018 0.944463 -0.306693
v -0.000299 -0.017704 0.009017
vn 0.264305 -0.964438 -0.001243
v -0.001828 0.006108 0.009017
vn 0.121617 -0.992577 -0.000595
v -0.000924 0.006308 0.009017
vn 0.130399 -0.991461 0.001358
v -0.000924 0.006308 -0.009017
vn 0.305536 -0.952180 0.001243
v -0.001828 0.006108 -0.009017
vn 0.061510 -0.997784 0.025351
v 0.012700 0.007938 -0.015367
vn 0.044567 -0.985127 -0.165947
v 0.012700 0.007938 0.015367
vn 0.641966 0.535387 -0.548853
v -0.013812 -0.011196 0.009017
vn 0.647219 0.644191 0.407586
v -0.012601 -0.012544 -0.009017
vn 0.656085 0.517941 0.548899
v -0.013812 -0.011196 -0.009017
vn 0.559823 0.557204 -0.613287
v -0.012601 -0.012544 0.009017
vn 0.419053 -0.907961 -0.000955
v -0.002694 0.005778 0.009017
vn 0.418992 -0.907988 0.001794
v -0.002694 0.005778 -0.009017
vn 0.516263 -0.831593 -0.204759
v -0.017737 -0.001236 0.009017
vn 0.516709 -0.848099 0.117216
v -0.017737 -0.001236 -0.009017
vn 0.861780 0.149349 -0.484799
v -0.017519 -0.003035 0.009017
vn 0.709289 0.122922 0.694118
v -0.017519 -0.003035 -0.009017
vn -0.505099 0.863061 0.000113
v 0.038100 0.002793 -0.003175
vn -0.472487 0.879930 -0.049795
v 0.001621 -0.017052 0.009017
vn -0.470621 0.880397 0.058454
v 0.001621 -0.017052 -0.009017
vn -0.628881 0.777498 -0.002397
v 0.038100 0.002793 0.003175
vn -0.979599 -0.200885 0.005527
v 0.038100 0.007938 -0.003175
vn -0.930178 -0.366987 -0.009434
v 0.038100 0.007938 0.003175
vn -0.319097 0.940838 -0.114026
v 0.000694 -0.017475 0.009017
vn -0.314960 0.929455 0.192131
v 0.000694 -0.017475 -0.009017
vn 0.152821 0.933112 -0.325495
v -0.003115 -0.017505 0.009017
vn 0.177998 0.928644 0.325481
v -0.003115 -0.017505 -0.009017
vn 0.837714 0.234916 0.493001
v -0.017119 -0.004802 -0.009017
vn 0.685717 0.192292 -0.702008
v -0.017119 -0.004802 0.009017
vn 0.437787 0.837200 -0.327778
v -0.008240 -0.015755 0.009017
vn 0.396730 0.758685 0.516723
v -0.008240 -0.015755 -0.009017
vn 0.351160 0.878648 0.323519
v -0.006594 -0.016512 -0.009017
vn 0.320020 0.800365 -0.506954
v -0.006594 -0.016512 0.009017
vn 0.509666 0.770391 0.383064
v -0.009801 -0.014835 -0.009017
vn 0.449541 0.678707 -0.580750
v -0.009801 -0.014835 0.009017
vn 0.445253 0.170145 -0.879091
v -0.016542 -0.006519 0.009017
vn 0.766193 0.396078 0.506034
v -0.015793 -0.008168 -0.009017
vn 0.348760 0.131841 0.927893
v -0.016542 -0.006519 -0.009017
vn 0.625282 0.323158 -0.710346
v -0.015793 -0.008168 0.009017
vn 0.745560 0.487765 -0.454120
v -0.014880 -0.009733 0.009017
vn 0.626136 0.409635 0.663441
v -0.014880 -0.009733 -0.009017
vn -0.929940 0.000149 -0.367712
v 0.036961 0.006350 0.011772
vn -0.969714 0.000002 -0.244245
v 0.036963 0.006350 0.011764
vn -0.611545 -0.777135 -0.148574
v 0.036961 0.007938 0.011772
vn -0.564321 0.823662 -0.055887
v 0.036963 0.002270 0.011764
vn -0.215682 -0.969443 -0.116885
v 0.036830 0.007938 0.012101
vn -0.893249 0.000375 -0.449562
v 0.036830 0.006350 0.012101
vn -0.133607 0.000435 0.991034
v 0.018474 0.006350 -0.015305
vn -0.132545 -0.060607 0.989322
v 0.018474 0.007938 -0.015305
vn -0.140310 -0.012858 0.990024
v 0.035702 0.007938 -0.012884
vn -0.140278 0.000730 0.990112
v 0.035702 0.006350 -0.012884
vn 0.585202 0.715219 -0.382101
v -0.011259 -0.013761 0.009017
vn 0.514083 0.628299 0.583916
v -0.011259 -0.013761 -0.009017
vn -0.973532 -0.000016 0.228552
v 0.036963 0.006350 -0.011764
vn -0.952062 0.000096 0.305905
v 0.036961 0.006350 -0.011772
vn -0.923533 -0.270377 0.271997
v 0.036961 0.007938 -0.011772
vn -0.596277 0.801000 0.053411
v 0.036963 0.002270 -0.011764
vn -0.974170 0.001411 0.225811
v 0.037458 0.006350 -0.009655
vn -0.967474 -0.172436 0.185093
v 0.037458 0.007938 -0.009655
vn -0.810680 0.000878 -0.585489
v 0.036625 0.006350 0.012392
vn -0.151005 -0.976313 -0.154954
v 0.036625 0.007938 0.012392
vn -0.133310 0.000433 -0.991074
v 0.018474 0.006350 0.015305
vn -0.018308 -0.991886 -0.125808
v 0.035702 0.007938 0.012884
vn -0.008458 -0.998059 -0.061694
v 0.018474 0.007938 0.015305
vn -0.139553 0.000731 -0.990214
v 0.035702 0.006350 0.012884
vn -0.001057 -0.866850 -0.498567
v 0.017590 0.007938 0.015367
vn -0.010837 0.000038 -0.999941
v 0.017590 0.006350 0.015367
vn -0.002955 0.000009 0.999996
v 0.017590 0.006350 -0.015367
vn -0.166798 0.362612 0.916892
v 0.012700 -0.008890 -0.015367
vn -0.170338 0.335664 0.926453
v 0.017539 -0.006664 -0.015367
vn 0.201544 0.221431 0.954122
v 0.010434 -0.008849 -0.015367
vn 0.158309 0.298788 0.941097
v 0.010735 -0.009070 -0.015367
vn -0.101081 0.466381 0.878790
v 0.011823 -0.009245 -0.015367
vn -0.227486 0.527486 0.818540
v 0.012178 -0.009130 -0.015367
vn 0.213200 0.139834 0.966950
v 0.010192 -0.008564 -0.015367
vn 0.029068 0.449671 0.892721
v 0.011450 -0.009274 -0.015367
vn 0.107985 0.378352 0.919342
v 0.011081 -0.009214 -0.015367
vn 0.166385 0.062524 0.984077
v 0.010023 -0.008230 -0.015367
vn 0.204234 -0.049973 0.977646
v 0.004717 0.006350 -0.015367
vn -0.005969 -0.831262 0.555849
v 0.017590 0.007938 -0.015367
vn 0.264164 0.925506 -0.271396
v -0.004880 -0.017097 0.009017
vn 0.246416 0.863325 0.440397
v -0.004880 -0.017097 -0.009017
vn -0.045538 0.098999 -0.994045
v 0.012700 -0.008890 0.015367
vn 0.214416 -0.052464 -0.975332
v 0.004717 0.006350 0.015367
vn 0.219550 0.082502 -0.972107
v 0.010023 -0.008230 0.015367
vn 0.232357 0.152398 -0.960617
v 0.010192 -0.008564 0.015367
vn 0.218644 0.240218 -0.945775
v 0.010434 -0.008849 0.015367
vn 0.182482 0.344411 -0.920913
v 0.010735 -0.009070 0.015367
vn -0.170338 0.335665 -0.926453
v 0.017539 -0.006664 0.015367
vn 0.127451 0.446557 -0.885632
v 0.011081 -0.009214 0.015367
vn 0.036200 0.559995 -0.827705
v 0.011450 -0.009274 0.015367
vn -0.156482 0.721994 -0.673972
v 0.011823 -0.009245 0.015367
vn -0.355229 0.823694 -0.441974
v 0.012178 -0.009130 0.015367
vn -0.000949 -0.999997 0.002170
v 0.036046 0.007938 -0.012794
vn -0.177809 -0.951249 -0.252011
v 0.036359 0.007938 0.012627
vn -0.805862 -0.582748 -0.104843
v 0.037814 0.007938 0.007511
vn -0.739779 -0.670037 -0.061454
v 0.038028 0.007938 0.005348
vn -0.968881 -0.238879 0.064856
v 0.038028 0.007938 -0.005348
vn -0.103618 -0.959115 -0.263366
v 0.036046 0.007938 0.012794
vn -0.723761 -0.674710 -0.144694
v 0.037458 0.007938 0.009655
vn -0.976674 -0.169276 0.132111
v 0.037814 0.007938 -0.007511
vn -0.878132 -0.055743 0.475160
v 0.036830 0.007938 -0.012101
vn -0.742935 -0.025301 0.668885
v 0.036625 0.007938 -0.012392
vn -0.563859 -0.006503 0.825845
v 0.036359 0.007938 -0.012627
vn -0.271510 0.002077 0.962433
v 0.036046 0.006350 -0.012794
# 153 vertices, 0 vertices normals

f 8//8 132//132 62//62
f 18//18 67//67 22//22
f 67//67 16//16 69//69
f 5//5 29//29 20//20
f 5//5 148//148 29//29
f 147//147 22//22 111//111
f 37//37 27//27 68//68
f 118//118 68//68 23//23
f 13//13 23//23 68//68
f 10//10 53//53 61//61
f 20//20 29//29 1//1
f 1//1 67//67 20//20
f 67//67 1//1 29//29
f 73//73 68//68 122//122
f 122//122 121//121 73//73
f 73//73 121//121 46//46
f 2//2 22//22 147//147
f 18//18 2//2 147//147
f 2//2 18//18 22//22
f 3//3 67//67 29//29
f 29//29 16//16 3//3
f 3//3 16//16 67//67
f 143//143 18//18 147//147
f 67//67 93//93 20//20
f 93//93 67//67 32//32
f 20//20 148//148 4//4
f 4//4 5//5 20//20
f 5//5 4//4 148//148
f 57//57 119//119 58//58
f 101//101 119//119 57//57
f 80//80 120//120 79//79
f 82//82 79//79 120//120
f 82//82 120//120 119//119
f 82//82 119//119 101//101
f 86//86 85//85 126//126
f 119//119 123//123 58//58
f 85//85 123//123 126//126
f 67//67 21//21 22//22
f 55//55 7//7 51//51
f 7//7 50//50 51//51
f 7//7 55//55 132//132
f 60//60 8//8 62//62
f 64//64 62//62 132//132
f 64//64 132//132 77//77
f 66//66 37//37 68//68
f 40//40 68//68 27//27
f 40//40 105//105 68//68
f 122//122 68//68 117//117
f 117//117 68//68 118//118
f 45//45 68//68 44//44
f 45//45 13//13 68//68
f 99//99 23//23 13//13
f 66//66 70//70 37//37
f 9//9 61//61 63//63
f 9//9 10//10 61//61
f 49//49 140//140 72//72
f 125//125 130//130 75//75
f 125//125 120//120 80//80
f 125//125 80//80 130//130
f 15//15 145//145 71//71
f 15//15 71//71 69//69
f 15//15 69//69 16//16
f 148//148 144//144 29//29
f 144//144 145//145 16//16
f 31//31 67//67 18//18
f 95//95 93//93 32//32
f 92//92 148//148 20//20
f 58//58 123//123 89//89
f 89//89 123//123 85//85
f 33//33 21//21 67//67
f 50//50 7//7 6//6
f 6//6 60//60 50//50
f 6//6 8//8 60//60
f 6//6 132//132 8//8
f 6//6 7//7 132//132
f 11//11 54//54 52//52
f 53//53 11//11 52//52
f 10//10 11//11 53//53
f 127//127 63//63 65//65
f 127//127 9//9 63//63
f 127//127 65//65 76//76
f 9//9 127//127 10//10
f 127//127 86//86 126//126
f 127//127 76//76 86//86
f 127//127 11//11 10//10
f 11//11 127//127 54//54
f 133//133 84//84 132//132
f 84//84 77//77 132//132
f 84//84 133//133 87//87
f 59//59 56//56 135//135
f 12//12 44//44 68//68
f 12//12 68//68 42//42
f 12//12 42//42 44//44
f 35//35 68//68 105//105
f 35//35 42//42 68//68
f 149//149 40//40 26//26
f 45//45 153//153 13//13
f 153//153 99//99 13//13
f 70//70 146//146 37//37
f 146//146 149//149 27//27
f 107//107 40//40 149//149
f 47//47 46//46 124//124
f 124//124 46//46 121//121
f 124//124 75//75 47//47
f 124//124 125//125 75//75
f 16//16 145//145 14//14
f 14//14 15//15 16//16
f 15//15 14//14 145//145
f 30//30 16//16 29//29
f 30//30 144//144 16//16
f 18//18 143//143 17//17
f 17//17 31//31 18//18
f 31//31 17//17 143//143
f 67//67 19//19 32//32
f 19//19 31//31 32//32
f 19//19 67//67 31//31
f 109//109 31//31 143//143
f 91//91 20//20 93//93
f 91//91 92//92 20//20
f 90//90 93//93 95//95
f 33//33 113//113 21//21
f 113//113 111//111 22//22
f 21//21 113//113 22//22
f 23//23 99//99 96//96
f 96//96 118//118 23//23
f 59//59 135//135 100//100
f 100//100 135//135 83//83
f 134//134 56//56 88//88
f 134//134 135//135 56//56
f 134//134 88//88 87//87
f 133//133 134//134 87//87
f 136//136 78//78 83//83
f 135//135 136//136 83//83
f 136//136 81//81 78//78
f 103//103 35//35 105//105
f 35//35 103//103 104//104
f 150//150 35//35 104//104
f 27//27 149//149 24//24
f 24//24 26//26 27//27
f 26//26 24//24 149//149
f 25//25 40//40 27//27
f 27//27 26//26 25//25
f 25//25 26//26 40//40
f 38//38 27//27 37//37
f 38//38 146//146 27//27
f 106//106 105//105 40//40
f 102//102 107//107 104//104
f 29//29 144//144 28//28
f 28//28 30//30 29//29
f 30//30 28//28 144//144
f 108//108 32//32 31//31
f 31//31 109//109 108//108
f 108//108 95//95 32//32
f 110//110 113//113 33//33
f 137//137 33//33 67//67
f 115//115 110//110 137//137
f 137//137 110//110 33//33
f 116//116 118//118 96//96
f 48//48 74//74 139//139
f 139//139 49//49 48//48
f 139//139 140//140 49//49
f 34//34 42//42 35//35
f 34//34 150//150 42//42
f 35//35 150//150 34//34
f 150//150 151//151 42//42
f 37//37 146//146 36//36
f 36//36 38//38 37//37
f 38//38 36//36 146//146
f 39//39 107//107 106//106
f 107//107 39//39 40//40
f 39//39 106//106 40//40
f 67//67 72//72 141//141
f 141//141 72//72 140//140
f 138//138 74//74 129//129
f 138//138 139//139 74//74
f 138//138 129//129 81//81
f 136//136 138//138 81//81
f 41//41 44//44 42//42
f 41//41 151//151 44//44
f 42//42 151//151 41//41
f 151//151 152//152 44//44
f 131//131 137//137 67//67
f 67//67 141//141 131//131
f 43//43 45//45 44//44
f 44//44 152//152 43//43
f 43//43 152//152 45//45
f 142//142 153//153 45//45
f 45//45 152//152 142//142
f 46//46 47//47 48//48
f 49//49 46//46 48//48
f 50//50 52//52 51//51
f 50//50 53//53 52//52
f 54//54 51//51 52//52
f 54//54 55//55 51//51
f 56//56 57//57 58//58
f 56//56 59//59 57//57
f 53//53 50//50 60//60
f 60//60 61//61 53//53
f 60//60 62//62 63//63
f 63//63 61//61 60//60
f 64//64 63//63 62//62
f 64//64 65//65 63//63
f 67//67 66//66 68//68
f 66//66 67//67 69//69
f 70//70 66//66 69//69
f 71//71 70//70 69//69
f 72//72 46//46 49//49
f 72//72 73//73 46//46
f 72//72 67//67 68//68
f 72//72 68//68 73//73
f 48//48 47//47 74//74
f 47//47 75//75 74//74
f 64//64 76//76 65//65
f 76//76 64//64 77//77
f 80//80 79//79 78//78
f 78//78 81//81 80//80
f 79//79 82//82 78//78
f 82//82 83//83 78//78
f 84//84 85//85 86//86
f 87//87 85//85 84//84
f 84//84 76//76 77//77
f 86//86 76//76 84//84
f 88//88 85//85 87//87
f 88//88 89//89 85//85
f 88//88 56//56 58//58
f 58//58 89//89 88//88
f 91//91 90//90 92//92
f 90//90 91//91 93//93
f 90//90 94//94 92//92
f 90//90 95//95 94//94
f 96//96 98//98 97//97
f 96//96 99//99 98//98
f 100//100 57//57 59//59
f 101//101 57//57 100//100
f 100//100 83//83 82//82
f 100//100 82//82 101//101
f 103//103 102//102 104//104
f 102//102 103//103 105//105
f 105//105 106//106 102//102
f 102//102 106//106 107//107
f 108//108 109//109 94//94
f 95//95 108//108 94//94
f 110//110 112//112 111//111
f 111//111 113//113 110//110
f 110//110 114//114 112//112
f 110//110 115//115 114//114
f 116//116 117//117 118//118
f 116//116 119//119 120//120
f 116//116 121//121 122//122
f 116//116 123//123 119//119
f 125//125 124//124 116//116
f 116//116 126//126 123//123
f 127//127 116//116 54//54
f 117//117 116//116 122//122
f 120//120 125//125 116//116
f 116//116 127//127 126//126
f 116//116 124//124 121//121
f 116//116 128//128 54//54
f 116//116 96//96 97//97
f 116//116 97//97 128//128
f 80//80 81//81 129//129
f 129//129 130//130 80//80
f 129//129 74//74 75//75
f 129//129 75//75 130//130
f 55//55 114//114 131//131
f 131//131 132//132 55//55
f 114//114 115//115 131//131
f 131//131 133//133 132//132
f 135//135 134//134 131//131
f 131//131 136//136 135//135
f 131//131 134//134 133//133
f 115//115 137//137 131//131
f 139//139 138//138 131//131
f 140//140 139//139 131//131
f 131//131 141//141 140//140
f 131//131 138//138 136//136
f 142//142 109//109 143//143
f 142//142 111//111 112//112
f 145//145 144//144 142//142
f 104//104 107//107 142//142
f 142//142 146//146 70//70
f 147//147 111//111 142//142
f 142//142 55//55 54//54
f 142//142 114//114 55//55
f 71//71 145//145 142//142
f 142//142 143//143 147//147
f 142//142 92//92 94//94
f 112//112 114//114 142//142
f 142//142 70//70 71//71
f 142//142 128//128 97//97
f 142//142 144//144 148//148
f 148//148 92//92 142//142
f 142//142 97//97 98//98
f 149//149 146//146 142//142
f 142//142 107//107 149//149
f 94//94 109//109 142//142
f 54//54 128//128 142//142
f 142//142 150//150 104//104
f 142//142 151//151 150//150
f 142//142 152//152 151//151
f 98//98 99//99 142//142
f 99//99 153//153 142//142
# 302 faces, 0 coords texture

# End of File