# generated by collision_forge
v -0.002609 0.052719 0.011967
v -0.002609 0.052578 0.012781
v -0.003655 0.052706 0.011967
v -0.001565 0.052294 0.013378
v 0.000525 0.052281 0.013365
v -0.001565 0.052564 0.012781
v -0.003655 0.052291 0.013375
v -0.002609 0.052300 0.013385
v 0.006791 0.051026 0.014263
v 0.007835 0.051024 0.014251
v -0.005344 0.052654 0.011967
v -0.005344 0.051703 0.013663
v -0.005344 0.048947 0.015253
v 0.004701 0.049430 0.015253
v 0.005470 0.049450 0.015253
v 0.005745 0.049456 0.015253
v 0.002614 0.052256 0.013342
v 0.008355 0.049429 0.015253
v 0.008878 0.051001 0.014236
v 0.004391 0.052232 0.013313
v -0.005344 0.051551 0.011967
v -0.005344 0.052497 0.012781
v -0.005344 0.047103 0.015253
v 0.010900 0.049285 0.015253
v 0.009922 0.050975 0.014207
v 0.005086 0.052220 0.013289
v 0.003658 0.052424 0.012781
v -0.005344 0.049284 0.013427
v 0.014436 0.049730 0.011967
v 0.022490 0.046308 0.012811
v -0.005344 0.049042 0.013628
v -0.002609 0.046676 0.015253
v 0.015981 0.048588 0.015253
v 0.013055 0.050299 0.014472
v 0.009922 0.051473 0.013685
v 0.014098 0.050228 0.014423
v 0.014436 0.050956 0.011967
v 0.022487 0.047729 0.012811
v 0.022490 0.044411 0.015253
v 0.022455 0.044412 0.015253
v 0.005745 0.052203 0.013236
v 0.014788 0.050170 0.014376
v 0.004704 0.052478 0.011967
v 0.017117 0.050279 0.012811
v 0.020501 0.048888 0.012811
v 0.021411 0.048387 0.012811
v 0.022490 0.047655 0.013781
v 0.022490 0.046792 0.015253
v 0.019316 0.048021 0.015253
v 0.015485 0.050096 0.014302
v 0.012832 0.051241 0.013403
v 0.007470 0.052245 0.012359
v 0.013690 0.051206 0.012511
v 0.019935 0.049136 0.013431
v 0.016962 0.050220 0.013469
v 0.021817 0.047981 0.014088
v 0.016188 0.050335 0.013655
v 0.013526 0.051159 0.013207
v 0.012009 0.051539 0.011967
v 0.018891 0.049125 0.014384
v 0.021122 0.048162 0.014483
v 0.022305 0.046885 0.015253
f 29 37 30
f 30 21 29
f 30 39 40
f 40 32 30
f 28 21 30
f 30 32 28
f 30 37 38
f 37 46 38
f 31 32 23
f 31 28 32
f 45 46 37
f 37 44 45
f 7 22 12
f 7 16 8
f 7 12 13
f 13 14 7
f 6 1 2
f 22 7 2
f 2 7 8
f 47 38 46
f 47 56 48
f 30 38 47
f 50 49 60
f 49 36 33
f 42 49 50
f 42 36 49
f 34 25 24
f 34 36 25
f 24 33 34
f 34 33 36
f 6 2 5
f 27 1 6
f 19 18 24
f 24 25 19
f 25 26 19
f 16 7 15
f 15 7 14
f 3 2 1
f 11 22 3
f 22 2 3
f 62 60 49
f 51 42 50
f 6 5 17
f 1 27 43
f 43 27 52
f 52 59 43
f 41 27 26
f 52 27 41
f 41 51 52
f 16 18 9
f 8 16 9
f 50 60 57
f 60 55 57
f 57 51 50
f 54 55 60
f 56 47 54
f 54 45 44
f 44 55 54
f 46 45 54
f 54 47 46
f 61 62 48
f 48 56 61
f 60 62 61
f 56 54 61
f 61 54 60
f 58 55 44
f 58 57 55
f 51 57 58
f 52 51 58
f 6 17 20
f 20 27 6
f 26 27 20
f 20 19 26
f 51 41 35
f 25 36 35
f 35 26 25
f 35 41 26
f 36 42 35
f 42 51 35
f 18 19 10
f 10 9 18
f 19 20 10
f 10 20 17
f 10 17 5
f 5 9 10
f 8 9 4
f 4 9 5
f 4 2 8
f 4 5 2
f 37 59 53
f 53 44 37
f 53 58 44
f 53 59 52
f 52 58 53
f 31 23 13
f 11 21 31
f 31 22 11
f 13 12 31
f 21 28 31
f 12 22 31
f 47 48 39
f 47 39 30
f 16 15 62
f 13 23 62
f 39 48 62
f 23 32 62
f 62 40 39
f 32 40 62
f 24 18 62
f 62 14 13
f 62 33 24
f 62 18 16
f 49 33 62
f 62 15 14
f 43 21 11
f 37 29 43
f 43 29 21
f 11 3 43
f 43 3 1
f 43 59 37
