# generated by collision_forge
v 0.007833 0.017120 0.034099
v 0.008828 0.017078 0.034099
v -0.008878 0.019383 0.032447
v 0.008828 0.014117 0.034099
v -0.005343 0.019205 0.032447
v 0.004698 0.016767 0.034219
v 0.008828 -0.004465 0.038986
v -0.016407 -0.004467 0.036737
v -0.005343 0.016734 0.032447
v -0.009923 0.019245 0.032447
v -0.007835 0.015061 0.034382
v 0.004698 0.013932 0.035380
v 0.005743 0.013972 0.035395
v 0.008828 0.013949 0.035385
v 0.008828 -0.004465 0.040026
v -0.016407 -0.004467 0.037839
v -0.016407 0.013731 0.032447
v -0.009923 0.014912 0.034315
v -0.007835 0.012733 0.035315
v 0.005081 0.011503 0.036288
v -0.007835 0.012009 0.035584
v 0.008828 0.011093 0.036415
v 0.005975 -0.004465 0.040114
v -0.005343 -0.004467 0.039726
v -0.014050 -0.004467 0.038450
v -0.016407 0.016778 0.032447
v -0.010965 0.011883 0.035387
v 0.004881 0.008414 0.037346
v -0.007835 0.009667 0.036366
v 0.008828 0.007894 0.037448
v -0.016407 -0.002825 0.037721
v -0.012010 0.011695 0.035317
v 0.005743 0.008435 0.037354
v -0.007835 0.008875 0.036607
v 0.008828 -0.001565 0.039709
v 0.005743 -0.001565 0.039841
v 0.001566 -0.002608 0.039887
v -0.016407 0.011976 0.034348
v -0.013077 0.016258 0.033347
v -0.013361 0.018296 0.032447
v -0.009905 0.008945 0.036412
v 0.004698 0.004584 0.038476
v 0.005743 0.004617 0.038486
v -0.013769 0.007456 0.036318
v -0.006791 0.005748 0.037540
v 0.008828 0.004446 0.038440
v 0.007833 0.000201 0.039458
v -0.005746 0.000524 0.038807
v -0.007835 0.000524 0.038641
v -0.007754 -0.004467 0.039477
v -0.010965 -0.002610 0.038791
v -0.010511 0.005256 0.037334
v -0.016407 0.008751 0.035439
v 0.002608 0.003658 0.038604
v 0.004698 0.000276 0.039474
v -0.007835 0.004701 0.037733
v 0.002806 0.000077 0.039432
v -0.010634 0.000157 0.038401
v -0.015738 0.001143 0.037344
v -0.013702 0.003237 0.037349
v -0.005746 0.002349 0.038427
v -0.016407 0.003675 0.036687
f 17 9 8
f 5 3 2
f 4 7 8
f 8 9 4
f 51 25 50
f 23 15 36
f 36 37 23
f 58 51 50
f 60 62 59
f 25 51 59
f 59 58 60
f 51 58 59
f 53 32 38
f 34 45 42
f 24 37 48
f 23 37 24
f 24 15 23
f 7 15 24
f 8 7 24
f 3 11 6
f 35 36 15
f 47 36 35
f 35 46 47
f 37 36 55
f 55 36 47
f 47 46 43
f 42 55 43
f 43 55 47
f 43 46 30
f 30 33 43
f 44 53 62
f 44 62 60
f 32 53 44
f 42 45 54
f 54 55 42
f 56 54 45
f 61 54 56
f 49 24 48
f 50 24 49
f 49 58 50
f 48 61 49
f 61 56 49
f 2 3 1
f 3 6 1
f 1 14 2
f 21 20 12
f 12 6 11
f 28 34 42
f 42 43 28
f 28 43 33
f 28 20 21
f 28 33 20
f 22 33 30
f 20 33 22
f 48 37 57
f 37 55 57
f 57 61 48
f 57 54 61
f 55 54 57
f 31 59 62
f 31 16 25
f 25 59 31
f 40 18 10
f 10 11 3
f 10 18 11
f 39 18 40
f 38 32 39
f 39 26 38
f 39 40 26
f 27 39 32
f 18 39 27
f 52 44 60
f 60 58 52
f 58 49 52
f 52 49 56
f 13 1 6
f 6 12 13
f 14 1 13
f 13 12 20
f 13 22 14
f 20 22 13
f 21 12 19
f 19 12 11
f 11 18 19
f 19 27 21
f 18 27 19
f 29 28 21
f 34 28 29
f 21 27 29
f 41 52 56
f 45 34 41
f 41 56 45
f 34 29 41
f 41 29 27
f 41 27 32
f 32 44 41
f 44 52 41
f 9 5 4
f 4 5 2
f 50 25 16
f 8 24 16
f 16 24 50
f 22 15 7
f 22 4 2
f 7 4 22
f 2 14 22
f 30 46 22
f 22 35 15
f 46 35 22
f 31 26 17
f 38 26 31
f 31 17 8
f 31 53 38
f 62 53 31
f 8 16 31
f 9 17 10
f 3 5 10
f 10 5 9
f 17 26 10
f 26 40 10
