# generated by collision_forge
v 0.029523 -0.009924 0.034347
v 0.029521 -0.008879 0.034346
v 0.027478 -0.007834 0.035400
v 0.027467 -0.008879 0.035438
v 0.027473 -0.012013 0.035402
v 0.029470 -0.012013 0.034324
v 0.030045 -0.009924 0.034028
v 0.029383 -0.005747 0.034269
v 0.027467 -0.013058 0.035351
v 0.029431 -0.013058 0.034302
v 0.031384 -0.008879 0.033182
v 0.031347 -0.007189 0.033156
v 0.027467 -0.014103 0.035270
v 0.030784 -0.013058 0.033462
v 0.033218 -0.009924 0.031971
v 0.033176 -0.012013 0.031960
v 0.033194 -0.007834 0.031944
v 0.030751 -0.005747 0.033445
v 0.030690 -0.004703 0.033407
v 0.029286 -0.004467 0.034215
v 0.027467 -0.004703 0.035184
v 0.027467 -0.015147 0.035176
v 0.029293 -0.014869 0.034218
v 0.033025 -0.015147 0.031887
v 0.033538 -0.012013 0.031654
v 0.033538 -0.008879 0.031660
v 0.033125 -0.005747 0.031883
v 0.027467 -0.004467 0.035154
v 0.030537 -0.016192 0.033306
v 0.033538 -0.017239 0.031277
v 0.033538 -0.004925 0.031441
v 0.033538 -0.004467 0.031404
v 0.027467 -0.004467 0.033874
v 0.027467 -0.016071 0.035067
v 0.028501 -0.017239 0.034364
v 0.030419 -0.017239 0.033227
v 0.033538 -0.018064 0.031153
v 0.033538 -0.004467 0.029182
v 0.027467 -0.030307 0.029279
v 0.027467 -0.018279 0.034736
v 0.033446 -0.018873 0.031076
v 0.033538 -0.030307 0.024796
v 0.027467 -0.019319 0.034567
v 0.028249 -0.018937 0.034218
v 0.029582 -0.019324 0.033357
v 0.029281 -0.020970 0.033169
v 0.033516 -0.022167 0.030089
v 0.033538 -0.030307 0.026754
v 0.027467 -0.029604 0.031118
v 0.027714 -0.030307 0.030594
v 0.027467 -0.021342 0.034149
v 0.030368 -0.022114 0.032157
v 0.033516 -0.025268 0.029044
v 0.028275 -0.023131 0.033192
v 0.029342 -0.024193 0.032166
v 0.028258 -0.026199 0.032140
v 0.033538 -0.027707 0.028033
v 0.033428 -0.030297 0.026888
v 0.033416 -0.028192 0.027923
v 0.028091 -0.029085 0.030976
v 0.027467 -0.027304 0.032168
v 0.027467 -0.024264 0.033306
f 33 38 39
f 39 38 42
f 4 2 3
f 25 26 15
f 15 16 25
f 11 16 15
f 11 2 7
f 7 16 11
f 2 18 8
f 8 3 2
f 12 2 11
f 12 18 2
f 20 8 19
f 19 8 18
f 50 49 39
f 58 49 50
f 50 48 58
f 9 5 4
f 16 7 14
f 1 7 2
f 1 2 4
f 4 5 1
f 25 16 24
f 16 14 24
f 20 28 21
f 21 8 20
f 3 8 21
f 4 3 21
f 18 12 27
f 27 19 18
f 13 22 23
f 23 22 34
f 34 35 23
f 6 14 7
f 7 1 6
f 6 1 5
f 23 35 29
f 29 24 23
f 25 24 30
f 24 29 30
f 17 27 12
f 11 15 17
f 17 12 11
f 17 15 26
f 19 27 32
f 20 19 32
f 40 43 35
f 35 34 40
f 44 43 51
f 51 45 44
f 35 43 44
f 46 45 51
f 41 45 46
f 14 6 10
f 23 24 10
f 10 24 14
f 9 13 10
f 10 13 23
f 5 9 10
f 10 6 5
f 41 37 36
f 36 45 41
f 37 30 36
f 36 30 29
f 36 29 35
f 35 44 36
f 36 44 45
f 57 53 59
f 58 48 57
f 57 59 58
f 47 37 41
f 47 57 37
f 53 57 47
f 59 53 56
f 31 17 26
f 27 17 31
f 31 32 27
f 60 49 58
f 58 59 60
f 56 62 61
f 49 60 61
f 59 56 61
f 61 60 59
f 51 62 54
f 54 46 51
f 46 54 52
f 41 46 52
f 52 47 41
f 53 47 55
f 55 56 53
f 47 52 55
f 55 52 54
f 55 62 56
f 55 54 62
f 42 48 50
f 39 42 50
f 33 28 32
f 32 28 20
f 38 33 32
f 31 42 38
f 31 26 25
f 25 30 31
f 31 48 42
f 38 32 31
f 31 30 37
f 31 57 48
f 37 57 31
f 39 49 61
f 51 43 61
f 61 33 39
f 61 28 33
f 61 9 4
f 43 40 61
f 4 21 61
f 22 13 61
f 61 21 28
f 61 13 9
f 61 34 22
f 61 40 34
f 61 62 51
