# generated by collision_forge
v 0.027467 -0.043117 0.018537
v 0.001757 -0.036900 0.034732
v 0.006192 -0.051871 0.018539
v 0.027467 -0.036903 0.026761
v 0.014104 -0.041998 0.029171
v 0.001757 -0.051380 0.019837
v 0.018523 -0.041650 0.027807
v 0.026038 -0.043836 0.021619
v 0.024017 -0.040734 0.025835
v 0.021158 -0.036903 0.030293
v 0.003657 -0.051950 0.018539
v 0.007835 -0.042169 0.030368
v 0.009924 -0.046101 0.026001
v 0.015725 -0.050287 0.018537
v 0.008293 -0.036900 0.034415
v 0.008879 -0.048098 0.023815
v 0.009896 -0.051533 0.018539
v 0.011816 -0.037718 0.033228
v 0.021792 -0.048036 0.018537
v 0.004702 -0.042844 0.030031
v 0.023969 -0.045926 0.020573
v 0.015750 -0.049113 0.020641
v 0.019993 -0.043943 0.024868
v 0.027467 -0.036903 0.025134
v 0.018893 -0.038706 0.030054
v 0.005301 -0.044921 0.027932
v 0.027467 -0.042844 0.021662
v 0.018938 -0.048098 0.020671
v 0.021880 -0.046978 0.020584
v 0.013060 -0.046213 0.025091
v 0.001757 -0.043946 0.029045
v 0.001757 -0.050683 0.018539
v 0.014914 -0.042932 0.028028
v 0.013825 -0.039790 0.031135
v 0.001757 -0.036900 0.033397
v 0.012798 -0.036900 0.033530
v 0.001757 -0.051955 0.018539
v 0.025459 -0.036903 0.028001
v 0.017235 -0.044050 0.026024
v 0.004702 -0.048798 0.023362
v 0.004702 -0.039425 0.032949
v 0.013060 -0.050343 0.019906
v 0.021714 -0.038510 0.028863
v 0.027467 -0.038337 0.025665
v 0.017152 -0.036903 0.032062
v 0.011821 -0.044126 0.027722
v 0.023443 -0.036903 0.029137
v 0.005746 -0.051343 0.019804
v 0.010679 -0.040797 0.031108
v 0.008454 -0.038670 0.033163
v 0.001757 -0.038953 0.033369
v 0.026216 -0.045500 0.018537
v 0.016190 -0.038126 0.031582
v 0.017028 -0.040894 0.029101
v 0.002613 -0.049214 0.022873
v 0.009483 -0.051188 0.019587
v 0.002613 -0.051382 0.019841
v 0.012013 -0.048220 0.022931
v 0.004702 -0.047340 0.025210
v 0.027467 -0.044408 0.019056
v 0.001757 -0.047363 0.025229
v 0.022761 -0.042708 0.024674
f 29 19 21
f 32 35 24
f 1 32 24
f 24 36 4
f 35 36 24
f 28 19 29
f 29 21 23
f 51 31 20
f 19 28 14
f 42 17 14
f 14 17 3
f 37 32 14
f 14 32 1
f 46 49 12
f 12 13 46
f 30 46 13
f 33 46 30
f 52 21 19
f 52 60 21
f 1 60 52
f 2 51 41
f 41 15 2
f 41 20 12
f 51 20 41
f 15 41 50
f 12 49 50
f 50 41 12
f 26 20 31
f 31 61 26
f 26 13 12
f 12 20 26
f 5 34 49
f 5 46 33
f 49 46 5
f 33 54 5
f 5 54 34
f 18 34 36
f 49 34 18
f 18 50 49
f 36 15 18
f 15 50 18
f 36 10 47
f 45 10 36
f 25 10 45
f 28 30 22
f 42 14 22
f 22 14 28
f 58 30 13
f 42 22 58
f 58 22 30
f 33 30 39
f 39 30 28
f 39 28 29
f 29 23 39
f 21 60 27
f 62 23 21
f 25 54 7
f 7 62 9
f 23 62 7
f 7 39 23
f 7 54 33
f 33 39 7
f 11 57 37
f 37 14 11
f 11 14 3
f 37 57 6
f 55 61 6
f 6 57 55
f 42 58 16
f 16 58 13
f 3 17 56
f 56 17 42
f 42 16 56
f 4 36 38
f 36 47 38
f 25 7 43
f 43 7 9
f 43 10 25
f 43 47 10
f 9 38 43
f 43 38 47
f 25 45 53
f 53 54 25
f 34 54 53
f 36 34 53
f 53 45 36
f 9 27 44
f 4 38 44
f 44 38 9
f 21 27 8
f 8 62 21
f 8 27 9
f 9 62 8
f 48 11 3
f 57 11 48
f 3 56 48
f 55 57 48
f 59 26 61
f 59 61 55
f 13 26 59
f 59 16 13
f 40 56 16
f 40 48 56
f 16 59 40
f 55 48 40
f 40 59 55
f 15 35 2
f 15 36 35
f 19 14 52
f 52 14 1
f 6 32 37
f 2 35 6
f 6 35 32
f 6 51 2
f 6 31 51
f 6 61 31
f 44 24 4
f 1 24 44
f 44 60 1
f 44 27 60
