# generated by collision_forge
v 0.001755 -0.023244 0.040051
v -0.023540 -0.033852 0.029158
v -0.013614 -0.040691 0.029158
v -0.023540 -0.023244 0.032440
v -0.014694 -0.032435 0.034220
v 0.001755 -0.037697 0.034259
v -0.006581 -0.023244 0.039471
v -0.008619 -0.042541 0.029157
v -0.019092 -0.032645 0.032249
v -0.013706 -0.036629 0.032156
v -0.002614 -0.040560 0.031954
v -0.010442 -0.039688 0.031057
v -0.006789 -0.026638 0.038618
v 0.001564 -0.043831 0.029157
v -0.023540 -0.031260 0.029158
v 0.001755 -0.026209 0.039444
v 0.001755 -0.033846 0.036490
v -0.017963 -0.023244 0.036363
v -0.003659 -0.038785 0.033252
v -0.007339 -0.040742 0.031068
v -0.008557 -0.026251 0.038412
v -0.007834 -0.037739 0.033249
v -0.020932 -0.026174 0.034214
v -0.020038 -0.036830 0.029158
v -0.021194 -0.030610 0.032263
v -0.011645 -0.037677 0.032161
v 0.001755 -0.042160 0.029157
v -0.022348 -0.034990 0.029158
v 0.000522 -0.024548 0.039868
v -0.008619 -0.029403 0.037385
v -0.023535 -0.024534 0.033389
v -0.011583 -0.034521 0.034225
v 0.001755 -0.029372 0.038415
v -0.009927 -0.023244 0.038808
v -0.005746 -0.030602 0.037446
v -0.023525 -0.023244 0.033745
v -0.004701 -0.041554 0.030866
v -0.021405 -0.035790 0.029158
v 0.001755 -0.042878 0.030069
v -0.010967 -0.030501 0.036369
v 0.001755 -0.023244 0.038984
v -0.002614 -0.033723 0.036427
v 0.000522 -0.040125 0.032463
v -0.017145 -0.038775 0.029158
v -0.003659 -0.037018 0.034486
v -0.002614 -0.028633 0.038517
v -0.014696 -0.024125 0.037350
v -0.018889 -0.037636 0.029158
v -0.023540 -0.026692 0.032681
v -0.023540 -0.031851 0.030307
v -0.022953 -0.034438 0.029158
v -0.002614 -0.031559 0.037421
v -0.006789 -0.034706 0.035376
v -0.016910 -0.030479 0.034276
v -0.018990 -0.028419 0.034281
v -0.013763 -0.028373 0.036346
v -0.015830 -0.026297 0.036343
v -0.011655 -0.027303 0.037372
v -0.016858 -0.034577 0.032174
v -0.002772 -0.043635 0.029157
v -0.003480 -0.025219 0.039454
v -0.010967 -0.032687 0.035393
f 15 8 2
f 4 41 27
f 27 15 4
f 8 15 27
f 3 44 8
f 10 44 3
f 32 22 53
f 29 16 1
f 1 7 29
f 29 7 61
f 46 16 29
f 29 61 46
f 34 18 47
f 8 38 28
f 8 44 48
f 10 32 59
f 59 32 5
f 59 44 10
f 59 48 44
f 12 20 22
f 12 3 8
f 8 20 12
f 46 61 13
f 13 35 46
f 61 7 13
f 26 32 10
f 22 32 26
f 26 12 22
f 10 3 26
f 3 12 26
f 40 5 62
f 5 32 62
f 62 32 53
f 25 54 55
f 57 47 18
f 49 50 25
f 25 55 49
f 2 8 51
f 8 28 51
f 51 50 2
f 24 38 8
f 8 48 24
f 24 59 38
f 48 59 24
f 9 54 25
f 5 54 9
f 9 59 5
f 9 51 28
f 9 28 38
f 38 59 9
f 25 50 9
f 50 51 9
f 21 7 34
f 21 13 7
f 33 16 46
f 42 35 53
f 6 17 42
f 22 20 19
f 6 19 43
f 43 19 11
f 37 20 8
f 37 19 20
f 11 19 37
f 31 36 4
f 4 49 31
f 34 47 58
f 58 21 34
f 47 57 58
f 17 33 52
f 52 42 17
f 52 33 46
f 46 35 52
f 35 42 52
f 53 22 45
f 22 19 45
f 45 42 53
f 6 42 45
f 45 19 6
f 39 43 11
f 6 43 39
f 14 27 39
f 60 37 8
f 11 37 60
f 14 39 60
f 60 39 11
f 18 36 23
f 36 31 23
f 23 57 18
f 55 57 23
f 23 49 55
f 23 31 49
f 40 58 56
f 56 58 57
f 56 5 40
f 56 54 5
f 56 55 54
f 56 57 55
f 30 58 40
f 21 58 30
f 40 62 30
f 35 13 30
f 13 21 30
f 53 35 30
f 30 62 53
f 36 41 4
f 1 41 36
f 36 7 1
f 36 18 34
f 34 7 36
f 4 15 49
f 49 15 2
f 2 50 49
f 39 41 1
f 1 16 39
f 39 27 41
f 16 33 39
f 39 17 6
f 39 33 17
f 8 27 60
f 60 27 14
