# generated by collision_forge
v 0.016425 -0.048407 0.006812
v -0.011754 -0.050311 0.018714
v 0.016425 -0.048729 0.018535
v 0.012008 -0.050216 0.007826
v -0.007288 -0.051263 0.018714
v -0.011498 -0.051184 0.014330
v -0.008383 -0.050144 0.007028
v -0.011754 -0.048576 0.006880
v -0.006256 -0.052219 0.014441
v 0.016425 -0.050204 0.011976
v -0.004490 -0.052259 0.013115
v -0.005743 -0.050366 0.006783
v 0.016425 -0.049334 0.008665
v 0.014596 -0.050568 0.018535
v -0.009920 -0.048842 0.006773
v -0.007426 -0.051201 0.010093
v 0.001759 -0.050577 0.018714
v 0.008463 -0.051197 0.009073
v 0.009406 -0.052227 0.014339
v -0.003307 -0.051200 0.008016
v -0.005743 -0.051601 0.010693
v 0.016210 -0.050128 0.018535
v -0.011754 -0.051090 0.015684
v 0.015222 -0.049321 0.007476
v -0.011754 -0.049037 0.018714
v 0.001759 -0.051882 0.018714
v 0.005742 -0.052598 0.015913
v -0.008877 -0.051515 0.012778
v -0.002611 -0.052618 0.014870
v -0.000523 -0.052645 0.013824
v 0.006576 -0.052252 0.017560
v 0.000523 -0.051046 0.007169
v 0.016425 -0.050719 0.015913
v 0.013053 -0.051627 0.014869
v 0.000523 -0.052670 0.015913
v 0.005742 -0.052612 0.014869
v 0.002611 -0.052653 0.013824
v 0.001568 -0.052323 0.011780
v 0.016425 -0.047762 0.007593
v -0.006292 -0.052228 0.015406
v -0.001566 -0.052287 0.011953
v 0.000523 -0.052312 0.017753
v 0.012695 -0.051215 0.012115
v 0.007596 -0.052256 0.013138
v -0.011754 -0.048311 0.007576
v -0.011754 -0.050361 0.010677
v 0.009922 -0.050255 0.006882
v -0.004498 -0.052267 0.016600
v 0.010446 -0.051182 0.010167
v -0.009500 -0.051201 0.017553
v 0.011605 -0.051292 0.018535
v -0.011754 -0.049205 0.006905
v 0.005489 -0.052247 0.012158
v 0.014720 -0.051209 0.016532
v -0.002341 -0.052245 0.017545
v 0.009517 -0.052242 0.016495
v 0.016425 -0.047828 0.006812
v 0.003657 -0.051268 0.007792
v -0.002611 -0.051233 0.007915
v 0.006788 -0.050443 0.006751
v -0.004700 -0.050426 0.006757
v 0.013053 -0.049383 0.006772
f 39 25 3
f 45 25 39
f 35 55 48
f 17 26 3
f 3 25 17
f 45 39 57
f 62 47 60
f 62 57 1
f 60 15 62
f 15 57 62
f 49 18 4
f 4 18 47
f 5 55 26
f 5 48 55
f 42 55 35
f 26 55 42
f 45 57 8
f 8 57 15
f 1 13 24
f 24 62 1
f 47 62 24
f 24 4 47
f 3 26 22
f 58 18 53
f 60 47 58
f 47 18 58
f 50 5 2
f 2 23 50
f 48 5 50
f 6 23 46
f 52 8 15
f 15 12 52
f 35 48 29
f 29 30 35
f 44 18 49
f 49 19 44
f 53 18 44
f 43 19 49
f 49 4 43
f 43 24 13
f 4 24 43
f 38 58 53
f 59 58 38
f 59 12 32
f 32 58 59
f 60 58 32
f 54 22 14
f 14 51 54
f 14 22 26
f 26 51 14
f 54 51 56
f 20 12 59
f 46 52 7
f 7 52 12
f 12 20 7
f 36 44 19
f 53 44 36
f 19 56 36
f 10 43 13
f 19 43 34
f 54 56 34
f 34 56 19
f 43 10 34
f 59 38 41
f 41 38 30
f 41 20 59
f 60 32 61
f 61 32 12
f 61 15 60
f 61 12 15
f 31 51 26
f 31 56 51
f 26 42 31
f 30 38 37
f 35 30 37
f 37 36 35
f 37 38 53
f 53 36 37
f 54 34 33
f 33 34 10
f 33 22 54
f 3 22 33
f 30 29 11
f 11 41 30
f 27 36 56
f 56 31 27
f 35 36 27
f 27 42 35
f 27 31 42
f 9 11 29
f 11 9 28
f 6 46 28
f 28 9 6
f 40 29 48
f 40 9 29
f 48 50 40
f 40 50 23
f 40 23 6
f 6 9 40
f 16 7 20
f 46 7 16
f 16 28 46
f 11 28 21
f 28 16 21
f 21 16 20
f 20 41 21
f 41 11 21
f 5 25 2
f 26 17 5
f 5 17 25
f 2 25 52
f 52 25 45
f 52 23 2
f 45 8 52
f 52 46 23
f 33 39 3
f 33 13 1
f 1 57 33
f 33 57 39
f 33 10 13
