# generated by collision_forge
v 0.030035 -0.021828 0.000899
v -0.030274 -0.019932 0.001182
v 0.028276 0.040382 0.011000
v 0.013554 0.050611 0.011000
v 0.029105 0.031343 0.002925
v 0.033207 -0.022227 0.003778
v 0.007853 -0.051180 0.011000
v 0.030977 0.028919 0.011000
v 0.032620 -0.038100 0.011000
v -0.034136 0.029855 0.011000
v 0.027288 -0.038953 0.001663
v -0.015545 -0.042658 0.000386
v 0.034038 -0.019643 0.011000
v -0.030278 -0.034272 0.011000
v -0.028545 0.033476 0.000110
v 0.005322 0.046135 0.001052
v -0.028276 -0.017851 0.000100
v -0.030139 0.042973 0.011000
v -0.031320 -0.026504 0.011000
v -0.010876 0.049297 0.003291
v 0.029742 -0.004017 0.000855
v -0.031495 0.027451 0.000544
v -0.016954 -0.048015 0.011000
v -0.003316 0.052154 0.011000
v 0.005253 -0.048212 0.002095
v 0.024606 0.036441 0.001088
f 17 1 12
f 23 14 12
f 26 15 16
f 13 6 8
f 9 6 13
f 17 12 2
f 2 12 14
f 3 26 4
f 4 26 16
f 3 8 5
f 5 26 3
f 5 8 6
f 23 12 25
f 10 2 19
f 19 2 14
f 22 2 10
f 10 18 22
f 22 18 15
f 22 15 17
f 17 2 22
f 20 18 24
f 24 4 20
f 20 4 16
f 16 15 20
f 15 18 20
f 21 6 1
f 21 5 6
f 26 5 21
f 15 26 21
f 21 1 17
f 17 15 21
f 23 25 7
f 1 6 11
f 6 9 11
f 11 12 1
f 11 25 12
f 9 7 11
f 11 7 25
f 3 4 7
f 7 18 10
f 13 8 7
f 7 14 23
f 7 9 13
f 7 8 3
f 10 19 7
f 7 4 24
f 24 18 7
f 7 19 14
