# generated by collision_forge
v -0.031207 0.039958 0.014538
v -0.031207 0.042179 0.014538
v -0.031206 0.038519 0.006891
v -0.031206 0.038541 0.007559
v -0.022608 0.045028 0.014538
v -0.030484 0.043046 0.014538
v -0.031206 0.039170 0.006806
v -0.031207 0.042636 0.011776
v -0.022608 0.047624 0.006824
v -0.022608 0.047341 0.007559
v -0.022608 0.046944 0.014538
v -0.029440 0.044051 0.014503
v -0.030308 0.043893 0.013351
v -0.031206 0.039427 0.006823
v -0.027454 0.045183 0.006839
v -0.024547 0.047240 0.006829
v -0.030312 0.043897 0.012059
v -0.031206 0.042166 0.009641
v -0.031206 0.041526 0.008245
v -0.031206 0.041000 0.007283
v -0.031206 0.040621 0.007031
v -0.031206 0.040137 0.006870
v -0.022608 0.048247 0.006837
v -0.024696 0.046326 0.014538
v -0.028333 0.045008 0.014429
v -0.029317 0.044983 0.012781
v -0.031207 0.042691 0.013304
v -0.030413 0.041959 0.006903
v -0.029469 0.043092 0.006850
v -0.028150 0.044862 0.007160
v -0.025188 0.047081 0.006941
v -0.023160 0.048133 0.006928
v -0.029269 0.044939 0.011098
v -0.030216 0.043791 0.010691
v -0.030301 0.042839 0.008054
v -0.022608 0.048376 0.013680
v -0.026340 0.046057 0.014411
v -0.022608 0.048551 0.013571
v -0.028205 0.045961 0.013308
v -0.028238 0.045989 0.011736
v -0.029168 0.043787 0.007223
v -0.027062 0.045881 0.007245
v -0.028213 0.045969 0.011157
v -0.029113 0.044779 0.009647
v -0.030117 0.043654 0.009647
v -0.022608 0.048850 0.008535
v -0.024257 0.048145 0.013410
v -0.022608 0.049005 0.013090
v -0.026279 0.047102 0.013427
v -0.026511 0.047266 0.011736
v -0.028038 0.045814 0.009647
v -0.026215 0.047073 0.008903
v -0.024245 0.048157 0.008604
v -0.026843 0.046769 0.009647
v -0.024953 0.047985 0.013119
v -0.025141 0.048088 0.012423
v -0.025066 0.048043 0.010190
v -0.024470 0.048276 0.009647
v -0.022608 0.049252 0.010594
v -0.023042 0.049121 0.012348
v -0.023034 0.049115 0.010970
v -0.022608 0.049318 0.011736
f 4 5 1
f 1 3 4
f 4 3 5
f 5 3 10
f 3 9 10
f 8 3 1
f 56 57 50
f 13 2 6
f 38 37 36
f 36 37 11
f 11 37 24
f 24 12 6
f 25 12 24
f 24 37 25
f 9 16 23
f 38 48 47
f 47 48 55
f 47 37 38
f 60 48 62
f 55 48 60
f 60 56 55
f 39 56 50
f 26 13 39
f 39 12 25
f 6 12 39
f 39 13 6
f 17 13 26
f 2 13 27
f 27 17 8
f 13 17 27
f 62 59 61
f 57 56 61
f 61 60 62
f 56 60 61
f 58 59 46
f 58 46 53
f 57 61 58
f 58 61 59
f 46 23 32
f 53 46 32
f 32 23 16
f 55 56 49
f 56 39 49
f 49 39 25
f 49 47 55
f 25 37 49
f 37 47 49
f 35 18 45
f 8 17 34
f 34 18 8
f 45 18 34
f 31 32 16
f 16 15 31
f 15 42 31
f 53 32 31
f 30 15 29
f 30 42 15
f 30 51 42
f 3 8 7
f 7 9 3
f 29 15 7
f 7 16 9
f 7 15 16
f 8 20 21
f 21 22 8
f 20 35 28
f 28 21 20
f 29 22 28
f 22 21 28
f 19 35 20
f 18 35 19
f 19 20 8
f 8 18 19
f 52 31 42
f 42 51 52
f 53 31 52
f 52 58 53
f 57 58 52
f 45 34 44
f 51 30 44
f 44 35 45
f 40 39 50
f 26 39 40
f 41 30 29
f 29 28 41
f 41 28 35
f 35 44 41
f 41 44 30
f 8 22 14
f 14 7 8
f 14 22 29
f 29 7 14
f 33 34 17
f 33 44 34
f 33 17 26
f 26 40 33
f 51 44 33
f 54 52 51
f 50 57 54
f 57 52 54
f 43 54 51
f 51 33 43
f 43 33 40
f 43 40 50
f 50 54 43
f 5 11 24
f 1 5 24
f 24 2 1
f 6 2 24
f 23 11 5
f 5 10 23
f 23 10 9
f 38 36 23
f 62 48 23
f 23 59 62
f 23 48 38
f 23 36 11
f 46 59 23
f 1 2 27
f 27 8 1
