# generated by collision_forge
v 0.014439 0.050989 0.010692
v 0.015147 0.050729 0.009647
v 0.014439 0.050970 0.011491
v 0.016191 0.050567 0.012781
v 0.016191 0.050563 0.010692
v 0.014439 0.050937 0.012810
v 0.017120 0.050280 0.012810
v 0.017103 0.050272 0.010692
v 0.016920 0.050210 0.009647
v 0.014439 0.049695 0.012810
v 0.022490 0.046789 0.015253
v 0.022490 0.046845 0.015203
v 0.019324 0.049447 0.012781
v 0.022490 0.047275 0.014683
v 0.019868 0.049103 0.010126
v 0.017783 0.049104 0.007021
v 0.014671 0.050150 0.007016
v 0.014439 0.049053 0.007206
v 0.026568 0.040578 0.007595
v 0.022490 0.044410 0.015253
v 0.019983 0.049160 0.012810
v 0.023121 0.047098 0.014492
v 0.021025 0.048126 0.008874
v 0.020123 0.048195 0.007559
v 0.019924 0.048089 0.006979
v 0.014439 0.050179 0.006979
v 0.014439 0.049053 0.006981
v 0.026568 0.040657 0.007236
v 0.026568 0.042022 0.015253
v 0.014445 0.049048 0.006969
v 0.025308 0.045124 0.015253
v 0.020506 0.048891 0.012781
v 0.023235 0.047180 0.013825
v 0.021953 0.048060 0.012065
v 0.023211 0.047169 0.010692
v 0.023091 0.047087 0.009873
v 0.022084 0.047106 0.007800
v 0.016191 0.049363 0.006787
v 0.021198 0.047197 0.006857
v 0.014439 0.050020 0.006910
v 0.025938 0.041526 0.006866
v 0.026568 0.043904 0.015253
v 0.014439 0.049369 0.006891
v 0.024428 0.046295 0.013825
v 0.023788 0.046825 0.011736
v 0.024088 0.046014 0.008969
v 0.016191 0.048800 0.006787
v 0.014439 0.049598 0.006898
v 0.024524 0.044372 0.006843
v 0.025589 0.042338 0.006820
v 0.023079 0.046038 0.006946
v 0.026014 0.044820 0.013825
v 0.024872 0.045776 0.010692
v 0.025015 0.044863 0.008221
v 0.024163 0.045043 0.006913
v 0.025194 0.044012 0.006911
v 0.026568 0.044196 0.013990
v 0.024941 0.045836 0.011736
v 0.026568 0.042142 0.006934
v 0.026568 0.042545 0.007287
v 0.026568 0.044038 0.011007
v 0.026568 0.043792 0.010160
f 29 20 19
f 38 48 40
f 40 26 38
f 19 20 10
f 10 18 19
f 19 30 28
f 50 47 38
f 19 18 27
f 27 30 19
f 49 50 38
f 47 50 41
f 41 28 30
f 55 51 54
f 52 31 42
f 38 26 17
f 17 16 38
f 36 15 35
f 24 16 15
f 38 16 25
f 16 24 25
f 30 27 43
f 43 48 38
f 38 47 43
f 47 41 43
f 43 41 30
f 53 36 35
f 57 52 42
f 61 52 57
f 2 26 1
f 2 17 26
f 46 54 51
f 46 53 54
f 36 53 46
f 15 36 23
f 23 24 15
f 38 25 39
f 39 25 51
f 39 49 38
f 39 51 55
f 55 49 39
f 3 4 1
f 6 4 3
f 12 6 11
f 12 4 6
f 11 31 12
f 35 15 34
f 31 52 44
f 58 52 61
f 61 53 58
f 58 44 52
f 50 49 59
f 59 41 50
f 28 41 59
f 62 60 54
f 62 53 61
f 54 53 62
f 1 4 5
f 5 2 1
f 5 4 7
f 24 23 37
f 51 25 37
f 37 25 24
f 37 23 36
f 37 46 51
f 36 46 37
f 22 12 31
f 31 44 22
f 22 44 33
f 44 58 45
f 33 44 45
f 45 53 35
f 45 58 53
f 35 34 45
f 45 34 33
f 56 49 55
f 56 59 49
f 60 59 56
f 55 54 56
f 54 60 56
f 2 5 9
f 15 16 9
f 16 17 9
f 17 2 9
f 33 34 32
f 32 22 33
f 21 22 32
f 32 34 15
f 15 21 32
f 12 22 14
f 7 4 14
f 4 12 14
f 14 22 21
f 15 9 8
f 8 9 5
f 8 5 7
f 7 14 13
f 13 14 21
f 13 8 7
f 13 21 15
f 15 8 13
f 10 20 11
f 11 6 10
f 20 29 31
f 11 20 31
f 29 42 31
f 3 10 6
f 1 26 3
f 48 43 3
f 3 40 48
f 26 40 3
f 18 10 3
f 3 27 18
f 3 43 27
f 62 42 29
f 62 29 19
f 19 28 62
f 62 57 42
f 28 59 62
f 61 57 62
f 62 59 60
