# generated by collision_forge
v -0.023543 -0.035648 0.026423
v -0.023545 -0.005750 0.035506
v -0.026256 -0.023502 0.032188
v -0.023871 -0.032213 0.029923
v -0.023545 -0.009926 0.035563
v -0.030302 -0.028223 0.027937
v -0.033531 -0.014102 0.026423
v -0.026708 -0.004471 0.033981
v -0.023543 -0.022598 0.033908
v -0.023545 -0.016190 0.035088
v -0.028250 -0.010970 0.033176
v -0.023545 -0.013058 0.035411
v -0.033435 -0.010585 0.028996
v -0.031432 -0.013061 0.031128
v -0.033127 -0.004471 0.026423
v -0.023543 -0.037799 0.026423
v -0.028591 -0.004471 0.032971
v -0.031044 -0.029616 0.026423
v -0.023545 -0.004471 0.034206
v -0.025230 -0.025348 0.032197
v -0.026428 -0.018278 0.033317
v -0.032411 -0.022076 0.027987
v -0.023543 -0.026565 0.032724
v -0.030403 -0.022203 0.030091
v -0.031315 -0.014536 0.031037
v -0.032767 -0.004471 0.030358
v -0.033911 -0.008885 0.027405
v -0.033855 -0.006790 0.028450
v -0.031538 -0.010970 0.031191
v -0.023545 -0.004471 0.035431
v -0.032853 -0.021345 0.026423
v -0.027470 -0.020366 0.032293
v -0.032417 -0.024223 0.026970
v -0.034049 -0.004471 0.027405
v -0.027385 -0.015146 0.033276
v -0.026292 -0.009926 0.034281
v -0.023545 -0.008882 0.035580
v -0.028331 -0.007838 0.033222
v -0.034073 -0.004471 0.026423
v -0.023543 -0.034908 0.028499
v -0.032684 -0.008885 0.030345
v -0.029181 -0.032464 0.026423
v -0.024196 -0.029459 0.031161
v -0.029332 -0.031440 0.026936
v -0.030402 -0.025286 0.029054
v -0.031319 -0.026082 0.027915
v -0.030353 -0.017962 0.031097
v -0.031378 -0.013838 0.031091
v -0.032358 -0.015554 0.029994
v -0.031401 -0.023162 0.029039
v -0.024107 -0.020047 0.034233
v -0.023545 -0.007838 0.035574
v -0.033442 -0.013789 0.027998
v -0.033290 -0.004471 0.029838
v -0.023545 -0.006790 0.035543
v -0.032420 -0.019019 0.029033
v -0.032136 -0.007838 0.030886
v -0.026276 -0.005750 0.034272
v -0.031351 -0.019903 0.030032
v -0.023545 -0.005264 0.035479
v -0.023545 -0.012477 0.035457
v -0.023905 -0.037498 0.026423
f 15 19 1
f 18 6 46
f 50 46 45
f 45 46 6
f 43 4 23
f 54 28 13
f 50 59 56
f 56 59 49
f 56 49 13
f 36 5 37
f 33 31 18
f 18 46 33
f 3 51 32
f 18 42 44
f 44 6 18
f 44 42 4
f 4 43 44
f 44 43 6
f 4 42 40
f 23 4 40
f 28 54 34
f 39 27 34
f 34 27 28
f 13 49 41
f 41 54 13
f 26 54 41
f 7 27 39
f 31 33 53
f 13 28 53
f 28 27 53
f 53 7 31
f 27 7 53
f 53 56 13
f 61 36 12
f 5 36 61
f 8 17 58
f 58 52 55
f 58 36 37
f 37 52 58
f 55 2 58
f 58 30 8
f 48 11 14
f 11 29 14
f 29 41 14
f 14 49 48
f 14 41 49
f 57 17 26
f 26 41 57
f 57 41 29
f 22 46 50
f 22 33 46
f 50 56 22
f 56 53 22
f 22 53 33
f 20 45 6
f 20 43 23
f 6 43 20
f 51 3 9
f 9 10 51
f 9 20 23
f 3 20 9
f 12 10 9
f 9 61 12
f 5 61 9
f 37 5 9
f 9 52 37
f 55 52 9
f 9 2 55
f 19 30 9
f 1 19 9
f 50 45 24
f 24 59 50
f 45 20 24
f 24 20 3
f 24 3 32
f 32 47 24
f 24 47 59
f 16 40 62
f 62 40 42
f 35 11 48
f 35 10 12
f 12 36 35
f 35 36 11
f 30 58 60
f 60 58 2
f 60 9 30
f 2 9 60
f 17 57 38
f 11 36 38
f 38 29 11
f 38 57 29
f 36 58 38
f 38 58 17
f 25 35 48
f 47 35 25
f 59 47 25
f 48 49 25
f 49 59 25
f 21 47 32
f 21 35 47
f 32 51 21
f 51 10 21
f 10 35 21
f 34 15 39
f 34 30 19
f 19 15 34
f 26 17 34
f 8 30 34
f 34 54 26
f 34 17 8
f 9 16 1
f 9 40 16
f 23 40 9
f 1 16 62
f 39 15 62
f 62 7 39
f 62 15 1
f 18 31 62
f 62 42 18
f 31 7 62
