# generated by collision_forge
v 0.029078 0.035620 0.019795
v 0.026570 0.037369 0.019793
v 0.026570 0.034996 0.019793
v 0.030634 0.029580 0.019795
v 0.030338 0.034552 0.019619
v 0.029263 0.037624 0.018538
v 0.028220 0.038663 0.018533
v 0.026570 0.041342 0.017687
v 0.026569 0.044122 0.014575
v 0.029901 0.029583 0.007560
v 0.026569 0.040654 0.007236
v 0.031847 0.029580 0.019795
v 0.030191 0.036387 0.018348
v 0.031213 0.032146 0.019795
v 0.026570 0.042211 0.017136
v 0.026569 0.044194 0.013990
v 0.029920 0.029583 0.007426
v 0.026900 0.040214 0.006826
v 0.030061 0.029583 0.006775
v 0.031836 0.029580 0.014577
v 0.031938 0.029580 0.019236
v 0.031337 0.033434 0.018530
v 0.029277 0.039741 0.016502
v 0.028077 0.040615 0.017375
v 0.027114 0.042787 0.016379
v 0.026569 0.041345 0.006863
v 0.027330 0.041013 0.006867
v 0.030597 0.029583 0.006775
v 0.030930 0.029583 0.007560
v 0.031378 0.029583 0.010136
v 0.031752 0.031860 0.018002
v 0.030296 0.037612 0.016457
v 0.028239 0.041834 0.015500
v 0.027444 0.043181 0.013824
v 0.030550 0.030816 0.006761
v 0.030720 0.031861 0.007560
v 0.031771 0.031860 0.016959
v 0.031424 0.033800 0.016959
v 0.029400 0.039982 0.014870
v 0.026569 0.044183 0.011906
v 0.028291 0.039867 0.007560
v 0.029333 0.036811 0.006923
v 0.027235 0.041897 0.007862
v 0.030306 0.033492 0.007013
v 0.031356 0.031478 0.012074
v 0.031398 0.033719 0.016110
v 0.030316 0.037667 0.014870
v 0.028316 0.041957 0.013824
v 0.027407 0.043157 0.011736
v 0.026569 0.042690 0.007546
v 0.028409 0.040241 0.008643
v 0.029423 0.037126 0.007539
v 0.030648 0.033950 0.009648
v 0.030725 0.034993 0.011736
v 0.030282 0.037595 0.013445
v 0.029398 0.040006 0.013824
v 0.026569 0.043791 0.010162
v 0.029259 0.039718 0.011154
v 0.029480 0.038226 0.009550
v 0.028211 0.041792 0.011182
v 0.030286 0.036559 0.011219
v 0.030322 0.035644 0.009972
f 4 1 3
f 9 11 3
f 20 37 21
f 36 29 35
f 1 14 5
f 14 12 22
f 22 5 14
f 2 3 1
f 9 3 2
f 2 8 9
f 35 29 28
f 29 20 28
f 4 3 10
f 10 17 4
f 10 3 11
f 11 17 10
f 37 20 45
f 45 36 53
f 53 54 45
f 62 54 53
f 44 36 35
f 52 62 44
f 53 36 44
f 44 62 53
f 42 27 41
f 41 52 42
f 52 44 42
f 35 27 42
f 42 44 35
f 46 54 55
f 37 45 46
f 46 45 54
f 31 12 21
f 31 22 12
f 21 37 31
f 35 28 19
f 19 17 11
f 19 28 20
f 19 20 4
f 4 17 19
f 26 50 27
f 41 27 43
f 27 50 43
f 50 57 43
f 43 57 60
f 30 20 29
f 30 45 20
f 29 36 30
f 36 45 30
f 60 58 51
f 41 43 51
f 51 43 60
f 55 54 61
f 54 62 61
f 61 58 55
f 1 5 6
f 23 24 6
f 25 33 9
f 25 24 23
f 23 33 25
f 23 32 39
f 39 33 23
f 48 33 39
f 32 47 39
f 22 31 38
f 38 32 22
f 37 46 38
f 38 31 37
f 38 47 32
f 38 46 55
f 55 47 38
f 11 26 18
f 18 19 11
f 35 19 18
f 18 27 35
f 18 26 27
f 9 33 34
f 34 33 48
f 34 16 9
f 40 16 34
f 59 62 52
f 59 61 62
f 58 61 59
f 59 51 58
f 59 52 41
f 41 51 59
f 1 6 7
f 7 2 1
f 8 2 7
f 7 24 8
f 7 6 24
f 23 6 13
f 13 6 5
f 13 32 23
f 5 22 13
f 22 32 13
f 8 24 15
f 24 25 15
f 9 8 15
f 15 25 9
f 60 48 56
f 48 39 56
f 56 58 60
f 55 58 56
f 56 47 55
f 56 39 47
f 40 34 49
f 49 34 48
f 49 48 60
f 49 57 40
f 60 57 49
f 12 14 1
f 12 1 4
f 20 12 4
f 21 12 20
f 40 57 16
f 16 11 9
f 16 26 11
f 50 26 16
f 16 57 50
