# generated by collision_forge
v 0.026569 0.013058 0.031782
v 0.026569 0.013058 0.030456
v 0.025532 0.013058 0.032249
v 0.026569 -0.004467 0.034337
v 0.008828 0.013058 0.034576
v 0.022570 0.013058 0.033346
v 0.025175 0.010586 0.033196
v 0.026569 -0.004467 0.035588
v 0.008828 -0.004467 0.038986
v 0.008828 0.013058 0.035696
v 0.022137 0.010667 0.034266
v 0.024113 0.008474 0.034229
v 0.026569 -0.003792 0.035517
v 0.024575 -0.004467 0.036454
v 0.008828 -0.004467 0.040027
v 0.008828 0.011094 0.036414
v 0.008880 0.013058 0.035695
v 0.021026 0.008503 0.035281
v 0.023198 0.005549 0.035321
v 0.026331 0.008697 0.033249
v 0.026569 0.010826 0.032506
v 0.009924 -0.004467 0.039986
v 0.019235 0.013058 0.034309
v 0.018895 0.010514 0.035261
v 0.020053 0.005460 0.036343
v 0.021932 0.003130 0.036277
v 0.026145 0.005283 0.034210
v 0.008828 0.007349 0.037609
v 0.010969 0.013058 0.035593
v 0.018279 0.013058 0.034527
v 0.017989 0.007520 0.036338
v 0.017921 0.003312 0.037366
v 0.023002 0.001094 0.036291
v 0.026569 0.003805 0.034328
v 0.026343 -0.001565 0.035349
v 0.024119 -0.001805 0.036322
v 0.023362 -0.000522 0.036423
v 0.021429 -0.004467 0.037592
v 0.016190 0.011883 0.035382
v 0.017311 0.011053 0.035447
v 0.015788 0.005309 0.037348
v 0.020903 -0.001014 0.037330
v 0.025272 0.001569 0.035326
v 0.026569 0.002611 0.034553
v 0.018282 -0.004467 0.038483
v 0.010969 -0.002610 0.039670
v 0.008828 -0.000297 0.039487
v 0.008880 0.004436 0.038438
v 0.012055 0.006868 0.037465
v 0.012814 0.010534 0.036313
v 0.013029 0.013058 0.035416
v 0.013263 0.013058 0.035388
v 0.014922 0.009557 0.036331
v 0.015841 0.000214 0.038410
v 0.019322 -0.000522 0.037697
v 0.012800 -0.002858 0.039456
v 0.012013 0.001569 0.038772
v 0.008828 0.002612 0.038866
v 0.013059 0.005743 0.037659
v 0.013725 0.002204 0.038396
v 0.013974 -0.004467 0.039471
v 0.016190 -0.002610 0.038770
f 2 4 5
f 5 4 9
f 57 47 46
f 57 59 48
f 30 52 39
f 39 40 30
f 53 40 39
f 45 38 42
f 53 59 41
f 58 48 28
f 58 47 57
f 57 48 58
f 28 48 49
f 49 48 59
f 49 59 53
f 50 16 28
f 28 49 50
f 50 29 16
f 50 49 53
f 53 39 50
f 50 39 52
f 43 36 35
f 12 20 7
f 18 12 11
f 11 24 18
f 6 24 11
f 11 7 6
f 12 7 11
f 33 43 19
f 19 12 18
f 18 25 19
f 23 24 6
f 30 40 23
f 40 24 23
f 31 24 40
f 31 40 53
f 53 41 31
f 18 24 31
f 31 25 18
f 32 25 31
f 31 41 32
f 22 61 46
f 22 47 15
f 22 46 47
f 62 61 45
f 37 43 33
f 37 36 43
f 33 42 37
f 37 42 38
f 38 36 37
f 14 8 13
f 13 35 14
f 14 35 36
f 14 36 38
f 10 16 17
f 16 29 17
f 51 50 52
f 29 50 51
f 44 35 13
f 34 43 44
f 43 35 44
f 21 20 34
f 21 7 20
f 6 7 3
f 3 21 1
f 7 21 3
f 27 20 12
f 12 19 27
f 34 20 27
f 27 43 34
f 27 19 43
f 33 19 26
f 26 19 25
f 26 42 33
f 26 25 32
f 45 42 55
f 55 62 45
f 55 26 32
f 42 26 55
f 32 41 60
f 60 59 57
f 60 41 59
f 54 55 32
f 62 55 54
f 32 60 54
f 61 62 56
f 62 54 56
f 46 61 56
f 56 54 60
f 57 46 56
f 56 60 57
f 58 9 15
f 5 9 58
f 58 10 5
f 15 47 58
f 28 16 58
f 58 16 10
f 15 9 14
f 14 9 4
f 4 8 14
f 14 38 45
f 45 61 14
f 14 22 15
f 61 22 14
f 21 2 1
f 4 2 21
f 21 44 13
f 21 8 4
f 13 8 21
f 34 44 21
f 1 2 3
f 3 2 5
f 3 52 30
f 5 10 3
f 3 51 52
f 30 23 3
f 10 17 3
f 3 23 6
f 3 17 29
f 29 51 3
