# generated by collision_forge
v 0.027466 -0.043115 0.018536
v 0.016427 -0.048727 0.018536
v 0.027466 -0.044609 0.018536
v 0.027466 -0.041800 0.007559
v 0.016427 -0.047761 0.007592
v 0.027466 -0.042325 0.006859
v 0.026634 -0.042552 0.006857
v 0.016427 -0.047827 0.006812
v 0.016427 -0.050076 0.018447
v 0.026217 -0.045502 0.018536
v 0.027466 -0.042769 0.006870
v 0.019072 -0.049186 0.018536
v 0.017237 -0.048295 0.006791
v 0.016427 -0.048927 0.007489
v 0.019303 -0.049092 0.018536
v 0.024378 -0.047214 0.016958
v 0.026261 -0.046064 0.016778
v 0.027466 -0.045146 0.016932
v 0.026220 -0.043949 0.006946
v 0.027466 -0.043302 0.007589
v 0.022456 -0.046150 0.006855
v 0.018072 -0.048163 0.006898
v 0.018364 -0.048305 0.007479
v 0.017937 -0.050198 0.016639
v 0.016427 -0.050719 0.015914
v 0.023041 -0.048081 0.016551
v 0.027466 -0.045336 0.015914
v 0.023041 -0.045996 0.006989
v 0.027466 -0.043715 0.008723
v 0.020975 -0.047043 0.006982
v 0.019053 -0.048146 0.007774
v 0.017022 -0.049192 0.008801
v 0.018037 -0.050233 0.015914
v 0.020895 -0.049094 0.016441
v 0.017237 -0.050453 0.014869
v 0.023409 -0.047224 0.018536
v 0.025071 -0.047004 0.015382
v 0.025206 -0.045004 0.007833
v 0.023226 -0.046102 0.007559
v 0.021197 -0.047149 0.007559
v 0.026241 -0.045004 0.009894
v 0.019991 -0.048108 0.008914
v 0.017977 -0.049170 0.009871
v 0.020929 -0.049109 0.015290
v 0.017836 -0.050164 0.014204
v 0.021957 -0.047959 0.018536
v 0.023061 -0.048093 0.015114
v 0.024657 -0.046760 0.012780
v 0.026114 -0.045962 0.013293
v 0.027466 -0.045143 0.014028
v 0.023019 -0.047025 0.010093
v 0.020918 -0.048060 0.010128
v 0.024324 -0.046139 0.009648
v 0.018920 -0.049137 0.011044
v 0.016760 -0.050152 0.012194
v 0.022320 -0.048233 0.013821
v 0.019120 -0.049216 0.011736
v 0.016427 -0.050403 0.013014
v 0.024034 -0.047009 0.012234
v 0.027466 -0.044894 0.012780
v 0.021979 -0.048069 0.012171
v 0.019963 -0.049139 0.013046
f 2 1 4
f 2 4 5
f 4 8 5
f 7 8 4
f 2 9 12
f 24 9 25
f 24 12 9
f 33 24 25
f 55 58 14
f 55 14 32
f 45 58 55
f 25 58 35
f 35 58 45
f 35 33 25
f 13 14 8
f 13 22 14
f 8 7 13
f 32 14 23
f 14 22 23
f 52 51 61
f 61 51 59
f 17 37 27
f 6 7 4
f 6 13 7
f 44 35 45
f 33 35 44
f 26 44 47
f 36 46 26
f 47 37 26
f 45 55 57
f 57 55 54
f 57 54 52
f 52 61 57
f 30 23 22
f 43 55 32
f 54 55 43
f 10 17 3
f 18 17 27
f 3 17 18
f 27 37 50
f 47 59 48
f 48 37 47
f 59 41 48
f 47 44 56
f 56 59 47
f 56 61 59
f 24 33 34
f 33 44 34
f 44 26 34
f 12 24 34
f 34 26 46
f 36 26 16
f 16 10 36
f 17 10 16
f 37 17 16
f 16 26 37
f 62 57 61
f 61 56 62
f 62 56 44
f 62 44 45
f 45 57 62
f 23 30 31
f 32 23 31
f 31 43 32
f 28 30 21
f 21 19 28
f 22 13 21
f 21 30 22
f 59 51 53
f 53 41 59
f 53 51 39
f 60 41 29
f 20 19 11
f 19 21 11
f 13 6 11
f 11 21 13
f 49 41 60
f 49 48 41
f 37 48 49
f 60 50 49
f 49 50 37
f 12 34 15
f 15 34 46
f 40 31 30
f 40 51 52
f 39 51 40
f 40 28 39
f 40 30 28
f 54 43 42
f 43 31 42
f 52 54 42
f 42 40 52
f 31 40 42
f 38 53 39
f 41 53 38
f 39 28 38
f 28 19 38
f 38 29 41
f 20 29 38
f 38 19 20
f 58 9 2
f 2 5 58
f 58 5 8
f 25 9 58
f 8 14 58
f 1 3 11
f 11 4 1
f 11 18 27
f 11 6 4
f 11 29 20
f 27 50 11
f 3 18 11
f 11 50 60
f 60 29 11
f 2 12 15
f 15 1 2
f 15 3 1
f 15 46 36
f 36 10 15
f 15 10 3
