# generated by collision_forge
v 0.027467 -0.030312 0.030747
v 0.027597 -0.030312 0.030666
v 0.027467 -0.030312 0.029277
v 0.027467 -0.031389 0.030205
v 0.033538 -0.030312 0.024796
v 0.033538 -0.030761 0.024408
v 0.033538 -0.033813 0.021803
v 0.027467 -0.040609 0.021803
v 0.027467 -0.031543 0.030127
v 0.028349 -0.030481 0.030112
v 0.033538 -0.030312 0.026751
v 0.033538 -0.036691 0.021803
v 0.027467 -0.042689 0.021803
v 0.027467 -0.031681 0.030050
v 0.028318 -0.032512 0.029050
v 0.028076 -0.031177 0.029926
v 0.033425 -0.030312 0.026884
v 0.033538 -0.036679 0.021821
v 0.028476 -0.041978 0.021830
v 0.027467 -0.040662 0.023681
v 0.027467 -0.033273 0.029147
v 0.027467 -0.033502 0.029017
v 0.032389 -0.033435 0.025843
v 0.033371 -0.032307 0.025791
v 0.033538 -0.031727 0.025964
v 0.028554 -0.041949 0.021803
v 0.029124 -0.040656 0.022639
v 0.028211 -0.034479 0.027932
v 0.032560 -0.034688 0.024935
v 0.033487 -0.033532 0.024864
v 0.033538 -0.033336 0.024930
v 0.033538 -0.035780 0.022891
v 0.033346 -0.036439 0.022554
v 0.033207 -0.037229 0.021803
v 0.030296 -0.039695 0.022708
v 0.027467 -0.039554 0.024675
v 0.027467 -0.034039 0.028686
v 0.027858 -0.035175 0.027703
v 0.033257 -0.034229 0.024604
v 0.028385 -0.035698 0.027006
v 0.032211 -0.035385 0.024693
v 0.032344 -0.036518 0.023715
v 0.032619 -0.035822 0.023997
v 0.033533 -0.034658 0.023907
v 0.033316 -0.035355 0.023607
v 0.032396 -0.037623 0.022724
v 0.032429 -0.038413 0.021803
v 0.029963 -0.040882 0.021803
v 0.027467 -0.039018 0.025116
v 0.027467 -0.039242 0.024934
v 0.030432 -0.040483 0.021803
v 0.031383 -0.038693 0.022748
v 0.031320 -0.037591 0.023738
v 0.027467 -0.034903 0.028134
v 0.027467 -0.035828 0.027517
v 0.028026 -0.036394 0.026765
v 0.032305 -0.038567 0.021803
v 0.031421 -0.039527 0.021803
v 0.027467 -0.036648 0.026948
v 0.027467 -0.036852 0.026797
v 0.027467 -0.037229 0.026517
v 0.027467 -0.037853 0.026047
f 6 3 5
f 7 3 6
f 8 3 7
f 17 15 23
f 23 15 22
f 35 36 27
f 44 32 31
f 31 30 44
f 44 30 39
f 33 46 47
f 2 10 17
f 15 9 14
f 16 15 17
f 16 9 15
f 17 10 16
f 10 9 16
f 17 23 24
f 24 30 31
f 28 23 22
f 59 53 56
f 56 55 59
f 40 55 56
f 23 28 29
f 29 24 23
f 39 30 29
f 30 24 29
f 52 53 35
f 52 58 46
f 51 58 52
f 35 51 52
f 20 27 36
f 47 46 57
f 46 58 57
f 45 44 39
f 46 33 45
f 32 44 45
f 45 33 32
f 34 33 47
f 32 33 18
f 18 34 12
f 33 34 18
f 4 2 1
f 4 9 10
f 10 2 4
f 22 15 21
f 15 14 21
f 25 11 17
f 17 24 25
f 25 24 31
f 54 55 38
f 38 55 40
f 38 28 54
f 40 29 38
f 38 29 28
f 37 28 22
f 54 28 37
f 61 62 53
f 53 62 49
f 35 53 49
f 40 56 41
f 41 29 40
f 41 56 53
f 42 52 46
f 53 52 42
f 42 41 53
f 29 41 42
f 19 20 13
f 13 26 19
f 27 20 19
f 19 26 27
f 48 51 35
f 35 27 48
f 27 26 48
f 60 53 59
f 60 61 53
f 50 36 35
f 35 49 50
f 46 45 43
f 43 42 46
f 43 45 39
f 39 29 43
f 29 42 43
f 5 3 2
f 2 3 1
f 2 11 5
f 17 11 2
f 7 6 25
f 25 6 5
f 5 11 25
f 25 18 12
f 25 12 7
f 31 32 25
f 32 18 25
f 13 8 48
f 7 12 48
f 48 8 7
f 47 57 48
f 48 26 13
f 48 58 51
f 48 34 47
f 48 57 58
f 12 34 48
f 1 3 50
f 50 8 13
f 50 37 22
f 3 8 50
f 13 20 50
f 59 55 50
f 50 4 1
f 22 21 50
f 50 14 9
f 50 55 54
f 50 60 59
f 50 20 36
f 9 4 50
f 50 21 14
f 54 37 50
f 62 61 50
f 50 49 62
f 61 60 50
