# generated by collision_forge
v 0.031018 0.032581 0.019795
v 0.031018 0.003484 0.032017
v 0.033130 -0.033085 0.006777
v 0.033464 0.017229 0.024023
v 0.030062 0.029570 0.006777
v 0.033539 -0.036692 0.021802
v 0.033539 -0.022140 0.030072
v 0.032484 0.010957 0.029074
v 0.035054 -0.033085 0.015058
v 0.031776 0.029570 0.013827
v 0.032389 0.027224 0.019048
v 0.031018 0.016131 0.028187
v 0.035513 -0.030284 0.019570
v 0.031018 -0.001567 0.032844
v 0.033717 -0.016180 0.006751
v 0.033425 0.011513 0.016415
v 0.031018 0.006766 0.031241
v 0.033448 0.014747 0.025906
v 0.032838 0.014090 0.010695
v 0.031018 -0.004463 0.033162
v 0.030635 0.029570 0.019795
v 0.031366 0.026356 0.006992
v 0.035165 -0.033085 0.019045
v 0.033539 -0.034651 0.023902
v 0.034783 -0.033085 0.011929
v 0.034505 -0.006789 0.030093
v 0.031018 0.018484 0.027230
v 0.034922 -0.015143 0.029493
v 0.033652 0.015141 0.023229
v 0.033517 -0.001567 0.031158
v 0.034534 -0.000462 0.028520
v 0.035524 -0.025585 0.024023
v 0.035001 -0.023497 0.013829
v 0.032481 0.020355 0.011740
v 0.033693 -0.014098 0.006751
v 0.035027 -0.010966 0.028445
v 0.035524 -0.022629 0.022935
v 0.034478 0.002250 0.027044
v 0.032424 0.018911 0.025893
v 0.034580 -0.009921 0.015911
v 0.031018 -0.004463 0.031499
v 0.033435 0.017880 0.022529
v 0.033425 0.010448 0.027928
v 0.033428 0.003206 0.010129
v 0.034939 -0.027674 0.011740
v 0.035061 -0.029762 0.024272
v 0.034518 -0.025239 0.027993
v 0.031018 -0.000150 0.032653
v 0.030969 0.029570 0.007750
v 0.033883 -0.010966 0.007561
v 0.033539 -0.027701 0.028029
v 0.033539 -0.030467 0.026661
v 0.033539 -0.035777 0.022891
v 0.034017 -0.032895 0.007561
v 0.034496 -0.026629 0.007876
v 0.031018 0.008889 0.030646
v 0.032400 0.015134 0.007007
v 0.033789 -0.014098 0.031404
v 0.031018 -0.002652 0.032973
v 0.033539 -0.033627 0.024703
v 0.032506 0.003661 0.031148
v 0.033597 0.002610 0.030266
f 41 20 5
f 3 54 6
f 3 41 5
f 6 20 3
f 20 41 3
f 5 1 49
f 6 54 25
f 21 1 5
f 11 1 4
f 54 3 15
f 15 3 5
f 6 23 46
f 47 52 46
f 32 47 46
f 60 52 20
f 60 46 52
f 51 7 20
f 20 52 51
f 51 47 7
f 51 52 47
f 20 7 58
f 7 47 58
f 9 23 6
f 6 25 9
f 4 1 39
f 53 20 6
f 6 46 53
f 40 38 37
f 37 36 32
f 38 36 37
f 4 38 29
f 29 38 40
f 26 58 28
f 28 36 26
f 28 58 47
f 28 47 32
f 32 36 28
f 23 9 13
f 32 46 13
f 13 46 23
f 13 37 32
f 27 39 1
f 12 39 27
f 1 21 27
f 21 12 27
f 48 2 21
f 48 21 5
f 18 38 4
f 4 39 18
f 8 39 12
f 10 49 1
f 1 11 10
f 35 57 50
f 35 15 5
f 24 60 20
f 20 53 24
f 46 60 24
f 24 53 46
f 16 29 40
f 45 9 25
f 45 13 9
f 5 20 59
f 56 8 12
f 56 12 21
f 43 18 39
f 39 8 43
f 30 59 20
f 20 58 30
f 30 58 26
f 49 10 22
f 5 49 22
f 22 35 5
f 57 35 22
f 34 10 11
f 57 22 34
f 34 22 10
f 44 16 40
f 44 40 50
f 50 57 44
f 50 45 55
f 54 15 55
f 55 25 54
f 55 45 25
f 55 35 50
f 15 35 55
f 37 13 33
f 13 45 33
f 40 37 33
f 50 40 33
f 33 45 50
f 21 2 17
f 17 56 21
f 26 36 31
f 31 36 38
f 38 18 31
f 18 43 31
f 61 17 2
f 2 48 61
f 8 56 61
f 56 17 61
f 59 30 14
f 14 48 5
f 5 59 14
f 14 61 48
f 30 61 14
f 29 16 42
f 42 34 11
f 42 11 4
f 4 29 42
f 16 44 19
f 19 42 16
f 34 42 19
f 57 34 19
f 19 44 57
f 62 61 30
f 62 31 43
f 62 43 8
f 8 61 62
f 62 30 26
f 26 31 62
