# generated by collision_forge
v -0.024100 -0.044972 0.016661
v -0.023544 -0.045482 0.014922
v -0.023543 -0.045211 0.017252
v -0.023543 -0.045017 0.018003
v -0.023544 -0.045169 0.012907
v -0.023544 -0.044665 0.010693
v -0.023544 -0.044645 0.010620
v -0.023544 -0.044360 0.009674
v -0.023544 -0.044061 0.008781
v -0.023544 -0.043853 0.008220
v -0.023544 -0.043570 0.007469
v -0.023544 -0.043091 0.006865
v -0.023544 -0.042307 0.006824
v -0.025316 -0.044088 0.015912
v -0.026111 -0.042822 0.018520
v -0.023543 -0.041385 0.021159
v -0.023544 -0.042290 0.006824
v -0.023544 -0.042275 0.006828
v -0.024098 -0.042890 0.006966
v -0.029550 -0.034993 0.006796
v -0.026314 -0.043015 0.016958
v -0.027174 -0.041796 0.018576
v -0.026336 -0.041981 0.020092
v -0.025121 -0.043915 0.013075
v -0.029625 -0.035207 0.021156
v -0.023544 -0.042074 0.007604
v -0.029625 -0.032315 0.007531
v -0.029625 -0.033176 0.006900
v -0.029625 -0.033077 0.006926
v -0.023889 -0.041656 0.006911
v -0.025098 -0.042851 0.009058
v -0.028368 -0.037863 0.006870
v -0.025815 -0.043592 0.014869
v -0.028302 -0.040863 0.016957
v -0.023543 -0.044086 0.020116
v -0.026115 -0.042827 0.012251
v -0.029625 -0.037635 0.021156
v -0.026865 -0.040869 0.021159
v -0.023554 -0.043322 0.021159
v -0.026149 -0.041817 0.009034
v -0.026194 -0.040827 0.006952
v -0.027195 -0.039739 0.006990
v -0.029247 -0.036563 0.007036
v -0.029289 -0.038715 0.019797
v -0.027401 -0.042043 0.015913
v -0.028270 -0.039772 0.020736
v -0.025615 -0.041880 0.021159
v -0.027220 -0.041849 0.013016
v -0.029625 -0.037658 0.021120
v -0.027165 -0.040745 0.009106
v -0.028260 -0.038732 0.007909
v -0.029263 -0.037632 0.009063
v -0.028300 -0.040869 0.014869
v -0.029625 -0.037088 0.009648
v -0.029625 -0.036010 0.007597
v -0.029175 -0.039614 0.015913
v -0.029029 -0.039324 0.012784
v -0.029625 -0.038717 0.016957
v -0.028304 -0.039832 0.010693
v -0.029280 -0.038706 0.012068
v -0.029625 -0.038791 0.015913
v -0.029625 -0.038139 0.012598
f 25 16 27
f 18 16 3
f 38 16 25
f 26 27 16
f 16 18 26
f 27 26 30
f 30 26 18
f 16 39 35
f 47 35 39
f 37 38 25
f 43 55 20
f 20 32 43
f 3 4 1
f 4 15 1
f 1 2 3
f 23 4 35
f 23 15 4
f 35 47 23
f 23 47 38
f 58 44 49
f 15 23 22
f 40 19 31
f 28 20 55
f 20 28 17
f 17 18 3
f 52 54 55
f 52 55 43
f 33 24 2
f 2 24 5
f 3 2 5
f 21 1 15
f 21 22 45
f 15 22 21
f 45 22 34
f 34 44 58
f 58 56 34
f 53 56 57
f 45 34 53
f 53 34 56
f 61 56 58
f 57 56 61
f 46 49 44
f 46 23 38
f 46 22 23
f 44 34 46
f 46 34 22
f 37 49 46
f 38 37 46
f 19 40 41
f 27 30 29
f 29 30 18
f 18 17 29
f 29 17 28
f 43 32 51
f 51 52 43
f 62 54 60
f 54 52 60
f 60 61 62
f 57 61 60
f 8 7 31
f 31 9 8
f 3 7 8
f 8 9 3
f 31 19 11
f 2 1 14
f 14 33 2
f 1 21 14
f 45 33 14
f 14 21 45
f 6 7 3
f 3 5 6
f 6 5 24
f 48 33 45
f 45 53 48
f 32 41 42
f 42 51 32
f 52 51 59
f 59 60 52
f 57 60 59
f 59 53 57
f 59 48 53
f 10 9 31
f 31 11 10
f 3 9 10
f 10 11 3
f 12 11 19
f 19 41 12
f 3 11 12
f 12 41 32
f 36 40 31
f 31 7 36
f 24 33 36
f 33 48 36
f 7 6 36
f 36 6 24
f 48 59 50
f 40 36 50
f 50 36 48
f 50 41 40
f 50 42 41
f 51 42 50
f 50 59 51
f 13 12 32
f 32 20 13
f 20 17 13
f 13 17 3
f 3 12 13
f 16 35 4
f 3 16 4
f 47 39 16
f 16 38 47
f 29 37 25
f 25 27 29
f 62 61 29
f 29 54 62
f 58 49 29
f 55 54 29
f 29 49 37
f 29 28 55
f 29 61 58
