# generated by collision_forge
v 0.014980 -0.021906 0.037819
v 0.027467 -0.021906 0.032643
v 0.014980 -0.021906 0.038907
v 0.014980 -0.004467 0.038090
v 0.027467 -0.021906 0.033990
v 0.027467 -0.004467 0.033875
v 0.014980 -0.004467 0.038515
v 0.027151 -0.021906 0.034175
v 0.027467 -0.004467 0.035156
v 0.015696 -0.021906 0.038767
v 0.014980 -0.004471 0.039169
v 0.017235 -0.019323 0.038740
v 0.015371 -0.004467 0.039105
v 0.027467 -0.020418 0.034364
v 0.025444 -0.020367 0.035430
v 0.025090 -0.021906 0.035249
v 0.026829 -0.004467 0.035472
v 0.017764 -0.020901 0.038373
v 0.015712 -0.016829 0.039428
v 0.014980 -0.017410 0.039540
v 0.014980 -0.006316 0.039469
v 0.024102 -0.019004 0.036318
v 0.023117 -0.021167 0.036342
v 0.019357 -0.021906 0.037646
v 0.018890 -0.018016 0.038399
v 0.018280 -0.016189 0.038763
v 0.015674 -0.007298 0.039417
v 0.021035 -0.020162 0.037380
v 0.022413 -0.021906 0.036473
v 0.024576 -0.004467 0.036455
v 0.025250 -0.006791 0.036361
v 0.027467 -0.007651 0.035397
v 0.021214 -0.019323 0.037446
v 0.019859 -0.014685 0.038375
v 0.018877 -0.005033 0.038392
v 0.018284 -0.004467 0.038484
v 0.027467 -0.018279 0.034738
v 0.026498 -0.017234 0.035434
v 0.024391 -0.017234 0.036444
v 0.023025 -0.008056 0.037345
v 0.022261 -0.016189 0.037449
v 0.016019 -0.014101 0.039508
v 0.018280 -0.007836 0.038788
v 0.025097 -0.015800 0.036295
v 0.021599 -0.004467 0.037540
v 0.023110 -0.009924 0.037378
v 0.025398 -0.009924 0.036429
v 0.023023 -0.013833 0.037345
v 0.019973 -0.013058 0.038409
v 0.014980 -0.014267 0.039745
v 0.016008 -0.009924 0.039503
v 0.019861 -0.008302 0.038375
v 0.027467 -0.015504 0.035142
v 0.025397 -0.010968 0.036429
v 0.027467 -0.009987 0.035448
v 0.025326 -0.013058 0.036401
v 0.023101 -0.012012 0.037376
v 0.019990 -0.012012 0.038415
v 0.014980 -0.009924 0.039737
v 0.019325 -0.009924 0.038596
v 0.027467 -0.012018 0.035405
v 0.016082 -0.012012 0.039526
f 4 2 1
f 2 4 6
f 41 26 25
f 11 13 7
f 8 5 14
f 14 16 8
f 29 16 23
f 30 45 40
f 40 45 52
f 34 41 48
f 26 41 34
f 56 53 61
f 56 57 48
f 22 23 15
f 15 23 16
f 15 16 14
f 14 38 15
f 15 38 22
f 31 30 40
f 40 47 31
f 31 47 32
f 36 13 21
f 21 13 11
f 35 45 36
f 35 52 45
f 10 24 18
f 10 20 3
f 28 24 29
f 29 23 28
f 28 23 22
f 18 24 28
f 50 20 19
f 32 47 55
f 46 47 40
f 40 52 46
f 26 34 42
f 50 19 42
f 42 19 26
f 37 38 14
f 53 38 37
f 22 38 39
f 30 31 17
f 17 32 9
f 17 31 32
f 36 21 27
f 27 35 36
f 27 21 59
f 27 59 51
f 12 10 18
f 20 10 12
f 12 19 20
f 12 18 25
f 25 26 12
f 26 19 12
f 33 28 22
f 22 39 33
f 33 39 41
f 33 41 25
f 25 18 33
f 18 28 33
f 61 55 54
f 54 56 61
f 54 55 47
f 57 56 54
f 54 46 57
f 47 46 54
f 57 46 58
f 53 56 44
f 44 38 53
f 44 39 38
f 44 56 48
f 48 41 44
f 41 39 44
f 52 35 43
f 35 27 43
f 43 27 51
f 60 46 52
f 60 58 46
f 60 43 51
f 52 43 60
f 49 42 34
f 49 34 48
f 48 57 49
f 57 58 49
f 58 60 62
f 42 49 62
f 62 49 58
f 62 60 51
f 50 42 62
f 62 59 50
f 51 59 62
f 1 3 21
f 21 4 1
f 50 59 21
f 21 7 4
f 11 7 21
f 21 20 50
f 3 20 21
f 10 3 1
f 1 2 10
f 5 8 10
f 2 5 10
f 10 16 29
f 10 8 16
f 29 24 10
f 37 6 9
f 2 6 37
f 37 5 2
f 14 5 37
f 9 32 37
f 37 55 61
f 61 53 37
f 32 55 37
f 9 6 17
f 17 6 4
f 4 7 17
f 17 13 36
f 36 45 17
f 17 7 13
f 45 30 17
