# generated by collision_forge
v -0.016406 0.013734 0.032445
v -0.002611 0.020718 0.028819
v -0.001566 0.012313 0.034097
v -0.005343 0.012881 0.034097
v -0.016406 0.016786 0.032445
v -0.016406 0.033940 0.023228
v -0.011888 0.047628 0.014538
v 0.000521 0.035274 0.020433
v 0.000047 0.020879 0.028953
v 0.001265 0.035296 0.020471
v -0.000835 0.012427 0.034097
v -0.005343 0.015724 0.034097
v -0.016406 0.017098 0.032339
v -0.004172 0.031328 0.030011
v -0.016406 0.036157 0.023228
v -0.011888 0.049405 0.014538
v -0.005343 0.048039 0.014538
v 0.008305 0.047643 0.015254
v 0.008828 0.014130 0.034097
v 0.008828 0.014236 0.034034
v 0.004701 0.017039 0.034097
v -0.003658 0.029764 0.030534
v -0.014763 0.017651 0.032445
v -0.004695 0.032695 0.029165
v -0.016406 0.025191 0.029021
v -0.016406 0.022473 0.030203
v -0.005345 0.032537 0.029062
v -0.004695 0.033215 0.028813
v -0.011888 0.044708 0.018364
v -0.011888 0.045481 0.017768
v -0.011888 0.047093 0.016514
v -0.011888 0.047617 0.016080
v -0.011888 0.048233 0.015557
v -0.011888 0.049376 0.014569
v -0.005343 0.049742 0.014538
v 0.008305 0.049427 0.015254
v 0.008828 0.034424 0.024262
v 0.008828 0.017091 0.034097
v -0.002621 0.030892 0.030178
v -0.016406 0.033457 0.024808
v -0.016406 0.029408 0.026965
v -0.008531 0.049662 0.014538
v 0.006284 0.049457 0.015254
v 0.007830 0.049442 0.015254
v 0.008828 0.036714 0.024272
v 0.008426 0.017109 0.034097
v 0.008828 0.019021 0.033239
v -0.002611 0.033307 0.028864
v -0.002611 0.034505 0.027959
v -0.003658 0.034508 0.027963
v -0.007832 0.049519 0.014724
v 0.005215 0.049442 0.015254
v 0.008305 0.046357 0.017805
v -0.001566 0.032658 0.029146
v 0.008828 0.036183 0.024582
v 0.008305 0.045698 0.018327
v 0.008305 0.045174 0.018729
v 0.008305 0.043957 0.019633
v 0.008305 0.042166 0.020872
v -0.001566 0.031152 0.029908
v 0.008828 0.029683 0.028156
v 0.008828 0.027631 0.029201
f 1 7 8
f 8 2 1
f 10 2 8
f 10 8 18
f 6 7 1
f 1 2 3
f 3 4 1
f 9 10 19
f 9 2 10
f 9 3 2
f 17 8 7
f 17 18 8
f 23 5 12
f 14 5 23
f 12 21 22
f 14 23 22
f 22 23 12
f 19 10 20
f 10 18 20
f 45 36 53
f 11 9 19
f 3 9 11
f 14 25 26
f 46 22 21
f 46 38 22
f 51 33 50
f 50 52 51
f 54 62 61
f 18 36 37
f 36 45 37
f 37 20 18
f 35 52 43
f 43 52 50
f 13 5 14
f 14 26 13
f 34 16 15
f 15 33 34
f 33 51 34
f 42 52 35
f 42 51 52
f 42 34 51
f 16 34 42
f 15 24 28
f 28 29 15
f 50 31 28
f 50 28 48
f 48 28 24
f 48 24 14
f 59 54 45
f 55 54 61
f 45 54 55
f 62 54 60
f 44 36 35
f 35 43 44
f 15 40 27
f 27 24 15
f 27 40 41
f 14 24 27
f 27 41 25
f 27 25 14
f 32 33 15
f 15 31 32
f 50 33 32
f 32 31 50
f 15 29 30
f 30 31 15
f 29 28 30
f 30 28 31
f 50 48 49
f 53 36 49
f 36 44 49
f 49 43 50
f 49 44 43
f 58 59 45
f 58 48 54
f 54 59 58
f 47 60 38
f 62 60 47
f 22 38 39
f 38 60 39
f 14 22 39
f 39 60 54
f 39 48 14
f 54 48 39
f 57 58 45
f 57 49 48
f 48 58 57
f 56 45 53
f 56 57 45
f 53 49 56
f 49 57 56
f 5 4 12
f 1 4 5
f 18 17 36
f 36 17 35
f 12 4 46
f 19 38 46
f 46 21 12
f 4 3 46
f 46 11 19
f 3 11 46
f 16 6 15
f 7 6 16
f 35 17 42
f 7 16 42
f 42 17 7
f 1 5 40
f 40 6 1
f 15 6 40
f 5 13 40
f 40 26 25
f 25 41 40
f 40 13 26
f 47 38 19
f 20 37 47
f 19 20 47
f 61 62 47
f 47 55 61
f 47 37 45
f 45 55 47
