# generated by collision_forge
v -0.016407 -0.004467 0.036735
v -0.016409 0.036163 0.023227
v -0.032772 -0.004464 0.028452
v -0.016407 0.011548 0.034488
v -0.018015 0.003471 0.036351
v -0.024553 0.010944 0.032278
v -0.022493 0.000440 0.035378
v -0.031207 0.022458 0.023227
v -0.016409 0.029406 0.026969
v -0.032772 0.009767 0.026641
v -0.026348 0.017995 0.029069
v -0.031207 0.019292 0.026157
v -0.032549 0.001574 0.030134
v -0.020407 0.012061 0.033361
v -0.016407 -0.000542 0.037441
v -0.028442 0.025325 0.024919
v -0.031207 0.025568 0.023227
v -0.024155 0.029342 0.024845
v -0.023120 0.005479 0.034249
v -0.027332 0.010737 0.031147
v -0.024062 0.017792 0.030030
v -0.028322 0.015844 0.029032
v -0.019351 0.025647 0.028168
v -0.016409 0.033943 0.023227
v -0.016409 0.022469 0.030206
v -0.028511 0.002616 0.032276
v -0.023561 -0.004467 0.035427
v -0.019918 0.020938 0.030034
v -0.029421 0.014102 0.029063
v -0.021080 0.029354 0.025895
v -0.022023 0.002294 0.035271
v -0.023503 0.025329 0.027005
v -0.026472 0.002616 0.033320
v -0.032772 0.009186 0.028349
v -0.029344 0.006553 0.031118
v -0.020894 0.017757 0.031058
v -0.030504 0.018282 0.027012
v -0.016407 0.008880 0.035402
v -0.016409 0.034958 0.023955
v -0.026677 0.030404 0.023227
v -0.032772 0.002616 0.029787
v -0.016409 0.033458 0.024811
v -0.032681 -0.000518 0.030247
v -0.027519 -0.001564 0.033337
v -0.030377 0.008581 0.030073
v -0.019258 0.035164 0.023227
v -0.028586 -0.004467 0.032972
v -0.016409 0.031458 0.025908
v -0.016409 0.025178 0.029023
v -0.016407 -0.002825 0.037721
v -0.022246 0.032559 0.023854
v -0.031207 0.024701 0.023671
v -0.027305 0.006605 0.032178
v -0.017004 -0.004467 0.037718
v -0.017781 0.008375 0.035244
v -0.032772 -0.004464 0.030357
v -0.018281 0.030587 0.025999
v -0.019326 -0.000518 0.036618
v -0.024183 0.014790 0.031117
v -0.027659 0.021396 0.027089
v -0.017237 0.011699 0.034269
v -0.021062 0.008554 0.034249
f 24 1 3
f 3 1 47
f 1 50 54
f 1 24 4
f 4 24 2
f 8 24 3
f 3 47 56
f 47 43 56
f 38 4 61
f 37 12 34
f 51 57 46
f 52 12 37
f 37 16 52
f 52 16 17
f 17 34 52
f 52 34 12
f 18 16 32
f 30 57 51
f 30 18 32
f 51 18 30
f 17 8 10
f 10 34 17
f 10 8 3
f 44 43 47
f 35 26 53
f 53 20 35
f 32 16 60
f 60 11 32
f 60 16 37
f 37 34 29
f 17 16 40
f 16 18 40
f 40 18 51
f 51 46 40
f 42 48 4
f 42 46 57
f 57 48 42
f 61 4 25
f 25 28 61
f 26 35 13
f 43 44 13
f 13 44 26
f 38 5 15
f 27 44 47
f 27 7 44
f 26 44 33
f 44 7 33
f 53 26 33
f 33 7 31
f 61 28 36
f 36 14 61
f 55 5 38
f 55 38 61
f 61 14 55
f 22 29 20
f 59 11 22
f 37 29 22
f 22 60 37
f 11 60 22
f 45 35 20
f 20 29 45
f 45 29 34
f 45 13 35
f 39 4 2
f 39 42 4
f 2 46 39
f 46 42 39
f 49 25 4
f 58 5 31
f 58 15 5
f 31 7 58
f 50 15 58
f 58 54 50
f 58 27 54
f 7 27 58
f 59 14 21
f 14 36 21
f 21 11 59
f 32 11 21
f 21 28 32
f 21 36 28
f 62 55 14
f 5 55 62
f 41 45 34
f 13 45 41
f 43 13 41
f 41 56 43
f 4 48 9
f 9 49 4
f 9 48 57
f 57 49 9
f 28 25 23
f 25 49 23
f 32 28 23
f 23 30 32
f 57 30 23
f 23 49 57
f 19 20 53
f 53 33 19
f 19 33 31
f 31 5 19
f 5 62 19
f 6 14 59
f 6 62 14
f 59 22 6
f 6 22 20
f 20 19 6
f 6 19 62
f 24 8 40
f 2 24 40
f 40 8 17
f 40 46 2
f 1 4 15
f 15 50 1
f 4 38 15
f 1 54 27
f 27 47 1
f 41 10 3
f 3 56 41
f 34 10 41
