# generated by collision_forge
v -0.031207 0.009769 0.029241
v -0.031208 0.040995 0.007286
v -0.032664 -0.004464 0.006747
v -0.034117 -0.004460 0.025312
v -0.032383 0.038647 0.016441
v -0.032773 -0.000517 0.030166
v -0.034893 0.012016 0.025312
v -0.033676 0.037080 0.010693
v -0.031208 0.042761 0.012780
v -0.033513 0.033946 0.006914
v -0.033423 -0.004173 0.011217
v -0.033722 0.029762 0.006754
v -0.034481 0.035559 0.014627
v -0.033626 -0.004460 0.029313
v -0.035520 0.019648 0.019490
v -0.031208 0.042155 0.009643
v -0.031207 0.024700 0.023666
v -0.033363 0.033386 0.018507
v -0.034976 0.006792 0.025312
v -0.033821 -0.004464 0.017192
v -0.034569 0.033946 0.016693
v -0.034703 0.021404 0.010695
v -0.031675 0.039165 0.006810
v -0.034480 0.011290 0.012149
v -0.035515 0.025153 0.017463
v -0.033500 0.012718 0.026937
v -0.034469 -0.002093 0.025825
v -0.034456 0.013536 0.025823
v -0.035508 0.020859 0.020597
v -0.034428 0.027067 0.020574
v -0.034977 0.005747 0.024272
v -0.033513 0.003662 0.029063
v -0.031207 0.009769 0.027776
v -0.035521 0.021751 0.018447
v -0.032605 0.038189 0.007515
v -0.031207 0.039442 0.016411
v -0.034489 0.026632 0.008998
v -0.033701 0.013056 0.006747
v -0.032773 -0.004460 0.030355
v -0.033524 -0.004464 0.012782
v -0.034581 0.004702 0.027154
v -0.033462 0.038730 0.013825
v -0.035526 0.024538 0.018662
v -0.031870 -0.004464 0.007561
v -0.034550 0.019060 0.023847
v -0.032601 0.040274 0.011758
v -0.031208 0.042437 0.010693
v -0.034994 0.006792 0.023222
v -0.034883 0.032901 0.013825
v -0.034966 0.032901 0.015914
v -0.034013 0.030816 0.007563
v -0.033764 0.034990 0.008606
v -0.034582 0.008881 0.014869
v -0.031207 0.020230 0.025758
v -0.031208 0.040126 0.006872
v -0.033933 -0.004460 0.028446
v -0.031207 0.010624 0.029047
v -0.032962 -0.004464 0.007561
v -0.032394 0.040750 0.014375
v -0.033527 0.037829 0.015609
v -0.034871 0.028717 0.019046
v -0.033945 0.010971 0.007561
f 1 44 33
f 55 44 3
f 55 33 44
f 36 33 55
f 45 29 7
f 39 20 44
f 39 44 1
f 1 6 39
f 3 62 38
f 62 37 38
f 9 36 47
f 36 16 47
f 26 54 45
f 43 29 61
f 29 45 61
f 56 20 14
f 20 39 14
f 14 41 56
f 18 54 17
f 22 37 62
f 37 22 25
f 13 8 49
f 37 25 49
f 3 38 12
f 58 62 3
f 58 11 62
f 58 40 11
f 59 36 9
f 5 60 18
f 5 17 36
f 18 17 5
f 36 59 5
f 5 59 60
f 46 47 16
f 16 35 46
f 46 35 8
f 9 47 46
f 46 59 9
f 28 45 7
f 28 26 45
f 7 41 28
f 32 6 1
f 26 28 32
f 32 28 41
f 41 14 32
f 32 39 6
f 32 14 39
f 54 26 57
f 57 32 1
f 26 32 57
f 30 61 45
f 30 54 18
f 45 54 30
f 21 60 13
f 18 60 21
f 21 30 18
f 61 30 21
f 52 49 8
f 52 35 10
f 8 35 52
f 23 12 10
f 10 35 23
f 23 55 3
f 3 12 23
f 51 38 37
f 51 12 38
f 10 12 51
f 51 52 10
f 37 49 51
f 49 52 51
f 53 40 20
f 11 40 53
f 27 31 20
f 56 41 27
f 2 35 16
f 2 16 36
f 36 55 2
f 55 23 2
f 2 23 35
f 59 46 42
f 13 60 42
f 60 59 42
f 42 8 13
f 42 46 8
f 13 49 50
f 50 21 13
f 50 25 43
f 50 49 25
f 43 61 50
f 61 21 50
f 20 31 48
f 48 53 20
f 62 11 24
f 11 53 24
f 24 22 62
f 4 20 56
f 56 27 4
f 4 27 20
f 19 27 41
f 31 27 19
f 19 41 7
f 7 29 19
f 53 48 15
f 15 48 31
f 15 29 43
f 15 24 53
f 15 19 29
f 31 19 15
f 22 24 34
f 24 15 34
f 34 25 22
f 43 25 34
f 34 15 43
f 44 20 58
f 3 44 58
f 20 40 58
f 57 33 36
f 1 33 57
f 36 17 57
f 57 17 54
