# generated by collision_forge
v -0.011757 -0.049036 0.018714
v -0.023543 -0.043278 0.018714
v -0.011757 -0.048310 0.007576
v -0.012315 -0.047983 0.007247
v -0.023543 -0.042075 0.007626
v -0.023543 -0.044762 0.018714
v -0.012013 -0.050258 0.018714
v -0.011757 -0.050544 0.018003
v -0.011757 -0.048363 0.007405
v -0.012315 -0.047983 0.006944
v -0.023543 -0.042075 0.007603
v -0.023173 -0.045052 0.018714
v -0.023543 -0.045018 0.018003
v -0.011757 -0.051090 0.015684
v -0.011757 -0.048574 0.006880
v -0.023543 -0.042277 0.006826
v -0.021933 -0.045956 0.018520
v -0.023543 -0.045241 0.017144
v -0.014758 -0.050181 0.015671
v -0.011757 -0.048699 0.006880
v -0.014103 -0.048304 0.006790
v -0.013650 -0.050161 0.017565
v -0.016191 -0.049588 0.015914
v -0.011757 -0.051106 0.014568
v -0.011757 -0.049204 0.006905
v -0.022277 -0.044132 0.006842
v -0.023543 -0.042310 0.006823
v -0.021605 -0.046805 0.015914
v -0.017893 -0.048115 0.018687
v -0.015860 -0.048985 0.018714
v -0.017079 -0.049258 0.014869
v -0.014697 -0.050165 0.014189
v -0.013057 -0.050462 0.012780
v -0.011757 -0.051030 0.014076
v -0.012543 -0.049094 0.007033
v -0.015643 -0.048013 0.007066
v -0.017822 -0.047035 0.006993
v -0.022972 -0.043862 0.007049
v -0.023543 -0.043113 0.006871
v -0.022990 -0.045967 0.015446
v -0.021122 -0.047144 0.014869
v -0.019109 -0.048212 0.015914
v -0.019051 -0.048179 0.013825
v -0.016814 -0.049134 0.013061
v -0.015980 -0.049219 0.011737
v -0.019877 -0.045979 0.007011
v -0.022323 -0.046224 0.013821
v -0.020928 -0.047027 0.013161
v -0.018801 -0.048048 0.012256
v -0.015780 -0.049137 0.011038
v -0.012701 -0.050188 0.011006
v -0.011757 -0.050209 0.010071
v -0.013833 -0.049178 0.008604
v -0.014854 -0.049177 0.009854
v -0.018967 -0.047093 0.008830
v -0.020953 -0.046001 0.009001
v -0.023543 -0.044000 0.008604
v -0.023543 -0.045309 0.013763
v -0.019849 -0.047005 0.010162
v -0.017766 -0.048052 0.010155
v -0.021943 -0.045967 0.011187
v -0.023543 -0.044931 0.011737
f 2 1 5
f 4 5 1
f 3 4 1
f 4 3 10
f 15 10 9
f 9 10 3
f 20 21 15
f 20 25 21
f 29 12 17
f 14 19 24
f 19 14 22
f 25 52 35
f 21 25 35
f 12 6 13
f 13 17 12
f 18 17 13
f 30 22 7
f 30 12 29
f 7 22 8
f 8 22 14
f 1 7 8
f 24 33 34
f 28 17 18
f 52 34 51
f 51 34 33
f 37 26 21
f 29 17 42
f 17 28 42
f 42 28 41
f 18 58 40
f 40 28 18
f 41 28 40
f 61 57 56
f 53 35 52
f 52 51 53
f 53 51 54
f 55 37 60
f 56 55 59
f 59 61 56
f 55 60 59
f 59 60 49
f 49 60 45
f 57 39 38
f 38 39 26
f 56 57 38
f 16 10 15
f 21 35 36
f 36 37 21
f 35 53 36
f 36 53 54
f 54 60 36
f 36 60 37
f 32 45 33
f 24 19 32
f 32 33 24
f 31 42 41
f 31 32 19
f 41 40 47
f 47 40 58
f 57 61 62
f 62 47 58
f 61 47 62
f 50 60 54
f 50 45 60
f 54 51 50
f 50 51 33
f 33 45 50
f 56 38 46
f 46 55 56
f 46 37 55
f 26 37 46
f 46 38 26
f 10 16 11
f 15 21 27
f 27 16 15
f 21 26 27
f 26 39 27
f 43 31 41
f 49 45 44
f 44 43 49
f 31 43 44
f 45 32 44
f 32 31 44
f 23 31 19
f 42 31 23
f 29 42 23
f 23 30 29
f 19 22 23
f 22 30 23
f 41 47 48
f 48 47 61
f 48 43 41
f 49 43 48
f 48 59 49
f 61 59 48
f 30 7 1
f 30 1 2
f 2 6 30
f 30 6 12
f 34 3 1
f 34 20 15
f 15 9 34
f 1 8 34
f 34 9 3
f 34 52 25
f 25 20 34
f 34 14 24
f 34 8 14
f 5 4 11
f 4 10 11
f 27 6 2
f 2 5 27
f 18 13 27
f 27 13 6
f 27 58 18
f 57 62 27
f 27 39 57
f 5 11 27
f 27 62 58
f 27 11 16
