# generated by collision_forge
v -0.029626 -0.028814 0.026423
v -0.032663 -0.004467 0.006749
v -0.029626 -0.034906 0.006855
v -0.033970 -0.008879 0.026423
v -0.033871 -0.004467 0.018002
v -0.032854 -0.021352 0.026423
v -0.032903 -0.021416 0.019048
v -0.033476 -0.004467 0.012158
v -0.032912 -0.004467 0.024268
v -0.030582 -0.030814 0.006761
v -0.032263 -0.025575 0.026423
v -0.029626 -0.038689 0.015255
v -0.030617 -0.034990 0.010696
v -0.029626 -0.031953 0.026423
v -0.031370 -0.033518 0.022180
v -0.031363 -0.034543 0.018741
v -0.034074 -0.004467 0.026423
v -0.032841 -0.017236 0.013828
v -0.032385 -0.029298 0.020498
v -0.033947 -0.005748 0.021136
v -0.030319 -0.033468 0.024824
v -0.029626 -0.033071 0.006926
v -0.031820 -0.031855 0.022180
v -0.031355 -0.033515 0.014142
v -0.030298 -0.036569 0.012220
v -0.032393 -0.023132 0.013173
v -0.031046 -0.029617 0.026423
v -0.031815 -0.024547 0.008604
v -0.031362 -0.029486 0.008907
v -0.031349 -0.027282 0.007017
v -0.030813 -0.031855 0.007562
v -0.029626 -0.036993 0.022180
v -0.031870 -0.004467 0.007560
v -0.034117 -0.004467 0.025312
v -0.033940 -0.008879 0.025312
v -0.029626 -0.032900 0.025859
v -0.031692 -0.032900 0.016956
v -0.031825 -0.030814 0.014872
v -0.030436 -0.036909 0.014872
v -0.033006 -0.004467 0.025312
v -0.033894 -0.009928 0.026423
v -0.032852 -0.021416 0.018002
v -0.032872 -0.023499 0.022180
v -0.031693 -0.031855 0.023224
v -0.029626 -0.032312 0.007533
v -0.032396 -0.028330 0.022889
v -0.033128 -0.004467 0.026423
v -0.029626 -0.038011 0.020119
v -0.032927 -0.005748 0.007560
v -0.029626 -0.038185 0.012784
v -0.032396 -0.025253 0.015209
v -0.032422 -0.028495 0.022180
v -0.032399 -0.013886 0.007005
v -0.031347 -0.032447 0.012154
v -0.031373 -0.032473 0.023830
v -0.030314 -0.034530 0.007980
v -0.032444 -0.016278 0.008510
v -0.031366 -0.034557 0.018002
v -0.030327 -0.035571 0.022767
v -0.032096 -0.004703 0.006745
v -0.031435 -0.029506 0.025988
v -0.030484 -0.036993 0.016956
f 1 40 47
f 59 32 21
f 9 40 1
f 1 33 9
f 48 32 59
f 7 43 35
f 7 5 42
f 4 17 34
f 34 35 4
f 35 43 4
f 12 48 62
f 62 48 16
f 23 44 46
f 15 48 59
f 16 48 15
f 15 23 16
f 44 23 15
f 16 23 19
f 19 7 42
f 43 7 19
f 2 33 60
f 36 21 32
f 34 5 20
f 20 35 34
f 20 7 35
f 5 7 20
f 41 4 43
f 55 15 59
f 44 15 55
f 59 21 55
f 21 61 55
f 11 6 46
f 46 44 11
f 44 55 11
f 11 55 61
f 27 61 21
f 27 36 14
f 21 36 27
f 27 11 61
f 37 19 38
f 52 23 46
f 52 19 23
f 43 19 52
f 46 6 52
f 6 41 52
f 52 41 43
f 51 19 42
f 38 19 51
f 8 2 49
f 49 57 8
f 60 33 22
f 8 57 18
f 18 51 42
f 18 5 8
f 42 5 18
f 12 62 39
f 50 25 56
f 12 39 50
f 50 39 25
f 25 39 24
f 38 51 28
f 57 49 53
f 53 28 57
f 30 28 53
f 53 49 2
f 45 33 1
f 45 22 33
f 10 53 2
f 30 53 10
f 10 2 60
f 3 50 56
f 60 22 3
f 3 10 60
f 56 25 13
f 25 24 13
f 30 10 31
f 56 13 31
f 31 3 56
f 10 3 31
f 58 24 39
f 58 62 16
f 58 39 62
f 37 24 58
f 16 19 58
f 19 37 58
f 57 28 26
f 26 28 51
f 26 18 57
f 51 18 26
f 30 31 29
f 38 28 29
f 29 28 30
f 38 29 54
f 54 37 38
f 54 24 37
f 54 29 31
f 54 13 24
f 54 31 13
f 34 17 2
f 40 9 2
f 2 47 40
f 2 5 34
f 2 9 33
f 2 17 47
f 8 5 2
f 47 17 27
f 27 14 1
f 1 47 27
f 27 41 6
f 17 4 27
f 4 41 27
f 6 11 27
f 3 48 12
f 3 36 32
f 32 48 3
f 1 14 3
f 14 36 3
f 12 50 3
f 3 45 1
f 22 45 3
