# generated by collision_forge
v 0.026569 -0.004463 0.035589
v 0.026569 -0.004463 0.034336
v 0.026653 -0.004463 0.035552
v 0.031017 -0.004463 0.031502
v 0.026569 0.034990 0.019795
v 0.026569 -0.002989 0.035427
v 0.031017 0.027914 0.019795
v 0.031017 -0.004463 0.033161
v 0.026569 0.037370 0.019795
v 0.028233 0.000103 0.034209
v 0.026569 -0.000528 0.035090
v 0.031017 0.032578 0.019795
v 0.031017 -0.003857 0.033103
v 0.026569 0.036321 0.020461
v 0.029254 -0.004140 0.034196
v 0.029348 0.002392 0.033204
v 0.027462 0.001569 0.034340
v 0.030335 -0.000819 0.033176
v 0.030294 0.005234 0.032106
v 0.026569 0.002613 0.034554
v 0.031017 -0.002653 0.032973
v 0.031017 -0.001449 0.032831
v 0.028670 0.035940 0.019795
v 0.031017 0.001647 0.032350
v 0.031017 0.003481 0.032018
v 0.031017 0.006766 0.031243
v 0.028260 0.005345 0.033178
v 0.030194 0.034396 0.019795
v 0.030386 0.032533 0.020702
v 0.029222 0.035498 0.019795
v 0.031017 0.008891 0.030648
v 0.028401 0.008879 0.032211
v 0.030143 0.031198 0.021584
v 0.031017 0.026312 0.023539
v 0.026569 0.032812 0.022542
v 0.026569 0.030154 0.024009
v 0.029417 0.033614 0.020710
v 0.029377 0.010677 0.031135
v 0.026569 0.004706 0.034124
v 0.028191 0.027144 0.024781
v 0.027154 0.028196 0.024789
v 0.030440 0.011774 0.030113
v 0.029364 0.013773 0.030087
v 0.027354 0.010742 0.032196
v 0.026569 0.008052 0.033311
v 0.028200 0.025063 0.025834
v 0.030509 0.026362 0.023876
v 0.027344 0.013846 0.031158
v 0.031017 0.015493 0.028426
v 0.031017 0.016136 0.028187
v 0.026569 0.009858 0.032793
v 0.027166 0.024031 0.026887
v 0.028454 0.022254 0.027035
v 0.031017 0.023675 0.024852
v 0.026569 0.026398 0.025985
v 0.026569 0.012982 0.031808
v 0.031017 0.018491 0.027231
v 0.027140 0.021914 0.027902
v 0.028410 0.020104 0.028041
v 0.026569 0.017307 0.030197
v 0.029035 0.017463 0.028850
v 0.026569 0.019629 0.029195
f 2 5 4
f 4 5 7
f 24 18 22
f 61 59 60
f 8 15 3
f 21 22 18
f 18 15 21
f 16 18 24
f 48 61 60
f 59 53 58
f 10 15 18
f 18 16 10
f 10 16 17
f 13 15 8
f 13 21 15
f 17 20 11
f 11 10 17
f 56 48 60
f 48 56 44
f 48 44 38
f 61 48 43
f 43 49 50
f 50 61 43
f 48 38 43
f 57 61 50
f 59 61 57
f 57 53 59
f 62 58 55
f 60 59 62
f 59 58 62
f 40 33 37
f 41 37 30
f 40 37 41
f 41 46 40
f 1 3 6
f 10 11 6
f 6 3 15
f 15 10 6
f 25 16 24
f 25 19 16
f 39 20 17
f 45 44 51
f 51 44 56
f 31 49 42
f 42 38 31
f 49 43 42
f 42 43 38
f 19 38 32
f 32 38 44
f 32 44 45
f 55 58 52
f 52 41 55
f 46 41 52
f 52 58 53
f 53 46 52
f 29 12 28
f 29 34 12
f 33 34 29
f 29 37 33
f 28 30 29
f 30 37 29
f 47 34 33
f 47 33 40
f 40 46 47
f 47 46 53
f 9 14 23
f 23 14 35
f 35 30 23
f 55 41 36
f 36 30 35
f 36 41 30
f 19 25 26
f 31 38 26
f 26 38 19
f 45 39 27
f 27 32 45
f 19 32 27
f 16 19 27
f 17 16 27
f 27 39 17
f 53 57 54
f 54 47 53
f 34 47 54
f 1 2 3
f 4 8 3
f 3 2 4
f 23 5 9
f 23 7 5
f 23 12 7
f 28 12 23
f 23 30 28
f 9 5 36
f 36 2 1
f 5 2 36
f 60 62 36
f 36 14 9
f 36 56 60
f 45 51 36
f 1 6 36
f 36 11 20
f 36 39 45
f 36 62 55
f 35 14 36
f 36 6 11
f 20 39 36
f 36 51 56
f 54 8 4
f 4 7 54
f 24 22 54
f 50 49 54
f 12 34 54
f 54 13 8
f 7 12 54
f 22 21 54
f 54 49 31
f 21 13 54
f 54 57 50
f 31 26 54
f 54 25 24
f 54 26 25
