# generated by collision_forge
v -0.031206 0.022461 0.023226
v -0.031206 0.025576 0.023226
v -0.031206 0.033592 0.017583
v -0.011893 0.047630 0.014539
v -0.011893 0.035170 0.023226
v -0.030811 0.026088 0.023226
v -0.031206 0.034104 0.017331
v -0.031206 0.039954 0.014539
v -0.011893 0.049405 0.014539
v -0.011893 0.037404 0.023226
v -0.030497 0.029496 0.021780
v -0.031206 0.039443 0.016410
v -0.031206 0.042178 0.014539
v -0.012014 0.049400 0.014539
v -0.028779 0.028386 0.023226
v -0.028472 0.029536 0.022843
v -0.031206 0.041049 0.015556
v -0.027438 0.030543 0.022832
v -0.026347 0.031540 0.022813
v -0.030437 0.041914 0.015465
v -0.030497 0.043027 0.014539
v -0.027741 0.029438 0.023226
v -0.026189 0.030841 0.023226
v -0.025599 0.031337 0.023226
v -0.025230 0.032508 0.022770
v -0.029289 0.042856 0.015409
v -0.029465 0.043979 0.014539
v -0.012763 0.039741 0.021690
v -0.015105 0.036599 0.023226
v -0.024489 0.032189 0.023226
v -0.027684 0.045201 0.014539
v -0.023112 0.037681 0.020661
v -0.014113 0.049099 0.014539
v -0.012786 0.047042 0.016470
v -0.018250 0.035579 0.023226
v -0.014655 0.037612 0.022708
v -0.023502 0.033642 0.022822
v -0.022456 0.043004 0.017598
v -0.026557 0.045689 0.014539
v -0.023324 0.040920 0.018642
v -0.022218 0.039836 0.019660
v -0.021972 0.036578 0.021671
v -0.018280 0.048255 0.014539
v -0.016193 0.046757 0.016233
v -0.014101 0.045240 0.017734
v -0.012014 0.041141 0.020883
v -0.013563 0.042822 0.019565
v -0.016193 0.042017 0.019725
v -0.019257 0.035172 0.023226
v -0.018883 0.039725 0.020633
v -0.016809 0.038680 0.021677
v -0.020881 0.043863 0.017476
v -0.025591 0.046045 0.014539
v -0.021413 0.034777 0.022876
v -0.019722 0.046968 0.015358
v -0.011893 0.044185 0.018763
v -0.015671 0.043869 0.018527
v -0.020101 0.040851 0.019642
v -0.017796 0.041790 0.019577
v -0.020369 0.045182 0.016645
v -0.018072 0.046032 0.016498
v -0.018280 0.044283 0.017776
f 3 4 1
f 1 4 5
f 7 8 4
f 4 3 7
f 30 49 54
f 37 30 54
f 12 2 11
f 20 12 19
f 27 26 31
f 20 26 27
f 34 56 9
f 32 26 37
f 10 56 46
f 11 2 6
f 6 15 11
f 16 15 22
f 11 15 16
f 16 12 11
f 17 12 20
f 20 19 25
f 25 26 20
f 25 30 37
f 37 26 25
f 56 34 45
f 43 53 55
f 61 43 55
f 37 54 42
f 42 32 37
f 42 54 49
f 31 26 40
f 26 32 40
f 10 36 29
f 28 36 10
f 10 46 28
f 59 62 52
f 18 16 22
f 22 23 18
f 18 23 19
f 18 19 12
f 12 16 18
f 13 17 21
f 20 27 21
f 21 17 20
f 19 23 24
f 30 25 24
f 24 25 19
f 61 62 57
f 57 45 61
f 14 34 9
f 14 33 34
f 44 33 43
f 44 43 61
f 34 33 44
f 61 45 44
f 44 45 34
f 32 42 41
f 41 40 32
f 50 42 49
f 48 28 46
f 36 28 48
f 48 62 59
f 48 57 62
f 31 52 39
f 60 55 53
f 53 39 60
f 60 39 52
f 61 55 60
f 60 62 61
f 60 52 62
f 40 41 38
f 31 40 38
f 38 52 31
f 35 50 49
f 58 41 42
f 42 50 58
f 58 38 41
f 52 38 58
f 59 52 58
f 58 50 59
f 47 48 46
f 57 48 47
f 47 46 56
f 56 45 47
f 45 57 47
f 51 35 29
f 50 35 51
f 51 29 36
f 59 50 51
f 51 48 59
f 36 48 51
f 56 5 4
f 4 9 56
f 56 10 5
f 1 2 17
f 17 3 1
f 17 7 3
f 8 7 17
f 17 13 8
f 2 12 17
f 39 9 4
f 39 14 9
f 4 8 39
f 8 13 39
f 39 27 31
f 13 21 39
f 39 53 43
f 43 33 39
f 39 21 27
f 33 14 39
f 5 10 35
f 1 5 35
f 35 2 1
f 35 49 30
f 10 29 35
f 35 6 2
f 22 15 35
f 15 6 35
f 35 23 22
f 30 24 35
f 35 24 23
