# generated by collision_forge
v 0.027466 -0.036897 0.025133
v 0.001757 -0.021910 0.040314
v 0.002613 -0.031705 0.037489
v 0.001757 -0.036898 0.033400
v 0.008532 -0.031383 0.037346
v 0.027466 -0.021910 0.033988
v 0.023009 -0.028241 0.034209
v 0.018867 -0.024119 0.037348
v 0.025168 -0.025220 0.034244
v 0.004702 -0.029306 0.038391
v 0.008831 -0.035055 0.035476
v 0.013603 -0.035525 0.034202
v 0.001757 -0.028725 0.038636
v 0.006790 -0.033672 0.036407
v 0.020070 -0.021910 0.037406
v 0.006790 -0.025408 0.039498
v 0.014838 -0.036898 0.032920
v 0.009921 -0.021910 0.039898
v 0.027466 -0.035826 0.027519
v 0.013056 -0.029408 0.037391
v 0.013784 -0.031457 0.036339
v 0.021965 -0.033450 0.032120
v 0.023857 -0.036897 0.028919
v 0.026384 -0.028548 0.032264
v 0.009576 -0.028269 0.038393
v 0.018988 -0.036897 0.031277
v 0.027466 -0.031541 0.030130
v 0.019131 -0.033673 0.033294
v 0.021099 -0.035663 0.031159
v 0.027466 -0.021910 0.032643
v 0.001825 -0.036898 0.034734
v 0.027466 -0.036897 0.026764
v 0.009621 -0.036898 0.034218
v 0.027466 -0.025593 0.032838
v 0.020973 -0.030370 0.034232
v 0.001757 -0.024549 0.039871
v 0.001757 -0.021910 0.039241
v 0.004702 -0.035784 0.035398
v 0.007837 -0.023505 0.039856
v 0.004702 -0.024549 0.039813
v 0.025085 -0.036897 0.028224
v 0.009921 -0.032815 0.036492
v 0.016962 -0.031516 0.035328
v 0.022144 -0.026392 0.035336
v 0.002613 -0.021910 0.040307
v 0.001757 -0.035823 0.035421
v 0.010968 -0.026637 0.038706
v 0.016957 -0.026357 0.037400
v 0.024731 -0.033095 0.030876
v 0.015681 -0.024042 0.038373
v 0.013592 -0.026125 0.038373
v 0.024101 -0.031418 0.032150
v 0.012782 -0.021910 0.039460
v 0.017949 -0.028380 0.036352
v 0.016967 -0.021910 0.038427
v 0.015900 -0.027355 0.037391
v 0.013786 -0.033538 0.035303
v 0.010968 -0.030442 0.037388
v 0.016718 -0.035516 0.033150
v 0.022050 -0.023177 0.036331
v 0.010968 -0.034660 0.035349
v 0.010525 -0.024077 0.039427
f 1 4 37
f 1 37 30
f 17 4 1
f 1 32 17
f 62 53 18
f 31 46 4
f 13 46 3
f 40 36 13
f 40 16 39
f 39 16 62
f 62 18 39
f 60 6 15
f 45 39 18
f 40 39 45
f 2 36 45
f 45 36 40
f 3 14 5
f 31 33 38
f 38 33 11
f 46 31 38
f 11 14 38
f 3 46 38
f 38 14 3
f 12 33 17
f 41 17 32
f 41 23 17
f 17 23 26
f 10 13 3
f 3 5 10
f 10 16 40
f 40 13 10
f 62 16 47
f 42 14 11
f 42 5 14
f 50 55 53
f 11 33 61
f 33 12 61
f 61 42 11
f 24 27 34
f 34 6 9
f 9 6 60
f 9 24 34
f 7 24 9
f 44 48 54
f 44 9 60
f 7 9 44
f 19 41 32
f 29 23 22
f 29 26 23
f 22 28 29
f 29 28 26
f 25 10 5
f 16 10 25
f 25 47 16
f 54 48 56
f 8 15 55
f 55 50 8
f 8 50 48
f 60 15 8
f 8 44 60
f 48 44 8
f 51 53 62
f 51 50 53
f 62 47 51
f 48 50 51
f 51 56 48
f 59 12 17
f 17 26 59
f 26 28 59
f 43 59 28
f 52 24 7
f 27 24 52
f 5 42 58
f 58 25 5
f 57 61 12
f 12 59 57
f 59 43 57
f 35 43 28
f 35 28 22
f 54 43 35
f 22 52 35
f 35 52 7
f 35 44 54
f 7 44 35
f 49 19 27
f 27 52 49
f 41 19 49
f 49 52 22
f 22 23 49
f 23 41 49
f 47 25 20
f 25 58 20
f 20 51 47
f 56 51 20
f 21 58 42
f 42 61 21
f 61 57 21
f 21 20 58
f 21 57 43
f 21 43 54
f 54 56 21
f 56 20 21
f 13 37 4
f 2 37 13
f 4 46 13
f 13 36 2
f 33 31 4
f 4 17 33
f 45 37 2
f 45 30 37
f 55 15 45
f 45 18 53
f 53 55 45
f 45 6 30
f 45 15 6
f 19 32 1
f 1 30 19
f 30 6 19
f 19 6 34
f 34 27 19
