# generated by collision_forge
v 0.014980 -0.004469 0.038517
v -0.011241 -0.023244 0.037314
v 0.009426 -0.021906 0.039950
v 0.014980 -0.014100 0.039750
v 0.001759 -0.023244 0.038985
v -0.011241 -0.004467 0.037851
v -0.004699 -0.022453 0.039893
v 0.014980 -0.021906 0.037820
v 0.010599 -0.015991 0.040484
v -0.001275 -0.020983 0.040475
v 0.008912 -0.007794 0.040520
v -0.001565 -0.013058 0.040924
v 0.008550 -0.018980 0.040481
v -0.011241 -0.007814 0.039161
v -0.011241 -0.017399 0.039182
v -0.011241 -0.021411 0.038821
v 0.010891 -0.013157 0.040525
v -0.010767 -0.009924 0.039480
v 0.003656 -0.021192 0.040507
v 0.003656 -0.009924 0.040913
v -0.009920 -0.023244 0.038811
v 0.001774 -0.006164 0.040475
v 0.013263 -0.004469 0.039597
v 0.010539 -0.009195 0.040474
v 0.012783 -0.021906 0.039460
v -0.006778 -0.004467 0.039592
v 0.010966 -0.004469 0.039913
v 0.010966 -0.021906 0.039767
v -0.009920 -0.016188 0.039662
v -0.005228 -0.017767 0.040461
v -0.007833 -0.007836 0.039845
v -0.002610 -0.015146 0.040852
v -0.004455 -0.010147 0.040488
v 0.014980 -0.005747 0.039380
v -0.011241 -0.022749 0.038609
v 0.014980 -0.021906 0.038908
v -0.011241 -0.004467 0.038925
v 0.001759 -0.015146 0.041023
v -0.006788 -0.021411 0.039763
v 0.012010 -0.004469 0.039787
v -0.003657 -0.023244 0.039862
v 0.013055 -0.018278 0.039874
v 0.005745 -0.009924 0.040874
v 0.000524 -0.009924 0.040856
v -0.008875 -0.009924 0.039831
v 0.005745 -0.018278 0.040767
v 0.000524 -0.013058 0.041023
v 0.000524 -0.018279 0.040860
v 0.005745 -0.015144 0.040953
v 0.008874 -0.015144 0.040732
v -0.009920 -0.013058 0.039725
v 0.005745 -0.013058 0.040986
v 0.014980 -0.018754 0.039380
v 0.001759 -0.004467 0.040058
v 0.001759 -0.023244 0.040052
v 0.008874 -0.013058 0.040775
v 0.014456 -0.004469 0.039307
v -0.005638 -0.015146 0.040519
v -0.005595 -0.013058 0.040520
v 0.014099 -0.008880 0.039868
v 0.004700 -0.005901 0.040507
v 0.014980 -0.010970 0.039769
f 2 6 8
f 8 6 1
f 1 6 54
f 2 8 5
f 41 55 10
f 10 55 19
f 1 54 57
f 54 23 57
f 47 32 38
f 39 30 29
f 29 15 16
f 16 39 29
f 17 56 50
f 50 56 49
f 19 13 46
f 46 50 49
f 13 50 46
f 29 30 58
f 30 32 58
f 32 59 58
f 51 15 29
f 29 58 51
f 51 58 59
f 45 51 59
f 48 32 30
f 30 10 48
f 38 32 48
f 48 10 19
f 19 46 48
f 48 49 38
f 48 46 49
f 17 4 62
f 62 60 17
f 24 60 23
f 43 56 24
f 17 60 24
f 24 56 17
f 34 57 23
f 23 60 34
f 60 62 34
f 1 57 34
f 33 59 12
f 12 59 32
f 32 47 12
f 26 22 54
f 54 22 61
f 43 61 20
f 21 35 2
f 21 16 35
f 39 16 21
f 52 56 43
f 49 56 52
f 43 20 52
f 52 20 47
f 38 49 52
f 52 47 38
f 3 13 19
f 3 28 13
f 19 55 3
f 55 28 3
f 25 55 36
f 25 28 55
f 31 59 33
f 31 45 59
f 33 26 31
f 31 26 37
f 37 45 31
f 18 45 37
f 51 45 18
f 15 51 18
f 54 61 27
f 43 24 11
f 11 61 43
f 11 27 61
f 33 12 44
f 44 61 22
f 44 20 61
f 44 12 47
f 47 20 44
f 44 26 33
f 22 26 44
f 7 21 41
f 39 21 7
f 41 10 7
f 7 10 30
f 30 39 7
f 53 25 36
f 15 18 14
f 14 18 37
f 40 24 23
f 40 23 54
f 54 27 40
f 40 11 24
f 27 11 40
f 25 53 42
f 13 28 42
f 28 25 42
f 42 53 4
f 9 50 13
f 13 42 9
f 17 50 9
f 9 4 17
f 9 42 4
f 55 8 36
f 55 5 8
f 6 37 26
f 26 54 6
f 5 55 21
f 21 55 41
f 2 5 21
f 36 8 53
f 53 8 1
f 1 34 53
f 53 62 4
f 53 34 62
f 2 35 14
f 14 6 2
f 14 37 6
f 14 16 15
f 35 16 14
