# generated by collision_forge
v -0.000521 0.051472 0.006744
v 0.012012 0.049864 0.006763
v -0.002610 0.051467 0.006747
v -0.002610 0.051827 0.007559
v 0.000523 0.051464 0.006748
v 0.012012 0.050424 0.006763
v 0.014438 0.049369 0.006890
v 0.014438 0.049059 0.006968
v -0.005344 0.050883 0.006764
v -0.000521 0.052328 0.008808
v 0.000523 0.051817 0.007559
v 0.013055 0.050341 0.006804
v 0.002612 0.051427 0.006768
v 0.003656 0.051407 0.006780
v 0.005744 0.051340 0.006835
v 0.007833 0.051254 0.006931
v 0.014438 0.050021 0.006909
v 0.014438 0.049054 0.006980
v -0.005344 0.050703 0.007559
v -0.005344 0.051435 0.006764
v -0.004699 0.051447 0.006757
v -0.003656 0.052323 0.008827
v 0.000523 0.052317 0.008837
v 0.014101 0.050221 0.006926
v 0.008609 0.051214 0.006987
v 0.005744 0.051646 0.007559
v 0.014438 0.049054 0.007206
v -0.005344 0.051168 0.010205
v 0.014438 0.049548 0.010692
v 0.014438 0.049732 0.011966
v -0.003656 0.052629 0.010692
v -0.004699 0.052312 0.008862
v 0.001567 0.052299 0.008894
v 0.010687 0.051224 0.007936
v 0.007833 0.051485 0.007559
v 0.003656 0.052263 0.009009
v 0.004409 0.052245 0.009067
v -0.005344 0.051553 0.011966
v 0.014438 0.050957 0.011966
v -0.005344 0.052300 0.008899
v -0.002610 0.052759 0.011736
v 0.000523 0.052594 0.010692
v 0.009922 0.051528 0.008603
v 0.012604 0.051196 0.009071
v 0.014101 0.050455 0.007559
v 0.006491 0.052242 0.010071
v -0.005344 0.052655 0.011966
v 0.013696 0.051209 0.011966
v -0.005344 0.052701 0.011736
v -0.001566 0.052708 0.011966
v 0.000523 0.052708 0.011736
v 0.009922 0.051758 0.009647
v 0.013658 0.051198 0.010087
v 0.014438 0.050630 0.008603
v 0.004700 0.052437 0.010692
v 0.007186 0.052204 0.010387
v 0.010966 0.051706 0.010692
v 0.014438 0.050967 0.010426
v 0.004700 0.052512 0.011736
v 0.012012 0.051550 0.011736
v 0.007463 0.052245 0.011966
v 0.010966 0.051704 0.011966
f 41 49 47
f 7 8 2
f 2 8 9
f 27 19 18
f 18 19 9
f 9 8 18
f 30 19 29
f 29 19 27
f 30 38 28
f 28 19 30
f 31 49 41
f 49 31 40
f 6 2 1
f 42 31 41
f 55 59 46
f 46 43 37
f 37 55 46
f 36 42 37
f 42 55 37
f 52 43 46
f 32 31 22
f 32 40 31
f 20 40 32
f 22 20 32
f 9 20 21
f 3 2 9
f 3 1 2
f 9 21 3
f 6 1 5
f 46 59 56
f 59 61 56
f 56 52 46
f 62 48 60
f 60 61 62
f 41 47 50
f 50 61 59
f 43 34 25
f 34 24 25
f 60 48 53
f 36 37 26
f 22 31 10
f 31 42 10
f 57 56 61
f 52 56 57
f 57 61 60
f 60 53 57
f 57 53 52
f 41 50 51
f 51 50 59
f 51 42 41
f 59 55 51
f 51 55 42
f 35 37 43
f 43 25 35
f 35 26 37
f 35 25 16
f 16 26 35
f 48 39 58
f 58 53 48
f 43 52 44
f 52 53 44
f 44 34 43
f 12 17 7
f 7 2 12
f 12 2 6
f 24 17 12
f 12 25 24
f 12 6 16
f 16 25 12
f 15 26 16
f 16 6 15
f 11 5 1
f 36 26 33
f 33 42 36
f 53 58 54
f 1 3 4
f 4 11 1
f 4 3 21
f 22 10 4
f 10 11 4
f 4 20 22
f 4 21 20
f 26 15 14
f 14 11 26
f 14 15 6
f 23 11 10
f 23 10 42
f 42 33 23
f 26 11 23
f 23 33 26
f 45 24 34
f 34 44 45
f 45 54 17
f 45 17 24
f 45 44 53
f 53 54 45
f 5 11 13
f 11 14 13
f 6 5 13
f 13 14 6
f 40 28 38
f 38 47 40
f 40 47 49
f 9 19 40
f 19 28 40
f 40 20 9
f 50 47 38
f 50 38 30
f 30 39 50
f 50 39 48
f 48 62 50
f 50 62 61
f 27 18 54
f 30 29 54
f 54 8 7
f 54 18 8
f 54 29 27
f 54 39 30
f 7 17 54
f 54 58 39
