# generated by collision_forge
v -0.023543 -0.023243 0.032439
v -0.011243 -0.023243 0.037313
v -0.023543 -0.023243 0.033734
v -0.023543 -0.004467 0.034208
v -0.011243 -0.004467 0.037850
v -0.011243 -0.023243 0.038512
v -0.023543 -0.004467 0.035434
v -0.011243 -0.004467 0.038924
v -0.011243 -0.022812 0.038596
v -0.011574 -0.023243 0.038429
v -0.020212 -0.023243 0.035403
v -0.021151 -0.004467 0.036380
v -0.023543 -0.005260 0.035481
v -0.011781 -0.004467 0.038869
v -0.011243 -0.007814 0.039161
v -0.017964 -0.023243 0.036364
v -0.018836 -0.022000 0.036297
v -0.021183 -0.021412 0.035382
v -0.018848 -0.006791 0.037344
v -0.011243 -0.021412 0.038820
v -0.015237 -0.022535 0.037524
v -0.012793 -0.021412 0.038441
v -0.015007 -0.023243 0.037449
v -0.016733 -0.020927 0.037334
v -0.019210 -0.020366 0.036455
v -0.023543 -0.020383 0.034441
v -0.021359 -0.007835 0.036472
v -0.018278 -0.007835 0.037571
v -0.013058 -0.006791 0.038839
v -0.012013 -0.020366 0.038786
v -0.011243 -0.018583 0.039102
v -0.017829 -0.017973 0.037355
v -0.019426 -0.019421 0.036522
v -0.017237 -0.004467 0.037665
v -0.018993 -0.009923 0.037395
v -0.014997 -0.007835 0.038461
v -0.015123 -0.009923 0.038498
v -0.014054 -0.004467 0.038450
v -0.011243 -0.010968 0.039346
v -0.011243 -0.017400 0.039182
v -0.013058 -0.017234 0.038825
v -0.014626 -0.017760 0.038371
v -0.017237 -0.017234 0.037629
v -0.022313 -0.018278 0.035421
v -0.023543 -0.008879 0.035582
v -0.018278 -0.010968 0.037626
v -0.014102 -0.008879 0.038725
v -0.011243 -0.014100 0.039365
v -0.020972 -0.015964 0.036318
v -0.023543 -0.017374 0.034937
v -0.021359 -0.010968 0.036479
v -0.018970 -0.012012 0.037386
v -0.015092 -0.013056 0.038493
v -0.011243 -0.013056 0.039388
v -0.014102 -0.012012 0.038761
v -0.014929 -0.015146 0.038454
v -0.014102 -0.014100 0.038720
v -0.018858 -0.013865 0.037348
v -0.018278 -0.013056 0.037578
v -0.021265 -0.013056 0.036445
v -0.023346 -0.014100 0.035417
v -0.023543 -0.012095 0.035480
f 5 2 1
f 1 4 5
f 17 11 16
f 17 16 24
f 18 11 17
f 11 18 3
f 32 24 43
f 21 22 24
f 16 23 21
f 21 24 16
f 23 10 21
f 21 10 22
f 36 38 34
f 29 38 36
f 56 59 43
f 45 27 13
f 7 13 12
f 12 13 27
f 61 62 50
f 50 44 61
f 61 44 49
f 49 32 58
f 43 59 58
f 58 32 43
f 26 44 50
f 26 3 18
f 18 44 26
f 33 32 49
f 49 44 33
f 24 32 33
f 41 31 40
f 40 48 41
f 9 20 22
f 9 10 6
f 22 10 9
f 30 20 31
f 30 31 41
f 22 20 30
f 29 39 15
f 14 38 29
f 14 15 8
f 29 15 14
f 47 39 29
f 29 36 47
f 54 39 47
f 42 56 43
f 41 56 42
f 42 30 41
f 22 30 42
f 43 24 42
f 24 22 42
f 46 59 53
f 59 56 53
f 34 12 19
f 27 35 19
f 19 12 27
f 45 62 51
f 51 27 45
f 51 35 27
f 25 44 18
f 25 33 44
f 25 18 17
f 17 24 25
f 24 33 25
f 46 53 37
f 37 47 36
f 55 37 53
f 54 47 55
f 47 37 55
f 57 56 41
f 57 53 56
f 41 48 57
f 57 55 53
f 57 48 54
f 54 55 57
f 28 36 34
f 34 19 28
f 28 37 36
f 28 19 35
f 28 35 46
f 46 37 28
f 35 51 52
f 52 58 59
f 52 59 46
f 46 35 52
f 60 51 62
f 60 61 49
f 62 61 60
f 49 58 60
f 58 52 60
f 60 52 51
f 2 6 10
f 1 2 10
f 10 3 1
f 10 16 11
f 10 23 16
f 11 3 10
f 26 7 4
f 26 4 1
f 1 3 26
f 26 62 45
f 45 13 26
f 50 62 26
f 26 13 7
f 15 6 2
f 2 5 15
f 15 40 31
f 5 8 15
f 54 48 15
f 15 39 54
f 31 20 15
f 15 9 6
f 48 40 15
f 20 9 15
f 14 8 5
f 14 5 4
f 4 7 14
f 34 38 14
f 14 12 34
f 7 12 14
