# generated by collision_forge
v 0.026567 0.013058 0.030455
v 0.008307 0.049427 0.015253
v 0.026565 0.041341 0.017690
v 0.008829 0.013058 0.035696
v 0.017842 0.028236 0.027944
v 0.025334 0.021151 0.029090
v 0.008307 0.036745 0.024260
v 0.020014 0.041847 0.019617
v 0.024093 0.046012 0.015253
v 0.017827 0.037631 0.022721
v 0.013264 0.013058 0.035386
v 0.026567 0.017309 0.030195
v 0.022568 0.013058 0.033343
v 0.026565 0.043901 0.015253
v 0.017236 0.040999 0.020790
v 0.019973 0.025138 0.029006
v 0.023149 0.023112 0.029034
v 0.008307 0.034441 0.024260
v 0.008829 0.023376 0.031240
v 0.010970 0.025437 0.030191
v 0.013060 0.023127 0.031126
v 0.012014 0.029539 0.028084
v 0.009924 0.035645 0.024872
v 0.026565 0.042018 0.015253
v 0.010968 0.045094 0.018669
v 0.008307 0.045695 0.018327
v 0.018961 0.033494 0.024836
v 0.020368 0.017914 0.032168
v 0.013058 0.041961 0.020738
v 0.016834 0.014685 0.034215
v 0.013584 0.033419 0.025837
v 0.021412 0.035780 0.022857
v 0.026567 0.028624 0.024836
v 0.016192 0.026466 0.029151
v 0.008307 0.040839 0.021726
v 0.021176 0.030450 0.025925
v 0.025212 0.033537 0.022767
v 0.023149 0.015835 0.032164
v 0.013902 0.015782 0.034237
v 0.008307 0.047639 0.015253
v 0.014102 0.046087 0.017588
v 0.019778 0.047878 0.015253
v 0.022456 0.038842 0.020734
v 0.026567 0.013058 0.031780
v 0.008829 0.013058 0.034573
v 0.008829 0.019018 0.033241
v 0.009924 0.013058 0.035656
v 0.008829 0.029685 0.028158
v 0.009374 0.049384 0.015253
v 0.008829 0.016195 0.034483
v 0.010970 0.016134 0.034385
v 0.026565 0.042210 0.017140
v 0.015146 0.030703 0.027103
v 0.023850 0.044848 0.016384
v 0.019234 0.013058 0.034305
v 0.023426 0.030799 0.024986
v 0.015146 0.044293 0.018849
v 0.019054 0.021033 0.031118
v 0.024744 0.017448 0.030931
v 0.013821 0.038703 0.022741
v 0.025271 0.043990 0.016532
v 0.016192 0.022162 0.031156
f 1 45 40
f 40 24 1
f 61 14 9
f 18 45 4
f 4 7 18
f 18 40 45
f 26 49 2
f 25 49 26
f 52 61 3
f 14 61 52
f 7 19 48
f 50 7 4
f 25 26 35
f 3 61 43
f 43 61 8
f 25 35 29
f 29 35 60
f 10 60 31
f 9 42 54
f 54 61 9
f 8 61 54
f 54 42 8
f 7 48 23
f 31 60 23
f 23 35 7
f 60 35 23
f 47 50 4
f 47 11 51
f 50 47 51
f 30 11 55
f 3 43 37
f 15 29 60
f 15 10 8
f 60 10 15
f 32 10 27
f 32 43 8
f 8 10 32
f 31 23 22
f 22 23 48
f 53 10 31
f 27 10 53
f 31 22 53
f 53 22 34
f 20 48 19
f 20 22 48
f 39 51 11
f 30 62 39
f 39 11 30
f 29 15 57
f 25 29 57
f 8 42 57
f 57 15 8
f 27 53 5
f 5 53 34
f 34 16 5
f 34 22 21
f 22 20 21
f 62 34 21
f 21 39 62
f 51 39 21
f 36 32 27
f 27 5 36
f 36 5 16
f 58 34 62
f 58 16 34
f 58 62 30
f 3 37 33
f 33 52 3
f 14 52 33
f 24 14 33
f 1 24 33
f 41 49 25
f 25 57 41
f 41 42 49
f 41 57 42
f 50 51 46
f 51 21 46
f 46 19 7
f 7 50 46
f 46 20 19
f 46 21 20
f 32 36 56
f 56 37 43
f 43 32 56
f 56 33 37
f 30 55 28
f 28 58 30
f 16 58 28
f 38 28 55
f 44 38 13
f 13 38 55
f 33 6 12
f 28 38 17
f 16 28 17
f 17 36 16
f 17 56 36
f 33 56 17
f 17 6 33
f 59 12 6
f 59 17 38
f 6 17 59
f 44 12 59
f 59 38 44
f 42 40 2
f 42 14 24
f 9 14 42
f 24 40 42
f 2 49 42
f 2 40 35
f 40 18 35
f 35 18 7
f 35 26 2
f 4 45 13
f 13 45 1
f 1 44 13
f 13 47 4
f 13 11 47
f 13 55 11
f 12 44 1
f 1 33 12
