# generated by collision_forge
v 0.035166 -0.033092 0.019047
v 0.027467 -0.043773 0.020396
v 0.033681 -0.033092 0.006774
v 0.032661 -0.040078 0.013825
v 0.027467 -0.045107 0.013825
v 0.029614 -0.041158 0.021801
v 0.034513 -0.034609 0.021801
v 0.029277 -0.043893 0.016515
v 0.027467 -0.040609 0.021801
v 0.031255 -0.040654 0.020437
v 0.034960 -0.034994 0.018003
v 0.031445 -0.041893 0.015914
v 0.027467 -0.042688 0.021801
v 0.034476 -0.034509 0.011162
v 0.035003 -0.033092 0.021136
v 0.033470 -0.037697 0.011011
v 0.030369 -0.041850 0.019725
v 0.031414 -0.040831 0.010967
v 0.027888 -0.041510 0.006845
v 0.032390 -0.037622 0.007023
v 0.033507 -0.034726 0.006928
v 0.031363 -0.041811 0.014209
v 0.033749 -0.033092 0.021801
v 0.029299 -0.043911 0.015149
v 0.029054 -0.042672 0.020296
v 0.030537 -0.042025 0.011736
v 0.032442 -0.039781 0.011736
v 0.033490 -0.035702 0.007845
v 0.032916 -0.033092 0.007560
v 0.033891 -0.033949 0.007560
v 0.034999 -0.033949 0.014868
v 0.034963 -0.034994 0.016960
v 0.033839 -0.037081 0.011736
v 0.034522 -0.036719 0.017717
v 0.031354 -0.039717 0.008023
v 0.035054 -0.033092 0.015058
v 0.027467 -0.041799 0.007560
v 0.033442 -0.037634 0.020662
v 0.033994 -0.033092 0.007560
v 0.029354 -0.042917 0.010928
v 0.028486 -0.042034 0.006845
v 0.032407 -0.039725 0.019641
v 0.027467 -0.042324 0.006859
v 0.030223 -0.040664 0.007196
v 0.028085 -0.042729 0.007284
v 0.034607 -0.033092 0.010708
v 0.033457 -0.036633 0.009001
v 0.033755 -0.038126 0.013825
v 0.032405 -0.040767 0.016546
v 0.034911 -0.033092 0.021801
v 0.033424 -0.038647 0.018523
v 0.028240 -0.043898 0.011111
v 0.034486 -0.036613 0.015221
v 0.031308 -0.041752 0.017397
v 0.033586 -0.038948 0.015914
v 0.033130 -0.033092 0.006774
v 0.033207 -0.037232 0.021801
v 0.027467 -0.044940 0.017569
v 0.027467 -0.044405 0.019053
v 0.032371 -0.038639 0.021644
v 0.027467 -0.044082 0.009803
v 0.027467 -0.045333 0.015914
f 9 23 29
f 37 9 29
f 37 29 56
f 11 32 1
f 62 8 58
f 17 8 54
f 38 42 51
f 60 42 38
f 51 42 49
f 49 42 54
f 31 36 1
f 1 32 31
f 15 11 1
f 50 11 15
f 59 58 8
f 8 17 59
f 37 56 19
f 10 17 54
f 54 42 10
f 10 42 60
f 60 38 57
f 53 31 32
f 3 21 20
f 36 31 46
f 2 59 25
f 25 59 17
f 17 10 25
f 45 61 43
f 37 19 43
f 24 8 62
f 7 57 38
f 7 11 50
f 32 11 34
f 34 53 32
f 11 7 34
f 34 38 51
f 34 7 38
f 30 21 3
f 6 13 2
f 2 25 6
f 60 57 6
f 6 10 60
f 6 25 10
f 45 43 41
f 3 20 41
f 41 43 19
f 41 56 3
f 41 19 56
f 5 24 62
f 8 24 12
f 54 8 12
f 12 49 54
f 53 34 55
f 51 49 55
f 55 34 51
f 47 16 20
f 39 30 3
f 46 30 39
f 14 30 46
f 31 53 14
f 14 46 31
f 40 26 24
f 22 12 24
f 24 26 22
f 49 12 22
f 45 41 44
f 44 41 20
f 44 40 45
f 26 40 44
f 53 55 48
f 28 20 21
f 28 47 20
f 21 30 28
f 30 14 28
f 28 14 47
f 16 47 33
f 47 14 33
f 33 14 53
f 53 48 33
f 33 48 16
f 52 5 61
f 52 61 45
f 45 40 52
f 24 5 52
f 52 40 24
f 4 55 49
f 49 22 4
f 4 48 55
f 16 48 27
f 48 4 27
f 20 16 27
f 27 4 22
f 26 44 18
f 18 22 26
f 18 27 22
f 35 44 20
f 35 18 44
f 20 27 35
f 27 18 35
f 6 50 23
f 9 13 6
f 6 23 9
f 6 7 50
f 57 7 6
f 5 59 2
f 2 13 5
f 5 9 37
f 62 58 5
f 5 13 9
f 58 59 5
f 37 43 5
f 5 43 61
f 1 36 39
f 3 56 39
f 39 29 23
f 23 50 39
f 39 15 1
f 39 56 29
f 50 15 39
f 36 46 39
