# generated by collision_forge
v -0.029625 -0.037634 0.021159
v -0.029625 -0.035206 0.021159
v -0.023542 -0.044759 0.018716
v -0.029082 -0.038460 0.021159
v -0.028137 -0.039628 0.021159
v -0.029393 -0.036760 0.022913
v -0.029625 -0.028816 0.026422
v -0.012815 -0.048651 0.018716
v -0.023542 -0.043274 0.018716
v -0.027083 -0.040676 0.021159
v -0.028099 -0.038550 0.022592
v -0.029123 -0.036421 0.023610
v -0.029625 -0.031958 0.026422
v -0.023542 -0.031260 0.029156
v -0.012815 -0.039127 0.029156
v -0.012815 -0.050030 0.018716
v -0.022936 -0.044873 0.019515
v -0.025927 -0.041646 0.021159
v -0.029625 -0.034836 0.024422
v -0.023542 -0.033854 0.029156
v -0.012815 -0.041038 0.029156
v -0.014610 -0.049081 0.019560
v -0.015375 -0.049174 0.018716
v -0.020994 -0.046020 0.019673
v -0.023129 -0.043966 0.020738
v -0.026308 -0.039841 0.022827
v -0.025129 -0.041823 0.021708
v -0.027372 -0.037792 0.023890
v -0.028358 -0.035669 0.024903
v -0.029246 -0.033426 0.025837
v -0.013045 -0.040944 0.029156
v -0.012815 -0.049876 0.019040
v -0.016879 -0.048117 0.019688
v -0.015602 -0.048018 0.020588
v -0.019928 -0.047048 0.018716
v -0.021880 -0.044880 0.020569
v -0.018969 -0.047087 0.019708
v -0.023262 -0.035775 0.028101
v -0.013060 -0.049338 0.019926
v -0.017815 -0.047029 0.020646
v -0.013817 -0.046047 0.023856
v -0.019884 -0.045980 0.020639
v -0.020785 -0.042761 0.023680
v -0.021973 -0.039721 0.025862
v -0.020800 -0.041721 0.024736
v -0.023012 -0.037634 0.026903
v -0.016718 -0.044913 0.023750
v -0.018087 -0.044043 0.023943
v -0.021728 -0.037455 0.027816
v -0.015148 -0.039910 0.029156
v -0.015928 -0.040876 0.028041
v -0.014103 -0.042942 0.026994
v -0.012815 -0.046734 0.023421
v -0.014667 -0.043887 0.025856
v -0.019979 -0.039779 0.026954
v -0.018804 -0.041781 0.025839
v -0.016734 -0.041789 0.026890
v -0.012815 -0.043725 0.026740
v -0.016797 -0.042867 0.025881
v -0.018605 -0.039571 0.027830
v -0.020129 -0.036772 0.029156
v -0.017234 -0.038728 0.029156
f 2 7 8
f 8 7 15
f 15 7 14
f 9 2 8
f 30 20 13
f 3 4 1
f 44 28 26
f 52 31 51
f 21 52 58
f 31 52 21
f 38 20 30
f 30 13 19
f 26 28 11
f 11 18 26
f 18 3 17
f 3 35 17
f 17 35 24
f 42 40 47
f 33 35 23
f 58 41 53
f 39 32 53
f 47 40 34
f 34 41 47
f 40 33 34
f 39 53 34
f 34 53 41
f 51 31 50
f 50 62 51
f 51 62 60
f 29 38 30
f 30 19 29
f 28 44 46
f 46 29 28
f 38 29 46
f 20 38 61
f 61 60 62
f 4 3 5
f 6 19 1
f 1 4 6
f 4 5 6
f 6 5 11
f 24 35 37
f 35 33 37
f 37 42 24
f 40 42 37
f 37 33 40
f 52 59 54
f 58 52 54
f 54 41 58
f 47 41 54
f 54 59 47
f 39 34 22
f 22 34 33
f 22 33 23
f 22 32 39
f 23 16 22
f 16 32 22
f 12 29 19
f 19 6 12
f 12 6 11
f 12 11 28
f 28 29 12
f 38 46 49
f 49 61 38
f 49 46 44
f 44 55 49
f 60 61 49
f 49 55 60
f 18 11 10
f 11 5 10
f 10 3 18
f 10 5 3
f 56 55 44
f 26 18 27
f 47 59 48
f 48 42 47
f 48 43 42
f 59 56 48
f 45 56 44
f 45 27 43
f 43 48 45
f 45 48 56
f 45 44 26
f 26 27 45
f 60 55 57
f 55 56 57
f 51 60 57
f 57 56 59
f 57 52 51
f 57 59 52
f 43 27 25
f 18 17 25
f 25 27 18
f 42 43 36
f 43 25 36
f 24 42 36
f 36 17 24
f 36 25 17
f 13 20 14
f 14 7 13
f 1 2 3
f 2 9 3
f 19 13 7
f 19 2 1
f 7 2 19
f 8 16 35
f 35 9 8
f 35 16 23
f 35 3 9
f 53 16 8
f 8 15 53
f 15 21 53
f 53 21 58
f 53 32 16
f 14 20 61
f 61 15 14
f 61 50 31
f 61 21 15
f 31 21 61
f 62 50 61
