# generated by collision_forge
v -0.015144 0.050407 0.006765
v -0.005344 0.050882 0.006765
v -0.019321 0.049354 0.006783
v -0.022457 0.047653 0.006812
v -0.011674 0.051206 0.006997
v -0.007837 0.051376 0.006803
v -0.005344 0.051435 0.006765
v -0.005344 0.048042 0.014538
v -0.022608 0.047343 0.007559
v -0.016997 0.050212 0.006934
v -0.013800 0.051219 0.007962
v -0.008879 0.051644 0.007559
v -0.005344 0.051775 0.007559
v -0.022608 0.045029 0.014538
v -0.005344 0.049743 0.014538
v -0.020928 0.049107 0.007016
v -0.017300 0.050341 0.007487
v -0.022608 0.048247 0.006836
v -0.013060 0.051529 0.008603
v -0.007507 0.052241 0.009078
v -0.022608 0.046947 0.014538
v -0.005344 0.051704 0.013663
v -0.006791 0.049742 0.014538
v -0.015701 0.051189 0.009096
v -0.010402 0.052215 0.010203
v -0.014099 0.051595 0.009647
v -0.008879 0.052431 0.010691
v -0.005344 0.052437 0.009647
v -0.022455 0.046999 0.014538
v -0.022124 0.049171 0.008820
v -0.019094 0.050229 0.008795
v -0.022608 0.048853 0.008535
v -0.010787 0.052268 0.010899
v -0.015144 0.051518 0.010691
v -0.006791 0.052651 0.011736
v -0.019943 0.050169 0.009944
v -0.016725 0.051185 0.011180
v -0.011478 0.052215 0.011738
v -0.015144 0.051565 0.011736
v -0.010785 0.052275 0.012363
v -0.009924 0.052331 0.012487
v -0.022608 0.048552 0.013571
v -0.018278 0.050238 0.013404
v -0.022021 0.049125 0.013337
v -0.005344 0.052350 0.013114
v -0.006289 0.052227 0.013304
v -0.012012 0.049401 0.014538
v -0.020066 0.050211 0.010691
v -0.016724 0.051184 0.012267
v -0.005344 0.052701 0.011736
v -0.016190 0.051251 0.012443
v -0.014652 0.051185 0.013307
v -0.020041 0.050204 0.012430
v -0.022608 0.049068 0.012933
v -0.022608 0.049264 0.010690
v -0.019324 0.050484 0.011739
v -0.012012 0.051383 0.013478
v -0.016190 0.050497 0.013566
v -0.018341 0.048241 0.014538
v -0.022608 0.049312 0.011893
v -0.022608 0.049193 0.012608
v -0.014109 0.049098 0.014538
f 9 2 8
f 9 8 14
f 4 2 9
f 22 23 15
f 20 13 12
f 12 5 20
f 2 4 1
f 4 3 1
f 1 3 10
f 10 5 1
f 2 1 7
f 47 23 22
f 13 20 28
f 6 1 5
f 6 7 1
f 6 5 12
f 13 7 6
f 12 13 6
f 45 46 22
f 22 46 57
f 57 47 22
f 57 46 52
f 53 44 43
f 53 61 54
f 54 44 53
f 10 3 16
f 27 28 20
f 46 45 41
f 52 46 41
f 47 57 62
f 59 43 29
f 44 54 42
f 21 29 42
f 42 43 44
f 42 29 43
f 60 61 53
f 32 55 30
f 30 16 32
f 18 3 4
f 18 16 3
f 18 32 16
f 18 4 9
f 19 20 5
f 39 37 49
f 31 16 30
f 35 45 50
f 35 41 45
f 50 28 35
f 28 27 35
f 51 43 52
f 53 43 51
f 51 49 53
f 59 62 58
f 52 43 58
f 58 43 59
f 58 57 52
f 58 62 57
f 25 27 20
f 20 19 25
f 11 5 10
f 11 19 5
f 37 39 34
f 34 39 38
f 55 60 48
f 40 35 38
f 41 35 40
f 38 39 40
f 52 41 40
f 40 51 52
f 40 39 49
f 49 51 40
f 27 25 33
f 38 35 33
f 33 35 27
f 33 34 38
f 17 11 10
f 10 16 17
f 16 31 17
f 37 34 24
f 24 17 31
f 19 11 24
f 11 17 24
f 36 48 37
f 37 24 36
f 36 24 31
f 36 31 30
f 30 55 36
f 55 48 36
f 49 37 56
f 37 48 56
f 53 49 56
f 56 60 53
f 56 48 60
f 34 33 26
f 26 24 34
f 26 33 25
f 26 25 19
f 19 24 26
f 45 15 8
f 45 8 2
f 45 28 50
f 2 7 45
f 22 15 45
f 45 7 13
f 13 28 45
f 21 14 29
f 29 14 8
f 8 15 29
f 29 15 23
f 23 47 29
f 47 62 29
f 29 62 59
f 18 14 21
f 9 14 18
f 61 60 18
f 18 54 61
f 21 42 18
f 18 42 54
f 18 60 55
f 55 32 18
