# generated by collision_forge
v -0.012814 -0.039126 0.029157
v -0.012814 -0.048652 0.018714
v -0.012814 -0.041044 0.029157
v 0.001757 -0.042166 0.029157
v 0.001757 -0.042169 0.029153
v 0.001757 -0.050576 0.018714
v -0.012814 -0.050028 0.018714
v -0.012814 -0.041528 0.028753
v 0.001757 -0.043831 0.029157
v 0.001757 -0.051882 0.018714
v -0.012814 -0.050002 0.018786
v -0.010835 -0.041843 0.029157
v -0.012814 -0.042530 0.027871
v 0.001757 -0.051743 0.019049
v 0.001114 -0.051880 0.018714
v -0.011673 -0.043936 0.026945
v 0.001757 -0.044469 0.028501
v 0.000756 -0.043819 0.029157
v 0.001566 -0.051382 0.019836
v -0.012814 -0.049356 0.019981
v -0.008378 -0.042833 0.028977
v 0.000521 -0.049211 0.022865
v -0.010613 -0.050174 0.019635
v -0.009923 -0.049892 0.020274
v -0.012814 -0.044763 0.025676
v -0.011546 -0.045976 0.024812
v -0.010967 -0.045078 0.026007
v -0.008422 -0.044935 0.026899
v -0.000523 -0.049200 0.022852
v -0.000523 -0.051362 0.019822
v -0.001567 -0.051335 0.019796
v -0.001567 -0.051811 0.018714
v -0.007533 -0.051219 0.018714
v -0.008878 -0.050358 0.019893
v -0.009679 -0.048114 0.022791
v -0.012011 -0.047285 0.023061
v -0.008348 -0.045955 0.025834
v -0.002611 -0.049150 0.022784
v -0.002611 -0.051301 0.019747
v -0.005157 -0.051167 0.019556
v -0.006789 -0.049285 0.021941
v -0.007834 -0.048310 0.023050
v -0.012814 -0.046736 0.023422
v -0.007362 -0.047012 0.024803
v -0.005907 -0.043190 0.029157
v -0.002248 -0.043884 0.028983
v -0.002022 -0.044911 0.027920
v 0.000083 -0.045956 0.026878
v 0.001757 -0.048295 0.024065
v 0.000521 -0.047884 0.024586
v -0.002611 -0.047829 0.024513
v -0.004192 -0.049093 0.022707
v -0.004460 -0.051212 0.019619
v -0.005554 -0.048098 0.023814
v -0.002611 -0.046348 0.026285
v -0.001567 -0.047331 0.025193
v 0.001757 -0.047885 0.024587
v -0.005743 -0.051454 0.018714
v -0.004701 -0.045268 0.027259
v -0.005743 -0.044169 0.028225
v -0.003657 -0.046833 0.025634
v -0.004701 -0.046775 0.025566
f 6 2 1
f 1 4 5
f 5 6 1
f 45 12 21
f 21 12 16
f 25 27 16
f 28 45 21
f 28 27 37
f 21 16 28
f 28 16 27
f 26 27 25
f 37 27 26
f 25 16 13
f 13 16 12
f 49 19 14
f 22 19 49
f 17 48 57
f 53 58 32
f 45 46 18
f 17 9 18
f 37 62 59
f 43 26 25
f 36 26 43
f 43 20 36
f 23 20 11
f 7 33 11
f 11 33 23
f 12 3 8
f 8 13 12
f 55 59 61
f 61 59 62
f 62 54 61
f 61 54 51
f 56 48 55
f 55 61 56
f 56 61 51
f 38 51 52
f 51 54 52
f 41 52 54
f 44 62 37
f 44 54 62
f 10 14 15
f 40 33 58
f 40 58 53
f 53 52 40
f 52 41 40
f 47 48 17
f 17 18 47
f 47 18 46
f 55 48 47
f 47 59 55
f 46 59 47
f 60 46 45
f 60 59 46
f 45 28 60
f 60 28 37
f 37 59 60
f 50 57 48
f 48 56 50
f 49 57 50
f 50 22 49
f 50 56 51
f 36 20 35
f 35 44 37
f 37 26 35
f 35 26 36
f 53 32 39
f 32 31 39
f 39 52 53
f 38 52 39
f 39 31 38
f 32 15 30
f 30 31 32
f 30 15 14
f 30 14 19
f 19 22 30
f 34 40 41
f 23 33 34
f 33 40 34
f 22 50 29
f 29 50 51
f 29 51 38
f 29 30 22
f 38 31 29
f 31 30 29
f 42 34 41
f 42 41 54
f 54 44 42
f 44 35 42
f 24 42 35
f 34 42 24
f 23 34 24
f 24 20 23
f 24 35 20
f 10 6 57
f 57 5 4
f 4 9 57
f 6 5 57
f 57 9 17
f 57 14 10
f 49 14 57
f 18 9 4
f 18 4 1
f 1 3 18
f 18 3 12
f 12 45 18
f 2 7 8
f 1 2 8
f 8 3 1
f 25 13 8
f 8 43 25
f 7 11 8
f 20 43 8
f 8 11 20
f 15 6 10
f 2 6 15
f 15 7 2
f 15 33 7
f 15 32 58
f 58 33 15
