####
#
# OBJ File Generated by Meshlab
#
####
# Object link_1_chull_1.obj
#
# Vertices: 112
# Faces: 220
#
####
vn 0.262869 -0.113672 -0.958112
v -0.063087 0.002252 0.011366
vn 0.305976 -0.195163 -0.931821
v -0.062376 0.003607 0.011366
vn 0.305976 -0.195163 0.931821
v -0.062376 0.003607 -0.011366
vn 0.262869 -0.113672 0.958112
v -0.063087 0.002252 -0.011366
vn 0.259336 -0.313819 0.913380
v -0.061361 0.004753 -0.011366
vn 0.259336 -0.313819 -0.913380
v -0.061361 0.004753 0.011366
vn -0.073538 -0.996165 0.047417
v -0.056253 0.011395 -0.009017
vn -0.063561 -0.991733 -0.111466
v -0.056253 0.011395 0.009017
vn -0.084128 -0.995357 -0.046774
v -0.010224 0.007493 0.015240
vn -0.081602 -0.994144 0.070848
v -0.010224 0.007493 -0.015240
vn 0.020424 -0.693219 0.720438
v -0.037910 0.007493 -0.015240
vn -0.000029 -0.014503 0.999895
v 0.000000 0.006350 -0.015367
vn 0.055059 -0.103732 0.993080
v -0.044890 0.006350 -0.015367
vn -0.719978 0.483783 -0.497580
v 0.022887 -0.016025 0.009017
vn -0.711235 -0.675635 -0.194068
v 0.024937 -0.012602 0.009017
vn -0.788027 -0.537617 0.299969
v 0.024937 -0.012602 -0.009017
vn -0.700790 0.511190 0.497573
v 0.022887 -0.016025 -0.009017
vn 0.852987 -0.505103 0.131472
v -0.067049 0.005715 -0.009017
vn 0.834772 -0.494317 -0.242501
v -0.067049 0.005715 0.009017
vn 0.738106 -0.640062 -0.213355
v -0.065523 0.007781 0.009017
vn 0.693077 -0.688554 0.213394
v -0.065523 0.007781 -0.009017
vn 0.839217 -0.474018 0.266501
v -0.078843 -0.014713 -0.009017
vn 0.861378 -0.486648 -0.145604
v -0.078843 -0.014713 0.009017
vn -0.000029 -0.014340 -0.999897
v 0.000000 0.006350 0.015367
vn 0.054755 -0.103159 -0.993157
v -0.044890 0.006350 0.015367
vn 0.020424 -0.693219 -0.720438
v -0.037910 0.007493 0.015240
vn 0.781195 0.099317 -0.616336
v -0.080123 -0.021075 0.009017
vn 0.753839 -0.046056 0.655443
v -0.080162 -0.018878 -0.009017
vn 0.587236 0.074658 0.805965
v -0.080123 -0.021075 -0.009017
vn 0.749883 -0.090080 -0.655409
v -0.080162 -0.018878 0.009017
vn 0.643927 0.209158 0.735942
v -0.079611 -0.023212 -0.009017
vn 0.630552 0.246544 -0.735949
v -0.079611 -0.023212 0.009017
vn 0.002047 0.375784 0.926705
v -0.057518 -0.033780 -0.009017
vn 0.001210 0.303973 -0.952680
v -0.057518 -0.033780 0.009017
vn 0.102234 0.819165 -0.564373
v -0.061335 -0.033522 0.009017
vn 0.079701 0.638617 0.765386
v -0.061335 -0.033522 -0.009017
vn -0.074388 0.750270 0.656933
v -0.053697 -0.033605 -0.009017
vn -0.088217 0.889750 -0.447843
v -0.053697 -0.033605 0.009017
vn -0.095744 0.890605 0.444585
v 0.002856 -0.027794 -0.009017
vn -0.080918 0.752676 -0.653399
v 0.002856 -0.027794 0.009017
vn -0.218998 0.874747 -0.432270
v 0.006786 -0.027103 0.009017
vn -0.186518 0.745012 0.640444
v 0.006786 -0.027103 -0.009017
vn -0.662837 0.622070 -0.416745
v 0.020371 -0.019122 0.009017
vn -0.570642 0.535548 0.622540
v 0.020371 -0.019122 -0.009017
vn -0.109356 -0.994003 0.000448
v -0.000000 0.006375 -0.009017
vn -0.110505 -0.993875 -0.000847
v 0.000000 0.006375 0.009017
vn 0.546122 -0.189492 0.815992
v -0.079729 -0.016723 -0.009017
vn 0.419071 -0.150865 -0.895332
v -0.079729 -0.016723 0.009017
vn -0.641743 -0.766919 0.000760
v 0.004098 0.004884 -0.009017
vn -0.642112 -0.766609 -0.001328
v 0.004098 0.004884 0.009017
vn -0.613041 -0.785182 -0.087578
v 0.003847 0.005052 0.015367
vn -0.619820 -0.778936 0.095301
v 0.003847 0.005052 -0.015367
vn 0.330181 0.202825 0.921869
v -0.078652 -0.025189 -0.009017
vn 0.321125 0.217240 -0.921784
v -0.078652 -0.025189 0.009017
vn -0.554554 0.667188 0.497324
v 0.017440 -0.021829 -0.009017
vn -0.528317 0.688145 -0.497331
v 0.017440 -0.021829 0.009017
vn 0.503747 -0.736583 -0.451314
v -0.063575 0.009453 0.009017
vn 0.439235 -0.639724 0.630735
v -0.063575 0.009453 -0.009017
vn 0.353637 -0.906981 0.228747
v -0.061302 0.010649 -0.009017
vn 0.336261 -0.862417 -0.378373
v -0.061302 0.010649 0.009017
vn 0.138767 -0.942742 -0.303283
v -0.058820 0.011307 0.009017
vn 0.130515 -0.888493 0.439939
v -0.058820 0.011307 -0.009017
vn 0.191019 0.789164 0.583722
v -0.065098 -0.032834 -0.009017
vn 0.146922 0.606982 -0.781016
v -0.065098 -0.032834 0.009017
vn 0.274252 0.749413 -0.602633
v -0.068759 -0.031725 0.009017
vn 0.208160 0.568810 0.795691
v -0.068759 -0.031725 -0.009017
vn 0.350921 0.701020 0.620826
v -0.072271 -0.030209 -0.009017
vn 0.262958 0.525300 -0.809267
v -0.072271 -0.030209 0.009017
vn 0.422320 0.643286 -0.638615
v -0.075589 -0.028306 0.009017
vn 0.312502 0.476009 0.822045
v -0.075589 -0.028306 -0.009017
vn 0.534232 0.524977 0.662567
v -0.077290 -0.026914 -0.009017
vn 0.388651 0.381918 -0.838504
v -0.077290 -0.026914 0.009017
vn -0.450378 0.733631 0.508867
v 0.014153 -0.024090 -0.009017
vn -0.421877 0.750398 -0.508845
v 0.014153 -0.024090 0.009017
vn -0.209550 -0.977798 0.000730
v 0.001470 0.006204 -0.009017
vn -0.266081 -0.963950 -0.000730
v 0.001470 0.006204 0.009017
vn -0.028788 0.020222 -0.999381
v 0.006490 -0.006032 0.015367
vn 0.119661 -0.011521 -0.992748
v -0.049336 0.000000 0.015367
vn -0.124778 -0.942512 -0.310004
v 0.001367 0.006201 0.015367
vn 0.033423 0.170739 -0.984749
v -0.044890 -0.006350 0.015367
vn -0.013661 0.253123 -0.967338
v 0.005855 -0.006350 0.015367
vn -0.287423 -0.671867 -0.682629
v 0.002669 0.005762 0.015367
vn -0.072169 0.288964 -0.954616
v 0.006037 -0.006329 0.015367
vn -0.137330 0.277146 -0.950963
v 0.006210 -0.006266 0.015367
vn -0.333138 -0.024370 -0.942563
v 0.006341 0.000332 0.015367
vn -0.330588 -0.016173 -0.943637
v 0.006648 -0.005515 0.015367
vn -0.414094 -0.350937 -0.839863
v 0.004844 0.004106 0.015367
vn -0.382327 -0.201999 -0.901678
v 0.005614 0.002967 0.015367
vn -0.196617 0.245601 -0.949222
v 0.006364 -0.006166 0.015367
vn -0.354924 -0.097924 -0.929752
v 0.006121 0.001689 0.015367
vn -0.307212 0.055623 -0.950014
v 0.006636 -0.005698 0.015367
vn -0.283267 0.123823 -0.951014
v 0.006583 -0.005874 0.015367
vn -0.341732 0.835881 0.429560
v 0.010577 -0.025861 -0.009017
vn -0.291781 0.713901 -0.636560
v 0.010577 -0.025861 0.009017
vn -0.001572 0.000687 0.999999
v 0.006583 -0.005874 -0.015367
vn 0.119580 -0.011513 0.992758
v -0.049336 -0.000000 -0.015367
vn 0.033315 0.170189 0.984848
v -0.044890 -0.006350 -0.015367
vn -0.308124 0.055788 0.949709
v 0.006636 -0.005698 -0.015367
vn -0.332231 -0.016253 0.943058
v 0.006648 -0.005515 -0.015367
vn -0.124967 -0.943942 0.305544
v 0.001367 0.006201 -0.015367
vn -0.196592 0.245569 0.949235
v 0.006364 -0.006166 -0.015367
vn -0.137277 0.277038 0.951002
v 0.006210 -0.006266 -0.015367
vn -0.013623 0.252419 0.967522
v 0.005855 -0.006350 -0.015367
vn -0.072151 0.288889 0.954640
v 0.006037 -0.006329 -0.015367
vn -0.290107 -0.678143 0.675248
v 0.002669 0.005762 -0.015367
vn -0.419291 -0.355341 0.835421
v 0.004844 0.004106 -0.015367
vn -0.386021 -0.203951 0.899662
v 0.005614 0.002967 -0.015367
vn -0.257314 0.180747 0.949273
v 0.006490 -0.006032 -0.015367
vn -0.357460 -0.098624 0.928706
v 0.006121 0.001689 -0.015367
vn -0.334868 -0.024497 0.941946
v 0.006341 0.000332 -0.015367
vn -0.448370 -0.893848 0.000520
v 0.002861 0.005697 -0.009017
vn -0.433928 -0.900947 -0.001015
v 0.002861 0.005697 0.009017
# 112 vertices, 0 vertices normals

f 78//78 2//2 25//25
f 8//8 9//9 26//26
f 12//12 100//100 10//10
f 6//6 25//25 2//2
f 20//20 6//6 2//2
f 48//48 78//78 30//30
f 19//19 2//2 23//23
f 19//19 20//20 2//2
f 80//80 34//34 35//35
f 17//17 108//108 44//44
f 108//108 17//17 16//16
f 11//11 10//10 7//7
f 56//56 74//74 89//89
f 1//1 23//23 2//2
f 1//1 48//48 23//23
f 1//1 2//2 78//78
f 48//48 1//1 78//78
f 29//29 96//96 28//28
f 15//15 51//51 50//50
f 78//78 27//27 30//30
f 27//27 78//78 32//32
f 78//78 80//80 54//54
f 54//54 32//32 78//78
f 31//31 96//96 29//29
f 33//33 97//97 36//36
f 33//33 103//103 97//97
f 37//37 103//103 33//33
f 81//81 34//34 80//80
f 34//34 81//81 38//38
f 81//81 40//40 38//38
f 39//39 103//103 37//37
f 39//39 104//104 103//103
f 39//39 42//42 104//104
f 59//59 58//58 13//13
f 58//58 5//5 13//13
f 21//21 5//5 58//58
f 62//62 59//59 13//13
f 62//62 13//13 11//11
f 62//62 11//11 7//7
f 43//43 56//56 89//89
f 64//64 80//80 35//35
f 64//64 65//65 80//80
f 80//80 68//68 69//69
f 65//65 68//68 80//80
f 45//45 10//10 100//100
f 47//47 28//28 96//96
f 47//47 96//96 4//4
f 4//4 22//22 47//47
f 3//3 4//4 96//96
f 3//3 18//18 22//22
f 3//3 22//22 4//4
f 3//3 21//21 18//18
f 3//3 5//5 21//21
f 3//3 96//96 13//13
f 13//13 5//5 3//3
f 79//79 24//24 9//9
f 46//46 79//79 9//9
f 87//87 51//51 15//15
f 49//49 52//52 16//16
f 72//72 80//80 69//69
f 72//72 54//54 80//80
f 97//97 96//96 53//53
f 53//53 96//96 31//31
f 106//106 16//16 52//52
f 57//57 60//60 25//25
f 25//25 6//6 57//57
f 57//57 6//6 20//20
f 61//61 25//25 60//60
f 61//61 26//26 25//25
f 26//26 61//61 8//8
f 89//89 74//74 84//84
f 84//84 74//74 94//94
f 36//36 97//97 63//63
f 97//97 66//66 63//63
f 67//67 97//97 70//70
f 67//67 66//66 97//97
f 82//82 112//112 51//51
f 76//76 79//79 46//46
f 76//76 82//82 79//79
f 112//112 82//82 76//76
f 90//90 88//88 15//15
f 88//88 87//87 15//15
f 85//85 90//90 15//15
f 86//86 85//85 15//15
f 71//71 70//70 97//97
f 97//97 53//53 71//71
f 101//101 55//55 44//44
f 101//101 44//44 108//108
f 73//73 101//101 102//102
f 73//73 55//55 101//101
f 107//107 109//109 16//16
f 107//107 16//16 106//106
f 98//98 16//16 99//99
f 110//110 16//16 109//109
f 110//110 99//99 16//16
f 41//41 40//40 83//83
f 81//81 83//83 40//40
f 83//83 94//94 41//41
f 83//83 84//84 94//94
f 75//75 45//45 100//100
f 100//100 105//105 75//75
f 91//91 86//86 15//15
f 92//92 91//91 15//15
f 15//15 14//14 77//77
f 77//77 92//92 15//15
f 14//14 43//43 77//77
f 77//77 43//43 89//89
f 93//93 73//73 102//102
f 93//93 102//102 104//104
f 104//104 42//42 93//93
f 95//95 108//108 16//16
f 95//95 16//16 98//98
f 111//111 75//75 105//105
f 111//111 105//105 52//52
f 7//7 9//9 8//8
f 7//7 10//10 9//9
f 11//11 13//13 12//12
f 11//11 12//12 10//10
f 14//14 15//15 16//16
f 14//14 16//16 17//17
f 19//19 18//18 20//20
f 20//20 18//18 21//21
f 18//18 23//23 22//22
f 18//18 19//19 23//23
f 25//25 26//26 24//24
f 24//24 26//26 9//9
f 29//29 28//28 27//27
f 27//27 28//28 30//30
f 27//27 31//31 29//29
f 31//31 27//27 32//32
f 33//33 35//35 34//34
f 33//33 36//36 35//35
f 33//33 38//38 37//37
f 33//33 34//34 38//38
f 39//39 37//37 38//38
f 40//40 39//39 38//38
f 39//39 40//40 41//41
f 39//39 41//41 42//42
f 43//43 14//14 17//17
f 43//43 17//17 44//44
f 45//45 9//9 10//10
f 45//45 46//46 9//9
f 47//47 22//22 23//23
f 23//23 48//48 47//47
f 47//47 30//30 28//28
f 47//47 48//48 30//30
f 16//16 15//15 49//49
f 15//15 50//50 49//49
f 49//49 51//51 52//52
f 49//49 50//50 51//51
f 53//53 31//31 32//32
f 54//54 53//53 32//32
f 55//55 43//43 44//44
f 43//43 55//55 56//56
f 57//57 20//20 21//21
f 21//21 58//58 57//57
f 57//57 58//58 59//59
f 59//59 60//60 57//57
f 61//61 7//7 8//8
f 61//61 62//62 7//7
f 61//61 60//60 59//59
f 62//62 61//61 59//59
f 63//63 35//35 36//36
f 63//63 64//64 35//35
f 64//64 63//63 65//65
f 63//63 66//66 65//65
f 68//68 67//67 69//69
f 67//67 70//70 69//69
f 67//67 65//65 66//66
f 67//67 68//68 65//65
f 69//69 70//70 71//71
f 71//71 72//72 69//69
f 71//71 53//53 54//54
f 72//72 71//71 54//54
f 55//55 73//73 56//56
f 73//73 74//74 56//56
f 45//45 75//75 46//46
f 75//75 76//76 46//46
f 77//77 78//78 25//25
f 24//24 79//79 77//77
f 25//25 24//24 77//77
f 77//77 80//80 78//78
f 77//77 81//81 80//80
f 79//79 82//82 77//77
f 84//84 83//83 77//77
f 77//77 85//85 86//86
f 51//51 87//87 77//77
f 87//87 88//88 77//77
f 89//89 84//84 77//77
f 77//77 82//82 51//51
f 77//77 88//88 90//90
f 77//77 91//91 92//92
f 90//90 85//85 77//77
f 77//77 83//83 81//81
f 86//86 91//91 77//77
f 93//93 42//42 41//41
f 41//41 94//94 93//93
f 73//73 93//93 74//74
f 93//93 94//94 74//74
f 95//95 96//96 97//97
f 95//95 98//98 99//99
f 96//96 95//95 13//13
f 12//12 95//95 100//100
f 95//95 12//12 13//13
f 95//95 102//102 101//101
f 95//95 103//103 104//104
f 95//95 97//97 103//103
f 95//95 104//104 102//102
f 95//95 52//52 105//105
f 95//95 105//105 100//100
f 95//95 106//106 52//52
f 95//95 107//107 106//106
f 95//95 101//101 108//108
f 107//107 95//95 109//109
f 95//95 99//99 110//110
f 95//95 110//110 109//109
f 75//75 111//111 76//76
f 112//112 76//76 111//111
f 52//52 51//51 111//111
f 51//51 112//112 111//111
# 220 faces, 0 coords texture

# End of File