####
#
# OBJ File Generated by Meshlab
#
####
# Object link_3_chull.obj
#
# Vertices: 153
# Faces: 302
#
####
vn -0.430785 0.792683 0.431368
v -0.003007 0.005593 0.011366
vn 0.400733 -0.684281 0.609239
v 0.035704 0.001691 0.012877
vn -0.430785 0.792683 -0.431368
v -0.003007 0.005593 -0.011366
vn 0.294201 -0.376649 -0.878397
v 0.018423 -0.006258 -0.015305
vn 0.487413 -0.691067 0.533718
v 0.035881 0.001772 0.012841
vn 0.389095 -0.003370 0.921191
v 0.036046 0.006350 0.012794
vn 0.478671 -0.877874 0.014527
v 0.037436 0.002487 0.009645
vn 0.294201 -0.376649 0.878397
v 0.018423 -0.006258 0.015305
vn -0.317178 0.914752 -0.250255
v -0.002051 0.006010 -0.011366
vn -0.167253 0.976304 -0.137317
v -0.001039 0.006264 -0.011366
vn 0.402861 -0.683604 -0.608596
v 0.035704 0.001691 -0.012877
vn 0.478602 -0.877989 0.008633
v 0.037795 0.002652 0.007505
vn -0.167253 0.976304 0.137317
v -0.001039 0.006264 0.011366
vn -0.317178 0.914752 0.250255
v -0.002051 0.006010 0.011366
vn 0.475660 -0.878029 0.053028
v 0.036623 0.002113 0.012381
vn 0.623766 -0.002515 0.781607
v 0.036359 0.006350 0.012627
vn 0.547127 -0.763393 0.343342
v 0.036273 0.001953 0.012676
vn 0.977317 -0.000061 0.211782
v 0.037458 0.006350 0.009655
vn 0.982359 -0.004948 0.186939
v 0.037459 0.006350 0.009649
vn 0.677205 -0.731849 0.076095
v 0.037231 0.002393 0.010700
vn 0.997472 -0.000008 0.071066
v 0.038028 0.006350 0.005348
vn 0.999388 -0.001250 0.034961
v 0.038029 0.006350 0.005346
vn 0.602700 -0.797733 0.019379
v 0.038003 0.002748 0.005703
vn 0.532581 -0.002999 -0.846374
v 0.036359 0.006350 -0.012627
vn 0.533209 -0.739279 -0.411284
v 0.036118 0.001881 -0.012757
vn 0.474456 -0.877882 -0.064923
v 0.036618 0.002111 -0.012375
vn 0.992716 0.000000 -0.120481
v 0.037815 0.006350 -0.007507
vn 0.989081 -0.005340 -0.147278
v 0.037795 0.002652 -0.007504
vn 0.568379 -0.822545 -0.019076
v 0.037901 0.002701 -0.006795
vn 0.988698 -0.004081 -0.149867
v 0.037814 0.006350 -0.007511
vn 0.998773 0.000000 -0.049517
v 0.038029 0.006350 -0.005346
vn 0.602692 -0.797898 -0.010997
v 0.038082 0.002784 -0.004272
vn 0.997200 -0.005250 -0.074592
v 0.038028 0.006350 -0.005348
vn 0.989896 -0.000027 0.141798
v 0.037814 0.006350 0.007511
vn 0.699403 -0.712209 0.059954
v 0.037713 0.002615 0.008216
vn 0.993705 -0.004053 0.111958
v 0.037815 0.006350 0.007507
vn 0.632019 -0.701293 0.329759
v 0.036592 0.002099 0.012422
vn 0.737024 -0.002808 -0.675860
v 0.036625 0.006350 -0.012392
vn 0.595052 -0.743254 -0.305755
v 0.036471 0.002043 -0.012536
vn 0.883475 -0.002346 -0.468472
v 0.036830 0.006350 -0.012101
vn 0.621286 -0.760638 -0.188238
v 0.036739 0.002167 -0.012244
vn 0.617107 -0.778579 -0.113996
v 0.036916 0.002248 -0.011909
vn 0.981621 0.000000 -0.190841
v 0.037459 0.006350 -0.009649
vn 0.583509 -0.811184 -0.038696
v 0.037527 0.002529 -0.009298
vn 0.578185 -0.806699 0.122222
v 0.036823 0.002205 0.012109
vn -0.420645 0.907225 0.000987
v -0.002694 0.005778 0.009017
vn -0.516711 0.848100 -0.117203
v -0.017737 -0.001236 -0.009017
vn -0.516266 0.831597 0.204736
v -0.017737 -0.001236 0.009017
vn -0.416229 0.909258 -0.001729
v -0.002694 0.005778 -0.009017
vn -0.123747 0.992314 -0.000575
v -0.000924 0.006308 -0.009017
vn -0.055598 0.989371 0.134365
v 0.012700 0.007938 0.015367
vn -0.048218 0.982322 -0.180884
v 0.012700 0.007938 -0.015367
vn -0.125577 0.992083 0.001417
v -0.000924 0.006308 0.009017
vn -0.641945 -0.535354 0.548911
v -0.013812 -0.011196 0.009017
vn -0.656166 -0.517821 -0.548915
v -0.013812 -0.011196 -0.009017
vn -0.624980 -0.605221 -0.493059
v -0.012601 -0.012544 -0.009017
vn -0.608078 -0.622201 0.493059
v -0.012601 -0.012544 0.009017
vn 0.133306 -0.000431 -0.991075
v 0.018474 0.006350 -0.015305
vn 0.001996 0.162757 -0.986664
v 0.017590 0.007938 -0.015367
vn 0.131283 0.256434 -0.957604
v 0.018474 0.007938 -0.015305
vn 0.008420 -0.000029 -0.999965
v 0.017590 0.006350 -0.015367
vn 0.139444 0.112767 -0.983788
v 0.035702 0.007938 -0.012884
vn 0.140311 -0.000751 -0.990107
v 0.035702 0.006350 -0.012884
vn -0.585212 -0.715216 -0.382091
v -0.011259 -0.013761 -0.009017
vn -0.514095 -0.628301 0.583905
v -0.011259 -0.013761 0.009017
vn -0.449586 -0.678673 -0.580754
v -0.009801 -0.014835 -0.009017
vn -0.509733 -0.770343 0.383072
v -0.009801 -0.014835 0.009017
vn -0.437853 -0.837154 -0.327807
v -0.008240 -0.015755 -0.009017
vn -0.396784 -0.758631 0.516760
v -0.008240 -0.015755 0.009017
vn -0.351156 -0.878663 0.323482
v -0.006594 -0.016512 0.009017
vn -0.320030 -0.800385 -0.506917
v -0.006594 -0.016512 -0.009017
vn -0.264168 -0.925506 -0.271393
v -0.004880 -0.017097 -0.009017
vn -0.246420 -0.863326 0.440392
v -0.004880 -0.017097 0.009017
vn -0.168807 -0.950029 0.262581
v -0.003115 -0.017505 0.009017
vn -0.158281 -0.891740 -0.423966
v -0.003115 -0.017505 -0.009017
vn 0.139547 -0.000694 0.990215
v 0.035702 0.006350 0.012884
vn 0.010088 0.997690 0.067184
v 0.035702 0.007938 0.012884
vn 0.016923 0.992393 0.121943
v 0.018474 0.007938 0.015305
vn 0.132711 -0.000475 0.991155
v 0.018474 0.006350 0.015305
vn -0.861797 -0.149287 0.484787
v -0.017519 -0.003035 0.009017
vn -0.709308 -0.122872 -0.694107
v -0.017519 -0.003035 -0.009017
vn -0.837700 -0.234960 -0.493003
v -0.017119 -0.004802 -0.009017
vn -0.685705 -0.192328 0.702010
v -0.017119 -0.004802 0.009017
vn 0.319402 -0.940740 -0.113973
v 0.000694 -0.017475 -0.009017
vn 0.315251 -0.929375 0.192036
v 0.000694 -0.017475 0.009017
vn 0.122921 -0.974904 0.185612
v -0.000299 -0.017704 0.009017
vn 0.118172 -0.944449 -0.306678
v -0.000299 -0.017704 -0.009017
vn 0.471867 -0.880293 0.049248
v 0.001621 -0.017052 0.009017
vn 0.471325 -0.879969 -0.059222
v 0.001621 -0.017052 -0.009017
vn 0.505089 -0.863067 -0.000139
v 0.038100 0.002793 -0.003175
vn 0.628869 -0.777507 0.002435
v 0.038100 0.002793 0.003175
vn 0.989577 0.143898 -0.005569
v 0.038100 0.007938 -0.003175
vn 0.960538 0.277978 0.009772
v 0.038100 0.007938 0.003175
vn 0.400383 0.034126 -0.915712
v 0.036046 0.007938 -0.012794
vn 0.271556 -0.002114 -0.962420
v 0.036046 0.006350 -0.012794
vn -0.068949 -0.974179 -0.214990
v -0.001318 -0.017731 -0.009017
vn -0.065931 -0.931536 0.357622
v -0.001318 -0.017731 0.009017
vn -0.020066 -0.070330 -0.997322
v 0.011081 -0.009214 -0.015367
vn 0.142521 -0.280905 -0.949094
v 0.017539 -0.006664 -0.015367
vn -0.221708 0.054222 -0.973604
v 0.004717 0.006350 -0.015367
vn -0.231724 -0.087079 -0.968876
v 0.010023 -0.008230 -0.015367
vn 0.373907 -0.812975 -0.446391
v 0.012700 -0.008890 -0.015367
vn 0.156617 -0.722159 -0.673764
v 0.011823 -0.009245 -0.015367
vn -0.036411 -0.563357 -0.825411
v 0.011450 -0.009274 -0.015367
vn -0.220356 -0.242170 -0.944879
v 0.010434 -0.008849 -0.015367
vn -0.234938 -0.154009 -0.959732
v 0.010192 -0.008564 -0.015367
vn 0.351827 -0.816006 -0.458642
v 0.012178 -0.009130 -0.015367
vn -0.184405 -0.348006 -0.919177
v 0.010735 -0.009070 -0.015367
vn 0.001058 0.857999 0.513651
v 0.017590 0.007938 0.015367
vn 0.007509 -0.000026 0.999972
v 0.017590 0.006350 0.015367
vn -0.445259 -0.170192 0.879079
v -0.016542 -0.006519 0.009017
vn -0.348763 -0.131873 -0.927887
v -0.016542 -0.006519 -0.009017
vn -0.766186 -0.396124 -0.506009
v -0.015793 -0.008168 -0.009017
vn -0.625287 -0.323190 0.710327
v -0.015793 -0.008168 0.009017
vn -0.745603 -0.487693 0.454127
v -0.014880 -0.009733 0.009017
vn -0.626169 -0.409572 -0.663448
v -0.014880 -0.009733 -0.009017
vn -0.055061 -0.036094 0.997830
v 0.010192 -0.008564 0.015367
vn -0.226608 0.055420 0.972408
v 0.004717 0.006350 0.015367
vn -0.036072 -0.558119 0.828977
v 0.011450 -0.009274 0.015367
vn -0.127947 -0.448450 0.884603
v 0.011081 -0.009214 0.015367
vn 0.341429 -0.791888 0.506300
v 0.012178 -0.009130 0.015367
vn 0.152472 -0.703046 0.694606
v 0.011823 -0.009245 0.015367
vn 0.350290 -0.761626 0.545181
v 0.012700 -0.008890 0.015367
vn 0.127236 -0.250780 0.959646
v 0.017539 -0.006664 0.015367
vn -0.184173 -0.347569 0.919389
v 0.010735 -0.009070 0.015367
vn -0.236618 -0.088917 0.967526
v 0.010023 -0.008230 0.015367
vn -0.220524 -0.242355 0.944793
v 0.010434 -0.008849 0.015367
vn -0.285388 0.958411 0.000956
v -0.001828 0.006108 0.009017
vn -0.284213 0.958760 -0.001751
v -0.001828 0.006108 -0.009017
vn 0.929563 -0.000162 0.368663
v 0.036961 0.006350 0.011772
vn 0.969759 0.000024 0.244066
v 0.036963 0.006350 0.011764
vn 0.660205 0.732945 0.164074
v 0.036961 0.007938 0.011772
vn 0.564317 -0.823649 0.056117
v 0.036963 0.002270 0.011764
vn 0.002466 0.999994 -0.002221
v 0.036625 0.007938 -0.012392
vn 0.106102 0.957143 0.269480
v 0.036046 0.007938 0.012794
vn 0.761143 0.630496 0.152107
v 0.037458 0.007938 0.009655
vn 0.182929 0.948307 0.259327
v 0.036359 0.007938 0.012627
vn 0.985850 0.154052 -0.066082
v 0.038028 0.007938 -0.005348
vn 0.879222 0.007588 -0.476353
v 0.036830 0.007938 -0.012101
vn 0.956326 0.076423 -0.282134
v 0.036961 0.007938 -0.011772
vn 0.563892 0.006501 -0.825823
v 0.036359 0.007938 -0.012627
vn 0.804587 0.590059 0.066850
v 0.038028 0.007938 0.005348
vn 0.844292 0.524476 0.109986
v 0.037814 0.007938 0.007511
vn 0.116658 0.991155 0.063267
v 0.036830 0.007938 0.012101
vn 0.987123 0.087885 -0.133659
v 0.037814 0.007938 -0.007511
vn 0.980158 0.064339 -0.187485
v 0.037458 0.007938 -0.009655
vn 0.193384 0.963290 0.186210
v 0.036625 0.007938 0.012392
vn 0.974187 -0.001370 -0.225740
v 0.037458 0.006350 -0.009655
vn 0.973563 0.000036 -0.228420
v 0.036963 0.006350 -0.011764
vn 0.596241 -0.801029 -0.053378
v 0.036963 0.002270 -0.011764
vn 0.951867 -0.000069 -0.306510
v 0.036961 0.006350 -0.011772
vn 0.890825 -0.000253 0.454347
v 0.036830 0.006350 0.012101
vn 0.809630 -0.000943 0.586940
v 0.036625 0.006350 0.012392
# 153 vertices, 0 vertices normals

f 127//127 65//65 67//67
f 65//65 127//127 57//57
f 47//47 49//49 3//3
f 3//3 100//100 47//47
f 47//47 100//100 81//81
f 112//112 100//100 101//101
f 113//113 112//112 101//101
f 135//135 77//77 5//5
f 2//2 88//88 5//5
f 2//2 8//8 88//88
f 53//53 13//13 51//51
f 13//13 118//118 51//51
f 14//14 118//118 13//13
f 1//1 46//46 48//48
f 1//1 14//14 46//46
f 118//118 1//1 48//48
f 1//1 118//118 14//14
f 127//127 54//54 57//57
f 88//88 121//121 85//85
f 85//85 121//121 122//122
f 86//86 85//85 122//122
f 89//89 99//99 4//4
f 32//32 89//89 29//29
f 58//58 63//63 4//4
f 58//58 99//99 61//61
f 4//4 99//99 58//58
f 120//120 73//73 74//74
f 70//70 73//73 120//120
f 68//68 108//108 71//71
f 108//108 68//68 66//66
f 55//55 116//116 106//106
f 106//106 113//113 101//101
f 106//106 116//116 113//113
f 82//82 81//81 100//100
f 112//112 82//82 100//100
f 6//6 135//135 5//5
f 76//76 79//79 8//8
f 2//2 76//76 8//8
f 5//5 77//77 76//76
f 76//76 2//2 5//5
f 80//80 118//118 48//48
f 80//80 83//83 118//118
f 9//9 3//3 49//49
f 9//9 100//100 3//3
f 11//11 89//89 4//4
f 11//11 4//4 63//63
f 63//63 95//95 11//11
f 102//102 89//89 107//107
f 99//99 89//89 102//102
f 89//89 84//84 107//107
f 88//88 17//17 5//5
f 17//17 6//6 5//5
f 17//17 137//137 135//135
f 135//135 6//6 17//17
f 88//88 20//20 133//133
f 133//133 45//45 88//88
f 88//88 91//91 23//23
f 7//7 20//20 88//88
f 7//7 88//88 35//35
f 7//7 35//35 20//20
f 89//89 32//32 90//90
f 92//92 90//90 32//32
f 64//64 105//105 66//66
f 105//105 108//108 66//66
f 105//105 64//64 56//56
f 56//56 55//55 105//105
f 55//55 106//106 105//105
f 97//97 86//86 119//119
f 119//119 86//86 122//122
f 119//119 74//74 97//97
f 119//119 120//120 74//74
f 125//125 69//69 70//70
f 70//70 120//120 125//125
f 67//67 69//69 125//125
f 125//125 127//127 67//67
f 104//104 103//103 87//87
f 103//103 84//84 87//87
f 107//107 84//84 103//103
f 96//96 104//104 87//87
f 96//96 75//75 104//104
f 75//75 72//72 98//98
f 98//98 104//104 75//75
f 98//98 72//72 71//71
f 71//71 108//108 98//98
f 110//110 124//124 79//79
f 124//124 8//8 79//79
f 8//8 124//124 88//88
f 111//111 126//126 118//118
f 83//83 111//111 118//118
f 111//111 114//114 126//126
f 10//10 50//50 52//52
f 10//10 52//52 100//100
f 9//9 10//10 100//100
f 129//129 9//9 49//49
f 129//129 50//50 10//10
f 129//129 10//10 9//9
f 89//89 11//11 25//25
f 25//25 11//11 95//95
f 25//25 94//94 141//141
f 94//94 25//25 95//95
f 37//37 17//17 88//88
f 12//12 35//35 88//88
f 23//23 12//12 88//88
f 12//12 23//23 35//35
f 19//19 20//20 35//35
f 19//19 35//35 136//136
f 132//132 20//20 136//136
f 89//89 44//44 29//29
f 44//44 89//89 150//150
f 138//138 92//92 32//32
f 29//29 145//145 138//138
f 123//123 121//121 88//88
f 124//124 123//123 88//88
f 117//117 115//115 54//54
f 117//117 54//54 127//127
f 114//114 115//115 117//117
f 117//117 126//126 114//114
f 14//14 13//13 128//128
f 128//128 13//13 53//53
f 128//128 46//46 14//14
f 15//15 88//88 45//45
f 15//15 37//37 88//88
f 45//45 37//37 15//15
f 137//137 17//17 16//16
f 16//16 37//37 137//137
f 16//16 17//17 37//37
f 22//22 91//91 93//93
f 93//93 142//142 22//22
f 22//22 23//23 91//91
f 143//143 23//23 142//142
f 143//143 136//136 35//35
f 18//18 136//136 20//20
f 18//18 20//20 19//19
f 18//18 19//19 136//136
f 131//131 133//133 20//20
f 131//131 20//20 132//132
f 89//89 25//25 39//39
f 30//30 44//44 145//145
f 145//145 44//44 146//146
f 33//33 32//32 29//29
f 29//29 138//138 33//33
f 21//21 142//142 23//23
f 22//22 21//21 23//23
f 21//21 22//22 142//142
f 35//35 23//23 36//36
f 36//36 23//23 143//143
f 137//137 37//37 147//147
f 24//24 25//25 141//141
f 39//39 24//24 141//141
f 24//24 39//39 25//25
f 26//26 41//41 89//89
f 39//39 26//26 89//89
f 26//26 39//39 41//41
f 134//134 139//139 41//41
f 134//134 39//39 141//141
f 42//42 139//139 140//140
f 42//42 150//150 89//89
f 42//42 89//89 41//41
f 27//27 145//145 29//29
f 30//30 27//27 29//29
f 27//27 30//30 145//145
f 28//28 29//29 44//44
f 28//28 30//30 29//29
f 44//44 30//30 28//28
f 149//149 140//140 146//146
f 148//148 44//44 150//150
f 31//31 138//138 32//32
f 32//32 33//33 31//31
f 31//31 33//33 138//138
f 34//34 143//143 35//35
f 35//35 36//36 34//34
f 34//34 36//36 143//143
f 153//153 37//37 45//45
f 153//153 147//147 37//37
f 41//41 39//39 38//38
f 38//38 134//134 41//41
f 134//134 38//38 39//39
f 151//151 150//150 42//42
f 151//151 42//42 140//140
f 40//40 41//41 139//139
f 40//40 42//42 41//41
f 42//42 40//40 139//139
f 43//43 148//148 146//146
f 43//43 146//146 44//44
f 43//43 44//44 148//148
f 152//152 153//153 45//45
f 45//45 133//133 152//152
f 130//130 152//152 133//133
f 46//46 47//47 48//48
f 46//46 49//49 47//47
f 50//50 51//51 52//52
f 50//50 53//53 51//51
f 54//54 55//55 56//56
f 57//57 54//54 56//56
f 58//58 59//59 60//60
f 58//58 61//61 59//59
f 62//62 58//58 60//60
f 58//58 62//62 63//63
f 64//64 57//57 56//56
f 64//64 65//65 57//57
f 64//64 66//66 67//67
f 64//64 67//67 65//65
f 68//68 70//70 69//69
f 68//68 71//71 70//70
f 66//66 68//68 67//67
f 68//68 69//69 67//67
f 71//71 72//72 70//70
f 72//72 73//73 70//70
f 73//73 72//72 74//74
f 72//72 75//75 74//74
f 76//76 77//77 78//78
f 78//78 79//79 76//76
f 48//48 47//47 80//80
f 47//47 81//81 80//80
f 81//81 82//82 80//80
f 80//80 82//82 83//83
f 84//84 85//85 86//86
f 84//84 86//86 87//87
f 85//85 84//84 88//88
f 84//84 89//89 88//88
f 90//90 88//88 89//89
f 90//90 91//91 88//88
f 90//90 92//92 91//91
f 93//93 91//91 92//92
f 62//62 94//94 63//63
f 94//94 95//95 63//63
f 86//86 96//96 87//87
f 96//96 86//86 97//97
f 96//96 74//74 75//75
f 74//74 96//96 97//97
f 61//61 99//99 98//98
f 101//101 100//100 98//98
f 98//98 100//100 52//52
f 98//98 59//59 61//61
f 99//99 102//102 98//98
f 98//98 103//103 104//104
f 52//52 59//59 98//98
f 98//98 105//105 106//106
f 98//98 106//106 101//101
f 98//98 102//102 107//107
f 105//105 98//98 108//108
f 107//107 103//103 98//98
f 109//109 79//79 78//78
f 109//109 110//110 79//79
f 111//111 112//112 113//113
f 113//113 114//114 111//111
f 111//111 83//83 82//82
f 111//111 82//82 112//112
f 115//115 114//114 113//113
f 115//115 113//113 116//116
f 54//54 115//115 55//55
f 115//115 116//116 55//55
f 117//117 51//51 118//118
f 110//110 109//109 117//117
f 120//120 119//119 117//117
f 122//122 121//121 117//117
f 117//117 123//123 124//124
f 117//117 125//125 120//120
f 118//118 126//126 117//117
f 117//117 119//119 122//122
f 117//117 127//127 125//125
f 117//117 109//109 51//51
f 117//117 124//124 110//110
f 121//121 123//123 117//117
f 53//53 50//50 128//128
f 128//128 50//50 129//129
f 49//49 46//46 128//128
f 128//128 129//129 49//49
f 130//130 131//131 132//132
f 131//131 130//130 133//133
f 60//60 59//59 134//134
f 134//134 94//94 62//62
f 77//77 135//135 134//134
f 134//134 62//62 60//60
f 52//52 51//51 134//134
f 134//134 132//132 136//136
f 134//134 78//78 77//77
f 134//134 135//135 137//137
f 134//134 92//92 138//138
f 134//134 59//59 52//52
f 140//140 139//139 134//134
f 134//134 51//51 109//109
f 92//92 134//134 93//93
f 134//134 141//141 94//94
f 134//134 109//109 78//78
f 134//134 142//142 93//93
f 134//134 143//143 142//142
f 134//134 144//144 132//132
f 134//134 138//138 145//145
f 143//143 134//134 136//136
f 134//134 146//146 140//140
f 134//134 147//147 144//144
f 145//145 146//146 134//134
f 137//137 147//147 134//134
f 148//148 149//149 146//146
f 150//150 149//149 148//148
f 151//151 149//149 150//150
f 149//149 151//151 140//140
f 144//144 147//147 152//152
f 147//147 153//153 152//152
f 132//132 144//144 152//152
f 152//152 130//130 132//132
# 302 faces, 0 coords texture

# End of File