# generated by collision_forge
v 0.007644 0.063015 0.074394
v 0.007118 0.011627 0.095003
v 0.054813 -0.024780 0.066720
v 0.060206 0.005195 0.066720
v 0.007118 -0.042022 0.066720
v 0.018334 0.063249 0.090855
v 0.063127 0.011640 0.099628
v 0.035071 -0.055457 0.099790
v 0.041777 -0.051806 0.075533
v 0.063350 0.016837 0.074456
v 0.007644 0.057168 0.066720
v 0.015202 -0.064890 0.076571
v 0.048754 0.046111 0.090855
v 0.022464 0.053919 0.066720
v 0.007118 -0.063838 0.099790
v 0.053096 -0.040086 0.075984
v 0.067631 0.011640 0.097721
v 0.007644 0.064834 0.090855
v 0.020402 -0.056107 0.066720
v 0.042496 -0.054483 0.097608
v 0.022319 -0.065176 0.096453
v 0.065249 -0.009435 0.074942
v 0.034370 0.054582 0.074313
v 0.063387 -0.027379 0.097608
v 0.054837 0.035404 0.074715
v 0.046983 0.036054 0.066720
f 2 5 15
f 11 5 2
f 7 24 17
f 2 15 7
f 7 18 2
f 8 15 21
f 8 7 15
f 24 7 8
f 13 7 17
f 9 19 3
f 3 16 9
f 26 10 4
f 18 7 6
f 7 13 6
f 25 10 26
f 17 10 25
f 25 13 17
f 12 9 21
f 19 9 12
f 21 15 12
f 5 19 12
f 12 15 5
f 20 16 24
f 20 9 16
f 24 8 20
f 20 8 21
f 21 9 20
f 3 4 22
f 22 16 3
f 24 16 22
f 22 4 10
f 17 24 22
f 22 10 17
f 23 25 26
f 23 6 13
f 13 25 23
f 14 23 26
f 6 23 1
f 18 6 1
f 1 14 11
f 23 14 1
f 1 11 2
f 2 18 1
f 5 11 14
f 3 19 14
f 14 19 5
f 14 4 3
f 26 4 14
