# generated by collision_forge
v 0.009323 -0.001303 0.122035
v 0.005526 0.010200 0.122035
v 0.016579 -0.001303 0.122035
v 0.004370 0.014852 0.146752
v 0.005526 0.014640 0.122035
v 0.004304 0.015869 0.146752
v 0.004291 0.016854 0.146752
v 0.017300 0.013775 0.168654
v 0.006427 0.014783 0.155159
v 0.012459 0.018703 0.182938
v 0.011583 0.014640 0.122035
v 0.007507 0.017972 0.146752
v 0.010714 -0.001303 0.129890
v 0.012774 0.016937 0.180115
v 0.012676 0.021163 0.184420
v 0.014968 0.006752 0.122035
v 0.015023 0.021250 0.181591
v 0.016708 0.018665 0.177023
v 0.017158 0.017363 0.174929
v 0.016162 0.003316 0.122035
v 0.011767 -0.001303 0.132945
v 0.016962 0.014780 0.176074
v 0.016986 0.010552 0.165733
v 0.014959 0.018919 0.184450
v 0.014844 0.006449 0.157155
v 0.015486 -0.001303 0.133447
f 23 3 8
f 7 5 2
f 8 3 20
f 10 14 24
f 24 15 10
f 10 9 14
f 11 5 12
f 12 5 7
f 7 15 12
f 17 15 24
f 24 18 17
f 17 18 11
f 11 12 17
f 17 12 15
f 4 2 1
f 9 10 4
f 14 9 13
f 13 4 1
f 9 4 13
f 24 14 22
f 22 23 8
f 22 18 24
f 8 20 19
f 19 22 8
f 18 22 19
f 11 18 19
f 7 2 6
f 2 4 6
f 6 15 7
f 6 10 15
f 6 4 10
f 25 22 14
f 23 22 25
f 11 19 16
f 16 19 20
f 14 13 21
f 21 25 14
f 25 21 26
f 3 23 26
f 23 25 26
f 16 5 11
f 16 3 1
f 1 2 16
f 16 2 5
f 16 20 3
f 1 3 26
f 26 13 1
f 26 21 13
