# generated by collision_forge
v -0.026728 -0.015729 0.100359
v -0.030794 -0.017630 0.100359
v -0.032081 -0.015729 0.101572
v -0.026728 -0.015729 0.121436
v -0.016323 -0.015731 0.100359
v -0.026728 -0.026720 0.100359
v -0.021848 -0.015731 0.121436
v -0.016323 -0.015731 0.110472
v -0.027775 -0.015729 0.121436
v -0.004309 -0.017698 0.100359
v -0.026728 -0.026720 0.108112
v -0.035309 -0.017630 0.107502
v -0.004309 -0.025407 0.121436
v -0.004309 -0.017698 0.109063
v -0.034514 -0.015729 0.109024
v -0.034875 -0.017630 0.109290
v -0.004309 -0.028433 0.100359
v -0.016323 -0.030550 0.102738
v -0.011155 -0.030550 0.117635
v -0.015980 -0.026868 0.121436
v -0.023715 -0.021713 0.121436
v -0.009425 -0.030550 0.100359
v -0.004309 -0.030376 0.121436
v -0.024992 -0.020170 0.121436
v -0.006030 -0.030419 0.121436
v -0.004309 -0.030550 0.116752
f 12 2 6
f 13 14 7
f 18 6 22
f 17 26 22
f 4 7 8
f 8 7 14
f 12 16 15
f 15 16 9
f 20 19 25
f 25 26 23
f 19 26 25
f 9 16 24
f 24 16 21
f 21 16 11
f 20 21 11
f 12 6 11
f 11 16 12
f 11 19 20
f 18 19 11
f 11 6 18
f 3 1 2
f 3 2 12
f 12 15 3
f 10 14 26
f 26 17 10
f 26 14 13
f 13 23 26
f 10 17 22
f 22 5 10
f 22 6 2
f 2 1 22
f 22 1 5
f 22 26 19
f 22 19 18
f 5 1 8
f 8 1 4
f 8 14 10
f 10 5 8
f 4 9 24
f 24 23 13
f 24 7 4
f 24 21 20
f 13 7 24
f 20 25 24
f 24 25 23
f 3 9 4
f 4 1 3
f 3 15 9
