# generated by collision_forge
v -0.016205 -0.017321 0.100777
v -0.016205 0.015319 0.100777
v -0.004191 -0.017321 0.100777
v -0.016205 -0.017321 0.114276
v -0.021690 0.001262 0.178923
v -0.021714 0.003286 0.178923
v -0.006687 0.015319 0.100777
v -0.016205 0.015319 0.114432
v -0.004783 0.016622 0.124527
v -0.004783 0.016572 0.121857
v -0.004191 -0.003324 0.100777
v -0.004191 -0.017321 0.109482
v -0.014929 -0.008429 0.159724
v -0.019105 -0.002154 0.174114
v -0.021328 0.004329 0.180219
v -0.013068 0.010716 0.164276
v -0.004783 0.016256 0.131929
v -0.004191 -0.016517 0.121857
v -0.004783 0.015668 0.136473
v -0.004783 0.014525 0.140346
v -0.018792 0.002472 0.180188
v -0.010553 0.010577 0.163410
v -0.004783 0.012896 0.142751
v -0.006385 0.010288 0.150972
v -0.008400 -0.008831 0.151152
v -0.012711 -0.002108 0.167446
f 2 1 6
f 9 2 8
f 10 7 2
f 10 2 9
f 10 11 7
f 9 11 10
f 15 2 6
f 15 8 2
f 8 15 16
f 16 15 22
f 13 18 25
f 25 26 13
f 13 26 14
f 13 4 18
f 14 4 13
f 25 18 24
f 18 23 24
f 24 23 22
f 24 26 25
f 22 26 24
f 19 16 22
f 18 11 20
f 20 23 18
f 11 19 20
f 22 23 20
f 20 19 22
f 18 4 12
f 5 4 14
f 5 15 6
f 1 4 5
f 6 1 5
f 17 11 9
f 17 19 11
f 9 8 17
f 8 16 17
f 16 19 17
f 14 26 21
f 21 5 14
f 15 5 21
f 22 15 21
f 21 26 22
f 1 2 11
f 3 1 11
f 2 7 11
f 3 11 12
f 12 11 18
f 12 1 3
f 12 4 1
