# generated by collision_forge
v -0.006450 0.002337 0.111054
v -0.006450 0.006290 0.121728
v -0.006450 0.021643 0.111054
v 0.003491 0.008526 0.111054
v 0.016491 0.014751 0.121728
v 0.012864 0.014730 0.146436
v -0.004546 0.011171 0.141365
v -0.006450 0.015518 0.121728
v -0.004546 0.012080 0.142917
v -0.003767 0.021643 0.111054
v -0.006450 0.021643 0.113970
v 0.014039 0.025548 0.139041
v 0.009487 0.024211 0.126487
v 0.003491 0.020250 0.111054
v 0.016491 0.020894 0.121728
v 0.016491 0.021588 0.142176
v 0.005411 0.013963 0.146436
v -0.004546 0.012103 0.142917
v -0.004546 0.013123 0.142609
v 0.009487 0.023157 0.121728
v -0.004546 0.014751 0.140201
v 0.016491 0.025624 0.145639
v 0.016491 0.025232 0.146436
v 0.004192 0.017074 0.146436
v 0.016491 0.025365 0.138030
v 0.016491 0.021547 0.123643
f 1 5 6
f 16 6 5
f 4 5 1
f 3 13 10
f 15 14 20
f 13 25 20
f 14 10 20
f 20 10 13
f 11 21 22
f 22 25 12
f 12 25 13
f 12 13 3
f 3 11 12
f 12 11 22
f 15 20 26
f 26 20 25
f 6 16 23
f 22 21 23
f 21 24 23
f 19 11 8
f 21 11 19
f 19 24 21
f 7 2 1
f 7 9 2
f 1 6 7
f 18 19 8
f 18 9 24
f 24 19 18
f 17 7 6
f 9 7 17
f 24 9 17
f 14 15 5
f 5 4 14
f 10 4 1
f 1 3 10
f 10 14 4
f 11 3 1
f 1 2 11
f 11 2 8
f 15 26 23
f 23 16 5
f 5 15 23
f 23 25 22
f 23 26 25
f 8 2 18
f 2 9 18
f 17 23 24
f 6 23 17
