# generated by collision_forge
v 0.032818 -0.000081 0.100491
v 0.032818 -0.000081 0.104099
v 0.032818 0.022451 0.100491
v 0.038905 -0.000081 0.100491
v 0.033804 -0.000081 0.104811
v 0.084773 0.042549 0.143831
v 0.033199 0.022194 0.100491
v 0.032818 0.030260 0.116160
v 0.083440 0.042844 0.143513
v 0.040248 0.010448 0.100491
v 0.038753 0.015290 0.100491
v 0.036845 0.018641 0.100491
v 0.044881 0.004411 0.108880
v 0.037201 -0.000081 0.105070
v 0.067054 0.031216 0.138212
v 0.059299 0.035792 0.135790
v 0.084503 0.040099 0.144144
v 0.040695 0.002201 0.100491
v 0.072974 0.034188 0.141856
v 0.069719 0.037889 0.142071
v 0.036088 0.033936 0.116236
v 0.083959 0.042246 0.146217
v 0.080892 0.037724 0.144408
v 0.032818 0.032424 0.115882
v 0.077643 0.042452 0.144422
v 0.032818 0.029806 0.108316
f 6 9 22
f 3 9 6
f 25 22 9
f 6 22 17
f 21 25 9
f 6 17 18
f 18 10 6
f 16 25 24
f 25 21 24
f 7 3 6
f 6 12 7
f 6 10 11
f 11 12 6
f 4 17 13
f 4 18 17
f 16 5 15
f 5 19 15
f 20 25 16
f 16 15 20
f 20 15 19
f 22 25 20
f 20 19 22
f 13 17 23
f 23 17 22
f 22 19 23
f 14 19 5
f 14 4 13
f 13 23 14
f 14 23 19
f 8 5 16
f 16 24 8
f 26 24 21
f 9 3 26
f 26 21 9
f 5 8 2
f 4 11 10
f 1 3 4
f 3 7 4
f 10 18 4
f 4 7 12
f 12 11 4
f 1 4 2
f 2 14 5
f 4 14 2
f 2 3 1
f 2 26 3
f 2 8 24
f 24 26 2
