# generated by collision_forge
v -0.022164 0.021990 0.136143
v -0.023329 0.023600 0.138909
v -0.042382 0.006404 0.171967
v -0.024860 -0.009218 0.122117
v -0.031946 0.021185 0.157300
v -0.050763 0.014667 0.190806
v -0.044464 0.006427 0.174075
v -0.025291 -0.009218 0.123109
v -0.029037 -0.009218 0.122117
v -0.023979 0.011051 0.122117
v -0.065403 0.023222 0.209583
v -0.057035 0.021185 0.201266
v -0.028258 -0.009218 0.124804
v -0.065674 0.018877 0.209873
v -0.067609 0.021013 0.211454
v -0.029837 0.011051 0.122117
v -0.022164 0.024428 0.131558
v -0.065478 0.023222 0.209504
v -0.061177 0.018900 0.207572
v -0.030625 -0.005069 0.122117
v -0.067609 0.021225 0.211454
v -0.031804 0.001241 0.122117
v -0.029570 0.018344 0.131558
v -0.026465 0.021841 0.131558
v -0.025269 0.022874 0.131558
v -0.023080 0.024176 0.131558
f 1 4 17
f 1 17 2
f 10 17 4
f 10 16 17
f 8 4 1
f 1 3 8
f 3 7 8
f 5 3 1
f 1 2 5
f 2 12 5
f 22 20 15
f 23 24 16
f 16 24 25
f 15 20 9
f 19 7 3
f 11 19 12
f 11 2 17
f 11 12 2
f 3 5 6
f 6 5 12
f 6 19 3
f 12 19 6
f 17 16 26
f 16 25 26
f 13 8 7
f 14 19 15
f 7 19 14
f 14 13 7
f 9 13 14
f 15 9 14
f 16 22 21
f 21 22 15
f 15 19 21
f 19 11 21
f 18 26 25
f 18 25 24
f 18 11 17
f 17 26 18
f 24 23 18
f 18 23 16
f 16 21 18
f 18 21 11
f 9 10 4
f 9 22 16
f 16 10 9
f 20 22 9
f 13 9 4
f 4 8 13
