# generated by collision_forge
v 0.032537 0.049028 0.091062
v 0.032537 0.049901 0.096616
v 0.032537 0.058647 0.091062
v 0.057402 0.012218 0.090934
v 0.032537 0.050457 0.098057
v 0.058922 0.033763 0.090934
v 0.067127 0.012218 0.090934
v 0.059807 0.012218 0.096658
v 0.060678 0.012218 0.098516
v 0.034867 0.057435 0.091062
v 0.038610 0.055106 0.091062
v 0.040642 0.053663 0.091062
v 0.045861 0.049497 0.091062
v 0.050762 0.044751 0.091062
v 0.067839 0.012218 0.097932
v 0.032537 0.054178 0.099855
v 0.063326 0.012218 0.099837
v 0.032537 0.055753 0.099851
v 0.036388 0.057099 0.097770
v 0.044793 0.050870 0.097842
v 0.063650 0.025953 0.097925
v 0.064701 0.012218 0.099857
v 0.055162 0.040336 0.097723
v 0.065061 0.020404 0.090934
v 0.059392 0.030010 0.099821
v 0.050624 0.042105 0.099764
f 3 4 1
f 4 3 6
f 1 4 2
f 5 9 16
f 5 2 4
f 18 19 3
f 16 22 18
f 15 7 24
f 24 21 15
f 6 21 24
f 25 22 15
f 15 21 25
f 26 18 25
f 25 18 22
f 16 9 17
f 17 22 16
f 8 5 4
f 9 5 8
f 6 13 14
f 3 19 10
f 19 11 10
f 10 6 3
f 10 11 6
f 12 11 19
f 12 13 6
f 6 11 12
f 20 14 13
f 20 12 19
f 13 12 20
f 20 18 26
f 19 18 20
f 14 20 23
f 23 21 6
f 6 14 23
f 23 20 26
f 26 25 23
f 23 25 21
f 18 5 16
f 18 3 1
f 1 2 18
f 2 5 18
f 24 7 4
f 4 6 24
f 8 17 9
f 8 7 15
f 4 7 8
f 15 22 8
f 22 17 8
