# generated by collision_forge
v -0.019117 -0.052904 0.209306
v -0.018477 -0.052904 0.209306
v -0.019675 -0.051898 0.208579
v -0.021438 -0.023785 0.122163
v -0.004802 -0.036882 0.122172
v -0.001636 -0.036882 0.122172
v -0.028368 -0.014117 0.122172
v -0.027159 -0.016927 0.122163
v -0.016304 -0.051604 0.208535
v -0.016542 -0.051389 0.210244
v 0.005076 -0.029633 0.122172
v 0.005076 -0.031080 0.131114
v -0.028606 -0.009926 0.122751
v -0.016542 -0.050211 0.210244
v 0.005076 -0.024677 0.122172
v -0.019348 -0.048356 0.207991
v -0.004234 -0.035835 0.168190
v -0.012682 -0.040210 0.190826
v -0.024796 -0.009926 0.123040
v -0.018450 -0.036037 0.184540
v -0.006149 -0.035751 0.172591
v -0.006759 -0.034089 0.169391
v 0.005076 -0.027479 0.132833
v 0.005076 -0.026911 0.131088
v -0.025958 -0.009926 0.124504
v -0.010213 -0.035860 0.178719
f 1 4 5
f 6 4 11
f 6 5 4
f 15 7 13
f 11 4 15
f 19 15 13
f 8 15 4
f 7 15 8
f 8 4 1
f 16 20 13
f 12 6 11
f 25 20 26
f 26 22 25
f 25 22 19
f 13 20 25
f 25 19 13
f 14 16 1
f 3 16 13
f 1 16 3
f 13 7 3
f 3 8 1
f 7 8 3
f 17 12 23
f 19 22 23
f 26 20 18
f 20 16 18
f 16 14 18
f 10 12 17
f 17 14 10
f 1 2 10
f 10 14 1
f 15 19 24
f 19 23 24
f 21 14 17
f 21 18 14
f 26 18 21
f 21 22 26
f 17 23 21
f 21 23 22
f 6 12 9
f 12 10 9
f 9 2 6
f 9 10 2
f 5 6 2
f 1 5 2
f 24 12 11
f 11 15 24
f 24 23 12
