# generated by collision_forge
v 0.026128 -0.001187 0.122070
v 0.016853 0.014776 0.122070
v 0.030566 -0.001187 0.122070
v 0.016998 0.023097 0.147297
v 0.016853 0.020917 0.122070
v 0.016694 0.024354 0.146784
v 0.028440 -0.001187 0.128521
v 0.016853 0.025556 0.139530
v 0.016853 0.023317 0.129877
v 0.016853 0.021575 0.123987
v 0.028660 -0.001187 0.128954
v 0.023801 0.023693 0.164509
v 0.023334 0.025160 0.165817
v 0.017034 0.025542 0.147249
v 0.044688 0.033994 0.202624
v 0.042220 0.033818 0.201252
v 0.045122 0.032888 0.202022
v 0.031476 -0.001187 0.126940
v 0.035639 0.020900 0.180774
v 0.040052 0.031876 0.199262
v 0.026164 0.013925 0.122070
v 0.023003 0.017431 0.122070
v 0.045014 0.030484 0.202206
v 0.028643 0.008215 0.122070
v 0.044516 0.029448 0.201532
v 0.040072 0.025336 0.192874
f 21 15 17
f 21 22 15
f 8 9 6
f 15 9 8
f 15 22 5
f 5 2 6
f 17 3 24
f 24 21 17
f 15 8 16
f 10 9 15
f 15 5 10
f 6 9 10
f 10 5 6
f 19 11 26
f 26 11 25
f 26 25 20
f 26 13 19
f 26 20 13
f 25 11 18
f 18 3 17
f 4 2 1
f 6 2 4
f 4 13 6
f 20 25 23
f 23 16 20
f 15 16 23
f 17 15 23
f 23 18 17
f 25 18 23
f 14 8 6
f 14 16 8
f 6 13 14
f 13 20 14
f 20 16 14
f 7 4 1
f 12 7 11
f 19 13 12
f 12 11 19
f 13 4 12
f 4 7 12
f 22 21 24
f 1 2 24
f 24 3 1
f 24 5 22
f 2 5 24
f 1 3 7
f 3 18 7
f 7 18 11
