# generated by collision_forge
v -0.001014 0.025361 0.092400
v -0.006480 0.030255 0.100127
v 0.023822 0.025466 0.100127
v 0.013583 0.021831 0.090911
v 0.009097 0.011615 0.090911
v -0.023367 0.011622 0.092400
v -0.020684 0.018267 0.092400
v -0.015510 0.022322 0.092400
v 0.030083 0.011615 0.090911
v 0.006592 -0.041104 0.093394
v 0.002206 -0.039746 0.093394
v -0.013063 -0.029768 0.093394
v -0.021864 -0.023459 0.093394
v -0.023954 -0.021869 0.093394
v -0.026458 -0.015714 0.093394
v -0.030644 0.011622 0.100127
v -0.024598 0.020403 0.100127
v 0.026062 -0.028171 0.095216
v 0.030069 0.011643 0.090911
v 0.037160 -0.001094 0.095216
v 0.019930 -0.034130 0.100126
v 0.027200 -0.031385 0.100126
v -0.011482 -0.038591 0.100125
v -0.029857 -0.019965 0.100126
v 0.039135 0.011615 0.100127
v 0.034620 0.019913 0.100127
f 16 15 24
f 5 9 10
f 21 23 10
f 10 22 21
f 21 24 23
f 16 24 21
f 21 25 16
f 21 22 25
f 10 9 18
f 18 22 10
f 2 8 17
f 4 8 1
f 1 8 2
f 2 3 1
f 1 3 4
f 4 3 26
f 23 24 14
f 14 24 15
f 6 15 16
f 6 14 15
f 5 14 6
f 20 9 25
f 20 18 9
f 25 22 20
f 22 18 20
f 19 26 25
f 25 9 19
f 4 26 19
f 11 5 10
f 10 23 11
f 16 17 7
f 7 6 16
f 7 17 8
f 7 8 4
f 4 5 7
f 5 6 7
f 5 11 12
f 12 11 23
f 13 14 5
f 5 12 13
f 23 14 13
f 13 12 23
f 26 17 16
f 16 25 26
f 26 3 2
f 2 17 26
f 9 5 19
f 19 5 4
