# generated by collision_forge
v -0.006881 0.015614 0.100428
v -0.045852 0.013727 0.121503
v -0.023753 0.011188 0.121503
v -0.033187 0.011188 0.130937
v -0.035731 0.026475 0.130902
v -0.016406 0.013727 0.100428
v -0.006881 0.015614 0.109428
v -0.029838 0.011188 0.122091
v -0.027251 0.011188 0.130501
v -0.021941 0.022126 0.135523
v -0.017016 0.031669 0.106457
v -0.031787 0.025471 0.112616
v -0.010718 0.029637 0.100428
v -0.038356 0.013727 0.109779
v -0.034663 0.013727 0.105069
v -0.006881 0.033605 0.106824
v -0.025237 0.031840 0.121205
v -0.035731 0.028414 0.129243
v -0.006881 0.031864 0.102001
v -0.006881 0.024187 0.113441
v -0.038329 0.019574 0.114303
v -0.025001 0.020775 0.100428
v -0.039943 0.023150 0.121503
v -0.011111 0.033870 0.106271
v -0.021941 0.024201 0.134702
v -0.027541 0.031710 0.119027
f 5 18 2
f 24 17 16
f 10 9 7
f 7 20 10
f 25 17 18
f 25 5 10
f 18 5 25
f 25 16 17
f 20 16 25
f 10 20 25
f 6 15 22
f 4 5 2
f 4 9 10
f 10 5 4
f 2 18 23
f 18 17 26
f 26 23 18
f 12 23 26
f 26 17 24
f 19 13 24
f 24 16 19
f 1 13 19
f 15 6 8
f 8 14 15
f 8 4 2
f 2 14 8
f 11 26 24
f 12 26 11
f 22 12 11
f 11 13 22
f 24 13 11
f 21 23 12
f 15 14 21
f 2 23 21
f 21 14 2
f 22 15 21
f 21 12 22
f 3 8 6
f 3 6 1
f 1 7 3
f 3 7 9
f 22 13 6
f 6 13 1
f 19 16 20
f 19 7 1
f 20 7 19
f 4 8 3
f 9 4 3
