# generated by collision_forge
v -0.007333 -0.057814 0.066074
v -0.039267 -0.037623 0.066074
v 0.003129 0.043958 0.002470
v 0.017679 -0.056813 0.066074
v -0.048388 -0.021809 0.066074
v -0.031630 0.044481 0.066074
v 0.024074 0.053042 0.066074
v -0.003146 0.056918 0.066074
v 0.058690 -0.011941 0.066074
v 0.028778 -0.052118 0.066074
v -0.024278 0.049677 0.066074
v -0.047960 0.022449 0.066074
v -0.052191 0.005100 0.066074
v 0.029591 -0.033803 0.000402
v -0.038751 0.007260 0.003729
v 0.049273 0.032283 0.066074
v 0.024712 0.037342 0.001126
v -0.026168 -0.024117 -0.000531
v 0.052086 -0.028937 0.066074
v 0.045877 -0.005279 0.003259
v 0.044262 0.013615 0.003722
v -0.011168 -0.042159 0.002144
v 0.003305 -0.044319 0.001478
v -0.020267 -0.053187 0.066074
v -0.018750 0.037558 0.002855
v -0.031157 -0.026925 0.003729
f 9 21 16
f 15 25 18
f 17 16 21
f 18 25 17
f 17 14 18
f 20 21 9
f 20 17 21
f 14 17 20
f 18 14 23
f 8 25 11
f 25 6 11
f 13 15 5
f 12 15 13
f 12 6 25
f 25 15 12
f 3 25 8
f 3 17 25
f 16 17 7
f 7 3 8
f 17 3 7
f 19 10 14
f 19 20 9
f 14 20 19
f 18 23 22
f 1 24 22
f 22 23 1
f 1 23 4
f 14 10 4
f 4 23 14
f 2 5 26
f 18 22 26
f 26 15 18
f 26 5 15
f 26 24 2
f 26 22 24
f 9 16 4
f 8 11 4
f 4 24 1
f 4 12 13
f 13 5 4
f 4 7 8
f 2 24 4
f 4 19 9
f 4 11 6
f 4 5 2
f 6 12 4
f 16 7 4
f 10 19 4
