# generated by collision_forge
v -0.041814 0.000955 0.112315
v -0.038132 0.002319 0.106236
v -0.039613 -0.007644 0.111268
v -0.037649 -0.011299 0.111268
v -0.034991 -0.013342 0.111268
v -0.025833 -0.015417 0.111268
v -0.021868 0.000955 0.112315
v -0.037824 -0.005248 0.106732
v -0.035203 -0.015417 0.107582
v -0.016494 -0.015417 0.111268
v -0.017335 0.013376 0.112315
v -0.033296 -0.015417 0.103012
v -0.037918 0.007305 0.106536
v -0.036206 -0.003154 0.103921
v -0.016492 -0.015417 0.110409
v -0.016492 0.013376 0.111400
v -0.040935 0.011516 0.112315
v -0.016492 -0.015417 0.100300
v -0.016492 0.013376 0.100299
v -0.039982 0.013376 0.111841
v -0.031332 -0.015417 0.100300
v -0.016492 0.000955 0.100299
v -0.030309 0.013376 0.100299
v -0.036557 0.013376 0.107105
v -0.033428 0.000955 0.100299
v -0.031202 0.011490 0.100299
f 7 10 11
f 11 10 16
f 16 10 15
f 5 9 6
f 1 5 6
f 12 14 21
f 8 14 12
f 4 5 1
f 4 9 5
f 2 8 1
f 2 14 8
f 21 14 25
f 14 2 25
f 3 12 9
f 8 12 3
f 1 8 3
f 3 4 1
f 9 4 3
f 13 2 1
f 13 25 2
f 17 13 1
f 11 20 17
f 20 24 17
f 17 24 13
f 25 13 26
f 26 24 23
f 13 24 26
f 15 18 22
f 19 16 22
f 22 16 15
f 6 7 1
f 10 7 6
f 12 18 15
f 15 10 12
f 21 18 12
f 10 6 12
f 12 6 9
f 25 18 21
f 25 22 18
f 24 20 11
f 24 16 19
f 11 16 24
f 19 23 24
f 1 7 17
f 17 7 11
f 26 23 19
f 19 22 26
f 22 25 26
