# generated by collision_forge
v 0.015104 -0.088911 0.209096
v 0.012622 -0.086703 0.205235
v 0.016921 -0.086644 0.207395
v 0.008856 -0.049002 0.132049
v 0.019495 -0.040976 0.125183
v 0.012465 -0.087136 0.209839
v -0.008307 -0.042828 0.131073
v 0.025404 -0.038726 0.133647
v 0.025333 -0.040739 0.140791
v 0.016946 -0.086519 0.209615
v -0.004922 -0.041653 0.122116
v 0.001219 -0.043333 0.122125
v 0.024547 -0.033764 0.122116
v -0.001944 -0.053110 0.157288
v -0.010545 -0.034423 0.122116
v -0.007028 -0.040430 0.122116
v 0.013554 -0.042288 0.122125
v 0.023351 -0.048397 0.155690
v 0.016946 -0.076131 0.199111
v 0.011005 -0.078481 0.200908
v -0.002173 -0.048824 0.151208
v 0.004357 -0.059426 0.171860
v 0.024547 -0.031912 0.129380
v 0.024547 -0.028267 0.122116
v 0.022141 -0.047227 0.154628
v 0.008638 -0.069898 0.188591
f 11 13 17
f 4 17 1
f 1 17 5
f 5 17 13
f 1 5 3
f 3 13 8
f 3 5 13
f 6 2 1
f 7 2 6
f 23 21 22
f 15 21 23
f 11 2 16
f 16 2 7
f 16 7 15
f 11 17 12
f 17 4 12
f 12 2 11
f 1 2 12
f 12 4 1
f 26 22 14
f 22 21 14
f 14 21 15
f 15 7 14
f 7 6 14
f 20 19 26
f 20 6 19
f 26 14 20
f 20 14 6
f 19 6 10
f 10 18 19
f 1 3 10
f 10 6 1
f 15 23 24
f 8 13 24
f 25 23 22
f 25 18 23
f 19 18 25
f 25 22 26
f 26 19 25
f 18 10 9
f 23 18 9
f 9 3 8
f 9 10 3
f 8 24 9
f 9 24 23
f 24 13 11
f 24 16 15
f 11 16 24
