# generated by collision_forge
v 0.080597 -0.052528 0.161211
v 0.082439 -0.054739 0.160889
v 0.046883 -0.008833 0.121272
v 0.082507 -0.057126 0.160852
v 0.044350 -0.010114 0.110096
v 0.043920 -0.007825 0.110096
v 0.044838 -0.006414 0.112590
v 0.044734 -0.004649 0.115095
v 0.068766 -0.041648 0.153194
v 0.031040 -0.041833 0.114793
v 0.032872 -0.037436 0.110096
v 0.035684 -0.035420 0.110096
v 0.040017 -0.030495 0.110096
v 0.043530 -0.022394 0.110096
v 0.044158 -0.018493 0.110096
v 0.040422 -0.002513 0.112959
v 0.067634 -0.050583 0.156836
v 0.075994 -0.057017 0.158982
v 0.030308 -0.044584 0.121703
v 0.032872 -0.027346 0.110096
v 0.048886 -0.046518 0.142158
v 0.053380 -0.046998 0.146123
v 0.061335 -0.048480 0.152695
v 0.054858 -0.050871 0.146788
v 0.029603 -0.041849 0.121703
v 0.037812 -0.002208 0.110096
f 3 1 8
f 11 12 4
f 4 10 11
f 15 5 4
f 4 14 15
f 4 12 13
f 13 14 4
f 4 1 18
f 18 10 4
f 7 6 26
f 26 8 7
f 16 8 26
f 16 3 8
f 16 26 25
f 25 21 16
f 9 3 23
f 1 3 9
f 20 11 10
f 25 26 20
f 20 10 25
f 22 24 23
f 22 21 24
f 23 3 22
f 3 16 22
f 22 16 21
f 10 18 19
f 19 18 24
f 25 10 19
f 19 21 25
f 24 21 19
f 8 1 2
f 2 7 8
f 2 1 4
f 6 7 2
f 5 6 2
f 4 5 2
f 17 9 23
f 1 9 17
f 17 18 1
f 23 24 17
f 24 18 17
f 26 6 20
f 20 13 12
f 5 15 20
f 20 6 5
f 12 11 20
f 20 15 14
f 14 13 20
