# generated by collision_forge
v 0.007630 0.065976 0.098066
v 0.007393 0.065835 0.092210
v 0.007393 0.064756 0.099121
v 0.016001 0.064412 0.098607
v 0.007393 0.063710 0.099815
v 0.021471 0.063764 0.097850
v 0.016001 0.065066 0.096669
v 0.007393 0.065753 0.091071
v 0.021375 0.061629 0.099823
v 0.027593 0.061634 0.097784
v 0.013908 0.065007 0.091071
v 0.007393 0.057755 0.091071
v 0.032101 0.049380 0.091071
v 0.007393 0.058527 0.096669
v 0.032101 0.056101 0.099861
v 0.032101 0.058445 0.098755
v 0.032101 0.059493 0.096669
v 0.032101 0.058996 0.091071
v 0.032101 0.050249 0.096626
v 0.007393 0.059062 0.098343
v 0.032101 0.053618 0.099749
v 0.032101 0.059224 0.093188
v 0.021810 0.063162 0.091071
v 0.007393 0.060719 0.099479
v 0.032101 0.052248 0.099070
v 0.030674 0.059690 0.091071
f 2 1 7
f 4 7 1
f 3 1 2
f 3 4 1
f 11 8 2
f 2 7 11
f 19 25 20
f 20 25 24
f 14 12 13
f 13 19 14
f 19 20 14
f 23 11 7
f 16 17 10
f 16 9 15
f 10 9 16
f 10 17 22
f 15 9 5
f 4 3 5
f 5 9 4
f 24 25 21
f 21 5 24
f 15 5 21
f 26 23 10
f 26 22 18
f 10 22 26
f 6 23 7
f 10 23 6
f 7 4 6
f 4 9 6
f 6 9 10
f 5 3 2
f 2 8 5
f 5 8 12
f 12 14 5
f 5 20 24
f 5 14 20
f 13 18 21
f 21 19 13
f 18 22 21
f 21 16 15
f 21 25 19
f 17 16 21
f 21 22 17
f 12 8 26
f 26 18 13
f 13 12 26
f 8 11 26
f 11 23 26
