# generated by collision_forge
v 0.008856 0.032720 0.066763
v 0.006345 -0.059108 0.066763
v 0.008856 0.011162 0.092221
v -0.040570 0.032720 0.066763
v -0.040570 0.032720 0.090511
v -0.040570 0.011162 0.066763
v 0.008856 0.011162 0.066763
v -0.038722 -0.050047 0.081574
v 0.008856 0.032720 0.088657
v 0.006355 -0.067931 0.092076
v 0.006345 -0.065723 0.075443
v -0.038731 -0.043660 0.099719
v 0.006355 -0.068119 0.097675
v -0.027425 -0.056979 0.074523
v -0.038731 -0.051473 0.094399
v 0.006345 -0.066614 0.079753
v -0.005373 -0.058632 0.066763
v -0.038731 -0.047601 0.099787
v -0.015073 -0.065426 0.097659
v -0.038731 -0.051285 0.092306
v 0.000820 0.032720 0.092134
v 0.006355 -0.066832 0.099392
v -0.038731 -0.051433 0.096985
v 0.006355 -0.064317 0.099823
v -0.037846 -0.039946 0.066763
v -0.021111 -0.061138 0.076733
f 22 19 13
f 2 7 11
f 6 5 4
f 3 9 21
f 3 21 24
f 24 22 3
f 13 7 3
f 3 22 13
f 21 5 12
f 24 21 12
f 10 7 13
f 13 19 10
f 8 6 25
f 25 14 8
f 26 19 15
f 15 14 26
f 18 22 24
f 24 12 18
f 19 22 18
f 18 12 5
f 16 11 7
f 7 10 16
f 16 10 19
f 19 26 16
f 16 26 11
f 15 6 20
f 6 8 20
f 20 14 15
f 20 8 14
f 17 26 14
f 17 14 25
f 2 11 17
f 11 26 17
f 15 19 23
f 19 18 23
f 23 6 15
f 5 6 23
f 23 18 5
f 5 1 4
f 5 9 1
f 21 9 5
f 3 7 1
f 1 9 3
f 1 7 17
f 4 1 17
f 17 7 2
f 17 6 4
f 25 6 17
