# generated by collision_forge
v -0.026434 0.058399 0.091914
v -0.009698 0.064659 0.091914
v -0.041361 0.034014 0.091172
v 0.006812 0.057955 0.091914
v 0.000783 0.065844 0.091914
v -0.042754 0.034014 0.097237
v 0.006812 0.065718 0.091914
v -0.044263 0.044797 0.097767
v -0.051755 0.034014 0.091172
v -0.047327 0.034014 0.099903
v 0.006812 0.062349 0.099819
v -0.004698 0.065709 0.097755
v -0.031706 0.053156 0.099816
v 0.006812 0.060624 0.099474
v 0.006812 0.058430 0.096665
v -0.038927 0.049369 0.091172
v 0.006812 0.064659 0.099118
v -0.051339 0.034014 0.098686
v -0.015034 0.061535 0.099822
v -0.019630 0.061695 0.098035
v -0.031851 0.055347 0.097900
v -0.047367 0.035343 0.099934
v -0.001327 0.063653 0.099827
v -0.001327 0.065765 0.091914
v 0.004951 0.065809 0.091914
v -0.021434 0.048845 0.091172
f 3 26 4
f 4 26 7
f 10 11 22
f 6 3 15
f 15 3 4
f 8 16 9
f 21 16 8
f 13 8 22
f 21 8 13
f 1 16 21
f 26 16 25
f 25 7 26
f 25 16 5
f 5 12 25
f 25 12 7
f 14 10 6
f 6 15 14
f 11 10 14
f 18 8 9
f 22 8 18
f 18 10 22
f 7 12 17
f 19 13 22
f 16 1 2
f 21 13 20
f 13 19 20
f 20 1 21
f 20 19 12
f 12 2 20
f 20 2 1
f 11 17 23
f 22 11 23
f 23 19 22
f 23 17 12
f 12 19 23
f 24 12 5
f 24 2 12
f 5 16 24
f 16 2 24
f 26 3 16
f 16 3 9
f 9 3 18
f 18 3 6
f 6 10 18
f 11 14 17
f 4 7 17
f 17 15 4
f 17 14 15
