# generated by collision_forge
v -0.006193 -0.003568 0.100291
v -0.006193 -0.003568 0.109961
v -0.006193 0.021184 0.100291
v 0.003753 -0.038791 0.101091
v 0.003753 -0.040462 0.104686
v 0.003753 -0.035260 0.109760
v -0.006193 0.021184 0.110695
v 0.022626 -0.040584 0.109760
v 0.021101 -0.040370 0.109760
v 0.007784 -0.000630 0.110800
v 0.026598 0.021943 0.110785
v 0.032312 0.021943 0.100294
v 0.038443 -0.000630 0.100291
v 0.017651 -0.035003 0.100291
v 0.024388 -0.040303 0.109760
v 0.027277 -0.000630 0.110800
v 0.032366 0.021943 0.100322
v 0.043099 -0.006059 0.109760
v 0.043921 -0.009811 0.109760
v 0.028606 -0.039005 0.109760
v 0.034152 -0.036012 0.109760
v 0.039580 -0.030204 0.109760
v 0.043763 -0.017945 0.109760
v 0.032366 0.021943 0.108792
v 0.028133 -0.030994 0.100291
v 0.036017 -0.019126 0.100291
f 12 3 11
f 8 10 9
f 10 6 9
f 25 22 21
f 18 11 19
f 24 11 18
f 19 11 16
f 16 11 10
f 16 21 22
f 16 10 8
f 10 11 7
f 11 3 7
f 7 6 10
f 13 18 19
f 3 12 13
f 25 21 20
f 21 16 20
f 24 18 17
f 17 13 12
f 18 13 17
f 19 16 23
f 23 16 22
f 23 13 19
f 6 7 2
f 5 9 6
f 6 2 5
f 8 9 5
f 5 4 8
f 5 2 1
f 1 4 5
f 25 20 14
f 14 4 1
f 13 23 26
f 26 22 25
f 26 23 22
f 8 4 15
f 4 14 15
f 15 14 20
f 15 16 8
f 15 20 16
f 17 12 11
f 17 11 24
f 2 3 1
f 2 7 3
f 1 3 26
f 26 14 1
f 3 13 26
f 25 14 26
