# generated by collision_forge
v 0.006861 0.037106 0.090061
v -0.051708 0.033961 0.090964
v 0.006855 0.057946 0.066731
v -0.033695 0.053580 0.091710
v -0.042208 0.033961 0.066731
v 0.006861 0.033961 0.066731
v -0.050062 0.033961 0.077629
v -0.022206 0.060449 0.091710
v -0.001280 0.033961 0.092180
v 0.006861 0.049316 0.066731
v -0.044307 0.040687 0.074378
v -0.038981 0.049319 0.091692
v -0.015928 0.062904 0.091710
v -0.027578 0.055256 0.074405
v 0.006861 0.033961 0.089398
v -0.036355 0.041079 0.066731
v -0.021243 0.059395 0.076450
v -0.028890 0.056877 0.091710
v -0.011181 0.064254 0.091710
v 0.006855 0.064668 0.079716
v 0.000812 0.033961 0.092110
v -0.007684 0.057039 0.066731
v 0.004998 0.065759 0.091710
v -0.001280 0.065716 0.091710
v -0.005465 0.065307 0.091710
v -0.004496 0.063550 0.074476
f 2 9 12
f 1 23 21
f 23 9 21
f 1 21 15
f 3 26 20
f 20 23 1
f 20 10 3
f 1 10 20
f 22 26 3
f 2 12 11
f 11 12 14
f 9 8 18
f 17 22 14
f 26 22 17
f 14 18 17
f 17 18 8
f 17 19 26
f 14 22 16
f 16 11 14
f 5 11 16
f 2 11 7
f 7 11 5
f 14 12 4
f 4 18 14
f 4 12 9
f 9 18 4
f 23 20 24
f 24 20 26
f 24 9 23
f 13 17 8
f 19 17 13
f 13 8 9
f 9 19 13
f 26 19 25
f 25 24 26
f 25 19 9
f 9 24 25
f 6 10 15
f 15 10 1
f 16 10 6
f 3 10 16
f 6 5 16
f 16 22 3
f 7 9 2
f 7 5 6
f 7 21 9
f 6 15 7
f 7 15 21
