# generated by collision_forge
v 0.003414 -0.011422 0.121469
v 0.003414 -0.003718 0.103434
v -0.004033 -0.003718 0.104472
v -0.004033 -0.012487 0.121469
v 0.003414 -0.029770 0.121469
v 0.003414 -0.003718 0.100393
v -0.004033 -0.003718 0.100393
v -0.004033 -0.030396 0.121469
v 0.002935 -0.029841 0.121469
v 0.003414 -0.030569 0.111777
v 0.003414 -0.030569 0.100393
v -0.004033 -0.028456 0.100393
v -0.004033 -0.030569 0.116786
v -0.003722 -0.030419 0.121469
v 0.001038 -0.030114 0.121469
v 0.000547 -0.030177 0.121469
v -0.001015 -0.030346 0.121469
v -0.001629 -0.030380 0.121469
v -0.003148 -0.030419 0.121469
v 0.000879 -0.030569 0.100393
v -0.004033 -0.030569 0.104963
f 3 1 2
f 4 1 3
f 19 13 10
f 21 12 20
f 10 5 9
f 9 15 10
f 16 17 10
f 10 15 16
f 10 17 18
f 18 19 10
f 8 13 14
f 13 19 14
f 1 5 11
f 11 2 1
f 6 2 11
f 11 5 10
f 7 2 6
f 3 2 7
f 6 11 12
f 12 7 6
f 12 11 20
f 21 11 10
f 20 11 21
f 10 13 21
f 8 4 21
f 3 7 21
f 21 4 3
f 21 13 8
f 7 12 21
f 14 5 1
f 1 4 14
f 14 4 8
f 14 18 17
f 14 9 5
f 17 16 14
f 15 9 14
f 14 16 15
f 19 18 14
