# generated by collision_forge
v -0.036188 0.026336 0.131277
v -0.036188 0.026939 0.131155
v -0.059386 0.008472 0.152831
v -0.051020 0.002218 0.140285
v -0.040131 -0.008044 0.121872
v -0.065713 0.017146 0.161134
v -0.039965 -0.007129 0.121872
v -0.036188 0.028278 0.129618
v -0.079695 0.021264 0.169834
v -0.073847 0.019267 0.167593
v -0.059010 0.006201 0.151118
v -0.041623 -0.008837 0.121872
v -0.074279 0.015281 0.167339
v -0.042877 -0.008402 0.121872
v -0.077196 0.014648 0.167696
v -0.036188 0.026888 0.121872
v -0.082649 0.021216 0.169404
v -0.084721 0.018814 0.171072
v -0.083077 0.020068 0.169017
v -0.036188 0.027916 0.124544
v -0.038283 0.025107 0.121872
v -0.043034 0.019658 0.121872
v -0.045894 -0.002810 0.121877
v -0.047248 0.003337 0.121877
v -0.047500 0.007524 0.121877
v -0.046203 0.013917 0.121877
f 5 11 12
f 18 17 19
f 18 24 23
f 14 23 24
f 18 23 14
f 20 17 8
f 20 16 17
f 1 3 4
f 4 5 1
f 3 11 4
f 11 5 4
f 7 16 1
f 1 5 7
f 6 3 1
f 1 2 6
f 2 10 6
f 9 2 8
f 9 10 2
f 8 17 9
f 9 17 18
f 13 11 3
f 3 6 13
f 13 6 10
f 13 9 18
f 10 9 13
f 25 14 24
f 25 19 26
f 25 24 18
f 18 19 25
f 12 11 15
f 11 13 15
f 15 13 18
f 15 14 12
f 18 14 15
f 14 25 22
f 22 25 26
f 26 19 22
f 22 19 17
f 17 16 21
f 21 22 17
f 20 2 1
f 1 16 20
f 8 2 20
f 12 14 21
f 21 5 12
f 16 7 21
f 21 7 5
f 14 22 21
