# generated by collision_forge
v -0.017393 0.013347 0.112446
v -0.022537 0.013347 0.121506
v -0.016554 -0.015445 0.111887
v -0.016551 -0.014803 0.111400
v -0.021445 0.000926 0.111400
v -0.040359 0.013347 0.112446
v -0.022081 -0.015445 0.121506
v -0.046000 0.013347 0.121506
v -0.016554 -0.015445 0.111400
v -0.041262 0.000926 0.111400
v -0.040770 0.013347 0.113055
v -0.028004 -0.015445 0.121506
v -0.046336 0.012462 0.121506
v -0.025895 -0.015445 0.111400
v -0.041493 0.009376 0.112446
v -0.040590 -0.010852 0.119487
v -0.027923 -0.015445 0.120316
v -0.042570 -0.008642 0.121506
v -0.035051 -0.013371 0.111400
v -0.038188 -0.012613 0.114731
v -0.041061 -0.001393 0.111400
v -0.042420 -0.008509 0.118777
v -0.047092 0.008497 0.121506
v -0.037561 -0.011556 0.111400
v -0.040410 -0.005280 0.111400
v -0.046099 -0.001092 0.121506
f 5 1 4
f 11 13 8
f 23 13 15
f 13 11 15
f 15 10 23
f 15 6 10
f 15 11 6
f 3 9 4
f 4 1 3
f 2 7 3
f 1 2 3
f 19 14 17
f 20 17 12
f 19 17 20
f 16 12 18
f 16 20 12
f 19 20 24
f 25 26 21
f 21 26 23
f 23 10 21
f 22 24 20
f 22 16 18
f 20 16 22
f 18 26 22
f 25 24 22
f 22 26 25
f 6 5 10
f 1 5 6
f 11 8 2
f 1 6 11
f 11 2 1
f 14 9 17
f 7 12 17
f 17 3 7
f 9 3 17
f 26 7 2
f 26 13 23
f 2 8 26
f 8 13 26
f 26 12 7
f 18 12 26
f 10 5 21
f 21 5 4
f 4 9 21
f 21 14 19
f 21 9 14
f 19 24 21
f 21 24 25
