# generated by collision_forge
v 0.045511 -0.038826 0.193852
v 0.044149 -0.038297 0.195328
v 0.024894 -0.028116 0.141857
v 0.024894 -0.022888 0.122123
v 0.046713 -0.038138 0.192600
v 0.047510 -0.036957 0.193852
v 0.024894 -0.029743 0.150252
v 0.024894 -0.011298 0.122123
v 0.027491 -0.019490 0.122123
v 0.029906 -0.013464 0.122123
v 0.046646 -0.033667 0.190313
v 0.042205 -0.035453 0.193143
v 0.025359 -0.026997 0.155737
v 0.026216 -0.001812 0.122123
v 0.030763 -0.003475 0.122123
v 0.031235 -0.001812 0.124801
v 0.046544 -0.033823 0.192788
v 0.024894 -0.026392 0.153920
v 0.042391 -0.027526 0.182367
v 0.041977 -0.031504 0.188982
v 0.033701 -0.027026 0.172410
v 0.028748 -0.001812 0.129005
v 0.028525 -0.001812 0.128578
v 0.030876 -0.001812 0.129164
v 0.034277 -0.023689 0.169291
v 0.035824 -0.021019 0.168090
f 6 5 10
f 10 15 6
f 6 15 11
f 1 5 6
f 6 2 1
f 1 2 7
f 1 7 3
f 3 4 1
f 4 5 1
f 9 5 4
f 9 10 5
f 19 22 26
f 16 15 14
f 16 11 15
f 18 23 14
f 14 8 18
f 7 2 13
f 2 12 13
f 13 18 7
f 13 12 21
f 23 18 13
f 6 11 17
f 17 2 6
f 17 12 2
f 25 26 22
f 22 23 25
f 25 13 21
f 23 13 25
f 19 26 20
f 20 17 19
f 12 17 20
f 26 25 20
f 21 12 20
f 20 25 21
f 24 22 19
f 19 17 24
f 11 16 24
f 24 17 11
f 4 8 9
f 9 8 14
f 14 15 9
f 15 10 9
f 18 8 4
f 18 4 3
f 3 7 18
f 24 23 22
f 14 23 24
f 24 16 14
