# generated by collision_forge
v -0.006278 0.022089 0.100690
v -0.006278 0.030646 0.100690
v -0.006278 0.022089 0.114013
v 0.032285 0.022846 0.100727
v -0.006278 0.022684 0.114446
v 0.032285 0.022846 0.109201
v 0.027457 0.023725 0.112937
v 0.028488 0.040601 0.135810
v 0.024309 0.061108 0.159250
v 0.018024 0.063663 0.160872
v 0.014710 0.065312 0.161268
v -0.006278 0.031957 0.101863
v -0.002054 0.039993 0.127934
v 0.029552 0.044636 0.140166
v 0.027514 0.055065 0.152757
v -0.004323 0.031166 0.100690
v 0.024309 0.091137 0.175219
v 0.018688 0.077092 0.169973
v 0.020753 0.085460 0.174292
v 0.032285 0.030625 0.116359
v 0.026789 0.083365 0.172566
v 0.022841 0.091097 0.176362
v 0.032285 0.027435 0.105113
v 0.024890 0.026023 0.100690
v -0.006278 0.034262 0.106869
v 0.025506 0.073801 0.169525
f 17 22 21
f 24 16 17
f 24 4 1
f 12 22 17
f 17 16 12
f 7 3 6
f 4 24 23
f 23 24 17
f 17 21 23
f 2 12 16
f 7 6 8
f 15 3 8
f 8 3 7
f 9 3 15
f 22 13 19
f 20 23 21
f 22 12 25
f 25 13 22
f 3 11 5
f 11 13 5
f 13 25 5
f 15 8 14
f 14 8 6
f 6 20 14
f 14 21 15
f 14 20 21
f 10 11 3
f 3 9 10
f 26 10 9
f 11 10 26
f 15 21 26
f 26 9 15
f 26 21 22
f 22 19 26
f 11 26 18
f 18 26 19
f 18 13 11
f 18 19 13
f 6 3 1
f 1 4 6
f 16 24 2
f 2 24 1
f 20 6 4
f 4 23 20
f 1 3 5
f 5 2 1
f 12 2 5
f 5 25 12
