# generated by collision_forge
v 0.011435 -0.036836 0.121765
v 0.005508 -0.030551 0.126526
v 0.005508 -0.030166 0.124435
v 0.005508 -0.029581 0.121765
v 0.020327 -0.036836 0.134686
v 0.005508 -0.030631 0.133502
v 0.005508 -0.031029 0.130709
v 0.005508 -0.024627 0.121765
v 0.022271 -0.036836 0.136926
v 0.024623 -0.028909 0.153731
v 0.024623 -0.028710 0.154015
v 0.005508 -0.029103 0.133887
v 0.024623 -0.011418 0.121765
v 0.005508 -0.026294 0.128595
v 0.022271 -0.036836 0.122356
v 0.024312 -0.036836 0.137612
v 0.024623 -0.036836 0.137334
v 0.005508 -0.028628 0.133887
v 0.024623 -0.033398 0.121765
v 0.005508 -0.027424 0.132415
v 0.024623 -0.025162 0.151399
v 0.024623 -0.036836 0.127471
v 0.024623 -0.026518 0.153547
v 0.023768 -0.034756 0.121765
v 0.024623 -0.033726 0.122242
v 0.024623 -0.025849 0.152565
f 13 20 21
f 1 5 6
f 3 4 1
f 3 1 2
f 2 1 7
f 1 6 7
f 10 6 9
f 9 6 5
f 13 8 14
f 14 20 13
f 24 15 1
f 22 15 24
f 26 21 20
f 20 23 26
f 18 23 20
f 16 17 10
f 10 9 16
f 25 24 19
f 22 24 25
f 23 18 11
f 11 6 10
f 6 11 12
f 12 11 18
f 1 4 24
f 13 19 24
f 24 8 13
f 4 8 24
f 22 17 16
f 1 15 16
f 16 5 1
f 16 15 22
f 16 9 5
f 11 19 13
f 21 26 11
f 10 17 11
f 13 21 11
f 11 17 22
f 22 25 11
f 11 26 23
f 11 25 19
f 12 3 2
f 12 8 4
f 20 14 12
f 4 3 12
f 2 7 12
f 12 7 6
f 12 14 8
f 12 18 20
