# generated by collision_forge
v -0.039261 -0.047659 0.099769
v -0.042730 0.033182 0.066770
v -0.039261 0.011626 0.089812
v -0.039261 0.011626 0.066770
v -0.041100 0.033182 0.090528
v -0.057311 0.014836 0.074462
v -0.057273 -0.016828 0.074508
v -0.049035 -0.035850 0.074423
v -0.055419 -0.029826 0.096503
v -0.049274 0.033182 0.074239
v -0.047801 0.033182 0.099740
v -0.044996 0.029765 0.066770
v -0.057065 0.024632 0.096500
v -0.049808 -0.019931 0.066770
v -0.045743 -0.038730 0.099873
v -0.049075 -0.040042 0.097831
v -0.039261 -0.049004 0.077670
v -0.039261 -0.038458 0.066770
v -0.059490 0.007294 0.099704
v -0.059444 -0.009442 0.099691
v -0.059486 -0.005267 0.076069
v -0.060937 -0.011538 0.096503
v -0.053046 0.003110 0.066770
v -0.061892 0.001014 0.096503
v -0.042996 0.033182 0.096500
v -0.051810 0.033182 0.098522
f 1 25 11
f 1 11 15
f 16 17 1
f 1 15 16
f 17 16 8
f 8 16 9
f 5 4 2
f 17 8 18
f 18 8 14
f 24 22 20
f 20 22 9
f 9 16 20
f 20 16 15
f 3 5 25
f 3 25 1
f 4 5 3
f 7 8 9
f 9 22 7
f 14 8 7
f 7 23 14
f 19 15 11
f 19 20 15
f 24 20 19
f 12 23 6
f 12 10 2
f 6 10 12
f 21 22 24
f 21 7 22
f 24 6 21
f 6 23 21
f 23 7 21
f 13 10 6
f 13 6 24
f 24 19 13
f 10 13 26
f 26 19 11
f 26 13 19
f 17 18 3
f 1 17 3
f 3 18 4
f 4 18 12
f 12 18 14
f 2 4 12
f 14 23 12
f 26 11 25
f 26 5 2
f 25 5 26
f 2 10 26
