# generated by collision_forge
v 0.003650 -0.042749 0.121498
v 0.020992 -0.040275 0.109891
v 0.022525 -0.040486 0.109891
v 0.030507 -0.044315 0.121498
v 0.003650 -0.017061 0.121498
v 0.003650 -0.040670 0.117860
v 0.003650 -0.035169 0.109891
v 0.032340 -0.040670 0.114589
v 0.003650 0.018300 0.121493
v 0.003650 -0.026964 0.109891
v 0.029086 0.005364 0.121497
v 0.007556 0.022906 0.121493
v 0.005509 0.021979 0.121493
v 0.003650 0.019906 0.110935
v 0.032340 -0.026964 0.109899
v 0.030338 -0.001124 0.121498
v 0.024348 0.015635 0.121493
v 0.015507 0.021005 0.121493
v 0.007593 -0.000545 0.109891
v 0.005461 0.020057 0.110935
v 0.032340 -0.037051 0.109891
v 0.026861 -0.000545 0.109891
v 0.003650 0.020801 0.113835
v 0.007531 0.019662 0.110935
v 0.013811 0.017228 0.110935
v 0.020102 0.013629 0.110935
f 8 4 3
f 1 2 3
f 3 4 1
f 9 5 13
f 6 7 2
f 6 2 1
f 16 4 8
f 12 13 16
f 16 13 5
f 8 3 21
f 9 13 23
f 23 13 12
f 12 18 24
f 14 19 10
f 22 26 17
f 26 18 17
f 15 16 8
f 8 21 15
f 15 21 22
f 20 24 22
f 22 19 20
f 20 19 14
f 14 23 20
f 20 23 12
f 12 24 20
f 25 26 22
f 22 24 25
f 25 18 26
f 25 24 18
f 22 17 11
f 11 15 22
f 16 15 11
f 11 17 18
f 12 16 11
f 11 18 12
f 16 5 1
f 1 4 16
f 10 6 1
f 1 5 10
f 10 23 14
f 10 5 9
f 7 6 10
f 9 23 10
f 10 3 2
f 2 7 10
f 22 21 10
f 10 19 22
f 10 21 3
