# generated by collision_forge
v 0.016475 -0.000577 0.121711
v 0.016596 -0.000577 0.114797
v 0.009635 -0.000577 0.121711
v 0.015157 -0.001626 0.133898
v 0.016434 -0.005381 0.126470
v 0.008116 -0.000577 0.114797
v 0.008325 -0.000577 0.115943
v -0.004492 -0.012092 0.126258
v 0.011046 -0.001626 0.130983
v 0.012723 -0.004321 0.146392
v 0.016142 -0.005381 0.136930
v 0.012716 -0.019031 0.148609
v 0.012716 -0.019031 0.148271
v 0.003548 -0.008831 0.114797
v -0.004492 -0.011593 0.121711
v 0.014868 -0.006586 0.146861
v 0.010409 -0.006165 0.146748
v 0.011046 -0.019230 0.150813
v 0.006444 -0.017106 0.114797
v 0.015378 -0.005997 0.114797
v 0.003548 -0.017106 0.114797
v -0.004492 -0.016530 0.121711
v 0.001170 -0.019661 0.121711
v 0.000010 -0.019071 0.127841
v -0.004492 -0.014216 0.128138
v 0.008475 -0.019003 0.148472
f 18 23 13
f 17 10 8
f 18 10 17
f 23 24 22
f 19 13 23
f 26 23 18
f 26 24 23
f 18 17 26
f 16 10 18
f 8 10 9
f 15 6 14
f 8 6 15
f 13 19 20
f 23 22 21
f 21 19 23
f 25 22 24
f 24 26 25
f 25 17 8
f 25 26 17
f 4 9 10
f 10 16 4
f 4 16 11
f 18 13 12
f 12 16 18
f 11 16 12
f 5 20 2
f 13 20 5
f 5 12 13
f 11 12 5
f 1 4 11
f 1 5 2
f 11 5 1
f 8 9 3
f 9 4 3
f 4 1 3
f 7 6 8
f 8 3 7
f 14 6 21
f 21 6 2
f 2 20 21
f 21 20 19
f 21 15 14
f 22 15 21
f 25 15 22
f 8 15 25
f 2 6 7
f 7 1 2
f 7 3 1
