# generated by collision_forge
v -0.044199 -0.090930 0.165326
v -0.046852 -0.091224 0.164610
v -0.045415 -0.091253 0.164444
v -0.046582 -0.086217 0.163447
v -0.036002 -0.019540 0.108641
v -0.046618 -0.089089 0.162885
v -0.016461 -0.044053 0.106839
v -0.027740 -0.032334 0.104359
v -0.023770 -0.036682 0.104225
v -0.007710 -0.054676 0.121689
v -0.006147 -0.053652 0.121689
v -0.042608 -0.075680 0.159166
v -0.036022 -0.025994 0.110698
v -0.016461 -0.039748 0.102653
v -0.035776 -0.077836 0.159051
v -0.016461 -0.037413 0.100615
v -0.005667 -0.052040 0.121689
v -0.035012 -0.018078 0.109542
v -0.023386 -0.065579 0.146367
v -0.016461 -0.027162 0.100615
v -0.006159 -0.050679 0.121689
v -0.010824 -0.055142 0.129645
v -0.032876 -0.018078 0.109753
v -0.037621 -0.063301 0.150712
v -0.031649 -0.018078 0.108852
v -0.030833 -0.018566 0.100615
f 17 16 20
f 24 15 19
f 11 16 17
f 9 16 2
f 2 8 9
f 9 8 16
f 12 15 24
f 12 24 18
f 22 11 17
f 19 11 22
f 18 24 23
f 24 19 23
f 19 22 23
f 10 7 14
f 16 11 14
f 14 11 10
f 2 16 14
f 14 7 2
f 15 12 1
f 10 11 1
f 1 19 15
f 1 11 19
f 6 8 2
f 6 13 8
f 8 13 26
f 26 20 16
f 16 8 26
f 21 22 17
f 17 20 21
f 3 1 2
f 10 1 3
f 2 7 3
f 3 7 10
f 4 12 18
f 4 6 2
f 2 1 4
f 4 1 12
f 18 26 5
f 5 26 13
f 5 4 18
f 13 6 5
f 6 4 5
f 25 23 22
f 22 21 25
f 25 21 20
f 20 26 25
f 18 23 25
f 25 26 18
