# generated by collision_forge
v -0.010792 -0.033831 0.121268
v -0.007167 -0.030841 0.119978
v -0.010968 -0.030841 0.117665
v -0.016139 -0.048863 0.121468
v -0.007912 -0.034129 0.121468
v -0.005995 -0.030841 0.119310
v 0.003324 -0.037880 0.121468
v -0.016139 -0.030841 0.102770
v 0.003325 -0.030841 0.111775
v 0.003325 -0.042108 0.121468
v -0.016139 -0.030841 0.100391
v 0.003325 -0.030841 0.100391
v 0.003325 -0.043268 0.121468
v -0.014020 -0.055276 0.121468
v 0.003325 -0.038438 0.100391
v 0.002051 -0.044633 0.108266
v -0.005827 -0.053490 0.121468
v -0.001647 -0.049242 0.113671
v -0.016139 -0.054101 0.119916
v -0.008721 -0.055058 0.121468
v -0.002636 -0.048655 0.110748
v -0.016139 -0.039589 0.102432
v -0.007422 -0.048818 0.110445
v -0.001146 -0.040422 0.100391
v -0.016139 -0.047866 0.111088
v -0.009514 -0.039736 0.100391
f 5 7 2
f 6 7 9
f 2 7 6
f 4 3 8
f 2 3 1
f 1 5 2
f 4 5 1
f 1 3 4
f 9 7 10
f 15 13 16
f 11 26 22
f 22 26 25
f 19 14 4
f 18 13 17
f 18 16 13
f 20 18 17
f 23 19 25
f 14 19 23
f 25 26 23
f 23 20 14
f 18 20 21
f 20 23 21
f 16 18 21
f 15 16 21
f 15 21 24
f 24 23 26
f 24 21 23
f 9 12 8
f 8 6 9
f 8 3 2
f 8 12 11
f 2 6 8
f 10 12 9
f 15 12 10
f 10 13 15
f 19 8 11
f 11 22 19
f 4 8 19
f 19 22 25
f 7 5 20
f 20 5 4
f 4 14 20
f 17 13 20
f 13 10 20
f 20 10 7
f 11 12 24
f 24 12 15
f 24 26 11
