# Blender v2.82 (sub 7) OBJ File: 'wrist_roll_01.blend'
# www.blender.org
mtllib wrist_roll_coll_02.mtl
o wrist_roll_02_Cube.002
v -0.015791 -0.051423 0.140507
v -0.045691 -0.020745 0.140507
v -0.025732 -0.051457 0.140507
v -0.038631 -0.046506 0.140507
v -0.044348 -0.034118 0.140507
v -0.026262 -0.049880 0.113204
v -0.045550 -0.019178 0.113215
v -0.006956 -0.020240 0.140507
v -0.017050 -0.049830 0.113222
v -0.044499 -0.032565 0.113215
v -0.006956 -0.020240 0.113214
v -0.006549 -0.049561 0.113214
v -0.039056 -0.044956 0.113214
v -0.006889 -0.051202 0.140507
v -0.047292 0.000000 0.140507
v -0.015791 0.051423 0.140507
v -0.045691 0.020745 0.140507
v -0.025732 0.051457 0.140507
v -0.038631 0.046506 0.140507
v -0.044348 0.034118 0.140507
v -0.026262 0.049880 0.113204
v -0.045550 0.019178 0.113215
v -0.007000 0.000000 0.113214
v -0.006956 0.020240 0.140507
v -0.017050 0.049830 0.113222
v -0.044499 0.032565 0.113215
v -0.007000 0.000000 0.140507
v -0.006956 0.020240 0.113214
v -0.006549 0.049561 0.113214
v -0.039056 0.044956 0.113214
v -0.046651 0.000000 0.113215
v -0.006889 0.051202 0.140507
vt 0.168308 0.530758
vt 0.214502 0.606102
vt 0.160200 0.571806
vt 0.250000 0.628522
vt 0.448988 0.324572
vt 0.214502 0.606102
vt 0.375381 0.375000
vt 0.375228 0.322012
vt 0.291955 0.312021
vt 0.305918 0.361218
vt 0.439632 0.174144
vt 0.441357 0.141535
vt 0.250000 0.628522
vt 0.199839 0.507044
vt 0.411318 0.329093
vt 0.406028 0.293623
vt 0.392352 0.257895
vt 0.353458 0.186568
vt 0.357491 0.151638
vt 0.296128 0.336378
vt 0.168308 0.530758
vt 0.214502 0.606102
vt 0.291955 0.312021
vt 0.448988 0.324572
vt 0.214502 0.606102
vt 0.375228 0.322012
vt 0.305918 0.361218
vt 0.296128 0.336378
vt 0.441357 0.141535
vt 0.439632 0.174144
vt 0.357491 0.151638
vt 0.199839 0.507044
vt 0.411318 0.329093
vt 0.392352 0.257895
vt 0.406028 0.293623
vt 0.353458 0.186568
vt 0.449093 0.374992
vt 0.250000 0.507044
vt 0.160200 0.571806
vn 0.0000 0.0000 -1.0000
vn 0.0000 0.0000 1.0000
vn 0.9970 0.0769 0.0096
vn 0.0008 0.0000 1.0000
vn -0.9999 -0.0139 0.0000
vn -1.0000 -0.0022 0.0000
vn 0.0006 -0.0007 1.0000
vn -0.0248 0.9979 0.0597
vn 0.9950 0.1000 0.0002
vn 0.3580 0.9326 0.0469
vn 0.9079 0.4190 0.0097
vn -0.0034 0.9983 0.0585
vn 0.9970 -0.0769 0.0096
vn -0.9999 0.0022 -0.0126
vn -1.0000 0.0022 0.0000
vn 0.0006 0.0007 1.0000
vn -0.0248 -0.9979 0.0597
vn 0.9969 -0.0783 0.0097
vn 0.3588 -0.9322 0.0474
vn 0.9154 -0.4022 0.0178
vn -0.0055 -0.9983 0.0578
vn 0.9981 0.0573 0.0235
vn -0.9999 -0.0022 -0.0126
vn -0.0020 0.0009 1.0000
vn -0.0255 0.9979 0.0595
vn 0.9969 0.0783 0.0097
vn 0.3588 0.9322 0.0474
vn 0.9154 0.4022 0.0178
vn -0.0055 0.9983 0.0578
vn 0.9981 -0.0573 0.0235
vn -0.9999 0.0139 0.0000
vn -0.0020 -0.0009 1.0000
vn -0.0255 -0.9979 0.0595
vn 0.9950 -0.1000 0.0002
vn 0.3580 -0.9326 0.0469
vn 0.9079 -0.4190 0.0097
vn -0.0034 -0.9983 0.0585
usemtl None
s off
f 1/1/1 8/2/1 14/3/1
f 23/4/2 7/5/2 11/6/2
f 7/5/3 15/7/3 2/8/3
f 3/9/1 5/10/1 8/2/1
f 11/6/4 9/11/4 12/12/4
f 12/12/5 8/2/5 11/6/5
f 27/13/6 11/6/6 8/2/6
f 8/2/1 5/10/1 2/14/1
f 2/14/1 27/13/1 8/2/1
f 11/6/2 10/15/2 13/16/2
f 6/17/7 11/6/7 13/16/7
f 12/12/8 1/18/8 14/19/8
f 10/15/9 2/8/9 5/10/9
f 6/17/10 4/20/10 3/9/10
f 13/16/11 5/10/11 4/20/11
f 9/11/12 3/9/12 1/18/12
f 16/21/1 24/22/1 18/23/1
f 22/24/2 23/4/2 28/25/2
f 15/7/13 22/24/13 17/26/13
f 18/23/1 20/27/1 19/28/1
f 28/25/4 29/29/4 25/30/4
f 29/29/14 24/22/14 32/31/14
f 28/25/15 27/13/15 24/22/15
f 24/22/1 17/32/1 20/27/1
f 27/13/1 17/32/1 24/22/1
f 28/25/2 26/33/2 22/24/2
f 28/25/16 21/34/16 30/35/16
f 16/36/17 29/29/17 32/31/17
f 26/33/18 17/26/18 22/24/18
f 21/34/19 19/28/19 30/35/19
f 30/35/20 20/27/20 26/33/20
f 25/30/21 18/23/21 21/34/21
f 1/1/1 3/9/1 8/2/1
f 23/4/2 31/37/2 7/5/2
f 7/5/22 31/37/22 15/7/22
f 3/9/1 4/20/1 5/10/1
f 12/12/23 14/19/23 8/2/23
f 27/13/6 23/4/6 11/6/6
f 2/14/1 15/38/1 27/13/1
f 11/6/2 7/5/2 10/15/2
f 6/17/24 9/11/24 11/6/24
f 12/12/25 9/11/25 1/18/25
f 10/15/26 7/5/26 2/8/26
f 6/17/27 13/16/27 4/20/27
f 13/16/28 10/15/28 5/10/28
f 9/11/29 6/17/29 3/9/29
f 16/21/1 32/39/1 24/22/1
f 22/24/2 31/37/2 23/4/2
f 15/7/30 31/37/30 22/24/30
f 18/23/1 24/22/1 20/27/1
f 29/29/31 28/25/31 24/22/31
f 28/25/15 23/4/15 27/13/15
f 27/13/1 15/38/1 17/32/1
f 28/25/2 30/35/2 26/33/2
f 28/25/32 25/30/32 21/34/32
f 16/36/33 25/30/33 29/29/33
f 26/33/34 20/27/34 17/26/34
f 21/34/35 18/23/35 19/28/35
f 30/35/36 19/28/36 20/27/36
f 25/30/37 16/36/37 18/23/37
