# Blender v2.82 (sub 7) OBJ File: 'wrist_roll_01.blend'
# www.blender.org
mtllib wrist_roll_coll_01.mtl
o wrist_roll_01_Cube
v 0.031753 -0.012562 0.047960
v 0.031753 -0.045755 0.074133
v 0.031753 -0.026002 0.048270
v 0.031753 -0.038865 0.053013
v 0.031753 -0.044987 0.065520
v -0.010168 -0.046669 0.073892
v -0.012117 -0.014217 0.047960
v -0.013751 -0.046623 0.065525
v -0.012098 -0.040498 0.053014
v -0.012116 -0.027655 0.048270
v -0.018474 -0.048028 0.082371
v -0.045383 -0.017327 0.080952
v -0.026929 -0.047893 0.078816
v -0.039559 -0.043119 0.080869
v -0.044678 -0.030730 0.080947
v -0.012850 -0.046778 0.074108
v -0.021667 -0.014579 0.048035
v -0.018041 -0.046788 0.065692
v -0.021361 -0.040854 0.053086
v -0.021648 -0.028018 0.048345
v -0.014983 -0.047436 0.074771
v -0.031171 -0.014993 0.049058
v -0.022228 -0.046986 0.066451
v -0.029647 -0.041191 0.053983
v -0.031066 -0.028428 0.049361
v -0.016588 -0.047566 0.075906
v -0.039706 -0.015560 0.053420
v -0.024761 -0.047167 0.067907
v -0.035768 -0.041602 0.057147
v -0.039404 -0.028985 0.053649
v -0.017690 -0.047707 0.077535
v -0.044140 -0.016207 0.061913
v -0.026295 -0.047422 0.071212
v -0.038852 -0.042068 0.063311
v -0.043665 -0.029619 0.061999
v -0.018311 -0.047861 0.079682
v -0.045239 -0.016783 0.071405
v -0.026841 -0.047635 0.074477
v -0.039626 -0.042596 0.071608
v -0.044644 -0.030190 0.071418
v -0.026262 -0.049880 0.113204
v -0.045550 -0.019178 0.113215
v -0.017050 -0.032565 0.113222
v 0.031753 -0.031489 0.113146
v -0.017050 -0.049830 0.113222
v -0.044499 -0.032565 0.113215
v -0.017050 -0.019178 0.113222
v 0.031753 -0.048394 0.113180
v 0.031753 -0.018461 0.113112
v -0.039056 -0.044956 0.113214
v -0.031300 -0.019178 0.113218
v -0.030775 -0.032565 0.113218
v 0.031753 0.000000 0.047960
v -0.012117 0.000000 0.047960
v -0.045892 0.000000 0.080951
v -0.021668 0.000000 0.048035
v -0.031187 0.000000 0.049058
v -0.039784 0.000000 0.053420
v -0.044346 0.000000 0.061912
v -0.045593 0.000000 0.071404
v 0.031753 0.012562 0.047960
v 0.031753 0.045755 0.074133
v 0.031753 0.026002 0.048270
v 0.031753 0.038865 0.053013
v 0.031753 0.044987 0.065520
v -0.010168 0.046669 0.073892
v -0.012117 0.014217 0.047960
v -0.013751 0.046623 0.065525
v -0.012098 0.040498 0.053014
v -0.012116 0.027655 0.048270
v -0.018474 0.048028 0.082371
v -0.045383 0.017327 0.080952
v -0.026929 0.047893 0.078816
v -0.039559 0.043119 0.080869
v -0.044678 0.030730 0.080947
v -0.012850 0.046778 0.074108
v -0.021667 0.014579 0.048035
v -0.018041 0.046788 0.065692
v -0.021361 0.040854 0.053086
v -0.021648 0.028018 0.048345
v -0.014983 0.047436 0.074771
v -0.031171 0.014993 0.049058
v -0.022228 0.046986 0.066451
v -0.029647 0.041191 0.053983
v -0.031066 0.028428 0.049361
v -0.016588 0.047566 0.075906
v -0.039706 0.015560 0.053420
v -0.024761 0.047167 0.067907
v -0.035768 0.041602 0.057147
v -0.039404 0.028985 0.053649
v -0.017690 0.047707 0.077535
v -0.044140 0.016207 0.061913
v -0.026295 0.047422 0.071212
v -0.038852 0.042068 0.063311
v -0.043665 0.029619 0.061999
v -0.018311 0.047861 0.079682
v -0.045239 0.016783 0.071405
v -0.026841 0.047635 0.074477
v -0.039626 0.042596 0.071608
v -0.044644 0.030190 0.071418
v -0.026262 0.049880 0.113204
v -0.045550 0.019178 0.113215
v 0.031753 0.000000 0.113045
v -0.017050 0.032565 0.113222
v 0.031753 0.031489 0.113146
v -0.017050 0.049830 0.113222
v -0.044499 0.032565 0.113215
v -0.017050 0.019178 0.113222
v 0.031753 0.048394 0.113180
v 0.031753 0.018461 0.113112
v -0.039056 0.044956 0.113214
v -0.046651 0.000000 0.113215
v -0.017050 0.000000 0.113222
v -0.031300 0.019178 0.113218
v -0.030775 0.032565 0.113218
v -0.031850 0.000000 0.113218
vt 0.750000 0.611344
vt 0.786012 0.750000
vt 0.750000 0.750000
vt 0.789266 0.611344
vt 0.750000 0.581157
vt 0.789945 0.581160
vt 0.561894 0.328647
vt 0.536233 0.374990
vt 0.536104 0.327679
vt 0.790762 0.551121
vt 0.750000 0.507044
vt 0.791736 0.507044
vt 0.625224 0.330901
vt 0.587662 0.374863
vt 0.587543 0.329612
vt 0.562018 0.374988
vt 0.750000 0.551073
vt 0.448912 0.968653
vt 0.219816 0.087072
vt 0.449003 0.937440
vt 0.554790 0.164951
vt 0.577344 0.119568
vt 0.577257 0.152101
vt 0.625000 0.138656
vt 0.624808 0.167426
vt 0.875000 0.611344
vt 0.826767 0.581214
vt 0.875000 0.582576
vt 0.826383 0.611344
vt 0.553813 0.175601
vt 0.575728 0.180584
vt 0.624789 0.168938
vt 0.622371 0.195158
vt 0.875001 0.581064
vt 0.827294 0.551350
vt 0.875150 0.554880
vt 0.826765 0.581117
vt 0.558628 0.164587
vt 0.575322 0.184318
vt 0.621224 0.200661
vt 0.612655 0.220156
vt 0.875159 0.548188
vt 0.827756 0.507523
vt 0.875035 0.516054
vt 0.827286 0.550905
vt 0.569613 0.184690
vt 0.567969 0.159026
vt 0.590357 0.237618
vt 0.619741 0.242956
vt 0.587695 0.292154
vt 0.592324 0.242956
vt 0.624747 0.292873
vt 0.548352 0.187111
vt 0.558875 0.160122
vt 0.563134 0.242531
vt 0.585569 0.242956
vt 0.561854 0.291610
vt 0.563135 0.242956
vt 0.587306 0.292159
vt 0.518802 0.189588
vt 0.537055 0.160168
vt 0.536307 0.242954
vt 0.561665 0.242837
vt 0.536005 0.291046
vt 0.561795 0.291605
vt 0.000000 0.000000
vt 0.000000 0.000000
vt 0.000000 0.000000
vt 0.000000 0.000000
vt 0.449185 0.875012
vt 0.448821 0.999867
vt 0.329724 0.130608
vt 0.448988 0.324572
vt 0.224547 0.187496
vt 0.334402 0.205822
vt 0.554965 0.139252
vt 0.577616 0.000000
vt 0.625000 0.138029
vt 0.875000 0.750000
vt 0.875000 0.611970
vt 0.824542 0.750000
vt 0.411318 0.329093
vt 0.392352 0.257895
vt 0.554299 0.999695
vt 0.624162 0.949512
vt 0.577564 0.999144
vt 0.449093 0.374992
vt 0.000000 0.000000
vt 0.000000 0.000000
vt 0.406028 0.293623
vt 0.786012 0.750000
vt 0.789266 0.611344
vt 0.561894 0.328647
vt 0.790762 0.551121
vt 0.625224 0.330901
vt 0.625336 0.374984
vt 0.587543 0.329612
vt 0.789945 0.581160
vt 0.219816 0.087072
vt 0.448912 0.968653
vt 0.449003 0.937440
vt 0.554790 0.164951
vt 0.577344 0.119568
vt 0.554965 0.139252
vt 0.577257 0.152101
vt 0.625000 0.138656
vt 0.826767 0.581214
vt 0.875000 0.611344
vt 0.875000 0.582576
vt 0.826383 0.611344
vt 0.553813 0.175601
vt 0.575728 0.180584
vt 0.624789 0.168938
vt 0.827294 0.551350
vt 0.875001 0.581064
vt 0.875150 0.554880
vt 0.826765 0.581117
vt 0.558628 0.164587
vt 0.575322 0.184318
vt 0.621224 0.200661
vt 0.827756 0.507523
vt 0.875159 0.548188
vt 0.875035 0.516054
vt 0.791736 0.507044
vt 0.827286 0.550905
vt 0.569613 0.184690
vt 0.567969 0.159026
vt 0.590357 0.237618
vt 0.587695 0.292154
vt 0.619741 0.242956
vt 0.592324 0.242956
vt 0.624747 0.292873
vt 0.548352 0.187111
vt 0.558875 0.160122
vt 0.563134 0.242531
vt 0.561854 0.291610
vt 0.585569 0.242956
vt 0.563135 0.242956
vt 0.587306 0.292159
vt 0.518802 0.189588
vt 0.537055 0.160168
vt 0.536307 0.242954
vt 0.536005 0.291046
vt 0.561665 0.242837
vt 0.536104 0.327679
vt 0.561795 0.291605
vt 0.000000 0.000000
vt 0.000000 0.000000
vt 0.000000 0.000000
vt 0.329724 0.130608
vt 0.448821 0.999867
vt 0.448988 0.324572
vt 0.334402 0.205822
vt 0.577616 0.000000
vt 0.554318 0.000000
vt 0.625000 0.138029
vt 0.875000 0.750000
vt 0.875000 0.611970
vt 0.824542 0.750000
vt 0.411318 0.329093
vt 0.392352 0.257895
vt 0.406028 0.293623
vt 0.554299 0.999695
vt 0.625000 0.911012
vt 0.448848 -0.000026
vt 0.000000 0.000000
vt 0.000000 0.000000
vt 0.000000 0.000000
vt 0.439632 0.174144
vt 0.607050 0.227553
vt 0.585562 0.239679
vt 0.439632 0.174144
vt 0.554318 0.000000
vt 0.625000 0.000000
vt 0.625000 0.911012
vt 0.625000 0.875000
vt 0.611351 0.985733
vt 0.448848 -0.000026
vt 0.000000 0.000000
vt 0.624808 0.167426
vt 0.622371 0.195158
vt 0.612655 0.220156
vt 0.607050 0.227553
vt 0.585562 0.239679
vt 0.625000 0.000000
vt 0.577564 0.999144
vt 0.624162 0.949512
vt 0.611351 0.985733
vn 0.0000 0.0000 1.0000
vn 0.0078 0.0000 1.0000
vn 0.9994 0.0294 0.0168
vn 0.4549 0.0023 0.8905
vn 0.8860 0.0113 0.4635
vn 0.9930 0.0210 0.1162
vn 0.1071 0.0001 0.9942
vn -0.0022 -0.0026 -1.0000
vn -0.0375 0.9991 0.0220
vn -0.0313 0.9011 0.4324
vn -0.0060 0.3464 0.9381
vn 0.0069 0.0231 0.9997
vn -0.0323 0.9961 0.0820
vn 0.0082 0.9087 0.4175
vn 0.0868 0.3477 0.9336
vn 0.1062 0.0232 0.9941
vn -0.0270 0.9967 0.0772
vn 0.1214 0.9269 0.3552
vn 0.4111 0.3517 0.8410
vn 0.4558 0.0254 0.8897
vn -0.0204 0.9971 0.0728
vn 0.2751 0.9404 0.2000
vn 0.8217 0.3639 0.4387
vn 0.8892 0.0344 0.4563
vn -0.0146 0.9976 0.0672
vn 0.3411 0.9326 0.1180
vn 0.9209 0.3741 0.1097
vn 0.9934 0.0441 0.1060
vn -0.0098 0.9981 0.0613
vn 0.3617 0.9302 0.0626
vn 0.9242 0.3817 0.0149
vn 0.9986 0.0525 0.0065
vn 0.0003 0.0000 -1.0000
vn -0.0036 -0.0037 -1.0000
vn -0.0015 -0.0020 -1.0000
vn -0.0359 0.9991 0.0209
vn -0.0323 0.8993 0.4360
vn -0.0129 0.3465 0.9380
vn -0.0009 0.0231 0.9997
vn 0.9986 0.0525 0.0082
vn 0.9241 0.3817 0.0166
vn 0.3598 0.9318 0.0469
vn -0.0084 0.9983 0.0578
vn -1.0000 0.0000 0.0000
vn 0.9993 0.0294 0.0235
vn -0.1061 0.9928 0.0551
vn 0.0003 0.0009 -1.0000
vn 0.0003 0.0001 -1.0000
vn 0.9993 -0.0211 0.0313
vn 0.4524 -0.0005 0.8918
vn 0.8809 -0.0045 0.4732
vn 0.9914 -0.0126 0.1303
vn 0.1069 -0.0000 0.9943
vn -0.0022 0.0026 -1.0000
vn -0.0388 -0.9990 0.0221
vn -0.0175 -0.8989 0.4378
vn -0.0060 -0.3464 0.9381
vn 0.0069 -0.0231 0.9997
vn -0.2480 -0.9568 0.1518
vn 0.0329 -0.9076 0.4186
vn 0.0868 -0.3477 0.9336
vn 0.1062 -0.0232 0.9941
vn -0.0263 -0.9967 0.0768
vn 0.1351 -0.9268 0.3504
vn 0.4111 -0.3517 0.8410
vn 0.4558 -0.0254 0.8897
vn -0.0204 -0.9971 0.0728
vn 0.2751 -0.9404 0.2000
vn 0.8217 -0.3639 0.4387
vn 0.8892 -0.0344 0.4563
vn -0.0146 -0.9976 0.0672
vn 0.3411 -0.9326 0.1180
vn 0.9209 -0.3741 0.1097
vn 0.9934 -0.0441 0.1060
vn -0.0098 -0.9981 0.0613
vn 0.3617 -0.9302 0.0626
vn 0.9242 -0.3817 0.0149
vn 0.9986 -0.0525 0.0065
vn -0.0036 0.0037 -1.0000
vn -0.0015 0.0020 -1.0000
vn -0.0222 -0.9958 0.0888
vn -0.0323 -0.8993 0.4360
vn -0.0129 -0.3465 0.9380
vn -0.0009 -0.0231 0.9997
vn 0.9986 -0.0525 0.0082
vn 0.9241 -0.3817 0.0166
vn 0.3588 -0.9322 0.0474
vn -0.0084 -0.9983 0.0578
vn 0.9983 -0.0573 0.0085
vn -0.0221 -0.9975 0.0674
vn 0.0020 0.0000 -1.0000
vn 0.0003 -0.0001 -1.0000
vn 0.9993 0.0211 0.0313
vn 0.4524 0.0005 0.8918
vn 0.8809 0.0045 0.4732
vn 0.9914 0.0126 0.1303
vn -0.0016 0.0000 -1.0000
vn -0.0388 0.9990 0.0221
vn -0.0175 0.8989 0.4378
vn -0.0059 0.3465 0.9380
vn -0.2480 0.9568 0.1518
vn 0.0329 0.9076 0.4186
vn 0.0857 0.3469 0.9340
vn 0.1061 0.0231 0.9941
vn -0.0263 0.9967 0.0768
vn 0.1351 0.9268 0.3504
vn 0.4097 0.3505 0.8422
vn 0.4537 0.0236 0.8908
vn -0.0182 0.9975 0.0683
vn 0.2724 0.9396 0.2074
vn 0.8198 0.3598 0.4456
vn 0.8852 0.0278 0.4643
vn -0.0132 0.9979 0.0630
vn 0.3413 0.9355 0.0914
vn 0.9219 0.3689 0.1182
vn 0.9925 0.0359 0.1171
vn -0.0096 0.9982 0.0591
vn 0.3565 0.9330 0.0501
vn 0.9266 0.3752 0.0245
vn 0.9989 0.0443 0.0176
vn -0.0023 0.0000 -1.0000
vn -0.0009 0.0000 -1.0000
vn 0.0002 0.0000 -1.0000
vn -0.0222 0.9958 0.0888
vn -0.0334 0.8977 0.4394
vn -0.0130 0.3459 0.9382
vn 0.9969 0.0783 -0.0011
vn 0.9155 0.4022 0.0086
vn 0.3588 0.9322 0.0474
vn -0.0055 0.9983 0.0586
vn 0.9983 0.0573 0.0085
vn -0.0986 0.9932 0.0626
vn -0.0293 0.9968 0.0750
vn -0.0221 0.9975 0.0674
vn -0.0268 0.9859 0.1653
vn -0.3325 0.9319 -0.1447
vn -0.0384 0.9974 0.0603
vn -0.0373 0.9974 0.0613
vn -0.0006 0.0007 -1.0000
vn 0.9994 -0.0294 0.0168
vn 0.4549 -0.0023 0.8905
vn 0.8860 -0.0113 0.4635
vn 0.9930 -0.0210 0.1162
vn 0.1071 -0.0001 0.9942
vn -0.0375 -0.9991 0.0220
vn -0.0313 -0.9011 0.4324
vn -0.0059 -0.3465 0.9380
vn -0.0323 -0.9961 0.0820
vn 0.0082 -0.9087 0.4175
vn 0.0857 -0.3469 0.9340
vn 0.1061 -0.0231 0.9941
vn -0.0270 -0.9967 0.0772
vn 0.1214 -0.9269 0.3552
vn 0.4097 -0.3505 0.8422
vn 0.4537 -0.0236 0.8908
vn -0.0182 -0.9975 0.0683
vn 0.2724 -0.9396 0.2074
vn 0.8198 -0.3598 0.4456
vn 0.8852 -0.0278 0.4643
vn -0.0132 -0.9979 0.0630
vn 0.3413 -0.9355 0.0914
vn 0.9219 -0.3689 0.1182
vn 0.9925 -0.0359 0.1171
vn -0.0096 -0.9982 0.0591
vn 0.3565 -0.9330 0.0501
vn 0.9266 -0.3752 0.0245
vn 0.9989 -0.0443 0.0176
vn -0.0359 -0.9991 0.0209
vn -0.0334 -0.8977 0.4394
vn -0.0130 -0.3459 0.9382
vn 0.9969 -0.0783 -0.0011
vn 0.9155 -0.4022 0.0086
vn 0.3598 -0.9318 0.0469
vn -0.0055 -0.9983 0.0586
vn 0.9993 -0.0294 0.0235
vn -0.0293 -0.9968 0.0750
vn -0.0986 -0.9932 0.0626
vn -0.1061 -0.9928 0.0551
vn -0.0384 -0.9974 0.0603
vn -0.0268 -0.9859 0.1653
vn -0.0373 -0.9974 0.0613
vn -0.3325 -0.9319 -0.1447
vn 0.0003 -0.0009 -1.0000
vn -0.0006 -0.0007 -1.0000
usemtl None
s off
f 54/1/1 1/2/1 53/3/1
f 7/4/2 56/5/2 17/6/2
f 37/7/3 55/8/3 12/9/3
f 22/10/4 58/11/4 27/12/4
f 27/13/5 59/14/5 32/15/5
f 32/15/6 60/16/6 37/7/6
f 17/6/7 57/17/7 22/10/7
f 44/18/8 47/19/8 49/20/8
f 16/21/9 8/22/9 18/23/9
f 18/23/10 9/24/10 19/25/10
f 9/26/11 20/27/11 19/28/11
f 10/29/12 17/6/12 20/27/12
f 21/30/13 18/23/13 23/31/13
f 23/31/14 19/32/14 24/33/14
f 19/34/15 25/35/15 24/36/15
f 20/37/16 22/10/16 25/35/16
f 26/38/17 23/31/17 28/39/17
f 28/39/18 24/40/18 29/41/18
f 24/42/19 30/43/19 29/44/19
f 25/45/20 27/12/20 30/43/20
f 26/38/21 33/46/21 31/47/21
f 28/39/22 34/48/22 33/46/22
f 29/49/23 35/50/23 34/51/23
f 30/52/24 32/15/24 35/50/24
f 31/47/25 38/53/25 36/54/25
f 33/46/26 39/55/26 38/53/26
f 34/56/27 40/57/27 39/58/27
f 35/59/28 37/7/28 40/57/28
f 36/54/29 13/60/29 11/61/29
f 38/53/30 14/62/30 13/60/30
f 39/63/31 15/64/31 14/62/31
f 40/65/32 12/9/32 15/64/32
f 52/66/33 47/67/33 43/68/33
f 49/20/34 113/69/34 103/70/34
f 48/71/35 43/72/35 44/18/35
f 42/73/33 116/74/33 51/75/33
f 6/76/36 5/77/36 8/22/36
f 5/77/37 9/78/37 8/22/37
f 4/79/38 10/29/38 9/80/38
f 3/81/39 7/4/39 10/29/39
f 42/73/40 15/64/40 12/9/40
f 46/82/41 14/62/41 15/64/41
f 14/62/42 41/83/42 13/60/42
f 41/83/43 11/61/43 13/60/43
f 2/84/44 3/85/44 5/86/44
f 112/87/45 12/9/45 55/8/45
f 36/54/46 11/61/46 6/76/46
f 51/75/33 113/69/33 47/19/33
f 46/88/33 51/89/33 52/66/33
f 43/68/47 41/83/47 52/66/47
f 52/66/48 50/90/48 46/82/48
f 54/1/1 61/91/1 67/92/1
f 67/92/2 56/5/2 54/1/2
f 97/93/49 55/8/49 60/16/49
f 82/94/50 58/11/50 57/17/50
f 87/95/51 59/14/51 58/96/51
f 92/97/52 60/16/52 59/14/52
f 77/98/53 57/17/53 56/5/53
f 108/99/54 105/100/54 110/101/54
f 76/102/55 68/103/55 66/104/55
f 78/105/56 69/106/56 68/103/56
f 80/107/57 69/108/57 79/109/57
f 77/98/58 70/110/58 80/107/58
f 81/111/59 78/105/59 76/102/59
f 83/112/60 79/113/60 78/105/60
f 85/114/61 79/115/61 84/116/61
f 82/94/62 80/117/62 85/114/62
f 86/118/63 83/112/63 81/111/63
f 88/119/64 84/120/64 83/112/64
f 90/121/65 84/122/65 89/123/65
f 87/124/66 85/125/66 90/121/66
f 93/126/67 86/118/67 91/127/67
f 94/128/68 88/119/68 93/126/68
f 95/129/69 89/130/69 94/131/69
f 92/97/70 90/132/70 95/129/70
f 98/133/71 91/127/71 96/134/71
f 99/135/72 93/126/72 98/133/72
f 100/136/73 94/137/73 99/138/73
f 97/93/74 95/139/74 100/136/74
f 73/140/75 96/134/75 71/141/75
f 74/142/76 98/133/76 73/140/76
f 75/143/77 99/144/77 74/142/77
f 72/145/78 100/146/78 75/143/78
f 115/147/33 108/148/33 114/149/33
f 113/69/79 110/101/79 103/70/79
f 104/150/80 109/151/80 105/100/80
f 116/74/33 102/152/33 114/153/33
f 66/104/81 65/154/81 62/155/81
f 69/156/82 65/154/82 68/103/82
f 70/110/83 64/157/83 69/158/83
f 67/92/84 63/159/84 70/110/84
f 75/143/85 102/152/85 72/145/85
f 74/142/86 107/160/86 75/143/86
f 74/142/87 101/161/87 111/162/87
f 71/141/88 101/161/88 73/140/88
f 110/101/44 62/163/44 61/164/44
f 112/87/89 72/145/89 102/152/89
f 66/104/90 62/155/90 109/165/90
f 113/69/33 114/153/33 108/99/33
f 107/166/33 114/149/33 102/167/33
f 104/168/91 101/161/91 106/169/91
f 111/162/92 115/147/92 107/160/92
f 54/1/1 7/4/1 1/2/1
f 7/4/2 54/1/2 56/5/2
f 37/7/93 60/16/93 55/8/93
f 22/10/94 57/17/94 58/11/94
f 27/13/95 58/96/95 59/14/95
f 32/15/96 59/14/96 60/16/96
f 17/6/53 56/5/53 57/17/53
f 44/18/97 43/72/97 47/19/97
f 16/21/98 6/76/98 8/22/98
f 18/23/99 8/22/99 9/24/99
f 9/26/100 10/29/100 20/27/100
f 10/29/12 7/4/12 17/6/12
f 21/30/101 16/21/101 18/23/101
f 23/31/102 18/23/102 19/32/102
f 19/34/103 20/37/103 25/35/103
f 20/37/104 17/6/104 22/10/104
f 26/38/105 21/30/105 23/31/105
f 28/39/106 23/31/106 24/40/106
f 24/42/107 25/45/107 30/43/107
f 25/45/108 22/10/108 27/12/108
f 26/38/109 28/39/109 33/46/109
f 28/39/110 29/170/110 34/48/110
f 29/49/111 30/52/111 35/50/111
f 30/52/112 27/13/112 32/15/112
f 31/47/113 33/46/113 38/53/113
f 33/46/114 34/171/114 39/55/114
f 34/56/115 35/59/115 40/57/115
f 35/59/116 32/15/116 37/7/116
f 36/54/117 38/53/117 13/60/117
f 38/53/118 39/63/118 14/62/118
f 39/63/119 40/65/119 15/64/119
f 40/65/120 37/7/120 12/9/120
f 52/66/33 51/89/33 47/67/33
f 49/20/121 47/19/121 113/69/121
f 48/71/122 45/172/122 43/72/122
f 42/73/123 112/87/123 116/74/123
f 6/76/124 2/173/124 5/77/124
f 5/77/125 4/174/125 9/78/125
f 4/79/126 3/81/126 10/29/126
f 3/81/39 1/2/39 7/4/39
f 42/73/127 46/82/127 15/64/127
f 46/82/128 50/90/128 14/62/128
f 14/62/129 50/90/129 41/83/129
f 41/83/130 45/172/130 11/61/130
f 2/84/44 48/71/44 44/18/44
f 44/18/44 49/20/44 2/84/44
f 49/20/44 103/70/44 1/175/44
f 2/84/44 49/20/44 1/175/44
f 103/70/44 53/176/44 1/175/44
f 1/175/44 3/85/44 2/84/44
f 3/85/44 4/177/44 5/86/44
f 112/87/131 42/73/131 12/9/131
f 11/61/132 45/172/132 6/76/132
f 45/172/133 48/178/133 6/76/133
f 48/178/134 2/173/134 6/76/134
f 6/76/135 16/21/135 36/54/135
f 16/21/136 21/30/136 36/54/136
f 36/54/137 21/30/137 31/47/137
f 21/30/138 26/38/138 31/47/138
f 51/75/123 116/74/123 113/69/123
f 46/88/33 42/179/33 51/89/33
f 43/68/91 45/172/91 41/83/91
f 52/66/139 41/83/139 50/90/139
f 54/1/1 53/3/1 61/91/1
f 67/92/2 77/98/2 56/5/2
f 97/93/140 72/145/140 55/8/140
f 82/94/141 87/124/141 58/11/141
f 87/95/142 92/97/142 59/14/142
f 92/97/143 97/93/143 60/16/143
f 77/98/144 82/94/144 57/17/144
f 108/99/97 104/150/97 105/100/97
f 76/102/145 78/105/145 68/103/145
f 78/105/146 79/180/146 69/106/146
f 80/107/147 70/110/147 69/108/147
f 77/98/58 67/92/58 70/110/58
f 81/111/148 83/112/148 78/105/148
f 83/112/149 84/181/149 79/113/149
f 85/114/150 80/117/150 79/115/150
f 82/94/151 77/98/151 80/117/151
f 86/118/152 88/119/152 83/112/152
f 88/119/153 89/182/153 84/120/153
f 90/121/154 85/125/154 84/122/154
f 87/124/155 82/94/155 85/125/155
f 93/126/156 88/119/156 86/118/156
f 94/128/157 89/183/157 88/119/157
f 95/129/158 90/132/158 89/130/158
f 92/97/159 87/95/159 90/132/159
f 98/133/160 93/126/160 91/127/160
f 99/135/161 94/184/161 93/126/161
f 100/136/162 95/139/162 94/137/162
f 97/93/163 92/97/163 95/139/163
f 73/140/164 98/133/164 96/134/164
f 74/142/165 99/144/165 98/133/165
f 75/143/166 100/146/166 99/144/166
f 72/145/167 97/93/167 100/146/167
f 115/147/33 104/168/33 108/148/33
f 113/69/121 108/99/121 110/101/121
f 104/150/122 106/169/122 109/151/122
f 116/74/123 112/87/123 102/152/123
f 66/104/168 68/103/168 65/154/168
f 69/156/169 64/185/169 65/154/169
f 70/110/170 63/159/170 64/157/170
f 67/92/84 61/91/84 63/159/84
f 75/143/171 107/160/171 102/152/171
f 74/142/172 111/162/172 107/160/172
f 74/142/173 73/140/173 101/161/173
f 71/141/174 106/169/174 101/161/174
f 105/100/44 109/151/44 62/163/44
f 62/163/44 65/186/44 63/187/44
f 65/186/44 64/188/44 63/187/44
f 63/187/44 61/164/44 62/163/44
f 61/164/44 53/176/44 103/70/44
f 103/70/44 110/101/44 61/164/44
f 110/101/44 105/100/44 62/163/44
f 112/87/175 55/8/175 72/145/175
f 109/165/176 106/169/176 66/104/176
f 106/169/177 71/141/177 66/104/177
f 71/141/178 96/134/178 66/104/178
f 96/134/179 91/127/179 81/111/179
f 66/104/180 96/134/180 76/102/180
f 91/127/181 86/118/181 81/111/181
f 81/111/182 76/102/182 96/134/182
f 113/69/123 116/74/123 114/153/123
f 107/166/33 115/147/33 114/149/33
f 104/168/183 115/147/183 101/161/183
f 111/162/184 101/161/184 115/147/184
