####
#
# OBJ File Generated by Meshlab
#
####
# Object lj1_left.obj
#
# Vertices: 130
# Faces: 184
#
####
mtllib ./lj1_left.obj.mtl

vn 0.000000 0.146746 -0.989174
v 0.000000 0.028209 -0.062351
vn 0.068418 0.837673 -0.541870
v 0.000000 0.060325 -0.042072
vn 0.270653 0.418064 -0.867162
v 0.019947 0.019947 -0.062351
vn 0.678829 0.537503 -0.500281
v 0.042656 0.042656 -0.042072
vn 0.403719 0.086410 -0.910793
v 0.028209 0.000000 -0.062351
vn 0.860078 -0.099933 -0.500280
v 0.060325 0.000000 -0.042072
vn 0.294339 -0.190554 -0.936512
v 0.019947 -0.019947 -0.062351
vn 0.537503 -0.678829 -0.500281
v 0.042656 -0.042656 -0.042072
vn 0.000000 -0.338088 -0.941114
v 0.000000 -0.028209 -0.062351
vn -0.083465 -0.888909 -0.450416
v 0.000000 -0.060325 -0.042072
vn -0.317348 -0.317348 -0.893633
v -0.019947 -0.019947 -0.062351
vn -0.640703 -0.543946 -0.541870
v -0.042656 -0.042656 -0.042072
vn -0.322401 -0.069006 -0.944085
v -0.028209 0.000000 -0.062351
vn -0.860078 0.099933 -0.500280
v -0.060325 0.000000 -0.042072
vn -0.356405 0.356405 -0.863685
v -0.019947 0.019947 -0.062351
vn -0.569535 0.687572 -0.450417
v -0.042656 0.042656 -0.042072
vn 0.561887 0.705938 0.431201
v 0.042656 0.042656 -0.013337
vn -0.103758 0.855581 0.507163
v 0.000000 0.060325 -0.013337
vn 0.896488 0.101859 0.431200
v 0.060325 0.000000 -0.013337
vn 0.705938 -0.561887 0.431201
v 0.042656 -0.042656 -0.013337
vn 0.101859 -0.896488 0.431200
v 0.000000 -0.060325 -0.013337
vn -0.561887 -0.705938 0.431201
v -0.042656 -0.042656 -0.013337
vn -0.896488 -0.101859 0.431200
v -0.060325 0.000000 -0.013337
vn -0.744202 0.575564 0.338954
v -0.042656 0.042656 -0.013337
vn 0.691444 0.559556 0.456949
v 0.030694 0.030694 -0.009865
vn 0.122032 0.945680 0.301327
v 0.000000 0.043409 -0.009865
vn 0.884591 -0.093259 0.456949
v 0.043409 0.000000 -0.009865
vn 0.559556 -0.691444 0.456949
v 0.030694 -0.030694 -0.009865
vn -0.093259 -0.884591 0.456949
v 0.000000 -0.043409 -0.009865
vn -0.691444 -0.559556 0.456949
v -0.030694 -0.030694 -0.009865
vn -0.884591 0.093259 0.456949
v -0.043409 0.000000 -0.009865
vn -0.508852 0.645386 0.569690
v -0.030694 0.030694 -0.009865
vn 0.597220 0.703993 0.384346
v 0.030694 0.030694 0.023213
vn -0.075500 0.920097 0.384346
v 0.000000 0.043409 0.023213
vn 0.920097 0.075500 0.384346
v 0.043409 0.000000 0.023213
vn 0.703993 -0.597220 0.384346
v 0.030694 -0.030694 0.023213
vn 0.101358 -0.937785 0.332093
v 0.000000 -0.043409 0.023213
vn -0.573934 -0.698396 0.427601
v -0.030694 -0.030694 0.023213
vn -0.920097 -0.075500 0.384346
v -0.043409 0.000000 0.023213
vn -0.703993 0.597220 0.384346
v -0.030694 0.030694 0.023213
vn 0.123455 0.189370 0.974114
v 0.014823 0.014823 0.036980
vn -0.099714 0.473235 0.875275
v 0.000000 0.020963 0.036980
vn 0.473235 0.099714 0.875275
v 0.020963 0.000000 0.036980
vn 0.260257 -0.169669 0.950515
v 0.014823 -0.014823 0.036980
vn 0.000000 -0.490702 0.871327
v 0.000000 -0.020963 0.036980
vn -0.121105 -0.121105 0.985224
v -0.014823 -0.014823 0.036980
vn -0.324474 -0.068369 0.943421
v -0.020963 0.000000 0.036980
vn -0.330693 0.215588 0.918784
v -0.014823 0.014823 0.036980
vn 0.678829 0.537503 -0.500281
v 0.042656 0.042656 -0.042072
vn 0.860078 -0.099933 -0.500280
v 0.060325 0.000000 -0.042072
vn 0.537503 -0.678829 -0.500281
v 0.042656 -0.042656 -0.042072
vn 0.000000 -0.338088 -0.941114
v 0.000000 -0.028209 -0.062351
vn -0.640703 -0.543946 -0.541870
v -0.042656 -0.042656 -0.042072
vn 0.068418 0.837673 -0.541870
v 0.000000 0.060325 -0.042072
vn -0.860078 0.099933 -0.500280
v -0.060325 0.000000 -0.042072
vn -0.356405 0.356405 -0.863685
v -0.019947 0.019947 -0.062351
vn 0.403719 0.086410 -0.910793
v 0.028209 0.000000 -0.062351
vn -0.083465 -0.888909 -0.450416
v 0.000000 -0.060325 -0.042072
vn -0.561887 -0.705938 0.431201
v -0.042656 -0.042656 -0.013337
vn -0.569535 0.687572 -0.450417
v -0.042656 0.042656 -0.042072
vn -0.103758 0.855581 0.507163
v 0.000000 0.060325 -0.013337
vn 0.561887 0.705938 0.431201
v 0.042656 0.042656 -0.013337
vn 0.896488 0.101859 0.431200
v 0.060325 0.000000 -0.013337
vn -0.561887 -0.705938 0.431201
v -0.042656 -0.042656 -0.013337
vn 0.705938 -0.561887 0.431201
v 0.042656 -0.042656 -0.013337
vn 0.101859 -0.896488 0.431200
v 0.000000 -0.060325 -0.013337
vn -0.896488 -0.101859 0.431200
v -0.060325 0.000000 -0.013337
vn -0.744202 0.575564 0.338954
v -0.042656 0.042656 -0.013337
vn 0.705938 -0.561887 0.431201
v 0.042656 -0.042656 -0.013337
vn 0.561887 0.705938 0.431201
v 0.042656 0.042656 -0.013337
vn -0.896488 -0.101859 0.431200
v -0.060325 0.000000 -0.013337
vn -0.884591 0.093259 0.456949
v -0.043409 0.000000 -0.009865
vn 0.101859 -0.896488 0.431200
v 0.000000 -0.060325 -0.013337
vn -0.093259 -0.884591 0.456949
v 0.000000 -0.043409 -0.009865
vn -0.691444 -0.559556 0.456949
v -0.030694 -0.030694 -0.009865
vn 0.896488 0.101859 0.431200
v 0.060325 0.000000 -0.013337
vn 0.884591 -0.093259 0.456949
v 0.043409 0.000000 -0.009865
vn 0.559556 -0.691444 0.456949
v 0.030694 -0.030694 -0.009865
vn -0.103758 0.855581 0.507163
v 0.000000 0.060325 -0.013337
vn 0.122032 0.945680 0.301327
v 0.000000 0.043409 -0.009865
vn 0.691444 0.559556 0.456949
v 0.030694 0.030694 -0.009865
vn -0.508852 0.645386 0.569690
v -0.030694 0.030694 -0.009865
vn -0.075500 0.920097 0.384346
v 0.000000 0.043409 0.023213
vn -0.691444 -0.559556 0.456949
v -0.030694 -0.030694 -0.009865
vn -0.920097 -0.075500 0.384346
v -0.043409 0.000000 0.023213
vn 0.559556 -0.691444 0.456949
v 0.030694 -0.030694 -0.009865
vn 0.691444 0.559556 0.456949
v 0.030694 0.030694 -0.009865
vn 0.597220 0.703993 0.384346
v 0.030694 0.030694 0.023213
vn -0.884591 0.093259 0.456949
v -0.043409 0.000000 -0.009865
vn -0.920097 -0.075500 0.384346
v -0.043409 0.000000 0.023213
vn -0.703993 0.597220 0.384346
v -0.030694 0.030694 0.023213
vn -0.093259 -0.884591 0.456949
v 0.000000 -0.043409 -0.009865
vn 0.101358 -0.937785 0.332093
v 0.000000 -0.043409 0.023213
vn -0.573934 -0.698396 0.427601
v -0.030694 -0.030694 0.023213
vn 0.884591 -0.093259 0.456949
v 0.043409 0.000000 -0.009865
vn 0.920097 0.075500 0.384346
v 0.043409 0.000000 0.023213
vn 0.703993 -0.597220 0.384346
v 0.030694 -0.030694 0.023213
vn -0.330693 0.215588 0.918784
v -0.014823 0.014823 0.036980
vn -0.324474 -0.068369 0.943421
v -0.020963 0.000000 0.036980
vn -0.573934 -0.698396 0.427601
v -0.030694 -0.030694 0.023213
vn 0.920097 0.075500 0.384346
v 0.043409 0.000000 0.023213
vn -0.075500 0.920097 0.384346
v 0.000000 0.043409 0.023213
vn 0.123455 0.189370 0.974114
v 0.014823 0.014823 0.036980
vn -0.703993 0.597220 0.384346
v -0.030694 0.030694 0.023213
vn -0.099714 0.473235 0.875275
v 0.000000 0.020963 0.036980
vn 0.703993 -0.597220 0.384346
v 0.030694 -0.030694 0.023213
vn 0.260257 -0.169669 0.950515
v 0.014823 -0.014823 0.036980
vn 0.597220 0.703993 0.384346
v 0.030694 0.030694 0.023213
vn 0.123455 0.189370 0.974114
v 0.014823 0.014823 0.036980
vn 0.473235 0.099714 0.875275
v 0.020963 0.000000 0.036980
vn 0.068418 0.837673 -0.541870
v 0.000000 0.060325 -0.042072
vn 0.270653 0.418064 -0.867162
v 0.019947 0.019947 -0.062351
vn 0.403719 0.086410 -0.910793
v 0.028209 0.000000 -0.062351
vn 0.294339 -0.190554 -0.936512
v 0.019947 -0.019947 -0.062351
vn 0.000000 -0.338088 -0.941114
v 0.000000 -0.028209 -0.062351
vn -0.640703 -0.543946 -0.541870
v -0.042656 -0.042656 -0.042072
vn -0.356405 0.356405 -0.863685
v -0.019947 0.019947 -0.062351
vn -0.322401 -0.069006 -0.944085
v -0.028209 0.000000 -0.062351
vn 0.000000 0.146746 -0.989174
v 0.000000 0.028209 -0.062351
vn -0.317348 -0.317348 -0.893633
v -0.019947 -0.019947 -0.062351
vn 0.294339 -0.190554 -0.936512
v 0.019947 -0.019947 -0.062351
vn 0.270653 0.418064 -0.867162
v 0.019947 0.019947 -0.062351
vn -0.322401 -0.069006 -0.944085
v -0.028209 0.000000 -0.062351
vn -0.744202 0.575564 0.338954
v -0.042656 0.042656 -0.013337
vn -0.508852 0.645386 0.569690
v -0.030694 0.030694 -0.009865
vn 0.260257 -0.169669 0.950515
v 0.014823 -0.014823 0.036980
vn -0.121105 -0.121105 0.985224
v -0.014823 -0.014823 0.036980
vn 0.000000 -0.490702 0.871327
v 0.000000 -0.020963 0.036980
vn -0.121105 -0.121105 0.985224
v -0.014823 -0.014823 0.036980
vn 0.101358 -0.937785 0.332093
v 0.000000 -0.043409 0.023213
# 130 vertices, 0 vertices normals


usemtl material_0
vt 0.000000 0.000000
vt 1.000000 0.000000
vt 1.000000 1.000000
f 2/1/2 4/2/4 3/3/3
f 49/1/49 6/2/6 5/3/5
f 50/1/50 8/2/8 7/3/7
f 51/1/51 10/2/10 9/3/9
f 52/1/52 10/2/10 12/3/12
f 53/1/53 14/2/14 13/3/13
f 49/1/49 17/2/17 19/3/19
f 15/1/15 16/2/16 54/3/54
f 55/1/55 16/2/16 56/3/56
f 1/1/1 57/2/57 7/3/7
f 22/1/22 30/2/30 31/3/31
f 58/1/58 21/2/21 59/3/59
f 60/1/60 24/2/24 18/3/18
f 2/1/2 61/2/61 62/3/62
f 50/1/50 63/2/63 20/3/20
f 53/1/53 64/2/64 23/3/23
f 51/1/51 65/2/65 66/3/66
f 55/1/55 67/2/67 68/3/68
f 26/1/26 34/2/34 33/3/33
f 69/1/69 28/2/28 29/3/29
f 70/1/70 25/2/25 27/3/27
f 71/1/71 72/2/72 32/3/32
f 73/1/73 74/2/74 75/3/75
f 76/1/76 77/2/77 78/3/78
f 79/1/79 80/2/80 81/3/81
f 79/1/79 24/2/24 32/3/32
f 39/1/39 47/2/47 48/3/48
f 82/1/82 40/2/40 83/3/83
f 84/1/84 38/2/38 85/3/85
f 86/1/86 36/2/36 37/3/37
f 87/1/87 88/2/88 35/3/35
f 89/1/89 90/2/90 91/3/91
f 92/1/92 93/2/93 94/3/94
f 95/1/95 96/2/96 97/3/97
f 41/1/41 98/2/98 99/3/99
f 100/1/100 93/2/93 45/3/45
f 101/1/101 43/2/43 44/3/44
f 102/1/102 42/2/42 103/3/103
f 104/1/104 98/2/98 105/3/105
f 100/1/100 46/2/46 99/3/99
f 106/1/106 107/2/107 45/3/45
f 108/1/108 109/2/109 110/3/110
f 1/1/1 111/2/111 3/3/3
f 112/1/112 4/2/4 5/3/5
f 113/1/113 6/2/6 7/3/7
f 114/1/114 8/2/8 9/3/9
f 11/1/11 115/2/115 12/3/12
f 11/1/11 116/2/116 13/3/13
f 50/1/50 4/2/4 19/3/19
f 1/1/1 117/2/117 54/3/54
f 118/1/118 14/2/14 56/3/56
f 118/1/118 117/2/117 119/3/119
f 52/1/52 120/2/120 13/3/13
f 1/1/1 121/2/121 9/3/9
f 1/1/1 122/2/122 5/3/5
f 52/1/52 123/2/123 119/3/119
f 71/1/71 64/2/64 31/3/31
f 53/1/53 10/2/10 59/3/59
f 2/1/2 16/2/16 18/3/18
f 49/1/49 111/2/111 62/3/62
f 51/1/51 6/2/6 20/3/20
f 55/1/55 116/2/116 23/3/23
f 58/1/58 8/2/8 66/3/66
f 60/1/60 14/2/14 68/3/68
f 87/1/87 80/2/80 33/3/33
f 73/1/73 65/2/65 29/3/29
f 76/1/76 17/2/17 27/3/27
f 124/1/124 67/2/67 32/3/32
f 22/1/22 21/2/21 75/3/75
f 69/1/69 63/2/63 78/3/78
f 70/1/70 61/2/61 81/3/81
f 26/1/26 61/2/61 32/3/32
f 104/1/104 90/2/90 48/3/48
f 26/1/26 125/2/125 83/3/83
f 89/1/89 30/2/30 85/3/85
f 92/1/92 28/2/28 37/3/37
f 95/1/95 25/2/25 35/3/35
f 82/1/82 72/2/72 91/3/91
f 84/1/84 74/2/74 94/3/94
f 86/1/86 77/2/77 97/3/97
f 126/1/126 43/2/43 103/3/103
f 127/1/127 128/2/128 44/3/44
f 41/1/41 47/2/47 129/3/129
f 41/1/41 42/2/42 48/3/48
f 127/1/127 107/2/107 103/3/103
f 127/1/127 38/2/38 45/3/45
f 106/1/106 96/2/96 44/3/44
f 108/1/108 34/2/34 103/3/103
f 102/1/102 40/2/40 105/3/105
f 39/1/39 38/2/38 99/3/99
f 130/1/130 36/2/36 45/3/45
f 101/1/101 88/2/88 110/3/110
f 2/1/2 4/2/4 3/3/3
f 49/1/49 6/2/6 5/3/5
f 50/1/50 8/2/8 7/3/7
f 51/1/51 10/2/10 9/3/9
f 52/1/52 10/2/10 12/3/12
f 53/1/53 14/2/14 13/3/13
f 49/1/49 17/2/17 19/3/19
f 15/1/15 16/2/16 54/3/54
f 55/1/55 16/2/16 56/3/56
f 1/1/1 57/2/57 7/3/7
f 22/1/22 30/2/30 31/3/31
f 58/1/58 21/2/21 59/3/59
f 60/1/60 24/2/24 18/3/18
f 2/1/2 61/2/61 62/3/62
f 50/1/50 63/2/63 20/3/20
f 53/1/53 64/2/64 23/3/23
f 51/1/51 65/2/65 66/3/66
f 55/1/55 67/2/67 68/3/68
f 26/1/26 34/2/34 33/3/33
f 69/1/69 28/2/28 29/3/29
f 70/1/70 25/2/25 27/3/27
f 71/1/71 72/2/72 32/3/32
f 73/1/73 74/2/74 75/3/75
f 76/1/76 77/2/77 78/3/78
f 79/1/79 80/2/80 81/3/81
f 79/1/79 24/2/24 32/3/32
f 39/1/39 47/2/47 48/3/48
f 82/1/82 40/2/40 83/3/83
f 84/1/84 38/2/38 85/3/85
f 86/1/86 36/2/36 37/3/37
f 87/1/87 88/2/88 35/3/35
f 89/1/89 90/2/90 91/3/91
f 92/1/92 93/2/93 94/3/94
f 95/1/95 96/2/96 97/3/97
f 41/1/41 98/2/98 99/3/99
f 100/1/100 93/2/93 45/3/45
f 101/1/101 43/2/43 44/3/44
f 102/1/102 42/2/42 103/3/103
f 104/1/104 98/2/98 105/3/105
f 100/1/100 46/2/46 99/3/99
f 106/1/106 107/2/107 45/3/45
f 108/1/108 109/2/109 110/3/110
f 1/1/1 111/2/111 3/3/3
f 112/1/112 4/2/4 5/3/5
f 113/1/113 6/2/6 7/3/7
f 114/1/114 8/2/8 9/3/9
f 11/1/11 115/2/115 12/3/12
f 11/1/11 116/2/116 13/3/13
f 50/1/50 4/2/4 19/3/19
f 1/1/1 117/2/117 54/3/54
f 118/1/118 14/2/14 56/3/56
f 118/1/118 117/2/117 119/3/119
f 52/1/52 120/2/120 13/3/13
f 1/1/1 121/2/121 9/3/9
f 1/1/1 122/2/122 5/3/5
f 52/1/52 123/2/123 119/3/119
f 71/1/71 64/2/64 31/3/31
f 53/1/53 10/2/10 59/3/59
f 2/1/2 16/2/16 18/3/18
f 49/1/49 111/2/111 62/3/62
f 51/1/51 6/2/6 20/3/20
f 55/1/55 116/2/116 23/3/23
f 58/1/58 8/2/8 66/3/66
f 60/1/60 14/2/14 68/3/68
f 87/1/87 80/2/80 33/3/33
f 73/1/73 65/2/65 29/3/29
f 76/1/76 17/2/17 27/3/27
f 124/1/124 67/2/67 32/3/32
f 22/1/22 21/2/21 75/3/75
f 69/1/69 63/2/63 78/3/78
f 70/1/70 61/2/61 81/3/81
f 26/1/26 61/2/61 32/3/32
f 104/1/104 90/2/90 48/3/48
f 26/1/26 125/2/125 83/3/83
f 89/1/89 30/2/30 85/3/85
f 92/1/92 28/2/28 37/3/37
f 95/1/95 25/2/25 35/3/35
f 82/1/82 72/2/72 91/3/91
f 84/1/84 74/2/74 94/3/94
f 86/1/86 77/2/77 97/3/97
f 126/1/126 43/2/43 103/3/103
f 127/1/127 128/2/128 44/3/44
f 41/1/41 47/2/47 129/3/129
f 41/1/41 42/2/42 48/3/48
f 127/1/127 107/2/107 103/3/103
f 127/1/127 38/2/38 45/3/45
f 106/1/106 96/2/96 44/3/44
f 108/1/108 34/2/34 103/3/103
f 102/1/102 40/2/40 105/3/105
f 39/1/39 38/2/38 99/3/99
f 130/1/130 36/2/36 45/3/45
f 101/1/101 88/2/88 110/3/110
# 184 faces, 3 coords texture

# End of File