# https://github.com/mikedh/trimesh

o piece_000.obj
v 0.48848599 0.03266260 0.28414869
v 0.48059815 0.03283839 0.29221392
v 0.48526525 0.03269371 0.29164523
v 0.49331248 0.03246449 0.28418678
v 0.49333960 0.03261010 0.08746743
v 0.49562040 0.03262075 0.25768381
v 0.49341339 0.03242363 -0.14673710
v 0.49321705 0.03228666 -0.26459140
v 0.48373586 0.03207682 -0.29232335
v 0.49089602 0.03167922 -0.29121548
v 0.49327597 0.03221648 0.28761148
v 0.47667709 0.03316183 -0.27681342
v 0.49550042 0.03140917 -0.28654698
v -0.47392389 0.03216434 0.28967306
v -0.49530223 0.03124140 -0.27903381
v -0.49346414 0.03190907 -0.15807670
v -0.49350041 0.03216701 0.28485960
v -0.49339968 0.03211024 0.08871385
v -0.47721907 0.03293684 0.28560627
v 0.47294006 0.03153680 -0.29617053
v 0.48332703 0.03169851 -0.29503414
v -0.47966895 0.03137038 -0.29491198
v -0.48679176 0.03117067 -0.29408368
v -0.48762518 0.03190096 0.28834271
v -0.47711349 0.03332873 0.27828732
v 0.48918048 0.03223987 0.29139358
v -0.47938088 0.03220401 0.28905717
v 0.48943645 0.03127407 -0.29427046
v 0.47930863 0.03214282 0.29550084
v -0.49547696 0.03149242 -0.15346071
v -0.49548748 0.03175703 0.28482753
v -0.47279736 0.03010525 -0.29926991
v 0.47550306 0.03117351 -0.29765588
v 0.49545962 0.03155421 0.28872380
v 0.48462966 0.03187985 0.29523370
v -0.47856233 0.02992737 0.29605985
v 0.48346716 0.03069357 -0.29792264
v -0.48617527 0.02948718 0.29521462
v -0.48189682 0.02943225 -0.29945913
v 0.49011087 0.03060119 0.29561746
v -0.49303082 0.02916061 0.29359379
v 0.49040309 0.02920675 -0.29883701
v 0.48381943 0.03006755 -0.29925197
v -0.48110476 0.02886958 0.29786852
v 0.49383783 0.03043099 0.29315487
v -0.49190131 0.02774248 0.29682258
v 0.47944689 0.03099438 0.29729277
v -0.47479481 0.03505291 -0.27633643
v -0.47626716 0.03489942 -0.27673411
v 0.49516997 0.03006704 0.29221672
v 0.48500133 0.01823058 -0.29942954
v 0.48052534 0.01337481 -0.29942888
v 0.48425776 0.00471317 -0.29920378
v 0.47525367 0.03041583 -0.29922393
v 0.48461899 0.02796190 -0.29937914
v 0.48908257 0.01897587 -0.29906094
v 0.49073541 0.01840402 -0.29876933
v 0.48922354 0.00699332 -0.29843962
v -0.47263029 0.00428961 -0.29916853
v -0.48486853 0.01104592 -0.29986987
v -0.48514456 0.01637958 -0.30000001
v -0.48889193 0.01716857 -0.29993808
v -0.48848790 0.02656771 -0.29963338
v -0.48350534 0.02753377 -0.29983363
v -0.48888016 0.01140114 -0.29961964
v -0.48391372 0.00563465 -0.29958487
v -0.49083397 0.00889569 -0.29911789
v -0.49141109 0.02282473 -0.29925212
v -0.49130026 0.01513746 -0.29932776
v -0.49073386 0.02814796 -0.29894406
v -0.48784328 0.00633672 -0.29907000
v -0.49272725 0.01410569 -0.29829600
v -0.49209476 0.02733066 -0.29800475
v -0.49164534 0.02891071 -0.29733020
v -0.49677172 0.00652450 -0.01138346
v -0.49671030 0.01948646 -0.00040727
v -0.49674395 0.00669385 0.04918979
v -0.49666172 0.01977207 0.04648395
v -0.49657977 0.02800161 0.00033391
v -0.49620116 0.02737953 0.28526628
v -0.49654469 0.02774701 0.04860343
v -0.49663183 0.00636379 -0.05673626
v -0.49566436 0.00372391 -0.28616807
v -0.49607098 0.03071602 0.24645413
v -0.49597594 0.03069029 0.28519797
v -0.49581456 0.02789977 -0.28786802
v -0.49603721 0.03084373 0.19868480
v -0.49583480 0.00630511 -0.28782642
v -0.49602950 0.01926025 -0.28805819
v -0.49646983 0.00287591 0.28545114
v -0.49607822 0.03066143 0.12010593
v -0.49589351 0.01881724 -0.29125631
v -0.49570340 0.00651873 -0.29097953
v -0.49610052 0.01489656 0.28866962
v -0.49619886 0.00310221 0.28847963
v -0.49643132 0.00386302 0.00396433
v -0.49605060 0.00341050 -0.17416652
v -0.49630931 0.00351670 -0.06325074
v -0.49589059 0.03072403 -0.16474093
v -0.49565253 0.03034653 -0.28655249
v -0.49595839 0.02788390 0.28814709
v -0.49550864 0.02794455 -0.29123878
v -0.49611491 0.03043042 -0.00797253
v -0.49547523 0.03085705 0.28857356
v -0.49511933 0.01743455 -0.29475436
v -0.49490312 0.03081429 -0.29067495
v -0.49511352 0.00293266 -0.28974712
v -0.49535346 0.00223785 -0.26011589
v -0.49457082 0.02774895 -0.29449213
v -0.49459898 0.00560537 -0.29496026
v -0.49563798 0.00231505 -0.17407493
v -0.49443558 0.02924330 0.29262006
v -0.49519175 0.01665324 0.29124913
v -0.49595979 0.00143147 0.28505951
v -0.49509403 0.00650304 0.29119980
v -0.49369147 0.02909960 -0.29607227
v -0.49415520 0.00578135 -0.29606539
v -0.49316877 0.02278509 0.29597726
v -0.49308822 0.01537226 0.29622662
v -0.49311906 0.00643547 0.29523164
v -0.49407482 0.00411063 0.29297826
v -0.49392223 0.01423111 -0.29715249
v -0.49365020 0.02098996 -0.29723555
v -0.49315479 0.02721011 0.29540944
v -0.49557725 0.03170345 0.20575498
v -0.49513987 0.03151100 0.28787425
v -0.49500605 0.03103871 -0.28735256
v -0.49205983 0.01529227 0.29746938
v -0.49211895 0.02368300 0.29726443
v 0.49657130 0.00598825 0.04950034
v 0.49661583 0.00600990 -0.00353502
v 0.49665126 0.01054257 -0.00829157
v 0.49659887 0.00619219 -0.04849318
v 0.49677172 0.02799155 -0.04161977
v 0.49676502 0.02803591 0.00444773
v 0.49665859 0.02809435 0.05007826
v 0.49573439 0.00312263 -0.28304979
v 0.49659631 0.03091973 0.05014319
v 0.49665374 0.03088087 -0.03971303
v 0.49668992 0.03084096 0.00592755
v 0.49612084 0.03111618 -0.27446234
v 0.49617422 0.03039963 -0.28588486
v 0.49601135 0.00724428 -0.28610295
v 0.49626932 0.01817090 -0.28624099
v 0.49639288 0.00305326 0.04648974
v 0.49638337 0.00300177 -0.05038304
v 0.49585021 0.00214489 0.27170679
v 0.49594370 0.00263886 0.28372136
v 0.49605033 0.01730630 0.28526437
v 0.49595034 0.00602239 0.28867260
v 0.49601766 0.01607522 0.28897157
v 0.49608257 0.03091483 0.28475571
v 0.49617282 0.03127908 0.22646761
v 0.49595782 0.03064499 0.28816873
v 0.49577123 0.00283039 0.28813866
v 0.49557990 0.01584295 0.29281524
v 0.49543160 0.02753356 0.29219490
v 0.49548981 0.00624569 0.29221803
v 0.49550804 0.00342656 -0.28702009
v 0.49564797 0.01785919 -0.28956401
v 0.49512026 0.00302012 0.29135188
v 0.49525014 0.00644997 -0.28972042
v 0.49529567 0.03016044 -0.28982654
v 0.49434584 0.00277727 -0.29114667
v 0.49531546 0.00191000 -0.27698910
v 0.49460518 0.00711797 0.29531616
v 0.49471101 0.01535815 0.29613382
v 0.49455518 0.02692853 0.29517278
v 0.49407884 0.00476774 -0.29290754
v 0.49533176 0.00199486 0.28855890
v 0.49413776 0.01740762 -0.29405633
v 0.49566898 0.03208593 0.28322431
v 0.49334636 0.02949675 -0.29503214
v 0.49357662 0.01795859 -0.29546204
v 0.49568588 0.03212786 -0.27715504
v 0.49572578 0.03249642 0.19451308
v 0.49402547 0.01405946 0.29769710
v 0.49379835 0.00572109 0.29667345
v 0.49325976 0.00693916 -0.29486370
v 0.49569610 0.00163455 -0.05251790
v 0.49443421 0.03096753 -0.29164964
v 0.49569559 0.03244517 0.08051892
v 0.49192554 0.01430249 -0.29710382
v 0.49167031 0.00709024 -0.29677296
v -0.47171545 0.02203639 0.29927519
v -0.47170690 0.01538762 0.29955608
v -0.48510605 0.02416250 0.29855296
v -0.48944926 0.02337904 0.29826769
v -0.47210073 0.02752719 0.29886952
v -0.48241866 0.02730393 0.29841667
v -0.48443767 0.00611915 0.29926553
v -0.47564131 0.00603196 0.29954529
v -0.47205400 0.00588328 0.29956138
v -0.48892981 0.00626653 0.29863909
v -0.48943442 0.02688814 0.29774332
v -0.48006549 0.00369505 0.29910445
v -0.48483640 0.00374611 0.29883456
v -0.47194541 0.02926369 0.29828829
v -0.49158922 0.00670978 0.29756185
v -0.49102321 0.00446398 0.29738992
v -0.48525688 0.00274740 0.29787001
v 0.48539367 0.01727074 0.29998499
v 0.47917473 0.01706615 0.30000001
v 0.48519549 0.00696311 0.29971445
v 0.48142061 0.00701237 0.29974648
v 0.48922843 0.01558532 0.29975277
v 0.47949386 0.02742267 0.29988346
v 0.48510009 0.02690157 0.29978594
v 0.48877653 0.02647233 0.29942042
v 0.48893595 0.00729060 0.29933283
v 0.48138258 0.00429054 0.29909766
v 0.48504934 0.00439683 0.29896358
v 0.49248496 0.01917967 0.29856661
v 0.49249464 0.01408767 0.29870370
v 0.49222401 0.00787774 0.29823703
v 0.49242511 0.02649929 0.29791352
v 0.48287758 0.02935553 0.29890433
v 0.47330672 0.02969118 0.29866356
v 0.49372768 0.02781991 0.29675326
v 0.48881555 0.02912520 0.29775122
v 0.48574933 0.03066254 0.29711673
v 0.48577285 0.00056770 0.28719482
v 0.49304634 0.00087775 0.28355098
v 0.49337551 0.00066421 0.26173839
v 0.48062956 0.00040327 0.29262871
v 0.49319991 0.00097267 -0.09015232
v 0.48411471 0.00084588 -0.09365372
v 0.49323535 0.00103715 -0.12017043
v 0.48577625 0.00103816 -0.21085294
v 0.49329349 0.00141275 -0.25351840
v 0.49337080 0.00169170 -0.27516124
v 0.47980618 0.00105504 -0.26445580
v 0.48078403 0.00128927 -0.27645132
v 0.48503381 0.00139274 -0.27535069
v 0.49519303 0.00234605 -0.28488299
v 0.48609838 0.00227169 -0.29256347
v 0.48113179 0.00201914 -0.29239643
v 0.46981084 0.00127900 -0.27878273
v 0.49554217 0.00087311 0.26647708
v 0.42580059 0.00146496 -0.28834480
v 0.41538724 0.00161586 -0.29232937
v 0.26584417 0.00153422 -0.29238573
v -0.16771522 0.00162027 -0.29228032
v -0.42414346 0.00173099 -0.29231393
v -0.48054218 0.00173826 -0.29218629
v -0.48645312 0.00166834 -0.28863886
v -0.48934758 0.00145495 -0.27717549
v -0.48958555 0.00140683 -0.25626463
v -0.48926944 0.00105836 -0.10927354
v -0.48929796 0.00079360 0.01568319
v -0.49351823 0.00081485 0.28535455
v -0.47536588 0.00000000 0.28891838
v -0.48520645 0.00034806 0.28887990
v -0.49340838 0.00176844 -0.27739805
v -0.49340898 0.00167977 -0.26238900
v -0.49339718 0.00143124 -0.11031134
v -0.49323189 0.00227045 -0.28791964
v -0.49337026 0.00105018 0.28842852
v -0.48295045 0.00058572 0.29184294
v 0.49324080 0.00133285 0.28754103
v 0.48242784 0.00249292 -0.29551911
v 0.49556181 0.00119399 0.28247908
v -0.47507879 0.00043439 0.29188389
v 0.49538314 0.00160954 -0.17636813
v -0.47330037 0.00055740 -0.27868360
v 0.49552304 0.00148537 -0.09327666
v 0.26495081 0.00197733 -0.29422024
v -0.49542874 0.00234436 -0.27881530
v -0.48018241 0.00159355 0.29591036
v -0.49566495 0.00181703 0.28852633
v -0.48447025 0.00185513 0.29576507
v -0.48955029 0.00322929 0.29633072
v -0.48050186 0.00263236 0.29823315
v 0.48552644 0.00256004 0.29738137
v 0.48482367 0.00143105 0.29551953
v 0.48862565 0.00452121 0.29788604
v 0.48487934 0.00065347 0.29225951
v 0.48104253 0.00087970 0.29573473
v 0.48129699 0.00225836 0.29777655
v -0.47978115 0.00366510 -0.29791746
v -0.48011816 0.00234012 -0.29502258
v -0.48526296 0.00277082 -0.29536772
v -0.48562667 0.00186213 -0.29195407
v -0.49266043 0.00304517 -0.29281905
v -0.49410856 0.00299638 -0.29151678
v -0.48922276 0.00355084 -0.29534453
v -0.48780814 0.00507937 -0.29799673
v -0.47895092 0.00509159 -0.29973590
v -0.47535568 0.00475322 -0.29955181
v 0.47323248 0.00268115 -0.29670116
v 0.47491416 0.00361748 -0.29922825
v 0.48116365 0.00310048 -0.29754660
v 0.49019417 0.00278169 -0.29430950
v 0.47989267 0.00415664 -0.29935750
v 0.48708960 0.00526295 -0.29888901
v 0.49131951 0.00494731 -0.29640070
f 232 265 238
f 12 9 48
f 48 2 12
f 2 6 12
f 99 125 30
f 233 238 237
f 233 232 238
f 25 2 48
f 19 2 25
f 90 77 75
f 9 12 175
f 9 175 10
f 30 125 18
f 283 265 246
f 15 99 30
f 238 265 240
f 265 241 240
f 237 238 240
f 240 241 237
f 242 241 265
f 19 25 17
f 17 25 48
f 48 49 17
f 49 18 17
f 47 198 218
f 14 2 19
f 29 198 47
f 2 14 29
f 29 14 198
f 152 153 6
f 6 175 7
f 134 142 139
f 13 175 142
f 13 10 175
f 30 18 16
f 16 18 49
f 16 15 30
f 49 15 16
f 127 49 106
f 127 15 49
f 77 90 78
f 64 55 61
f 9 10 21
f 48 9 21
f 52 294 61
f 294 52 51
f 61 55 51
f 51 52 61
f 28 21 10
f 37 21 28
f 23 116 106
f 106 49 23
f 23 49 48
f 48 22 23
f 231 230 232
f 278 279 273
f 96 90 75
f 75 98 96
f 96 98 90
f 268 111 97
f 97 111 98
f 97 98 75
f 47 218 217
f 217 198 207
f 217 218 198
f 262 239 148
f 1 6 2
f 134 139 140
f 140 176 6
f 140 139 176
f 5 12 6
f 6 7 5
f 5 7 12
f 8 175 12
f 12 7 8
f 8 7 175
f 182 175 6
f 6 176 182
f 182 139 175
f 176 139 182
f 142 175 141
f 141 139 142
f 175 139 141
f 143 160 144
f 144 160 142
f 144 142 134
f 134 133 144
f 144 133 143
f 171 169 174
f 162 160 143
f 162 171 160
f 169 171 162
f 57 174 183
f 183 184 57
f 174 184 183
f 174 169 179
f 179 184 174
f 179 169 296
f 296 184 179
f 284 282 283
f 286 282 284
f 86 89 79
f 75 89 82
f 82 89 88
f 82 97 75
f 88 97 82
f 99 79 103
f 75 77 76
f 77 78 76
f 76 89 75
f 79 89 76
f 80 78 90
f 296 169 164
f 169 162 164
f 294 292 291
f 32 54 39
f 39 54 64
f 39 22 32
f 39 23 22
f 122 105 123
f 32 22 33
f 33 54 32
f 33 21 37
f 56 51 55
f 57 295 56
f 43 33 37
f 54 33 43
f 55 64 43
f 64 54 43
f 173 171 174
f 232 233 234
f 234 231 232
f 234 233 237
f 237 231 234
f 223 239 262
f 262 260 223
f 265 232 227
f 232 230 229
f 229 227 232
f 226 227 229
f 224 226 239
f 224 223 222
f 239 223 224
f 208 206 209
f 208 217 207
f 209 217 208
f 90 98 114
f 98 111 114
f 114 111 268
f 268 108 114
f 268 97 83
f 83 97 88
f 220 217 209
f 203 193 205
f 198 14 36
f 147 148 239
f 172 152 6
f 177 178 166
f 152 172 154
f 151 152 154
f 153 152 138
f 6 153 138
f 138 140 6
f 58 184 296
f 296 295 58
f 57 184 58
f 58 295 57
f 283 246 257
f 286 284 117
f 117 105 122
f 61 294 288
f 288 291 289
f 294 291 288
f 65 66 67
f 62 64 61
f 67 69 62
f 62 65 67
f 72 69 67
f 72 117 122
f 67 117 72
f 122 123 72
f 99 15 100
f 100 79 99
f 100 86 79
f 15 127 100
f 100 127 106
f 88 89 92
f 89 86 92
f 79 84 91
f 91 103 79
f 78 80 81
f 79 76 81
f 81 76 78
f 81 84 79
f 81 80 84
f 84 80 85
f 94 80 90
f 53 292 294
f 294 51 53
f 51 56 53
f 53 56 295
f 292 53 293
f 296 164 293
f 293 295 296
f 293 53 295
f 159 162 143
f 159 164 162
f 159 235 164
f 289 291 59
f 59 288 289
f 116 23 74
f 23 39 74
f 70 116 74
f 74 39 70
f 73 116 70
f 73 123 116
f 20 33 22
f 21 33 20
f 20 22 48
f 48 21 20
f 37 28 42
f 42 43 37
f 55 43 42
f 57 56 42
f 42 56 55
f 42 174 57
f 42 173 174
f 10 13 181
f 181 28 10
f 181 13 142
f 181 42 28
f 173 42 181
f 277 223 260
f 228 229 230
f 226 229 228
f 259 253 252
f 252 263 259
f 258 253 259
f 259 271 258
f 206 208 202
f 203 205 202
f 202 207 203
f 202 208 207
f 258 271 201
f 129 188 46
f 265 252 250
f 252 253 250
f 27 36 14
f 27 14 19
f 38 36 126
f 278 277 275
f 212 211 279
f 132 133 134
f 131 133 132
f 149 152 151
f 148 130 149
f 150 149 151
f 148 149 150
f 151 154 156
f 156 154 157
f 156 150 151
f 158 150 156
f 166 178 161
f 161 158 166
f 4 172 6
f 11 172 4
f 6 1 4
f 216 209 213
f 209 206 213
f 178 177 215
f 140 138 135
f 134 140 135
f 135 138 152
f 135 132 134
f 135 130 131
f 131 132 135
f 105 117 110
f 67 66 71
f 71 117 67
f 66 288 280
f 288 59 280
f 280 59 291
f 64 62 63
f 70 39 63
f 63 39 64
f 66 65 60
f 65 62 60
f 60 288 66
f 61 288 60
f 60 62 61
f 102 92 86
f 102 100 106
f 86 100 102
f 105 92 102
f 87 84 125
f 87 91 84
f 125 99 87
f 99 103 87
f 103 91 87
f 31 126 17
f 125 84 31
f 84 85 31
f 31 18 125
f 31 17 18
f 95 94 90
f 90 114 95
f 80 94 101
f 101 85 80
f 292 293 261
f 237 241 261
f 164 235 236
f 236 293 164
f 236 231 237
f 236 235 231
f 237 261 236
f 236 261 293
f 230 231 165
f 231 235 165
f 290 291 292
f 292 261 290
f 290 261 241
f 241 242 290
f 242 267 290
f 123 73 68
f 69 72 68
f 68 72 123
f 68 73 70
f 68 62 69
f 70 63 68
f 68 63 62
f 142 160 163
f 163 181 142
f 173 181 163
f 160 171 163
f 171 173 163
f 222 223 225
f 223 277 225
f 225 277 278
f 225 224 222
f 225 252 265
f 265 227 225
f 225 263 252
f 278 263 225
f 225 227 226
f 226 224 225
f 269 259 263
f 271 259 269
f 269 278 273
f 269 263 278
f 273 201 269
f 269 201 271
f 46 188 195
f 188 190 195
f 198 190 189
f 207 198 189
f 189 185 207
f 187 190 188
f 188 191 187
f 185 189 187
f 187 189 190
f 194 191 188
f 199 200 194
f 207 185 186
f 185 187 186
f 186 187 191
f 203 207 186
f 186 193 203
f 273 279 196
f 279 211 196
f 196 205 193
f 211 205 196
f 11 4 3
f 2 29 3
f 29 35 3
f 3 1 2
f 3 4 1
f 126 36 24
f 36 27 24
f 17 126 24
f 19 17 24
f 24 27 19
f 46 38 41
f 41 38 126
f 44 38 46
f 36 38 44
f 198 36 44
f 44 190 198
f 46 195 44
f 44 195 190
f 204 205 211
f 211 212 204
f 206 202 204
f 204 202 205
f 170 260 262
f 170 161 275
f 170 277 260
f 170 275 277
f 155 150 158
f 158 161 155
f 161 170 155
f 148 150 155
f 262 148 155
f 155 170 262
f 274 161 178
f 275 161 274
f 178 276 274
f 279 278 274
f 278 275 274
f 274 212 279
f 274 276 212
f 167 168 177
f 167 177 166
f 167 156 157
f 157 168 167
f 166 158 167
f 158 156 167
f 177 213 214
f 214 215 177
f 214 213 206
f 35 40 26
f 11 3 26
f 26 3 35
f 221 40 35
f 47 217 221
f 217 220 221
f 220 40 221
f 221 29 47
f 221 35 29
f 152 149 136
f 136 135 152
f 136 149 130
f 130 135 136
f 93 92 105
f 105 110 93
f 88 92 93
f 93 83 88
f 285 117 284
f 285 284 283
f 283 257 285
f 286 117 287
f 117 71 287
f 287 71 66
f 287 282 286
f 287 280 282
f 66 280 287
f 105 102 109
f 116 123 109
f 109 123 105
f 106 116 109
f 109 102 106
f 121 200 199
f 85 101 104
f 126 31 104
f 104 31 85
f 264 228 230
f 230 165 264
f 226 228 264
f 235 159 137
f 137 165 235
f 137 159 143
f 281 280 291
f 291 290 281
f 282 280 281
f 281 290 267
f 283 282 281
f 281 267 242
f 258 201 272
f 201 200 272
f 188 129 128
f 128 194 188
f 199 194 128
f 128 119 199
f 129 119 128
f 197 200 201
f 197 194 200
f 197 201 273
f 273 196 197
f 191 194 197
f 197 196 191
f 193 186 192
f 192 186 191
f 192 196 193
f 191 196 192
f 258 114 251
f 251 256 250
f 251 253 258
f 251 250 253
f 255 114 108
f 255 251 114
f 256 251 255
f 250 256 255
f 255 108 268
f 210 204 212
f 212 276 210
f 206 204 210
f 178 215 210
f 210 276 178
f 210 214 206
f 215 214 210
f 157 154 50
f 50 168 157
f 40 45 34
f 34 26 40
f 11 26 34
f 45 50 34
f 34 172 11
f 34 154 172
f 34 50 154
f 83 93 107
f 107 93 110
f 268 83 107
f 107 110 117
f 117 285 107
f 107 257 268
f 107 285 257
f 118 119 129
f 95 121 115
f 115 119 95
f 239 226 266
f 226 264 266
f 266 264 165
f 283 281 245
f 245 281 244
f 245 265 283
f 243 281 242
f 244 281 243
f 243 242 265
f 265 245 243
f 243 245 244
f 258 272 270
f 270 272 200
f 200 121 270
f 270 121 95
f 270 114 258
f 270 95 114
f 268 257 254
f 254 255 268
f 254 257 246
f 219 50 45
f 219 45 40
f 168 50 219
f 219 40 220
f 177 168 219
f 219 209 216
f 219 220 209
f 216 213 219
f 219 213 177
f 119 118 113
f 94 95 113
f 95 119 113
f 112 104 101
f 112 113 118
f 112 101 94
f 94 113 112
f 46 41 112
f 112 41 126
f 126 104 112
f 120 115 121
f 119 115 120
f 120 121 199
f 199 119 120
f 165 137 146
f 146 133 131
f 143 133 146
f 146 137 143
f 250 255 249
f 255 248 249
f 265 250 249
f 249 248 265
f 247 248 255
f 255 254 247
f 265 248 247
f 247 246 265
f 247 254 246
f 46 112 124
f 124 112 118
f 124 129 46
f 124 118 129
f 145 147 239
f 239 146 145
f 148 147 145
f 145 130 148
f 131 130 145
f 145 146 131
f 239 266 180
f 180 146 239
f 180 266 165
f 165 146 180

