####
#
# OBJ File Generated by Meshlab
#
####
# Object torsoyaw.obj
#
# Vertices: 221
# Faces: 320
#
####
mtllib ./torsoyaw.obj.mtl

vn -0.082740 0.477507 -0.874724
v 0.000000 0.022895 -0.091192
vn 0.129211 0.970622 -0.202971
v 0.000000 0.032931 -0.083584
vn 0.118676 0.168424 -0.978545
v 0.016189 0.016189 -0.091192
vn 0.777699 0.594968 -0.202971
v 0.023286 0.023286 -0.083584
vn -0.159166 0.159166 -0.974337
v -0.016189 0.016189 -0.091192
vn -0.605497 0.757651 -0.243597
v -0.023286 0.023286 -0.083584
vn 0.458818 0.536055 -0.708612
v 0.023286 0.023286 -0.047302
vn -0.054615 0.703482 -0.708612
v 0.000000 0.032931 -0.047302
vn -0.536055 0.458818 -0.708612
v -0.023286 0.023286 -0.047302
vn 0.323635 0.305899 -0.895369
v 0.046735 0.046735 -0.041544
vn 0.033613 0.485839 -0.873402
v 0.000000 0.066093 -0.041544
vn -0.319772 0.367308 -0.873402
v -0.046735 0.046735 -0.041544
vn 0.447992 0.821028 0.353859
v 0.046735 0.046735 -0.030978
vn 0.014810 0.894619 0.446585
v 0.000000 0.066093 -0.030978
vn -0.622119 0.643063 0.446585
v -0.046735 0.046735 -0.030978
vn 0.313740 0.869949 0.380468
v 0.036469 0.036469 -0.013295
vn -0.006067 0.929748 0.368146
v 0.000000 0.051575 -0.013295
vn -0.661721 0.653141 0.368147
v -0.036469 0.036469 -0.013295
vn 0.200986 0.963632 0.176121
v 0.036469 0.036469 0.007469
vn -0.098878 0.716138 0.690919
v 0.000000 0.051575 0.007469
vn -0.340669 0.258009 0.904088
v -0.036469 0.036469 0.007469
vn 0.396682 0.917882 -0.011679
v 0.056908 0.036469 -0.013295
vn 0.800704 -0.599058 -0.001336
v 0.056908 0.021741 -0.013295
vn 0.937604 0.213006 0.274823
v 0.057124 0.021654 -0.030978
vn 0.573509 0.815574 0.076984
v 0.051252 0.035830 -0.030978
vn 0.912446 -0.223846 0.342542
v 0.042570 0.021741 -0.013295
vn 0.089183 -0.055729 0.994455
v 0.042659 0.021525 0.007469
vn 0.638100 -0.769939 -0.004638
v 0.056908 0.021525 0.007469
vn 0.754448 0.656360 0.000000
v 0.056908 0.036469 0.007469
vn 0.968438 0.196739 -0.153040
v 0.056908 0.035830 -0.030978
vn -0.189770 -0.440509 0.877462
v 0.042659 0.021525 0.014971
vn -0.515375 0.491429 0.702059
v 0.036469 0.036469 0.014971
vn 0.685315 -0.326736 0.650835
v 0.056908 0.021525 0.014971
vn 0.203067 0.277745 0.938947
v 0.056908 0.036469 0.014971
vn -0.000000 -0.413712 -0.910408
v 0.000000 -0.022895 -0.091192
vn 0.107589 -0.963891 -0.243597
v 0.000000 -0.032931 -0.083584
vn 0.180813 -0.256607 -0.949452
v 0.016189 -0.016189 -0.091192
vn 0.777699 -0.594968 -0.202971
v 0.023286 -0.023286 -0.083584
vn -0.162803 0.028210 -0.986255
v -0.022895 0.000000 -0.091192
vn -0.986842 -0.013054 -0.161159
v -0.032931 0.000000 -0.083584
vn -0.180506 -0.180506 -0.966869
v -0.016189 -0.016189 -0.091192
vn -0.609133 -0.777051 -0.158582
v -0.023286 -0.023286 -0.083584
vn 0.458818 -0.536055 -0.708612
v 0.023286 -0.023286 -0.047302
vn -0.061056 -0.582895 -0.810250
v 0.000000 -0.032931 -0.047302
vn -0.473430 0.000000 -0.880832
v -0.032931 0.000000 -0.047302
vn -0.692505 -0.538768 -0.479757
v -0.023286 -0.023286 -0.047302
vn 0.323635 -0.305899 -0.895369
v 0.046735 -0.046735 -0.041544
vn 0.055205 -0.545088 -0.836560
v 0.000000 -0.066093 -0.041544
vn -0.629843 0.000000 -0.776723
v -0.066093 0.000000 -0.041544
vn -0.284327 -0.340160 -0.896354
v -0.046735 -0.046735 -0.041544
vn 0.447992 -0.821028 0.353859
v 0.046735 -0.046735 -0.030978
vn 0.014810 -0.894619 0.446585
v 0.000000 -0.066093 -0.030978
vn -0.851908 0.000000 0.523691
v -0.066093 0.000000 -0.030978
vn -0.622119 -0.643063 0.446585
v -0.046735 -0.046735 -0.030978
vn 0.313740 -0.869949 0.380468
v 0.036469 -0.036469 -0.013295
vn -0.006067 -0.929748 0.368146
v 0.000000 -0.051575 -0.013295
vn -0.971231 0.000000 0.238140
v -0.051575 0.000000 -0.013295
vn -0.661721 -0.653141 0.368147
v -0.036469 -0.036469 -0.013295
vn 0.200986 -0.963632 0.176121
v 0.036469 -0.036469 0.007469
vn -0.098878 -0.716138 0.690919
v 0.000000 -0.051575 0.007469
vn -0.140617 0.000000 0.990064
v -0.051575 0.000000 0.007469
vn -0.340669 -0.258009 0.904088
v -0.036469 -0.036469 0.007469
vn 0.974840 0.000000 -0.222908
v 0.032931 0.000000 -0.083584
vn 0.209803 0.000000 -0.977744
v 0.022895 0.000000 -0.091192
vn 0.920858 0.000000 -0.389898
v 0.032931 0.000000 -0.047302
vn 0.436268 -0.000000 -0.899817
v 0.066093 0.000000 -0.041544
vn 0.889412 0.000000 0.457106
v 0.066093 0.000000 -0.030978
vn 0.935334 -0.000000 0.353766
v 0.051575 0.000000 -0.013295
vn 0.197345 0.000000 0.980334
v 0.051575 0.000000 0.007469
vn 0.396682 -0.917882 -0.011679
v 0.056908 -0.036469 -0.013295
vn 0.800704 0.599058 -0.001336
v 0.056908 -0.021741 -0.013295
vn 0.937604 -0.213006 0.274823
v 0.057124 -0.021654 -0.030978
vn 0.573509 -0.815574 0.076984
v 0.051252 -0.035830 -0.030978
vn 0.912446 0.223846 0.342542
v 0.042570 -0.021741 -0.013295
vn 0.089183 0.055729 0.994455
v 0.042659 -0.021525 0.007469
vn 0.638100 0.769940 -0.004638
v 0.056908 -0.021525 0.007469
vn 0.754448 -0.656360 0.000000
v 0.056908 -0.036469 0.007469
vn 0.968438 -0.196739 -0.153040
v 0.056908 -0.035830 -0.030978
vn -0.189770 0.440509 0.877462
v 0.042659 -0.021525 0.014971
vn -0.515375 -0.491429 0.702059
v 0.036469 -0.036469 0.014971
vn 0.685315 0.326736 0.650835
v 0.056908 -0.021525 0.014971
vn 0.203067 -0.277745 0.938947
v 0.056908 -0.036469 0.014971
vn 0.777699 0.594968 -0.202971
v 0.023286 0.023286 -0.083584
vn 0.129211 0.970622 -0.202971
v 0.000000 0.032931 -0.083584
vn -0.605497 0.757651 -0.243597
v -0.023286 0.023286 -0.083584
vn -0.986842 -0.013054 -0.161159
v -0.032931 0.000000 -0.083584
vn -0.536055 0.458818 -0.708612
v -0.023286 0.023286 -0.047302
vn -0.054615 0.703482 -0.708612
v 0.000000 0.032931 -0.047302
vn -0.054615 0.703482 -0.708612
v 0.000000 0.032931 -0.047302
vn 0.458818 0.536055 -0.708612
v 0.023286 0.023286 -0.047302
vn -0.536055 0.458818 -0.708612
v -0.023286 0.023286 -0.047302
vn 0.033613 0.485839 -0.873402
v 0.000000 0.066093 -0.041544
vn 0.458818 0.536055 -0.708612
v 0.023286 0.023286 -0.047302
vn 0.323635 0.305899 -0.895369
v 0.046735 0.046735 -0.041544
vn -0.473430 0.000000 -0.880832
v -0.032931 0.000000 -0.047302
vn -0.629843 0.000000 -0.776723
v -0.066093 0.000000 -0.041544
vn -0.319772 0.367308 -0.873402
v -0.046735 0.046735 -0.041544
vn 0.033613 0.485839 -0.873402
v 0.000000 0.066093 -0.041544
vn -0.319772 0.367308 -0.873402
v -0.046735 0.046735 -0.041544
vn -0.622119 0.643063 0.446585
v -0.046735 0.046735 -0.030978
vn 0.014810 0.894619 0.446585
v 0.000000 0.066093 -0.030978
vn -0.851908 0.000000 0.523691
v -0.066093 0.000000 -0.030978
vn -0.661721 0.653141 0.368147
v -0.036469 0.036469 -0.013295
vn 0.014810 0.894619 0.446585
v 0.000000 0.066093 -0.030978
vn 0.313740 0.869949 0.380468
v 0.036469 0.036469 -0.013295
vn -0.622119 0.643063 0.446585
v -0.046735 0.046735 -0.030978
vn -0.661721 0.653141 0.368147
v -0.036469 0.036469 -0.013295
vn -0.006067 0.929748 0.368146
v 0.000000 0.051575 -0.013295
vn 0.754448 0.656360 0.000000
v 0.056908 0.036469 0.007469
vn -0.971231 0.000000 0.238140
v -0.051575 0.000000 -0.013295
vn -0.340669 0.258009 0.904088
v -0.036469 0.036469 0.007469
vn -0.006067 0.929748 0.368146
v 0.000000 0.051575 -0.013295
vn -0.098878 0.716138 0.690919
v 0.000000 0.051575 0.007469
vn 0.200986 0.963632 0.176121
v 0.036469 0.036469 0.007469
vn -0.140617 0.000000 0.990064
v -0.051575 0.000000 0.007469
vn 0.118676 0.168424 -0.978545
v 0.016189 0.016189 -0.091192
vn -0.162803 0.028210 -0.986255
v -0.022895 0.000000 -0.091192
vn 0.436268 -0.000000 -0.899817
v 0.066093 0.000000 -0.041544
vn 0.200986 0.963632 0.176121
v 0.036469 0.036469 0.007469
vn 0.754448 0.656360 0.000000
v 0.056908 0.036469 0.007469
vn 0.396682 0.917882 -0.011679
v 0.056908 0.036469 -0.013295
vn 0.800704 -0.599058 -0.001336
v 0.056908 0.021741 -0.013295
vn 0.089183 -0.055729 0.994455
v 0.042659 0.021525 0.007469
vn 0.937604 0.213006 0.274823
v 0.057124 0.021654 -0.030978
vn 0.935334 -0.000000 0.353766
v 0.051575 0.000000 -0.013295
vn 0.573509 0.815574 0.076984
v 0.051252 0.035830 -0.030978
vn 0.313740 0.869949 0.380468
v 0.036469 0.036469 -0.013295
vn 0.203067 0.277745 0.938947
v 0.056908 0.036469 0.014971
vn 0.685315 -0.326736 0.650835
v 0.056908 0.021525 0.014971
vn -0.189770 -0.440509 0.877462
v 0.042659 0.021525 0.014971
vn -0.189770 -0.440509 0.877462
v 0.042659 0.021525 0.014971
vn 0.968438 0.196739 -0.153040
v 0.056908 0.035830 -0.030978
vn 0.912446 -0.223846 0.342542
v 0.042570 0.021741 -0.013295
vn 0.937604 0.213006 0.274823
v 0.057124 0.021654 -0.030978
vn 0.209803 0.000000 -0.977744
v 0.022895 0.000000 -0.091192
vn 0.777699 -0.594968 -0.202971
v 0.023286 -0.023286 -0.083584
vn -0.986842 -0.013054 -0.161159
v -0.032931 0.000000 -0.083584
vn 0.920858 0.000000 -0.389898
v 0.032931 0.000000 -0.047302
vn -0.061056 -0.582895 -0.810250
v 0.000000 -0.032931 -0.047302
vn -0.692505 -0.538768 -0.479757
v -0.023286 -0.023286 -0.047302
vn -0.609133 -0.777051 -0.158582
v -0.023286 -0.023286 -0.083584
vn 0.458818 -0.536055 -0.708612
v 0.023286 -0.023286 -0.047302
vn -0.061056 -0.582895 -0.810250
v 0.000000 -0.032931 -0.047302
vn -0.629843 0.000000 -0.776723
v -0.066093 0.000000 -0.041544
vn 0.323635 -0.305899 -0.895369
v 0.046735 -0.046735 -0.041544
vn 0.458818 -0.536055 -0.708612
v 0.023286 -0.023286 -0.047302
vn -0.284327 -0.340160 -0.896354
v -0.046735 -0.046735 -0.041544
vn -0.473430 0.000000 -0.880832
v -0.032931 0.000000 -0.047302
vn 0.447992 -0.821028 0.353859
v 0.046735 -0.046735 -0.030978
vn 0.055205 -0.545088 -0.836560
v 0.000000 -0.066093 -0.041544
vn 0.014810 -0.894619 0.446585
v 0.000000 -0.066093 -0.030978
vn -0.622119 -0.643063 0.446585
v -0.046735 -0.046735 -0.030978
vn -0.661721 -0.653141 0.368147
v -0.036469 -0.036469 -0.013295
vn -0.851908 0.000000 0.523691
v -0.066093 0.000000 -0.030978
vn 0.014810 -0.894619 0.446585
v 0.000000 -0.066093 -0.030978
vn -0.006067 -0.929748 0.368146
v 0.000000 -0.051575 -0.013295
vn -0.661721 -0.653141 0.368147
v -0.036469 -0.036469 -0.013295
vn -0.622119 -0.643063 0.446585
v -0.046735 -0.046735 -0.030978
vn 0.754448 -0.656360 0.000000
v 0.056908 -0.036469 0.007469
vn -0.340669 -0.258009 0.904088
v -0.036469 -0.036469 0.007469
vn -0.971231 0.000000 0.238140
v -0.051575 0.000000 -0.013295
vn -0.098878 -0.716138 0.690919
v 0.000000 -0.051575 0.007469
vn -0.006067 -0.929748 0.368146
v 0.000000 -0.051575 -0.013295
vn -0.340669 -0.258009 0.904088
v -0.036469 -0.036469 0.007469
vn -0.180506 -0.180506 -0.966869
v -0.016189 -0.016189 -0.091192
vn 0.754448 -0.656360 0.000000
v 0.056908 -0.036469 0.007469
vn 0.200986 -0.963632 0.176121
v 0.036469 -0.036469 0.007469
vn 0.089183 0.055729 0.994455
v 0.042659 -0.021525 0.007469
vn 0.800704 0.599058 -0.001336
v 0.056908 -0.021741 -0.013295
vn 0.089183 0.055729 0.994455
v 0.042659 -0.021525 0.007469
vn 0.937604 -0.213006 0.274823
v 0.057124 -0.021654 -0.030978
vn 0.573509 -0.815574 0.076984
v 0.051252 -0.035830 -0.030978
vn 0.396682 -0.917882 -0.011679
v 0.056908 -0.036469 -0.013295
vn 0.203067 -0.277745 0.938947
v 0.056908 -0.036469 0.014971
vn 0.685315 0.326736 0.650835
v 0.056908 -0.021525 0.014971
vn -0.515375 -0.491429 0.702059
v 0.036469 -0.036469 0.014971
vn -0.189770 0.440509 0.877462
v 0.042659 -0.021525 0.014971
vn -0.189770 0.440509 0.877462
v 0.042659 -0.021525 0.014971
vn 0.638100 0.769940 -0.004638
v 0.056908 -0.021525 0.007469
vn 0.396682 -0.917882 -0.011679
v 0.056908 -0.036469 -0.013295
vn 0.968438 -0.196739 -0.153040
v 0.056908 -0.035830 -0.030978
vn 0.937604 -0.213006 0.274823
v 0.057124 -0.021654 -0.030978
vn 0.912446 0.223846 0.342542
v 0.042570 -0.021741 -0.013295
vn 0.800704 0.599058 -0.001336
v 0.056908 -0.021741 -0.013295
vn -0.082740 0.477507 -0.874724
v 0.000000 0.022895 -0.091192
vn 0.118676 0.168424 -0.978545
v 0.016189 0.016189 -0.091192
vn -0.605497 0.757651 -0.243597
v -0.023286 0.023286 -0.083584
vn -0.162803 0.028210 -0.986255
v -0.022895 0.000000 -0.091192
vn 0.974840 0.000000 -0.222908
v 0.032931 0.000000 -0.083584
vn 0.323635 0.305899 -0.895369
v 0.046735 0.046735 -0.041544
vn 0.800704 -0.599058 -0.001336
v 0.056908 0.021741 -0.013295
vn 0.447992 0.821028 0.353859
v 0.046735 0.046735 -0.030978
vn 0.203067 0.277745 0.938947
v 0.056908 0.036469 0.014971
vn -0.098878 0.716138 0.690919
v 0.000000 0.051575 0.007469
vn 0.089183 -0.055729 0.994455
v 0.042659 0.021525 0.007469
vn 0.197345 0.000000 0.980334
v 0.051575 0.000000 0.007469
vn -0.159166 0.159166 -0.974337
v -0.016189 0.016189 -0.091192
vn 0.209803 0.000000 -0.977744
v 0.022895 0.000000 -0.091192
vn 0.197345 0.000000 0.980334
v 0.051575 0.000000 0.007469
vn 0.935334 -0.000000 0.353766
v 0.051575 0.000000 -0.013295
vn 0.889412 0.000000 0.457106
v 0.066093 0.000000 -0.030978
vn -0.515375 0.491429 0.702059
v 0.036469 0.036469 0.014971
vn 0.638100 -0.769939 -0.004638
v 0.056908 0.021525 0.007469
vn 0.968438 0.196739 -0.153040
v 0.056908 0.035830 -0.030978
vn -0.000000 -0.413712 -0.910408
v 0.000000 -0.022895 -0.091192
vn 0.180813 -0.256607 -0.949452
v 0.016189 -0.016189 -0.091192
vn -0.609133 -0.777051 -0.158582
v -0.023286 -0.023286 -0.083584
vn 0.920858 0.000000 -0.389898
v 0.032931 0.000000 -0.047302
vn 0.107589 -0.963891 -0.243597
v 0.000000 -0.032931 -0.083584
vn 0.777699 -0.594968 -0.202971
v 0.023286 -0.023286 -0.083584
vn 0.436268 -0.000000 -0.899817
v 0.066093 0.000000 -0.041544
vn -0.284327 -0.340160 -0.896354
v -0.046735 -0.046735 -0.041544
vn 0.055205 -0.545088 -0.836560
v 0.000000 -0.066093 -0.041544
vn 0.313740 -0.869949 0.380468
v 0.036469 -0.036469 -0.013295
vn 0.200986 -0.963632 0.176121
v 0.036469 -0.036469 0.007469
vn -0.140617 0.000000 0.990064
v -0.051575 0.000000 0.007469
vn -0.000000 -0.413712 -0.910408
v 0.000000 -0.022895 -0.091192
vn 0.573509 -0.815574 0.076984
v 0.051252 -0.035830 -0.030978
vn 0.447992 -0.821028 0.353859
v 0.046735 -0.046735 -0.030978
vn 0.638100 0.769940 -0.004638
v 0.056908 -0.021525 0.007469
vn -0.515375 -0.491429 0.702059
v 0.036469 -0.036469 0.014971
# 221 vertices, 0 vertices normals


usemtl material_0
vt 0.000000 0.000000
vt 1.000000 0.000000
vt 1.000000 1.000000
f 2/1/2 4/2/4 3/3/3
f 83/1/83 63/2/63 64/3/64
f 6/1/6 84/2/84 1/3/1
f 39/1/39 40/2/40 85/3/85
f 8/1/8 11/2/11 10/3/10
f 86/1/86 45/2/45 9/3/9
f 83/1/83 7/2/7 65/3/65
f 6/1/6 87/2/87 88/3/88
f 2/1/2 89/2/89 90/3/90
f 49/1/49 53/2/53 15/3/15
f 91/1/91 12/2/12 92/3/92
f 93/1/93 94/2/94 66/3/66
f 95/1/95 96/2/96 97/3/97
f 16/1/16 25/2/25 13/3/13
f 98/1/98 14/2/14 13/3/13
f 99/1/99 100/2/100 101/3/101
f 23/1/23 22/2/22 29/3/29
f 18/1/18 21/2/21 20/3/20
f 102/1/102 57/2/57 103/3/103
f 104/1/104 17/2/17 105/3/105
f 106/1/106 107/2/107 108/3/108
f 109/1/109 19/2/19 32/3/32
f 110/1/110 61/2/61 111/3/111
f 112/1/112 113/2/113 114/3/114
f 27/1/27 21/2/21 115/3/115
f 5/1/5 116/2/116 117/3/117
f 118/1/118 94/2/94 24/3/24
f 119/1/119 120/2/120 121/3/121
f 27/1/27 26/2/26 122/3/122
f 68/1/68 26/2/26 123/3/123
f 124/1/124 26/2/26 125/3/125
f 126/1/126 127/2/127 121/3/121
f 31/1/31 33/2/33 34/3/34
f 109/1/109 128/2/128 129/3/129
f 27/1/27 130/2/130 32/3/32
f 28/1/28 33/2/33 131/3/131
f 30/1/30 22/2/22 122/3/122
f 124/1/124 25/2/25 132/3/132
f 133/1/133 134/2/134 122/3/122
f 37/1/37 38/2/38 36/3/36
f 135/1/135 63/2/63 136/3/136
f 41/1/41 35/2/35 36/3/36
f 41/1/41 42/2/42 137/3/137
f 47/1/47 48/2/48 44/3/44
f 46/1/46 45/2/45 137/3/137
f 138/1/138 43/2/43 136/3/136
f 139/1/139 140/2/140 141/3/141
f 142/1/142 143/2/143 36/3/36
f 54/1/54 53/2/53 144/3/144
f 139/1/139 48/2/48 50/3/50
f 118/1/118 145/2/145 146/3/146
f 147/1/147 96/2/96 148/3/148
f 55/1/55 51/2/51 73/3/73
f 149/1/149 52/2/52 150/3/150
f 151/1/151 152/2/152 50/3/50
f 71/1/71 76/2/76 77/3/77
f 60/1/60 62/2/62 58/3/58
f 153/1/153 57/2/57 154/3/154
f 55/1/55 56/2/56 155/3/155
f 156/1/156 157/2/157 158/3/158
f 159/1/159 82/2/82 80/3/80
f 160/1/160 61/2/61 161/3/161
f 59/1/59 162/2/162 163/3/163
f 60/1/60 75/2/75 164/3/164
f 37/1/37 165/2/165 64/3/64
f 47/1/47 72/2/72 73/3/73
f 70/1/70 166/2/166 167/3/167
f 168/1/168 76/2/76 169/3/169
f 68/1/68 69/2/69 170/3/170
f 68/1/68 74/2/74 171/3/171
f 172/1/172 78/2/78 173/3/173
f 174/1/174 81/2/81 79/3/79
f 175/1/175 82/2/82 77/3/77
f 176/1/176 177/2/177 170/3/170
f 178/1/178 81/2/81 179/3/179
f 71/1/71 180/2/180 181/3/181
f 182/1/182 78/2/78 73/3/73
f 183/1/183 184/2/184 171/3/171
f 185/1/185 84/2/84 3/3/3
f 186/1/186 4/2/4 64/3/64
f 5/1/5 187/2/187 1/3/1
f 5/1/5 188/2/188 85/3/85
f 93/1/93 89/2/89 10/3/10
f 6/1/6 40/2/40 9/3/9
f 189/1/189 4/2/4 65/3/65
f 2/1/2 187/2/187 88/3/88
f 83/1/83 84/2/84 90/3/90
f 99/1/99 96/2/96 15/3/15
f 8/1/8 87/2/87 92/3/92
f 138/1/138 7/2/7 66/3/66
f 91/1/91 45/2/45 97/3/97
f 190/1/190 11/2/11 13/3/13
f 98/1/98 12/2/12 101/3/101
f 28/1/28 191/2/191 29/3/29
f 112/1/112 107/2/107 20/3/20
f 106/1/106 53/2/53 103/3/103
f 192/1/192 14/2/14 105/3/105
f 104/1/104 100/2/100 108/3/108
f 193/1/193 120/2/120 32/3/32
f 18/1/18 57/2/57 111/3/111
f 16/1/16 17/2/17 114/3/114
f 194/1/194 195/2/195 114/3/114
f 27/1/27 61/2/61 196/3/196
f 27/1/27 113/2/113 111/3/111
f 186/1/186 197/2/197 1/3/1
f 186/1/186 198/2/198 117/3/117
f 124/1/124 67/2/67 66/3/66
f 190/1/190 25/2/25 24/3/24
f 126/1/126 94/2/94 13/3/13
f 16/1/16 19/2/19 121/3/121
f 28/1/28 195/2/195 122/3/122
f 199/1/199 200/2/200 123/3/123
f 201/1/201 134/2/134 125/3/125
f 30/1/30 25/2/25 121/3/121
f 202/1/202 130/2/130 34/3/34
f 28/1/28 120/2/120 129/3/129
f 119/1/119 195/2/195 32/3/32
f 27/1/27 203/2/203 131/3/131
f 124/1/124 204/2/204 122/3/122
f 205/1/205 206/2/206 36/3/36
f 37/1/37 198/2/198 136/3/136
f 207/1/207 165/2/165 36/3/36
f 39/1/39 165/2/165 137/3/137
f 142/1/142 145/2/145 44/3/44
f 207/1/207 140/2/140 137/3/137
f 189/1/189 208/2/208 136/3/136
f 209/1/209 143/2/143 141/3/141
f 210/1/210 43/2/43 36/3/36
f 147/1/147 152/2/152 144/3/144
f 46/1/46 143/2/143 50/3/50
f 138/1/138 211/2/211 146/3/146
f 46/1/46 212/2/212 148/3/148
f 47/1/47 51/2/51 150/3/150
f 213/1/213 52/2/52 50/3/50
f 70/1/70 184/2/184 77/3/77
f 156/1/156 162/2/162 58/3/58
f 54/1/54 157/2/157 154/3/154
f 149/1/149 214/2/214 155/3/155
f 151/1/151 56/2/56 158/3/158
f 59/1/59 166/2/166 80/3/80
f 153/1/153 62/2/62 161/3/161
f 55/1/55 215/2/215 163/3/163
f 168/1/168 162/2/162 167/3/167
f 168/1/168 61/2/61 164/3/164
f 216/1/216 75/2/75 196/3/196
f 41/1/41 206/2/206 217/3/217
f 41/1/41 188/2/188 64/3/64
f 182/1/182 145/2/145 66/3/66
f 47/1/47 218/2/218 219/3/219
f 118/1/118 67/2/67 171/3/171
f 55/1/55 180/2/180 167/3/167
f 183/1/183 75/2/75 169/3/169
f 183/1/183 200/2/200 170/3/170
f 201/1/201 200/2/200 171/3/171
f 55/1/55 218/2/218 173/3/173
f 176/1/176 82/2/82 79/3/79
f 220/1/220 81/2/81 77/3/77
f 59/1/59 221/2/221 170/3/170
f 168/1/168 177/2/177 179/3/179
f 182/1/182 184/2/184 181/3/181
f 2/1/2 4/2/4 3/3/3
f 83/1/83 63/2/63 64/3/64
f 6/1/6 84/2/84 1/3/1
f 39/1/39 40/2/40 85/3/85
f 8/1/8 11/2/11 10/3/10
f 86/1/86 45/2/45 9/3/9
f 83/1/83 7/2/7 65/3/65
f 6/1/6 87/2/87 88/3/88
f 2/1/2 89/2/89 90/3/90
f 49/1/49 53/2/53 15/3/15
f 91/1/91 12/2/12 92/3/92
f 93/1/93 94/2/94 66/3/66
f 95/1/95 96/2/96 97/3/97
f 16/1/16 25/2/25 13/3/13
f 98/1/98 14/2/14 13/3/13
f 99/1/99 100/2/100 101/3/101
f 23/1/23 22/2/22 29/3/29
f 18/1/18 21/2/21 20/3/20
f 102/1/102 57/2/57 103/3/103
f 104/1/104 17/2/17 105/3/105
f 106/1/106 107/2/107 108/3/108
f 109/1/109 19/2/19 32/3/32
f 110/1/110 61/2/61 111/3/111
f 112/1/112 113/2/113 114/3/114
f 27/1/27 21/2/21 115/3/115
f 5/1/5 116/2/116 117/3/117
f 118/1/118 94/2/94 24/3/24
f 119/1/119 120/2/120 121/3/121
f 27/1/27 26/2/26 122/3/122
f 68/1/68 26/2/26 123/3/123
f 124/1/124 26/2/26 125/3/125
f 126/1/126 127/2/127 121/3/121
f 31/1/31 33/2/33 34/3/34
f 109/1/109 128/2/128 129/3/129
f 27/1/27 130/2/130 32/3/32
f 28/1/28 33/2/33 131/3/131
f 30/1/30 22/2/22 122/3/122
f 124/1/124 25/2/25 132/3/132
f 133/1/133 134/2/134 122/3/122
f 37/1/37 38/2/38 36/3/36
f 135/1/135 63/2/63 136/3/136
f 41/1/41 35/2/35 36/3/36
f 41/1/41 42/2/42 137/3/137
f 47/1/47 48/2/48 44/3/44
f 46/1/46 45/2/45 137/3/137
f 138/1/138 43/2/43 136/3/136
f 139/1/139 140/2/140 141/3/141
f 142/1/142 143/2/143 36/3/36
f 54/1/54 53/2/53 144/3/144
f 139/1/139 48/2/48 50/3/50
f 118/1/118 145/2/145 146/3/146
f 147/1/147 96/2/96 148/3/148
f 55/1/55 51/2/51 73/3/73
f 149/1/149 52/2/52 150/3/150
f 151/1/151 152/2/152 50/3/50
f 71/1/71 76/2/76 77/3/77
f 60/1/60 62/2/62 58/3/58
f 153/1/153 57/2/57 154/3/154
f 55/1/55 56/2/56 155/3/155
f 156/1/156 157/2/157 158/3/158
f 159/1/159 82/2/82 80/3/80
f 160/1/160 61/2/61 161/3/161
f 59/1/59 162/2/162 163/3/163
f 60/1/60 75/2/75 164/3/164
f 37/1/37 165/2/165 64/3/64
f 47/1/47 72/2/72 73/3/73
f 70/1/70 166/2/166 167/3/167
f 168/1/168 76/2/76 169/3/169
f 68/1/68 69/2/69 170/3/170
f 68/1/68 74/2/74 171/3/171
f 172/1/172 78/2/78 173/3/173
f 174/1/174 81/2/81 79/3/79
f 175/1/175 82/2/82 77/3/77
f 176/1/176 177/2/177 170/3/170
f 178/1/178 81/2/81 179/3/179
f 71/1/71 180/2/180 181/3/181
f 182/1/182 78/2/78 73/3/73
f 183/1/183 184/2/184 171/3/171
f 185/1/185 84/2/84 3/3/3
f 186/1/186 4/2/4 64/3/64
f 5/1/5 187/2/187 1/3/1
f 5/1/5 188/2/188 85/3/85
f 93/1/93 89/2/89 10/3/10
f 6/1/6 40/2/40 9/3/9
f 189/1/189 4/2/4 65/3/65
f 2/1/2 187/2/187 88/3/88
f 83/1/83 84/2/84 90/3/90
f 99/1/99 96/2/96 15/3/15
f 8/1/8 87/2/87 92/3/92
f 138/1/138 7/2/7 66/3/66
f 91/1/91 45/2/45 97/3/97
f 190/1/190 11/2/11 13/3/13
f 98/1/98 12/2/12 101/3/101
f 28/1/28 191/2/191 29/3/29
f 112/1/112 107/2/107 20/3/20
f 106/1/106 53/2/53 103/3/103
f 192/1/192 14/2/14 105/3/105
f 104/1/104 100/2/100 108/3/108
f 193/1/193 120/2/120 32/3/32
f 18/1/18 57/2/57 111/3/111
f 16/1/16 17/2/17 114/3/114
f 194/1/194 195/2/195 114/3/114
f 27/1/27 61/2/61 196/3/196
f 27/1/27 113/2/113 111/3/111
f 186/1/186 197/2/197 1/3/1
f 186/1/186 198/2/198 117/3/117
f 124/1/124 67/2/67 66/3/66
f 190/1/190 25/2/25 24/3/24
f 126/1/126 94/2/94 13/3/13
f 16/1/16 19/2/19 121/3/121
f 28/1/28 195/2/195 122/3/122
f 199/1/199 200/2/200 123/3/123
f 201/1/201 134/2/134 125/3/125
f 30/1/30 25/2/25 121/3/121
f 202/1/202 130/2/130 34/3/34
f 28/1/28 120/2/120 129/3/129
f 119/1/119 195/2/195 32/3/32
f 27/1/27 203/2/203 131/3/131
f 124/1/124 204/2/204 122/3/122
f 205/1/205 206/2/206 36/3/36
f 37/1/37 198/2/198 136/3/136
f 207/1/207 165/2/165 36/3/36
f 39/1/39 165/2/165 137/3/137
f 142/1/142 145/2/145 44/3/44
f 207/1/207 140/2/140 137/3/137
f 189/1/189 208/2/208 136/3/136
f 209/1/209 143/2/143 141/3/141
f 210/1/210 43/2/43 36/3/36
f 147/1/147 152/2/152 144/3/144
f 46/1/46 143/2/143 50/3/50
f 138/1/138 211/2/211 146/3/146
f 46/1/46 212/2/212 148/3/148
f 47/1/47 51/2/51 150/3/150
f 213/1/213 52/2/52 50/3/50
f 70/1/70 184/2/184 77/3/77
f 156/1/156 162/2/162 58/3/58
f 54/1/54 157/2/157 154/3/154
f 149/1/149 214/2/214 155/3/155
f 151/1/151 56/2/56 158/3/158
f 59/1/59 166/2/166 80/3/80
f 153/1/153 62/2/62 161/3/161
f 55/1/55 215/2/215 163/3/163
f 168/1/168 162/2/162 167/3/167
f 168/1/168 61/2/61 164/3/164
f 216/1/216 75/2/75 196/3/196
f 41/1/41 206/2/206 217/3/217
f 41/1/41 188/2/188 64/3/64
f 182/1/182 145/2/145 66/3/66
f 47/1/47 218/2/218 219/3/219
f 118/1/118 67/2/67 171/3/171
f 55/1/55 180/2/180 167/3/167
f 183/1/183 75/2/75 169/3/169
f 183/1/183 200/2/200 170/3/170
f 201/1/201 200/2/200 171/3/171
f 55/1/55 218/2/218 173/3/173
f 176/1/176 82/2/82 79/3/79
f 220/1/220 81/2/81 77/3/77
f 59/1/59 221/2/221 170/3/170
f 168/1/168 177/2/177 179/3/179
f 182/1/182 184/2/184 181/3/181
# 320 faces, 3 coords texture

# End of File