####
#
# OBJ File Generated by Meshlab
#
####
# Object torsopitch.obj
#
# Vertices: 74
# Faces: 288
#
####
mtllib ./torsopitch.obj.mtl

vn 0.599257 -0.483337 -0.638182
v 0.027305 -0.009878 0.010442
vn -0.110568 -0.993869 -0.000003
v 0.008915 -0.013970 0.020320
vn 0.086052 -0.966879 0.240293
v 0.027305 -0.013970 0.020320
vn -0.308496 -0.758294 0.574299
v 0.008915 -0.009878 0.030198
vn 0.308496 -0.574300 0.758294
v 0.027305 -0.009878 0.030198
vn 0.384844 -0.770514 -0.508138
v 0.006825 -0.022504 -0.006825
vn 0.808446 -0.577888 -0.111624
v 0.009652 -0.022504 0.000000
vn 0.780564 -0.203074 0.591169
v 0.006825 -0.022504 0.006825
vn 0.797175 0.000000 -0.603749
v 0.006825 -0.013503 -0.006825
vn 0.687569 -0.419356 -0.592781
v 0.009652 -0.013503 0.000000
vn 0.283797 -0.857847 0.428437
v 0.006825 -0.013503 0.006825
vn -0.917246 -0.360811 0.168749
v 0.008915 -0.011924 0.015381
vn 0.711091 -0.697058 -0.091976
v 0.027305 -0.011924 0.015381
vn -0.648260 -0.459707 -0.606983
v -0.025173 -0.009878 0.010442
vn 0.095443 -0.995435 -0.000003
v -0.003835 -0.013970 0.020320
vn -0.074235 -0.967801 0.240522
v -0.025173 -0.013970 0.020320
vn 0.269192 -0.767750 0.581460
v -0.003835 -0.009878 0.030198
vn -0.269192 -0.581461 0.767749
v -0.025173 -0.009878 0.030198
vn 0.000000 -0.906303 -0.422629
v 0.000000 -0.022504 -0.009652
vn -0.348250 -0.816876 -0.459821
v -0.006825 -0.022504 -0.006825
vn -0.969961 -0.203076 -0.133925
v -0.009652 -0.022504 0.000000
vn -0.650587 -0.577888 0.492729
v -0.006825 -0.022504 0.006825
vn -0.000000 -0.893293 0.449475
v -0.000000 -0.022504 0.009652
vn -0.797175 0.000000 -0.603749
v -0.006825 -0.013503 -0.006825
vn -0.730159 -0.398775 -0.554839
v -0.009652 -0.013503 0.000000
vn -0.284516 -0.851785 0.439901
v -0.006825 -0.013503 0.006825
vn -0.000000 0.091388 0.995815
v -0.000000 -0.013503 0.009652
vn 0.000000 0.000000 -1.000000
v 0.000000 -0.013503 -0.009652
vn 0.887112 -0.456214 0.070006
v -0.003835 -0.011924 0.015381
vn -0.693939 -0.713967 -0.093269
v -0.025173 -0.011924 0.015381
vn -0.877959 -0.000000 0.478735
v 0.008915 0.000000 0.006350
vn 0.813473 -0.000000 -0.581603
v 0.027305 0.000000 0.006350
vn 0.599257 0.483337 -0.638182
v 0.027305 0.009878 0.010442
vn -0.110568 0.993869 -0.000003
v 0.008915 0.013970 0.020320
vn 0.086052 0.966879 0.240293
v 0.027305 0.013970 0.020320
vn -0.308496 0.758294 0.574299
v 0.008915 0.009878 0.030198
vn 0.308496 0.574300 0.758294
v 0.027305 0.009878 0.030198
vn 0.384844 0.770514 -0.508138
v 0.006825 0.022504 -0.006825
vn 0.808446 0.577888 -0.111624
v 0.009652 0.022504 0.000000
vn 0.780564 0.203074 0.591169
v 0.006825 0.022504 0.006825
vn 0.603749 0.000000 -0.797175
v 0.006825 0.000000 -0.006825
vn 0.797175 0.000000 -0.603749
v 0.006825 0.013503 -0.006825
vn 0.651210 0.000000 -0.758898
v 0.009652 0.000000 0.000000
vn 0.687569 0.419356 -0.592781
v 0.009652 0.013503 0.000000
vn 0.283797 0.857847 0.428437
v 0.006825 0.013503 0.006825
vn -0.917246 0.360811 0.168749
v 0.008915 0.011924 0.015381
vn 0.711091 0.697058 -0.091976
v 0.027305 0.011924 0.015381
vn 0.933051 -0.000000 0.359744
v 0.027305 0.000000 0.034290
vn -0.791903 -0.000000 0.610646
v 0.008915 0.000000 0.034290
vn 0.973572 0.000000 0.228380
v -0.003835 0.000000 0.006350
vn -0.846623 0.000000 -0.532193
v -0.025173 0.000000 0.006350
vn -0.648260 0.459707 -0.606983
v -0.025173 0.009878 0.010442
vn 0.095443 0.995435 -0.000003
v -0.003835 0.013970 0.020320
vn -0.074235 0.967801 0.240522
v -0.025173 0.013970 0.020320
vn 0.269192 0.767750 0.581460
v -0.003835 0.009878 0.030198
vn -0.269192 0.581461 0.767749
v -0.025173 0.009878 0.030198
vn 0.000000 0.000000 -1.000000
v 0.000000 0.000000 -0.009652
vn 0.000000 0.906303 -0.422629
v 0.000000 0.022504 -0.009652
vn -0.348250 0.816876 -0.459821
v -0.006825 0.022504 -0.006825
vn -0.969961 0.203076 -0.133925
v -0.009652 0.022504 0.000000
vn -0.650587 0.577888 0.492729
v -0.006825 0.022504 0.006825
vn -0.000000 0.893293 0.449475
v -0.000000 0.022504 0.009652
vn -0.603749 0.000000 -0.797175
v -0.006825 0.000000 -0.006825
vn -0.797175 0.000000 -0.603749
v -0.006825 0.013503 -0.006825
vn -0.686648 0.000000 -0.726990
v -0.009652 0.000000 0.000000
vn -0.730159 0.398775 -0.554839
v -0.009652 0.013503 0.000000
vn -0.284516 0.851785 0.439901
v -0.006825 0.013503 0.006825
vn -0.000000 -0.091388 0.995815
v -0.000000 0.013503 0.009652
vn 0.000000 0.000000 -1.000000
v 0.000000 0.013503 -0.009652
vn 0.887112 0.456214 0.070006
v -0.003835 0.011924 0.015381
vn -0.693939 0.713967 -0.093269
v -0.025173 0.011924 0.015381
vn -0.912822 0.000000 0.408359
v -0.025173 0.000000 0.034290
vn 0.745249 0.000000 0.666787
v -0.003835 0.000000 0.034290
vn -0.000000 -0.000000 1.000000
v -0.000000 0.000000 0.006350
# 74 vertices, 0 vertices normals


usemtl material_0
vt 0.278854 0.845396
vt 0.229582 0.851857
vt 0.160270 0.741371
f 13/1/13 3/2/3 2/3/2
vt 0.182274 0.902432
vt 0.100991 0.805925
f 3/2/3 5/4/5 4/5/4
vt 0.158004 0.999925
vt 0.000075 0.854720
f 5/4/5 48/6/48 49/7/49
vt 0.416502 0.885867
f 32/8/32 48/6/48 13/1/13
vt 0.324260 0.833678
vt 0.367888 0.610031
f 32/8/32 1/9/1 10/10/10
vt 0.442290 0.506648
vt 0.568026 0.515633
vt 0.552832 0.603846
f 28/11/28 57/12/57 41/13/41
vt 0.020462 0.578261
vt 0.173351 0.657783
f 49/7/49 31/14/31 12/15/12
vt 0.324002 0.496104
vt 0.391446 0.502162
vt 0.383663 0.523569
f 23/16/23 19/17/19 6/18/6
vt 0.275789 0.585771
vt 0.227042 0.484466
f 11/19/11 27/20/27 23/16/23
vt 0.335421 0.526292
f 10/10/10 11/19/11 8/21/8
vt 0.422256 0.558863
vt 0.361712 0.535603
f 9/22/9 10/10/10 7/23/7
vt 0.515311 0.687962
f 9/22/9 41/13/41 43/24/43
f 28/11/28 9/22/9 6/18/6
f 11/19/11 10/10/10 13/1/13
f 43/24/43 32/8/32 10/10/10
f 13/1/13 10/10/10 1/9/1
f 12/15/12 31/14/31 27/20/27
f 11/19/11 12/15/12 27/20/27
vt 0.025506 0.509267
f 31/14/31 74/25/74 27/20/27
vt 0.171450 0.297491
vt 0.271236 0.170019
vt 0.323889 0.181916
f 15/26/15 16/27/16 30/28/30
vt 0.111388 0.224400
vt 0.224418 0.109408
f 17/29/17 18/30/18 16/27/16
vt 0.000075 0.166686
vt 0.208744 0.000075
f 73/31/73 72/32/72 18/30/18
f 72/32/72 30/28/30 18/30/18
vt 0.467370 0.155522
vt 0.387956 0.396253
vt 0.367350 0.198610
f 51/33/51 25/34/25 14/35/14
vt 0.431120 0.452518
vt 0.565069 0.426506
f 28/11/28 24/36/24 63/37/63
vt 0.177588 0.379644
f 73/31/73 17/29/17 29/38/29
vt 0.342626 0.468679
vt 0.387625 0.479771
f 23/16/23 22/39/22 20/40/20
vt 0.300157 0.402176
f 23/16/23 27/20/27 26/41/26
f 22/39/22 26/41/26 25/34/25
vt 0.369107 0.464215
f 21/42/21 25/34/25 24/36/24
vt 0.539070 0.338846
f 24/36/24 25/34/25 65/43/65
f 20/40/20 24/36/24 28/11/28
f 26/41/26 29/38/29 30/28/30
f 65/43/65 25/34/25 51/33/51
f 30/28/30 14/35/14 25/34/25
vt 0.019385 0.475740
f 29/38/29 27/20/27 50/44/50
f 26/41/26 27/20/27 29/38/29
f 50/44/50 27/20/27 74/25/74
f 12/15/12 13/1/13 2/3/2
f 2/3/2 3/2/3 4/5/4
f 4/5/4 5/4/5 49/7/49
f 13/1/13 1/9/1 32/8/32
f 5/4/5 3/2/3 13/1/13
f 13/1/13 48/6/48 5/4/5
f 9/22/9 28/11/28 41/13/41
f 12/15/12 4/5/4 49/7/49
f 4/5/4 12/15/12 2/3/2
f 7/23/7 8/21/8 23/16/23
f 23/16/23 6/18/6 7/23/7
f 8/21/8 11/19/11 23/16/23
f 7/23/7 10/10/10 8/21/8
f 6/18/6 9/22/9 7/23/7
f 10/10/10 9/22/9 43/24/43
f 19/17/19 28/11/28 6/18/6
f 12/15/12 11/19/11 13/1/13
f 29/38/29 15/26/15 30/28/30
f 15/26/15 17/29/17 16/27/16
f 17/29/17 73/31/73 18/30/18
f 30/28/30 72/32/72 51/33/51
f 30/28/30 16/27/16 18/30/18
f 51/33/51 14/35/14 30/28/30
f 57/12/57 28/11/28 63/37/63
f 29/38/29 50/44/50 73/31/73
f 17/29/17 15/26/15 29/38/29
f 20/40/20 19/17/19 23/16/23
f 22/39/22 21/42/21 20/40/20
f 22/39/22 23/16/23 26/41/26
f 21/42/21 22/39/22 25/34/25
f 20/40/20 21/42/21 24/36/24
f 63/37/63 24/36/24 65/43/65
f 19/17/19 20/40/20 28/11/28
f 25/34/25 26/41/26 30/28/30
f 47/1/47 34/3/34 35/2/35
f 35/2/35 36/5/36 37/4/37
f 37/4/37 49/7/49 48/6/48
f 32/8/32 47/1/47 48/6/48
f 32/8/32 44/10/44 33/9/33
f 69/11/69 41/13/41 57/12/57
f 49/7/49 46/15/46 31/14/31
f 62/16/62 38/18/38 58/17/58
f 45/19/45 62/16/62 68/20/68
f 44/10/44 40/21/40 45/19/45
f 42/22/42 39/23/39 44/10/44
f 42/22/42 43/24/43 41/13/41
f 69/11/69 38/18/38 42/22/42
f 45/19/45 47/1/47 44/10/44
f 43/24/43 44/10/44 32/8/32
f 47/1/47 33/9/33 44/10/44
f 46/15/46 68/20/68 31/14/31
f 45/19/45 68/20/68 46/15/46
f 31/14/31 68/20/68 74/25/74
f 53/26/53 71/28/71 54/27/54
f 55/29/55 54/27/54 56/30/56
f 73/31/73 56/30/56 72/32/72
f 72/32/72 56/30/56 71/28/71
f 51/33/51 52/35/52 66/34/66
f 69/11/69 63/37/63 64/36/64
f 73/31/73 70/38/70 55/29/55
f 62/16/62 59/40/59 61/39/61
f 62/16/62 67/41/67 68/20/68
f 61/39/61 66/34/66 67/41/67
f 60/42/60 64/36/64 66/34/66
f 64/36/64 65/43/65 66/34/66
f 59/40/59 69/11/69 64/36/64
f 67/41/67 71/28/71 70/38/70
f 65/43/65 51/33/51 66/34/66
f 71/28/71 66/34/66 52/35/52
f 70/38/70 50/44/50 68/20/68
f 67/41/67 70/38/70 68/20/68
f 50/44/50 74/25/74 68/20/68
f 46/15/46 34/3/34 47/1/47
f 34/3/34 36/5/36 35/2/35
f 36/5/36 49/7/49 37/4/37
f 47/1/47 32/8/32 33/9/33
f 37/4/37 47/1/47 35/2/35
f 47/1/47 37/4/37 48/6/48
f 42/22/42 41/13/41 69/11/69
f 46/15/46 49/7/49 36/5/36
f 36/5/36 34/3/34 46/15/46
f 39/23/39 62/16/62 40/21/40
f 62/16/62 39/23/39 38/18/38
f 40/21/40 62/16/62 45/19/45
f 39/23/39 40/21/40 44/10/44
f 38/18/38 39/23/39 42/22/42
f 44/10/44 43/24/43 42/22/42
f 58/17/58 38/18/38 69/11/69
f 46/15/46 47/1/47 45/19/45
f 70/38/70 71/28/71 53/26/53
f 53/26/53 54/27/54 55/29/55
f 55/29/55 56/30/56 73/31/73
f 71/28/71 51/33/51 72/32/72
f 71/28/71 56/30/56 54/27/54
f 51/33/51 71/28/71 52/35/52
f 57/12/57 63/37/63 69/11/69
f 70/38/70 73/31/73 50/44/50
f 55/29/55 70/38/70 53/26/53
f 59/40/59 62/16/62 58/17/58
f 61/39/61 59/40/59 60/42/60
f 61/39/61 67/41/67 62/16/62
f 60/42/60 66/34/66 61/39/61
f 59/40/59 64/36/64 60/42/60
f 63/37/63 65/43/65 64/36/64
f 58/17/58 69/11/69 59/40/59
f 66/34/66 71/28/71 67/41/67
f 13/1/13 3/2/3 2/3/2
f 3/2/3 5/4/5 4/5/4
f 5/4/5 48/6/48 49/7/49
f 32/8/32 48/6/48 13/1/13
f 32/8/32 1/9/1 10/10/10
f 28/11/28 57/12/57 41/13/41
f 49/7/49 31/14/31 12/15/12
f 23/16/23 19/17/19 6/18/6
f 11/19/11 27/20/27 23/16/23
f 10/10/10 11/19/11 8/21/8
f 9/22/9 10/10/10 7/23/7
f 9/22/9 41/13/41 43/24/43
f 28/11/28 9/22/9 6/18/6
f 11/19/11 10/10/10 13/1/13
f 43/24/43 32/8/32 10/10/10
f 13/1/13 10/10/10 1/9/1
f 12/15/12 31/14/31 27/20/27
f 11/19/11 12/15/12 27/20/27
f 31/14/31 74/25/74 27/20/27
f 15/26/15 16/27/16 30/28/30
f 17/29/17 18/30/18 16/27/16
f 73/31/73 72/32/72 18/30/18
f 72/32/72 30/28/30 18/30/18
f 51/33/51 25/34/25 14/35/14
f 28/11/28 24/36/24 63/37/63
f 73/31/73 17/29/17 29/38/29
f 23/16/23 22/39/22 20/40/20
f 23/16/23 27/20/27 26/41/26
f 22/39/22 26/41/26 25/34/25
f 21/42/21 25/34/25 24/36/24
f 24/36/24 25/34/25 65/43/65
f 20/40/20 24/36/24 28/11/28
f 26/41/26 29/38/29 30/28/30
f 65/43/65 25/34/25 51/33/51
f 30/28/30 14/35/14 25/34/25
f 29/38/29 27/20/27 50/44/50
f 26/41/26 27/20/27 29/38/29
f 50/44/50 27/20/27 74/25/74
f 12/15/12 13/1/13 2/3/2
f 2/3/2 3/2/3 4/5/4
f 4/5/4 5/4/5 49/7/49
f 13/1/13 1/9/1 32/8/32
f 5/4/5 3/2/3 13/1/13
f 13/1/13 48/6/48 5/4/5
f 9/22/9 28/11/28 41/13/41
f 12/15/12 4/5/4 49/7/49
f 4/5/4 12/15/12 2/3/2
f 7/23/7 8/21/8 23/16/23
f 23/16/23 6/18/6 7/23/7
f 8/21/8 11/19/11 23/16/23
f 7/23/7 10/10/10 8/21/8
f 6/18/6 9/22/9 7/23/7
f 10/10/10 9/22/9 43/24/43
f 19/17/19 28/11/28 6/18/6
f 12/15/12 11/19/11 13/1/13
f 29/38/29 15/26/15 30/28/30
f 15/26/15 17/29/17 16/27/16
f 17/29/17 73/31/73 18/30/18
f 30/28/30 72/32/72 51/33/51
f 30/28/30 16/27/16 18/30/18
f 51/33/51 14/35/14 30/28/30
f 57/12/57 28/11/28 63/37/63
f 29/38/29 50/44/50 73/31/73
f 17/29/17 15/26/15 29/38/29
f 20/40/20 19/17/19 23/16/23
f 22/39/22 21/42/21 20/40/20
f 22/39/22 23/16/23 26/41/26
f 21/42/21 22/39/22 25/34/25
f 20/40/20 21/42/21 24/36/24
f 63/37/63 24/36/24 65/43/65
f 19/17/19 20/40/20 28/11/28
f 25/34/25 26/41/26 30/28/30
f 47/1/47 34/3/34 35/2/35
f 35/2/35 36/5/36 37/4/37
f 37/4/37 49/7/49 48/6/48
f 32/8/32 47/1/47 48/6/48
f 32/8/32 44/10/44 33/9/33
f 69/11/69 41/13/41 57/12/57
f 49/7/49 46/15/46 31/14/31
f 62/16/62 38/18/38 58/17/58
f 45/19/45 62/16/62 68/20/68
f 44/10/44 40/21/40 45/19/45
f 42/22/42 39/23/39 44/10/44
f 42/22/42 43/24/43 41/13/41
f 69/11/69 38/18/38 42/22/42
f 45/19/45 47/1/47 44/10/44
f 43/24/43 44/10/44 32/8/32
f 47/1/47 33/9/33 44/10/44
f 46/15/46 68/20/68 31/14/31
f 45/19/45 68/20/68 46/15/46
f 31/14/31 68/20/68 74/25/74
f 53/26/53 71/28/71 54/27/54
f 55/29/55 54/27/54 56/30/56
f 73/31/73 56/30/56 72/32/72
f 72/32/72 56/30/56 71/28/71
f 51/33/51 52/35/52 66/34/66
f 69/11/69 63/37/63 64/36/64
f 73/31/73 70/38/70 55/29/55
f 62/16/62 59/40/59 61/39/61
f 62/16/62 67/41/67 68/20/68
f 61/39/61 66/34/66 67/41/67
f 60/42/60 64/36/64 66/34/66
f 64/36/64 65/43/65 66/34/66
f 59/40/59 69/11/69 64/36/64
f 67/41/67 71/28/71 70/38/70
f 65/43/65 51/33/51 66/34/66
f 71/28/71 66/34/66 52/35/52
f 70/38/70 50/44/50 68/20/68
f 67/41/67 70/38/70 68/20/68
f 50/44/50 74/25/74 68/20/68
f 46/15/46 34/3/34 47/1/47
f 34/3/34 36/5/36 35/2/35
f 36/5/36 49/7/49 37/4/37
f 47/1/47 32/8/32 33/9/33
f 37/4/37 47/1/47 35/2/35
f 47/1/47 37/4/37 48/6/48
f 42/22/42 41/13/41 69/11/69
f 46/15/46 49/7/49 36/5/36
f 36/5/36 34/3/34 46/15/46
f 39/23/39 62/16/62 40/21/40
f 62/16/62 39/23/39 38/18/38
f 40/21/40 62/16/62 45/19/45
f 39/23/39 40/21/40 44/10/44
f 38/18/38 39/23/39 42/22/42
f 44/10/44 43/24/43 42/22/42
f 58/17/58 38/18/38 69/11/69
f 46/15/46 47/1/47 45/19/45
f 70/38/70 71/28/71 53/26/53
f 53/26/53 54/27/54 55/29/55
f 55/29/55 56/30/56 73/31/73
f 71/28/71 51/33/51 72/32/72
f 71/28/71 56/30/56 54/27/54
f 51/33/51 71/28/71 52/35/52
f 57/12/57 63/37/63 69/11/69
f 70/38/70 73/31/73 50/44/50
f 55/29/55 70/38/70 53/26/53
f 59/40/59 62/16/62 58/17/58
f 61/39/61 59/40/59 60/42/60
f 61/39/61 67/41/67 62/16/62
f 60/42/60 66/34/66 61/39/61
f 59/40/59 64/36/64 60/42/60
f 63/37/63 65/43/65 64/36/64
f 58/17/58 69/11/69 59/40/59
f 66/34/66 71/28/71 67/41/67
# 288 faces, 44 coords texture

# End of File