# Blender v2.79 (sub 0) OBJ File: ''
# www.blender.org
mtllib torso_base.mtl
o Torso_Base_Torso_Base
v 0.032000 0.013620 0.140929
v 0.033000 0.013568 0.140968
v 0.032000 -0.013587 0.140958
v 0.032000 -0.053154 0.471474
v 0.033000 -0.052424 0.472073
v 0.032000 -0.052399 0.472389
v 0.031249 -0.062486 0.133000
v 0.006715 -0.062500 0.469105
v 0.007913 -0.062500 0.470244
v 0.033000 -0.055760 0.472658
v 0.032000 -0.055431 0.474063
v 0.033000 -0.054997 0.474461
v 0.031984 -0.061913 0.133000
v 0.032002 -0.053767 0.169702
v 0.032000 -0.054825 0.169523
v 0.006881 -0.063500 0.469093
v -0.017000 -0.063500 0.176000
v 0.004901 -0.063500 0.171889
v 0.033000 -0.054345 0.169708
v 0.033000 -0.052779 0.169255
v 0.032002 -0.055580 0.472136
v 0.033000 0.038331 0.471414
v 0.032000 0.038345 0.471474
v 0.032002 0.037267 0.471298
v 0.033000 -0.013578 0.140947
v 0.032000 0.014825 0.139981
v 0.032000 0.015000 0.136000
v 0.033000 0.014922 0.139745
v 0.032001 0.036301 0.166726
v 0.032001 0.037267 0.166298
v 0.005000 -0.062500 0.136000
v 0.005000 -0.063500 0.136000
v 0.004987 -0.062500 0.171336
v 0.033000 0.015000 0.136000
v 0.033000 0.036279 0.166745
v 0.033000 -0.053655 0.166292
v 0.032002 -0.054232 0.166298
v 0.033000 -0.055221 0.166745
v 0.004202 -0.062500 0.172771
v 0.003622 -0.063500 0.172953
v 0.031988 0.045246 0.133000
v 0.031421 0.045959 0.133000
v 0.032943 0.045825 0.133000
v 0.032002 0.037425 0.474752
v 0.032001 0.038729 0.474239
v 0.033000 0.038433 0.474441
v 0.032000 -0.014922 0.139745
v 0.032000 -0.015000 0.136000
v 0.033000 0.037845 0.166292
v 0.032000 0.038325 0.166477
v 0.033000 0.039162 0.167322
v 0.033000 -0.018000 0.133000
v 0.033000 -0.014825 0.139981
v 0.031479 -0.063482 0.513000
v 0.011000 -0.063500 0.513000
v 0.008000 -0.063500 0.510000
v 0.032000 -0.053174 0.166477
v 0.032000 0.035735 0.168166
v 0.008000 -0.063500 0.133000
v 0.033001 -0.054563 0.471306
v 0.032002 -0.054233 0.471298
v 0.013500 0.046000 0.136000
v 0.016500 0.046000 0.133000
v 0.033000 0.038721 0.169255
v 0.007971 -0.063500 0.470411
v 0.008000 -0.062500 0.510000
v 0.011000 -0.062500 0.513000
v 0.033000 0.037155 0.169708
v 0.033000 -0.015000 0.136000
v -0.014000 -0.062500 0.469000
v -0.014000 -0.063500 0.469000
v 0.016500 0.047000 0.513000
v 0.013500 0.047000 0.510000
v 0.013500 0.046000 0.510000
v 0.016500 0.046000 0.513000
v 0.016500 0.047000 0.133000
v 0.033000 0.018000 0.133000
v 0.033000 -0.055662 0.168678
v 0.013500 0.047000 0.136000
v 0.033000 0.035759 0.472887
v 0.032001 0.036199 0.471824
v 0.032000 0.035834 0.473569
v 0.032978 0.045660 0.513000
v 0.033000 0.036661 0.474566
v 0.033000 0.035838 0.168678
v 0.033000 0.039260 0.473342
v 0.032960 -0.062073 0.133000
v 0.031883 -0.063378 0.133000
v 0.032000 -0.052336 0.473520
v 0.032970 -0.062263 0.513000
v 0.033002 -0.052946 0.474417
v 0.033000 0.036483 0.471607
v 0.032000 0.039265 0.167834
v -0.017000 -0.063500 0.466000
v 0.032000 0.018000 0.133000
v 0.032001 -0.055199 0.166726
v -0.017000 -0.062500 0.466000
v 0.031879 -0.062194 0.513000
v -0.014000 -0.062500 0.173000
v 0.008000 -0.062500 0.133000
v 0.031961 0.045682 0.513000
v 0.032000 -0.055765 0.168166
v 0.033000 -0.052338 0.167322
v -0.017000 -0.062500 0.176000
v -0.014000 -0.063500 0.173000
v 0.031514 0.046969 0.133000
v 0.031683 0.046911 0.513000
v 0.032000 -0.018000 0.133000
v 0.032000 -0.053626 0.474712
v 0.032000 0.036674 0.169523
v 0.032000 0.039265 0.472834
v 0.032000 -0.052801 0.169274
v 0.032000 -0.052235 0.167834
v 0.032001 0.038699 0.169274
v 0.032002 0.037733 0.169702
vt 0.891370 0.505032
vt 0.893513 0.505015
vt 0.892857 0.551053
vt 0.775733 0.911319
vt 0.777816 0.912674
vt 0.775669 0.913416
vt 0.893873 0.647434
vt 0.843404 0.076211
vt 0.845976 0.074227
vt 0.760419 0.911907
vt 0.762532 0.914853
vt 0.760396 0.916270
vt 0.853268 0.766641
vt 0.853268 0.856924
vt 0.851139 0.855955
vt 0.735377 0.805964
vt 0.686009 0.103047
vt 0.732902 0.093249
vt 0.764762 0.917847
vt 0.766914 0.918819
vt 0.764819 0.919731
vt 0.762575 0.911319
vt 0.784313 0.917656
vt 0.782178 0.917720
vt 0.782132 0.915154
vt 0.894996 0.551019
vt 0.756886 0.913876
vt 0.756781 0.923445
vt 0.754745 0.914427
vt 0.361234 0.019112
vt 0.254425 0.080990
vt 0.252355 0.079964
vt 0.855409 0.773905
vt 0.857550 0.773904
vt 0.855422 0.858761
vt 0.754641 0.923416
vt 0.764759 0.912800
vt 0.762578 0.915204
vt 0.762618 0.912837
vt 0.760346 0.916608
vt 0.758218 0.915204
vt 0.760396 0.912800
vt 0.848497 0.919407
vt 0.845826 0.921424
vt 0.847141 0.918212
vt 0.976655 0.649713
vt 0.975407 0.648523
vt 0.978673 0.648704
vt 0.754694 0.911319
vt 0.756836 0.911449
vt 0.771373 0.919446
vt 0.771285 0.918050
vt 0.773443 0.918566
vt 0.464700 0.000000
vt 0.364091 0.016197
vt 0.364258 0.007205
vt 0.686636 0.941362
vt 0.685273 0.932499
vt 0.745647 0.993457
vt 0.762575 0.917722
vt 0.764709 0.916608
vt 0.764759 0.919651
vt 0.758212 0.933159
vt 0.756886 0.914802
vt 0.758212 0.911319
vt 0.884059 0.766641
vt 0.845673 0.742925
vt 0.843154 0.733155
vt 0.445991 0.080391
vt 0.762718 0.911319
vt 0.857563 0.766641
vt 0.775578 0.914344
vt 0.773462 0.917712
vt 0.773443 0.915145
vt 0.937031 0.000000
vt 0.898669 0.007197
vt 0.905098 0.000001
vt 0.662968 0.098216
vt 0.665181 0.824349
vt 0.661824 0.825424
vt 0.988695 0.088371
vt 0.988941 0.083616
vt 0.995690 0.847745
vt 0.855409 0.862110
vt 0.853273 0.864852
vt 0.853268 0.861709
vt 0.846402 0.006542
vt 0.852841 0.001320
vt 0.895059 0.554774
vt 0.469279 0.823704
vt 0.465923 0.824779
vt 0.895044 0.561848
vt 0.892922 0.555380
vt 0.854168 0.870866
vt 0.856042 0.921005
vt 0.853903 0.920994
vt 0.892904 0.561887
vt 0.684290 0.944866
vt 0.749316 0.918742
vt 0.749151 0.911319
vt 0.751289 0.911365
vt 0.751454 0.918788
vt 0.997845 0.000000
vt 0.997831 0.007263
vt 0.995704 0.000000
vt 0.690354 0.924053
vt 0.766895 0.916723
vt 0.764759 0.913864
vt 0.748835 0.911319
vt 0.947670 0.000310
vt 0.937031 0.642196
vt 0.941216 0.005508
vt 0.769069 0.912404
vt 0.771245 0.911319
vt 0.771201 0.913672
vt 0.775648 0.919388
vt 0.231063 0.912561
vt 0.211783 0.820267
vt 0.215578 0.819965
vt 0.766990 0.911319
vt 0.769069 0.912822
vt 0.766914 0.913865
vt 0.739764 0.000000
vt 0.217348 0.817326
vt 0.897513 0.646668
vt 0.895279 0.648919
vt 0.775649 0.916120
vt 0.231293 0.000001
vt 0.000000 0.912600
vt 0.015544 0.820048
vt 0.019935 0.819942
vt 0.784260 0.913200
vt 0.988695 0.846490
vt 0.980172 0.762152
vt 0.988695 0.000000
vt 0.235270 0.000002
vt 0.445965 0.812810
vt 0.252371 0.812389
vt 0.690692 0.805683
vt 0.684290 0.798480
vt 0.756886 0.931026
vt 0.021052 0.814311
vt 0.450327 0.080988
vt 0.448257 0.079963
vt 1.000000 0.703668
vt 0.997859 0.703668
vt 0.999986 0.007263
vt 0.465923 0.000014
vt 0.465320 0.912532
vt 0.884059 0.650043
vt 0.844652 0.875924
vt 0.777897 0.911319
vt 0.779971 0.913251
vt 0.777816 0.914454
vt 0.844168 0.650043
vt 0.844113 0.648349
vt 0.234357 0.912532
vt 0.233742 0.000013
vt 0.519598 0.892887
vt 0.764835 0.911319
vt 0.766914 0.912822
vt 0.997845 0.905385
vt 0.995690 0.007263
vt 0.660869 0.830065
vt 0.848497 0.868315
vt 0.773386 0.915825
vt 0.943419 0.647212
vt 0.663682 0.832546
vt 0.858930 0.862850
vt 0.858344 0.770060
vt 0.858930 0.766641
vt 0.577718 0.893128
vt 0.849806 0.766641
vt 0.849806 0.867725
vt 0.844969 0.868315
vt 0.787756 0.911319
vt 0.790867 0.000050
vt 0.790867 0.911167
vt 0.250063 0.812811
vt 0.848497 0.910178
vt 0.853903 0.868315
vt 0.853903 0.918364
vt 0.843154 0.864486
vt 0.895415 0.646435
vt 0.769077 0.916790
vt 0.771245 0.918380
vt 0.769157 0.919579
vt 0.975557 0.646810
vt 0.980172 0.000000
vt 0.790867 0.576106
vt 0.792628 0.082408
vt 0.013909 0.815717
vt 0.856303 0.928425
vt 0.854164 0.928413
vt 0.370681 0.000000
vt 0.793176 0.903157
vt 0.836635 0.914836
vt 0.790867 0.902744
vt 0.681496 0.912555
vt 0.667038 0.831471
vt 0.843154 0.916129
vt 0.836170 0.917178
vt 0.843154 0.876140
vt 0.758212 0.917722
vt 0.667993 0.826830
vt 0.733326 0.007186
vt 0.684290 0.000000
vt 0.995704 0.905385
vt 0.837711 0.643357
vt 0.837897 0.583202
vt 0.773482 0.911819
vt 0.775648 0.911319
vt 0.841020 0.650043
vt 0.215359 0.812696
vt 0.855409 0.766641
vt 0.255636 0.084448
vt 0.782125 0.912531
vt 0.995690 0.000000
vt 0.895190 0.572035
vt 0.255441 0.817842
vt 0.777816 0.918364
vt 0.775711 0.919145
vt 0.748835 0.995280
vt 0.253625 0.087708
vt 0.211401 0.813161
vt 0.980172 0.695825
vt 0.758255 0.912837
vt 0.758355 0.911319
vt 0.843154 0.650524
vt 0.209852 0.816234
vt 0.233742 0.912561
vt 0.751454 0.958348
vt 0.748835 0.955183
vt 0.754746 0.930997
vt 0.893049 0.572074
vt 0.842689 0.918470
vt 0.742540 0.995239
vt 0.857563 0.860089
vt 0.855419 0.862222
vt 0.856303 0.919720
vt 0.858955 0.868315
vt 0.858955 0.922281
vt 0.937031 0.911295
vt 0.903924 0.911261
vt 0.978032 0.695855
vt 0.742403 1.000000
vt 0.793413 0.906384
vt 0.248095 0.816077
vt 0.997845 0.007263
vt 0.858344 0.855924
vt 0.857563 0.770557
vt 0.858344 0.766641
vt 0.997859 0.000000
vt 0.943468 0.648906
vt 0.769050 0.916723
vt 0.754641 0.929736
vt 0.751454 0.920196
vt 0.754641 0.911319
vt 0.779986 0.917979
vt 0.779971 0.914454
vt 0.782125 0.917945
vt 0.587135 0.912245
vt 0.799067 0.077186
vt 0.302982 0.019040
vt 0.849805 0.852284
vt 0.300028 0.007205
vt 0.300403 0.016765
vt 0.766917 0.917847
vt 0.762575 0.919016
vt 0.760462 0.919669
vt 0.771245 0.914613
vt 0.773443 0.911319
vt 0.771302 0.911469
vt 0.445191 0.087108
vt 0.447261 0.088135
vt 0.248079 0.083652
vt 0.249289 0.087110
vt 0.853268 0.766641
vt 0.251359 0.088136
vt 0.897513 0.000000
vt 0.769069 0.918819
vt 0.766974 0.919731
vt 0.785090 0.911319
vt 0.785090 0.950898
vt 0.785088 0.913761
vt 0.250090 0.080392
vt 0.293605 0.000001
vt 0.249242 0.819451
vt 0.897513 0.904068
vt 0.779971 0.917945
vt 0.777891 0.919128
vt 0.777832 0.917979
vt 0.252034 0.820682
vt 0.444213 0.817723
vt 0.760396 0.919651
vt 0.446973 0.820587
vt 0.782125 0.913251
vt 0.780052 0.911319
vt 0.784313 0.911319
vt 0.684290 0.912565
vt 0.233742 0.000000
vt 0.785088 0.916611
vt 0.784313 0.913897
vt 0.785088 0.911319
vt 0.846999 0.868531
vt 0.856303 0.871274
vt 0.856205 0.868315
vt 1.000000 0.000000
vt 0.443981 0.083650
vt 0.254659 0.813651
vt 0.855422 0.766641
vt 0.780046 0.919128
vt 0.451158 0.814399
vt 0.448273 0.812388
vt 0.450838 0.819028
vt 0.451537 0.084447
vn -0.7828 -0.2115 -0.5852
vn 0.7965 -0.1977 -0.5714
vn -0.7937 0.2059 -0.5723
vn -0.8278 -0.2451 0.5046
vn 0.8500 -0.4583 0.2597
vn 0.6706 -0.7058 0.2282
vn -0.2002 0.5822 -0.7880
vn -0.2126 0.7804 0.5880
vn -0.5544 0.7973 0.2384
vn -0.6030 0.7904 0.1077
vn -0.8386 0.4454 -0.3134
vn 0.8385 0.2840 -0.4650
vn -0.5139 0.2511 -0.8202
vn -0.7857 -0.1001 -0.6104
vn 0.6316 0.4091 -0.6586
vn -0.2395 -0.8249 0.5120
vn -0.7173 -0.6302 -0.2971
vn -0.5370 -0.8091 -0.2385
vn 0.7993 0.1140 -0.5900
vn 0.8152 -0.4191 -0.3996
vn -0.8276 0.4925 0.2692
vn 0.8363 -0.2718 0.4761
vn -0.7960 -0.3323 0.5058
vn -0.8009 0.0825 0.5931
vn 0.7837 0.2008 -0.5878
vn -0.8144 -0.5055 -0.2849
vn -0.6318 -0.7124 -0.3054
vn 0.8058 -0.5507 -0.2177
vn -0.8028 0.4275 0.4155
vn -0.7859 0.1000 0.6102
vn -0.7173 0.6301 -0.2973
vn -0.7172 -0.6303 -0.2972
vn -0.6367 0.7632 -0.1102
vn 0.6320 -0.7129 -0.3040
vn 0.8153 0.4191 0.3996
vn 0.7995 -0.1143 0.5896
vn -0.7855 0.1000 0.6107
vn 0.8161 0.4177 0.3993
vn -0.4219 -0.6017 -0.6782
vn -0.1841 0.6222 -0.7608
vn -0.5798 -0.2025 -0.7891
vn -0.2499 -0.5169 -0.8187
vn 0.7055 0.3401 -0.6217
vn -0.8253 0.0359 -0.5635
vn -0.7956 -0.4260 -0.4307
vn 0.7868 -0.3049 -0.5366
vn -0.8053 0.5516 -0.2173
vn -0.6319 0.7129 -0.3040
vn 0.7997 -0.1133 0.5895
vn -0.7953 -0.3205 0.5145
vn -0.6105 -0.7316 0.3033
vn 0.6303 0.2969 -0.7173
vn -0.6198 0.6836 -0.3854
vn 0.2588 -0.7245 0.6388
vn -0.2968 -0.6307 0.7170
vn -0.7169 -0.6306 0.2973
vn -0.7954 -0.3204 0.5144
vn -0.8309 0.5560 -0.0222
vn -0.2954 -0.6313 -0.7171
vn -0.6115 0.2277 0.7577
vn -0.7847 0.0770 0.6150
vn -0.7179 -0.6295 -0.2972
vn -0.2981 -0.6288 -0.7181
vn -0.6339 -0.5592 -0.5342
vn -0.7342 0.6374 0.2337
vn -0.7171 0.6303 0.2973
vn -0.3017 0.6275 0.7178
vn 0.7992 0.1139 -0.5901
vn 0.6318 0.7124 -0.3054
vn -0.2986 0.6306 0.7163
vn -0.2986 -0.6306 0.7163
vn -0.2952 0.6314 0.7171
vn -0.7173 0.6302 0.2971
vn -0.7173 -0.6302 0.2971
vn -0.3036 -0.6262 0.7180
vn -0.2964 0.6307 -0.7172
vn 0.6305 -0.2966 -0.7173
vn 0.8374 0.5066 -0.2051
vn -0.7173 0.6302 -0.2971
vn 0.8210 0.5699 0.0341
vn -0.8089 0.4577 0.3690
vn -0.8363 0.5116 -0.1968
vn 0.7156 0.3036 0.6290
vn 0.8472 0.2647 -0.4606
vn -0.6051 0.7388 -0.2968
vn 0.8288 -0.5535 -0.0815
vn 0.7240 -0.2607 -0.6386
vn 0.3352 -0.7067 -0.6230
vn -0.8504 -0.5003 -0.1629
vn 0.7072 -0.3352 0.6225
vn 0.8437 -0.3355 -0.4190
vn 0.7934 0.3410 0.5043
vn 0.5996 -0.7996 0.0311
vn -0.6302 -0.2972 -0.7172
vn -0.8025 0.4284 0.4153
vn -0.3067 0.3029 0.9023
vn -0.2981 0.6305 -0.7167
vn -0.2973 0.6299 -0.7175
vn -0.5835 -0.5701 -0.5783
vn 0.6004 0.7990 -0.0323
vn 0.8358 -0.5095 0.2046
vn -0.2980 -0.6305 -0.7167
vn 0.2552 0.7249 -0.6398
vn 0.2925 0.7174 0.6322
vn -0.6301 0.2972 -0.7174
vn -0.8379 -0.0903 -0.5383
vn -0.7956 0.3207 -0.5140
vn -0.8311 -0.5468 0.1009
vn -0.8028 -0.4278 -0.4153
vn -0.8309 -0.5559 0.0223
vn -0.8015 -0.4298 -0.4156
vn -0.7856 -0.1007 -0.6104
usemtl Material_001
s 1
f 1/1/1 2/2/2 3/3/3
f 4/4/4 5/5/5 6/6/6
f 7/7/7 8/8/8 9/9/9
f 10/10/10 11/11/11 12/12/12
f 13/13/13 14/14/14 15/15/15
f 16/16/16 17/17/17 18/18/18
f 19/19/19 14/20/14 20/21/20
f 21/22/21 11/11/11 10/10/10
f 22/23/22 23/24/23 24/25/24
f 2/2/2 25/26/25 3/3/3
f 26/27/26 27/28/27 28/29/28
f 3/30/3 29/31/29 30/32/30
f 31/33/31 32/34/32 33/35/33
f 28/29/28 27/28/27 34/36/34
f 35/37/35 30/38/30 29/39/29
f 36/40/36 37/41/37 38/42/38
f 39/43/39 18/44/18 40/45/40
f 41/46/41 42/47/42 43/48/43
f 2/49/2 1/50/1 26/27/26
f 44/51/44 45/52/45 46/53/46
f 13/54/13 47/55/47 48/56/48
f 28/57/28 34/58/34 49/59/49
f 50/60/50 49/61/49 51/62/51
f 52/63/52 53/64/53 25/65/25
f 54/66/54 55/67/55 56/68/56
f 13/54/13 57/69/57 3/30/3
f 29/39/29 58/70/58 35/37/35
f 32/34/32 31/33/31 59/71/59
f 60/72/60 4/73/4 61/74/61
f 42/75/42 62/76/62 63/77/63
f 5/78/5 19/79/19 20/80/20
f 64/81/64 51/82/51 5/83/5
f 9/84/9 16/85/16 65/86/65
f 7/7/7 66/87/66 67/88/67
f 66/87/66 7/7/7 9/9/9
f 53/89/53 3/3/3 25/26/25
f 5/78/5 68/90/68 64/91/64
f 69/92/69 47/93/47 53/89/53
f 16/94/16 70/95/70 71/96/71
f 48/97/48 47/93/47 69/92/69
f 49/59/49 2/98/2 28/57/28
f 72/99/72 73/100/73 74/101/74
f 75/102/75 72/99/72 74/101/74
f 63/103/63 62/104/62 76/105/76
f 49/59/49 34/58/34 77/106/77
f 15/107/15 19/19/19 78/108/78
f 49/59/49 77/106/77 43/109/43
f 72/110/72 79/111/79 73/112/73
f 80/113/80 81/114/81 82/115/82
f 4/73/4 60/72/60 5/116/5
f 83/117/83 84/118/84 46/119/46
f 35/120/35 58/121/58 85/122/85
f 16/16/16 18/18/18 59/123/59
f 83/117/83 46/119/46 86/124/86
f 87/125/87 88/126/88 7/7/7
f 89/127/89 6/6/6 5/5/5
f 83/117/83 86/124/86 43/128/43
f 83/117/83 90/129/90 12/130/12
f 83/117/83 12/130/12 91/131/91
f 22/23/22 24/25/24 92/132/92
f 41/133/41 93/134/93 4/135/4
f 41/136/41 4/137/4 24/138/24
f 16/16/16 71/139/71 94/140/74
f 27/28/27 95/141/94 34/36/34
f 83/117/83 91/131/91 5/142/5
f 13/54/13 96/143/95 37/144/37
f 94/145/74 97/146/73 17/147/17
f 7/148/7 98/149/96 13/54/13
f 65/150/65 54/66/54 56/68/56
f 99/151/97 39/43/39 40/45/40
f 50/152/50 51/153/51 93/154/93
f 88/126/88 59/155/59 100/156/98
f 41/136/41 101/157/99 42/158/42
f 13/54/13 37/144/37 57/69/57
f 2/159/2 5/78/5 20/80/20
f 38/160/38 102/161/100 78/108/78
f 62/104/62 74/162/74 79/163/79
f 2/159/2 20/80/20 103/164/101
f 39/43/39 99/151/97 104/165/79
f 46/53/46 45/52/45 86/166/86
f 79/111/79 72/110/72 76/167/76
f 2/159/2 103/164/101 36/168/36
f 54/169/54 65/170/65 16/171/16
f 2/159/2 36/168/36 25/172/25
f 90/173/90 5/174/5 60/175/60
f 54/176/54 88/177/88 90/178/90
f 41/136/41 24/138/24 23/179/23
f 105/180/102 40/181/40 17/182/17
f 90/173/90 60/175/60 10/183/10
f 87/125/87 7/7/7 13/184/13
f 84/185/84 44/186/44 46/187/46
f 106/188/103 72/110/72 107/189/104
f 8/8/8 104/190/79 97/191/73
f 90/129/90 10/192/10 12/130/12
f 97/193/73 94/194/74 70/95/70
f 13/54/13 48/56/48 108/195/105
f 98/196/96 67/197/67 90/198/90
f 87/199/87 36/168/36 38/200/38
f 19/19/19 15/107/15 14/20/14
f 67/197/67 66/201/66 55/202/55
f 105/203/102 99/151/97 40/45/40
f 36/40/36 57/204/57 37/41/37
f 87/199/87 38/200/38 78/205/78
f 59/123/59 18/18/18 32/206/32
f 90/207/90 87/199/87 78/205/78
f 74/162/74 73/208/73 79/163/79
f 16/16/16 94/140/74 17/17/17
f 90/207/90 78/205/78 19/79/19
f 8/8/8 31/209/31 33/210/33
f 60/72/60 21/211/21 10/212/10
f 90/207/90 19/79/19 5/78/5
f 83/213/83 98/196/96 90/198/90
f 43/128/43 86/124/86 22/214/22
f 70/95/70 94/194/74 71/96/71
f 9/84/9 65/86/65 66/215/66
f 3/30/3 58/216/58 29/31/29
f 61/74/61 21/211/21 60/72/60
f 43/128/43 22/214/22 5/142/5
f 24/25/24 81/217/81 92/132/92
f 43/218/43 5/83/5 51/82/51
f 52/219/52 48/97/48 69/92/69
f 101/157/99 82/220/82 4/137/4
f 89/127/89 91/221/91 109/222/106
f 43/109/43 51/223/51 49/59/49
f 76/105/76 62/104/62 79/163/79
f 3/30/3 110/224/107 58/216/58
f 5/142/5 22/214/22 92/225/92
f 43/48/43 77/226/77 41/46/41
f 96/227/95 102/228/100 38/42/38
f 98/196/96 83/213/83 101/229/99
f 5/142/5 92/225/92 80/230/80
f 83/117/83 43/128/43 107/231/104
f 75/102/75 83/232/83 107/233/104
f 83/117/83 5/142/5 80/230/80
f 83/117/83 80/230/80 84/118/84
f 34/36/34 95/141/94 77/234/77
f 108/235/105 48/97/48 52/219/52
f 55/202/55 66/201/66 56/236/56
f 2/98/2 49/59/49 35/237/35
f 18/238/18 39/239/39 33/35/33
f 39/240/39 104/241/79 33/242/33
f 101/243/99 75/244/75 42/75/42
f 41/46/41 77/226/77 95/245/94
f 2/98/2 35/237/35 85/246/85
f 67/197/67 54/247/54 90/198/90
f 41/136/41 23/179/23 111/248/108
f 97/146/73 104/249/79 17/147/17
f 2/250/2 85/251/85 68/252/68
f 2/159/2 68/90/68 5/78/5
f 104/249/79 99/253/97 17/147/17
f 108/235/105 52/219/52 13/184/13
f 63/254/63 76/167/76 106/188/103
f 110/255/107 85/122/85 58/121/58
f 52/256/52 69/257/69 53/258/53
f 112/259/109 113/260/110 20/261/20
f 87/199/87 52/262/52 36/168/36
f 8/8/8 97/191/73 70/263/70
f 52/262/52 25/172/25 36/168/36
f 88/177/88 16/16/16 59/123/59
f 1/264/1 3/30/3 30/32/30
f 13/13/13 15/15/15 102/265/100
f 91/221/91 89/127/89 5/5/5
f 30/32/30 27/266/27 26/267/26
f 110/255/107 68/268/68 85/122/85
f 3/30/3 47/55/47 13/54/13
f 109/269/106 91/270/91 12/12/12
f 26/27/26 28/29/28 2/49/2
f 86/166/86 111/271/108 22/272/22
f 23/273/23 22/272/22 111/271/108
f 31/209/31 7/7/7 100/156/98
f 112/274/109 14/275/14 4/137/4
f 11/11/11 109/269/106 12/12/12
f 63/254/63 106/188/103 42/47/42
f 93/276/93 114/277/111 4/137/4
f 66/215/66 65/86/65 56/278/56
f 49/61/49 50/60/50 30/38/30
f 114/277/111 115/279/112 4/137/4
f 7/7/7 67/88/67 98/280/96
f 88/126/88 100/156/98 7/7/7
f 54/176/54 16/16/16 88/177/88
f 68/268/68 115/281/112 64/282/64
f 82/115/82 44/186/44 84/185/84
f 26/267/26 1/264/1 30/32/30
f 83/283/83 75/284/75 101/285/99
f 67/197/67 55/202/55 54/247/54
f 30/32/30 50/286/50 41/136/41
f 30/32/30 41/136/41 95/287/94
f 30/32/30 95/287/94 27/266/27
f 38/42/38 37/41/37 96/227/95
f 101/157/99 41/136/41 111/248/108
f 8/8/8 33/210/33 104/190/79
f 101/157/99 111/248/108 45/288/45
f 42/75/42 75/244/75 74/289/74
f 64/290/64 115/291/112 114/292/111
f 101/157/99 45/288/45 44/293/44
f 80/113/80 82/115/82 84/185/84
f 72/110/72 106/188/103 76/167/76
f 3/30/3 4/137/4 110/224/107
f 101/157/99 4/137/4 89/294/89
f 57/204/57 36/40/36 103/295/101
f 101/157/99 89/294/89 109/296/106
f 20/261/20 113/260/110 103/297/101
f 49/61/49 30/38/30 35/37/35
f 57/298/57 103/297/101 113/260/110
f 75/102/75 107/233/104 72/99/72
f 101/157/99 109/296/106 98/149/96
f 92/132/92 81/217/81 80/299/80
f 3/3/3 53/89/53 47/93/47
f 4/137/4 115/279/112 110/224/107
f 90/207/90 88/300/88 87/199/87
f 64/290/64 93/154/93 51/153/51
f 107/231/104 43/128/43 106/301/103
f 4/302/4 6/303/6 89/304/89
f 52/219/52 87/125/87 13/184/13
f 18/44/18 17/305/17 40/45/40
f 8/306/8 16/94/16 9/307/9
f 99/253/97 105/308/102 17/147/17
f 3/30/3 57/69/57 113/309/110
f 33/35/33 32/34/32 18/238/18
f 4/137/4 82/220/82 81/310/81
f 45/52/45 111/271/108 86/166/86
f 3/30/3 113/309/110 112/274/109
f 8/306/8 70/95/70 16/94/16
f 3/30/3 112/274/109 4/137/4
f 101/157/99 44/293/44 82/220/82
f 100/311/98 59/71/59 31/33/31
f 13/54/13 4/137/4 14/275/14
f 114/292/111 93/154/93 64/290/64
f 20/261/20 14/312/14 112/259/109
f 13/54/13 21/313/21 61/314/61
f 15/107/15 78/108/78 102/161/100
f 13/54/13 61/314/61 4/137/4
f 98/149/96 109/296/106 11/315/11
f 68/268/68 110/255/107 115/281/112
f 4/137/4 81/310/81 24/138/24
f 42/47/42 106/188/103 43/48/43
f 98/149/96 11/315/11 21/313/21
f 98/149/96 21/313/21 13/54/13
f 41/136/41 50/286/50 93/276/93
f 7/7/7 31/209/31 8/8/8
f 13/54/13 102/316/100 96/143/95
f 42/75/42 74/289/74 62/76/62
