# https://github.com/mikedh/trimesh

o piece_000.obj
v 0.20960593 0.01037745 -0.31347814
v 0.24792589 0.00960016 -0.31346449
v 0.24941570 0.04485016 -0.31365144
v -0.24606547 0.03921860 -0.31369218
v -0.24623293 0.05618025 -0.31385842
v -0.24782570 0.07027827 -0.31383175
v -0.24280821 0.03121374 -0.31366348
v -0.23940171 0.01583986 -0.31348637
v -0.24355076 0.02031764 -0.31352013
v -0.18454447 0.01092887 -0.31342795
v -0.16879232 0.02110700 -0.31357676
v -0.15018694 0.01100087 -0.31344321
v -0.20041704 0.00960986 -0.31335458
v -0.23969907 0.00921345 -0.31323999
v 0.15084252 0.00685575 -0.31332880
v -0.14012539 0.00681084 -0.31325457
v -0.20123090 0.00682548 -0.31317663
v -0.24084452 0.00713360 -0.31307715
v 0.24950698 0.07266172 -0.31404036
v -0.24742670 0.07224800 -0.31361917
v -0.24581441 0.02251850 -0.31338137
v -0.21815215 0.00468406 -0.31282675
v -0.16307138 0.00471567 -0.31293035
v -0.24782681 0.05515908 -0.31363285
v 0.18054900 0.00481565 -0.31300077
v 0.23842068 0.00465049 -0.31292024
v 0.24405351 0.00505968 -0.31288213
v -0.24319424 0.00507351 -0.31242496
v -0.17566828 0.00362289 -0.31258261
v -0.24855812 0.07017075 -0.31348544
v 0.19170746 0.00344259 -0.31206819
v 0.24462660 0.00435912 -0.31208339
v -0.11717553 0.02002897 0.31379870
v -0.17287675 0.01819083 0.31371143
v -0.17975147 0.00965576 0.31363276
v -0.24043560 0.00964391 0.31344819
v -0.24364612 0.02238663 0.31355646
v -0.24614316 0.06609652 0.31376472
v -0.24385940 0.03248903 0.31362307
v -0.24487363 0.07273713 0.31373209
v 0.24111164 0.00949444 0.31402522
v 0.24343292 0.01422250 0.31409287
v 0.24270567 0.00699550 0.31397262
v -0.16255839 0.00680142 0.31352317
v -0.24622551 0.03682413 0.31358922
v -0.24866039 0.06708349 0.31367028
v -0.18336585 0.00677484 0.31346506
v -0.23737216 0.00676733 0.31325591
v -0.24791260 0.04740909 0.31352186
v -0.24991381 0.07250266 0.31343248
v 0.24205528 0.00459691 0.31365469
v -0.24232373 0.00708695 0.31314477
v -0.18303570 0.00452997 0.31313571
v -0.15661965 0.00450741 0.31316146
v -0.23724596 0.00454424 0.31286767
v 0.05102693 0.00354543 0.31314614
v 0.00258006 0.00341367 0.31303084
v -0.03443014 0.00341691 0.31298125
v -0.24235223 0.00360173 0.31210154
v -0.23398578 0.00307379 0.31232828
v -0.18314114 0.00319870 0.31255525
v -0.15838039 0.00314849 0.31256428
v -0.23944965 0.00228975 0.31129432
v -0.24572299 0.00437873 0.04330850
v -0.24562311 0.00443350 -0.15302081
v -0.24569957 0.00450049 -0.04319558
v -0.24502312 0.00339716 -0.29565036
v -0.24482912 0.00490919 -0.30860123
v -0.24498658 0.00894439 -0.31262866
v -0.24567395 0.00442558 0.22905584
v -0.24553798 0.00448076 0.26973271
v -0.24575207 0.00447098 0.07808287
v -0.24512875 0.00920763 0.31205776
v -0.24510852 0.00420288 0.30524325
v -0.24494234 0.00251241 0.30343255
v -0.24514091 0.00229088 -0.23216319
v -0.24528153 0.00231261 -0.15080592
v -0.24565198 0.01400124 -0.31297344
v -0.24532472 0.00252366 0.22459748
v -0.24506573 0.00179783 0.26679945
v -0.24541146 0.00258456 -0.03222382
v -0.24604672 0.01560382 0.31285897
v -0.24543464 0.00261642 0.07550493
v -0.24467058 0.00544648 0.31112537
v -0.24420275 0.00326356 -0.31091711
v -0.24664353 0.01738681 0.31023309
v -0.24749336 0.02844125 0.31226385
v -0.24746685 0.02618591 0.30951124
v -0.24731676 0.01798523 0.14919329
v -0.24745853 0.01955647 -0.05816883
v -0.24740763 0.01948232 -0.12883705
v -0.24728213 0.01927502 -0.29090798
v -0.24721222 0.01941442 -0.30222291
v -0.24750963 0.02673470 -0.30411839
v -0.24767111 0.03994661 -0.31256628
v -0.24749438 0.03041049 -0.31077224
v -0.24715041 0.01985897 0.28756782
v -0.24731348 0.01795469 -0.07523581
v -0.24697192 0.01753959 0.29010710
v -0.24699268 0.01965116 -0.31103799
v -0.24955952 0.05868507 0.31020838
v -0.24961405 0.05949213 0.28939953
v -0.24977532 0.06296896 0.31235066
v -0.25000000 0.07244536 0.30426916
v -0.24859290 0.05870099 -0.30410665
v -0.24865308 0.06246176 -0.31024775
v -0.24880011 0.07223029 -0.31116197
v -0.24710928 0.02512853 -0.31261563
v -0.24635038 0.01688567 -0.31296623
v -0.24966228 0.06523602 0.31344649
v -0.24424364 0.00201082 0.30842644
v -0.24844687 0.07270537 -0.31295055
v -0.24506225 0.00172976 0.23255529
v -0.24715394 0.02741879 0.31315693
v -0.24722770 0.03429119 -0.31338182
v -0.24499981 0.01086901 0.31321254
v -0.24424540 0.00575466 0.31229207
v -0.24352576 0.00239486 0.31053588
v 0.23951407 0.07271610 0.30315650
v 0.24223395 0.07270028 0.31273389
v 0.24977814 0.07265585 0.31406486
v 0.24231522 0.07331514 -0.30584639
v 0.24675050 0.07323916 -0.31287578
v 0.24852259 0.07316101 -0.31244394
v 0.23578145 0.07328003 -0.31081188
v -0.24578631 0.07275219 -0.30928200
v 0.05540500 0.07304741 -0.31271872
v -0.24810305 0.07289201 0.31249353
v -0.12159194 0.07251931 0.31396717
v 0.23075904 0.07331283 -0.28672031
v -0.21123740 0.07259478 0.31383455
v -0.24529652 0.07253937 -0.31333074
v 0.24581510 0.07307322 -0.31372455
v 0.23906973 0.00069655 -0.27314815
v 0.23915176 0.00080809 -0.28621212
v -0.08498392 0.00205894 0.31014839
v -0.24351592 0.00175370 0.30323145
v -0.24307033 0.00185550 0.30868757
v -0.24474700 0.00181082 0.30138198
v -0.24364619 0.00164668 0.23074193
v -0.24371038 0.00160012 0.16478381
v -0.24375233 0.00132807 -0.22576118
v -0.24368243 0.00136359 -0.15530738
v -0.24498019 0.00149362 -0.14147845
v -0.24495605 0.00150294 -0.23645039
v -0.24483715 0.00147220 -0.26655525
v -0.24464570 0.00147075 -0.30373931
v -0.24325925 0.00163932 -0.30781797
v 0.24098229 0.00221544 0.30984342
v 0.24056940 0.00277442 0.31247139
v 0.24075417 0.00158027 0.30503803
v -0.18538727 0.00274948 -0.31177315
v -0.23132747 0.00293908 -0.31181845
v -0.23894857 0.00233622 -0.31091246
v 0.23776557 0.00288512 -0.31109196
v -0.24418065 0.00203222 -0.30954316
v 0.24147637 0.00208189 -0.30612698
v 0.24125743 0.00270648 -0.30992427
v -0.15184511 0.00235834 0.31162658
v 0.13576181 0.00334399 0.31312469
v 0.23921910 0.00350428 -0.31203222
v -0.23673016 0.00348696 -0.31249800
v -0.24078168 0.00362646 -0.31219363
v 0.18352704 0.00401385 -0.31263691
v 0.24705935 0.00613680 -0.30942440
v 0.23870066 0.00000000 -0.02667200
v 0.24030882 0.00084935 0.26583239
v 0.24045551 0.00098272 0.29454562
v 0.24507999 0.02536894 0.31403500
v 0.24488243 0.02035928 0.30811423
v 0.24847047 0.05249546 0.30128244
v 0.24913818 0.06510440 0.31383854
v 0.24884258 0.05321246 0.28971422
v 0.24962983 0.06796969 -0.31409287
v 0.24958324 0.07242785 -0.31279713
v 0.24915089 0.07285757 -0.30510691
v 0.24953602 0.04499818 -0.31270844
v 0.24908875 0.03189834 -0.31345457
v 0.24913806 0.03304982 -0.31069165
v 0.24855487 0.01553277 -0.31230611
v 0.24816401 0.01007126 -0.31024274
v 0.24758585 0.00751655 -0.31202513
v 0.24704416 0.00687538 -0.31334540
v 0.24473238 0.00409965 -0.31072721
v 0.25000000 0.07229790 0.31265849
v 0.23955509 0.00099775 -0.29294181
v 0.24073881 0.00171638 -0.30266315
v 0.24137953 0.00329803 0.31319505
f 122 120 121
f 119 120 122
f 122 130 119
f 126 130 122
f 124 121 176
f 128 121 120
f 120 119 128
f 128 119 130
f 130 126 128
f 128 126 112
f 166 137 140
f 167 137 166
f 168 137 167
f 166 142 147
f 156 148 147
f 122 121 123
f 121 124 123
f 121 128 40
f 186 147 148
f 136 151 149
f 149 150 136
f 138 137 168
f 168 151 138
f 151 136 138
f 138 136 63
f 143 142 166
f 166 140 143
f 92 67 76
f 146 147 142
f 145 76 146
f 67 147 146
f 146 76 67
f 125 126 122
f 122 123 125
f 112 126 125
f 63 136 159
f 159 136 150
f 46 40 50
f 50 40 128
f 50 112 104
f 50 128 112
f 166 147 134
f 134 186 166
f 187 186 148
f 173 170 181
f 181 170 43
f 168 167 184
f 184 167 166
f 165 151 168
f 168 184 165
f 156 147 68
f 68 69 156
f 109 69 68
f 93 67 92
f 93 147 67
f 99 97 89
f 71 75 99
f 89 102 90
f 63 59 118
f 118 138 63
f 144 146 142
f 145 146 144
f 142 143 144
f 143 113 144
f 141 143 140
f 140 113 141
f 141 113 143
f 137 138 139
f 139 140 137
f 139 113 140
f 79 113 80
f 80 75 71
f 80 139 75
f 113 139 80
f 127 123 112
f 112 125 127
f 127 125 123
f 103 50 104
f 92 102 103
f 154 152 155
f 154 148 156
f 154 155 148
f 156 163 154
f 154 163 162
f 147 186 135
f 135 134 147
f 186 134 135
f 148 155 157
f 157 187 148
f 157 184 166
f 166 186 157
f 186 187 157
f 185 170 171
f 171 173 185
f 170 173 171
f 41 43 42
f 185 121 172
f 19 123 124
f 19 124 176
f 19 121 185
f 176 121 19
f 6 19 174
f 177 174 185
f 32 161 27
f 182 2 181
f 181 43 182
f 96 106 95
f 95 108 96
f 162 163 28
f 78 69 109
f 100 108 109
f 147 93 100
f 96 108 100
f 100 68 147
f 109 68 100
f 92 103 105
f 104 106 105
f 105 103 104
f 94 106 96
f 96 100 94
f 94 100 93
f 94 105 106
f 94 93 92
f 92 105 94
f 86 75 74
f 86 99 75
f 91 102 92
f 91 90 102
f 89 90 98
f 90 91 98
f 98 91 92
f 75 139 111
f 74 75 111
f 138 118 111
f 111 139 138
f 110 103 87
f 50 103 110
f 46 50 110
f 117 118 59
f 60 59 63
f 60 55 59
f 63 159 60
f 36 116 52
f 59 55 52
f 52 117 59
f 116 117 52
f 87 103 88
f 97 99 88
f 88 86 87
f 99 86 88
f 22 23 162
f 22 17 23
f 13 17 14
f 27 161 26
f 26 161 164
f 15 25 23
f 162 152 153
f 153 154 162
f 152 154 153
f 152 164 31
f 164 161 31
f 155 152 31
f 31 161 155
f 33 42 129
f 121 40 129
f 129 42 121
f 169 43 170
f 169 170 185
f 185 172 169
f 169 42 43
f 121 42 169
f 169 172 121
f 112 123 133
f 123 19 133
f 185 174 175
f 175 19 185
f 174 19 175
f 19 6 20
f 20 133 19
f 108 95 30
f 112 20 30
f 30 20 6
f 30 95 106
f 11 7 174
f 5 6 174
f 174 7 5
f 185 173 180
f 180 173 181
f 181 2 180
f 2 174 3
f 174 177 3
f 184 157 158
f 158 32 184
f 158 157 155
f 155 161 158
f 161 32 158
f 51 182 43
f 165 182 51
f 149 151 51
f 151 165 51
f 43 44 51
f 156 69 85
f 69 28 85
f 85 163 156
f 85 28 163
f 69 78 18
f 18 28 69
f 162 28 18
f 18 22 162
f 14 17 18
f 17 22 18
f 21 78 109
f 89 98 72
f 37 116 36
f 37 45 116
f 87 86 82
f 114 82 116
f 114 110 87
f 87 82 114
f 49 45 46
f 46 110 49
f 110 114 49
f 116 45 49
f 49 114 116
f 84 111 118
f 118 117 84
f 74 111 84
f 84 86 74
f 84 82 86
f 36 52 48
f 48 52 55
f 97 88 101
f 101 88 103
f 101 103 102
f 89 97 101
f 101 102 89
f 25 26 29
f 162 23 29
f 23 25 29
f 29 26 164
f 29 152 162
f 29 164 152
f 23 17 16
f 16 15 23
f 17 13 16
f 183 26 25
f 25 15 183
f 183 15 2
f 27 26 183
f 183 32 27
f 2 182 183
f 183 182 165
f 183 165 184
f 184 32 183
f 112 133 132
f 132 20 112
f 133 20 132
f 107 106 104
f 107 30 106
f 104 112 107
f 112 30 107
f 1 174 2
f 1 11 174
f 7 11 8
f 8 13 14
f 179 177 185
f 185 180 179
f 179 180 177
f 177 180 178
f 178 3 177
f 178 180 2
f 2 3 178
f 188 150 149
f 149 51 188
f 188 159 150
f 56 160 188
f 188 51 56
f 53 51 44
f 53 58 56
f 53 48 55
f 55 60 53
f 4 5 7
f 6 5 4
f 70 80 71
f 79 80 70
f 89 72 70
f 71 99 70
f 70 99 89
f 35 37 36
f 41 42 35
f 35 42 33
f 35 43 41
f 35 44 43
f 33 129 38
f 38 40 46
f 46 45 38
f 73 117 116
f 73 84 117
f 116 82 73
f 82 84 73
f 57 160 56
f 56 58 57
f 36 48 47
f 47 35 36
f 44 35 47
f 47 53 44
f 48 53 47
f 11 1 12
f 12 8 11
f 12 1 2
f 2 15 12
f 15 16 12
f 7 8 9
f 9 4 7
f 21 4 9
f 9 8 14
f 14 18 9
f 9 18 78
f 78 21 9
f 56 51 54
f 54 53 56
f 51 53 54
f 61 53 60
f 58 53 61
f 115 4 21
f 115 21 109
f 109 108 115
f 108 30 115
f 77 76 145
f 145 144 77
f 144 81 77
f 83 144 113
f 83 81 144
f 83 113 79
f 72 81 83
f 79 70 83
f 83 70 72
f 131 129 40
f 40 38 131
f 131 38 129
f 45 37 39
f 39 38 45
f 13 8 10
f 8 12 10
f 10 16 13
f 10 12 16
f 62 57 58
f 58 61 62
f 160 57 62
f 159 188 62
f 62 188 160
f 62 60 159
f 62 61 60
f 6 4 24
f 4 115 24
f 24 30 6
f 24 115 30
f 65 77 81
f 65 98 92
f 92 76 65
f 76 77 65
f 37 35 34
f 34 39 37
f 34 35 33
f 33 38 34
f 38 39 34
f 66 65 81
f 66 72 98
f 98 65 66
f 64 81 72
f 72 66 64
f 64 66 81

