####
#
# OBJ File Generated by Meshlab
#
####
# Object l_lglut_chull.obj
#
# Vertices: 12
# Faces: 20
#
####
vn -0.436363 -0.410951 -0.800441
v -0.032844 0.020896 -0.085231
vn -0.368997 0.921269 0.122896
v -0.051255 0.041344 -0.044419
vn -0.062599 0.806745 0.587575
v 0.047505 0.046196 0.005720
vn -0.068468 -0.633621 0.770608
v -0.061161 -0.017488 0.015424
vn -0.513894 0.517083 0.684498
v -0.067279 0.012263 0.021136
vn -0.257460 -0.923223 -0.285261
v -0.061161 -0.019307 -0.005602
vn 0.557020 -0.827336 -0.072417
v 0.090902 -0.020748 0.008047
vn 0.220353 0.108979 0.969313
v 0.081975 0.001617 0.024320
vn 0.174815 -0.791701 -0.585362
v 0.054998 -0.010103 -0.071937
vn -0.202014 0.928878 -0.310444
v -0.025645 0.041312 -0.083887
vn 0.622073 0.212105 -0.753682
v 0.054986 0.055294 -0.071813
vn 0.299995 0.951900 0.062364
v 0.071457 0.061483 -0.031662
# 12 vertices, 0 vertices normals

f 6//6 9//9 7//7
f 7//7 4//4 6//6
f 12//12 8//8 7//7
f 8//8 12//12 3//3
f 8//8 3//3 5//5
f 8//8 5//5 4//4
f 5//5 3//3 2//2
f 1//1 9//9 6//6
f 10//10 2//2 12//12
f 1//1 6//6 5//5
f 2//2 1//1 5//5
f 1//1 2//2 10//10
f 12//12 11//11 10//10
f 11//11 9//9 1//1
f 11//11 1//1 10//10
f 11//11 7//7 9//9
f 11//11 12//12 7//7
f 12//12 2//2 3//3
f 5//5 6//6 4//4
f 7//7 8//8 4//4
# 20 faces, 0 coords texture

# End of File