####
#
# OBJ File Generated by Meshlab
#
####
# Object ltorso_chull.obj
#
# Vertices: 12
# Faces: 20
#
####
vn 0.405576 0.750284 0.522094
v 0.040900 0.013499 0.066660
vn 0.354222 -0.917154 -0.182637
v -0.017889 -0.056235 0.055859
vn -0.514305 0.431095 -0.741382
v -0.008118 0.018311 -0.014419
vn -0.402770 -0.585923 -0.703186
v -0.008677 -0.019244 -0.013182
vn 0.545458 -0.599471 -0.585756
v 0.016731 -0.018686 -0.008160
vn 0.479826 0.846250 -0.231576
v 0.021521 0.018531 -0.000631
vn 0.855385 -0.507909 -0.101711
v 0.041091 -0.018298 0.038916
vn -0.870708 -0.086186 -0.484190
v -0.040483 -0.018686 0.030758
vn -0.505361 0.862785 0.014598
v -0.046030 0.019044 0.047174
vn -0.207989 0.183990 0.960671
v -0.040154 0.004806 0.073690
vn -0.788399 -0.553062 0.269351
v -0.043165 -0.060716 0.062673
vn 0.277568 -0.334675 0.900527
v 0.010700 -0.029382 0.068731
# 12 vertices, 0 vertices normals

f 2//2 11//11 4//4
f 5//5 2//2 4//4
f 5//5 7//7 2//2
f 7//7 1//1 12//12
f 7//7 12//12 2//2
f 8//8 11//11 9//9
f 8//8 4//4 11//11
f 12//12 1//1 10//10
f 6//6 1//1 7//7
f 10//10 9//9 11//11
f 4//4 3//3 5//5
f 5//5 3//3 6//6
f 5//5 6//6 7//7
f 4//4 8//8 3//3
f 8//8 9//9 3//3
f 11//11 2//2 12//12
f 11//11 12//12 10//10
f 9//9 6//6 3//3
f 9//9 1//1 6//6
f 9//9 10//10 1//1
# 20 faces, 0 coords texture

# End of File