####
#
# OBJ File Generated by Meshlab
#
####
# Object r_sh_rx.obj
#
# Vertices: 163
# Faces: 310
#
####
vn 0.000000 -0.128588 -0.991698
v -0.041557 -0.129352 -0.013109
vn 0.000000 0.107864 -0.994166
v -0.041557 -0.064664 -0.013180
vn 0.040026 0.119491 -0.992028
v 0.055889 -0.064664 -0.013180
vn 0.158164 -0.120210 -0.980068
v 0.055889 -0.129352 -0.013109
vn 0.000000 -0.060727 0.998154
v -0.041557 -0.129352 0.043216
vn 0.078157 -0.235734 0.968670
v 0.055889 -0.129352 0.043216
vn 0.080276 0.060531 0.994933
v 0.055889 -0.064736 0.043216
vn 0.000000 0.236457 0.971642
v -0.041557 -0.064736 0.043216
vn 0.723660 0.690156 0.000878
v 0.055889 -0.064736 0.035354
vn 0.820935 -0.148640 0.551336
v 0.055889 -0.129352 0.035354
vn 0.957666 -0.210170 -0.196733
v 0.055889 -0.129352 -0.005246
vn 0.386982 0.922086 0.001484
v 0.055889 -0.064664 -0.005317
vn 0.000000 0.999999 0.001609
v -0.041557 -0.064736 0.035354
vn 0.000000 0.999999 0.001272
v -0.041557 -0.064664 -0.005317
vn -0.983427 -0.181305 0.000000
v -0.053485 -0.129352 0.035354
vn -0.983385 0.181533 0.000231
v -0.053485 -0.064736 0.035354
vn -0.983379 0.181566 0.000292
v -0.053485 -0.064664 -0.005317
vn -0.983421 -0.181335 0.000000
v -0.053485 -0.129352 -0.005246
vn -0.412632 -0.765602 0.493547
v -0.041557 -0.129352 0.035354
vn -0.173168 -0.528219 -0.831262
v -0.041557 -0.129352 -0.005246
vn -0.788238 -0.145509 0.597920
v -0.053485 -0.129352 0.043216
vn -0.312492 0.057686 0.948167
v -0.053485 -0.064736 0.043216
vn -0.788351 0.144714 -0.597964
v -0.053485 -0.064664 -0.013180
vn -0.312476 -0.058671 -0.948112
v -0.053485 -0.129352 -0.013109
vn 0.262223 -0.559152 0.786503
v 0.055889 -0.143933 0.035354
vn 0.362098 0.002257 -0.932137
v 0.055889 -0.144005 -0.005317
vn -0.316650 0.000920 -0.948542
v -0.041557 -0.144005 -0.005317
vn -0.334077 -0.383195 0.861135
v -0.041557 -0.143933 0.035354
vn 0.314548 -0.770773 0.554047
v 0.055889 -0.173240 0.009335
vn 0.066897 -0.447063 -0.891997
v 0.055889 -0.173168 -0.005317
vn -0.452591 -0.399549 -0.797196
v -0.041557 -0.173168 -0.005317
vn -0.044137 -0.811197 0.583105
v -0.041557 -0.173240 0.009335
vn 0.521512 -0.850170 -0.072362
v 0.039311 -0.187249 0.015196
vn 0.597887 -0.137776 -0.789651
v 0.027990 -0.187178 -0.012036
vn 0.769731 -0.135868 -0.623741
v 0.027990 -0.133569 -0.012036
vn 0.985442 -0.135285 0.102969
v 0.039311 -0.133569 0.015268
vn -0.099162 -0.687331 -0.719544
v 0.000798 -0.187249 -0.023259
vn 0.101966 -0.136263 -0.985411
v 0.000798 -0.133569 -0.023330
vn -0.789952 -0.137969 -0.597445
v -0.026495 -0.187178 -0.012036
vn -0.624106 -0.136406 -0.769340
v -0.026495 -0.133569 -0.012036
vn -0.520698 -0.850772 0.071139
v -0.037716 -0.187249 0.015196
vn -0.985467 -0.136027 -0.101742
v -0.037716 -0.133569 0.015268
vn -0.598450 -0.137159 0.789332
v -0.026495 -0.187249 0.042501
vn -0.769750 -0.135216 0.623860
v -0.026495 -0.133569 0.042430
vn 0.099357 -0.688371 0.718522
v 0.000798 -0.187249 0.053795
vn -0.102634 -0.135151 0.985495
v 0.000798 -0.133569 0.053724
vn 0.789477 -0.137022 0.598291
v 0.027990 -0.187249 0.042501
vn 0.624199 -0.134970 0.769519
v 0.027990 -0.133569 0.042430
vn 0.619133 -0.106202 -0.778072
v 0.033549 -0.126994 -0.017612
vn 0.987942 -0.105993 -0.112858
v 0.047095 -0.126994 0.015268
vn -0.113316 -0.105871 -0.987902
v 0.000798 -0.127065 -0.031121
vn -0.778207 -0.105718 -0.619045
v -0.031954 -0.126994 -0.017612
vn -0.987776 -0.106668 0.113665
v -0.045601 -0.126994 0.015268
vn -0.618183 -0.106392 0.778801
v -0.031954 -0.126994 0.048006
vn 0.113269 -0.106907 0.987796
v 0.000798 -0.126994 0.061586
vn 0.778996 -0.106808 0.617866
v 0.033549 -0.126994 0.048006
vn 0.789724 0.142314 -0.596726
v 0.033549 -0.064594 -0.017540
vn 0.507606 0.858690 0.070629
v 0.047095 -0.064594 0.015196
vn 0.097198 0.700001 -0.707496
v 0.000798 -0.064594 -0.031121
vn -0.596773 0.142264 -0.789698
v -0.031954 -0.064594 -0.017540
vn -0.508389 0.858299 -0.069742
v -0.045601 -0.064594 0.015196
vn -0.788451 0.142219 0.598430
v -0.031954 -0.064664 0.048006
vn -0.097532 0.700538 0.706919
v 0.000798 -0.064664 0.061586
vn 0.598158 0.142480 0.788611
v 0.033549 -0.064664 0.048006
vn 0.158779 0.978105 0.134538
v -0.057982 0.028972 -0.001051
vn 0.183403 0.593480 0.783674
v -0.057982 0.021038 0.018176
vn 0.097375 0.793551 0.600662
v -0.004036 0.021038 0.018176
vn 0.751057 0.654079 -0.089968
v -0.004036 0.028972 -0.001051
vn 0.293772 -0.128939 0.947139
v -0.057982 0.001739 0.026182
vn 0.553574 0.115216 0.824791
v -0.004036 0.001739 0.026182
vn 0.465672 -0.705739 0.533931
v -0.057982 -0.017489 0.018248
vn 0.097287 -0.600477 0.793702
v -0.004036 -0.017489 0.018248
vn 0.170101 -0.975955 -0.136298
v -0.057982 -0.025423 -0.000979
vn 0.750713 -0.654589 0.089125
v -0.004036 -0.025423 -0.000979
vn 0.036180 -0.603127 -0.796824
v -0.057982 -0.017418 -0.020279
vn 0.097218 -0.793428 -0.600849
v -0.004036 -0.017418 -0.020279
vn 0.118879 0.135298 -0.983647
v -0.057982 0.001810 -0.028213
vn 0.554633 -0.113383 -0.824334
v -0.004036 0.001810 -0.028213
vn 0.142503 0.789346 -0.597182
v -0.057982 0.021038 -0.020279
vn 0.097288 0.600477 -0.793702
v -0.004036 0.021038 -0.020279
vn 0.499685 0.857129 -0.125079
v -0.057982 0.036911 -0.001051
vn 0.663513 0.684891 0.301123
v -0.057982 0.027487 0.025545
vn 0.873222 0.250307 0.418126
v -0.057982 0.014226 0.045384
vn 0.842212 -0.005902 0.539114
v -0.057982 -0.024566 0.044806
vn 0.932713 0.001952 0.360614
v -0.057982 -0.033500 0.045015
vn 0.982982 -0.086243 -0.162199
v -0.057982 -0.018235 -0.027821
vn 0.432376 -0.061322 -0.899606
v -0.057982 0.001810 -0.033931
vn 0.491312 0.489386 -0.720495
v -0.057982 0.026598 -0.026132
vn -0.439730 0.892837 0.097361
v -0.071229 0.036911 -0.001051
vn -0.970145 0.213186 0.115631
v -0.071229 0.027487 0.025545
vn -0.534652 0.170230 0.827749
v -0.071229 0.014226 0.045384
vn -0.994894 -0.000284 0.100922
v -0.071229 -0.024566 0.044806
vn -0.990668 0.000943 0.136294
v -0.071229 -0.033500 0.045015
vn -0.978676 -0.096434 -0.181365
v -0.071229 -0.018235 -0.027821
vn -0.313977 0.128188 -0.940737
v -0.071229 0.001810 -0.033931
vn -0.989847 0.111887 -0.087665
v -0.071229 0.026598 -0.026132
vn 0.981392 0.142342 0.128877
v -0.057982 -0.058589 0.044945
vn 0.929734 -0.151687 -0.335538
v -0.057982 -0.034685 -0.014526
vn -0.980628 0.001399 0.195872
v -0.071229 -0.054800 0.045015
vn -0.973637 -0.042229 -0.224162
v -0.071229 -0.034685 -0.014526
vn 0.942536 0.267163 0.200624
v -0.052263 -0.065879 0.045497
vn 0.866969 0.422315 -0.264604
v -0.052263 -0.066380 -0.014355
vn -0.891255 0.013376 0.453304
v -0.071229 -0.065879 0.045497
vn -0.977547 -0.001014 -0.210715
v -0.071229 -0.066380 -0.014355
vn 0.944341 -0.317426 0.086371
v -0.052263 -0.088972 0.045425
vn 0.568443 -0.772429 -0.283241
v -0.052263 -0.088972 -0.014355
vn -0.466168 -0.853659 0.232280
v -0.063084 -0.088972 0.045425
vn -0.763369 -0.642461 -0.067167
v -0.063084 -0.088972 -0.014355
vn 0.930263 0.071047 -0.359950
v 0.068195 -0.025923 -0.002052
vn 0.543103 -0.496335 -0.677268
v 0.068195 -0.017418 -0.020802
vn 0.978021 0.028412 -0.206560
v 0.068195 0.001810 -0.028736
vn 0.991372 0.128848 0.024064
v 0.068195 0.029998 -0.001575
vn 0.547552 0.653157 -0.523042
v 0.068195 0.021038 -0.020802
vn 0.000014 0.310031 0.950726
v 0.068195 -0.034534 0.045371
vn 0.689524 0.537198 0.485773
v 0.068195 0.019524 0.020908
vn -0.988389 0.150823 -0.018429
v 0.060517 0.029998 -0.001575
vn -0.954651 0.220521 0.200031
v 0.060517 0.019524 0.020908
vn -0.550396 0.496714 -0.671073
v 0.060517 0.021038 -0.020802
vn -0.978021 -0.028412 -0.206563
v 0.060517 0.001810 -0.028736
vn -0.548927 -0.653467 -0.521209
v 0.060517 -0.017418 -0.020802
vn -0.999170 -0.018374 -0.036353
v 0.060517 -0.025923 -0.002052
vn -0.972450 0.046873 0.228351
v 0.060517 -0.034534 0.045371
vn 0.991580 -0.000517 0.129496
v 0.074572 -0.056874 0.045371
vn 0.989096 0.011932 -0.146791
v 0.074572 -0.054514 -0.002052
vn 0.000000 0.256612 -0.966515
v 0.068195 -0.054514 -0.002052
vn -0.969585 0.103128 -0.221967
v 0.060517 -0.054514 -0.002052
vn -0.993455 0.031098 0.109908
v 0.060517 -0.056874 0.045371
vn 0.000000 0.000000 1.000000
v 0.068195 -0.056874 0.045371
vn 0.995679 0.000000 0.092862
v 0.074572 -0.064522 0.045371
vn 0.986290 0.113386 -0.119899
v 0.074572 -0.062092 -0.007627
vn 0.000000 0.796732 -0.604333
v 0.068195 -0.062092 -0.007627
vn -0.672952 0.724353 -0.149828
v 0.058683 -0.062092 -0.007627
vn -0.893549 0.432085 0.121957
v 0.058683 -0.064522 0.045371
vn 0.000000 0.000000 1.000000
v 0.068195 -0.064522 0.045371
vn 0.994266 0.000000 0.106933
v 0.074572 -0.065451 0.045371
vn 0.994654 0.067870 -0.077828
v 0.074572 -0.065379 -0.013917
vn 0.000000 0.314422 -0.949283
v 0.068195 -0.065379 -0.013917
vn -0.839618 0.491333 -0.231590
v 0.054610 -0.065379 -0.013917
vn -0.916080 0.356285 0.184008
v 0.054611 -0.065451 0.045371
vn 0.000000 0.000000 1.000000
v 0.068195 -0.065451 0.045371
vn 0.741527 -0.666261 0.078957
v 0.066297 -0.089610 0.045371
vn 0.734424 -0.659858 -0.158774
v 0.066297 -0.089539 -0.013917
vn 0.000000 -0.932911 -0.360108
v 0.059919 -0.089539 -0.013917
vn -0.950013 -0.309251 -0.042889
v 0.054610 -0.089539 -0.013917
vn -0.910127 -0.296248 0.289667
v 0.054611 -0.089610 0.045371
vn 0.000000 -0.982796 0.184696
v 0.059919 -0.089610 0.045371
vn 0.963000 -0.248931 0.103269
v 0.074572 -0.073303 0.045371
vn 0.922698 -0.377350 -0.078956
v 0.074572 -0.073231 -0.013917
vn 0.000000 0.000000 -1.000000
v 0.068195 -0.073231 -0.013917
vn -0.964272 0.000000 -0.264915
v 0.054610 -0.073231 -0.013917
vn -0.990772 0.000000 0.135538
v 0.054611 -0.073303 0.045371
vn 0.000000 0.000000 1.000000
v 0.068195 -0.073303 0.045371
vn 0.881040 0.292120 0.372067
v 0.068195 0.002841 0.028457
vn -0.950330 0.128326 0.283559
v 0.060517 0.002554 0.028587
vn 0.880103 -0.432379 -0.196131
v 0.068195 -0.025786 -0.002355
vn 0.990459 0.064184 -0.121945
v 0.074592 -0.025923 -0.002052
vn 0.981284 0.051926 0.185433
v 0.074592 -0.034534 0.045371
vn 0.953385 0.292146 -0.075554
v 0.074611 0.002841 0.028457
vn 0.893470 0.158967 -0.420047
v -0.057596 -0.057707 -0.014416
vn 0.880630 -0.001473 0.473802
v -0.052263 -0.072693 0.045475
vn 0.987929 0.000000 -0.154906
v -0.052263 -0.073045 -0.014355
vn -0.931105 -0.332387 0.150209
v -0.071229 -0.072693 0.045475
vn -0.840030 -0.302824 -0.450164
v -0.071229 -0.073045 -0.014355
# 163 vertices, 0 vertices normals

f 3//3 4//4 1//1
f 1//1 2//2 3//3
f 7//7 8//8 5//5
f 5//5 6//6 7//7
f 11//11 12//12 9//9
f 9//9 10//10 11//11
f 12//12 14//14 13//13
f 13//13 9//9 12//12
f 17//17 18//18 15//15
f 15//15 16//16 17//17
f 19//19 10//10 6//6
f 6//6 5//5 19//19
f 11//11 20//20 1//1
f 1//1 4//4 11//11
f 10//10 9//9 7//7
f 7//7 6//6 10//10
f 12//12 11//11 4//4
f 4//4 3//3 12//12
f 9//9 13//13 8//8
f 8//8 7//7 9//9
f 14//14 12//12 3//3
f 3//3 2//2 14//14
f 16//16 15//15 21//21
f 21//21 22//22 16//16
f 18//18 17//17 23//23
f 23//23 24//24 18//18
f 25//25 26//26 11//11
f 11//11 10//10 25//25
f 27//27 28//28 19//19
f 19//19 20//20 27//27
f 28//28 25//25 10//10
f 10//10 19//19 28//28
f 26//26 27//27 20//20
f 20//20 11//11 26//26
f 29//29 30//30 26//26
f 26//26 25//25 29//29
f 31//31 32//32 28//28
f 28//28 27//27 31//31
f 32//32 29//29 25//25
f 25//25 28//28 32//32
f 30//30 31//31 27//27
f 27//27 26//26 30//30
f 30//30 29//29 32//32
f 32//32 31//31 30//30
f 24//24 23//23 2//2
f 2//2 1//1 24//24
f 18//18 24//24 1//1
f 1//1 20//20 18//18
f 15//15 18//18 20//20
f 20//20 19//19 15//15
f 21//21 15//15 19//19
f 19//19 5//5 21//21
f 22//22 21//21 5//5
f 5//5 8//8 22//22
f 16//16 22//22 8//8
f 8//8 13//13 16//16
f 17//17 16//16 13//13
f 13//13 14//14 17//17
f 23//23 17//17 14//14
f 14//14 2//2 23//23
f 35//35 36//36 33//33
f 33//33 34//34 35//35
f 38//38 35//35 34//34
f 34//34 37//37 38//38
f 40//40 38//38 37//37
f 37//37 39//39 40//40
f 42//42 40//40 39//39
f 39//39 41//41 42//42
f 44//44 42//42 41//41
f 41//41 43//43 44//44
f 46//46 44//44 43//43
f 43//43 45//45 46//46
f 48//48 46//46 45//45
f 45//45 47//47 48//48
f 36//36 48//48 47//47
f 47//47 33//33 36//36
f 41//41 33//33 45//45
f 45//45 43//43 41//41
f 37//37 33//33 41//41
f 41//41 39//39 37//37
f 37//37 34//34 33//33
f 47//47 45//45 33//33
f 49//49 50//50 36//36
f 36//36 35//35 49//49
f 51//51 49//49 35//35
f 35//35 38//38 51//51
f 52//52 51//51 38//38
f 38//38 40//40 52//52
f 53//53 52//52 40//40
f 40//40 42//42 53//53
f 54//54 53//53 42//42
f 42//42 44//44 54//54
f 55//55 54//54 44//44
f 44//44 46//46 55//55
f 56//56 55//55 46//46
f 46//46 48//48 56//56
f 50//50 56//56 48//48
f 48//48 36//36 50//50
f 57//57 58//58 50//50
f 50//50 49//49 57//57
f 59//59 57//57 49//49
f 49//49 51//51 59//59
f 60//60 59//59 51//51
f 51//51 52//52 60//60
f 61//61 60//60 52//52
f 52//52 53//53 61//61
f 62//62 61//61 53//53
f 53//53 54//54 62//62
f 63//63 62//62 54//54
f 54//54 55//55 63//63
f 64//64 63//63 55//55
f 55//55 56//56 64//64
f 58//58 64//64 56//56
f 56//56 50//50 58//58
f 61//61 58//58 59//59
f 59//59 60//60 61//61
f 63//63 58//58 61//61
f 61//61 62//62 63//63
f 63//63 64//64 58//58
f 57//57 59//59 58//58
f 67//67 68//68 65//65
f 65//65 66//66 67//67
f 70//70 67//67 66//66
f 66//66 69//69 70//70
f 72//72 70//70 69//69
f 69//69 71//71 72//72
f 74//74 72//72 71//71
f 71//71 73//73 74//74
f 76//76 74//74 73//73
f 73//73 75//75 76//76
f 78//78 76//76 75//75
f 75//75 77//77 78//78
f 80//80 78//78 77//77
f 77//77 79//79 80//80
f 68//68 80//80 79//79
f 79//79 65//65 68//68
f 74//74 68//68 70//70
f 70//70 72//72 74//74
f 78//78 68//68 74//74
f 74//74 76//76 78//78
f 78//78 80//80 68//68
f 67//67 70//70 68//68
f 81//81 82//82 66//66
f 66//66 65//65 81//81
f 82//82 83//83 69//69
f 69//69 66//66 82//82
f 83//83 84//84 71//71
f 71//71 69//69 83//83
f 84//84 85//85 73//73
f 73//73 71//71 84//84
f 85//85 86//86 75//75
f 75//75 73//73 85//85
f 86//86 87//87 77//77
f 77//77 75//75 86//86
f 87//87 88//88 79//79
f 79//79 77//77 87//87
f 88//88 81//81 65//65
f 65//65 79//79 88//88
f 89//89 90//90 82//82
f 82//82 81//81 89//89
f 90//90 91//91 83//83
f 83//83 82//82 90//90
f 91//91 92//92 84//84
f 84//84 83//83 91//91
f 92//92 93//93 85//85
f 85//85 84//84 92//92
f 94//94 95//95 87//87
f 87//87 86//86 94//94
f 95//95 96//96 88//88
f 88//88 87//87 95//95
f 96//96 89//89 81//81
f 81//81 88//88 96//96
f 94//94 92//92 96//96
f 96//96 95//95 94//94
f 94//94 93//93 92//92
f 90//90 96//96 92//92
f 92//92 91//91 90//90
f 89//89 96//96 90//90
f 97//97 98//98 86//86
f 86//86 85//85 97//97
f 99//99 97//97 85//85
f 85//85 93//93 99//99
f 98//98 100//100 94//94
f 94//94 86//86 98//98
f 100//100 99//99 93//93
f 93//93 94//94 100//100
f 97//97 101//101 102//102
f 102//102 159//159 97//97
f 103//103 101//101 97//97
f 97//97 99//99 103//103
f 100//100 98//98 159//159
f 159//159 104//104 100//100
f 104//104 103//103 99//99
f 99//99 100//100 104//104
f 101//101 160//160 161//161
f 161//161 102//102 101//101
f 103//103 162//162 160//160
f 160//160 101//101 103//103
f 102//102 161//161 163//163
f 163//163 104//104 102//102
f 104//104 163//163 162//162
f 162//162 103//103 104//104
f 106//106 105//105 107//107
f 107//107 108//108 106//106
f 155//155 110//110 111//111
f 111//111 109//109 155//155
f 109//109 111//111 112//112
f 111//111 113//113 112//112
f 117//117 115//115 112//112
f 112//112 116//116 117//117
f 116//116 112//112 113//113
f 113//113 118//118 116//116
f 118//118 113//113 111//111
f 111//111 119//119 118//118
f 119//119 111//111 110//110
f 110//110 120//120 119//119
f 109//109 121//121 120//120
f 120//120 155//155 109//109
f 120//120 110//110 155//155
f 114//114 153//153 154//154
f 154//154 122//122 114//114
f 119//119 121//121 116//116
f 116//116 118//118 119//119
f 119//119 120//120 121//121
f 121//121 122//122 154//154
f 124//124 156//156 157//157
f 157//157 123//123 124//124
f 126//126 121//121 109//109
f 109//109 125//125 126//126
f 128//128 114//114 122//122
f 122//122 127//127 128//128
f 127//127 122//122 121//121
f 121//121 126//126 127//127
f 130//130 124//124 123//123
f 123//123 129//129 130//130
f 132//132 126//126 125//125
f 125//125 131//131 132//132
f 134//134 128//128 127//127
f 127//127 133//133 134//134
f 133//133 127//127 126//126
f 126//126 132//132 133//133
f 136//136 130//130 129//129
f 129//129 135//135 136//136
f 138//138 132//132 131//131
f 131//131 137//137 138//138
f 140//140 134//134 133//133
f 133//133 139//139 140//140
f 139//139 133//133 132//132
f 132//132 138//138 139//139
f 147//147 148//148 136//136
f 136//136 135//135 147//147
f 150//150 138//138 137//137
f 137//137 149//149 150//150
f 152//152 140//140 139//139
f 139//139 151//151 152//152
f 150//150 151//151 139//139
f 139//139 138//138 150//150
f 146//146 145//145 144//144
f 144//144 143//143 146//146
f 124//124 125//125 109//109
f 109//109 156//156 124//124
f 130//130 131//131 125//125
f 125//125 124//124 130//130
f 136//136 137//137 131//131
f 131//131 130//130 136//136
f 148//148 149//149 137//137
f 137//137 136//136 148//148
f 141//141 146//146 143//143
f 143//143 142//142 141//141
f 141//141 147//147 152//152
f 152//152 146//146 141//141
f 129//129 134//134 140//140
f 140//140 135//135 129//129
f 123//123 128//128 134//134
f 134//134 129//129 123//123
f 157//157 114//114 128//128
f 128//128 123//123 157//157
f 141//141 142//142 148//148
f 148//148 147//147 141//141
f 143//143 144//144 150//150
f 150//150 149//149 143//143
f 145//145 146//146 152//152
f 152//152 151//151 145//145
f 144//144 145//145 151//151
f 151//151 150//150 144//144
f 142//142 143//143 149//149
f 149//149 148//148 142//142
f 140//140 152//152 147//147
f 147//147 135//135 140//140
f 112//112 115//115 153//153
f 153//153 109//109 112//112
f 153//153 115//115 117//117
f 117//117 154//154 153//153
f 117//117 116//116 121//121
f 121//121 154//154 117//117
f 153//153 114//114 157//157
f 157//157 158//158 153//153
f 109//109 153//153 158//158
f 158//158 156//156 109//109
f 156//156 158//158 157//157
f 159//159 98//98 97//97
f 159//159 102//102 104//104
f 105//105 106//106 161//161
f 161//161 160//160 105//105
f 107//107 105//105 160//160
f 160//160 162//162 107//107
f 106//106 108//108 163//163
f 163//163 161//161 106//106
f 108//108 107//107 162//162
f 162//162 163//163 108//108
# 310 faces, 0 coords texture

# End of File