# generated by collision_forge
v 0.010311 0.133329 0.000768
v 0.011541 0.136777 0.002913
v 0.011854 0.134835 0.002414
v 0.011966 0.133329 0.002124
v 0.007978 0.137469 0.002412
v 0.005781 0.139944 0.005588
v 0.010197 0.140477 0.005106
v 0.011764 0.142934 0.008385
v 0.011943 0.143375 0.010042
v 0.012920 0.133329 0.012774
v 0.006736 0.133329 0.001374
v 0.005797 0.142810 0.008527
v 0.007284 0.141907 0.006577
v 0.010197 0.143296 0.007926
v 0.011745 0.145784 0.014053
v 0.012921 0.133329 0.012792
v 0.005668 0.133329 0.002409
v 0.008411 0.145779 0.011291
v 0.012046 0.144119 0.016029
v 0.011901 0.142453 0.016029
v 0.010197 0.133329 0.015594
v 0.005786 0.145716 0.016029
v 0.010038 0.146462 0.016029
v 0.005583 0.142538 0.016029
v 0.007260 0.133329 0.015391
v 0.005691 0.133329 0.014589
f 20 21 16
f 16 19 20
f 24 21 20
f 24 17 26
f 25 21 24
f 24 26 25
f 11 5 1
f 18 15 8
f 23 15 18
f 18 22 23
f 19 15 23
f 12 22 18
f 24 22 12
f 1 5 2
f 9 10 4
f 16 10 9
f 9 19 16
f 9 15 19
f 9 8 15
f 18 8 14
f 6 11 17
f 5 11 6
f 6 17 24
f 24 12 6
f 3 4 1
f 1 2 3
f 3 2 8
f 3 9 4
f 8 9 3
f 5 6 13
f 13 6 12
f 13 12 18
f 18 14 13
f 8 2 7
f 7 14 8
f 7 2 5
f 5 13 7
f 7 13 14
f 21 25 11
f 16 21 11
f 11 26 17
f 1 4 11
f 11 10 16
f 4 10 11
f 11 25 26
f 23 20 19
f 24 20 23
f 23 22 24
