# generated by collision_forge
v -0.010789 0.134281 0.000228
v -0.008379 0.140064 0.002570
v -0.005746 0.134281 0.002469
v -0.012187 0.134281 0.001700
v -0.011970 0.140313 0.004949
v -0.005806 0.142812 0.008507
v -0.005746 0.134281 0.003086
v -0.012210 0.134281 0.003425
v -0.012623 0.141307 0.024611
v -0.012555 0.144223 0.018781
v -0.009409 0.145955 0.010817
v -0.008178 0.145955 0.010817
v -0.005796 0.142900 0.011804
v -0.006586 0.135484 0.030433
v -0.011936 0.145969 0.015871
v -0.006473 0.141307 0.024611
v -0.012117 0.134281 0.033173
v -0.012001 0.137584 0.032353
v -0.011978 0.143133 0.026661
v -0.010197 0.146680 0.018781
v -0.007982 0.137784 0.032526
v -0.011000 0.134281 0.034521
v -0.008099 0.146060 0.021697
v -0.007964 0.143338 0.026848
v -0.007828 0.134281 0.034109
v -0.009525 0.134281 0.034923
f 10 4 9
f 9 19 10
f 1 2 3
f 9 4 8
f 8 17 9
f 18 19 9
f 9 17 18
f 18 24 19
f 20 19 23
f 19 24 23
f 23 12 20
f 23 24 16
f 3 2 6
f 2 12 6
f 15 19 20
f 15 10 19
f 26 18 22
f 22 18 17
f 21 18 26
f 24 18 21
f 26 25 21
f 21 25 14
f 21 14 16
f 16 24 21
f 14 25 7
f 5 1 4
f 2 1 5
f 4 10 5
f 10 15 5
f 13 7 3
f 3 6 13
f 14 7 13
f 16 14 13
f 13 23 16
f 12 23 13
f 13 6 12
f 11 5 15
f 20 12 11
f 11 15 20
f 11 12 2
f 2 5 11
f 26 22 7
f 7 8 4
f 7 1 3
f 4 1 7
f 17 8 7
f 7 25 26
f 7 22 17
