# generated by collision_forge
v -0.063416 0.123063 0.027120
v -0.068488 0.120916 0.024423
v -0.068488 0.112523 0.024460
v -0.063416 0.120916 0.027107
v -0.061689 0.112529 0.022657
v -0.061689 0.130878 0.022657
v -0.068488 0.129647 0.022913
v -0.068488 0.126578 0.023689
v -0.068488 0.112523 0.008839
v -0.063416 0.112523 0.024423
v -0.061689 0.112529 0.008836
v -0.061689 0.132189 0.021503
v -0.068488 0.132194 0.021417
v -0.068488 0.123551 0.007479
v -0.061689 0.126986 0.001536
v -0.061689 0.123833 0.002949
v -0.061689 0.139456 0.011215
v -0.068488 0.133299 0.018801
v -0.061689 0.129444 0.001631
v -0.061689 0.139461 0.009961
v -0.068488 0.133539 0.012698
v -0.068488 0.126738 0.007599
v -0.068488 0.132706 0.010091
v -0.068488 0.130994 0.008228
v -0.061689 0.135092 0.004218
v -0.061689 0.138491 0.007133
f 5 6 1
f 2 3 1
f 16 11 9
f 16 9 15
f 15 9 14
f 21 17 20
f 10 11 5
f 10 3 9
f 9 11 10
f 6 13 7
f 7 1 6
f 26 25 24
f 24 25 19
f 12 13 6
f 12 17 13
f 13 17 18
f 17 21 18
f 4 1 3
f 3 10 4
f 5 1 4
f 4 10 5
f 2 1 8
f 1 7 8
f 23 26 24
f 20 26 23
f 23 21 20
f 24 19 22
f 22 19 15
f 15 14 22
f 12 16 15
f 12 6 5
f 20 17 12
f 5 11 12
f 11 16 12
f 12 26 20
f 15 19 12
f 25 26 12
f 12 19 25
f 9 3 22
f 22 3 2
f 2 8 22
f 22 14 9
f 22 23 24
f 13 18 22
f 22 7 13
f 22 18 21
f 22 8 7
f 21 23 22
