# generated by collision_forge
v -0.057274 0.112521 0.008833
v -0.061689 0.112521 0.008837
v -0.054675 0.112521 0.008844
v -0.061689 0.123831 0.002949
v -0.061689 0.112521 0.024420
v -0.057950 0.127398 -0.000417
v -0.056620 0.129652 0.001303
v -0.054675 0.121417 0.007795
v -0.054675 0.112521 0.024236
v -0.061189 0.128182 -0.000159
v -0.059728 0.112521 0.024399
v -0.061689 0.123511 0.032533
v -0.056568 0.132566 0.033349
v -0.057752 0.129652 0.035235
v -0.054675 0.126621 0.024367
v -0.056424 0.138394 0.030435
v -0.057557 0.137811 0.002176
v -0.055298 0.142929 0.011104
v -0.061689 0.134150 0.033225
v -0.061150 0.142685 0.008657
v -0.057768 0.145993 0.023851
v -0.058663 0.139971 0.031989
v -0.061689 0.138631 0.007332
v -0.058510 0.145766 0.011331
v -0.061247 0.145750 0.016773
v -0.061689 0.141562 0.027669
f 22 19 14
f 14 19 12
f 12 9 14
f 3 6 7
f 7 6 17
f 18 7 17
f 21 22 16
f 16 18 21
f 15 18 16
f 2 6 1
f 1 6 3
f 17 6 10
f 10 6 2
f 26 22 21
f 19 22 26
f 11 12 5
f 9 12 11
f 24 18 17
f 21 18 24
f 8 18 15
f 3 7 8
f 7 18 8
f 13 22 14
f 13 16 22
f 15 16 13
f 13 9 15
f 14 9 13
f 4 10 2
f 23 10 4
f 23 26 25
f 25 26 21
f 21 24 25
f 23 25 20
f 20 25 24
f 20 24 17
f 17 10 20
f 20 10 23
f 11 5 2
f 3 9 11
f 2 1 11
f 11 1 3
f 8 9 3
f 15 9 8
f 19 26 4
f 2 5 4
f 4 12 19
f 5 12 4
f 4 26 23
