# generated by collision_forge
v 0.062294 0.112521 0.008959
v 0.052339 0.112521 0.009001
v 0.054949 0.121458 0.002306
v 0.058500 0.124969 -0.000269
v 0.064538 0.112521 0.008976
v 0.052339 0.112521 0.024342
v 0.060539 0.129652 0.000432
v 0.064538 0.112521 0.024511
v 0.052339 0.132221 0.010499
v 0.057165 0.112521 0.024441
v 0.057736 0.129652 0.035191
v 0.052339 0.116442 0.024247
v 0.061442 0.127383 0.035015
v 0.055230 0.143000 0.010999
v 0.055283 0.134321 0.002641
v 0.055323 0.139924 0.029050
v 0.064538 0.132349 0.010164
v 0.064538 0.123829 0.024540
v 0.052339 0.132105 0.021351
v 0.061219 0.139904 0.005619
v 0.061319 0.143053 0.010826
v 0.064538 0.133279 0.012965
v 0.061385 0.137319 0.032182
v 0.057301 0.146186 0.016143
v 0.055207 0.143080 0.024046
v 0.060953 0.145098 0.018782
f 4 7 5
f 7 4 15
f 4 3 15
f 7 15 20
f 23 16 11
f 19 16 25
f 16 23 25
f 12 16 19
f 12 6 11
f 11 16 12
f 2 3 1
f 1 4 5
f 1 3 4
f 9 3 2
f 9 15 3
f 19 25 9
f 21 20 24
f 7 20 17
f 5 7 17
f 17 21 22
f 20 21 17
f 24 20 14
f 14 20 15
f 15 9 14
f 14 25 24
f 14 9 25
f 13 23 11
f 13 10 8
f 6 10 13
f 11 6 13
f 22 23 18
f 18 13 8
f 23 13 18
f 26 23 22
f 22 21 26
f 26 21 24
f 24 25 26
f 26 25 23
f 5 8 1
f 8 10 1
f 1 6 2
f 1 10 6
f 2 6 9
f 9 12 19
f 6 12 9
f 18 8 5
f 5 17 18
f 18 17 22
