# generated by collision_forge
v -0.054674 0.112523 0.008843
v -0.036755 0.112521 0.008874
v -0.054674 0.121416 0.007794
v -0.043592 0.129654 -0.000067
v -0.040791 0.125282 -0.000154
v -0.054674 0.112523 0.024237
v -0.034368 0.112521 0.008886
v -0.054674 0.124492 0.007603
v -0.054674 0.129870 0.008069
v -0.044870 0.112521 0.024356
v -0.054674 0.118001 0.024338
v -0.040151 0.129654 -0.000648
v -0.034368 0.112521 0.024125
v -0.054674 0.131645 0.008629
v -0.042278 0.112521 0.024351
v -0.034368 0.122358 0.008853
v -0.034368 0.115090 0.024002
v -0.038431 0.126747 0.025367
v -0.044289 0.134798 0.001896
v -0.047076 0.127491 0.025367
v -0.040039 0.134798 0.001308
v -0.054674 0.133465 0.012956
v -0.042293 0.130742 0.025367
v -0.054674 0.133328 0.018780
v -0.034368 0.133317 0.018782
v -0.042248 0.134798 0.015087
f 1 5 2
f 2 5 7
f 2 10 1
f 4 5 1
f 1 10 6
f 18 25 23
f 23 26 24
f 25 26 23
f 19 14 22
f 22 26 19
f 24 26 22
f 9 14 19
f 19 4 9
f 4 8 9
f 18 10 15
f 15 13 18
f 17 25 18
f 18 13 17
f 20 10 18
f 20 6 10
f 18 23 20
f 20 23 24
f 25 16 21
f 19 26 21
f 21 26 25
f 3 4 1
f 3 8 4
f 11 20 24
f 6 20 11
f 12 21 16
f 12 16 7
f 7 5 12
f 5 4 12
f 12 4 19
f 19 21 12
f 10 2 15
f 15 2 7
f 7 13 15
f 17 13 7
f 7 16 17
f 17 16 25
f 1 6 11
f 24 22 11
f 11 3 1
f 11 22 14
f 14 9 11
f 11 9 8
f 8 3 11
