# generated by collision_forge
v 0.085950 0.126740 0.024802
v 0.078353 0.112521 0.024739
v 0.083038 0.112521 0.024770
v 0.085950 0.129653 0.024585
v 0.078353 0.128043 0.025012
v 0.078353 0.112521 0.008922
v 0.090854 0.123827 0.023755
v 0.090550 0.128652 0.023427
v 0.078353 0.130542 0.024603
v 0.085950 0.112521 0.008864
v 0.090863 0.112521 0.023760
v 0.091481 0.123827 0.021697
v 0.088268 0.131651 0.021697
v 0.083038 0.132930 0.021697
v 0.078353 0.126740 0.008431
v 0.078353 0.133220 0.018782
v 0.088864 0.120916 0.009149
v 0.090627 0.112521 0.010318
v 0.085950 0.129653 0.009190
v 0.088336 0.131706 0.015870
v 0.083038 0.133090 0.012957
v 0.090871 0.123827 0.010482
v 0.078353 0.132556 0.009951
v 0.087948 0.131455 0.010948
v 0.091445 0.112521 0.012957
v 0.090696 0.128936 0.012957
f 12 11 25
f 25 22 12
f 18 22 25
f 10 6 15
f 21 23 16
f 24 23 21
f 16 9 14
f 14 21 16
f 13 21 14
f 12 22 26
f 26 22 24
f 4 14 9
f 13 14 4
f 24 22 19
f 15 23 19
f 19 23 24
f 2 3 5
f 5 4 9
f 24 21 20
f 20 21 13
f 20 26 24
f 13 26 20
f 1 3 11
f 1 5 3
f 4 5 1
f 13 4 8
f 12 26 8
f 8 26 13
f 17 19 22
f 18 10 17
f 17 22 18
f 17 10 15
f 15 19 17
f 7 11 12
f 12 8 7
f 7 1 11
f 4 1 7
f 7 8 4
f 2 6 10
f 18 25 10
f 10 3 2
f 10 25 11
f 11 3 10
f 5 6 2
f 16 23 5
f 5 9 16
f 15 6 5
f 5 23 15
