# generated by collision_forge
v -0.010195 0.112521 0.008896
v -0.007709 0.112521 0.008896
v -0.016812 0.112521 0.008911
v -0.008277 0.124843 -0.000370
v -0.016812 0.112521 0.024233
v -0.001807 0.112521 0.008921
v 0.000574 0.112521 0.008939
v -0.009538 0.134279 -0.000445
v -0.015673 0.112521 0.024261
v -0.009152 0.125077 0.034920
v -0.011749 0.129653 0.034906
v -0.016812 0.118002 0.024105
v -0.007595 0.129653 -0.000797
v 0.000574 0.113056 0.008942
v 0.000574 0.112521 0.024308
v -0.012184 0.134279 0.001700
v -0.007875 0.129653 0.035389
v -0.016812 0.132023 0.010800
v -0.008129 0.132567 0.035180
v -0.012116 0.134281 0.033173
v -0.005746 0.134279 0.002471
v 0.000574 0.131710 0.011063
v 0.000574 0.122948 0.023604
v -0.016812 0.133186 0.018781
v -0.006669 0.134281 0.030438
v 0.000574 0.133024 0.018781
f 4 13 7
f 3 18 16
f 16 4 3
f 7 13 14
f 13 22 14
f 20 16 24
f 24 16 18
f 3 4 1
f 4 2 1
f 6 4 7
f 6 2 4
f 13 4 8
f 4 16 8
f 8 16 20
f 15 10 9
f 9 10 5
f 5 10 11
f 15 23 17
f 17 10 15
f 17 11 10
f 20 24 12
f 12 11 20
f 5 11 12
f 26 22 21
f 21 22 13
f 13 8 21
f 19 23 26
f 19 17 23
f 20 11 19
f 11 17 19
f 26 21 25
f 20 19 25
f 25 19 26
f 25 8 20
f 25 21 8
f 26 23 14
f 14 15 7
f 14 22 26
f 14 23 15
f 7 15 9
f 9 5 3
f 9 6 7
f 3 1 9
f 9 1 2
f 2 6 9
f 3 5 12
f 12 18 3
f 12 24 18
