# generated by collision_forge
v -0.041568 0.134798 0.000410
v -0.040040 0.134798 0.001310
v -0.042247 0.139253 0.003291
v -0.039090 0.135482 0.004218
v -0.044041 0.140324 0.005125
v -0.040337 0.143182 0.007969
v -0.038878 0.144222 0.018781
v -0.039013 0.134798 0.007788
v -0.038748 0.141308 0.024611
v -0.040039 0.146279 0.015870
v -0.038837 0.135483 0.030437
v -0.044796 0.134798 0.004218
v -0.044778 0.141308 0.010044
v -0.043828 0.145799 0.013973
v -0.038885 0.134798 0.030437
v -0.040085 0.143418 0.026990
v -0.040109 0.137830 0.032535
v -0.045109 0.134798 0.012945
v -0.044579 0.144222 0.018781
v -0.043886 0.145873 0.020953
v -0.040501 0.145868 0.023530
v -0.042246 0.142503 0.028673
v -0.044181 0.134798 0.032930
v -0.044297 0.138433 0.030507
v -0.043995 0.143145 0.026675
v -0.042603 0.134798 0.034275
f 21 7 10
f 12 5 1
f 10 7 6
f 10 6 14
f 14 6 5
f 4 6 7
f 9 7 16
f 7 21 16
f 18 23 24
f 1 5 3
f 5 6 3
f 20 21 10
f 10 14 20
f 25 21 20
f 5 12 13
f 13 14 5
f 13 12 18
f 8 7 9
f 8 4 7
f 9 16 17
f 18 24 19
f 19 13 18
f 19 24 25
f 25 20 19
f 19 20 14
f 14 13 19
f 4 8 2
f 6 4 2
f 1 3 2
f 2 3 6
f 15 17 26
f 26 24 23
f 9 17 11
f 11 17 15
f 15 8 11
f 11 8 9
f 22 17 16
f 22 21 25
f 22 16 21
f 22 26 17
f 25 24 22
f 24 26 22
f 18 12 26
f 26 23 18
f 1 2 26
f 26 12 1
f 26 8 15
f 26 2 8
