# generated by collision_forge
v 0.091546 0.112521 0.018782
v -0.085949 0.112521 0.008739
v 0.074285 -0.147086 0.012957
v 0.004367 0.007270 0.008452
v 0.087513 -0.120894 0.008574
v 0.085936 0.112521 0.008864
v 0.077207 -0.145993 0.023444
v -0.091344 0.112521 0.015870
v -0.018934 0.021841 0.024989
v 0.085936 0.112521 0.024790
v -0.085949 0.112521 0.024825
v -0.085949 -0.135465 0.024343
v -0.013109 -0.141288 0.008674
v -0.091559 -0.129642 0.018782
v -0.077202 -0.146781 0.021696
v 0.091438 0.112521 0.012957
v 0.085936 -0.120894 0.024437
v 0.091366 -0.129642 0.018782
v -0.085949 -0.123818 0.024412
v -0.071377 -0.146374 0.010284
v -0.090860 -0.129642 0.010417
v 0.090739 -0.117995 0.023581
v -0.085949 0.010194 0.008506
v -0.085949 -0.045140 0.008543
v -0.090699 -0.129642 0.023534
v -0.083028 -0.141288 0.008886
f 14 26 15
f 3 7 15
f 4 6 5
f 14 8 21
f 21 26 14
f 3 15 20
f 20 15 26
f 12 7 17
f 12 15 7
f 14 15 12
f 18 7 3
f 3 5 18
f 16 5 6
f 1 18 16
f 16 18 5
f 2 21 8
f 2 23 21
f 2 6 4
f 4 23 2
f 13 5 3
f 3 20 13
f 13 20 26
f 26 21 24
f 21 23 24
f 24 13 26
f 5 13 24
f 4 5 24
f 24 23 4
f 9 10 11
f 17 10 9
f 14 12 25
f 25 11 8
f 25 8 14
f 17 7 22
f 7 18 22
f 22 10 17
f 1 10 22
f 22 18 1
f 19 9 11
f 11 25 19
f 19 25 12
f 19 12 17
f 17 9 19
f 1 16 2
f 2 10 1
f 8 11 2
f 11 10 2
f 2 16 6
