# generated by collision_forge
v -0.024699 0.135364 0.000756
v -0.022222 0.135364 0.001206
v -0.026509 0.135364 0.002118
v -0.022607 0.137782 0.002121
v -0.020975 0.135364 0.004216
v -0.020276 0.135363 0.030641
v -0.026405 0.135363 0.030476
v -0.024765 0.139218 0.003321
v -0.020299 0.143032 0.010600
v -0.020276 0.135363 0.030680
v -0.026372 0.135363 0.032252
v -0.026708 0.135483 0.004216
v -0.026328 0.142912 0.008388
v -0.022354 0.143328 0.007819
v -0.026593 0.144221 0.018782
v -0.023595 0.145761 0.011318
v -0.022048 0.146287 0.015868
v -0.020511 0.145212 0.018782
v -0.020227 0.143140 0.024610
v -0.026308 0.142896 0.026276
v -0.021945 0.135363 0.033720
v -0.021853 0.142153 0.028261
v -0.024765 0.139170 0.031324
v -0.023815 0.145879 0.023536
v -0.026252 0.145715 0.020373
v -0.022319 0.146186 0.021696
f 10 6 19
f 19 21 10
f 3 8 1
f 14 8 13
f 8 3 13
f 13 3 12
f 1 8 4
f 4 8 14
f 19 6 9
f 6 5 9
f 9 4 14
f 26 17 25
f 11 21 23
f 23 20 11
f 11 20 15
f 15 20 25
f 15 13 12
f 25 13 15
f 25 17 16
f 16 13 25
f 14 13 16
f 16 9 14
f 17 9 16
f 1 4 2
f 6 1 2
f 2 5 6
f 2 9 5
f 4 9 2
f 19 9 18
f 18 9 17
f 18 26 19
f 17 26 18
f 20 23 24
f 25 20 24
f 24 26 25
f 22 21 19
f 22 23 21
f 22 24 23
f 19 26 22
f 26 24 22
f 7 15 12
f 11 15 7
f 12 3 7
f 7 3 1
f 7 1 6
f 7 21 11
f 6 10 7
f 7 10 21
