# generated by collision_forge
v -0.024766 0.112521 0.008872
v -0.033854 0.112521 0.008887
v -0.023846 0.124796 -0.000385
v -0.034366 0.112521 0.008890
v -0.016812 0.112521 0.008911
v -0.026083 0.129652 0.000108
v -0.034366 0.112521 0.024123
v -0.022425 0.129652 -0.000793
v -0.016812 0.112521 0.024233
v -0.034366 0.119432 0.008844
v -0.034366 0.129666 0.009061
v -0.024766 0.112521 0.024187
v -0.023673 0.125138 0.034903
v -0.026300 0.128644 0.034889
v -0.034366 0.115088 0.024003
v -0.016812 0.118001 0.024106
v -0.020312 0.135361 0.032139
v -0.022288 0.129652 0.035457
v -0.026508 0.135358 0.002116
v -0.024700 0.135358 0.000757
v -0.034366 0.129711 0.022825
v -0.022222 0.135358 0.001208
v -0.016812 0.130413 0.010192
v -0.026372 0.135361 0.032253
v -0.016812 0.133185 0.015870
v -0.034366 0.133339 0.015870
f 3 8 5
f 1 3 5
f 5 8 23
f 17 9 16
f 16 25 17
f 4 3 2
f 3 1 2
f 19 11 26
f 17 25 22
f 22 20 17
f 25 23 22
f 22 23 8
f 8 20 22
f 26 21 24
f 24 19 26
f 17 20 24
f 20 19 24
f 6 10 11
f 11 19 6
f 4 10 6
f 6 3 4
f 6 19 20
f 8 3 6
f 6 20 8
f 17 24 18
f 18 9 17
f 18 13 9
f 9 13 12
f 13 7 12
f 14 24 21
f 14 7 13
f 13 18 14
f 14 18 24
f 15 14 21
f 7 14 15
f 16 9 5
f 5 23 16
f 16 23 25
f 5 9 12
f 4 2 12
f 12 1 5
f 12 2 1
f 12 7 4
f 15 21 26
f 15 10 4
f 26 11 15
f 11 10 15
f 4 7 15
