# generated by collision_forge
v 0.071937 0.135315 0.001823
v 0.072343 0.137464 0.002413
v 0.075745 0.136929 0.002766
v 0.075948 0.135315 0.002461
v 0.072194 0.140528 0.005045
v 0.075940 0.140191 0.005395
v 0.074297 0.142068 0.006405
v 0.072322 0.143203 0.007970
v 0.075963 0.143023 0.008235
v 0.076733 0.141309 0.010043
v 0.070562 0.135315 0.004216
v 0.070555 0.138396 0.007130
v 0.072478 0.145939 0.013525
v 0.075925 0.145836 0.013826
v 0.076767 0.144222 0.015869
v 0.070534 0.135315 0.010322
v 0.071259 0.144222 0.018065
v 0.076654 0.144222 0.018065
v 0.076505 0.135315 0.010293
v 0.071311 0.135315 0.012825
v 0.071807 0.141475 0.018065
v 0.072817 0.146144 0.018065
v 0.076446 0.141673 0.018065
v 0.076305 0.135315 0.012113
v 0.073814 0.135315 0.013861
v 0.075968 0.141348 0.018065
f 16 17 12
f 20 17 16
f 16 12 11
f 1 11 2
f 4 6 10
f 21 20 25
f 17 20 21
f 24 23 25
f 3 4 1
f 1 2 3
f 3 6 4
f 5 11 12
f 5 2 11
f 25 23 26
f 26 21 25
f 4 10 19
f 19 10 15
f 15 18 19
f 19 18 23
f 23 24 19
f 13 12 17
f 2 5 7
f 6 3 7
f 7 3 2
f 8 5 12
f 12 13 8
f 8 7 5
f 22 13 17
f 6 7 9
f 7 8 9
f 15 10 9
f 9 10 6
f 14 22 18
f 14 18 15
f 13 22 14
f 15 9 14
f 14 8 13
f 14 9 8
f 1 4 19
f 19 20 16
f 16 11 19
f 25 20 19
f 19 11 1
f 19 24 25
f 23 18 22
f 22 26 23
f 17 21 22
f 21 26 22
