# generated by collision_forge
v -0.043864 0.129655 0.034957
v -0.043846 0.127501 0.034937
v -0.040451 0.126741 0.035089
v -0.040259 0.132567 0.035176
v -0.043776 0.131481 0.034878
v -0.039113 0.129655 0.033351
v -0.041777 0.134796 0.034596
v -0.044181 0.134796 0.032932
v -0.047758 0.126573 0.025367
v -0.047797 0.123610 0.025367
v -0.044085 0.121859 0.032306
v -0.047079 0.119794 0.025367
v -0.040594 0.122040 0.032192
v -0.039484 0.117980 0.025367
v -0.038955 0.120914 0.025367
v -0.038894 0.134796 0.031122
v -0.044286 0.134796 0.030215
v -0.046096 0.117609 0.025367
v -0.042248 0.120282 0.030993
v -0.042327 0.115704 0.025367
v -0.038431 0.126748 0.025367
v -0.042426 0.134796 0.027923
v -0.045165 0.129606 0.025367
v -0.044497 0.115753 0.025367
v -0.040456 0.130246 0.025367
v -0.040015 0.134796 0.028118
f 25 23 22
f 4 16 7
f 12 11 10
f 12 18 11
f 11 18 24
f 11 3 2
f 10 11 2
f 2 3 4
f 20 14 13
f 13 3 11
f 21 16 6
f 6 13 14
f 3 13 6
f 6 16 4
f 4 3 6
f 21 25 26
f 26 16 21
f 26 25 22
f 23 9 17
f 22 23 17
f 17 9 8
f 1 9 10
f 10 2 1
f 1 2 4
f 20 13 19
f 19 13 11
f 19 24 20
f 11 24 19
f 21 6 15
f 15 6 14
f 8 9 5
f 9 1 5
f 5 7 8
f 4 7 5
f 5 1 4
f 8 7 17
f 17 26 22
f 17 7 16
f 16 26 17
f 15 25 21
f 20 24 15
f 15 14 20
f 10 9 15
f 15 12 10
f 23 25 15
f 15 9 23
f 18 12 15
f 15 24 18
