# generated by collision_forge
v 0.000576 0.112521 0.008935
v 0.006468 0.129652 0.000777
v 0.008849 0.125237 -0.000177
v 0.012759 0.112521 0.008946
v 0.000576 0.112521 0.024305
v 0.005669 0.133329 0.002413
v 0.000576 0.123825 0.009210
v 0.017857 0.112521 0.008967
v 0.015675 0.112521 0.008949
v 0.004720 0.112521 0.024337
v 0.008376 0.124915 0.035019
v 0.000576 0.115092 0.024203
v 0.000576 0.124705 0.009333
v 0.000576 0.131707 0.011061
v 0.000576 0.133039 0.015872
v 0.011314 0.129652 0.000147
v 0.017857 0.112521 0.024369
v 0.005625 0.133327 0.032612
v 0.011964 0.133329 0.002128
v 0.017857 0.127819 0.009914
v 0.011658 0.128310 0.034811
v 0.009352 0.133327 0.035016
v 0.000576 0.129654 0.022605
v 0.017857 0.133105 0.015872
v 0.011854 0.133327 0.032672
v 0.017857 0.132076 0.021314
f 9 3 8
f 2 3 1
f 22 19 6
f 1 3 4
f 3 9 4
f 16 2 6
f 6 19 16
f 3 2 16
f 8 3 16
f 20 19 24
f 8 16 20
f 20 16 19
f 10 17 11
f 11 5 10
f 7 2 1
f 6 2 7
f 11 22 18
f 23 12 18
f 18 12 5
f 18 5 11
f 18 22 6
f 11 17 21
f 21 22 11
f 13 14 6
f 6 7 13
f 23 18 15
f 6 14 15
f 15 18 6
f 26 21 17
f 25 26 24
f 24 19 25
f 19 22 25
f 22 21 25
f 21 26 25
f 8 17 10
f 10 5 1
f 10 9 8
f 1 4 10
f 10 4 9
f 1 5 15
f 15 12 23
f 14 13 15
f 5 12 15
f 15 7 1
f 15 13 7
f 26 17 8
f 8 20 26
f 26 20 24
