# generated by collision_forge
v 0.017860 0.112521 0.008966
v 0.031551 0.112521 0.008984
v 0.017860 0.112521 0.024371
v 0.026008 0.129656 -0.000295
v 0.029213 0.128005 -0.000222
v 0.031551 0.112521 0.024430
v 0.027678 0.121716 0.032508
v 0.025712 0.129656 0.035167
v 0.026176 0.131206 -0.000183
v 0.030580 0.135478 0.004221
v 0.029459 0.127266 0.035058
v 0.025897 0.132562 0.035009
v 0.017860 0.122750 0.023679
v 0.017860 0.127824 0.009915
v 0.031551 0.126612 0.024255
v 0.017860 0.129656 0.022625
v 0.025802 0.140381 0.005201
v 0.030845 0.144216 0.015871
v 0.029552 0.137589 0.032343
v 0.025591 0.137753 0.032487
v 0.017860 0.132072 0.021319
v 0.029255 0.145753 0.011362
v 0.029824 0.146227 0.018779
v 0.025694 0.143260 0.026815
v 0.017860 0.132874 0.014038
v 0.025607 0.146216 0.015871
f 14 4 1
f 9 4 14
f 23 24 19
f 16 13 8
f 8 13 3
f 20 24 21
f 21 16 20
f 20 19 24
f 23 19 18
f 18 22 23
f 10 22 18
f 2 10 18
f 5 4 9
f 9 10 5
f 5 10 2
f 5 2 1
f 1 4 5
f 12 16 8
f 12 20 16
f 19 20 12
f 8 11 12
f 12 11 19
f 9 14 17
f 17 10 9
f 17 22 10
f 15 18 19
f 15 11 6
f 19 11 15
f 15 6 2
f 2 18 15
f 7 3 6
f 6 11 7
f 8 3 7
f 7 11 8
f 25 17 14
f 26 25 21
f 21 24 26
f 26 24 23
f 23 22 26
f 22 17 26
f 17 25 26
f 1 2 3
f 2 6 3
f 25 14 1
f 25 16 21
f 1 3 25
f 13 16 25
f 25 3 13
