# generated by collision_forge
v 0.078352 0.112521 0.008922
v 0.076862 0.112521 0.008925
v 0.073022 0.127959 -0.000224
v 0.078352 0.112521 0.024736
v 0.065208 0.112521 0.008974
v 0.064540 0.112521 0.008977
v 0.076123 0.132568 0.002129
v 0.073677 0.121790 0.032344
v 0.064540 0.112521 0.024511
v 0.075899 0.126740 0.032223
v 0.072732 0.131375 -0.000207
v 0.064540 0.126738 0.008877
v 0.072479 0.127374 0.034981
v 0.064540 0.120915 0.025016
v 0.078352 0.131968 0.009644
v 0.071395 0.112521 0.024750
v 0.071805 0.135315 0.001849
v 0.069725 0.132568 0.032362
v 0.075526 0.135315 0.030275
v 0.078352 0.131874 0.023827
v 0.064540 0.132347 0.010166
v 0.076518 0.135315 0.010031
v 0.070562 0.135315 0.004216
v 0.064540 0.133280 0.012964
v 0.070066 0.135315 0.031650
v 0.064540 0.132158 0.021392
f 2 3 1
f 1 3 7
f 17 21 23
f 26 25 24
f 24 23 21
f 25 23 24
f 6 3 5
f 3 2 5
f 17 7 11
f 11 7 3
f 11 12 21
f 11 21 17
f 6 12 11
f 11 3 6
f 1 7 15
f 13 9 8
f 13 25 18
f 18 9 13
f 18 25 26
f 22 7 17
f 22 15 7
f 22 20 15
f 4 8 16
f 16 8 9
f 14 18 26
f 9 18 14
f 4 20 10
f 13 8 10
f 10 8 4
f 19 10 20
f 20 22 19
f 19 25 13
f 13 10 19
f 20 4 1
f 1 15 20
f 1 4 16
f 16 9 6
f 16 2 1
f 6 5 16
f 16 5 2
f 6 9 14
f 26 24 14
f 14 12 6
f 21 12 14
f 14 24 21
f 19 23 25
f 17 23 19
f 19 22 17
