# generated by collision_forge
v 0.039340 0.112521 0.008956
v 0.044836 0.112521 0.008963
v 0.031551 0.112525 0.008984
v 0.040468 0.127281 -0.000357
v 0.045758 0.112521 0.008984
v 0.031551 0.119814 0.008872
v 0.031551 0.112525 0.024429
v 0.043279 0.129651 -0.000019
v 0.045758 0.112521 0.024408
v 0.036769 0.112521 0.024492
v 0.040265 0.129651 0.035133
v 0.031551 0.118069 0.024801
v 0.031551 0.131898 0.010114
v 0.044856 0.135481 0.004221
v 0.042245 0.122067 0.032180
v 0.045159 0.112521 0.024450
v 0.040403 0.137359 0.002482
v 0.045758 0.132206 0.010173
v 0.031551 0.133241 0.012998
v 0.040211 0.146068 0.012956
v 0.043943 0.137342 0.032183
v 0.031551 0.132069 0.021357
v 0.043945 0.145907 0.013596
v 0.040023 0.140617 0.029717
v 0.043914 0.143018 0.026433
v 0.040625 0.145773 0.023326
f 3 4 1
f 1 10 3
f 3 10 7
f 24 22 11
f 2 4 5
f 2 1 4
f 17 13 20
f 4 13 17
f 23 17 20
f 14 17 23
f 6 4 3
f 6 13 4
f 20 13 19
f 11 7 15
f 15 7 10
f 18 23 25
f 14 23 18
f 18 9 5
f 5 14 18
f 11 22 12
f 12 7 11
f 26 24 25
f 26 23 20
f 25 23 26
f 22 24 26
f 26 19 22
f 20 19 26
f 4 17 8
f 8 17 14
f 5 4 8
f 8 14 5
f 16 15 10
f 9 15 16
f 11 15 21
f 21 24 11
f 25 24 21
f 21 15 9
f 21 18 25
f 9 18 21
f 12 6 3
f 3 7 12
f 22 19 12
f 13 6 12
f 12 19 13
f 10 1 16
f 5 9 16
f 16 2 5
f 1 2 16
