# generated by collision_forge
v -0.061689 0.129652 0.034693
v -0.062251 0.129652 0.033349
v -0.061689 0.127162 0.034369
v -0.061689 0.134149 0.033226
v -0.061692 0.138493 0.030566
v -0.063415 0.130510 0.022658
v -0.063415 0.130202 0.022916
v -0.063415 0.128503 0.024104
v -0.063415 0.123063 0.027120
v -0.063415 0.120915 0.027110
v -0.062752 0.123831 0.030436
v -0.061996 0.126652 0.033541
v -0.063415 0.112523 0.024427
v -0.061760 0.123831 0.032639
v -0.061689 0.123512 0.032533
v -0.061689 0.132620 0.033857
v -0.061698 0.141498 0.027703
v -0.063276 0.130562 0.022658
v -0.063415 0.112523 0.022658
v -0.061689 0.141933 0.024487
v -0.061689 0.141305 0.023785
v -0.062294 0.112523 0.024430
v -0.061689 0.112523 0.024423
v -0.061689 0.141561 0.027672
v -0.061689 0.112523 0.022658
v -0.061689 0.130881 0.022658
f 17 20 6
f 6 5 17
f 20 17 24
f 24 17 5
f 6 20 21
f 13 11 10
f 9 10 2
f 2 10 11
f 2 8 9
f 2 5 6
f 1 2 3
f 4 24 5
f 5 2 4
f 18 21 26
f 6 21 18
f 22 23 15
f 22 15 13
f 7 2 6
f 8 2 7
f 12 2 11
f 12 3 2
f 12 11 13
f 13 3 12
f 15 3 14
f 13 15 14
f 14 3 13
f 16 2 1
f 16 4 2
f 18 19 6
f 25 19 18
f 18 26 25
f 13 19 22
f 22 19 25
f 25 23 22
f 13 10 7
f 6 19 7
f 7 19 13
f 9 8 7
f 7 10 9
f 25 26 16
f 16 23 25
f 1 3 16
f 16 21 20
f 20 24 16
f 26 21 16
f 15 23 16
f 16 3 15
f 24 4 16
