# generated by collision_forge
v 0.007602 0.133329 0.027606
v 0.009231 0.133329 0.027606
v 0.005588 0.142434 0.016029
v 0.007284 0.141556 0.016029
v 0.010002 0.133329 0.027613
v 0.010197 0.141574 0.016029
v 0.005177 0.141308 0.024611
v 0.006076 0.133329 0.029983
v 0.005593 0.133329 0.031052
v 0.011901 0.142452 0.016029
v 0.005580 0.144436 0.016029
v 0.005624 0.133329 0.032612
v 0.012046 0.144119 0.016029
v 0.012489 0.141308 0.024611
v 0.005781 0.145733 0.020459
v 0.005524 0.140388 0.029494
v 0.011886 0.133329 0.032169
v 0.007284 0.142342 0.028426
v 0.006505 0.146032 0.016029
v 0.008435 0.134213 0.034892
v 0.011736 0.145764 0.020557
v 0.011808 0.145848 0.016029
v 0.011908 0.143077 0.026545
v 0.011794 0.137258 0.032093
v 0.010197 0.140907 0.029965
v 0.009027 0.145740 0.023288
f 20 12 17
f 7 12 16
f 16 12 20
f 14 21 23
f 1 3 4
f 7 3 9
f 9 12 7
f 11 3 7
f 22 19 21
f 22 21 14
f 7 16 15
f 19 11 15
f 15 11 7
f 20 17 24
f 24 17 14
f 14 23 24
f 8 3 1
f 8 9 3
f 2 4 6
f 6 5 2
f 1 4 2
f 14 17 10
f 17 5 10
f 10 5 6
f 26 23 21
f 21 19 26
f 19 15 26
f 20 24 25
f 25 24 23
f 23 26 25
f 13 22 14
f 14 10 13
f 18 25 26
f 18 15 16
f 18 26 15
f 18 16 20
f 20 25 18
f 2 17 12
f 2 8 1
f 12 9 2
f 2 5 17
f 9 8 2
f 3 11 13
f 13 4 3
f 6 4 13
f 13 11 19
f 19 22 13
f 13 10 6
