# generated by collision_forge
v 0.071142 0.135315 0.027559
v 0.074351 0.140443 0.018067
v 0.074728 0.135315 0.027223
v 0.069894 0.135315 0.028902
v 0.071807 0.141475 0.018067
v 0.073700 0.140679 0.018067
v 0.075968 0.141348 0.018067
v 0.071259 0.144222 0.018067
v 0.069852 0.137204 0.029245
v 0.076517 0.142331 0.018067
v 0.075891 0.136036 0.028174
v 0.070065 0.135315 0.031650
v 0.072817 0.146144 0.018067
v 0.072186 0.140398 0.029533
v 0.076382 0.141308 0.024611
v 0.075891 0.137888 0.029371
v 0.075498 0.135315 0.030348
v 0.072267 0.137406 0.032226
v 0.072589 0.145851 0.020738
v 0.072495 0.143020 0.026450
v 0.075960 0.145877 0.018067
v 0.075745 0.139830 0.028970
v 0.074003 0.135315 0.032815
v 0.073405 0.137406 0.032226
v 0.075785 0.145707 0.020327
v 0.075764 0.142778 0.026086
f 13 8 19
f 19 25 13
f 20 25 19
f 9 20 19
f 19 8 9
f 18 12 23
f 1 2 3
f 13 25 21
f 24 18 23
f 12 18 14
f 14 20 9
f 9 12 14
f 18 24 14
f 3 2 7
f 10 11 7
f 7 11 3
f 3 11 17
f 5 1 4
f 4 8 5
f 9 8 4
f 4 12 9
f 6 1 5
f 2 1 6
f 22 24 23
f 16 17 11
f 23 17 16
f 16 22 23
f 26 25 20
f 20 14 26
f 26 14 24
f 24 22 26
f 10 21 15
f 15 21 25
f 25 26 15
f 15 11 10
f 15 16 11
f 22 16 15
f 15 26 22
f 4 17 23
f 23 12 4
f 4 1 3
f 3 17 4
f 6 8 13
f 6 21 10
f 5 8 6
f 10 7 6
f 13 21 6
f 6 7 2
