# generated by collision_forge
v -0.074295 0.129651 0.033227
v -0.075788 0.134179 0.031944
v -0.078984 0.112523 0.024686
v -0.072248 0.124730 0.032307
v -0.068489 0.112523 0.024455
v -0.069918 0.131233 0.031908
v -0.075858 0.140035 0.029125
v -0.074295 0.112523 0.024587
v -0.078984 0.112523 0.008804
v -0.068489 0.112523 0.008837
v -0.069887 0.137155 0.029105
v -0.074295 0.112523 0.008814
v -0.072411 0.127496 -0.000409
v -0.068489 0.133308 0.018783
v -0.072236 0.143247 0.026691
v -0.078984 0.132939 0.021695
v -0.078984 0.129651 0.008725
v -0.072038 0.146289 0.015871
v -0.075876 0.145830 0.018783
v -0.075925 0.134625 0.002499
v -0.068489 0.132706 0.010091
v -0.072347 0.146026 0.013454
v -0.078984 0.133348 0.014737
v -0.075776 0.142791 0.008550
v -0.072352 0.137451 0.002414
v -0.072191 0.140477 0.005055
f 13 21 10
f 17 24 20
f 20 9 17
f 13 9 20
f 15 11 18
f 14 21 18
f 18 11 14
f 14 6 5
f 11 6 14
f 23 24 17
f 12 9 13
f 13 10 12
f 18 21 22
f 21 26 22
f 22 26 24
f 24 26 25
f 25 20 24
f 13 20 25
f 25 21 13
f 25 26 21
f 5 6 4
f 4 6 1
f 4 8 5
f 3 8 4
f 4 1 3
f 11 15 7
f 19 23 16
f 24 23 19
f 16 7 19
f 18 22 19
f 19 22 24
f 19 15 18
f 19 7 15
f 2 16 3
f 2 7 16
f 3 1 2
f 1 6 2
f 2 6 11
f 11 7 2
f 5 10 14
f 14 10 21
f 23 9 3
f 17 9 23
f 3 16 23
f 12 8 3
f 3 9 12
f 5 8 12
f 12 10 5
