# generated by collision_forge
v -0.085951 0.126740 0.024875
v -0.078985 0.129716 0.024872
v -0.088864 0.112523 0.024507
v -0.078985 0.131861 0.023882
v -0.087944 0.131486 0.023540
v -0.090752 0.123826 0.023670
v -0.085602 0.112523 0.024819
v -0.078985 0.116228 0.024902
v -0.083038 0.132972 0.021696
v -0.090633 0.128880 0.021696
v -0.091278 0.112523 0.021696
v -0.078985 0.112523 0.024685
v -0.078985 0.112523 0.008804
v -0.088343 0.131763 0.015870
v -0.091284 0.123826 0.012957
v -0.078985 0.126458 0.008183
v -0.078985 0.132919 0.011317
v -0.090791 0.123826 0.010492
v -0.091349 0.112523 0.015870
v -0.086298 0.112523 0.008779
v -0.085951 0.129653 0.008963
v -0.078985 0.129653 0.008720
v -0.087928 0.131461 0.010820
v -0.090499 0.128568 0.011064
v -0.088864 0.118001 0.009072
v -0.090794 0.112523 0.010471
f 1 8 2
f 19 11 15
f 15 11 6
f 16 13 20
f 19 15 26
f 17 9 4
f 23 21 24
f 17 21 23
f 14 23 24
f 14 9 17
f 17 23 14
f 10 14 24
f 24 15 10
f 10 15 6
f 16 21 22
f 22 21 17
f 16 20 25
f 25 21 16
f 20 26 25
f 6 11 3
f 3 1 6
f 18 15 24
f 18 26 15
f 18 25 26
f 24 21 18
f 21 25 18
f 2 4 5
f 5 1 2
f 5 4 9
f 6 1 5
f 5 10 6
f 9 14 5
f 14 10 5
f 7 12 8
f 8 1 7
f 1 3 7
f 8 12 22
f 2 8 22
f 22 13 16
f 22 4 2
f 22 12 13
f 17 4 22
f 13 12 7
f 7 11 19
f 7 20 13
f 19 26 7
f 7 26 20
f 7 3 11
