# generated by collision_forge
v 0.045759 0.120899 0.025444
v 0.045759 0.112523 0.024412
v 0.052339 0.112523 0.024344
v 0.052339 0.116439 0.024250
v 0.052339 0.119352 0.024176
v 0.052339 0.125392 0.023877
v 0.045759 0.126401 0.024331
v 0.045759 0.112523 0.008980
v 0.052339 0.112523 0.009000
v 0.052339 0.129728 0.022756
v 0.045759 0.129771 0.022817
v 0.052339 0.120915 0.006581
v 0.045759 0.120915 0.008455
v 0.052339 0.132108 0.021353
v 0.045759 0.132444 0.010230
v 0.052339 0.132224 0.010498
v 0.045759 0.129653 0.009619
v 0.045759 0.132208 0.010171
v 0.052339 0.132592 0.020147
v 0.045759 0.132285 0.020823
v 0.045759 0.133226 0.012974
v 0.052339 0.132797 0.011629
v 0.052339 0.133138 0.018782
v 0.045759 0.133091 0.018782
v 0.052339 0.133270 0.014534
v 0.052339 0.133096 0.012929
f 12 15 16
f 9 8 12
f 2 3 1
f 12 8 13
f 22 16 15
f 5 6 1
f 7 6 10
f 1 6 7
f 21 22 15
f 12 13 17
f 1 3 4
f 4 5 1
f 11 14 20
f 10 14 11
f 11 7 10
f 26 21 25
f 22 21 26
f 18 15 12
f 12 17 18
f 20 14 19
f 19 23 20
f 20 23 24
f 24 23 25
f 25 21 24
f 2 9 3
f 8 9 2
f 3 9 19
f 25 23 19
f 19 4 3
f 12 16 19
f 10 6 19
f 19 9 12
f 16 22 19
f 6 5 19
f 19 14 10
f 5 4 19
f 19 26 25
f 22 26 19
f 24 2 1
f 24 21 15
f 1 7 24
f 8 2 24
f 24 13 8
f 24 11 20
f 15 18 24
f 24 17 13
f 7 11 24
f 24 18 17
