# File produced by Open Asset Import Library (http://www.assimp.sf.net)
# (assimp v3.1.187496374)

mtllib allegro.mtl

# 231 vertex positions
v  0.00781296 -0.00171976 -0.000167115
v  0.008 4.38156e-16 0.000332885
v  0.008 4.37519e-16 -0.000167115
v  0.00781296 -0.00171976 0.000332885
v  0.00781296 0.00171976 0.000332885
v  0.00781296 0.00171976 -0.000167115
v  0.0072606 0.00335911 0.000332885
v  0.0072606 0.00335911 -0.000167115
v  0.00636874 0.00484139 0.000332885
v  0.00636874 0.00484139 -0.000167115
v  0.00517909 0.0060973 0.000332885
v  0.00517909 0.0060973 -0.000167115
v  0.00374727 0.0070681 0.000332885
v  0.00374727 0.0070681 -0.000167115
v  0.00214023 0.0077084 0.000332885
v  0.00214023 0.0077084 -0.000167115
v  0.000433111 0.00798827 0.000332885
v  0.000433111 0.00798827 -0.000167115
v  -0.00129426 0.00789461 0.000332885
v  -0.00129426 0.00789461 -0.000167115
v  -0.00296111 0.00743181 0.000332885
v  -0.00296111 0.00743181 -0.000167115
v  -0.0044895 0.00662151 0.000332885
v  -0.0044895 0.00662151 -0.000167115
v  -0.00580796 0.0055016 0.000332885
v  -0.00580796 0.0055016 -0.000167115
v  -0.00685486 0.00412443 0.000332885
v  -0.00685486 0.00412443 -0.000167115
v  -0.00758123 0.00255441 0.000332885
v  -0.00758123 0.00255441 -0.000167115
v  -0.0079531 0.000864952 0.000332885
v  -0.0079531 0.000864952 -0.000167115
v  -0.0079531 -0.000864952 0.000332885
v  -0.0079531 -0.000864952 -0.000167115
v  -0.00758123 -0.00255441 0.000332885
v  -0.00758123 -0.00255441 -0.000167115
v  -0.00685486 -0.00412443 0.000332885
v  -0.00685486 -0.00412443 -0.000167115
v  -0.00580796 -0.0055016 0.000332885
v  -0.00580796 -0.0055016 -0.000167115
v  -0.0044895 -0.00662151 0.000332885
v  -0.0044895 -0.00662151 -0.000167115
v  -0.00296111 -0.00743181 0.000332885
v  -0.00296111 -0.00743181 -0.000167115
v  -0.00129426 -0.00789461 0.000332885
v  -0.00129426 -0.00789461 -0.000167115
v  0.000433111 -0.00798827 0.000332885
v  0.000433111 -0.00798827 -0.000167115
v  0.00214023 -0.0077084 0.000332885
v  0.00214023 -0.0077084 -0.000167115
v  0.00374727 -0.0070681 0.000332885
v  0.00374727 -0.0070681 -0.000167115
v  0.00517909 -0.0060973 0.000332885
v  0.00517909 -0.0060973 -0.000167115
v  0.00636874 -0.00484139 0.000332885
v  0.00636874 -0.00484139 -0.000167115
v  0.0072606 -0.00335911 0.000332885
v  0.0072606 -0.00335911 -0.000167115
v  0.008 4.3105e-16 0.000332885
v  0.0093 -0.01145 0.00413289
v  0.0093 -0.01345 0.00413289
v  0.0098 -0.01345 0.00413289
v  0.0093 0.01125 0.00413289
v  -0.0098 -0.01145 0.00413289
v  0.0098 0.01345 0.00413289
v  0.0093 0.01345 0.00413289
v  -0.0098 0.01125 0.00413289
v  -0.00229813 -0.01075 0.0136045
v  -0.00281908 -0.01075 0.0145068
v  -0.003 -0.01075 0.0155329
v  -0.0015 -0.01075 0.0129348
v  -0.000520945 -0.01075 0.0184873
v  -0.00281908 -0.01075 0.0165589
v  -0.00229813 -0.01075 0.0174612
v  -0.0015 -0.01075 0.018131
v  0.000520945 -0.01075 0.0184873
v  0.000520945 -0.01075 0.0125785
v  -0.000520945 -0.01075 0.0125785
v  0.0015 -0.01075 0.018131
v  0.00229813 -0.01075 0.0136045
v  0.0015 -0.01075 0.0129348
v  0.00229813 -0.01075 0.0174612
v  0.00281908 -0.01075 0.0165589
v  0.00281908 -0.01075 0.0145068
v  0.003 -0.01075 0.0155329
v  0.0098 -0.01345 -0.000167115
v  0.00905 -0.01345 0.00419987
v  -0.0098 -0.01345 -0.000167115
v  0.00886699 -0.01345 0.00438289
v  0.0088 -0.01345 0.00463289
v  0.0088 -0.01345 0.00783289
v  0.00862764 -0.01345 0.010023
v  0.00811479 -0.01345 0.0121591
v  0.00727409 -0.01345 0.0141888
v  0.00612624 -0.01345 0.0160619
v  0.0046995 -0.01345 0.0177324
v  0.00302899 -0.01345 0.0191591
v  0.00115587 -0.01345 0.020307
v  -0.000873762 -0.01345 0.0211477
v  -0.00300992 -0.01345 0.0216605
v  -0.0052 -0.01345 0.0218329
v  -0.0098 -0.01345 0.0188329
v  -0.0068 -0.01345 0.0218329
v  -0.00772705 -0.01345 0.0216861
v  -0.00856336 -0.01345 0.0212599
v  -0.00965317 -0.01345 0.0197599
v  -0.00922705 -0.01345 0.0205962
v  0.00905 -0.01145 0.00419987
v  0.00886699 -0.01145 0.00438289
v  0.0088 -0.01145 0.00463289
v  -0.000520945 -0.01145 0.0125785
v  0.000520945 -0.01145 0.0125785
v  0.0015 -0.01145 0.0129348
v  -0.0015 -0.01145 0.0129348
v  -0.00229813 -0.01145 0.0136045
v  -0.00281908 -0.01145 0.0145068
v  -0.003 -0.01145 0.0155329
v  -0.0098 -0.01145 0.0188329
v  -0.00281908 -0.01145 0.0165589
v  -0.00965317 -0.01145 0.0197599
v  -0.00856336 -0.01145 0.0212599
v  -0.00229813 -0.01145 0.0174612
v  -0.00922705 -0.01145 0.0205962
v  -0.00772705 -0.01145 0.0216861
v  -0.0068 -0.01145 0.0218329
v  -0.0052 -0.01145 0.0218329
v  -0.0015 -0.01145 0.018131
v  -0.00300992 -0.01145 0.0216605
v  -0.000520945 -0.01145 0.0184873
v  -0.000873762 -0.01145 0.0211477
v  0.000520945 -0.01145 0.0184873
v  0.00115587 -0.01145 0.020307
v  0.0015 -0.01145 0.018131
v  0.00302899 -0.01145 0.0191591
v  0.00229813 -0.01145 0.0174612
v  0.0046995 -0.01145 0.0177324
v  0.00281908 -0.01145 0.0165589
v  0.003 -0.01145 0.0155329
v  0.00612624 -0.01145 0.0160619
v  0.00727409 -0.01145 0.0141888
v  0.00281908 -0.01145 0.0145068
v  0.00811479 -0.01145 0.0121591
v  0.00229813 -0.01145 0.0136045
v  0.00862764 -0.01145 0.010023
v  0.0088 -0.01145 0.00783289
v  0.00361401 0.01045 0.0167072
v  0.00307426 0.01045 0.0177665
v  -0.00223358 0.01045 0.0124586
v  -0.00117426 0.01045 0.0119189
v  4.94989e-16 0.01045 0.0117329
v  0.00117426 0.01045 0.0119189
v  0.00223358 0.01045 0.0124586
v  0.00307426 0.01045 0.0132993
v  0.0038 0.01045 0.0155329
v  0.00223358 0.01045 0.0186072
v  0.00117426 0.01045 0.0191469
v  5.04593e-16 0.01045 0.0193329
v  -0.00117426 0.01045 0.0191469
v  -0.00223358 0.01045 0.0186072
v  -0.00307426 0.01045 0.0177665
v  -0.00361401 0.01045 0.0167072
v  -0.0038 0.01045 0.0155329
v  -0.00307426 0.01045 0.0132993
v  -0.00361401 0.01045 0.0143586
v  0.00361401 0.01045 0.0143586
v  0.0098 0.01345 -0.000167115
v  0.00905 0.01345 0.00419987
v  0.00886699 0.01345 0.00438289
v  -0.0098 0.01345 -0.000167115
v  0.0088 0.01345 0.00463289
v  0.0088 0.01345 0.00783289
v  0.00862764 0.01345 0.010023
v  0.00811479 0.01345 0.0121591
v  0.00727409 0.01345 0.0141888
v  0.00612624 0.01345 0.0160619
v  0.0046995 0.01345 0.0177324
v  0.00302899 0.01345 0.0191591
v  0.00115587 0.01345 0.020307
v  -0.000873762 0.01345 0.0211477
v  -0.00300992 0.01345 0.0216605
v  -0.0052 0.01345 0.0218329
v  -0.0098 0.01345 0.0188329
v  -0.0068 0.01345 0.0218329
v  -0.00965317 0.01345 0.0197599
v  -0.00922705 0.01345 0.0205962
v  -0.00772705 0.01345 0.0216861
v  -0.00856336 0.01345 0.0212599
v  0.00905 0.01125 0.00419987
v  0.00886699 0.01125 0.00438289
v  0.0088 0.01125 0.00463289
v  0.00361401 0.01125 0.0143586
v  0.00307426 0.01125 0.0132993
v  0.00223358 0.01125 0.0124586
v  0.00117426 0.01125 0.0119189
v  0.00361401 0.01125 0.0167072
v  0.0038 0.01125 0.0155329
v  4.96798e-16 0.01125 0.0117329
v  -0.00117426 0.01125 0.0119189
v  -0.00223358 0.01125 0.0124586
v  -0.00307426 0.01125 0.0132993
v  -0.00361401 0.01125 0.0143586
v  -0.0098 0.01125 0.0188329
v  -0.0038 0.01125 0.0155329
v  -0.00965317 0.01125 0.0197599
v  -0.00361401 0.01125 0.0167072
v  -0.00922705 0.01125 0.0205962
v  -0.00307426 0.01125 0.0177665
v  -0.00856336 0.01125 0.0212599
v  -0.0068 0.01125 0.0218329
v  -0.00772705 0.01125 0.0216861
v  -0.0052 0.01125 0.0218329
v  -0.00223358 0.01125 0.0186072
v  -0.00300992 0.01125 0.0216605
v  -0.00117426 0.01125 0.0191469
v  -0.000873762 0.01125 0.0211477
v  5.04556e-16 0.01125 0.0193329
v  0.00115587 0.01125 0.020307
v  0.00117426 0.01125 0.0191469
v  0.00302899 0.01125 0.0191591
v  0.00223358 0.01125 0.0186072
v  0.0046995 0.01125 0.0177324
v  0.00307426 0.01125 0.0177665
v  0.00612624 0.01125 0.0160619
v  0.00727409 0.01125 0.0141888
v  0.0088 0.01125 0.00783289
v  0.00862764 0.01125 0.010023
v  0.00811479 0.01125 0.0121591
v  4.9685e-16 0.01045 0.0117329
v  4.96793e-16 0.01125 0.0117329
v  5.04536e-16 0.01125 0.0193329
v  0.008 4.35516e-16 -0.000167115

# 0 UV coordinates

# 141 vertex normals
vn -0.994138 0.108119 0
vn -0.994138 -0.108119 1.376e-16
vn -0.994138 -0.108119 0
vn -0.947653 -0.319302 0
vn -0.947653 -0.319302 -1.99919e-16
vn -0.856857 -0.515554 0
vn -0.856857 -0.515554 -1.99919e-16
vn -0.725995 -0.6877 0
vn -0.725995 -0.6877 -1.99919e-16
vn -0.561187 -0.827689 0
vn -0.561187 -0.827689 1.99919e-16
vn -0.370138 -0.928977 0
vn -0.370138 -0.928977 1.99919e-16
vn -0.161782 -0.986826 0
vn 0.0541392 -0.998533 0
vn 0.0541392 -0.998533 2.49899e-17
vn 0.267528 -0.96355 0
vn 0.468409 -0.883512 0
vn 0.647386 -0.762162 0
vn 0.647386 -0.762162 -1.99919e-16
vn 0.796093 -0.605174 0
vn 0.907575 -0.419889 0
vn 0.976621 -0.21497 0
vn 1 0 0
vn 0.976621 0.21497 0
vn 0.907575 0.419889 0
vn 0.796093 0.605174 0
vn 0.647386 0.762162 0
vn 0.647386 0.762162 1.99919e-16
vn 0.468409 0.883512 0
vn 0.267528 0.96355 0
vn 0.0541392 0.998533 0
vn 0.0541392 0.998533 -2.49899e-17
vn -0.161782 0.986826 0
vn -0.370138 0.928977 0
vn -0.370138 0.928977 -1.99919e-16
vn -0.561187 0.827689 0
vn -0.561187 0.827689 -1.99919e-16
vn -0.725995 0.6877 0
vn -0.725995 0.6877 1.99919e-16
vn -0.856857 0.515554 0
vn -0.856857 0.515554 1.99919e-16
vn -0.947653 0.319302 0
vn -0.947653 0.319302 1.99919e-16
vn 0 0 -1
vn 0 0 1
vn 0 1 0
vn -0 -1 -0
vn 0.258819 0 0.965926
vn 0.707106 0 0.707108
vn 0.965926 0 0.258819
vn 0.965926 -6.99676e-18 0.258819
vn 0.996917 0 0.0784593
vn 0.996917 -2.06147e-17 0.0784593
vn 0.97237 0 0.233445
vn 0.92388 0 0.382684
vn 0.85264 0 0.522498
vn 0.760406 0 0.649448
vn 0.760406 8.24587e-17 0.649448
vn 0.649448 0 0.760406
vn 0.649448 -8.24587e-17 0.760406
vn 0.522498 0 0.85264
vn 0.522498 8.24587e-17 0.85264
vn 0.382683 0 0.92388
vn 0.382683 -8.24587e-17 0.92388
vn 0.233445 0 0.97237
vn 0.233445 -4.12293e-17 0.97237
vn 0.0784593 0 0.996917
vn -0.156434 0 0.987688
vn -0.156434 -1.53301e-17 0.987688
vn -0.453991 0 0.891006
vn -0.707106 0 0.707108
vn -0.891007 0 0.45399
vn -0.891007 -3.06601e-17 0.45399
vn -0.987688 0 0.156434
vn 0.984808 4.97698e-17 -0.173648
vn 0.984808 0 -0.173648
vn 0.984808 0 0.173648
vn 0.866025 0 0.5
vn 0.866025 9.95396e-17 0.5
vn 0.642788 0 0.766044
vn 0.642788 9.95397e-17 0.766044
vn 0.34202 0 0.939693
vn 0.34202 -9.95396e-17 0.939693
vn -0.34202 0 0.939693
vn -0.34202 9.95396e-17 0.939693
vn -0.642788 0 0.766044
vn -0.642788 -9.95397e-17 0.766044
vn -0.866025 0 0.5
vn -0.866025 -9.95396e-17 0.5
vn -0.984808 0 0.173648
vn -0.984808 0 -0.173648
vn -0.984808 -4.97698e-17 -0.173648
vn -0.866025 0 -0.5
vn -0.866025 9.95396e-17 -0.5
vn -0.642788 0 -0.766044
vn -0.642788 9.95396e-17 -0.766044
vn -0.34202 0 -0.939693
vn -0.34202 9.95396e-17 -0.939693
vn 0.34202 0 -0.939693
vn 0.34202 -9.95396e-17 -0.939693
vn 0.642788 0 -0.766044
vn 0.642788 -9.95396e-17 -0.766044
vn 0.866025 0 -0.5
vn 0.866025 -9.95396e-17 -0.5
vn 0.258819 -3.49337e-18 0.965926
vn 0.707106 -6.98675e-18 0.707108
vn 0.965926 -3.49337e-18 0.258819
vn -0.987688 -7.54402e-18 0.156434
vn 0.996917 -9.80606e-18 0.0784593
vn 0.97237 3.92243e-17 0.233445
vn 0.92388 -3.92243e-17 0.382684
vn 0.85264 -7.84485e-17 0.522498
vn 0.649448 -7.84485e-17 0.760406
vn 0.156434 -4.97171e-17 -0.987688
vn 0.156434 0 -0.987688
vn -0.156434 -1.10662e-17 -0.987688
vn -0.156434 4.97171e-17 -0.987688
vn -0.45399 -0 -0.891007
vn -0.707107 -0 -0.707107
vn -0.891007 -0 -0.45399
vn -0.987688 -0 -0.156435
vn -0.987688 -4.97171e-17 -0.156435
vn -0.987688 0 0.156434
vn -0.891007 0 0.45399
vn -0.707107 0 0.707107
vn -0.45399 0 0.891007
vn -0.156434 0 0.987688
vn -0.156434 -4.97171e-17 0.987688
vn 0.156434 1.10662e-17 0.987688
vn 0.156434 4.97171e-17 0.987688
vn 0.45399 0 0.891007
vn 0.707107 0 0.707107
vn 0.891007 0 0.45399
vn 0.987688 0 0.156434
vn 0.987688 0 -0.156435
vn 0.987688 4.97171e-17 -0.156435
vn 0.891007 0 -0.45399
vn 0.707107 0 -0.707107
vn 0.45399 0 -0.891007
vn -1 0 0

# Mesh '<STL_BINARY>' with 448 faces
g <STL_BINARY>
usemtl AluminumBodyMaterial
f  1//1 2//1 3//1
f  1//1 4//1 2//1
f  3//2 2//2 5//2
f  3//2 5//2 6//3
f  6//4 5//4 7//4
f  6//4 7//4 8//5
f  8//6 7//6 9//6
f  8//6 9//6 10//7
f  10//8 9//8 11//8
f  10//8 11//8 12//9
f  12//10 11//10 13//10
f  12//10 13//10 14//11
f  14//12 13//12 15//12
f  14//12 15//12 16//13
f  16//14 15//14 17//14
f  16//14 17//14 18//14
f  18//15 17//15 19//15
f  18//15 19//15 20//16
f  20//17 19//17 21//17
f  20//17 21//17 22//17
f  22//18 21//18 23//18
f  22//18 23//18 24//18
f  24//19 23//19 25//19
f  24//19 25//19 26//20
f  26//21 25//21 27//21
f  26//21 27//21 28//21
f  28//22 27//22 29//22
f  28//22 29//22 30//22
f  30//23 29//23 31//23
f  30//23 31//23 32//23
f  32//24 31//24 33//24
f  32//24 33//24 34//24
f  34//25 33//25 35//25
f  34//25 35//25 36//25
f  36//26 35//26 37//26
f  36//26 37//26 38//26
f  38//27 37//27 39//27
f  38//27 39//27 40//27
f  40//28 39//28 41//28
f  40//28 41//28 42//29
f  42//30 41//30 43//30
f  42//30 43//30 44//30
f  44//31 43//31 45//31
f  44//31 45//31 46//31
f  46//32 45//32 47//32
f  46//32 47//32 48//33
f  48//34 47//34 49//34
f  48//34 49//34 50//34
f  50//35 49//35 51//35
f  50//35 51//35 52//36
f  52//37 51//37 53//37
f  52//37 53//37 54//38
f  54//39 53//39 55//39
f  54//39 55//39 56//40
f  56//41 55//41 57//41
f  56//41 57//41 58//42
f  58//43 57//43 4//43
f  58//43 4//43 1//44
f  45//45 43//45 17//45
f  45//45 17//45 47//45
f  43//45 41//45 17//45
f  17//45 41//45 39//45
f  17//45 39//45 37//45
f  37//45 35//45 17//45
f  17//45 35//45 33//45
f  17//45 33//45 31//45
f  31//45 29//45 17//45
f  17//45 29//45 27//45
f  17//45 27//45 25//45
f  25//45 23//45 17//45
f  17//45 23//45 21//45
f  17//45 21//45 19//45
f  47//45 17//45 15//45
f  47//45 15//45 13//45
f  13//45 49//45 47//45
f  13//45 51//45 49//45
f  53//45 51//45 13//45
f  55//45 53//45 13//45
f  11//45 4//45 13//45
f  13//45 4//45 57//45
f  13//45 57//45 55//45
f  11//45 9//45 4//45
f  4//45 9//45 7//45
f  4//45 7//45 59//45
f  59//45 7//45 5//45
f  60//46 61//46 62//46
f  63//46 64//46 60//46
f  63//46 60//46 65//46
f  65//46 60//46 62//46
f  65//46 66//46 63//46
f  67//46 64//46 63//46
f  68//47 69//47 70//47
f  71//47 68//47 72//47
f  72//47 68//47 70//47
f  70//47 73//47 74//47
f  72//47 70//47 75//47
f  75//47 70//47 74//47
f  76//47 77//47 72//47
f  72//47 77//47 78//47
f  72//47 78//47 71//47
f  76//47 79//47 77//47
f  77//47 79//47 80//47
f  77//47 80//47 81//47
f  82//47 80//47 79//47
f  83//47 84//47 80//47
f  83//47 80//47 82//47
f  85//47 84//47 83//47
f  62//48 61//48 86//48
f  86//48 61//48 87//48
f  86//48 87//48 88//48
f  87//48 89//48 88//48
f  88//48 89//48 90//48
f  88//48 90//48 91//48
f  91//48 92//48 88//48
f  88//48 92//48 93//48
f  88//48 93//48 94//48
f  94//48 95//48 88//48
f  88//48 95//48 96//48
f  88//48 96//48 97//48
f  88//48 97//48 98//48
f  98//48 99//48 88//48
f  88//48 99//48 100//48
f  88//48 100//48 101//48
f  102//48 88//48 103//48
f  103//48 88//48 101//48
f  103//48 104//48 102//48
f  102//48 104//48 105//48
f  102//48 105//48 106//48
f  106//48 105//48 107//48
f  61//49 60//49 108//49
f  61//49 108//49 87//49
f  87//50 108//50 109//50
f  87//50 109//50 89//50
f  89//51 109//51 110//51
f  89//51 110//51 90//52
f  60//47 64//47 108//47
f  108//47 64//47 109//47
f  64//47 111//47 109//47
f  111//47 112//47 109//47
f  109//47 112//47 113//47
f  109//47 113//47 110//47
f  64//47 114//47 111//47
f  115//47 114//47 64//47
f  64//47 116//47 115//47
f  116//47 64//47 117//47
f  117//47 64//47 118//47
f  117//47 118//47 119//47
f  119//47 118//47 120//47
f  121//47 122//47 119//47
f  121//47 119//47 123//47
f  119//47 120//47 123//47
f  124//47 122//47 121//47
f  124//47 125//47 122//47
f  122//47 125//47 126//47
f  122//47 126//47 127//47
f  127//47 126//47 128//47
f  127//47 128//47 129//47
f  129//47 128//47 130//47
f  129//47 130//47 131//47
f  131//47 130//47 132//47
f  131//47 132//47 133//47
f  133//47 132//47 134//47
f  133//47 134//47 135//47
f  136//47 137//47 134//47
f  135//47 134//47 137//47
f  138//47 137//47 136//47
f  136//47 139//47 138//47
f  138//47 139//47 140//47
f  138//47 140//47 141//47
f  141//47 140//47 142//47
f  141//47 142//47 143//47
f  143//47 142//47 144//47
f  113//47 143//47 145//47
f  143//47 144//47 145//47
f  110//47 113//47 145//47
f  91//53 145//53 144//53
f  91//53 144//53 92//54
f  92//55 144//55 142//55
f  92//55 142//55 93//55
f  93//56 142//56 140//56
f  93//56 140//56 94//56
f  94//57 140//57 139//57
f  94//57 139//57 95//57
f  95//58 139//58 136//58
f  95//58 136//58 96//59
f  96//60 136//60 134//60
f  96//60 134//60 97//61
f  97//62 134//62 132//62
f  97//62 132//62 98//63
f  98//64 132//64 130//64
f  98//64 130//64 99//65
f  99//66 130//66 128//66
f  99//66 128//66 100//67
f  100//68 128//68 126//68
f  100//68 126//68 101//68
f  145//24 91//24 110//24
f  110//24 91//24 90//24
f  103//69 125//69 124//69
f  103//69 124//69 104//70
f  104//71 124//71 121//71
f  104//71 121//71 105//71
f  105//72 121//72 123//72
f  105//72 123//72 107//72
f  107//73 123//73 120//73
f  107//73 120//73 106//74
f  106//75 120//75 118//75
f  106//75 118//75 102//75
f  101//46 126//46 103//46
f  103//46 126//46 125//46
f  141//76 85//76 138//76
f  141//76 84//77 85//76
f  138//78 85//78 83//78
f  138//78 83//78 137//78
f  137//79 83//79 82//79
f  137//79 82//79 135//80
f  135//81 82//81 79//81
f  135//81 79//81 133//82
f  133//83 79//83 76//83
f  133//83 76//83 131//84
f  131//46 76//46 72//46
f  131//46 72//46 129//46
f  129//85 72//85 75//85
f  129//85 75//85 127//86
f  127//87 75//87 74//87
f  127//87 74//87 122//88
f  122//89 74//89 73//89
f  122//89 73//89 119//90
f  119//91 73//91 70//91
f  119//91 70//91 117//91
f  117//92 70//92 69//92
f  117//92 69//92 116//93
f  116//94 69//94 68//94
f  116//94 68//94 115//95
f  115//96 68//96 71//96
f  115//96 71//96 114//97
f  114//98 71//98 78//98
f  114//98 78//98 111//99
f  111//45 78//45 77//45
f  111//45 77//45 112//45
f  112//100 77//100 81//100
f  112//100 81//100 113//101
f  113//102 81//102 80//102
f  113//102 80//102 143//103
f  143//104 80//104 84//104
f  143//104 84//104 141//105
f  146//48 147//48 148//48
f  148//48 149//48 146//48
f  146//48 149//48 150//48
f  146//48 150//48 151//48
f  151//48 152//48 146//48
f  146//48 152//48 153//48
f  146//48 153//48 154//48
f  148//48 147//48 155//48
f  148//48 155//48 156//48
f  156//48 157//48 148//48
f  148//48 157//48 158//48
f  148//48 158//48 159//48
f  159//48 160//48 148//48
f  148//48 160//48 161//48
f  148//48 162//48 163//48
f  148//48 161//48 162//48
f  163//48 162//48 164//48
f  154//48 153//48 165//48
f  65//47 166//47 66//47
f  66//47 166//47 167//47
f  167//47 166//47 168//47
f  168//47 166//47 169//47
f  168//47 169//47 170//47
f  169//47 171//47 170//47
f  169//47 172//47 171//47
f  173//47 172//47 169//47
f  169//47 174//47 173//47
f  169//47 175//47 174//47
f  169//47 176//47 175//47
f  177//47 176//47 169//47
f  178//47 177//47 169//47
f  178//47 169//47 179//47
f  169//47 180//47 179//47
f  169//47 181//47 180//47
f  182//47 183//47 181//47
f  182//47 181//47 169//47
f  184//47 183//47 182//47
f  185//47 186//47 183//47
f  185//47 183//47 184//47
f  187//47 186//47 185//47
f  63//49 66//49 167//49
f  63//49 167//49 188//106
f  188//50 167//50 168//50
f  188//50 168//50 189//107
f  189//51 168//51 170//51
f  189//51 170//51 190//108
f  189//48 191//48 192//48
f  192//48 193//48 189//48
f  189//48 193//48 194//48
f  189//48 194//48 188//48
f  190//48 195//48 189//48
f  189//48 195//48 196//48
f  189//48 196//48 191//48
f  188//48 194//48 197//48
f  188//48 197//48 198//48
f  198//48 199//48 188//48
f  188//48 199//48 67//48
f  188//48 67//48 63//48
f  199//48 200//48 67//48
f  67//48 200//48 201//48
f  67//48 201//48 202//48
f  202//48 201//48 203//48
f  204//48 202//48 205//48
f  202//48 203//48 205//48
f  205//48 206//48 204//48
f  207//48 208//48 205//48
f  205//48 208//48 206//48
f  209//48 210//48 207//48
f  207//48 210//48 208//48
f  209//48 207//48 211//48
f  211//48 207//48 212//48
f  211//48 212//48 213//48
f  213//48 212//48 214//48
f  213//48 214//48 215//48
f  215//48 214//48 216//48
f  215//48 216//48 217//48
f  217//48 216//48 218//48
f  217//48 218//48 219//48
f  219//48 218//48 220//48
f  219//48 220//48 221//48
f  221//48 220//48 222//48
f  221//48 222//48 195//48
f  223//48 221//48 190//48
f  190//48 221//48 195//48
f  190//48 224//48 223//48
f  190//48 225//48 226//48
f  226//48 227//48 190//48
f  190//48 227//48 224//48
f  209//69 183//69 186//69
f  209//69 186//69 210//69
f  210//71 186//71 187//71
f  210//71 187//71 208//71
f  208//72 187//72 185//72
f  208//72 185//72 206//72
f  206//73 185//73 184//73
f  206//73 184//73 204//73
f  204//75 184//75 182//75
f  204//75 182//75 202//109
f  171//24 225//24 170//24
f  170//24 225//24 190//24
f  225//53 171//53 172//53
f  225//53 172//53 226//110
f  226//55 172//55 173//55
f  226//55 173//55 227//111
f  227//56 173//56 174//56
f  227//56 174//56 224//112
f  224//57 174//57 175//57
f  224//57 175//57 223//113
f  223//58 175//58 176//58
f  223//58 176//58 221//58
f  221//60 176//60 177//60
f  221//60 177//60 219//114
f  219//62 177//62 178//62
f  219//62 178//62 217//62
f  217//64 178//64 179//64
f  217//64 179//64 215//64
f  215//66 179//66 180//66
f  215//66 180//66 213//66
f  213//68 180//68 181//68
f  213//68 181//68 211//68
f  183//46 209//46 181//46
f  181//46 209//46 211//46
f  194//115 228//115 229//115
f  194//115 151//116 228//115
f  229//117 228//117 149//117
f  229//117 149//117 198//118
f  198//119 149//119 148//119
f  198//119 148//119 199//119
f  199//120 148//120 163//120
f  199//120 163//120 200//120
f  200//121 163//121 164//121
f  200//121 164//121 201//121
f  201//122 164//122 162//122
f  201//122 162//122 203//123
f  203//124 162//124 161//124
f  203//124 161//124 205//124
f  205//125 161//125 160//125
f  205//125 160//125 207//125
f  207//126 160//126 159//126
f  207//126 159//126 212//126
f  212//127 159//127 158//127
f  212//127 158//127 214//127
f  214//128 158//128 157//128
f  214//128 157//128 230//129
f  230//130 157//130 156//130
f  230//130 156//130 218//131
f  218//132 156//132 155//132
f  218//132 155//132 220//132
f  220//133 155//133 147//133
f  220//133 147//133 222//133
f  222//134 147//134 146//134
f  222//134 146//134 195//134
f  195//135 146//135 154//135
f  195//135 154//135 196//135
f  196//136 154//136 165//136
f  196//136 165//136 191//137
f  191//138 165//138 153//138
f  191//138 153//138 192//138
f  192//139 153//139 152//139
f  192//139 152//139 193//139
f  193//140 152//140 151//140
f  193//140 151//140 194//140
f  169//45 32//45 88//45
f  22//45 24//45 169//45
f  169//45 24//45 26//45
f  166//45 18//45 169//45
f  169//45 18//45 20//45
f  169//45 20//45 22//45
f  26//45 28//45 169//45
f  169//45 28//45 30//45
f  169//45 30//45 32//45
f  88//45 32//45 34//45
f  88//45 34//45 36//45
f  36//45 38//45 88//45
f  88//45 38//45 40//45
f  88//45 40//45 42//45
f  42//45 44//45 88//45
f  88//45 44//45 46//45
f  88//45 46//45 86//45
f  86//45 46//45 48//45
f  86//45 48//45 50//45
f  86//45 50//45 52//45
f  52//45 54//45 86//45
f  86//45 54//45 56//45
f  86//45 56//45 58//45
f  58//45 1//45 86//45
f  86//45 1//45 231//45
f  86//45 231//45 166//45
f  166//45 231//45 6//45
f  166//45 6//45 8//45
f  8//45 10//45 166//45
f  166//45 10//45 12//45
f  166//45 12//45 14//45
f  14//45 16//45 166//45
f  166//45 16//45 18//45
f  86//24 166//24 62//24
f  62//24 166//24 65//24
f  202//141 182//141 67//141
f  67//141 182//141 169//141
f  67//141 169//141 64//141
f  64//141 169//141 88//141
f  64//141 88//141 118//141
f  118//141 88//141 102//141

