<?xml version="1.0" encoding="utf-8"?>
<!-- Generator: Adobe Illustrator 24.2.3, SVG Export Plug-In . SVG Version: 6.00 Build 0)  -->
<svg version="1.1" id="Layer_1" xmlns="http://www.w3.org/2000/svg" xmlns:xlink="http://www.w3.org/1999/xlink" x="0px" y="0px"
	 viewBox="0 0 916 1000" style="enable-background:new 0 0 916 1000;" xml:space="preserve">
<style type="text/css">
	.st0{fill:#7E1117;}
	.st1{fill:#501215;}
	.st2{fill:#A3262A;}
	.st3{fill:#C52E32;}
	.st4{fill:#6A191B;}
	.st5{fill:#CC2F34;}
	.st6{enable-background:new    ;}
	.st7{fill:#0B0B0B;}
	.st8{fill:#121212;}
	.st9{fill:#2B2B2C;}
	.st10{fill:#1A1A1A;}
	.st11{fill:#040404;}
	.st12{fill:#343334;}
	.st13{fill:#3A3B3C;}
	.st14{fill:#131313;}
	.st15{fill:#353637;}
	.st16{fill:#39393B;}
	.st17{fill:#880C0E;}
	.st18{fill:#DA3C43;}
	.st19{fill:#9D141E;}
	.st20{fill:#CC374F;}
	.st21{fill:#821319;}
	.st22{fill:#3D0A09;}
	.st23{fill:#E75574;}
	.st24{fill:#F36E83;}
	.st25{fill:#F77470;}
	.st26{fill:#8B1219;}
	.st27{fill:#D33136;}
	.st28{fill:#E44363;}
	.st29{fill:#AC1924;}
	.st30{fill:#DA3B59;}
	.st31{fill:#D03A56;}
	.st32{fill:#BC202D;}
	.st33{fill:#E6556E;}
	.st34{fill:#EF5D78;}
	.st35{fill:#D43F53;}
	.st36{fill:#6D0814;}
	.st37{fill:#B5191A;}
	.st38{fill:#911317;}
	.st39{fill:#C53044;}
	.st40{fill:#E65876;}
	.st41{fill:#DE5070;}
	.st42{clip-path:url(#SVGID_2_);}
</style>
<g>
	<g>
		<g>
			<polygon class="st0" points="813.8,750.8 821.1,823.4 662.4,833.5 654.1,762.4 			"/>
		</g>
		<g>
			<polygon class="st0" points="652.7,750.8 662.4,833.5 545.2,871.8 533.9,798.5 			"/>
		</g>
		<g>
			<polygon class="st1" points="877.2,774.7 885.2,851.4 821.1,823.4 813.8,750.8 			"/>
		</g>
	</g>
	<g>
		<g>
			<polygon class="st2" points="693.4,511.1 728.9,566.1 593.6,647 557.8,593.8 			"/>
		</g>
		<g>
			<polygon class="st3" points="557.8,593.8 593.6,647 506.8,734.4 467.7,678.1 			"/>
		</g>
		<g>
			<polygon class="st4" points="741.7,468.9 859.3,625.5 728.9,566.1 693.4,511.1 			"/>
		</g>
		<g>
			<path class="st4" d="M676,588.5L514.9,685l-48.5-6.2l90.9-85.1l136.7-83.4l49-42.3L676,588.5z M467.7,678.1l48.1,6l159.5-95.7
				l66.3-119.5l-48.3,42.1l-135.6,82.7L467.7,678.1"/>
		</g>
	</g>
	<g>
		<g>
			<polygon class="st2" points="599.5,439.5 640,484.1 539.5,568.9 499,525.7 			"/>
		</g>
		<g>
			<polygon class="st5" points="499,525.7 539.5,568.9 480.3,652 436.8,606.8 			"/>
		</g>
		<g>
			<polygon class="st4" points="652.7,422.6 696.4,471.3 640,484.1 599.5,439.5 			"/>
		</g>
		<g>
			<path class="st4" d="M594.8,505.6l-117.8,99.7l-41.2,2.3l62.8-81.8L600,438.8l53.9-17.1L594.8,505.6z M436.8,606.8l40.9-2.3
				l116.6-98.7l58.5-83.2l-53.3,16.9L499,525.7L436.8,606.8"/>
		</g>
	</g>
	<g>
		<g class="st6">
			<g>
				<polygon points="767.7,849.2 764.9,869 715,874.7 765.5,849.4 				"/>
			</g>
			<g>
				<polygon points="715,874.7 632.2,833.3 655.3,699.1 740.5,733.6 				"/>
			</g>
			<g>
				<polygon class="st7" points="791.6,721.1 797.5,694.4 764.9,869 767.7,849.2 				"/>
			</g>
			<g>
				<polygon class="st8" points="765.5,849.4 715,874.7 740.5,733.6 789.1,722.8 				"/>
			</g>
			<g>
				<polygon class="st9" points="535.1,451.6 512.9,388.5 797.5,694.4 791.6,721.1 				"/>
			</g>
			<g>
				<polygon class="st10" points="535.1,451.6 791.6,721.1 767.7,849.2 765.5,849.4 789.1,722.8 533,454.6 				"/>
			</g>
			<g>
				<polygon class="st11" points="464.5,456.9 380.4,433.1 426.6,369.1 512.9,388.5 				"/>
			</g>
			<g>
				<polygon points="789.1,722.8 740.5,733.6 464.5,456.9 533,454.6 				"/>
			</g>
			<g>
				<polygon class="st12" points="533,454.6 464.5,456.9 512.9,388.5 535.1,451.6 				"/>
			</g>
			<g>
				<polygon points="740.5,733.6 655.3,699.1 380.4,433.1 464.5,456.9 				"/>
			</g>
		</g>
	</g>
	<g>
		<g class="st6">
			<g>
				<polygon class="st13" points="768.9,736.2 742.2,723.8 801.2,711.6 828.3,723.5 				"/>
			</g>
			<g>
				<polygon class="st14" points="768.9,736.2 742.2,723.8 776.1,654.2 803.5,665.3 				"/>
			</g>
			<g>
				<polygon class="st15" points="803.5,665.3 828.3,723.5 768.9,736.2 				"/>
			</g>
			<g>
				<polygon class="st15" points="768.9,736.2 828.3,723.5 794.6,792.5 				"/>
			</g>
			<g>
				<polygon class="st14" points="794.6,792.5 768.1,779.6 742.2,723.8 768.9,736.2 				"/>
			</g>
			<g>
				<polygon class="st15" points="768.9,736.2 794.6,792.5 734.3,807.1 				"/>
			</g>
			<g>
				<polygon class="st14" points="734.3,807.1 708.1,793.6 742.2,723.8 768.9,736.2 				"/>
			</g>
			<g>
				<polygon class="st16" points="741.8,676.8 714.8,665.1 776.1,654.2 803.5,665.3 				"/>
			</g>
			<g>
				<polygon class="st15" points="741.8,676.8 803.5,665.3 768.9,736.2 				"/>
			</g>
			<g>
				<polygon class="st14" points="768.9,736.2 742.2,723.8 714.8,665.1 741.8,676.8 				"/>
			</g>
			<g>
				<polygon class="st13" points="706.2,749.6 679.9,736.7 742.2,723.8 768.9,736.2 				"/>
			</g>
			<g>
				<polygon class="st14" points="706.2,749.6 679.9,736.7 714.8,665.1 741.8,676.8 				"/>
			</g>
			<g>
				<polygon class="st14" points="734.3,807.1 708.1,793.6 679.9,736.7 706.2,749.6 				"/>
			</g>
			<g>
				<polygon class="st15" points="741.8,676.8 768.9,736.2 706.2,749.6 				"/>
			</g>
			<g>
				<polygon class="st15" points="706.2,749.6 768.9,736.2 734.3,807.1 				"/>
			</g>
		</g>
	</g>
	<g>
		<g class="st6">
			<g>
				<polygon class="st4" points="476.9,605.4 524.1,654.8 479.3,652.9 435.7,607.7 				"/>
			</g>
			<g>
				<polygon class="st17" points="594.8,505.6 642,557 524.1,654.8 476.9,605.4 				"/>
			</g>
			<g>
				<polygon class="st18" points="653.9,421.6 697.5,470.3 642,557 594.8,505.6 				"/>
			</g>
		</g>
	</g>
	<g>
		<g class="st6">
			<g>
				<polygon class="st1" points="649,828.8 519.8,999.7 430.3,922.4 533.9,798.5 				"/>
			</g>
			<g>
				<polygon class="st19" points="761.5,826.4 832.6,936.7 519.8,999.7 649,828.8 				"/>
			</g>
			<g>
				<polygon class="st20" points="877.2,774.7 916,844 832.6,936.7 761.5,826.4 				"/>
			</g>
		</g>
	</g>
	<g>
		<polygon class="st0" points="388.4,455.9 386.4,548.8 184.8,489.5 		"/>
		<polygon class="st1" points="121.8,642.1 160.9,614.9 331,580 386.4,548.8 204.5,477.4 126.9,525.2 		"/>
		<polygon class="st21" points="84.4,540.9 18.8,554.9 121.8,642.1 126.9,525.2 		"/>
		<polygon class="st22" points="437.9,590.7 386.4,548.8 331,580 		"/>
		<polygon class="st21" points="471.7,177.7 505.6,56.5 337.3,212.1 		"/>
		<polygon class="st23" points="104,413.5 21.7,465 56.7,481.5 122.8,424.6 		"/>
		<polygon class="st24" points="0,526.8 21.7,465 56.7,481.5 44.9,517.9 		"/>
		<polygon class="st23" points="0,526.8 19.3,580.2 65.9,583.4 44.9,517.9 		"/>
		<polygon class="st25" points="19.3,580.2 65.7,605 65.9,583.4 		"/>
		<polygon class="st20" points="421.8,179.7 343.2,243 388.7,284.9 474.1,237.7 		"/>
		<polygon class="st19" points="499,292.8 424,348.2 388.7,284.9 474.1,237.7 		"/>
		<polygon class="st0" points="499,292.8 424,348.2 439.2,413.5 502.5,377.8 		"/>
		<polygon class="st26" points="296.4,433.1 424,348.2 439.2,413.5 373.1,477.5 		"/>
		<polygon class="st27" points="373.1,477.5 384.5,505.9 439.2,413.5 		"/>
		<polygon class="st28" points="296.4,433.1 424,348.2 334.3,366.7 273.9,397.3 		"/>
		<polygon class="st29" points="121.5,487.8 190.4,535.2 296.4,433.1 		"/>
		<polygon class="st27" points="121.5,487.8 190.4,535.2 180.2,568.2 150,546.4 		"/>
		<polygon class="st30" points="121.5,487.8 243.6,402.4 273.9,397.3 296.4,433.1 		"/>
		<polygon class="st31" points="121.5,487.8 243.6,402.4 122.8,424.6 56.7,481.5 		"/>
		<polygon class="st32" points="121.5,487.8 150,546.4 110.3,560.7 44.9,517.9 56.7,481.5 		"/>
		<polygon class="st30" points="110.3,560.7 139.8,583.9 150,546.4 		"/>
		<polygon class="st27" points="44.9,517.9 65.9,583.4 96.8,600.9 110.3,560.7 		"/>
		<polygon class="st33" points="189.8,350.5 104,413.5 122.8,424.6 227.1,360.2 		"/>
		<polygon class="st34" points="343.2,243 315,295.7 227.1,360.2 189.8,350.5 278.6,284.7 		"/>
		<polygon class="st35" points="343.2,243 315,295.7 388.7,284.9 		"/>
		<polygon class="st0" points="317.3,337.6 315,295.7 388.7,284.9 		"/>
		<polygon class="st36" points="272.5,374 315,295.7 317.3,337.6 		"/>
		<polygon class="st37" points="272.5,374 315,295.7 227.1,360.2 		"/>
		<polygon class="st38" points="272.5,374 273.9,397.3 122.8,424.6 227.1,360.2 		"/>
		<polygon class="st37" points="317.3,337.6 364.3,337.4 388.7,284.9 		"/>
		<polygon class="st18" points="424,348.2 364.3,337.4 388.7,284.9 		"/>
		<polygon class="st24" points="424,348.2 364.3,337.4 334.3,366.7 		"/>
		<polygon class="st39" points="754.1,-0.3 679.6,105.2 474.1,237.7 474.1,237.7 421.8,179.7 		"/>
		<polygon class="st1" points="474.1,237.7 538.8,235 679.6,105.2 		"/>
		<polygon class="st17" points="474.1,237.7 538.8,235 499,292.8 		"/>
		<polygon class="st1" points="499,292.8 538.8,235 719.5,168.5 		"/>
		<polygon class="st17" points="499,292.8 502.5,377.8 716,195.9 719.5,168.5 		"/>
		<polygon class="st1" points="502.5,377.8 597.8,359.8 716,195.9 		"/>
		<polygon class="st39" points="502.5,377.8 597.8,359.8 624.3,396.4 		"/>
		<polygon class="st1" points="502.5,377.8 559.4,441.8 624.3,396.4 		"/>
		<polygon class="st21" points="502.5,377.8 559.4,441.8 568.8,490.6 490.4,482.9 		"/>
		<polygon class="st19" points="502.5,377.8 439.2,413.5 384.5,505.9 490.4,482.9 		"/>
		<polygon class="st0" points="384.5,505.9 386.4,548.8 490.4,482.9 		"/>
		<polygon class="st17" points="437.9,590.7 386.4,548.8 490.4,482.9 		"/>
		<polygon class="st40" points="343.2,243 421.8,179.7 337.3,212.1 189.8,350.5 278.6,284.7 		"/>
		<polygon class="st25" points="256.8,238.4 189.8,350.5 337.3,212.1 		"/>
		<polygon class="st41" points="256.8,238.4 505.6,56.5 337.3,212.1 		"/>
		<polygon class="st38" points="373.1,477.5 296.4,433.1 190.4,535.2 218.4,556.1 229.9,527 253,545 265.4,522 290.9,539.7 
			301.6,510.4 323.8,531.2 331.3,496.4 		"/>
		<polygon class="st1" points="490.4,482.9 437.9,590.7 568.8,490.6 		"/>
	</g>
	<g>
		<g class="st6">
			<defs>
				<polygon id="SVGID_1_" class="st6" points="727.6,791.7 731.2,697.7 818.2,679.4 813.2,770.2 				"/>
			</defs>
			<clipPath id="SVGID_2_">
				<use xlink:href="#SVGID_1_"  style="overflow:visible;"/>
			</clipPath>
			<g class="st42">
				<path class="st3" d="M787.1,767.1l-33.5,6.6l-14.5-32.5l20-39.3l33.9-5.6l13.5,32.7L787.1,767.1 M755.2,692.6l-25.7,50.3
					l18.7,41.5l42.7-8.6l24.7-48.5l-17.1-41.7L755.2,692.6"/>
			</g>
		</g>
	</g>
	<g>
		<g class="st6">
			<g>
				<polygon class="st4" points="514.9,685 502.7,890.4 455.9,857 466.5,678.9 				"/>
			</g>
			<g>
				<polygon class="st19" points="667.5,590.6 713.7,638.8 502.7,890.4 514.9,685 				"/>
			</g>
			<g>
				<polygon class="st20" points="743.1,468.1 860.7,624.7 713.7,638.8 667.5,590.6 				"/>
			</g>
		</g>
	</g>
</g>
</svg>
