# Blender v2.82 (sub 7) OBJ File: 'base_01.blend'
# www.blender.org
mtllib base_coll_03.mtl
o base_coll_03_Base.003
v 0.057001 0.001397 0.153298
v 0.196167 -0.048686 0.153314
v 0.204944 -0.040115 0.153815
v 0.120031 0.037001 0.184819
v 0.121515 -0.036519 0.184682
v 0.149615 0.048920 0.180333
v 0.119042 -0.046131 0.177951
v 0.084763 -0.024727 0.182802
v 0.072427 0.006912 0.183127
v 0.192631 0.043740 0.178530
v 0.174277 0.054487 0.153598
v 0.202489 0.032667 0.183297
v 0.104578 0.040593 0.179770
v 0.074586 0.023768 0.176244
v 0.065748 -0.012541 0.175161
v 0.173786 -0.048095 0.179748
v 0.195149 -0.042637 0.177543
v 0.202889 -0.030334 0.183362
v 0.142663 0.055056 0.153105
v 0.103758 0.047091 0.153298
v 0.059815 0.007605 0.166440
v 0.069354 0.027793 0.153323
v 0.062819 -0.018684 0.153257
v 0.095397 -0.043945 0.153365
v 0.079333 -0.032514 0.166504
v 0.148328 -0.056135 0.153643
v 0.211146 0.001198 0.153610
v 0.203782 0.042338 0.153315
v 0.194873 0.048708 0.153486
vn -0.0339 -0.0025 0.9994
vn -0.0824 -0.0949 0.9921
vn -0.1821 -0.4324 0.8831
vn -0.0621 -0.0345 0.9975
vn 0.1265 0.9414 0.3127
vn 0.0325 0.2805 0.9593
vn 0.0926 0.4621 0.8820
vn -0.2292 0.3107 0.9225
vn -0.3217 0.3930 0.8614
vn -0.1203 0.5971 0.7931
vn -0.2103 -0.5239 0.8254
vn -0.4693 -0.1918 0.8619
vn -0.0473 -0.5648 0.8239
vn 0.2193 -0.5265 0.8214
vn 0.0350 -0.2540 0.9666
vn 0.0142 0.9762 0.2164
vn -0.1787 0.9491 0.2595
vn -0.1936 0.9514 0.2395
vn -0.7460 0.3314 0.5776
vn -0.9057 0.4239 -0.0063
vn -0.4956 0.8292 0.2587
vn -0.4767 0.8502 0.2235
vn -0.7870 0.5515 0.2765
vn -0.7970 0.0265 0.6034
vn -0.6115 -0.7889 -0.0613
vn -0.4064 -0.7643 0.5006
vn -0.6008 -0.6248 0.4987
vn -0.2232 -0.9662 0.1287
vn -0.9405 -0.2729 0.2023
vn -0.7367 -0.6190 0.2721
vn -0.9474 -0.1587 0.2778
vn 0.1531 -0.9765 0.1515
vn -0.0447 -0.9416 0.3336
vn 0.6778 -0.7061 0.2048
vn 0.7615 -0.5977 0.2508
vn 0.2636 -0.9332 0.2441
vn 0.9822 -0.1469 0.1169
vn 0.9618 0.0064 0.2737
vn 0.9794 0.1760 0.0990
vn 0.2652 0.9410 0.2104
vn 0.5715 0.7937 0.2086
vn 0.6650 0.7019 0.2551
vn -0.3845 -0.8758 0.2919
vn 0.0174 -0.0004 0.9998
vn 0.0161 0.0011 0.9999
vn 0.0156 0.0010 0.9999
vn 0.0184 -0.0015 0.9998
vn 0.0027 -0.0014 -1.0000
vn 0.0035 -0.0015 -1.0000
vn 0.0006 -0.0008 -1.0000
vn 0.0104 0.0069 -0.9999
vn -0.0115 -0.0065 -0.9999
vn -0.0279 -0.0122 -0.9995
vn 0.0724 -0.0158 -0.9973
vn 0.0080 0.0035 -1.0000
vn 0.0039 -0.0007 -1.0000
vn -0.0011 -0.0029 -1.0000
vn 0.0031 0.0010 -1.0000
vn 0.0004 -0.0001 -1.0000
vn -0.0014 0.0016 -1.0000
usemtl None.001
s 1
f 9//1 5//1 4//1
f 8//2 5//3 9//4
f 10//5 11//5 6//5
f 4//6 12//6 6//6
f 6//7 12//7 10//7
f 4//8 13//8 9//8
f 14//9 9//9 13//9
f 4//10 6//10 13//10
f 8//2 7//11 5//3
f 8//12 9//12 15//12
f 7//13 16//13 5//13
f 16//14 17//14 18//14
f 18//15 5//15 16//15
f 6//16 11//16 19//16
f 19//17 13//17 6//17
f 20//18 13//18 19//18
f 21//19 9//19 14//19
f 22//20 1//20 21//20
f 14//21 13//21 22//21
f 22//22 13//22 20//22
f 22//23 21//23 14//23
f 15//24 9//24 21//24
f 23//25 24//25 25//25
f 8//26 25//26 7//26
f 15//27 25//27 8//27
f 7//28 24//28 26//28
f 23//29 15//29 1//29
f 15//30 23//30 25//30
f 21//31 1//31 15//31
f 16//32 26//32 2//32
f 26//33 16//33 7//33
f 3//34 17//34 2//34
f 3//35 18//35 17//35
f 17//36 16//36 2//36
f 27//37 18//37 3//37
f 12//38 18//38 27//38
f 28//39 12//39 27//39
f 29//40 11//40 10//40
f 29//41 10//41 28//41
f 10//42 12//42 28//42
f 25//43 24//43 7//43
f 5//44 18//45 12//46
f 12//46 4//47 5//44
f 19//48 27//49 26//50
f 19//48 11//51 27//49
f 11//51 29//52 27//49
f 29//52 28//53 27//49
f 27//49 3//54 2//55
f 2//55 26//50 27//49
f 26//50 24//56 20//57
f 24//56 23//58 22//59
f 23//58 1//60 22//59
f 22//59 20//57 24//56
f 20//57 19//48 26//50
