# Blender v2.82 (sub 7) OBJ File: 'base_01.blend'
# www.blender.org
mtllib base_coll_02.mtl
o base_coll_02_Base.002
v -0.083096 0.163662 0.593215
v -0.082624 -0.162394 0.593248
v -0.167119 -0.078618 0.593243
v -0.181670 -0.029478 0.593202
v -0.090130 0.151402 0.624911
v -0.126791 -0.133618 0.593223
v -0.167691 0.076604 0.593267
v -0.152706 -0.048215 0.710385
v -0.131656 0.129643 0.593285
v -0.098098 -0.137584 0.655124
v -0.128611 -0.100721 0.696578
v -0.179256 0.041628 0.593245
v -0.163033 0.000203 0.699406
v -0.100887 0.132235 0.663907
v -0.137010 0.082442 0.712577
v -0.148324 0.058345 0.712284
v -0.123299 -0.086624 0.717183
v -0.158695 0.024034 0.709560
v -0.113923 0.109498 0.698056
v -0.111480 -0.104106 0.696255
v -0.123305 0.082392 0.717485
vn -0.0009 0.0006 -1.0000
vn 0.0012 0.0011 -1.0000
vn 0.0014 0.0006 -1.0000
vn -0.0005 0.0006 -1.0000
vn 0.9761 0.0014 0.2172
vn 0.0015 0.0015 -1.0000
vn -0.0017 0.0026 -1.0000
vn -0.9418 -0.2787 0.1882
vn -0.5635 0.8048 0.1862
vn 0.9700 -0.0013 0.2431
vn -0.5354 -0.8216 0.1955
vn -0.7945 -0.5826 0.1714
vn -0.0032 0.0025 -1.0000
vn 0.0001 0.0006 -1.0000
vn -0.8621 -0.4545 0.2240
vn -0.9643 -0.1573 0.2132
vn -0.5809 0.7825 0.2244
vn 0.9638 0.0013 0.2665
vn -0.6052 -0.7616 0.2317
vn -0.8134 0.5525 0.1821
vn -0.9859 0.0334 0.1637
vn -0.9306 0.3076 0.1986
vn -0.7258 -0.4661 0.5060
vn -0.8536 -0.0649 0.5169
vn -0.6314 0.7347 0.2481
vn 0.9509 -0.0002 0.3096
vn -0.1449 -0.7899 0.5958
vn -0.8864 0.4137 0.2077
vn -0.6672 0.7024 0.2480
vn -0.9773 0.0980 0.1876
vn -0.9409 0.2680 0.2069
vn -0.1467 -0.7984 0.5840
vn -0.2274 -0.0017 0.9738
vn -0.2295 -0.0079 0.9733
vn 0.9325 0.0076 0.3611
vn -0.3331 0.1451 0.9317
vn -0.2624 0.6205 0.7390
vn 0.8728 0.0059 0.4880
vn -0.1948 -0.0095 0.9808
vn 0.9009 -0.0007 0.4340
usemtl None.001
s 1
f 1//1 2//2 3//3
f 1//1 3//3 4//4
f 1//5 5//5 2//5
f 6//6 3//3 2//2
f 1//1 4//4 7//7
f 3//8 8//8 4//8
f 1//9 9//9 5//9
f 10//10 2//10 5//10
f 10//11 6//11 2//11
f 3//12 6//12 11//12
f 1//1 7//7 9//13
f 12//14 7//7 4//4
f 8//15 3//15 11//15
f 8//16 13//16 4//16
f 5//17 9//17 14//17
f 5//18 14//18 10//18
f 11//19 6//19 10//19
f 7//20 15//20 9//20
f 12//21 4//21 13//21
f 16//22 7//22 12//22
f 17//23 8//23 11//23
f 13//24 8//24 18//24
f 14//25 9//25 19//25
f 20//26 10//26 14//26
f 20//27 11//27 10//27
f 16//28 15//28 7//28
f 9//29 15//29 19//29
f 18//30 12//30 13//30
f 16//31 12//31 18//31
f 17//32 11//32 20//32
f 8//33 17//33 21//33
f 8//34 16//34 18//34
f 19//35 20//35 14//35
f 16//36 21//36 15//36
f 21//37 19//37 15//37
f 17//38 20//38 19//38
f 8//39 21//39 16//39
f 21//40 17//40 19//40
