# generated by collision_forge
v 0.091594 0.117415 0.012200
v 0.091594 0.117412 0.012200
v 0.091594 0.119887 0.012148
v 0.091114 0.117419 0.025576
v 0.091594 0.117412 0.008814
v 0.087912 0.117412 0.018758
v 0.091594 0.120181 0.012097
v 0.091107 0.118033 0.025576
v 0.087125 0.117419 0.025576
v 0.088723 0.117412 0.010559
v 0.087638 0.120181 0.010201
v 0.091594 0.117682 0.008781
v 0.085226 0.117412 0.018758
v 0.091594 0.120181 0.008589
v 0.090928 0.120181 0.025576
v 0.090953 0.119886 0.025576
v 0.081057 0.119620 0.025576
v 0.086007 0.117419 0.023887
v 0.087793 0.117412 0.012077
v 0.083735 0.120181 0.012940
v 0.086105 0.120181 0.011196
v 0.091388 0.120181 0.008633
v 0.085309 0.117419 0.021962
v 0.085136 0.117419 0.019491
v 0.081110 0.120181 0.017790
v 0.085436 0.117412 0.017020
v 0.081057 0.120181 0.025576
v 0.081057 0.120181 0.024590
v 0.086821 0.117412 0.013713
v 0.086120 0.117412 0.014951
f 3 4 1
f 7 4 3
f 8 4 7
f 7 15 16
f 16 8 7
f 17 27 28
f 28 25 17
f 1 4 2
f 4 6 2
f 17 25 13
f 10 11 5
f 18 13 9
f 23 13 18
f 18 9 17
f 17 23 18
f 26 13 25
f 24 23 17
f 17 13 24
f 24 13 23
f 19 29 20
f 20 10 19
f 21 10 20
f 11 10 21
f 30 26 25
f 30 25 20
f 20 29 30
f 12 22 14
f 11 22 12
f 5 11 12
f 4 8 9
f 9 16 15
f 9 27 17
f 15 27 9
f 8 16 9
f 4 9 13
f 13 6 4
f 7 14 21
f 21 15 7
f 21 28 27
f 21 27 15
f 20 25 21
f 25 28 21
f 14 22 21
f 21 22 11
f 30 5 2
f 6 13 30
f 30 2 6
f 29 19 30
f 30 10 5
f 13 26 30
f 30 19 10
f 7 3 12
f 12 3 1
f 12 14 7
f 1 2 12
f 2 5 12
