# generated by collision_forge
v -0.006769 -0.001359 0.025316
v -0.006179 -0.001359 0.025319
v -0.006769 -0.001359 0.027569
v -0.006769 0.006180 0.025350
v 0.001235 0.009609 0.025371
v 0.001235 0.008651 0.025367
v -0.003707 -0.001236 0.025345
v -0.003696 -0.001359 0.025351
v 0.001768 -0.001359 0.033286
v -0.006769 -0.001236 0.027571
v -0.006769 0.008651 0.025363
v -0.006179 0.009609 0.025370
v 0.001938 0.009609 0.025403
v 0.002430 0.008549 0.025421
v 0.001235 0.006180 0.025376
v -0.001237 0.001237 0.025408
v -0.001396 -0.001359 0.025522
v -0.001295 -0.001106 0.025515
v 0.001865 -0.001359 0.033321
v 0.001906 -0.001236 0.033314
v -0.006769 0.009609 0.027769
v -0.006769 0.009609 0.025370
v 0.002430 0.009609 0.025426
v 0.002430 0.006180 0.025469
v -0.001026 -0.001359 0.025703
v 0.000101 -0.000195 0.025617
v 0.002430 0.004337 0.025570
v 0.002430 -0.001359 0.033415
v 0.002430 -0.000530 0.033341
v 0.002430 0.000321 0.033183
v 0.002337 0.000260 0.033166
v 0.002430 0.009609 0.028121
v 0.002430 0.000569 0.033099
v 0.002430 0.001653 0.032510
v 0.000246 -0.001359 0.026609
v 0.002128 0.002828 0.025808
v 0.002430 0.003041 0.026042
v 0.002430 -0.001359 0.029126
v 0.002430 0.002401 0.026479
f 1 5 6
f 13 23 14
f 14 6 13
f 13 6 5
f 4 5 1
f 3 9 10
f 10 9 21
f 5 4 11
f 25 26 35
f 17 26 25
f 18 26 17
f 8 18 17
f 15 6 14
f 15 7 6
f 34 32 21
f 21 33 34
f 12 11 22
f 5 11 12
f 26 18 27
f 7 8 2
f 1 6 2
f 6 7 2
f 7 15 16
f 16 8 7
f 18 8 16
f 28 29 19
f 36 27 37
f 26 27 36
f 37 39 36
f 36 39 38
f 36 38 35
f 35 26 36
f 24 15 14
f 24 27 18
f 18 16 24
f 24 16 15
f 30 33 21
f 21 31 30
f 21 9 20
f 20 31 21
f 9 19 20
f 20 19 29
f 29 30 20
f 20 30 31
f 1 3 11
f 11 4 1
f 21 22 11
f 11 10 21
f 3 10 11
f 12 22 21
f 21 32 12
f 12 13 5
f 23 13 12
f 12 32 23
f 19 25 35
f 19 3 1
f 19 38 28
f 1 2 19
f 35 38 19
f 19 9 3
f 17 25 19
f 19 8 17
f 19 2 8
f 28 38 30
f 14 23 30
f 32 34 30
f 23 32 30
f 30 29 28
f 38 39 30
f 30 34 33
f 30 24 14
f 37 27 30
f 30 39 37
f 27 24 30
