# generated by collision_forge
v 0.081057 -0.001349 0.029209
v 0.087086 -0.001349 0.028682
v 0.081057 -0.001349 0.031641
v 0.081057 0.119610 0.025579
v 0.091720 -0.001349 0.028682
v 0.087751 -0.001349 0.031680
v 0.081057 0.110712 0.032092
v 0.081057 0.120181 0.025579
v 0.082775 0.120181 0.025579
v 0.091737 -0.001349 0.029378
v 0.091720 -0.001218 0.028682
v 0.090222 -0.001349 0.031239
v 0.087751 0.097626 0.031777
v 0.086986 0.119110 0.031808
v 0.085281 0.117409 0.031879
v 0.082809 0.114935 0.031953
v 0.081057 0.113186 0.031979
v 0.087751 0.100100 0.031777
v 0.081057 0.120181 0.029598
v 0.082861 0.120181 0.025628
v 0.091612 0.102717 0.028682
v 0.091613 0.102575 0.028682
v 0.091666 0.063020 0.028682
v 0.091707 0.029140 0.028682
v 0.091716 0.011142 0.028682
v 0.091732 0.011142 0.029378
v 0.091500 0.097626 0.030670
v 0.091527 -0.001218 0.030697
v 0.091527 -0.001349 0.030697
v 0.090222 0.097626 0.031256
v 0.086986 0.120181 0.031713
v 0.087751 0.102575 0.031768
v 0.087751 0.102717 0.031768
v 0.087885 0.102717 0.031739
v 0.090222 0.102575 0.031240
v 0.090222 0.102717 0.031239
v 0.090292 0.102717 0.031209
v 0.091493 0.102717 0.030660
v 0.085575 0.120181 0.031640
v 0.085281 0.119883 0.031649
v 0.085273 0.120181 0.031582
v 0.083518 0.120181 0.031054
v 0.081057 0.115851 0.031327
v 0.090222 0.100100 0.031251
v 0.083384 0.120181 0.031000
v 0.081057 0.116957 0.030994
v 0.086986 0.120181 0.028630
v 0.091623 0.102717 0.029378
v 0.091678 0.063020 0.029378
v 0.091720 0.028439 0.029378
v 0.083288 0.119883 0.031049
f 4 2 1
f 5 2 4
f 9 4 8
f 5 4 9
f 48 31 38
f 7 3 6
f 50 26 24
f 31 48 47
f 47 48 21
f 10 26 27
f 38 44 27
f 27 26 50
f 50 49 27
f 27 48 38
f 27 49 48
f 7 6 13
f 13 6 12
f 17 42 43
f 9 24 25
f 25 24 26
f 25 26 10
f 23 24 9
f 50 24 23
f 23 49 50
f 21 9 20
f 20 47 21
f 28 29 10
f 10 27 28
f 37 44 38
f 36 37 14
f 38 31 14
f 14 37 38
f 44 37 35
f 35 37 36
f 36 14 35
f 30 13 12
f 12 29 30
f 29 28 30
f 30 27 44
f 30 28 27
f 5 9 11
f 9 25 11
f 10 5 11
f 11 25 10
f 22 9 21
f 22 23 9
f 21 48 22
f 48 49 22
f 49 23 22
f 7 13 18
f 18 14 7
f 18 30 44
f 13 30 18
f 16 17 7
f 16 40 17
f 19 46 45
f 45 46 43
f 40 16 39
f 7 14 15
f 15 16 7
f 15 39 16
f 31 39 15
f 15 14 31
f 42 45 51
f 43 42 51
f 51 45 43
f 40 39 41
f 42 17 41
f 17 40 41
f 34 35 14
f 14 33 34
f 44 35 34
f 14 18 32
f 32 33 14
f 32 34 33
f 32 18 44
f 44 34 32
f 6 5 10
f 6 3 1
f 1 2 6
f 6 2 5
f 10 29 6
f 6 29 12
f 1 3 46
f 46 19 8
f 46 3 7
f 46 4 1
f 8 4 46
f 7 17 46
f 46 17 43
f 8 19 41
f 31 47 41
f 41 9 8
f 19 45 41
f 41 20 9
f 47 20 41
f 41 45 42
f 41 39 31
