# generated by collision_forge
v 0.095477 -0.119887 0.007131
v 0.095400 -0.122358 0.007131
v 0.095224 -0.122358 0.004660
v 0.095253 -0.119887 0.004660
v 0.095400 -0.119192 0.006437
v 0.095462 -0.119192 0.007131
v 0.094709 -0.119192 0.009292
v 0.094709 -0.119887 0.009292
v 0.094640 -0.122358 0.009234
v 0.094356 -0.123953 0.008907
v 0.094602 -0.124150 0.007131
v 0.094538 -0.124092 0.004660
v 0.094271 -0.123876 0.003181
v 0.094462 -0.122358 0.003064
v 0.094487 -0.119887 0.003070
v 0.095038 -0.119192 0.004212
v 0.095239 -0.119192 0.004660
v 0.093797 -0.119192 0.010180
v 0.093443 -0.119887 0.010527
v 0.086116 -0.119957 0.016994
v 0.093157 -0.122358 0.010469
v 0.092695 -0.124790 0.007131
v 0.086101 -0.119982 0.016994
v 0.084949 -0.121541 0.016994
v 0.084928 -0.121557 0.016994
v 0.091566 -0.123631 0.010872
v 0.092513 -0.124087 0.009680
v 0.092695 -0.124646 0.004660
v 0.092695 -0.124039 0.003048
v 0.092749 -0.122397 0.002981
v 0.094487 -0.119192 0.003070
v 0.093434 -0.119192 0.010527
v 0.086171 -0.119192 0.016994
v 0.090224 -0.124870 0.007131
v 0.090224 -0.124373 0.009603
v 0.082805 -0.121986 0.016994
v 0.090224 -0.124700 0.004660
v 0.090224 -0.124062 0.003035
v 0.082406 -0.124061 0.003035
v 0.082406 -0.123079 0.003035
v 0.093511 -0.119192 0.003070
v 0.082406 -0.119192 0.016994
v 0.082406 -0.124847 0.007131
v 0.082406 -0.124823 0.006730
v 0.082406 -0.124698 0.004660
v 0.087753 -0.124431 0.009603
v 0.082785 -0.121986 0.016994
v 0.082406 -0.124594 0.004395
v 0.082406 -0.122967 0.003300
v 0.082406 -0.122394 0.004660
v 0.082406 -0.119445 0.012262
v 0.083104 -0.119192 0.012517
v 0.082406 -0.121985 0.016994
v 0.082406 -0.119192 0.014546
v 0.082406 -0.124421 0.009201
v 0.082406 -0.124335 0.009603
v 0.082412 -0.119192 0.014436
f 52 41 51
f 1 8 2
f 39 37 48
f 45 37 34
f 45 48 37
f 40 30 39
f 41 30 40
f 10 2 9
f 9 2 8
f 10 22 11
f 11 2 10
f 28 29 13
f 37 29 28
f 34 37 28
f 28 22 34
f 34 22 35
f 24 25 10
f 31 30 41
f 1 2 3
f 39 30 38
f 30 29 38
f 38 37 39
f 38 29 37
f 34 43 44
f 44 45 34
f 50 51 41
f 20 10 21
f 21 9 20
f 10 9 21
f 20 9 19
f 19 9 8
f 27 22 10
f 27 35 22
f 53 56 46
f 46 43 34
f 34 35 46
f 23 10 20
f 23 24 10
f 7 8 1
f 7 19 8
f 2 11 12
f 12 3 2
f 13 3 12
f 12 28 13
f 12 11 22
f 22 28 12
f 14 3 13
f 30 31 14
f 13 29 14
f 14 29 30
f 41 40 49
f 49 50 41
f 10 25 26
f 26 27 10
f 43 46 55
f 55 46 56
f 1 5 6
f 6 7 1
f 20 19 33
f 15 31 16
f 15 14 31
f 36 26 25
f 27 26 36
f 35 27 36
f 36 46 35
f 32 33 19
f 4 15 16
f 14 15 4
f 3 14 4
f 16 17 4
f 1 3 4
f 4 17 5
f 4 5 1
f 53 46 47
f 46 36 47
f 19 7 18
f 18 32 19
f 52 51 57
f 54 57 51
f 20 33 47
f 47 23 20
f 25 24 47
f 24 23 47
f 47 42 53
f 47 36 25
f 33 42 47
f 54 40 39
f 54 56 53
f 43 55 54
f 54 49 40
f 39 48 54
f 48 45 54
f 54 44 43
f 45 44 54
f 51 50 54
f 50 49 54
f 54 55 56
f 53 42 54
f 54 31 41
f 54 41 52
f 16 31 54
f 54 6 5
f 54 17 16
f 5 17 54
f 7 6 54
f 54 42 33
f 33 32 54
f 54 18 7
f 32 18 54
f 52 57 54
