# generated by collision_forge
v -0.092602 -0.001336 0.018607
v -0.090547 0.118718 0.004661
v -0.092611 0.118718 0.016428
v -0.095211 -0.001336 0.018607
v -0.092811 -0.118879 0.018607
v -0.090565 -0.118879 0.004661
v -0.090935 0.118718 0.003042
v -0.090682 -0.118879 0.003999
v -0.095282 0.118718 0.016428
v -0.095325 -0.050665 0.018607
v -0.095392 -0.118879 0.018607
v -0.090941 0.117393 0.003037
v -0.091955 0.118718 0.003042
v -0.090934 -0.003709 0.003040
v -0.090935 -0.118879 0.003040
v -0.095324 0.118718 0.014545
v -0.095410 -0.118879 0.018023
v -0.095330 -0.053131 0.018607
v -0.090944 0.112462 0.003036
v -0.091962 0.117393 0.003037
v -0.092595 0.118718 0.003894
v -0.090944 -0.112460 0.003036
v -0.090940 0.008641 0.003037
v -0.091960 -0.118879 0.003040
v -0.090941 -0.117391 0.003037
v -0.095299 0.118718 0.013376
v -0.095298 0.102578 0.012073
v -0.095299 0.100089 0.012073
v -0.095422 -0.118879 0.014544
v -0.095421 -0.118879 0.017017
v -0.091970 0.107508 0.003036
v -0.090949 -0.087738 0.003034
v -0.090957 -0.105041 0.003033
v -0.091986 -0.105041 0.003033
v -0.093160 0.118718 0.004661
v -0.090949 -0.090203 0.003034
v -0.092464 -0.118879 0.003673
v -0.091969 -0.117391 0.003037
v -0.095263 0.118718 0.012073
v -0.095020 0.105043 0.009605
v -0.095025 0.102578 0.009605
v -0.095154 -0.087738 0.009603
v -0.095155 -0.090203 0.009603
v -0.095370 -0.118879 0.012073
v -0.091973 0.102578 0.003036
v -0.093219 -0.077853 0.004554
v -0.093221 -0.075365 0.004559
v -0.091983 -0.107507 0.003034
v -0.093221 -0.105041 0.004555
v -0.091987 -0.063015 0.003034
v -0.091974 0.095158 0.003036
v -0.093554 0.118718 0.005324
v -0.093984 -0.077853 0.005790
v -0.093195 -0.118879 0.004607
v -0.093204 -0.117391 0.004591
v -0.093219 -0.107507 0.004559
v -0.095128 0.118718 0.010905
v -0.095013 0.107508 0.009605
v -0.094336 0.118718 0.007155
v -0.094496 -0.082784 0.007132
v -0.094498 -0.085272 0.007132
v -0.094499 -0.095157 0.007132
v -0.094498 -0.102576 0.007132
v -0.095153 -0.092668 0.009603
v -0.095147 -0.102576 0.009603
v -0.095144 -0.105041 0.009603
v -0.095141 -0.107507 0.009603
v -0.095135 -0.109995 0.009603
v -0.095113 -0.118879 0.009603
v -0.093985 -0.080319 0.005790
v -0.093982 -0.107507 0.005795
v -0.093984 -0.105041 0.005792
v -0.093901 0.118718 0.005920
v -0.093506 -0.118879 0.005110
v -0.093967 -0.117391 0.005827
v -0.094976 0.118718 0.009605
v -0.094496 -0.105041 0.007132
v -0.094492 -0.107507 0.007132
v -0.094483 -0.109995 0.007132
v -0.094453 -0.117391 0.007132
v -0.094441 -0.118879 0.007132
v -0.093958 -0.118879 0.005844
f 2 3 1
f 2 1 6
f 6 1 5
f 2 6 8
f 8 7 2
f 29 30 16
f 80 81 69
f 33 22 25
f 25 22 15
f 14 8 15
f 7 8 14
f 15 22 14
f 18 9 11
f 17 16 30
f 9 16 17
f 11 9 17
f 7 14 12
f 12 14 19
f 36 22 33
f 29 16 28
f 35 31 47
f 22 19 23
f 23 14 22
f 19 14 23
f 10 4 9
f 9 18 10
f 34 19 33
f 34 31 19
f 20 12 19
f 19 31 20
f 33 19 32
f 32 36 33
f 29 28 44
f 53 60 73
f 73 52 53
f 53 52 35
f 35 47 53
f 75 82 81
f 75 81 80
f 48 34 38
f 48 38 49
f 49 34 48
f 50 34 49
f 13 20 21
f 21 31 35
f 21 20 31
f 43 44 28
f 73 60 59
f 49 72 70
f 70 53 47
f 49 38 56
f 34 50 51
f 63 43 62
f 72 63 62
f 62 70 72
f 41 59 60
f 79 75 80
f 79 78 75
f 80 69 79
f 69 78 79
f 77 63 72
f 78 67 77
f 75 78 71
f 71 77 72
f 78 77 71
f 71 72 49
f 49 56 71
f 31 34 45
f 34 51 45
f 46 51 50
f 46 50 49
f 46 45 51
f 49 70 46
f 46 70 47
f 46 47 31
f 31 45 46
f 69 44 68
f 44 67 68
f 68 78 69
f 68 67 78
f 70 62 61
f 60 53 61
f 53 70 61
f 61 62 43
f 16 26 27
f 27 28 16
f 27 26 39
f 42 41 60
f 60 61 42
f 42 61 43
f 42 27 41
f 42 43 28
f 28 27 42
f 59 41 40
f 40 27 39
f 41 27 40
f 63 77 65
f 55 56 38
f 75 71 55
f 55 71 56
f 82 75 74
f 75 55 74
f 74 55 54
f 76 59 58
f 59 40 58
f 58 57 76
f 39 57 58
f 58 40 39
f 66 77 67
f 66 65 77
f 66 67 44
f 44 65 66
f 64 43 63
f 63 65 64
f 44 43 64
f 64 65 44
f 54 55 37
f 38 24 37
f 37 55 38
f 3 9 4
f 4 1 3
f 24 25 15
f 38 25 24
f 10 11 5
f 5 1 10
f 1 4 10
f 10 18 11
f 34 25 38
f 33 25 34
f 13 7 20
f 7 12 20
f 22 36 32
f 32 19 22
f 57 9 3
f 57 3 2
f 57 52 73
f 2 7 57
f 57 7 13
f 57 16 9
f 73 59 57
f 35 52 57
f 13 21 57
f 57 21 35
f 57 26 16
f 57 59 76
f 39 26 57
f 37 6 5
f 37 30 29
f 5 11 37
f 15 8 37
f 37 24 15
f 81 82 37
f 37 8 6
f 37 69 81
f 11 17 37
f 37 17 30
f 29 44 37
f 37 44 69
f 82 74 37
f 37 74 54
