# generated by collision_forge
v -0.088414 -0.118819 0.026192
v -0.082868 -0.118819 0.024595
v -0.088414 -0.118819 0.029155
v -0.088414 -0.001371 0.026325
v -0.080334 -0.118819 0.024379
v -0.082392 -0.001371 0.025433
v -0.080334 -0.021032 0.025016
v -0.087743 -0.118819 0.029368
v -0.088414 -0.117405 0.029175
v -0.088414 -0.001371 0.029114
v -0.027412 -0.001359 0.025213
v -0.078753 -0.118819 0.024466
v -0.077853 -0.021032 0.024988
v -0.060545 -0.023504 0.024963
v -0.058081 -0.023504 0.024962
v -0.055608 -0.023504 0.024963
v -0.053136 -0.023504 0.024965
v -0.021010 -0.023492 0.025016
v -0.018546 -0.021020 0.025038
v -0.018546 -0.023492 0.025033
v -0.018546 -0.025964 0.025043
v -0.025955 -0.038324 0.024990
v -0.082294 -0.001371 0.025421
v -0.080334 -0.018560 0.025038
v -0.087743 -0.117405 0.029384
v -0.086683 -0.118819 0.029273
v -0.026617 -0.048120 0.028658
v -0.026211 -0.047499 0.028658
v -0.021822 -0.040670 0.028658
v -0.002192 -0.008522 0.028658
v 0.001093 -0.002877 0.028658
v -0.087858 -0.001371 0.029292
v -0.027412 -0.001359 0.027363
v -0.025955 -0.001359 0.025215
v -0.050672 -0.021032 0.024984
v -0.043140 -0.001371 0.025192
v -0.045603 -0.001371 0.025190
v -0.050672 -0.001371 0.025187
v -0.053021 -0.001371 0.025186
v -0.060545 -0.001371 0.025186
v -0.065490 -0.001371 0.025187
v -0.067839 -0.001371 0.025188
v -0.080334 -0.001371 0.025207
v -0.077853 -0.118819 0.024519
v -0.077853 -0.018560 0.025010
v -0.065490 -0.018560 0.025004
v -0.055608 -0.021032 0.024979
v -0.053136 -0.021032 0.024981
v -0.021010 -0.021020 0.025031
v -0.018546 -0.018548 0.025059
v -0.016074 -0.018548 0.025082
v -0.016074 -0.021020 0.025070
v -0.013601 -0.018548 0.025145
v -0.016074 -0.023492 0.025142
v -0.023483 -0.035841 0.025093
v -0.087743 -0.114933 0.029392
v 0.001799 -0.001359 0.028658
v -0.085279 -0.118819 0.029113
v -0.073755 -0.118819 0.027429
v -0.073852 -0.118819 0.027202
v -0.054867 -0.090110 0.027429
v -0.056809 -0.091524 0.025633
v -0.034521 -0.057042 0.025594
v -0.024754 -0.042015 0.025691
v -0.017283 -0.029701 0.025653
v -0.009866 -0.017375 0.025642
v -0.002501 -0.004924 0.025677
v 0.000696 -0.001359 0.027146
v -0.087743 -0.001371 0.029326
v -0.088414 -0.093398 0.029183
v -0.087743 -0.092685 0.029383
v -0.003411 -0.001359 0.028658
v -0.025955 -0.018548 0.025045
v -0.060545 -0.018560 0.025003
v -0.075716 -0.118819 0.024979
v -0.023474 -0.038244 0.025340
v -0.020886 -0.001359 0.025231
v -0.006183 -0.001359 0.025319
v -0.003702 -0.001359 0.025351
v -0.001397 -0.001359 0.025522
v -0.018546 -0.028436 0.025188
v -0.002165 -0.003279 0.025568
v -0.011208 -0.018341 0.025461
v -0.087743 -0.095157 0.029384
v -0.074276 -0.118819 0.026676
v -0.031854 -0.052397 0.025470
v -0.022105 -0.037347 0.025564
v -0.007287 -0.012661 0.025587
v -0.001035 -0.001359 0.025703
v -0.000514 -0.001854 0.026063
v 0.000236 -0.001359 0.026609
v -0.024295 -0.040348 0.025451
f 57 56 25
f 26 58 27
f 27 8 26
f 44 22 55
f 27 58 59
f 72 69 57
f 33 69 72
f 84 70 56
f 84 56 57
f 75 44 76
f 76 44 55
f 28 8 27
f 28 29 8
f 27 62 28
f 9 3 8
f 8 25 9
f 9 25 56
f 56 70 9
f 1 4 2
f 32 10 70
f 33 10 32
f 32 69 33
f 8 29 30
f 80 67 82
f 88 82 67
f 63 62 75
f 63 28 62
f 27 59 60
f 55 22 54
f 54 53 80
f 80 82 54
f 80 53 79
f 51 78 79
f 21 54 22
f 53 54 21
f 51 79 52
f 52 79 53
f 53 21 52
f 52 21 20
f 20 21 5
f 5 21 22
f 50 77 78
f 50 78 51
f 70 84 71
f 71 32 70
f 69 32 71
f 57 69 71
f 71 84 57
f 90 91 67
f 66 30 65
f 67 30 66
f 66 88 67
f 76 88 66
f 67 91 68
f 83 88 76
f 82 88 83
f 83 54 82
f 86 63 75
f 75 62 85
f 62 60 85
f 61 62 27
f 27 60 61
f 61 60 62
f 6 4 11
f 6 2 4
f 13 5 7
f 7 5 2
f 2 6 7
f 22 44 12
f 12 5 22
f 77 50 34
f 91 90 89
f 89 67 80
f 89 90 67
f 31 68 57
f 8 30 31
f 31 30 67
f 67 68 31
f 57 25 31
f 31 25 8
f 55 54 81
f 54 83 81
f 81 76 55
f 81 83 76
f 75 76 92
f 92 86 75
f 76 66 92
f 11 43 23
f 23 6 11
f 23 7 6
f 42 43 11
f 13 7 24
f 24 23 43
f 7 23 24
f 14 5 13
f 19 50 51
f 20 5 19
f 5 18 19
f 51 52 19
f 19 52 20
f 63 86 64
f 65 30 64
f 64 30 29
f 29 28 64
f 28 63 64
f 15 16 5
f 5 14 15
f 11 34 35
f 11 35 36
f 36 35 48
f 43 42 45
f 13 24 45
f 45 24 43
f 46 45 42
f 13 45 46
f 86 92 87
f 87 64 86
f 65 64 87
f 87 66 65
f 87 92 66
f 73 34 50
f 73 35 34
f 17 18 5
f 5 16 17
f 16 48 17
f 48 35 17
f 38 39 11
f 11 39 40
f 39 38 74
f 74 40 39
f 46 40 74
f 50 19 49
f 49 73 50
f 35 73 49
f 49 19 18
f 18 17 49
f 49 17 35
f 37 36 48
f 11 36 37
f 37 38 11
f 41 46 42
f 41 40 46
f 41 42 11
f 11 40 41
f 46 74 47
f 47 74 38
f 47 48 16
f 16 15 47
f 47 15 14
f 47 37 48
f 38 37 47
f 47 14 13
f 13 46 47
f 10 33 11
f 11 4 10
f 1 3 9
f 9 4 1
f 9 10 4
f 70 10 9
f 12 3 1
f 58 26 12
f 12 59 58
f 12 26 8
f 8 3 12
f 12 44 75
f 1 2 12
f 75 85 12
f 12 60 59
f 2 5 12
f 12 85 60
f 11 33 89
f 80 79 89
f 89 72 57
f 33 72 89
f 57 68 89
f 89 34 11
f 78 77 89
f 89 79 78
f 89 68 91
f 77 34 89
