# generated by collision_forge
v 0.002430 -0.000415 0.028628
v 0.002430 0.001508 0.027169
v 0.002684 -0.000135 0.028628
v 0.002430 0.008665 0.028628
v 0.002430 0.002417 0.026480
v 0.079663 0.110672 0.028628
v 0.004600 0.013583 0.028628
v 0.002430 0.118656 0.028524
v 0.002430 0.003058 0.026042
v 0.004924 0.007464 0.025678
v 0.077316 0.109984 0.027442
v 0.078070 0.112269 0.026995
v 0.081056 0.115043 0.027749
v 0.081056 0.113155 0.028628
v 0.007417 0.018560 0.028628
v 0.056913 0.092688 0.028628
v 0.064309 0.102572 0.028628
v 0.075730 0.117409 0.028628
v 0.076700 0.118644 0.028628
v 0.002484 0.118656 0.028524
v 0.002430 0.118656 0.026010
v 0.011873 0.025914 0.028628
v 0.027212 0.050682 0.028628
v 0.032069 0.058106 0.028628
v 0.037194 0.065496 0.028628
v 0.002430 0.004352 0.025570
v 0.002669 0.004492 0.025584
v 0.080325 0.118644 0.026063
v 0.075384 0.109984 0.026375
v 0.080340 0.115043 0.027303
v 0.081056 0.118644 0.026424
v 0.081056 0.118644 0.028628
v 0.029660 0.118656 0.028495
v 0.003854 0.118656 0.026005
v 0.055612 0.118644 0.025807
v 0.051571 0.096627 0.025669
v 0.002430 0.065100 0.025669
v 0.002430 0.006194 0.025469
v 0.003223 0.006194 0.025529
v 0.054388 0.084016 0.025667
v 0.077854 0.118644 0.025902
v 0.029660 0.118656 0.025950
v 0.006186 0.118656 0.026000
v 0.058082 0.118644 0.025810
v 0.055612 0.096791 0.025668
v 0.053141 0.096942 0.025667
v 0.002430 0.011136 0.025378
v 0.002430 0.008571 0.025421
v 0.003715 0.011136 0.025379
v 0.056897 0.088795 0.025664
v 0.075461 0.118644 0.025879
v 0.057282 0.090217 0.025661
v 0.057528 0.092688 0.025664
v 0.072913 0.118644 0.025866
v 0.056859 0.096418 0.025670
v 0.055612 0.095159 0.025661
v 0.053141 0.095159 0.025660
v 0.055612 0.092688 0.025654
v 0.055612 0.090217 0.025651
v 0.057151 0.095159 0.025668
f 14 6 13
f 32 33 20
f 9 26 27
f 37 36 47
f 21 36 37
f 4 7 8
f 41 42 28
f 35 36 21
f 43 42 35
f 6 3 5
f 5 9 6
f 10 9 27
f 27 28 10
f 10 11 6
f 6 9 10
f 47 36 46
f 46 57 47
f 36 35 46
f 23 24 8
f 8 22 23
f 8 7 15
f 15 22 8
f 8 16 17
f 8 24 25
f 25 16 8
f 31 28 42
f 34 35 21
f 43 35 34
f 60 53 58
f 58 53 59
f 59 49 58
f 58 49 47
f 41 50 52
f 52 53 41
f 59 53 52
f 50 49 52
f 52 49 59
f 26 38 39
f 27 26 39
f 2 3 1
f 2 5 3
f 29 10 28
f 28 31 29
f 60 58 55
f 18 19 8
f 8 17 18
f 30 31 13
f 51 42 41
f 51 54 42
f 51 55 54
f 60 55 51
f 51 53 60
f 41 53 51
f 44 35 42
f 42 54 44
f 54 55 44
f 47 49 48
f 48 49 38
f 40 49 50
f 38 49 40
f 40 39 38
f 40 50 41
f 41 28 40
f 40 28 27
f 27 39 40
f 56 55 58
f 47 57 56
f 56 58 47
f 57 46 56
f 13 6 12
f 12 30 13
f 6 11 12
f 11 10 12
f 10 29 12
f 12 29 31
f 31 30 12
f 45 56 46
f 55 56 45
f 45 44 55
f 45 46 35
f 35 44 45
f 20 19 32
f 8 19 20
f 32 14 31
f 31 14 13
f 31 42 33
f 31 33 32
f 34 21 8
f 8 20 34
f 34 20 33
f 33 42 34
f 34 42 43
f 1 3 18
f 18 14 32
f 32 19 18
f 18 4 1
f 18 25 24
f 6 14 18
f 18 3 6
f 7 4 18
f 24 23 18
f 18 15 7
f 18 23 22
f 22 15 18
f 18 17 16
f 16 25 18
f 8 21 48
f 48 37 47
f 48 2 1
f 1 4 48
f 26 9 48
f 21 37 48
f 48 4 8
f 48 38 26
f 9 5 48
f 5 2 48
