# generated by collision_forge
v 0.002430 -0.001359 0.029125
v 0.081056 -0.001359 0.029209
v 0.002430 -0.001359 0.031855
v 0.002430 -0.000419 0.028628
v 0.081056 -0.001359 0.031641
v 0.002684 -0.000146 0.028628
v 0.079663 0.110675 0.028628
v 0.081056 0.113161 0.028628
v 0.010326 -0.001359 0.031855
v 0.002430 0.002638 0.031855
v 0.002430 0.008646 0.028628
v 0.010473 -0.001169 0.031855
v 0.010403 -0.001264 0.031855
v 0.081056 0.106582 0.031855
v 0.079055 0.102573 0.031855
v 0.077500 0.100110 0.031855
v 0.064709 0.080326 0.031855
v 0.081056 0.120181 0.028628
v 0.004308 0.006041 0.031855
v 0.004593 0.013572 0.028628
v 0.002430 0.008444 0.028737
v 0.081056 0.113649 0.031855
v 0.077293 0.120181 0.028628
v 0.081056 0.120181 0.029599
v 0.006979 0.010823 0.031855
v 0.007417 0.018544 0.028628
v 0.081056 0.115850 0.031328
v 0.080317 0.112959 0.031855
v 0.076954 0.119883 0.028628
v 0.081048 0.116957 0.030993
v 0.081056 0.116957 0.030995
v 0.008064 0.012632 0.031855
v 0.011873 0.025909 0.028628
v 0.008610 0.013536 0.031855
v 0.070327 0.102466 0.031855
v 0.070551 0.102704 0.031855
v 0.056920 0.092687 0.028628
v 0.060645 0.090533 0.031855
v 0.064132 0.095161 0.031855
v 0.065625 0.097089 0.031855
v 0.065917 0.097446 0.031855
v 0.068026 0.099968 0.031855
v 0.010203 0.016141 0.031855
v 0.027212 0.050678 0.028628
v 0.060368 0.090153 0.031855
v 0.037187 0.065502 0.028628
v 0.011643 0.018437 0.031855
v 0.030668 0.048192 0.031855
v 0.032069 0.058090 0.028628
v 0.013266 0.020983 0.031855
v 0.038688 0.060101 0.031855
v 0.037295 0.058090 0.031855
v 0.032300 0.050678 0.031855
v 0.033439 0.052380 0.031855
v 0.035925 0.056068 0.031855
f 4 2 1
f 2 7 8
f 2 4 6
f 6 7 2
f 30 29 42
f 13 9 5
f 5 12 13
f 14 15 5
f 17 12 5
f 23 24 18
f 29 30 23
f 23 30 24
f 5 15 16
f 16 17 5
f 22 27 28
f 24 30 31
f 30 27 31
f 36 28 27
f 44 48 49
f 35 36 27
f 35 30 42
f 35 27 30
f 46 49 52
f 46 45 37
f 20 11 21
f 21 10 20
f 19 25 20
f 20 10 19
f 20 25 26
f 50 48 44
f 44 47 50
f 44 33 43
f 43 47 44
f 53 49 48
f 51 45 46
f 46 52 51
f 29 37 38
f 38 37 45
f 42 29 41
f 29 40 41
f 34 43 33
f 33 26 34
f 49 53 54
f 39 40 29
f 29 38 39
f 32 26 25
f 32 34 26
f 55 52 49
f 49 54 55
f 9 3 1
f 1 2 9
f 2 5 9
f 31 5 2
f 18 24 31
f 2 8 31
f 31 8 18
f 22 14 31
f 31 14 5
f 31 27 22
f 1 3 21
f 21 11 4
f 21 4 1
f 3 10 21
f 18 8 26
f 26 23 18
f 26 6 4
f 26 8 7
f 7 6 26
f 26 33 44
f 29 23 26
f 44 49 26
f 4 11 26
f 26 11 20
f 26 49 46
f 26 37 29
f 46 37 26
f 55 16 15
f 12 17 55
f 3 9 55
f 55 13 12
f 55 14 22
f 9 13 55
f 15 14 55
f 22 28 55
f 25 19 55
f 17 16 55
f 42 41 55
f 55 10 3
f 28 36 55
f 55 35 42
f 55 38 45
f 48 50 55
f 36 35 55
f 55 53 48
f 45 51 55
f 55 19 10
f 55 50 47
f 47 43 55
f 40 39 55
f 55 51 52
f 55 32 25
f 55 41 40
f 43 34 55
f 55 54 53
f 55 39 38
f 34 32 55
