# generated by collision_forge
v -0.093324 -0.001359 0.025171
v -0.089867 -0.001359 0.025171
v -0.092349 -0.001359 0.026563
v -0.092104 0.117409 0.026500
v -0.092917 0.117409 0.025171
v -0.082954 0.124478 0.025170
v -0.072644 0.124515 0.025170
v -0.072644 0.119445 0.025170
v -0.059529 0.119433 0.025170
v -0.050541 -0.001347 0.025186
v -0.043128 -0.001347 0.025192
v -0.025964 -0.001347 0.025215
v -0.023499 -0.001347 0.025220
v -0.021025 -0.001347 0.025230
v -0.018551 -0.001347 0.025245
v -0.006775 -0.001347 0.025317
v -0.082954 -0.001359 0.025677
v -0.058072 0.119433 0.025170
v -0.032352 0.119445 0.025170
v -0.006775 0.119470 0.025170
v -0.092281 -0.001359 0.026650
v -0.092281 -0.001224 0.026650
v -0.090960 0.117409 0.027734
v -0.092087 0.119877 0.026474
v -0.092900 0.119877 0.025171
v -0.092773 0.120839 0.025171
v -0.092553 0.122257 0.025171
v -0.092281 0.123072 0.025171
v -0.091824 0.123873 0.025171
v -0.090934 0.124182 0.025171
v -0.090147 0.124404 0.025171
v -0.087749 0.124663 0.025171
v -0.070433 0.124527 0.025170
v -0.006775 -0.001347 0.027568
v -0.082954 -0.001359 0.026636
v -0.006775 0.124601 0.025170
v -0.091172 -0.001359 0.027823
v -0.089748 0.102570 0.028598
v -0.089723 0.117409 0.028580
v -0.089689 0.119877 0.028562
v -0.090926 0.119877 0.027708
v -0.091112 -0.001224 0.027884
v -0.091892 0.122356 0.026225
v -0.091629 0.123750 0.025889
v -0.089994 0.123935 0.026790
v -0.087749 0.124342 0.026907
v -0.011138 0.124614 0.025170
v -0.085275 0.124416 0.026907
v -0.006775 0.124404 0.026906
v -0.087749 -0.001359 0.029325
v -0.085275 -0.001359 0.029205
v -0.083166 -0.001359 0.028557
v -0.083056 -0.001359 0.028523
v -0.006775 0.016417 0.028152
v -0.091112 -0.001359 0.027884
v -0.087749 0.117409 0.029261
v -0.089943 -0.001359 0.028605
v -0.089875 -0.001224 0.028643
v -0.087749 0.119877 0.029230
v -0.089350 0.122356 0.028359
v -0.090587 0.122356 0.027460
v -0.089020 0.123614 0.028162
v -0.087749 0.123750 0.028302
v -0.085275 0.123812 0.028352
v -0.006775 0.123775 0.028280
v -0.089875 -0.001359 0.028643
v -0.006775 0.018551 0.028176
v -0.006775 0.020438 0.028194
v -0.006775 0.021030 0.028199
v -0.006775 0.022918 0.028212
v -0.006775 0.023510 0.028216
v -0.006775 0.025977 0.028230
v -0.006775 0.053165 0.028370
v -0.006775 0.055644 0.028380
v -0.006775 0.080328 0.028448
v -0.006775 0.119877 0.028552
v -0.087749 -0.001224 0.029325
v -0.085275 0.107516 0.029265
v -0.085275 0.109996 0.029264
v -0.085275 0.112463 0.029262
v -0.085275 0.114942 0.029259
v -0.085275 0.117409 0.029256
v -0.087749 0.035845 0.029307
v -0.085275 0.119877 0.029223
v -0.085275 0.122356 0.028877
v -0.087749 0.122356 0.028831
v -0.006775 0.122356 0.028490
v -0.006775 0.121764 0.028506
v -0.085275 0.085275 0.029276
f 34 54 50
f 1 7 8
f 1 4 5
f 5 4 25
f 32 7 6
f 6 5 25
f 6 7 1
f 1 5 6
f 51 34 50
f 35 34 53
f 15 20 16
f 15 14 20
f 13 12 20
f 20 14 13
f 20 12 11
f 11 10 20
f 4 22 23
f 61 43 41
f 44 43 61
f 65 85 87
f 64 85 65
f 44 61 62
f 53 34 52
f 34 51 52
f 50 74 75
f 75 76 50
f 87 85 84
f 84 85 59
f 73 74 50
f 2 15 16
f 16 17 2
f 14 15 2
f 2 13 14
f 12 13 2
f 2 11 12
f 10 11 2
f 20 10 2
f 1 8 9
f 33 7 32
f 32 47 33
f 27 43 44
f 25 4 24
f 41 43 24
f 24 23 41
f 4 23 24
f 6 29 30
f 30 29 44
f 64 65 49
f 49 47 32
f 36 47 49
f 63 64 46
f 46 62 63
f 60 61 41
f 60 62 61
f 78 89 76
f 87 84 88
f 88 84 76
f 76 84 82
f 82 84 59
f 50 54 67
f 67 68 50
f 50 68 69
f 50 71 72
f 72 73 50
f 19 2 18
f 20 2 19
f 3 21 22
f 3 4 1
f 3 22 4
f 22 21 37
f 55 42 37
f 37 23 22
f 37 42 23
f 57 42 55
f 57 66 58
f 38 57 58
f 42 57 38
f 23 42 38
f 38 39 23
f 43 27 26
f 25 24 26
f 26 24 43
f 26 6 25
f 26 27 6
f 44 29 28
f 28 27 44
f 28 29 6
f 6 27 28
f 44 62 45
f 45 30 44
f 45 62 46
f 32 46 48
f 48 49 32
f 46 64 48
f 64 49 48
f 86 85 64
f 64 63 86
f 59 85 86
f 86 63 62
f 86 60 59
f 62 60 86
f 59 60 40
f 40 60 41
f 41 23 40
f 23 39 40
f 79 76 80
f 79 78 76
f 77 78 83
f 77 83 58
f 89 78 77
f 50 76 77
f 76 89 77
f 80 76 81
f 76 82 81
f 70 71 50
f 50 69 70
f 31 45 46
f 30 45 31
f 31 46 32
f 32 6 31
f 6 30 31
f 56 82 59
f 56 81 82
f 80 81 56
f 56 79 80
f 39 38 56
f 58 83 56
f 56 38 58
f 83 78 56
f 78 79 56
f 59 40 56
f 56 40 39
f 16 34 35
f 35 17 16
f 9 2 1
f 18 2 9
f 19 36 20
f 7 33 19
f 19 8 7
f 19 9 8
f 19 47 36
f 18 9 19
f 19 33 47
f 53 52 57
f 1 2 57
f 57 51 50
f 17 35 57
f 50 66 57
f 57 35 53
f 55 37 57
f 57 52 51
f 57 2 17
f 57 3 1
f 21 3 57
f 57 37 21
f 77 66 50
f 58 66 77
f 70 75 74
f 16 20 70
f 70 34 16
f 54 34 70
f 36 49 70
f 20 36 70
f 70 65 87
f 87 88 70
f 74 73 70
f 76 75 70
f 70 67 54
f 70 72 71
f 70 49 65
f 70 88 76
f 68 67 70
f 70 69 68
f 73 72 70
