# generated by collision_forge
v -0.088414 -0.118879 0.029155
v -0.089945 -0.118879 0.028666
v -0.088414 -0.119887 0.029142
v -0.088414 -0.118879 0.026182
v -0.089922 -0.119887 0.028656
v -0.091181 -0.118879 0.027923
v -0.089484 -0.122358 0.028421
v -0.088415 -0.122142 0.004661
v -0.090565 -0.118880 0.004661
v -0.090682 -0.118880 0.003999
v -0.090935 -0.118880 0.003041
v -0.091159 -0.119887 0.027907
v -0.091984 -0.118879 0.027191
v -0.090720 -0.122358 0.027629
v -0.089061 -0.123631 0.028178
v -0.088415 -0.122876 0.003051
v -0.088415 -0.122597 0.003600
v -0.088415 -0.123607 0.003051
v -0.091959 -0.118880 0.003041
v -0.092513 -0.119887 0.026670
v -0.092227 -0.122358 0.026391
v -0.088414 -0.123688 0.028239
v -0.091802 -0.123825 0.025990
v -0.090021 -0.123986 0.026851
v -0.088414 -0.124219 0.026890
v -0.088415 -0.124767 0.007133
v -0.088415 -0.124601 0.004661
v -0.088415 -0.124002 0.003079
v -0.091953 -0.119887 0.003043
v -0.090224 -0.123880 0.003181
v -0.092462 -0.118880 0.003675
v -0.093195 -0.118880 0.004608
v -0.093958 -0.118880 0.005845
v -0.094441 -0.118880 0.007133
v -0.095112 -0.118880 0.009605
v -0.095370 -0.118880 0.012074
v -0.095421 -0.118879 0.017018
v -0.093764 -0.118879 0.025417
v -0.093750 -0.119887 0.025392
v -0.093464 -0.122358 0.024901
v -0.092653 -0.123985 0.024196
v -0.090224 -0.124668 0.024433
v -0.093939 -0.123603 0.023217
v -0.088414 -0.124754 0.023771
v -0.090224 -0.124863 0.009605
v -0.090224 -0.124837 0.007133
v -0.090224 -0.124488 0.004661
v -0.091758 -0.122358 0.003186
v -0.093189 -0.119887 0.004620
v -0.091537 -0.123666 0.003358
v -0.093953 -0.119887 0.005855
v -0.094433 -0.119887 0.007133
v -0.095110 -0.119887 0.009605
v -0.095381 -0.119887 0.012074
v -0.095451 -0.119887 0.014549
v -0.095454 -0.119887 0.017018
v -0.094348 -0.119887 0.024155
v -0.094137 -0.122358 0.023664
v -0.092695 -0.124391 0.021962
v -0.088414 -0.124711 0.024433
v -0.092695 -0.124624 0.019490
v -0.090224 -0.124829 0.021962
v -0.094642 -0.122358 0.021962
v -0.094098 -0.123759 0.021962
v -0.090224 -0.124836 0.019490
v -0.092695 -0.124719 0.014549
v -0.092695 -0.124655 0.012074
v -0.092695 -0.124493 0.009605
v -0.092788 -0.124143 0.007256
v -0.091941 -0.123941 0.004661
v -0.093025 -0.122122 0.004904
v -0.093936 -0.121142 0.005888
v -0.093997 -0.123668 0.008163
v -0.093673 -0.122789 0.006517
v -0.094736 -0.122358 0.009605
v -0.095073 -0.122358 0.012074
v -0.094164 -0.122122 0.007256
v -0.095226 -0.122358 0.014549
v -0.095231 -0.122358 0.016105
v -0.095234 -0.122358 0.017018
v -0.095378 -0.119887 0.019490
v -0.094768 -0.118879 0.022882
v -0.095042 -0.119887 0.021962
v -0.094331 -0.123972 0.019490
v -0.094433 -0.124053 0.017018
v -0.092695 -0.124711 0.017018
v -0.095071 -0.122358 0.019490
v -0.094433 -0.124054 0.016105
v -0.094430 -0.124055 0.014549
v -0.094336 -0.123985 0.012074
v -0.094149 -0.123819 0.009605
v -0.095250 -0.118879 0.020497
f 56 37 55
f 78 55 54
f 11 37 4
f 17 16 11
f 11 8 17
f 17 4 16
f 8 4 17
f 60 25 42
f 42 62 60
f 41 42 23
f 59 42 41
f 5 6 12
f 81 92 37
f 81 37 56
f 71 50 74
f 36 55 37
f 54 55 36
f 9 4 8
f 11 16 18
f 47 27 46
f 46 69 47
f 45 46 26
f 46 27 26
f 19 37 11
f 11 18 19
f 19 18 29
f 15 25 22
f 15 14 23
f 23 42 24
f 24 42 25
f 24 15 23
f 25 15 24
f 12 6 13
f 6 5 2
f 21 14 12
f 21 39 40
f 21 40 23
f 23 14 21
f 80 81 56
f 56 55 80
f 76 78 54
f 76 90 78
f 53 76 54
f 75 76 53
f 53 77 75
f 73 77 74
f 75 77 73
f 74 50 73
f 10 8 11
f 10 9 8
f 11 4 10
f 4 9 10
f 78 90 89
f 68 69 46
f 29 18 30
f 30 47 50
f 50 47 70
f 70 47 69
f 70 73 50
f 69 73 70
f 60 62 44
f 44 26 27
f 62 65 44
f 45 26 44
f 44 65 45
f 44 18 16
f 16 4 44
f 3 15 22
f 1 2 3
f 3 2 5
f 20 13 38
f 38 39 20
f 12 13 20
f 20 21 12
f 39 21 20
f 38 82 57
f 57 39 38
f 83 82 92
f 92 81 83
f 83 57 82
f 55 78 79
f 79 80 55
f 78 89 79
f 79 89 80
f 84 80 85
f 84 59 64
f 54 36 35
f 35 53 54
f 35 36 37
f 77 53 72
f 72 71 74
f 74 77 72
f 29 49 32
f 32 33 37
f 85 80 88
f 80 89 88
f 67 89 90
f 90 68 67
f 67 68 46
f 91 73 69
f 69 68 91
f 91 68 90
f 90 76 91
f 91 76 75
f 75 73 91
f 48 30 50
f 29 30 48
f 50 71 48
f 48 49 29
f 71 72 48
f 48 72 49
f 28 30 18
f 28 44 27
f 18 44 28
f 27 47 28
f 47 30 28
f 7 3 5
f 15 3 7
f 14 15 7
f 7 5 12
f 12 14 7
f 40 39 58
f 39 57 58
f 57 83 58
f 81 80 87
f 87 83 81
f 87 84 64
f 80 84 87
f 53 35 34
f 37 33 34
f 34 35 37
f 31 19 29
f 29 32 31
f 37 19 31
f 31 32 37
f 66 88 89
f 89 67 66
f 85 88 66
f 66 65 62
f 45 65 66
f 66 46 45
f 66 67 46
f 40 58 43
f 23 40 43
f 43 41 23
f 64 59 43
f 59 41 43
f 63 58 83
f 83 87 63
f 63 43 58
f 63 87 64
f 64 43 63
f 49 72 51
f 33 32 51
f 51 32 49
f 52 72 53
f 53 34 52
f 52 51 72
f 52 34 33
f 33 51 52
f 85 66 86
f 86 66 62
f 61 86 62
f 61 42 59
f 62 42 61
f 59 84 61
f 61 84 85
f 85 86 61
f 1 4 82
f 37 92 82
f 82 2 1
f 82 4 37
f 38 13 82
f 82 13 6
f 6 2 82
f 3 4 1
f 60 44 3
f 3 25 60
f 22 25 3
f 3 44 4
