# generated by collision_forge
v 0.087914 0.117392 0.018759
v 0.093934 0.112448 0.010844
v 0.093934 0.113901 0.010844
v 0.093914 0.115565 0.010826
v 0.093887 0.117392 0.010804
v 0.093849 0.119876 0.010774
v 0.093937 0.120181 0.010608
v 0.093813 0.120181 0.010755
v 0.091592 0.120181 0.012094
v 0.085226 0.117392 0.018759
v 0.087884 0.115659 0.018759
v 0.086003 -0.112983 0.017443
v 0.093433 -0.119192 0.010528
v 0.093795 -0.119192 0.010182
v 0.094707 -0.119192 0.009293
v 0.094726 0.112448 0.009605
v 0.094562 0.114815 0.009844
v 0.094703 0.117392 0.009568
v 0.094684 0.119876 0.009539
v 0.094672 0.120181 0.009521
v 0.091592 0.120181 0.008589
v 0.085438 0.117392 0.017017
v 0.083715 0.080324 0.017017
v 0.083604 0.077841 0.017017
v 0.083590 0.079575 0.018759
v 0.085871 -0.001286 0.018759
v 0.083398 -0.112983 0.017443
v 0.086173 -0.119192 0.016992
v 0.086329 -0.117388 0.016992
v 0.085869 -0.001333 0.018759
v 0.095463 -0.119192 0.007133
v 0.095473 0.030885 0.007132
v 0.095465 0.060548 0.007132
v 0.095440 0.119876 0.007132
v 0.095425 0.120181 0.007132
v 0.094759 0.120181 0.009252
v 0.092795 0.120181 0.004660
v 0.086121 0.117392 0.014948
v 0.083967 0.080324 0.015638
v 0.083907 0.077841 0.015536
v 0.083558 0.075357 0.017017
v 0.083474 0.075357 0.018759
v 0.083526 0.077841 0.018759
v 0.082408 -0.119192 0.016992
v 0.082906 -0.001333 0.018759
v 0.095237 -0.119192 0.004661
v 0.095237 0.119876 0.004660
v 0.095230 0.120181 0.004660
v 0.095408 0.120181 0.006838
v 0.093273 0.120181 0.003316
v 0.086824 0.117392 0.013712
v 0.086383 0.105021 0.013166
v 0.085654 0.105021 0.014546
v 0.093405 0.120181 0.003053
v 0.084006 0.011132 0.013249
v 0.083984 0.008648 0.013217
v 0.083887 0.075357 0.015504
v 0.086314 0.102561 0.013100
v 0.083504 0.070413 0.017017
v 0.083315 0.060548 0.018759
v 0.082408 -0.118278 0.016992
v 0.082408 -0.119192 0.014545
v 0.082933 0.010406 0.018759
v 0.095037 -0.119192 0.004215
v 0.094489 0.107505 0.003076
v 0.094482 0.119876 0.003065
v 0.095143 0.120181 0.004470
v 0.087794 0.117392 0.012076
v 0.094278 0.120181 0.003053
v 0.093524 -0.070432 0.003061
v 0.093528 -0.085264 0.003062
v 0.093510 -0.119192 0.003071
v 0.083107 -0.119192 0.012515
v 0.083520 0.008648 0.014546
v 0.082414 -0.119192 0.014436
v 0.083256 0.043256 0.017017
v 0.083479 0.067953 0.017017
v 0.083157 0.043256 0.018759
v 0.082408 -0.119168 0.014545
v 0.082948 0.012866 0.018759
v 0.082995 0.008648 0.017017
v 0.094484 -0.119192 0.003071
v 0.094492 -0.001357 0.003081
v 0.094492 0.011132 0.003081
v 0.094488 0.075380 0.003073
v 0.094477 0.120181 0.003065
v 0.094478 -0.053139 0.003061
v 0.094477 -0.070432 0.003061
v 0.094479 -0.085264 0.003062
v 0.083237 0.040773 0.017017
v 0.083150 0.042530 0.018759
v 0.094480 -0.090208 0.003064
f 54 72 73
f 1 15 2
f 54 73 56
f 73 75 56
f 31 46 32
f 16 2 15
f 15 31 16
f 16 31 32
f 32 33 16
f 55 40 54
f 54 56 55
f 55 56 40
f 74 56 75
f 34 16 33
f 32 46 47
f 47 33 32
f 47 34 33
f 48 34 47
f 1 12 13
f 26 30 12
f 44 27 45
f 22 38 39
f 40 24 39
f 1 9 10
f 9 21 10
f 10 21 22
f 2 16 3
f 1 2 3
f 65 47 64
f 64 47 46
f 71 72 54
f 54 70 71
f 69 87 88
f 65 64 85
f 48 47 67
f 66 47 65
f 65 85 66
f 86 67 66
f 66 67 47
f 66 85 87
f 66 69 86
f 87 69 66
f 12 28 29
f 28 13 29
f 29 13 12
f 14 15 1
f 1 13 14
f 11 12 1
f 11 26 12
f 79 81 75
f 54 40 58
f 58 52 54
f 40 52 58
f 54 52 68
f 38 52 53
f 53 39 38
f 53 52 40
f 40 39 53
f 22 21 37
f 37 38 22
f 19 34 35
f 19 20 6
f 1 5 6
f 6 5 19
f 25 10 24
f 23 10 22
f 24 10 23
f 22 39 23
f 23 39 24
f 19 5 4
f 4 3 19
f 4 5 1
f 1 3 4
f 17 3 16
f 57 74 75
f 75 76 57
f 40 56 57
f 56 74 57
f 76 77 57
f 88 87 89
f 83 64 82
f 81 79 63
f 81 91 90
f 90 91 76
f 75 81 90
f 90 76 75
f 62 79 75
f 51 52 38
f 51 68 52
f 51 38 54
f 54 68 51
f 54 38 50
f 38 37 50
f 36 20 19
f 19 35 36
f 49 34 48
f 49 35 34
f 8 9 1
f 43 24 42
f 43 25 24
f 18 17 16
f 18 34 19
f 16 34 18
f 19 3 18
f 3 17 18
f 42 24 41
f 41 24 40
f 40 57 41
f 87 85 92
f 92 89 87
f 85 83 92
f 82 89 92
f 92 83 82
f 84 85 64
f 64 83 84
f 84 83 85
f 80 91 81
f 81 63 80
f 45 63 61
f 44 45 61
f 61 63 79
f 7 6 20
f 1 6 7
f 7 8 1
f 42 41 59
f 59 60 42
f 77 60 59
f 59 57 77
f 59 41 57
f 78 60 77
f 76 91 78
f 78 77 76
f 44 28 27
f 27 28 12
f 45 27 12
f 12 30 45
f 69 70 54
f 88 70 69
f 89 70 88
f 89 71 70
f 89 82 72
f 72 71 89
f 62 31 15
f 15 14 62
f 62 73 72
f 62 28 44
f 62 75 73
f 72 82 62
f 46 31 62
f 62 64 46
f 62 13 28
f 82 64 62
f 62 14 13
f 61 62 44
f 79 62 61
f 48 67 7
f 20 36 7
f 7 69 54
f 7 21 9
f 7 49 48
f 86 69 7
f 7 67 86
f 7 37 21
f 54 50 7
f 7 50 37
f 7 36 35
f 35 49 7
f 9 8 7
f 1 10 78
f 78 11 1
f 30 26 78
f 78 45 30
f 78 43 42
f 26 11 78
f 78 63 45
f 10 25 78
f 42 60 78
f 25 43 78
f 91 80 78
f 78 80 63
