# generated by collision_forge
v -0.079649 -0.118819 0.027430
v -0.079649 -0.118819 0.027729
v -0.079649 -0.117395 0.027430
v -0.073758 -0.118819 0.027430
v -0.076381 -0.118819 0.030477
v -0.079649 -0.118308 0.027622
v -0.079649 -0.117426 0.027437
v -0.075241 -0.118819 0.031374
v -0.074796 -0.117411 0.031129
v -0.074336 -0.115892 0.030792
v -0.027410 -0.047607 0.032634
v -0.029328 -0.040777 0.027430
v -0.027410 -0.118819 0.028675
v -0.056255 -0.092223 0.027430
v -0.074321 -0.118819 0.031911
v -0.063874 -0.104372 0.032903
v -0.059047 -0.096755 0.032952
v -0.029609 -0.051974 0.033062
v -0.027415 -0.049000 0.033189
v -0.027410 -0.048992 0.033188
v -0.027410 -0.038432 0.027430
v -0.027410 -0.118819 0.031400
v -0.054864 -0.090106 0.027430
v -0.035515 -0.060402 0.027430
v -0.034109 -0.058222 0.027430
v -0.027661 -0.048119 0.027430
v -0.027410 -0.047552 0.027430
v -0.071999 -0.118819 0.033058
v -0.071784 -0.118473 0.033124
v -0.072730 -0.117552 0.032388
v -0.064406 -0.106025 0.033146
v -0.061737 -0.101414 0.033062
v -0.059579 -0.098408 0.033199
v -0.056879 -0.093883 0.033101
v -0.027937 -0.050676 0.033302
v -0.027410 -0.049991 0.033317
v -0.058034 -0.100107 0.033318
v -0.063066 -0.107457 0.033248
v -0.069049 -0.116498 0.033140
v -0.071191 -0.118819 0.033126
v -0.027410 -0.054421 0.033327
v -0.028372 -0.055633 0.033345
v -0.035847 -0.065509 0.033387
v -0.038261 -0.070474 0.033346
v -0.071784 -0.118819 0.033124
v -0.063041 -0.105143 0.033259
v -0.060090 -0.100107 0.033294
v -0.062227 -0.103058 0.033223
v -0.028643 -0.052942 0.033356
v -0.027410 -0.052092 0.033361
v -0.058167 -0.097605 0.033321
v -0.055616 -0.095166 0.033353
v -0.071467 -0.118819 0.033126
v -0.030903 -0.058096 0.033384
f 11 21 12
f 12 3 11
f 23 24 13
f 26 27 13
f 11 19 20
f 18 19 11
f 11 17 18
f 44 22 43
f 43 37 44
f 44 37 22
f 13 4 14
f 14 23 13
f 13 24 25
f 25 26 13
f 36 20 19
f 52 37 43
f 43 51 52
f 37 52 46
f 46 52 51
f 22 41 42
f 43 22 42
f 42 54 43
f 3 9 10
f 10 9 17
f 11 3 10
f 10 17 11
f 17 9 16
f 37 46 38
f 22 37 38
f 38 39 22
f 43 54 49
f 49 51 43
f 49 36 51
f 34 33 19
f 17 33 34
f 19 18 34
f 34 18 17
f 35 36 19
f 19 33 35
f 35 33 36
f 51 36 47
f 36 33 47
f 47 46 51
f 29 46 47
f 31 30 29
f 16 30 31
f 32 33 17
f 17 16 32
f 32 31 33
f 16 31 32
f 2 5 6
f 39 38 40
f 22 39 40
f 36 49 50
f 50 42 41
f 54 42 50
f 50 49 54
f 8 16 9
f 8 9 3
f 3 5 8
f 48 47 33
f 33 31 48
f 29 47 48
f 48 31 29
f 7 5 3
f 7 6 5
f 29 28 45
f 45 46 29
f 45 38 46
f 15 30 16
f 16 8 15
f 29 30 15
f 15 28 29
f 53 40 38
f 38 45 53
f 25 12 21
f 1 3 25
f 25 4 1
f 3 12 25
f 21 27 25
f 24 23 25
f 25 14 4
f 27 26 25
f 23 14 25
f 50 27 21
f 50 21 11
f 50 22 13
f 13 27 50
f 50 41 22
f 11 20 50
f 20 36 50
f 7 3 1
f 1 2 7
f 2 6 7
f 13 22 53
f 53 2 1
f 1 4 53
f 53 4 13
f 53 5 2
f 22 40 53
f 53 45 28
f 53 8 5
f 28 15 53
f 53 15 8
