# generated by collision_forge
v -0.089371 0.118718 0.025170
v -0.092610 0.118718 0.016430
v -0.092909 0.118718 0.025170
v -0.089614 0.048207 0.025170
v -0.092702 -0.001230 0.016430
v -0.092674 0.008655 0.016430
v -0.092669 0.011135 0.016430
v -0.092657 0.018540 0.016430
v -0.092652 0.021608 0.016430
v -0.092649 0.024076 0.016430
v -0.092639 0.033373 0.016430
v -0.092638 0.033961 0.016430
v -0.092636 0.036441 0.016430
v -0.092634 0.038322 0.016430
v -0.092632 0.040790 0.016430
v -0.095282 0.118718 0.016430
v -0.093334 0.118718 0.024491
v -0.092919 0.117414 0.025170
v -0.089744 0.014873 0.025170
v -0.092703 -0.001359 0.016430
v -0.095270 0.118718 0.017019
v -0.095314 -0.001230 0.016430
v -0.095314 -0.001359 0.017019
v -0.093958 0.118718 0.023255
v -0.093525 -0.001359 0.024884
v -0.093325 -0.001336 0.025170
v -0.089760 0.012405 0.025170
v -0.089875 -0.001359 0.025170
v -0.095314 -0.001359 0.016430
v -0.095001 0.118718 0.019491
v -0.095162 -0.001359 0.019367
v -0.095154 -0.001230 0.019491
v -0.094389 0.118718 0.021962
v -0.094131 -0.001359 0.023649
v -0.093555 -0.001359 0.024823
v -0.093325 -0.001359 0.025170
v -0.094679 0.118718 0.020794
v -0.094664 -0.001359 0.021962
v -0.095154 -0.001359 0.019491
v -0.094158 -0.001359 0.023563
f 23 22 29
f 16 22 23
f 15 2 1
f 1 14 15
f 27 28 20
f 20 19 27
f 6 7 1
f 18 3 17
f 38 32 39
f 21 16 23
f 5 6 1
f 1 4 5
f 5 4 19
f 5 19 20
f 1 7 8
f 8 9 1
f 25 17 24
f 18 17 25
f 31 39 32
f 31 21 23
f 32 21 31
f 30 32 38
f 30 21 32
f 1 11 12
f 1 9 10
f 10 11 1
f 24 34 35
f 35 25 24
f 26 25 36
f 18 25 26
f 38 40 33
f 33 40 34
f 33 34 24
f 13 14 1
f 1 12 13
f 37 30 38
f 38 33 37
f 20 28 35
f 36 25 35
f 35 29 20
f 23 29 35
f 28 36 35
f 35 40 38
f 38 39 35
f 34 40 35
f 35 31 23
f 39 31 35
f 26 4 1
f 28 27 26
f 1 3 26
f 19 4 26
f 26 27 19
f 26 3 18
f 26 36 28
f 13 16 2
f 20 29 13
f 2 15 13
f 13 29 22
f 22 16 13
f 13 15 14
f 13 5 20
f 7 6 13
f 13 8 7
f 6 5 13
f 13 10 9
f 9 8 13
f 13 12 11
f 11 10 13
f 2 16 37
f 1 2 37
f 24 17 37
f 37 3 1
f 37 17 3
f 16 21 37
f 21 30 37
f 37 33 24
