# generated by collision_forge
v 0.001234 0.123084 0.003033
v 0.001234 0.124069 0.003033
v 0.002430 0.123084 0.003036
v -0.090933 0.118719 0.003040
v -0.091948 0.118719 0.003040
v -0.067966 0.124051 0.003038
v 0.001234 0.124732 0.004661
v 0.002430 0.124411 0.003874
v 0.002430 0.124069 0.003036
v -0.001245 0.124732 0.004661
v 0.002430 0.122401 0.004661
v 0.002430 0.120956 0.010245
v 0.002430 0.119463 0.025170
v -0.080483 0.118629 0.025170
v -0.091948 0.119887 0.003044
v -0.087737 0.124046 0.003040
v -0.092589 0.118719 0.003894
v 0.002430 0.124801 0.005937
v -0.001245 0.124868 0.007133
v -0.080330 0.124663 0.004661
v -0.090216 0.124812 0.007133
v 0.002430 0.124631 0.025170
v -0.092905 0.118719 0.025170
v -0.093326 0.118719 0.024490
v -0.093957 0.118719 0.023255
v -0.094388 0.118719 0.021961
v -0.095000 0.118719 0.019489
v -0.095268 0.118719 0.017018
v -0.095316 0.118719 0.014546
v -0.095297 0.118719 0.013380
v -0.095259 0.118719 0.012076
v -0.095125 0.118719 0.010908
v -0.094972 0.118719 0.009603
v -0.094331 0.118719 0.007157
v -0.093900 0.118719 0.005920
v -0.093153 0.118719 0.004661
v -0.093153 0.119887 0.004661
v -0.091766 0.122358 0.003174
v -0.090216 0.123891 0.003168
v -0.089326 0.124536 0.004661
v -0.087737 0.124624 0.004661
v 0.002430 0.124866 0.007133
v -0.090216 0.124830 0.009603
v -0.090216 0.124831 0.019489
v -0.090216 0.124822 0.021961
v -0.089326 0.124744 0.006234
v -0.090216 0.124486 0.004661
v -0.092694 0.124471 0.009603
v -0.092694 0.124615 0.012076
v -0.092694 0.124659 0.014546
v 0.002430 0.124717 0.024433
v 0.000497 0.124633 0.025170
v -0.094398 0.119887 0.021961
v -0.095010 0.119887 0.019489
v -0.095278 0.119887 0.017018
v -0.095335 0.119887 0.014546
v -0.095259 0.119887 0.012076
v -0.094972 0.119887 0.009603
v -0.094340 0.119887 0.007153
v -0.093900 0.119887 0.005918
v -0.092799 0.122358 0.004661
v -0.091555 0.123683 0.003341
v -0.090216 0.124621 0.024433
v -0.087737 0.124788 0.024433
v -0.092694 0.124627 0.017018
v -0.092694 0.124489 0.019489
v -0.091948 0.123954 0.004661
v -0.092780 0.124137 0.007259
v -0.094130 0.123816 0.009603
v -0.094283 0.123964 0.012076
v -0.094340 0.124011 0.014546
v -0.087737 0.124663 0.025170
v -0.092771 0.120845 0.025170
v -0.093948 0.121236 0.023250
v -0.094168 0.122178 0.021874
v -0.094694 0.122358 0.019489
v -0.094981 0.122358 0.017018
v -0.095048 0.122358 0.014546
v -0.094953 0.122358 0.012076
v -0.094656 0.122358 0.009603
v -0.094177 0.122358 0.007608
v -0.093718 0.122358 0.006370
v -0.093996 0.123670 0.008167
v -0.092799 0.124150 0.021874
v -0.092034 0.124014 0.024433
v -0.091833 0.123883 0.025170
v -0.090933 0.124183 0.025170
v -0.094302 0.123982 0.017018
v -0.094158 0.123842 0.019489
v -0.093699 0.122883 0.022641
v -0.094015 0.123689 0.020992
v -0.092283 0.123077 0.025170
f 13 4 12
f 14 4 13
f 11 4 3
f 11 12 4
f 3 4 1
f 2 1 6
f 45 51 42
f 45 42 19
f 52 22 51
f 16 6 5
f 5 1 4
f 5 6 1
f 4 14 5
f 19 21 43
f 51 45 64
f 72 52 64
f 64 52 51
f 72 64 63
f 63 64 45
f 75 74 90
f 54 74 75
f 73 74 23
f 14 27 28
f 28 55 56
f 54 55 28
f 28 27 54
f 41 20 16
f 44 45 19
f 19 43 44
f 72 63 87
f 87 63 86
f 90 86 91
f 91 75 90
f 77 55 54
f 74 73 92
f 92 86 90
f 90 74 92
f 24 14 23
f 24 25 14
f 23 74 24
f 74 25 24
f 26 27 14
f 14 25 26
f 54 27 26
f 14 28 29
f 29 28 56
f 8 9 2
f 2 7 8
f 10 21 19
f 19 7 10
f 10 20 21
f 16 20 10
f 10 6 16
f 2 6 10
f 10 7 2
f 21 20 46
f 20 41 46
f 49 70 71
f 75 91 76
f 54 75 76
f 76 77 54
f 53 25 74
f 53 26 25
f 53 74 54
f 54 26 53
f 31 14 30
f 14 29 30
f 56 31 30
f 30 29 56
f 36 35 60
f 14 35 36
f 34 35 14
f 18 8 7
f 19 42 18
f 18 7 19
f 16 39 47
f 21 46 47
f 85 91 86
f 85 84 91
f 86 63 85
f 63 84 85
f 66 63 45
f 66 84 63
f 89 88 77
f 89 76 91
f 77 76 89
f 89 66 88
f 91 84 89
f 84 66 89
f 50 49 71
f 45 44 50
f 50 44 43
f 50 43 21
f 21 49 50
f 56 55 78
f 55 77 78
f 71 70 78
f 78 88 71
f 77 88 78
f 70 49 48
f 48 49 21
f 21 47 48
f 17 5 14
f 14 36 17
f 37 36 60
f 37 17 36
f 33 34 14
f 40 46 41
f 40 47 46
f 40 41 16
f 16 47 40
f 65 66 45
f 45 50 65
f 88 66 65
f 71 88 65
f 65 50 71
f 56 78 57
f 57 31 56
f 58 57 79
f 79 57 78
f 79 78 70
f 81 82 60
f 83 82 81
f 39 38 62
f 62 83 67
f 62 82 83
f 67 47 62
f 62 47 39
f 70 48 69
f 69 79 70
f 67 83 68
f 68 47 67
f 68 48 47
f 83 69 68
f 68 69 48
f 38 37 61
f 61 62 38
f 82 62 61
f 60 82 61
f 61 37 60
f 15 37 38
f 16 5 15
f 5 17 15
f 17 37 15
f 15 39 16
f 15 38 39
f 58 33 32
f 32 57 58
f 31 57 32
f 32 14 31
f 32 33 14
f 59 81 60
f 58 81 59
f 60 35 59
f 35 34 59
f 59 33 58
f 34 33 59
f 83 81 80
f 80 69 83
f 79 69 80
f 58 79 80
f 80 81 58
f 3 1 9
f 9 1 2
f 13 22 92
f 92 14 13
f 23 14 92
f 92 73 23
f 92 52 72
f 22 52 92
f 72 87 92
f 92 87 86
f 18 11 3
f 18 22 13
f 13 12 18
f 42 51 18
f 12 11 18
f 51 22 18
f 3 9 18
f 9 8 18
