# generated by collision_forge
v -0.027410 -0.118819 0.028675
v -0.021004 -0.118819 0.028674
v -0.027410 -0.118819 0.031399
v -0.027410 -0.048994 0.028658
v -0.008826 -0.118819 0.028674
v 0.049860 -0.118819 0.031517
v -0.027410 -0.117405 0.031410
v -0.027410 -0.041670 0.028658
v -0.026608 -0.048120 0.028658
v -0.006179 -0.118819 0.028675
v 0.049860 -0.118819 0.028749
v 0.049860 -0.008660 0.031681
v -0.026646 -0.060503 0.031744
v -0.027410 -0.061434 0.031744
v -0.027410 -0.045384 0.031303
v -0.003396 -0.001359 0.028658
v -0.021821 -0.040670 0.028658
v -0.003698 -0.118819 0.028676
v -0.002178 -0.008522 0.028658
v 0.001112 -0.002877 0.028658
v 0.016065 -0.118819 0.028690
v 0.001808 -0.001359 0.028658
v 0.049860 -0.001359 0.029217
v 0.049860 -0.006188 0.031683
v 0.048196 -0.006188 0.031687
v 0.043257 -0.006188 0.031695
v 0.045722 -0.008660 0.031688
v -0.016889 -0.045660 0.031744
v -0.027410 -0.046120 0.031744
v -0.027410 -0.045729 0.031512
v -0.013372 -0.023113 0.031744
v -0.003033 -0.006211 0.031744
v -0.000022 -0.001359 0.031744
v -0.001414 -0.118819 0.028677
v 0.015846 -0.118819 0.028690
v 0.006187 -0.118819 0.028681
v 0.049860 -0.001359 0.031686
v 0.049860 -0.004533 0.031685
v 0.045722 -0.003716 0.031692
v 0.043257 -0.003716 0.031696
v 0.010831 -0.001359 0.031744
v 0.009871 -0.003716 0.031744
v 0.048196 -0.001359 0.031688
v 0.049860 -0.003716 0.031685
v 0.045601 -0.001359 0.031693
v 0.043257 -0.001359 0.031696
f 12 13 6
f 6 13 14
f 22 23 11
f 7 3 6
f 6 14 7
f 13 12 27
f 21 22 11
f 34 22 36
f 32 33 16
f 16 8 15
f 24 25 12
f 24 38 25
f 36 22 35
f 22 21 35
f 1 4 2
f 2 4 5
f 16 29 31
f 31 32 16
f 30 29 16
f 16 15 30
f 41 40 46
f 22 34 18
f 19 10 17
f 17 10 9
f 9 10 5
f 5 4 9
f 37 39 44
f 44 39 38
f 25 38 26
f 38 39 26
f 26 39 40
f 12 25 26
f 26 27 12
f 42 28 26
f 41 42 26
f 26 40 41
f 26 28 13
f 13 27 26
f 40 39 45
f 45 46 40
f 10 19 20
f 20 18 10
f 22 18 20
f 43 39 37
f 43 45 39
f 1 3 30
f 30 4 1
f 3 7 30
f 30 7 14
f 14 29 30
f 8 4 30
f 30 15 8
f 28 29 14
f 28 41 33
f 28 14 13
f 33 32 28
f 28 31 29
f 28 42 41
f 32 31 28
f 18 11 6
f 18 3 1
f 6 3 18
f 36 35 18
f 18 21 11
f 18 34 36
f 1 2 18
f 18 35 21
f 18 2 5
f 5 10 18
f 6 11 44
f 44 12 6
f 44 23 37
f 11 23 44
f 44 24 12
f 38 24 44
f 16 22 20
f 20 4 8
f 20 8 16
f 20 9 4
f 20 19 17
f 17 9 20
f 37 23 43
f 16 33 43
f 43 22 16
f 23 22 43
f 33 41 43
f 41 46 43
f 46 45 43
