# generated by collision_forge
v -0.090059 -0.092686 0.028686
v -0.090062 -0.095159 0.028686
v -0.088414 -0.114934 0.029183
v -0.088414 -0.085979 0.029178
v -0.090053 -0.085278 0.028683
v -0.090057 -0.090213 0.028685
v -0.091299 -0.097632 0.028007
v -0.090063 -0.097632 0.028685
v -0.089984 -0.114934 0.028688
v -0.088414 -0.115670 0.029181
v -0.090060 -0.100106 0.028684
v -0.088414 -0.001359 0.029114
v -0.091291 -0.087751 0.028000
v -0.091293 -0.090213 0.028002
v -0.091297 -0.095159 0.028006
v -0.089885 -0.001359 0.028643
v -0.091227 -0.038320 0.027968
v -0.092598 -0.085278 0.026762
v -0.092594 -0.092686 0.026769
v -0.091297 -0.100106 0.028006
v -0.089979 -0.117407 0.028681
v -0.088414 -0.001359 0.026325
v -0.089947 -0.001359 0.028606
v -0.091209 -0.028427 0.027959
v -0.092532 -0.040793 0.026730
v -0.093833 -0.082804 0.025543
v -0.093835 -0.085278 0.025544
v -0.093834 -0.087751 0.025543
v -0.093833 -0.090213 0.025540
v -0.092575 -0.100106 0.026770
v -0.092550 -0.117407 0.026712
v -0.091215 -0.117407 0.027947
v -0.089945 -0.118879 0.028667
v -0.088414 -0.118879 0.029154
v -0.092601 -0.001359 0.018607
v -0.088414 -0.118879 0.026183
v -0.091121 -0.001359 0.027885
v -0.092521 -0.038320 0.026733
v -0.093830 -0.080331 0.025538
v -0.094404 -0.077858 0.024294
v -0.094407 -0.080331 0.024301
v -0.094409 -0.082804 0.024307
v -0.094410 -0.085278 0.024309
v -0.094408 -0.087751 0.024307
v -0.093830 -0.092686 0.025534
v -0.093791 -0.114934 0.025467
v -0.093786 -0.117407 0.025457
v -0.091984 -0.118879 0.027192
v -0.091181 -0.118879 0.027924
v -0.095211 -0.001359 0.018607
v -0.092810 -0.118879 0.018607
v -0.092471 -0.030900 0.026725
v -0.093767 -0.040793 0.025407
v -0.093794 -0.055621 0.025472
v -0.094397 -0.070438 0.024271
v -0.094400 -0.072911 0.024279
v -0.094374 -0.055621 0.024237
v -0.095062 -0.055621 0.021963
v -0.095085 -0.067976 0.021963
v -0.095101 -0.080331 0.021963
v -0.095107 -0.085278 0.021963
v -0.095105 -0.087751 0.021963
v -0.095064 -0.117407 0.021963
v -0.094372 -0.114934 0.024231
v -0.094369 -0.117407 0.024221
v -0.094120 -0.118879 0.024687
v -0.093764 -0.118879 0.025419
v -0.095162 -0.001359 0.019368
v -0.095322 -0.053148 0.019491
v -0.095316 -0.050675 0.019491
v -0.095392 -0.118879 0.018607
v -0.092289 -0.001359 0.026649
v -0.093758 -0.038320 0.025385
v -0.094318 -0.040793 0.024171
v -0.094361 -0.050675 0.024213
v -0.094369 -0.053148 0.024227
v -0.095056 -0.053148 0.021963
v -0.095349 -0.087751 0.019491
v -0.095365 -0.118879 0.019491
v -0.095250 -0.118879 0.020498
v -0.095051 -0.118879 0.021963
v -0.094768 -0.118879 0.022883
v -0.095154 -0.001359 0.019491
v -0.095330 -0.053148 0.018607
v -0.092351 -0.001359 0.026562
v -0.094298 -0.035847 0.024117
v -0.094308 -0.038320 0.024150
v -0.093525 -0.001359 0.024884
v -0.093555 -0.001359 0.024823
v -0.094131 -0.001359 0.023650
v -0.095043 -0.050675 0.021963
v -0.094663 -0.001359 0.021963
f 36 51 35
f 35 22 36
f 30 46 31
f 79 78 71
f 78 79 61
f 10 21 34
f 5 4 12
f 16 5 12
f 67 31 47
f 31 46 47
f 47 46 65
f 47 66 67
f 65 66 47
f 20 30 31
f 46 30 45
f 65 46 45
f 80 81 63
f 82 66 65
f 63 81 82
f 82 65 63
f 78 61 69
f 71 78 69
f 69 84 71
f 38 24 37
f 63 65 64
f 64 44 63
f 65 45 64
f 64 45 44
f 3 4 2
f 2 4 1
f 2 1 7
f 3 11 9
f 9 10 3
f 21 10 9
f 9 20 21
f 11 20 9
f 34 21 33
f 48 31 67
f 17 16 24
f 5 16 17
f 7 18 19
f 19 20 7
f 30 20 19
f 19 18 27
f 7 1 6
f 1 4 6
f 4 5 6
f 37 24 23
f 24 16 23
f 32 20 31
f 32 48 49
f 31 48 32
f 21 20 32
f 49 33 32
f 32 33 21
f 62 80 63
f 63 44 62
f 79 80 62
f 62 61 79
f 62 43 61
f 44 43 62
f 26 38 39
f 27 18 26
f 26 43 27
f 26 39 40
f 50 69 70
f 84 69 50
f 61 43 42
f 43 26 42
f 8 11 3
f 3 2 8
f 8 2 7
f 7 20 8
f 8 20 11
f 13 17 18
f 5 17 13
f 18 17 25
f 25 26 18
f 38 26 25
f 24 38 25
f 25 17 24
f 29 45 30
f 30 19 29
f 44 45 29
f 29 43 44
f 37 72 52
f 52 38 37
f 70 83 68
f 68 50 70
f 90 92 86
f 86 73 90
f 91 92 83
f 91 75 74
f 41 26 40
f 41 42 26
f 15 18 7
f 7 6 15
f 15 6 5
f 28 19 27
f 28 29 19
f 27 43 28
f 43 29 28
f 39 38 54
f 53 75 76
f 53 73 74
f 74 75 53
f 53 54 38
f 38 52 53
f 53 52 72
f 72 73 53
f 74 73 87
f 73 86 87
f 87 91 74
f 87 86 92
f 92 91 87
f 77 83 70
f 77 91 83
f 70 69 77
f 76 75 77
f 75 91 77
f 14 13 18
f 18 15 14
f 5 13 14
f 14 15 5
f 90 73 89
f 73 88 89
f 85 73 72
f 85 88 73
f 42 41 59
f 59 41 40
f 76 77 57
f 57 77 55
f 57 53 76
f 54 53 57
f 57 55 39
f 39 54 57
f 60 69 61
f 60 59 69
f 61 42 60
f 42 59 60
f 58 77 69
f 69 59 58
f 55 77 58
f 58 59 40
f 56 58 40
f 55 58 56
f 40 39 56
f 39 55 56
f 10 22 12
f 10 36 22
f 10 4 3
f 34 36 10
f 12 4 10
f 48 36 34
f 71 51 48
f 67 66 48
f 51 36 48
f 48 79 71
f 34 33 48
f 81 80 48
f 48 82 81
f 48 80 79
f 66 82 48
f 48 33 49
f 50 51 71
f 35 51 50
f 71 84 50
f 12 22 85
f 85 22 35
f 85 16 12
f 37 23 85
f 85 72 37
f 35 50 85
f 85 23 16
f 85 68 83
f 85 92 90
f 83 92 85
f 50 68 85
f 90 89 85
f 85 89 88
