# generated by collision_forge
v -0.027410 -0.061439 0.031745
v -0.026646 -0.060497 0.031745
v -0.026964 -0.054789 0.033199
v -0.027410 -0.055064 0.033245
v -0.027410 -0.046100 0.031745
v -0.016888 -0.045637 0.031745
v -0.019755 -0.044489 0.033091
v -0.021114 -0.045483 0.033279
v -0.027410 -0.054395 0.033327
v -0.013374 -0.023099 0.031745
v -0.027410 -0.046888 0.032227
v -0.022218 -0.039570 0.033077
v 0.007414 0.009911 0.033094
v 0.010090 0.014572 0.032957
v 0.008763 0.013784 0.031855
v 0.009867 -0.003698 0.031745
v 0.077499 0.100096 0.031855
v 0.064705 0.080318 0.031855
v -0.019437 -0.043238 0.033231
v 0.071745 0.098777 0.033113
v -0.018513 -0.040684 0.033361
v -0.020997 -0.043238 0.033505
v -0.023471 -0.045723 0.033497
v -0.027410 -0.052081 0.033361
v 0.010207 0.016149 0.031855
v -0.027410 -0.047591 0.032635
v -0.024830 -0.044266 0.033151
v 0.011789 0.016081 0.033325
v 0.012235 0.017555 0.033170
v 0.014942 0.022148 0.033039
v 0.011651 0.018446 0.031855
v 0.010823 -0.001350 0.031745
v 0.081056 0.106575 0.031855
v 0.079049 0.102564 0.031855
v 0.073889 0.101810 0.033012
v 0.074261 0.103473 0.033104
v 0.063102 0.087705 0.033329
v -0.006176 -0.018523 0.033593
v -0.003702 -0.013587 0.033640
v -0.023471 -0.043358 0.033344
v -0.027410 -0.049973 0.033317
v -0.008639 -0.021008 0.033601
v -0.000028 -0.001350 0.031745
v -0.027410 -0.048979 0.033188
v -0.022643 -0.041215 0.033253
v 0.031845 0.047462 0.033227
v 0.008657 0.008677 0.033605
v 0.019794 0.029638 0.033079
v 0.030985 0.048679 0.031855
v 0.030666 0.048182 0.031855
v 0.081056 0.113653 0.031855
v 0.081056 0.109986 0.032054
v 0.081056 0.110705 0.032092
v 0.074261 0.103867 0.033104
v 0.063007 0.090190 0.033315
v 0.055606 0.077850 0.033433
v 0.008657 0.006191 0.033656
v 0.006194 0.001255 0.033600
v 0.011131 0.011127 0.033665
v 0.032291 0.050667 0.031855
v 0.035922 0.056066 0.031855
v 0.037292 0.058071 0.031855
v 0.038682 0.060094 0.031855
v 0.060363 0.090156 0.031855
v 0.064121 0.095160 0.031855
v 0.065619 0.097080 0.031855
v 0.065916 0.097440 0.031855
v 0.068018 0.099959 0.031855
v 0.070545 0.102701 0.031855
v 0.080313 0.112951 0.031855
v 0.013604 0.016081 0.033650
v 0.033278 0.048251 0.033406
v 0.029615 0.044566 0.033113
v 0.035922 0.052947 0.033308
v 0.032397 0.049108 0.032952
v 0.071511 0.101502 0.033145
v 0.074081 0.103867 0.033104
v 0.081056 0.113173 0.031980
v 0.063824 0.092127 0.033237
v 0.055649 0.080198 0.033326
v 0.035837 0.050667 0.033531
v 0.039521 0.059340 0.033102
v 0.044628 0.066555 0.033022
v 0.062179 0.090978 0.032886
v 0.064429 0.093755 0.033028
v 0.067423 0.098091 0.032662
v 0.069865 0.100645 0.032747
v 0.038247 0.055638 0.033386
v 0.040923 0.060334 0.033271
v 0.069080 0.098999 0.033135
v 0.066691 0.096446 0.033104
v 0.061552 0.089333 0.033198
f 32 51 33
f 16 32 33
f 51 32 43
f 7 6 18
f 7 2 6
f 34 16 33
f 33 52 36
f 36 52 53
f 36 37 20
f 25 43 10
f 6 16 17
f 16 34 17
f 18 6 17
f 17 7 18
f 19 7 17
f 17 20 19
f 17 34 20
f 58 37 57
f 35 34 33
f 33 36 35
f 20 34 35
f 35 36 20
f 53 78 54
f 54 36 53
f 76 55 54
f 37 36 54
f 54 55 37
f 3 7 19
f 2 7 3
f 1 2 3
f 3 4 1
f 20 37 22
f 12 13 5
f 5 13 14
f 86 87 68
f 59 57 56
f 56 57 37
f 56 55 81
f 37 55 56
f 77 78 51
f 77 54 78
f 51 76 77
f 76 54 77
f 20 22 21
f 4 3 9
f 39 57 59
f 15 14 25
f 5 14 15
f 15 10 5
f 25 10 15
f 88 72 81
f 42 47 40
f 43 68 69
f 69 68 87
f 66 85 86
f 63 64 43
f 92 85 82
f 8 3 19
f 8 9 3
f 22 9 8
f 8 21 22
f 19 20 8
f 20 21 8
f 23 9 22
f 23 40 41
f 42 40 23
f 23 39 42
f 22 39 23
f 58 57 38
f 57 39 38
f 38 39 22
f 38 37 58
f 38 22 37
f 71 47 42
f 42 39 71
f 71 39 59
f 59 56 71
f 71 56 81
f 81 72 71
f 11 12 5
f 11 26 12
f 41 40 44
f 29 14 13
f 81 55 80
f 80 88 81
f 51 43 70
f 43 69 70
f 70 69 87
f 70 76 51
f 70 87 76
f 43 64 65
f 65 66 43
f 85 66 65
f 64 84 65
f 65 84 85
f 67 68 43
f 43 66 67
f 86 68 67
f 67 66 86
f 31 43 25
f 25 14 31
f 60 61 43
f 43 49 60
f 43 61 62
f 62 63 43
f 62 61 82
f 82 63 62
f 89 92 82
f 88 80 89
f 89 80 92
f 85 92 91
f 86 85 91
f 91 87 86
f 83 84 64
f 83 63 82
f 64 63 83
f 82 85 83
f 85 84 83
f 24 23 41
f 9 23 24
f 26 44 27
f 12 26 27
f 13 12 27
f 14 29 30
f 30 29 48
f 30 31 14
f 48 49 30
f 82 73 46
f 48 29 46
f 46 73 48
f 75 49 48
f 48 73 75
f 75 60 49
f 75 73 82
f 82 61 75
f 61 60 75
f 79 80 55
f 92 80 79
f 79 91 92
f 79 55 76
f 50 49 43
f 43 31 50
f 50 30 49
f 31 30 50
f 76 87 90
f 87 91 90
f 90 79 76
f 91 79 90
f 28 29 13
f 13 27 28
f 47 71 28
f 28 46 29
f 28 71 72
f 72 46 28
f 74 89 82
f 82 46 74
f 88 89 74
f 72 88 74
f 74 46 72
f 45 28 27
f 45 44 40
f 45 27 44
f 45 40 47
f 47 28 45
f 78 52 33
f 33 51 78
f 53 52 78
f 32 16 10
f 1 5 10
f 10 43 32
f 10 16 6
f 10 2 1
f 6 2 10
f 24 5 1
f 41 44 24
f 1 4 24
f 4 9 24
f 24 11 5
f 26 11 24
f 24 44 26
