# generated by collision_forge
v -0.053134 -0.124073 0.003033
v -0.053134 -0.124711 0.004662
v -0.065491 -0.124069 0.003036
v -0.067965 -0.124067 0.003036
v -0.070423 -0.124063 0.003036
v -0.053134 -0.123087 0.003033
v 0.058088 -0.124065 0.003036
v -0.088414 -0.124766 0.007133
v -0.055592 -0.124708 0.004662
v -0.087745 -0.124047 0.003042
v 0.082400 -0.124697 0.004662
v 0.082400 -0.124823 0.006733
v 0.082400 -0.124847 0.007133
v -0.070423 -0.123080 0.003036
v -0.088414 -0.122876 0.003050
v 0.058088 -0.123081 0.003036
v 0.082400 -0.124062 0.003039
v -0.088414 -0.124754 0.023770
v -0.088414 -0.124601 0.004662
v -0.087745 -0.124641 0.004662
v -0.077847 -0.124665 0.004662
v -0.067965 -0.124687 0.004662
v -0.065491 -0.124692 0.004662
v -0.060558 -0.124700 0.004662
v -0.087745 -0.123052 0.003042
v -0.088414 -0.124002 0.003080
v -0.088414 -0.123607 0.003050
v 0.082400 -0.123907 0.028646
v 0.006155 -0.124489 0.026905
v 0.003698 -0.124500 0.026905
v 0.001206 -0.124509 0.026905
v -0.008659 -0.124535 0.026905
v -0.072914 -0.124616 0.029376
v -0.088414 -0.122597 0.003601
v 0.082400 -0.123079 0.003039
v -0.087745 -0.124726 0.024433
v -0.088414 -0.124711 0.024433
v 0.082400 -0.119182 0.028646
v 0.049845 -0.119887 0.031521
v 0.049845 -0.120702 0.031409
v 0.049845 -0.122357 0.031176
v 0.049845 -0.122796 0.031026
v 0.049845 -0.123687 0.030719
v 0.011121 -0.124228 0.029376
v 0.008630 -0.124243 0.029376
v -0.072914 -0.124122 0.031435
v -0.075372 -0.124581 0.029376
v -0.088414 -0.122142 0.004662
v 0.082400 -0.122394 0.004662
v -0.088414 -0.124410 0.026242
v 0.082400 -0.118234 0.019487
v 0.049845 -0.118821 0.031515
v -0.071176 -0.118821 0.033126
v -0.071410 -0.119223 0.033123
v -0.072914 -0.122357 0.032587
v -0.075372 -0.124080 0.031362
v -0.087745 -0.124315 0.026905
v -0.088414 -0.118821 0.026192
v -0.084301 -0.121041 0.008208
v -0.082796 -0.120990 0.008114
v -0.033354 -0.120895 0.007996
v 0.011121 -0.120275 0.009605
v 0.011121 -0.120906 0.008038
v 0.082400 -0.119445 0.012268
v -0.088414 -0.124219 0.026890
v 0.082400 -0.118252 0.018294
v -0.082863 -0.118821 0.024595
v -0.088414 -0.118821 0.029152
v -0.087745 -0.118821 0.029364
v -0.071777 -0.118821 0.033123
v -0.071460 -0.118821 0.033126
v -0.071777 -0.119223 0.033123
v -0.075372 -0.122357 0.032142
v -0.088414 -0.123688 0.028239
v -0.082796 -0.120770 0.009605
v -0.080322 -0.120739 0.009605
v 0.082400 -0.118293 0.017016
v -0.080322 -0.118821 0.024377
v -0.088414 -0.119887 0.029140
v -0.087745 -0.119887 0.029353
v -0.087745 -0.122357 0.028899
v -0.088414 -0.123001 0.028534
v -0.088414 -0.120832 0.028996
v -0.088414 -0.122357 0.028716
f 34 35 15
f 8 13 18
f 18 13 33
f 56 73 74
f 13 28 29
f 10 26 27
f 51 67 58
f 58 68 51
f 37 18 36
f 36 18 33
f 33 47 36
f 36 47 37
f 56 74 57
f 57 47 56
f 82 74 73
f 33 13 32
f 33 29 45
f 45 29 28
f 46 47 33
f 56 47 46
f 33 45 46
f 46 45 43
f 39 28 38
f 10 22 21
f 21 20 10
f 21 22 8
f 8 20 21
f 19 26 10
f 10 20 19
f 19 20 8
f 49 62 64
f 64 62 77
f 7 17 11
f 51 68 69
f 37 47 50
f 47 57 50
f 84 82 81
f 81 82 73
f 81 80 84
f 73 80 81
f 31 32 13
f 33 32 31
f 28 43 44
f 44 45 28
f 43 45 44
f 55 46 43
f 55 73 56
f 56 46 55
f 53 39 52
f 52 39 38
f 52 38 51
f 51 53 52
f 48 49 35
f 48 35 34
f 48 61 62
f 66 67 51
f 66 77 67
f 61 48 60
f 62 61 60
f 60 77 62
f 2 7 11
f 1 7 2
f 11 12 2
f 2 12 13
f 2 9 10
f 2 13 8
f 8 9 2
f 16 15 35
f 16 6 15
f 23 22 10
f 8 22 23
f 80 79 83
f 84 80 83
f 72 69 80
f 72 80 73
f 73 55 72
f 65 57 74
f 65 50 57
f 13 29 30
f 30 31 13
f 30 29 33
f 33 31 30
f 42 43 28
f 28 41 42
f 42 55 43
f 42 41 55
f 28 39 40
f 40 41 28
f 62 49 63
f 63 48 62
f 49 48 63
f 77 60 76
f 59 48 58
f 59 60 48
f 1 2 3
f 14 25 15
f 15 6 14
f 10 9 24
f 24 23 10
f 24 9 8
f 8 23 24
f 69 72 70
f 51 69 70
f 55 41 54
f 54 72 55
f 41 40 54
f 54 40 39
f 54 39 53
f 67 77 78
f 78 76 67
f 77 76 78
f 67 76 75
f 75 76 60
f 75 58 67
f 75 59 58
f 60 59 75
f 4 3 2
f 10 5 4
f 4 2 10
f 4 5 1
f 1 3 4
f 71 53 51
f 51 70 71
f 71 70 72
f 68 79 69
f 69 79 80
f 35 49 66
f 51 38 66
f 66 12 11
f 66 28 13
f 13 12 66
f 38 28 66
f 11 17 66
f 66 17 35
f 66 49 64
f 64 77 66
f 35 17 16
f 17 7 16
f 16 7 1
f 1 6 16
f 25 27 15
f 10 27 25
f 34 15 65
f 65 27 26
f 8 18 65
f 65 82 84
f 37 50 65
f 65 19 8
f 65 18 37
f 65 48 34
f 15 27 65
f 68 58 65
f 74 82 65
f 26 19 65
f 65 79 68
f 84 83 65
f 58 48 65
f 65 83 79
f 14 6 1
f 1 5 14
f 10 25 14
f 14 5 10
f 72 54 71
f 71 54 53
