# generated by collision_forge
v 0.092742 0.122400 0.002978
v 0.087744 0.124073 0.003034
v 0.090220 0.124072 0.003034
v 0.092687 0.124041 0.003050
v 0.094435 0.122359 0.003063
v 0.094271 0.120181 0.003053
v 0.093397 0.120181 0.003053
v 0.002439 0.123085 0.003034
v 0.002439 0.124069 0.003034
v 0.030904 0.124071 0.003034
v 0.090220 0.124742 0.004660
v 0.092687 0.124674 0.004660
v 0.094235 0.123872 0.003186
v 0.095163 0.122359 0.004660
v 0.095227 0.120181 0.004660
v 0.094472 0.120181 0.003063
v 0.083730 0.120181 0.012938
v 0.052251 0.120358 0.016131
v 0.018542 0.120627 0.014546
v 0.002439 0.120776 0.012074
v 0.002439 0.120868 0.011126
v 0.002439 0.120955 0.010242
v 0.002439 0.122402 0.004660
v 0.002439 0.122755 0.003819
v 0.002439 0.124411 0.003874
v 0.090220 0.124935 0.007132
v 0.002439 0.124731 0.004660
v 0.092687 0.124824 0.007132
v 0.094499 0.124099 0.004660
v 0.095327 0.122359 0.007132
v 0.095400 0.120181 0.006838
v 0.083211 0.120181 0.014534
v 0.002439 0.120769 0.016131
v 0.002439 0.120755 0.014546
v 0.083093 0.120181 0.014912
v 0.082829 0.120181 0.016131
v 0.002439 0.120766 0.013268
v 0.090220 0.124517 0.009602
v 0.002439 0.124801 0.005938
v 0.002439 0.124867 0.007132
v 0.092669 0.124157 0.009699
v 0.094317 0.123945 0.008941
v 0.094553 0.124154 0.007132
v 0.095418 0.120181 0.007132
v 0.094590 0.122359 0.009375
v 0.094672 0.120181 0.009519
v 0.002439 0.123035 0.016131
v 0.088427 0.120181 0.016131
v 0.087744 0.124514 0.009602
v 0.003714 0.123032 0.016131
v 0.085277 0.122706 0.016131
v 0.091832 0.123736 0.010971
v 0.093534 0.122359 0.010609
v 0.087626 0.122019 0.016131
v 0.093934 0.120181 0.010607
v 0.093807 0.120181 0.010753
v 0.086306 0.122479 0.016131
f 5 1 4
f 6 1 5
f 26 40 38
f 9 1 8
f 7 17 18
f 20 21 7
f 7 21 22
f 22 23 7
f 23 24 7
f 7 24 8
f 8 1 7
f 7 1 6
f 28 12 26
f 26 38 28
f 4 12 13
f 13 5 4
f 11 12 4
f 11 9 25
f 26 12 11
f 44 31 30
f 6 5 16
f 50 38 47
f 51 38 50
f 49 40 47
f 47 38 49
f 49 38 40
f 18 33 34
f 35 36 18
f 29 13 12
f 29 28 43
f 12 28 29
f 43 30 29
f 3 11 4
f 4 1 3
f 27 11 25
f 26 11 27
f 45 55 46
f 44 30 46
f 46 30 45
f 14 30 31
f 5 13 14
f 13 29 14
f 14 29 30
f 53 54 48
f 48 56 53
f 53 56 55
f 53 55 45
f 18 34 19
f 19 7 18
f 20 7 19
f 18 17 32
f 32 35 18
f 11 3 2
f 2 3 1
f 39 40 26
f 26 27 39
f 15 14 31
f 15 16 5
f 5 14 15
f 54 53 42
f 42 53 45
f 43 28 42
f 42 30 43
f 45 30 42
f 20 19 37
f 37 19 34
f 9 11 10
f 11 2 10
f 1 9 10
f 10 2 1
f 52 57 54
f 54 42 52
f 51 57 52
f 41 38 51
f 51 52 41
f 41 52 42
f 41 28 38
f 41 42 28
f 57 33 18
f 48 54 57
f 18 36 57
f 47 33 57
f 57 36 48
f 57 50 47
f 51 50 57
f 15 31 44
f 15 7 6
f 48 36 15
f 15 56 48
f 6 16 15
f 17 7 15
f 44 46 15
f 15 32 17
f 36 35 15
f 15 46 55
f 55 56 15
f 35 32 15
f 37 9 8
f 22 21 37
f 47 40 37
f 40 39 37
f 37 23 22
f 8 24 37
f 25 9 37
f 37 24 23
f 37 21 20
f 37 33 47
f 37 34 33
f 37 27 25
f 37 39 27
