# generated by collision_forge
v -0.006769 0.009620 0.025369
v 0.001235 0.009620 0.025371
v -0.006769 0.009620 0.027768
v -0.006769 0.119477 0.025170
v -0.005180 0.119465 0.025170
v 0.002244 0.119454 0.025170
v 0.002430 0.119454 0.025170
v 0.002430 0.011129 0.025378
v 0.002430 0.009620 0.025425
v 0.002430 0.009620 0.028121
v -0.006769 0.015171 0.028106
v -0.006769 0.124611 0.025170
v 0.002430 0.124622 0.025170
v -0.006769 0.018549 0.028176
v -0.006769 0.018065 0.028171
v -0.006769 0.016398 0.028153
v 0.002430 0.021015 0.028217
v -0.006769 0.021015 0.028199
v -0.006769 0.124566 0.025584
v -0.004443 0.124622 0.025170
v 0.000499 0.124633 0.025170
v 0.002430 0.124566 0.025712
v 0.002430 0.023492 0.028230
v -0.006769 0.025957 0.028230
v -0.006769 0.023492 0.028217
v -0.006769 0.124419 0.026906
v -0.003707 0.124431 0.026906
v -0.001237 0.124431 0.026906
v 0.002430 0.124419 0.026906
v 0.002430 0.053148 0.028362
v 0.001235 0.053148 0.028363
v -0.001237 0.053148 0.028365
v -0.006179 0.053148 0.028370
v -0.006769 0.053148 0.028370
v -0.006769 0.052563 0.028367
v -0.006769 0.123778 0.028281
v -0.006179 0.123778 0.028282
v -0.003707 0.123778 0.028286
v -0.001237 0.123778 0.028285
v 0.002430 0.123778 0.028276
v 0.002430 0.055626 0.028371
v 0.001235 0.055626 0.028372
v -0.003707 0.055626 0.028377
v -0.006769 0.055626 0.028380
v -0.006769 0.055029 0.028378
v -0.006769 0.123440 0.028330
v -0.006179 0.122348 0.028491
v -0.003707 0.122348 0.028492
v -0.001237 0.122348 0.028487
v 0.002430 0.123035 0.028378
v 0.002430 0.058091 0.028378
v 0.001235 0.058091 0.028379
v -0.003707 0.058091 0.028384
v -0.006179 0.058091 0.028386
v -0.006769 0.080328 0.028448
v -0.006769 0.122348 0.028490
v -0.006769 0.121762 0.028506
v -0.006769 0.119882 0.028553
v -0.006179 0.119882 0.028553
v 0.002430 0.122348 0.028472
v -0.003707 0.119882 0.028546
v -0.001237 0.119882 0.028539
v 0.002430 0.119882 0.028528
v 0.002430 0.082805 0.028440
f 1 4 5
f 6 7 1
f 1 5 6
f 7 8 2
f 1 7 2
f 9 2 8
f 11 3 10
f 10 16 11
f 20 27 21
f 36 27 26
f 27 20 26
f 21 27 28
f 10 18 14
f 25 18 17
f 17 18 10
f 58 55 59
f 59 48 58
f 58 48 57
f 19 20 12
f 19 26 20
f 15 16 10
f 10 14 15
f 23 35 24
f 24 17 23
f 25 17 24
f 51 59 55
f 48 59 49
f 49 63 60
f 54 55 44
f 44 53 54
f 54 53 55
f 56 57 47
f 47 57 48
f 47 46 56
f 28 40 29
f 39 40 28
f 48 49 39
f 39 49 40
f 30 31 23
f 42 30 41
f 31 30 42
f 41 51 42
f 59 51 64
f 50 49 60
f 40 49 50
f 22 13 21
f 21 28 22
f 28 29 22
f 37 27 36
f 36 46 37
f 38 28 27
f 38 39 28
f 27 37 38
f 38 47 48
f 48 39 38
f 46 47 38
f 38 37 46
f 34 35 23
f 23 33 34
f 23 31 32
f 32 33 23
f 44 31 43
f 31 42 43
f 43 53 44
f 43 42 53
f 53 42 52
f 52 42 51
f 55 53 52
f 52 51 55
f 59 64 61
f 61 49 59
f 45 34 33
f 33 32 45
f 45 31 44
f 45 32 31
f 62 64 63
f 62 61 64
f 63 49 62
f 49 61 62
f 9 3 1
f 1 2 9
f 10 3 9
f 20 5 4
f 4 12 20
f 7 6 20
f 20 6 5
f 20 13 7
f 21 13 20
f 7 13 22
f 22 8 7
f 10 9 22
f 22 17 10
f 22 9 8
f 60 63 22
f 22 50 60
f 63 64 22
f 23 17 22
f 22 51 41
f 41 30 22
f 22 29 40
f 22 30 23
f 22 64 51
f 40 50 22
f 45 12 4
f 45 4 1
f 1 3 45
f 45 46 36
f 25 24 45
f 45 11 16
f 45 55 58
f 3 11 45
f 45 19 12
f 58 57 45
f 45 18 25
f 44 55 45
f 36 26 45
f 45 14 18
f 16 15 45
f 45 57 56
f 56 46 45
f 26 19 45
f 45 15 14
f 45 24 35
f 35 34 45
