# generated by collision_forge
v 0.086988 0.119105 0.031809
v 0.086988 0.117409 0.031805
v 0.087751 0.102713 0.031766
v 0.087751 0.119870 0.031776
v 0.086988 0.120181 0.031712
v 0.083796 0.077814 0.021370
v 0.082408 -0.119157 0.028648
v 0.082408 -0.123888 0.028648
v 0.086988 0.102713 0.031763
v 0.087886 0.102713 0.031738
v 0.085342 -0.112992 0.029157
v 0.091858 -0.112992 0.029157
v 0.090187 0.119870 0.031175
v 0.090223 0.102713 0.031239
v 0.086988 0.120181 0.028629
v 0.085136 0.117409 0.019493
v 0.085310 0.117409 0.021964
v 0.083894 0.082760 0.021187
v 0.083836 0.080323 0.021312
v 0.083438 0.075353 0.019493
v 0.083269 0.060537 0.019493
v 0.083244 0.058052 0.019493
v 0.083115 0.043213 0.019493
v 0.082919 0.013559 0.019493
v 0.082906 0.011098 0.019493
v 0.082810 -0.123912 0.028648
v 0.085282 -0.123936 0.028648
v 0.091858 -0.112180 0.029157
v 0.091493 0.102713 0.030659
v 0.087750 -0.123912 0.028648
v 0.089686 -0.123721 0.028648
v 0.090941 -0.122980 0.028648
v 0.091629 -0.121857 0.028648
v 0.091697 -0.072871 0.027074
v 0.091702 -0.043241 0.026971
v 0.091468 0.112462 0.030624
v 0.091461 0.114135 0.030617
v 0.091453 0.115784 0.030579
v 0.091423 0.119870 0.030411
v 0.090173 0.120181 0.031167
v 0.091484 0.107516 0.030646
v 0.091489 0.105055 0.030655
v 0.086999 0.120181 0.025576
v 0.083584 0.080323 0.019493
v 0.085225 0.117409 0.018759
v 0.083589 0.079558 0.018761
v 0.083526 0.077814 0.018761
v 0.083474 0.075353 0.018761
v 0.083151 0.042496 0.018761
v 0.082932 0.010333 0.018761
v 0.082408 -0.118273 0.016994
v 0.082408 -0.118225 0.018300
v 0.082408 -0.123602 0.025620
v 0.085282 -0.123865 0.026903
v 0.091692 -0.008640 0.026903
v 0.091669 0.030883 0.026903
v 0.091811 -0.033109 0.029157
v 0.091623 0.102713 0.029376
v 0.091805 -0.025678 0.029157
v 0.089553 -0.123697 0.026903
v 0.090851 -0.122479 0.026832
v 0.091601 -0.121762 0.027608
v 0.091678 -0.119874 0.027328
v 0.091691 -0.114928 0.027282
v 0.091477 -0.011078 0.025642
v 0.091478 -0.008640 0.025640
v 0.091615 0.105055 0.029376
v 0.091544 0.119870 0.029174
v 0.090929 0.120181 0.025576
v 0.087913 0.117409 0.018759
v 0.082952 -0.001400 0.017447
v 0.082934 -0.003718 0.017447
v 0.083411 -0.112992 0.016994
v 0.082408 -0.121953 0.016994
v 0.089091 -0.123626 0.025613
v 0.091465 0.072891 0.025656
v 0.091634 0.065484 0.026903
v 0.091584 0.105055 0.027051
v 0.084950 -0.121499 0.016994
v 0.086118 -0.119922 0.016994
v 0.091277 -0.119874 0.026093
v 0.091374 -0.100065 0.025890
v 0.091379 -0.097579 0.025879
v 0.086330 -0.117413 0.016994
v 0.091544 0.119870 0.027427
v 0.091348 0.119870 0.026190
v 0.091403 0.117409 0.025958
v 0.091436 0.114924 0.025807
v 0.085585 -0.001400 0.017447
v 0.086194 -0.112992 0.016994
v 0.082806 -0.121977 0.016994
v 0.091539 0.120181 0.027470
f 3 11 12
f 12 11 27
f 6 20 7
f 1 6 7
f 5 6 1
f 11 3 9
f 31 32 12
f 11 9 8
f 8 1 7
f 7 24 25
f 5 16 17
f 15 16 5
f 16 15 43
f 12 32 33
f 33 63 12
f 4 1 3
f 4 14 13
f 5 1 4
f 12 27 30
f 30 31 12
f 26 27 11
f 11 8 26
f 26 8 53
f 1 8 2
f 2 8 9
f 3 1 2
f 2 9 3
f 7 25 52
f 52 25 51
f 72 49 71
f 72 71 51
f 51 71 73
f 5 17 18
f 90 89 84
f 84 89 70
f 70 65 84
f 84 65 83
f 5 4 40
f 40 4 13
f 88 76 70
f 16 43 45
f 45 46 16
f 71 46 45
f 76 88 77
f 68 37 67
f 13 14 41
f 58 67 41
f 10 4 3
f 14 4 10
f 10 3 12
f 12 14 10
f 80 84 81
f 23 24 7
f 49 72 50
f 24 23 50
f 50 23 49
f 50 25 24
f 51 25 50
f 50 72 51
f 71 49 48
f 20 6 19
f 19 6 5
f 5 18 19
f 44 18 17
f 44 17 16
f 20 19 44
f 44 19 18
f 16 46 44
f 70 76 66
f 66 65 70
f 76 55 66
f 92 40 39
f 68 92 39
f 39 40 13
f 69 92 86
f 70 69 86
f 12 63 64
f 64 34 12
f 65 34 64
f 83 65 64
f 12 34 35
f 35 28 12
f 55 28 35
f 35 66 55
f 35 34 65
f 65 66 35
f 78 77 88
f 58 59 78
f 78 59 77
f 36 37 13
f 13 41 36
f 36 67 37
f 36 41 67
f 29 14 12
f 12 28 29
f 29 59 58
f 53 74 91
f 31 30 60
f 30 75 60
f 32 31 60
f 60 61 32
f 60 75 61
f 62 61 80
f 80 81 62
f 62 33 32
f 32 61 62
f 63 33 62
f 62 81 63
f 82 84 83
f 82 81 84
f 63 81 82
f 82 64 63
f 83 64 82
f 47 48 20
f 20 44 47
f 47 44 46
f 47 46 71
f 71 48 47
f 49 23 22
f 22 48 49
f 22 23 7
f 38 37 68
f 68 39 38
f 13 37 38
f 38 39 13
f 87 88 70
f 70 86 87
f 87 86 92
f 77 59 56
f 56 55 76
f 76 77 56
f 56 28 55
f 85 78 88
f 85 87 92
f 88 87 85
f 58 78 85
f 85 67 58
f 85 92 68
f 68 67 85
f 42 41 14
f 14 29 42
f 58 41 42
f 42 29 58
f 57 29 28
f 59 29 57
f 28 56 57
f 57 56 59
f 53 91 54
f 54 91 75
f 54 26 53
f 27 26 54
f 54 30 27
f 54 75 30
f 75 91 79
f 80 61 79
f 61 75 79
f 20 48 21
f 48 22 21
f 7 20 21
f 21 22 7
f 52 8 7
f 51 74 52
f 53 8 52
f 52 74 53
f 73 89 90
f 73 71 89
f 40 92 69
f 69 43 40
f 40 15 5
f 40 43 15
f 45 43 69
f 45 69 70
f 89 71 45
f 70 89 45
f 79 74 51
f 90 84 79
f 51 73 79
f 79 73 90
f 79 84 80
f 79 91 74
