# generated by collision_forge
v 0.049860 -0.123931 0.029379
v 0.049860 -0.123919 0.028646
v 0.085274 -0.123955 0.029379
v 0.085274 -0.123715 0.030764
v 0.049860 -0.123763 0.030278
v 0.082399 -0.123907 0.028646
v 0.085274 -0.123931 0.028650
v 0.049860 -0.119106 0.028646
v 0.087746 -0.123919 0.028650
v 0.087746 -0.123931 0.029379
v 0.087746 -0.123703 0.030751
v 0.087746 -0.122346 0.031265
v 0.085274 -0.122346 0.031267
v 0.049860 -0.123679 0.030720
v 0.082399 -0.119178 0.028646
v 0.091810 -0.114942 0.028650
v 0.091798 -0.117414 0.028650
v 0.091785 -0.119874 0.028650
v 0.091625 -0.121866 0.028650
v 0.090938 -0.122983 0.028650
v 0.089683 -0.123739 0.028650
v 0.086751 -0.112998 0.028650
v 0.050699 -0.119106 0.028646
v 0.049860 -0.112998 0.029180
v 0.049864 -0.001359 0.029217
v 0.085459 -0.001359 0.029157
v 0.089737 -0.123751 0.029379
v 0.089338 -0.123655 0.030696
v 0.090185 -0.122382 0.030952
v 0.090218 -0.119874 0.031338
v 0.087746 -0.119874 0.031637
v 0.049860 -0.122346 0.031177
v 0.049860 -0.122791 0.031027
v 0.080330 -0.119154 0.028646
v 0.091810 -0.112998 0.028650
v 0.091872 -0.114942 0.029379
v 0.091863 -0.117414 0.029379
v 0.091880 -0.112458 0.029378
v 0.091847 -0.119874 0.029379
v 0.091645 -0.121950 0.029379
v 0.090975 -0.123187 0.029379
v 0.072943 -0.119130 0.028646
v 0.049860 -0.112998 0.031509
v 0.049864 -0.001359 0.031686
v 0.091728 -0.001359 0.029157
v 0.091567 -0.121578 0.030747
v 0.091625 -0.119874 0.030818
v 0.091633 -0.117414 0.030824
v 0.091641 -0.114942 0.030830
v 0.090218 -0.114942 0.031345
v 0.049860 -0.119874 0.031521
v 0.049860 -0.120690 0.031408
v 0.087746 -0.006195 0.031682
v 0.049864 -0.003711 0.031685
v 0.049864 -0.006195 0.031684
v 0.049864 -0.008667 0.031681
v 0.091806 -0.025732 0.029157
v 0.091818 -0.030904 0.029378
v 0.091641 -0.112458 0.030830
v 0.091641 -0.112998 0.030830
v 0.049864 -0.002139 0.031686
v 0.087746 -0.001359 0.031680
v 0.091736 -0.001359 0.029378
v 0.091337 -0.112998 0.030942
v 0.090218 -0.112998 0.031344
v 0.091810 -0.025960 0.029378
v 0.091571 -0.025960 0.030748
v 0.091575 -0.030904 0.030755
v 0.090218 -0.003711 0.031242
v 0.090218 -0.006195 0.031245
v 0.090218 -0.001359 0.031238
v 0.091522 -0.001359 0.030697
f 58 59 38
f 56 51 31
f 53 62 44
f 57 45 63
f 35 45 57
f 38 35 57
f 57 58 38
f 26 8 25
f 26 22 8
f 25 8 24
f 55 56 31
f 51 56 55
f 19 20 6
f 6 20 21
f 66 57 63
f 58 57 66
f 63 72 66
f 43 51 44
f 31 53 54
f 54 55 31
f 51 55 54
f 1 4 5
f 4 14 5
f 18 19 6
f 46 30 29
f 46 47 30
f 11 10 28
f 28 46 29
f 50 53 31
f 31 30 50
f 62 53 50
f 35 42 23
f 35 15 34
f 34 42 35
f 61 53 44
f 61 54 53
f 44 51 61
f 51 54 61
f 31 51 52
f 52 32 31
f 12 4 11
f 11 28 12
f 12 28 29
f 12 30 31
f 29 30 12
f 16 35 38
f 38 59 60
f 6 21 9
f 11 4 3
f 3 10 11
f 3 4 1
f 1 2 3
f 3 9 10
f 27 28 10
f 27 9 21
f 10 9 27
f 31 32 13
f 13 12 31
f 13 14 4
f 4 12 13
f 38 60 49
f 49 50 30
f 36 16 38
f 36 37 16
f 38 49 36
f 36 49 37
f 17 37 18
f 16 37 17
f 6 16 17
f 17 18 6
f 47 46 39
f 39 37 47
f 46 40 39
f 18 37 39
f 19 18 39
f 39 40 19
f 7 3 2
f 9 3 7
f 7 2 6
f 6 9 7
f 28 27 41
f 46 28 41
f 41 21 20
f 41 27 21
f 41 40 46
f 20 19 41
f 19 40 41
f 59 58 68
f 14 13 33
f 33 13 32
f 47 37 48
f 37 49 48
f 30 47 48
f 48 49 30
f 69 71 62
f 62 70 69
f 69 68 71
f 69 70 59
f 59 68 69
f 62 50 65
f 65 70 62
f 72 71 67
f 71 68 67
f 67 66 72
f 58 66 67
f 67 68 58
f 59 70 64
f 70 65 64
f 64 65 50
f 64 60 59
f 50 49 64
f 64 49 60
f 26 45 35
f 35 22 26
f 43 44 25
f 25 24 43
f 23 22 35
f 8 22 23
f 2 8 34
f 6 2 34
f 34 15 6
f 8 23 34
f 34 23 42
f 6 15 16
f 16 15 35
f 44 62 71
f 25 44 71
f 71 72 63
f 63 45 71
f 71 26 25
f 45 26 71
f 51 43 33
f 33 2 1
f 33 8 2
f 33 24 8
f 1 5 33
f 33 43 24
f 33 5 14
f 33 52 51
f 32 52 33
