# generated by collision_forge
v 0.077862 0.120181 0.023412
v 0.055612 0.120181 0.023572
v 0.080333 0.120181 0.023964
v 0.080333 0.118656 0.026062
v 0.077862 0.118656 0.025901
v 0.075461 0.118656 0.025880
v 0.072913 0.118656 0.025866
v 0.058121 0.118656 0.025810
v 0.055650 0.118656 0.025807
v 0.055612 0.118656 0.025807
v 0.002430 0.118656 0.026010
v 0.053141 0.120181 0.023606
v 0.081056 0.120181 0.024591
v 0.081056 0.118656 0.026424
v 0.002430 0.118656 0.028523
v 0.002430 0.119966 0.024608
v 0.002430 0.120181 0.024428
v 0.081056 0.120181 0.028627
v 0.081056 0.118656 0.028627
v 0.002430 0.119887 0.028528
v 0.076708 0.118656 0.028627
v 0.002430 0.120181 0.028521
v 0.077293 0.120181 0.028627
v 0.076954 0.119887 0.028627
v 0.077200 0.120102 0.028627
f 4 1 3
f 11 1 10
f 1 9 10
f 5 1 4
f 2 1 11
f 14 3 13
f 4 3 14
f 22 20 23
f 21 20 15
f 24 20 21
f 8 9 1
f 1 7 8
f 1 5 6
f 6 7 1
f 12 16 17
f 11 16 12
f 12 2 11
f 25 23 20
f 20 24 25
f 13 18 14
f 18 19 14
f 22 17 16
f 11 15 16
f 16 20 22
f 16 15 20
f 6 5 4
f 4 14 6
f 11 10 6
f 6 19 21
f 6 10 9
f 6 15 11
f 6 14 19
f 21 15 6
f 9 8 6
f 6 8 7
f 1 2 12
f 12 18 13
f 13 3 12
f 12 3 1
f 12 17 22
f 12 23 18
f 22 23 12
f 21 19 25
f 25 19 18
f 18 23 25
f 25 24 21
