# generated by collision_forge
v 0.002430 0.120769 0.016131
v 0.002430 0.120181 0.024427
v 0.002430 0.123035 0.016131
v 0.052254 0.120357 0.016131
v 0.002430 0.120181 0.028521
v 0.082826 0.120181 0.016131
v 0.003712 0.123032 0.016131
v 0.002430 0.124718 0.024433
v 0.003712 0.124717 0.024433
v 0.018541 0.124705 0.024433
v 0.021018 0.124701 0.024433
v 0.085277 0.124589 0.024433
v 0.002430 0.122359 0.028472
v 0.087746 0.120181 0.031753
v 0.088426 0.120181 0.016131
v 0.085277 0.122706 0.016131
v 0.002430 0.124567 0.025712
v 0.087746 0.124648 0.029377
v 0.087746 0.124858 0.026906
v 0.087894 0.124250 0.024248
v 0.002430 0.123043 0.028379
v 0.087746 0.122359 0.031578
v 0.088025 0.120181 0.031697
v 0.087624 0.122019 0.016131
v 0.091313 0.122563 0.026901
v 0.091340 0.120181 0.026268
v 0.086307 0.122479 0.016131
v 0.002430 0.124424 0.026906
v 0.087746 0.124015 0.031000
v 0.089621 0.123894 0.030889
v 0.090075 0.124141 0.029377
v 0.090110 0.124232 0.026906
v 0.089665 0.124016 0.024949
v 0.002430 0.123778 0.028276
v 0.090057 0.122359 0.031105
v 0.090171 0.120181 0.031168
v 0.091322 0.122563 0.029524
v 0.091505 0.121876 0.027724
v 0.091540 0.120181 0.027470
v 0.002430 0.124090 0.027615
v 0.091409 0.120181 0.030314
v 0.091435 0.120181 0.030172
v 0.091505 0.121876 0.028798
v 0.091540 0.120181 0.029120
f 4 2 1
f 24 25 15
f 2 4 6
f 15 25 26
f 19 32 33
f 32 25 33
f 25 24 33
f 12 11 19
f 7 3 12
f 3 11 12
f 19 11 10
f 10 11 3
f 13 5 14
f 31 32 19
f 22 13 14
f 7 12 16
f 9 8 19
f 19 10 9
f 9 3 8
f 9 10 3
f 36 41 35
f 18 31 19
f 18 17 28
f 8 17 18
f 19 8 18
f 21 22 34
f 13 22 21
f 27 33 24
f 20 12 19
f 20 16 12
f 19 33 20
f 20 27 16
f 33 27 20
f 23 36 35
f 23 22 14
f 35 22 23
f 39 26 38
f 38 26 25
f 35 41 37
f 37 25 32
f 32 31 37
f 43 38 37
f 37 38 25
f 34 22 29
f 29 40 34
f 28 40 29
f 29 18 28
f 42 44 43
f 42 37 41
f 43 37 42
f 35 37 30
f 30 37 31
f 30 22 35
f 30 29 22
f 31 18 30
f 18 29 30
f 2 5 21
f 1 2 21
f 21 3 1
f 8 3 21
f 5 13 21
f 34 40 21
f 21 17 8
f 28 17 21
f 21 40 28
f 27 24 15
f 27 4 1
f 15 6 27
f 1 3 27
f 27 6 4
f 27 3 7
f 7 16 27
f 38 44 39
f 43 44 38
f 42 5 2
f 2 6 42
f 42 26 39
f 14 5 42
f 42 6 15
f 15 26 42
f 42 23 14
f 41 36 42
f 36 23 42
f 39 44 42
