####
#
# OBJ File Generated by Meshlab
#
####
# Object link_3_1.obj
#
# Vertices: 153
# Faces: 302
#
####
vn -0.514084 -0.628299 0.583916
v -0.011259 -0.013761 0.009017
vn -0.608064 -0.622181 0.493102
v -0.012601 -0.012544 0.009017
vn -0.516709 0.848099 -0.117216
v -0.017737 -0.001236 -0.009017
vn -0.430775 0.792700 -0.431346
v -0.003007 0.005593 -0.011366
vn -0.214416 0.052464 -0.975332
v 0.004717 0.006350 -0.015367
vn -0.430775 0.792700 0.431346
v -0.003007 0.005593 0.011366
vn -0.317056 0.914839 0.250090
v -0.002051 0.006010 0.011366
vn -0.641967 -0.535387 0.548853
v -0.013812 -0.011196 0.009017
vn 0.341517 -0.791898 0.506225
v 0.012178 -0.009130 0.015367
vn 0.010837 -0.000038 -0.999941
v 0.017590 0.006350 -0.015367
vn -0.351160 -0.878648 0.323519
v -0.006594 -0.016512 0.009017
vn -0.437787 -0.837200 -0.327778
v -0.008240 -0.015755 -0.009017
vn -0.182482 -0.344411 -0.920913
v 0.010735 -0.009070 -0.015367
vn -0.219550 -0.082502 -0.972107
v 0.010023 -0.008230 -0.015367
vn 0.389285 -0.003396 0.921111
v 0.036046 0.006350 0.012794
vn 0.139522 -0.000674 0.990219
v 0.035702 0.006350 0.012884
vn 0.400725 -0.684264 0.609264
v 0.035704 0.001691 0.012877
vn 0.294175 -0.376617 0.878419
v 0.018423 -0.006258 0.015305
vn 0.010089 0.997688 0.067208
v 0.035702 0.007938 0.012884
vn 0.487741 -0.691437 0.532939
v 0.035881 0.001772 0.012841
vn -0.861780 -0.149349 0.484799
v -0.017519 -0.003035 0.009017
vn -0.685717 -0.192292 0.702008
v -0.017119 -0.004802 0.009017
vn -0.317056 0.914839 -0.250090
v -0.002051 0.006010 -0.011366
vn 0.294175 -0.376617 -0.878419
v 0.018423 -0.006258 -0.015305
vn 0.471332 -0.879965 0.059224
v 0.001621 -0.017052 0.009017
vn 0.547136 -0.763389 0.343336
v 0.036273 0.001953 0.012676
vn 0.478683 -0.877869 0.014428
v 0.037436 0.002487 0.009645
vn 0.677231 -0.731798 0.076355
v 0.037231 0.002393 0.010700
vn 0.122743 -0.974925 0.185623
v -0.000299 -0.017704 0.009017
vn -0.036078 -0.558114 0.828980
v 0.011450 -0.009274 0.015367
vn -0.184162 -0.347582 0.919386
v 0.010735 -0.009070 0.015367
vn -0.127980 -0.448410 0.884618
v 0.011081 -0.009214 0.015367
vn -0.036200 -0.559994 -0.827705
v 0.011450 -0.009274 -0.015367
vn 0.118018 -0.944463 -0.306693
v -0.000299 -0.017704 -0.009017
vn 0.355229 -0.823694 -0.441974
v 0.012178 -0.009130 -0.015367
vn -0.127451 -0.446557 -0.885632
v 0.011081 -0.009214 -0.015367
vn 0.127265 -0.250786 0.959641
v 0.017539 -0.006664 0.015367
vn -0.236614 -0.088914 0.967527
v 0.010023 -0.008230 0.015367
vn -0.284215 0.958759 -0.001760
v -0.001828 0.006108 -0.009017
vn -0.167260 0.976300 -0.137337
v -0.001039 0.006264 -0.011366
vn 0.532775 -0.738958 -0.412423
v 0.036118 0.001881 -0.012757
vn 0.400256 0.034164 -0.915766
v 0.036046 0.007938 -0.012794
vn 0.271510 -0.002077 -0.962433
v 0.036046 0.006350 -0.012794
vn 0.631452 -0.700862 0.331754
v 0.036592 0.002099 0.012422
vn 0.478617 -0.877980 0.008766
v 0.037795 0.002652 0.007505
vn 0.982349 -0.004975 0.186992
v 0.037459 0.006350 0.009649
vn 0.699427 -0.712180 0.060013
v 0.037713 0.002615 0.008216
vn 0.583499 -0.811188 -0.038772
v 0.037527 0.002529 -0.009298
vn 0.596277 -0.801000 -0.053411
v 0.036963 0.002270 -0.011764
vn 0.402842 -0.683574 -0.608641
v 0.035704 0.001691 -0.012877
vn 0.471873 -0.880290 -0.049249
v 0.001621 -0.017052 -0.009017
vn 0.170338 -0.335664 -0.926453
v 0.017539 -0.006664 -0.015367
vn -0.625282 -0.323158 0.710346
v -0.015793 -0.008168 0.009017
vn -0.285411 0.958405 0.000961
v -0.001828 0.006108 0.009017
vn -0.167260 0.976300 0.137337
v -0.001039 0.006264 0.011366
vn -0.420625 0.907234 0.000979
v -0.002694 0.005778 0.009017
vn 0.475603 -0.878022 0.053657
v 0.036623 0.002113 0.012381
vn 0.623613 -0.002561 0.781729
v 0.036359 0.006350 0.012627
vn 0.960493 0.278132 0.009741
v 0.038100 0.007938 0.003175
vn 0.804543 0.590122 0.066834
v 0.038028 0.007938 0.005348
vn 0.999383 -0.001212 0.035097
v 0.038029 0.006350 0.005346
vn 0.977410 -0.000182 0.211354
v 0.037458 0.006350 0.009655
vn 0.594887 -0.743523 -0.305423
v 0.036471 0.002043 -0.012536
vn 0.997172 -0.005206 -0.074978
v 0.038028 0.006350 -0.005348
vn 0.996958 0.000529 0.077938
v 0.038028 0.006350 0.005348
vn 0.602692 -0.797742 0.019238
v 0.038003 0.002748 0.005703
vn 0.844445 0.524255 0.109862
v 0.037814 0.007938 0.007511
vn 0.531621 -0.002974 -0.846977
v 0.036359 0.006350 -0.012627
vn 0.474679 -0.877912 -0.062848
v 0.036618 0.002111 -0.012375
vn 0.563859 0.006503 -0.825845
v 0.036359 0.007938 -0.012627
vn 0.616990 -0.778729 -0.113594
v 0.036916 0.002248 -0.011909
vn 0.956465 0.076302 -0.281696
v 0.036961 0.007938 -0.011772
vn 0.992698 0.000000 -0.120622
v 0.037815 0.006350 -0.007507
vn 0.988646 -0.004124 -0.150206
v 0.037814 0.006350 -0.007511
vn 0.568388 -0.822539 -0.019123
v 0.037901 0.002701 -0.006795
vn 0.989060 -0.005345 -0.147419
v 0.037795 0.002652 -0.007504
vn 0.980157 0.064252 -0.187519
v 0.037458 0.007938 -0.009655
vn 0.973532 0.000016 -0.228552
v 0.036963 0.006350 -0.011764
vn 0.998743 0.000000 -0.050121
v 0.038029 0.006350 -0.005346
vn 0.602719 -0.797879 -0.010901
v 0.038082 0.002784 -0.004272
vn 0.985859 0.154033 -0.065993
v 0.038028 0.007938 -0.005348
vn 0.989613 0.000262 0.143756
v 0.037814 0.006350 0.007511
vn 0.993710 -0.004033 0.111913
v 0.037815 0.006350 0.007507
vn 0.809642 -0.001010 0.586923
v 0.036625 0.006350 0.012392
vn 0.621531 -0.760421 -0.188304
v 0.036739 0.002167 -0.012244
vn 0.737320 -0.002760 -0.675538
v 0.036625 0.006350 -0.012392
vn 0.952062 -0.000096 -0.305905
v 0.036961 0.006350 -0.011772
vn 0.879474 0.007603 -0.475886
v 0.036830 0.007938 -0.012101
vn 0.884409 -0.002381 -0.466707
v 0.036830 0.006350 -0.012101
vn 0.981830 -0.000000 -0.189765
v 0.037459 0.006350 -0.009649
vn 0.974170 -0.001411 -0.225811
v 0.037458 0.006350 -0.009655
vn 0.578381 -0.806677 0.121441
v 0.036823 0.002205 0.012109
vn 0.564321 -0.823662 0.055887
v 0.036963 0.002270 0.011764
vn -0.125592 0.992081 0.001433
v -0.000924 0.006308 0.009017
vn -0.055619 0.989370 0.134365
v 0.012700 0.007938 0.015367
vn -0.625035 -0.605149 -0.493078
v -0.012601 -0.012544 -0.009017
vn 0.002090 0.169771 -0.985481
v 0.017590 0.007938 -0.015367
vn 0.133310 -0.000433 -0.991074
v 0.018474 0.006350 -0.015305
vn 0.139429 0.112649 -0.983804
v 0.035702 0.007938 -0.012884
vn -0.585202 -0.715219 -0.382101
v -0.011259 -0.013761 -0.009017
vn -0.449541 -0.678707 -0.580750
v -0.009801 -0.014835 -0.009017
vn -0.509666 -0.770391 0.383064
v -0.009801 -0.014835 0.009017
vn -0.396730 -0.758685 0.516723
v -0.008240 -0.015755 0.009017
vn -0.320020 -0.800365 -0.506954
v -0.006594 -0.016512 -0.009017
vn -0.246416 -0.863325 0.440397
v -0.004880 -0.017097 0.009017
vn -0.264164 -0.925506 -0.271396
v -0.004880 -0.017097 -0.009017
vn -0.158351 -0.891687 -0.424051
v -0.003115 -0.017505 -0.009017
vn -0.516263 0.831593 0.204759
v -0.017737 -0.001236 0.009017
vn -0.709289 -0.122922 -0.694118
v -0.017519 -0.003035 -0.009017
vn 0.292982 -0.945338 -0.143168
v 0.000694 -0.017475 -0.009017
vn 0.989582 0.143860 -0.005583
v 0.038100 0.007938 -0.003175
vn 0.140278 -0.000730 -0.990112
v 0.035702 0.006350 -0.012884
vn -0.065832 -0.931566 0.357562
v -0.001318 -0.017731 0.009017
vn -0.068845 -0.974195 -0.214951
v -0.001318 -0.017731 -0.009017
vn -0.168867 -0.950002 0.262641
v -0.003115 -0.017505 0.009017
vn -0.445253 -0.170145 0.879091
v -0.016542 -0.006519 0.009017
vn -0.837714 -0.234916 -0.493001
v -0.017119 -0.004802 -0.009017
vn -0.348760 -0.131841 -0.927893
v -0.016542 -0.006519 -0.009017
vn -0.766193 -0.396078 -0.506034
v -0.015793 -0.008168 -0.009017
vn -0.656085 -0.517941 -0.548899
v -0.013812 -0.011196 -0.009017
vn -0.745560 -0.487765 0.454120
v -0.014880 -0.009733 0.009017
vn -0.626136 -0.409635 -0.663441
v -0.014880 -0.009733 -0.009017
vn 0.045538 -0.098999 -0.994045
v 0.012700 -0.008890 -0.015367
vn -0.232357 -0.152398 -0.960617
v 0.010192 -0.008564 -0.015367
vn -0.218644 -0.240218 -0.945775
v 0.010434 -0.008849 -0.015367
vn 0.156482 -0.721994 -0.673972
v 0.011823 -0.009245 -0.015367
vn 0.565197 -0.824956 -0.000369
v 0.038100 0.002793 -0.003175
vn 0.533814 -0.845602 0.000859
v 0.038100 0.002793 0.003175
vn 0.342379 -0.928589 0.143175
v 0.000694 -0.017475 0.009017
vn 0.008256 -0.000026 0.999966
v 0.017590 0.006350 0.015367
vn 0.133041 -0.000479 0.991111
v 0.018474 0.006350 0.015305
vn 0.017134 0.992011 0.124982
v 0.018474 0.007938 0.015305
vn -0.226613 0.055448 0.972405
v 0.004717 0.006350 0.015367
vn -0.055058 -0.036111 0.997830
v 0.010192 -0.008564 0.015367
vn 0.350333 -0.761611 0.545174
v 0.012700 -0.008890 0.015367
vn 0.152358 -0.702969 0.694710
v 0.011823 -0.009245 0.015367
vn -0.220535 -0.242295 0.944805
v 0.010434 -0.008849 0.015367
vn 0.000533 0.861323 0.508058
v 0.017590 0.007938 0.015367
vn -0.123766 0.992311 -0.000581
v -0.000924 0.006308 -0.009017
vn -0.416239 0.909254 -0.001715
v -0.002694 0.005778 -0.009017
vn 0.660452 0.732703 0.164161
v 0.036961 0.007938 0.011772
vn 0.969714 -0.000002 0.244245
v 0.036963 0.006350 0.011764
vn 0.930180 -0.000190 0.367104
v 0.036961 0.006350 0.011772
vn 0.131291 0.256100 -0.957693
v 0.018474 0.007938 -0.015305
vn 0.002468 0.999994 -0.002222
v 0.036625 0.007938 -0.012392
vn 0.106011 0.957162 0.269447
v 0.036046 0.007938 0.012794
vn -0.048248 0.982546 -0.179653
v 0.012700 0.007938 -0.015367
vn 0.761106 0.630527 0.152160
v 0.037458 0.007938 0.009655
vn 0.987136 0.087938 -0.133526
v 0.037814 0.007938 -0.007511
vn 0.182993 0.948286 0.259359
v 0.036359 0.007938 0.012627
vn 0.193426 0.963281 0.186217
v 0.036625 0.007938 0.012392
vn 0.116773 0.991140 0.063283
v 0.036830 0.007938 0.012101
vn 0.890948 -0.000312 0.454105
v 0.036830 0.006350 0.012101
# 153 vertices, 0 vertices normals

f 137//137 1//1 102//102
f 1//1 137//137 2//2
f 3//3 140//140 4//4
f 4//4 5//5 3//3
f 3//3 5//5 109//109
f 118//118 5//5 14//14
f 119//119 118//118 14//14
f 146//146 19//19 20//20
f 17//17 25//25 20//20
f 17//17 18//18 25//25
f 94//94 55//55 95//95
f 55//55 133//133 95//95
f 7//7 133//133 55//55
f 6//6 56//56 108//108
f 6//6 7//7 56//56
f 133//133 6//6 108//108
f 6//6 133//133 7//7
f 137//137 8//8 2//2
f 25//25 9//9 129//129
f 129//129 9//9 136//136
f 29//29 129//129 136//136
f 98//98 112//112 24//24
f 98//98 52//52 10//10
f 98//98 24//24 52//52
f 32//32 105//105 115//115
f 11//11 105//105 32//32
f 12//12 13//13 104//104
f 13//13 12//12 101//101
f 120//120 122//122 124//124
f 124//124 119//119 14//14
f 124//124 122//122 119//119
f 117//117 109//109 5//5
f 118//118 117//117 5//5
f 15//15 146//146 20//20
f 16//16 131//131 18//18
f 17//17 16//16 18//18
f 20//20 19//19 16//16
f 16//16 17//17 20//20
f 21//21 133//133 108//108
f 21//21 22//22 133//133
f 23//23 4//4 140//140
f 23//23 5//5 4//4
f 24//24 112//112 50//50
f 50//50 112//112 43//43
f 25//25 26//26 20//20
f 26//26 15//15 20//20
f 26//26 150//150 146//146
f 146//146 15//15 26//26
f 25//25 28//28 93//93
f 93//93 92//92 25//25
f 66//66 25//25 128//128
f 27//27 28//28 25//25
f 27//27 25//25 47//47
f 27//27 47//47 28//28
f 111//111 127//127 80//80
f 100//100 125//125 101//101
f 125//125 13//13 101//101
f 125//125 100//100 96//96
f 96//96 120//120 125//125
f 120//120 124//124 125//125
f 113//113 29//29 30//30
f 30//30 29//29 136//136
f 30//30 115//115 113//113
f 30//30 32//32 115//115
f 31//31 103//103 11//11
f 11//11 32//32 31//31
f 102//102 103//103 31//31
f 31//31 137//137 102//102
f 34//34 33//33 126//126
f 126//126 110//110 34//34
f 126//126 35//35 110//110
f 114//114 33//33 34//34
f 107//107 33//33 114//114
f 36//36 107//107 106//106
f 36//36 33//33 107//107
f 36//36 106//106 104//104
f 13//13 36//36 104//104
f 37//37 18//18 131//131
f 18//18 37//37 25//25
f 116//116 38//38 133//133
f 22//22 116//116 133//133
f 116//116 53//53 38//38
f 40//40 139//139 147//147
f 40//40 147//147 5//5
f 23//23 40//40 5//5
f 39//39 23//23 140//140
f 39//39 139//139 40//40
f 39//39 40//40 23//23
f 41//41 50//50 43//43
f 41//41 42//42 70//70
f 42//42 41//41 43//43
f 44//44 26//26 25//25
f 45//45 47//47 25//25
f 45//45 25//25 66//66
f 45//45 66//66 47//47
f 46//46 28//28 47//47
f 46//46 47//47 148//148
f 141//141 28//28 148//148
f 80//80 127//127 51//51
f 51//51 75//75 80//80
f 51//51 48//48 75//75
f 48//48 51//51 49//49
f 50//50 41//41 51//51
f 24//24 50//50 51//51
f 51//51 52//52 24//24
f 51//51 123//123 52//52
f 123//123 51//51 35//35
f 51//51 110//110 35//35
f 81//81 111//111 80//80
f 81//81 75//75 149//149
f 130//130 37//37 131//131
f 135//135 9//9 25//25
f 37//37 135//135 25//25
f 134//134 121//121 8//8
f 134//134 8//8 137//137
f 53//53 121//121 134//134
f 134//134 38//38 53//53
f 7//7 55//55 54//54
f 54//54 55//55 94//94
f 54//54 56//56 7//7
f 57//57 25//25 92//92
f 57//57 44//44 25//25
f 92//92 44//44 57//57
f 150//150 26//26 58//58
f 58//58 44//44 150//150
f 58//58 26//26 44//44
f 61//61 128//128 59//59
f 59//59 60//60 61//61
f 61//61 66//66 128//128
f 67//67 66//66 60//60
f 67//67 148//148 47//47
f 62//62 148//148 28//28
f 62//62 28//28 46//46
f 62//62 46//46 148//148
f 142//142 93//93 28//28
f 142//142 28//28 141//141
f 63//63 51//51 41//41
f 74//74 48//48 149//149
f 48//48 77//77 149//149
f 64//64 80//80 75//75
f 64//64 75//75 81//81
f 65//65 60//60 66//66
f 65//65 66//66 61//61
f 65//65 61//61 60//60
f 47//47 66//66 83//83
f 83//83 66//66 67//67
f 150//150 44//44 151//151
f 68//68 41//41 70//70
f 63//63 68//68 70//70
f 68//68 63//63 41//41
f 69//69 85//85 51//51
f 69//69 63//63 85//85
f 69//69 51//51 63//63
f 145//145 88//88 85//85
f 145//145 63//63 70//70
f 71//71 88//88 72//72
f 71//71 49//49 51//51
f 71//71 51//51 85//85
f 73//73 149//149 75//75
f 74//74 73//73 75//75
f 73//73 74//74 149//149
f 76//76 75//75 48//48
f 76//76 74//74 75//75
f 76//76 48//48 74//74
f 72//72 77//77 78//78
f 91//91 48//48 49//49
f 79//79 81//81 80//80
f 80//80 64//64 79//79
f 79//79 64//64 81//81
f 82//82 67//67 47//47
f 47//47 83//83 82//82
f 82//82 83//83 67//67
f 84//84 44//44 92//92
f 84//84 151//151 44//44
f 63//63 86//86 85//85
f 86//86 145//145 85//85
f 86//86 63//63 145//145
f 71//71 87//87 49//49
f 87//87 71//71 72//72
f 89//89 85//85 88//88
f 89//89 71//71 85//85
f 88//88 71//71 89//89
f 90//90 91//91 77//77
f 90//90 77//77 48//48
f 91//91 90//90 48//48
f 153//153 84//84 92//92
f 92//92 93//93 153//153
f 143//143 153//153 93//93
f 56//56 3//3 108//108
f 56//56 140//140 3//3
f 139//139 95//95 147//147
f 139//139 94//94 95//95
f 8//8 120//120 96//96
f 2//2 8//8 96//96
f 98//98 97//97 144//144
f 98//98 10//10 97//97
f 99//99 98//98 144//144
f 98//98 99//99 112//112
f 100//100 2//2 96//96
f 100//100 1//1 2//2
f 100//100 101//101 102//102
f 100//100 102//102 1//1
f 12//12 11//11 103//103
f 12//12 104//104 11//11
f 101//101 12//12 102//102
f 12//12 103//103 102//102
f 106//106 11//11 104//104
f 106//106 105//105 11//11
f 105//105 106//106 115//115
f 106//106 107//107 115//115
f 16//16 19//19 132//132
f 132//132 131//131 16//16
f 108//108 3//3 21//21
f 3//3 109//109 21//21
f 109//109 117//117 21//21
f 21//21 117//117 22//22
f 110//110 129//129 29//29
f 110//110 29//29 34//34
f 111//111 59//59 128//128
f 111//111 128//128 127//127
f 99//99 42//42 112//112
f 42//42 43//43 112//112
f 29//29 114//114 34//34
f 114//114 29//29 113//113
f 114//114 115//115 107//107
f 115//115 114//114 113//113
f 116//116 118//118 119//119
f 119//119 53//53 116//116
f 116//116 22//22 117//117
f 116//116 117//117 118//118
f 121//121 53//53 119//119
f 121//121 119//119 122//122
f 8//8 121//121 120//120
f 121//121 122//122 120//120
f 10//10 52//52 123//123
f 14//14 5//5 123//123
f 123//123 5//5 147//147
f 123//123 97//97 10//10
f 33//33 36//36 123//123
f 123//123 126//126 33//33
f 147//147 97//97 123//123
f 123//123 125//125 124//124
f 123//123 124//124 14//14
f 125//125 123//123 13//13
f 123//123 35//35 126//126
f 123//123 36//36 13//13
f 51//51 127//127 128//128
f 51//51 128//128 25//25
f 129//129 110//110 51//51
f 25//25 129//129 51//51
f 130//130 131//131 132//132
f 138//138 130//130 132//132
f 134//134 95//95 133//133
f 134//134 31//31 32//32
f 32//32 30//30 134//134
f 136//136 9//9 134//134
f 134//134 135//135 37//37
f 134//134 138//138 95//95
f 133//133 38//38 134//134
f 134//134 30//30 136//136
f 134//134 137//137 31//31
f 37//37 130//130 134//134
f 134//134 130//130 138//138
f 9//9 135//135 134//134
f 94//94 139//139 54//54
f 54//54 139//139 39//39
f 140//140 56//56 54//54
f 54//54 39//39 140//140
f 143//143 142//142 141//141
f 142//142 143//143 93//93
f 144//144 97//97 145//145
f 145//145 99//99 144//144
f 19//19 146//146 145//145
f 145//145 95//95 138//138
f 147//147 95//95 145//145
f 145//145 141//141 148//148
f 145//145 132//132 19//19
f 145//145 146//146 150//150
f 81//81 145//145 111//111
f 145//145 97//97 147//147
f 88//88 145//145 72//72
f 145//145 138//138 132//132
f 145//145 42//42 99//99
f 111//111 145//145 59//59
f 145//145 70//70 42//42
f 145//145 60//60 59//59
f 145//145 67//67 60//60
f 145//145 152//152 141//141
f 145//145 81//81 149//149
f 67//67 145//145 148//148
f 145//145 77//77 72//72
f 145//145 151//151 152//152
f 145//145 149//149 77//77
f 150//150 151//151 145//145
f 91//91 78//78 77//77
f 91//91 49//49 78//78
f 87//87 78//78 49//49
f 72//72 78//78 87//87
f 152//152 151//151 153//153
f 151//151 84//84 153//153
f 141//141 152//152 153//153
f 153//153 143//143 141//141
# 302 faces, 0 coords texture

# End of File