####
#
# OBJ File Generated by Meshlab
#
####
# Object indexj1_left.obj
#
# Vertices: 154
# Faces: 224
#
####
mtllib ./indexj1_left.obj.mtl

vn 0.807325 -0.534582 -0.249898
v 0.004593 0.033496 -0.010014
vn 0.831028 -0.541924 0.125346
v 0.004593 0.033496 -0.006367
vn 0.838871 -0.118270 -0.531326
v 0.006479 0.038050 -0.010014
vn 0.844001 0.116535 0.523528
v 0.006479 0.038050 -0.006367
vn 0.449623 0.338509 -0.826590
v 0.004593 0.042604 -0.010014
vn 0.344552 0.454933 0.821170
v 0.004593 0.042604 -0.006367
vn 0.058944 0.418075 -0.906498
v 0.000039 0.044490 -0.010014
vn -0.058725 0.425315 0.903138
v 0.000039 0.044490 -0.006367
vn -0.242947 0.322690 -0.914794
v -0.004515 0.042604 -0.010014
vn -0.327543 0.248069 0.911689
v -0.004515 0.042604 -0.006367
vn -0.473621 0.117646 -0.872836
v -0.006401 0.038050 -0.010014
vn -0.440660 0.053818 0.896059
v -0.006401 0.038050 -0.006367
vn -0.086720 0.059220 -0.994471
v -0.007570 0.008719 -0.011406
vn 0.387265 0.274835 -0.880052
v 0.004449 0.031130 -0.009959
vn 0.460216 -0.130860 -0.878110
v 0.005196 0.008663 -0.011416
vn 0.946641 -0.298542 -0.121427
v 0.009017 0.012869 -0.008031
vn 0.949071 0.309757 -0.057578
v 0.007840 0.026880 -0.007518
vn 0.948980 0.061886 -0.309205
v 0.009198 0.019874 -0.007775
vn 0.109791 -0.795168 -0.596367
v 0.000035 -0.009562 -0.011445
vn 0.768750 -0.582221 -0.264654
v 0.006762 -0.006776 -0.011445
vn 0.987417 0.136335 -0.080124
v 0.009548 -0.000050 -0.011445
vn 0.510281 0.283400 -0.811972
v 0.006762 0.006677 -0.011445
vn -0.770462 -0.156937 -0.617866
v -0.009477 -0.000050 -0.011445
vn -0.601807 -0.794612 -0.080123
v -0.006691 -0.006776 -0.011445
vn -0.820075 0.570687 0.042353
v -0.006738 0.033248 -0.006366
vn -0.995071 0.086417 -0.048638
v -0.008791 0.008692 -0.009444
vn 0.126872 0.509680 0.850958
v 0.003085 0.032872 -0.006367
vn 0.046257 -0.027871 -0.998541
v 0.003085 0.032872 -0.009901
vn -0.411703 0.072372 -0.908440
v -0.005756 0.034468 -0.010014
vn 0.807325 -0.534582 0.249898
v 0.004593 0.033496 0.010014
vn 0.831028 -0.541924 -0.125346
v 0.004593 0.033496 0.006367
vn 0.838871 -0.118270 0.531326
v 0.006479 0.038050 0.010014
vn 0.844001 0.116535 -0.523528
v 0.006479 0.038050 0.006367
vn 0.449623 0.338509 0.826590
v 0.004593 0.042604 0.010014
vn 0.344552 0.454933 -0.821170
v 0.004593 0.042604 0.006367
vn 0.058944 0.418075 0.906498
v 0.000039 0.044490 0.010014
vn -0.058725 0.425315 -0.903138
v 0.000039 0.044490 0.006367
vn -0.242947 0.322690 0.914794
v -0.004515 0.042604 0.010014
vn -0.327543 0.248069 -0.911689
v -0.004515 0.042604 0.006367
vn -0.473621 0.117646 0.872836
v -0.006401 0.038050 0.010014
vn -0.440660 0.053818 -0.896059
v -0.006401 0.038050 0.006367
vn -0.086720 0.059220 0.994471
v -0.007570 0.008719 0.011406
vn 0.293933 0.198701 0.934945
v 0.004449 0.031130 0.009959
vn 0.436368 0.020469 0.899535
v 0.005196 0.008663 0.011416
vn 0.933822 -0.352745 0.059562
v 0.009017 0.012869 0.008031
vn 0.883501 0.464776 0.058381
v 0.007840 0.026880 0.007518
vn 0.943099 0.113809 0.312429
v 0.009198 0.019874 0.007775
vn -0.109791 -0.795169 0.596366
v 0.000035 -0.009562 0.011445
vn 0.582222 -0.768750 0.264654
v 0.006762 -0.006776 0.011445
vn 0.987417 -0.136335 0.080124
v 0.009548 -0.000050 0.011445
vn 0.641564 0.297660 0.706961
v 0.006762 0.006677 0.011445
vn -0.785702 -0.044365 0.617012
v -0.009477 -0.000050 0.011445
vn -0.794611 -0.601808 0.080123
v -0.006691 -0.006776 0.011445
vn -0.974585 0.222771 -0.023607
v -0.006738 0.033248 0.006366
vn -0.992759 0.089589 0.080020
v -0.008791 0.008692 0.009444
vn 0.194265 0.763906 -0.615393
v 0.003085 0.032872 0.006367
vn 0.046257 -0.027871 0.998541
v 0.003085 0.032872 0.009901
vn -0.411703 0.072372 0.908440
v -0.005756 0.034468 0.010014
vn 0.844001 0.116535 0.523528
v 0.006479 0.038050 -0.006367
vn 0.344552 0.454933 0.821170
v 0.004593 0.042604 -0.006367
vn -0.058725 0.425315 0.903138
v 0.000039 0.044490 -0.006367
vn -0.327543 0.248069 0.911689
v -0.004515 0.042604 -0.006367
vn 0.387265 0.274835 -0.880052
v 0.004449 0.031130 -0.009959
vn 0.460216 -0.130860 -0.878110
v 0.005196 0.008663 -0.011416
vn -0.601807 -0.794612 -0.080123
v -0.006691 -0.006776 -0.011445
vn 0.109791 -0.795168 -0.596367
v 0.000035 -0.009562 -0.011445
vn 0.768750 -0.582221 -0.264654
v 0.006762 -0.006776 -0.011445
vn -0.995071 0.086417 -0.048638
v -0.008791 0.008692 -0.009444
vn -0.770462 -0.156937 -0.617866
v -0.009477 -0.000050 -0.011445
vn 0.987417 0.136335 -0.080124
v 0.009548 -0.000050 -0.011445
vn 0.943099 0.113809 0.312429
v 0.009198 0.019874 0.007775
vn 0.883501 0.464776 0.058381
v 0.007840 0.026880 0.007518
vn 0.831028 -0.541924 0.125346
v 0.004593 0.033496 -0.006367
vn -0.440660 0.053818 0.896059
v -0.006401 0.038050 -0.006367
vn -0.086720 0.059220 -0.994471
v -0.007570 0.008719 -0.011406
vn -0.995071 0.086417 -0.048638
v -0.008791 0.008692 -0.009444
vn 0.194265 0.763906 -0.615393
v 0.003085 0.032872 0.006367
vn 0.109791 -0.795168 -0.596367
v 0.000035 -0.009562 -0.011445
vn 0.510281 0.283400 -0.811972
v 0.006762 0.006677 -0.011445
vn -0.440660 0.053818 0.896059
v -0.006401 0.038050 -0.006367
vn -0.820075 0.570687 0.042353
v -0.006738 0.033248 -0.006366
vn 0.058944 0.418075 -0.906498
v 0.000039 0.044490 -0.010014
vn 0.046257 -0.027871 -0.998541
v 0.003085 0.032872 -0.009901
vn 0.844001 0.116535 -0.523528
v 0.006479 0.038050 0.006367
vn 0.344552 0.454933 -0.821170
v 0.004593 0.042604 0.006367
vn -0.058725 0.425315 -0.903138
v 0.000039 0.044490 0.006367
vn -0.327543 0.248069 -0.911689
v -0.004515 0.042604 0.006367
vn 0.293933 0.198701 0.934945
v 0.004449 0.031130 0.009959
vn 0.943099 0.113809 0.312429
v 0.009198 0.019874 0.007775
vn -0.086720 0.059220 0.994471
v -0.007570 0.008719 0.011406
vn -0.785702 -0.044365 0.617012
v -0.009477 -0.000050 0.011445
vn 0.436368 0.020469 0.899535
v 0.005196 0.008663 0.011416
vn 0.293933 0.198701 0.934945
v 0.004449 0.031130 0.009959
vn -0.411703 0.072372 0.908440
v -0.005756 0.034468 0.010014
vn -0.440660 0.053818 -0.896059
v -0.006401 0.038050 0.006367
vn 0.058944 0.418075 0.906498
v 0.000039 0.044490 0.010014
vn -0.242947 0.322690 0.914794
v -0.004515 0.042604 0.010014
vn -0.974585 0.222771 -0.023607
v -0.006738 0.033248 0.006366
vn -0.992759 0.089589 0.080020
v -0.008791 0.008692 0.009444
vn 0.831028 -0.541924 0.125346
v 0.004593 0.033496 -0.006367
vn 0.838871 -0.118270 -0.531326
v 0.006479 0.038050 -0.010014
vn 0.449623 0.338509 -0.826590
v 0.004593 0.042604 -0.010014
vn -0.242947 0.322690 -0.914794
v -0.004515 0.042604 -0.010014
vn 0.948980 0.061886 -0.309205
v 0.009198 0.019874 -0.007775
vn 0.949071 0.309757 -0.057578
v 0.007840 0.026880 -0.007518
vn 0.460216 -0.130860 -0.878110
v 0.005196 0.008663 -0.011416
vn 0.949071 0.309757 -0.057578
v 0.007840 0.026880 -0.007518
vn 0.946641 -0.298542 -0.121427
v 0.009017 0.012869 -0.008031
vn 0.933822 -0.352745 0.059562
v 0.009017 0.012869 0.008031
vn -0.794611 -0.601808 0.080123
v -0.006691 -0.006776 0.011445
vn -0.820075 0.570687 0.042353
v -0.006738 0.033248 -0.006366
vn -0.109791 -0.795169 0.596366
v 0.000035 -0.009562 0.011445
vn 0.582222 -0.768750 0.264654
v 0.006762 -0.006776 0.011445
vn 0.987417 -0.136335 0.080124
v 0.009548 -0.000050 0.011445
vn -0.992759 0.089589 0.080020
v -0.008791 0.008692 0.009444
vn 0.641564 0.297660 0.706961
v 0.006762 0.006677 0.011445
vn 0.126872 0.509680 0.850958
v 0.003085 0.032872 -0.006367
vn 0.194265 0.763906 -0.615393
v 0.003085 0.032872 0.006367
vn 0.344552 0.454933 0.821170
v 0.004593 0.042604 -0.006367
vn -0.327543 0.248069 0.911689
v -0.004515 0.042604 -0.006367
vn 0.844001 0.116535 0.523528
v 0.006479 0.038050 -0.006367
vn 0.046257 -0.027871 0.998541
v 0.003085 0.032872 0.009901
vn -0.770462 -0.156937 -0.617866
v -0.009477 -0.000050 -0.011445
vn 0.510281 0.283400 -0.811972
v 0.006762 0.006677 -0.011445
vn -0.086720 0.059220 -0.994471
v -0.007570 0.008719 -0.011406
vn -0.411703 0.072372 -0.908440
v -0.005756 0.034468 -0.010014
vn -0.411703 0.072372 -0.908440
v -0.005756 0.034468 -0.010014
vn 0.046257 -0.027871 -0.998541
v 0.003085 0.032872 -0.009901
vn 0.387265 0.274835 -0.880052
v 0.004449 0.031130 -0.009959
vn -0.473621 0.117646 -0.872836
v -0.006401 0.038050 -0.010014
vn 0.436368 0.020469 0.899535
v 0.005196 0.008663 0.011416
vn -0.473621 0.117646 -0.872836
v -0.006401 0.038050 -0.010014
vn 0.058944 0.418075 -0.906498
v 0.000039 0.044490 -0.010014
vn 0.838871 -0.118270 -0.531326
v 0.006479 0.038050 -0.010014
vn 0.807325 -0.534582 -0.249898
v 0.004593 0.033496 -0.010014
vn -0.242947 0.322690 -0.914794
v -0.004515 0.042604 -0.010014
vn 0.807325 -0.534582 0.249898
v 0.004593 0.033496 0.010014
vn 0.838871 -0.118270 0.531326
v 0.006479 0.038050 0.010014
vn 0.449623 0.338509 0.826590
v 0.004593 0.042604 0.010014
vn 0.058944 0.418075 0.906498
v 0.000039 0.044490 0.010014
vn -0.473621 0.117646 0.872836
v -0.006401 0.038050 0.010014
vn 0.933822 -0.352745 0.059562
v 0.009017 0.012869 0.008031
vn 0.844001 0.116535 -0.523528
v 0.006479 0.038050 0.006367
vn -0.974585 0.222771 -0.023607
v -0.006738 0.033248 0.006366
vn -0.327543 0.248069 -0.911689
v -0.004515 0.042604 0.006367
vn -0.109791 -0.795169 0.596366
v 0.000035 -0.009562 0.011445
vn 0.987417 -0.136335 0.080124
v 0.009548 -0.000050 0.011445
vn -0.785702 -0.044365 0.617012
v -0.009477 -0.000050 0.011445
vn -0.086720 0.059220 0.994471
v -0.007570 0.008719 0.011406
vn -0.411703 0.072372 0.908440
v -0.005756 0.034468 0.010014
vn 0.807325 -0.534582 0.249898
v 0.004593 0.033496 0.010014
vn 0.449623 0.338509 0.826590
v 0.004593 0.042604 0.010014
vn -0.242947 0.322690 0.914794
v -0.004515 0.042604 0.010014
vn 0.046257 -0.027871 0.998541
v 0.003085 0.032872 0.009901
# 154 vertices, 0 vertices normals


usemtl material_0
vt 0.000000 0.000000
vt 1.000000 1.000000
vt 1.000000 0.000000
f 2/1/2 3/2/3 4/3/4
f 59/1/59 5/2/5 6/3/6
f 60/1/60 7/2/7 8/3/8
f 61/1/61 9/2/9 10/3/10
f 62/1/62 11/2/11 12/3/12
f 14/1/14 18/2/18 15/3/15
f 46/1/46 63/2/63 43/3/43
f 45/1/45 18/2/18 47/3/47
f 45/1/45 64/2/64 16/3/16
f 53/1/53 23/2/23 24/3/24
f 26/1/26 29/2/29 13/3/13
f 48/1/48 65/2/65 19/3/19
f 49/1/49 66/2/66 20/3/20
f 50/1/50 67/2/67 21/3/21
f 52/1/52 68/2/68 69/3/69
f 51/1/51 70/2/70 22/3/22
f 71/1/71 17/2/17 72/3/72
f 56/1/56 25/2/25 54/3/54
f 28/1/28 73/2/73 27/3/27
f 62/1/62 74/2/74 27/3/27
f 75/1/75 23/2/23 76/3/76
f 14/1/14 77/2/77 43/3/43
f 78/1/78 79/2/79 20/3/20
f 75/1/75 63/2/63 15/3/15
f 80/1/80 29/2/29 81/3/81
f 44/1/44 79/2/79 15/3/15
f 82/1/82 5/2/5 83/3/83
f 32/1/32 31/2/31 33/3/33
f 34/1/34 84/2/84 35/3/35
f 36/1/36 85/2/85 37/3/37
f 38/1/38 86/2/86 39/3/39
f 40/1/40 87/2/87 41/3/41
f 88/1/88 89/2/89 72/3/72
f 58/1/58 55/2/55 42/3/42
f 57/1/57 31/2/31 30/3/30
f 56/1/56 86/2/86 35/3/35
f 90/1/90 55/2/55 91/3/91
f 51/1/51 92/2/92 91/3/91
f 90/1/90 93/2/93 94/3/94
f 58/1/58 95/2/95 54/3/54
f 57/1/57 96/2/96 97/3/97
f 98/1/98 68/2/68 99/3/99
f 1/1/1 3/2/3 100/3/100
f 101/1/101 5/2/5 4/3/4
f 102/1/102 7/2/7 6/3/6
f 82/1/82 9/2/9 8/3/8
f 103/1/103 11/2/11 10/3/10
f 104/1/104 63/2/63 105/3/105
f 106/1/106 18/2/18 16/3/16
f 107/1/107 63/2/63 72/3/72
f 108/1/108 18/2/18 109/3/109
f 44/1/44 64/2/64 109/3/109
f 52/1/52 23/2/23 110/3/110
f 111/1/111 29/2/29 76/3/76
f 53/1/53 65/2/65 112/3/112
f 48/1/48 66/2/66 113/3/113
f 49/1/49 67/2/67 114/3/114
f 115/1/115 68/2/68 91/3/91
f 50/1/50 70/2/70 116/3/116
f 104/1/104 17/2/17 47/3/47
f 117/1/117 25/2/25 118/3/118
f 1/1/1 73/2/73 83/3/83
f 117/1/117 73/2/73 4/3/4
f 117/1/117 119/2/119 8/3/8
f 61/1/61 120/2/120 27/3/27
f 80/1/80 25/2/25 27/3/27
f 117/1/117 121/2/121 6/3/6
f 117/1/117 63/2/63 83/3/83
f 88/1/88 77/2/77 122/3/122
f 56/1/56 63/2/63 27/3/27
f 123/1/123 66/2/66 24/3/24
f 106/1/106 23/2/23 13/3/13
f 123/1/123 64/2/64 22/3/22
f 124/1/124 70/2/70 20/3/20
f 124/1/124 66/2/66 69/3/69
f 14/1/14 125/2/125 126/3/126
f 127/1/127 128/2/128 129/3/129
f 130/1/130 29/2/29 12/3/12
f 51/1/51 79/2/79 131/3/131
f 28/1/28 29/2/29 132/3/132
f 28/1/28 9/2/9 133/3/133
f 28/1/28 5/2/5 134/3/134
f 101/1/101 135/2/135 83/3/83
f 28/1/28 11/2/11 136/3/136
f 137/1/137 31/2/31 138/3/138
f 32/1/32 84/2/84 139/3/139
f 34/1/34 85/2/85 140/3/140
f 36/1/36 86/2/86 97/3/97
f 38/1/38 87/2/87 141/3/141
f 71/1/71 93/2/93 131/3/131
f 44/1/44 142/2/142 47/3/47
f 98/1/98 55/2/55 94/3/94
f 56/1/56 31/2/31 122/3/122
f 143/1/143 31/2/31 118/3/118
f 56/1/56 144/2/144 41/3/41
f 56/1/56 87/2/87 37/3/37
f 56/1/56 85/2/85 33/3/33
f 145/1/145 77/2/77 41/3/41
f 51/1/51 146/2/146 113/3/113
f 49/1/49 147/2/147 116/3/116
f 52/1/52 92/2/92 42/3/42
f 48/1/48 148/2/148 110/3/110
f 52/1/52 146/2/146 116/3/116
f 88/1/88 149/2/149 131/3/131
f 58/1/58 93/2/93 122/3/122
f 40/1/40 95/2/95 94/3/94
f 40/1/40 150/2/150 122/3/122
f 57/1/57 151/2/151 138/3/138
f 57/1/57 152/2/152 140/3/140
f 57/1/57 153/2/153 141/3/141
f 34/1/34 154/2/154 138/3/138
f 111/1/111 68/2/68 54/3/54
f 2/1/2 3/2/3 4/3/4
f 59/1/59 5/2/5 6/3/6
f 60/1/60 7/2/7 8/3/8
f 61/1/61 9/2/9 10/3/10
f 62/1/62 11/2/11 12/3/12
f 14/1/14 18/2/18 15/3/15
f 46/1/46 63/2/63 43/3/43
f 45/1/45 18/2/18 47/3/47
f 45/1/45 64/2/64 16/3/16
f 53/1/53 23/2/23 24/3/24
f 26/1/26 29/2/29 13/3/13
f 48/1/48 65/2/65 19/3/19
f 49/1/49 66/2/66 20/3/20
f 50/1/50 67/2/67 21/3/21
f 52/1/52 68/2/68 69/3/69
f 51/1/51 70/2/70 22/3/22
f 71/1/71 17/2/17 72/3/72
f 56/1/56 25/2/25 54/3/54
f 28/1/28 73/2/73 27/3/27
f 62/1/62 74/2/74 27/3/27
f 75/1/75 23/2/23 76/3/76
f 14/1/14 77/2/77 43/3/43
f 78/1/78 79/2/79 20/3/20
f 75/1/75 63/2/63 15/3/15
f 80/1/80 29/2/29 81/3/81
f 44/1/44 79/2/79 15/3/15
f 82/1/82 5/2/5 83/3/83
f 32/1/32 31/2/31 33/3/33
f 34/1/34 84/2/84 35/3/35
f 36/1/36 85/2/85 37/3/37
f 38/1/38 86/2/86 39/3/39
f 40/1/40 87/2/87 41/3/41
f 88/1/88 89/2/89 72/3/72
f 58/1/58 55/2/55 42/3/42
f 57/1/57 31/2/31 30/3/30
f 56/1/56 86/2/86 35/3/35
f 90/1/90 55/2/55 91/3/91
f 51/1/51 92/2/92 91/3/91
f 90/1/90 93/2/93 94/3/94
f 58/1/58 95/2/95 54/3/54
f 57/1/57 96/2/96 97/3/97
f 98/1/98 68/2/68 99/3/99
f 1/1/1 3/2/3 100/3/100
f 101/1/101 5/2/5 4/3/4
f 102/1/102 7/2/7 6/3/6
f 82/1/82 9/2/9 8/3/8
f 103/1/103 11/2/11 10/3/10
f 104/1/104 63/2/63 105/3/105
f 106/1/106 18/2/18 16/3/16
f 107/1/107 63/2/63 72/3/72
f 108/1/108 18/2/18 109/3/109
f 44/1/44 64/2/64 109/3/109
f 52/1/52 23/2/23 110/3/110
f 111/1/111 29/2/29 76/3/76
f 53/1/53 65/2/65 112/3/112
f 48/1/48 66/2/66 113/3/113
f 49/1/49 67/2/67 114/3/114
f 115/1/115 68/2/68 91/3/91
f 50/1/50 70/2/70 116/3/116
f 104/1/104 17/2/17 47/3/47
f 117/1/117 25/2/25 118/3/118
f 1/1/1 73/2/73 83/3/83
f 117/1/117 73/2/73 4/3/4
f 117/1/117 119/2/119 8/3/8
f 61/1/61 120/2/120 27/3/27
f 80/1/80 25/2/25 27/3/27
f 117/1/117 121/2/121 6/3/6
f 117/1/117 63/2/63 83/3/83
f 88/1/88 77/2/77 122/3/122
f 56/1/56 63/2/63 27/3/27
f 123/1/123 66/2/66 24/3/24
f 106/1/106 23/2/23 13/3/13
f 123/1/123 64/2/64 22/3/22
f 124/1/124 70/2/70 20/3/20
f 124/1/124 66/2/66 69/3/69
f 14/1/14 125/2/125 126/3/126
f 127/1/127 128/2/128 129/3/129
f 130/1/130 29/2/29 12/3/12
f 51/1/51 79/2/79 131/3/131
f 28/1/28 29/2/29 132/3/132
f 28/1/28 9/2/9 133/3/133
f 28/1/28 5/2/5 134/3/134
f 101/1/101 135/2/135 83/3/83
f 28/1/28 11/2/11 136/3/136
f 137/1/137 31/2/31 138/3/138
f 32/1/32 84/2/84 139/3/139
f 34/1/34 85/2/85 140/3/140
f 36/1/36 86/2/86 97/3/97
f 38/1/38 87/2/87 141/3/141
f 71/1/71 93/2/93 131/3/131
f 44/1/44 142/2/142 47/3/47
f 98/1/98 55/2/55 94/3/94
f 56/1/56 31/2/31 122/3/122
f 143/1/143 31/2/31 118/3/118
f 56/1/56 144/2/144 41/3/41
f 56/1/56 87/2/87 37/3/37
f 56/1/56 85/2/85 33/3/33
f 145/1/145 77/2/77 41/3/41
f 51/1/51 146/2/146 113/3/113
f 49/1/49 147/2/147 116/3/116
f 52/1/52 92/2/92 42/3/42
f 48/1/48 148/2/148 110/3/110
f 52/1/52 146/2/146 116/3/116
f 88/1/88 149/2/149 131/3/131
f 58/1/58 93/2/93 122/3/122
f 40/1/40 95/2/95 94/3/94
f 40/1/40 150/2/150 122/3/122
f 57/1/57 151/2/151 138/3/138
f 57/1/57 152/2/152 140/3/140
f 57/1/57 153/2/153 141/3/141
f 34/1/34 154/2/154 138/3/138
f 111/1/111 68/2/68 54/3/54
# 224 faces, 3 coords texture

# End of File