####
#
# OBJ File Generated by Meshlab
#
####
# Object indexj3_left.obj
#
# Vertices: 56
# Faces: 80
#
####
mtllib ./indexj3_left.obj.mtl

vn 0.940252 0.033615 0.338817
v 0.006481 0.006497 0.002837
vn 0.940680 0.267738 0.208416
v 0.004219 0.017908 0.001668
vn 0.892274 0.291021 -0.345188
v 0.004155 0.017919 -0.002066
vn 0.934281 0.148045 -0.324348
v 0.006445 0.006650 -0.003268
vn 0.764638 0.562062 -0.315301
v 0.002459 0.021062 -0.001422
vn 0.160872 0.957468 -0.239532
v -0.000751 0.022065 -0.005246
vn 0.475486 0.251774 -0.842925
v 0.001301 0.017468 -0.006245
vn -0.960005 0.224319 -0.167547
v -0.002799 0.020246 -0.004936
vn -0.995311 0.079918 -0.054493
v -0.004648 0.005242 -0.006831
vn -0.055966 -0.795464 -0.603411
v -0.003293 0.005242 -0.008083
vn -0.366423 0.401519 -0.839355
v -0.001824 0.021100 -0.005640
vn 0.200354 -0.681562 -0.703798
v 0.003014 0.005823 -0.008097
vn 0.312274 0.902553 0.296449
v -0.000753 0.022065 0.005210
vn -0.484745 0.535247 0.691761
v -0.001865 0.021223 0.005449
vn 0.492592 -0.864151 -0.102934
v 0.004391 0.004522 -0.006024
vn 0.267908 -0.821997 0.502540
v 0.003014 0.005823 0.008097
vn -0.073064 -0.993747 0.084433
v 0.004576 0.004517 0.005692
vn -0.994869 -0.045452 0.090386
v -0.004648 0.005242 0.006831
vn -0.127856 -0.495396 0.859206
v -0.003293 0.005242 0.008083
vn 0.609604 0.752487 0.249289
v 0.002459 0.021062 0.001386
vn -0.984628 0.152606 0.084970
v -0.002799 0.020247 0.004899
vn 0.496016 0.253732 0.830414
v 0.001226 0.017625 0.006190
vn 0.934281 0.148045 -0.324348
v 0.006445 0.006650 -0.003268
vn 0.160872 0.957468 -0.239532
v -0.000751 0.022065 -0.005246
vn 0.160872 0.957468 -0.239532
v -0.000751 0.022065 -0.005246
vn -0.995311 0.079918 -0.054493
v -0.004648 0.005242 -0.006831
vn -0.994869 -0.045452 0.090386
v -0.004648 0.005242 0.006831
vn -0.484745 0.535247 0.691761
v -0.001865 0.021223 0.005449
vn -0.960005 0.224319 -0.167547
v -0.002799 0.020246 -0.004936
vn -0.984628 0.152606 0.084970
v -0.002799 0.020247 0.004899
vn 0.764638 0.562062 -0.315301
v 0.002459 0.021062 -0.001422
vn 0.609604 0.752487 0.249289
v 0.002459 0.021062 0.001386
vn -0.055966 -0.795464 -0.603411
v -0.003293 0.005242 -0.008083
vn 0.267908 -0.821997 0.502540
v 0.003014 0.005823 0.008097
vn 0.200354 -0.681562 -0.703798
v 0.003014 0.005823 -0.008097
vn 0.934281 0.148045 -0.324348
v 0.006445 0.006650 -0.003268
vn 0.940680 0.267738 0.208416
v 0.004219 0.017908 0.001668
vn -0.127856 -0.495396 0.859206
v -0.003293 0.005242 0.008083
vn -0.484745 0.535247 0.691761
v -0.001865 0.021223 0.005449
vn -0.073064 -0.993747 0.084433
v 0.004576 0.004517 0.005692
vn 0.496016 0.253732 0.830414
v 0.001226 0.017625 0.006190
vn 0.475486 0.251774 -0.842925
v 0.001301 0.017468 -0.006245
vn 0.892274 0.291021 -0.345188
v 0.004155 0.017919 -0.002066
vn 0.764638 0.562062 -0.315301
v 0.002459 0.021062 -0.001422
vn -0.366423 0.401519 -0.839355
v -0.001824 0.021100 -0.005640
vn -0.960005 0.224319 -0.167547
v -0.002799 0.020246 -0.004936
vn 0.492592 -0.864151 -0.102934
v 0.004391 0.004522 -0.006024
vn -0.995311 0.079918 -0.054493
v -0.004648 0.005242 -0.006831
vn -0.055966 -0.795464 -0.603411
v -0.003293 0.005242 -0.008083
vn -0.073064 -0.993747 0.084433
v 0.004576 0.004517 0.005692
vn 0.940252 0.033615 0.338817
v 0.006481 0.006497 0.002837
vn 0.312274 0.902553 0.296449
v -0.000753 0.022065 0.005210
vn 0.496016 0.253732 0.830414
v 0.001226 0.017625 0.006190
vn 0.312274 0.902553 0.296449
v -0.000753 0.022065 0.005210
vn 0.475486 0.251774 -0.842925
v 0.001301 0.017468 -0.006245
vn 0.200354 -0.681562 -0.703798
v 0.003014 0.005823 -0.008097
# 56 vertices, 0 vertices normals


usemtl material_0
vt 0.000000 0.000000
vt 1.000000 1.000000
vt 1.000000 0.000000
f 2/1/2 4/2/4 3/3/3
f 5/1/5 7/2/7 6/3/6
f 8/1/8 10/2/10 9/3/9
f 23/1/23 7/2/7 3/3/3
f 24/1/24 14/2/14 13/3/13
f 12/1/12 17/2/17 16/3/16
f 18/1/18 10/2/10 19/3/19
f 20/1/20 25/2/25 13/3/13
f 21/1/21 26/2/26 27/3/27
f 28/1/28 29/2/29 30/3/30
f 2/1/2 31/2/31 32/3/32
f 33/1/33 34/2/34 19/3/19
f 23/1/23 15/2/15 35/3/35
f 1/1/1 15/2/15 36/3/36
f 20/1/20 22/2/22 37/3/37
f 21/1/21 38/2/38 39/3/39
f 1/1/1 22/2/22 16/3/16
f 1/1/1 34/2/34 40/3/40
f 28/1/28 38/2/38 41/3/41
f 42/1/42 10/2/10 11/3/11
f 1/1/1 4/2/4 37/3/37
f 43/1/43 7/2/7 44/3/44
f 45/1/45 10/2/10 46/3/46
f 12/1/12 7/2/7 36/3/36
f 45/1/45 14/2/14 6/3/6
f 47/1/47 17/2/17 35/3/35
f 48/1/48 10/2/10 27/3/27
f 5/1/5 25/2/25 32/3/32
f 8/1/8 26/2/26 30/3/30
f 45/1/45 29/2/29 39/3/39
f 43/1/43 31/2/31 37/3/37
f 12/1/12 34/2/34 49/3/49
f 50/1/50 15/2/15 51/3/51
f 52/1/52 22/2/22 32/3/32
f 18/1/18 38/2/38 30/3/30
f 2/1/2 22/2/22 51/3/51
f 53/1/53 54/2/54 39/3/39
f 53/1/53 38/2/38 16/3/16
f 45/1/45 25/2/25 55/3/55
f 42/1/42 56/2/56 49/3/49
f 2/1/2 4/2/4 3/3/3
f 5/1/5 7/2/7 6/3/6
f 8/1/8 10/2/10 9/3/9
f 23/1/23 7/2/7 3/3/3
f 24/1/24 14/2/14 13/3/13
f 12/1/12 17/2/17 16/3/16
f 18/1/18 10/2/10 19/3/19
f 20/1/20 25/2/25 13/3/13
f 21/1/21 26/2/26 27/3/27
f 28/1/28 29/2/29 30/3/30
f 2/1/2 31/2/31 32/3/32
f 33/1/33 34/2/34 19/3/19
f 23/1/23 15/2/15 35/3/35
f 1/1/1 15/2/15 36/3/36
f 20/1/20 22/2/22 37/3/37
f 21/1/21 38/2/38 39/3/39
f 1/1/1 22/2/22 16/3/16
f 1/1/1 34/2/34 40/3/40
f 28/1/28 38/2/38 41/3/41
f 42/1/42 10/2/10 11/3/11
f 1/1/1 4/2/4 37/3/37
f 43/1/43 7/2/7 44/3/44
f 45/1/45 10/2/10 46/3/46
f 12/1/12 7/2/7 36/3/36
f 45/1/45 14/2/14 6/3/6
f 47/1/47 17/2/17 35/3/35
f 48/1/48 10/2/10 27/3/27
f 5/1/5 25/2/25 32/3/32
f 8/1/8 26/2/26 30/3/30
f 45/1/45 29/2/29 39/3/39
f 43/1/43 31/2/31 37/3/37
f 12/1/12 34/2/34 49/3/49
f 50/1/50 15/2/15 51/3/51
f 52/1/52 22/2/22 32/3/32
f 18/1/18 38/2/38 30/3/30
f 2/1/2 22/2/22 51/3/51
f 53/1/53 54/2/54 39/3/39
f 53/1/53 38/2/38 16/3/16
f 45/1/45 25/2/25 55/3/55
f 42/1/42 56/2/56 49/3/49
# 80 faces, 3 coords texture

# End of File