####
#
# OBJ File Generated by Meshlab
#
####
# Object indexj1_right.obj
#
# Vertices: 154
# Faces: 224
#
####
mtllib ./indexj1_right.obj.mtl

vn 0.807325 0.534582 -0.249898
v 0.004593 -0.033496 -0.010014
vn 0.831028 0.541924 0.125346
v 0.004593 -0.033496 -0.006367
vn 0.838871 0.118270 -0.531326
v 0.006479 -0.038050 -0.010014
vn 0.844001 -0.116535 0.523528
v 0.006479 -0.038050 -0.006367
vn 0.449623 -0.338509 -0.826590
v 0.004593 -0.042604 -0.010014
vn 0.344552 -0.454933 0.821170
v 0.004593 -0.042604 -0.006367
vn 0.058944 -0.418075 -0.906498
v 0.000039 -0.044490 -0.010014
vn -0.058725 -0.425315 0.903138
v 0.000039 -0.044490 -0.006367
vn -0.242947 -0.322690 -0.914794
v -0.004515 -0.042604 -0.010014
vn -0.327543 -0.248069 0.911689
v -0.004515 -0.042604 -0.006367
vn -0.473621 -0.117646 -0.872836
v -0.006401 -0.038050 -0.010014
vn -0.440660 -0.053818 0.896059
v -0.006401 -0.038050 -0.006367
vn -0.086720 -0.059220 -0.994471
v -0.007570 -0.008719 -0.011406
vn 0.387265 -0.274835 -0.880052
v 0.004449 -0.031130 -0.009959
vn 0.460216 0.130860 -0.878110
v 0.005196 -0.008663 -0.011416
vn 0.946641 0.298542 -0.121427
v 0.009017 -0.012869 -0.008031
vn 0.949071 -0.309757 -0.057578
v 0.007840 -0.026880 -0.007518
vn 0.948980 -0.061886 -0.309205
v 0.009198 -0.019874 -0.007775
vn 0.109791 0.795168 -0.596367
v 0.000035 0.009562 -0.011445
vn 0.768750 0.582221 -0.264654
v 0.006762 0.006776 -0.011445
vn 0.987417 -0.136335 -0.080124
v 0.009548 0.000050 -0.011445
vn 0.510281 -0.283400 -0.811972
v 0.006762 -0.006677 -0.011445
vn -0.770462 0.156937 -0.617866
v -0.009477 0.000050 -0.011445
vn -0.601807 0.794612 -0.080123
v -0.006691 0.006776 -0.011445
vn -0.820075 -0.570687 0.042353
v -0.006738 -0.033248 -0.006366
vn -0.995071 -0.086417 -0.048638
v -0.008791 -0.008692 -0.009444
vn 0.126872 -0.509680 0.850958
v 0.003085 -0.032872 -0.006367
vn 0.046257 0.027871 -0.998541
v 0.003085 -0.032872 -0.009901
vn -0.411703 -0.072372 -0.908440
v -0.005756 -0.034468 -0.010014
vn 0.807325 0.534582 0.249898
v 0.004593 -0.033496 0.010014
vn 0.831028 0.541924 -0.125346
v 0.004593 -0.033496 0.006367
vn 0.838871 0.118270 0.531326
v 0.006479 -0.038050 0.010014
vn 0.844001 -0.116535 -0.523528
v 0.006479 -0.038050 0.006367
vn 0.449623 -0.338509 0.826590
v 0.004593 -0.042604 0.010014
vn 0.344552 -0.454933 -0.821170
v 0.004593 -0.042604 0.006367
vn 0.058944 -0.418075 0.906498
v 0.000039 -0.044490 0.010014
vn -0.058725 -0.425315 -0.903138
v 0.000039 -0.044490 0.006367
vn -0.242947 -0.322690 0.914794
v -0.004515 -0.042604 0.010014
vn -0.327543 -0.248069 -0.911689
v -0.004515 -0.042604 0.006367
vn -0.473621 -0.117646 0.872836
v -0.006401 -0.038050 0.010014
vn -0.440660 -0.053818 -0.896059
v -0.006401 -0.038050 0.006367
vn -0.086720 -0.059220 0.994471
v -0.007570 -0.008719 0.011406
vn 0.293933 -0.198701 0.934945
v 0.004449 -0.031130 0.009959
vn 0.436368 -0.020469 0.899535
v 0.005196 -0.008663 0.011416
vn 0.933822 0.352745 0.059562
v 0.009017 -0.012869 0.008031
vn 0.883501 -0.464776 0.058381
v 0.007840 -0.026880 0.007518
vn 0.943099 -0.113809 0.312429
v 0.009198 -0.019874 0.007775
vn -0.109791 0.795169 0.596366
v 0.000035 0.009562 0.011445
vn 0.582222 0.768750 0.264654
v 0.006762 0.006776 0.011445
vn 0.987417 0.136335 0.080124
v 0.009548 0.000050 0.011445
vn 0.641564 -0.297660 0.706961
v 0.006762 -0.006677 0.011445
vn -0.785702 0.044365 0.617012
v -0.009477 0.000050 0.011445
vn -0.794611 0.601808 0.080123
v -0.006691 0.006776 0.011445
vn -0.974585 -0.222771 -0.023607
v -0.006738 -0.033248 0.006366
vn -0.992759 -0.089589 0.080020
v -0.008791 -0.008692 0.009444
vn 0.194265 -0.763906 -0.615393
v 0.003085 -0.032872 0.006367
vn 0.046257 0.027871 0.998541
v 0.003085 -0.032872 0.009901
vn -0.411703 -0.072372 0.908440
v -0.005756 -0.034468 0.010014
vn 0.844001 -0.116535 0.523528
v 0.006479 -0.038050 -0.006367
vn 0.344552 -0.454933 0.821170
v 0.004593 -0.042604 -0.006367
vn -0.058725 -0.425315 0.903138
v 0.000039 -0.044490 -0.006367
vn -0.327543 -0.248069 0.911689
v -0.004515 -0.042604 -0.006367
vn 0.387265 -0.274835 -0.880052
v 0.004449 -0.031130 -0.009959
vn 0.460216 0.130860 -0.878110
v 0.005196 -0.008663 -0.011416
vn -0.601807 0.794612 -0.080123
v -0.006691 0.006776 -0.011445
vn 0.109791 0.795168 -0.596367
v 0.000035 0.009562 -0.011445
vn 0.768750 0.582221 -0.264654
v 0.006762 0.006776 -0.011445
vn -0.770462 0.156937 -0.617866
v -0.009477 0.000050 -0.011445
vn -0.995071 -0.086417 -0.048638
v -0.008791 -0.008692 -0.009444
vn 0.987417 -0.136335 -0.080124
v 0.009548 0.000050 -0.011445
vn 0.943099 -0.113809 0.312429
v 0.009198 -0.019874 0.007775
vn 0.883501 -0.464776 0.058381
v 0.007840 -0.026880 0.007518
vn 0.831028 0.541924 0.125346
v 0.004593 -0.033496 -0.006367
vn -0.440660 -0.053818 0.896059
v -0.006401 -0.038050 -0.006367
vn -0.086720 -0.059220 -0.994471
v -0.007570 -0.008719 -0.011406
vn -0.995071 -0.086417 -0.048638
v -0.008791 -0.008692 -0.009444
vn 0.194265 -0.763906 -0.615393
v 0.003085 -0.032872 0.006367
vn 0.109791 0.795168 -0.596367
v 0.000035 0.009562 -0.011445
vn 0.510281 -0.283400 -0.811972
v 0.006762 -0.006677 -0.011445
vn -0.440660 -0.053818 0.896059
v -0.006401 -0.038050 -0.006367
vn -0.820075 -0.570687 0.042353
v -0.006738 -0.033248 -0.006366
vn 0.058944 -0.418075 -0.906498
v 0.000039 -0.044490 -0.010014
vn 0.046257 0.027871 -0.998541
v 0.003085 -0.032872 -0.009901
vn 0.844001 -0.116535 -0.523528
v 0.006479 -0.038050 0.006367
vn 0.344552 -0.454933 -0.821170
v 0.004593 -0.042604 0.006367
vn -0.058725 -0.425315 -0.903138
v 0.000039 -0.044490 0.006367
vn -0.327543 -0.248069 -0.911689
v -0.004515 -0.042604 0.006367
vn 0.293933 -0.198701 0.934945
v 0.004449 -0.031130 0.009959
vn 0.943099 -0.113809 0.312429
v 0.009198 -0.019874 0.007775
vn -0.086720 -0.059220 0.994471
v -0.007570 -0.008719 0.011406
vn -0.785702 0.044365 0.617012
v -0.009477 0.000050 0.011445
vn 0.436368 -0.020469 0.899535
v 0.005196 -0.008663 0.011416
vn -0.411703 -0.072372 0.908440
v -0.005756 -0.034468 0.010014
vn 0.293933 -0.198701 0.934945
v 0.004449 -0.031130 0.009959
vn -0.440660 -0.053818 -0.896059
v -0.006401 -0.038050 0.006367
vn -0.242947 -0.322690 0.914794
v -0.004515 -0.042604 0.010014
vn 0.058944 -0.418075 0.906498
v 0.000039 -0.044490 0.010014
vn -0.974585 -0.222771 -0.023607
v -0.006738 -0.033248 0.006366
vn -0.992759 -0.089589 0.080020
v -0.008791 -0.008692 0.009444
vn 0.831028 0.541924 0.125346
v 0.004593 -0.033496 -0.006367
vn 0.838871 0.118270 -0.531326
v 0.006479 -0.038050 -0.010014
vn 0.449623 -0.338509 -0.826590
v 0.004593 -0.042604 -0.010014
vn -0.242947 -0.322690 -0.914794
v -0.004515 -0.042604 -0.010014
vn 0.948980 -0.061886 -0.309205
v 0.009198 -0.019874 -0.007775
vn 0.949071 -0.309757 -0.057578
v 0.007840 -0.026880 -0.007518
vn 0.460216 0.130860 -0.878110
v 0.005196 -0.008663 -0.011416
vn 0.949071 -0.309757 -0.057578
v 0.007840 -0.026880 -0.007518
vn 0.946641 0.298542 -0.121427
v 0.009017 -0.012869 -0.008031
vn 0.933822 0.352745 0.059562
v 0.009017 -0.012869 0.008031
vn -0.794611 0.601808 0.080123
v -0.006691 0.006776 0.011445
vn -0.820075 -0.570687 0.042353
v -0.006738 -0.033248 -0.006366
vn -0.109791 0.795169 0.596366
v 0.000035 0.009562 0.011445
vn 0.582222 0.768750 0.264654
v 0.006762 0.006776 0.011445
vn 0.987417 0.136335 0.080124
v 0.009548 0.000050 0.011445
vn -0.992759 -0.089589 0.080020
v -0.008791 -0.008692 0.009444
vn 0.641564 -0.297660 0.706961
v 0.006762 -0.006677 0.011445
vn 0.126872 -0.509680 0.850958
v 0.003085 -0.032872 -0.006367
vn 0.194265 -0.763906 -0.615393
v 0.003085 -0.032872 0.006367
vn 0.344552 -0.454933 0.821170
v 0.004593 -0.042604 -0.006367
vn -0.327543 -0.248069 0.911689
v -0.004515 -0.042604 -0.006367
vn 0.844001 -0.116535 0.523528
v 0.006479 -0.038050 -0.006367
vn 0.046257 0.027871 0.998541
v 0.003085 -0.032872 0.009901
vn -0.770462 0.156937 -0.617866
v -0.009477 0.000050 -0.011445
vn 0.510281 -0.283400 -0.811972
v 0.006762 -0.006677 -0.011445
vn -0.411703 -0.072372 -0.908440
v -0.005756 -0.034468 -0.010014
vn -0.086720 -0.059220 -0.994471
v -0.007570 -0.008719 -0.011406
vn -0.411703 -0.072372 -0.908440
v -0.005756 -0.034468 -0.010014
vn 0.387265 -0.274835 -0.880052
v 0.004449 -0.031130 -0.009959
vn 0.046257 0.027871 -0.998541
v 0.003085 -0.032872 -0.009901
vn -0.473621 -0.117646 -0.872836
v -0.006401 -0.038050 -0.010014
vn 0.436368 -0.020469 0.899535
v 0.005196 -0.008663 0.011416
vn -0.473621 -0.117646 -0.872836
v -0.006401 -0.038050 -0.010014
vn 0.058944 -0.418075 -0.906498
v 0.000039 -0.044490 -0.010014
vn 0.838871 0.118270 -0.531326
v 0.006479 -0.038050 -0.010014
vn 0.807325 0.534582 -0.249898
v 0.004593 -0.033496 -0.010014
vn -0.242947 -0.322690 -0.914794
v -0.004515 -0.042604 -0.010014
vn 0.807325 0.534582 0.249898
v 0.004593 -0.033496 0.010014
vn 0.838871 0.118270 0.531326
v 0.006479 -0.038050 0.010014
vn 0.449623 -0.338509 0.826590
v 0.004593 -0.042604 0.010014
vn 0.058944 -0.418075 0.906498
v 0.000039 -0.044490 0.010014
vn -0.473621 -0.117646 0.872836
v -0.006401 -0.038050 0.010014
vn 0.933822 0.352745 0.059562
v 0.009017 -0.012869 0.008031
vn 0.844001 -0.116535 -0.523528
v 0.006479 -0.038050 0.006367
vn -0.974585 -0.222771 -0.023607
v -0.006738 -0.033248 0.006366
vn -0.327543 -0.248069 -0.911689
v -0.004515 -0.042604 0.006367
vn -0.109791 0.795169 0.596366
v 0.000035 0.009562 0.011445
vn 0.987417 0.136335 0.080124
v 0.009548 0.000050 0.011445
vn -0.785702 0.044365 0.617012
v -0.009477 0.000050 0.011445
vn -0.086720 -0.059220 0.994471
v -0.007570 -0.008719 0.011406
vn -0.411703 -0.072372 0.908440
v -0.005756 -0.034468 0.010014
vn 0.807325 0.534582 0.249898
v 0.004593 -0.033496 0.010014
vn 0.449623 -0.338509 0.826590
v 0.004593 -0.042604 0.010014
vn -0.242947 -0.322690 0.914794
v -0.004515 -0.042604 0.010014
vn 0.046257 0.027871 0.998541
v 0.003085 -0.032872 0.009901
# 154 vertices, 0 vertices normals


usemtl material_0
vt 0.000000 0.000000
vt 1.000000 0.000000
vt 1.000000 1.000000
f 2/1/2 4/2/4 3/3/3
f 59/1/59 6/2/6 5/3/5
f 60/1/60 8/2/8 7/3/7
f 61/1/61 10/2/10 9/3/9
f 62/1/62 12/2/12 11/3/11
f 14/1/14 15/2/15 18/3/18
f 46/1/46 43/2/43 63/3/63
f 45/1/45 47/2/47 18/3/18
f 45/1/45 16/2/16 64/3/64
f 53/1/53 24/2/24 23/3/23
f 26/1/26 13/2/13 29/3/29
f 48/1/48 19/2/19 65/3/65
f 49/1/49 20/2/20 66/3/66
f 50/1/50 21/2/21 67/3/67
f 52/1/52 68/2/68 69/3/69
f 51/1/51 22/2/22 70/3/70
f 71/1/71 72/2/72 17/3/17
f 56/1/56 54/2/54 25/3/25
f 28/1/28 27/2/27 73/3/73
f 62/1/62 27/2/27 74/3/74
f 75/1/75 76/2/76 23/3/23
f 14/1/14 43/2/43 77/3/77
f 78/1/78 20/2/20 79/3/79
f 75/1/75 15/2/15 63/3/63
f 80/1/80 81/2/81 29/3/29
f 44/1/44 15/2/15 79/3/79
f 82/1/82 83/2/83 5/3/5
f 32/1/32 33/2/33 31/3/31
f 34/1/34 35/2/35 84/3/84
f 36/1/36 37/2/37 85/3/85
f 38/1/38 39/2/39 86/3/86
f 40/1/40 41/2/41 87/3/87
f 88/1/88 72/2/72 89/3/89
f 58/1/58 42/2/42 55/3/55
f 57/1/57 30/2/30 31/3/31
f 56/1/56 35/2/35 86/3/86
f 90/1/90 91/2/91 55/3/55
f 51/1/51 91/2/91 92/3/92
f 90/1/90 93/2/93 94/3/94
f 58/1/58 54/2/54 95/3/95
f 57/1/57 96/2/96 97/3/97
f 98/1/98 99/2/99 69/3/69
f 1/1/1 100/2/100 3/3/3
f 101/1/101 4/2/4 5/3/5
f 102/1/102 6/2/6 7/3/7
f 82/1/82 8/2/8 9/3/9
f 103/1/103 10/2/10 11/3/11
f 104/1/104 105/2/105 63/3/63
f 106/1/106 16/2/16 18/3/18
f 107/1/107 72/2/72 63/3/63
f 108/1/108 109/2/109 18/3/18
f 44/1/44 109/2/109 64/3/64
f 52/1/52 110/2/110 23/3/23
f 111/1/111 76/2/76 29/3/29
f 53/1/53 112/2/112 65/3/65
f 48/1/48 113/2/113 66/3/66
f 49/1/49 114/2/114 67/3/67
f 115/1/115 91/2/91 69/3/69
f 50/1/50 116/2/116 70/3/70
f 104/1/104 47/2/47 17/3/17
f 117/1/117 118/2/118 25/3/25
f 1/1/1 83/2/83 73/3/73
f 117/1/117 4/2/4 73/3/73
f 117/1/117 8/2/8 119/3/119
f 61/1/61 27/2/27 120/3/120
f 80/1/80 27/2/27 25/3/25
f 117/1/117 6/2/6 121/3/121
f 117/1/117 83/2/83 63/3/63
f 88/1/88 122/2/122 77/3/77
f 56/1/56 27/2/27 63/3/63
f 123/1/123 24/2/24 66/3/66
f 106/1/106 13/2/13 23/3/23
f 123/1/123 22/2/22 64/3/64
f 124/1/124 20/2/20 70/3/70
f 124/1/124 68/2/68 66/3/66
f 14/1/14 125/2/125 126/3/126
f 127/1/127 128/2/128 129/3/129
f 130/1/130 12/2/12 29/3/29
f 51/1/51 131/2/131 79/3/79
f 28/1/28 132/2/132 29/3/29
f 28/1/28 133/2/133 9/3/9
f 28/1/28 134/2/134 5/3/5
f 101/1/101 83/2/83 135/3/135
f 28/1/28 136/2/136 11/3/11
f 137/1/137 138/2/138 31/3/31
f 32/1/32 139/2/139 84/3/84
f 34/1/34 140/2/140 85/3/85
f 36/1/36 96/2/96 86/3/86
f 38/1/38 141/2/141 87/3/87
f 71/1/71 131/2/131 94/3/94
f 44/1/44 47/2/47 142/3/142
f 98/1/98 93/2/93 55/3/55
f 56/1/56 122/2/122 31/3/31
f 143/1/143 118/2/118 31/3/31
f 56/1/56 41/2/41 144/3/144
f 56/1/56 37/2/37 87/3/87
f 56/1/56 33/2/33 85/3/85
f 145/1/145 41/2/41 77/3/77
f 51/1/51 113/2/113 146/3/146
f 49/1/49 116/2/116 147/3/147
f 52/1/52 42/2/42 92/3/92
f 48/1/48 110/2/110 148/3/148
f 52/1/52 116/2/116 146/3/146
f 88/1/88 131/2/131 149/3/149
f 58/1/58 122/2/122 94/3/94
f 40/1/40 93/2/93 95/3/95
f 40/1/40 122/2/122 150/3/150
f 57/1/57 138/2/138 151/3/151
f 57/1/57 140/2/140 152/3/152
f 57/1/57 141/2/141 153/3/153
f 34/1/34 138/2/138 154/3/154
f 111/1/111 54/2/54 69/3/69
f 2/1/2 4/2/4 3/3/3
f 59/1/59 6/2/6 5/3/5
f 60/1/60 8/2/8 7/3/7
f 61/1/61 10/2/10 9/3/9
f 62/1/62 12/2/12 11/3/11
f 14/1/14 15/2/15 18/3/18
f 46/1/46 43/2/43 63/3/63
f 45/1/45 47/2/47 18/3/18
f 45/1/45 16/2/16 64/3/64
f 53/1/53 24/2/24 23/3/23
f 26/1/26 13/2/13 29/3/29
f 48/1/48 19/2/19 65/3/65
f 49/1/49 20/2/20 66/3/66
f 50/1/50 21/2/21 67/3/67
f 52/1/52 68/2/68 69/3/69
f 51/1/51 22/2/22 70/3/70
f 71/1/71 72/2/72 17/3/17
f 56/1/56 54/2/54 25/3/25
f 28/1/28 27/2/27 73/3/73
f 62/1/62 27/2/27 74/3/74
f 75/1/75 76/2/76 23/3/23
f 14/1/14 43/2/43 77/3/77
f 78/1/78 20/2/20 79/3/79
f 75/1/75 15/2/15 63/3/63
f 80/1/80 81/2/81 29/3/29
f 44/1/44 15/2/15 79/3/79
f 82/1/82 83/2/83 5/3/5
f 32/1/32 33/2/33 31/3/31
f 34/1/34 35/2/35 84/3/84
f 36/1/36 37/2/37 85/3/85
f 38/1/38 39/2/39 86/3/86
f 40/1/40 41/2/41 87/3/87
f 88/1/88 72/2/72 89/3/89
f 58/1/58 42/2/42 55/3/55
f 57/1/57 30/2/30 31/3/31
f 56/1/56 35/2/35 86/3/86
f 90/1/90 91/2/91 55/3/55
f 51/1/51 91/2/91 92/3/92
f 90/1/90 93/2/93 94/3/94
f 58/1/58 54/2/54 95/3/95
f 57/1/57 96/2/96 97/3/97
f 98/1/98 99/2/99 69/3/69
f 1/1/1 100/2/100 3/3/3
f 101/1/101 4/2/4 5/3/5
f 102/1/102 6/2/6 7/3/7
f 82/1/82 8/2/8 9/3/9
f 103/1/103 10/2/10 11/3/11
f 104/1/104 105/2/105 63/3/63
f 106/1/106 16/2/16 18/3/18
f 107/1/107 72/2/72 63/3/63
f 108/1/108 109/2/109 18/3/18
f 44/1/44 109/2/109 64/3/64
f 52/1/52 110/2/110 23/3/23
f 111/1/111 76/2/76 29/3/29
f 53/1/53 112/2/112 65/3/65
f 48/1/48 113/2/113 66/3/66
f 49/1/49 114/2/114 67/3/67
f 115/1/115 91/2/91 69/3/69
f 50/1/50 116/2/116 70/3/70
f 104/1/104 47/2/47 17/3/17
f 117/1/117 118/2/118 25/3/25
f 1/1/1 83/2/83 73/3/73
f 117/1/117 4/2/4 73/3/73
f 117/1/117 8/2/8 119/3/119
f 61/1/61 27/2/27 120/3/120
f 80/1/80 27/2/27 25/3/25
f 117/1/117 6/2/6 121/3/121
f 117/1/117 83/2/83 63/3/63
f 88/1/88 122/2/122 77/3/77
f 56/1/56 27/2/27 63/3/63
f 123/1/123 24/2/24 66/3/66
f 106/1/106 13/2/13 23/3/23
f 123/1/123 22/2/22 64/3/64
f 124/1/124 20/2/20 70/3/70
f 124/1/124 68/2/68 66/3/66
f 14/1/14 125/2/125 126/3/126
f 127/1/127 128/2/128 129/3/129
f 130/1/130 12/2/12 29/3/29
f 51/1/51 131/2/131 79/3/79
f 28/1/28 132/2/132 29/3/29
f 28/1/28 133/2/133 9/3/9
f 28/1/28 134/2/134 5/3/5
f 101/1/101 83/2/83 135/3/135
f 28/1/28 136/2/136 11/3/11
f 137/1/137 138/2/138 31/3/31
f 32/1/32 139/2/139 84/3/84
f 34/1/34 140/2/140 85/3/85
f 36/1/36 96/2/96 86/3/86
f 38/1/38 141/2/141 87/3/87
f 71/1/71 131/2/131 94/3/94
f 44/1/44 47/2/47 142/3/142
f 98/1/98 93/2/93 55/3/55
f 56/1/56 122/2/122 31/3/31
f 143/1/143 118/2/118 31/3/31
f 56/1/56 41/2/41 144/3/144
f 56/1/56 37/2/37 87/3/87
f 56/1/56 33/2/33 85/3/85
f 145/1/145 41/2/41 77/3/77
f 51/1/51 113/2/113 146/3/146
f 49/1/49 116/2/116 147/3/147
f 52/1/52 42/2/42 92/3/92
f 48/1/48 110/2/110 148/3/148
f 52/1/52 116/2/116 146/3/146
f 88/1/88 131/2/131 149/3/149
f 58/1/58 122/2/122 94/3/94
f 40/1/40 93/2/93 95/3/95
f 40/1/40 122/2/122 150/3/150
f 57/1/57 138/2/138 151/3/151
f 57/1/57 140/2/140 152/3/152
f 57/1/57 141/2/141 153/3/153
f 34/1/34 138/2/138 154/3/154
f 111/1/111 54/2/54 69/3/69
# 224 faces, 3 coords texture

# End of File