####
#
# OBJ File Generated by Meshlab
#
####
# Object middlej1_left.obj
#
# Vertices: 155
# Faces: 224
#
####
mtllib ./middlej1_left.obj.mtl

vn 0.814760 -0.539248 -0.213021
v 0.004593 0.033496 -0.011300
vn 0.832837 -0.543229 0.106231
v 0.004593 0.033496 -0.006987
vn 0.874963 -0.123240 -0.468244
v 0.006479 0.038050 -0.011300
vn 0.878997 0.121366 0.461123
v 0.006479 0.038050 -0.006987
vn 0.501225 0.377462 -0.778650
v 0.004593 0.042604 -0.011300
vn 0.383306 0.506106 0.772614
v 0.004593 0.042604 -0.006987
vn 0.067330 0.478031 -0.875759
v 0.000039 0.044490 -0.011300
vn -0.067020 0.485401 0.871719
v 0.000039 0.044490 -0.006987
vn -0.278617 0.369969 -0.886282
v -0.004515 0.042604 -0.011300
vn -0.374898 0.283932 0.882516
v -0.004515 0.042604 -0.006987
vn -0.535565 0.132985 -0.833958
v -0.006401 0.038050 -0.011300
vn -0.501729 0.061272 0.862852
v -0.006401 0.038050 -0.006987
vn -0.155382 0.044003 -0.986874
v -0.007570 0.008719 -0.012870
vn 0.423837 0.274071 -0.863277
v 0.004449 0.031130 -0.011237
vn 0.582520 -0.132692 -0.801912
v 0.005196 0.008663 -0.012882
vn 0.950978 -0.286638 -0.116101
v 0.009017 0.012869 -0.008031
vn 0.950242 0.306447 -0.055957
v 0.007840 0.026880 -0.007518
vn 0.957952 0.062569 -0.280022
v 0.009198 0.019874 -0.007775
vn 0.109791 -0.795168 -0.596367
v 0.000035 -0.009562 -0.011445
vn 0.768750 -0.582221 -0.264654
v 0.006762 -0.006776 -0.011445
vn 0.987417 0.136335 -0.080124
v 0.009548 -0.000050 -0.011445
vn 0.466367 0.170161 -0.868071
v 0.006762 0.006677 -0.011445
vn -0.763664 -0.214615 -0.608898
v -0.009477 -0.000050 -0.011445
vn -0.601807 -0.794612 -0.080123
v -0.006691 -0.006776 -0.011445
vn -0.824963 0.563898 0.038152
v -0.006738 0.033248 -0.006987
vn -0.995301 0.085580 -0.045291
v -0.008791 0.008692 -0.009444
vn 0.252392 0.598164 0.760591
v 0.003085 0.032872 -0.006987
vn 0.054684 -0.032822 -0.997964
v 0.003085 0.032872 -0.011173
vn -0.519074 0.080056 -0.850972
v -0.005756 0.034468 -0.011300
vn 0.814760 -0.539248 0.213021
v 0.004593 0.033496 0.011301
vn 0.832837 -0.543229 -0.106231
v 0.004593 0.033496 0.006987
vn 0.874963 -0.123240 0.468244
v 0.006479 0.038050 0.011301
vn 0.878997 0.121366 -0.461123
v 0.006479 0.038050 0.006987
vn 0.501225 0.377462 0.778650
v 0.004593 0.042604 0.011301
vn 0.383306 0.506106 -0.772614
v 0.004593 0.042604 0.006987
vn 0.067330 0.478031 0.875759
v 0.000039 0.044490 0.011301
vn -0.067020 0.485401 -0.871719
v 0.000039 0.044490 0.006987
vn -0.278617 0.369969 0.886282
v -0.004515 0.042604 0.011301
vn -0.374898 0.283932 -0.882516
v -0.004515 0.042604 0.006987
vn -0.535565 0.132985 0.833958
v -0.006401 0.038050 0.011301
vn -0.501729 0.061272 -0.862852
v -0.006401 0.038050 0.006987
vn -0.155382 0.044003 0.986874
v -0.007570 0.008719 0.012871
vn 0.385763 0.241207 0.890509
v 0.004449 0.031130 0.011238
vn 0.463387 -0.105895 0.879806
v 0.005196 0.008663 0.012882
vn 0.931882 -0.358362 0.056316
v 0.009017 0.012869 0.008031
vn 0.883726 0.464829 0.054429
v 0.007840 0.026880 0.007518
vn 0.952922 0.109576 0.282725
v 0.009198 0.019874 0.007775
vn -0.109791 -0.795169 0.596366
v 0.000035 -0.009562 0.011445
vn 0.582222 -0.768750 0.264654
v 0.006762 -0.006776 0.011445
vn 0.987417 -0.136335 0.080124
v 0.009548 -0.000050 0.011445
vn 0.694641 0.302517 0.652655
v 0.006762 0.006677 0.011445
vn -0.783867 -0.104286 0.612109
v -0.009477 -0.000050 0.011445
vn -0.794611 -0.601808 0.080123
v -0.006691 -0.006776 0.011445
vn -0.973564 0.227317 -0.022347
v -0.006738 0.033248 0.006987
vn -0.993368 0.088101 0.073887
v -0.008791 0.008692 0.009444
vn 0.117950 0.772092 -0.624469
v 0.003085 0.032872 0.006987
vn 0.054684 -0.032822 0.997964
v 0.003085 0.032872 0.011173
vn -0.519074 0.080056 0.850972
v -0.005756 0.034468 0.011301
vn 0.878997 0.121366 0.461123
v 0.006479 0.038050 -0.006987
vn 0.383306 0.506106 0.772614
v 0.004593 0.042604 -0.006987
vn -0.067020 0.485401 0.871719
v 0.000039 0.044490 -0.006987
vn -0.374898 0.283932 0.882516
v -0.004515 0.042604 -0.006987
vn 0.423837 0.274071 -0.863277
v 0.004449 0.031130 -0.011237
vn 0.582520 -0.132692 -0.801912
v 0.005196 0.008663 -0.012882
vn -0.601807 -0.794612 -0.080123
v -0.006691 -0.006776 -0.011445
vn 0.109791 -0.795168 -0.596367
v 0.000035 -0.009562 -0.011445
vn 0.768750 -0.582221 -0.264654
v 0.006762 -0.006776 -0.011445
vn -0.995301 0.085580 -0.045291
v -0.008791 0.008692 -0.009444
vn -0.763664 -0.214615 -0.608898
v -0.009477 -0.000050 -0.011445
vn 0.987417 0.136335 -0.080124
v 0.009548 -0.000050 -0.011445
vn 0.952922 0.109576 0.282725
v 0.009198 0.019874 0.007775
vn 0.883726 0.464829 0.054429
v 0.007840 0.026880 0.007518
vn 0.832837 -0.543229 0.106231
v 0.004593 0.033496 -0.006987
vn -0.501729 0.061272 0.862852
v -0.006401 0.038050 -0.006987
vn -0.155382 0.044003 -0.986874
v -0.007570 0.008719 -0.012870
vn -0.995301 0.085580 -0.045291
v -0.008791 0.008692 -0.009444
vn 0.252392 0.598164 0.760591
v 0.003085 0.032872 -0.006987
vn 0.109791 -0.795168 -0.596367
v 0.000035 -0.009562 -0.011445
vn 0.466367 0.170161 -0.868071
v 0.006762 0.006677 -0.011445
vn -0.501729 0.061272 0.862852
v -0.006401 0.038050 -0.006987
vn -0.824963 0.563898 0.038152
v -0.006738 0.033248 -0.006987
vn 0.067330 0.478031 -0.875759
v 0.000039 0.044490 -0.011300
vn 0.054684 -0.032822 -0.997964
v 0.003085 0.032872 -0.011173
vn 0.878997 0.121366 -0.461123
v 0.006479 0.038050 0.006987
vn 0.383306 0.506106 -0.772614
v 0.004593 0.042604 0.006987
vn -0.067020 0.485401 -0.871719
v 0.000039 0.044490 0.006987
vn -0.374898 0.283932 -0.882516
v -0.004515 0.042604 0.006987
vn 0.385763 0.241207 0.890509
v 0.004449 0.031130 0.011238
vn 0.952922 0.109576 0.282725
v 0.009198 0.019874 0.007775
vn -0.155382 0.044003 0.986874
v -0.007570 0.008719 0.012871
vn -0.783867 -0.104286 0.612109
v -0.009477 -0.000050 0.011445
vn 0.463387 -0.105895 0.879806
v 0.005196 0.008663 0.012882
vn 0.385763 0.241207 0.890509
v 0.004449 0.031130 0.011238
vn -0.519074 0.080056 0.850972
v -0.005756 0.034468 0.011301
vn -0.501729 0.061272 -0.862852
v -0.006401 0.038050 0.006987
vn 0.067330 0.478031 0.875759
v 0.000039 0.044490 0.011301
vn -0.278617 0.369969 0.886282
v -0.004515 0.042604 0.011301
vn -0.973564 0.227317 -0.022347
v -0.006738 0.033248 0.006987
vn -0.993368 0.088101 0.073887
v -0.008791 0.008692 0.009444
vn 0.832837 -0.543229 0.106231
v 0.004593 0.033496 -0.006987
vn 0.874963 -0.123240 -0.468244
v 0.006479 0.038050 -0.011300
vn 0.501225 0.377462 -0.778650
v 0.004593 0.042604 -0.011300
vn -0.278617 0.369969 -0.886282
v -0.004515 0.042604 -0.011300
vn 0.957952 0.062569 -0.280022
v 0.009198 0.019874 -0.007775
vn 0.950242 0.306447 -0.055957
v 0.007840 0.026880 -0.007518
vn 0.582520 -0.132692 -0.801912
v 0.005196 0.008663 -0.012882
vn 0.950242 0.306447 -0.055957
v 0.007840 0.026880 -0.007518
vn 0.950978 -0.286638 -0.116101
v 0.009017 0.012869 -0.008031
vn 0.931882 -0.358362 0.056316
v 0.009017 0.012869 0.008031
vn 0.463387 -0.105895 0.879806
v 0.005196 0.008663 0.012882
vn -0.794611 -0.601808 0.080123
v -0.006691 -0.006776 0.011445
vn -0.824963 0.563898 0.038152
v -0.006738 0.033248 -0.006987
vn -0.109791 -0.795169 0.596366
v 0.000035 -0.009562 0.011445
vn 0.582222 -0.768750 0.264654
v 0.006762 -0.006776 0.011445
vn 0.987417 -0.136335 0.080124
v 0.009548 -0.000050 0.011445
vn -0.993368 0.088101 0.073887
v -0.008791 0.008692 0.009444
vn 0.694641 0.302517 0.652655
v 0.006762 0.006677 0.011445
vn 0.252392 0.598164 0.760591
v 0.003085 0.032872 -0.006987
vn 0.117950 0.772092 -0.624469
v 0.003085 0.032872 0.006987
vn 0.383306 0.506106 0.772614
v 0.004593 0.042604 -0.006987
vn -0.374898 0.283932 0.882516
v -0.004515 0.042604 -0.006987
vn 0.878997 0.121366 0.461123
v 0.006479 0.038050 -0.006987
vn 0.054684 -0.032822 0.997964
v 0.003085 0.032872 0.011173
vn -0.763664 -0.214615 -0.608898
v -0.009477 -0.000050 -0.011445
vn 0.466367 0.170161 -0.868071
v 0.006762 0.006677 -0.011445
vn -0.155382 0.044003 -0.986874
v -0.007570 0.008719 -0.012870
vn -0.519074 0.080056 -0.850972
v -0.005756 0.034468 -0.011300
vn -0.519074 0.080056 -0.850972
v -0.005756 0.034468 -0.011300
vn 0.054684 -0.032822 -0.997964
v 0.003085 0.032872 -0.011173
vn 0.423837 0.274071 -0.863277
v 0.004449 0.031130 -0.011237
vn -0.535565 0.132985 -0.833958
v -0.006401 0.038050 -0.011300
vn -0.535565 0.132985 -0.833958
v -0.006401 0.038050 -0.011300
vn 0.067330 0.478031 -0.875759
v 0.000039 0.044490 -0.011300
vn 0.874963 -0.123240 -0.468244
v 0.006479 0.038050 -0.011300
vn 0.814760 -0.539248 -0.213021
v 0.004593 0.033496 -0.011300
vn -0.278617 0.369969 -0.886282
v -0.004515 0.042604 -0.011300
vn 0.814760 -0.539248 0.213021
v 0.004593 0.033496 0.011301
vn 0.874963 -0.123240 0.468244
v 0.006479 0.038050 0.011301
vn 0.501225 0.377462 0.778650
v 0.004593 0.042604 0.011301
vn 0.067330 0.478031 0.875759
v 0.000039 0.044490 0.011301
vn -0.535565 0.132985 0.833958
v -0.006401 0.038050 0.011301
vn 0.931882 -0.358362 0.056316
v 0.009017 0.012869 0.008031
vn 0.054684 -0.032822 0.997964
v 0.003085 0.032872 0.011173
vn 0.878997 0.121366 -0.461123
v 0.006479 0.038050 0.006987
vn -0.973564 0.227317 -0.022347
v -0.006738 0.033248 0.006987
vn -0.374898 0.283932 -0.882516
v -0.004515 0.042604 0.006987
vn 0.117950 0.772092 -0.624469
v 0.003085 0.032872 0.006987
vn -0.109791 -0.795169 0.596366
v 0.000035 -0.009562 0.011445
vn 0.987417 -0.136335 0.080124
v 0.009548 -0.000050 0.011445
vn -0.783867 -0.104286 0.612109
v -0.009477 -0.000050 0.011445
vn -0.155382 0.044003 0.986874
v -0.007570 0.008719 0.012871
vn -0.519074 0.080056 0.850972
v -0.005756 0.034468 0.011301
vn 0.814760 -0.539248 0.213021
v 0.004593 0.033496 0.011301
vn 0.501225 0.377462 0.778650
v 0.004593 0.042604 0.011301
vn -0.278617 0.369969 0.886282
v -0.004515 0.042604 0.011301
# 155 vertices, 0 vertices normals


usemtl material_0
vt 0.000000 0.000000
vt 1.000000 1.000000
vt 1.000000 0.000000
f 2/1/2 3/2/3 4/3/4
f 59/1/59 5/2/5 6/3/6
f 60/1/60 7/2/7 8/3/8
f 61/1/61 9/2/9 10/3/10
f 62/1/62 11/2/11 12/3/12
f 14/1/14 18/2/18 15/3/15
f 46/1/46 63/2/63 43/3/43
f 45/1/45 18/2/18 47/3/47
f 45/1/45 64/2/64 16/3/16
f 53/1/53 23/2/23 24/3/24
f 26/1/26 29/2/29 13/3/13
f 48/1/48 65/2/65 19/3/19
f 49/1/49 66/2/66 20/3/20
f 50/1/50 67/2/67 21/3/21
f 52/1/52 68/2/68 69/3/69
f 51/1/51 70/2/70 22/3/22
f 71/1/71 17/2/17 72/3/72
f 56/1/56 25/2/25 54/3/54
f 28/1/28 73/2/73 27/3/27
f 62/1/62 74/2/74 27/3/27
f 75/1/75 23/2/23 76/3/76
f 14/1/14 77/2/77 43/3/43
f 78/1/78 79/2/79 20/3/20
f 75/1/75 63/2/63 15/3/15
f 80/1/80 29/2/29 81/3/81
f 51/1/51 64/2/64 44/3/44
f 82/1/82 5/2/5 83/3/83
f 32/1/32 31/2/31 33/3/33
f 34/1/34 84/2/84 35/3/35
f 36/1/36 85/2/85 37/3/37
f 38/1/38 86/2/86 39/3/39
f 40/1/40 87/2/87 41/3/41
f 88/1/88 89/2/89 72/3/72
f 58/1/58 55/2/55 42/3/42
f 57/1/57 31/2/31 30/3/30
f 56/1/56 86/2/86 35/3/35
f 90/1/90 55/2/55 91/3/91
f 51/1/51 92/2/92 91/3/91
f 90/1/90 93/2/93 94/3/94
f 58/1/58 95/2/95 54/3/54
f 57/1/57 96/2/96 97/3/97
f 98/1/98 68/2/68 99/3/99
f 1/1/1 3/2/3 100/3/100
f 101/1/101 5/2/5 4/3/4
f 102/1/102 7/2/7 6/3/6
f 82/1/82 9/2/9 8/3/8
f 103/1/103 11/2/11 10/3/10
f 104/1/104 63/2/63 105/3/105
f 106/1/106 18/2/18 16/3/16
f 107/1/107 63/2/63 72/3/72
f 108/1/108 18/2/18 109/3/109
f 110/1/110 64/2/64 109/3/109
f 52/1/52 23/2/23 111/3/111
f 112/1/112 29/2/29 76/3/76
f 53/1/53 65/2/65 113/3/113
f 48/1/48 66/2/66 114/3/114
f 49/1/49 67/2/67 115/3/115
f 116/1/116 68/2/68 91/3/91
f 50/1/50 70/2/70 117/3/117
f 104/1/104 17/2/17 47/3/47
f 118/1/118 25/2/25 119/3/119
f 1/1/1 73/2/73 83/3/83
f 118/1/118 73/2/73 4/3/4
f 118/1/118 120/2/120 8/3/8
f 61/1/61 121/2/121 27/3/27
f 80/1/80 25/2/25 27/3/27
f 118/1/118 122/2/122 6/3/6
f 118/1/118 63/2/63 83/3/83
f 88/1/88 77/2/77 119/3/119
f 56/1/56 123/2/123 43/3/43
f 124/1/124 66/2/66 24/3/24
f 106/1/106 23/2/23 13/3/13
f 124/1/124 64/2/64 22/3/22
f 125/1/125 70/2/70 20/3/20
f 125/1/125 66/2/66 69/3/69
f 14/1/14 126/2/126 127/3/127
f 128/1/128 129/2/129 130/3/130
f 131/1/131 29/2/29 12/3/12
f 125/1/125 64/2/64 117/3/117
f 28/1/28 29/2/29 132/3/132
f 28/1/28 9/2/9 133/3/133
f 28/1/28 5/2/5 134/3/134
f 101/1/101 135/2/135 83/3/83
f 28/1/28 11/2/11 136/3/136
f 137/1/137 31/2/31 138/3/138
f 32/1/32 84/2/84 139/3/139
f 34/1/34 85/2/85 140/3/140
f 36/1/36 86/2/86 97/3/97
f 38/1/38 87/2/87 141/3/141
f 71/1/71 93/2/93 44/3/44
f 110/1/110 142/2/142 47/3/47
f 98/1/98 55/2/55 94/3/94
f 56/1/56 31/2/31 143/3/143
f 144/1/144 31/2/31 119/3/119
f 56/1/56 145/2/145 41/3/41
f 56/1/56 87/2/87 37/3/37
f 56/1/56 85/2/85 33/3/33
f 146/1/146 147/2/147 41/3/41
f 51/1/51 148/2/148 114/3/114
f 49/1/49 149/2/149 117/3/117
f 52/1/52 92/2/92 42/3/42
f 48/1/48 150/2/150 111/3/111
f 52/1/52 148/2/148 117/3/117
f 88/1/88 151/2/151 44/3/44
f 58/1/58 93/2/93 143/3/143
f 40/1/40 95/2/95 94/3/94
f 40/1/40 152/2/152 143/3/143
f 57/1/57 153/2/153 138/3/138
f 57/1/57 154/2/154 140/3/140
f 57/1/57 155/2/155 141/3/141
f 34/1/34 123/2/123 138/3/138
f 112/1/112 68/2/68 54/3/54
f 2/1/2 3/2/3 4/3/4
f 59/1/59 5/2/5 6/3/6
f 60/1/60 7/2/7 8/3/8
f 61/1/61 9/2/9 10/3/10
f 62/1/62 11/2/11 12/3/12
f 14/1/14 18/2/18 15/3/15
f 46/1/46 63/2/63 43/3/43
f 45/1/45 18/2/18 47/3/47
f 45/1/45 64/2/64 16/3/16
f 53/1/53 23/2/23 24/3/24
f 26/1/26 29/2/29 13/3/13
f 48/1/48 65/2/65 19/3/19
f 49/1/49 66/2/66 20/3/20
f 50/1/50 67/2/67 21/3/21
f 52/1/52 68/2/68 69/3/69
f 51/1/51 70/2/70 22/3/22
f 71/1/71 17/2/17 72/3/72
f 56/1/56 25/2/25 54/3/54
f 28/1/28 73/2/73 27/3/27
f 62/1/62 74/2/74 27/3/27
f 75/1/75 23/2/23 76/3/76
f 14/1/14 77/2/77 43/3/43
f 78/1/78 79/2/79 20/3/20
f 75/1/75 63/2/63 15/3/15
f 80/1/80 29/2/29 81/3/81
f 51/1/51 64/2/64 44/3/44
f 82/1/82 5/2/5 83/3/83
f 32/1/32 31/2/31 33/3/33
f 34/1/34 84/2/84 35/3/35
f 36/1/36 85/2/85 37/3/37
f 38/1/38 86/2/86 39/3/39
f 40/1/40 87/2/87 41/3/41
f 88/1/88 89/2/89 72/3/72
f 58/1/58 55/2/55 42/3/42
f 57/1/57 31/2/31 30/3/30
f 56/1/56 86/2/86 35/3/35
f 90/1/90 55/2/55 91/3/91
f 51/1/51 92/2/92 91/3/91
f 90/1/90 93/2/93 94/3/94
f 58/1/58 95/2/95 54/3/54
f 57/1/57 96/2/96 97/3/97
f 98/1/98 68/2/68 99/3/99
f 1/1/1 3/2/3 100/3/100
f 101/1/101 5/2/5 4/3/4
f 102/1/102 7/2/7 6/3/6
f 82/1/82 9/2/9 8/3/8
f 103/1/103 11/2/11 10/3/10
f 104/1/104 63/2/63 105/3/105
f 106/1/106 18/2/18 16/3/16
f 107/1/107 63/2/63 72/3/72
f 108/1/108 18/2/18 109/3/109
f 110/1/110 64/2/64 109/3/109
f 52/1/52 23/2/23 111/3/111
f 112/1/112 29/2/29 76/3/76
f 53/1/53 65/2/65 113/3/113
f 48/1/48 66/2/66 114/3/114
f 49/1/49 67/2/67 115/3/115
f 116/1/116 68/2/68 91/3/91
f 50/1/50 70/2/70 117/3/117
f 104/1/104 17/2/17 47/3/47
f 118/1/118 25/2/25 119/3/119
f 1/1/1 73/2/73 83/3/83
f 118/1/118 73/2/73 4/3/4
f 118/1/118 120/2/120 8/3/8
f 61/1/61 121/2/121 27/3/27
f 80/1/80 25/2/25 27/3/27
f 118/1/118 122/2/122 6/3/6
f 118/1/118 63/2/63 83/3/83
f 88/1/88 77/2/77 119/3/119
f 56/1/56 123/2/123 43/3/43
f 124/1/124 66/2/66 24/3/24
f 106/1/106 23/2/23 13/3/13
f 124/1/124 64/2/64 22/3/22
f 125/1/125 70/2/70 20/3/20
f 125/1/125 66/2/66 69/3/69
f 14/1/14 126/2/126 127/3/127
f 128/1/128 129/2/129 130/3/130
f 131/1/131 29/2/29 12/3/12
f 125/1/125 64/2/64 117/3/117
f 28/1/28 29/2/29 132/3/132
f 28/1/28 9/2/9 133/3/133
f 28/1/28 5/2/5 134/3/134
f 101/1/101 135/2/135 83/3/83
f 28/1/28 11/2/11 136/3/136
f 137/1/137 31/2/31 138/3/138
f 32/1/32 84/2/84 139/3/139
f 34/1/34 85/2/85 140/3/140
f 36/1/36 86/2/86 97/3/97
f 38/1/38 87/2/87 141/3/141
f 71/1/71 93/2/93 44/3/44
f 110/1/110 142/2/142 47/3/47
f 98/1/98 55/2/55 94/3/94
f 56/1/56 31/2/31 143/3/143
f 144/1/144 31/2/31 119/3/119
f 56/1/56 145/2/145 41/3/41
f 56/1/56 87/2/87 37/3/37
f 56/1/56 85/2/85 33/3/33
f 146/1/146 147/2/147 41/3/41
f 51/1/51 148/2/148 114/3/114
f 49/1/49 149/2/149 117/3/117
f 52/1/52 92/2/92 42/3/42
f 48/1/48 150/2/150 111/3/111
f 52/1/52 148/2/148 117/3/117
f 88/1/88 151/2/151 44/3/44
f 58/1/58 93/2/93 143/3/143
f 40/1/40 95/2/95 94/3/94
f 40/1/40 152/2/152 143/3/143
f 57/1/57 153/2/153 138/3/138
f 57/1/57 154/2/154 140/3/140
f 57/1/57 155/2/155 141/3/141
f 34/1/34 123/2/123 138/3/138
f 112/1/112 68/2/68 54/3/54
# 224 faces, 3 coords texture

# End of File