####
#
# OBJ File Generated by Meshlab
#
####
# Object pinkyj2_right.obj
#
# Vertices: 106
# Faces: 360
#
####
mtllib ./pinkyj2_right.obj.mtl

vn 0.050745 -0.068615 0.996352
v 0.001522 -0.019600 0.010260
vn 0.200784 -0.025001 0.979316
v 0.003067 -0.022963 0.010053
vn 0.193386 -0.018362 -0.980951
v 0.005135 -0.022795 0.006728
vn 0.313157 -0.272588 0.909741
v 0.001912 -0.025289 0.009910
vn 0.759253 -0.582055 -0.291114
v 0.003621 -0.026450 0.006728
vn -0.043147 -0.586877 0.808526
v 0.000062 -0.025936 0.009870
vn 0.046532 -0.478572 -0.876815
v -0.000034 -0.027964 0.006728
vn -0.204910 -0.207627 0.956506
v -0.002240 -0.024897 0.009934
vn -0.189258 -0.235004 -0.953391
v -0.003689 -0.026450 0.006728
vn -0.271493 -0.079618 0.959141
v -0.002980 -0.023066 0.010047
vn -0.191549 -0.080003 -0.978217
v -0.005203 -0.022795 0.006728
vn 0.098181 0.573140 0.813555
v -0.005066 -0.005588 0.004665
vn 0.278937 -0.092592 0.955835
v 0.003806 -0.017917 0.010364
vn 0.437235 0.769390 0.465688
v 0.003414 -0.005551 0.004673
vn 0.855100 0.317985 0.409499
v 0.006782 -0.009227 0.008365
vn 0.861587 -0.418442 0.287358
v 0.006385 -0.016661 0.008175
vn 0.997748 -0.053248 0.040782
v 0.007265 -0.012957 0.007563
vn -0.053196 0.385283 0.921264
v -0.000014 0.006556 0.004696
vn 0.454368 0.599943 0.658497
v 0.004454 0.004705 0.004696
vn 0.959591 0.132493 0.248255
v 0.006305 0.000237 0.004696
vn 0.271157 -0.127025 0.954117
v 0.004454 -0.004231 0.004696
vn -0.357922 0.025913 0.933392
v -0.006333 0.000237 0.004696
vn -0.772220 0.584849 0.248251
v -0.004482 0.004705 0.004696
vn -0.941000 -0.312931 -0.128814
v -0.005474 -0.018111 0.006727
vn -0.993717 0.035870 0.106019
v -0.006075 -0.004362 0.004980
vn 0.906426 0.422364 0.000000
v 0.003414 -0.005551 -0.000073
vn 0.797173 0.603751 0.000000
v 0.004454 0.004705 -0.000073
vn 0.875154 -0.483844 0.000000
v 0.004454 -0.004231 -0.000073
vn -0.603747 0.797176 0.000000
v -0.004482 0.004705 -0.000073
vn 0.136771 0.990603 0.000000
v -0.000014 0.006556 -0.000073
vn -0.998031 -0.060687 -0.015844
v -0.005877 -0.005570 -0.000073
vn 0.121238 -0.991274 -0.051741
v 0.003806 -0.018310 -0.000073
vn 0.196514 -0.864978 -0.461731
v 0.004016 -0.018620 0.006361
vn -0.493165 -0.869717 -0.019511
v -0.005474 -0.018111 -0.000073
vn 0.207311 0.919132 0.334989
v 0.003657 -0.006220 0.009938
vn 0.998579 -0.053293 -0.000003
v 0.007265 -0.012956 -0.000073
vn 0.862987 -0.505094 -0.011558
v 0.006385 -0.016661 -0.000073
vn -0.070920 0.966401 0.247061
v -0.005110 -0.006301 0.009155
vn -0.999259 -0.038465 -0.001605
v -0.005796 -0.008267 -0.000073
vn -0.998941 -0.022129 0.040335
v -0.005819 -0.007502 0.007200
vn 0.245088 0.038415 0.968739
v 0.003472 -0.007525 0.011004
vn -0.097128 0.043860 0.994305
v -0.003894 -0.007536 0.010999
vn 0.901114 0.433583 0.000002
v 0.006782 -0.009227 -0.000073
vn 0.831394 0.074024 0.550731
v 0.003797 -0.019934 0.008802
vn 0.830916 -0.205391 0.517101
v 0.004748 -0.022716 0.008706
vn 0.506877 -0.693002 0.512663
v 0.002966 -0.026524 0.008526
vn -0.133538 -0.866814 0.480417
v -0.000281 -0.027531 0.008478
vn -0.627096 -0.574582 0.525934
v -0.003364 -0.026085 0.008546
vn -0.853204 -0.125467 0.506262
v -0.004659 -0.023092 0.008688
vn -0.854545 -0.051496 0.516819
v -0.005557 -0.006985 0.009681
vn 0.789446 -0.596167 0.146150
v 0.004103 -0.018749 0.008874
vn 0.990602 -0.136775 0.000000
v 0.006305 0.000237 -0.000073
vn -0.976613 0.215007 0.000000
v -0.006333 0.000237 -0.000073
vn 0.050745 -0.068615 -0.996352
v 0.001522 -0.019600 -0.010260
vn 0.200784 -0.025001 -0.979316
v 0.003067 -0.022963 -0.010053
vn 0.193386 -0.018362 0.980951
v 0.005135 -0.022795 -0.006728
vn 0.313157 -0.272588 -0.909741
v 0.001912 -0.025289 -0.009910
vn 0.759253 -0.582055 0.291114
v 0.003621 -0.026450 -0.006728
vn -0.043147 -0.586877 -0.808526
v 0.000062 -0.025936 -0.009870
vn 0.046532 -0.478572 0.876815
v -0.000034 -0.027964 -0.006728
vn -0.204910 -0.207627 -0.956506
v -0.002240 -0.024897 -0.009934
vn -0.189258 -0.235004 0.953391
v -0.003689 -0.026450 -0.006728
vn -0.271493 -0.079618 -0.959141
v -0.002980 -0.023066 -0.010047
vn -0.191549 -0.080003 0.978217
v -0.005203 -0.022795 -0.006728
vn 0.098181 0.573140 -0.813555
v -0.005066 -0.005588 -0.004665
vn 0.278937 -0.092592 -0.955835
v 0.003806 -0.017917 -0.010364
vn 0.437235 0.769390 -0.465688
v 0.003414 -0.005551 -0.004673
vn 0.855100 0.317985 -0.409499
v 0.006782 -0.009227 -0.008365
vn 0.861587 -0.418442 -0.287358
v 0.006385 -0.016661 -0.008175
vn 0.997748 -0.053248 -0.040782
v 0.007265 -0.012957 -0.007563
vn -0.053196 0.385283 -0.921264
v -0.000014 0.006556 -0.004696
vn 0.454368 0.599943 -0.658497
v 0.004454 0.004705 -0.004696
vn 0.959591 0.132493 -0.248255
v 0.006305 0.000237 -0.004696
vn 0.271157 -0.127025 -0.954117
v 0.004454 -0.004231 -0.004696
vn -0.357922 0.025913 -0.933392
v -0.006333 0.000237 -0.004696
vn -0.772220 0.584849 -0.248251
v -0.004482 0.004705 -0.004696
vn -0.941000 -0.312931 0.128814
v -0.005474 -0.018111 -0.006727
vn -0.993717 0.035870 -0.106019
v -0.006075 -0.004362 -0.004980
vn 0.906426 0.422364 0.000000
v 0.003414 -0.005551 0.000073
vn 0.797173 0.603751 0.000000
v 0.004454 0.004705 0.000073
vn 0.875154 -0.483844 0.000000
v 0.004454 -0.004231 0.000073
vn -0.603747 0.797176 0.000000
v -0.004482 0.004705 0.000073
vn 0.136771 0.990603 0.000000
v -0.000014 0.006556 0.000073
vn -0.998031 -0.060687 0.015844
v -0.005877 -0.005570 0.000073
vn 0.121238 -0.991274 0.051741
v 0.003806 -0.018310 0.000073
vn 0.196514 -0.864978 0.461731
v 0.004016 -0.018620 -0.006361
vn -0.493165 -0.869717 0.019511
v -0.005474 -0.018111 0.000073
vn 0.207311 0.919132 -0.334989
v 0.003657 -0.006220 -0.009938
vn 0.998579 -0.053293 0.000003
v 0.007265 -0.012956 0.000073
vn 0.862987 -0.505094 0.011558
v 0.006385 -0.016661 0.000073
vn -0.070920 0.966401 -0.247061
v -0.005110 -0.006301 -0.009155
vn -0.999259 -0.038465 0.001605
v -0.005796 -0.008267 0.000073
vn -0.998941 -0.022129 -0.040335
v -0.005819 -0.007502 -0.007200
vn 0.245088 0.038415 -0.968739
v 0.003472 -0.007525 -0.011004
vn -0.097128 0.043860 -0.994305
v -0.003894 -0.007536 -0.010999
vn 0.901114 0.433583 -0.000002
v 0.006782 -0.009227 0.000073
vn 0.831394 0.074024 -0.550731
v 0.003797 -0.019934 -0.008802
vn 0.830916 -0.205391 -0.517101
v 0.004748 -0.022716 -0.008706
vn 0.506877 -0.693002 -0.512663
v 0.002966 -0.026524 -0.008526
vn -0.133538 -0.866814 -0.480417
v -0.000281 -0.027531 -0.008478
vn -0.627096 -0.574582 -0.525934
v -0.003364 -0.026085 -0.008546
vn -0.853204 -0.125467 -0.506262
v -0.004659 -0.023092 -0.008688
vn -0.854545 -0.051496 -0.516819
v -0.005557 -0.006985 -0.009681
vn 0.789446 -0.596167 -0.146150
v 0.004103 -0.018749 -0.008874
vn 0.990602 -0.136775 0.000000
v 0.006305 0.000237 0.000073
vn -0.976613 0.215007 0.000000
v -0.006333 0.000237 0.000073
# 106 vertices, 0 vertices normals


usemtl material_0
vt 0.188831 0.227350
vt 0.192676 0.232541
vt 0.189290 0.231928
f 16/1/16 13/2/13 51/3/51
vt 0.130530 0.021124
vt 0.198818 0.221619
vt 0.192181 0.222079
f 43/4/43 15/5/15 17/6/17
vt 0.021194 0.112609
f 17/6/17 16/1/16 37/7/37
vt 0.175882 0.231514
vt 0.188295 0.251428
vt 0.015665 0.397983
f 33/8/33 24/9/24 34/10/34
vt 0.202373 0.236529
vt 0.200718 0.230655
vt 0.203256 0.228915
f 42/11/42 41/12/41 35/13/35
vt 0.204968 0.239564
vt 0.207249 0.239532
f 50/14/50 42/11/42 38/15/38
vt 0.188456 0.235619
vt 0.188675 0.237240
vt 0.187732 0.237449
f 45/16/45 46/17/46 5/18/5
vt 0.188921 0.238098
vt 0.188072 0.238237
f 46/17/46 47/19/47 7/20/7
vt 0.189416 0.239067
vt 0.188097 0.239291
f 47/19/47 48/21/48 9/22/9
vt 0.190670 0.240504
vt 0.187726 0.241810
f 48/21/48 49/23/49 11/24/11
vt 0.251262 0.162545
f 15/5/15 14/25/14 35/13/35
vt 0.259826 0.262483
vt 0.211595 0.247204
f 25/26/25 40/27/40 38/15/38
vt 0.224301 0.003908
vt 0.247564 0.000102
f 14/25/14 26/28/26 28/29/28
vt 0.256296 0.248878
vt 0.307175 0.269417
f 12/30/12 22/31/22 25/26/25
vt 0.269439 0.155632
f 21/32/21 22/31/22 14/25/14
f 41/12/41 15/5/15 35/13/35
vt 0.261841 0.499898
f 24/9/24 40/27/40 39/33/39
f 39/33/39 40/27/40 25/26/25
vt 0.188836 0.233231
f 51/3/51 13/2/13 44/34/44
f 38/15/38 35/13/35 14/25/14
vt 0.341976 0.169013
vt 0.459785 0.057165
vt 0.520528 0.166523
f 19/35/19 27/36/27 30/37/30
vt 0.351339 0.203656
vt 0.515817 0.295544
f 18/38/18 30/37/30 29/39/29
f 14/25/14 15/5/15 43/4/43
f 13/2/13 16/1/16 15/5/15
vt 0.190017 0.236093
f 2/40/2 45/16/45 44/34/44
vt 0.189627 0.237083
f 4/41/4 46/17/46 45/16/45
vt 0.189718 0.237661
f 6/42/6 47/19/47 46/17/46
vt 0.190373 0.238188
f 6/42/6 8/43/8 48/21/48
vt 0.191332 0.238356
f 8/43/8 10/44/10 49/23/49
f 10/44/10 8/43/8 2/40/2
f 40/27/40 50/14/50 38/15/38
vt 0.192037 0.234948
f 1/45/1 44/34/44 13/2/13
f 49/23/49 24/9/24 11/24/11
f 24/9/24 49/23/49 50/14/50
f 10/44/10 42/11/42 50/14/50
vt 0.186070 0.236600
f 44/34/44 45/16/45 3/46/3
f 37/7/37 16/1/16 33/8/33
f 10/44/10 1/45/1 42/11/42
f 13/2/13 41/12/41 42/11/42
vt 0.313210 0.148101
vt 0.355575 0.000102
f 20/47/20 52/48/52 27/36/27
f 21/32/21 28/29/28 52/48/52
f 3/46/3 7/20/7 9/22/9
f 51/3/51 44/34/44 33/8/33
vt 0.444439 0.407322
vt 0.308320 0.483701
f 22/31/22 53/49/53 31/50/31
vt 0.345342 0.242061
f 23/51/23 29/39/29 53/49/53
vt 0.188831 0.772651
vt 0.189291 0.768073
vt 0.192677 0.767460
f 69/52/69 104/53/104 66/54/66
vt 0.130530 0.978877
vt 0.072089 0.936822
vt 0.192182 0.777923
f 96/55/96 89/56/89 70/57/70
vt 0.021194 0.887392
f 90/58/90 69/52/69 70/57/70
vt 0.015665 0.602016
vt 0.188296 0.748572
vt 0.175882 0.768487
f 87/59/87 77/60/77 86/61/86
vt 0.203258 0.771087
vt 0.200719 0.769346
vt 0.202374 0.763472
f 88/62/88 94/63/94 95/64/95
vt 0.204970 0.760436
vt 0.207251 0.760468
f 103/65/103 91/66/91 95/64/95
vt 0.188457 0.764382
vt 0.186070 0.763401
vt 0.187732 0.762552
f 98/67/98 56/68/56 58/69/58
vt 0.188676 0.762760
vt 0.188073 0.761763
f 99/70/99 58/69/58 60/71/60
vt 0.188922 0.761902
vt 0.188098 0.760709
f 100/72/100 60/71/60 62/73/62
vt 0.189417 0.760934
vt 0.187726 0.758190
f 101/74/101 62/73/62 64/75/64
vt 0.198819 0.778383
vt 0.251262 0.837454
f 68/76/68 88/62/88 67/77/67
vt 0.259827 0.737517
vt 0.256297 0.751123
f 78/78/78 65/79/65 91/66/91
vt 0.247564 0.999898
vt 0.224301 0.996092
f 81/80/81 79/81/79 67/77/67
vt 0.307175 0.730584
f 65/79/65 78/78/78 75/82/75
vt 0.351339 0.796345
vt 0.341975 0.830987
vt 0.269439 0.844367
f 71/83/71 72/84/72 74/85/74
f 94/63/94 88/62/88 68/76/68
vt 0.261843 0.500102
vt 0.211597 0.752796
f 92/86/92 93/87/93 77/60/77
vt 0.308322 0.516300
f 92/86/92 84/88/84 78/78/78
vt 0.188837 0.766770
f 104/53/104 97/89/97 66/54/66
f 67/77/67 88/62/88 91/66/91
vt 0.520527 0.833478
vt 0.459784 0.942835
f 83/90/83 80/91/80 72/84/72
vt 0.515817 0.704458
f 82/92/82 83/90/83 71/83/71
f 67/77/67 79/81/79 96/55/96
f 66/54/66 94/63/94 68/76/68
vt 0.190017 0.763908
f 97/89/97 98/67/98 55/93/55
vt 0.189627 0.762917
f 98/67/98 99/70/99 57/94/57
vt 0.189718 0.762339
f 99/70/99 100/72/100 59/95/59
f 59/95/59 100/72/100 101/74/101
vt 0.190373 0.761813
vt 0.190671 0.759496
f 61/96/61 101/74/101 102/97/102
f 61/96/61 55/93/55 57/94/57
f 93/87/93 91/66/91 103/65/103
vt 0.192038 0.765053
f 54/98/54 66/54/66 97/89/97
f 102/97/102 64/75/64 77/60/77
f 77/60/77 93/87/93 103/65/103
vt 0.191332 0.761645
f 103/65/103 95/64/95 63/99/63
f 97/89/97 86/61/86 56/68/56
f 69/52/69 86/61/86 104/53/104
f 63/99/63 95/64/95 54/98/54
f 95/64/95 94/63/94 66/54/66
vt 0.355574 0.999898
vt 0.313210 0.851899
f 80/91/80 105/100/105 73/101/73
f 105/100/105 81/80/81 74/85/74
f 56/68/56 64/75/64 62/73/62
f 104/53/104 86/61/86 97/89/97
vt 0.444440 0.592679
f 84/88/84 106/102/106 75/82/75
vt 0.345343 0.757940
f 106/102/106 82/92/82 76/103/76
vt 0.072089 0.063178
f 36/104/36 43/4/43 17/6/17
f 36/104/36 17/6/17 37/7/37
vt 0.000102 0.161411
f 32/105/32 33/8/33 34/10/34
f 38/15/38 42/11/42 35/13/35
f 3/46/3 45/16/45 5/18/5
f 5/18/5 46/17/46 7/20/7
f 7/20/7 47/19/47 9/22/9
f 9/22/9 48/21/48 11/24/11
f 12/30/12 25/26/25 38/15/38
f 21/32/21 14/25/14 28/29/28
f 21/32/21 19/35/19 18/38/18
f 19/35/19 21/32/21 20/47/20
f 22/31/22 12/30/12 14/25/14
f 18/38/18 23/51/23 22/31/22
f 22/31/22 21/32/21 18/38/18
f 34/10/34 24/9/24 39/33/39
f 31/50/31 39/33/39 25/26/25
f 12/30/12 38/15/38 14/25/14
f 18/38/18 19/35/19 30/37/30
f 23/51/23 18/38/18 29/39/29
f 26/28/26 14/25/14 43/4/43
f 15/5/15 41/12/41 13/2/13
f 16/1/16 17/6/17 15/5/15
f 1/45/1 2/40/2 44/34/44
f 2/40/2 4/41/4 45/16/45
f 4/41/4 6/42/6 46/17/46
f 47/19/47 6/42/6 48/21/48
f 48/21/48 8/43/8 49/23/49
f 2/40/2 1/45/1 10/44/10
f 8/43/8 4/41/4 2/40/2
f 4/41/4 8/43/8 6/42/6
f 40/27/40 24/9/24 50/14/50
f 49/23/49 10/44/10 50/14/50
f 33/8/33 44/34/44 3/46/3
f 33/8/33 32/105/32 37/7/37
f 16/1/16 51/3/51 33/8/33
f 1/45/1 13/2/13 42/11/42
f 19/35/19 20/47/20 27/36/27
f 20/47/20 21/32/21 52/48/52
f 11/24/11 24/9/24 33/8/33
f 3/46/3 9/22/9 11/24/11
f 3/46/3 5/18/5 7/20/7
f 11/24/11 33/8/33 3/46/3
f 25/26/25 22/31/22 31/50/31
f 22/31/22 23/51/23 53/49/53
f 68/76/68 96/55/96 70/57/70
f 89/56/89 90/58/90 70/57/70
vt 0.000102 0.838589
f 85/106/85 87/59/87 86/61/86
f 91/66/91 88/62/88 95/64/95
f 99/70/99 98/67/98 58/69/58
f 100/72/100 99/70/99 60/71/60
f 101/74/101 100/72/100 62/73/62
f 102/97/102 101/74/101 64/75/64
f 93/87/93 78/78/78 91/66/91
f 74/85/74 81/80/81 67/77/67
f 75/82/75 76/103/76 71/83/71
f 67/77/67 65/79/65 75/82/75
f 75/82/75 74/85/74 67/77/67
f 74/85/74 72/84/72 73/101/73
f 74/85/74 75/82/75 71/83/71
f 87/59/87 92/86/92 77/60/77
f 93/87/93 92/86/92 78/78/78
f 65/79/65 67/77/67 91/66/91
f 71/83/71 83/90/83 72/84/72
f 76/103/76 82/92/82 71/83/71
f 68/76/68 67/77/67 96/55/96
f 68/76/68 69/52/69 66/54/66
f 69/52/69 68/76/68 70/57/70
f 54/98/54 97/89/97 55/93/55
f 55/93/55 98/67/98 57/94/57
f 57/94/57 99/70/99 59/95/59
f 61/96/61 59/95/59 101/74/101
f 63/99/63 61/96/61 102/97/102
f 55/93/55 61/96/61 63/99/63
f 61/96/61 57/94/57 59/95/59
f 63/99/63 54/98/54 55/93/55
f 102/97/102 77/60/77 103/65/103
f 102/97/102 103/65/103 63/99/63
f 98/67/98 97/89/97 56/68/56
f 86/61/86 69/52/69 90/58/90
f 90/58/90 85/106/85 86/61/86
f 54/98/54 95/64/95 66/54/66
f 72/84/72 80/91/80 73/101/73
f 73/101/73 105/100/105 74/85/74
f 64/75/64 56/68/56 86/61/86
f 56/68/56 60/71/60 58/69/58
f 60/71/60 56/68/56 62/73/62
f 64/75/64 86/61/86 77/60/77
f 78/78/78 84/88/84 75/82/75
f 75/82/75 106/102/106 76/103/76
f 16/1/16 13/2/13 51/3/51
f 43/4/43 15/5/15 17/6/17
f 17/6/17 16/1/16 37/7/37
f 33/8/33 24/9/24 34/10/34
f 42/11/42 41/12/41 35/13/35
f 50/14/50 42/11/42 38/15/38
f 45/16/45 46/17/46 5/18/5
f 46/17/46 47/19/47 7/20/7
f 47/19/47 48/21/48 9/22/9
f 48/21/48 49/23/49 11/24/11
f 15/5/15 14/25/14 35/13/35
f 25/26/25 40/27/40 38/15/38
f 14/25/14 26/28/26 28/29/28
f 12/30/12 22/31/22 25/26/25
f 21/32/21 22/31/22 14/25/14
f 41/12/41 15/5/15 35/13/35
f 24/9/24 40/27/40 39/33/39
f 39/33/39 40/27/40 25/26/25
f 51/3/51 13/2/13 44/34/44
f 38/15/38 35/13/35 14/25/14
f 19/35/19 27/36/27 30/37/30
f 18/38/18 30/37/30 29/39/29
f 14/25/14 15/5/15 43/4/43
f 13/2/13 16/1/16 15/5/15
f 2/40/2 45/16/45 44/34/44
f 4/41/4 46/17/46 45/16/45
f 6/42/6 47/19/47 46/17/46
f 6/42/6 8/43/8 48/21/48
f 8/43/8 10/44/10 49/23/49
f 10/44/10 8/43/8 2/40/2
f 40/27/40 50/14/50 38/15/38
f 1/45/1 44/34/44 13/2/13
f 49/23/49 24/9/24 11/24/11
f 24/9/24 49/23/49 50/14/50
f 10/44/10 42/11/42 50/14/50
f 44/34/44 45/16/45 3/46/3
f 37/7/37 16/1/16 33/8/33
f 10/44/10 1/45/1 42/11/42
f 13/2/13 41/12/41 42/11/42
f 20/47/20 52/48/52 27/36/27
f 21/32/21 28/29/28 52/48/52
f 3/46/3 7/20/7 9/22/9
f 51/3/51 44/34/44 33/8/33
f 22/31/22 53/49/53 31/50/31
f 23/51/23 29/39/29 53/49/53
f 69/52/69 104/53/104 66/54/66
f 96/55/96 89/56/89 70/57/70
f 90/58/90 69/52/69 70/57/70
f 87/59/87 77/60/77 86/61/86
f 88/62/88 94/63/94 95/64/95
f 103/65/103 91/66/91 95/64/95
f 98/67/98 56/68/56 58/69/58
f 99/70/99 58/69/58 60/71/60
f 100/72/100 60/71/60 62/73/62
f 101/74/101 62/73/62 64/75/64
f 68/76/68 88/62/88 67/77/67
f 78/78/78 65/79/65 91/66/91
f 81/80/81 79/81/79 67/77/67
f 65/79/65 78/78/78 75/82/75
f 71/83/71 72/84/72 74/85/74
f 94/63/94 88/62/88 68/76/68
f 92/86/92 93/87/93 77/60/77
f 92/86/92 84/88/84 78/78/78
f 104/53/104 97/89/97 66/54/66
f 67/77/67 88/62/88 91/66/91
f 83/90/83 80/91/80 72/84/72
f 82/92/82 83/90/83 71/83/71
f 67/77/67 79/81/79 96/55/96
f 66/54/66 94/63/94 68/76/68
f 97/89/97 98/67/98 55/93/55
f 98/67/98 99/70/99 57/94/57
f 99/70/99 100/72/100 59/95/59
f 59/95/59 100/72/100 101/74/101
f 61/96/61 101/74/101 102/97/102
f 61/96/61 55/93/55 57/94/57
f 93/87/93 91/66/91 103/65/103
f 54/98/54 66/54/66 97/89/97
f 102/97/102 64/75/64 77/60/77
f 77/60/77 93/87/93 103/65/103
f 103/65/103 95/64/95 63/99/63
f 97/89/97 86/61/86 56/68/56
f 69/52/69 86/61/86 104/53/104
f 63/99/63 95/64/95 54/98/54
f 95/64/95 94/63/94 66/54/66
f 80/91/80 105/100/105 73/101/73
f 105/100/105 81/80/81 74/85/74
f 56/68/56 64/75/64 62/73/62
f 104/53/104 86/61/86 97/89/97
f 84/88/84 106/102/106 75/82/75
f 106/102/106 82/92/82 76/103/76
f 36/104/36 43/4/43 17/6/17
f 36/104/36 17/6/17 37/7/37
f 32/105/32 33/8/33 34/10/34
f 38/15/38 42/11/42 35/13/35
f 3/46/3 45/16/45 5/18/5
f 5/18/5 46/17/46 7/20/7
f 7/20/7 47/19/47 9/22/9
f 9/22/9 48/21/48 11/24/11
f 12/30/12 25/26/25 38/15/38
f 21/32/21 14/25/14 28/29/28
f 21/32/21 19/35/19 18/38/18
f 19/35/19 21/32/21 20/47/20
f 22/31/22 12/30/12 14/25/14
f 18/38/18 23/51/23 22/31/22
f 22/31/22 21/32/21 18/38/18
f 34/10/34 24/9/24 39/33/39
f 31/50/31 39/33/39 25/26/25
f 12/30/12 38/15/38 14/25/14
f 18/38/18 19/35/19 30/37/30
f 23/51/23 18/38/18 29/39/29
f 26/28/26 14/25/14 43/4/43
f 15/5/15 41/12/41 13/2/13
f 16/1/16 17/6/17 15/5/15
f 1/45/1 2/40/2 44/34/44
f 2/40/2 4/41/4 45/16/45
f 4/41/4 6/42/6 46/17/46
f 47/19/47 6/42/6 48/21/48
f 48/21/48 8/43/8 49/23/49
f 2/40/2 1/45/1 10/44/10
f 8/43/8 4/41/4 2/40/2
f 4/41/4 8/43/8 6/42/6
f 40/27/40 24/9/24 50/14/50
f 49/23/49 10/44/10 50/14/50
f 33/8/33 44/34/44 3/46/3
f 33/8/33 32/105/32 37/7/37
f 16/1/16 51/3/51 33/8/33
f 1/45/1 13/2/13 42/11/42
f 19/35/19 20/47/20 27/36/27
f 20/47/20 21/32/21 52/48/52
f 11/24/11 24/9/24 33/8/33
f 3/46/3 9/22/9 11/24/11
f 3/46/3 5/18/5 7/20/7
f 11/24/11 33/8/33 3/46/3
f 25/26/25 22/31/22 31/50/31
f 22/31/22 23/51/23 53/49/53
f 68/76/68 96/55/96 70/57/70
f 89/56/89 90/58/90 70/57/70
f 85/106/85 87/59/87 86/61/86
f 91/66/91 88/62/88 95/64/95
f 99/70/99 98/67/98 58/69/58
f 100/72/100 99/70/99 60/71/60
f 101/74/101 100/72/100 62/73/62
f 102/97/102 101/74/101 64/75/64
f 93/87/93 78/78/78 91/66/91
f 74/85/74 81/80/81 67/77/67
f 75/82/75 76/103/76 71/83/71
f 67/77/67 65/79/65 75/82/75
f 75/82/75 74/85/74 67/77/67
f 74/85/74 72/84/72 73/101/73
f 74/85/74 75/82/75 71/83/71
f 87/59/87 92/86/92 77/60/77
f 93/87/93 92/86/92 78/78/78
f 65/79/65 67/77/67 91/66/91
f 71/83/71 83/90/83 72/84/72
f 76/103/76 82/92/82 71/83/71
f 68/76/68 67/77/67 96/55/96
f 68/76/68 69/52/69 66/54/66
f 69/52/69 68/76/68 70/57/70
f 54/98/54 97/89/97 55/93/55
f 55/93/55 98/67/98 57/94/57
f 57/94/57 99/70/99 59/95/59
f 61/96/61 59/95/59 101/74/101
f 63/99/63 61/96/61 102/97/102
f 55/93/55 61/96/61 63/99/63
f 61/96/61 57/94/57 59/95/59
f 63/99/63 54/98/54 55/93/55
f 102/97/102 77/60/77 103/65/103
f 102/97/102 103/65/103 63/99/63
f 98/67/98 97/89/97 56/68/56
f 86/61/86 69/52/69 90/58/90
f 90/58/90 85/106/85 86/61/86
f 54/98/54 95/64/95 66/54/66
f 72/84/72 80/91/80 73/101/73
f 73/101/73 105/100/105 74/85/74
f 64/75/64 56/68/56 86/61/86
f 56/68/56 60/71/60 58/69/58
f 60/71/60 56/68/56 62/73/62
f 64/75/64 86/61/86 77/60/77
f 78/78/78 84/88/84 75/82/75
f 75/82/75 106/102/106 76/103/76
# 360 faces, 106 coords texture

# End of File