####
#
# OBJ File Generated by Meshlab
#
####
# Object pinkyj1_right.obj
#
# Vertices: 155
# Faces: 224
#
####
mtllib ./pinkyj1_right.obj.mtl

vn 0.814760 0.539248 -0.213021
v 0.004593 -0.033496 -0.011300
vn 0.832837 0.543229 0.106231
v 0.004593 -0.033496 -0.006987
vn 0.874963 0.123240 -0.468244
v 0.006479 -0.038050 -0.011300
vn 0.878997 -0.121366 0.461123
v 0.006479 -0.038050 -0.006987
vn 0.501225 -0.377462 -0.778650
v 0.004593 -0.042604 -0.011300
vn 0.383306 -0.506106 0.772614
v 0.004593 -0.042604 -0.006987
vn 0.067330 -0.478031 -0.875759
v 0.000039 -0.044490 -0.011300
vn -0.067020 -0.485401 0.871719
v 0.000039 -0.044490 -0.006987
vn -0.278617 -0.369969 -0.886282
v -0.004515 -0.042604 -0.011300
vn -0.374898 -0.283932 0.882516
v -0.004515 -0.042604 -0.006987
vn -0.535565 -0.132985 -0.833958
v -0.006401 -0.038050 -0.011300
vn -0.501729 -0.061272 0.862852
v -0.006401 -0.038050 -0.006987
vn -0.155382 -0.044003 -0.986874
v -0.007570 -0.008719 -0.012870
vn 0.423837 -0.274071 -0.863277
v 0.004449 -0.031130 -0.011237
vn 0.582520 0.132692 -0.801912
v 0.005196 -0.008663 -0.012882
vn 0.950978 0.286638 -0.116101
v 0.009017 -0.012869 -0.008031
vn 0.950242 -0.306447 -0.055957
v 0.007840 -0.026880 -0.007518
vn 0.957952 -0.062569 -0.280022
v 0.009198 -0.019874 -0.007775
vn 0.109791 0.795168 -0.596367
v 0.000035 0.009562 -0.011445
vn 0.768750 0.582221 -0.264654
v 0.006762 0.006776 -0.011445
vn 0.987417 -0.136335 -0.080124
v 0.009548 0.000050 -0.011445
vn 0.466367 -0.170161 -0.868071
v 0.006762 -0.006677 -0.011445
vn -0.763664 0.214615 -0.608898
v -0.009477 0.000050 -0.011445
vn -0.601807 0.794612 -0.080123
v -0.006691 0.006776 -0.011445
vn -0.824963 -0.563898 0.038152
v -0.006738 -0.033248 -0.006987
vn -0.995301 -0.085580 -0.045291
v -0.008791 -0.008692 -0.009444
vn 0.252392 -0.598164 0.760591
v 0.003085 -0.032872 -0.006987
vn 0.054684 0.032822 -0.997964
v 0.003085 -0.032872 -0.011173
vn -0.519074 -0.080056 -0.850972
v -0.005756 -0.034468 -0.011300
vn 0.814760 0.539248 0.213021
v 0.004593 -0.033496 0.011301
vn 0.832837 0.543229 -0.106231
v 0.004593 -0.033496 0.006987
vn 0.874963 0.123240 0.468244
v 0.006479 -0.038050 0.011301
vn 0.878997 -0.121366 -0.461123
v 0.006479 -0.038050 0.006987
vn 0.501225 -0.377462 0.778650
v 0.004593 -0.042604 0.011301
vn 0.383306 -0.506106 -0.772614
v 0.004593 -0.042604 0.006987
vn 0.067330 -0.478031 0.875759
v 0.000039 -0.044490 0.011301
vn -0.067020 -0.485401 -0.871719
v 0.000039 -0.044490 0.006987
vn -0.278617 -0.369969 0.886282
v -0.004515 -0.042604 0.011301
vn -0.374898 -0.283932 -0.882516
v -0.004515 -0.042604 0.006987
vn -0.535565 -0.132985 0.833958
v -0.006401 -0.038050 0.011301
vn -0.501729 -0.061272 -0.862852
v -0.006401 -0.038050 0.006987
vn -0.155382 -0.044003 0.986874
v -0.007570 -0.008719 0.012871
vn 0.385763 -0.241207 0.890509
v 0.004449 -0.031130 0.011238
vn 0.463387 0.105895 0.879806
v 0.005196 -0.008663 0.012882
vn 0.931882 0.358362 0.056316
v 0.009017 -0.012869 0.008031
vn 0.883726 -0.464829 0.054429
v 0.007840 -0.026880 0.007518
vn 0.952922 -0.109576 0.282725
v 0.009198 -0.019874 0.007775
vn -0.109791 0.795169 0.596366
v 0.000035 0.009562 0.011445
vn 0.582222 0.768750 0.264654
v 0.006762 0.006776 0.011445
vn 0.987417 0.136335 0.080124
v 0.009548 0.000050 0.011445
vn 0.694641 -0.302517 0.652655
v 0.006762 -0.006677 0.011445
vn -0.783867 0.104286 0.612109
v -0.009477 0.000050 0.011445
vn -0.794611 0.601808 0.080123
v -0.006691 0.006776 0.011445
vn -0.973564 -0.227317 -0.022347
v -0.006738 -0.033248 0.006987
vn -0.993368 -0.088101 0.073887
v -0.008791 -0.008692 0.009444
vn 0.117950 -0.772092 -0.624469
v 0.003085 -0.032872 0.006987
vn 0.054684 0.032822 0.997964
v 0.003085 -0.032872 0.011173
vn -0.519074 -0.080056 0.850972
v -0.005756 -0.034468 0.011301
vn 0.878997 -0.121366 0.461123
v 0.006479 -0.038050 -0.006987
vn 0.383306 -0.506106 0.772614
v 0.004593 -0.042604 -0.006987
vn -0.067020 -0.485401 0.871719
v 0.000039 -0.044490 -0.006987
vn -0.374898 -0.283932 0.882516
v -0.004515 -0.042604 -0.006987
vn 0.423837 -0.274071 -0.863277
v 0.004449 -0.031130 -0.011237
vn 0.582520 0.132692 -0.801912
v 0.005196 -0.008663 -0.012882
vn -0.601807 0.794612 -0.080123
v -0.006691 0.006776 -0.011445
vn 0.109791 0.795168 -0.596367
v 0.000035 0.009562 -0.011445
vn 0.768750 0.582221 -0.264654
v 0.006762 0.006776 -0.011445
vn -0.763664 0.214615 -0.608898
v -0.009477 0.000050 -0.011445
vn -0.995301 -0.085580 -0.045291
v -0.008791 -0.008692 -0.009444
vn 0.987417 -0.136335 -0.080124
v 0.009548 0.000050 -0.011445
vn 0.952922 -0.109576 0.282725
v 0.009198 -0.019874 0.007775
vn 0.883726 -0.464829 0.054429
v 0.007840 -0.026880 0.007518
vn 0.832837 0.543229 0.106231
v 0.004593 -0.033496 -0.006987
vn -0.501729 -0.061272 0.862852
v -0.006401 -0.038050 -0.006987
vn -0.155382 -0.044003 -0.986874
v -0.007570 -0.008719 -0.012870
vn -0.995301 -0.085580 -0.045291
v -0.008791 -0.008692 -0.009444
vn 0.252392 -0.598164 0.760591
v 0.003085 -0.032872 -0.006987
vn 0.109791 0.795168 -0.596367
v 0.000035 0.009562 -0.011445
vn 0.466367 -0.170161 -0.868071
v 0.006762 -0.006677 -0.011445
vn -0.501729 -0.061272 0.862852
v -0.006401 -0.038050 -0.006987
vn -0.824963 -0.563898 0.038152
v -0.006738 -0.033248 -0.006987
vn 0.067330 -0.478031 -0.875759
v 0.000039 -0.044490 -0.011300
vn 0.054684 0.032822 -0.997964
v 0.003085 -0.032872 -0.011173
vn 0.878997 -0.121366 -0.461123
v 0.006479 -0.038050 0.006987
vn 0.383306 -0.506106 -0.772614
v 0.004593 -0.042604 0.006987
vn -0.067020 -0.485401 -0.871719
v 0.000039 -0.044490 0.006987
vn -0.374898 -0.283932 -0.882516
v -0.004515 -0.042604 0.006987
vn 0.385763 -0.241207 0.890509
v 0.004449 -0.031130 0.011238
vn 0.952922 -0.109576 0.282725
v 0.009198 -0.019874 0.007775
vn -0.155382 -0.044003 0.986874
v -0.007570 -0.008719 0.012871
vn -0.783867 0.104286 0.612109
v -0.009477 0.000050 0.011445
vn 0.463387 0.105895 0.879806
v 0.005196 -0.008663 0.012882
vn -0.519074 -0.080056 0.850972
v -0.005756 -0.034468 0.011301
vn 0.385763 -0.241207 0.890509
v 0.004449 -0.031130 0.011238
vn -0.501729 -0.061272 -0.862852
v -0.006401 -0.038050 0.006987
vn -0.278617 -0.369969 0.886282
v -0.004515 -0.042604 0.011301
vn 0.067330 -0.478031 0.875759
v 0.000039 -0.044490 0.011301
vn -0.973564 -0.227317 -0.022347
v -0.006738 -0.033248 0.006987
vn -0.993368 -0.088101 0.073887
v -0.008791 -0.008692 0.009444
vn 0.832837 0.543229 0.106231
v 0.004593 -0.033496 -0.006987
vn 0.874963 0.123240 -0.468244
v 0.006479 -0.038050 -0.011300
vn 0.501225 -0.377462 -0.778650
v 0.004593 -0.042604 -0.011300
vn -0.278617 -0.369969 -0.886282
v -0.004515 -0.042604 -0.011300
vn 0.957952 -0.062569 -0.280022
v 0.009198 -0.019874 -0.007775
vn 0.950242 -0.306447 -0.055957
v 0.007840 -0.026880 -0.007518
vn 0.582520 0.132692 -0.801912
v 0.005196 -0.008663 -0.012882
vn 0.950242 -0.306447 -0.055957
v 0.007840 -0.026880 -0.007518
vn 0.950978 0.286638 -0.116101
v 0.009017 -0.012869 -0.008031
vn 0.931882 0.358362 0.056316
v 0.009017 -0.012869 0.008031
vn 0.463387 0.105895 0.879806
v 0.005196 -0.008663 0.012882
vn -0.794611 0.601808 0.080123
v -0.006691 0.006776 0.011445
vn -0.824963 -0.563898 0.038152
v -0.006738 -0.033248 -0.006987
vn -0.109791 0.795169 0.596366
v 0.000035 0.009562 0.011445
vn 0.582222 0.768750 0.264654
v 0.006762 0.006776 0.011445
vn 0.987417 0.136335 0.080124
v 0.009548 0.000050 0.011445
vn -0.993368 -0.088101 0.073887
v -0.008791 -0.008692 0.009444
vn 0.694641 -0.302517 0.652655
v 0.006762 -0.006677 0.011445
vn 0.252392 -0.598164 0.760591
v 0.003085 -0.032872 -0.006987
vn 0.117950 -0.772092 -0.624469
v 0.003085 -0.032872 0.006987
vn 0.383306 -0.506106 0.772614
v 0.004593 -0.042604 -0.006987
vn -0.374898 -0.283932 0.882516
v -0.004515 -0.042604 -0.006987
vn 0.878997 -0.121366 0.461123
v 0.006479 -0.038050 -0.006987
vn 0.054684 0.032822 0.997964
v 0.003085 -0.032872 0.011173
vn -0.763664 0.214615 -0.608898
v -0.009477 0.000050 -0.011445
vn 0.466367 -0.170161 -0.868071
v 0.006762 -0.006677 -0.011445
vn -0.519074 -0.080056 -0.850972
v -0.005756 -0.034468 -0.011300
vn -0.155382 -0.044003 -0.986874
v -0.007570 -0.008719 -0.012870
vn -0.519074 -0.080056 -0.850972
v -0.005756 -0.034468 -0.011300
vn 0.423837 -0.274071 -0.863277
v 0.004449 -0.031130 -0.011237
vn 0.054684 0.032822 -0.997964
v 0.003085 -0.032872 -0.011173
vn -0.535565 -0.132985 -0.833958
v -0.006401 -0.038050 -0.011300
vn -0.535565 -0.132985 -0.833958
v -0.006401 -0.038050 -0.011300
vn 0.067330 -0.478031 -0.875759
v 0.000039 -0.044490 -0.011300
vn 0.874963 0.123240 -0.468244
v 0.006479 -0.038050 -0.011300
vn 0.814760 0.539248 -0.213021
v 0.004593 -0.033496 -0.011300
vn -0.278617 -0.369969 -0.886282
v -0.004515 -0.042604 -0.011300
vn 0.814760 0.539248 0.213021
v 0.004593 -0.033496 0.011301
vn 0.874963 0.123240 0.468244
v 0.006479 -0.038050 0.011301
vn 0.501225 -0.377462 0.778650
v 0.004593 -0.042604 0.011301
vn 0.067330 -0.478031 0.875759
v 0.000039 -0.044490 0.011301
vn -0.535565 -0.132985 0.833958
v -0.006401 -0.038050 0.011301
vn 0.931882 0.358362 0.056316
v 0.009017 -0.012869 0.008031
vn 0.054684 0.032822 0.997964
v 0.003085 -0.032872 0.011173
vn 0.878997 -0.121366 -0.461123
v 0.006479 -0.038050 0.006987
vn -0.973564 -0.227317 -0.022347
v -0.006738 -0.033248 0.006987
vn -0.374898 -0.283932 -0.882516
v -0.004515 -0.042604 0.006987
vn 0.117950 -0.772092 -0.624469
v 0.003085 -0.032872 0.006987
vn -0.109791 0.795169 0.596366
v 0.000035 0.009562 0.011445
vn 0.987417 0.136335 0.080124
v 0.009548 0.000050 0.011445
vn -0.783867 0.104286 0.612109
v -0.009477 0.000050 0.011445
vn -0.155382 -0.044003 0.986874
v -0.007570 -0.008719 0.012871
vn -0.519074 -0.080056 0.850972
v -0.005756 -0.034468 0.011301
vn 0.814760 0.539248 0.213021
v 0.004593 -0.033496 0.011301
vn 0.501225 -0.377462 0.778650
v 0.004593 -0.042604 0.011301
vn -0.278617 -0.369969 0.886282
v -0.004515 -0.042604 0.011301
# 155 vertices, 0 vertices normals


usemtl material_0
vt 0.000000 0.000000
vt 1.000000 0.000000
vt 1.000000 1.000000
f 2/1/2 4/2/4 3/3/3
f 59/1/59 6/2/6 5/3/5
f 60/1/60 8/2/8 7/3/7
f 61/1/61 10/2/10 9/3/9
f 62/1/62 12/2/12 11/3/11
f 14/1/14 15/2/15 18/3/18
f 46/1/46 43/2/43 63/3/63
f 45/1/45 47/2/47 18/3/18
f 45/1/45 16/2/16 64/3/64
f 53/1/53 24/2/24 23/3/23
f 26/1/26 13/2/13 29/3/29
f 48/1/48 19/2/19 65/3/65
f 49/1/49 20/2/20 66/3/66
f 50/1/50 21/2/21 67/3/67
f 52/1/52 68/2/68 69/3/69
f 51/1/51 22/2/22 70/3/70
f 71/1/71 72/2/72 17/3/17
f 56/1/56 54/2/54 25/3/25
f 28/1/28 27/2/27 73/3/73
f 62/1/62 27/2/27 74/3/74
f 75/1/75 76/2/76 23/3/23
f 14/1/14 43/2/43 77/3/77
f 78/1/78 20/2/20 79/3/79
f 75/1/75 15/2/15 63/3/63
f 80/1/80 81/2/81 29/3/29
f 51/1/51 44/2/44 64/3/64
f 82/1/82 83/2/83 5/3/5
f 32/1/32 33/2/33 31/3/31
f 34/1/34 35/2/35 84/3/84
f 36/1/36 37/2/37 85/3/85
f 38/1/38 39/2/39 86/3/86
f 40/1/40 41/2/41 87/3/87
f 88/1/88 72/2/72 89/3/89
f 58/1/58 42/2/42 55/3/55
f 57/1/57 30/2/30 31/3/31
f 56/1/56 35/2/35 86/3/86
f 90/1/90 91/2/91 55/3/55
f 51/1/51 91/2/91 92/3/92
f 90/1/90 93/2/93 94/3/94
f 58/1/58 54/2/54 95/3/95
f 57/1/57 96/2/96 97/3/97
f 98/1/98 99/2/99 69/3/69
f 1/1/1 100/2/100 3/3/3
f 101/1/101 4/2/4 5/3/5
f 102/1/102 6/2/6 7/3/7
f 82/1/82 8/2/8 9/3/9
f 103/1/103 10/2/10 11/3/11
f 104/1/104 105/2/105 63/3/63
f 106/1/106 16/2/16 18/3/18
f 107/1/107 72/2/72 63/3/63
f 108/1/108 109/2/109 18/3/18
f 110/1/110 109/2/109 64/3/64
f 52/1/52 111/2/111 23/3/23
f 112/1/112 76/2/76 29/3/29
f 53/1/53 113/2/113 65/3/65
f 48/1/48 114/2/114 66/3/66
f 49/1/49 115/2/115 67/3/67
f 116/1/116 91/2/91 69/3/69
f 50/1/50 117/2/117 70/3/70
f 104/1/104 47/2/47 17/3/17
f 118/1/118 119/2/119 25/3/25
f 1/1/1 83/2/83 73/3/73
f 118/1/118 4/2/4 73/3/73
f 118/1/118 8/2/8 120/3/120
f 61/1/61 27/2/27 121/3/121
f 80/1/80 27/2/27 25/3/25
f 118/1/118 6/2/6 122/3/122
f 118/1/118 83/2/83 63/3/63
f 88/1/88 119/2/119 77/3/77
f 56/1/56 43/2/43 123/3/123
f 124/1/124 24/2/24 66/3/66
f 106/1/106 13/2/13 23/3/23
f 124/1/124 22/2/22 64/3/64
f 125/1/125 20/2/20 70/3/70
f 125/1/125 68/2/68 66/3/66
f 14/1/14 126/2/126 127/3/127
f 128/1/128 129/2/129 130/3/130
f 131/1/131 12/2/12 29/3/29
f 125/1/125 117/2/117 64/3/64
f 28/1/28 132/2/132 29/3/29
f 28/1/28 133/2/133 9/3/9
f 28/1/28 134/2/134 5/3/5
f 101/1/101 83/2/83 135/3/135
f 28/1/28 136/2/136 11/3/11
f 137/1/137 138/2/138 31/3/31
f 32/1/32 139/2/139 84/3/84
f 34/1/34 140/2/140 85/3/85
f 36/1/36 96/2/96 86/3/86
f 38/1/38 141/2/141 87/3/87
f 71/1/71 44/2/44 94/3/94
f 110/1/110 47/2/47 142/3/142
f 98/1/98 93/2/93 55/3/55
f 56/1/56 143/2/143 31/3/31
f 144/1/144 119/2/119 31/3/31
f 56/1/56 41/2/41 145/3/145
f 56/1/56 37/2/37 87/3/87
f 56/1/56 33/2/33 85/3/85
f 146/1/146 41/2/41 147/3/147
f 51/1/51 114/2/114 148/3/148
f 49/1/49 117/2/117 149/3/149
f 52/1/52 42/2/42 92/3/92
f 48/1/48 111/2/111 150/3/150
f 52/1/52 117/2/117 148/3/148
f 88/1/88 44/2/44 151/3/151
f 58/1/58 143/2/143 94/3/94
f 40/1/40 93/2/93 95/3/95
f 40/1/40 143/2/143 152/3/152
f 57/1/57 138/2/138 153/3/153
f 57/1/57 140/2/140 154/3/154
f 57/1/57 141/2/141 155/3/155
f 34/1/34 138/2/138 123/3/123
f 112/1/112 54/2/54 69/3/69
f 2/1/2 4/2/4 3/3/3
f 59/1/59 6/2/6 5/3/5
f 60/1/60 8/2/8 7/3/7
f 61/1/61 10/2/10 9/3/9
f 62/1/62 12/2/12 11/3/11
f 14/1/14 15/2/15 18/3/18
f 46/1/46 43/2/43 63/3/63
f 45/1/45 47/2/47 18/3/18
f 45/1/45 16/2/16 64/3/64
f 53/1/53 24/2/24 23/3/23
f 26/1/26 13/2/13 29/3/29
f 48/1/48 19/2/19 65/3/65
f 49/1/49 20/2/20 66/3/66
f 50/1/50 21/2/21 67/3/67
f 52/1/52 68/2/68 69/3/69
f 51/1/51 22/2/22 70/3/70
f 71/1/71 72/2/72 17/3/17
f 56/1/56 54/2/54 25/3/25
f 28/1/28 27/2/27 73/3/73
f 62/1/62 27/2/27 74/3/74
f 75/1/75 76/2/76 23/3/23
f 14/1/14 43/2/43 77/3/77
f 78/1/78 20/2/20 79/3/79
f 75/1/75 15/2/15 63/3/63
f 80/1/80 81/2/81 29/3/29
f 51/1/51 44/2/44 64/3/64
f 82/1/82 83/2/83 5/3/5
f 32/1/32 33/2/33 31/3/31
f 34/1/34 35/2/35 84/3/84
f 36/1/36 37/2/37 85/3/85
f 38/1/38 39/2/39 86/3/86
f 40/1/40 41/2/41 87/3/87
f 88/1/88 72/2/72 89/3/89
f 58/1/58 42/2/42 55/3/55
f 57/1/57 30/2/30 31/3/31
f 56/1/56 35/2/35 86/3/86
f 90/1/90 91/2/91 55/3/55
f 51/1/51 91/2/91 92/3/92
f 90/1/90 93/2/93 94/3/94
f 58/1/58 54/2/54 95/3/95
f 57/1/57 96/2/96 97/3/97
f 98/1/98 99/2/99 69/3/69
f 1/1/1 100/2/100 3/3/3
f 101/1/101 4/2/4 5/3/5
f 102/1/102 6/2/6 7/3/7
f 82/1/82 8/2/8 9/3/9
f 103/1/103 10/2/10 11/3/11
f 104/1/104 105/2/105 63/3/63
f 106/1/106 16/2/16 18/3/18
f 107/1/107 72/2/72 63/3/63
f 108/1/108 109/2/109 18/3/18
f 110/1/110 109/2/109 64/3/64
f 52/1/52 111/2/111 23/3/23
f 112/1/112 76/2/76 29/3/29
f 53/1/53 113/2/113 65/3/65
f 48/1/48 114/2/114 66/3/66
f 49/1/49 115/2/115 67/3/67
f 116/1/116 91/2/91 69/3/69
f 50/1/50 117/2/117 70/3/70
f 104/1/104 47/2/47 17/3/17
f 118/1/118 119/2/119 25/3/25
f 1/1/1 83/2/83 73/3/73
f 118/1/118 4/2/4 73/3/73
f 118/1/118 8/2/8 120/3/120
f 61/1/61 27/2/27 121/3/121
f 80/1/80 27/2/27 25/3/25
f 118/1/118 6/2/6 122/3/122
f 118/1/118 83/2/83 63/3/63
f 88/1/88 119/2/119 77/3/77
f 56/1/56 43/2/43 123/3/123
f 124/1/124 24/2/24 66/3/66
f 106/1/106 13/2/13 23/3/23
f 124/1/124 22/2/22 64/3/64
f 125/1/125 20/2/20 70/3/70
f 125/1/125 68/2/68 66/3/66
f 14/1/14 126/2/126 127/3/127
f 128/1/128 129/2/129 130/3/130
f 131/1/131 12/2/12 29/3/29
f 125/1/125 117/2/117 64/3/64
f 28/1/28 132/2/132 29/3/29
f 28/1/28 133/2/133 9/3/9
f 28/1/28 134/2/134 5/3/5
f 101/1/101 83/2/83 135/3/135
f 28/1/28 136/2/136 11/3/11
f 137/1/137 138/2/138 31/3/31
f 32/1/32 139/2/139 84/3/84
f 34/1/34 140/2/140 85/3/85
f 36/1/36 96/2/96 86/3/86
f 38/1/38 141/2/141 87/3/87
f 71/1/71 44/2/44 94/3/94
f 110/1/110 47/2/47 142/3/142
f 98/1/98 93/2/93 55/3/55
f 56/1/56 143/2/143 31/3/31
f 144/1/144 119/2/119 31/3/31
f 56/1/56 41/2/41 145/3/145
f 56/1/56 37/2/37 87/3/87
f 56/1/56 33/2/33 85/3/85
f 146/1/146 41/2/41 147/3/147
f 51/1/51 114/2/114 148/3/148
f 49/1/49 117/2/117 149/3/149
f 52/1/52 42/2/42 92/3/92
f 48/1/48 111/2/111 150/3/150
f 52/1/52 117/2/117 148/3/148
f 88/1/88 44/2/44 151/3/151
f 58/1/58 143/2/143 94/3/94
f 40/1/40 93/2/93 95/3/95
f 40/1/40 143/2/143 152/3/152
f 57/1/57 138/2/138 153/3/153
f 57/1/57 140/2/140 154/3/154
f 57/1/57 141/2/141 155/3/155
f 34/1/34 138/2/138 123/3/123
f 112/1/112 54/2/54 69/3/69
# 224 faces, 3 coords texture

# End of File