####
#
# OBJ File Generated by Meshlab
#
####
# Object pinkyj3_left.obj
#
# Vertices: 83
# Faces: 120
#
####
mtllib ./pinkyj3_left.obj.mtl

vn 0.914989 0.288810 -0.281753
v 0.004928 0.017919 -0.003766
vn 0.914425 0.046438 -0.402083
v 0.007218 0.006650 -0.004352
vn 0.587916 0.788425 -0.180945
v 0.003232 0.021436 -0.002563
vn 0.432104 0.825001 -0.364226
v 0.000383 0.021203 -0.006683
vn 0.372709 0.202300 -0.905628
v 0.002074 0.017468 -0.007885
vn -0.975318 0.168556 -0.142633
v -0.002026 0.020621 -0.005985
vn -0.985714 -0.032635 -0.165234
v -0.003875 0.005242 -0.006831
vn -0.255618 -0.506857 -0.823259
v -0.002520 0.005242 -0.008083
vn -0.349049 0.305890 -0.885774
v -0.001051 0.021475 -0.006841
vn 0.312295 -0.396241 -0.863403
v 0.003787 0.005823 -0.009351
vn 0.052938 -0.987865 -0.146015
v 0.005164 0.004522 -0.006024
vn 0.914988 0.288810 0.281754
v 0.004928 0.017919 0.003766
vn 0.914425 0.046438 0.402084
v 0.007218 0.006650 0.004352
vn 0.587916 0.788425 0.180946
v 0.003232 0.021436 0.002563
vn 0.432103 0.825001 0.364226
v 0.000383 0.021203 0.006683
vn 0.372709 0.202300 0.905629
v 0.002074 0.017468 0.007885
vn -0.975318 0.168556 0.142632
v -0.002026 0.020621 0.005985
vn -0.985714 -0.032635 0.165233
v -0.003875 0.005242 0.006831
vn -0.255618 -0.506857 0.823259
v -0.002520 0.005242 0.008083
vn -0.349050 0.305890 0.885774
v -0.001051 0.021475 0.006841
vn 0.312294 -0.396241 0.863403
v 0.003787 0.005823 0.009351
vn 0.052938 -0.987865 0.146015
v 0.005164 0.004522 0.006024
vn -0.235399 0.971899 -0.000000
v -0.001078 0.021543 0.000000
vn -0.074879 -0.997193 -0.000000
v 0.003787 0.005823 0.000000
vn 0.603622 0.797271 0.000000
v 0.003232 0.021436 0.000000
vn 0.424285 -0.905529 0.000000
v 0.005256 0.004520 0.000000
vn 0.003204 0.999995 0.000000
v 0.000491 0.021297 0.000000
vn 0.995172 0.098142 0.000000
v 0.007236 0.006574 0.000000
vn 0.065824 -0.997831 -0.000000
v -0.002520 0.005242 -0.000000
vn 0.958104 0.286422 0.000000
v 0.004960 0.017914 0.000000
vn -0.985593 0.169137 -0.000000
v -0.002026 0.020621 0.000000
vn -0.997327 0.073070 -0.000000
v -0.003875 0.005242 -0.000000
vn 0.372709 0.202300 -0.905628
v 0.002074 0.017468 -0.007885
vn 0.914989 0.288810 -0.281753
v 0.004928 0.017919 -0.003766
vn -0.985714 -0.032635 -0.165234
v -0.003875 0.005242 -0.006831
vn -0.255618 -0.506857 -0.823259
v -0.002520 0.005242 -0.008083
vn -0.975318 0.168556 -0.142633
v -0.002026 0.020621 -0.005985
vn 0.914425 0.046438 -0.402083
v 0.007218 0.006650 -0.004352
vn 0.995172 0.098142 0.000000
v 0.007236 0.006574 0.000000
vn 0.372709 0.202300 -0.905628
v 0.002074 0.017468 -0.007885
vn -0.255618 -0.506857 -0.823259
v -0.002520 0.005242 -0.008083
vn 0.065824 -0.997831 -0.000000
v -0.002520 0.005242 -0.000000
vn 0.958104 0.286422 0.000000
v 0.004960 0.017914 0.000000
vn 0.587916 0.788425 -0.180945
v 0.003232 0.021436 -0.002563
vn 0.052938 -0.987865 -0.146015
v 0.005164 0.004522 -0.006024
vn -0.235399 0.971899 -0.000000
v -0.001078 0.021543 0.000000
vn 0.003204 0.999995 0.000000
v 0.000491 0.021297 0.000000
vn 0.914988 0.288810 0.281754
v 0.004928 0.017919 0.003766
vn 0.372709 0.202300 0.905629
v 0.002074 0.017468 0.007885
vn 0.914425 0.046438 0.402084
v 0.007218 0.006650 0.004352
vn 0.914988 0.288810 0.281754
v 0.004928 0.017919 0.003766
vn 0.065824 -0.997831 -0.000000
v -0.002520 0.005242 -0.000000
vn -0.255618 -0.506857 0.823259
v -0.002520 0.005242 0.008083
vn -0.997327 0.073070 -0.000000
v -0.003875 0.005242 -0.000000
vn -0.985714 -0.032635 0.165233
v -0.003875 0.005242 0.006831
vn 0.914425 0.046438 0.402084
v 0.007218 0.006650 0.004352
vn -0.349050 0.305890 0.885774
v -0.001051 0.021475 0.006841
vn -0.074879 -0.997193 -0.000000
v 0.003787 0.005823 0.000000
vn 0.958104 0.286422 0.000000
v 0.004960 0.017914 0.000000
vn 0.432103 0.825001 0.364226
v 0.000383 0.021203 0.006683
vn 0.052938 -0.987865 0.146015
v 0.005164 0.004522 0.006024
vn 0.424285 -0.905529 0.000000
v 0.005256 0.004520 0.000000
vn 0.432103 0.825001 0.364226
v 0.000383 0.021203 0.006683
vn 0.432104 0.825001 -0.364226
v 0.000383 0.021203 -0.006683
vn -0.349049 0.305890 -0.885774
v -0.001051 0.021475 -0.006841
vn -0.975318 0.168556 -0.142633
v -0.002026 0.020621 -0.005985
vn 0.312295 -0.396241 -0.863403
v 0.003787 0.005823 -0.009351
vn 0.914425 0.046438 -0.402083
v 0.007218 0.006650 -0.004352
vn -0.985593 0.169137 -0.000000
v -0.002026 0.020621 0.000000
vn -0.997327 0.073070 -0.000000
v -0.003875 0.005242 -0.000000
vn 0.432104 0.825001 -0.364226
v 0.000383 0.021203 -0.006683
vn 0.312295 -0.396241 -0.863403
v 0.003787 0.005823 -0.009351
vn 0.914989 0.288810 -0.281753
v 0.004928 0.017919 -0.003766
vn -0.235399 0.971899 -0.000000
v -0.001078 0.021543 0.000000
vn 0.587916 0.788425 -0.180945
v 0.003232 0.021436 -0.002563
vn 0.052938 -0.987865 -0.146015
v 0.005164 0.004522 -0.006024
vn -0.975318 0.168556 0.142632
v -0.002026 0.020621 0.005985
vn 0.312294 -0.396241 0.863403
v 0.003787 0.005823 0.009351
vn 0.312294 -0.396241 0.863403
v 0.003787 0.005823 0.009351
vn -0.074879 -0.997193 -0.000000
v 0.003787 0.005823 0.000000
vn 0.587916 0.788425 0.180946
v 0.003232 0.021436 0.002563
vn 0.603622 0.797271 0.000000
v 0.003232 0.021436 0.000000
vn 0.003204 0.999995 0.000000
v 0.000491 0.021297 0.000000
# 83 vertices, 0 vertices normals


usemtl material_0
vt 0.000000 0.000000
vt 1.000000 1.000000
vt 1.000000 0.000000
f 28/1/28 1/2/1 30/3/30
f 4/1/4 1/2/1 5/3/5
f 6/1/6 8/2/8 7/3/7
f 2/1/2 33/2/33 34/3/34
f 29/1/29 35/2/35 36/3/36
f 32/1/32 37/2/37 7/3/7
f 2/1/2 11/2/11 10/3/10
f 26/1/26 38/2/38 39/3/39
f 40/1/40 8/2/8 9/3/9
f 41/1/41 24/2/24 42/3/42
f 43/1/43 3/2/3 25/3/25
f 23/1/23 37/2/37 31/3/31
f 44/1/44 27/2/27 25/3/25
f 45/1/45 24/2/24 10/3/10
f 4/1/4 46/2/46 47/3/47
f 28/1/28 12/2/12 13/3/13
f 48/1/48 15/2/15 16/3/16
f 17/1/17 19/2/19 20/3/20
f 49/1/49 50/2/50 51/3/51
f 18/1/18 52/2/52 53/3/53
f 17/1/17 54/2/54 55/3/55
f 56/1/56 21/2/21 22/3/22
f 26/1/26 50/2/50 22/3/22
f 57/1/57 19/2/19 16/3/16
f 58/1/58 19/2/19 42/3/42
f 14/1/14 59/2/59 25/3/25
f 17/1/17 46/2/46 31/3/31
f 14/1/14 27/2/27 60/3/60
f 61/1/61 24/2/24 62/3/62
f 63/1/63 46/2/46 20/3/20
f 2/1/2 1/2/1 39/3/39
f 44/1/44 1/2/1 64/3/64
f 65/1/65 8/2/8 66/3/66
f 67/1/67 33/2/33 68/3/68
f 32/1/32 35/2/35 42/3/42
f 69/1/69 37/2/37 70/3/70
f 45/1/45 38/2/38 62/3/62
f 65/1/65 71/2/71 5/3/5
f 40/1/40 72/2/72 36/3/36
f 67/1/67 24/2/24 36/3/36
f 73/1/73 3/2/3 30/3/30
f 65/1/65 37/2/37 74/3/74
f 4/1/4 27/2/27 75/3/75
f 26/1/26 24/2/24 76/3/76
f 65/1/65 46/2/46 64/3/64
f 43/1/43 12/2/12 39/3/39
f 14/1/14 15/2/15 51/3/51
f 18/1/18 19/2/19 77/3/77
f 78/1/78 50/2/50 16/3/16
f 32/1/32 52/2/52 55/3/55
f 69/1/69 54/2/54 77/3/77
f 28/1/28 50/2/50 62/3/62
f 49/1/49 15/2/15 20/3/20
f 49/1/49 19/2/19 79/3/79
f 78/1/78 19/2/19 80/3/80
f 48/1/48 59/2/59 81/3/81
f 57/1/57 46/2/46 77/3/77
f 82/1/82 27/2/27 81/3/81
f 78/1/78 24/2/24 22/3/22
f 83/1/83 46/2/46 60/3/60
f 28/1/28 1/2/1 30/3/30
f 4/1/4 1/2/1 5/3/5
f 6/1/6 8/2/8 7/3/7
f 2/1/2 33/2/33 34/3/34
f 29/1/29 35/2/35 36/3/36
f 32/1/32 37/2/37 7/3/7
f 2/1/2 11/2/11 10/3/10
f 26/1/26 38/2/38 39/3/39
f 40/1/40 8/2/8 9/3/9
f 41/1/41 24/2/24 42/3/42
f 43/1/43 3/2/3 25/3/25
f 23/1/23 37/2/37 31/3/31
f 44/1/44 27/2/27 25/3/25
f 45/1/45 24/2/24 10/3/10
f 4/1/4 46/2/46 47/3/47
f 28/1/28 12/2/12 13/3/13
f 48/1/48 15/2/15 16/3/16
f 17/1/17 19/2/19 20/3/20
f 49/1/49 50/2/50 51/3/51
f 18/1/18 52/2/52 53/3/53
f 17/1/17 54/2/54 55/3/55
f 56/1/56 21/2/21 22/3/22
f 26/1/26 50/2/50 22/3/22
f 57/1/57 19/2/19 16/3/16
f 58/1/58 19/2/19 42/3/42
f 14/1/14 59/2/59 25/3/25
f 17/1/17 46/2/46 31/3/31
f 14/1/14 27/2/27 60/3/60
f 61/1/61 24/2/24 62/3/62
f 63/1/63 46/2/46 20/3/20
f 2/1/2 1/2/1 39/3/39
f 44/1/44 1/2/1 64/3/64
f 65/1/65 8/2/8 66/3/66
f 67/1/67 33/2/33 68/3/68
f 32/1/32 35/2/35 42/3/42
f 69/1/69 37/2/37 70/3/70
f 45/1/45 38/2/38 62/3/62
f 65/1/65 71/2/71 5/3/5
f 40/1/40 72/2/72 36/3/36
f 67/1/67 24/2/24 36/3/36
f 73/1/73 3/2/3 30/3/30
f 65/1/65 37/2/37 74/3/74
f 4/1/4 27/2/27 75/3/75
f 26/1/26 24/2/24 76/3/76
f 65/1/65 46/2/46 64/3/64
f 43/1/43 12/2/12 39/3/39
f 14/1/14 15/2/15 51/3/51
f 18/1/18 19/2/19 77/3/77
f 78/1/78 50/2/50 16/3/16
f 32/1/32 52/2/52 55/3/55
f 69/1/69 54/2/54 77/3/77
f 28/1/28 50/2/50 62/3/62
f 49/1/49 15/2/15 20/3/20
f 49/1/49 19/2/19 79/3/79
f 78/1/78 19/2/19 80/3/80
f 48/1/48 59/2/59 81/3/81
f 57/1/57 46/2/46 77/3/77
f 82/1/82 27/2/27 81/3/81
f 78/1/78 24/2/24 22/3/22
f 83/1/83 46/2/46 60/3/60
# 120 faces, 3 coords texture

# End of File