####
#
# OBJ File Generated by Meshlab
#
####
# Object thumbj3_left.obj
#
# Vertices: 56
# Faces: 172
#
####
mtllib ./thumbj3_left.obj.mtl

vn -0.998318 0.045018 0.036528
v -0.009798 0.005542 0.023242
vn -0.975851 0.218427 -0.001870
v -0.009633 0.007523 0.026087
vn -0.000000 0.976700 0.214609
v -0.000000 0.009258 0.026237
vn -0.935494 0.276185 0.220394
v -0.009483 0.006539 0.029170
vn -0.000000 0.643459 0.765481
v -0.000000 0.007114 0.030744
vn -0.875447 0.032487 0.482221
v -0.009468 0.004230 0.029856
vn 0.000000 -0.277806 0.960637
v -0.000000 0.004624 0.031483
vn -0.937168 -0.316535 0.146702
v -0.009541 0.002281 0.028802
vn 0.000000 -0.929641 0.368468
v -0.000000 0.000427 0.029526
vn -0.941466 0.337022 0.007582
v -0.009729 0.007620 0.021177
vn -0.350581 0.858891 -0.373362
v -0.007446 0.008197 0.007924
vn -0.135355 0.954059 0.267302
v -0.006685 0.009803 0.019024
vn -0.182748 0.975084 -0.125754
v -0.006643 0.009671 0.013471
vn 0.000000 0.223002 -0.974818
v -0.000000 0.005492 0.005005
vn 0.000000 -0.980125 0.198382
v -0.000000 -0.005003 0.007193
vn 0.000000 0.998735 0.050291
v -0.000000 0.007904 0.022001
vn 0.000000 0.991512 -0.130013
v -0.000000 0.009671 0.013471
vn 0.000000 0.993282 0.115714
v -0.000000 0.009803 0.019024
vn -0.650109 0.143359 -0.746194
v -0.010455 0.005174 0.005099
vn -0.957059 -0.164558 -0.238661
v -0.010506 -0.003328 0.006848
vn 0.000000 0.925386 -0.379025
v -0.000000 0.008360 0.008020
vn -0.259959 0.963409 0.065308
v -0.008616 0.007904 0.022001
vn -0.148302 0.988781 -0.017827
v -0.008456 0.009258 0.026237
vn -0.129660 0.799130 0.587009
v -0.008292 0.007114 0.030744
vn -0.155239 -0.084991 0.984214
v -0.008280 0.004624 0.031483
vn -0.108967 -0.924463 0.365368
v -0.007968 0.000427 0.029526
vn -0.290142 -0.948562 0.126682
v -0.008670 -0.005003 0.007193
vn 0.998318 0.045018 0.036528
v 0.009798 0.005542 0.023242
vn 0.975851 0.218428 -0.001870
v 0.009633 0.007523 0.026087
vn 0.935494 0.276185 0.220394
v 0.009483 0.006539 0.029170
vn 0.875447 0.032487 0.482221
v 0.009468 0.004230 0.029856
vn 0.937168 -0.316535 0.146702
v 0.009541 0.002281 0.028802
vn 0.941466 0.337022 0.007582
v 0.009729 0.007620 0.021177
vn 0.350581 0.858891 -0.373362
v 0.007446 0.008197 0.007924
vn 0.135355 0.954059 0.267302
v 0.006685 0.009803 0.019024
vn 0.182748 0.975084 -0.125754
v 0.006643 0.009671 0.013471
vn 0.650109 0.143359 -0.746194
v 0.010455 0.005174 0.005099
vn 0.957059 -0.164558 -0.238661
v 0.010506 -0.003328 0.006848
vn 0.259959 0.963409 0.065308
v 0.008616 0.007904 0.022001
vn 0.148302 0.988782 -0.017827
v 0.008456 0.009258 0.026237
vn 0.129660 0.799130 0.587009
v 0.008292 0.007114 0.030744
vn 0.155239 -0.084991 0.984214
v 0.008280 0.004624 0.031483
vn 0.108967 -0.924463 0.365368
v 0.007968 0.000427 0.029526
vn 0.290142 -0.948562 0.126682
v 0.008670 -0.005003 0.007193
vn 0.000000 -0.202859 -0.979208
v -0.000000 -0.003328 0.006848
vn 0.000000 -0.202859 -0.979208
v -0.000000 -0.003328 0.006848
vn 0.000000 0.925386 -0.379025
v -0.000000 0.008360 0.008020
vn 0.000000 0.991512 -0.130013
v -0.000000 0.009671 0.013471
vn 0.000000 0.993282 0.115714
v -0.000000 0.009803 0.019024
vn 0.000000 -0.980125 0.198382
v -0.000000 -0.005003 0.007193
vn -0.000000 0.976700 0.214609
v -0.000000 0.009258 0.026237
vn -0.000000 0.643459 0.765481
v -0.000000 0.007114 0.030744
vn 0.000000 -0.277806 0.960637
v -0.000000 0.004624 0.031483
vn 0.000000 -0.929641 0.368468
v -0.000000 0.000427 0.029526
vn 0.000000 0.998735 0.050291
v -0.000000 0.007904 0.022001
vn 0.000000 0.223002 -0.974818
v -0.000000 0.005492 0.005005
# 56 vertices, 0 vertices normals


usemtl material_0
vt 0.488234 0.668148
vt 0.148266 0.682835
vt 0.130323 0.690753
f 21/1/21 11/2/11 13/3/13
vt 0.108341 0.701309
vt 0.165025 0.362848
f 13/3/13 12/4/12 18/5/18
vt 0.155334 0.956405
vt 0.092261 0.862188
vt 0.139188 0.739654
f 45/6/45 15/7/15 27/8/27
vt 0.066047 0.762461
vt 0.019193 0.786748
vt 0.035447 0.783493
f 24/9/24 5/10/5 3/11/3
vt 0.073445 0.767497
vt 0.000114 0.795418
f 25/12/25 7/13/7 5/10/5
vt 0.088156 0.776014
vt 0.043345 0.818457
f 26/14/26 9/15/9 7/13/7
vt 0.088949 0.761912
f 27/8/27 26/14/26 8/16/8
vt 0.165675 0.681994
vt 0.487871 0.824400
f 19/17/19 14/18/14 45/6/45
vt 0.108550 0.721233
f 10/19/10 12/4/12 13/3/13
vt 0.081528 0.747387
vt 0.065258 0.748833
vt 0.090182 0.720093
f 2/20/2 23/21/23 22/22/22
vt 0.076544 0.757127
f 4/23/4 24/9/24 23/21/23
vt 0.080401 0.761390
f 6/24/6 25/12/25 24/9/24
f 8/16/8 26/14/26 25/12/25
f 2/20/2 8/16/8 4/23/4
vt 0.099038 0.738122
f 1/25/1 22/22/22 10/19/10
vt 0.153364 0.717103
f 10/19/10 19/17/19 20/26/20
f 12/4/12 10/19/10 22/22/22
vt 0.035722 0.362849
f 23/21/23 3/11/3 16/27/16
f 12/4/12 22/22/22 16/27/16
f 11/2/11 21/1/21 14/18/14
f 15/7/15 9/15/9 26/14/26
vt 0.349550 0.204578
vt 0.329448 0.216896
vt 0.526787 0.134494
f 32/28/32 43/29/43 44/30/44
vt 0.524840 0.178745
vt 0.508874 0.136214
vt 0.733001 0.000114
f 37/31/37 38/32/38 46/33/46
vt 0.425472 0.193918
vt 0.566470 0.179759
f 33/34/33 37/31/37 34/35/34
vt 0.414612 0.208771
vt 0.374238 0.210848
vt 0.379627 0.202512
f 39/36/39 40/37/40 29/38/29
vt 0.351231 0.206202
vt 0.360366 0.204580
f 40/37/40 41/39/41 30/40/30
vt 0.339729 0.222050
vt 0.349719 0.207549
f 41/39/41 42/41/42 31/42/31
f 42/41/42 43/29/43 32/28/32
vt 0.398200 0.192873
f 28/43/28 29/38/29 32/28/32
f 28/43/28 33/34/33 39/36/39
f 38/32/38 37/31/37 33/34/33
vt 0.442223 0.203449
f 35/44/35 39/36/39 33/34/33
vt 0.353456 0.474741
f 17/45/17 21/1/21 13/3/13
f 17/45/17 13/3/13 18/5/18
f 20/26/20 45/6/45 27/8/27
f 23/21/23 24/9/24 3/11/3
f 24/9/24 25/12/25 5/10/5
f 25/12/25 26/14/26 7/13/7
f 20/26/20 27/8/27 8/16/8
f 20/26/20 19/17/19 45/6/45
f 11/2/11 19/17/19 10/19/10
f 10/19/10 13/3/13 11/2/11
f 1/25/1 2/20/2 22/22/22
f 2/20/2 4/23/4 23/21/23
f 4/23/4 6/24/6 24/9/24
f 6/24/6 8/16/8 25/12/25
f 8/16/8 2/20/2 1/25/1
f 8/16/8 6/24/6 4/23/4
f 1/25/1 20/26/20 8/16/8
f 1/25/1 10/19/10 20/26/20
f 22/22/22 23/21/23 16/27/16
f 18/5/18 12/4/12 16/27/16
f 19/17/19 11/2/11 14/18/14
f 27/8/27 15/7/15 26/14/26
f 38/32/38 44/30/44 46/33/46
f 38/32/38 32/28/32 44/30/44
vt 0.514040 0.205809
f 36/46/36 35/44/35 33/34/33
f 33/34/33 34/35/34 36/46/36
f 28/43/28 39/36/39 29/38/29
f 29/38/29 40/37/40 30/40/30
f 30/40/30 41/39/41 31/42/31
f 31/42/31 42/41/42 32/28/32
f 32/28/32 38/32/38 28/43/28
f 30/40/30 31/42/31 32/28/32
f 32/28/32 29/38/29 30/40/30
f 28/43/28 38/32/38 33/34/33
vt 0.801522 0.305214
vt 0.571233 0.362620
f 47/47/47 48/48/48 36/46/36
vt 0.361047 0.297773
f 49/49/49 35/44/35 36/46/36
vt 0.513366 0.000114
f 44/30/44 50/50/50 46/33/46
vt 0.158591 0.149911
vt 0.078215 0.149149
f 51/51/51 52/52/52 41/39/41
vt 0.000114 0.164212
f 52/52/52 53/53/53 42/41/42
vt 0.159778 0.163588
f 53/53/53 54/54/54 43/29/43
vt 0.217722 0.156729
f 55/55/55 51/51/51 40/37/40
f 55/55/55 39/36/39 35/44/35
vt 0.999886 0.165275
f 34/35/34 37/31/37 56/56/56
f 50/50/50 44/30/44 43/29/43
f 34/35/34 47/47/47 36/46/36
f 48/48/48 49/49/49 36/46/36
f 40/37/40 51/51/51 41/39/41
f 41/39/41 52/52/52 42/41/42
f 42/41/42 53/53/53 43/29/43
f 56/56/56 37/31/37 46/33/46
f 39/36/39 55/55/55 40/37/40
f 49/49/49 55/55/55 35/44/35
f 47/47/47 34/35/34 56/56/56
f 54/54/54 50/50/50 43/29/43
f 21/1/21 11/2/11 13/3/13
f 13/3/13 12/4/12 18/5/18
f 45/6/45 15/7/15 27/8/27
f 24/9/24 5/10/5 3/11/3
f 25/12/25 7/13/7 5/10/5
f 26/14/26 9/15/9 7/13/7
f 27/8/27 26/14/26 8/16/8
f 19/17/19 14/18/14 45/6/45
f 10/19/10 12/4/12 13/3/13
f 2/20/2 23/21/23 22/22/22
f 4/23/4 24/9/24 23/21/23
f 6/24/6 25/12/25 24/9/24
f 8/16/8 26/14/26 25/12/25
f 2/20/2 8/16/8 4/23/4
f 1/25/1 22/22/22 10/19/10
f 10/19/10 19/17/19 20/26/20
f 12/4/12 10/19/10 22/22/22
f 23/21/23 3/11/3 16/27/16
f 12/4/12 22/22/22 16/27/16
f 11/2/11 21/1/21 14/18/14
f 15/7/15 9/15/9 26/14/26
f 32/28/32 43/29/43 44/30/44
f 37/31/37 38/32/38 46/33/46
f 33/34/33 37/31/37 34/35/34
f 39/36/39 40/37/40 29/38/29
f 40/37/40 41/39/41 30/40/30
f 41/39/41 42/41/42 31/42/31
f 42/41/42 43/29/43 32/28/32
f 28/43/28 29/38/29 32/28/32
f 28/43/28 33/34/33 39/36/39
f 38/32/38 37/31/37 33/34/33
f 35/44/35 39/36/39 33/34/33
f 17/45/17 21/1/21 13/3/13
f 17/45/17 13/3/13 18/5/18
f 20/26/20 45/6/45 27/8/27
f 23/21/23 24/9/24 3/11/3
f 24/9/24 25/12/25 5/10/5
f 25/12/25 26/14/26 7/13/7
f 20/26/20 27/8/27 8/16/8
f 20/26/20 19/17/19 45/6/45
f 11/2/11 19/17/19 10/19/10
f 10/19/10 13/3/13 11/2/11
f 1/25/1 2/20/2 22/22/22
f 2/20/2 4/23/4 23/21/23
f 4/23/4 6/24/6 24/9/24
f 6/24/6 8/16/8 25/12/25
f 8/16/8 2/20/2 1/25/1
f 8/16/8 6/24/6 4/23/4
f 1/25/1 20/26/20 8/16/8
f 1/25/1 10/19/10 20/26/20
f 22/22/22 23/21/23 16/27/16
f 18/5/18 12/4/12 16/27/16
f 19/17/19 11/2/11 14/18/14
f 27/8/27 15/7/15 26/14/26
f 38/32/38 44/30/44 46/33/46
f 38/32/38 32/28/32 44/30/44
f 36/46/36 35/44/35 33/34/33
f 33/34/33 34/35/34 36/46/36
f 28/43/28 39/36/39 29/38/29
f 29/38/29 40/37/40 30/40/30
f 30/40/30 41/39/41 31/42/31
f 31/42/31 42/41/42 32/28/32
f 32/28/32 38/32/38 28/43/28
f 30/40/30 31/42/31 32/28/32
f 32/28/32 29/38/29 30/40/30
f 28/43/28 38/32/38 33/34/33
f 47/47/47 48/48/48 36/46/36
f 49/49/49 35/44/35 36/46/36
f 44/30/44 50/50/50 46/33/46
f 51/51/51 52/52/52 41/39/41
f 52/52/52 53/53/53 42/41/42
f 53/53/53 54/54/54 43/29/43
f 55/55/55 51/51/51 40/37/40
f 55/55/55 39/36/39 35/44/35
f 34/35/34 37/31/37 56/56/56
f 50/50/50 44/30/44 43/29/43
f 34/35/34 47/47/47 36/46/36
f 48/48/48 49/49/49 36/46/36
f 40/37/40 51/51/51 41/39/41
f 41/39/41 52/52/52 42/41/42
f 42/41/42 53/53/53 43/29/43
f 56/56/56 37/31/37 46/33/46
f 39/36/39 55/55/55 40/37/40
f 49/49/49 55/55/55 35/44/35
f 47/47/47 34/35/34 56/56/56
f 54/54/54 50/50/50 43/29/43
# 172 faces, 56 coords texture

# End of File