####
#
# OBJ File Generated by Meshlab
#
####
# Object thumbj2_left.obj
#
# Vertices: 64
# Faces: 200
#
####
mtllib ./thumbj2_left.obj.mtl

vn 0.998461 0.024768 0.049619
v 0.011586 0.007906 0.031787
vn 0.956878 0.288573 0.033322
v 0.011423 0.010019 0.037289
vn -0.000000 0.999206 0.039848
v -0.000104 0.013036 0.036539
vn 0.796422 0.403254 0.450665
v 0.011218 0.008971 0.040850
vn -0.000000 0.712573 0.701598
v -0.000104 0.011177 0.041765
vn 0.917285 0.091998 0.387459
v 0.011161 0.006527 0.042221
vn -0.000000 0.237949 0.971278
v -0.000104 0.007827 0.043491
vn 0.944399 -0.285673 0.162793
v 0.010967 0.003464 0.042752
vn 0.000000 -0.766526 0.642213
v -0.000104 0.002339 0.044381
vn 0.096392 -0.250830 -0.963220
v 0.006670 -0.005745 0.009126
vn 0.960311 0.277968 0.023171
v 0.011703 0.009065 0.029302
vn 0.097167 0.095663 -0.990660
v 0.006681 0.006185 0.006968
vn 0.127110 0.846393 -0.517167
v 0.009009 0.011227 0.011253
vn 0.150813 0.957483 0.245929
v 0.008738 0.012397 0.025072
vn 0.336651 0.939283 -0.066435
v 0.007863 0.012595 0.017750
vn -0.000000 0.124408 -0.992231
v -0.000104 0.006185 0.006968
vn 0.000000 -0.980507 0.196484
v -0.000104 -0.007086 0.009791
vn -0.000000 0.998077 -0.061992
v -0.000104 0.009904 0.030432
vn 0.000000 -0.965453 0.260576
v -0.000104 -0.000961 0.033002
vn -0.000000 0.996433 -0.084394
v -0.000104 0.012595 0.017749
vn -0.000000 0.989099 0.147251
v -0.000104 0.012397 0.025072
vn 0.927296 0.303911 -0.218542
v 0.012399 0.007861 0.008819
vn 0.978759 -0.120153 -0.166115
v 0.012824 -0.004889 0.010035
vn -0.000000 0.865819 -0.500358
v -0.000104 0.011227 0.011253
vn 0.284665 0.957089 -0.054273
v 0.010393 0.009789 0.030665
vn 0.178949 0.960245 -0.214259
v 0.009244 0.013024 0.036441
vn 0.188804 0.848149 0.494971
v 0.009060 0.011050 0.041886
vn 0.159280 0.316343 0.935177
v 0.009023 0.007827 0.043491
vn 0.135525 -0.880946 0.453395
v 0.008962 0.002339 0.044381
vn 0.216607 -0.947452 0.235407
v 0.010891 -0.006090 0.011214
vn 0.060182 -0.982013 0.178963
v 0.006073 -0.007086 0.009791
vn -0.998461 0.024768 0.049619
v -0.011586 0.007906 0.031787
vn -0.956878 0.288573 0.033322
v -0.011423 0.010019 0.037289
vn -0.796422 0.403254 0.450665
v -0.011218 0.008971 0.040850
vn -0.917285 0.091998 0.387459
v -0.011161 0.006527 0.042221
vn -0.944399 -0.285673 0.162793
v -0.010967 0.003464 0.042752
vn -0.096392 -0.250830 -0.963220
v -0.006670 -0.005745 0.009126
vn -0.960311 0.277967 0.023171
v -0.011703 0.009065 0.029302
vn -0.098269 0.093504 -0.990757
v -0.006681 0.006185 0.006968
vn -0.129168 0.846064 -0.517196
v -0.009009 0.011227 0.011253
vn -0.153723 0.957199 0.245235
v -0.008738 0.012397 0.025072
vn -0.341521 0.937547 -0.066098
v -0.007863 0.012595 0.017750
vn -0.927296 0.303910 -0.218542
v -0.012399 0.007861 0.008819
vn -0.978759 -0.120153 -0.166115
v -0.012824 -0.004889 0.010035
vn -0.288792 0.955855 -0.054226
v -0.010393 0.009789 0.030665
vn -0.182244 0.959771 -0.213602
v -0.009244 0.013024 0.036441
vn -0.192264 0.847507 0.494739
v -0.009060 0.011050 0.041886
vn -0.162116 0.316015 0.934801
v -0.009023 0.007827 0.043491
vn -0.138102 -0.880740 0.453018
v -0.008962 0.002339 0.044381
vn -0.219213 -0.946954 0.234998
v -0.010891 -0.006090 0.011214
vn -0.000000 -0.206817 -0.978380
v 0.000000 -0.005745 0.009126
vn -0.061356 -0.982098 0.178097
v -0.006073 -0.007086 0.009791
vn -0.000000 -0.206817 -0.978380
v 0.000000 -0.005745 0.009126
vn -0.000000 0.865819 -0.500358
v -0.000104 0.011227 0.011253
vn -0.000000 0.996433 -0.084394
v -0.000104 0.012595 0.017749
vn -0.000000 0.989099 0.147251
v -0.000104 0.012397 0.025072
vn -0.000000 0.999206 0.039848
v -0.000104 0.013036 0.036539
vn -0.000000 0.712573 0.701598
v -0.000104 0.011177 0.041765
vn -0.000000 0.237949 0.971278
v -0.000104 0.007827 0.043491
vn 0.000000 -0.766526 0.642213
v -0.000104 0.002339 0.044381
vn -0.000000 0.124408 -0.992231
v -0.000104 0.006185 0.006968
vn -0.000000 0.998077 -0.061992
v -0.000104 0.009904 0.030432
vn 0.000000 -0.980507 0.196484
v -0.000104 -0.007086 0.009791
vn 0.000000 -0.965453 0.260576
v -0.000104 -0.000961 0.033002
# 64 vertices, 0 vertices normals


usemtl material_0
vt 0.579614 0.174761
vt 0.379160 0.223239
vt 0.381845 0.245109
f 24/1/24 15/2/15 13/3/13
vt 0.391090 0.008146
vt 0.356669 0.220838
f 15/2/15 21/4/21 14/5/14
vt 0.366979 0.256484
vt 0.406092 0.275721
f 22/6/22 12/7/12 13/3/13
vt 0.318557 0.227445
vt 0.301647 0.194078
vt 0.297121 0.206854
f 27/8/27 3/9/3 5/10/5
vt 0.315147 0.231411
vt 0.290442 0.210602
f 28/11/28 5/10/5 7/12/7
vt 0.311519 0.239505
vt 0.286390 0.222461
f 29/13/29 7/12/7 9/14/9
vt 0.351136 0.276502
vt 0.318819 0.238378
f 30/15/30 8/16/8 29/13/29
vt 0.358586 0.315894
vt 0.355449 0.269043
f 30/15/30 10/17/10 23/18/23
f 12/7/12 24/1/24 13/3/13
vt 0.341397 0.235852
f 22/6/22 15/2/15 11/19/11
vt 0.326294 0.231800
vt 0.339364 0.228805
vt 0.325830 0.223754
f 2/20/2 25/21/25 26/22/26
vt 0.321800 0.232577
f 2/20/2 27/8/27 4/23/4
vt 0.320073 0.234979
f 4/23/4 28/11/28 6/24/6
f 8/16/8 28/11/28 29/13/29
f 2/20/2 6/24/6 8/16/8
vt 0.335887 0.235592
f 1/25/1 11/19/11 25/21/25
f 23/18/23 12/7/12 22/6/22
f 11/19/11 23/18/23 22/6/22
vt 0.286850 0.000108
f 14/5/14 18/26/18 25/21/25
vt 0.350446 0.327646
vt 0.434316 0.493639
f 31/27/31 51/28/51 10/17/10
vt 0.579614 0.300339
f 12/7/12 51/28/51 16/29/16
f 14/5/14 25/21/25 11/19/11
f 26/22/26 18/26/18 3/9/3
vt 0.000108 0.298594
f 19/30/19 29/13/29 9/14/9
vt 0.412769 0.505481
f 19/30/19 17/31/17 31/27/31
vt 0.362655 0.750435
vt 0.376602 0.762919
vt 0.403132 0.734262
f 43/32/43 40/33/40 39/34/39
vt 0.313243 0.764785
vt 0.348397 0.729258
vt 0.306051 0.763101
f 36/35/36 50/36/50 49/37/49
vt 0.358853 0.690553
vt 0.352124 0.737027
f 37/38/37 50/36/50 44/39/44
vt 0.335562 0.769040
vt 0.372243 0.784519
f 38/40/38 42/41/42 43/32/43
vt 0.332992 0.775910
vt 0.320191 0.771919
vt 0.319110 0.779906
f 45/42/45 33/43/33 46/44/46
vt 0.312142 0.775666
f 33/43/33 47/45/47 46/44/46
vt 0.315770 0.770799
vt 0.309047 0.771450
f 34/46/34 48/47/48 47/45/47
f 48/47/48 36/35/36 49/37/49
vt 0.330047 0.768876
f 32/48/32 36/35/36 33/43/33
f 32/48/32 45/42/45 38/40/38
f 39/34/39 44/39/44 43/32/43
f 44/39/44 38/40/38 43/32/43
vt 0.349635 0.785184
f 41/49/41 38/40/38 45/42/45
vt 0.506083 0.082447
f 20/50/20 15/2/15 24/1/24
f 20/50/20 21/4/21 15/2/15
f 26/22/26 3/9/3 27/8/27
f 27/8/27 5/10/5 28/11/28
f 28/11/28 7/12/7 29/13/29
f 23/18/23 8/16/8 30/15/30
f 31/27/31 10/17/10 30/15/30
f 16/29/16 24/1/24 12/7/12
f 14/5/14 11/19/11 15/2/15
f 22/6/22 13/3/13 15/2/15
f 1/25/1 25/21/25 2/20/2
f 26/22/26 27/8/27 2/20/2
f 27/8/27 28/11/28 4/23/4
f 6/24/6 28/11/28 8/16/8
f 8/16/8 1/25/1 2/20/2
f 2/20/2 4/23/4 6/24/6
f 1/25/1 8/16/8 23/18/23
f 10/17/10 12/7/12 23/18/23
f 1/25/1 23/18/23 11/19/11
f 21/4/21 18/26/18 14/5/14
f 17/31/17 51/28/51 31/27/31
f 10/17/10 51/28/51 12/7/12
f 25/21/25 18/26/18 26/22/26
f 30/15/30 19/30/19 31/27/31
f 19/30/19 30/15/30 29/13/29
f 44/39/44 50/36/50 36/35/36
vt 0.351640 0.678209
f 52/51/52 50/36/50 37/38/37
f 42/41/42 38/40/38 41/49/41
f 43/32/43 42/41/42 40/33/40
f 32/48/32 33/43/33 45/42/45
f 34/46/34 47/45/47 33/43/33
vt 0.314232 0.768271
f 35/52/35 48/47/48 34/46/34
f 35/52/35 36/35/36 48/47/48
f 36/35/36 32/48/32 44/39/44
f 33/43/33 36/35/36 35/52/35
f 35/52/35 34/46/34 33/43/33
f 37/38/37 44/39/44 39/34/39
f 32/48/32 38/40/38 44/39/44
vt 0.448026 0.519159
f 37/38/37 53/53/53 52/51/52
f 37/38/37 39/34/39 53/53/53
vt 0.568378 0.848264
vt 0.487967 0.934652
f 54/54/54 42/41/42 55/55/55
vt 0.367602 0.999892
f 56/56/56 42/41/42 41/49/41
vt 0.292716 0.807636
vt 0.289186 0.794550
f 57/57/57 47/45/47 58/58/58
vt 0.282814 0.790298
f 58/58/58 48/47/48 59/59/59
vt 0.279686 0.778163
f 59/59/59 49/37/49 60/60/60
vt 0.578033 0.723057
f 39/34/39 54/54/54 61/61/61
vt 0.263053 0.999892
f 62/62/62 41/49/41 45/42/45
vt 0.427453 0.505696
f 52/51/52 53/53/53 63/63/63
f 53/53/53 39/34/39 61/61/61
f 62/62/62 46/44/46 57/57/57
vt 0.000108 0.680246
f 64/64/64 50/36/50 52/51/52
f 64/64/64 52/51/52 63/63/63
f 40/33/40 42/41/42 54/54/54
f 55/55/55 42/41/42 56/56/56
f 46/44/46 47/45/47 57/57/57
f 47/45/47 48/47/48 58/58/58
f 48/47/48 49/37/49 59/59/59
f 40/33/40 54/54/54 39/34/39
f 56/56/56 41/49/41 62/62/62
f 45/42/45 46/44/46 62/62/62
f 49/37/49 64/64/64 60/60/60
f 64/64/64 49/37/49 50/36/50
f 24/1/24 15/2/15 13/3/13
f 15/2/15 21/4/21 14/5/14
f 22/6/22 12/7/12 13/3/13
f 27/8/27 3/9/3 5/10/5
f 28/11/28 5/10/5 7/12/7
f 29/13/29 7/12/7 9/14/9
f 30/15/30 8/16/8 29/13/29
f 30/15/30 10/17/10 23/18/23
f 12/7/12 24/1/24 13/3/13
f 22/6/22 15/2/15 11/19/11
f 2/20/2 25/21/25 26/22/26
f 2/20/2 27/8/27 4/23/4
f 4/23/4 28/11/28 6/24/6
f 8/16/8 28/11/28 29/13/29
f 2/20/2 6/24/6 8/16/8
f 1/25/1 11/19/11 25/21/25
f 23/18/23 12/7/12 22/6/22
f 11/19/11 23/18/23 22/6/22
f 14/5/14 18/26/18 25/21/25
f 31/27/31 51/28/51 10/17/10
f 12/7/12 51/28/51 16/29/16
f 14/5/14 25/21/25 11/19/11
f 26/22/26 18/26/18 3/9/3
f 19/30/19 29/13/29 9/14/9
f 19/30/19 17/31/17 31/27/31
f 43/32/43 40/33/40 39/34/39
f 36/35/36 50/36/50 49/37/49
f 37/38/37 50/36/50 44/39/44
f 38/40/38 42/41/42 43/32/43
f 45/42/45 33/43/33 46/44/46
f 33/43/33 47/45/47 46/44/46
f 34/46/34 48/47/48 47/45/47
f 48/47/48 36/35/36 49/37/49
f 32/48/32 36/35/36 33/43/33
f 32/48/32 45/42/45 38/40/38
f 39/34/39 44/39/44 43/32/43
f 44/39/44 38/40/38 43/32/43
f 41/49/41 38/40/38 45/42/45
f 20/50/20 15/2/15 24/1/24
f 20/50/20 21/4/21 15/2/15
f 26/22/26 3/9/3 27/8/27
f 27/8/27 5/10/5 28/11/28
f 28/11/28 7/12/7 29/13/29
f 23/18/23 8/16/8 30/15/30
f 31/27/31 10/17/10 30/15/30
f 16/29/16 24/1/24 12/7/12
f 14/5/14 11/19/11 15/2/15
f 22/6/22 13/3/13 15/2/15
f 1/25/1 25/21/25 2/20/2
f 26/22/26 27/8/27 2/20/2
f 27/8/27 28/11/28 4/23/4
f 6/24/6 28/11/28 8/16/8
f 8/16/8 1/25/1 2/20/2
f 2/20/2 4/23/4 6/24/6
f 1/25/1 8/16/8 23/18/23
f 10/17/10 12/7/12 23/18/23
f 1/25/1 23/18/23 11/19/11
f 21/4/21 18/26/18 14/5/14
f 17/31/17 51/28/51 31/27/31
f 10/17/10 51/28/51 12/7/12
f 25/21/25 18/26/18 26/22/26
f 30/15/30 19/30/19 31/27/31
f 19/30/19 30/15/30 29/13/29
f 44/39/44 50/36/50 36/35/36
f 52/51/52 50/36/50 37/38/37
f 42/41/42 38/40/38 41/49/41
f 43/32/43 42/41/42 40/33/40
f 32/48/32 33/43/33 45/42/45
f 34/46/34 47/45/47 33/43/33
f 35/52/35 48/47/48 34/46/34
f 35/52/35 36/35/36 48/47/48
f 36/35/36 32/48/32 44/39/44
f 33/43/33 36/35/36 35/52/35
f 35/52/35 34/46/34 33/43/33
f 37/38/37 44/39/44 39/34/39
f 32/48/32 38/40/38 44/39/44
f 37/38/37 53/53/53 52/51/52
f 37/38/37 39/34/39 53/53/53
f 54/54/54 42/41/42 55/55/55
f 56/56/56 42/41/42 41/49/41
f 57/57/57 47/45/47 58/58/58
f 58/58/58 48/47/48 59/59/59
f 59/59/59 49/37/49 60/60/60
f 39/34/39 54/54/54 61/61/61
f 62/62/62 41/49/41 45/42/45
f 52/51/52 53/53/53 63/63/63
f 53/53/53 39/34/39 61/61/61
f 62/62/62 46/44/46 57/57/57
f 64/64/64 50/36/50 52/51/52
f 64/64/64 52/51/52 63/63/63
f 40/33/40 42/41/42 54/54/54
f 55/55/55 42/41/42 56/56/56
f 46/44/46 47/45/47 57/57/57
f 47/45/47 48/47/48 58/58/58
f 48/47/48 49/37/49 59/59/59
f 40/33/40 54/54/54 39/34/39
f 56/56/56 41/49/41 62/62/62
f 45/42/45 46/44/46 62/62/62
f 49/37/49 64/64/64 60/60/60
f 64/64/64 49/37/49 50/36/50
# 200 faces, 64 coords texture

# End of File