# Blender v2.82 (sub 7) OBJ File: 'arm_roll_03.blend'
# www.blender.org
mtllib shoulder_coll_01.mtl
o shoulder_coll_1_Cube.014
v 0.075747 0.142971 0.014291
v 0.109817 0.142971 0.026416
v 0.046932 0.142971 0.002459
v 0.046932 0.142971 -0.036387
v 0.076153 0.142971 -0.011048
v 0.076560 0.142971 -0.036387
v 0.110509 0.142971 -0.036387
v 0.109817 0.123187 0.026416
v 0.046932 0.123187 0.002459
v 0.046932 0.123187 -0.036387
v 0.076560 0.123187 -0.036387
v 0.075747 0.123187 0.014291
v 0.046932 0.142971 -0.016964
v 0.110509 0.123187 -0.036387
v 0.135290 0.142971 0.035394
v 0.176942 0.142971 0.007146
v 0.150307 0.142971 0.035255
v 0.162854 0.142971 0.029406
v 0.172509 0.142971 0.019485
v 0.176942 0.123187 0.007146
v 0.135290 0.123187 0.035394
v 0.172509 0.123187 0.019485
v 0.162854 0.123187 0.029406
v 0.150307 0.123187 0.035255
v 0.177712 0.142971 -0.003440
v 0.142732 0.142971 -0.036509
v 0.174885 0.142971 -0.014998
v 0.167310 0.142971 -0.026247
v 0.156056 0.142971 -0.033814
v 0.142732 0.123187 -0.036509
v 0.177712 0.123187 -0.003440
v 0.156056 0.123187 -0.033814
v 0.167310 0.123187 -0.026247
v 0.174885 0.123187 -0.014998
v 0.110163 0.123187 -0.004986
v 0.046932 0.123187 -0.016964
v 0.076153 0.123187 -0.011048
v 0.110192 0.142971 -0.007667
v 0.139557 0.142971 -0.005829
v 0.138929 0.123187 0.000240
vt 0.518466 0.500000
vt 0.518466 0.625000
vt 0.518466 0.625000
vt 0.625000 0.500000
vt 0.571733 0.500000
vt 0.571733 0.500000
vt 0.575661 0.713500
vt 0.587965 0.705648
vt 0.587958 0.705652
vt 0.625000 0.608016
vt 0.567184 0.718910
vt 0.571733 0.616508
vt 0.570874 0.716555
vt 0.518466 0.750000
vt 0.625000 0.500000
vt 0.625000 0.608016
vt 0.625000 0.682014
vt 0.518466 0.750000
vt 0.312500 0.304008
vt 0.625000 0.682014
vt 0.625000 0.682014
vt 0.518466 0.750000
vt 0.578722 0.711547
vt 0.598859 0.698696
vt 0.620184 0.685087
vt 0.623200 0.683162
vt 0.623306 0.683095
vt 0.620304 0.685011
vt 0.598912 0.698662
vt 0.555036 0.726662
vt 0.575669 0.713495
vt 0.554929 0.726731
vt 0.524507 0.746145
vt 0.524254 0.746307
vt 0.520127 0.748940
vt 0.519997 0.749023
vt 0.518466 0.750000
vt 0.571733 0.716007
vt 0.000000 0.000000
vt 0.518466 0.500000
vt 0.625000 0.682014
vn -0.0000 0.0000 -1.0000
vn -1.0000 -0.0000 0.0000
vn 0.9974 0.0000 0.0725
vn 0.0000 1.0000 0.0000
vn -0.3353 0.0000 0.9421
vn 0.0000 -1.0000 -0.0000
vn -0.3798 0.0000 0.9251
vn -0.3324 0.0000 0.9431
vn -0.0038 -0.0000 -1.0000
vn -0.3010 -0.1431 0.9428
vn 0.2110 -0.0641 0.9754
vn 0.2209 -0.0000 0.9753
vn 0.2366 -0.0839 0.9680
vn 0.5708 -0.0567 0.8191
vn 0.5791 -0.0000 0.8153
vn 0.5854 -0.0567 0.8087
vn 0.8360 -0.0839 0.5422
vn 0.8519 -0.0684 0.5192
vn 0.9913 -0.1298 0.0209
vn 0.8481 -0.0000 0.5298
vn 0.9966 -0.0683 -0.0470
vn 0.9094 -0.0688 -0.4101
vn 0.9994 -0.0000 -0.0355
vn 0.9168 -0.0619 -0.3946
vn 0.7153 -0.0748 -0.6948
vn 0.9224 -0.0000 -0.3862
vn 0.6986 -0.0610 -0.7129
vn 0.3983 -0.0760 -0.9141
vn 0.7069 -0.0000 -0.7074
vn 0.3756 -0.0618 -0.9247
vn 0.0111 -0.0793 -0.9968
vn 0.3855 -0.0000 -0.9227
vn -0.3165 0.1031 0.9430
vn 0.2014 0.0889 0.9755
vn 0.2307 0.0667 0.9708
vn 0.5657 0.0714 0.8215
vn 0.5893 0.0714 0.8047
vn 0.8406 0.0667 0.5375
vn 0.8535 0.0806 0.5148
vn 1.0000 0.0000 -0.0032
vn 0.9938 0.1100 0.0139
vn 0.9963 0.0717 -0.0482
vn 0.9064 0.0000 -0.4223
vn 0.9091 0.0656 -0.4113
vn 0.9138 0.0760 -0.3990
vn 0.7068 0.0000 -0.7074
vn 0.7124 0.0610 -0.6991
vn 0.6942 0.0748 -0.7158
vn 0.3939 0.0619 -0.9171
vn 0.3703 0.0761 -0.9258
vn -0.0048 0.0000 -1.0000
vn 0.0055 0.0644 -0.9979
usemtl None
s off
f 10/1/1 6/2/1 11/3/1
f 9/4/2 13/5/2 36/6/2
f 31/7/3 16/8/3 20/9/3
f 1/10/4 38/11/4 5/12/4
f 39/13/4 7/14/4 38/11/4
f 3/15/4 5/12/4 13/5/4
f 12/16/5 2/17/5 1/10/5
f 11/3/1 7/14/1 14/18/1
f 9/4/6 37/19/6 12/16/6
f 9/4/7 1/10/7 3/15/7
f 8/20/8 15/21/8 2/17/8
f 7/14/9 30/22/9 14/18/9
f 40/23/6 22/24/6 23/25/6
f 15/21/10 24/26/11 17/27/12
f 17/27/13 23/25/14 18/28/15
f 23/25/16 19/29/17 18/28/15
f 22/24/18 16/8/19 19/29/20
f 31/7/21 27/30/22 25/31/23
f 34/32/24 28/33/25 27/30/26
f 33/34/27 29/35/28 28/33/29
f 32/36/30 26/37/31 29/35/32
f 37/19/6 14/18/6 35/38/6
f 36/6/6 11/39/6 37/19/6
f 12/16/6 35/38/6 8/20/6
f 13/5/4 6/2/4 4/40/4
f 5/12/4 7/14/4 6/2/4
f 36/6/2 4/40/2 10/1/2
f 39/13/4 2/17/4 15/21/4
f 39/13/4 29/35/4 26/37/4
f 39/13/4 17/27/4 18/28/4
f 16/8/4 25/31/4 39/13/4
f 19/29/4 39/13/4 18/28/4
f 27/30/4 39/13/4 25/31/4
f 40/23/6 31/7/6 20/9/6
f 30/22/6 35/38/6 14/18/6
f 40/23/6 8/20/6 35/38/6
f 40/23/6 24/26/6 21/41/6
f 33/34/6 40/23/6 32/36/6
f 30/22/6 32/36/6 40/23/6
f 10/1/1 4/40/1 6/2/1
f 9/4/2 3/15/2 13/5/2
f 31/7/3 25/31/3 16/8/3
f 1/10/4 2/17/4 38/11/4
f 39/13/4 26/37/4 7/14/4
f 3/15/4 1/10/4 5/12/4
f 12/16/5 8/20/5 2/17/5
f 11/3/1 6/2/1 7/14/1
f 9/4/6 36/6/6 37/19/6
f 9/4/7 12/16/7 1/10/7
f 8/20/8 21/41/8 15/21/8
f 7/14/9 26/37/9 30/22/9
f 40/23/6 20/9/6 22/24/6
f 15/21/33 21/41/8 24/26/34
f 17/27/35 24/26/12 23/25/36
f 23/25/37 22/24/20 19/29/38
f 22/24/39 20/9/40 16/8/41
f 31/7/42 34/32/43 27/30/44
f 34/32/45 33/34/46 28/33/47
f 33/34/48 32/36/32 29/35/49
f 32/36/50 30/22/51 26/37/52
f 37/19/6 11/39/6 14/18/6
f 36/6/6 10/1/6 11/39/6
f 12/16/6 37/19/6 35/38/6
f 13/5/4 5/12/4 6/2/4
f 5/12/4 38/11/4 7/14/4
f 36/6/2 13/5/2 4/40/2
f 39/13/4 38/11/4 2/17/4
f 39/13/4 28/33/4 29/35/4
f 39/13/4 15/21/4 17/27/4
f 19/29/4 16/8/4 39/13/4
f 27/30/4 28/33/4 39/13/4
f 40/23/6 34/32/6 31/7/6
f 30/22/6 40/23/6 35/38/6
f 40/23/6 21/41/6 8/20/6
f 40/23/6 23/25/6 24/26/6
f 33/34/6 34/32/6 40/23/6
