####
#
# OBJ File Generated by Meshlab
#
####
# Object head_camera_chull.obj
#
# Vertices: 12
# Faces: 20
#
####
vn 0.571672 0.813078 -0.109976
v 0.017261 0.042257 0.060150
vn -0.631200 -0.743956 -0.219353
v -0.063122 -0.053010 0.090709
vn -0.358407 -0.391624 0.847452
v -0.054695 -0.037141 0.132992
vn 0.085056 0.996122 -0.022526
v -0.071491 0.061612 0.090508
vn -0.633971 0.232218 -0.737669
v -0.071685 0.049703 0.053559
vn -0.374922 -0.342795 -0.861351
v -0.041643 -0.014687 0.040918
vn -0.611521 0.555511 0.563426
v -0.071853 0.051286 0.122934
vn -0.210462 0.070071 0.975088
v -0.029502 0.013844 0.141872
vn 0.336222 0.659369 0.672448
v 0.003657 0.013913 0.141918
vn 0.477838 -0.861401 0.172215
v 0.014964 -0.038497 0.124658
vn 0.908385 -0.040045 0.416212
v 0.017298 0.000976 0.137603
vn 0.607889 -0.391643 -0.690715
v 0.017270 -0.015643 0.040846
# 12 vertices, 0 vertices normals

f 6//6 12//12 2//2
f 2//2 7//7 5//5
f 12//12 1//1 11//11
f 12//12 10//10 2//2
f 5//5 7//7 4//4
f 5//5 4//4 1//1
f 5//5 1//1 12//12
f 9//9 11//11 1//1
f 3//3 11//11 9//9
f 7//7 9//9 1//1
f 7//7 1//1 4//4
f 8//8 3//3 9//9
f 6//6 2//2 5//5
f 10//10 11//11 3//3
f 3//3 2//2 10//10
f 7//7 3//3 8//8
f 2//2 3//3 7//7
f 5//5 12//12 6//6
f 9//9 7//7 8//8
f 10//10 12//12 11//11
# 20 faces, 0 coords texture

# End of File