####
#
# OBJ File Generated by Meshlab
#
####
# Object GRIPPER_OPEN_FINGER_1_1.obj
#
# Vertices: 211
# Faces: 420
#
####
vn -0.649487 0.708298 -0.276552
v -0.098559 0.045288 -0.017223
vn -0.916259 0.051884 -0.397211
v -0.098667 0.035353 -0.019145
vn -0.910870 0.362582 -0.197105
v -0.099065 0.045284 -0.015809
vn -0.969860 -0.002259 -0.243650
v -0.099078 0.029827 -0.018209
vn -0.645820 -0.745623 -0.164201
v -0.099244 0.027475 -0.017489
vn -0.449403 -0.854401 -0.260837
v -0.070432 0.027606 -0.068853
vn 0.176208 0.872703 -0.455346
v -0.042345 0.047839 -0.065395
vn 0.165121 0.868930 -0.466579
v -0.067034 0.045446 -0.079134
vn -0.411660 0.890389 -0.194279
v -0.072759 0.045441 -0.077187
vn 0.039059 0.991108 -0.127199
v -0.048336 0.051807 -0.052610
vn 0.683578 0.660808 0.309926
v -0.047466 0.051646 -0.038974
vn 0.163546 0.985979 0.033145
v -0.045012 0.051790 -0.045607
vn 0.109892 0.992484 0.053850
v -0.084050 0.051571 0.040304
vn 0.727133 0.546130 0.415957
v -0.084051 0.050893 0.042257
vn -0.159286 0.981274 -0.108299
v -0.056053 0.051806 -0.051881
vn -0.448104 -0.860524 -0.242284
v -0.098667 0.027479 -0.019165
vn 0.106617 -0.975954 -0.190121
v -0.048336 0.021073 -0.052688
vn 0.768013 -0.592554 0.242975
v -0.028632 0.034662 -0.053525
vn -0.587822 -0.792382 0.163084
v -0.097893 0.021007 0.041252
vn -0.260022 -0.954103 -0.148578
v -0.099720 0.020876 0.024887
vn 0.000010 -0.999997 -0.002548
v -0.083199 0.020895 0.017405
vn -0.175135 -0.984165 -0.027321
v -0.099819 0.020875 0.025259
vn -0.888276 -0.271756 0.370290
v -0.108623 0.027368 0.024690
vn -0.913463 0.004873 -0.406892
v -0.073112 0.043089 -0.076527
vn -0.912611 -0.008005 -0.408750
v -0.073112 0.039914 -0.076535
vn 0.654611 0.750060 0.094306
v -0.038214 0.047822 -0.058354
vn -0.153347 -0.001188 -0.988172
v -0.069891 0.039921 -0.079286
vn -0.290321 -0.496210 -0.818223
v -0.070239 0.037572 -0.079188
vn -0.913625 0.001033 -0.406556
v -0.098667 0.029511 -0.019160
vn -0.799197 -0.568732 -0.194496
v -0.108943 0.027375 0.021740
vn 0.689173 -0.673165 0.268120
v -0.028735 0.034661 -0.053254
vn 0.595354 -0.768045 0.235926
v -0.047466 0.021166 -0.039051
vn 0.000001 -0.999997 -0.002551
v -0.070452 0.020942 -0.000915
vn -0.790948 0.105778 0.602670
v -0.091999 0.027476 0.061301
vn 0.877205 0.076567 0.473970
v -0.084062 0.027475 0.061306
vn 0.833650 0.337245 0.437372
v -0.084059 0.038852 0.056343
vn 0.805536 0.416842 0.421136
v -0.084058 0.041207 0.054277
vn 0.841479 0.273225 0.466113
v -0.084060 0.036260 0.058102
vn -0.000503 0.455746 0.890110
v -0.085648 0.033472 0.059528
vn -0.521396 0.354211 0.776325
v -0.091998 0.033472 0.059525
vn 0.565465 -0.791110 0.233226
v -0.084061 0.023541 0.060944
vn -0.007036 -0.990716 0.135767
v -0.091988 0.020865 0.041535
vn -0.380407 0.481756 0.789432
v -0.091997 0.036260 0.058098
vn -0.000442 0.514384 0.857560
v -0.085647 0.036260 0.058101
vn -0.846633 0.001352 -0.532175
v -0.072759 0.039599 -0.077202
vn -0.782931 -0.443250 -0.436519
v -0.072759 0.037567 -0.077207
vn 0.364205 0.547803 -0.753171
v -0.036369 0.038277 -0.074284
vn 0.276086 0.728360 -0.627111
v -0.038227 0.038279 -0.075156
vn 0.000014 0.999997 0.002537
v -0.092106 0.051608 0.025735
vn 0.760593 0.612986 0.213885
v -0.027974 0.038229 -0.055725
vn 0.793732 0.556133 0.246386
v -0.028544 0.038224 -0.053754
vn 0.773525 0.612357 0.163333
v -0.027912 0.038230 -0.056008
vn 0.009407 0.884994 -0.465506
v -0.068634 0.045446 -0.079425
vn -0.167473 0.010506 -0.985821
v -0.069891 0.043096 -0.079278
vn 0.136421 0.043616 -0.989690
v -0.041354 0.038281 -0.076062
vn -0.148171 -0.982381 -0.113897
v -0.056053 0.021072 -0.051959
vn -0.347210 -0.848274 -0.399846
v -0.069289 0.027609 -0.070207
vn 0.025159 -0.629378 -0.776692
v -0.043739 0.034720 -0.076345
vn 0.017099 -0.815108 -0.579057
v -0.065976 0.027612 -0.071288
vn 0.774959 0.631962 -0.007953
v -0.027568 0.038238 -0.058955
vn -0.968757 0.048399 -0.243244
v -0.099244 0.035349 -0.017469
vn -0.287012 -0.954583 0.079972
v -0.097893 0.020837 0.040218
vn -0.000549 0.342537 0.939504
v -0.085649 0.030529 0.060602
vn 0.857470 0.203748 0.472474
v -0.084061 0.033471 0.059530
vn 0.869089 0.138439 0.474888
v -0.084061 0.030528 0.060603
vn -0.000586 0.224393 0.974499
v -0.085649 0.027476 0.061305
vn -0.000109 -0.989322 0.145750
v -0.085649 0.023541 0.060943
vn -0.023520 -0.989583 0.142026
v -0.091999 0.023541 0.060938
vn -0.785102 -0.540172 0.303032
v -0.097893 0.021028 0.041312
vn 0.687661 0.651335 0.320758
v -0.084050 0.051395 0.041338
vn -0.000104 0.984640 0.174599
v -0.091988 0.051395 0.041333
vn -0.900555 0.142235 0.410817
v -0.108623 0.035242 0.024710
vn -0.884910 0.197068 0.422018
v -0.097893 0.051374 0.041389
vn -0.861015 0.157129 0.483698
v -0.091999 0.030529 0.060598
vn -0.000549 0.342537 0.939504
v -0.085648 0.033471 0.059529
vn -0.234478 0.717239 0.656192
v -0.097492 0.050893 0.042250
vn -0.000317 0.793507 0.608561
v -0.091988 0.050893 0.042253
vn 0.680590 0.570608 0.459568
v -0.084056 0.043290 0.051937
vn -0.649659 0.001927 -0.760223
v -0.071668 0.043412 -0.078398
vn 0.278197 0.333571 -0.900742
v -0.038791 0.038279 -0.075369
vn 0.000007 0.999997 0.002534
v -0.091533 0.051620 0.021016
vn -0.000062 0.999997 0.002511
v -0.084046 0.051588 0.033574
vn 0.122040 -0.000627 -0.992525
v -0.068443 0.039922 -0.079434
vn 0.123283 0.006127 -0.992353
v -0.068443 0.043097 -0.079425
vn 0.109129 -0.472533 -0.874531
v -0.043136 0.034720 -0.076308
vn 0.121510 -0.662176 -0.739431
v -0.041104 0.034719 -0.076022
vn 0.245214 0.312967 -0.917563
v -0.040762 0.038281 -0.075940
vn 0.124308 0.006337 -0.992223
v -0.043390 0.038282 -0.076317
vn -0.174913 -0.829620 -0.530223
v -0.067733 0.027612 -0.071057
vn 0.020386 -0.538274 -0.842523
v -0.068634 0.037572 -0.079445
vn -0.498557 -0.525063 -0.689746
v -0.071668 0.037570 -0.078413
vn 0.792819 0.603569 0.084509
v -0.027596 0.038236 -0.058352
vn 0.696599 0.707114 0.121409
v -0.027851 0.038231 -0.056316
vn 0.897495 0.017229 0.440689
v -0.084062 0.024359 0.061627
vn 0.826813 0.395455 0.399994
v -0.028758 0.038223 -0.053189
vn -0.000473 0.659475 0.751726
v -0.085646 0.038852 0.056341
vn -0.000463 0.561751 0.827306
v -0.085646 0.038852 0.056342
vn -0.321120 0.576419 0.751415
v -0.091996 0.038852 0.056338
vn -0.003601 -0.999294 0.037391
v -0.091988 0.020835 0.041093
vn 0.215702 -0.969694 0.114743
v -0.084050 0.020834 0.041319
vn -0.000020 -0.999997 -0.002359
v -0.085638 0.020834 0.041318
vn -0.000017 -0.999997 -0.002538
v -0.091987 0.020837 0.040222
vn -0.000447 0.704463 0.709741
v -0.085645 0.041207 0.054276
vn -0.021867 0.706634 0.707242
v -0.091995 0.041207 0.054272
vn -0.426894 0.890373 0.158109
v -0.097893 0.051395 0.041330
vn -0.970653 0.229851 0.070714
v -0.109015 0.035246 0.023261
vn -0.907306 0.271758 0.320847
v -0.105788 0.045182 0.024569
vn -0.794211 0.596896 0.113770
v -0.106205 0.045185 0.023126
vn -0.970912 0.000608 -0.239437
v -0.108943 0.029407 0.021745
vn -0.969864 0.001804 -0.243641
v -0.099078 0.033002 -0.018201
vn -0.000585 0.224393 0.974499
v -0.085649 0.030528 0.060602
vn -0.912345 -0.001040 0.409420
v -0.108623 0.033210 0.024705
vn -0.965294 -0.010963 0.260935
v -0.108842 0.029719 0.024104
vn -0.965329 0.003566 0.261012
v -0.108842 0.032894 0.024112
vn -0.798143 -0.245936 0.549985
v -0.091999 0.023982 0.061544
vn -0.870067 0.016286 0.492664
v -0.091999 0.024360 0.061623
vn -0.000614 0.102790 0.994703
v -0.085649 0.027475 0.061305
vn -0.000319 0.786427 0.617683
v -0.091993 0.043924 0.051126
vn -0.216877 0.711734 0.668131
v -0.093351 0.043924 0.051125
vn -0.099672 0.953516 -0.284380
v -0.070239 0.045446 -0.079168
vn -0.392843 0.002330 -0.919603
v -0.070239 0.043414 -0.079174
vn -0.476963 -0.003182 -0.878918
v -0.071230 0.039920 -0.078714
vn -0.746120 -0.003812 -0.665801
v -0.072337 0.039918 -0.077768
vn 0.534477 0.614127 -0.580673
v -0.033675 0.038272 -0.072455
vn 0.509766 0.581249 -0.634262
v -0.033900 0.038272 -0.072638
vn 0.478085 0.547141 -0.687074
v -0.034147 0.038273 -0.072833
vn 0.738727 0.545702 -0.395590
v -0.029191 0.038257 -0.066684
vn 0.736304 -0.543696 -0.402805
v -0.030047 0.034699 -0.068274
vn 0.688457 0.613351 -0.387076
v -0.030181 0.038262 -0.068481
vn 0.787039 0.556015 -0.267240
v -0.028246 0.038251 -0.064204
vn 0.604173 0.789001 -0.111592
v -0.038230 0.047827 -0.060559
vn 0.000005 0.999997 0.002536
v -0.090960 0.051608 0.025735
vn 0.000025 0.999997 0.002560
v -0.080789 0.051690 -0.006660
vn -0.000028 0.999997 0.002533
v -0.068380 0.051686 -0.005071
vn 0.229831 -0.551283 -0.802038
v -0.040515 0.034719 -0.075891
vn 0.190303 -0.829952 -0.524371
v -0.042345 0.025107 -0.065453
vn 0.021269 -0.883772 -0.467433
v -0.044519 0.025107 -0.065821
vn 0.687518 -0.578628 -0.438758
v -0.030214 0.034700 -0.068541
vn 0.415444 0.878076 -0.237463
v -0.038998 0.047832 -0.062626
vn 0.680659 0.581026 -0.446219
v -0.030338 0.038262 -0.068724
vn 0.635543 -0.612441 -0.470108
v -0.030371 0.034700 -0.068784
vn 0.666802 0.547542 -0.505542
v -0.030513 0.038263 -0.068985
vn 0.831619 -0.544968 0.106867
v -0.027614 0.034673 -0.058108
vn 0.654618 -0.750332 0.092074
v -0.038214 0.025089 -0.058412
vn 0.777048 -0.627781 0.045676
v -0.027592 0.034674 -0.058421
vn -0.000489 0.102475 0.994735
v -0.085649 0.024360 0.061626
vn 0.790897 -0.498376 0.355110
v -0.084062 0.023685 0.061301
vn -0.000370 -0.808735 0.588172
v -0.085649 0.023685 0.061301
vn -0.000579 -0.508298 0.861181
v -0.085649 0.023981 0.061548
vn -0.772864 -0.545926 0.323491
v -0.091999 0.023685 0.061296
vn 0.881908 -0.203792 0.425097
v -0.084062 0.023981 0.061549
vn 0.901654 -0.034894 0.431047
v -0.028853 0.034660 -0.052963
vn -0.005664 0.755705 0.654888
v -0.091994 0.043290 0.051933
vn -0.732982 0.011813 -0.680146
v -0.072337 0.043093 -0.077760
vn -0.187990 0.953685 -0.234828
v -0.071668 0.045444 -0.078393
vn -0.477072 0.010368 -0.878803
v -0.071230 0.043095 -0.078706
vn 0.436479 0.615229 -0.656490
v -0.035845 0.038276 -0.073985
vn 0.350419 0.706791 -0.614535
v -0.036095 0.038276 -0.074130
vn 0.354281 0.830858 -0.429140
v -0.040427 0.047837 -0.064306
vn 0.825319 0.544940 -0.147945
v -0.027700 0.038244 -0.061606
vn -0.851141 0.502397 -0.152174
v -0.106158 0.045189 0.021625
vn -0.684047 0.726525 -0.065123
v -0.099819 0.051609 0.025338
vn -0.441326 0.895047 0.064203
v -0.097893 0.051571 0.040297
vn 0.411549 -0.580725 -0.702415
v -0.035897 0.034714 -0.074025
vn 0.473778 -0.543715 -0.692755
v -0.035627 0.034713 -0.073863
vn 0.582210 -0.627802 -0.516620
v -0.031812 0.034705 -0.070660
vn 0.605714 -0.630810 -0.484963
v -0.031606 0.034705 -0.070423
vn 0.356926 -0.827048 -0.434275
v -0.040427 0.025104 -0.064364
vn 0.344637 -0.671970 -0.655502
v -0.036147 0.034714 -0.074169
vn 0.182728 -0.982655 0.031621
v -0.045012 0.021056 -0.045685
vn 0.605165 -0.788395 -0.110494
v -0.038230 0.025094 -0.060617
vn 0.824503 -0.544146 -0.155242
v -0.028025 0.034687 -0.063384
vn 0.745396 -0.666596 -0.005978
v -0.027577 0.034675 -0.058710
vn 0.836627 -0.547234 -0.024271
v -0.027612 0.034680 -0.060762
vn 0.285925 -0.624673 -0.726657
v -0.038283 0.034717 -0.075187
vn 0.359555 -0.543867 -0.758240
v -0.037991 0.034716 -0.075069
vn 0.243272 -0.598434 -0.763345
v -0.038553 0.034717 -0.075291
vn 0.683067 -0.720673 0.118537
v -0.027900 0.034668 -0.056076
vn 0.775082 -0.608248 0.171122
v -0.027960 0.034667 -0.055793
vn 0.798077 -0.555105 0.234377
v -0.028031 0.034667 -0.055487
vn -0.969447 0.114727 -0.216820
v -0.108943 0.035249 0.021760
vn -0.998036 0.004614 -0.062476
v -0.108980 0.032899 0.021951
vn -0.997166 -0.002348 -0.075196
v -0.108980 0.029724 0.021943
vn -0.999182 -0.007091 -0.039824
v -0.109034 0.029722 0.023032
vn -0.643227 -0.761096 0.083620
v -0.109015 0.027372 0.023240
vn -0.984337 -0.000470 0.176299
v -0.109015 0.033214 0.023255
vn -0.999599 0.004861 -0.027901
v -0.109034 0.032897 0.023040
vn 0.580149 0.555048 -0.596111
v -0.032178 0.038268 -0.071052
vn 0.576909 0.665273 -0.473908
v -0.031772 0.038267 -0.070606
vn 0.562423 -0.599588 -0.569363
v -0.032006 0.034706 -0.070875
vn 0.517816 -0.577852 -0.630836
v -0.033722 0.034710 -0.072503
vn 0.576336 -0.543551 -0.610236
v -0.033481 0.034709 -0.072301
vn 0.788105 0.614724 -0.031691
v -0.027634 0.038243 -0.061006
vn 0.779892 0.603926 -0.164444
v -0.028087 0.038250 -0.063621
vn 0.754409 -0.626418 -0.196131
v -0.028101 0.034687 -0.063689
vn 0.757817 -0.601782 -0.252137
v -0.028176 0.034688 -0.063968
vn -0.219872 0.969455 -0.108688
v -0.099720 0.051610 0.024965
vn -0.000001 0.999997 0.002544
v -0.097888 0.051590 0.032746
vn -0.000093 0.985787 0.167998
v -0.091987 0.051571 0.040300
vn -0.000026 0.999976 0.006861
v -0.085637 0.051571 0.040304
vn 0.742094 0.581785 -0.332900
v -0.029059 0.038257 -0.066398
vn 0.701808 -0.611697 -0.365093
v -0.029084 0.034694 -0.066462
vn 0.728701 -0.631478 -0.265011
v -0.028844 0.034693 -0.065909
vn 0.692570 0.674412 -0.255961
v -0.028943 0.038256 -0.066134
vn 0.746397 -0.580498 -0.325444
v -0.028967 0.034694 -0.066198
vn 0.416779 -0.876828 -0.239724
v -0.038998 0.025099 -0.062684
vn 0.460296 -0.611275 -0.643794
v -0.033947 0.034710 -0.072685
vn 0.779936 -0.612074 -0.130636
v -0.027670 0.034681 -0.061363
vn 0.810579 -0.580198 -0.079578
v -0.027639 0.034681 -0.061075
vn 0.809622 0.580338 -0.087868
v -0.027663 0.038244 -0.061294
vn -0.000581 -0.203283 0.979120
v -0.085649 0.024359 0.061626
# 211 vertices, 0 vertices normals

f 46//46 6//6 16//16
f 159//159 7//7 10//10
f 95//95 78//78 37//37
f 197//197 15//15 9//9
f 10//10 53//53 15//15
f 197//197 1//1 3//3
f 1//1 197//197 9//9
f 2//2 1//1 9//9
f 1//1 2//2 3//3
f 5//5 4//4 16//16
f 5//5 30//30 4//4
f 5//5 16//16 20//20
f 183//183 30//30 184//184
f 56//56 16//16 6//6
f 56//56 20//20 16//16
f 8//8 10//10 7//7
f 8//8 53//53 10//10
f 24//24 2//2 9//9
f 139//139 159//159 10//10
f 139//139 10//10 12//12
f 139//139 12//12 131//131
f 158//158 7//7 159//159
f 11//11 70//70 95//95
f 95//95 12//12 11//11
f 11//11 13//13 70//70
f 11//11 12//12 13//13
f 131//131 26//26 60//60
f 12//12 26//26 131//131
f 14//14 95//95 70//70
f 14//14 78//78 95//95
f 10//10 15//15 133//133
f 133//133 15//15 197//197
f 133//133 12//12 10//10
f 120//120 15//15 53//53
f 16//16 4//4 110//110
f 110//110 4//4 30//30
f 170//170 56//56 17//17
f 18//18 170//170 180//180
f 184//184 30//30 185//185
f 19//19 23//23 185//185
f 56//56 22//22 20//20
f 21//21 22//22 56//56
f 22//22 185//185 30//30
f 22//22 30//30 5//5
f 22//22 5//5 20//20
f 38//38 64//64 95//95
f 67//67 41//41 147//147
f 69//69 23//23 19//19
f 69//69 150//150 23//23
f 73//73 14//14 70//70
f 45//45 24//24 9//9
f 24//24 45//45 46//46
f 25//25 46//46 16//16
f 16//16 24//24 25//25
f 25//25 24//24 46//46
f 48//48 8//8 7//7
f 139//139 189//189 159//159
f 51//51 12//12 95//95
f 95//95 18//18 51//51
f 18//18 180//180 51//51
f 92//92 60//60 26//26
f 27//27 53//53 90//90
f 27//27 90//90 28//28
f 16//16 110//110 29//29
f 29//29 110//110 2//2
f 29//29 24//24 16//16
f 24//24 29//29 2//2
f 183//183 109//109 30//30
f 109//109 110//110 30//30
f 32//32 41//41 100//100
f 32//32 100//100 170//170
f 31//31 18//18 95//95
f 31//31 95//95 152//152
f 31//31 152//152 147//147
f 41//41 31//31 147//147
f 32//32 31//31 41//41
f 31//31 170//170 18//18
f 31//31 32//32 170//170
f 33//33 56//56 170//170
f 33//33 21//21 56//56
f 185//185 62//62 19//19
f 62//62 185//185 22//22
f 34//34 35//35 66//66
f 36//36 95//95 37//37
f 36//36 38//38 95//95
f 36//36 44//44 38//38
f 39//39 40//40 64//64
f 39//39 38//38 40//40
f 64//64 38//38 39//39
f 44//44 40//40 38//38
f 100//100 41//41 42//42
f 42//42 41//41 67//67
f 37//37 78//78 103//103
f 43//43 40//40 44//44
f 78//78 14//14 77//77
f 73//73 77//77 14//14
f 91//91 122//122 28//28
f 123//123 45//45 9//9
f 45//45 123//123 46//46
f 123//123 91//91 46//46
f 7//7 158//158 47//47
f 47//47 48//48 7//7
f 47//47 158//158 169//169
f 80//80 8//8 48//48
f 200//200 13//13 12//12
f 12//12 82//82 200//200
f 70//70 13//13 200//200
f 200//200 49//49 197//197
f 49//49 200//200 82//82
f 50//50 52//52 12//12
f 50//50 12//12 51//51
f 50//50 51//51 180//180
f 93//93 92//92 26//26
f 93//93 26//26 12//12
f 52//52 93//93 12//12
f 54//54 120//120 53//53
f 54//54 53//53 27//27
f 53//53 84//84 90//90
f 55//55 86//86 85//85
f 55//55 84//84 53//53
f 8//8 55//55 53//53
f 57//57 56//56 6//6
f 57//57 6//6 46//46
f 57//57 46//46 91//91
f 58//58 90//90 85//85
f 58//58 59//59 90//90
f 58//58 85//85 59//59
f 92//92 173//173 60//60
f 173//173 174//174 60//60
f 2//2 61//61 3//3
f 61//61 2//2 110//110
f 102//102 62//62 22//22
f 75//75 64//64 40//40
f 64//64 63//63 65//65
f 95//95 64//64 65//65
f 65//65 35//35 95//95
f 66//66 35//35 65//65
f 65//65 34//34 66//66
f 96//96 36//36 37//37
f 99//99 42//42 62//62
f 68//68 67//67 150//150
f 68//68 42//42 67//67
f 42//42 68//68 62//62
f 68//68 19//19 62//62
f 68//68 69//69 19//19
f 68//68 150//150 69//69
f 103//103 96//96 37//37
f 71//71 73//73 70//70
f 71//71 105//105 73//73
f 200//200 71//71 70//70
f 107//107 72//72 73//73
f 73//73 74//74 40//40
f 74//74 73//73 72//72
f 74//74 72//72 34//34
f 74//74 75//75 40//40
f 74//74 65//65 63//63
f 74//74 63//63 64//64
f 64//64 75//75 74//74
f 113//113 185//185 23//23
f 116//116 34//34 72//72
f 76//76 43//43 98//98
f 98//98 119//119 76//76
f 76//76 73//73 40//40
f 40//40 43//43 76//76
f 76//76 77//77 73//73
f 78//78 77//77 76//76
f 28//28 122//122 121//121
f 121//121 27//27 28//28
f 54//54 121//121 120//120
f 121//121 54//54 27//27
f 79//79 122//122 91//91
f 91//91 123//123 79//79
f 177//177 80//80 48//48
f 189//189 188//188 159//159
f 204//204 139//139 131//131
f 81//81 133//133 197//197
f 197//197 49//49 81//81
f 81//81 49//49 133//133
f 134//134 82//82 12//12
f 133//133 134//134 12//12
f 83//83 85//85 90//90
f 83//83 90//90 84//84
f 83//83 84//84 85//85
f 55//55 87//87 86//86
f 80//80 87//87 8//8
f 87//87 55//55 8//8
f 88//88 85//85 84//84
f 88//88 55//55 85//85
f 88//88 84//84 55//55
f 89//89 59//59 56//56
f 57//57 89//89 56//56
f 89//89 28//28 90//90
f 90//90 59//59 89//89
f 89//89 91//91 28//28
f 89//89 57//57 91//91
f 167//167 166//166 189//189
f 92//92 93//93 143//143
f 94//94 116//116 211//211
f 94//94 152//152 95//95
f 94//94 95//95 35//35
f 97//97 96//96 98//98
f 36//36 96//96 97//97
f 43//43 97//97 98//98
f 44//44 36//36 97//97
f 97//97 43//43 44//44
f 101//101 99//99 62//62
f 62//62 102//102 101//101
f 100//100 42//42 101//101
f 42//42 99//99 101//101
f 101//101 102//102 22//22
f 101//101 170//170 100//100
f 101//101 33//33 170//170
f 33//33 101//101 21//21
f 101//101 22//22 21//21
f 104//104 119//119 98//98
f 104//104 103//103 78//78
f 104//104 98//98 96//96
f 96//96 103//103 104//104
f 37//37 103//103 104//104
f 104//104 103//103 37//37
f 105//105 108//108 73//73
f 108//108 107//107 73//73
f 108//108 161//161 106//106
f 72//72 107//107 108//108
f 108//108 106//106 72//72
f 181//181 161//161 3//3
f 181//181 106//106 161//161
f 61//61 181//181 3//3
f 181//181 109//109 183//183
f 110//110 109//109 181//181
f 181//181 61//61 110//110
f 34//34 65//65 111//111
f 111//111 74//74 34//34
f 74//74 111//111 65//65
f 23//23 116//116 112//112
f 112//112 116//116 72//72
f 72//72 106//106 114//114
f 114//114 112//112 72//72
f 114//114 106//106 186//186
f 114//114 113//113 23//23
f 23//23 112//112 114//114
f 114//114 185//185 113//113
f 114//114 186//186 185//185
f 150//150 115//115 23//23
f 115//115 116//116 23//23
f 115//115 150//150 149//149
f 211//211 116//116 115//115
f 115//115 149//149 211//211
f 35//35 34//34 117//117
f 117//117 116//116 35//35
f 116//116 117//117 34//34
f 118//118 119//119 78//78
f 78//78 76//76 118//118
f 118//118 76//76 119//119
f 79//79 156//156 122//122
f 156//156 120//120 121//121
f 156//156 121//121 122//122
f 154//154 123//123 9//9
f 154//154 79//79 123//123
f 124//124 125//125 159//159
f 124//124 159//159 188//188
f 169//169 158//158 164//164
f 125//125 126//126 159//159
f 129//129 139//139 127//127
f 129//129 140//140 139//139
f 129//129 127//127 128//128
f 129//129 138//138 140//140
f 129//129 128//128 138//138
f 201//201 127//127 139//139
f 204//204 201//201 139//139
f 130//130 204//204 131//131
f 132//132 49//49 82//82
f 82//82 134//134 132//132
f 49//49 132//132 133//133
f 132//132 134//134 133//133
f 177//177 135//135 80//80
f 135//135 87//87 80//80
f 87//87 135//135 86//86
f 135//135 136//136 86//86
f 135//135 177//177 136//136
f 137//137 85//85 86//86
f 86//86 136//136 137//137
f 137//137 59//59 85//85
f 137//137 136//136 17//17
f 56//56 137//137 17//17
f 137//137 56//56 59//59
f 206//206 170//170 17//17
f 138//138 128//128 206//206
f 176//176 169//169 136//136
f 176//176 47//47 169//169
f 176//176 48//48 47//47
f 141//141 140//140 138//138
f 138//138 206//206 141//141
f 141//141 206//206 167//167
f 142//142 167//167 189//189
f 142//142 189//189 139//139
f 139//139 140//140 142//142
f 140//140 141//141 142//142
f 142//142 141//141 167//167
f 178//178 143//143 93//93
f 178//178 93//93 52//52
f 178//178 144//144 143//143
f 178//178 170//170 144//144
f 145//145 144//144 173//173
f 145//145 143//143 144//144
f 145//145 173//173 92//92
f 92//92 143//143 145//145
f 116//116 146//146 35//35
f 146//146 94//94 35//35
f 146//146 116//116 94//94
f 147//147 149//149 148//148
f 148//148 149//149 150//150
f 148//148 67//67 147//147
f 67//67 148//148 150//150
f 151//151 149//149 147//147
f 152//152 151//151 147//147
f 94//94 151//151 152//152
f 78//78 119//119 153//153
f 153//153 104//104 78//78
f 104//104 153//153 119//119
f 182//182 181//181 183//183
f 155//155 154//154 9//9
f 154//154 155//155 79//79
f 155//155 9//9 15//15
f 155//155 15//15 120//120
f 156//156 155//155 120//120
f 155//155 156//156 79//79
f 192//192 124//124 188//188
f 157//157 158//158 159//159
f 159//159 126//126 157//157
f 157//157 126//126 165//165
f 157//157 164//164 158//158
f 157//157 165//165 164//164
f 160//160 208//208 172//172
f 161//161 108//108 162//162
f 162//162 197//197 3//3
f 162//162 3//3 161//161
f 162//162 163//163 197//197
f 163//163 108//108 105//105
f 163//163 162//162 108//108
f 168//168 17//17 136//136
f 168//168 206//206 17//17
f 168//168 164//164 165//165
f 168//168 166//166 167//167
f 168//168 167//167 206//206
f 168//168 136//136 169//169
f 169//169 164//164 168//168
f 170//170 171//171 144//144
f 206//206 171//171 170//170
f 172//172 208//208 171//171
f 171//171 195//195 172//172
f 171//171 208//208 209//209
f 196//196 195//195 171//171
f 171//171 209//209 174//174
f 171//171 173//173 144//144
f 174//174 173//173 171//171
f 175//175 136//136 177//177
f 175//175 176//176 136//136
f 175//175 177//177 48//48
f 175//175 48//48 176//176
f 205//205 201//201 204//204
f 50//50 179//179 52//52
f 179//179 178//178 52//52
f 179//179 50//50 180//180
f 179//179 180//180 170//170
f 170//170 178//178 179//179
f 106//106 181//181 187//187
f 187//187 181//181 182//182
f 187//187 186//186 106//106
f 187//187 183//183 184//184
f 187//187 182//182 183//183
f 184//184 185//185 187//187
f 185//185 186//186 187//187
f 190//190 192//192 188//188
f 189//189 166//166 190//190
f 190//190 188//188 189//189
f 168//168 190//190 166//166
f 190//190 168//168 192//192
f 125//125 124//124 191//191
f 124//124 192//192 191//191
f 192//192 168//168 191//191
f 193//193 131//131 60//60
f 60//60 174//174 193//193
f 174//174 209//209 193//193
f 194//194 130//130 131//131
f 194//194 131//131 160//160
f 194//194 160//160 172//172
f 172//172 195//195 194//194
f 194//194 196//196 130//130
f 194//194 195//195 196//196
f 198//198 200//200 197//197
f 197//197 163//163 198//198
f 198//198 163//163 200//200
f 199//199 163//163 105//105
f 163//163 199//199 200//200
f 105//105 71//71 199//199
f 199//199 71//71 200//200
f 202//202 128//128 127//127
f 127//127 201//201 202//202
f 201//201 205//205 202//202
f 202//202 206//206 128//128
f 202//202 205//205 206//206
f 203//203 130//130 196//196
f 196//196 171//171 203//203
f 204//204 130//130 203//203
f 203//203 205//205 204//204
f 203//203 171//171 206//206
f 205//205 203//203 206//206
f 207//207 126//126 125//125
f 125//125 191//191 207//207
f 165//165 126//126 207//207
f 207//207 168//168 165//165
f 207//207 191//191 168//168
f 208//208 160//160 210//210
f 210//210 209//209 208//208
f 210//210 193//193 209//209
f 210//210 160//160 131//131
f 210//210 131//131 193//193
f 151//151 211//211 149//149
f 151//151 94//94 211//211
# 420 faces, 0 coords texture

# End of File