# generated by collision_forge
v -0.006390 0.051502 0.008926
v -0.006340 0.051502 0.008998
v -0.004921 0.060610 0.009636
v -0.004973 0.062566 0.008311
v -0.005062 0.061297 0.007645
v -0.005284 0.058027 0.007360
v -0.004735 0.051965 0.006368
v -0.005485 0.051502 0.006976
v -0.005600 0.051502 0.009850
v -0.004979 0.059663 0.009682
v -0.003270 0.067033 0.009621
v -0.001853 0.080907 0.008309
v -0.003305 0.073803 0.008108
v -0.003305 0.073803 0.007898
v -0.003608 0.069467 0.007431
v -0.004212 0.051502 0.006299
v -0.002451 0.071100 0.006849
v -0.000817 0.077640 0.006715
v -0.004086 0.051502 0.010084
v -0.000817 0.077640 0.009319
v -0.000817 0.079273 0.009145
v -0.000817 0.080907 0.008803
v -0.001721 0.081850 0.008121
v -0.001721 0.081850 0.007834
v -0.002023 0.079273 0.007461
v -0.004132 0.051502 0.006292
v -0.000817 0.079273 0.006820
v 0.000817 0.076003 0.006715
v -0.000817 0.076003 0.006675
v -0.000817 0.072737 0.009482
v 0.000817 0.077640 0.009222
v 0.000817 0.079273 0.008987
v 0.000817 0.081916 0.008191
v -0.000817 0.080907 0.007081
v 0.000817 0.079273 0.006965
v 0.002452 0.067830 0.006709
v 0.002452 0.062930 0.006497
v 0.000817 0.067830 0.006497
v -0.000817 0.051502 0.010094
v 0.002452 0.051502 0.010099
v 0.004086 0.051502 0.010087
v 0.003273 0.067060 0.009624
v 0.001860 0.079273 0.008364
v 0.001713 0.080907 0.008119
v -0.002451 0.051502 0.006184
v 0.001860 0.079273 0.007606
v 0.003588 0.067830 0.007441
v 0.004356 0.051502 0.006423
v 0.004343 0.051502 0.006422
v -0.000817 0.051502 0.006146
v 0.005076 0.054757 0.009764
v 0.004937 0.057528 0.009653
v 0.003281 0.072005 0.008031
v 0.001637 0.081728 0.007981
v 0.004907 0.060514 0.007974
v 0.005242 0.054757 0.007374
v 0.005405 0.051502 0.007240
v 0.000817 0.051502 0.006164
v 0.005228 0.051502 0.009848
v 0.005731 0.051502 0.008803
v 0.004959 0.059663 0.008321
v 0.005729 0.051502 0.008790
f 51 42 41
f 48 47 56
f 41 42 40
f 60 51 59
f 59 51 41
f 47 46 53
f 30 40 42
f 11 19 30
f 7 16 8
f 48 56 57
f 17 7 15
f 52 51 60
f 42 51 52
f 61 52 60
f 53 52 61
f 55 56 47
f 47 53 55
f 53 61 55
f 60 56 55
f 55 61 60
f 54 53 46
f 46 35 54
f 54 24 33
f 39 30 19
f 40 30 39
f 62 56 60
f 62 57 56
f 27 7 17
f 2 3 1
f 1 3 4
f 4 3 13
f 42 52 43
f 31 21 20
f 42 31 20
f 20 30 42
f 11 30 20
f 20 21 11
f 32 21 31
f 32 54 33
f 32 31 42
f 42 43 32
f 13 3 12
f 12 3 11
f 11 21 12
f 17 15 25
f 25 27 17
f 24 54 34
f 34 25 24
f 27 25 34
f 34 54 35
f 35 27 34
f 28 27 35
f 18 16 7
f 7 27 18
f 18 26 16
f 27 28 18
f 10 2 9
f 3 2 10
f 10 9 19
f 10 19 11
f 11 3 10
f 6 8 1
f 7 8 6
f 6 15 7
f 22 32 33
f 21 32 22
f 22 12 21
f 54 32 44
f 44 32 43
f 44 43 52
f 44 52 53
f 53 54 44
f 13 12 23
f 12 22 23
f 33 24 23
f 23 22 33
f 37 49 58
f 48 49 37
f 36 28 35
f 36 47 48
f 48 37 36
f 36 37 28
f 36 46 47
f 36 35 46
f 45 26 29
f 26 18 29
f 50 45 29
f 1 4 5
f 5 6 1
f 15 6 5
f 38 37 58
f 28 37 38
f 38 58 50
f 50 29 38
f 38 18 28
f 38 29 18
f 14 4 13
f 14 5 4
f 15 5 14
f 14 25 15
f 24 25 14
f 50 58 2
f 2 49 48
f 41 40 2
f 2 45 50
f 60 59 2
f 2 62 60
f 1 8 2
f 58 49 2
f 19 9 2
f 16 26 2
f 2 59 41
f 2 8 16
f 2 39 19
f 48 57 2
f 40 39 2
f 2 26 45
f 57 62 2
f 13 23 14
f 14 23 24
