# generated by collision_forge
v -0.004942 0.010496 0.012808
v -0.004426 0.010625 0.013707
v -0.004364 0.012258 0.013707
v -0.004899 0.012258 0.012808
v -0.003483 0.009489 0.014784
v -0.003637 0.010625 0.014962
v -0.003602 0.012258 0.014903
v -0.003436 0.013363 0.014706
v -0.004484 0.013894 0.012808
v -0.004553 0.008988 0.012808
v -0.003997 0.007769 0.012808
v -0.001830 0.009613 0.016267
v -0.002734 0.010625 0.015779
v -0.002396 0.012325 0.015784
v -0.002478 0.013902 0.015061
v -0.003042 0.014453 0.014277
v -0.003769 0.015217 0.012808
v -0.003610 0.007395 0.012808
v -0.001939 0.007952 0.014767
v -0.000817 0.008525 0.015866
v -0.000817 0.009343 0.016410
v -0.000817 0.010625 0.016606
v -0.001815 0.011825 0.016245
v -0.001316 0.012914 0.016119
v -0.001952 0.014924 0.014732
v -0.002788 0.006949 0.012808
v -0.002326 0.006758 0.013171
v -0.000817 0.007722 0.015049
v 0.000816 0.007703 0.015073
v 0.000816 0.008630 0.015890
v 0.000816 0.009447 0.016348
v 0.000816 0.010625 0.016524
v 0.000733 0.012236 0.016315
v 0.000135 0.013135 0.016185
v -0.000817 0.015089 0.014900
v -0.000786 0.016877 0.012808
v -0.001427 0.016559 0.012808
v 0.000497 0.006292 0.013171
v -0.000817 0.006295 0.013171
v 0.002531 0.006949 0.012808
v -0.000817 0.006949 0.014042
v 0.001935 0.007927 0.014799
v 0.001686 0.009754 0.016185
v 0.001737 0.011678 0.016219
v 0.001225 0.012767 0.016077
v 0.000733 0.013765 0.015711
v 0.000816 0.015024 0.014842
v 0.000952 0.016893 0.012808
v 0.002454 0.006949 0.012891
v 0.003710 0.007714 0.012808
v 0.003409 0.009591 0.014709
v 0.002567 0.010625 0.015653
v 0.003486 0.012258 0.014766
v 0.001807 0.014838 0.014656
v 0.003538 0.015377 0.012808
v 0.004307 0.008998 0.012808
v 0.003529 0.010625 0.014836
v 0.003350 0.013209 0.014617
v 0.003891 0.014978 0.012808
v 0.004563 0.010625 0.012808
v 0.004558 0.011982 0.012808
v 0.004269 0.013875 0.012808
f 23 12 22
f 62 59 58
f 60 57 56
f 25 17 16
f 48 54 55
f 58 59 55
f 55 54 58
f 17 9 8
f 16 17 8
f 58 44 53
f 53 62 58
f 52 44 43
f 57 53 52
f 52 53 44
f 58 54 45
f 45 44 58
f 43 44 32
f 10 5 1
f 10 11 5
f 1 5 2
f 5 6 2
f 2 4 1
f 5 12 13
f 13 6 5
f 12 23 13
f 7 6 13
f 39 26 38
f 50 49 40
f 38 26 40
f 40 49 38
f 50 56 51
f 51 56 57
f 51 52 43
f 57 52 51
f 17 25 37
f 37 25 36
f 48 36 35
f 36 25 35
f 22 34 24
f 24 23 22
f 34 35 24
f 24 35 25
f 62 53 61
f 61 57 60
f 61 53 57
f 34 45 46
f 46 45 54
f 33 32 44
f 33 45 34
f 44 45 33
f 33 34 22
f 22 32 33
f 27 18 26
f 26 39 27
f 27 39 41
f 4 2 3
f 3 9 4
f 3 6 7
f 3 2 6
f 7 8 3
f 3 8 9
f 31 32 22
f 43 32 31
f 31 30 43
f 38 49 42
f 42 49 50
f 50 51 42
f 43 30 42
f 42 51 43
f 47 54 48
f 48 35 47
f 47 46 54
f 47 35 34
f 34 46 47
f 23 24 14
f 14 8 7
f 7 13 14
f 14 13 23
f 15 24 25
f 15 25 16
f 16 8 15
f 8 14 15
f 15 14 24
f 18 27 19
f 19 12 5
f 19 20 12
f 11 18 19
f 5 11 19
f 30 20 29
f 29 39 38
f 41 39 29
f 38 42 29
f 29 42 30
f 21 20 30
f 30 31 21
f 12 20 21
f 22 12 21
f 21 31 22
f 41 29 28
f 28 29 20
f 20 19 28
f 28 27 41
f 28 19 27
f 61 36 48
f 17 37 61
f 1 4 61
f 48 55 61
f 61 9 17
f 26 18 61
f 61 40 26
f 60 56 61
f 59 62 61
f 61 10 1
f 61 56 50
f 4 9 61
f 61 55 59
f 11 10 61
f 61 18 11
f 50 40 61
f 61 37 36
