# generated by collision_forge
v -0.022855 -0.046385 0.007169
v -0.022946 -0.046385 0.007922
v -0.024884 -0.051473 0.008804
v -0.024883 -0.051473 0.008783
v -0.024786 -0.051473 0.007169
v -0.025083 -0.051473 0.005536
v -0.023149 -0.046385 0.005641
v -0.023083 -0.046385 0.008971
v -0.025555 -0.051473 0.010444
v -0.023268 -0.046385 0.005379
v -0.025749 -0.051473 0.004268
v -0.023140 -0.046385 0.009097
v -0.025612 -0.051473 0.010582
v -0.024037 -0.046385 0.004348
v -0.026969 -0.051473 0.003656
v -0.023745 -0.046385 0.010298
v -0.026091 -0.051473 0.011303
v -0.025335 -0.046385 0.003779
v -0.028753 -0.051473 0.004137
v -0.026969 -0.049853 0.003647
v -0.023867 -0.046385 0.010477
v -0.024526 -0.046385 0.011235
v -0.025168 -0.046385 0.011507
v -0.026969 -0.048219 0.003695
v -0.026969 -0.046584 0.003888
v -0.026969 -0.046385 0.003941
v -0.029020 -0.051473 0.004308
v -0.028519 -0.049853 0.004135
v -0.026969 -0.049853 0.011690
v -0.026827 -0.051473 0.011555
v -0.026739 -0.051473 0.011528
v -0.028317 -0.048219 0.004247
v -0.027997 -0.046385 0.004518
v -0.029769 -0.051473 0.005111
v -0.029421 -0.050672 0.004718
v -0.026969 -0.048219 0.011692
v -0.028446 -0.049853 0.011560
v -0.029134 -0.048219 0.005198
v -0.028692 -0.046385 0.005651
v -0.029919 -0.051473 0.005385
v -0.029835 -0.049853 0.005657
v -0.027101 -0.046385 0.011542
v -0.028178 -0.048219 0.011503
v -0.029414 -0.050769 0.011251
v -0.028891 -0.051473 0.011464
v -0.029451 -0.047329 0.006286
v -0.030544 -0.051473 0.007169
v -0.030293 -0.049853 0.007169
v -0.027871 -0.046385 0.011317
v -0.029431 -0.051473 0.011264
v -0.029909 -0.049853 0.010306
v -0.029922 -0.051383 0.010598
v -0.029151 -0.046385 0.007477
v -0.030544 -0.051473 0.007184
v -0.030367 -0.049853 0.008803
v -0.029928 -0.048219 0.008803
v -0.028476 -0.046385 0.010625
v -0.029692 -0.048219 0.010009
v -0.030620 -0.051473 0.008816
v -0.029514 -0.047194 0.009764
v -0.028585 -0.046385 0.010476
v -0.029217 -0.046385 0.008892
f 18 15 20
f 5 6 1
f 24 18 20
f 2 3 1
f 2 8 3
f 3 8 9
f 50 52 59
f 59 52 51
f 1 3 4
f 4 5 1
f 1 6 7
f 6 10 7
f 11 10 6
f 25 26 18
f 18 24 25
f 25 33 26
f 19 24 20
f 20 15 19
f 22 17 21
f 17 16 21
f 13 9 8
f 13 16 17
f 23 17 22
f 61 62 60
f 60 57 61
f 58 49 57
f 58 57 60
f 41 40 47
f 39 46 53
f 39 33 38
f 38 46 39
f 41 46 38
f 38 35 41
f 55 58 60
f 59 51 55
f 51 58 55
f 60 62 56
f 56 55 60
f 62 53 56
f 56 53 46
f 10 11 14
f 14 11 15
f 15 18 14
f 28 25 24
f 24 19 28
f 28 19 27
f 27 35 28
f 12 13 8
f 16 13 12
f 36 23 42
f 29 23 36
f 30 23 29
f 30 29 45
f 42 49 43
f 43 36 42
f 34 35 27
f 34 40 41
f 41 35 34
f 59 55 48
f 48 46 41
f 41 47 48
f 48 56 46
f 55 56 48
f 33 25 32
f 25 28 32
f 32 28 35
f 32 38 33
f 35 38 32
f 17 23 31
f 23 30 31
f 36 43 37
f 45 29 37
f 29 36 37
f 59 48 54
f 54 48 47
f 44 50 45
f 45 37 44
f 44 37 43
f 44 43 49
f 52 50 44
f 44 51 52
f 44 58 51
f 49 58 44
f 12 33 39
f 12 49 42
f 62 61 12
f 22 21 12
f 18 26 12
f 12 2 1
f 1 7 12
f 39 53 12
f 26 33 12
f 8 2 12
f 12 14 18
f 42 23 12
f 12 7 10
f 12 21 16
f 12 23 22
f 12 61 57
f 57 49 12
f 12 53 62
f 10 14 12
f 54 50 59
f 3 9 54
f 54 13 17
f 15 11 54
f 54 4 3
f 17 31 54
f 6 5 54
f 54 19 15
f 45 50 54
f 54 30 45
f 5 4 54
f 54 11 6
f 27 19 54
f 9 13 54
f 54 47 40
f 54 34 27
f 40 34 54
f 54 31 30
