# generated by collision_forge
v -0.006165 -0.042872 0.003472
v -0.007356 -0.040046 0.003471
v -0.004531 -0.042872 0.003621
v -0.007416 -0.042872 0.003930
v -0.014145 -0.039828 0.004310
v -0.014145 -0.038411 0.003701
v -0.013893 -0.036777 0.003577
v -0.008989 -0.036654 0.003643
v -0.004074 -0.042872 0.003813
v -0.014145 -0.040618 0.005077
v -0.012259 -0.036654 0.003550
v -0.010747 -0.036654 0.003537
v -0.009112 -0.036654 0.003633
v -0.007294 -0.036654 0.004202
v -0.003156 -0.042872 0.004304
v -0.008477 -0.042872 0.004475
v -0.014145 -0.041087 0.005865
v -0.014145 -0.036654 0.003636
v -0.006471 -0.036654 0.004669
v -0.002947 -0.042872 0.004439
v -0.009415 -0.042872 0.005534
v -0.014145 -0.041452 0.007170
v -0.014145 -0.036654 0.012079
v -0.005837 -0.036654 0.005489
v -0.003121 -0.042264 0.004580
v -0.002477 -0.042872 0.005105
v -0.010059 -0.042872 0.007170
v -0.013770 -0.036654 0.012132
v -0.002246 -0.042872 0.005506
v -0.014145 -0.041481 0.008803
v -0.014145 -0.037028 0.012143
v -0.005271 -0.036654 0.007150
v -0.004867 -0.037525 0.006278
v -0.001834 -0.042872 0.007170
v -0.009838 -0.042872 0.009217
v -0.009234 -0.042872 0.010598
v -0.014145 -0.038411 0.012266
v -0.005349 -0.036654 0.008774
v -0.001988 -0.042872 0.008803
v -0.014145 -0.041116 0.010259
v -0.008541 -0.042872 0.011587
v -0.012259 -0.038411 0.012397
v -0.014145 -0.038667 0.012193
v -0.005721 -0.042872 0.012461
v -0.007356 -0.041680 0.012502
v -0.010623 -0.036654 0.012297
v -0.006036 -0.036654 0.010518
v -0.003256 -0.040838 0.009649
v -0.002617 -0.042872 0.010333
v -0.003023 -0.041680 0.010019
v -0.014145 -0.040803 0.010956
v -0.007414 -0.042872 0.012127
v -0.014145 -0.040744 0.011045
v -0.014145 -0.039956 0.011755
v -0.005721 -0.041680 0.012285
v -0.004041 -0.042872 0.011814
v -0.008989 -0.038411 0.012406
v -0.008989 -0.036654 0.012146
v -0.003307 -0.042576 0.011213
v -0.002972 -0.042872 0.010909
v -0.006417 -0.037260 0.011347
v -0.007160 -0.036654 0.011549
f 8 3 2
f 37 43 44
f 45 37 44
f 19 24 25
f 29 26 25
f 8 2 13
f 2 12 13
f 7 6 18
f 47 59 50
f 50 48 47
f 52 43 54
f 52 44 43
f 58 46 57
f 45 44 57
f 25 26 20
f 20 19 25
f 15 19 20
f 14 15 9
f 14 19 15
f 14 9 3
f 14 3 8
f 41 52 53
f 53 52 54
f 16 21 17
f 11 7 18
f 11 12 2
f 2 7 11
f 48 50 39
f 47 48 38
f 48 39 38
f 38 39 34
f 34 32 38
f 34 29 33
f 33 32 34
f 24 32 33
f 25 24 33
f 33 29 25
f 56 60 59
f 55 62 58
f 58 57 55
f 55 57 44
f 44 56 55
f 55 56 62
f 47 62 61
f 61 59 47
f 61 56 59
f 62 56 61
f 31 28 23
f 46 28 42
f 42 57 46
f 42 31 37
f 28 31 42
f 42 37 45
f 45 57 42
f 51 40 41
f 41 53 51
f 10 16 17
f 5 6 1
f 1 2 3
f 6 7 1
f 1 7 2
f 17 21 22
f 49 39 50
f 59 60 49
f 49 50 59
f 5 1 4
f 4 10 5
f 16 10 4
f 30 35 36
f 40 30 36
f 41 40 36
f 30 22 27
f 27 35 30
f 27 22 21
f 38 18 23
f 38 62 47
f 23 28 38
f 38 11 18
f 8 13 38
f 38 14 8
f 38 46 58
f 24 19 38
f 38 13 12
f 38 32 24
f 58 62 38
f 38 28 46
f 19 14 38
f 12 11 38
f 23 18 22
f 5 10 22
f 22 6 5
f 18 6 22
f 40 51 22
f 54 43 22
f 22 43 37
f 22 53 54
f 22 31 23
f 22 30 40
f 37 31 22
f 22 51 53
f 22 10 17
f 27 29 34
f 3 9 27
f 27 52 41
f 27 20 26
f 60 56 27
f 34 39 27
f 9 15 27
f 26 29 27
f 27 1 3
f 44 52 27
f 15 20 27
f 21 16 27
f 16 4 27
f 27 56 44
f 27 49 60
f 41 36 27
f 39 49 27
f 27 4 1
f 27 36 35
