# generated by collision_forge
v -0.002327 -0.005030 0.012192
v -0.002452 -0.005030 0.012187
v -0.002327 -0.005721 0.012104
v -0.002327 -0.005030 0.003883
v -0.004040 -0.005030 0.011821
v -0.007338 -0.010607 0.010521
v -0.002452 -0.005721 0.012084
v -0.005721 -0.010607 0.010692
v -0.002327 -0.006994 0.011609
v -0.002327 -0.005721 0.003996
v -0.005721 -0.010607 0.004303
v -0.004087 -0.005030 0.003904
v -0.004988 -0.005030 0.011494
v -0.007355 -0.010607 0.010514
v -0.005701 -0.010607 0.010687
v -0.002327 -0.007258 0.011501
v -0.002327 -0.007333 0.004478
v -0.004658 -0.010607 0.004580
v -0.005721 -0.008990 0.004194
v -0.007458 -0.010607 0.004447
v -0.005721 -0.005030 0.004188
v -0.005128 -0.005030 0.011442
v -0.008436 -0.010607 0.009883
v -0.004322 -0.010607 0.010061
v -0.002327 -0.007286 0.011478
v -0.002327 -0.008254 0.005553
v -0.003847 -0.010607 0.005584
v -0.004413 -0.010607 0.004882
v -0.007491 -0.010607 0.004457
v -0.006647 -0.005030 0.004612
v -0.006553 -0.005030 0.010330
v -0.006761 -0.005030 0.009985
v -0.008910 -0.010607 0.008819
v -0.004306 -0.010607 0.010050
v -0.002327 -0.008506 0.010391
v -0.002327 -0.008875 0.006998
v -0.003174 -0.009984 0.006166
v -0.003336 -0.010607 0.007170
v -0.008072 -0.010018 0.004815
v -0.008646 -0.010607 0.005400
v -0.008671 -0.010607 0.005430
v -0.007019 -0.005030 0.005535
v -0.007018 -0.005030 0.009354
v -0.008916 -0.010607 0.008803
v -0.003548 -0.010607 0.008909
v -0.002327 -0.008962 0.009107
v -0.002327 -0.008941 0.007170
v -0.003363 -0.010607 0.007646
v -0.009175 -0.010607 0.007170
v -0.007310 -0.005030 0.007170
v -0.007161 -0.005030 0.008803
v -0.007268 -0.005030 0.007860
f 14 22 23
f 32 23 31
f 23 22 31
f 29 39 30
f 39 41 30
f 27 17 26
f 28 17 27
f 18 17 28
f 10 17 18
f 18 11 10
f 10 11 4
f 45 35 34
f 48 38 46
f 46 38 47
f 46 45 48
f 35 45 46
f 33 23 32
f 2 5 6
f 6 5 13
f 13 14 6
f 22 14 13
f 40 39 29
f 40 41 39
f 42 41 49
f 42 30 41
f 47 38 37
f 37 38 27
f 27 26 37
f 34 35 25
f 25 24 34
f 16 24 25
f 1 2 3
f 6 8 3
f 20 19 11
f 4 11 12
f 11 19 12
f 19 20 12
f 50 42 49
f 47 37 36
f 36 37 26
f 15 16 8
f 15 24 16
f 8 16 9
f 9 3 8
f 7 2 6
f 6 3 7
f 7 3 2
f 21 12 20
f 21 20 29
f 29 30 21
f 49 44 51
f 52 50 49
f 49 51 52
f 43 51 44
f 44 33 43
f 43 33 32
f 34 24 15
f 49 41 15
f 15 28 27
f 15 8 6
f 15 44 49
f 6 14 15
f 15 40 29
f 27 38 15
f 15 45 34
f 15 14 23
f 15 11 18
f 23 33 15
f 18 28 15
f 15 38 48
f 48 45 15
f 15 33 44
f 41 40 15
f 29 20 15
f 15 20 11
f 9 4 1
f 1 3 9
f 9 10 4
f 9 25 35
f 9 26 17
f 17 10 9
f 9 46 47
f 35 46 9
f 16 25 9
f 47 36 9
f 9 36 26
f 32 31 43
f 1 4 43
f 4 12 43
f 43 2 1
f 43 31 22
f 22 13 43
f 5 2 43
f 43 13 5
f 30 42 43
f 43 21 30
f 42 50 43
f 12 21 43
f 50 52 43
f 43 52 51
