# generated by collision_forge
v 0.021052 -0.078428 0.003068
v 0.018798 -0.079275 0.003686
v 0.021311 -0.078428 0.003068
v 0.018798 -0.077641 0.003785
v 0.016849 -0.075272 0.004926
v 0.017163 -0.075272 0.004899
v 0.021940 -0.079159 0.003383
v 0.020474 -0.081009 0.004177
v 0.017808 -0.080249 0.004567
v 0.016313 -0.076942 0.004692
v 0.016314 -0.076489 0.004692
v 0.021268 -0.076817 0.004704
v 0.023208 -0.078142 0.004344
v 0.023373 -0.079275 0.004203
v 0.015565 -0.075272 0.005413
v 0.018435 -0.075272 0.005379
v 0.023212 -0.080426 0.004406
v 0.021388 -0.081783 0.004654
v 0.017593 -0.080494 0.005536
v 0.014651 -0.075346 0.006254
v 0.014638 -0.075272 0.006240
v 0.019435 -0.075272 0.007170
v 0.023505 -0.077933 0.005536
v 0.024233 -0.079284 0.005651
v 0.024545 -0.080139 0.006273
v 0.022965 -0.081779 0.006217
v 0.022065 -0.082279 0.007170
v 0.019335 -0.081855 0.006028
v 0.016671 -0.079609 0.007170
v 0.016214 -0.078690 0.006041
v 0.018414 -0.081436 0.007170
v 0.019457 -0.075272 0.008803
v 0.023632 -0.077931 0.007170
v 0.024450 -0.078790 0.007170
v 0.024603 -0.080245 0.007170
v 0.023107 -0.081871 0.007170
v 0.020431 -0.082324 0.007170
v 0.022065 -0.082303 0.008803
v 0.017661 -0.080434 0.008803
v 0.016216 -0.078674 0.008428
v 0.015552 -0.077641 0.007170
v 0.019384 -0.081848 0.008404
v 0.023300 -0.078196 0.010057
v 0.023565 -0.078022 0.008803
v 0.018733 -0.075272 0.010348
v 0.023097 -0.081893 0.010002
v 0.020797 -0.081916 0.009894
v 0.017867 -0.080222 0.009734
v 0.016387 -0.078406 0.009517
v 0.014675 -0.075272 0.009341
v 0.022380 -0.078602 0.011147
v 0.024638 -0.079758 0.009889
v 0.024638 -0.080275 0.009889
v 0.023201 -0.080487 0.011431
v 0.022065 -0.081321 0.010929
v 0.021052 -0.080244 0.011321
v 0.016050 -0.077316 0.009932
v 0.014799 -0.075272 0.009714
v 0.023201 -0.079690 0.011431
v 0.016460 -0.075272 0.011237
v 0.022065 -0.080503 0.011438
v 0.016247 -0.075272 0.011137
f 18 28 9
f 37 28 18
f 21 20 50
f 17 18 7
f 26 18 17
f 17 25 26
f 26 25 36
f 1 2 4
f 4 2 11
f 10 2 9
f 11 2 10
f 9 30 10
f 10 30 20
f 21 11 10
f 10 20 21
f 8 18 9
f 9 2 8
f 8 2 1
f 8 7 18
f 15 11 21
f 47 48 42
f 47 42 37
f 37 38 47
f 42 48 39
f 57 48 62
f 20 30 41
f 41 50 20
f 40 50 41
f 36 25 35
f 35 53 36
f 52 53 35
f 55 47 46
f 46 47 38
f 36 53 46
f 46 38 36
f 14 25 17
f 17 7 14
f 36 38 27
f 27 26 36
f 27 38 37
f 37 18 27
f 18 26 27
f 54 61 55
f 59 61 54
f 55 46 54
f 54 46 53
f 60 61 59
f 59 51 60
f 60 51 45
f 55 61 56
f 56 47 55
f 48 47 56
f 61 60 56
f 56 60 62
f 62 48 56
f 45 51 43
f 43 32 45
f 44 32 43
f 52 44 43
f 43 59 52
f 43 51 59
f 5 4 11
f 11 15 5
f 5 6 1
f 1 4 5
f 29 39 40
f 40 41 29
f 29 41 30
f 58 57 62
f 48 57 49
f 40 39 49
f 49 39 48
f 57 58 49
f 49 58 50
f 49 50 40
f 1 6 3
f 3 8 1
f 7 8 3
f 3 14 7
f 13 14 3
f 12 16 22
f 22 23 12
f 12 23 13
f 13 3 12
f 6 16 12
f 12 3 6
f 22 32 33
f 33 23 22
f 33 32 44
f 19 30 9
f 19 29 30
f 9 28 19
f 23 33 34
f 52 35 34
f 34 35 25
f 34 44 52
f 34 33 44
f 39 29 31
f 29 19 31
f 42 39 31
f 31 19 28
f 31 28 37
f 37 42 31
f 13 23 24
f 23 34 24
f 24 34 25
f 25 14 24
f 24 14 13
f 54 53 52
f 52 59 54
f 22 16 58
f 21 50 58
f 62 60 58
f 58 15 21
f 6 5 58
f 58 32 22
f 58 16 6
f 58 60 45
f 45 32 58
f 58 5 15
