# generated by collision_forge
v 0.022311 -0.064579 0.008803
v 0.023275 -0.063972 0.010097
v 0.023089 -0.063861 0.006118
v 0.024232 -0.063560 0.008803
v 0.026171 -0.062128 0.009653
v 0.022410 -0.063505 0.005028
v 0.024623 -0.062208 0.011322
v 0.022311 -0.063808 0.011284
v 0.022311 -0.062807 0.004424
v 0.024415 -0.062021 0.004802
v 0.026494 -0.060859 0.005895
v 0.026000 -0.061972 0.007169
v 0.028084 -0.059298 0.007169
v 0.029433 -0.057231 0.009648
v 0.027713 -0.058667 0.011186
v 0.026556 -0.059659 0.011450
v 0.022311 -0.063012 0.011648
v 0.023701 -0.061295 0.011863
v 0.022311 -0.061310 0.003939
v 0.023803 -0.061403 0.004256
v 0.027964 -0.059114 0.006039
v 0.030280 -0.054757 0.008803
v 0.029594 -0.056392 0.009936
v 0.022311 -0.062896 0.011681
v 0.026970 -0.054757 0.011865
v 0.022311 -0.061295 0.011917
v 0.026970 -0.053253 0.003910
v 0.026504 -0.059281 0.004493
v 0.029567 -0.055929 0.006086
v 0.029333 -0.057007 0.007169
v 0.030567 -0.053253 0.007300
v 0.030627 -0.053253 0.008803
v 0.030594 -0.053253 0.008924
v 0.029406 -0.053871 0.011245
v 0.026970 -0.053253 0.011837
v 0.022311 -0.061050 0.011915
v 0.022311 -0.059041 0.004387
v 0.025684 -0.053253 0.004342
v 0.028744 -0.053253 0.004330
v 0.026970 -0.056392 0.004045
v 0.027868 -0.057382 0.004650
v 0.029972 -0.053253 0.010594
v 0.029966 -0.053253 0.010603
v 0.028766 -0.053253 0.011561
v 0.026863 -0.053253 0.011813
v 0.022311 -0.059594 0.011517
v 0.025843 -0.053253 0.011491
v 0.022311 -0.058322 0.005313
v 0.025034 -0.053253 0.005535
v 0.029393 -0.053831 0.004743
v 0.029912 -0.053253 0.005394
v 0.022311 -0.059513 0.011476
v 0.025781 -0.053253 0.011406
v 0.022311 -0.058194 0.005535
v 0.022311 -0.058976 0.010914
v 0.025276 -0.053253 0.010441
v 0.022311 -0.058016 0.006863
v 0.024963 -0.053253 0.008604
v 0.022311 -0.057976 0.007169
v 0.022311 -0.058744 0.010438
v 0.022311 -0.058226 0.008803
v 0.022311 -0.058624 0.010067
f 2 8 1
f 13 12 21
f 15 14 23
f 23 34 15
f 23 43 34
f 51 29 50
f 50 39 51
f 32 23 22
f 22 23 14
f 24 18 26
f 8 2 7
f 16 7 15
f 18 7 16
f 4 2 1
f 12 13 5
f 5 13 14
f 5 4 12
f 5 14 15
f 15 7 5
f 5 7 2
f 2 4 5
f 14 13 30
f 30 22 14
f 29 22 30
f 21 29 30
f 30 13 21
f 33 23 32
f 27 39 40
f 40 39 50
f 19 38 27
f 37 38 19
f 27 40 19
f 19 40 20
f 21 12 11
f 32 22 31
f 31 22 29
f 29 51 31
f 8 7 17
f 18 24 17
f 17 7 18
f 26 18 25
f 25 36 26
f 35 36 25
f 18 16 25
f 34 43 44
f 35 25 44
f 44 25 16
f 15 34 44
f 44 16 15
f 43 23 42
f 23 33 42
f 47 52 46
f 46 36 47
f 47 36 45
f 45 36 35
f 53 52 47
f 61 58 59
f 49 38 37
f 49 59 58
f 41 40 50
f 41 29 21
f 50 29 41
f 62 60 56
f 62 56 58
f 62 58 61
f 56 60 55
f 55 53 56
f 52 53 55
f 48 49 37
f 54 49 48
f 57 49 54
f 59 49 57
f 20 40 28
f 40 41 28
f 21 11 28
f 28 41 21
f 9 6 1
f 9 19 20
f 3 4 1
f 1 6 3
f 12 4 3
f 3 11 12
f 20 28 10
f 10 9 20
f 6 9 10
f 10 28 11
f 11 3 10
f 10 3 6
f 49 33 32
f 27 38 49
f 43 42 49
f 49 39 27
f 47 45 49
f 49 53 47
f 49 51 39
f 32 31 49
f 49 44 43
f 58 56 49
f 49 31 51
f 35 44 49
f 49 42 33
f 49 45 35
f 56 53 49
f 1 8 9
f 52 55 9
f 9 24 26
f 26 36 9
f 9 46 52
f 9 57 54
f 8 17 9
f 61 59 9
f 37 19 9
f 9 17 24
f 36 46 9
f 9 62 61
f 9 48 37
f 60 62 9
f 9 55 60
f 54 48 9
f 59 57 9
