# generated by collision_forge
v 0.012391 -0.062929 0.012234
v 0.017801 -0.062929 0.012038
v 0.017801 -0.062423 0.011865
v 0.012391 -0.061551 0.011699
v 0.012391 -0.064564 0.012229
v 0.013894 -0.064564 0.012212
v 0.015528 -0.064564 0.012154
v 0.017801 -0.063925 0.012056
v 0.017801 -0.061741 0.011585
v 0.017801 -0.061430 0.011128
v 0.012391 -0.060790 0.010543
v 0.012391 -0.066198 0.012036
v 0.013894 -0.067832 0.011996
v 0.015528 -0.069463 0.011792
v 0.017801 -0.061077 0.010430
v 0.017801 -0.060676 0.008803
v 0.012391 -0.060759 0.010409
v 0.012391 -0.067868 0.011679
v 0.013757 -0.069463 0.011685
v 0.016597 -0.069463 0.011434
v 0.017801 -0.065699 0.011669
v 0.017801 -0.060412 0.007264
v 0.012391 -0.060399 0.008803
v 0.013402 -0.069463 0.011587
v 0.017257 -0.069463 0.010433
v 0.017801 -0.065983 0.011547
v 0.017801 -0.060395 0.006834
v 0.012391 -0.060165 0.007130
v 0.012391 -0.060169 0.007168
v 0.012391 -0.069463 0.010835
v 0.017628 -0.069463 0.008799
v 0.017801 -0.067495 0.010435
v 0.017801 -0.060407 0.006144
v 0.012391 -0.060281 0.005974
v 0.012391 -0.069463 0.006142
v 0.017486 -0.069463 0.007166
v 0.017801 -0.067848 0.007468
v 0.012391 -0.060304 0.005907
v 0.017801 -0.060715 0.005350
v 0.017801 -0.067130 0.006203
v 0.016862 -0.069463 0.005770
v 0.017801 -0.065614 0.004639
v 0.012391 -0.060692 0.005157
v 0.012391 -0.060761 0.005048
v 0.017801 -0.061490 0.004308
v 0.012604 -0.069463 0.005850
v 0.012391 -0.067238 0.004652
v 0.015512 -0.069463 0.005034
v 0.017801 -0.064565 0.004208
v 0.012391 -0.061512 0.004274
v 0.017801 -0.062929 0.003868
v 0.017163 -0.062929 0.003857
v 0.013992 -0.069463 0.005108
v 0.012705 -0.067381 0.004585
v 0.015407 -0.069463 0.004991
v 0.017163 -0.064564 0.004074
v 0.015528 -0.064564 0.003896
v 0.013894 -0.064564 0.003846
v 0.012391 -0.063061 0.003789
v 0.012391 -0.064696 0.003907
v 0.014765 -0.068699 0.004706
v 0.013894 -0.066198 0.004122
f 7 2 1
f 2 7 8
f 8 7 14
f 14 7 13
f 6 13 7
f 5 13 6
f 1 5 6
f 6 7 1
f 3 4 1
f 1 2 3
f 22 23 16
f 28 33 34
f 42 36 41
f 32 26 25
f 12 13 5
f 24 18 30
f 11 4 10
f 11 16 17
f 16 23 17
f 27 33 28
f 28 22 27
f 29 22 28
f 23 22 29
f 57 58 51
f 59 50 45
f 45 50 44
f 40 36 42
f 40 37 36
f 31 37 32
f 36 37 31
f 32 25 31
f 42 41 48
f 48 49 42
f 55 49 48
f 20 25 26
f 26 21 20
f 20 21 8
f 20 8 14
f 59 58 60
f 14 13 19
f 13 12 19
f 19 12 18
f 18 24 19
f 4 3 9
f 9 10 4
f 15 16 11
f 11 10 15
f 38 34 33
f 51 49 56
f 56 57 51
f 56 49 55
f 52 45 51
f 59 45 52
f 52 58 59
f 51 58 52
f 44 43 39
f 39 45 44
f 43 38 39
f 39 38 33
f 35 47 46
f 47 53 46
f 62 60 58
f 58 57 62
f 55 53 61
f 61 62 57
f 61 56 55
f 57 56 61
f 54 53 47
f 54 61 53
f 47 60 54
f 60 62 54
f 62 61 54
f 1 4 38
f 38 5 1
f 28 34 38
f 38 50 59
f 30 18 38
f 38 4 11
f 11 17 38
f 38 35 30
f 38 43 44
f 38 12 5
f 38 29 28
f 44 50 38
f 38 47 35
f 18 12 38
f 38 17 23
f 23 29 38
f 59 60 38
f 38 60 47
f 42 49 39
f 2 8 39
f 39 26 32
f 8 21 39
f 39 9 3
f 39 3 2
f 33 27 39
f 39 21 26
f 16 15 39
f 39 22 16
f 39 49 51
f 32 37 39
f 39 40 42
f 39 27 22
f 51 45 39
f 37 40 39
f 10 9 39
f 39 15 10
f 36 31 46
f 55 48 46
f 30 35 46
f 46 20 14
f 46 41 36
f 46 53 55
f 46 24 30
f 46 31 25
f 46 48 41
f 25 20 46
f 14 19 46
f 46 19 24
