# generated by collision_forge
v 0.017162 -0.075272 0.004897
v 0.018435 -0.075272 0.005378
v 0.016848 -0.075272 0.004926
v 0.014121 -0.069464 0.005065
v 0.015408 -0.069464 0.004991
v 0.016862 -0.069464 0.005770
v 0.018757 -0.075272 0.005578
v 0.015513 -0.069464 0.005034
v 0.015563 -0.075272 0.005412
v 0.013993 -0.069464 0.005108
v 0.017485 -0.069464 0.007166
v 0.016865 -0.069468 0.005773
v 0.019402 -0.075272 0.007090
v 0.015126 -0.075272 0.005732
v 0.012554 -0.069464 0.005877
v 0.012560 -0.069468 0.005874
v 0.012604 -0.069464 0.005849
v 0.017627 -0.069464 0.008799
v 0.019435 -0.075272 0.007169
v 0.014638 -0.075272 0.006239
v 0.011869 -0.069464 0.006984
v 0.019457 -0.075272 0.008803
v 0.017257 -0.069464 0.010433
v 0.014614 -0.075272 0.006321
v 0.011851 -0.069464 0.007027
v 0.018733 -0.075272 0.010349
v 0.016597 -0.069464 0.011435
v 0.017255 -0.069468 0.010438
v 0.014518 -0.075272 0.007169
v 0.011592 -0.069464 0.008803
v 0.011641 -0.069464 0.008377
v 0.016740 -0.072736 0.011491
v 0.017425 -0.074371 0.011059
v 0.017181 -0.075272 0.011059
v 0.016595 -0.069468 0.011437
v 0.015528 -0.069464 0.011792
v 0.014522 -0.075272 0.007463
v 0.012078 -0.069464 0.010487
v 0.014587 -0.075272 0.008803
v 0.014675 -0.075272 0.009341
v 0.014698 -0.075216 0.009642
v 0.015528 -0.071102 0.011715
v 0.016608 -0.074371 0.011384
v 0.016458 -0.075272 0.011237
v 0.013757 -0.069464 0.011685
v 0.012152 -0.069464 0.010612
v 0.014798 -0.075272 0.009715
v 0.013099 -0.070256 0.011235
v 0.016065 -0.074371 0.011384
v 0.015473 -0.072758 0.011517
v 0.016387 -0.075199 0.011260
v 0.016337 -0.075199 0.011260
v 0.016247 -0.075272 0.011138
v 0.013402 -0.069464 0.011587
v 0.013744 -0.069614 0.011656
v 0.014180 -0.071102 0.011514
v 0.012326 -0.069464 0.010787
v 0.015510 -0.075272 0.010480
v 0.014891 -0.073318 0.011115
v 0.014526 -0.072228 0.011377
f 23 26 22
f 18 23 22
f 17 10 9
f 54 57 48
f 60 54 48
f 56 54 60
f 12 6 11
f 11 7 12
f 12 7 6
f 11 18 19
f 19 18 22
f 25 21 20
f 20 24 25
f 20 21 15
f 31 24 30
f 25 24 31
f 30 24 29
f 15 17 16
f 9 15 16
f 16 17 9
f 30 41 38
f 30 39 40
f 40 41 30
f 47 58 48
f 48 41 47
f 41 40 47
f 59 58 53
f 48 58 59
f 59 60 48
f 33 34 26
f 26 32 33
f 32 43 33
f 33 43 34
f 56 50 45
f 35 27 36
f 36 32 35
f 35 32 26
f 26 27 35
f 23 27 28
f 26 23 28
f 28 27 26
f 13 7 11
f 11 19 13
f 6 7 2
f 14 15 9
f 14 20 15
f 37 39 30
f 30 29 37
f 48 57 46
f 46 41 48
f 46 38 41
f 34 43 44
f 36 45 42
f 42 45 50
f 42 32 36
f 42 43 32
f 55 45 54
f 55 54 56
f 56 45 55
f 6 2 8
f 8 2 5
f 5 2 1
f 4 5 1
f 49 42 50
f 43 42 49
f 56 60 49
f 49 50 56
f 4 1 3
f 3 10 4
f 9 10 3
f 51 44 43
f 52 49 60
f 52 59 53
f 60 59 52
f 53 44 52
f 44 51 52
f 36 27 8
f 4 10 8
f 30 38 8
f 8 5 4
f 8 31 30
f 11 6 8
f 8 18 11
f 15 21 8
f 8 17 15
f 23 18 8
f 8 21 25
f 10 17 8
f 57 54 8
f 8 27 23
f 8 46 57
f 25 31 8
f 8 45 36
f 54 45 8
f 38 46 8
f 22 26 3
f 53 58 3
f 3 19 22
f 39 37 3
f 3 14 9
f 7 13 3
f 3 44 53
f 26 34 3
f 58 47 3
f 24 20 3
f 3 29 24
f 3 40 39
f 3 47 40
f 3 13 19
f 3 2 7
f 20 14 3
f 3 37 29
f 34 44 3
f 3 1 2
f 52 51 43
f 43 49 52
