# generated by collision_forge
v 0.021130 -0.042225 0.008803
v 0.021130 -0.042042 0.009776
v 0.021130 -0.042223 0.007169
v 0.023750 -0.045239 0.007169
v 0.023815 -0.045239 0.008458
v 0.021130 -0.041833 0.005514
v 0.023786 -0.045239 0.006876
v 0.024118 -0.045239 0.010344
v 0.024244 -0.045239 0.010645
v 0.021130 -0.041293 0.011500
v 0.024451 -0.045239 0.004709
v 0.024073 -0.045239 0.005449
v 0.021130 -0.041419 0.004875
v 0.025046 -0.045239 0.011423
v 0.021130 -0.040046 0.011917
v 0.025303 -0.045239 0.011626
v 0.025252 -0.045239 0.004239
v 0.021130 -0.040782 0.004304
v 0.021130 -0.038351 0.011919
v 0.025335 -0.043315 0.011917
v 0.026969 -0.045239 0.011807
v 0.025422 -0.045239 0.004188
v 0.023701 -0.040046 0.011902
v 0.025335 -0.041681 0.011841
v 0.026969 -0.045239 0.003958
v 0.021130 -0.039110 0.003884
v 0.021130 -0.036307 0.010875
v 0.029066 -0.045239 0.010893
v 0.028198 -0.044949 0.011477
v 0.027237 -0.045239 0.004033
v 0.021130 -0.038366 0.004015
v 0.023701 -0.040046 0.004032
v 0.024676 -0.039100 0.011337
v 0.026247 -0.040735 0.011318
v 0.021473 -0.035842 0.009884
v 0.027694 -0.042680 0.011182
v 0.027792 -0.040855 0.009630
v 0.024541 -0.037577 0.009656
v 0.021130 -0.035528 0.008803
v 0.029474 -0.044022 0.009732
v 0.027956 -0.043832 0.004582
v 0.028408 -0.045239 0.004502
v 0.021670 -0.037342 0.004523
v 0.024561 -0.039192 0.004689
v 0.026185 -0.040824 0.004693
v 0.026256 -0.039124 0.009800
v 0.027792 -0.040855 0.009527
v 0.026273 -0.039106 0.008803
v 0.021130 -0.035567 0.007169
v 0.029941 -0.045239 0.008803
v 0.029145 -0.045239 0.005336
v 0.021130 -0.036712 0.004851
v 0.026156 -0.039225 0.006346
v 0.023347 -0.037279 0.005886
v 0.021409 -0.035867 0.006181
v 0.029822 -0.045239 0.007175
v 0.028041 -0.042070 0.005967
v 0.029570 -0.045239 0.005951
v 0.024445 -0.037646 0.007169
v 0.027709 -0.040981 0.007169
v 0.029400 -0.044185 0.006638
v 0.029603 -0.045239 0.006011
f 4 5 1
f 11 18 17
f 3 4 1
f 46 48 38
f 33 27 19
f 46 38 33
f 33 38 27
f 49 55 52
f 39 38 49
f 52 55 54
f 15 10 16
f 13 11 6
f 18 11 13
f 6 11 12
f 12 3 6
f 39 27 35
f 35 38 39
f 27 38 35
f 23 33 19
f 47 61 60
f 53 48 60
f 60 48 47
f 55 49 59
f 59 49 38
f 59 54 55
f 53 54 59
f 59 48 53
f 59 38 48
f 26 25 22
f 22 18 26
f 17 18 22
f 32 25 26
f 30 25 32
f 30 32 41
f 41 32 45
f 16 10 14
f 10 9 14
f 4 3 7
f 3 12 7
f 20 15 16
f 19 15 20
f 20 23 19
f 23 20 24
f 56 61 50
f 56 62 61
f 53 60 57
f 57 60 61
f 57 45 53
f 57 41 45
f 61 62 57
f 52 54 43
f 42 41 51
f 30 41 42
f 51 41 58
f 58 57 62
f 41 57 58
f 10 2 8
f 8 9 10
f 8 2 1
f 1 5 8
f 21 28 29
f 21 20 16
f 29 24 21
f 21 24 20
f 40 28 50
f 50 61 40
f 40 61 47
f 28 40 36
f 29 28 36
f 52 43 31
f 31 32 26
f 31 43 32
f 45 32 44
f 32 43 44
f 44 43 54
f 44 54 53
f 53 45 44
f 46 33 34
f 33 23 34
f 23 24 34
f 34 24 29
f 29 36 34
f 37 40 47
f 37 36 40
f 37 34 36
f 46 34 37
f 37 48 46
f 47 48 37
f 4 7 21
f 16 14 21
f 21 11 17
f 50 28 21
f 5 4 21
f 21 56 50
f 51 58 21
f 21 25 30
f 17 22 21
f 21 12 11
f 21 42 51
f 21 22 25
f 21 14 9
f 21 7 12
f 21 8 5
f 62 56 21
f 30 42 21
f 21 58 62
f 9 8 21
f 31 13 6
f 31 27 39
f 26 18 31
f 31 3 1
f 1 2 31
f 31 15 19
f 19 27 31
f 39 49 31
f 6 3 31
f 31 49 52
f 10 15 31
f 18 13 31
f 31 2 10
