# generated by collision_forge
v -0.014145 -0.036652 0.003636
v -0.010431 -0.025409 0.004508
v -0.013892 -0.036652 0.003595
v -0.014145 -0.036652 0.012079
v -0.014145 -0.035131 0.003874
v -0.011248 -0.025409 0.004827
v -0.008991 -0.025409 0.004402
v -0.012258 -0.036652 0.003550
v -0.014145 -0.035393 0.011833
v -0.013769 -0.036652 0.012132
v -0.009893 -0.025409 0.011294
v -0.014145 -0.033607 0.004373
v -0.011867 -0.025409 0.005644
v -0.008949 -0.025409 0.004411
v -0.008990 -0.036652 0.003643
v -0.009115 -0.036652 0.003633
v -0.010624 -0.036652 0.003538
v -0.010746 -0.036652 0.003537
v -0.014145 -0.033985 0.011435
v -0.009301 -0.025409 0.011294
v -0.009930 -0.025409 0.011272
v -0.012135 -0.036652 0.012258
v -0.010624 -0.036652 0.012297
v -0.014145 -0.033230 0.004654
v -0.012317 -0.025409 0.007169
v -0.014145 -0.032423 0.005274
v -0.008007 -0.025409 0.004611
v -0.007294 -0.036652 0.004203
v -0.014145 -0.033843 0.011380
v -0.010710 -0.025409 0.010750
v -0.008521 -0.025409 0.011225
v -0.008990 -0.036652 0.012145
v -0.012119 -0.025409 0.008803
v -0.014145 -0.032093 0.005685
v -0.014145 -0.031416 0.007169
v -0.014145 -0.031618 0.008804
v -0.007062 -0.025409 0.005626
v -0.006471 -0.036652 0.004669
v -0.007252 -0.036652 0.004218
v -0.014145 -0.033112 0.010823
v -0.011669 -0.025409 0.009933
v -0.008484 -0.025409 0.011218
v -0.007275 -0.036652 0.011612
v -0.011692 -0.025409 0.009878
v -0.014145 -0.032312 0.010051
v -0.014145 -0.032509 0.010302
v -0.006986 -0.025409 0.005717
v -0.005837 -0.036652 0.005489
v -0.007159 -0.036652 0.011548
v -0.006637 -0.036169 0.011162
v -0.006415 -0.025409 0.006937
v -0.006545 -0.026102 0.006406
v -0.005780 -0.036652 0.005568
v -0.007262 -0.025409 0.010265
v -0.006112 -0.036652 0.010638
v -0.006398 -0.025409 0.007043
v -0.005265 -0.036652 0.007169
v -0.006587 -0.025409 0.009401
v -0.006035 -0.036652 0.010519
v -0.006446 -0.025409 0.008725
v -0.005336 -0.036652 0.008545
v -0.005349 -0.036652 0.008774
f 53 51 57
f 54 55 58
f 28 27 39
f 15 27 28
f 39 27 38
f 50 55 54
f 1 2 3
f 7 3 2
f 25 13 26
f 52 47 51
f 51 53 52
f 53 47 52
f 48 47 53
f 38 47 48
f 37 38 27
f 37 47 38
f 55 50 49
f 59 58 55
f 59 62 58
f 58 62 60
f 8 7 18
f 3 7 8
f 18 7 17
f 14 27 15
f 15 7 14
f 25 35 36
f 34 35 25
f 25 26 34
f 13 6 12
f 11 9 4
f 4 10 11
f 19 9 11
f 11 21 19
f 11 10 22
f 11 22 23
f 23 20 11
f 57 60 61
f 61 60 62
f 57 51 56
f 56 60 57
f 16 7 15
f 16 17 7
f 33 36 45
f 25 36 33
f 46 33 45
f 30 41 29
f 29 19 30
f 19 21 30
f 24 26 13
f 13 12 24
f 5 12 6
f 5 6 2
f 5 2 1
f 23 32 31
f 31 20 23
f 29 41 40
f 41 46 40
f 44 46 41
f 33 46 44
f 42 32 43
f 42 31 32
f 43 49 42
f 42 49 50
f 42 50 54
f 39 38 16
f 57 61 16
f 16 4 1
f 16 53 57
f 23 22 16
f 16 32 23
f 16 28 39
f 16 48 53
f 16 8 18
f 1 3 16
f 15 28 16
f 16 10 4
f 55 49 16
f 16 59 55
f 22 10 16
f 38 48 16
f 16 49 43
f 62 59 16
f 3 8 16
f 18 17 16
f 43 32 16
f 16 61 62
f 1 4 40
f 40 19 29
f 35 34 40
f 26 24 40
f 4 9 40
f 40 36 35
f 40 9 19
f 45 36 40
f 40 34 26
f 40 5 1
f 40 46 45
f 40 24 12
f 12 5 40
f 51 47 42
f 54 58 42
f 42 7 2
f 2 6 42
f 42 37 27
f 42 13 25
f 27 14 42
f 42 30 21
f 21 11 42
f 42 6 13
f 42 56 51
f 47 37 42
f 58 60 42
f 42 14 7
f 25 33 42
f 42 11 20
f 60 56 42
f 42 44 41
f 41 30 42
f 20 31 42
f 33 44 42
