# generated by collision_forge
v 0.002655 -0.056815 0.008803
v 0.002732 -0.056815 0.007169
v 0.003114 -0.057599 0.010017
v 0.003353 -0.056989 0.011106
v 0.003362 -0.058633 0.008803
v 0.004069 -0.056815 0.011810
v 0.004901 -0.060484 0.011258
v 0.004799 -0.060669 0.006135
v 0.003427 -0.058505 0.007169
v 0.004752 -0.060749 0.010437
v 0.005722 -0.058027 0.012321
v 0.005722 -0.056815 0.012364
v 0.006086 -0.062682 0.010437
v 0.006361 -0.062342 0.011398
v 0.003460 -0.056815 0.004995
v 0.004783 -0.059047 0.004617
v 0.006230 -0.062469 0.005876
v 0.005189 -0.061687 0.007169
v 0.004602 -0.060994 0.008803
v 0.007355 -0.061296 0.012242
v 0.007205 -0.056815 0.011784
v 0.008989 -0.061296 0.012382
v 0.012391 -0.062930 0.012233
v 0.012391 -0.061552 0.011698
v 0.006580 -0.063697 0.008803
v 0.008146 -0.065407 0.009682
v 0.012326 -0.069463 0.010786
v 0.006600 -0.062034 0.004786
v 0.011849 -0.069463 0.007028
v 0.006694 -0.063567 0.007169
v 0.012391 -0.068321 0.011574
v 0.008989 -0.062929 0.012246
v 0.007973 -0.056815 0.010762
v 0.012391 -0.064562 0.012229
v 0.011591 -0.069463 0.008803
v 0.012077 -0.069463 0.010486
v 0.012391 -0.069414 0.010893
v 0.004528 -0.056815 0.004193
v 0.005722 -0.058027 0.003919
v 0.007229 -0.061412 0.004204
v 0.008210 -0.063712 0.004750
v 0.012391 -0.069341 0.005951
v 0.012391 -0.069463 0.006143
v 0.012391 -0.067866 0.011678
v 0.008128 -0.056815 0.010181
v 0.012391 -0.066197 0.012035
v 0.012391 -0.060760 0.010409
v 0.005722 -0.056815 0.003823
v 0.008989 -0.061296 0.003758
v 0.008849 -0.063073 0.004192
v 0.012391 -0.068967 0.005698
v 0.008390 -0.056815 0.008803
v 0.012391 -0.062930 0.003789
v 0.008490 -0.056815 0.007298
v 0.012391 -0.060165 0.007130
v 0.012391 -0.061613 0.004236
v 0.012391 -0.063063 0.003789
v 0.012391 -0.064695 0.003907
v 0.012391 -0.066697 0.004448
v 0.007545 -0.056815 0.004555
v 0.008198 -0.056815 0.005477
v 0.012391 -0.060762 0.005048
f 1 2 5
f 5 3 1
f 17 42 29
f 4 6 1
f 1 3 4
f 43 29 42
f 37 14 27
f 27 43 37
f 28 42 17
f 17 8 28
f 28 8 16
f 3 5 10
f 27 14 36
f 36 14 13
f 32 44 46
f 46 34 32
f 22 34 23
f 23 12 22
f 32 34 22
f 22 20 32
f 11 12 6
f 11 22 12
f 20 22 11
f 31 20 14
f 14 37 31
f 31 44 32
f 32 20 31
f 9 5 2
f 42 28 41
f 15 38 16
f 15 9 2
f 16 8 15
f 8 9 15
f 16 38 39
f 6 4 7
f 13 14 7
f 7 10 13
f 7 4 3
f 3 10 7
f 14 20 7
f 7 11 6
f 20 11 7
f 52 55 54
f 54 55 61
f 17 29 30
f 35 30 29
f 25 30 35
f 5 9 19
f 19 10 5
f 13 10 19
f 19 25 13
f 42 41 51
f 51 41 59
f 59 41 50
f 58 59 50
f 49 58 50
f 33 47 45
f 45 47 55
f 55 52 45
f 24 21 12
f 24 12 23
f 33 21 24
f 24 47 33
f 57 58 49
f 49 53 57
f 62 61 55
f 48 39 38
f 56 53 48
f 49 39 48
f 48 53 49
f 18 8 17
f 17 30 18
f 18 9 8
f 18 19 9
f 18 30 25
f 25 19 18
f 26 35 36
f 26 36 13
f 13 25 26
f 25 35 26
f 40 41 28
f 40 50 41
f 40 28 16
f 16 39 40
f 40 39 49
f 49 50 40
f 56 48 60
f 60 62 56
f 61 62 60
f 29 43 35
f 35 43 27
f 27 36 35
f 44 31 62
f 62 59 58
f 23 34 62
f 62 46 44
f 62 24 23
f 42 51 62
f 62 43 42
f 62 37 43
f 58 57 62
f 34 46 62
f 62 31 37
f 55 47 62
f 62 53 56
f 62 51 59
f 47 24 62
f 62 57 53
f 60 2 1
f 1 6 60
f 6 12 60
f 60 15 2
f 12 21 60
f 60 52 54
f 38 15 60
f 54 61 60
f 60 21 33
f 33 45 60
f 60 45 52
f 60 48 38
