# generated by collision_forge
v -0.001343 -0.008996 0.010167
v -0.001343 -0.008700 0.011154
v -0.001343 -0.008994 0.010148
v 0.005933 -0.025409 0.007170
v 0.005947 -0.025409 0.008802
v -0.001343 -0.008417 0.011387
v 0.006328 -0.025409 0.009988
v -0.001343 -0.008847 0.008965
v 0.005944 -0.025409 0.007126
v -0.001343 -0.008446 0.007170
v -0.001343 -0.007900 0.005536
v -0.001343 -0.007334 0.004394
v -0.001343 -0.007322 0.011874
v 0.007041 -0.025409 0.010804
v 0.006313 -0.025409 0.006030
v -0.001343 -0.005723 0.003897
v 0.007210 -0.025409 0.005179
v 0.007173 -0.025409 0.005213
v 0.006345 -0.025409 0.005993
v -0.001343 -0.005723 0.012270
v 0.007858 -0.025409 0.011401
v -0.001343 -0.005335 0.003833
v 0.007990 -0.025409 0.004634
v -0.001343 -0.005335 0.012279
v 0.005720 -0.017163 0.012337
v 0.008989 -0.025409 0.011440
v -0.001203 -0.005335 0.003820
v 0.007354 -0.018796 0.004045
v -0.000815 -0.005335 0.012367
v 0.007354 -0.018796 0.012337
v 0.005720 -0.015528 0.012440
v 0.009872 -0.025409 0.011294
v 0.008817 -0.018796 0.004374
v 0.009940 -0.025409 0.004648
v 0.000818 -0.005335 0.003686
v 0.003698 -0.005335 0.003796
v 0.004087 -0.005335 0.003822
v 0.007354 -0.017163 0.012328
v 0.004087 -0.007357 0.012472
v 0.010785 -0.025409 0.010339
v 0.009900 -0.020429 0.011363
v 0.005657 -0.005335 0.004300
v 0.009635 -0.018796 0.004955
v 0.002454 -0.005335 0.012448
v 0.009086 -0.018849 0.011720
v 0.005720 -0.005335 0.012060
v 0.004087 -0.005335 0.012447
v 0.009852 -0.019433 0.011316
v 0.006476 -0.005335 0.004800
v 0.011505 -0.025409 0.006295
v 0.006707 -0.005335 0.011466
v 0.011614 -0.025409 0.008841
v 0.010059 -0.018849 0.010468
v 0.006774 -0.005335 0.005423
v 0.009926 -0.017653 0.006051
v 0.011702 -0.025409 0.007136
v 0.007066 -0.005335 0.010438
v 0.010435 -0.018796 0.008802
v 0.010408 -0.018796 0.007170
v 0.007141 -0.005335 0.006806
v 0.007214 -0.005335 0.007170
v 0.007253 -0.005335 0.008803
f 39 44 29
f 30 25 21
f 50 55 56
f 43 55 50
f 47 44 39
f 1 5 2
f 5 7 2
f 2 7 6
f 1 3 4
f 4 5 1
f 4 3 8
f 8 10 4
f 21 25 20
f 25 29 20
f 25 30 31
f 39 29 31
f 31 29 25
f 38 31 30
f 38 47 39
f 39 31 38
f 49 55 43
f 12 23 17
f 56 55 59
f 6 7 14
f 12 4 11
f 11 4 10
f 15 12 19
f 21 20 13
f 13 14 21
f 6 14 13
f 22 28 23
f 26 30 21
f 26 32 30
f 41 32 40
f 47 38 46
f 60 55 54
f 55 49 54
f 19 12 18
f 12 17 18
f 42 49 33
f 33 49 43
f 33 37 42
f 28 37 33
f 56 59 58
f 58 59 62
f 61 55 60
f 61 59 55
f 62 59 61
f 9 4 12
f 12 15 9
f 24 20 29
f 16 23 12
f 16 22 23
f 35 28 27
f 28 22 27
f 30 32 45
f 32 41 45
f 45 38 30
f 45 41 48
f 45 46 38
f 51 46 45
f 48 51 45
f 36 28 35
f 36 37 28
f 23 28 34
f 28 33 34
f 43 50 34
f 34 33 43
f 56 58 52
f 48 41 52
f 52 41 40
f 57 58 62
f 53 57 51
f 53 51 48
f 58 57 53
f 48 52 53
f 53 52 58
f 16 10 8
f 16 3 1
f 1 2 16
f 8 3 16
f 12 11 16
f 16 2 6
f 6 13 16
f 16 11 10
f 16 13 20
f 16 24 22
f 20 24 16
f 52 34 50
f 52 15 19
f 21 14 52
f 52 26 21
f 52 50 56
f 4 9 52
f 52 7 5
f 5 4 52
f 40 32 52
f 52 17 23
f 52 14 7
f 19 18 52
f 32 26 52
f 52 18 17
f 52 9 15
f 23 34 52
f 57 46 51
f 60 54 57
f 44 47 57
f 57 29 44
f 35 27 57
f 57 24 29
f 57 36 35
f 57 49 42
f 57 61 60
f 47 46 57
f 57 54 49
f 42 37 57
f 62 61 57
f 22 24 57
f 57 27 22
f 37 36 57
