# generated by collision_forge
v 0.010624 -0.030378 0.004257
v 0.009941 -0.025409 0.004647
v 0.010779 -0.030378 0.004285
v 0.009129 -0.030378 0.004273
v 0.008990 -0.026970 0.004444
v 0.008990 -0.025409 0.004564
v 0.009978 -0.025409 0.004671
v 0.011963 -0.030378 0.004593
v 0.011842 -0.030378 0.004538
v 0.008990 -0.030378 0.004285
v 0.008037 -0.025409 0.004627
v 0.010876 -0.025409 0.005548
v 0.012744 -0.030378 0.005153
v 0.012661 -0.030378 0.005084
v 0.008052 -0.030378 0.004539
v 0.007968 -0.028604 0.004583
v 0.007979 -0.026970 0.004605
v 0.007992 -0.025409 0.004635
v 0.010944 -0.025409 0.005623
v 0.013495 -0.030378 0.005894
v 0.007959 -0.030378 0.004570
v 0.007211 -0.025409 0.005178
v 0.011083 -0.025409 0.005780
v 0.013609 -0.030378 0.006132
v 0.011506 -0.025409 0.006295
v 0.007088 -0.030378 0.005612
v 0.006315 -0.025409 0.006030
v 0.006347 -0.025409 0.005993
v 0.014003 -0.030378 0.007170
v 0.011702 -0.025409 0.007136
v 0.007024 -0.030378 0.005689
v 0.005946 -0.025409 0.007125
v 0.006538 -0.030378 0.006361
v 0.013994 -0.030378 0.007405
v 0.011637 -0.025409 0.008769
v 0.005934 -0.025409 0.007170
v 0.006424 -0.030378 0.007019
v 0.013905 -0.030378 0.008911
v 0.011615 -0.025409 0.008841
v 0.005948 -0.025409 0.008804
v 0.006401 -0.030378 0.008504
v 0.006401 -0.030378 0.008677
v 0.013529 -0.030378 0.009670
v 0.011500 -0.025930 0.009710
v 0.010841 -0.025409 0.010280
v 0.006553 -0.030378 0.009423
v 0.006570 -0.030378 0.009478
v 0.006328 -0.025409 0.009988
v 0.013151 -0.030378 0.010195
v 0.010786 -0.025409 0.010339
v 0.007225 -0.030378 0.010430
v 0.007043 -0.025409 0.010805
v 0.007941 -0.030378 0.011258
v 0.008022 -0.030378 0.011351
v 0.012517 -0.030378 0.010759
v 0.009873 -0.025409 0.011294
v 0.007860 -0.025409 0.011402
v 0.008990 -0.030378 0.011601
v 0.012001 -0.030378 0.011065
v 0.010716 -0.030378 0.011564
v 0.011226 -0.030378 0.011444
v 0.008990 -0.025409 0.011440
f 32 33 36
f 32 27 33
f 33 27 31
f 62 57 58
f 54 57 52
f 58 57 54
f 56 55 49
f 59 55 56
f 56 61 59
f 5 10 11
f 24 25 29
f 24 20 25
f 60 62 58
f 56 62 60
f 60 61 56
f 48 40 47
f 47 51 48
f 48 54 52
f 42 40 36
f 38 39 44
f 35 39 38
f 4 5 1
f 10 5 4
f 9 3 2
f 2 3 1
f 16 10 15
f 16 17 10
f 22 17 16
f 18 17 22
f 11 10 18
f 10 17 18
f 26 31 27
f 54 48 53
f 53 48 51
f 47 40 46
f 40 42 46
f 36 33 37
f 38 44 43
f 43 44 49
f 49 44 45
f 45 44 39
f 34 35 38
f 29 25 30
f 30 34 29
f 35 34 30
f 6 5 11
f 1 5 6
f 6 2 1
f 9 2 8
f 13 14 7
f 14 8 7
f 7 8 2
f 21 16 15
f 22 16 21
f 21 28 22
f 27 28 21
f 21 26 27
f 41 42 36
f 36 37 41
f 56 49 50
f 49 45 50
f 12 20 13
f 13 7 12
f 25 20 23
f 20 12 19
f 19 23 20
f 33 31 41
f 41 14 13
f 47 46 41
f 38 43 41
f 41 24 29
f 1 3 41
f 41 51 47
f 58 54 41
f 41 49 55
f 55 59 41
f 13 20 41
f 15 10 41
f 41 4 1
f 41 60 58
f 41 37 33
f 41 59 61
f 29 34 41
f 20 24 41
f 61 60 41
f 9 8 41
f 54 53 41
f 41 3 9
f 10 4 41
f 31 26 41
f 41 53 51
f 41 46 42
f 41 21 15
f 41 43 49
f 41 34 38
f 41 8 14
f 26 21 41
f 19 62 56
f 36 40 19
f 19 30 25
f 56 50 19
f 19 32 36
f 52 57 19
f 27 32 19
f 11 18 19
f 57 62 19
f 19 28 27
f 19 48 52
f 22 28 19
f 40 48 19
f 39 35 19
f 19 6 11
f 19 18 22
f 19 45 39
f 35 30 19
f 2 6 19
f 19 7 2
f 19 50 45
f 19 12 7
f 25 23 19
