# generated by collision_forge
v 0.008497 -0.056814 0.007169
v 0.008198 -0.056814 0.005477
v 0.007059 -0.049560 0.006877
v 0.007102 -0.049560 0.007170
v 0.007053 -0.049560 0.008510
v 0.007042 -0.049560 0.008803
v 0.008490 -0.056814 0.007300
v 0.007546 -0.056814 0.004555
v 0.006203 -0.049560 0.004421
v 0.006660 -0.049560 0.005070
v 0.008390 -0.056814 0.008802
v 0.006748 -0.049560 0.010486
v 0.007191 -0.056814 0.004229
v 0.005834 -0.049560 0.004124
v 0.008129 -0.056814 0.010181
v 0.006548 -0.049560 0.011253
v 0.006201 -0.056814 0.003883
v 0.004087 -0.049560 0.003655
v 0.007973 -0.056814 0.010761
v 0.006188 -0.049560 0.011633
v 0.007205 -0.056814 0.011784
v 0.005721 -0.056814 0.003824
v 0.002866 -0.049560 0.004305
v 0.005990 -0.049560 0.011837
v 0.005832 -0.049560 0.011963
v 0.005721 -0.056390 0.012379
v 0.005721 -0.056814 0.012364
v 0.004527 -0.056814 0.004194
v 0.004087 -0.053122 0.003778
v 0.002880 -0.051488 0.004343
v 0.000950 -0.050027 0.005741
v 0.000950 -0.049560 0.005810
v 0.004379 -0.049560 0.012486
v 0.004087 -0.049854 0.012537
v 0.004087 -0.051488 0.012521
v 0.004087 -0.053122 0.012426
v 0.004087 -0.054757 0.012247
v 0.004068 -0.056814 0.011809
v 0.003115 -0.054757 0.004550
v 0.000950 -0.051488 0.005794
v 0.000950 -0.049560 0.010098
v 0.004087 -0.049560 0.012514
v 0.003051 -0.049560 0.011886
v 0.002819 -0.051488 0.011773
v 0.002878 -0.053122 0.011702
v 0.003012 -0.054757 0.011547
v 0.003163 -0.055898 0.011372
v 0.003545 -0.056814 0.011333
v 0.003459 -0.056814 0.004996
v 0.000950 -0.052719 0.006095
v 0.000949 -0.053631 0.006845
v 0.000950 -0.049854 0.010167
v 0.002843 -0.049560 0.011748
v 0.000950 -0.051573 0.010149
v 0.000950 -0.053122 0.009635
v 0.003217 -0.056814 0.010921
v 0.003083 -0.056814 0.005801
v 0.000949 -0.054153 0.008717
v 0.002979 -0.056814 0.010347
v 0.000949 -0.054274 0.007763
v 0.002731 -0.056814 0.007169
v 0.002656 -0.056814 0.008802
f 51 41 32
f 2 3 1
f 45 44 54
f 55 47 54
f 1 3 4
f 12 11 6
f 1 6 7
f 6 11 7
f 16 21 19
f 29 18 22
f 50 49 51
f 39 49 50
f 9 2 8
f 14 9 13
f 13 9 8
f 55 54 58
f 58 41 51
f 56 47 55
f 55 58 56
f 56 58 59
f 45 54 46
f 46 54 47
f 46 47 38
f 5 6 1
f 1 4 5
f 36 44 45
f 15 12 16
f 16 19 15
f 11 12 15
f 33 42 34
f 26 27 21
f 21 25 26
f 25 33 26
f 26 33 34
f 24 25 21
f 18 29 30
f 30 29 39
f 28 49 39
f 28 29 22
f 39 29 28
f 51 49 57
f 3 2 10
f 2 9 10
f 14 13 17
f 18 14 17
f 22 18 17
f 59 58 62
f 41 58 52
f 52 58 54
f 52 53 41
f 52 54 44
f 44 53 52
f 34 42 43
f 43 44 34
f 43 53 44
f 38 47 48
f 47 56 48
f 38 27 37
f 27 36 37
f 37 46 38
f 45 46 37
f 37 36 45
f 34 44 35
f 44 36 35
f 35 26 34
f 35 36 27
f 27 26 35
f 20 21 16
f 20 24 21
f 18 30 23
f 40 50 51
f 39 50 40
f 40 30 39
f 61 62 60
f 60 62 58
f 60 58 51
f 60 57 61
f 51 57 60
f 32 23 31
f 51 32 31
f 31 40 51
f 31 23 30
f 30 40 31
f 1 7 48
f 48 2 1
f 11 15 48
f 48 62 61
f 61 57 48
f 48 27 38
f 8 2 48
f 22 17 48
f 48 7 11
f 21 27 48
f 48 19 21
f 48 28 22
f 48 13 8
f 48 56 59
f 48 15 19
f 49 28 48
f 48 57 49
f 48 17 13
f 59 62 48
f 42 33 23
f 23 32 41
f 23 43 42
f 23 4 3
f 16 12 23
f 23 20 16
f 23 14 18
f 41 53 23
f 23 12 6
f 6 5 23
f 23 9 14
f 3 10 23
f 23 5 4
f 23 33 25
f 25 24 23
f 23 10 9
f 53 43 23
f 24 20 23
