# generated by collision_forge
v 0.016640 -0.038411 0.012287
v 0.016640 -0.039720 0.011714
v 0.021130 -0.041293 0.011500
v 0.021130 -0.040045 0.011917
v 0.018797 -0.038411 0.012176
v 0.016640 -0.036777 0.012232
v 0.016640 -0.040433 0.010438
v 0.021130 -0.041908 0.010438
v 0.021130 -0.038350 0.011919
v 0.020432 -0.038411 0.012057
v 0.017163 -0.036777 0.012178
v 0.016640 -0.035138 0.011658
v 0.016640 -0.040704 0.008803
v 0.021130 -0.042225 0.008803
v 0.021130 -0.042042 0.009777
v 0.021130 -0.037038 0.011499
v 0.018797 -0.036777 0.011904
v 0.016640 -0.034584 0.011383
v 0.016640 -0.040609 0.007170
v 0.021130 -0.042223 0.007170
v 0.021130 -0.036307 0.010875
v 0.020797 -0.036181 0.010974
v 0.019707 -0.035921 0.011282
v 0.021130 -0.041833 0.005514
v 0.016640 -0.040044 0.005535
v 0.021130 -0.036014 0.010438
v 0.018295 -0.034150 0.009902
v 0.016640 -0.033660 0.010471
v 0.021130 -0.041419 0.004875
v 0.016640 -0.039426 0.004528
v 0.021130 -0.035774 0.010048
v 0.016640 -0.032921 0.009087
v 0.021130 -0.041170 0.004518
v 0.016640 -0.039123 0.004353
v 0.021130 -0.035529 0.008803
v 0.016640 -0.032847 0.008467
v 0.021130 -0.040782 0.004304
v 0.016640 -0.038411 0.003988
v 0.021130 -0.035567 0.007170
v 0.016640 -0.032842 0.007138
v 0.021130 -0.040101 0.004105
v 0.016640 -0.037889 0.003859
v 0.018797 -0.038411 0.003835
v 0.021130 -0.035667 0.006463
v 0.016640 -0.032904 0.006830
v 0.021130 -0.039109 0.003885
v 0.016640 -0.036777 0.003712
v 0.021130 -0.035812 0.006035
v 0.016640 -0.033187 0.006135
v 0.020432 -0.038411 0.003864
v 0.016640 -0.036255 0.003805
v 0.020735 -0.036252 0.005091
v 0.016640 -0.033588 0.005490
v 0.018797 -0.036777 0.004004
v 0.021130 -0.037469 0.004319
v 0.016640 -0.035120 0.004212
v 0.021130 -0.036712 0.004851
v 0.019646 -0.035942 0.004703
v 0.016640 -0.034271 0.004688
v 0.016640 -0.034765 0.004368
v 0.021130 -0.037126 0.004470
v 0.016640 -0.034436 0.004573
f 1 3 4
f 2 3 1
f 61 54 60
f 60 54 56
f 10 4 9
f 18 16 23
f 23 28 18
f 9 16 17
f 17 10 9
f 13 14 7
f 19 24 20
f 20 13 19
f 14 13 20
f 8 2 7
f 3 2 8
f 25 24 19
f 25 30 24
f 53 58 59
f 52 58 53
f 53 48 52
f 49 48 53
f 52 48 57
f 61 58 57
f 57 58 52
f 45 48 49
f 56 54 51
f 61 60 62
f 62 58 61
f 59 58 62
f 5 6 1
f 5 10 6
f 1 4 5
f 4 10 5
f 32 28 27
f 27 31 32
f 40 36 35
f 35 39 40
f 35 36 32
f 32 31 35
f 28 23 22
f 22 27 28
f 22 16 21
f 22 23 16
f 6 10 11
f 10 17 11
f 7 14 15
f 15 8 7
f 24 30 29
f 30 33 29
f 34 33 30
f 48 45 44
f 44 45 40
f 40 39 44
f 50 51 54
f 47 51 50
f 50 46 47
f 47 46 43
f 43 46 41
f 41 38 43
f 26 22 21
f 31 27 26
f 27 22 26
f 6 11 12
f 12 11 17
f 12 16 18
f 12 17 16
f 37 34 38
f 33 34 37
f 37 38 41
f 46 50 55
f 55 54 61
f 55 50 54
f 47 43 42
f 42 43 38
f 21 16 55
f 61 57 55
f 55 4 3
f 55 15 14
f 55 20 24
f 9 4 55
f 55 16 9
f 55 44 39
f 3 8 55
f 24 29 55
f 55 37 41
f 14 20 55
f 39 35 55
f 55 26 21
f 55 57 48
f 41 46 55
f 55 35 31
f 8 15 55
f 55 29 33
f 48 44 55
f 31 26 55
f 33 37 55
f 18 28 42
f 42 25 19
f 42 2 1
f 1 6 42
f 40 45 42
f 42 36 40
f 42 53 59
f 42 51 47
f 42 34 30
f 7 2 42
f 19 13 42
f 42 12 18
f 42 60 56
f 42 28 32
f 32 36 42
f 42 13 7
f 30 25 42
f 59 62 42
f 49 53 42
f 42 45 49
f 56 51 42
f 42 62 60
f 38 34 42
f 6 12 42
