# generated by collision_forge
v 0.026970 -0.053252 0.003910
v 0.025252 -0.045240 0.004239
v 0.028604 -0.051488 0.004104
v 0.025685 -0.053252 0.004342
v 0.024452 -0.045240 0.004710
v 0.026970 -0.049853 0.003828
v 0.028604 -0.049853 0.004092
v 0.029572 -0.051488 0.004579
v 0.028784 -0.053252 0.004352
v 0.025034 -0.053252 0.005535
v 0.026970 -0.045240 0.003958
v 0.026970 -0.046585 0.003870
v 0.024073 -0.045240 0.005449
v 0.027238 -0.045240 0.004033
v 0.030209 -0.049853 0.005535
v 0.030225 -0.051488 0.005535
v 0.024878 -0.053252 0.007169
v 0.023750 -0.045240 0.007169
v 0.023786 -0.045240 0.006876
v 0.024053 -0.045240 0.005530
v 0.029395 -0.047547 0.004742
v 0.029812 -0.046585 0.005690
v 0.030618 -0.048219 0.007169
v 0.030783 -0.049853 0.007169
v 0.030771 -0.051488 0.007169
v 0.030591 -0.053122 0.007169
v 0.029911 -0.053252 0.005394
v 0.024963 -0.053252 0.008603
v 0.023835 -0.045240 0.008803
v 0.023815 -0.045240 0.008458
v 0.028407 -0.045240 0.004502
v 0.030367 -0.046585 0.008803
v 0.030703 -0.048219 0.008803
v 0.030857 -0.049853 0.008803
v 0.030657 -0.053122 0.008803
v 0.024976 -0.053252 0.008803
v 0.024117 -0.045240 0.010344
v 0.029603 -0.045240 0.006012
v 0.029822 -0.045240 0.007175
v 0.029690 -0.045240 0.010095
v 0.030166 -0.048219 0.010437
v 0.030320 -0.049853 0.010437
v 0.030300 -0.051488 0.010437
v 0.030593 -0.053252 0.008924
v 0.025276 -0.053252 0.010441
v 0.024244 -0.045240 0.010645
v 0.029445 -0.047329 0.011270
v 0.029594 -0.049853 0.011353
v 0.029587 -0.051488 0.011349
v 0.029973 -0.053252 0.010594
v 0.025781 -0.053252 0.011406
v 0.025843 -0.053252 0.011491
v 0.025046 -0.045240 0.011423
v 0.028274 -0.045240 0.011483
v 0.028604 -0.048219 0.011651
v 0.028604 -0.051488 0.011708
v 0.026864 -0.053252 0.011813
v 0.025303 -0.045240 0.011626
v 0.026970 -0.045240 0.011808
v 0.026970 -0.046585 0.011884
v 0.026970 -0.053252 0.011837
v 0.028756 -0.053252 0.011565
f 19 10 18
f 5 10 13
f 18 10 17
f 13 10 20
f 10 19 20
f 10 5 4
f 4 5 2
f 4 2 1
f 24 33 34
f 44 26 35
f 27 26 44
f 43 35 34
f 44 35 43
f 45 37 36
f 45 46 37
f 36 37 29
f 40 33 32
f 25 24 34
f 34 35 25
f 25 35 26
f 8 27 9
f 1 3 9
f 9 3 8
f 41 33 40
f 34 33 41
f 44 43 50
f 50 43 49
f 49 62 50
f 52 58 53
f 53 46 52
f 52 46 51
f 46 45 51
f 36 29 28
f 28 29 17
f 18 17 30
f 17 29 30
f 6 3 1
f 1 2 6
f 2 12 6
f 11 12 2
f 15 8 21
f 21 22 15
f 21 31 38
f 38 22 21
f 40 32 39
f 26 27 16
f 16 25 26
f 16 8 15
f 16 27 8
f 15 24 16
f 24 25 16
f 49 43 42
f 42 43 34
f 34 41 42
f 40 54 47
f 47 41 40
f 47 42 41
f 57 58 52
f 57 61 58
f 58 61 60
f 12 11 7
f 7 6 12
f 3 6 7
f 31 21 7
f 8 3 7
f 7 21 8
f 38 39 23
f 23 22 38
f 23 39 32
f 23 24 15
f 15 22 23
f 33 24 23
f 23 32 33
f 49 42 48
f 42 47 48
f 58 60 59
f 56 61 62
f 56 60 61
f 56 62 49
f 49 48 56
f 31 7 14
f 14 7 11
f 55 48 47
f 55 56 48
f 55 47 54
f 60 56 55
f 54 59 55
f 55 59 60
f 57 4 1
f 57 17 10
f 44 50 57
f 1 9 57
f 52 51 57
f 10 4 57
f 57 27 44
f 36 28 57
f 57 45 36
f 57 9 27
f 62 61 57
f 57 50 62
f 57 51 45
f 57 28 17
f 18 30 14
f 2 5 14
f 14 19 18
f 13 20 14
f 14 53 58
f 14 5 13
f 14 54 40
f 14 11 2
f 14 20 19
f 40 39 14
f 37 46 14
f 14 29 37
f 38 31 14
f 46 53 14
f 14 30 29
f 58 59 14
f 14 39 38
f 14 59 54
