# generated by collision_forge
v 0.000817 0.016945 0.003610
v 0.002452 0.022066 0.004173
v 0.004085 0.022066 0.004249
v 0.004085 0.016945 0.003947
v -0.000471 0.016945 0.003618
v 0.005327 0.022066 0.004515
v 0.005467 0.017163 0.004369
v -0.004085 0.022066 0.004176
v -0.000817 0.025397 0.004581
v 0.001907 0.025397 0.004693
v 0.003948 0.025397 0.004864
v 0.006741 0.025397 0.006029
v 0.006286 0.016945 0.005219
v -0.003883 0.016945 0.003907
v -0.005507 0.025397 0.004679
v 0.007069 0.025335 0.007170
v 0.006741 0.025335 0.006027
v 0.006635 0.016945 0.006036
v -0.005502 0.016945 0.004223
v -0.006544 0.024578 0.004713
v 0.007158 0.023700 0.008803
v 0.006887 0.016945 0.007170
v -0.007002 0.025397 0.005431
v 0.007174 0.025397 0.008803
v 0.006822 0.016945 0.010438
v 0.006996 0.016945 0.009021
v -0.006504 0.016945 0.004581
v -0.007074 0.025397 0.005594
v 0.006859 0.025397 0.010156
v 0.006606 0.022066 0.011343
v -0.006626 0.016945 0.004629
v -0.007060 0.016945 0.005535
v -0.007745 0.025397 0.007170
v 0.005720 0.022066 0.011779
v 0.006475 0.016945 0.011385
v 0.005701 0.025397 0.011068
v -0.007446 0.016945 0.006952
v -0.007743 0.025335 0.007170
v 0.004085 0.022066 0.012129
v 0.005502 0.016945 0.011858
v -0.007620 0.016945 0.008803
v -0.007858 0.025397 0.008803
v 0.004085 0.023700 0.011763
v 0.000952 0.016945 0.012762
v 0.004085 0.025397 0.011313
v -0.007431 0.016945 0.010220
v -0.007402 0.016945 0.010438
v -0.007453 0.022066 0.010438
v -0.007103 0.025397 0.010547
v 0.000817 0.022066 0.012133
v -0.000839 0.016945 0.012752
v -0.004085 0.022066 0.012130
v -0.006925 0.016945 0.011404
v -0.006852 0.016945 0.011551
v -0.006853 0.017163 0.011552
v -0.006871 0.022066 0.011558
v -0.004085 0.023700 0.011766
v -0.005720 0.022066 0.011995
v -0.005720 0.020432 0.012012
v -0.005720 0.016945 0.011998
v -0.005720 0.025397 0.011253
v -0.003594 0.025397 0.011315
f 6 12 7
f 48 49 42
f 56 49 48
f 23 20 31
f 16 12 24
f 2 3 1
f 11 12 6
f 6 3 11
f 61 49 56
f 47 48 42
f 44 39 50
f 50 52 44
f 20 23 15
f 20 14 19
f 21 16 24
f 10 11 3
f 10 2 9
f 3 2 10
f 7 13 4
f 1 3 4
f 4 3 6
f 6 7 4
f 17 7 12
f 17 13 7
f 12 16 17
f 22 21 26
f 16 21 22
f 40 39 44
f 62 61 57
f 52 50 57
f 57 45 62
f 58 61 56
f 52 57 58
f 58 57 61
f 53 54 48
f 48 47 53
f 42 41 46
f 46 47 42
f 54 60 55
f 56 48 55
f 48 54 55
f 8 15 9
f 8 14 20
f 20 15 8
f 8 2 1
f 9 2 8
f 38 37 41
f 42 33 38
f 38 41 42
f 31 20 27
f 20 19 27
f 25 21 24
f 26 21 25
f 18 17 16
f 16 22 18
f 13 17 18
f 34 40 35
f 39 40 34
f 36 39 34
f 45 57 43
f 36 45 43
f 43 39 36
f 43 50 39
f 43 57 50
f 44 52 51
f 52 58 51
f 5 8 1
f 14 8 5
f 37 38 32
f 32 38 33
f 33 28 32
f 32 28 23
f 32 23 31
f 24 29 30
f 30 25 24
f 35 25 30
f 30 34 35
f 30 29 36
f 36 34 30
f 60 51 59
f 59 51 58
f 59 58 56
f 56 55 59
f 59 55 60
f 24 12 28
f 42 49 28
f 28 29 24
f 28 33 42
f 9 15 28
f 36 29 28
f 62 45 28
f 28 61 62
f 12 11 28
f 28 45 36
f 49 61 28
f 28 15 23
f 28 10 9
f 11 10 28
f 41 37 32
f 44 51 32
f 32 46 41
f 54 53 32
f 32 5 1
f 32 22 26
f 13 18 32
f 1 4 32
f 31 27 32
f 32 40 44
f 32 60 54
f 32 19 14
f 32 4 13
f 26 25 32
f 35 40 32
f 32 53 47
f 47 46 32
f 32 27 19
f 32 25 35
f 32 18 22
f 32 51 60
f 14 5 32
