# generated by collision_forge
v -0.030406 -0.056431 0.008803
v -0.029918 -0.056431 0.010280
v -0.029514 -0.059058 0.009776
v -0.029697 -0.058026 0.010017
v -0.029230 -0.056431 0.011078
v -0.030318 -0.056431 0.007141
v -0.029449 -0.058906 0.006293
v -0.029176 -0.059963 0.008803
v -0.027786 -0.062112 0.009620
v -0.027753 -0.062064 0.006611
v -0.027958 -0.059182 0.011362
v -0.027820 -0.062154 0.007700
v -0.026176 -0.062135 0.011269
v -0.026315 -0.063908 0.008803
v -0.026251 -0.063841 0.009740
v -0.028395 -0.056431 0.011537
v -0.029356 -0.056951 0.004817
v -0.027755 -0.060423 0.004758
v -0.026149 -0.063742 0.006371
v -0.026270 -0.063867 0.007461
v -0.024512 -0.063740 0.011252
v -0.024498 -0.065367 0.008803
v -0.023422 -0.065697 0.010052
v -0.026970 -0.056431 0.011688
v -0.026970 -0.058026 0.011700
v -0.029416 -0.056431 0.004736
v -0.028334 -0.058026 0.004216
v -0.026305 -0.062278 0.004576
v -0.024419 -0.065311 0.007169
v -0.025336 -0.061295 0.011660
v -0.021901 -0.066796 0.008803
v -0.021901 -0.066216 0.010341
v -0.025935 -0.056431 0.011405
v -0.021901 -0.062775 0.011588
v -0.026970 -0.058026 0.003514
v -0.025336 -0.061295 0.003624
v -0.024672 -0.063884 0.004606
v -0.022951 -0.065421 0.004673
v -0.021901 -0.064876 0.011469
v -0.021901 -0.066737 0.006981
v -0.021901 -0.066741 0.007044
v -0.025319 -0.056431 0.010636
v -0.021901 -0.061228 0.010720
v -0.028695 -0.056431 0.004166
v -0.026970 -0.056431 0.003481
v -0.023701 -0.062929 0.003647
v -0.021901 -0.065709 0.004630
v -0.021901 -0.066364 0.005704
v -0.021901 -0.061034 0.010554
v -0.026930 -0.056431 0.003485
v -0.021901 -0.062929 0.003383
v -0.021901 -0.063095 0.003389
v -0.021901 -0.064564 0.003817
v -0.021901 -0.059877 0.008950
v -0.024322 -0.056431 0.008653
v -0.025299 -0.056431 0.004166
v -0.021901 -0.061196 0.003994
v -0.024155 -0.056431 0.007224
v -0.024169 -0.056431 0.007365
v -0.024578 -0.056431 0.005128
v -0.021901 -0.059640 0.007036
v -0.021901 -0.059835 0.005610
f 1 7 8
f 8 7 10
f 6 7 1
f 24 16 25
f 25 34 24
f 24 34 33
f 7 6 17
f 30 34 25
f 38 47 48
f 31 22 41
f 14 22 15
f 14 20 22
f 15 9 14
f 22 20 29
f 40 41 29
f 29 41 22
f 29 48 40
f 38 48 29
f 12 8 10
f 12 9 8
f 12 14 9
f 10 20 12
f 20 14 12
f 8 9 3
f 1 8 3
f 51 45 50
f 50 56 51
f 26 17 6
f 35 45 51
f 46 37 28
f 28 36 46
f 38 37 46
f 34 30 39
f 39 30 21
f 21 32 39
f 25 16 11
f 11 30 25
f 16 5 11
f 11 3 9
f 23 21 15
f 23 32 21
f 15 22 23
f 31 32 23
f 23 22 31
f 33 49 42
f 33 34 43
f 43 49 33
f 38 29 19
f 19 29 20
f 19 37 38
f 19 20 10
f 10 28 19
f 28 37 19
f 52 35 51
f 36 35 52
f 52 46 36
f 45 35 44
f 7 17 18
f 18 36 28
f 10 7 18
f 18 28 10
f 21 30 13
f 30 11 13
f 13 11 9
f 15 21 13
f 13 9 15
f 58 62 60
f 55 42 54
f 54 42 49
f 57 56 60
f 60 62 57
f 51 56 57
f 4 2 1
f 1 3 4
f 5 2 4
f 4 11 5
f 3 11 4
f 53 47 38
f 38 46 53
f 46 52 53
f 26 44 27
f 17 26 27
f 27 18 17
f 27 44 35
f 27 35 36
f 36 18 27
f 55 54 59
f 59 54 58
f 62 58 61
f 58 54 61
f 33 42 59
f 59 24 33
f 45 44 59
f 59 6 1
f 59 50 45
f 16 24 59
f 59 5 16
f 59 26 6
f 60 56 59
f 56 50 59
f 1 2 59
f 59 42 55
f 59 2 5
f 59 44 26
f 59 58 60
f 61 32 31
f 61 48 47
f 61 54 49
f 61 43 34
f 31 41 61
f 34 39 61
f 40 48 61
f 61 41 40
f 61 39 32
f 49 43 61
f 61 52 51
f 51 57 61
f 47 53 61
f 61 57 62
f 61 53 52
