# generated by collision_forge
v 0.000949 -0.049854 0.010166
v 0.000949 -0.051572 0.010149
v 0.000949 -0.048586 0.009886
v -0.002422 -0.047611 0.011946
v -0.002453 -0.048220 0.012059
v -0.002453 -0.049854 0.012121
v 0.000949 -0.052353 0.009891
v -0.002453 -0.051487 0.012082
v -0.002453 -0.053111 0.012032
v -0.002453 -0.054745 0.011922
v -0.001573 -0.054745 0.011303
v 0.000949 -0.047780 0.009301
v -0.001577 -0.047611 0.011312
v -0.004085 -0.047611 0.012446
v 0.000948 -0.053122 0.009635
v 0.000948 -0.054153 0.008716
v -0.004085 -0.054745 0.012247
v -0.004075 -0.054745 0.012246
v 0.000949 -0.047673 0.009219
v 0.000949 -0.047611 0.009151
v -0.005403 -0.047611 0.011741
v 0.000948 -0.054274 0.007764
v -0.000398 -0.054745 0.008818
v -0.005219 -0.054745 0.011636
v 0.000949 -0.047611 0.008981
v -0.005983 -0.047611 0.010437
v -0.000351 -0.054745 0.007235
v 0.000948 -0.054247 0.007568
v 0.000948 -0.053631 0.006845
v 0.000949 -0.052719 0.006094
v -0.005725 -0.054745 0.010437
v 0.000949 -0.048186 0.006135
v 0.000948 -0.047611 0.006702
v -0.006130 -0.047611 0.009544
v -0.000852 -0.054745 0.005724
v -0.001481 -0.054745 0.004537
v -0.006247 -0.047611 0.008803
v -0.005955 -0.054745 0.008803
v 0.000949 -0.049854 0.005740
v -0.001337 -0.047611 0.004382
v -0.002453 -0.054745 0.003965
v -0.001384 -0.053111 0.004443
v 0.000949 -0.051487 0.005794
v -0.006266 -0.047611 0.008117
v -0.006288 -0.047611 0.007170
v -0.005981 -0.054745 0.007181
v -0.001262 -0.049854 0.004334
v -0.001289 -0.048220 0.004334
v -0.001722 -0.047611 0.004123
v -0.004093 -0.054745 0.003805
v -0.002453 -0.053111 0.003839
v -0.006208 -0.047611 0.006528
v -0.002453 -0.049854 0.003673
v -0.002453 -0.048220 0.003626
v -0.004668 -0.047611 0.003793
v -0.004085 -0.047611 0.003517
v -0.003060 -0.047611 0.003551
v -0.005239 -0.054745 0.004385
v -0.006071 -0.047611 0.005535
v -0.005770 -0.054745 0.005536
v -0.005453 -0.047611 0.004252
v -0.005782 -0.047611 0.004885
f 3 4 1
f 5 6 1
f 1 4 5
f 5 4 14
f 14 6 5
f 21 26 24
f 24 17 21
f 21 17 14
f 8 6 14
f 14 17 8
f 1 6 2
f 6 8 2
f 17 18 9
f 9 8 17
f 9 18 10
f 10 2 9
f 9 2 8
f 15 16 7
f 22 30 7
f 7 16 22
f 23 27 22
f 22 16 23
f 29 36 30
f 53 50 57
f 25 32 33
f 31 34 37
f 37 38 31
f 26 34 31
f 24 26 31
f 45 38 44
f 44 38 37
f 46 38 45
f 52 59 60
f 60 46 52
f 52 46 45
f 60 59 62
f 58 62 61
f 60 62 58
f 57 50 56
f 11 23 16
f 11 16 15
f 15 7 11
f 11 7 2
f 11 2 10
f 27 35 28
f 22 27 28
f 28 35 36
f 36 29 28
f 28 30 22
f 28 29 30
f 42 36 41
f 40 33 32
f 32 39 40
f 19 20 13
f 13 12 19
f 3 12 13
f 4 3 13
f 50 58 55
f 55 56 50
f 55 58 61
f 51 42 41
f 41 50 51
f 50 53 51
f 47 51 53
f 42 51 47
f 54 53 57
f 54 47 53
f 42 47 43
f 43 47 39
f 36 42 43
f 30 36 43
f 49 54 57
f 48 49 40
f 48 40 39
f 54 49 48
f 39 47 48
f 47 54 48
f 11 50 41
f 11 35 27
f 11 17 24
f 41 36 11
f 10 18 11
f 11 18 17
f 60 58 11
f 24 31 11
f 11 46 60
f 27 23 11
f 36 35 11
f 11 31 38
f 38 46 11
f 11 58 50
f 1 2 43
f 43 3 1
f 43 32 25
f 43 7 30
f 43 12 3
f 25 20 43
f 2 7 43
f 43 20 19
f 19 12 43
f 43 39 32
f 14 4 49
f 49 21 14
f 25 33 49
f 45 44 49
f 49 20 25
f 49 34 26
f 26 21 49
f 61 62 49
f 37 34 49
f 49 52 45
f 57 56 49
f 49 55 61
f 49 44 37
f 59 52 49
f 49 62 59
f 4 13 49
f 33 40 49
f 49 13 20
f 56 55 49
