# generated by collision_forge
v -0.004087 -0.044950 0.003407
v -0.004531 -0.042872 0.003622
v -0.002452 -0.046584 0.003768
v -0.002452 -0.047611 0.003679
v -0.003060 -0.047611 0.003551
v -0.005720 -0.042872 0.003467
v -0.002819 -0.043315 0.004337
v -0.001416 -0.046584 0.004463
v -0.001337 -0.047611 0.004381
v -0.001721 -0.047611 0.004123
v -0.004087 -0.047611 0.003517
v -0.006163 -0.042872 0.003472
v -0.003156 -0.042872 0.004304
v -0.001729 -0.044388 0.004907
v -0.001545 -0.045477 0.004615
v 0.000947 -0.047611 0.006701
v -0.004668 -0.047611 0.003793
v -0.007916 -0.042872 0.004114
v -0.007414 -0.042872 0.003930
v -0.002246 -0.042872 0.005506
v 0.000949 -0.047138 0.007165
v 0.000949 -0.047611 0.008981
v -0.005453 -0.047611 0.004253
v -0.008477 -0.042872 0.004474
v -0.001840 -0.042872 0.007147
v -0.001834 -0.042872 0.007170
v 0.000949 -0.047611 0.009150
v -0.005782 -0.047611 0.004885
v -0.009415 -0.042872 0.005534
v 0.000949 -0.047027 0.008501
v -0.001988 -0.042872 0.008803
v -0.001577 -0.047611 0.011311
v -0.002617 -0.042872 0.010332
v -0.002972 -0.042872 0.010909
v -0.003065 -0.043666 0.011436
v -0.002818 -0.044950 0.011679
v -0.002378 -0.046700 0.011775
v -0.006072 -0.047611 0.005535
v -0.009620 -0.042872 0.005930
v -0.002422 -0.047611 0.011946
v -0.003947 -0.043199 0.011865
v -0.004087 -0.044950 0.012390
v -0.006207 -0.047611 0.006528
v -0.010060 -0.042872 0.007170
v -0.009800 -0.042872 0.006390
v -0.004087 -0.046584 0.012534
v -0.004087 -0.047611 0.012445
v -0.005720 -0.042872 0.012460
v -0.005720 -0.043315 0.012526
v -0.006287 -0.047611 0.007170
v -0.010049 -0.042872 0.007414
v -0.006266 -0.047611 0.008117
v -0.006246 -0.047611 0.008803
v -0.007413 -0.042872 0.012127
v -0.008542 -0.042872 0.011587
v -0.005404 -0.047611 0.011741
v -0.009982 -0.042872 0.008803
v -0.006130 -0.047611 0.009544
v -0.009233 -0.042872 0.010599
v -0.009543 -0.042872 0.010038
v -0.005983 -0.047611 0.010438
v -0.009837 -0.042872 0.009217
f 2 3 1
f 1 3 4
f 23 29 24
f 24 18 23
f 23 18 17
f 16 9 8
f 15 16 8
f 8 3 15
f 8 9 3
f 4 3 10
f 3 9 10
f 25 26 21
f 21 20 25
f 21 16 14
f 14 20 21
f 14 16 15
f 56 60 61
f 44 53 51
f 53 57 51
f 34 27 33
f 22 16 21
f 47 55 56
f 2 1 6
f 6 1 12
f 5 1 4
f 44 38 43
f 43 50 44
f 52 53 44
f 44 50 52
f 45 38 44
f 45 39 38
f 17 18 11
f 12 1 11
f 1 5 11
f 28 39 29
f 29 23 28
f 38 39 28
f 56 55 59
f 59 60 56
f 58 57 53
f 58 61 57
f 57 61 62
f 62 61 60
f 27 36 37
f 35 27 34
f 35 36 27
f 40 37 42
f 42 37 36
f 31 33 30
f 30 33 27
f 26 31 30
f 21 26 30
f 55 47 54
f 12 11 19
f 19 11 18
f 7 13 20
f 20 14 7
f 7 14 15
f 15 3 7
f 2 13 7
f 7 3 2
f 32 37 40
f 27 37 32
f 34 48 41
f 41 35 34
f 48 42 41
f 36 35 41
f 41 42 36
f 46 47 40
f 40 42 46
f 49 42 48
f 49 46 42
f 48 54 49
f 49 54 47
f 47 46 49
f 27 22 30
f 30 22 21
f 34 33 19
f 44 51 19
f 19 45 44
f 19 48 34
f 19 13 2
f 2 6 19
f 24 29 19
f 19 31 26
f 19 18 24
f 26 25 19
f 57 62 19
f 29 39 19
f 55 54 19
f 19 25 20
f 19 59 55
f 19 51 57
f 19 33 31
f 19 6 12
f 39 45 19
f 20 13 19
f 60 59 19
f 19 62 60
f 19 54 48
f 16 22 32
f 4 10 32
f 32 47 56
f 17 11 32
f 56 61 32
f 32 5 4
f 32 9 16
f 32 58 53
f 32 43 38
f 32 23 17
f 32 10 9
f 38 28 32
f 32 22 27
f 40 47 32
f 53 52 32
f 50 43 32
f 32 52 50
f 32 11 5
f 32 28 23
f 61 58 32
