# generated by collision_forge
v -0.001343 -0.008996 0.010167
v -0.001343 -0.008699 0.011154
v -0.002327 -0.008962 0.009107
v -0.002327 -0.008941 0.007169
v -0.001343 -0.008846 0.008965
v -0.001343 -0.008416 0.011386
v -0.002327 -0.007286 0.011478
v -0.002327 -0.008506 0.010391
v -0.002327 -0.008875 0.006998
v -0.001343 -0.007899 0.005535
v -0.001343 -0.008446 0.007169
v -0.001343 -0.007321 0.011874
v -0.002327 -0.007243 0.011507
v -0.002327 -0.007258 0.011500
v -0.002327 -0.008254 0.005554
v -0.001343 -0.007332 0.004393
v -0.001343 -0.005721 0.012270
v -0.002327 -0.005721 0.012105
v -0.002327 -0.006994 0.011610
v -0.002327 -0.007332 0.004478
v -0.001343 -0.005721 0.003897
v -0.001343 -0.005333 0.012279
v -0.002327 -0.005333 0.012147
v -0.002327 -0.005721 0.003996
v -0.001343 -0.005586 0.003875
v -0.001343 -0.005333 0.003833
v -0.002327 -0.005333 0.003932
f 4 1 3
f 2 8 3
f 3 1 2
f 25 27 26
f 25 24 27
f 25 21 24
f 20 21 16
f 24 21 20
f 8 2 7
f 7 2 6
f 7 6 14
f 22 23 17
f 1 4 5
f 4 11 5
f 10 11 4
f 15 20 16
f 16 10 15
f 12 17 18
f 18 17 23
f 18 19 12
f 12 19 13
f 6 12 13
f 14 6 13
f 9 10 4
f 9 15 10
f 22 26 23
f 26 27 23
f 10 26 22
f 10 25 26
f 22 17 10
f 10 2 1
f 6 2 10
f 10 12 6
f 1 5 10
f 16 21 10
f 21 25 10
f 10 17 12
f 10 5 11
f 3 8 9
f 9 23 27
f 9 18 23
f 9 7 14
f 9 4 3
f 27 24 9
f 24 20 9
f 8 7 9
f 14 13 9
f 20 15 9
f 19 18 9
f 9 13 19
