# generated by collision_forge
v -0.012827 -0.018796 0.007170
v -0.012654 -0.018796 0.008803
v -0.012550 -0.017163 0.008803
v -0.012280 -0.017163 0.005535
v -0.012379 -0.018796 0.005535
v -0.012317 -0.025407 0.007170
v -0.012119 -0.025407 0.008803
v -0.011692 -0.025407 0.009878
v -0.011710 -0.015891 0.010087
v -0.012067 -0.015529 0.007170
v -0.011522 -0.014579 0.006190
v -0.011503 -0.016226 0.004667
v -0.011586 -0.020431 0.004599
v -0.011867 -0.025407 0.005644
v -0.011669 -0.025407 0.009934
v -0.011512 -0.018330 0.011316
v -0.011343 -0.016569 0.011176
v -0.011384 -0.014802 0.009314
v -0.008436 -0.010607 0.009883
v -0.009175 -0.010607 0.007170
v -0.010624 -0.017163 0.004251
v -0.007491 -0.010607 0.004456
v -0.010431 -0.025407 0.004509
v -0.011249 -0.025407 0.004827
v -0.010728 -0.017133 0.011540
v -0.009930 -0.025407 0.011272
v -0.009894 -0.025407 0.011294
v -0.009739 -0.014745 0.011239
v -0.007357 -0.010607 0.010515
v -0.008646 -0.010607 0.005399
v -0.007458 -0.010607 0.004447
v -0.008989 -0.017163 0.004078
v -0.008989 -0.018796 0.004136
v -0.008989 -0.025335 0.004398
v -0.008989 -0.025407 0.004401
v -0.008989 -0.017163 0.011814
v -0.008989 -0.018796 0.011745
v -0.005721 -0.010607 0.004304
v -0.008948 -0.025407 0.004410
v -0.007570 -0.017163 0.011503
v -0.005721 -0.010607 0.010692
v -0.008483 -0.025407 0.011218
v -0.008314 -0.024437 0.011251
v -0.004658 -0.010607 0.004580
v -0.008007 -0.025407 0.004610
v -0.006754 -0.017163 0.011090
v -0.004322 -0.010607 0.010062
v -0.005701 -0.010607 0.010687
v -0.007384 -0.025407 0.010366
v -0.004413 -0.010607 0.004882
v -0.006986 -0.025407 0.005716
v -0.007062 -0.025407 0.005626
v -0.004306 -0.010607 0.010050
v -0.007262 -0.025407 0.010265
v -0.003846 -0.010607 0.005584
v -0.006479 -0.025010 0.006250
v -0.006415 -0.025407 0.006936
v -0.003548 -0.010607 0.008909
v -0.006587 -0.025407 0.009402
v -0.003335 -0.010607 0.007170
v -0.003363 -0.010607 0.007646
v -0.006447 -0.025407 0.008725
f 9 17 19
f 19 18 9
f 20 18 19
f 6 7 2
f 1 6 2
f 53 54 59
f 46 54 53
f 44 45 38
f 13 14 5
f 5 12 13
f 4 12 5
f 1 4 5
f 5 14 6
f 5 6 1
f 18 20 10
f 10 4 1
f 21 12 22
f 13 12 21
f 22 12 30
f 15 2 8
f 8 2 7
f 17 9 3
f 3 9 18
f 18 10 3
f 1 2 3
f 3 10 1
f 37 40 36
f 37 27 42
f 46 40 43
f 43 37 42
f 40 37 43
f 16 2 15
f 17 3 16
f 16 3 2
f 28 29 19
f 19 17 28
f 58 53 59
f 47 40 46
f 46 53 47
f 48 40 47
f 23 21 32
f 13 21 23
f 31 38 32
f 32 21 31
f 31 21 22
f 20 30 11
f 11 10 20
f 11 30 12
f 11 12 4
f 4 10 11
f 49 43 42
f 49 54 46
f 46 43 49
f 26 16 15
f 27 16 26
f 36 28 25
f 25 28 17
f 17 16 25
f 25 37 36
f 27 37 25
f 25 16 27
f 29 28 41
f 41 28 36
f 36 40 41
f 41 40 48
f 24 14 13
f 13 23 24
f 60 56 55
f 52 45 44
f 57 56 60
f 39 38 45
f 39 35 38
f 33 23 32
f 32 38 33
f 51 52 44
f 51 55 56
f 56 57 51
f 60 61 62
f 62 57 60
f 61 58 62
f 62 58 59
f 34 35 23
f 23 33 34
f 38 35 34
f 34 33 38
f 50 51 44
f 55 51 50
f 62 7 6
f 6 14 62
f 14 24 62
f 59 54 62
f 62 49 42
f 52 51 62
f 42 27 62
f 15 8 62
f 62 8 7
f 62 26 15
f 23 35 62
f 54 49 62
f 27 26 62
f 62 24 23
f 45 52 62
f 62 39 45
f 35 39 62
f 62 51 57
f 50 41 48
f 50 20 19
f 50 61 60
f 19 29 50
f 22 30 50
f 48 47 50
f 50 31 22
f 50 58 61
f 44 38 50
f 50 30 20
f 53 58 50
f 50 47 53
f 38 31 50
f 29 41 50
f 60 55 50
