# generated by collision_forge
v -0.024155 -0.056430 0.007224
v -0.024786 -0.051473 0.007169
v -0.024883 -0.051473 0.008784
v -0.024884 -0.051473 0.008805
v -0.024168 -0.056430 0.007365
v -0.024378 -0.056430 0.005867
v -0.025083 -0.051473 0.005536
v -0.025555 -0.051473 0.010445
v -0.024329 -0.056430 0.008680
v -0.024322 -0.056430 0.008653
v -0.024454 -0.056430 0.005535
v -0.024578 -0.056430 0.005128
v -0.025749 -0.051473 0.004269
v -0.025612 -0.051473 0.010582
v -0.025062 -0.056430 0.010301
v -0.025299 -0.056430 0.004166
v -0.025328 -0.056430 0.004150
v -0.026970 -0.051473 0.003656
v -0.025079 -0.056430 0.010338
v -0.026091 -0.051473 0.011303
v -0.026931 -0.056430 0.003484
v -0.028604 -0.053123 0.003893
v -0.028754 -0.051473 0.004137
v -0.025935 -0.056430 0.011406
v -0.026555 -0.051473 0.011466
v -0.026970 -0.056430 0.003481
v -0.028604 -0.054757 0.003909
v -0.029571 -0.053123 0.004533
v -0.029512 -0.051763 0.004602
v -0.029019 -0.051473 0.004309
v -0.026739 -0.051473 0.011528
v -0.026828 -0.051473 0.011554
v -0.026970 -0.056430 0.011688
v -0.028695 -0.056430 0.004166
v -0.029549 -0.054757 0.004566
v -0.030125 -0.053123 0.005535
v -0.028762 -0.051473 0.011509
v -0.028557 -0.054757 0.011553
v -0.028396 -0.056430 0.011538
v -0.029483 -0.055860 0.004645
v -0.030081 -0.054757 0.005535
v -0.030623 -0.053123 0.007169
v -0.030547 -0.051488 0.007169
v -0.029919 -0.051473 0.005385
v -0.029874 -0.051473 0.005303
v -0.029440 -0.052738 0.011271
v -0.029375 -0.054757 0.011230
v -0.029218 -0.056391 0.011104
v -0.029771 -0.056430 0.005397
v -0.030335 -0.056391 0.007169
v -0.030576 -0.054757 0.007169
v -0.030740 -0.053123 0.008803
v -0.029431 -0.051473 0.011264
v -0.029969 -0.053219 0.010598
v -0.030064 -0.054757 0.010412
v -0.029923 -0.056391 0.010286
v -0.030416 -0.056391 0.008803
v -0.030686 -0.054757 0.008803
v -0.029964 -0.051473 0.010506
v -0.030530 -0.051473 0.009050
v -0.029830 -0.051473 0.010727
v -0.029918 -0.056430 0.010280
f 52 51 58
f 32 33 24
f 57 49 62
f 37 33 32
f 6 2 1
f 26 18 21
f 13 12 16
f 1 2 3
f 3 4 1
f 60 44 43
f 52 60 43
f 34 27 26
f 22 18 26
f 26 27 22
f 23 18 22
f 50 49 57
f 57 58 50
f 50 58 51
f 52 58 55
f 17 21 18
f 18 13 17
f 17 13 16
f 12 13 7
f 7 11 12
f 6 11 7
f 2 6 7
f 14 9 8
f 8 9 4
f 1 4 5
f 14 20 19
f 19 20 24
f 42 51 52
f 52 43 42
f 40 34 49
f 27 34 40
f 40 35 27
f 24 20 25
f 38 39 33
f 33 37 38
f 59 60 52
f 39 38 47
f 4 9 10
f 10 5 4
f 15 9 14
f 14 19 15
f 51 42 41
f 49 50 41
f 41 50 51
f 41 40 49
f 35 40 41
f 23 22 30
f 22 29 30
f 28 29 22
f 28 22 27
f 27 35 28
f 32 24 31
f 24 25 31
f 52 55 54
f 54 59 52
f 62 39 48
f 39 47 48
f 56 47 55
f 56 55 58
f 62 48 56
f 56 48 47
f 56 58 57
f 57 62 56
f 36 41 42
f 36 43 44
f 36 42 43
f 29 28 36
f 35 41 36
f 36 28 35
f 45 30 29
f 45 36 44
f 29 36 45
f 61 54 53
f 59 54 61
f 53 54 46
f 46 47 38
f 55 47 46
f 46 54 55
f 46 37 53
f 46 38 37
f 15 6 1
f 15 62 49
f 15 17 16
f 26 21 15
f 16 12 15
f 15 24 33
f 15 34 26
f 33 39 15
f 12 11 15
f 1 5 15
f 49 34 15
f 15 39 62
f 15 11 6
f 21 17 15
f 15 19 24
f 15 10 9
f 5 10 15
f 61 37 32
f 60 59 61
f 61 3 2
f 14 8 61
f 23 30 61
f 61 18 23
f 2 7 61
f 61 44 60
f 53 37 61
f 61 13 18
f 4 3 61
f 61 20 14
f 61 7 13
f 61 8 4
f 61 25 20
f 61 45 44
f 32 31 61
f 61 31 25
f 30 45 61
