# generated by collision_forge
v -0.014145 -0.038411 0.012266
v -0.014145 -0.037028 0.012142
v -0.021211 -0.040825 0.011847
v -0.021211 -0.041694 0.011681
v -0.021211 -0.042359 0.011519
v -0.014145 -0.038666 0.012192
v -0.014145 -0.036778 0.012104
v -0.017163 -0.038411 0.012057
v -0.018797 -0.038411 0.011843
v -0.021211 -0.040012 0.011760
v -0.021211 -0.042719 0.011361
v -0.014145 -0.039956 0.011755
v -0.014145 -0.035394 0.011833
v -0.021211 -0.039195 0.011566
v -0.014145 -0.033986 0.011435
v -0.021211 -0.042959 0.011092
v -0.014145 -0.040743 0.011044
v -0.021211 -0.038821 0.011441
v -0.014145 -0.033845 0.011380
v -0.021211 -0.043488 0.010431
v -0.014145 -0.040804 0.010956
v -0.019715 -0.037524 0.011302
v -0.021211 -0.038462 0.011186
v -0.014145 -0.033113 0.010823
v -0.021211 -0.043997 0.009585
v -0.014145 -0.041116 0.010259
v -0.021211 -0.044298 0.008951
v -0.014145 -0.032509 0.010301
v -0.021211 -0.038057 0.010809
v -0.021211 -0.044508 0.007170
v -0.014145 -0.041480 0.008803
v -0.014145 -0.032313 0.010051
v -0.021211 -0.037364 0.009997
v -0.021211 -0.044358 0.005998
v -0.014145 -0.041452 0.007170
v -0.014145 -0.041479 0.008552
v -0.014145 -0.031619 0.008803
v -0.021211 -0.037196 0.009606
v -0.021211 -0.043893 0.005100
v -0.014145 -0.041085 0.005865
v -0.014145 -0.031418 0.007170
v -0.021211 -0.037026 0.008789
v -0.021211 -0.043097 0.004322
v -0.014145 -0.040618 0.005077
v -0.014145 -0.032093 0.005685
v -0.021211 -0.037378 0.006001
v -0.021211 -0.037055 0.007158
v -0.021211 -0.037026 0.008261
v -0.021211 -0.041680 0.003830
v -0.014145 -0.038411 0.003701
v -0.014145 -0.039828 0.004310
v -0.014145 -0.032425 0.005274
v -0.021211 -0.037985 0.005151
v -0.021211 -0.037623 0.005656
v -0.020431 -0.040045 0.003714
v -0.021211 -0.040003 0.003922
v -0.014145 -0.036778 0.003596
v -0.014145 -0.033231 0.004654
v -0.019815 -0.037452 0.004600
v -0.021211 -0.038747 0.004412
v -0.014145 -0.035131 0.003874
v -0.014145 -0.033608 0.004373
f 3 1 8
f 41 46 47
f 45 46 41
f 41 42 37
f 62 61 55
f 55 61 57
f 2 8 1
f 2 7 8
f 8 7 13
f 12 5 11
f 50 55 57
f 49 55 50
f 43 50 51
f 49 50 43
f 40 35 34
f 48 42 41
f 41 47 48
f 3 8 10
f 32 37 33
f 33 28 32
f 33 29 28
f 56 55 49
f 60 62 56
f 62 55 56
f 15 18 14
f 19 18 15
f 4 1 3
f 4 5 1
f 17 16 20
f 20 21 17
f 11 16 17
f 17 12 11
f 1 5 6
f 5 12 6
f 25 21 20
f 25 27 21
f 39 40 34
f 52 53 45
f 46 45 54
f 45 53 54
f 14 10 9
f 9 10 8
f 8 13 9
f 13 15 9
f 9 15 14
f 23 18 22
f 22 18 19
f 19 24 22
f 22 24 28
f 22 29 23
f 28 29 22
f 38 37 42
f 38 33 37
f 21 27 26
f 27 31 26
f 30 31 27
f 34 35 30
f 40 39 44
f 44 39 43
f 44 43 51
f 60 53 59
f 53 52 59
f 59 52 58
f 59 58 62
f 59 62 60
f 36 30 35
f 31 30 36
f 30 25 20
f 42 48 30
f 46 54 30
f 20 16 30
f 30 38 42
f 30 18 23
f 30 53 60
f 60 56 30
f 30 47 46
f 3 10 30
f 23 29 30
f 11 5 30
f 30 16 11
f 30 4 3
f 49 43 30
f 30 48 47
f 30 39 34
f 30 10 14
f 14 18 30
f 29 33 30
f 30 56 49
f 5 4 30
f 27 25 30
f 43 39 30
f 30 54 53
f 33 38 30
f 57 61 36
f 36 17 21
f 62 58 36
f 36 45 41
f 36 24 19
f 41 37 36
f 36 61 62
f 36 2 1
f 1 6 36
f 36 50 57
f 35 40 36
f 36 37 32
f 32 28 36
f 7 2 36
f 36 13 7
f 19 15 36
f 51 50 36
f 21 26 36
f 36 44 51
f 28 24 36
f 36 15 13
f 12 17 36
f 36 6 12
f 36 52 45
f 58 52 36
f 36 26 31
f 40 44 36
