# generated by collision_forge
v 0.009279 -0.043948 0.007170
v 0.007102 -0.049560 0.007170
v 0.006802 -0.049560 0.005456
v 0.008877 -0.043948 0.005503
v 0.009257 -0.043948 0.008803
v 0.007053 -0.049560 0.008511
v 0.006660 -0.049560 0.005069
v 0.006568 -0.049274 0.004679
v 0.008367 -0.043948 0.004552
v 0.008922 -0.043948 0.010438
v 0.006749 -0.049560 0.010486
v 0.007042 -0.049560 0.008803
v 0.006204 -0.049560 0.004421
v 0.005835 -0.049560 0.004125
v 0.007372 -0.043948 0.003956
v 0.008705 -0.043948 0.010988
v 0.006549 -0.049560 0.011252
v 0.004086 -0.049560 0.003655
v 0.005720 -0.048218 0.003867
v 0.005720 -0.046585 0.003642
v 0.005720 -0.044950 0.003535
v 0.005720 -0.043948 0.003565
v 0.008467 -0.043948 0.011469
v 0.006189 -0.049560 0.011632
v 0.002865 -0.049560 0.004305
v 0.004086 -0.048218 0.003659
v 0.004086 -0.046585 0.003803
v 0.004185 -0.043948 0.004190
v 0.008205 -0.043948 0.011729
v 0.000949 -0.049560 0.005809
v 0.002887 -0.048218 0.004320
v 0.003031 -0.046585 0.004464
v 0.003411 -0.043948 0.004976
v 0.007368 -0.043948 0.012194
v 0.005832 -0.049560 0.011962
v 0.000949 -0.048185 0.006134
v 0.000949 -0.049560 0.010098
v 0.003251 -0.043948 0.005304
v 0.006722 -0.043948 0.012470
v 0.005720 -0.048218 0.012251
v 0.004379 -0.049560 0.012485
v 0.000949 -0.047138 0.007165
v 0.003029 -0.043948 0.005775
v 0.002920 -0.048218 0.011646
v 0.000949 -0.048585 0.009886
v 0.005720 -0.043948 0.012471
v 0.005720 -0.044950 0.012547
v 0.004086 -0.049560 0.012515
v 0.000949 -0.047002 0.008294
v 0.002728 -0.043948 0.007170
v 0.003052 -0.049560 0.011886
v 0.004086 -0.048218 0.012412
v 0.004086 -0.046585 0.012189
v 0.003089 -0.046585 0.011448
v 0.003371 -0.044487 0.011079
v 0.003436 -0.043948 0.010838
v 0.000949 -0.047779 0.009301
v 0.005068 -0.043948 0.012192
v 0.000949 -0.047027 0.008501
v 0.002786 -0.043948 0.008838
v 0.004241 -0.043948 0.011739
v 0.002969 -0.043948 0.009716
f 5 2 1
f 1 2 3
f 30 31 25
f 18 25 26
f 26 25 31
f 1 3 4
f 8 9 4
f 19 14 18
f 19 18 20
f 13 9 8
f 13 14 9
f 51 44 37
f 54 44 53
f 43 36 42
f 2 5 6
f 5 12 6
f 11 12 5
f 17 11 10
f 10 11 5
f 17 23 24
f 61 54 53
f 35 40 41
f 47 48 41
f 34 40 35
f 20 18 21
f 18 26 21
f 26 22 21
f 8 4 7
f 7 4 3
f 7 13 8
f 15 19 20
f 20 21 15
f 9 14 15
f 14 19 15
f 15 21 22
f 52 51 48
f 53 44 52
f 44 51 52
f 16 23 17
f 17 10 16
f 35 24 29
f 29 24 23
f 29 34 35
f 60 49 59
f 37 44 45
f 44 54 45
f 47 41 39
f 39 41 40
f 40 34 39
f 30 36 32
f 32 31 30
f 33 32 36
f 28 32 33
f 42 49 50
f 49 60 50
f 43 42 50
f 47 39 46
f 53 52 46
f 46 48 47
f 46 52 48
f 27 26 31
f 31 32 27
f 27 32 28
f 27 28 22
f 27 22 26
f 38 36 43
f 38 33 36
f 62 60 59
f 59 56 62
f 57 56 59
f 45 56 57
f 61 56 55
f 55 56 45
f 54 61 55
f 55 45 54
f 58 61 53
f 53 46 58
f 7 37 30
f 30 25 7
f 7 41 48
f 18 14 7
f 17 24 7
f 7 11 17
f 7 3 2
f 48 51 7
f 7 25 18
f 2 6 7
f 14 13 7
f 7 51 37
f 7 6 12
f 12 11 7
f 7 24 35
f 35 41 7
f 30 37 57
f 57 36 30
f 59 49 57
f 57 42 36
f 57 49 42
f 37 45 57
f 23 16 58
f 58 5 1
f 58 10 5
f 1 4 58
f 43 50 58
f 58 4 9
f 9 15 58
f 58 29 23
f 58 56 61
f 22 28 58
f 58 15 22
f 58 16 10
f 34 29 58
f 60 62 58
f 58 39 34
f 28 33 58
f 58 38 43
f 58 50 60
f 58 46 39
f 33 38 58
f 58 62 56
