# generated by collision_forge
v -0.021212 -0.040826 0.011847
v -0.021212 -0.041696 0.011681
v -0.021212 -0.040012 0.011760
v -0.025318 -0.046385 0.011535
v -0.021212 -0.042360 0.011520
v -0.025168 -0.046385 0.011506
v -0.021212 -0.039195 0.011566
v -0.023284 -0.040468 0.011457
v -0.026346 -0.043834 0.011385
v -0.027048 -0.046385 0.011550
v -0.021212 -0.042719 0.011361
v -0.025039 -0.046385 0.011460
v -0.024526 -0.046385 0.011235
v -0.021212 -0.038823 0.011442
v -0.027871 -0.046385 0.011317
v -0.021212 -0.042959 0.011092
v -0.023867 -0.046385 0.010477
v -0.024977 -0.040422 0.010065
v -0.021212 -0.038058 0.010809
v -0.023313 -0.038889 0.010048
v -0.026491 -0.042052 0.010017
v -0.027910 -0.043914 0.009802
v -0.028585 -0.046385 0.010476
v -0.021212 -0.043489 0.010431
v -0.023745 -0.046385 0.010298
v -0.025995 -0.041048 0.008803
v -0.024344 -0.039389 0.008803
v -0.021492 -0.037433 0.009862
v -0.022474 -0.037882 0.008803
v -0.029217 -0.046385 0.008892
v -0.027459 -0.043014 0.008803
v -0.021212 -0.043998 0.009586
v -0.023140 -0.046385 0.009097
v -0.026594 -0.041949 0.007169
v -0.023464 -0.038738 0.007169
v -0.021212 -0.037026 0.008262
v -0.021212 -0.037054 0.007158
v -0.027920 -0.043901 0.007169
v -0.023083 -0.046385 0.008970
v -0.021212 -0.044299 0.008951
v -0.024883 -0.040495 0.005889
v -0.027859 -0.044006 0.006218
v -0.021443 -0.037455 0.006124
v -0.029134 -0.046385 0.007169
v -0.022946 -0.046385 0.007922
v -0.021212 -0.044508 0.007169
v -0.022855 -0.046385 0.007169
v -0.026051 -0.042628 0.004837
v -0.027847 -0.045658 0.004656
v -0.022740 -0.039346 0.004840
v -0.027997 -0.046385 0.004518
v -0.021212 -0.038747 0.004412
v -0.021212 -0.043894 0.005100
v -0.023269 -0.046385 0.005379
v -0.023810 -0.041569 0.004132
v -0.026969 -0.046385 0.003941
v -0.024037 -0.046385 0.004348
v -0.021212 -0.043098 0.004322
v -0.022066 -0.041681 0.003706
v -0.025335 -0.044949 0.003695
v -0.025335 -0.046385 0.003779
v -0.021212 -0.041681 0.003830
f 60 61 56
f 28 19 36
f 10 4 1
f 1 9 10
f 39 40 32
f 5 13 11
f 27 26 18
f 22 31 30
f 58 57 61
f 19 8 14
f 45 40 39
f 45 47 40
f 1 4 2
f 13 5 12
f 29 28 36
f 37 29 36
f 20 27 18
f 19 28 20
f 28 29 20
f 20 29 27
f 18 8 20
f 20 8 19
f 21 22 9
f 21 8 18
f 9 8 21
f 18 26 21
f 26 31 21
f 31 22 21
f 23 22 30
f 59 61 60
f 57 58 53
f 30 31 38
f 38 44 30
f 38 42 44
f 3 9 1
f 3 8 9
f 39 32 33
f 32 25 33
f 24 25 32
f 11 13 17
f 25 24 17
f 6 12 5
f 5 2 6
f 6 2 4
f 26 27 35
f 27 29 35
f 29 37 35
f 42 41 48
f 48 41 50
f 15 10 9
f 9 22 15
f 22 23 15
f 62 58 61
f 61 59 62
f 57 53 54
f 40 47 46
f 47 54 46
f 46 54 53
f 7 14 8
f 8 3 7
f 11 17 16
f 16 17 24
f 26 35 34
f 34 35 41
f 34 41 42
f 42 38 34
f 34 31 26
f 34 38 31
f 43 35 37
f 50 41 43
f 41 35 43
f 49 48 56
f 42 48 49
f 44 42 49
f 55 48 50
f 55 59 60
f 60 56 55
f 56 48 55
f 51 49 56
f 44 49 51
f 52 55 50
f 59 55 52
f 52 62 59
f 50 43 52
f 52 43 37
f 30 44 51
f 51 17 13
f 51 45 39
f 51 56 61
f 61 57 51
f 4 10 51
f 10 15 51
f 51 23 30
f 57 54 51
f 47 45 51
f 39 33 51
f 13 12 51
f 51 6 4
f 51 33 25
f 25 17 51
f 12 6 51
f 51 15 23
f 51 54 47
f 58 62 52
f 1 2 52
f 36 19 52
f 52 32 40
f 52 3 1
f 52 5 11
f 52 37 36
f 19 14 52
f 52 2 5
f 14 7 52
f 52 53 58
f 40 46 52
f 52 24 32
f 11 16 52
f 52 46 53
f 52 7 3
f 52 16 24
