# generated by collision_forge
v 0.017802 -0.063924 0.012057
v 0.020432 -0.062929 0.011972
v 0.018797 -0.062929 0.012053
v 0.017802 -0.062929 0.012038
v 0.017802 -0.064616 0.011936
v 0.017802 -0.065698 0.011669
v 0.022170 -0.063058 0.011663
v 0.022311 -0.062897 0.011681
v 0.022311 -0.061296 0.011916
v 0.022066 -0.061296 0.011926
v 0.022311 -0.061051 0.011915
v 0.022311 -0.059596 0.011517
v 0.017802 -0.062424 0.011865
v 0.017802 -0.065983 0.011547
v 0.021694 -0.063962 0.011411
v 0.022311 -0.063013 0.011648
v 0.022311 -0.059514 0.011476
v 0.017802 -0.061741 0.011584
v 0.017802 -0.067495 0.010436
v 0.022311 -0.063808 0.011284
v 0.022311 -0.058977 0.010914
v 0.017802 -0.061431 0.011128
v 0.017802 -0.068096 0.008851
v 0.022311 -0.064252 0.010501
v 0.022311 -0.064155 0.010703
v 0.022311 -0.058743 0.010438
v 0.017802 -0.061078 0.010430
v 0.017802 -0.068103 0.008803
v 0.022311 -0.064548 0.009066
v 0.022311 -0.058624 0.010067
v 0.017802 -0.060676 0.008803
v 0.022311 -0.058225 0.008803
v 0.017802 -0.067848 0.007467
v 0.022311 -0.064383 0.007170
v 0.022311 -0.064578 0.008803
v 0.017802 -0.060412 0.007264
v 0.022311 -0.057976 0.007170
v 0.017802 -0.067777 0.007170
v 0.022311 -0.063966 0.005737
v 0.017802 -0.060396 0.006835
v 0.022311 -0.058016 0.006863
v 0.017802 -0.060407 0.006144
v 0.017802 -0.067130 0.006204
v 0.022311 -0.063614 0.005141
v 0.022311 -0.058194 0.005535
v 0.017802 -0.060715 0.005350
v 0.017802 -0.065613 0.004640
v 0.021320 -0.063776 0.004689
v 0.022311 -0.063387 0.004893
v 0.022311 -0.058323 0.005314
v 0.017802 -0.061490 0.004308
v 0.017802 -0.064564 0.004208
v 0.020432 -0.062929 0.004071
v 0.021945 -0.062949 0.004390
v 0.022311 -0.062808 0.004424
v 0.022311 -0.059042 0.004386
v 0.022311 -0.059615 0.004183
v 0.017802 -0.062929 0.003867
v 0.018797 -0.062929 0.003884
v 0.022066 -0.061296 0.003886
v 0.022311 -0.061311 0.003938
f 19 23 24
f 9 2 8
f 40 36 37
f 37 42 40
f 46 42 45
f 58 51 57
f 57 51 56
f 12 4 11
f 13 4 12
f 12 18 13
f 17 18 12
f 3 4 1
f 11 4 3
f 1 2 3
f 2 9 3
f 36 31 32
f 37 36 32
f 32 31 27
f 21 18 17
f 21 26 27
f 59 52 58
f 33 34 28
f 33 38 34
f 20 14 19
f 29 23 28
f 29 24 23
f 5 2 1
f 5 6 2
f 8 2 7
f 2 6 7
f 46 45 50
f 50 51 46
f 56 51 50
f 41 42 37
f 41 45 42
f 60 57 61
f 58 57 60
f 60 59 58
f 10 9 11
f 11 3 10
f 10 3 9
f 27 26 30
f 30 32 27
f 22 21 27
f 18 21 22
f 43 44 38
f 34 38 39
f 38 44 39
f 19 24 25
f 25 20 19
f 28 34 35
f 35 29 28
f 8 7 16
f 16 7 6
f 48 43 47
f 44 43 48
f 47 55 48
f 54 55 47
f 61 55 54
f 20 16 15
f 14 20 15
f 15 6 14
f 15 16 6
f 44 48 49
f 49 48 55
f 47 52 53
f 53 54 47
f 52 59 53
f 59 60 53
f 53 60 61
f 61 54 53
f 1 4 43
f 36 40 43
f 13 18 43
f 43 51 58
f 28 23 43
f 43 33 28
f 43 31 36
f 58 52 43
f 19 14 43
f 43 23 19
f 43 42 46
f 43 4 13
f 27 31 43
f 43 5 1
f 43 52 47
f 43 22 27
f 14 6 43
f 43 40 42
f 46 51 43
f 38 33 43
f 6 5 43
f 18 22 43
f 49 9 8
f 34 39 49
f 17 12 49
f 61 57 49
f 49 21 17
f 56 50 49
f 37 32 49
f 49 35 34
f 11 9 49
f 49 25 24
f 49 57 56
f 49 12 11
f 49 41 37
f 26 21 49
f 49 30 26
f 49 55 61
f 24 29 49
f 49 50 45
f 45 41 49
f 32 30 49
f 49 39 44
f 8 16 49
f 20 25 49
f 29 35 49
f 49 16 20
