# generated by collision_forge
v -0.010783 -0.067052 0.009486
v -0.010783 -0.067049 0.007170
v -0.008989 -0.066453 0.008803
v -0.007761 -0.065627 0.010003
v -0.010783 -0.066737 0.010180
v -0.007603 -0.065728 0.008803
v -0.007917 -0.065532 0.006025
v -0.010783 -0.066545 0.005617
v -0.009593 -0.065486 0.011329
v -0.004994 -0.063657 0.007170
v -0.004935 -0.063716 0.008803
v -0.006503 -0.063772 0.011275
v -0.010783 -0.065729 0.011369
v -0.006077 -0.064102 0.005823
v -0.009520 -0.065515 0.004592
v -0.004542 -0.062560 0.010437
v -0.006555 -0.063732 0.004733
v -0.010783 -0.064564 0.003793
v -0.010624 -0.064564 0.011829
v -0.004907 -0.062109 0.004721
v -0.003057 -0.060783 0.005963
v -0.003399 -0.061941 0.008803
v -0.003331 -0.060367 0.011190
v -0.005721 -0.061295 0.012019
v -0.008989 -0.062928 0.012068
v -0.010783 -0.064685 0.011799
v -0.007200 -0.063084 0.004118
v -0.010783 -0.062928 0.003712
v -0.008989 -0.062928 0.003650
v -0.003049 -0.059225 0.004521
v -0.001661 -0.058775 0.006716
v -0.001615 -0.058890 0.009662
v -0.004088 -0.058027 0.012193
v -0.004087 -0.054745 0.012247
v -0.010783 -0.062763 0.011720
v -0.005559 -0.061456 0.004118
v -0.010783 -0.061645 0.004331
v -0.005241 -0.054745 0.004385
v -0.004094 -0.054745 0.003805
v -0.004087 -0.056392 0.003733
v -0.001574 -0.055764 0.004645
v -0.001461 -0.057685 0.006016
v -0.001622 -0.058872 0.007805
v -0.000398 -0.054745 0.008818
v -0.002453 -0.054745 0.011922
v -0.004075 -0.054745 0.012246
v -0.005219 -0.054745 0.011635
v -0.010783 -0.061923 0.011396
v -0.004088 -0.058027 0.003775
v -0.005771 -0.054745 0.005535
v -0.002453 -0.054745 0.003964
v -0.000350 -0.054745 0.007235
v -0.001035 -0.054745 0.010429
v -0.001631 -0.055593 0.011259
v -0.005725 -0.054745 0.010437
v -0.010783 -0.061309 0.010465
v -0.010783 -0.061346 0.010529
v -0.010783 -0.060942 0.005727
v -0.000851 -0.054745 0.005724
v -0.005953 -0.054745 0.008813
v -0.010783 -0.060832 0.008803
v -0.010783 -0.060789 0.007170
f 39 51 40
f 24 12 23
f 24 9 12
f 29 18 28
f 28 40 29
f 39 40 28
f 48 35 47
f 47 35 34
f 54 53 45
f 13 9 26
f 34 35 25
f 32 43 52
f 32 54 23
f 32 53 54
f 59 41 51
f 23 12 16
f 16 32 23
f 43 32 22
f 22 16 11
f 32 16 22
f 12 9 4
f 4 16 12
f 11 16 4
f 18 15 8
f 9 13 5
f 1 4 5
f 5 4 9
f 34 25 33
f 33 25 24
f 33 46 34
f 45 46 33
f 33 24 23
f 23 54 33
f 54 45 33
f 19 35 26
f 19 25 35
f 26 9 19
f 9 24 19
f 24 25 19
f 44 32 52
f 53 32 44
f 42 59 52
f 41 59 42
f 21 20 30
f 30 42 21
f 41 42 30
f 51 41 30
f 27 18 29
f 27 15 18
f 15 27 17
f 17 27 20
f 3 4 1
f 39 28 38
f 48 47 57
f 47 56 57
f 55 56 47
f 61 56 55
f 55 60 61
f 52 43 31
f 31 42 52
f 21 42 31
f 31 22 21
f 43 22 31
f 49 40 51
f 51 30 49
f 29 40 49
f 21 22 10
f 10 22 11
f 2 3 1
f 11 4 6
f 4 3 6
f 6 10 11
f 60 50 62
f 50 58 62
f 61 60 62
f 50 38 37
f 37 58 50
f 37 38 28
f 36 49 30
f 36 30 20
f 20 27 36
f 36 27 29
f 29 49 36
f 14 20 21
f 21 10 14
f 14 17 20
f 7 2 8
f 7 8 15
f 15 17 7
f 17 14 7
f 3 2 7
f 7 6 3
f 10 6 7
f 7 14 10
f 55 44 52
f 34 46 55
f 55 51 39
f 52 59 55
f 55 47 34
f 39 38 55
f 55 45 53
f 55 59 51
f 55 50 60
f 55 46 45
f 53 44 55
f 55 38 50
f 37 56 61
f 26 35 37
f 48 57 37
f 1 5 37
f 37 28 18
f 37 35 48
f 37 13 26
f 18 8 37
f 37 2 1
f 37 5 13
f 61 62 37
f 37 57 56
f 8 2 37
f 37 62 58
