# generated by collision_forge
v -0.010784 -0.064563 0.011834
v -0.013894 -0.065935 0.011588
v -0.010784 -0.062765 0.011719
v -0.010785 -0.062769 0.011720
v -0.013894 -0.064563 0.011910
v -0.015528 -0.066788 0.011074
v -0.010784 -0.065651 0.011434
v -0.010784 -0.061924 0.011395
v -0.018483 -0.063300 0.011526
v -0.017162 -0.064564 0.011842
v -0.015528 -0.064564 0.011886
v -0.017162 -0.067451 0.010255
v -0.013894 -0.067408 0.010209
v -0.010784 -0.061347 0.010529
v -0.018483 -0.061894 0.010010
v -0.018483 -0.062484 0.010828
v -0.018483 -0.064564 0.011788
v -0.017162 -0.065952 0.011557
v -0.018483 -0.065856 0.011516
v -0.018483 -0.066672 0.010970
v -0.018483 -0.067240 0.010309
v -0.017162 -0.067912 0.008803
v -0.015528 -0.067947 0.008803
v -0.013894 -0.067845 0.008803
v -0.012260 -0.067266 0.010042
v -0.010784 -0.066606 0.010350
v -0.010784 -0.061310 0.010465
v -0.018483 -0.061485 0.008803
v -0.018483 -0.067765 0.008803
v -0.018483 -0.067693 0.007483
v -0.015528 -0.067865 0.007170
v -0.013894 -0.067744 0.007170
v -0.012260 -0.067560 0.008803
v -0.010784 -0.060830 0.008803
v -0.018483 -0.061371 0.007170
v -0.017162 -0.067355 0.005627
v -0.013894 -0.067307 0.005655
v -0.010784 -0.067148 0.008803
v -0.010784 -0.060789 0.007170
v -0.010784 -0.060942 0.005727
v -0.010784 -0.060980 0.005498
v -0.018483 -0.066877 0.004949
v -0.015528 -0.066987 0.004761
v -0.013894 -0.066947 0.004838
v -0.011319 -0.067057 0.006251
v -0.010784 -0.067049 0.007170
v -0.010784 -0.061646 0.004330
v -0.018483 -0.062050 0.004657
v -0.018483 -0.061760 0.005362
v -0.018483 -0.066217 0.004277
v -0.015528 -0.066169 0.004123
v -0.013894 -0.066130 0.004159
v -0.010784 -0.065735 0.004411
v -0.010784 -0.066545 0.005617
v -0.010784 -0.062931 0.003713
v -0.018483 -0.062814 0.004029
v -0.018483 -0.064867 0.003590
v -0.018483 -0.064564 0.003468
v -0.017162 -0.064564 0.003485
v -0.013894 -0.064563 0.003545
v -0.010784 -0.064563 0.003794
v -0.018483 -0.063004 0.003956
f 39 35 34
f 9 8 16
f 15 16 8
f 3 4 1
f 3 8 9
f 9 4 3
f 18 19 20
f 17 19 18
f 13 12 23
f 1 2 7
f 25 26 7
f 7 13 25
f 24 33 25
f 24 13 23
f 25 13 24
f 23 31 24
f 38 33 46
f 38 26 25
f 25 33 38
f 47 56 48
f 55 56 47
f 28 34 35
f 28 27 34
f 15 27 28
f 5 18 2
f 5 2 1
f 1 4 5
f 12 13 6
f 20 12 6
f 6 7 2
f 13 7 6
f 6 18 20
f 2 18 6
f 21 12 20
f 21 29 12
f 23 12 22
f 12 29 22
f 22 31 23
f 22 29 30
f 30 31 22
f 30 42 36
f 36 31 30
f 55 61 60
f 46 45 54
f 46 33 32
f 32 45 46
f 33 24 32
f 32 24 31
f 62 55 58
f 62 56 55
f 41 49 35
f 48 49 41
f 41 47 48
f 14 15 8
f 14 27 15
f 18 5 11
f 11 5 4
f 52 61 53
f 52 60 61
f 51 60 52
f 43 36 42
f 42 50 43
f 43 50 51
f 51 52 43
f 58 55 59
f 55 60 59
f 59 51 58
f 59 60 51
f 40 35 39
f 40 41 35
f 17 18 10
f 18 11 10
f 10 11 4
f 9 17 10
f 10 4 9
f 58 51 57
f 51 50 57
f 31 36 37
f 36 43 37
f 37 32 31
f 45 32 37
f 44 37 43
f 44 52 53
f 44 43 52
f 53 54 44
f 44 54 45
f 45 37 44
f 40 61 55
f 40 14 8
f 39 34 40
f 40 3 1
f 46 54 40
f 1 7 40
f 40 38 46
f 8 3 40
f 40 7 26
f 26 38 40
f 53 61 40
f 55 47 40
f 34 27 40
f 40 54 53
f 47 41 40
f 27 14 40
f 57 17 9
f 57 28 35
f 20 19 57
f 9 16 57
f 35 49 57
f 57 62 58
f 57 19 17
f 57 21 20
f 16 15 57
f 30 29 57
f 57 42 30
f 48 56 57
f 57 49 48
f 15 28 57
f 29 21 57
f 56 62 57
f 57 50 42
