# generated by collision_forge
v -0.004007 0.010625 0.002317
v -0.003396 0.009516 0.001266
v -0.003693 0.008979 0.002317
v -0.002326 0.006950 0.002681
v -0.004004 0.010697 0.002317
v -0.003442 0.012258 0.001183
v -0.003483 0.010625 0.001128
v -0.002647 0.010625 0.000311
v -0.001719 0.009688 -0.000227
v -0.003131 0.008426 0.001689
v -0.002041 0.007826 0.001088
v -0.002025 0.006725 0.002681
v 0.001938 0.006950 0.002681
v 0.000817 0.015673 0.002317
v 0.000736 0.015671 0.002317
v -0.000817 0.015576 0.002317
v -0.000897 0.015548 0.002317
v -0.002156 0.015030 0.002317
v -0.002936 0.014424 0.002317
v -0.003002 0.014356 0.002317
v -0.003534 0.013574 0.002317
v -0.003891 0.012336 0.002317
v -0.003910 0.012258 0.002317
v -0.002394 0.012316 0.000285
v -0.003341 0.013232 0.001341
v -0.001810 0.011810 -0.000273
v -0.000014 0.008169 -0.000189
v -0.000817 0.010625 -0.000543
v 0.001403 0.006587 0.002681
v 0.001961 0.007904 0.001165
v 0.003209 0.008255 0.002317
v 0.003589 0.008995 0.002317
v 0.003939 0.010556 0.002317
v 0.003946 0.010625 0.002317
v 0.003842 0.012258 0.002317
v 0.003498 0.013547 0.002317
v 0.003041 0.014363 0.002317
v 0.002228 0.015127 0.002317
v 0.001868 0.014900 0.001247
v 0.000817 0.015041 0.001062
v -0.000817 0.014969 0.001119
v -0.001811 0.014804 0.001323
v -0.002394 0.013823 0.001011
v -0.001308 0.012899 -0.000137
v -0.000785 0.012316 -0.000353
v 0.000660 0.009067 -0.000338
v 0.000011 0.008169 -0.000189
v -0.000816 0.006717 0.001769
v 0.000817 0.010625 -0.000557
v -0.000615 0.006105 0.002681
v 0.000816 0.006775 0.001881
v 0.001754 0.009664 -0.000251
v 0.003401 0.009543 0.001256
v 0.003476 0.010625 0.001152
v 0.003409 0.012258 0.001245
v 0.003310 0.013150 0.001381
v 0.001630 0.013074 -0.000186
v 0.000977 0.013776 0.000159
v -0.000785 0.013776 0.000234
v -0.000218 0.013154 -0.000214
v 0.001782 0.011984 -0.000268
v 0.002653 0.010625 0.000335
f 14 4 13
f 11 2 9
f 31 13 30
f 35 13 34
f 14 13 38
f 13 37 38
f 54 35 34
f 3 4 1
f 1 2 3
f 1 6 7
f 7 2 1
f 27 11 9
f 48 11 27
f 27 47 48
f 30 47 52
f 49 61 52
f 52 61 62
f 48 50 12
f 12 11 48
f 4 11 12
f 30 13 29
f 15 4 14
f 15 16 4
f 4 22 23
f 23 25 6
f 22 25 23
f 4 20 21
f 21 22 4
f 20 25 21
f 21 25 22
f 8 7 6
f 9 2 8
f 2 7 8
f 28 27 9
f 56 37 36
f 36 35 56
f 36 37 13
f 13 35 36
f 57 60 58
f 57 61 49
f 39 37 56
f 39 38 37
f 56 57 39
f 39 57 58
f 14 38 39
f 55 54 62
f 62 61 55
f 56 35 55
f 35 54 55
f 55 57 56
f 61 57 55
f 13 31 32
f 9 8 26
f 26 28 9
f 2 11 10
f 10 3 2
f 10 11 4
f 4 3 10
f 49 52 46
f 46 52 47
f 47 27 46
f 46 28 49
f 27 28 46
f 53 32 31
f 53 31 30
f 30 52 53
f 62 54 53
f 53 52 62
f 51 47 30
f 30 29 51
f 51 29 50
f 48 47 51
f 51 50 48
f 19 20 4
f 4 18 19
f 4 16 17
f 17 18 4
f 1 4 5
f 4 23 5
f 5 6 1
f 5 23 6
f 34 13 33
f 13 32 33
f 32 53 33
f 33 54 34
f 33 53 54
f 44 26 24
f 43 44 24
f 24 25 43
f 6 25 24
f 24 8 6
f 24 26 8
f 28 26 45
f 49 28 45
f 44 60 45
f 45 26 44
f 45 57 49
f 60 57 45
f 58 60 59
f 59 60 44
f 58 59 40
f 40 59 41
f 40 39 58
f 14 39 40
f 40 15 14
f 16 15 40
f 40 41 16
f 41 59 42
f 42 44 43
f 42 59 44
f 42 19 18
f 18 17 42
f 43 25 42
f 42 17 16
f 16 41 42
f 42 25 20
f 20 19 42
f 4 12 29
f 29 13 4
f 29 12 50
