# generated by collision_forge
v 0.012929 -0.037741 0.012486
v 0.012929 -0.038411 0.012486
v 0.013894 -0.038411 0.012442
v 0.013894 -0.036777 0.012441
v 0.012929 -0.036777 0.012466
v 0.012929 -0.039486 0.012085
v 0.016640 -0.038411 0.012286
v 0.015528 -0.036777 0.012346
v 0.012929 -0.035143 0.012220
v 0.012929 -0.040036 0.011835
v 0.016640 -0.039719 0.011713
v 0.016640 -0.036777 0.012231
v 0.012929 -0.033479 0.011851
v 0.012929 -0.040779 0.010960
v 0.016640 -0.040433 0.010438
v 0.016640 -0.035137 0.011658
v 0.012929 -0.032138 0.011474
v 0.012929 -0.041145 0.009473
v 0.016640 -0.040704 0.008803
v 0.016640 -0.034584 0.011383
v 0.012929 -0.031324 0.011060
v 0.012929 -0.041239 0.008803
v 0.012929 -0.041186 0.007170
v 0.016640 -0.040608 0.007170
v 0.016640 -0.034143 0.010987
v 0.012929 -0.030379 0.010392
v 0.012929 -0.040937 0.006121
v 0.016640 -0.040044 0.005535
v 0.016640 -0.033660 0.010470
v 0.013152 -0.030379 0.010195
v 0.012929 -0.030379 0.005335
v 0.012929 -0.040521 0.005324
v 0.016640 -0.039426 0.004528
v 0.016640 -0.032921 0.009087
v 0.013530 -0.030379 0.009670
v 0.012929 -0.030568 0.005180
v 0.013496 -0.030379 0.005894
v 0.012929 -0.039796 0.004437
v 0.016640 -0.039122 0.004353
v 0.016640 -0.032848 0.008467
v 0.013906 -0.030379 0.008912
v 0.012929 -0.030638 0.005133
v 0.016640 -0.034436 0.004573
v 0.013610 -0.030379 0.006132
v 0.016640 -0.033188 0.006134
v 0.016640 -0.033587 0.005490
v 0.012929 -0.038411 0.003800
v 0.016640 -0.038411 0.003989
v 0.016640 -0.032841 0.007137
v 0.014003 -0.030379 0.007170
v 0.013994 -0.030379 0.007404
v 0.012929 -0.036777 0.003546
v 0.015528 -0.036777 0.003631
v 0.016640 -0.037889 0.003860
v 0.012929 -0.031167 0.004787
v 0.016640 -0.035120 0.004212
v 0.012929 -0.035813 0.003606
v 0.016640 -0.036777 0.003713
v 0.012929 -0.032036 0.004434
v 0.012929 -0.032362 0.004304
v 0.016640 -0.036254 0.003805
v 0.012929 -0.034179 0.003811
f 21 20 26
f 17 20 21
f 1 4 5
f 4 9 5
f 11 10 14
f 23 19 22
f 24 19 23
f 28 24 27
f 27 24 23
f 26 20 25
f 7 12 8
f 8 4 7
f 8 9 4
f 13 12 17
f 9 8 13
f 13 8 12
f 16 20 17
f 17 12 16
f 36 31 43
f 35 29 34
f 34 41 35
f 6 11 7
f 10 11 6
f 15 11 14
f 60 59 56
f 56 59 55
f 56 55 43
f 38 33 32
f 32 33 28
f 28 27 32
f 38 47 48
f 48 47 54
f 43 55 42
f 42 36 43
f 40 51 41
f 40 41 34
f 50 51 40
f 40 49 50
f 29 35 30
f 30 25 29
f 26 25 30
f 50 49 45
f 2 6 3
f 3 6 7
f 7 4 3
f 1 2 3
f 3 4 1
f 18 15 14
f 19 15 18
f 18 22 19
f 60 56 61
f 61 62 60
f 58 62 61
f 39 33 38
f 38 48 39
f 50 45 44
f 44 45 37
f 37 45 46
f 31 37 46
f 43 31 46
f 52 57 53
f 53 58 54
f 53 57 62
f 53 62 58
f 53 47 52
f 54 47 53
f 26 31 57
f 10 6 57
f 57 27 23
f 1 5 57
f 57 13 17
f 57 2 1
f 57 21 26
f 52 47 57
f 14 10 57
f 23 22 57
f 17 21 57
f 31 36 57
f 57 5 9
f 57 59 60
f 57 42 55
f 57 18 14
f 57 47 38
f 9 13 57
f 38 32 57
f 55 59 57
f 57 6 2
f 60 62 57
f 57 32 27
f 36 42 57
f 22 18 57
f 44 31 26
f 44 37 31
f 44 51 50
f 41 51 44
f 44 35 41
f 26 30 44
f 44 30 35
f 46 12 7
f 34 29 46
f 46 40 34
f 46 24 28
f 7 11 46
f 46 15 19
f 28 33 46
f 46 25 20
f 46 48 54
f 20 16 46
f 19 24 46
f 54 58 46
f 46 56 43
f 29 25 46
f 46 16 12
f 11 15 46
f 33 39 46
f 58 61 46
f 49 40 46
f 46 45 49
f 46 61 56
f 46 39 48
