# generated by collision_forge
v -0.007942 0.030240 0.008803
v -0.007794 0.028605 0.007169
v -0.007104 0.025400 0.010547
v -0.007744 0.031875 0.007169
v -0.007002 0.025400 0.005431
v -0.007075 0.025400 0.005594
v -0.007858 0.025400 0.008803
v -0.006013 0.025400 0.011224
v -0.007223 0.031875 0.010216
v -0.007808 0.035143 0.008803
v -0.007103 0.036779 0.010089
v -0.004085 0.049851 0.010169
v -0.006743 0.046583 0.009825
v -0.006876 0.043313 0.009928
v -0.007732 0.036779 0.008803
v -0.007614 0.035143 0.007169
v -0.006095 0.025669 0.004771
v -0.005815 0.025400 0.004713
v -0.004999 0.025400 0.011282
v -0.004085 0.025400 0.011312
v -0.006567 0.044473 0.006330
v -0.004935 0.050873 0.006343
v -0.005507 0.025400 0.004679
v -0.004211 0.051502 0.006299
v -0.000816 0.046583 0.010370
v -0.002451 0.051502 0.010089
v -0.005588 0.051502 0.009852
v -0.005702 0.051502 0.007164
v -0.004148 0.025400 0.004614
v 0.000817 0.025400 0.011321
v 0.004086 0.025400 0.011313
v 0.002451 0.051502 0.010099
v -0.006534 0.050659 0.009568
v -0.006548 0.050761 0.007951
v -0.000816 0.025400 0.004581
v -0.000816 0.051502 0.006147
v 0.005677 0.025400 0.011074
v 0.004086 0.051487 0.010087
v -0.006340 0.051502 0.008997
v 0.000756 0.025400 0.004616
v 0.000817 0.051502 0.006164
v 0.005229 0.051502 0.009848
v 0.005710 0.025400 0.011064
v 0.006563 0.041271 0.009659
v 0.005731 0.051502 0.008803
v 0.006702 0.036779 0.009860
v 0.003532 0.051502 0.006327
v 0.006740 0.035143 0.009914
v 0.005405 0.051502 0.007241
v 0.006560 0.041381 0.007904
v 0.006859 0.025400 0.010156
v 0.007148 0.026972 0.008803
v 0.007038 0.026972 0.007169
v 0.004906 0.049072 0.006351
v 0.004684 0.050161 0.006382
v 0.006674 0.028605 0.006184
v 0.004083 0.025400 0.004876
v 0.007174 0.025400 0.008803
v 0.007069 0.025400 0.007169
v 0.006740 0.025400 0.006029
v 0.006721 0.026972 0.006102
v 0.005720 0.025400 0.005330
f 42 32 38
f 2 7 1
f 27 8 12
f 52 53 50
f 58 59 52
f 59 53 52
f 17 18 5
f 15 33 34
f 13 8 27
f 27 33 13
f 33 15 13
f 39 28 34
f 39 33 27
f 34 33 39
f 17 5 21
f 34 28 21
f 27 12 26
f 38 32 25
f 25 20 30
f 12 20 25
f 32 26 25
f 25 26 12
f 60 53 59
f 58 52 51
f 38 25 31
f 31 25 30
f 47 55 57
f 7 2 6
f 2 5 6
f 23 18 24
f 24 29 23
f 8 13 14
f 14 13 15
f 22 28 24
f 22 21 28
f 17 21 22
f 24 18 22
f 22 18 17
f 16 21 5
f 16 10 15
f 16 15 34
f 34 21 16
f 19 12 8
f 19 20 12
f 50 53 56
f 42 43 46
f 38 31 37
f 37 42 38
f 37 43 42
f 55 47 49
f 50 56 49
f 35 29 36
f 36 29 24
f 40 47 57
f 9 10 1
f 15 10 11
f 11 14 15
f 10 9 11
f 8 14 11
f 11 9 8
f 4 5 2
f 4 16 5
f 10 16 4
f 4 2 1
f 1 10 4
f 54 62 57
f 57 55 54
f 55 49 54
f 54 49 56
f 53 60 61
f 61 56 53
f 60 62 61
f 62 54 61
f 61 54 56
f 43 51 48
f 48 46 43
f 48 51 52
f 52 46 48
f 42 46 44
f 44 52 50
f 44 46 52
f 47 40 41
f 41 40 35
f 35 36 41
f 1 7 3
f 3 9 1
f 8 9 3
f 42 44 45
f 50 49 45
f 45 44 50
f 43 37 3
f 35 40 3
f 3 31 30
f 3 29 35
f 3 59 58
f 30 20 3
f 3 60 59
f 58 51 3
f 3 5 18
f 7 6 3
f 18 23 3
f 3 19 8
f 3 51 43
f 57 62 3
f 3 6 5
f 3 23 29
f 20 19 3
f 3 62 60
f 3 37 31
f 3 40 57
f 45 39 27
f 27 26 45
f 32 42 45
f 24 28 45
f 28 39 45
f 45 26 32
f 47 41 45
f 45 49 47
f 45 36 24
f 45 41 36
