# generated by collision_forge
v -0.018483 -0.067765 0.008803
v -0.018797 -0.067353 0.010128
v -0.018797 -0.067730 0.008803
v -0.018797 -0.067641 0.007169
v -0.018483 -0.067693 0.007484
v -0.018483 -0.067241 0.010310
v -0.020431 -0.067164 0.009855
v -0.018797 -0.066650 0.010946
v -0.021317 -0.067045 0.009671
v -0.020431 -0.067349 0.008803
v -0.021245 -0.067015 0.006370
v -0.018797 -0.067264 0.005799
v -0.018483 -0.066673 0.010969
v -0.018797 -0.065833 0.011507
v -0.021507 -0.065485 0.011326
v -0.021900 -0.066216 0.010342
v -0.021900 -0.066796 0.008803
v -0.021900 -0.066364 0.005704
v -0.021900 -0.065709 0.004631
v -0.021900 -0.066741 0.007043
v -0.021900 -0.066738 0.006982
v -0.018797 -0.066858 0.004981
v -0.018483 -0.066877 0.004948
v -0.018483 -0.065855 0.011517
v -0.020431 -0.064564 0.011698
v -0.021900 -0.064627 0.011543
v -0.021900 -0.064877 0.011469
v -0.021900 -0.066054 0.010522
v -0.021900 -0.065606 0.004492
v -0.020431 -0.065837 0.004279
v -0.018797 -0.066041 0.004149
v -0.018483 -0.064564 0.011789
v -0.021900 -0.062775 0.011588
v -0.021900 -0.064693 0.003890
v -0.020431 -0.064564 0.003562
v -0.018797 -0.064564 0.003465
v -0.018483 -0.064866 0.003590
v -0.018483 -0.063301 0.011527
v -0.021900 -0.062763 0.011583
v -0.021900 -0.063096 0.003390
v -0.021900 -0.062930 0.003382
v -0.018483 -0.064564 0.003469
v -0.018483 -0.062483 0.010828
v -0.021900 -0.061129 0.010645
v -0.021900 -0.061228 0.010721
v -0.021900 -0.061252 0.003963
v -0.020431 -0.062930 0.003493
v -0.018483 -0.061893 0.010010
v -0.021900 -0.059877 0.008950
v -0.021900 -0.061034 0.010554
v -0.021900 -0.061195 0.003994
v -0.018483 -0.062814 0.004029
v -0.018483 -0.061485 0.008803
v -0.021900 -0.059808 0.008725
v -0.021900 -0.060300 0.004684
v -0.018483 -0.062050 0.004657
v -0.018483 -0.061371 0.007169
v -0.021900 -0.059626 0.007169
v -0.021900 -0.059834 0.005611
v -0.018483 -0.061759 0.005361
v -0.018483 -0.061728 0.005463
v -0.021900 -0.059639 0.007035
f 56 55 59
f 17 9 16
f 58 53 57
f 46 47 41
f 41 47 42
f 53 49 48
f 54 53 58
f 54 49 53
f 33 32 38
f 38 39 33
f 16 9 15
f 32 33 25
f 9 17 11
f 1 6 2
f 59 57 61
f 58 57 62
f 62 57 59
f 52 55 56
f 47 46 52
f 52 42 47
f 45 39 38
f 38 44 45
f 16 15 28
f 28 15 27
f 8 2 6
f 26 25 33
f 18 11 21
f 9 11 10
f 11 4 10
f 19 11 18
f 2 8 7
f 7 15 9
f 7 8 15
f 56 59 60
f 59 61 60
f 55 52 51
f 51 52 46
f 41 42 36
f 31 35 36
f 49 50 43
f 43 48 49
f 43 50 44
f 43 44 38
f 13 8 6
f 15 8 14
f 27 15 14
f 14 13 24
f 8 13 14
f 14 26 27
f 25 26 14
f 24 32 14
f 32 25 14
f 20 11 17
f 20 21 11
f 1 4 5
f 12 4 11
f 23 5 12
f 12 5 4
f 9 10 3
f 3 7 9
f 3 4 1
f 3 10 4
f 1 2 3
f 2 7 3
f 22 19 29
f 31 23 22
f 11 19 22
f 23 12 22
f 22 12 11
f 35 34 40
f 41 36 40
f 40 36 35
f 29 34 30
f 31 22 30
f 30 22 29
f 30 35 31
f 30 34 35
f 31 36 37
f 37 36 42
f 37 23 31
f 40 50 49
f 58 62 40
f 40 17 16
f 55 51 40
f 40 33 39
f 40 59 55
f 40 46 41
f 40 54 58
f 27 26 40
f 18 21 40
f 40 19 18
f 39 45 40
f 49 54 40
f 16 28 40
f 40 62 59
f 40 45 44
f 44 50 40
f 40 28 27
f 40 26 33
f 40 20 17
f 29 19 40
f 40 51 46
f 40 34 29
f 21 20 40
f 38 32 37
f 37 6 1
f 24 13 37
f 37 52 56
f 37 32 24
f 37 43 38
f 56 60 37
f 37 57 53
f 1 5 37
f 53 48 37
f 37 61 57
f 42 52 37
f 37 60 61
f 48 43 37
f 37 13 6
f 37 5 23
