# generated by collision_forge
v 0.002728 -0.043948 0.007169
v 0.003029 -0.043948 0.005775
v 0.002786 -0.043948 0.008838
v 0.006401 -0.030379 0.008678
v 0.006401 -0.030379 0.008504
v 0.006423 -0.030379 0.007020
v 0.006538 -0.030379 0.006361
v 0.002968 -0.043948 0.009715
v 0.006553 -0.030379 0.009422
v 0.003411 -0.043948 0.004976
v 0.003081 -0.043948 0.010103
v 0.006570 -0.030379 0.009478
v 0.004323 -0.043315 0.004210
v 0.003436 -0.043948 0.010837
v 0.007225 -0.030379 0.010430
v 0.007958 -0.030379 0.004570
v 0.005721 -0.041679 0.003765
v 0.005721 -0.043948 0.003565
v 0.003842 -0.043948 0.011364
v 0.007939 -0.030379 0.011258
v 0.008051 -0.030379 0.004540
v 0.007356 -0.040046 0.003516
v 0.007373 -0.043948 0.003956
v 0.012928 -0.036778 0.003546
v 0.012928 -0.038410 0.003800
v 0.008021 -0.030379 0.011351
v 0.008990 -0.030379 0.004285
v 0.008990 -0.038410 0.003472
v 0.012928 -0.039796 0.004437
v 0.008367 -0.043948 0.004551
v 0.012928 -0.035813 0.003606
v 0.005068 -0.043948 0.012192
v 0.008990 -0.030379 0.011601
v 0.005721 -0.043315 0.012423
v 0.010624 -0.035143 0.003617
v 0.008877 -0.043948 0.005503
v 0.012928 -0.040937 0.006122
v 0.010624 -0.035143 0.012273
v 0.010715 -0.030379 0.011563
v 0.008990 -0.038410 0.012487
v 0.007356 -0.041679 0.012628
v 0.009278 -0.043948 0.007169
v 0.012928 -0.034178 0.003811
v 0.006723 -0.043948 0.012470
v 0.012928 -0.036778 0.012466
v 0.012928 -0.035143 0.012220
v 0.012928 -0.033480 0.011852
v 0.012928 -0.038410 0.012487
v 0.010779 -0.030379 0.004285
v 0.009256 -0.043948 0.008803
v 0.012928 -0.041221 0.008016
v 0.012928 -0.032362 0.004305
v 0.007369 -0.043948 0.012194
v 0.012928 -0.040036 0.011835
v 0.012928 -0.037741 0.012486
v 0.012928 -0.031324 0.011060
v 0.012517 -0.030379 0.010759
v 0.008704 -0.043948 0.010988
v 0.012928 -0.040780 0.010959
v 0.012928 -0.030379 0.010392
v 0.012928 -0.030638 0.005134
v 0.012928 -0.030379 0.005335
f 3 4 1
f 24 18 28
f 6 7 1
f 39 47 56
f 52 43 49
f 10 7 16
f 16 13 10
f 10 13 18
f 22 28 18
f 1 4 5
f 5 6 1
f 24 28 35
f 35 49 43
f 36 37 42
f 36 30 37
f 37 30 29
f 12 11 14
f 14 15 12
f 19 32 26
f 26 20 19
f 19 20 15
f 19 15 14
f 38 39 33
f 45 39 38
f 54 44 53
f 47 39 46
f 46 39 45
f 61 49 62
f 52 49 61
f 1 7 2
f 7 10 2
f 17 22 18
f 17 13 16
f 18 13 17
f 24 35 31
f 31 35 43
f 49 35 27
f 28 22 27
f 27 35 28
f 23 29 30
f 9 8 11
f 11 12 9
f 3 8 9
f 4 3 9
f 32 44 34
f 34 44 41
f 26 32 34
f 33 26 34
f 41 33 34
f 41 44 48
f 44 54 48
f 41 45 40
f 45 38 40
f 40 33 41
f 40 38 33
f 53 58 59
f 59 54 53
f 58 50 59
f 56 60 57
f 57 39 56
f 21 27 22
f 21 17 16
f 22 17 21
f 29 23 25
f 25 23 18
f 25 18 24
f 55 45 41
f 41 48 55
f 51 59 50
f 51 50 42
f 42 37 51
f 23 3 1
f 23 19 14
f 53 44 23
f 42 50 23
f 14 11 23
f 1 2 23
f 23 36 42
f 23 8 3
f 23 58 53
f 23 10 18
f 30 36 23
f 11 8 23
f 23 44 32
f 32 19 23
f 23 50 58
f 23 2 10
f 21 26 33
f 15 20 21
f 16 7 21
f 21 5 4
f 33 39 21
f 21 60 62
f 7 6 21
f 39 57 21
f 21 20 26
f 62 49 21
f 6 5 21
f 21 12 15
f 4 9 21
f 49 27 21
f 21 9 12
f 21 57 60
f 56 47 51
f 51 25 24
f 45 55 51
f 52 61 51
f 47 46 51
f 51 43 52
f 51 60 56
f 37 29 51
f 24 31 51
f 62 60 51
f 51 46 45
f 51 61 62
f 51 31 43
f 51 48 54
f 54 59 51
f 29 25 51
f 51 55 48
