# generated by collision_forge
v -0.007620 0.016945 0.008803
v -0.007401 0.016945 0.010437
v -0.007502 0.016945 0.007170
v -0.006799 -0.000816 0.011543
v -0.006924 0.016945 0.011404
v -0.007444 0.016945 0.006953
v -0.007019 -0.005029 0.005536
v -0.007273 0.000817 0.010437
v -0.005718 -0.000816 0.012065
v -0.004960 0.010623 0.012807
v -0.007059 0.016945 0.005536
v -0.006646 -0.005029 0.004614
v -0.002326 -0.005332 0.003933
v -0.007310 -0.005029 0.007172
v -0.007266 -0.005029 0.007861
v -0.007017 -0.005029 0.009353
v -0.002367 0.006949 0.013301
v -0.005718 0.016945 0.011998
v -0.004006 0.010623 0.002317
v -0.005718 -0.005029 0.004188
v -0.002326 -0.005332 0.012144
v 0.002451 -0.005332 0.012448
v -0.002326 0.006949 0.013301
v 0.000950 0.016893 0.012807
v -0.003769 0.015218 0.012807
v -0.006625 0.016945 0.004630
v -0.003692 0.008977 0.002317
v 0.000429 -0.005332 0.003697
v 0.004084 -0.005332 0.012445
v 0.001935 0.006947 0.013170
v 0.003538 0.015377 0.012807
v 0.001544 0.006949 0.002317
v 0.005719 -0.005332 0.012058
v 0.004557 0.011980 0.012807
v 0.005500 0.016945 0.011857
v 0.004084 -0.005332 0.003824
v 0.006706 -0.005332 0.011466
v 0.006589 0.016945 0.011324
v 0.005720 0.016945 0.011768
v -0.005503 0.016945 0.004224
v 0.003589 0.008992 0.002317
v 0.007064 -0.005332 0.010436
v -0.003884 0.016945 0.003908
v -0.000816 0.015576 0.002317
v 0.007255 -0.005332 0.008803
v 0.007020 0.016945 0.008803
v 0.006994 0.016945 0.009020
v -0.000816 0.016945 0.003624
v 0.006281 -0.005332 0.004674
v 0.003944 0.010623 0.002317
v 0.007246 -0.005332 0.008413
v 0.007213 -0.005332 0.007172
v 0.006885 0.016945 0.007170
v 0.000816 0.015671 0.002317
v 0.006474 -0.005332 0.004800
v 0.003841 0.012257 0.002317
v 0.006287 0.016945 0.005219
v 0.007140 -0.005332 0.006807
v 0.006635 0.016945 0.006037
v 0.000816 0.016945 0.003610
v 0.005470 0.016945 0.004369
v 0.006854 -0.005332 0.005618
f 52 58 53
f 13 21 14
f 14 8 1
f 19 26 40
f 16 21 4
f 4 8 16
f 12 26 19
f 3 14 1
f 4 21 9
f 54 61 56
f 56 61 57
f 15 14 21
f 21 16 15
f 8 14 15
f 15 16 8
f 13 12 20
f 20 12 19
f 13 14 7
f 7 12 13
f 14 3 7
f 45 51 46
f 46 51 52
f 46 52 53
f 34 33 37
f 37 38 34
f 61 54 60
f 44 40 43
f 19 40 44
f 53 58 59
f 28 32 36
f 36 32 41
f 26 12 11
f 12 7 11
f 29 33 34
f 34 30 29
f 4 9 10
f 10 5 4
f 38 37 42
f 42 47 38
f 46 47 42
f 45 46 42
f 1 8 2
f 2 8 4
f 4 5 2
f 48 44 43
f 54 44 48
f 48 60 54
f 56 57 50
f 57 55 50
f 57 59 62
f 62 55 57
f 62 59 58
f 32 28 27
f 27 20 19
f 27 28 13
f 13 20 27
f 36 41 49
f 41 50 49
f 49 50 55
f 6 7 3
f 6 11 7
f 17 9 21
f 17 10 9
f 5 10 18
f 31 30 34
f 22 17 21
f 23 29 30
f 30 31 23
f 23 22 29
f 17 22 23
f 24 17 23
f 23 31 24
f 35 18 24
f 24 31 35
f 35 31 34
f 25 18 10
f 24 18 25
f 10 17 25
f 25 17 24
f 34 38 39
f 39 35 34
f 27 54 56
f 56 50 27
f 19 44 27
f 27 44 54
f 27 41 32
f 27 50 41
f 45 42 22
f 22 51 45
f 22 21 13
f 58 52 22
f 36 49 22
f 52 51 22
f 13 28 22
f 22 37 33
f 22 62 58
f 22 28 36
f 33 29 22
f 22 42 37
f 55 62 22
f 22 49 55
f 43 40 39
f 39 3 1
f 39 46 53
f 39 40 26
f 38 47 39
f 53 59 39
f 1 2 39
f 39 57 61
f 26 11 39
f 39 6 3
f 61 60 39
f 39 59 57
f 39 48 43
f 39 47 46
f 39 2 5
f 60 48 39
f 11 6 39
f 5 18 39
f 18 35 39
