# Blender v2.79 (sub 0) OBJ File: ''
# www.blender.org
mtllib l_distal.mtl
o L_Distal
v 0.036380 0.017847 0.011026
v 0.002951 0.004265 -0.003993
v -0.002424 0.017833 0.011151
v 0.032620 0.004283 -0.003981
v -0.002503 0.017871 0.036546
v -0.002919 0.015538 0.009478
v -0.002750 0.011350 0.032916
v 0.009638 -0.014004 0.031913
v 0.007689 -0.015449 0.030469
v 0.032674 -0.003855 0.019857
v 0.036250 0.012687 0.015595
v 0.034011 -0.001347 -0.000573
v 0.036282 0.011593 0.034133
v 0.004075 -0.008217 0.037696
v 0.032020 0.017863 0.039139
v 0.001313 0.017858 0.039126
v 0.032737 0.011399 0.037862
v 0.000491 -0.014791 0.031126
v -0.000866 -0.011763 0.019984
v 0.004730 -0.016070 0.029840
v 0.036134 0.017764 0.036123
v 0.032602 -0.003892 -0.001903
v -0.001698 -0.010810 0.019927
v -0.001107 -0.010461 0.034381
v 0.002813 -0.003761 -0.002193
v 0.032725 -0.002028 -0.003889
v 0.034734 0.011306 0.036711
v 0.010283 -0.011594 0.034321
v -0.001755 -0.003687 0.008224
v 0.008512 -0.009163 0.036752
v 0.002950 -0.002019 -0.003990
v 0.001055 -0.009200 0.036719
vn 0.6598 0.6873 -0.3037
vn -0.4608 0.3114 -0.8311
vn -0.5556 0.7806 -0.2861
vn 0.5004 0.3212 -0.8039
vn -0.6912 0.6027 0.3987
vn -0.8593 0.3141 -0.4035
vn -0.9962 -0.0320 0.0806
vn 0.3185 -0.7943 0.5172
vn 0.2084 -0.9266 0.3131
vn 0.7416 -0.6482 0.1728
vn 0.9960 -0.0863 -0.0215
vn 0.9604 -0.2221 -0.1682
vn 0.9337 -0.2463 0.2596
vn -0.0625 -0.3720 0.9261
vn 0.2454 0.6037 0.7584
vn -0.2322 0.6222 0.7476
vn 0.3433 -0.2927 0.8924
vn -0.5173 -0.8023 0.2979
vn -0.4775 -0.8335 -0.2779
vn -0.0460 -0.9838 0.1733
vn 0.7107 0.5913 0.3809
vn 0.5154 -0.7719 -0.3722
vn -0.9069 -0.4006 -0.1302
vn -0.8031 -0.3748 0.4631
vn -0.4571 -0.7178 -0.5251
vn 0.5153 -0.3428 -0.7855
vn 0.6605 -0.3551 0.6615
vn 0.3077 -0.6667 0.6788
vn -0.9300 -0.2670 -0.2526
vn 0.1643 -0.5020 0.8491
vn -0.4870 -0.3207 -0.8123
vn -0.3682 -0.4010 0.8388
usemtl None.002
s 1
f 1//1 2//2 3//3
f 4//4 2//2 1//1
f 5//5 6//6 7//7
f 8//8 9//9 10//10
f 11//11 12//12 1//1
f 13//13 12//12 11//11
f 1//1 13//13 11//11
f 14//14 15//15 16//16
f 14//14 17//17 15//15
f 18//18 19//19 20//20
f 6//6 3//3 2//2
f 1//1 15//15 21//21
f 22//22 9//9 20//20
f 22//22 10//10 9//9
f 10//10 12//12 13//13
f 10//10 22//22 12//12
f 6//6 23//23 7//7
f 24//24 7//7 23//23
f 19//19 23//23 25//25
f 20//20 19//19 25//25
f 25//25 22//22 20//20
f 18//18 20//20 9//9
f 6//6 5//5 3//3
f 2//2 4//4 26//26
f 26//26 12//12 22//22
f 13//13 27//27 10//10
f 28//28 8//8 10//10
f 27//27 28//28 10//10
f 27//27 21//21 15//15
f 19//19 18//18 23//23
f 23//23 18//18 24//24
f 29//29 23//23 6//6
f 29//29 25//25 23//23
f 21//21 13//13 1//1
f 30//30 8//8 28//28
f 13//13 21//21 27//27
f 17//17 28//28 27//27
f 17//17 27//27 15//15
f 29//29 31//31 25//25
f 18//18 32//32 24//24
f 1//1 12//12 4//4
f 4//4 12//12 26//26
f 16//16 1//1 3//3
f 16//16 3//3 5//5
f 16//16 15//15 1//1
f 32//32 18//18 9//9
f 9//9 8//8 32//32
f 8//8 30//30 32//32
f 32//32 30//30 14//14
f 17//17 30//30 28//28
f 30//30 17//17 14//14
f 31//31 2//2 26//26
f 32//32 14//14 16//16
f 32//32 16//16 5//5
f 32//32 5//5 24//24
f 22//22 31//31 26//26
f 31//31 22//22 25//25
f 6//6 2//2 31//31
f 31//31 29//29 6//6
f 7//7 24//24 5//5
