# Blender v2.79 (sub 0) OBJ File: ''
# www.blender.org
mtllib palm.mtl
o Palm
v -0.018219 0.015806 -0.000316
v -0.013756 -0.024865 -0.047684
v -0.018217 -0.015808 -0.000314
v -0.017751 -0.016093 -0.000021
v -0.017746 0.016092 -0.000020
v -0.013750 0.030000 -0.028529
v -0.013707 0.029749 -0.015366
v -0.013751 0.027300 -0.047905
v 0.018350 0.027155 -0.047931
v 0.018350 0.028340 -0.046941
v -0.013750 -0.030000 -0.028500
v 0.018380 0.029881 -0.015478
v 0.018364 -0.029771 -0.015341
v 0.017997 -0.015952 -0.000039
v 0.017999 0.015975 -0.000053
v -0.013711 -0.029768 -0.015398
v 0.018350 -0.025245 -0.047055
v 0.018350 -0.024144 -0.047936
v -0.013751 0.028414 -0.046679
v 0.018350 -0.030000 -0.028500
vn -0.8736 0.2188 0.4346
vn -0.5679 -0.4977 -0.6556
vn -0.8746 -0.2181 0.4329
vn -0.3402 -0.4307 0.8359
vn -0.3380 0.4311 0.8366
vn -0.5931 0.8044 -0.0340
vn -0.5085 0.8153 0.2767
vn -0.5988 0.3212 -0.7336
vn 0.6380 0.2619 -0.7241
vn 0.6302 0.6928 -0.3504
vn -0.5984 -0.7941 -0.1063
vn 0.6350 0.7247 0.2675
vn 0.6375 -0.7157 0.2851
vn 0.6179 -0.3149 0.7205
vn 0.6173 0.3163 0.7203
vn -0.5089 -0.8160 0.2741
vn 0.6430 -0.6444 -0.4138
vn 0.6399 -0.2517 -0.7261
vn -0.6017 0.7279 -0.3289
vn 0.6767 -0.7312 -0.0861
usemtl None
s 1
f 1//1 2//2 3//3
f 4//4 5//5 3//3
f 6//6 1//1 7//7
f 8//8 2//2 1//1
f 9//9 8//8 10//10
f 2//2 11//11 3//3
f 10//10 12//12 13//13
f 14//14 12//12 15//15
f 16//16 3//3 11//11
f 5//5 4//4 14//14
f 17//17 18//18 13//13
f 19//19 6//6 10//10
f 11//11 13//13 16//16
f 16//16 4//4 3//3
f 7//7 5//5 15//15
f 10//10 13//13 9//9
f 13//13 4//4 16//16
f 1//1 5//5 7//7
f 19//19 10//10 8//8
f 18//18 17//17 2//2
f 1//1 19//19 8//8
f 10//10 6//6 12//12
f 18//18 2//2 8//8
f 13//13 18//18 9//9
f 15//15 5//5 14//14
f 6//6 7//7 12//12
f 2//2 17//17 11//11
f 20//20 11//11 17//17
f 13//13 12//12 14//14
f 20//20 13//13 11//11
f 7//7 15//15 12//12
f 4//4 13//13 14//14
f 6//6 19//19 1//1
f 8//8 9//9 18//18
f 20//20 17//17 13//13
f 3//3 5//5 1//1
