# generated by collision_forge
v -0.250000 0.162000 0.624000
v -0.050000 0.162000 0.624000
v 0.000000 0.170000 0.624000
v 0.000000 0.220000 0.624000
v -0.100000 0.238000 0.624000
v -0.250000 0.246000 0.624000
v -0.250000 0.162000 0.633000
v -0.050000 0.162000 0.633000
v 0.000000 0.170000 0.633000
v 0.000000 0.220000 0.633000
v -0.100000 0.238000 0.633000
v -0.250000 0.246000 0.633000
f 3 4 9
f 9 4 10
f 12 6 1
f 1 7 12
f 1 2 8
f 8 7 1
f 8 2 3
f 3 9 8
f 5 2 1
f 1 6 5
f 3 2 5
f 5 4 3
f 11 9 10
f 7 8 11
f 11 12 7
f 11 8 9
f 10 4 11
f 4 5 11
f 6 12 11
f 11 5 6
