####
#
# OBJ File Generated by Meshlab
#
####
# Object link_2_chull_1.obj
#
# Vertices: 108
# Faces: 212
#
####
vn -0.219657 0.940937 0.257659
v -0.038658 0.006211 0.003320
vn -0.361414 0.838422 0.407956
v -0.039921 0.005801 0.003320
vn -0.219690 0.940918 -0.257702
v -0.038658 0.006211 -0.019413
vn -0.397170 0.381290 -0.834790
v -0.042057 0.004249 -0.019413
vn -0.397104 0.381149 0.834885
v -0.042057 0.004249 0.003320
vn -0.592071 0.733031 0.334840
v -0.041070 0.005137 0.003320
vn -0.361413 0.838411 -0.407980
v -0.039921 0.005801 -0.019413
vn -0.592045 0.733005 -0.334942
v -0.041070 0.005137 -0.019413
vn 0.030638 0.999432 -0.014043
v -0.009461 0.007493 -0.023287
vn 0.060121 0.998020 0.018489
v -0.009461 0.007493 0.007193
vn -0.037532 0.998514 0.039523
v -0.028130 0.007493 0.007193
vn -0.046062 0.996384 -0.071400
v -0.028130 0.007493 -0.023287
vn -0.111906 0.993719 -0.000112
v -0.038100 0.006375 -0.017064
vn -0.112118 0.993695 0.000283
v -0.038100 0.006375 0.000970
vn -0.214218 0.976695 0.013308
v -0.039570 0.006204 0.000970
vn -0.204545 0.978629 -0.021139
v -0.039570 0.006204 -0.017064
vn -0.640218 0.768065 -0.014004
v -0.042198 0.004884 -0.017064
vn -0.585736 0.460277 -0.667127
v -0.063037 -0.012602 -0.017064
vn -0.673630 0.572567 0.467321
v -0.063037 -0.012602 0.000970
vn -0.634257 0.772730 0.024633
v -0.042198 0.004884 0.000970
vn 0.000035 0.014351 -0.999897
v 0.000000 0.006350 -0.023414
vn -0.106190 0.062189 -0.992399
v -0.031496 0.006350 -0.023414
vn 0.263284 -0.935869 -0.234158
v 0.005068 -0.017041 -0.017064
vn 0.249851 -0.887909 0.386254
v 0.005068 -0.017041 0.000970
vn 0.254893 -0.937344 0.237520
v -0.030646 -0.026927 0.000970
vn 0.241466 -0.887967 -0.391419
v -0.030646 -0.026927 -0.017064
vn 0.484922 -0.845525 0.223467
v 0.006234 -0.016555 0.000970
vn 0.463440 -0.806205 -0.367774
v 0.006234 -0.016555 -0.017064
vn 0.983245 0.182248 -0.003956
v 0.008697 -0.011163 -0.017064
vn 0.983229 0.182245 0.006881
v 0.008697 -0.011163 0.000970
vn 0.971745 -0.039140 -0.232765
v 0.008786 -0.012423 -0.017064
vn 0.985335 -0.043988 0.164862
v 0.008786 -0.012423 0.000970
vn -0.349252 -0.789437 -0.504789
v -0.049401 -0.025552 -0.017064
vn -0.389963 -0.688605 0.611352
v -0.052244 -0.024095 0.000970
vn -0.411043 -0.676256 -0.611328
v -0.052244 -0.024095 -0.017064
vn -0.283628 -0.641102 0.713123
v -0.049401 -0.025552 0.000970
vn -0.212742 -0.682611 -0.699130
v -0.046410 -0.026676 -0.017064
vn -0.259376 -0.832244 0.489993
v -0.046410 -0.026676 0.000970
vn 0.145689 -0.929082 -0.339972
v -0.033769 -0.027602 -0.017064
vn 0.131190 -0.837109 0.531072
v -0.033769 -0.027602 0.000970
vn 0.010631 -0.480871 0.876727
v -0.036948 -0.027916 0.000970
vn 0.006418 -0.390000 -0.920793
v -0.036948 -0.027916 -0.017064
vn -0.166183 -0.807494 -0.565983
v -0.043311 -0.027450 -0.017064
vn -0.141126 -0.812268 0.565954
v -0.043311 -0.027450 0.000970
vn -0.450208 0.892823 -0.013417
v -0.040961 0.005697 -0.017064
vn -0.451291 0.892035 0.024696
v -0.040961 0.005697 0.000970
vn 0.000034 0.013833 0.999904
v 0.000000 0.006350 0.007320
vn -0.105496 0.061766 0.992500
v -0.031496 0.006350 0.007320
vn 0.683189 -0.707126 -0.182281
v 0.007244 -0.015797 -0.017064
vn 0.661292 -0.684462 0.306929
v 0.007244 -0.015797 0.000970
vn 0.839512 -0.519783 0.158259
v 0.008036 -0.014814 0.000970
vn 0.818978 -0.508192 -0.266489
v 0.008036 -0.014814 -0.017064
vn -0.508160 -0.675206 0.534668
v -0.054903 -0.022323 0.000970
vn -0.404371 -0.537298 -0.740132
v -0.054903 -0.022323 -0.017064
vn -0.520037 -0.564719 -0.640823
v -0.057341 -0.020259 -0.017064
vn -0.537242 -0.548397 0.640806
v -0.057341 -0.020259 0.000970
vn -0.572176 -0.493987 -0.654669
v -0.059528 -0.017930 -0.017064
vn -0.587192 -0.476063 0.654651
v -0.059528 -0.017930 0.000970
vn -0.064782 -0.884576 -0.461875
v -0.040143 -0.027865 -0.017064
vn -0.054132 -0.739142 0.671371
v -0.040143 -0.027865 0.000970
vn 0.947113 -0.298464 -0.117878
v 0.008560 -0.013665 -0.017064
vn 0.934091 -0.295346 0.200613
v 0.008560 -0.013665 0.000970
vn -0.682134 -0.449251 -0.576945
v -0.061435 -0.015366 -0.017064
vn -0.527152 -0.347180 0.775614
v -0.061435 -0.015366 0.000970
vn 0.480832 0.876812 0.000931
v 0.002823 0.005716 0.000970
vn 0.330793 0.894526 0.300666
v 0.002481 0.005845 0.007320
vn 0.331899 0.883340 -0.330990
v 0.002481 0.005845 -0.023414
vn 0.480832 0.876810 -0.002105
v 0.002823 0.005716 -0.017064
vn 0.527919 0.813185 -0.245015
v 0.003597 0.005233 -0.023414
vn 0.527034 0.799034 0.289447
v 0.003597 0.005233 0.007320
vn 0.136786 0.990601 -0.000188
v 0.001450 0.006208 -0.017064
vn 0.136700 0.990612 0.000422
v 0.001450 0.006208 0.000970
vn 0.979016 0.203781 0.000673
v 0.006255 0.001232 0.000970
vn 0.940017 0.316153 0.128124
v 0.005928 0.002276 0.007320
vn 0.945951 0.312633 -0.086244
v 0.005928 0.002276 -0.023414
vn 0.979537 0.201260 -0.001197
v 0.006255 0.001232 -0.017064
vn 0.010784 -0.002256 -0.999939
v 0.006126 -0.005807 -0.023414
vn -0.069531 -0.156320 -0.985256
v -0.031496 -0.006350 -0.023414
vn 0.002364 -0.280734 -0.959783
v 0.005396 -0.006350 -0.023414
vn 0.707175 0.677573 -0.201986
v 0.004568 0.004411 -0.023414
vn 0.843186 0.515108 -0.153951
v 0.005356 0.003412 -0.023414
vn 0.128462 0.931535 -0.340206
v 0.001266 0.006223 -0.023414
vn 0.916795 -0.014447 -0.399096
v 0.006346 -0.000222 -0.023414
vn 0.907930 -0.035764 -0.417592
v 0.006158 -0.005615 -0.023414
vn 0.981085 0.179114 -0.073418
v 0.006263 0.001048 -0.023414
vn 0.136695 -0.502857 -0.853492
v 0.005589 -0.006325 -0.023414
vn 0.436121 -0.451317 -0.778532
v 0.005926 -0.006136 -0.023414
vn 0.669472 -0.327942 -0.666530
v 0.006047 -0.005984 -0.023414
vn 0.225353 -0.501786 -0.835121
v 0.005770 -0.006252 -0.023414
vn 0.646118 0.763237 -0.001034
v 0.004049 0.004925 -0.017064
vn 0.698065 0.679531 0.225706
v 0.004568 0.004411 0.007320
vn 0.646117 0.763235 0.002336
v 0.004049 0.004925 0.000970
vn 0.785144 0.619313 0.001029
v 0.005063 0.003875 0.000970
vn 0.785142 0.619311 -0.002325
v 0.005063 0.003875 -0.017064
vn 0.845607 0.507903 0.164266
v 0.005356 0.003412 0.007320
vn 0.893165 0.449728 -0.000927
v 0.005811 0.002622 -0.017064
vn 0.893164 0.449727 0.002096
v 0.005811 0.002622 0.000970
vn 0.048743 -0.179310 0.982584
v 0.005589 -0.006325 0.007320
vn -0.070232 -0.157896 0.984955
v -0.031496 -0.006350 0.007320
vn 0.002412 -0.286525 0.958070
v 0.005396 -0.006350 0.007320
vn 0.127613 0.925383 0.356905
v 0.001266 0.006223 0.007320
vn 0.823538 -0.172273 0.540470
v 0.006126 -0.005807 0.007320
vn 0.878902 -0.034621 0.475743
v 0.006158 -0.005615 0.007320
vn 0.887639 -0.013988 0.460328
v 0.006346 -0.000222 0.007320
vn 0.979905 0.178898 0.088213
v 0.006263 0.001048 0.007320
vn 0.667149 -0.326804 0.669411
v 0.006047 -0.005984 0.007320
vn 0.436116 -0.451312 0.778538
v 0.005926 -0.006136 0.007320
vn 0.226078 -0.503400 0.833953
v 0.005770 -0.006252 0.007320
# 108 vertices, 0 vertices normals

f 99//99 41//41 100//100
f 19//19 99//99 48//48
f 18//18 4//4 22//22
f 18//18 22//22 78//78
f 14//14 15//15 11//11
f 1//1 15//15 2//2
f 11//11 15//15 1//1
f 1//1 48//48 11//11
f 48//48 1//1 2//2
f 40//40 100//100 41//41
f 79//79 42//42 78//78
f 44//44 99//99 38//38
f 99//99 34//34 36//36
f 36//36 38//38 99//99
f 12//12 16//16 13//13
f 6//6 20//20 19//19
f 6//6 48//48 2//2
f 46//46 2//2 15//15
f 46//46 6//6 2//2
f 46//46 20//20 6//6
f 30//30 105//105 32//32
f 82//82 21//21 9//9
f 23//23 89//89 28//28
f 31//31 85//85 29//29
f 35//35 78//78 33//33
f 78//78 37//37 33//33
f 42//42 79//79 39//39
f 54//54 78//78 35//35
f 54//54 55//55 78//78
f 58//58 56//56 99//99
f 60//60 41//41 99//99
f 60//60 99//99 44//44
f 43//43 37//37 78//78
f 12//12 22//22 3//3
f 22//22 7//7 3//3
f 3//3 16//16 12//12
f 3//3 7//7 16//16
f 17//17 8//8 18//18
f 8//8 4//4 18//18
f 8//8 22//22 4//4
f 8//8 7//7 22//22
f 19//19 48//48 5//5
f 5//5 6//6 19//19
f 6//6 5//5 48//48
f 16//16 7//7 45//45
f 7//7 8//8 45//45
f 45//45 8//8 17//17
f 47//47 101//101 10//10
f 83//83 85//85 31//31
f 84//84 83//83 31//31
f 76//76 29//29 85//85
f 76//76 85//85 75//75
f 39//39 86//86 26//26
f 86//86 39//39 79//79
f 86//86 23//23 26//26
f 86//86 89//89 23//23
f 53//53 34//34 99//99
f 53//53 99//99 56//56
f 78//78 55//55 57//57
f 64//64 99//99 19//19
f 64//64 58//58 99//99
f 59//59 78//78 42//42
f 59//59 43//43 78//78
f 91//91 92//92 70//70
f 72//72 101//101 66//66
f 10//10 101//101 72//72
f 105//105 104//104 32//32
f 104//104 103//103 32//32
f 102//102 62//62 32//32
f 103//103 102//102 32//32
f 87//87 52//52 49//49
f 87//87 88//88 52//52
f 87//87 49//49 28//28
f 87//87 28//28 89//89
f 88//88 61//61 52//52
f 67//67 68//68 69//69
f 94//94 81//81 80//80
f 18//18 78//78 63//63
f 78//78 57//57 63//63
f 65//65 66//66 70//70
f 71//71 82//82 9//9
f 71//71 67//67 82//82
f 106//106 51//51 62//62
f 102//102 106//106 62//62
f 73//73 74//74 105//105
f 73//73 105//105 30//30
f 97//97 95//95 74//74
f 77//77 61//61 88//88
f 31//31 61//61 77//77
f 77//77 84//84 31//31
f 90//90 80//80 69//69
f 93//93 91//91 95//95
f 50//50 51//51 107//107
f 106//106 107//107 51//51
f 107//107 27//27 50//50
f 96//96 75//75 81//81
f 24//24 27//27 108//108
f 107//107 108//108 27//27
f 25//25 24//24 98//98
f 24//24 108//108 98//98
f 98//98 40//40 25//25
f 100//100 40//40 98//98
f 10//10 9//9 11//11
f 11//11 9//9 12//12
f 13//13 11//11 12//12
f 13//13 14//14 11//11
f 14//14 13//13 15//15
f 13//13 16//16 15//15
f 17//17 18//18 19//19
f 20//20 17//17 19//19
f 21//21 12//12 9//9
f 21//21 22//22 12//12
f 23//23 24//24 25//25
f 26//26 23//23 25//25
f 23//23 27//27 24//24
f 27//27 23//23 28//28
f 29//29 32//32 31//31
f 29//29 30//30 32//32
f 33//33 34//34 35//35
f 33//33 36//36 34//34
f 33//33 37//37 38//38
f 38//38 36//36 33//33
f 39//39 40//40 41//41
f 39//39 41//41 42//42
f 39//39 26//26 25//25
f 39//39 25//25 40//40
f 43//43 38//38 37//37
f 43//43 44//44 38//38
f 15//15 16//16 45//45
f 45//45 46//46 15//15
f 45//45 17//17 20//20
f 46//46 45//45 20//20
f 48//48 47//47 11//11
f 47//47 10//10 11//11
f 49//49 27//27 28//28
f 27//27 49//49 50//50
f 51//51 50//50 49//49
f 51//51 49//49 52//52
f 35//35 34//34 53//53
f 53//53 54//54 35//35
f 56//56 55//55 53//53
f 55//55 54//54 53//53
f 57//57 55//55 56//56
f 58//58 57//57 56//56
f 42//42 41//41 59//59
f 41//41 60//60 59//59
f 59//59 44//44 43//43
f 59//59 60//60 44//44
f 61//61 31//31 32//32
f 62//62 61//61 32//32
f 61//61 51//51 52//52
f 51//51 61//61 62//62
f 19//19 18//18 63//63
f 63//63 64//64 19//19
f 63//63 57//57 58//58
f 64//64 63//63 58//58
f 67//67 66//66 65//65
f 65//65 68//68 67//67
f 65//65 70//70 69//69
f 65//65 69//69 68//68
f 71//71 9//9 10//10
f 72//72 71//71 10//10
f 71//71 66//66 67//67
f 71//71 72//72 66//66
f 75//75 74//74 73//73
f 73//73 76//76 75//75
f 29//29 73//73 30//30
f 73//73 29//29 76//76
f 77//77 78//78 22//22
f 77//77 79//79 78//78
f 77//77 80//80 81//81
f 77//77 82//82 67//67
f 77//77 21//21 82//82
f 81//81 75//75 77//77
f 22//22 21//21 77//77
f 77//77 83//83 84//84
f 77//77 69//69 80//80
f 85//85 83//83 77//77
f 77//77 86//86 79//79
f 88//88 87//87 77//77
f 77//77 75//75 85//85
f 86//86 77//77 89//89
f 77//77 87//87 89//89
f 67//67 69//69 77//77
f 90//90 91//91 80//80
f 90//90 92//92 91//91
f 90//90 70//70 92//92
f 90//90 69//69 70//70
f 93//93 80//80 91//91
f 93//93 94//94 80//80
f 93//93 95//95 81//81
f 81//81 94//94 93//93
f 95//95 96//96 81//81
f 97//97 96//96 95//95
f 96//96 74//74 75//75
f 96//96 97//97 74//74
f 98//98 99//99 100//100
f 98//98 48//48 99//99
f 98//98 47//47 48//48
f 101//101 47//47 98//98
f 98//98 70//70 66//66
f 98//98 66//66 101//101
f 98//98 102//102 103//103
f 103//103 104//104 98//98
f 98//98 95//95 91//91
f 91//91 70//70 98//98
f 98//98 104//104 105//105
f 105//105 74//74 98//98
f 98//98 74//74 95//95
f 98//98 106//106 102//102
f 98//98 107//107 106//106
f 98//98 108//108 107//107
# 212 faces, 0 coords texture

# End of File