# Blender v2.82 (sub 7) OBJ File: 'torso_01.blend'
# www.blender.org
mtllib torso_coll_02.mtl
o torso_coll_02_Cube.002
v 0.038985 0.000000 -0.101534
v -0.118830 0.000000 -0.101534
v 0.035745 0.000000 -0.053691
v -0.118635 0.000000 -0.053691
v -0.039922 0.070266 -0.101534
v -0.039922 -0.070266 -0.101534
v -0.044434 0.063099 -0.053691
v -0.044434 -0.063099 -0.053691
v -0.043050 0.000000 -0.053691
v -0.039922 0.000000 -0.101534
v -0.118830 0.052335 -0.101534
v -0.102291 0.070266 -0.101534
v -0.118036 0.057886 -0.101534
v -0.115699 0.062900 -0.101534
v -0.112035 0.066872 -0.101534
v -0.107411 0.069405 -0.101534
v 0.022031 0.070266 -0.101534
v 0.038985 0.053655 -0.101534
v 0.027279 0.069469 -0.101534
v 0.032020 0.067122 -0.101534
v 0.035776 0.063442 -0.101534
v 0.038171 0.058797 -0.101534
v -0.102291 -0.070266 -0.101534
v -0.118830 -0.052335 -0.101534
v -0.107411 -0.069405 -0.101534
v -0.112035 -0.066872 -0.101534
v -0.115699 -0.062900 -0.101534
v -0.118036 -0.057886 -0.101534
v 0.038985 -0.053655 -0.101534
v 0.022031 -0.070266 -0.101534
v 0.038171 -0.058797 -0.101534
v 0.035776 -0.063442 -0.101534
v 0.032020 -0.067122 -0.101534
v 0.027279 -0.069469 -0.101534
v -0.102308 0.053061 -0.053691
v -0.118635 0.032297 -0.053691
v -0.107362 0.051323 -0.053691
v -0.111927 0.047998 -0.053691
v -0.115544 0.043398 -0.053691
v -0.117851 0.037984 -0.053691
v 0.030052 0.049197 -0.053691
v 0.011190 0.065064 -0.053691
v 0.028648 0.054266 -0.053691
v 0.025719 0.058785 -0.053691
v 0.021541 0.062300 -0.053691
v 0.016531 0.064459 -0.053691
v -0.118635 -0.032297 -0.053691
v -0.102308 -0.053061 -0.053691
v -0.117851 -0.037984 -0.053691
v -0.115544 -0.043398 -0.053691
v -0.111927 -0.047998 -0.053691
v -0.107362 -0.051323 -0.053691
v 0.011190 -0.065064 -0.053691
v 0.030052 -0.049197 -0.053691
v 0.016531 -0.064459 -0.053691
v 0.021541 -0.062300 -0.053691
v 0.025719 -0.058785 -0.053691
v 0.028648 -0.054266 -0.053691
v -0.102308 0.000000 -0.053691
v 0.011190 0.000000 -0.053691
v 0.011190 -0.047053 -0.053691
v -0.043944 -0.040787 -0.053691
v -0.102308 -0.034153 -0.053691
v 0.011190 0.047053 -0.053691
v -0.043944 0.040787 -0.053691
v -0.102308 0.034153 -0.053691
v -0.102291 0.000000 -0.101534
v 0.022031 0.000000 -0.101534
v 0.022031 0.053513 -0.101534
v -0.039922 0.052995 -0.101534
v -0.102291 0.052474 -0.101534
v 0.022031 -0.053513 -0.101534
v -0.039922 -0.052995 -0.101534
v -0.102291 -0.052474 -0.101534
v 0.035745 0.000000 -0.053691
v -0.118635 0.000000 -0.053691
v -0.044434 0.063099 -0.053691
v -0.044434 -0.063099 -0.053691
v -0.043050 0.000000 -0.053691
v -0.102308 0.053061 -0.053691
v -0.118635 0.032297 -0.053691
v -0.107362 0.051323 -0.053691
v -0.111927 0.047998 -0.053691
v -0.115544 0.043398 -0.053691
v -0.117851 0.037984 -0.053691
v 0.030052 0.049197 -0.053691
v 0.011190 0.065064 -0.053691
v 0.028648 0.054266 -0.053691
v 0.025719 0.058785 -0.053691
v 0.021541 0.062300 -0.053691
v 0.016531 0.064459 -0.053691
v -0.118635 -0.032297 -0.053691
v -0.102308 -0.053061 -0.053691
v -0.117851 -0.037984 -0.053691
v -0.115544 -0.043398 -0.053691
v -0.111927 -0.047998 -0.053691
v -0.107362 -0.051323 -0.053691
v 0.011190 -0.065064 -0.053691
v 0.030052 -0.049197 -0.053691
v 0.016531 -0.064459 -0.053691
v 0.021541 -0.062300 -0.053691
v 0.025719 -0.058785 -0.053691
v 0.028648 -0.054266 -0.053691
v -0.102308 0.000000 -0.053691
v 0.011190 0.000000 -0.053691
v 0.011190 -0.047053 -0.053691
v -0.043944 -0.040787 -0.053691
v -0.102308 -0.034153 -0.053691
v 0.011190 0.047053 -0.053691
v -0.043944 0.040787 -0.053691
v -0.102308 0.034153 -0.053691
vt 0.845197 0.526858
vt 0.875000 0.625000
vt 0.875000 0.526858
vt 0.840397 0.532127
vt 0.875000 0.625000
vt 0.830799 0.625919
vt 0.830458 0.722874
vt 0.875000 0.722495
vt 0.874344 0.731086
vt 0.843348 0.723800
vt 0.852977 0.749581
vt 0.861900 0.748347
vt 0.656898 0.750000
vt 0.750000 0.723800
vt 0.656652 0.723800
vt 0.625000 0.723800
vt 0.625000 0.625000
vt 0.625000 0.722495
vt 0.625000 0.625000
vt 0.625000 0.529203
vt 0.875000 0.723800
vt 0.656347 0.500000
vt 0.750000 0.539764
vt 0.659603 0.532127
vt 0.654803 0.526858
vt 0.655725 0.625000
vt 0.750000 0.500000
vt 0.654551 0.500000
vt 0.843653 0.500000
vt 0.750000 0.500000
vt 0.750000 0.750000
vt 0.669624 0.750000
vt 0.750000 0.750000
vt 0.750000 0.723560
vt 0.669542 0.722874
vt 0.875000 0.529203
vt 0.646621 0.500457
vt 0.645341 0.500430
vt 0.636894 0.501695
vt 0.637785 0.501810
vt 0.626865 0.511011
vt 0.627001 0.511532
vt 0.625473 0.518538
vt 0.625509 0.520043
vt 0.625000 0.526858
vt 0.655532 0.749568
vt 0.647024 0.749581
vt 0.642275 0.748289
vt 0.638100 0.748347
vt 0.627643 0.738993
vt 0.627013 0.739491
vt 0.625656 0.731086
vt 0.625510 0.731974
vt 0.843102 0.750000
vt 0.844468 0.749568
vt 0.857725 0.748289
vt 0.872357 0.738993
vt 0.872987 0.739491
vt 0.874489 0.731974
vt 0.845449 0.500000
vt 0.853379 0.500457
vt 0.863106 0.501695
vt 0.862215 0.501810
vt 0.873135 0.511011
vt 0.872999 0.511532
vt 0.874527 0.518538
vt 0.874491 0.520043
vt 0.830376 0.750000
vt 0.750000 0.627599
vt 0.669202 0.625919
vt 0.750000 0.625000
vt 0.844275 0.625000
vt 0.750000 0.526858
vt 0.854659 0.500430
vt 0.840397 0.532127
vt 0.875000 0.625000
vt 0.830799 0.625919
vt 0.830458 0.722874
vt 0.875000 0.722495
vt 0.874344 0.731086
vt 0.656347 0.500000
vt 0.750000 0.539764
vt 0.659603 0.532127
vt 0.750000 0.723560
vt 0.669624 0.750000
vt 0.669542 0.722874
vt 0.750000 0.627599
vt 0.669202 0.625919
vt 0.874491 0.520043
vt 0.875000 0.529203
vt 0.625000 0.722495
vt 0.625000 0.625000
vt 0.646621 0.500457
vt 0.655532 0.749568
vt 0.843653 0.500000
vt 0.750000 0.500000
vt 0.830376 0.750000
vt 0.750000 0.750000
vt 0.625656 0.731086
vt 0.642275 0.748289
vt 0.627643 0.738993
vt 0.844468 0.749568
vt 0.872357 0.738993
vt 0.857725 0.748289
vt 0.862215 0.501810
vt 0.853379 0.500457
vt 0.627001 0.511532
vt 0.625509 0.520043
vt 0.625000 0.529203
vt 0.872999 0.511532
vt 0.637785 0.501810
vn 0.0000 0.0000 -1.0000
vn 0.0000 0.0000 1.0000
vn -0.1611 -0.9287 0.3339
vn -0.0349 -0.9888 0.1448
vn 0.0000 0.9890 0.1482
vn 0.9830 0.0000 0.1835
vn 0.9911 0.1147 0.0671
vn -1.0000 0.0000 0.0041
vn 0.0000 0.9941 0.1081
vn 0.9663 -0.1530 0.2068
vn 0.8679 -0.4477 0.2152
vn 0.6840 -0.6981 0.2117
vn 0.4361 -0.8808 0.1843
vn 0.1488 -0.9795 0.1360
vn -0.9888 -0.1363 0.0611
vn -0.9074 -0.3867 0.1644
vn -0.7618 -0.5990 0.2466
vn -0.5607 -0.7698 0.3050
vn -0.3061 -0.8904 0.3368
vn -0.9880 0.1413 0.0626
vn -0.8928 0.4161 0.1725
vn -0.7098 0.6547 0.2599
vn -0.4560 0.8323 0.3151
vn -0.1563 0.9295 0.3342
vn 0.9441 0.2615 0.2007
vn 0.8180 0.5301 0.2235
vn 0.6290 0.7477 0.2131
vn 0.3892 0.9030 0.1820
vn 0.1116 0.9849 0.1324
vn 0.0000 -0.9890 0.1482
vn 0.0000 -0.9941 0.1081
vn -0.1611 0.9287 0.3339
vn 0.9911 -0.1147 0.0671
vn -0.0349 0.9888 0.1448
vn 0.9441 -0.2615 0.2007
vn 0.8180 -0.5301 0.2235
vn 0.6290 -0.7477 0.2131
vn 0.3892 -0.9030 0.1820
vn 0.1116 -0.9849 0.1324
vn -0.9880 -0.1413 0.0626
vn -0.8928 -0.4161 0.1725
vn -0.7098 -0.6547 0.2599
vn -0.4560 -0.8323 0.3151
vn -0.1563 -0.9295 0.3342
vn -0.9888 0.1363 0.0611
vn -0.9074 0.3867 0.1644
vn -0.7618 0.5990 0.2466
vn -0.5607 0.7698 0.3050
vn -0.3061 0.8904 0.3368
vn 0.9663 0.1530 0.2068
vn 0.8679 0.4477 0.2152
vn 0.6840 0.6981 0.2117
vn 0.4361 0.8808 0.1843
vn 0.1488 0.9795 0.1360
usemtl None
s off
f 69/1/1 5/2/1 17/3/1
f 64/4/2 7/5/2 65/6/2
f 66/7/2 35/8/2 37/9/2
f 71/10/1 13/11/1 14/12/1
f 24/13/1 67/14/1 74/15/1
f 23/16/3 8/17/3 48/18/3
f 6/19/4 53/20/4 8/17/4
f 12/21/5 7/5/5 5/2/5
f 54/22/2 60/23/2 61/24/2
f 72/25/1 6/19/1 73/26/1
f 1/27/6 54/22/6 29/28/6
f 1/27/7 41/29/7 3/30/7
f 2/31/8 47/32/8 4/33/8
f 59/34/2 47/32/2 63/35/2
f 5/2/9 42/36/9 17/3/9
f 29/28/10 58/37/10 31/38/10
f 58/37/11 32/39/11 31/38/11
f 57/40/12 33/41/12 32/39/12
f 56/42/13 34/43/13 33/41/13
f 55/44/14 30/45/14 34/43/14
f 24/13/15 49/46/15 47/32/15
f 28/47/16 50/48/16 49/46/16
f 27/49/17 51/50/17 50/48/17
f 26/51/18 52/52/18 51/50/18
f 25/53/19 48/18/19 52/52/19
f 11/54/20 40/55/20 13/11/20
f 13/11/21 39/56/21 14/12/21
f 14/12/22 38/57/22 15/58/22
f 15/58/23 37/9/23 16/59/23
f 16/59/24 35/8/24 12/21/24
f 18/60/25 43/61/25 41/29/25
f 43/61/26 21/62/26 44/63/26
f 44/63/27 20/64/27 45/65/27
f 45/65/28 19/66/28 46/67/28
f 46/67/29 17/3/29 42/36/29
f 2/31/8 36/68/8 11/54/8
f 9/69/2 63/35/2 62/70/2
f 65/6/2 35/8/2 66/7/2
f 62/70/2 60/23/2 9/69/2
f 64/4/2 46/67/2 42/36/2
f 62/70/2 48/18/2 8/17/2
f 8/17/2 61/24/2 62/70/2
f 61/24/2 58/37/2 54/22/2
f 63/35/2 47/32/2 49/46/2
f 9/69/2 66/7/2 59/34/2
f 60/23/2 65/6/2 9/69/2
f 41/29/2 60/23/2 3/30/2
f 59/34/2 36/68/2 4/33/2
f 63/35/2 52/52/2 48/18/2
f 63/35/2 50/48/2 51/50/2
f 66/7/2 40/55/2 36/68/2
f 66/7/2 38/57/2 39/56/2
f 44/63/2 64/4/2 43/61/2
f 41/29/2 43/61/2 64/4/2
f 56/42/2 61/24/2 55/44/2
f 53/20/2 55/44/2 61/24/2
f 74/15/1 10/71/1 73/26/1
f 70/72/1 12/21/1 5/2/1
f 72/25/1 34/43/1 30/45/1
f 69/1/1 17/3/1 19/66/1
f 10/71/1 71/10/1 70/72/1
f 68/73/1 70/72/1 69/1/1
f 1/27/1 69/1/1 18/60/1
f 67/14/1 11/54/1 71/10/1
f 23/16/1 73/26/1 6/19/1
f 68/73/1 73/26/1 10/71/1
f 1/27/1 72/25/1 68/73/1
f 74/15/1 28/47/1 24/13/1
f 26/51/1 74/15/1 25/53/1
f 23/16/1 25/53/1 74/15/1
f 71/10/1 15/58/1 16/59/1
f 12/21/1 71/10/1 16/59/1
f 69/1/1 22/74/1 18/60/1
f 69/1/1 20/64/1 21/62/1
f 32/39/1 72/25/1 31/38/1
f 29/28/1 31/38/1 72/25/1
f 109/75/2 77/76/2 110/77/2
f 111/78/2 80/79/2 82/80/2
f 99/81/2 105/82/2 106/83/2
f 104/84/2 92/85/2 108/86/2
f 79/87/2 108/86/2 107/88/2
f 110/77/2 80/79/2 111/78/2
f 107/88/2 105/82/2 79/87/2
f 109/75/2 91/89/2 87/90/2
f 107/88/2 93/91/2 78/92/2
f 78/92/2 106/83/2 107/88/2
f 106/83/2 103/93/2 99/81/2
f 108/86/2 92/85/2 94/94/2
f 79/87/2 111/78/2 104/84/2
f 105/82/2 110/77/2 79/87/2
f 86/95/2 105/82/2 75/96/2
f 104/84/2 81/97/2 76/98/2
f 108/86/2 97/99/2 93/91/2
f 108/86/2 95/100/2 96/101/2
f 111/78/2 85/102/2 81/97/2
f 111/78/2 83/103/2 84/104/2
f 89/105/2 109/75/2 88/106/2
f 86/95/2 88/106/2 109/75/2
f 101/107/2 106/83/2 100/108/2
f 98/109/2 100/108/2 106/83/2
f 69/1/1 70/72/1 5/2/1
f 64/4/2 42/36/2 7/5/2
f 71/10/1 11/54/1 13/11/1
f 24/13/1 2/31/1 67/14/1
f 23/16/30 6/19/30 8/17/30
f 6/19/31 30/45/31 53/20/31
f 12/21/32 35/8/32 7/5/32
f 54/22/2 3/30/2 60/23/2
f 72/25/1 30/45/1 6/19/1
f 1/27/33 3/30/33 54/22/33
f 1/27/6 18/60/6 41/29/6
f 2/31/8 24/13/8 47/32/8
f 59/34/2 4/33/2 47/32/2
f 5/2/34 7/5/34 42/36/34
f 29/28/35 54/22/35 58/37/35
f 58/37/36 57/40/36 32/39/36
f 57/40/37 56/42/37 33/41/37
f 56/42/38 55/44/38 34/43/38
f 55/44/39 53/20/39 30/45/39
f 24/13/40 28/47/40 49/46/40
f 28/47/41 27/49/41 50/48/41
f 27/49/42 26/51/42 51/50/42
f 26/51/43 25/53/43 52/52/43
f 25/53/44 23/16/44 48/18/44
f 11/54/45 36/68/45 40/55/45
f 13/11/46 40/55/46 39/56/46
f 14/12/47 39/56/47 38/57/47
f 15/58/48 38/57/48 37/9/48
f 16/59/49 37/9/49 35/8/49
f 18/60/50 22/74/50 43/61/50
f 43/61/51 22/74/51 21/62/51
f 44/63/52 21/62/52 20/64/52
f 45/65/53 20/64/53 19/66/53
f 46/67/54 19/66/54 17/3/54
f 2/31/8 4/33/8 36/68/8
f 9/69/2 59/34/2 63/35/2
f 65/6/2 7/5/2 35/8/2
f 62/70/2 61/24/2 60/23/2
f 64/4/2 45/65/2 46/67/2
f 62/70/2 63/35/2 48/18/2
f 8/17/2 53/20/2 61/24/2
f 61/24/2 57/40/2 58/37/2
f 9/69/2 65/6/2 66/7/2
f 60/23/2 64/4/2 65/6/2
f 41/29/2 64/4/2 60/23/2
f 59/34/2 66/7/2 36/68/2
f 63/35/2 51/50/2 52/52/2
f 63/35/2 49/46/2 50/48/2
f 66/7/2 39/56/2 40/55/2
f 66/7/2 37/9/2 38/57/2
f 44/63/2 45/65/2 64/4/2
f 56/42/2 57/40/2 61/24/2
f 74/15/1 67/14/1 10/71/1
f 70/72/1 71/10/1 12/21/1
f 72/25/1 33/41/1 34/43/1
f 10/71/1 67/14/1 71/10/1
f 68/73/1 10/71/1 70/72/1
f 1/27/1 68/73/1 69/1/1
f 67/14/1 2/31/1 11/54/1
f 23/16/1 74/15/1 73/26/1
f 68/73/1 72/25/1 73/26/1
f 1/27/1 29/28/1 72/25/1
f 74/15/1 27/49/1 28/47/1
f 26/51/1 27/49/1 74/15/1
f 71/10/1 14/12/1 15/58/1
f 69/1/1 21/62/1 22/74/1
f 69/1/1 19/66/1 20/64/1
f 32/39/1 33/41/1 72/25/1
f 109/75/2 87/90/2 77/76/2
f 99/81/2 75/96/2 105/82/2
f 104/84/2 76/98/2 92/85/2
f 79/87/2 104/84/2 108/86/2
f 110/77/2 77/76/2 80/79/2
f 107/88/2 106/83/2 105/82/2
f 109/75/2 90/110/2 91/89/2
f 107/88/2 108/86/2 93/91/2
f 78/92/2 98/109/2 106/83/2
f 106/83/2 102/111/2 103/93/2
f 79/87/2 110/77/2 111/78/2
f 105/82/2 109/75/2 110/77/2
f 86/95/2 109/75/2 105/82/2
f 104/84/2 111/78/2 81/97/2
f 108/86/2 96/101/2 97/99/2
f 108/86/2 94/94/2 95/100/2
f 111/78/2 84/104/2 85/102/2
f 111/78/2 82/80/2 83/103/2
f 89/105/2 90/110/2 109/75/2
f 101/107/2 102/111/2 106/83/2
