####
#
# OBJ File Generated by Meshlab
#
####
# Object aj2_right.obj
#
# Vertices: 143
# Faces: 276
#
####
mtllib ./aj2_right.obj.mtl

vn 0.810389 0.505731 -0.295815
v 0.052034 -0.067695 -0.048426
vn 0.677709 -0.184411 -0.711831
v 0.050577 -0.131811 -0.049945
vn 0.000007 0.104003 -0.994577
v -0.000005 -0.070227 -0.071166
vn 0.407318 0.908282 -0.095476
v 0.036820 -0.099891 -0.033061
vn 0.406815 -0.255924 -0.876929
v 0.040889 -0.037226 -0.027868
vn 0.392207 -0.650465 -0.650437
v 0.063534 -0.036374 -0.036370
vn 0.403558 0.008854 -0.914911
v 0.063536 -0.000004 -0.051435
vn 0.674151 0.588771 -0.445948
v 0.063539 0.036366 -0.036370
vn 0.070553 0.951769 -0.298593
v 0.037907 -0.060352 -0.060122
vn 0.810389 0.505731 0.295815
v 0.052034 -0.067695 0.048426
vn 0.677709 -0.184411 0.711831
v 0.050577 -0.131811 0.049945
vn 0.913687 0.406419 -0.000000
v 0.070999 -0.078213 -0.000000
vn 0.214391 -0.976748 -0.000000
v 0.070999 -0.131807 -0.000000
vn 0.000008 0.104003 0.994577
v -0.000005 -0.070227 0.071166
vn 0.407318 0.908282 0.095476
v 0.036820 -0.099891 0.033061
vn 0.744892 0.667185 -0.000000
v 0.051277 -0.099891 -0.000000
vn 0.993204 -0.116388 -0.000000
v 0.047018 -0.051439 -0.000000
vn 0.406815 -0.255924 0.876929
v 0.040889 -0.037226 0.027868
vn 0.982815 -0.184594 -0.000000
v 0.063533 -0.051439 -0.000000
vn 0.392207 -0.650466 0.650437
v 0.063534 -0.036374 0.036370
vn 0.677090 0.007096 0.735866
v 0.063536 -0.000004 0.051435
vn 0.154750 0.787568 0.596480
v 0.063539 0.036366 0.036370
vn 0.909791 0.415068 -0.000000
v 0.063540 0.051431 -0.000000
vn 0.070553 0.951769 0.298593
v 0.037907 -0.060352 0.060122
vn 0.000043 0.603748 -0.797175
v 0.000003 0.036370 -0.036370
vn -0.000066 -0.916732 -0.399503
v -0.000009 -0.131813 -0.071099
vn -0.810316 0.505848 -0.295815
v -0.052044 -0.067688 -0.048426
vn -0.677736 -0.184314 -0.711831
v -0.050595 -0.131804 -0.049945
vn 0.000032 0.442534 -0.896752
v -0.000007 -0.099891 -0.051283
vn -0.407188 0.908341 -0.095476
v -0.036834 -0.099885 -0.033061
vn -0.406852 -0.255865 -0.876929
v -0.040895 -0.037220 -0.027868
vn -0.000005 -0.062254 -0.998060
v -0.000000 0.000000 -0.051435
vn -0.239592 -0.686503 -0.686520
v -0.063539 -0.036365 -0.036370
vn -0.033896 0.009705 -0.999378
v -0.063536 0.000005 -0.051435
vn -0.146705 0.788554 -0.597211
v -0.063534 0.036375 -0.036370
vn -0.070416 0.951779 -0.298593
v -0.037916 -0.060347 -0.060122
vn 0.000043 0.603748 0.797175
v 0.000003 0.036370 0.036370
vn -0.000066 -0.916732 0.399503
v -0.000009 -0.131813 0.071099
vn -0.810316 0.505848 0.295815
v -0.052044 -0.067688 0.048426
vn -0.677736 -0.184314 0.711831
v -0.050595 -0.131804 0.049945
vn -0.913629 0.406550 0.000000
v -0.071011 -0.078203 0.000000
vn -0.214532 -0.976717 0.000000
v -0.071018 -0.131797 0.000000
vn 0.000032 0.442534 0.896752
v -0.000007 -0.099891 0.051283
vn -0.407188 0.908341 0.095476
v -0.036834 -0.099885 0.033061
vn -0.744797 0.667292 0.000000
v -0.051292 -0.099883 0.000000
vn -0.993221 -0.116245 0.000000
v -0.047026 -0.051432 0.000000
vn -0.406852 -0.255865 0.876929
v -0.040895 -0.037220 0.027868
vn -0.000004 -0.062254 0.998060
v 0.000000 0.000000 0.051435
vn -0.229697 -0.973262 0.000000
v -0.063540 -0.051430 0.000000
vn -0.239591 -0.686503 0.686520
v -0.063539 -0.036365 0.036370
vn -0.064323 0.009693 0.997882
v -0.063536 0.000005 0.051435
vn -0.113486 0.792028 0.599844
v -0.063534 0.036375 0.036370
vn -0.170446 0.985367 -0.000000
v -0.063533 0.051440 0.000000
vn 0.000072 1.000000 -0.000000
v 0.000004 0.051435 0.000000
vn -0.070416 0.951779 0.298593
v -0.037916 -0.060347 0.060122
vn -0.191585 -0.592555 -0.782415
v -0.063539 -0.030909 -0.030914
vn -0.191612 -0.972247 -0.134241
v -0.063540 -0.043713 0.000000
vn -0.258349 0.132149 -0.956971
v -0.063536 0.000005 -0.043719
vn -0.182872 0.695189 -0.695176
v -0.063534 0.030919 -0.030914
vn -0.146098 0.989270 0.000000
v -0.063533 0.043724 0.000000
vn -0.146219 -0.699502 0.699512
v -0.063539 -0.030909 0.030914
vn -0.283397 0.000020 0.959003
v -0.063536 0.000005 0.043719
vn -0.191500 0.592583 0.782415
v -0.063534 0.030919 0.030914
vn -0.199850 -0.781088 -0.591575
v -0.105011 -0.030906 -0.030914
vn -0.921773 -0.384084 0.053040
v -0.105012 -0.043710 0.000000
vn -0.812229 -0.079728 -0.577865
v -0.105009 0.000008 -0.043719
vn -0.152522 0.698839 -0.698828
v -0.105006 0.030922 -0.030914
vn -0.963483 0.267771 0.000000
v -0.105006 0.043727 0.000000
vn -0.295065 -0.675614 0.675635
v -0.105011 -0.030906 0.030914
vn -0.725501 0.000052 0.688221
v -0.105009 0.000008 0.043719
vn -0.199737 0.781117 0.591575
v -0.105006 0.030922 0.030914
vn 0.406815 -0.255924 -0.876929
v 0.040889 -0.037226 -0.027868
vn -0.000005 -0.062254 -0.998060
v -0.000000 0.000000 -0.051435
vn 0.407318 0.908282 -0.095476
v 0.036820 -0.099891 -0.033061
vn 0.913687 0.406419 -0.000000
v 0.070999 -0.078213 -0.000000
vn 0.810389 0.505731 -0.295815
v 0.052034 -0.067695 -0.048426
vn 0.070553 0.951769 -0.298593
v 0.037907 -0.060352 -0.060122
vn 0.406815 -0.255924 0.876929
v 0.040889 -0.037226 0.027868
vn 0.407318 0.908282 0.095476
v 0.036820 -0.099891 0.033061
vn 0.000032 0.442534 0.896752
v -0.000007 -0.099891 0.051283
vn 0.070553 0.951769 0.298593
v 0.037907 -0.060352 0.060122
vn -0.000066 -0.916732 -0.399503
v -0.000009 -0.131813 -0.071099
vn 0.214391 -0.976748 -0.000000
v 0.070999 -0.131807 -0.000000
vn 0.810389 0.505731 0.295815
v 0.052034 -0.067695 0.048426
vn -0.214532 -0.976717 0.000000
v -0.071018 -0.131797 0.000000
vn -0.406852 -0.255865 -0.876929
v -0.040895 -0.037220 -0.027868
vn -0.407188 0.908341 -0.095476
v -0.036834 -0.099885 -0.033061
vn -0.913629 0.406550 0.000000
v -0.071011 -0.078203 0.000000
vn -0.810316 0.505848 -0.295815
v -0.052044 -0.067688 -0.048426
vn -0.000004 -0.062254 0.998060
v 0.000000 0.000000 0.051435
vn -0.406852 -0.255865 0.876929
v -0.040895 -0.037220 0.027868
vn -0.407188 0.908341 0.095476
v -0.036834 -0.099885 0.033061
vn -0.810316 0.505848 0.295815
v -0.052044 -0.067688 0.048426
vn -0.070416 0.951779 0.298593
v -0.037916 -0.060347 0.060122
vn -0.239592 -0.686503 -0.686520
v -0.063539 -0.036365 -0.036370
vn -0.229697 -0.973262 0.000000
v -0.063540 -0.051430 0.000000
vn -0.033896 0.009705 -0.999378
v -0.063536 0.000005 -0.051435
vn -0.146705 0.788554 -0.597211
v -0.063534 0.036375 -0.036370
vn -0.146098 0.989270 0.000000
v -0.063533 0.043724 0.000000
vn -0.170446 0.985367 -0.000000
v -0.063533 0.051440 0.000000
vn -0.239591 -0.686503 0.686520
v -0.063539 -0.036365 0.036370
vn -0.064323 0.009693 0.997882
v -0.063536 0.000005 0.051435
vn -0.113486 0.792028 0.599844
v -0.063534 0.036375 0.036370
vn -0.963483 0.267771 0.000000
v -0.105006 0.043727 0.000000
vn -0.191500 0.592583 0.782415
v -0.063534 0.030919 0.030914
vn -0.725501 0.000052 0.688221
v -0.105009 0.000008 0.043719
vn -0.146219 -0.699502 0.699512
v -0.063539 -0.030909 0.030914
vn -0.283397 0.000020 0.959003
v -0.063536 0.000005 0.043719
vn -0.921773 -0.384084 0.053040
v -0.105012 -0.043710 0.000000
vn -0.182872 0.695189 -0.695176
v -0.063534 0.030919 -0.030914
vn -0.258349 0.132149 -0.956971
v -0.063536 0.000005 -0.043719
vn -0.191585 -0.592555 -0.782415
v -0.063539 -0.030909 -0.030914
vn -0.191612 -0.972247 -0.134241
v -0.063540 -0.043713 0.000000
vn 0.000032 0.442534 -0.896752
v -0.000007 -0.099891 -0.051283
vn -0.070416 0.951779 -0.298593
v -0.037916 -0.060347 -0.060122
vn 0.909791 0.415068 -0.000000
v 0.063540 0.051431 -0.000000
vn 0.677090 0.007096 0.735866
v 0.063536 -0.000004 0.051435
vn 0.982815 -0.184594 -0.000000
v 0.063533 -0.051439 -0.000000
vn 0.993204 -0.116388 -0.000000
v 0.047018 -0.051439 -0.000000
vn 0.000007 0.104003 -0.994577
v -0.000005 -0.070227 -0.071166
vn 0.744892 0.667185 -0.000000
v 0.051277 -0.099891 -0.000000
vn 0.000008 0.104003 0.994577
v -0.000005 -0.070227 0.071166
vn -0.000066 -0.916732 0.399503
v -0.000009 -0.131813 0.071099
vn -0.677736 -0.184314 0.711831
v -0.050595 -0.131804 0.049945
vn 0.677709 -0.184411 0.711831
v 0.050577 -0.131811 0.049945
vn 0.677709 -0.184411 -0.711831
v 0.050577 -0.131811 -0.049945
vn -0.677736 -0.184314 -0.711831
v -0.050595 -0.131804 -0.049945
vn -0.993221 -0.116245 0.000000
v -0.047026 -0.051432 0.000000
vn -0.744797 0.667292 0.000000
v -0.051292 -0.099883 0.000000
vn 0.000032 0.442534 0.896752
v -0.000007 -0.099891 0.051283
vn -0.812229 -0.079728 -0.577865
v -0.105009 0.000008 -0.043719
vn -0.199850 -0.781088 -0.591575
v -0.105011 -0.030906 -0.030914
vn -0.152522 0.698839 -0.698828
v -0.105006 0.030922 -0.030914
vn -0.199737 0.781117 0.591575
v -0.105006 0.030922 0.030914
vn -0.295065 -0.675614 0.675635
v -0.105011 -0.030906 0.030914
vn 0.674151 0.588771 -0.445948
v 0.063539 0.036366 -0.036370
vn 0.392207 -0.650465 -0.650437
v 0.063534 -0.036374 -0.036370
vn 0.403558 0.008854 -0.914911
v 0.063536 -0.000004 -0.051435
vn 0.392207 -0.650466 0.650437
v 0.063534 -0.036374 0.036370
vn 0.154750 0.787568 0.596480
v 0.063539 0.036366 0.036370
vn -0.000066 -0.916732 0.399503
v -0.000009 -0.131813 0.071099
vn 0.000008 0.104003 0.994577
v -0.000005 -0.070227 0.071166
vn 0.000008 0.104003 0.994577
v -0.000005 -0.070227 0.071166
# 143 vertices, 0 vertices normals


usemtl material_0
vt 0.212653 0.225055
vt 0.200025 0.150352
vt 0.236677 0.127642
f 25/1/25 8/2/8 7/3/7
vt 0.485594 0.784200
vt 0.486839 0.700469
vt 0.571140 0.701716
f 12/4/12 13/5/13 2/6/2
vt 0.434639 0.575552
vt 0.313978 0.694879
vt 0.313834 0.535050
f 29/7/29 32/8/32 5/9/5
vt 0.428030 0.549395
vt 0.368487 0.458795
f 4/10/4 5/9/5 17/11/17
vt 0.302748 0.036656
vt 0.236559 0.078343
vt 0.192686 0.043791
f 72/12/72 6/13/6 19/14/19
vt 0.313413 0.245860
f 72/12/72 73/15/73 7/3/7
vt 0.656812 0.702043
vt 0.656812 0.798269
f 2/6/2 26/16/26 3/17/3
vt 0.388704 0.263898
vt 0.333536 0.288970
vt 0.313834 0.265206
f 74/18/74 1/19/1 9/20/9
vt 0.156812 0.214908
vt 0.167418 0.152536
f 54/21/54 23/22/23 8/2/8
vt 0.394307 0.345363
f 75/23/75 1/19/1 74/18/74
vt 0.566599 0.801848
vt 0.595109 0.813684
f 76/24/76 2/6/2 77/25/77
vt 0.100970 0.204760
vt 0.000210 0.183955
vt 0.118640 0.107880
f 37/26/37 48/27/48 21/28/21
vt 0.402537 0.699210
f 11/29/11 13/5/13 12/4/12
vt 0.484429 0.524526
vt 0.458535 0.517436
vt 0.444758 0.403586
f 43/30/43 15/31/15 18/32/18
vt 0.439070 0.528491
f 15/31/15 16/33/16 17/11/17
vt 0.138621 0.062108
vt 0.093851 0.000210
f 19/14/19 20/34/20 78/35/78
f 78/35/78 20/34/20 21/28/21
vt 0.375251 0.810415
vt 0.313834 0.793167
f 11/29/11 24/36/24 14/37/14
vt 0.474574 0.330359
vt 0.538774 0.330114
vt 0.492081 0.403166
f 79/38/79 80/39/80 81/40/81
vt 0.138797 0.142726
f 54/21/54 37/26/37 22/41/22
vt 0.464137 0.390052
f 79/38/79 10/42/10 75/23/75
vt 0.698669 0.205600
vt 0.553374 0.146098
vt 0.613060 0.000878
f 42/43/42 82/44/82 83/45/83
vt 0.404100 0.799432
f 84/46/84 24/36/24 11/29/11
vt 0.194983 0.321936
f 25/1/25 73/15/73 34/47/34
vt 0.742484 0.701717
vt 0.826786 0.700471
vt 0.828030 0.784202
f 28/48/28 85/49/85 41/50/41
vt 0.460463 0.582666
vt 0.473719 0.696568
f 29/7/29 30/51/30 31/52/31
vt 0.480087 0.572213
vt 0.550266 0.642308
f 30/51/30 45/53/45 46/54/46
vt 0.120937 0.386025
vt 0.175002 0.367707
vt 0.219772 0.429605
f 49/55/49 33/56/33 86/57/86
f 86/57/86 33/56/33 34/47/34
vt 0.174826 0.287090
f 54/21/54 25/1/25 35/58/35
vt 0.388704 0.139478
vt 0.333536 0.114406
vt 0.394307 0.058013
f 87/59/87 27/60/27 88/61/88
vt 0.747024 0.801848
vt 0.718515 0.813685
f 89/62/89 36/63/36 28/48/28
vt 0.113598 0.279464
vt 0.076946 0.302174
f 37/26/37 52/64/52 51/65/51
vt 0.911087 0.699212
f 41/50/41 85/49/85 40/66/40
vt 0.605524 0.404998
vt 0.605524 0.566006
f 43/30/43 90/67/90 47/68/47
vt 0.491048 0.551485
f 44/69/44 47/68/47 46/54/46
vt 0.010875 0.393159
vt 0.077064 0.351472
f 91/70/91 50/71/50 49/55/49
f 91/70/91 48/27/48 51/65/51
vt 0.474574 0.073017
vt 0.464137 0.013324
vt 0.492081 0.000210
f 92/72/92 39/73/39 55/74/55
vt 0.146205 0.277279
f 54/21/54 53/75/53 52/64/52
f 88/61/88 39/73/39 92/72/92
vt 0.909524 0.799434
vt 0.938372 0.810418
f 93/76/93 40/66/40 94/77/94
vt 0.066824 0.431711
vt 0.100104 0.504784
vt 0.075096 0.522590
f 60/78/60 68/79/68 71/80/71
vt 0.743303 0.451695
vt 0.754443 0.447081
vt 0.754443 0.508591
f 56/81/56 95/82/95 96/83/96
vt 0.706334 0.414725
vt 0.710948 0.403586
f 58/84/58 97/85/97 95/82/95
vt 0.654052 0.414725
vt 0.649438 0.403587
f 58/84/58 59/86/59 98/87/98
vt 0.617083 0.451695
vt 0.605944 0.447081
f 99/88/99 100/89/100 98/87/98
vt 0.743303 0.503977
vt 0.710948 0.552085
f 57/90/57 96/83/96 101/91/101
vt 0.706334 0.540946
vt 0.649438 0.552085
f 61/92/61 101/91/101 102/93/102
vt 0.654052 0.540946
vt 0.605944 0.508591
f 62/94/62 102/93/102 103/95/103
vt 0.617083 0.503977
f 63/96/63 103/95/103 100/89/100
vt 0.732165 0.641757
vt 0.642913 0.678726
vt 0.605944 0.589474
f 65/97/65 70/98/70 104/99/104
vt 0.000888 0.494469
vt 0.072344 0.552043
f 105/100/105 71/80/71 106/101/106
vt 0.065248 0.650358
vt 0.000210 0.585898
f 107/102/107 108/103/108 106/101/106
vt 0.092219 0.574825
vt 0.123112 0.577179
f 107/102/107 69/104/69 109/105/109
vt 0.156646 0.430026
vt 0.130937 0.504953
f 60/78/60 110/106/110 67/107/67
vt 0.222351 0.493539
vt 0.150130 0.527476
f 111/108/111 66/109/66 67/107/67
vt 0.222351 0.585472
vt 0.146983 0.557491
f 112/110/112 64/111/64 66/109/66
vt 0.157031 0.650216
f 113/112/113 109/105/109 64/111/64
f 28/48/28 36/63/36 3/17/3
vt 0.372844 0.201688
vt 0.313834 0.138170
f 87/59/87 114/113/114 115/114/115
vt 0.553374 0.250181
vt 0.658378 0.206687
vt 0.701872 0.311692
f 116/115/116 117/116/117 118/117/118
f 73/15/73 25/1/25 7/3/7
f 76/24/76 12/4/12 2/6/2
f 4/10/4 29/7/29 5/9/5
f 16/33/16 4/10/4 17/11/17
vt 0.200415 0.000210
f 119/118/119 72/12/72 19/14/19
f 6/13/6 72/12/72 7/3/7
f 77/25/77 2/6/2 3/17/3
f 9/20/9 114/113/114 74/18/74
vt 0.317046 0.201688
f 114/113/114 9/20/9 120/119/120
f 25/1/25 54/21/54 8/2/8
vt 0.422334 0.309150
f 121/120/121 75/23/75 74/18/74
f 22/41/22 37/26/37 21/28/21
f 84/46/84 11/29/11 12/4/12
f 90/67/90 43/30/43 18/32/18
f 18/32/18 15/31/15 17/11/17
f 119/118/119 19/14/19 78/35/78
f 48/27/48 78/35/78 21/28/21
vt 0.316893 0.696989
f 38/121/38 11/29/11 14/37/14
f 81/40/81 10/42/10 79/38/79
vt 0.552953 0.384080
f 80/39/80 122/122/122 81/40/81
f 23/22/23 54/21/54 22/41/22
f 121/120/121 79/38/79 75/23/75
vt 0.758355 0.060380
vt 0.758355 0.146052
f 123/123/123 124/124/124 42/43/42
vt 0.697368 0.000210
f 83/45/83 125/125/125 123/123/123
vt 0.553374 0.060425
f 82/44/82 126/126/126 83/45/83
vt 0.614361 0.206267
f 42/43/42 127/127/127 82/44/82
f 83/45/83 123/123/123 42/43/42
f 35/58/35 25/1/25 34/47/34
f 89/62/89 28/48/28 41/50/41
f 32/8/32 29/7/29 31/52/31
f 31/52/31 30/51/30 46/54/46
vt 0.113208 0.429605
f 128/128/128 49/55/49 86/57/86
f 73/15/73 86/57/86 34/47/34
f 53/75/53 54/21/54 35/58/35
vt 0.422334 0.094226
f 129/129/129 87/59/87 88/61/88
f 48/27/48 37/26/37 51/65/51
f 93/76/93 41/50/41 40/66/40
f 44/69/44 43/30/43 47/68/47
f 45/53/45 44/69/44 46/54/46
f 128/128/128 91/70/91 49/55/49
f 50/71/50 91/70/91 51/65/51
vt 0.538774 0.073262
f 55/74/55 130/130/130 92/72/92
f 37/26/37 54/21/54 52/64/52
f 129/129/129 88/61/88 92/72/92
f 105/100/105 60/78/60 71/80/71
f 57/90/57 56/81/56 96/83/96
f 56/81/56 58/84/58 95/82/95
f 97/85/97 58/84/58 98/87/98
f 59/86/59 99/88/99 98/87/98
f 61/92/61 57/90/57 101/91/101
f 62/94/62 61/92/61 102/93/102
f 63/96/63 62/94/62 103/95/103
f 99/88/99 63/96/63 100/89/100
vt 0.695195 0.552505
vt 0.732165 0.589475
f 131/131/131 132/132/132 65/97/65
vt 0.642913 0.552505
f 104/99/104 133/133/133 131/131/131
vt 0.605944 0.641757
f 70/98/70 134/134/134 104/99/104
vt 0.695195 0.678726
f 65/97/65 135/135/135 70/98/70
f 104/99/104 131/131/131 65/97/65
f 108/103/108 105/100/105 106/101/106
f 69/104/69 107/102/107 106/101/106
f 113/112/113 107/102/107 109/105/109
f 68/79/68 60/78/60 67/107/67
f 110/106/110 111/108/111 67/107/67
f 111/108/111 112/110/112 66/109/66
f 112/110/112 113/112/113 64/111/64
f 26/16/26 28/48/28 3/17/3
f 115/114/115 27/60/27 87/59/87
f 114/113/114 120/119/120 115/114/115
vt 0.553374 0.311692
f 118/117/118 136/136/136 116/115/116
vt 0.658378 0.355186
vt 0.596868 0.355186
f 118/117/118 137/137/137 138/138/138
vt 0.701872 0.250182
f 117/116/117 139/139/139 118/117/118
vt 0.596868 0.206687
f 116/115/116 140/140/140 117/116/117
f 118/117/118 138/138/138 136/136/136
vt 0.996731 0.696993
vt 0.999790 0.793171
f 40/66/40 141/141/141 142/142/142
f 94/77/94 40/66/40 142/142/142
vt 0.552953 0.019296
f 130/130/130 55/74/55 143/143/143
f 25/1/25 8/2/8 7/3/7
f 12/4/12 13/5/13 2/6/2
f 29/7/29 32/8/32 5/9/5
f 4/10/4 5/9/5 17/11/17
f 72/12/72 6/13/6 19/14/19
f 72/12/72 73/15/73 7/3/7
f 2/6/2 26/16/26 3/17/3
f 74/18/74 1/19/1 9/20/9
f 54/21/54 23/22/23 8/2/8
f 75/23/75 1/19/1 74/18/74
f 76/24/76 2/6/2 77/25/77
f 37/26/37 48/27/48 21/28/21
f 11/29/11 13/5/13 12/4/12
f 43/30/43 15/31/15 18/32/18
f 15/31/15 16/33/16 17/11/17
f 19/14/19 20/34/20 78/35/78
f 78/35/78 20/34/20 21/28/21
f 11/29/11 24/36/24 14/37/14
f 79/38/79 80/39/80 81/40/81
f 54/21/54 37/26/37 22/41/22
f 79/38/79 10/42/10 75/23/75
f 42/43/42 82/44/82 83/45/83
f 84/46/84 24/36/24 11/29/11
f 25/1/25 73/15/73 34/47/34
f 28/48/28 85/49/85 41/50/41
f 29/7/29 30/51/30 31/52/31
f 30/51/30 45/53/45 46/54/46
f 49/55/49 33/56/33 86/57/86
f 86/57/86 33/56/33 34/47/34
f 54/21/54 25/1/25 35/58/35
f 87/59/87 27/60/27 88/61/88
f 89/62/89 36/63/36 28/48/28
f 37/26/37 52/64/52 51/65/51
f 41/50/41 85/49/85 40/66/40
f 43/30/43 90/67/90 47/68/47
f 44/69/44 47/68/47 46/54/46
f 91/70/91 50/71/50 49/55/49
f 91/70/91 48/27/48 51/65/51
f 92/72/92 39/73/39 55/74/55
f 54/21/54 53/75/53 52/64/52
f 88/61/88 39/73/39 92/72/92
f 93/76/93 40/66/40 94/77/94
f 60/78/60 68/79/68 71/80/71
f 56/81/56 95/82/95 96/83/96
f 58/84/58 97/85/97 95/82/95
f 58/84/58 59/86/59 98/87/98
f 99/88/99 100/89/100 98/87/98
f 57/90/57 96/83/96 101/91/101
f 61/92/61 101/91/101 102/93/102
f 62/94/62 102/93/102 103/95/103
f 63/96/63 103/95/103 100/89/100
f 65/97/65 70/98/70 104/99/104
f 105/100/105 71/80/71 106/101/106
f 107/102/107 108/103/108 106/101/106
f 107/102/107 69/104/69 109/105/109
f 60/78/60 110/106/110 67/107/67
f 111/108/111 66/109/66 67/107/67
f 112/110/112 64/111/64 66/109/66
f 113/112/113 109/105/109 64/111/64
f 28/48/28 36/63/36 3/17/3
f 87/59/87 114/113/114 115/114/115
f 116/115/116 117/116/117 118/117/118
f 73/15/73 25/1/25 7/3/7
f 76/24/76 12/4/12 2/6/2
f 4/10/4 29/7/29 5/9/5
f 16/33/16 4/10/4 17/11/17
f 119/118/119 72/12/72 19/14/19
f 6/13/6 72/12/72 7/3/7
f 77/25/77 2/6/2 3/17/3
f 9/20/9 114/113/114 74/18/74
f 114/113/114 9/20/9 120/119/120
f 25/1/25 54/21/54 8/2/8
f 121/120/121 75/23/75 74/18/74
f 22/41/22 37/26/37 21/28/21
f 84/46/84 11/29/11 12/4/12
f 90/67/90 43/30/43 18/32/18
f 18/32/18 15/31/15 17/11/17
f 119/118/119 19/14/19 78/35/78
f 48/27/48 78/35/78 21/28/21
f 38/121/38 11/29/11 14/37/14
f 81/40/81 10/42/10 79/38/79
f 80/39/80 122/122/122 81/40/81
f 23/22/23 54/21/54 22/41/22
f 121/120/121 79/38/79 75/23/75
f 123/123/123 124/124/124 42/43/42
f 83/45/83 125/125/125 123/123/123
f 82/44/82 126/126/126 83/45/83
f 42/43/42 127/127/127 82/44/82
f 83/45/83 123/123/123 42/43/42
f 35/58/35 25/1/25 34/47/34
f 89/62/89 28/48/28 41/50/41
f 32/8/32 29/7/29 31/52/31
f 31/52/31 30/51/30 46/54/46
f 128/128/128 49/55/49 86/57/86
f 73/15/73 86/57/86 34/47/34
f 53/75/53 54/21/54 35/58/35
f 129/129/129 87/59/87 88/61/88
f 48/27/48 37/26/37 51/65/51
f 93/76/93 41/50/41 40/66/40
f 44/69/44 43/30/43 47/68/47
f 45/53/45 44/69/44 46/54/46
f 128/128/128 91/70/91 49/55/49
f 50/71/50 91/70/91 51/65/51
f 55/74/55 130/130/130 92/72/92
f 37/26/37 54/21/54 52/64/52
f 129/129/129 88/61/88 92/72/92
f 105/100/105 60/78/60 71/80/71
f 57/90/57 56/81/56 96/83/96
f 56/81/56 58/84/58 95/82/95
f 97/85/97 58/84/58 98/87/98
f 59/86/59 99/88/99 98/87/98
f 61/92/61 57/90/57 101/91/101
f 62/94/62 61/92/61 102/93/102
f 63/96/63 62/94/62 103/95/103
f 99/88/99 63/96/63 100/89/100
f 131/131/131 132/132/132 65/97/65
f 104/99/104 133/133/133 131/131/131
f 70/98/70 134/134/134 104/99/104
f 65/97/65 135/135/135 70/98/70
f 104/99/104 131/131/131 65/97/65
f 108/103/108 105/100/105 106/101/106
f 69/104/69 107/102/107 106/101/106
f 113/112/113 107/102/107 109/105/109
f 68/79/68 60/78/60 67/107/67
f 110/106/110 111/108/111 67/107/67
f 111/108/111 112/110/112 66/109/66
f 112/110/112 113/112/113 64/111/64
f 26/16/26 28/48/28 3/17/3
f 115/114/115 27/60/27 87/59/87
f 114/113/114 120/119/120 115/114/115
f 118/117/118 136/136/136 116/115/116
f 118/117/118 137/137/137 138/138/138
f 117/116/117 139/139/139 118/117/118
f 116/115/116 140/140/140 117/116/117
f 118/117/118 138/138/138 136/136/136
f 40/66/40 141/141/141 142/142/142
f 94/77/94 40/66/40 142/142/142
f 130/130/130 55/74/55 143/143/143
# 276 faces, 143 coords texture

# End of File