####
#
# OBJ File Generated by Meshlab
#
####
# Object aj2_left.obj
#
# Vertices: 143
# Faces: 276
#
####
mtllib ./aj2_left.obj.mtl

vn 0.810316 -0.505848 -0.295814
v 0.052044 0.067688 -0.048426
vn 0.677735 0.184313 -0.711831
v 0.050595 0.131804 -0.049945
vn -0.000008 -0.104004 -0.994577
v 0.000005 0.070227 -0.071166
vn 0.407188 -0.908340 -0.095476
v 0.036834 0.099885 -0.033061
vn 0.406852 0.255866 -0.876929
v 0.040895 0.037220 -0.027868
vn 0.392299 0.650409 -0.650438
v 0.063539 0.036365 -0.036370
vn 0.403557 -0.008912 -0.914911
v 0.063536 -0.000005 -0.051435
vn 0.674066 -0.588868 -0.445948
v 0.063534 -0.036375 -0.036370
vn 0.070415 -0.951780 -0.298592
v 0.037916 0.060347 -0.060122
vn 0.810316 -0.505848 0.295814
v 0.052044 0.067688 0.048426
vn 0.677736 0.184313 0.711831
v 0.050595 0.131804 0.049945
vn 0.913628 -0.406550 -0.000000
v 0.071010 0.078203 -0.000000
vn 0.214532 0.976717 -0.000000
v 0.071018 0.131797 -0.000000
vn -0.000007 -0.104004 0.994577
v 0.000005 0.070227 0.071166
vn 0.407188 -0.908340 0.095476
v 0.036834 0.099885 0.033061
vn 0.744797 -0.667291 -0.000000
v 0.051292 0.099883 -0.000000
vn 0.993221 0.116245 -0.000000
v 0.047026 0.051432 -0.000000
vn 0.406852 0.255866 0.876929
v 0.040895 0.037220 0.027868
vn 0.982841 0.184453 -0.000000
v 0.063540 0.051430 -0.000000
vn 0.392299 0.650409 0.650438
v 0.063539 0.036365 0.036370
vn 0.677089 -0.007194 0.735866
v 0.063536 -0.000005 0.051435
vn 0.154636 -0.787590 0.596481
v 0.063534 -0.036375 0.036370
vn 0.909731 -0.415198 -0.000000
v 0.063533 -0.051440 -0.000000
vn 0.070415 -0.951780 0.298592
v 0.037916 0.060347 0.060122
vn -0.000043 -0.603748 -0.797175
v -0.000003 -0.036370 -0.036370
vn 0.000066 0.916732 -0.399504
v 0.000009 0.131813 -0.071099
vn -0.810388 -0.505732 -0.295814
v -0.052034 0.067695 -0.048426
vn -0.677709 0.184411 -0.711831
v -0.050577 0.131811 -0.049945
vn -0.000032 -0.442534 -0.896752
v 0.000007 0.099891 -0.051283
vn -0.407319 -0.908282 -0.095476
v -0.036820 0.099891 -0.033061
vn -0.406815 0.255924 -0.876929
v -0.040889 0.037226 -0.027868
vn 0.000004 0.062253 -0.998060
v -0.000000 0.000000 -0.051435
vn -0.239493 0.686537 -0.686520
v -0.063534 0.036374 -0.036370
vn -0.033897 -0.009701 -0.999378
v -0.063536 0.000004 -0.051435
vn -0.146818 -0.788533 -0.597211
v -0.063539 -0.036366 -0.036370
vn -0.070552 -0.951770 -0.298592
v -0.037907 0.060352 -0.060122
vn -0.000043 -0.603748 0.797175
v -0.000003 -0.036370 0.036370
vn 0.000066 0.916732 0.399504
v 0.000009 0.131813 0.071099
vn -0.810388 -0.505732 0.295814
v -0.052034 0.067695 0.048426
vn -0.677709 0.184411 0.711831
v -0.050576 0.131811 0.049945
vn -0.913687 -0.406419 0.000000
v -0.070999 0.078213 0.000000
vn -0.214391 0.976748 0.000000
v -0.070999 0.131807 0.000000
vn -0.000032 -0.442534 0.896752
v 0.000007 0.099891 0.051283
vn -0.407319 -0.908282 0.095476
v -0.036820 0.099891 0.033061
vn -0.744893 -0.667184 0.000000
v -0.051277 0.099891 0.000000
vn -0.993204 0.116388 0.000000
v -0.047018 0.051439 0.000000
vn -0.406815 0.255924 0.876929
v -0.040889 0.037226 0.027868
vn 0.000005 0.062254 0.998060
v 0.000000 -0.000000 0.051435
vn -0.229556 0.973295 0.000000
v -0.063533 0.051439 0.000000
vn -0.239492 0.686537 0.686520
v -0.063534 0.036374 0.036370
vn -0.064324 -0.009684 0.997882
v -0.063536 0.000004 0.051435
vn -0.113599 -0.792012 0.599844
v -0.063539 -0.036366 0.036370
vn -0.170587 -0.985343 -0.000000
v -0.063540 -0.051431 0.000000
vn -0.000072 -1.000000 0.000000
v -0.000004 -0.051435 0.000000
vn -0.070552 -0.951770 0.298592
v -0.037907 0.060352 0.060122
vn -0.191500 0.592583 -0.782415
v -0.063534 0.030918 -0.030914
vn -0.191473 0.972274 -0.134241
v -0.063533 0.043723 0.000000
vn -0.258367 -0.132112 -0.956971
v -0.063536 0.000004 -0.043719
vn -0.182971 -0.695163 -0.695177
v -0.063539 -0.030910 -0.030914
vn -0.146240 -0.989249 -0.000000
v -0.063540 -0.043715 0.000000
vn -0.146118 0.699523 0.699512
v -0.063534 0.030918 0.030914
vn -0.283396 0.000020 0.959003
v -0.063536 0.000004 0.043719
vn -0.191585 -0.592555 0.782415
v -0.063539 -0.030910 0.030914
vn -0.199737 0.781117 -0.591576
v -0.105006 0.030921 -0.030914
vn -0.921718 0.384217 0.053040
v -0.105005 0.043726 0.000000
vn -0.812217 0.079845 -0.577865
v -0.105009 0.000007 -0.043719
vn -0.152623 -0.698817 -0.698828
v -0.105011 -0.030907 -0.030914
vn -0.963521 -0.267633 0.000000
v -0.105012 -0.043712 0.000000
vn -0.294968 0.675656 0.675635
v -0.105006 0.030921 0.030914
vn -0.725501 0.000052 0.688221
v -0.105009 0.000007 0.043719
vn -0.199850 -0.781088 0.591575
v -0.105011 -0.030907 0.030914
vn 0.406852 0.255866 -0.876929
v 0.040895 0.037220 -0.027868
vn 0.000004 0.062253 -0.998060
v -0.000000 0.000000 -0.051435
vn 0.407188 -0.908340 -0.095476
v 0.036834 0.099885 -0.033061
vn 0.913628 -0.406550 -0.000000
v 0.071010 0.078203 -0.000000
vn 0.810316 -0.505848 -0.295814
v 0.052044 0.067688 -0.048426
vn 0.070415 -0.951780 -0.298592
v 0.037916 0.060347 -0.060122
vn 0.406852 0.255866 0.876929
v 0.040895 0.037220 0.027868
vn 0.407188 -0.908340 0.095476
v 0.036834 0.099885 0.033061
vn 0.070415 -0.951780 0.298592
v 0.037916 0.060347 0.060122
vn -0.000032 -0.442534 0.896752
v 0.000007 0.099891 0.051283
vn 0.214532 0.976717 -0.000000
v 0.071018 0.131797 -0.000000
vn 0.000066 0.916732 -0.399504
v 0.000009 0.131813 -0.071099
vn 0.810316 -0.505848 0.295814
v 0.052044 0.067688 0.048426
vn -0.214391 0.976748 0.000000
v -0.070999 0.131807 0.000000
vn -0.406815 0.255924 -0.876929
v -0.040889 0.037226 -0.027868
vn -0.407319 -0.908282 -0.095476
v -0.036820 0.099891 -0.033061
vn -0.913687 -0.406419 0.000000
v -0.070999 0.078213 0.000000
vn -0.810388 -0.505732 -0.295814
v -0.052034 0.067695 -0.048426
vn 0.000005 0.062254 0.998060
v 0.000000 -0.000000 0.051435
vn -0.406815 0.255924 0.876929
v -0.040889 0.037226 0.027868
vn -0.407319 -0.908282 0.095476
v -0.036820 0.099891 0.033061
vn -0.810388 -0.505732 0.295814
v -0.052034 0.067695 0.048426
vn -0.070552 -0.951770 0.298592
v -0.037907 0.060352 0.060122
vn -0.229556 0.973295 0.000000
v -0.063533 0.051439 0.000000
vn -0.239493 0.686537 -0.686520
v -0.063534 0.036374 -0.036370
vn -0.033897 -0.009701 -0.999378
v -0.063536 0.000004 -0.051435
vn -0.146818 -0.788533 -0.597211
v -0.063539 -0.036366 -0.036370
vn -0.146240 -0.989249 -0.000000
v -0.063540 -0.043715 0.000000
vn -0.170587 -0.985343 -0.000000
v -0.063540 -0.051431 0.000000
vn -0.239492 0.686537 0.686520
v -0.063534 0.036374 0.036370
vn -0.064324 -0.009684 0.997882
v -0.063536 0.000004 0.051435
vn -0.113599 -0.792012 0.599844
v -0.063539 -0.036366 0.036370
vn -0.963521 -0.267633 0.000000
v -0.105012 -0.043712 0.000000
vn -0.191585 -0.592555 0.782415
v -0.063539 -0.030910 0.030914
vn -0.725501 0.000052 0.688221
v -0.105009 0.000007 0.043719
vn -0.146118 0.699523 0.699512
v -0.063534 0.030918 0.030914
vn -0.283396 0.000020 0.959003
v -0.063536 0.000004 0.043719
vn -0.921718 0.384217 0.053040
v -0.105005 0.043726 0.000000
vn -0.182971 -0.695163 -0.695177
v -0.063539 -0.030910 -0.030914
vn -0.258367 -0.132112 -0.956971
v -0.063536 0.000004 -0.043719
vn -0.191500 0.592583 -0.782415
v -0.063534 0.030918 -0.030914
vn -0.191473 0.972274 -0.134241
v -0.063533 0.043723 0.000000
vn -0.070552 -0.951770 -0.298592
v -0.037907 0.060352 -0.060122
vn -0.000032 -0.442534 -0.896752
v 0.000007 0.099891 -0.051283
vn 0.909731 -0.415198 -0.000000
v 0.063533 -0.051440 -0.000000
vn 0.982841 0.184453 -0.000000
v 0.063540 0.051430 -0.000000
vn 0.677089 -0.007194 0.735866
v 0.063536 -0.000005 0.051435
vn 0.993221 0.116245 -0.000000
v 0.047026 0.051432 -0.000000
vn -0.000008 -0.104004 -0.994577
v 0.000005 0.070227 -0.071166
vn 0.744797 -0.667291 -0.000000
v 0.051292 0.099883 -0.000000
vn -0.000007 -0.104004 0.994577
v 0.000005 0.070227 0.071166
vn 0.000066 0.916732 0.399504
v 0.000009 0.131813 0.071099
vn -0.677709 0.184411 0.711831
v -0.050576 0.131811 0.049945
vn 0.677736 0.184313 0.711831
v 0.050595 0.131804 0.049945
vn 0.677735 0.184313 -0.711831
v 0.050595 0.131804 -0.049945
vn -0.677709 0.184411 -0.711831
v -0.050577 0.131811 -0.049945
vn -0.993204 0.116388 0.000000
v -0.047018 0.051439 0.000000
vn -0.744893 -0.667184 0.000000
v -0.051277 0.099891 0.000000
vn -0.000032 -0.442534 0.896752
v 0.000007 0.099891 0.051283
vn -0.812217 0.079845 -0.577865
v -0.105009 0.000007 -0.043719
vn -0.199737 0.781117 -0.591576
v -0.105006 0.030921 -0.030914
vn -0.152623 -0.698817 -0.698828
v -0.105011 -0.030907 -0.030914
vn -0.199850 -0.781088 0.591575
v -0.105011 -0.030907 0.030914
vn -0.294968 0.675656 0.675635
v -0.105006 0.030921 0.030914
vn 0.674066 -0.588868 -0.445948
v 0.063534 -0.036375 -0.036370
vn 0.403557 -0.008912 -0.914911
v 0.063536 -0.000005 -0.051435
vn 0.392299 0.650409 -0.650438
v 0.063539 0.036365 -0.036370
vn 0.392299 0.650409 0.650438
v 0.063539 0.036365 0.036370
vn 0.154636 -0.787590 0.596481
v 0.063534 -0.036375 0.036370
vn -0.000007 -0.104004 0.994577
v 0.000005 0.070227 0.071166
vn 0.000066 0.916732 0.399504
v 0.000009 0.131813 0.071099
vn -0.000007 -0.104004 0.994577
v 0.000005 0.070227 0.071166
# 143 vertices, 0 vertices normals


usemtl material_0
vt 0.212653 0.225055
vt 0.236677 0.127642
vt 0.200025 0.150352
f 25/1/25 7/2/7 8/3/8
vt 0.485594 0.784200
vt 0.571140 0.701716
vt 0.486839 0.700469
f 12/4/12 2/5/2 13/6/13
vt 0.434639 0.575552
vt 0.313834 0.535050
vt 0.313978 0.694879
f 29/7/29 5/8/5 32/9/32
vt 0.428030 0.549395
vt 0.368487 0.458795
f 4/10/4 17/11/17 5/8/5
vt 0.302748 0.036656
vt 0.192686 0.043791
vt 0.236559 0.078343
f 72/12/72 19/13/19 6/14/6
vt 0.313413 0.245860
f 72/12/72 7/2/7 73/15/73
vt 0.656812 0.798269
vt 0.656812 0.702043
f 2/5/2 3/16/3 26/17/26
vt 0.388704 0.263898
vt 0.313834 0.265206
vt 0.333536 0.288970
f 74/18/74 9/19/9 1/20/1
vt 0.156812 0.214908
vt 0.167418 0.152536
f 54/21/54 8/3/8 23/22/23
vt 0.394307 0.345363
f 75/23/75 74/18/74 1/20/1
vt 0.566599 0.801848
vt 0.595109 0.813684
f 76/24/76 77/25/77 2/5/2
vt 0.100970 0.204760
vt 0.118640 0.107880
vt 0.000210 0.183955
f 37/26/37 21/27/21 48/28/48
vt 0.402537 0.699210
f 11/29/11 12/4/12 13/6/13
vt 0.484429 0.524526
vt 0.444758 0.403586
vt 0.458535 0.517436
f 43/30/43 18/31/18 15/32/15
vt 0.439070 0.528491
f 15/32/15 17/11/17 16/33/16
vt 0.093851 0.000210
vt 0.138621 0.062108
f 19/13/19 78/34/78 20/35/20
f 78/34/78 21/27/21 20/35/20
vt 0.313834 0.793167
vt 0.375251 0.810415
f 11/29/11 14/36/14 24/37/24
vt 0.474574 0.330359
vt 0.492081 0.403166
vt 0.538774 0.330114
f 79/38/79 80/39/80 81/40/81
vt 0.138797 0.142726
f 54/21/54 22/41/22 37/26/37
vt 0.464137 0.390052
f 79/38/79 75/23/75 10/42/10
vt 0.698669 0.205600
vt 0.613060 0.000878
vt 0.553374 0.146098
f 42/43/42 82/44/82 83/45/83
vt 0.404100 0.799432
f 84/46/84 11/29/11 24/37/24
vt 0.194983 0.321936
f 25/1/25 34/47/34 73/15/73
vt 0.742484 0.701717
vt 0.828030 0.784202
vt 0.826786 0.700471
f 28/48/28 41/49/41 85/50/85
vt 0.473719 0.696568
vt 0.460463 0.582666
f 29/7/29 31/51/31 30/52/30
vt 0.550266 0.642308
vt 0.480087 0.572213
f 30/52/30 46/53/46 45/54/45
vt 0.120937 0.386025
vt 0.219772 0.429605
vt 0.175002 0.367707
f 49/55/49 86/56/86 33/57/33
f 86/56/86 34/47/34 33/57/33
vt 0.174826 0.287090
f 54/21/54 35/58/35 25/1/25
vt 0.388704 0.139478
vt 0.394307 0.058013
vt 0.333536 0.114406
f 87/59/87 88/60/88 27/61/27
vt 0.747024 0.801848
vt 0.718515 0.813685
f 89/62/89 28/48/28 36/63/36
vt 0.076946 0.302174
vt 0.113598 0.279464
f 37/26/37 51/64/51 52/65/52
vt 0.911087 0.699212
f 41/49/41 40/66/40 85/50/85
vt 0.605524 0.566006
vt 0.605524 0.404998
f 43/30/43 47/67/47 90/68/90
vt 0.491048 0.551485
f 44/69/44 46/53/46 47/67/47
vt 0.010875 0.393159
vt 0.077064 0.351472
f 91/70/91 49/55/49 50/71/50
f 91/70/91 51/64/51 48/28/48
vt 0.474574 0.073017
vt 0.492081 0.000210
vt 0.464137 0.013324
f 92/72/92 55/73/55 39/74/39
vt 0.146205 0.277279
f 54/21/54 52/65/52 53/75/53
f 88/60/88 92/72/92 39/74/39
vt 0.909524 0.799434
vt 0.938372 0.810418
f 93/76/93 94/77/94 40/66/40
vt 0.066824 0.431711
vt 0.075096 0.522590
vt 0.100104 0.504784
f 60/78/60 71/79/71 68/80/68
vt 0.743303 0.451695
vt 0.754443 0.508591
vt 0.754443 0.447081
f 56/81/56 95/82/95 96/83/96
vt 0.706334 0.414725
vt 0.710948 0.403586
f 58/84/58 96/83/96 97/85/97
vt 0.649438 0.403587
vt 0.654052 0.414725
f 58/84/58 98/86/98 59/87/59
vt 0.617083 0.451695
vt 0.605944 0.447081
f 99/88/99 98/86/98 100/89/100
vt 0.743303 0.503977
vt 0.710948 0.552085
f 57/90/57 101/91/101 95/82/95
vt 0.706334 0.540946
vt 0.649438 0.552085
f 61/92/61 102/93/102 101/91/101
vt 0.654052 0.540946
vt 0.605944 0.508591
f 62/94/62 103/95/103 102/93/102
vt 0.617083 0.503977
f 63/96/63 100/89/100 103/95/103
vt 0.732165 0.641757
vt 0.605944 0.589474
vt 0.642913 0.678726
f 65/97/65 104/98/104 70/99/70
vt 0.000888 0.494469
vt 0.072344 0.552043
f 105/100/105 106/101/106 71/79/71
vt 0.065248 0.650358
vt 0.000210 0.585898
f 107/102/107 106/101/106 108/103/108
vt 0.123112 0.577179
vt 0.092219 0.574825
f 107/102/107 109/104/109 69/105/69
vt 0.130937 0.504953
vt 0.156646 0.430026
f 60/78/60 67/106/67 110/107/110
vt 0.222351 0.493539
vt 0.150130 0.527476
f 111/108/111 67/106/67 66/109/66
vt 0.222351 0.585472
vt 0.146983 0.557491
f 112/110/112 66/109/66 64/111/64
vt 0.157031 0.650216
f 113/112/113 64/111/64 109/104/109
f 28/48/28 3/16/3 36/63/36
vt 0.313834 0.138170
vt 0.372844 0.201688
f 87/59/87 114/113/114 115/114/115
vt 0.553374 0.250181
vt 0.701872 0.311692
vt 0.658378 0.206687
f 116/115/116 117/116/117 118/117/118
f 73/15/73 7/2/7 25/1/25
f 76/24/76 2/5/2 12/4/12
f 4/10/4 5/8/5 29/7/29
f 16/33/16 17/11/17 4/10/4
vt 0.200415 0.000210
f 119/118/119 19/13/19 72/12/72
f 6/14/6 7/2/7 72/12/72
f 77/25/77 3/16/3 2/5/2
f 9/19/9 74/18/74 115/114/115
vt 0.317046 0.201688
f 115/114/115 120/119/120 9/19/9
f 25/1/25 8/3/8 54/21/54
vt 0.422334 0.309150
f 121/120/121 74/18/74 75/23/75
f 22/41/22 21/27/21 37/26/37
f 84/46/84 12/4/12 11/29/11
f 90/68/90 18/31/18 43/30/43
f 18/31/18 17/11/17 15/32/15
f 119/118/119 78/34/78 19/13/19
f 48/28/48 21/27/21 78/34/78
vt 0.316893 0.696989
f 38/121/38 14/36/14 11/29/11
f 80/39/80 79/38/79 10/42/10
vt 0.552953 0.384080
f 81/40/81 80/39/80 122/122/122
f 23/22/23 22/41/22 54/21/54
f 121/120/121 75/23/75 79/38/79
vt 0.758355 0.060380
vt 0.758355 0.146052
f 123/123/123 42/43/42 124/124/124
vt 0.697368 0.000210
f 82/44/82 123/123/123 125/125/125
vt 0.553374 0.060425
f 83/45/83 82/44/82 126/126/126
vt 0.614361 0.206267
f 42/43/42 83/45/83 127/127/127
f 82/44/82 42/43/42 123/123/123
f 35/58/35 34/47/34 25/1/25
f 89/62/89 41/49/41 28/48/28
f 32/9/32 31/51/31 29/7/29
f 31/51/31 46/53/46 30/52/30
vt 0.113208 0.429605
f 128/128/128 86/56/86 49/55/49
f 73/15/73 34/47/34 86/56/86
f 53/75/53 35/58/35 54/21/54
vt 0.422334 0.094226
f 129/129/129 88/60/88 87/59/87
f 48/28/48 51/64/51 37/26/37
f 93/76/93 40/66/40 41/49/41
f 44/69/44 47/67/47 43/30/43
f 45/54/45 46/53/46 44/69/44
f 128/128/128 49/55/49 91/70/91
f 50/71/50 51/64/51 91/70/91
vt 0.538774 0.073262
f 55/73/55 92/72/92 130/130/130
f 37/26/37 52/65/52 54/21/54
f 129/129/129 92/72/92 88/60/88
f 105/100/105 71/79/71 60/78/60
f 57/90/57 95/82/95 56/81/56
f 56/81/56 96/83/96 58/84/58
f 97/85/97 98/86/98 58/84/58
f 59/87/59 98/86/98 99/88/99
f 61/92/61 101/91/101 57/90/57
f 62/94/62 102/93/102 61/92/61
f 63/96/63 103/95/103 62/94/62
f 99/88/99 100/89/100 63/96/63
vt 0.695195 0.552505
vt 0.732165 0.589475
f 131/131/131 65/97/65 132/132/132
vt 0.642913 0.552505
f 104/98/104 131/131/131 133/133/133
vt 0.605944 0.641757
f 70/99/70 104/98/104 134/134/134
vt 0.695195 0.678726
f 65/97/65 70/99/70 135/135/135
f 104/98/104 65/97/65 131/131/131
f 108/103/108 106/101/106 105/100/105
f 69/105/69 106/101/106 107/102/107
f 113/112/113 109/104/109 107/102/107
f 68/80/68 67/106/67 60/78/60
f 110/107/110 67/106/67 111/108/111
f 111/108/111 66/109/66 112/110/112
f 112/110/112 64/111/64 113/112/113
f 26/17/26 3/16/3 28/48/28
f 114/113/114 87/59/87 27/61/27
f 115/114/115 114/113/114 120/119/120
vt 0.553374 0.311692
f 117/116/117 116/115/116 136/136/136
vt 0.596868 0.355186
vt 0.658378 0.355186
f 117/116/117 137/137/137 138/138/138
vt 0.701872 0.250182
f 118/117/118 117/116/117 139/139/139
vt 0.596868 0.206687
f 116/115/116 118/117/118 140/140/140
f 117/116/117 136/136/136 137/137/137
vt 0.999790 0.793171
vt 0.996731 0.696993
f 40/66/40 141/141/141 142/142/142
f 94/77/94 141/141/141 40/66/40
vt 0.552953 0.019296
f 130/130/130 143/143/143 55/73/55
f 25/1/25 7/2/7 8/3/8
f 12/4/12 2/5/2 13/6/13
f 29/7/29 5/8/5 32/9/32
f 4/10/4 17/11/17 5/8/5
f 72/12/72 19/13/19 6/14/6
f 72/12/72 7/2/7 73/15/73
f 2/5/2 3/16/3 26/17/26
f 74/18/74 9/19/9 1/20/1
f 54/21/54 8/3/8 23/22/23
f 75/23/75 74/18/74 1/20/1
f 76/24/76 77/25/77 2/5/2
f 37/26/37 21/27/21 48/28/48
f 11/29/11 12/4/12 13/6/13
f 43/30/43 18/31/18 15/32/15
f 15/32/15 17/11/17 16/33/16
f 19/13/19 78/34/78 20/35/20
f 78/34/78 21/27/21 20/35/20
f 11/29/11 14/36/14 24/37/24
f 79/38/79 80/39/80 81/40/81
f 54/21/54 22/41/22 37/26/37
f 79/38/79 75/23/75 10/42/10
f 42/43/42 82/44/82 83/45/83
f 84/46/84 11/29/11 24/37/24
f 25/1/25 34/47/34 73/15/73
f 28/48/28 41/49/41 85/50/85
f 29/7/29 31/51/31 30/52/30
f 30/52/30 46/53/46 45/54/45
f 49/55/49 86/56/86 33/57/33
f 86/56/86 34/47/34 33/57/33
f 54/21/54 35/58/35 25/1/25
f 87/59/87 88/60/88 27/61/27
f 89/62/89 28/48/28 36/63/36
f 37/26/37 51/64/51 52/65/52
f 41/49/41 40/66/40 85/50/85
f 43/30/43 47/67/47 90/68/90
f 44/69/44 46/53/46 47/67/47
f 91/70/91 49/55/49 50/71/50
f 91/70/91 51/64/51 48/28/48
f 92/72/92 55/73/55 39/74/39
f 54/21/54 52/65/52 53/75/53
f 88/60/88 92/72/92 39/74/39
f 93/76/93 94/77/94 40/66/40
f 60/78/60 71/79/71 68/80/68
f 56/81/56 95/82/95 96/83/96
f 58/84/58 96/83/96 97/85/97
f 58/84/58 98/86/98 59/87/59
f 99/88/99 98/86/98 100/89/100
f 57/90/57 101/91/101 95/82/95
f 61/92/61 102/93/102 101/91/101
f 62/94/62 103/95/103 102/93/102
f 63/96/63 100/89/100 103/95/103
f 65/97/65 104/98/104 70/99/70
f 105/100/105 106/101/106 71/79/71
f 107/102/107 106/101/106 108/103/108
f 107/102/107 109/104/109 69/105/69
f 60/78/60 67/106/67 110/107/110
f 111/108/111 67/106/67 66/109/66
f 112/110/112 66/109/66 64/111/64
f 113/112/113 64/111/64 109/104/109
f 28/48/28 3/16/3 36/63/36
f 87/59/87 114/113/114 115/114/115
f 116/115/116 117/116/117 118/117/118
f 73/15/73 7/2/7 25/1/25
f 76/24/76 2/5/2 12/4/12
f 4/10/4 5/8/5 29/7/29
f 16/33/16 17/11/17 4/10/4
f 119/118/119 19/13/19 72/12/72
f 6/14/6 7/2/7 72/12/72
f 77/25/77 3/16/3 2/5/2
f 9/19/9 74/18/74 115/114/115
f 115/114/115 120/119/120 9/19/9
f 25/1/25 8/3/8 54/21/54
f 121/120/121 74/18/74 75/23/75
f 22/41/22 21/27/21 37/26/37
f 84/46/84 12/4/12 11/29/11
f 90/68/90 18/31/18 43/30/43
f 18/31/18 17/11/17 15/32/15
f 119/118/119 78/34/78 19/13/19
f 48/28/48 21/27/21 78/34/78
f 38/121/38 14/36/14 11/29/11
f 80/39/80 79/38/79 10/42/10
f 81/40/81 80/39/80 122/122/122
f 23/22/23 22/41/22 54/21/54
f 121/120/121 75/23/75 79/38/79
f 123/123/123 42/43/42 124/124/124
f 82/44/82 123/123/123 125/125/125
f 83/45/83 82/44/82 126/126/126
f 42/43/42 83/45/83 127/127/127
f 82/44/82 42/43/42 123/123/123
f 35/58/35 34/47/34 25/1/25
f 89/62/89 41/49/41 28/48/28
f 32/9/32 31/51/31 29/7/29
f 31/51/31 46/53/46 30/52/30
f 128/128/128 86/56/86 49/55/49
f 73/15/73 34/47/34 86/56/86
f 53/75/53 35/58/35 54/21/54
f 129/129/129 88/60/88 87/59/87
f 48/28/48 51/64/51 37/26/37
f 93/76/93 40/66/40 41/49/41
f 44/69/44 47/67/47 43/30/43
f 45/54/45 46/53/46 44/69/44
f 128/128/128 49/55/49 91/70/91
f 50/71/50 51/64/51 91/70/91
f 55/73/55 92/72/92 130/130/130
f 37/26/37 52/65/52 54/21/54
f 129/129/129 92/72/92 88/60/88
f 105/100/105 71/79/71 60/78/60
f 57/90/57 95/82/95 56/81/56
f 56/81/56 96/83/96 58/84/58
f 97/85/97 98/86/98 58/84/58
f 59/87/59 98/86/98 99/88/99
f 61/92/61 101/91/101 57/90/57
f 62/94/62 102/93/102 61/92/61
f 63/96/63 103/95/103 62/94/62
f 99/88/99 100/89/100 63/96/63
f 131/131/131 65/97/65 132/132/132
f 104/98/104 131/131/131 133/133/133
f 70/99/70 104/98/104 134/134/134
f 65/97/65 70/99/70 135/135/135
f 104/98/104 65/97/65 131/131/131
f 108/103/108 106/101/106 105/100/105
f 69/105/69 106/101/106 107/102/107
f 113/112/113 109/104/109 107/102/107
f 68/80/68 67/106/67 60/78/60
f 110/107/110 67/106/67 111/108/111
f 111/108/111 66/109/66 112/110/112
f 112/110/112 64/111/64 113/112/113
f 26/17/26 3/16/3 28/48/28
f 114/113/114 87/59/87 27/61/27
f 115/114/115 114/113/114 120/119/120
f 117/116/117 116/115/116 136/136/136
f 117/116/117 137/137/137 138/138/138
f 118/117/118 117/116/117 139/139/139
f 116/115/116 118/117/118 140/140/140
f 117/116/117 136/136/136 137/137/137
f 40/66/40 141/141/141 142/142/142
f 94/77/94 141/141/141 40/66/40
f 130/130/130 143/143/143 55/73/55
# 276 faces, 143 coords texture

# End of File