# https://github.com/mikedh/trimesh

o piece_000.obj
v 0.02020250 0.00015831 -0.02655882
v -0.01921060 0.00018931 -0.02658799
v -0.01157579 0.00034559 0.09830067
v -0.04623222 0.00026661 0.02837736
v -0.04677058 0.00039299 0.04533907
v -0.04316073 0.00063092 0.00104058
v -0.04213068 0.00071529 -0.00475846
v 0.04843129 0.00050784 0.05756551
v -0.03153031 0.00055124 0.08780683
v -0.03525085 0.00062215 0.08409233
v 0.04355240 0.00033726 0.07542229
v -0.02247914 0.00047997 0.09371313
v -0.01645034 0.00037208 0.09655983
v 0.04860676 0.00024333 0.03643861
v 0.01305216 0.00026522 0.09913977
v 0.03287141 0.00029126 0.09019230
v 0.04258373 0.00051332 -0.01022029
v -0.00752886 0.00010198 0.02672303
v 0.02596292 -0.00000000 0.02939619
v 0.03680480 0.00009103 0.02798632
v 0.03241695 0.00007350 0.05493055
v 0.04754914 0.00018919 0.02691741
v 0.03661562 0.00015021 0.07729542
v 0.02330303 0.00002412 0.05451575
v -0.01852003 0.00013150 0.04413757
v -0.02651387 0.00017581 0.02683420
v -0.01804573 0.00015728 -0.01363934
v -0.03253113 0.00044521 -0.01174463
v -0.02977925 0.00021483 0.04739387
v -0.04571202 0.00047505 0.05929137
v -0.03690552 0.00034480 0.06025748
v -0.01612985 0.00016445 0.06102067
v 0.02722855 0.00010820 0.08753758
v 0.01704288 0.00024955 0.09765954
v -0.00701559 0.00039538 0.09922640
v -0.01655945 0.00027446 0.09110568
v -0.02980717 0.00053999 0.08951879
v 0.03741394 0.00033135 -0.01627335
v 0.01675040 0.00012124 -0.01387619
v -0.04450523 0.00053358 0.06629076
v -0.04331252 0.00063462 0.07068410
v 0.03624737 0.00031766 -0.01763094
v -0.03249158 0.00068263 -0.01975338
v -0.03682186 0.00072792 -0.01528375
v 0.00464334 0.00038672 0.10021678
v 0.02357870 0.00026093 0.09591468
v 0.04917683 0.00032820 0.04006814
v 0.04027117 0.00030097 0.08109289
v 0.03612352 0.00026169 0.08654391
v 0.02735817 0.00024702 0.09393954
v 0.03221605 0.00025707 -0.02131705
v 0.03865823 0.00033947 0.08408523
v 0.08849157 0.02606761 0.06738341
v -0.13478979 0.01364027 -0.11013635
v -0.12466542 0.01344980 -0.12116136
v -0.16247682 0.01533581 -0.06623641
v -0.16008759 0.01446165 -0.07161559
v -0.16335550 0.01328769 -0.06371015
v -0.11640131 0.02211845 -0.12974808
v -0.11150964 0.02251474 -0.13424693
v -0.10854391 0.02352321 -0.13658230
v -0.12256704 0.02265745 -0.12369550
v -0.10608934 0.02333586 -0.13871314
v -0.11893704 0.01807322 -0.12770906
v -0.11035189 0.01855164 -0.13564977
v -0.12442788 0.01822667 -0.12217553
v -0.12781855 0.02245927 -0.11820742
v -0.16561021 0.01424768 -0.05842703
v -0.16836199 0.01388221 -0.04919808
v -0.14581643 0.01331156 -0.09534433
v -0.13986464 0.01343358 -0.10351051
v -0.14198785 0.01508302 -0.10116163
v -0.13775006 0.01407923 -0.10649861
v -0.14640130 0.01935761 -0.09541293
v -0.15145278 0.01450289 -0.08725500
v -0.15183504 0.01892091 -0.08729727
v -0.14036949 0.01843615 -0.10374704
v -0.13511927 0.01875396 -0.11028353
v -0.14944744 0.02256845 -0.09089939
v -0.15492283 0.01631211 -0.08179163
v -0.15423168 0.01333935 -0.08229616
v -0.14586642 0.02247461 -0.09608493
v -0.14307705 0.02249727 -0.09994977
v -0.13802251 0.02268768 -0.10636765
v -0.13056721 0.01864610 -0.11542445
v -0.12780464 0.01651129 -0.11836437
v -0.12284304 0.01430631 -0.12340894
v -0.11792532 0.01384651 -0.12822677
v -0.11116994 0.01348585 -0.13437937
v -0.12048646 0.01334169 -0.12517554
v -0.16026264 0.02280739 -0.07118808
v -0.15564679 0.02283916 -0.08039863
v -0.15667416 0.01847530 -0.07870382
v -0.16046433 0.01809432 -0.07106376
v -0.16334125 0.02069649 -0.06416862
v -0.16435157 0.01779291 -0.06191522
v -0.16633314 0.01935524 -0.05670349
v -0.16632070 0.02327396 -0.05631847
v -0.16252117 0.02371245 -0.06521167
v -0.16833681 0.02272896 -0.04997882
v -0.16849788 0.01897525 -0.04973837
v -0.17022601 0.01872839 -0.04379329
v -0.17038719 0.01412532 -0.04195287
v -0.17142998 0.01884583 -0.03841300
v -0.14958136 0.02354203 -0.09027684
v -0.13835894 0.02352193 -0.10556377
v -0.01562948 0.02177306 -0.17437634
v -0.02061887 0.02306389 -0.17363760
v -0.00872225 0.02288079 -0.17470007
v -0.01866613 0.01825494 -0.17423901
v -0.03162386 0.01839999 -0.17245243
v -0.03237407 0.02218671 -0.17209280
v -0.01220199 0.01802556 -0.17478503
v -0.03772470 0.01819783 -0.17125888
v -0.01575628 0.01384053 -0.17438287
v -0.02236315 0.01416180 -0.17350450
v -0.00954267 0.01454513 -0.17482865
v -0.03306139 0.01433304 -0.17196058
v -0.00073147 0.01898800 -0.17493966
v 0.01002753 0.02274822 -0.17468669
v -0.04470583 0.01826162 -0.16952190
v -0.04384762 0.01426394 -0.16959119
v 0.10795414 0.01413331 0.13624187
v 0.10399658 0.01504821 0.13971457
v 0.09914798 0.01495349 0.14332362
v 0.09651151 0.01366928 0.14468238
v 0.09174933 0.01512963 0.14847295
v 0.09106028 0.01352788 0.14828643
v 0.08712032 0.01405191 0.15118597
v 0.08733803 0.01290411 0.15034734
v 0.08391546 0.01385933 0.15299903
v 0.09621966 0.01298124 0.14440885
v 0.10347196 0.01791334 0.14092000
v 0.10813124 0.01801161 0.13721000
v 0.11163950 0.01768236 0.13429348
v 0.10144196 0.01880956 0.14256731
v 0.11252915 0.01411733 0.13242745
v 0.08728363 0.01778761 0.15197533
v 0.09347625 0.01887503 0.14810446
v 0.11704874 0.01549384 0.12887384
v 0.08063402 0.01353979 0.15468752
v 0.12329537 0.01919683 0.12394317
v 0.12032567 0.01531446 0.12571186
v 0.12343965 0.01532434 0.12266444
v 0.11590253 0.01377896 0.12913075
v 0.11879908 0.01382787 0.12644321
v 0.12771097 0.01532180 0.11815073
v 0.12820888 0.01919434 0.11878353
v 0.13089642 0.01526529 0.11470444
v 0.13006324 0.01379921 0.11491171
v 0.13310099 0.01428460 0.11180282
v 0.12403449 0.01380713 0.12126070
v 0.12124954 0.01310742 0.12352982
v 0.11028895 0.01290489 0.13339151
v 0.13662770 0.01439719 0.10781288
v 0.13818045 0.01785253 0.10717571
v 0.13072246 0.01930905 0.11595649
v 0.13929416 0.01408990 0.10429669
v 0.14230104 0.01313973 0.09970241
v 0.14673436 0.01412554 0.09430014
v 0.13330159 0.01317898 0.11061817
v 0.10575306 0.01289961 0.13701360
v 0.13771804 0.01307078 0.10529420
v 0.12837307 0.01307920 0.11582599
v 0.12498291 0.01307620 0.11949233
v 0.14706947 0.01284483 0.09130917
v 0.08215356 0.01295283 0.15340027
v 0.14090048 0.02360564 -0.10155439
v 0.14314286 0.02217384 -0.09981883
v 0.13896087 0.02225299 -0.10507801
v 0.13865532 0.02359126 -0.10438494
v 0.13631698 0.02220486 -0.10840204
v 0.13423388 0.02364517 -0.10983051
v 0.14332646 0.02382602 -0.09799094
v 0.14547420 0.02231146 -0.09647348
v 0.14543673 0.02344023 -0.09560785
v 0.14933851 0.02218070 -0.09099615
v 0.14903808 0.02341038 -0.09042927
v 0.12784332 0.02343749 -0.11724517
v 0.15145122 0.02238625 -0.08719097
v 0.15140477 0.02364100 -0.08605956
v 0.15357769 0.02356159 -0.08233554
v 0.15619066 0.02375014 -0.07748277
v 0.12556319 0.02423836 -0.11859997
v 0.13563569 0.02414315 -0.10713257
v 0.15230839 0.02425593 -0.08288224
v 0.13891488 0.02419212 -0.10266620
v 0.14280866 0.02426594 -0.09722870
v 0.15694147 0.02439845 -0.07414310
v 0.13314512 0.02443486 -0.10824548
v 0.11656470 0.02362182 -0.12858082
v 0.11355098 0.02426438 -0.13043226
v 0.11047899 0.02447166 -0.13251112
v 0.10752790 0.02395604 -0.13631654
v 0.16013004 0.02371370 -0.06951930
v 0.16014607 0.02439577 -0.06743716
v 0.10048312 0.02359713 -0.14199442
v 0.15608734 0.01451376 -0.07959583
v 0.15338041 0.01447558 -0.08429841
v 0.15492916 0.01786203 -0.08247410
v 0.14935778 0.01717106 -0.09199892
v 0.14945678 0.01508377 -0.09132181
v 0.16035266 0.01771948 -0.07169822
v 0.16070817 0.01429882 -0.07002691
v 0.16270530 0.01526042 -0.06593839
v 0.16394521 0.01863836 -0.06358957
v 0.15040921 0.01934612 -0.09023599
v 0.16087796 0.01944428 -0.07057727
v 0.15567407 0.01931879 -0.08095026
v 0.16555300 0.01830159 -0.05951361
v 0.16760965 0.01740647 -0.05327992
v 0.16804437 0.01484699 -0.05093132
v 0.17005293 0.01755645 -0.04510711
v 0.16754580 0.01930254 -0.05341671
v 0.17014134 0.01950097 -0.04479015
v 0.17125537 0.01817780 -0.04094377
v 0.16671403 0.02206913 -0.05470433
v 0.16495785 0.02245749 -0.05939942
v 0.16257627 0.02240853 -0.06521858
v 0.16072491 0.02224747 -0.06976359
v 0.17090395 0.01406350 -0.04022608
v 0.16819675 0.01336383 -0.04921660
v 0.15736686 0.01324940 -0.07607839
v 0.16988845 0.02199870 -0.04438633
v 0.14661974 0.01928401 -0.09590402
v 0.15827568 0.02226994 -0.07460193
v 0.15469868 0.02198206 -0.08176596
v 0.14312132 0.01755853 -0.10072663
v 0.14411530 0.01451958 -0.09867474
v 0.14179754 0.01520444 -0.10197150
v 0.14163002 0.01912549 -0.10258785
v 0.13544104 0.01909423 -0.11015584
v 0.13564426 0.01716325 -0.10989434
v 0.13850278 0.01460737 -0.10590690
v 0.13223383 0.01495183 -0.11324526
v 0.13455799 0.01359089 -0.11009027
v 0.12772736 0.01446637 -0.11811290
v 0.12040766 0.01348347 -0.12528464
v 0.17083108 0.01331516 -0.03875717
v 0.16315991 0.02365877 -0.06240209
v 0.09171225 0.01496833 -0.14885792
v 0.08429821 0.01533753 -0.15331818
v 0.08475097 0.01844298 -0.15330897
v 0.09191024 0.01849848 -0.14890556
v 0.07889995 0.01715487 -0.15642622
v 0.07727529 0.01342176 -0.15676264
v 0.07445884 0.01673023 -0.15865685
v 0.08248818 0.01337788 -0.15387680
v 0.07573818 0.01885806 -0.15807195
v 0.06701078 0.01829142 -0.16202086
v 0.06329613 0.01420747 -0.16319700
v 0.09317694 0.01329688 -0.14747432
v 0.09820057 0.01337561 -0.14389823
v 0.09942249 0.01461428 -0.14344397
v 0.09994838 0.01729761 -0.14338349
v 0.10788888 0.01417825 -0.13715547
v 0.10832671 0.01741802 -0.13720377
v 0.09860132 0.01887226 -0.14427596
v 0.10874939 0.01914134 -0.13684930
v 0.07848257 0.02357363 -0.15597348
v 0.08274200 0.02232304 -0.15389472
v 0.07287597 0.02235919 -0.15904248
v 0.09202307 0.02249813 -0.14827061
v 0.09588277 0.02285868 -0.14548025
v 0.09981046 0.02255263 -0.14285755
v 0.07560104 0.02365835 -0.15737739
v 0.06419595 0.02175486 -0.16286108
v 0.06715698 0.02364308 -0.16134329
v 0.10490600 0.02330188 -0.13892663
v 0.10790129 0.02324352 -0.13670421
v 0.07125554 0.02369208 -0.15948761
v 0.11245721 0.01717632 -0.13369559
v 0.11673881 0.01926493 -0.12978369
v 0.06058709 0.02361041 -0.16392575
v 0.11291594 0.02237847 -0.13253434
v 0.11632952 0.02262840 -0.12940767
v 0.11871009 0.02184274 -0.12739623
v 0.08129646 0.02366503 -0.15426160
v 0.11920945 0.01792960 -0.12750274
v 0.12246929 0.01785431 -0.12429776
v 0.12236712 0.02228928 -0.12367246
v 0.12689343 0.02212480 -0.11897947
v 0.12700762 0.01888905 -0.11952006
v 0.12663420 0.01741128 -0.11994078
v 0.11984359 0.02358565 -0.12551747
v 0.11299092 0.02361615 -0.13182577
v 0.12104076 0.01517033 -0.12534182
v 0.11455489 0.01450753 -0.13119668
v 0.12369645 0.02356777 -0.12160537
v 0.13053021 0.02324943 0.11456193
v 0.13308749 0.02283539 0.11197585
v 0.13473724 0.02391802 0.10919838
v 0.13516188 0.02271987 0.10959951
v 0.13785490 0.02244167 0.10631654
v 0.13849866 0.02400410 0.10436729
v 0.14046136 0.02279261 0.10281156
v 0.14097567 0.02389454 0.10130740
v 0.14353515 0.01898503 0.10056178
v 0.14592746 0.02269438 0.09551883
v 0.12701315 0.02204449 0.11898710
v 0.12321825 0.02207324 0.12288968
v 0.14969267 0.01895560 0.09171616
v 0.15104014 0.02378905 0.08695032
v 0.15304947 0.02214412 0.08509597
v 0.12733045 0.02344458 0.11784805
v 0.14515601 0.02385532 0.09573076
v 0.11835426 0.02304580 0.12707953
v 0.11638857 0.01912447 0.13042454
v 0.11565974 0.02291350 0.12956645
v 0.11195203 0.02250664 0.13303232
v 0.12217744 0.02361513 0.12303032
v 0.11988045 0.02344819 0.12535509
v 0.10951263 0.01917283 0.13616472
v 0.10729560 0.02326245 0.13661495
v 0.10336321 0.02282582 0.13988099
v 0.09639534 0.02267575 0.14496818
v 0.09769620 0.01873612 0.14529397
v 0.14076005 0.02441390 0.10025211
v 0.13070913 0.02465647 0.11229060
v 0.12791368 0.02411002 0.11649399
v 0.12004925 0.02438107 0.12422164
v 0.11745720 0.02468911 0.12573996
v 0.11526854 0.02406625 0.12899818
v 0.08694033 0.02234037 0.15123940
v 0.14557229 0.02439308 0.09382258
v 0.11058281 0.02459909 0.13224539
v 0.11092340 0.02395898 0.13306785
v 0.10526299 0.02412177 0.13749765
v 0.10238343 0.02395030 0.13999881
v 0.09957142 0.02393617 0.14201997
v 0.09697471 0.02413602 0.14364150
v 0.09320768 0.02394958 0.14647162
v 0.08955240 0.02447623 0.14791331
v 0.15072788 0.02449755 0.08534975
v 0.15287739 0.02448010 0.08190941
v 0.15696624 0.02379730 0.07681410
v 0.15909719 0.02447893 0.06967589
v 0.16336261 0.02428168 0.06081359
v -0.15494466 0.01419586 0.08109437
v -0.15738200 0.01924828 0.07757811
v -0.15693152 0.01500005 0.07766332
v -0.15311572 0.01895225 0.08533587
v -0.15203391 0.01496025 0.08631615
v -0.15084714 0.01940266 0.08952840
v -0.15006888 0.01763011 0.09037685
v -0.16002864 0.01516854 0.07144134
v -0.15842102 0.01395044 0.07429715
v -0.16206549 0.01899309 0.06778046
v -0.15542942 0.02229814 0.08124366
v -0.16032468 0.01392936 0.07034472
v -0.16363893 0.01397877 0.06286281
v -0.16194710 0.02218765 0.06797566
v -0.15917002 0.02290072 0.07373105
v -0.16505159 0.01863392 0.06000108
v -0.16505843 0.01390074 0.05924523
v -0.16461429 0.02309102 0.06120318
v -0.16626468 0.01384506 0.05597657
v -0.16817895 0.01878449 0.05147306
v -0.16764885 0.02212523 0.05284433
v -0.16768588 0.01402697 0.05173967
v -0.16919343 0.01379235 0.04713324
v -0.16646817 0.02360967 0.05574048
v -0.14604257 0.01898028 0.09681056
v -0.15285714 0.02300673 0.08532647
v -0.15039580 0.01398282 0.08860755
v -0.15664397 0.01314096 0.07709804
v -0.14257158 0.01404271 0.10003795
v -0.14101350 0.01772645 0.10325834
v -0.14255396 0.01926295 0.10148782
v -0.13659686 0.01783207 0.10882361
v -0.14980699 0.02287730 0.08993024
v -0.14489223 0.02307129 0.09709065
v -0.16232121 0.02364451 0.06628925
v -0.16996554 0.01318551 0.04308031
v -0.16414660 0.01312802 0.06043847
v -0.14811607 0.02412213 0.09154271
v -0.14485186 0.02404876 0.09655634
v -0.16415308 0.02385954 0.06143510
v -0.15052700 0.02439277 0.08761177
v -0.15720955 0.02391215 0.07663111
v 0.15744074 0.01833451 0.07791764
v 0.16129883 0.01779877 0.07012558
v 0.16139401 0.01946228 0.06995245
v 0.15664414 0.02238727 0.07884849
v 0.16040607 0.02246655 0.07118430
v 0.15497302 0.02223922 0.08194216
v 0.15355836 0.01897588 0.08508942
v 0.16337857 0.02202482 0.06469166
v 0.16409503 0.01927135 0.06355999
v 0.16567977 0.02186038 0.05892025
v 0.16704385 0.01968864 0.05566644
v 0.16415636 0.01723209 0.06324503
v 0.15315668 0.01734959 0.08566064
v 0.16757993 0.02223764 0.05308539
v 0.16303621 0.02302285 0.06488650
v 0.16782036 0.01775600 0.05322188
v 0.15634440 0.01493538 0.07913171
v 0.16072346 0.01500222 0.07044276
v 0.16559160 0.02272670 0.05842946
v 0.14941250 0.01509012 0.09080196
v 0.14713882 0.01898779 0.09561035
v 0.14337729 0.01487797 0.09946502
v 0.14920358 0.01378383 0.09024029
v 0.13837823 0.01915504 0.10711724
v 0.13332850 0.01907091 0.11310469
v 0.15888736 0.02297702 0.07382566
v 0.15435541 0.02357510 0.08170940
v 0.16005249 0.02356757 0.07055818
v 0.16272742 0.02374848 0.06460945
v 0.14572744 0.01316837 0.09495290
v 0.02164203 0.02258640 -0.17345895
v 0.02185920 0.02379485 -0.17312577
v 0.03134255 0.02311911 -0.17197399
v 0.03146120 0.01835028 -0.17225632
v 0.01571586 0.01777943 -0.17448664
v 0.03685219 0.01838558 -0.17128523
v 0.03766805 0.02301193 -0.17074241
v 0.04236332 0.01875114 -0.17001390
v 0.04315620 0.02269237 -0.16953835
v 0.04795393 0.02229154 -0.16827895
v 0.04783380 0.01828902 -0.16857395
v 0.05430226 0.01818111 -0.16669582
v 0.03822586 0.01433235 -0.17076384
v 0.04334188 0.01414469 -0.16949351
v 0.05051827 0.01513537 -0.16754949
v 0.03106083 0.01427081 -0.17202613
v 0.01507273 0.01366421 -0.17427795
v 0.05672178 0.02247030 -0.16562864
v 0.00830959 0.01805713 -0.17484517
v 0.00856112 0.01384143 -0.17475364
v 0.06128509 0.01821220 -0.16438988
v 0.05788505 0.01424908 -0.16520497
v 0.03386264 0.01351037 -0.17136711
v 0.02871262 0.01345294 -0.17213137
v 0.05215680 0.02366278 -0.16671981
v 0.04673353 0.02380053 -0.16818035
v 0.03992767 0.02374759 -0.16999811
v 0.03120953 0.02379222 -0.17172088
v 0.05918436 0.01332291 -0.16434346
v 0.04377110 0.01337586 -0.16897373
v -0.02189633 0.02737251 0.00260938
v -0.17443031 0.02395567 -0.01275804
v -0.17484176 0.02323787 -0.00943196
v -0.17487663 0.02347905 0.00698663
v -0.17423479 0.02384821 0.01677589
v -0.17441580 0.02309110 -0.01655920
v -0.17500000 0.02147009 0.00651558
v -0.17495067 0.02015712 -0.00873491
v -0.17484850 0.01448139 0.00857768
v -0.17481099 0.01472487 -0.00943420
v -0.17466089 0.01891942 -0.01574568
v -0.17457123 0.01460103 -0.01545888
v -0.17462333 0.02130163 0.01567532
v -0.17426287 0.01450686 0.01848724
v -0.17387593 0.01369977 -0.02186143
v -0.17396654 0.01863770 -0.02198550
v -0.17421779 0.01358277 0.01737042
v -0.17352055 0.01869085 0.02561855
v -0.17317986 0.02221175 0.02809325
v -0.17310627 0.01465690 0.02702831
v -0.17207909 0.01927029 0.03469974
v -0.17185323 0.01370774 0.03404550
v -0.17025514 0.01478422 0.04314167
v -0.16997714 0.02217136 0.04497495
v -0.16945864 0.01899301 0.04710543
v -0.17342402 0.02308785 -0.02426109
v -0.17286931 0.01848338 -0.02916485
v -0.17154962 0.02326633 -0.03797591
v -0.17154346 0.01486381 -0.03633000
v -0.17214023 0.01369803 -0.03190542
v -0.17446919 0.01358279 -0.01198902
v -0.16899259 0.01321421 -0.04663222
v -0.13120688 0.01321903 0.11327079
v -0.13221720 0.01456714 0.11297037
v -0.13473092 0.01400468 0.10970178
v -0.12845773 0.01408509 0.11698306
v -0.13327815 0.01308177 0.11053313
v -0.13760711 0.01387900 0.10620265
v -0.14602311 0.01399375 0.09536451
v -0.12843414 0.01299939 0.11601061
v -0.10232455 0.01313191 0.14015098
v -0.10182111 0.01413230 0.14113455
v -0.10593849 0.01402332 0.13785119
v -0.10755011 0.01301347 0.13589999
v -0.11151059 0.01427126 0.13345590
v -0.09874594 0.01309657 0.14283279
v -0.09785722 0.01377176 0.14391628
v -0.09265821 0.01301045 0.14698386
v -0.11961252 0.01400556 0.12584698
v -0.11661197 0.01322597 0.12817656
v -0.11701030 0.01433359 0.12851581
v -0.12309612 0.01313952 0.12189440
v -0.12258233 0.01416643 0.12307933
v -0.12488654 0.01420139 0.12079231
v -0.10793921 0.01809450 0.13745271
v -0.10146438 0.01897402 0.14267565
v -0.11333584 0.01925401 0.13317102
v -0.09748546 0.01891031 0.14547153
v -0.09491922 0.01487913 0.14622289
v -0.11748825 0.01931626 0.12949052
v -0.09097303 0.01882441 0.14975247
v -0.08910736 0.01444630 0.14996156
v -0.12729342 0.01945900 0.11967789
v -0.12993124 0.01939895 0.11681563
v -0.13074952 0.01700720 0.11544624
v -0.13476810 0.01953302 0.11125405
v -0.08455265 0.01509460 0.15287751
v -0.07734209 0.01360578 0.15665388
v -0.06685311 0.01370846 0.16173546
v 0.17356455 0.02364859 0.02006309
v 0.17476451 0.02315367 0.00562503
v 0.17434600 0.02391388 0.00566250
v 0.17432715 0.02385896 -0.00783932
v 0.17463517 0.02318763 -0.00995131
v 0.17322966 0.02405861 -0.01650345
v 0.17186061 0.02434591 0.02097022
v 0.17157562 0.02423504 0.02747060
v 0.17161161 0.02373869 0.03169648
v 0.17041536 0.02443496 0.03131035
v 0.16914348 0.02388120 0.04423459
v 0.16901776 0.02439759 0.04001828
v 0.16801588 0.02360459 0.04978588
v -0.01097474 0.01297607 0.17425787
v -0.00900155 0.01366771 0.17469245
v -0.01462628 0.01383947 0.17430407
v -0.02105734 0.01303311 0.17333007
v -0.02264139 0.01375844 0.17339943
v -0.00284457 0.01299682 0.17446044
v -0.00123978 0.01344719 0.17470998
v 0.00704786 0.01305108 0.17420398
v -0.00020427 0.02352432 0.17482360
v 0.00478567 0.02343454 0.17469497
v 0.01539483 0.02405825 0.17381664
v 0.06944305 0.01809409 0.16093606
v 0.07634330 0.01939542 0.15772095
v 0.06800383 0.02166302 0.16114450
v 0.07605394 0.02173328 0.15746298
v 0.06261563 0.01843629 0.16369542
v 0.06140061 0.02281667 0.16351728
v 0.05779047 0.02265772 0.16486382
v 0.05615380 0.01823146 0.16598447
v 0.05277021 0.02289829 0.16635051
v 0.04172020 0.01890935 0.17011745
v 0.04796410 0.02311462 0.16775167
v 0.04237938 0.02391530 0.16909181
v 0.03714612 0.02077392 0.17104006
v 0.03761981 0.02334380 0.17044832
v 0.03794549 0.01845481 0.17113274
v 0.03377478 0.01852351 0.17199980
v 0.03066579 0.02306729 0.17194152
v 0.06372713 0.02385565 0.16228254
v 0.06948687 0.02323350 0.16007328
v 0.02923837 0.01842296 0.17271461
v 0.07546312 0.02365553 0.15718876
v 0.03559029 0.02417860 0.17060769
v 0.01976988 0.02320502 0.17346019
v 0.04724714 0.02396288 0.16762975
v 0.02334837 0.01823827 0.17346185
v 0.01577159 0.02162212 0.17407639
v 0.01531296 0.01843284 0.17431290
v 0.05548896 0.02428016 0.16489249
v 0.00785791 0.01841487 0.17472506
v 0.07602650 0.01738251 0.15787509
v 0.06193909 0.01425656 0.16356404
v 0.05723528 0.01472029 0.16525476
v 0.05302627 0.01395353 0.16636978
v 0.03165999 0.01470697 0.17198767
v 0.00046894 0.01880427 0.17493966
v 0.01998306 0.01385537 0.17346194
v 0.00862928 0.01459014 0.17447475
v -0.00152537 0.01445868 0.17486359
v -0.01029866 0.01834171 0.17479591
v -0.00890956 0.02355201 0.17462192
v 0.06732421 0.01449773 0.16137096
v 0.07362143 0.01467499 0.15859352
v -0.01710883 0.01858117 0.17430709
v -0.02371621 0.01889377 0.17347699
v -0.03309311 0.01887894 0.17207919
v -0.03292716 0.02327645 0.17174709
v -0.03205863 0.01367564 0.17203927
v -0.03762364 0.01937787 0.17112419
v -0.03850278 0.01381016 0.17075588
v 0.08792194 0.01901315 0.15161832
v 0.07898141 0.01498886 0.15602978
v 0.08052821 0.02268973 0.15486959
v 0.08396563 0.02245857 0.15299967
v 0.06056850 0.02397262 0.16331966
v 0.06940558 0.01302198 0.15996997
v 0.07637369 0.01307563 0.15669569
v 0.06756553 0.02394035 0.16055901
v 0.08453725 0.02391044 0.15181956
v 0.08923308 0.02350207 0.14921936
v 0.09085053 0.02205051 0.14889683
v -0.04766435 0.02237459 -0.16845800
v -0.05133820 0.02356200 -0.16701470
v -0.04180710 0.02291260 -0.16995327
v -0.04137729 0.02377561 -0.16968477
v -0.05453850 0.02237209 -0.16648476
v -0.05758327 0.02348657 -0.16516390
v -0.04961844 0.02426775 -0.16659133
v -0.05354173 0.02429835 -0.16528703
v -0.06095658 0.02426033 -0.16291054
v -0.06367630 0.02366068 -0.16270144
v -0.08434661 0.01368848 -0.15345374
v -0.07964051 0.01407605 -0.15604399
v -0.07521422 0.01822810 -0.15858591
v -0.08231108 0.01813445 -0.15478522
v -0.07134934 0.01823886 -0.16040741
v -0.07052389 0.01360274 -0.16057663
v -0.08665206 0.01797238 -0.15218939
v -0.08766926 0.01344857 -0.15130754
v -0.09184346 0.01774123 -0.14897519
v -0.09194973 0.01343893 -0.14872383
v -0.09834442 0.01786847 -0.14452097
v -0.09880263 0.01418251 -0.14399809
v -0.10573135 0.01825869 -0.13928284
v -0.09115662 0.02278600 -0.14898849
v -0.08524401 0.02244416 -0.15258721
v -0.09805136 0.02257537 -0.14440352
v -0.08183201 0.02229979 -0.15459338
v -0.07336441 0.02237943 -0.15904711
v -0.10782474 0.01342164 -0.13741539
v -0.06431422 0.01826808 -0.16341244
v -0.06297599 0.01434035 -0.16384645
v -0.05967722 0.02246451 -0.16474991
v -0.06327084 0.02200513 -0.16344631
v -0.06729610 0.02349263 -0.16140880
v -0.07084869 0.02359110 -0.15975665
v -0.07452163 0.02351151 -0.15815553
v -0.07811315 0.02345555 -0.15630354
v -0.05993311 0.01797301 -0.16509971
v -0.05438634 0.01832167 -0.16686665
v -0.05922060 0.01436892 -0.16516632
v -0.08105089 0.02357990 -0.15457886
v -0.09265111 0.02359861 -0.14770104
v -0.09749427 0.02353751 -0.14449979
v -0.10153883 0.02363702 -0.14167784
v -0.07956483 0.02433797 -0.15420252
v -0.08360010 0.02305388 0.15316670
v -0.08250323 0.02402413 0.15332434
v -0.08580608 0.02428359 0.15116197
v -0.08770063 0.02257676 0.15077361
v -0.07741047 0.02404043 0.15633194
v -0.09190320 0.02413565 0.14731410
v -0.09640311 0.02265335 0.14517912
v -0.09761319 0.02405440 0.14359242
v -0.10122688 0.02363727 0.14136626
v -0.10537892 0.02236350 0.13873467
v -0.10804214 0.01936394 0.13752310
v -0.11170358 0.02286654 0.13360974
v -0.10570695 0.02393761 0.13776039
v -0.08034219 0.02153127 0.15524019
v -0.11578681 0.02332629 0.12967628
v -0.11808255 0.02258267 0.12782474
v -0.12300589 0.01938437 0.12415923
v -0.12318435 0.02236956 0.12304753
v -0.12848338 0.02259348 0.11751752
v -0.13164036 0.02318176 0.11381659
v -0.13368163 0.02282178 0.11170742
v -0.13778414 0.01941976 0.10762385
v -0.13900734 0.02304669 0.10486884
v -0.07443127 0.02450503 0.15710299
v -0.07122769 0.02413179 0.15923142
v -0.06946699 0.02456493 0.15897037
v -0.06599231 0.02447909 0.16096176
v -0.06408693 0.02427824 0.16230132
v -0.05984163 0.02452822 0.16313919
v -0.12834744 0.02423850 0.11660259
v -0.12517492 0.02365621 0.12039682
v -0.12236410 0.02428262 0.12270642
v -0.11897380 0.02412122 0.12604874
v -0.11305706 0.02407792 0.13165370
v -0.10859274 0.02431455 0.13522893
v -0.13489607 0.02411677 0.10926828
v -0.13881360 0.02418512 0.10435723
v -0.14257881 0.02370764 0.09979099
v -0.14036974 0.02452847 0.10154252
v -0.14584710 0.02456426 0.09416182
v -0.11397156 0.02452823 0.12988691
v -0.12185981 0.02460570 0.12200937
v -0.09803993 0.02453382 0.14246280
v -0.09350600 0.02455979 0.14572257
v 0.17375942 0.01322064 0.01763051
v 0.17317156 0.01365715 0.02308189
v 0.17135061 0.01478007 0.03759756
v 0.17369175 0.01472621 0.02153651
v 0.17455427 0.01456102 0.01263569
v 0.17357430 0.01841693 0.02594410
v 0.17440106 0.01845349 0.01872905
v 0.17193219 0.01872507 0.03609810
v 0.17109674 0.01849812 0.04070700
v 0.17005308 0.01481886 0.04390516
v 0.16953097 0.01726869 0.04733600
v 0.17018174 0.01379704 0.04196699
v 0.16956845 0.01923744 0.04738997
v 0.16752928 0.01420140 0.05210907
v 0.17131224 0.02182671 0.03891904
v 0.17487048 0.01456685 0.00552524
v 0.17463860 0.01339443 -0.00786566
v 0.17474473 0.01457433 -0.01153584
v 0.17492288 0.01826659 -0.01045877
v 0.17500000 0.01893781 0.00540819
v 0.17477836 0.01860741 -0.01542600
v 0.17478080 0.01898422 0.01275458
v 0.17493685 0.02186942 0.00709205
v 0.17477581 0.02181116 -0.01263043
v 0.17432150 0.02170038 0.01858790
v 0.17429599 0.01822392 -0.02220686
v 0.17389394 0.01475218 -0.02303557
v 0.17384768 0.02247535 -0.02312511
v 0.17329924 0.02262277 0.02563150
v 0.17337738 0.02172892 -0.02720812
v 0.17350724 0.01824715 -0.02803156
v 0.17236552 0.01832980 -0.03583720
v 0.17417781 0.02295932 0.01732410
v 0.17160095 0.02194950 -0.03807811
v 0.17186052 0.01401794 -0.03563250
v 0.17234254 0.02345910 -0.03096298
v 0.17162871 0.02283553 0.03515632
v 0.17342722 0.02365714 -0.02243123
v 0.17047569 0.02245777 0.04214421
v 0.17334585 0.01371610 -0.02512338
v 0.17076012 0.02384758 -0.03754722
v 0.17044534 0.02278482 -0.04149999
v 0.16916259 0.02281041 0.04741755
v -0.05994397 0.01303701 0.16443577
v -0.05118662 0.01331752 0.16739053
v -0.05964510 0.01360067 0.16470714
v -0.06600820 0.01299741 0.16196753
v -0.04214260 0.01301738 0.16956367
v -0.02921992 0.01308369 0.17240366
v -0.04892948 0.01906560 0.16808227
v -0.05738226 0.01885657 0.16562532
v -0.04171088 0.02347647 0.16971336
v -0.04781932 0.02404077 0.16792765
v -0.05730923 0.02103319 0.16540840
v -0.06314010 0.01877110 0.16344972
v -0.06344074 0.02329723 0.16289948
v -0.07047876 0.01905156 0.16023399
v -0.06934027 0.02305242 0.16037801
v -0.05250657 0.02408833 0.16641763
v -0.05679942 0.02414285 0.16500904
v -0.07568360 0.01890151 0.15775132
v -0.08651609 0.01884196 0.15219668
v -0.07437479 0.02405658 0.15788622
v -0.06121067 0.02405336 0.16349389
v 0.00000362 0.02732519 0.00682924
v -0.00120040 0.02728542 0.00308767
v -0.02462603 0.02739734 -0.00024410
v -0.16626036 0.02396325 -0.05549499
v -0.16467857 0.02371345 -0.05990554
v -0.16635256 0.02437276 -0.05302624
v -0.16794726 0.02382503 -0.05062997
v -0.16773595 0.02442151 -0.04848444
v -0.16480589 0.02434205 -0.05745645
v -0.16996153 0.02362582 -0.04459745
v -0.16922741 0.02425578 -0.04491663
v -0.17059794 0.02387581 -0.04134592
v -0.17160700 0.02386743 -0.03612128
v -0.17203327 0.02423067 -0.02960057
v -0.17078032 0.02431631 -0.03318490
v -0.17330381 0.02383466 -0.02358860
v -0.17343998 0.02416184 -0.01817614
v -0.17368503 0.02442082 0.00099762
v -0.17459191 0.02417379 0.00528689
v -0.17334691 0.02419439 0.01903289
v -0.17220266 0.02431210 0.02542268
v -0.17287828 0.02398889 0.02694521
v -0.17324656 0.02358128 0.02625378
v -0.16989145 0.02446282 0.03062465
v -0.17124888 0.02432624 0.03297931
v -0.16751620 0.02434946 0.04970621
v -0.16558564 0.02434549 0.05553390
v -0.16378617 0.02444563 0.05974546
v -0.16231263 0.02449414 0.06219593
v -0.16977753 0.02390470 0.04365627
v -0.16807027 0.02398667 0.05001169
v -0.17035560 0.02426882 -0.03930135
v -0.15706070 0.02455928 0.07515894
v -0.16036916 0.02366418 0.07043214
v -0.15471712 0.02446792 0.07992502
v -0.12950660 0.02458399 0.11437055
v -0.13374430 0.02457374 0.10976158
v -0.10204842 0.02443383 0.13987778
v -0.08254161 0.02454066 0.15242890
v -0.07921499 0.02449328 0.15453045
v -0.03541571 0.02458631 0.17031336
v -0.05446087 0.02452939 0.16493592
v -0.03773600 0.02434206 0.17049529
v -0.02943074 0.02426672 0.17220086
v -0.04282059 0.02422227 0.16923040
v -0.10674700 0.02454419 0.13591833
v -0.15711324 0.02438052 -0.07557762
v -0.15778211 0.02380192 -0.07580369
v -0.15911870 0.02425482 -0.07178272
v -0.16043493 0.02372471 -0.07031215
v -0.15481780 0.02422609 -0.08048780
v -0.16071391 0.02431966 -0.06768155
v -0.15510619 0.02369369 -0.08107169
v -0.15258804 0.02437840 -0.08335448
v -0.16911277 0.02336664 0.04769333
v -0.16928560 0.02444940 0.04191828
v -0.05049106 0.02439998 0.16649954
v 0.01768588 0.02445225 0.17225039
v 0.02767282 0.02424541 0.17193158
v 0.03374202 0.02449567 0.17044701
v 0.03723533 0.02460710 0.16920696
v 0.01794968 0.02426097 0.17324527
v -0.00194798 0.02445587 0.17374429
v -0.00444553 0.02428226 0.17458743
v 0.04132276 0.02451857 0.16853155
v 0.05610444 0.02463034 0.16348763
v 0.05230301 0.02400795 0.16604613
v 0.06042664 0.02453201 0.16254129
v 0.04955157 0.02447490 0.16620426
v -0.15176868 0.02422199 -0.08570527
v -0.15255751 0.02355882 -0.08557751
v -0.14544646 0.02425418 -0.09467133
v -0.14348081 0.02406852 -0.09794582
v -0.13989908 0.02435696 -0.10156956
v -0.14270441 0.02342382 -0.10010148
v -0.13829091 0.02414984 -0.10448691
v -0.13487178 0.02394909 -0.10914467
v -0.13309711 0.02437490 -0.10949005
v -0.12790191 0.02419797 -0.11649469
v -0.12736587 0.02449601 -0.11504450
v -0.12156784 0.02457708 -0.11870372
v -0.12000007 0.02454878 -0.12287664
v -0.11504998 0.02459065 -0.12608960
v -0.11107893 0.02453931 -0.13165675
v -0.11737360 0.02432515 -0.12696123
v -0.10697475 0.02456215 -0.13446054
v -0.11215013 0.02424842 -0.13217001
v -0.11505023 0.02362041 -0.13047384
v -0.11764633 0.02343272 -0.12823872
v -0.11162230 0.02358437 -0.13371246
v -0.12102110 0.02361914 -0.12472759
v -0.12398235 0.02356482 -0.12180972
v -0.13088517 0.02239113 -0.11470959
v -0.10545214 0.02428293 -0.13778523
v -0.08925808 0.02457679 -0.14607492
v -0.08760878 0.02449758 -0.14893624
v -0.07913975 0.02458711 -0.15252095
v -0.07518575 0.02457012 -0.15515457
v -0.05972728 0.02462406 -0.16125126
v -0.06335001 0.02450142 -0.16110322
v -0.05800681 0.02444657 -0.16334340
v -0.05467333 0.02458226 -0.16371858
v -0.04659948 0.02458982 -0.16624638
v -0.04125582 0.02465119 -0.16604103
v -0.03727287 0.02462431 -0.16808815
v -0.03297493 0.02461104 -0.16938150
v 0.02802816 0.02454876 -0.17078944
v 0.03414982 0.02458214 -0.16942018
v 0.03308004 0.02430276 -0.17069101
v 0.03979094 0.02429030 -0.16928789
v 0.04467006 0.02439917 -0.16793941
v 0.04845523 0.02452938 -0.16659027
v 0.04480278 0.02471081 -0.16630171
v 0.05333044 0.02436030 -0.16532913
v 0.05617384 0.02364610 -0.16542676
v 0.06013306 0.02432750 -0.16326004
v 0.06389569 0.02463866 -0.16079164
v 0.06910921 0.02468281 -0.15786597
v 0.06692845 0.02435365 -0.16066565
v 0.07117029 0.02448988 -0.15837435
v 0.07554422 0.02442991 -0.15632866
v 0.08040333 0.02441934 -0.15366486
v 0.08860014 0.02460241 -0.14750513
v 0.08813127 0.02425405 -0.14942221
v 0.06428833 0.02371283 -0.16242857
v 0.03970803 0.02460339 -0.16807804
v -0.02758752 0.02449433 -0.17083208
v -0.03730353 0.02439510 -0.16946967
v -0.03317746 0.02426470 -0.17069665
v -0.02931155 0.02359666 -0.17217517
v -0.02528000 0.02425337 -0.17203796
v -0.02140611 0.02377172 -0.17320146
v -0.01484119 0.02453601 -0.17218071
v -0.01016381 0.02423794 -0.17351037
v 0.00471525 0.02428709 -0.17356199
v -0.00024135 0.02383919 -0.17448147
v 0.01240834 0.02370117 -0.17427079
v 0.01478772 0.02414806 -0.17338003
v -0.01162366 0.02370194 -0.17425376
v -0.00006001 0.02299904 -0.17486697
v 0.01699373 0.02293205 -0.17406021
v -0.03582355 0.02357576 -0.17101544
v -0.04393738 0.02439839 -0.16792549
v -0.06715853 0.02423245 -0.16056161
v -0.06959687 0.02457321 -0.15796328
v -0.07640022 0.02429263 -0.15612605
v -0.09220054 0.02425828 -0.14703612
v -0.08837218 0.02426937 -0.14941116
v -0.09621324 0.02419574 -0.14440544
v -0.08729535 0.02361030 -0.15099931
v 0.11127410 0.02461302 -0.12992026
v 0.11927500 0.02441566 -0.12458998
v 0.12739605 0.02454156 -0.11383573
v 0.14293192 0.02438001 -0.09585868
v 0.14909461 0.02424157 -0.08807256
v 0.15491043 0.02438160 -0.07815945
v 0.15460713 0.02448915 -0.07639768
v 0.15881799 0.02449976 -0.06787666
v 0.15875864 0.02429508 -0.07087979
v 0.16176213 0.02427256 -0.06389004
v 0.16444059 0.02411472 -0.05728172
v 0.16602956 0.02438830 -0.04988206
v 0.16863312 0.02428814 -0.04233424
v 0.16913401 0.02369933 -0.04424249
v 0.16783139 0.02420841 -0.04677375
v 0.17060131 0.02431496 -0.03245635
v 0.16591619 0.02357278 -0.05513667
v 0.14579156 0.02418757 -0.09356615
v 0.17172013 0.02410329 -0.03018627
v 0.17199810 0.02430288 -0.01826600
v 0.17349865 0.02427840 0.00247332
v 0.17191735 0.02442356 0.00882405
v 0.17315061 0.02410675 0.01568796
v 0.16903928 0.02446539 0.03481555
v 0.16782932 0.02445170 0.04468171
v 0.16577245 0.02446645 0.05109440
v 0.16737278 0.02420567 0.04905184
v 0.16501588 0.02436440 0.05514792
v 0.16319010 0.02455094 0.05804638
v 0.17000599 0.02420744 0.03705159
v 0.12686463 0.02444521 -0.11619011
v 0.09016035 0.02340327 -0.14926180
v -0.12217625 0.02431127 -0.12223387
v -0.13099779 0.02361034 -0.11407599
v -0.14689520 0.02349183 -0.09416462
v 0.15608846 0.02448513 0.07546137
v 0.15687481 0.02433254 0.07542862
v 0.15218885 0.02456373 0.08029924
v 0.10371775 0.02433709 -0.13837312
v -0.15571907 0.02346672 0.08033528
v -0.01950975 0.02440788 0.17323864
v -0.01928725 0.02418454 0.17354476
v 0.14790255 0.02451578 0.08960579
v 0.13451272 0.02453382 0.10805459
v 0.12712722 0.02468160 0.11591291
v 0.10057027 0.02455214 0.14016873
v 0.09411719 0.02460424 0.14458370
v 0.08852001 0.02467172 0.14793576
v 0.08461040 0.02467852 0.14995292
v 0.08299384 0.02461884 0.15162276
v 0.07696944 0.02468425 0.15343797
v 0.07918741 0.02446845 0.15417415
v 0.07523259 0.02459198 0.15597479
v 0.07261077 0.02406129 0.15823114
v 0.07175253 0.02460661 0.15757667
v 0.06824005 0.02467630 0.15680856
v 0.07928089 0.02391928 0.15491422
v -0.01217200 0.02453750 0.17226505
v -0.10108798 0.02418051 -0.14108579
v 0.16187909 0.02435632 0.06402240
v 0.09919275 0.02436615 -0.14166494
v 0.09640867 0.02420374 -0.14402819
v -0.07185701 0.02437213 -0.15818404
v -0.15203241 0.02457188 0.08426737
v 0.09193207 0.02443229 -0.14668359
v 0.09378717 0.02390636 -0.14638166
v -0.16193971 0.02445082 0.06470608
v 0.16628411 0.02420463 -0.05170162
v 0.06707877 0.02445124 0.16002207
v -0.16317129 0.02422743 -0.06219834
v -0.17030160 0.02433825 0.03826061
v 0.02552578 0.02432575 -0.17203368
v -0.13413824 0.02331821 -0.11078265
v -0.12719965 0.02357304 -0.11845911
v -0.17043999 0.02335916 0.04202489
v -0.17184889 0.02324550 0.03536771
v -0.17175895 0.02385478 0.03419632
v -0.15354313 0.02393734 0.08325586
v 0.01622996 0.02455779 -0.17215247
v 0.12275376 0.02470067 0.12060589
v 0.16795187 0.02362575 -0.04877830
v -0.10210441 0.01286856 -0.14050987
v -0.10510164 0.01283995 -0.13757235
v -0.07293036 0.01287772 -0.15811107
v -0.07815556 0.01296128 -0.15577160
v -0.07422420 0.01350027 -0.15887307
v -0.07815773 0.01338932 -0.15658079
v -0.09397183 0.01284852 -0.14584072
v -0.06872373 0.01308993 -0.16043089
v -0.06567214 0.01363403 -0.16249122
v -0.06341001 0.01294873 -0.16196172
v -0.06034814 0.01326727 -0.16404696
v -0.05683033 0.01357553 -0.16552582
v -0.05541585 0.01300652 -0.16454212
v -0.05510452 0.01459498 -0.16644581
v -0.09025341 0.01291648 -0.14895482
v -0.04516021 0.01355088 -0.16886093
v -0.04572282 0.01301262 -0.16725527
v -0.03954189 0.01311201 -0.16939995
v -0.04060975 0.01354195 -0.16998231
v -0.03926468 0.01286860 -0.16817558
v -0.13831571 0.01293282 -0.10441104
v -0.01714730 0.01288184 -0.17219596
v -0.00514894 0.01287271 -0.17232153
v -0.02628231 0.01315027 -0.17196406
v -0.01020888 0.01305785 -0.17352013
v 0.01664639 0.01280542 -0.17213710
v -0.02393643 0.01348162 -0.17300378
v 0.00893968 0.01299894 -0.17358144
v -0.01378940 0.01337741 -0.17414841
v 0.16849193 0.01288432 -0.04395724
v 0.16726467 0.01294163 -0.04906001
v 0.16900022 0.01317366 -0.04554913
v 0.09721998 0.01275071 0.14259973
v 0.09051096 0.01282791 0.14795113
v 0.10415457 0.01305551 0.13858034
v 0.05414499 0.01278337 0.16476880
v 0.06156035 0.01280990 0.16219744
v 0.06999769 0.01277116 0.15872477
v 0.10124333 0.01306814 0.14090046
v 0.08388960 0.01269706 0.15138565
v 0.07990189 0.01269467 0.15359643
v 0.07336607 0.01305055 0.15812883
v 0.16330828 0.01285813 -0.06110189
v 0.04691497 0.01275717 0.16660950
v 0.04958206 0.01306005 0.16695204
v 0.04172226 0.01309535 0.16932377
v 0.03670127 0.01281718 0.16905746
v 0.03673644 0.01304754 0.17042138
v 0.03807701 0.01394743 0.17057437
v 0.04365727 0.01400022 0.16920787
v 0.03028846 0.01307851 0.17159553
v 0.16196311 0.01291696 -0.06473657
v 0.16311632 0.01333285 -0.06376275
v 0.15643588 0.01287960 -0.07634653
v 0.15837185 0.01283342 -0.07223579
v 0.16004315 0.01337482 -0.07053411
v 0.15995134 0.01283852 -0.06894818
v 0.15399677 0.01280219 -0.08054429
v -0.09502196 0.01324269 -0.14625113
v 0.16564691 0.01328359 -0.05672479
v -0.12406942 0.01293397 0.11971041
v -0.15063711 0.01290452 -0.08644949
v 0.12542193 0.01287819 0.11790914
v 0.12118123 0.01284888 0.12213457
v -0.14333495 0.01289657 -0.09762007
v -0.14401759 0.01326074 -0.09773594
v -0.13529524 0.01325420 -0.10928228
v 0.13459195 0.01288019 0.10807936
v -0.07551670 0.01299309 0.15735267
v -0.08743062 0.01296420 0.15053126
v -0.09079257 0.01282029 0.14718574
v -0.06854881 0.01286332 0.15984342
v -0.05549113 0.01295013 0.16539800
v -0.05135875 0.01304220 0.16723359
v -0.09490703 0.01286005 0.14474490
v -0.08396083 0.01311913 0.15275647
v 0.13989730 0.01287915 0.10134117
v 0.17434017 0.01285309 -0.00585105
v 0.17433634 0.01304724 0.00907409
v 0.17467487 0.01347972 0.00770548
v 0.16914935 0.01286776 0.03933596
v 0.17401096 0.01324290 -0.01867965
v 0.01941968 0.01328856 -0.17328450
v 0.06612168 0.01281340 -0.16072817
v 0.06827291 0.01311915 -0.16077481
v 0.05343011 0.01344947 -0.16633587
v 0.04760972 0.01291662 -0.16678728
v 0.04872533 0.01340073 -0.16764538
v 0.05869919 0.01300689 -0.16381553
v 0.07359168 0.01286447 -0.15764964
v 0.07027233 0.01355628 -0.16022614
v 0.07772109 0.01288681 -0.15586090
v 0.17051893 0.01316214 0.03725860
v 0.16839489 0.01317243 0.04756087
v 0.16754468 0.01290176 0.04651502
v 0.16559133 0.01283585 0.05222005
v 0.16360971 0.01286445 0.05861701
v 0.16362566 0.01327585 0.06205627
v 0.15578473 0.01290579 0.07712346
v 0.15211083 0.01292424 0.08434007
v 0.15619887 0.01320081 0.07799684
v 0.15468602 0.01403683 0.08172668
v 0.15204805 0.01396700 0.08606446
v 0.15893805 0.01491315 0.07412583
v 0.15889485 0.01296958 0.07141877
v 0.15791526 0.01327768 0.07476098
v 0.16435918 0.01412460 0.06148673
v 0.16602115 0.01488936 0.05752278
v 0.16631816 0.01374743 0.05515026
v 0.16223064 0.01399031 0.06614717
v 0.16561973 0.01304497 0.05476984
v 0.16155431 0.01298418 0.06563308
v 0.17151901 0.01375606 0.03448077
v 0.16916370 0.01399022 0.04682709
v 0.05675573 0.01311880 0.16494894
v 0.14396465 0.01296323 0.09686043
v -0.14184369 0.01293051 0.09871955
v -0.14682193 0.01301581 0.09312481
v -0.14358671 0.01317138 0.09794935
v -0.15029563 0.01306519 0.08780748
v -0.00055001 0.01378301 -0.17490852
v 0.06281768 0.01313722 0.16269661
v 0.15269129 0.01294694 -0.08375510
v 0.15118311 0.01348534 -0.08754525
v 0.14794575 0.01295876 -0.09115278
v 0.14915270 0.01350811 -0.09084764
v 0.14681982 0.01341739 -0.09412455
v 0.14590327 0.01284440 -0.09348786
v -0.15150417 0.01294022 0.08427629
v -0.15302633 0.01312213 0.08357461
v -0.15437610 0.01293522 0.07918614
v -0.15913282 0.01314148 0.07161228
v -0.16033421 0.01303353 0.06752314
v -0.16243857 0.01321928 0.06482241
v -0.16254078 0.01298788 0.06187792
v 0.16575636 0.01403327 -0.05752629
v 0.03068498 0.01366426 0.17189428
v 0.00495016 0.01327625 -0.17452428
v -0.11843175 0.01295896 0.12532501
v -0.16849972 0.01309291 0.04756154
v -0.17111973 0.01317718 0.03673546
v -0.17352547 0.01323923 0.01840072
v -0.17315838 0.01366424 0.02572925
v -0.17458309 0.01355584 0.00745062
v -0.17350318 0.01324628 -0.01266297
v -0.17158820 0.01310011 -0.03152687
v -0.17331517 0.01341310 -0.02206107
v -0.17098710 0.01323870 -0.03688524
v -0.16885719 0.01300355 -0.04381570
v -0.16625719 0.01329090 0.05476352
v 0.17195947 0.01325313 0.02943394
v 0.11254273 0.01292981 0.13130361
v 0.15467265 0.01338050 -0.08125435
v -0.17338318 0.01381362 -0.02481526
v -0.13837983 0.01307938 0.10446928
v 0.13036661 0.01297568 -0.11345768
v 0.13577366 0.01306349 -0.10771129
v 0.13877359 0.01318701 -0.10425291
v 0.13980183 0.01287135 -0.10177533
v 0.11798331 0.01291655 -0.12592959
v 0.12244139 0.01289635 -0.12141034
v 0.11782330 0.01333141 -0.12752384
v 0.11383743 0.01335818 -0.13130878
v 0.10373203 0.01293286 -0.13907050
v 0.10076738 0.01281494 -0.14051794
v 0.09554917 0.01289921 -0.14497136
v 0.10398337 0.01336815 -0.13969685
v 0.09077791 0.01282690 -0.14823671
v 0.10914233 0.01292064 -0.13473719
v 0.09005511 0.01342705 -0.14958589
v 0.12643029 0.01291765 -0.11742262
v 0.02403399 0.01298382 -0.17209359
v -0.03968313 0.01433399 -0.17066082
v 0.14150652 0.01378826 -0.10149846
v 0.10794053 0.01341360 -0.13684362
v -0.15820545 0.01301620 -0.07346138
v -0.15780769 0.01337360 -0.07608796
v -0.16155736 0.01305089 -0.06568118
v -0.11016203 0.01294337 -0.13418809
v -0.03150555 0.01308109 -0.17073521
v 0.02207454 0.01301711 0.17273144
v 0.14366661 0.01319928 -0.09798679
v -0.05109853 0.01323435 -0.16656615
v 0.02789395 0.01291465 -0.17078105
v 0.01870129 0.01285998 0.17238659
v 0.16033712 0.01377070 0.07017896
v -0.11416427 0.01338369 -0.13147353
v -0.12716456 0.01300182 -0.11726697
v -0.11786213 0.01294488 -0.12637945
v 0.04200342 0.01303575 -0.16857016
v 0.13029039 0.01345425 -0.11470536
v 0.12530415 0.01341825 -0.12021219
v -0.03557756 0.01352237 -0.17107348
v 0.07830998 0.01287860 0.15539840
v 0.17180347 0.01302651 -0.02856869
v 0.08734883 0.01274656 -0.14963844
v 0.07620721 0.01273129 -0.15526307
v -0.15116818 0.01330251 -0.08728286
v 0.17318442 0.01317783 -0.02304104
v 0.17214496 0.01332951 -0.03199219
v 0.03617383 0.01329176 -0.17047946
v 0.08630151 0.01349868 -0.15176895
f 466 446 762
f 1055 22 1007
f 15 528 45
f 19 24 25
f 25 18 19
f 443 448 447
f 459 453 458
f 747 899 897
f 705 704 702
f 76 74 75
f 17 1007 22
f 992 980 2
f 1068 250 247
f 33 15 36
f 3 13 36
f 36 15 3
f 3 15 45
f 45 35 3
f 702 704 698
f 21 20 22
f 22 23 21
f 19 20 21
f 21 24 19
f 21 33 24
f 23 33 21
f 75 74 70
f 74 72 70
f 787 790 937
f 810 809 937
f 768 445 769
f 453 459 769
f 769 445 453
f 447 453 444
f 453 445 444
f 444 443 447
f 766 445 768
f 960 749 779
f 749 770 802
f 802 779 749
f 787 937 954
f 954 937 809
f 864 859 749
f 864 863 859
f 864 747 897
f 787 747 441
f 441 747 749
f 441 664 787
f 749 664 441
f 36 13 37
f 642 501 639
f 509 743 508
f 622 89 65
f 75 81 80
f 80 76 75
f 616 622 65
f 65 89 88
f 65 88 64
f 64 88 87
f 77 72 74
f 414 413 416
f 1003 2 999
f 117 113 119
f 271 867 266
f 267 250 431
f 1138 51 1146
f 1020 17 1034
f 1007 17 1020
f 1034 17 1032
f 22 51 38
f 38 17 22
f 979 2 1156
f 44 2 7
f 7 1039 44
f 1166 2 998
f 1156 2 1166
f 19 18 27
f 27 2 19
f 27 25 26
f 18 25 27
f 19 2 39
f 1147 1145 248
f 107 113 110
f 107 109 113
f 119 113 886
f 113 109 886
f 886 109 882
f 1055 1007 1172
f 1007 1177 1172
f 699 1057 1055
f 699 698 1057
f 714 709 717
f 32 25 24
f 24 33 32
f 32 33 36
f 36 29 32
f 49 23 48
f 49 33 23
f 48 52 49
f 45 528 523
f 523 35 45
f 1025 1162 15
f 687 698 704
f 1057 698 687
f 11 47 8
f 11 1076 48
f 48 23 11
f 1057 687 683
f 683 687 686
f 686 684 683
f 1055 1057 1056
f 1057 683 1056
f 14 22 1055
f 1055 47 14
f 47 11 14
f 14 23 22
f 14 11 23
f 458 453 454
f 1175 81 75
f 75 70 1175
f 1175 1039 81
f 71 70 72
f 998 44 1042
f 1042 44 1039
f 1042 1175 70
f 1039 1175 1042
f 451 450 448
f 451 443 446
f 448 443 451
f 7 2 28
f 745 740 738
f 738 666 745
f 642 639 645
f 645 639 641
f 647 496 645
f 645 501 642
f 356 378 362
f 362 378 777
f 362 359 356
f 465 361 358
f 358 361 360
f 358 464 465
f 359 464 358
f 356 359 358
f 461 459 458
f 777 802 776
f 445 766 765
f 765 444 445
f 443 444 765
f 678 749 960
f 678 783 749
f 782 680 749
f 749 783 782
f 782 670 680
f 783 668 782
f 668 670 782
f 658 668 674
f 674 668 783
f 967 776 802
f 976 321 319
f 142 307 308
f 53 904 747
f 53 934 925
f 319 934 53
f 952 947 53
f 899 747 903
f 747 904 903
f 859 863 858
f 860 435 858
f 749 747 748
f 748 864 749
f 747 864 748
f 511 705 514
f 705 706 514
f 710 514 706
f 938 937 790
f 810 937 938
f 484 37 1052
f 1052 486 484
f 13 1047 12
f 12 37 13
f 1047 37 12
f 10 40 9
f 36 37 9
f 9 40 36
f 653 656 654
f 654 656 500
f 807 954 809
f 807 53 747
f 807 747 787
f 787 954 807
f 739 743 509
f 740 745 739
f 739 745 743
f 652 639 501
f 743 745 652
f 501 645 498
f 498 645 496
f 483 482 495
f 482 496 495
f 653 654 650
f 650 654 500
f 481 483 484
f 484 486 481
f 481 482 483
f 487 496 482
f 482 481 487
f 487 481 486
f 499 498 487
f 487 498 496
f 1050 726 3
f 744 508 743
f 744 652 501
f 743 652 744
f 501 507 744
f 744 507 508
f 1156 622 978
f 978 979 1156
f 2 979 978
f 613 612 604
f 981 980 992
f 981 982 980
f 980 982 985
f 999 2 997
f 999 997 1157
f 1157 997 995
f 94 96 95
f 92 817 76
f 613 622 615
f 622 616 615
f 65 64 59
f 76 817 79
f 74 76 79
f 79 82 74
f 84 77 83
f 83 77 74
f 74 82 83
f 993 995 1160
f 415 414 426
f 884 975 968
f 413 887 412
f 411 414 415
f 415 887 411
f 413 414 411
f 411 887 413
f 1061 1174 1
f 2 1003 1
f 1 39 2
f 19 39 1
f 1 20 19
f 22 20 1
f 1 51 22
f 1000 1003 999
f 119 886 429
f 110 113 115
f 113 117 115
f 863 864 866
f 866 868 867
f 435 861 428
f 428 861 274
f 428 267 431
f 274 267 428
f 250 267 262
f 262 271 266
f 51 1145 1142
f 1142 1146 51
f 1139 1169 1138
f 248 1145 1069
f 1173 1145 51
f 51 1 1173
f 1173 1 1174
f 1173 1069 1145
f 1174 1069 1173
f 1148 51 1138
f 1148 1136 51
f 1138 1169 1148
f 1008 1009 1007
f 1007 1020 1008
f 1008 1020 1009
f 1034 1032 223
f 51 1136 42
f 42 38 51
f 42 1136 1105
f 1105 38 42
f 1035 38 1105
f 1035 1032 17
f 17 38 1035
f 998 2 43
f 43 44 998
f 2 44 43
f 1164 88 89
f 89 622 1164
f 1164 622 1156
f 242 243 241
f 241 1147 242
f 108 107 110
f 883 886 882
f 883 412 887
f 883 884 968
f 968 412 883
f 702 698 701
f 703 706 701
f 701 705 702
f 701 706 705
f 708 706 703
f 708 710 706
f 703 701 700
f 700 708 703
f 709 708 700
f 698 699 700
f 700 701 698
f 1059 699 1055
f 1059 700 699
f 709 700 1059
f 239 717 1177
f 239 1177 1007
f 1007 1009 239
f 717 239 221
f 714 717 221
f 202 1103 229
f 33 49 50
f 35 523 526
f 731 3 526
f 526 3 35
f 1021 15 1013
f 528 15 530
f 15 1162 530
f 685 684 686
f 166 52 48
f 166 49 52
f 1058 11 8
f 8 47 1058
f 1058 47 1055
f 1055 1056 1058
f 1058 1056 683
f 1082 11 1074
f 1076 11 1082
f 458 454 460
f 460 461 458
f 462 461 460
f 449 450 1121
f 449 453 447
f 449 454 453
f 447 448 449
f 448 450 449
f 1118 1119 5
f 1119 1118 457
f 1121 1119 457
f 457 449 1121
f 454 449 457
f 5 1119 4
f 4 27 26
f 2 27 4
f 26 25 4
f 31 5 4
f 25 32 4
f 4 32 29
f 36 31 4
f 4 29 36
f 356 348 352
f 340 352 348
f 346 340 348
f 351 346 348
f 360 361 357
f 357 358 360
f 70 71 1043
f 998 1042 1043
f 1043 1042 70
f 87 88 55
f 88 1164 55
f 72 77 73
f 73 71 72
f 102 756 101
f 69 102 101
f 103 102 69
f 1121 450 471
f 446 466 456
f 456 451 446
f 30 40 1117
f 1117 1118 30
f 30 1118 5
f 30 5 31
f 30 31 36
f 36 40 30
f 10 1106 41
f 41 40 10
f 787 664 667
f 735 733 732
f 641 639 640
f 666 667 665
f 665 667 664
f 647 645 646
f 749 680 682
f 682 664 749
f 653 650 672
f 672 650 673
f 801 464 359
f 359 362 801
f 801 362 777
f 801 971 464
f 777 776 801
f 776 971 801
f 459 461 972
f 972 461 464
f 464 971 972
f 972 769 459
f 463 461 462
f 463 361 465
f 465 464 463
f 464 461 463
f 749 829 827
f 783 678 677
f 377 364 371
f 373 380 779
f 373 378 356
f 356 352 373
f 960 779 781
f 779 380 781
f 974 781 380
f 772 802 777
f 772 774 802
f 779 802 775
f 775 774 779
f 802 774 775
f 777 378 773
f 773 772 777
f 774 772 773
f 779 774 963
f 378 373 963
f 963 373 779
f 963 773 378
f 774 773 963
f 319 321 320
f 326 944 943
f 591 953 586
f 154 1012 162
f 1011 1010 162
f 1011 50 1010
f 314 313 310
f 310 313 308
f 315 316 136
f 315 313 314
f 136 313 315
f 592 586 324
f 591 586 592
f 593 139 316
f 593 592 324
f 904 53 918
f 941 976 319
f 319 53 941
f 941 53 976
f 899 903 900
f 905 183 189
f 189 903 904
f 912 918 916
f 916 515 912
f 513 512 511
f 511 514 513
f 790 578 577
f 577 938 790
f 576 938 577
f 810 938 573
f 573 938 576
f 576 572 573
f 1048 37 1047
f 1047 1052 1048
f 1048 1052 37
f 488 1052 1047
f 486 1052 488
f 1047 487 488
f 488 487 486
f 669 668 658
f 658 657 669
f 669 670 668
f 669 657 656
f 669 656 653
f 653 670 669
f 483 495 485
f 484 483 485
f 950 951 965
f 811 807 806
f 812 811 815
f 807 811 812
f 812 947 952
f 812 951 947
f 952 53 812
f 53 807 812
f 639 652 643
f 643 652 745
f 643 640 639
f 641 640 643
f 649 495 496
f 648 496 647
f 647 650 648
f 648 649 496
f 650 649 648
f 651 650 647
f 673 650 651
f 647 646 651
f 651 646 673
f 731 582 730
f 730 3 731
f 580 582 731
f 578 582 580
f 580 577 578
f 581 582 578
f 737 733 738
f 738 740 737
f 740 739 737
f 737 739 509
f 727 730 582
f 732 733 727
f 727 581 732
f 582 581 727
f 1046 1047 13
f 13 1049 1046
f 502 507 501
f 502 498 499
f 501 498 502
f 499 487 502
f 502 487 1047
f 508 507 1053
f 1047 1046 1053
f 1053 1046 508
f 1053 502 1047
f 507 502 1053
f 1036 622 613
f 1036 978 622
f 1036 613 992
f 992 978 1036
f 992 2 984
f 984 978 992
f 2 978 984
f 605 604 607
f 982 604 605
f 607 606 605
f 605 606 982
f 992 613 611
f 613 604 611
f 982 606 608
f 608 626 623
f 621 608 606
f 626 608 621
f 987 2 980
f 987 997 2
f 980 985 987
f 76 80 93
f 93 92 76
f 91 94 95
f 91 93 94
f 92 93 91
f 610 618 607
f 607 604 610
f 610 604 612
f 614 619 612
f 614 615 616
f 614 612 613
f 613 615 614
f 636 637 635
f 612 619 617
f 617 610 612
f 618 610 617
f 617 619 636
f 636 635 617
f 63 637 636
f 636 619 63
f 63 616 65
f 63 614 616
f 619 614 63
f 62 59 64
f 62 835 59
f 838 835 62
f 62 970 838
f 67 970 62
f 78 77 84
f 821 83 82
f 821 106 84
f 84 83 821
f 961 868 869
f 869 864 897
f 869 866 864
f 868 866 869
f 897 193 869
f 193 961 869
f 193 194 935
f 624 608 623
f 122 993 989
f 989 633 122
f 989 624 633
f 859 975 852
f 749 859 852
f 853 975 859
f 968 975 853
f 415 426 427
f 427 426 433
f 975 884 881
f 882 880 881
f 881 883 882
f 884 883 881
f 1061 1 1064
f 1064 1 1003
f 1167 1064 1149
f 116 111 110
f 110 115 116
f 1006 1002 999
f 867 271 865
f 865 866 867
f 863 866 865
f 968 853 855
f 856 855 857
f 416 413 417
f 417 419 416
f 416 419 418
f 420 419 435
f 435 428 420
f 421 418 420
f 420 418 419
f 243 242 245
f 260 262 266
f 266 867 260
f 867 868 260
f 1138 1146 1137
f 1137 1139 1138
f 1146 1139 1137
f 1067 1174 1061
f 1067 1069 1174
f 1061 1062 1067
f 1062 1069 1067
f 246 1062 1068
f 246 1069 1062
f 248 1069 246
f 246 242 248
f 246 1068 247
f 247 245 246
f 246 245 242
f 229 1103 1104
f 198 223 1130
f 1031 223 1032
f 1032 1035 1031
f 424 418 421
f 1063 424 432
f 241 243 244
f 1179 1147 248
f 248 242 1179
f 1179 242 1147
f 1141 1152 1146
f 1141 1142 1145
f 1146 1142 1141
f 1145 1147 252
f 252 1147 241
f 1140 1139 1146
f 1146 1152 1140
f 597 875 888
f 597 595 600
f 885 108 878
f 882 109 885
f 109 107 885
f 107 108 885
f 885 880 882
f 878 877 885
f 885 877 880
f 110 111 112
f 112 108 110
f 878 108 876
f 876 877 878
f 876 112 888
f 108 112 876
f 888 875 876
f 875 877 876
f 120 429 886
f 886 883 120
f 415 429 120
f 120 887 415
f 120 883 887
f 710 708 712
f 714 716 712
f 712 716 710
f 722 717 709
f 709 1059 722
f 1177 717 722
f 722 1059 1177
f 1055 1172 1176
f 1176 1059 1055
f 1176 1172 1177
f 1177 1059 1176
f 211 1113 210
f 1009 1020 1037
f 204 223 198
f 1009 1037 222
f 222 1037 1113
f 222 239 1009
f 222 221 239
f 211 215 213
f 227 183 226
f 226 209 227
f 227 207 177
f 227 209 207
f 195 183 905
f 1103 202 1101
f 198 1130 1101
f 198 202 200
f 207 209 200
f 1151 234 229
f 229 1104 1151
f 177 207 225
f 225 228 231
f 1135 1134 236
f 236 1151 1135
f 234 1151 236
f 232 231 233
f 231 228 233
f 177 225 175
f 175 178 177
f 172 231 232
f 897 899 927
f 15 33 34
f 525 526 523
f 525 572 576
f 1024 1025 15
f 15 1021 1024
f 1024 1021 1025
f 538 540 541
f 1013 1022 1023
f 1023 1021 1013
f 1025 1021 1023
f 532 533 810
f 559 533 532
f 808 809 810
f 810 533 808
f 806 808 805
f 805 808 533
f 550 805 533
f 534 536 538
f 538 541 564
f 564 534 538
f 684 685 1090
f 1128 683 1090
f 1090 683 684
f 688 685 686
f 388 389 390
f 390 395 388
f 388 395 385
f 956 338 925
f 336 335 303
f 1074 11 1073
f 11 1058 1073
f 1070 683 1128
f 1070 1058 683
f 1128 1090 1070
f 401 304 299
f 299 304 303
f 298 296 404
f 401 299 298
f 298 299 296
f 293 405 404
f 462 1118 374
f 374 463 462
f 361 463 374
f 1117 361 374
f 374 1118 1117
f 1120 1118 462
f 1120 457 1118
f 462 460 1120
f 1120 460 454
f 454 457 1120
f 7 28 6
f 6 28 2
f 2 4 6
f 353 340 349
f 352 340 353
f 353 373 352
f 340 346 341
f 350 351 1111
f 346 351 350
f 1127 361 1117
f 1127 357 361
f 1117 375 1127
f 1127 375 357
f 355 351 348
f 357 375 355
f 1111 351 355
f 355 375 1111
f 656 657 655
f 500 656 655
f 655 493 500
f 659 657 658
f 659 504 657
f 658 674 659
f 344 341 339
f 349 340 344
f 344 364 349
f 371 364 344
f 344 363 371
f 1165 1166 998
f 1156 1166 1165
f 90 1164 1156
f 90 55 1164
f 1156 1165 90
f 90 1165 55
f 998 1043 1044
f 1044 1043 71
f 1044 1165 998
f 55 1165 1044
f 97 96 68
f 101 97 68
f 68 69 101
f 103 69 472
f 69 68 472
f 1122 1119 1121
f 1121 471 1122
f 1122 4 1119
f 1124 1122 471
f 451 456 455
f 455 1124 471
f 456 467 455
f 788 667 666
f 787 667 788
f 738 733 736
f 733 735 736
f 746 666 738
f 742 788 666
f 803 788 742
f 666 746 742
f 738 736 742
f 742 746 738
f 663 745 666
f 644 645 641
f 644 646 645
f 641 682 644
f 644 682 646
f 792 682 680
f 641 643 786
f 671 670 653
f 653 672 671
f 671 672 670
f 768 769 973
f 769 972 973
f 973 967 768
f 776 967 973
f 973 971 776
f 973 972 971
f 302 304 401
f 303 304 386
f 304 302 386
f 771 766 768
f 771 767 766
f 768 967 771
f 771 967 802
f 802 767 771
f 828 827 829
f 826 827 828
f 443 765 442
f 762 446 442
f 446 443 442
f 749 827 793
f 371 363 372
f 372 377 371
f 936 974 380
f 349 364 936
f 936 353 349
f 379 936 364
f 974 936 379
f 379 377 678
f 379 678 960
f 960 781 379
f 781 974 379
f 311 320 321
f 321 312 311
f 311 312 307
f 947 951 945
f 945 53 947
f 945 944 53
f 946 945 951
f 944 945 946
f 323 312 321
f 942 326 943
f 944 326 322
f 976 53 322
f 53 944 322
f 321 976 322
f 322 326 321
f 164 163 161
f 150 165 161
f 161 165 164
f 161 155 150
f 163 155 161
f 1045 163 164
f 164 165 1045
f 1093 163 1045
f 585 586 953
f 324 586 583
f 583 593 324
f 139 593 583
f 138 139 583
f 586 585 583
f 583 585 537
f 552 536 537
f 150 144 152
f 147 144 150
f 142 308 140
f 16 50 49
f 16 154 162
f 162 1010 16
f 1010 50 16
f 127 126 125
f 1018 50 1017
f 50 1011 1017
f 1017 1011 130
f 308 313 135
f 135 140 308
f 309 308 307
f 309 310 308
f 591 592 332
f 332 593 316
f 592 593 332
f 920 53 925
f 920 918 53
f 917 513 515
f 512 513 917
f 917 515 916
f 916 918 917
f 917 918 516
f 902 900 903
f 903 189 902
f 902 189 183
f 939 934 319
f 303 335 334
f 334 325 303
f 334 939 325
f 334 335 934
f 934 939 334
f 910 911 723
f 723 911 909
f 909 911 908
f 908 912 909
f 904 918 908
f 918 912 908
f 514 710 720
f 720 513 514
f 515 513 720
f 217 210 218
f 218 913 217
f 500 493 491
f 491 485 500
f 495 649 497
f 500 485 497
f 497 485 495
f 497 650 500
f 497 649 650
f 734 735 732
f 732 581 734
f 728 737 509
f 733 737 728
f 726 727 728
f 728 727 733
f 1051 727 726
f 730 727 1051
f 726 1050 1051
f 1051 1050 3
f 3 730 1051
f 729 1046 1049
f 729 1049 13
f 13 3 729
f 3 726 729
f 729 728 509
f 726 728 729
f 509 508 729
f 508 1046 729
f 983 604 982
f 983 611 604
f 982 981 983
f 983 981 992
f 992 611 983
f 630 621 620
f 607 618 620
f 620 606 607
f 620 621 606
f 626 621 627
f 995 997 994
f 100 97 101
f 101 756 100
f 60 835 61
f 59 835 60
f 65 59 60
f 60 63 65
f 61 63 60
f 837 835 838
f 835 837 834
f 839 78 84
f 67 78 839
f 54 73 77
f 77 78 54
f 71 73 54
f 54 1044 71
f 87 55 54
f 55 1044 54
f 66 64 87
f 66 62 64
f 67 62 66
f 982 608 609
f 608 624 609
f 609 985 982
f 122 633 991
f 991 632 122
f 633 632 991
f 631 632 633
f 631 624 623
f 633 624 631
f 623 626 631
f 114 112 111
f 625 631 626
f 626 627 625
f 879 852 975
f 879 881 880
f 975 881 879
f 880 877 879
f 859 858 872
f 430 429 415
f 415 427 430
f 1061 1064 1066
f 1066 1062 1061
f 1178 1149 433
f 1167 1149 1178
f 434 427 433
f 433 1149 434
f 427 434 1060
f 1060 434 1149
f 1161 1064 1003
f 1003 1149 1161
f 1161 1149 1064
f 995 993 996
f 996 1170 995
f 996 993 122
f 115 1006 1004
f 1001 1157 995
f 995 1170 1001
f 1170 1004 1001
f 1001 1004 1006
f 999 1157 1001
f 1001 1006 999
f 111 116 118
f 118 1004 1170
f 118 114 111
f 118 116 115
f 115 1004 118
f 268 865 271
f 268 267 274
f 271 262 268
f 268 262 267
f 274 861 862
f 862 435 860
f 862 861 435
f 860 858 862
f 862 858 863
f 863 865 862
f 854 855 853
f 854 857 855
f 858 857 854
f 854 872 858
f 854 853 859
f 859 872 854
f 968 855 438
f 413 412 438
f 438 412 968
f 419 417 437
f 856 857 437
f 437 855 856
f 437 438 855
f 437 417 413
f 413 438 437
f 262 260 249
f 243 245 249
f 249 245 247
f 247 250 249
f 250 262 249
f 261 928 243
f 261 260 928
f 243 249 261
f 261 249 260
f 870 962 928
f 870 868 961
f 961 962 870
f 1102 1104 1103
f 1133 1148 1169
f 1169 1134 1133
f 1136 1148 1133
f 1133 1134 1136
f 1100 1130 223
f 223 1031 1100
f 1100 1031 1035
f 1100 1101 1130
f 1100 1035 1105
f 1105 1102 1100
f 1103 1101 1100
f 1100 1102 1103
f 433 424 440
f 440 1178 433
f 1167 1178 440
f 440 1064 1167
f 416 418 423
f 418 424 423
f 423 414 416
f 423 426 414
f 433 426 423
f 423 424 433
f 431 432 422
f 422 428 431
f 421 420 422
f 422 420 428
f 251 432 431
f 431 250 251
f 250 1068 251
f 958 962 961
f 928 962 197
f 197 958 194
f 962 958 197
f 257 259 272
f 243 928 263
f 263 244 243
f 241 244 255
f 255 259 257
f 1143 1141 1145
f 1145 252 1143
f 1143 252 1141
f 1152 1141 1144
f 1141 252 1144
f 1169 1139 238
f 1139 1140 238
f 1152 288 238
f 238 1140 1152
f 632 631 598
f 631 625 598
f 714 712 713
f 713 712 708
f 713 709 714
f 713 708 709
f 218 210 206
f 1030 1037 1020
f 1034 223 1030
f 1113 1037 1030
f 203 204 198
f 198 200 203
f 208 206 203
f 203 209 208
f 203 200 209
f 221 222 212
f 212 213 221
f 211 213 212
f 212 1113 211
f 212 222 1113
f 216 213 215
f 216 716 714
f 215 716 216
f 714 221 216
f 221 213 216
f 914 178 174
f 180 227 177
f 177 178 180
f 226 183 220
f 183 195 220
f 208 209 220
f 220 209 226
f 220 206 208
f 199 202 198
f 198 1101 199
f 199 1101 202
f 207 200 201
f 201 200 202
f 201 225 207
f 228 225 201
f 201 202 229
f 229 228 201
f 1135 1151 1159
f 1159 1151 1104
f 1104 1102 1159
f 1136 1134 1159
f 1159 1134 1135
f 1105 1136 1159
f 1159 1102 1105
f 229 234 230
f 230 228 229
f 234 233 230
f 230 233 228
f 1168 1134 1169
f 1169 236 1168
f 1168 236 1134
f 284 283 232
f 232 233 284
f 169 225 231
f 169 175 225
f 188 902 914
f 900 902 188
f 270 194 286
f 173 172 179
f 191 286 194
f 270 286 191
f 285 191 192
f 192 194 193
f 192 191 194
f 33 50 46
f 46 34 33
f 46 1014 1013
f 1013 15 46
f 15 34 46
f 1015 1014 46
f 1018 1015 46
f 46 50 1018
f 731 526 527
f 526 525 527
f 527 525 576
f 576 577 527
f 527 580 731
f 577 580 527
f 524 523 528
f 524 525 523
f 572 525 524
f 547 550 546
f 545 544 557
f 547 546 545
f 545 546 544
f 542 541 540
f 544 541 542
f 543 541 544
f 543 546 548
f 544 546 543
f 1027 543 548
f 541 543 1027
f 809 808 804
f 804 808 806
f 804 807 809
f 806 807 804
f 548 546 549
f 549 546 550
f 556 533 559
f 556 550 533
f 1158 569 530
f 1162 1025 1158
f 1158 530 1162
f 537 536 535
f 536 534 535
f 535 583 537
f 138 583 535
f 588 1014 1015
f 588 1019 575
f 138 584 131
f 589 584 575
f 575 1019 589
f 575 534 574
f 534 564 574
f 574 588 575
f 564 588 574
f 391 390 389
f 695 693 691
f 384 385 406
f 406 336 384
f 406 385 395
f 335 336 933
f 409 522 338
f 338 956 409
f 409 406 395
f 956 933 409
f 409 933 336
f 922 921 925
f 338 522 923
f 923 522 520
f 395 390 399
f 399 409 395
f 522 409 399
f 695 721 725
f 520 522 725
f 725 721 520
f 919 510 512
f 919 917 516
f 512 917 919
f 511 512 715
f 512 510 715
f 715 705 511
f 1058 1070 1071
f 296 299 306
f 303 325 306
f 306 299 303
f 404 296 294
f 294 293 404
f 296 293 294
f 404 405 156
f 156 298 404
f 401 298 402
f 298 156 402
f 402 156 155
f 405 293 291
f 291 157 405
f 347 341 346
f 346 350 347
f 339 341 347
f 1110 375 1112
f 1117 40 1112
f 1112 375 1117
f 366 375 1110
f 366 350 1111
f 366 347 350
f 366 1107 339
f 339 347 366
f 354 355 348
f 354 348 356
f 356 358 354
f 358 357 354
f 357 355 354
f 657 504 503
f 503 655 657
f 493 655 494
f 475 474 478
f 478 474 370
f 363 479 368
f 368 478 370
f 660 368 370
f 675 659 674
f 675 674 783
f 783 677 675
f 675 677 678
f 678 377 675
f 340 341 342
f 342 344 340
f 341 344 342
f 339 1107 365
f 345 479 363
f 363 344 345
f 345 365 479
f 94 93 57
f 58 472 68
f 756 102 468
f 468 466 762
f 468 456 466
f 468 467 456
f 1122 1124 1123
f 4 1122 1123
f 1124 455 1123
f 450 451 452
f 451 455 452
f 452 471 450
f 452 455 471
f 741 736 735
f 741 742 736
f 679 792 680
f 673 792 679
f 680 670 679
f 670 672 679
f 679 672 673
f 784 792 673
f 673 646 784
f 646 682 784
f 664 682 785
f 785 682 641
f 641 786 785
f 384 336 407
f 407 386 384
f 407 336 303
f 303 386 407
f 929 828 831
f 929 824 826
f 826 828 929
f 838 970 929
f 929 837 838
f 831 837 929
f 764 442 765
f 764 763 442
f 764 802 770
f 764 767 802
f 764 765 766
f 766 767 764
f 764 770 749
f 817 92 799
f 851 852 849
f 851 849 845
f 845 849 848
f 832 829 749
f 749 841 832
f 373 353 780
f 353 936 780
f 380 373 780
f 780 936 380
f 364 377 376
f 376 379 364
f 377 379 376
f 290 320 305
f 320 311 305
f 301 307 142
f 301 311 307
f 301 305 311
f 949 951 950
f 949 946 951
f 948 953 591
f 946 949 948
f 950 953 948
f 948 949 950
f 321 326 327
f 327 323 321
f 314 310 327
f 310 309 327
f 327 309 307
f 307 312 327
f 312 323 327
f 1093 1045 1054
f 1054 1045 49
f 1054 166 1093
f 49 166 1054
f 554 953 950
f 554 585 953
f 537 585 554
f 554 552 537
f 146 152 144
f 146 140 145
f 149 156 405
f 155 156 149
f 149 147 150
f 405 157 148
f 142 144 148
f 144 147 148
f 148 149 405
f 147 149 148
f 157 291 148
f 1041 1129 154
f 154 16 1041
f 1041 16 49
f 130 1011 132
f 132 1011 162
f 125 126 1016
f 126 132 1016
f 162 1012 1016
f 1016 132 162
f 317 127 125
f 317 139 138
f 138 127 317
f 136 316 317
f 316 139 317
f 130 132 128
f 128 132 126
f 133 313 136
f 136 317 133
f 133 317 125
f 145 140 137
f 140 135 137
f 137 154 145
f 943 944 333
f 944 946 333
f 591 332 333
f 333 948 591
f 946 948 333
f 331 942 943
f 943 333 331
f 331 333 332
f 316 315 329
f 329 315 314
f 314 327 329
f 942 331 329
f 516 918 519
f 918 920 519
f 925 921 519
f 519 920 925
f 181 902 183
f 186 902 181
f 181 178 914
f 914 186 181
f 901 186 914
f 914 902 901
f 901 902 186
f 910 723 724
f 724 723 716
f 909 912 915
f 915 723 909
f 915 912 515
f 515 720 915
f 240 913 218
f 710 716 718
f 718 720 710
f 716 723 718
f 723 915 718
f 718 915 720
f 210 217 214
f 214 215 211
f 211 210 214
f 1116 37 484
f 1116 1038 37
f 492 494 476
f 493 494 492
f 492 1116 484
f 540 587 561
f 815 811 561
f 811 545 561
f 561 545 557
f 539 540 538
f 538 536 539
f 551 561 587
f 536 552 551
f 551 539 536
f 551 587 540
f 540 539 551
f 735 734 791
f 791 741 735
f 803 742 791
f 742 741 791
f 579 734 581
f 579 578 790
f 579 581 578
f 896 620 618
f 618 617 896
f 896 634 630
f 630 620 896
f 896 617 635
f 896 894 634
f 635 894 896
f 629 621 630
f 629 627 621
f 630 634 629
f 997 987 990
f 990 994 997
f 995 994 990
f 1160 995 990
f 844 959 842
f 842 832 841
f 893 635 637
f 893 894 635
f 893 842 894
f 61 835 836
f 835 834 836
f 969 930 970
f 969 970 67
f 67 839 969
f 969 839 84
f 84 106 969
f 86 54 78
f 87 54 86
f 86 66 87
f 85 78 67
f 67 66 85
f 85 86 78
f 66 86 85
f 823 969 106
f 930 969 823
f 970 930 823
f 106 821 819
f 624 989 986
f 986 609 624
f 122 632 121
f 600 595 599
f 599 627 603
f 599 625 627
f 595 598 599
f 599 598 625
f 852 879 873
f 873 879 877
f 873 877 875
f 875 874 873
f 873 874 852
f 875 597 889
f 889 874 875
f 889 597 600
f 852 874 889
f 889 849 852
f 119 429 1098
f 429 430 1098
f 1098 117 119
f 1098 115 117
f 1098 1006 115
f 1062 1066 439
f 1063 432 439
f 432 251 439
f 1068 1062 439
f 439 251 1068
f 114 118 1150
f 122 121 1150
f 1150 121 114
f 1150 118 1170
f 1150 996 122
f 1170 996 1150
f 871 268 274
f 865 268 871
f 274 862 871
f 871 862 865
f 435 419 436
f 419 437 436
f 436 437 857
f 436 858 435
f 436 857 858
f 928 260 278
f 278 870 928
f 278 260 868
f 868 870 278
f 1065 424 1063
f 1065 440 424
f 1063 439 1065
f 1065 439 1066
f 1065 1066 1064
f 1064 440 1065
f 425 432 424
f 425 422 432
f 425 424 421
f 421 422 425
f 957 935 194
f 194 958 957
f 957 958 961
f 957 961 193
f 193 935 957
f 254 252 241
f 241 255 254
f 1113 1030 205
f 205 1030 204
f 205 210 1113
f 205 206 210
f 204 203 205
f 205 203 206
f 1029 1020 1034
f 1034 1030 1029
f 1029 1030 1020
f 223 204 1033
f 1033 1030 223
f 204 1030 1033
f 178 175 176
f 176 174 178
f 175 169 176
f 237 236 1169
f 287 238 288
f 288 272 287
f 284 237 287
f 1169 238 287
f 287 237 1169
f 231 172 170
f 170 169 231
f 169 170 168
f 174 176 168
f 168 176 169
f 900 188 190
f 190 188 927
f 899 900 190
f 190 927 899
f 173 179 184
f 185 168 173
f 174 168 185
f 173 184 185
f 185 184 927
f 273 272 259
f 282 179 172
f 232 283 282
f 282 172 232
f 275 259 270
f 275 273 259
f 276 191 285
f 277 273 276
f 273 275 276
f 270 191 276
f 276 275 270
f 806 805 555
f 555 811 806
f 555 545 811
f 547 545 555
f 555 550 547
f 805 550 555
f 565 564 541
f 541 1027 565
f 530 569 570
f 568 562 532
f 558 556 559
f 548 549 567
f 563 534 575
f 563 535 534
f 575 584 563
f 563 584 138
f 138 535 563
f 1013 1014 1092
f 1014 588 1092
f 1092 1022 1013
f 564 565 1092
f 1092 1023 1022
f 1092 1027 1023
f 141 131 584
f 584 589 141
f 1018 1017 1171
f 1171 1017 130
f 1171 589 1019
f 1019 588 1171
f 1171 1015 1018
f 1171 588 1015
f 396 693 695
f 695 391 396
f 685 688 690
f 690 691 685
f 335 933 337
f 337 933 956
f 337 956 925
f 925 934 337
f 336 406 408
f 408 409 336
f 406 409 408
f 338 923 924
f 925 338 924
f 924 922 925
f 921 922 924
f 924 923 921
f 522 399 394
f 394 725 522
f 394 399 390
f 390 391 394
f 394 391 695
f 695 725 394
f 689 687 704
f 686 687 689
f 689 688 686
f 688 689 707
f 707 689 704
f 704 705 707
f 705 715 707
f 1072 1073 1058
f 1058 1071 1072
f 1072 1071 1073
f 1074 1073 1088
f 1073 1071 1088
f 1085 1084 1086
f 1085 1086 696
f 685 691 692
f 692 691 693
f 694 1070 1090
f 694 1071 1070
f 694 1090 685
f 685 692 694
f 383 385 384
f 388 385 383
f 383 389 388
f 383 382 389
f 381 383 384
f 382 383 381
f 389 382 392
f 392 1084 1085
f 1085 396 392
f 392 391 389
f 392 396 391
f 1084 392 398
f 398 392 382
f 325 318 295
f 158 155 163
f 158 402 155
f 1108 366 1110
f 1107 366 1108
f 1108 41 1106
f 40 41 1108
f 1108 1112 40
f 1110 1112 1108
f 1111 375 1109
f 1109 366 1111
f 375 366 1109
f 655 503 505
f 505 494 655
f 476 494 505
f 505 503 504
f 505 474 476
f 370 474 505
f 479 365 1095
f 1095 1106 10
f 1132 478 1096
f 479 1095 1096
f 1096 1095 1132
f 367 368 479
f 478 368 367
f 479 1096 367
f 367 1096 478
f 363 368 369
f 368 660 369
f 369 372 363
f 506 660 370
f 506 505 504
f 370 505 506
f 504 659 506
f 659 660 506
f 659 675 661
f 661 660 659
f 372 369 661
f 661 369 660
f 339 365 343
f 365 345 343
f 343 344 339
f 343 345 344
f 96 94 56
f 94 57 56
f 57 58 56
f 56 68 96
f 56 58 68
f 1154 58 57
f 1154 80 81
f 81 1039 1154
f 1154 93 80
f 1154 57 93
f 4 1123 1126
f 1126 1123 472
f 1126 6 4
f 7 6 1126
f 472 1123 1125
f 1125 1123 455
f 103 472 1125
f 470 469 103
f 103 1125 470
f 470 1125 455
f 467 468 104
f 104 455 467
f 104 469 455
f 104 468 102
f 104 102 103
f 103 469 104
f 682 792 681
f 681 784 682
f 792 784 681
f 664 785 662
f 662 785 786
f 662 665 664
f 745 663 662
f 662 643 745
f 662 786 643
f 666 665 662
f 662 663 666
f 160 1080 400
f 400 302 401
f 401 402 400
f 400 402 160
f 160 410 403
f 403 1080 160
f 410 1080 403
f 98 91 95
f 98 796 91
f 95 96 98
f 98 96 97
f 97 100 98
f 98 753 750
f 98 100 756
f 756 753 98
f 850 845 749
f 851 845 850
f 749 852 850
f 850 852 851
f 844 842 843
f 843 842 841
f 843 841 749
f 749 845 843
f 602 599 603
f 891 845 848
f 891 959 844
f 844 843 891
f 891 843 845
f 894 842 638
f 638 842 959
f 830 828 829
f 829 832 830
f 831 828 830
f 290 305 300
f 305 301 300
f 300 291 290
f 300 148 291
f 300 301 142
f 142 148 300
f 143 146 144
f 140 146 143
f 143 144 142
f 142 140 143
f 152 146 153
f 153 165 150
f 150 152 153
f 153 1041 165
f 1129 1041 153
f 153 146 145
f 145 154 153
f 154 1129 153
f 150 155 151
f 151 149 150
f 155 149 151
f 1040 1045 165
f 165 1041 1040
f 49 1045 1040
f 1040 1041 49
f 129 127 138
f 138 131 129
f 126 127 129
f 129 128 126
f 129 131 130
f 130 128 129
f 134 135 313
f 313 133 134
f 135 134 124
f 124 134 133
f 124 133 125
f 125 1016 124
f 330 332 316
f 316 329 330
f 330 331 332
f 330 329 331
f 326 942 328
f 942 329 328
f 328 327 326
f 328 329 327
f 520 518 926
f 182 180 178
f 178 181 182
f 182 181 183
f 183 227 182
f 227 180 182
f 910 724 977
f 977 911 910
f 977 217 913
f 215 214 224
f 224 214 217
f 224 716 215
f 224 724 716
f 217 977 224
f 224 977 724
f 219 220 195
f 195 240 219
f 219 240 218
f 218 206 219
f 206 220 219
f 196 195 905
f 196 240 195
f 904 908 196
f 905 189 196
f 196 189 904
f 473 492 476
f 475 478 473
f 473 474 475
f 476 474 473
f 473 1132 477
f 473 478 1132
f 480 473 477
f 492 473 480
f 1038 1116 480
f 1116 492 480
f 477 1132 480
f 480 9 37
f 37 1038 480
f 10 9 480
f 489 491 493
f 493 492 489
f 485 491 490
f 484 485 490
f 490 492 484
f 491 489 490
f 490 489 492
f 813 542 540
f 540 561 813
f 813 561 557
f 557 544 813
f 544 542 813
f 814 965 951
f 951 812 814
f 814 551 965
f 561 551 814
f 814 812 815
f 815 561 814
f 950 965 590
f 965 551 590
f 590 551 552
f 590 554 950
f 552 554 590
f 789 791 734
f 734 579 789
f 789 579 790
f 789 790 787
f 803 791 789
f 787 788 789
f 789 788 803
f 627 629 628
f 628 629 959
f 825 929 970
f 970 823 825
f 824 929 825
f 822 823 106
f 106 819 822
f 822 825 823
f 822 819 818
f 818 819 816
f 817 799 816
f 799 797 816
f 988 986 989
f 988 987 985
f 985 609 988
f 609 986 988
f 1160 990 988
f 988 990 987
f 988 993 1160
f 988 989 993
f 595 597 596
f 114 121 596
f 112 114 596
f 596 597 888
f 888 112 596
f 1002 1006 1115
f 1006 1098 1115
f 427 1060 1115
f 1115 430 427
f 1115 1098 430
f 270 259 269
f 259 265 269
f 269 265 197
f 269 194 270
f 269 197 194
f 259 255 258
f 258 265 259
f 258 255 244
f 244 263 258
f 263 265 258
f 928 197 264
f 197 265 264
f 264 263 928
f 264 265 263
f 253 1144 252
f 252 254 253
f 1152 1144 253
f 235 284 233
f 235 237 284
f 235 233 234
f 234 236 235
f 236 237 235
f 173 168 171
f 171 168 170
f 171 172 173
f 171 170 172
f 285 184 289
f 289 184 179
f 179 282 289
f 285 192 898
f 898 184 285
f 898 192 193
f 927 184 898
f 898 193 897
f 897 927 898
f 914 174 187
f 174 185 187
f 187 188 914
f 927 188 187
f 187 185 927
f 280 273 277
f 283 284 280
f 284 287 280
f 531 568 532
f 810 573 531
f 531 532 810
f 531 573 572
f 572 568 531
f 571 570 562
f 562 568 571
f 572 524 571
f 571 568 572
f 562 570 560
f 560 558 559
f 560 570 569
f 569 558 560
f 559 532 560
f 532 562 560
f 1114 567 569
f 569 1158 1114
f 1025 1023 1026
f 1023 1027 1026
f 1026 1114 1025
f 567 1114 1026
f 1026 1027 548
f 548 567 1026
f 553 567 549
f 556 558 553
f 553 558 569
f 569 567 553
f 553 549 550
f 550 556 553
f 1099 588 564
f 564 1092 1099
f 1099 1092 588
f 566 565 1027
f 1027 1092 566
f 566 1092 565
f 167 141 589
f 167 1171 130
f 589 1171 167
f 130 131 167
f 131 141 167
f 691 690 697
f 695 691 697
f 697 721 695
f 697 690 688
f 934 335 932
f 932 337 934
f 335 337 932
f 1089 1082 1074
f 1074 1088 1089
f 1075 1088 1071
f 1071 1086 1075
f 1075 1089 1088
f 1075 1086 1084
f 1071 694 1091
f 1091 694 692
f 1091 1086 1071
f 1091 696 1086
f 1091 692 693
f 1085 696 1091
f 1091 396 1085
f 693 396 1091
f 397 381 393
f 393 1079 397
f 1080 1079 393
f 302 400 393
f 393 400 1080
f 1081 398 382
f 1081 381 397
f 382 381 1081
f 397 1079 1081
f 296 306 297
f 297 293 296
f 297 295 293
f 297 306 325
f 325 295 297
f 292 291 293
f 293 295 292
f 290 291 292
f 292 320 290
f 319 320 292
f 940 295 318
f 940 318 325
f 319 292 940
f 940 292 295
f 940 939 319
f 325 939 940
f 402 158 159
f 159 410 160
f 160 402 159
f 159 158 163
f 159 163 1093
f 1093 410 159
f 1097 365 1107
f 1097 1095 365
f 1106 1095 1097
f 1097 1108 1106
f 1107 1108 1097
f 676 675 377
f 676 661 675
f 377 372 676
f 372 661 676
f 1153 1154 1039
f 58 1154 1153
f 1153 1039 7
f 455 469 1131
f 1131 470 455
f 469 470 1131
f 1077 1080 410
f 48 1076 1077
f 1077 166 48
f 1093 166 1077
f 1077 410 1093
f 793 797 794
f 794 797 799
f 794 795 793
f 796 795 794
f 91 796 794
f 92 91 794
f 794 799 92
f 750 753 757
f 757 752 750
f 757 753 756
f 751 98 750
f 890 602 603
f 890 628 959
f 603 627 890
f 627 628 890
f 600 599 601
f 599 602 601
f 601 889 600
f 846 891 848
f 959 891 846
f 846 890 959
f 602 890 846
f 959 629 892
f 892 638 959
f 892 629 634
f 634 894 892
f 894 638 892
f 840 63 61
f 637 63 840
f 842 893 840
f 832 842 840
f 840 830 832
f 123 137 135
f 135 124 123
f 1012 154 123
f 154 137 123
f 123 1016 1012
f 123 124 1016
f 520 926 521
f 521 923 520
f 921 923 521
f 521 519 921
f 521 926 519
f 517 518 510
f 517 926 518
f 519 926 517
f 510 919 517
f 517 919 516
f 516 519 517
f 913 240 907
f 1132 1095 1094
f 1094 480 1132
f 1094 1095 10
f 10 480 1094
f 820 822 818
f 826 824 820
f 824 825 820
f 825 822 820
f 105 816 819
f 817 816 105
f 105 79 817
f 800 797 793
f 800 816 797
f 826 820 800
f 818 816 800
f 800 820 818
f 800 827 826
f 800 793 827
f 594 598 595
f 595 596 594
f 632 598 594
f 594 121 632
f 594 596 121
f 1002 1115 1005
f 1003 1000 1005
f 1005 1149 1003
f 999 1002 1005
f 1005 1000 999
f 1005 1060 1149
f 1005 1115 1060
f 1152 253 256
f 256 253 254
f 257 272 256
f 256 255 257
f 256 254 255
f 256 288 1152
f 256 272 288
f 285 289 281
f 281 289 282
f 281 276 285
f 277 276 281
f 281 282 283
f 283 280 281
f 281 280 277
f 272 273 279
f 273 280 279
f 279 287 272
f 279 280 287
f 530 570 529
f 570 571 529
f 528 530 529
f 529 524 528
f 529 571 524
f 1028 1158 1025
f 1025 1114 1028
f 1028 1114 1158
f 510 518 719
f 721 697 719
f 520 721 719
f 719 518 520
f 688 707 711
f 711 697 688
f 711 719 697
f 711 707 715
f 711 715 510
f 510 719 711
f 302 393 387
f 387 393 381
f 387 386 302
f 384 386 387
f 387 381 384
f 398 1081 1163
f 1163 1075 1084
f 58 1153 1155
f 472 58 1155
f 1155 1126 472
f 7 1126 1155
f 1155 1153 7
f 1078 1079 1080
f 1080 1077 1078
f 1076 1082 1078
f 1078 1077 1076
f 966 796 750
f 966 795 796
f 763 764 760
f 764 761 760
f 762 442 760
f 442 763 760
f 752 757 754
f 754 761 764
f 754 760 761
f 754 764 749
f 749 793 754
f 793 752 754
f 759 468 762
f 762 760 759
f 796 98 99
f 98 751 99
f 750 796 99
f 99 751 750
f 847 601 602
f 602 846 847
f 847 846 848
f 889 601 847
f 848 849 847
f 849 889 847
f 831 830 833
f 830 840 833
f 833 836 834
f 61 836 833
f 833 840 61
f 833 837 831
f 833 834 837
f 637 840 955
f 955 840 893
f 240 196 906
f 906 907 240
f 913 907 964
f 911 977 964
f 964 977 913
f 907 906 964
f 964 906 196
f 964 908 911
f 964 196 908
f 931 819 821
f 931 105 819
f 931 821 82
f 82 79 931
f 79 105 931
f 1084 398 1087
f 1087 1163 1084
f 398 1163 1087
f 1083 1081 1079
f 1079 1078 1083
f 1083 1163 1081
f 1075 1163 1083
f 1083 1078 1082
f 1082 1089 1083
f 1089 1075 1083
f 750 752 755
f 755 966 750
f 755 752 793
f 778 754 757
f 760 754 778
f 778 759 760
f 758 757 756
f 756 468 758
f 468 759 758
f 758 778 757
f 759 778 758
f 895 893 637
f 637 955 895
f 895 955 893
f 795 966 798
f 966 755 798
f 793 795 798
f 798 755 793

