<?xml version="1.0" encoding="utf-8"?>
<!DOCTYPE svg PUBLIC "-//W3C//DTD SVG 1.0//EN" "http://www.w3.org/TR/2001/REC-SVG-20010904/DTD/svg10.dtd">
<svg version="1.0" xmlns="http://www.w3.org/2000/svg" viewBox="0 0 16 16">
  <g transform="scale(0.016,0.016)" fill="#000000" stroke="none">
    <polygon points="813.8,750.8 821.1,823.4 662.4,833.5 654.1,762.4"/>
    <polygon points="652.7,750.8 662.4,833.5 545.2,871.8 533.9,798.5"/>
    <polygon points="877.2,774.7 885.2,851.4 821.1,823.4 813.8,750.8"/>
    <polygon points="693.4,511.1 728.9,566.1 593.6,647 557.8,593.8"/>
    <polygon points="557.8,593.8 593.6,647 506.8,734.4 467.7,678.1"/>
    <polygon points="741.7,468.9 859.3,625.5 728.9,566.1 693.4,511.1"/>
    <polygon points="599.5,439.5 640,484.1 539.5,568.9 499,525.7"/>
    <polygon points="499,525.7 539.5,568.9 480.3,652 436.8,606.8"/>
    <polygon points="652.7,422.6 696.4,471.3 640,484.1 599.5,439.5"/>
    <polygon points="767.7,849.2 764.9,869 715,874.7 765.5,849.4"/>
    <polygon points="715,874.7 632.2,833.3 655.3,699.1 740.5,733.6"/>
    <polygon points="791.6,721.1 797.5,694.4 764.9,869 767.7,849.2"/>
    <polygon points="765.5,849.4 715,874.7 740.5,733.6 789.1,722.8"/>
    <polygon points="535.1,451.6 512.9,388.5 797.5,694.4 791.6,721.1"/>
    <polygon points="535.1,451.6 791.6,721.1 767.7,849.2 765.5,849.4 789.1,722.8 533,454.6"/>
    <polygon points="464.5,456.9 380.4,433.1 426.6,369.1 512.9,388.5"/>
    <polygon points="789.1,722.8 740.5,733.6 464.5,456.9 533,454.6"/>
    <polygon points="533,454.6 464.5,456.9 512.9,388.5 535.1,451.6"/>
    <polygon points="740.5,733.6 655.3,699.1 380.4,433.1 464.5,456.9"/>
    <polygon points="768.9,736.2 742.2,723.8 801.2,711.6 828.3,723.5"/>
    <polygon points="768.9,736.2 742.2,723.8 776.1,654.2 803.5,665.3"/>
    <polygon points="803.5,665.3 828.3,723.5 768.9,736.2"/>
    <polygon points="768.9,736.2 828.3,723.5 794.6,792.5"/>
    <polygon points="794.6,792.5 768.1,779.6 742.2,723.8 768.9,736.2"/>
    <polygon points="768.9,736.2 794.6,792.5 734.3,807.1"/>
    <polygon points="734.3,807.1 708.1,793.6 742.2,723.8 768.9,736.2"/>
    <polygon points="741.8,676.8 714.8,665.1 776.1,654.2 803.5,665.3"/>
    <polygon points="741.8,676.8 803.5,665.3 768.9,736.2"/>
    <polygon points="768.9,736.2 742.2,723.8 714.8,665.1 741.8,676.8"/>
    <polygon points="706.2,749.6 679.9,736.7 742.2,723.8 768.9,736.2"/>
    <polygon points="706.2,749.6 679.9,736.7 714.8,665.1 741.8,676.8"/>
    <polygon points="734.3,807.1 708.1,793.6 679.9,736.7 706.2,749.6"/>
    <polygon points="741.8,676.8 768.9,736.2 706.2,749.6"/>
    <polygon points="706.2,749.6 768.9,736.2 734.3,807.1"/>
    <polygon points="476.9,605.4 524.1,654.8 479.3,652.9 435.7,607.7"/>
    <polygon points="594.8,505.6 642,557 524.1,654.8 476.9,605.4"/>
    <polygon points="653.9,421.6 697.5,470.3 642,557 594.8,505.6"/>
    <polygon points="649,828.8 519.8,999.7 430.3,922.4 533.9,798.5"/>
    <polygon points="761.5,826.4 832.6,936.7 519.8,999.7 649,828.8"/>
    <polygon points="877.2,774.7 916,844 832.6,936.7 761.5,826.4"/>
    <polygon points="388.4,455.9 386.4,548.8 184.8,489.5"/>
    <polygon points="121.8,642.1 160.9,614.9 331,580 386.4,548.8 204.5,477.4 126.9,525.2"/>
    <polygon points="84.4,540.9 18.8,554.9 121.8,642.1 126.9,525.2"/>
    <polygon points="437.9,590.7 386.4,548.8 331,580"/>
    <polygon points="471.7,177.7 505.6,56.5 337.3,212.1"/>
    <polygon points="104,413.5 21.7,465 56.7,481.5 122.8,424.6"/>
    <polygon points="0,526.8 21.7,465 56.7,481.5 44.9,517.9"/>
    <polygon points="0,526.8 19.3,580.2 65.9,583.4 44.9,517.9"/>
    <polygon points="19.3,580.2 65.7,605 65.9,583.4"/>
    <polygon points="421.8,179.7 343.2,243 388.7,284.9 474.1,237.7"/>
    <polygon points="499,292.8 424,348.2 388.7,284.9 474.1,237.7"/>
    <polygon points="499,292.8 424,348.2 439.2,413.5 502.5,377.8"/>
    <polygon points="296.4,433.1 424,348.2 439.2,413.5 373.1,477.5"/>
    <polygon points="373.1,477.5 384.5,505.9 439.2,413.5"/>
    <polygon points="296.4,433.1 424,348.2 334.3,366.7 273.9,397.3"/>
    <polygon points="121.5,487.8 190.4,535.2 296.4,433.1"/>
    <polygon points="121.5,487.8 190.4,535.2 180.2,568.2 150,546.4"/>
    <polygon points="121.5,487.8 243.6,402.4 273.9,397.3 296.4,433.1"/>
    <polygon points="121.5,487.8 243.6,402.4 122.8,424.6 56.7,481.5"/>
    <polygon points="121.5,487.8 150,546.4 110.3,560.7 44.9,517.9 56.7,481.5"/>
    <polygon points="110.3,560.7 139.8,583.9 150,546.4"/>
    <polygon points="44.9,517.9 65.9,583.4 96.8,600.9 110.3,560.7"/>
    <polygon points="189.8,350.5 104,413.5 122.8,424.6 227.1,360.2"/>
    <polygon points="343.2,243 315,295.7 227.1,360.2 189.8,350.5 278.6,284.7"/>
    <polygon points="343.2,243 315,295.7 388.7,284.9"/>
    <polygon points="317.3,337.6 315,295.7 388.7,284.9"/>
    <polygon points="272.5,374 315,295.7 317.3,337.6"/>
    <polygon points="272.5,374 315,295.7 227.1,360.2"/>
    <polygon points="272.5,374 273.9,397.3 122.8,424.6 227.1,360.2"/>
    <polygon points="317.3,337.6 364.3,337.4 388.7,284.9"/>
    <polygon points="424,348.2 364.3,337.4 388.7,284.9"/>
    <polygon points="424,348.2 364.3,337.4 334.3,366.7"/>
    <polygon points="754.1,-0.3 679.6,105.2 474.1,237.7 474.1,237.7 421.8,179.7"/>
    <polygon points="474.1,237.7 538.8,235 679.6,105.2"/>
    <polygon points="474.1,237.7 538.8,235 499,292.8"/>
    <polygon points="499,292.8 538.8,235 719.5,168.5"/>
    <polygon points="499,292.8 502.5,377.8 716,195.9 719.5,168.5"/>
    <polygon points="502.5,377.8 597.8,359.8 716,195.9"/>
    <polygon points="502.5,377.8 597.8,359.8 624.3,396.4"/>
    <polygon points="502.5,377.8 559.4,441.8 624.3,396.4"/>
    <polygon points="502.5,377.8 559.4,441.8 568.8,490.6 490.4,482.9"/>
    <polygon points="502.5,377.8 439.2,413.5 384.5,505.9 490.4,482.9"/>
    <polygon points="384.5,505.9 386.4,548.8 490.4,482.9"/>
    <polygon points="437.9,590.7 386.4,548.8 490.4,482.9"/>
    <polygon points="343.2,243 421.8,179.7 337.3,212.1 189.8,350.5 278.6,284.7"/>
    <polygon points="256.8,238.4 189.8,350.5 337.3,212.1"/>
    <polygon points="256.8,238.4 505.6,56.5 337.3,212.1"/>
    <polygon points="373.1,477.5 296.4,433.1 190.4,535.2 218.4,556.1 229.9,527 253,545 265.4,522 290.9,539.7 301.6,510.4 323.8,531.2 331.3,496.4"/>
    <polygon points="490.4,482.9 437.9,590.7 568.8,490.6"/>
    <polygon points="514.9,685 502.7,890.4 455.9,857 466.5,678.9"/>
    <polygon points="667.5,590.6 713.7,638.8 502.7,890.4 514.9,685"/>
    <polygon points="743.1,468.1 860.7,624.7 713.7,638.8 667.5,590.6"/>
  </g>
</svg>
