{
    "asset": {
        "version": "2.0",
        "generator": "gltfpack 0.23"
    },
    "extensionsUsed": [
        "EXT_meshopt_compression"
    ],
    "buffers": [
        {
            "uri": "cube1.bin",
            "byteLength": 3208
        },
        {
            "uri": "cube1.fallback.bin",
            "byteLength": 1224,
            "extensions": {
                "EXT_meshopt_compression": {
                    "fallback": true
                }
            }
        }
    ],
    "bufferViews": [
        {
            "buffer": 0,
            "byteOffset": 0,
            "byteLength": 2114
        },
        {
            "buffer": 0,
            "byteOffset": 2116,
            "byteLength": 594
        },
        {
            "buffer": 1,
            "byteOffset": 0,
            "byteLength": 288,
            "byteStride": 12,
            "target": 34962,
            "extensions": {
                "EXT_meshopt_compression": {
                    "buffer": 0,
                    "byteOffset": 2712,
                    "byteLength": 91,
                    "byteStride": 12,
                    "mode": "ATTRIBUTES",
                    "count": 24
                }
            }
        },
        {
            "buffer": 1,
            "byteOffset": 288,
            "byteLength": 288,
            "byteStride": 12,
            "target": 34962,
            "extensions": {
                "EXT_meshopt_compression": {
                    "buffer": 0,
                    "byteOffset": 2804,
                    "byteLength": 94,
                    "byteStride": 12,
                    "mode": "ATTRIBUTES",
                    "count": 24
                }
            }
        },
        {
            "buffer": 1,
            "byteOffset": 576,
            "byteLength": 192,
            "byteStride": 8,
            "target": 34962,
            "extensions": {
                "EXT_meshopt_compression": {
                    "buffer": 0,
                    "byteOffset": 2900,
                    "byteLength": 204,
                    "byteStride": 8,
                    "mode": "ATTRIBUTES",
                    "count": 24
                }
            }
        },
        {
            "buffer": 1,
            "byteOffset": 768,
            "byteLength": 384,
            "byteStride": 16,
            "target": 34962,
            "extensions": {
                "EXT_meshopt_compression": {
                    "buffer": 0,
                    "byteOffset": 3104,
                    "byteLength": 70,
                    "byteStride": 16,
                    "mode": "ATTRIBUTES",
                    "count": 24
                }
            }
        },
        {
            "buffer": 1,
            "byteOffset": 1152,
            "byteLength": 72,
            "target": 34963,
            "extensions": {
                "EXT_meshopt_compression": {
                    "buffer": 0,
                    "byteOffset": 3176,
                    "byteLength": 29,
                    "byteStride": 2,
                    "mode": "TRIANGLES",
                    "count": 36
                }
            }
        }
    ],
    "accessors": [
        {
            "bufferView": 2,
            "byteOffset": 0,
            "componentType": 5126,
            "count": 24,
            "type": "VEC3",
            "min": [
                -1,
                -1,
                -1
            ],
            "max": [
                1,
                1,
                1
            ]
        },
        {
            "bufferView": 3,
            "byteOffset": 0,
            "componentType": 5126,
            "count": 24,
            "type": "VEC3"
        },
        {
            "bufferView": 4,
            "byteOffset": 0,
            "componentType": 5126,
            "count": 24,
            "type": "VEC2"
        },
        {
            "bufferView": 5,
            "byteOffset": 0,
            "componentType": 5126,
            "count": 24,
            "type": "VEC4"
        },
        {
            "bufferView": 6,
            "byteOffset": 0,
            "componentType": 5123,
            "count": 36,
            "type": "SCALAR"
        }
    ],
    "samplers": [
        {
            "magFilter": 9729,
            "minFilter": 9987
        }
    ],
    "images": [
        {
            "name": "normal",
            "bufferView": 0,
            "mimeType": "image/png"
        },
        {
            "name": "divot",
            "bufferView": 1,
            "mimeType": "image/png"
        }
    ],
    "textures": [
        {
            "sampler": 0,
            "source": 0
        },
        {
            "sampler": 0,
            "source": 1
        }
    ],
    "materials": [
        {
            "name": "Material.001",
            "pbrMetallicRoughness": {
                "baseColorFactor": [
                    0.0638847724,
                    0.400000066,
                    0.0445295647,
                    1
                ],
                "roughnessFactor": 0,
                "metallicRoughnessTexture": {
                    "index": 1
                }
            },
            "normalTexture": {
                "index": 0
            },
            "doubleSided": true
        }
    ],
    "meshes": [
        {
            "primitives": [
                {
                    "attributes": {
                        "POSITION": 0,
                        "NORMAL": 1,
                        "TEXCOORD_0": 2,
                        "TANGENT": 3
                    },
                    "indices": 4,
                    "material": 0
                }
            ]
        }
    ],
    "nodes": [
        {
            "name": "Cube",
            "mesh": 0
        }
    ],
    "scenes": [
        {
            "name": "Scene",
            "nodes": [
                0
            ]
        }
    ],
    "scene": 0
}