{
    "asset": {
        "version": "2.0",
        "generator": "gltfpack 0.23"
    },
    "extensionsUsed": [
        "EXT_meshopt_compression",
        "KHR_texture_basisu"
    ],
    "extensionsRequired": [
        "KHR_texture_basisu"
    ],
    "buffers": [
        {
            "uri": "fully_textured_pyramid.bin",
            "byteLength": 416
        },
        {
            "uri": "fully_textured_pyramid.fallback.bin",
            "byteLength": 548,
            "extensions": {
                "EXT_meshopt_compression": {
                    "fallback": true
                }
            }
        }
    ],
    "bufferViews": [
        {
            "buffer": 1,
            "byteOffset": 0,
            "byteLength": 192,
            "byteStride": 12,
            "target": 34962,
            "extensions": {
                "EXT_meshopt_compression": {
                    "buffer": 0,
                    "byteOffset": 0,
                    "byteLength": 112,
                    "byteStride": 12,
                    "mode": "ATTRIBUTES",
                    "count": 16
                }
            }
        },
        {
            "buffer": 1,
            "byteOffset": 192,
            "byteLength": 192,
            "byteStride": 12,
            "target": 34962,
            "extensions": {
                "EXT_meshopt_compression": {
                    "buffer": 0,
                    "byteOffset": 112,
                    "byteLength": 125,
                    "byteStride": 12,
                    "mode": "ATTRIBUTES",
                    "count": 16
                }
            }
        },
        {
            "buffer": 1,
            "byteOffset": 384,
            "byteLength": 128,
            "byteStride": 8,
            "target": 34962,
            "extensions": {
                "EXT_meshopt_compression": {
                    "buffer": 0,
                    "byteOffset": 240,
                    "byteLength": 151,
                    "byteStride": 8,
                    "mode": "ATTRIBUTES",
                    "count": 16
                }
            }
        },
        {
            "buffer": 1,
            "byteOffset": 512,
            "byteLength": 36,
            "target": 34963,
            "extensions": {
                "EXT_meshopt_compression": {
                    "buffer": 0,
                    "byteOffset": 392,
                    "byteLength": 23,
                    "byteStride": 2,
                    "mode": "TRIANGLES",
                    "count": 18
                }
            }
        }
    ],
    "accessors": [
        {
            "bufferView": 0,
            "byteOffset": 0,
            "componentType": 5126,
            "count": 16,
            "type": "VEC3",
            "min": [
                -1,
                -1,
                -1
            ],
            "max": [
                1,
                1,
                1
            ]
        },
        {
            "bufferView": 1,
            "byteOffset": 0,
            "componentType": 5126,
            "count": 16,
            "type": "VEC3"
        },
        {
            "bufferView": 2,
            "byteOffset": 0,
            "componentType": 5126,
            "count": 16,
            "type": "VEC2"
        },
        {
            "bufferView": 3,
            "byteOffset": 0,
            "componentType": 5123,
            "count": 18,
            "type": "SCALAR"
        }
    ],
    "samplers": [
        {
            "magFilter": 9729,
            "minFilter": 9987
        }
    ],
    "images": [
        {
            "name": "fully_textured_pyramid_emissive",
            "uri": "fully_textured_pyramid_emissive.png"
        },
        {
            "name": "fully_textured_pyramid_normal",
            "uri": "fully_textured_pyramid_normal.png"
        },
        {
            "name": "fully_textured_pyramid_omr",
            "uri": "fully_textured_pyramid_omr.png"
        },
        {
            "name": "fully_textured_pyramid_base_color",
            "uri": "fully_textured_pyramid_base_color.png"
        },
        {
            "name": "fully_textured_pyramid_emissive",
            "uri": "fully_textured_pyramid_emissive.ktx2"
        },
        {
            "name": "fully_textured_pyramid_normal",
            "uri": "fully_textured_pyramid_normal.ktx2"
        },
        {
            "name": "fully_textured_pyramid_omr",
            "uri": "fully_textured_pyramid_omr.ktx2"
        },
        {
            "name": "fully_textured_pyramid_base_color",
            "uri": "fully_textured_pyramid_base_color.ktx2"
        }
    ],
    "textures": [
        {
            "sampler": 0,
            "source": 0,
            "extensions": {
                "KHR_texture_basisu": {
                    "source": 4
                }
            }
        },
        {
            "sampler": 0,
            "source": 1,
            "extensions": {
                "KHR_texture_basisu": {
                    "source": 5
                }
            }
        },
        {
            "sampler": 0,
            "source": 2,
            "extensions": {
                "KHR_texture_basisu": {
                    "source": 6
                }
            }
        },
        {
            "sampler": 0,
            "source": 3,
            "extensions": {
                "KHR_texture_basisu": {
                    "source": 7
                }
            }
        }
    ],
    "materials": [
        {
            "name": "Material",
            "pbrMetallicRoughness": {
                "baseColorTexture": {
                    "index": 3
                },
                "metallicRoughnessTexture": {
                    "index": 2
                }
            },
            "normalTexture": {
                "index": 1
            },
            "occlusionTexture": {
                "index": 2
            },
            "emissiveTexture": {
                "index": 0
            },
            "emissiveFactor": [
                1,
                1,
                1
            ],
            "doubleSided": true
        }
    ],
    "meshes": [
        {
            "primitives": [
                {
                    "attributes": {
                        "POSITION": 0,
                        "NORMAL": 1,
                        "TEXCOORD_0": 2
                    },
                    "indices": 3,
                    "material": 0
                }
            ]
        }
    ],
    "nodes": [
        {
            "name": "Pyramid",
            "mesh": 0
        }
    ],
    "scenes": [
        {
            "name": "Scene",
            "nodes": [
                0
            ]
        }
    ],
    "scene": 0
}