{
	"asset":{
		"generator":"Khronos glTF Blender I/O v4.0.44",
		"version":"2.0"
	},
	"extensionsUsed": [
		"KHR_texture_basisu"
	],
	"scene":0,
	"scenes":[
		{
			"name":"Scene",
			"nodes":[
				0
			]
		}
	],
	"nodes":[
		{
			"mesh":0,
			"name":"Pyramid"
		}
	],
	"materials":[
		{
			"doubleSided":true,
			"emissiveFactor":[
				1,
				1,
				1
			],
			"emissiveTexture":{
				"index":0
			},
			"name":"Material",
			"normalTexture":{
				"index":1
			},
			"occlusionTexture":{
				"index":2
			},
			"pbrMetallicRoughness":{
				"baseColorTexture":{
					"index":3
				},
				"metallicRoughnessTexture":{
					"index":2
				}
			}
		}
	],
	"meshes":[
		{
			"name":"Pyramid",
			"primitives":[
				{
					"attributes":{
						"POSITION":0,
						"NORMAL":1,
						"TEXCOORD_0":2
					},
					"indices":3,
					"material":0
				}
			]
		}
	],
	"textures":[
		{
			"sampler":0,
			"source":0,
			"extensions": {
				"KHR_texture_basisu": {
					"source": 4
				}
			}
		},
		{
			"sampler":0,
			"source":1,
			"extensions": {
				"KHR_texture_basisu": {
					"source": 5
				}
			}
		},
		{
			"sampler":0,
			"source":2,
			"extensions": {
				"KHR_texture_basisu": {
					"source": 6
				}
			}
		},
		{
			"sampler":0,
			"source":3,
			"extensions": {
				"KHR_texture_basisu": {
					"source": 7
				}
			}
		}
	],
	"images":[
		{
			"mimeType":"image/png",
			"name":"fully_textured_pyramid_emissive",
			"uri":"fully_textured_pyramid_emissive.png"
		},
		{
			"mimeType":"image/png",
			"name":"fully_textured_pyramid_normal",
			"uri":"fully_textured_pyramid_normal.png"
		},
		{
			"mimeType":"image/png",
			"name":"fully_textured_pyramid_omr",
			"uri":"fully_textured_pyramid_omr.png"
		},
		{
			"mimeType":"image/png",
			"name":"fully_textured_pyramid_base_color",
			"uri":"fully_textured_pyramid_base_color.png"
		},
		{
			"mimeType":"image/ktx2",
			"name":"fully_textured_pyramid_emissive",
			"uri":"fully_textured_pyramid_emissive.ktx2"
		},
		{
			"mimeType":"image/ktx2",
			"name":"fully_textured_pyramid_normal",
			"uri":"fully_textured_pyramid_normal.ktx2"
		},
		{
			"mimeType":"image/ktx2",
			"name":"fully_textured_pyramid_omr",
			"uri":"fully_textured_pyramid_omr.ktx2"
		},
		{
			"mimeType":"image/ktx2",
			"name":"fully_textured_pyramid_base_color",
			"uri":"fully_textured_pyramid_base_color.ktx2"
		}
	],
	"accessors":[
		{
			"bufferView":0,
			"componentType":5126,
			"count":16,
			"max":[
				1,
				1,
				1
			],
			"min":[
				-1,
				-1,
				-1
			],
			"type":"VEC3"
		},
		{
			"bufferView":1,
			"componentType":5126,
			"count":16,
			"type":"VEC3"
		},
		{
			"bufferView":2,
			"componentType":5126,
			"count":16,
			"type":"VEC2"
		},
		{
			"bufferView":3,
			"componentType":5123,
			"count":18,
			"type":"SCALAR"
		}
	],
	"bufferViews":[
		{
			"buffer":0,
			"byteLength":192,
			"byteOffset":0,
			"target":34962
		},
		{
			"buffer":0,
			"byteLength":192,
			"byteOffset":192,
			"target":34962
		},
		{
			"buffer":0,
			"byteLength":128,
			"byteOffset":384,
			"target":34962
		},
		{
			"buffer":0,
			"byteLength":36,
			"byteOffset":512,
			"target":34963
		}
	],
	"samplers":[
		{
			"magFilter":9729,
			"minFilter":9987
		}
	],
	"buffers":[
		{
			"byteLength":548,
			"uri":"fully_textured_pyramid.bin"
		}
	]
}
