{
	"asset":{
		"generator":"Khronos glTF Blender I/O v3.6.27",
		"version":"2.0"
	},
	"scene":0,
	"scenes":[
		{
			"name":"Scene",
			"nodes":[
				0
			]
		}
	],
	"nodes":[
		{
			"mesh":0,
			"name":"Icosphere",
			"translation": [0, 0.5, 0],
			"scale": [0.6, 0.6, 0.6]
		}
	],
	"materials":[
		{
			"doubleSided":true,
			"name":"Material",
			"pbrMetallicRoughness":{
				"baseColorFactor":[
					0.92667604684829712,
					0.92667604684829712,
					0.92667604684829712,
					1
				],
				"metallicFactor":0.5,
				"roughnessFactor":0.1
			}
		}
	],
	"meshes":[
		{
			"name":"Icosphere",
			"primitives":[
				{
					"attributes":{
						"POSITION":0,
						"NORMAL":1
					},
					"indices":2,
					"material":0
				}
			]
		}
	],
	"accessors":[
		{
			"bufferView":0,
			"componentType":5126,
			"count":642,
			"max":[
				1,
				1,
				0.9999999403953552
			],
			"min":[
				-0.9999999403953552,
				-1,
				-0.9999999403953552
			],
			"type":"VEC3"
		},
		{
			"bufferView":1,
			"componentType":5126,
			"count":642,
			"type":"VEC3"
		},
		{
			"bufferView":2,
			"componentType":5123,
			"count":3840,
			"type":"SCALAR"
		}
	],
	"bufferViews":[
		{
			"buffer":0,
			"byteLength":7704,
			"byteOffset":0,
			"target":34962
		},
		{
			"buffer":0,
			"byteLength":7704,
			"byteOffset":7704,
			"target":34962
		},
		{
			"buffer":0,
			"byteLength":7680,
			"byteOffset":15408,
			"target":34963
		}
	],
	"buffers":[
		{
			"byteLength":23088,
			"uri":"data:application/octet-stream;base64,"
		}
	]
}
