{
    "asset": {
        "version": "2.0",
        "generator": "gltfpack 0.23"
    },
    "extensionsUsed": [
        "EXT_meshopt_compression"
    ],
    "buffers": [
        {
            "uri": "rainbow_box.bin",
            "byteLength": 5336
        },
        {
            "uri": "rainbow_box.fallback.bin",
            "byteLength": 636,
            "extensions": {
                "EXT_meshopt_compression": {
                    "fallback": true
                }
            }
        }
    ],
    "bufferViews": [
        {
            "buffer": 0,
            "byteOffset": 0,
            "byteLength": 5014
        },
        {
            "buffer": 1,
            "byteOffset": 0,
            "byteLength": 240,
            "byteStride": 12,
            "target": 34962,
            "extensions": {
                "EXT_meshopt_compression": {
                    "buffer": 0,
                    "byteOffset": 5016,
                    "byteLength": 104,
                    "byteStride": 12,
                    "mode": "ATTRIBUTES",
                    "count": 20
                }
            }
        },
        {
            "buffer": 1,
            "byteOffset": 240,
            "byteLength": 240,
            "byteStride": 12,
            "target": 34962,
            "extensions": {
                "EXT_meshopt_compression": {
                    "buffer": 0,
                    "byteOffset": 5120,
                    "byteLength": 65,
                    "byteStride": 12,
                    "mode": "ATTRIBUTES",
                    "count": 20
                }
            }
        },
        {
            "buffer": 1,
            "byteOffset": 480,
            "byteLength": 60,
            "target": 34963,
            "extensions": {
                "EXT_meshopt_compression": {
                    "buffer": 0,
                    "byteOffset": 5188,
                    "byteLength": 31,
                    "byteStride": 2,
                    "mode": "TRIANGLES",
                    "count": 30
                }
            }
        },
        {
            "buffer": 1,
            "byteOffset": 540,
            "byteLength": 96,
            "byteStride": 8,
            "target": 34962,
            "extensions": {
                "EXT_meshopt_compression": {
                    "buffer": 0,
                    "byteOffset": 5220,
                    "byteLength": 113,
                    "byteStride": 8,
                    "mode": "ATTRIBUTES",
                    "count": 12
                }
            }
        }
    ],
    "accessors": [
        {
            "bufferView": 1,
            "byteOffset": 0,
            "componentType": 5126,
            "count": 4,
            "type": "VEC3",
            "min": [
                1,
                -1,
                -1
            ],
            "max": [
                1,
                1,
                1
            ]
        },
        {
            "bufferView": 2,
            "byteOffset": 0,
            "componentType": 5126,
            "count": 4,
            "type": "VEC3"
        },
        {
            "bufferView": 3,
            "byteOffset": 0,
            "componentType": 5123,
            "count": 6,
            "type": "SCALAR"
        },
        {
            "bufferView": 1,
            "byteOffset": 48,
            "componentType": 5126,
            "count": 4,
            "type": "VEC3",
            "min": [
                -1,
                1,
                -1
            ],
            "max": [
                1,
                1,
                0.99999994
            ]
        },
        {
            "bufferView": 2,
            "byteOffset": 48,
            "componentType": 5126,
            "count": 4,
            "type": "VEC3"
        },
        {
            "bufferView": 4,
            "byteOffset": 0,
            "componentType": 5126,
            "count": 4,
            "type": "VEC2"
        },
        {
            "bufferView": 3,
            "byteOffset": 12,
            "componentType": 5123,
            "count": 6,
            "type": "SCALAR"
        },
        {
            "bufferView": 1,
            "byteOffset": 96,
            "componentType": 5126,
            "count": 4,
            "type": "VEC3",
            "min": [
                -1,
                0,
                -1
            ],
            "max": [
                1,
                0,
                1
            ]
        },
        {
            "bufferView": 2,
            "byteOffset": 96,
            "componentType": 5126,
            "count": 4,
            "type": "VEC3"
        },
        {
            "bufferView": 4,
            "byteOffset": 32,
            "componentType": 5126,
            "count": 4,
            "type": "VEC2"
        },
        {
            "bufferView": 3,
            "byteOffset": 24,
            "componentType": 5123,
            "count": 6,
            "type": "SCALAR"
        },
        {
            "bufferView": 1,
            "byteOffset": 144,
            "componentType": 5126,
            "count": 4,
            "type": "VEC3",
            "min": [
                -1,
                0,
                -1
            ],
            "max": [
                1,
                0,
                1
            ]
        },
        {
            "bufferView": 2,
            "byteOffset": 144,
            "componentType": 5126,
            "count": 4,
            "type": "VEC3"
        },
        {
            "bufferView": 4,
            "byteOffset": 64,
            "componentType": 5126,
            "count": 4,
            "type": "VEC2"
        },
        {
            "bufferView": 3,
            "byteOffset": 36,
            "componentType": 5123,
            "count": 6,
            "type": "SCALAR"
        },
        {
            "bufferView": 1,
            "byteOffset": 192,
            "componentType": 5126,
            "count": 4,
            "type": "VEC3",
            "min": [
                -1,
                0,
                -1
            ],
            "max": [
                1,
                0,
                1
            ]
        },
        {
            "bufferView": 2,
            "byteOffset": 192,
            "componentType": 5126,
            "count": 4,
            "type": "VEC3"
        },
        {
            "bufferView": 3,
            "byteOffset": 48,
            "componentType": 5123,
            "count": 6,
            "type": "SCALAR"
        }
    ],
    "samplers": [
        {
            "magFilter": 9729,
            "minFilter": 9987
        }
    ],
    "images": [
        {
            "name": "rainbow_stripes",
            "bufferView": 0,
            "mimeType": "image/png"
        }
    ],
    "textures": [
        {
            "sampler": 0,
            "source": 0
        }
    ],
    "materials": [
        {
            "name": "yellow",
            "pbrMetallicRoughness": {
                "baseColorFactor": [
                    0.799446046,
                    0.800000072,
                    0,
                    1
                ],
                "metallicFactor": 0
            },
            "doubleSided": true
        },
        {
            "name": "Rainbow_Stripes",
            "pbrMetallicRoughness": {
                "baseColorTexture": {
                    "index": 0
                },
                "metallicFactor": 0
            },
            "doubleSided": true
        },
        {
            "name": "orange",
            "pbrMetallicRoughness": {
                "baseColorFactor": [
                    0.800000072,
                    0.159193099,
                    0.0228639469,
                    1
                ],
                "metallicFactor": 0
            },
            "doubleSided": true
        },
        {
            "name": "purple",
            "pbrMetallicRoughness": {
                "baseColorFactor": [
                    0.235610411,
                    0,
                    0.800000072,
                    1
                ],
                "metallicFactor": 0
            },
            "doubleSided": true
        }
    ],
    "meshes": [
        {
            "primitives": [
                {
                    "attributes": {
                        "POSITION": 0,
                        "NORMAL": 1
                    },
                    "indices": 2,
                    "material": 0
                },
                {
                    "attributes": {
                        "POSITION": 3,
                        "NORMAL": 4,
                        "TEXCOORD_0": 5
                    },
                    "indices": 6,
                    "material": 1
                }
            ]
        },
        {
            "primitives": [
                {
                    "attributes": {
                        "POSITION": 7,
                        "NORMAL": 8,
                        "TEXCOORD_0": 9
                    },
                    "indices": 10,
                    "material": 1
                }
            ]
        },
        {
            "primitives": [
                {
                    "attributes": {
                        "POSITION": 11,
                        "NORMAL": 12,
                        "TEXCOORD_0": 13
                    },
                    "indices": 14,
                    "material": 1
                }
            ]
        },
        {
            "primitives": [
                {
                    "attributes": {
                        "POSITION": 15,
                        "NORMAL": 16
                    },
                    "indices": 17,
                    "material": 2
                }
            ]
        },
        {
            "primitives": [
                {
                    "attributes": {
                        "POSITION": 15,
                        "NORMAL": 16
                    },
                    "indices": 17,
                    "material": 3
                }
            ]
        }
    ],
    "nodes": [
        {
            "name": "blue_yellow.001",
            "rotation": [
                0.707106769,
                0,
                0,
                0.707106769
            ],
            "mesh": 0
        },
        {
            "name": "green.001",
            "translation": [
                -5,
                1,
                0
            ],
            "mesh": 1
        },
        {
            "name": "red.001",
            "translation": [
                -5,
                -1,
                0
            ],
            "rotation": [
                0,
                -1,
                0,
                0
            ],
            "mesh": 2
        },
        {
            "name": "empty_root.001",
            "translation": [
                5,
                0,
                0
            ],
            "children": [
                1,
                2
            ]
        },
        {
            "name": "orange.001",
            "translation": [
                0,
                -1,
                -1
            ],
            "rotation": [
                -0.5,
                0.5,
                -0.5,
                0.5
            ],
            "mesh": 3
        },
        {
            "name": "purple.001",
            "translation": [
                -1,
                0,
                0
            ],
            "rotation": [
                0,
                0,
                0.707106769,
                0.707106769
            ],
            "children": [
                4
            ],
            "mesh": 4
        }
    ],
    "scenes": [
        {
            "name": "Scene",
            "nodes": [
                0,
                3,
                5
            ]
        }
    ],
    "scene": 0
}