# Blender v2.79 (sub 0) OBJ File: ''
# www.blender.org
mtllib laser.mtl
o Laser
v 0.000000 0.020257 0.000143
v 0.000000 0.020257 0.037222
v 0.003952 0.019868 0.037222
v 0.003952 0.019868 0.000143
v 0.007752 0.018715 0.037222
v 0.007752 0.018715 0.000143
v 0.011254 0.016843 0.037222
v 0.011254 0.016843 0.000143
v 0.014324 0.014324 0.037222
v 0.014324 0.014324 0.000143
v 0.016843 0.011254 0.037222
v 0.016843 0.011254 0.000143
v 0.018715 0.007752 0.037222
v 0.018715 0.007752 0.000143
v 0.019868 0.003952 0.037222
v 0.019868 0.003952 0.000143
v 0.020257 0.000000 0.037222
v 0.020257 0.000000 0.000143
v 0.019868 -0.003952 0.037222
v 0.019868 -0.003952 0.000143
v 0.018715 -0.007752 0.037222
v 0.018715 -0.007752 0.000143
v 0.016843 -0.011254 0.037222
v 0.016843 -0.011254 0.000143
v 0.014324 -0.014324 0.037222
v 0.014324 -0.014324 0.000143
v 0.011254 -0.016843 0.037222
v 0.011254 -0.016843 0.000143
v 0.007752 -0.018715 0.037222
v 0.007752 -0.018715 0.000143
v 0.003952 -0.019868 0.037222
v 0.003952 -0.019868 0.000143
v -0.000000 -0.020257 0.037222
v -0.000000 -0.020257 0.000143
v -0.003952 -0.019868 0.037222
v -0.003952 -0.019868 0.000143
v -0.007752 -0.018715 0.037222
v -0.007752 -0.018715 0.000143
v -0.011254 -0.016843 0.037222
v -0.011254 -0.016843 0.000143
v -0.014324 -0.014324 0.037222
v -0.014324 -0.014324 0.000143
v -0.016844 -0.011254 0.037222
v -0.016844 -0.011254 0.000143
v -0.018715 -0.007752 0.037222
v -0.018715 -0.007752 0.000143
v -0.019868 -0.003952 0.037222
v -0.019868 -0.003952 0.000143
v -0.020257 0.000000 0.037222
v -0.020257 0.000000 0.000143
v -0.019868 0.003952 0.037222
v -0.019868 0.003952 0.000143
v -0.018715 0.007752 0.037222
v -0.018715 0.007752 0.000143
v -0.016843 0.011254 0.037222
v -0.016843 0.011254 0.000143
v -0.014324 0.014324 0.037222
v -0.014324 0.014324 0.000143
v -0.011254 0.016844 0.037222
v -0.011254 0.016844 0.000143
v -0.007752 0.018716 0.037222
v -0.003952 0.019868 0.000143
v -0.003952 0.019868 0.037222
v -0.007752 0.018716 0.000143
vn 0.0980 0.9952 0.0000
vn 0.2903 0.9569 0.0000
vn 0.4714 0.8819 0.0000
vn 0.6344 0.7730 0.0000
vn 0.7730 0.6344 0.0000
vn 0.8819 0.4714 0.0000
vn 0.9569 0.2903 0.0000
vn 0.9952 0.0980 0.0000
vn 0.9952 -0.0980 0.0000
vn 0.9569 -0.2903 0.0000
vn 0.8819 -0.4714 0.0000
vn 0.7730 -0.6344 0.0000
vn 0.6344 -0.7730 0.0000
vn 0.4714 -0.8819 0.0000
vn 0.2903 -0.9569 0.0000
vn 0.0980 -0.9952 0.0000
vn -0.0980 -0.9952 0.0000
vn -0.2903 -0.9569 0.0000
vn -0.4714 -0.8819 0.0000
vn -0.6344 -0.7730 0.0000
vn -0.7730 -0.6344 0.0000
vn -0.8819 -0.4714 0.0000
vn -0.9569 -0.2903 0.0000
vn -0.9952 -0.0980 0.0000
vn -0.9952 0.0980 0.0000
vn -0.9569 0.2903 0.0000
vn -0.8819 0.4714 0.0000
vn -0.7730 0.6344 0.0000
vn -0.6344 0.7730 0.0000
vn -0.4714 0.8819 0.0000
vn 0.0000 0.0000 1.0000
vn -0.0980 0.9952 0.0000
vn -0.2903 0.9569 0.0000
vn 0.0000 0.0000 -1.0000
usemtl None
s off
f 1//1 2//1 3//1
f 4//2 3//2 5//2
f 6//3 5//3 7//3
f 8//4 7//4 9//4
f 10//5 9//5 11//5
f 12//6 11//6 13//6
f 14//7 13//7 15//7
f 16//8 15//8 17//8
f 18//9 17//9 19//9
f 20//10 19//10 21//10
f 22//11 21//11 23//11
f 24//12 23//12 25//12
f 26//13 25//13 27//13
f 28//14 27//14 29//14
f 30//15 29//15 31//15
f 32//16 31//16 33//16
f 34//17 33//17 35//17
f 36//18 35//18 37//18
f 38//19 37//19 39//19
f 40//20 39//20 41//20
f 42//21 41//21 43//21
f 44//22 43//22 45//22
f 46//23 45//23 47//23
f 48//24 47//24 49//24
f 50//25 49//25 51//25
f 52//26 51//26 53//26
f 54//27 53//27 55//27
f 56//28 55//28 57//28
f 58//29 57//29 59//29
f 60//30 59//30 61//30
f 31//31 37//31 35//31
f 62//32 63//32 2//32
f 64//33 61//33 63//33
f 62//34 22//34 38//34
f 4//1 1//1 3//1
f 6//2 4//2 5//2
f 8//3 6//3 7//3
f 10//4 8//4 9//4
f 12//5 10//5 11//5
f 14//6 12//6 13//6
f 16//7 14//7 15//7
f 18//8 16//8 17//8
f 20//9 18//9 19//9
f 22//10 20//10 21//10
f 24//11 22//11 23//11
f 26//12 24//12 25//12
f 28//13 26//13 27//13
f 30//14 28//14 29//14
f 32//15 30//15 31//15
f 34//16 32//16 33//16
f 36//17 34//17 35//17
f 38//18 36//18 37//18
f 40//19 38//19 39//19
f 42//20 40//20 41//20
f 44//21 42//21 43//21
f 46//22 44//22 45//22
f 48//23 46//23 47//23
f 50//24 48//24 49//24
f 52//25 50//25 51//25
f 54//26 52//26 53//26
f 56//27 54//27 55//27
f 58//28 56//28 57//28
f 60//29 58//29 59//29
f 64//30 60//30 61//30
f 2//31 63//31 3//31
f 43//31 41//31 39//31
f 61//31 59//31 57//31
f 57//31 55//31 53//31
f 49//31 47//31 51//31
f 37//31 31//31 47//31
f 13//31 25//31 21//31
f 37//31 43//31 39//31
f 33//31 31//31 35//31
f 31//31 29//31 27//31
f 25//31 31//31 27//31
f 25//31 23//31 21//31
f 21//31 19//31 17//31
f 63//31 61//31 57//31
f 13//31 11//31 9//31
f 9//31 7//31 5//31
f 57//31 53//31 47//31
f 31//31 25//31 57//31
f 45//31 43//31 47//31
f 43//31 37//31 47//31
f 3//31 63//31 25//31
f 21//31 17//31 15//31
f 13//31 3//31 25//31
f 13//31 9//31 5//31
f 1//32 62//32 2//32
f 57//31 25//31 63//31
f 15//31 13//31 21//31
f 5//31 3//31 13//31
f 47//31 31//31 57//31
f 47//31 53//31 51//31
f 62//33 64//33 63//33
f 62//34 1//34 4//34
f 6//34 14//34 16//34
f 12//34 14//34 10//34
f 48//34 52//34 54//34
f 20//34 22//34 18//34
f 32//34 36//34 38//34
f 28//34 32//34 26//34
f 28//34 30//34 32//34
f 32//34 34//34 36//34
f 38//34 48//34 62//34
f 40//34 42//34 44//34
f 44//34 46//34 48//34
f 48//34 50//34 52//34
f 56//34 48//34 54//34
f 62//34 58//34 64//34
f 6//34 8//34 10//34
f 14//34 6//34 10//34
f 24//34 26//34 22//34
f 32//34 38//34 26//34
f 22//34 16//34 18//34
f 48//34 38//34 44//34
f 38//34 22//34 26//34
f 16//34 22//34 4//34
f 4//34 6//34 16//34
f 22//34 62//34 4//34
f 62//34 56//34 58//34
f 48//34 56//34 62//34
f 38//34 40//34 44//34
f 58//34 60//34 64//34
