# generated by collision_forge
v -0.005353 -0.006319 0.000980
v -0.005249 -0.006312 0.000711
v -0.005337 -0.006319 0.001303
v -0.005345 0.005017 0.001303
v -0.005345 0.005018 0.001303
v -0.005342 0.005018 0.000980
v -0.005242 0.005018 0.000715
v -0.005246 -0.006319 0.000708
v -0.005130 0.005018 0.000554
v -0.005235 -0.006319 0.001532
v -0.005246 0.005017 0.001567
v -0.005124 -0.006319 0.000550
v -0.005130 0.005017 0.000554
v -0.004968 0.005018 0.000413
v -0.005233 -0.006319 0.001537
v -0.005124 0.005017 0.001729
v -0.004962 -0.006319 0.000428
v -0.004968 0.005017 0.000413
v -0.004694 0.005018 0.000317
v -0.005082 -0.006319 0.001699
v -0.004962 0.005017 0.001863
v -0.004962 0.005018 0.001863
v -0.004694 -0.006319 0.000351
v -0.004370 0.005018 0.000389
v -0.003399 0.004289 0.000051
v -0.004924 -0.006319 0.001829
v -0.004920 -0.006319 0.001831
v -0.004046 -0.002751 0.002293
v -0.004046 -0.002103 0.002294
v -0.004046 0.002104 0.002284
v -0.003745 0.004046 0.002404
v -0.003579 0.004222 0.002440
v -0.004694 0.005018 0.001945
v -0.003399 -0.005664 0.000240
v -0.003075 -0.006319 0.000316
v -0.003723 -0.003722 0.000060
v -0.004199 0.005018 0.000485
v -0.003198 0.004254 0.000106
v -0.003160 0.004046 0.000067
v -0.004698 -0.006319 0.001889
v -0.003723 -0.005341 0.002294
v -0.003723 -0.005017 0.002324
v -0.004046 -0.004693 0.002244
v -0.004046 -0.003398 0.002287
v -0.003723 -0.002751 0.002391
v -0.003552 0.004222 0.002440
v -0.003232 0.004534 0.002116
v -0.003399 -0.001456 0.000011
v -0.003075 -0.005988 0.000297
v -0.003069 -0.006319 0.000316
v -0.002578 0.004537 0.001083
v -0.002522 0.004309 0.000742
v -0.002488 0.004046 0.000690
v -0.003133 0.003399 0.000057
v -0.004694 -0.006319 0.001890
v -0.003723 -0.004369 0.002362
v -0.003723 -0.003722 0.002379
v -0.003723 -0.003398 0.002385
v -0.003552 0.004046 0.002440
v -0.002894 -0.006319 0.002124
v -0.002968 0.004046 0.002079
v -0.002899 0.004537 0.001804
v -0.004231 0.005018 0.001768
v -0.002732 -0.006319 0.000425
v -0.003980 0.005018 0.000980
v -0.002579 0.004537 0.001303
v -0.002369 0.004046 0.000980
v -0.002488 0.003723 0.000676
v -0.002611 0.003399 0.000514
v -0.002607 0.001780 0.000511
v -0.002598 -0.006319 0.000502
v -0.003372 -0.006319 0.002147
v -0.003075 -0.006319 0.002161
v -0.002732 -0.006319 0.001988
v -0.002791 0.004046 0.001917
v -0.002587 0.004534 0.001470
v -0.004116 0.005018 0.001606
v -0.002261 -0.006319 0.001158
v -0.002277 -0.006319 0.000986
v -0.002285 -0.006319 0.000956
v -0.002388 0.004046 0.001303
v -0.002268 -0.006319 0.001303
v -0.002293 -0.006319 0.000937
v -0.002484 -0.006319 0.000635
v -0.002557 -0.006319 0.001826
v -0.002629 0.004046 0.001737
v -0.002507 0.004046 0.001575
v -0.002387 -0.006319 0.001578
v -0.002397 -0.006319 0.001600
v -0.004109 0.000684 0.000000
v -0.004075 0.000316 0.000000
v -0.003214 0.003285 0.000000
v -0.003239 0.001206 0.000000
v -0.003507 -0.001778 0.000000
v -0.004087 0.003811 0.000000
v -0.003679 -0.002687 0.000000
v -0.003715 -0.002794 0.000000
v -0.004118 0.003581 0.000000
v -0.003666 0.004246 0.000000
v -0.003831 -0.002284 0.000000
v -0.003782 -0.002663 0.000000
v -0.003962 0.004285 0.000000
f 1 5 6
f 72 41 55
f 20 16 15
f 15 16 11
f 21 20 26
f 16 20 21
f 1 2 8
f 8 2 9
f 1 6 7
f 7 2 1
f 9 2 7
f 79 67 78
f 52 51 67
f 52 37 51
f 1 3 4
f 4 5 1
f 4 11 5
f 3 11 4
f 40 55 41
f 60 61 46
f 74 61 60
f 15 11 10
f 10 11 3
f 56 44 43
f 43 42 56
f 27 21 26
f 27 43 44
f 42 43 27
f 41 42 27
f 27 40 41
f 59 60 46
f 28 27 44
f 29 21 28
f 21 27 28
f 29 28 31
f 31 28 45
f 64 93 71
f 12 18 17
f 98 18 14
f 99 19 25
f 102 19 99
f 51 37 65
f 67 79 80
f 63 62 76
f 76 81 67
f 46 61 47
f 47 62 63
f 63 33 47
f 47 33 46
f 86 76 75
f 75 76 62
f 75 61 74
f 62 47 75
f 75 47 61
f 85 75 74
f 86 75 85
f 78 67 82
f 67 81 82
f 83 84 68
f 68 80 83
f 67 80 68
f 73 41 72
f 73 42 41
f 56 42 73
f 73 60 56
f 58 59 45
f 60 59 58
f 29 31 30
f 45 59 32
f 32 31 45
f 32 59 46
f 46 33 32
f 35 23 34
f 34 36 35
f 23 36 34
f 91 100 23
f 23 100 101
f 97 36 101
f 101 36 23
f 48 94 93
f 93 64 48
f 71 54 70
f 70 54 69
f 70 84 71
f 69 68 70
f 70 68 84
f 71 93 92
f 92 54 71
f 37 52 38
f 13 12 8
f 13 8 9
f 18 12 13
f 95 98 14
f 14 19 95
f 95 19 102
f 25 19 24
f 24 38 25
f 37 38 24
f 63 76 77
f 77 76 65
f 51 65 66
f 65 76 66
f 67 51 66
f 66 76 67
f 87 76 86
f 81 76 87
f 87 85 89
f 86 85 87
f 88 82 81
f 81 87 88
f 88 87 89
f 53 52 67
f 67 68 53
f 53 68 69
f 56 60 57
f 60 58 57
f 57 58 44
f 57 44 56
f 22 30 31
f 31 32 22
f 22 21 29
f 29 30 22
f 22 32 33
f 16 21 22
f 5 11 22
f 22 11 16
f 49 48 64
f 49 96 94
f 94 48 49
f 54 92 39
f 69 54 39
f 39 53 69
f 39 38 52
f 52 53 39
f 25 38 39
f 39 92 99
f 39 99 25
f 50 49 64
f 96 49 50
f 97 96 50
f 35 36 50
f 50 36 97
f 90 17 98
f 17 18 98
f 45 28 58
f 58 28 44
f 91 23 17
f 91 17 90
f 9 14 13
f 14 18 13
f 95 96 97
f 97 101 95
f 90 98 95
f 95 91 90
f 93 94 95
f 95 92 93
f 102 99 95
f 100 91 95
f 95 101 100
f 94 96 95
f 99 92 95
f 63 77 22
f 22 6 5
f 22 14 9
f 9 7 22
f 22 7 6
f 22 19 14
f 22 33 63
f 37 24 22
f 22 65 37
f 22 24 19
f 22 77 65
f 50 23 35
f 50 79 78
f 1 8 50
f 50 3 1
f 26 20 50
f 50 27 26
f 72 55 50
f 15 10 50
f 50 85 74
f 78 82 50
f 71 84 50
f 50 20 15
f 17 23 50
f 50 88 89
f 50 12 17
f 83 80 50
f 50 84 83
f 55 40 50
f 74 60 50
f 50 10 3
f 40 27 50
f 50 64 71
f 8 12 50
f 50 80 79
f 89 85 50
f 50 73 72
f 60 73 50
f 82 88 50
