# generated by collision_forge
v -0.002261 -0.006319 0.001159
v -0.002268 -0.006319 0.001303
v -0.000100 -0.007988 0.001303
v -0.000100 -0.007980 0.000980
v -0.002386 -0.006319 0.001578
v -0.000100 -0.008064 0.001517
v -0.000100 -0.007995 0.000938
v -0.002293 -0.006319 0.000937
v -0.002397 -0.006319 0.001600
v -0.000100 -0.008141 0.001647
v -0.002557 -0.006319 0.001827
v -0.000100 -0.008057 0.000761
v -0.000100 -0.008161 0.001679
v -0.002732 -0.006319 0.001988
v -0.000100 -0.008323 0.001875
v -0.000100 -0.008292 0.001839
v -0.000100 -0.008187 0.000599
v -0.002597 -0.006319 0.000502
v -0.002486 -0.006319 0.000632
v -0.002894 -0.006319 0.002124
v -0.000100 -0.008578 0.002018
v -0.000100 -0.008348 0.000447
v -0.003075 -0.006319 0.002162
v -0.000100 -0.008902 0.001997
v -0.003069 -0.006319 0.000316
v -0.002737 -0.006319 0.000423
v -0.003372 -0.006319 0.002147
v -0.001780 -0.008255 0.002040
v -0.001133 -0.008578 0.002029
v -0.000809 -0.008578 0.002028
v -0.000162 -0.008902 0.001997
v -0.000100 -0.009087 0.001882
v -0.000100 -0.008578 0.000394
v -0.003075 -0.006319 0.000316
v -0.003409 -0.006319 0.002127
v -0.003482 -0.006391 0.002063
v -0.003267 -0.006518 0.002126
v -0.002428 -0.007607 0.002068
v -0.002428 -0.007931 0.001991
v -0.002104 -0.008255 0.001974
v -0.001457 -0.008578 0.001997
v -0.000809 -0.008902 0.001953
v -0.000100 -0.009131 0.001855
v -0.000486 -0.009121 0.001845
v -0.000100 -0.008639 0.000402
v -0.003392 -0.006319 0.000352
v -0.000486 -0.008578 0.000392
v -0.001457 -0.008255 0.000380
v -0.002104 -0.007931 0.000376
v -0.003944 -0.006319 0.001807
v -0.002985 -0.007551 0.001851
v -0.002783 -0.007638 0.001935
v -0.002606 -0.008111 0.001804
v -0.001019 -0.009079 0.001805
v -0.000100 -0.009397 0.001482
v -0.000100 -0.008894 0.000440
v -0.002751 -0.007284 0.000376
v -0.002753 -0.007606 0.000440
v -0.001133 -0.008578 0.000406
v -0.001780 -0.008255 0.000395
v -0.003944 -0.006319 0.000568
v -0.003944 -0.007300 0.001282
v -0.002275 -0.008425 0.001796
v -0.001688 -0.008778 0.001822
v -0.000339 -0.009389 0.001468
v -0.000100 -0.009437 0.001303
v -0.000162 -0.009056 0.000497
v -0.002945 -0.007498 0.000474
v -0.000486 -0.008872 0.000442
v -0.001133 -0.008789 0.000468
v -0.002325 -0.008151 0.000468
v -0.003944 -0.006402 0.000595
v -0.002275 -0.008747 0.001173
v -0.002585 -0.008413 0.001453
v -0.003944 -0.007294 0.001002
v -0.002275 -0.008747 0.001120
v -0.002121 -0.008657 0.001642
v -0.001628 -0.009069 0.001474
v -0.001133 -0.009284 0.001303
v -0.000716 -0.009400 0.001105
v -0.000100 -0.009215 0.000659
v -0.000486 -0.009198 0.000672
v -0.000486 -0.009034 0.000510
v -0.002541 -0.008042 0.000521
v -0.002862 -0.007713 0.000525
v -0.001133 -0.008952 0.000571
v -0.001546 -0.008703 0.000514
v -0.002193 -0.008367 0.000522
v -0.001665 -0.009089 0.001068
v -0.001660 -0.009086 0.001303
v -0.002240 -0.008723 0.001389
v -0.002357 -0.008494 0.000738
v -0.002573 -0.008400 0.000855
v -0.002217 -0.008709 0.000904
v -0.001133 -0.009261 0.000980
v -0.000486 -0.009360 0.000891
v -0.000162 -0.009377 0.000846
v -0.000100 -0.009428 0.001008
v -0.001133 -0.009136 0.000733
v -0.001376 -0.009100 0.000774
v -0.001592 -0.009050 0.000852
v -0.002001 -0.008776 0.000777
f 20 23 21
f 25 22 33
f 25 33 34
f 11 6 9
f 15 20 21
f 16 11 15
f 12 8 7
f 8 4 7
f 3 2 5
f 5 6 3
f 9 6 5
f 3 4 1
f 1 2 3
f 1 4 8
f 13 11 16
f 20 15 14
f 14 15 11
f 37 27 36
f 23 27 28
f 28 29 23
f 50 62 51
f 62 53 51
f 51 36 50
f 55 65 66
f 44 55 43
f 65 55 44
f 76 62 75
f 84 85 71
f 71 88 84
f 75 85 84
f 48 49 34
f 17 18 12
f 22 18 17
f 22 25 26
f 26 18 22
f 19 8 12
f 12 18 19
f 6 11 10
f 11 13 10
f 30 24 21
f 21 23 30
f 23 29 30
f 50 36 35
f 35 36 27
f 38 27 37
f 38 28 27
f 63 77 64
f 63 53 62
f 37 36 52
f 36 51 52
f 52 51 53
f 81 98 97
f 97 82 81
f 96 82 97
f 80 98 66
f 66 65 80
f 80 65 79
f 79 95 80
f 80 95 96
f 96 97 80
f 80 97 98
f 99 82 96
f 99 95 100
f 96 95 99
f 81 82 67
f 31 44 43
f 31 30 29
f 24 30 31
f 79 65 54
f 65 44 54
f 62 76 73
f 75 84 92
f 92 84 88
f 90 73 89
f 89 73 76
f 89 95 79
f 79 90 89
f 61 46 68
f 68 72 61
f 71 85 68
f 75 72 68
f 68 85 75
f 34 33 47
f 47 48 34
f 71 49 60
f 49 48 60
f 91 77 74
f 77 63 74
f 74 63 62
f 62 73 74
f 74 73 91
f 28 38 39
f 39 38 37
f 37 52 39
f 39 52 53
f 81 67 56
f 32 31 43
f 24 31 32
f 78 90 79
f 79 54 78
f 78 54 64
f 64 77 78
f 78 77 91
f 91 73 78
f 78 73 90
f 64 54 41
f 29 28 41
f 44 31 42
f 42 54 44
f 42 41 54
f 42 31 29
f 29 41 42
f 93 76 75
f 75 92 93
f 102 92 88
f 57 46 34
f 34 49 57
f 87 88 71
f 71 60 87
f 100 102 87
f 87 102 88
f 45 47 33
f 45 56 47
f 28 39 40
f 40 41 28
f 64 41 40
f 40 63 64
f 53 63 40
f 40 39 53
f 101 102 100
f 100 95 101
f 95 89 101
f 94 93 92
f 92 102 94
f 76 93 94
f 102 101 94
f 94 89 76
f 94 101 89
f 58 68 46
f 46 57 58
f 71 68 58
f 58 49 71
f 58 57 49
f 86 99 100
f 100 87 86
f 70 87 60
f 70 86 87
f 59 70 60
f 48 47 59
f 59 60 48
f 86 70 83
f 83 67 82
f 82 99 83
f 99 86 83
f 47 56 69
f 69 59 47
f 70 59 69
f 69 56 67
f 67 83 69
f 69 83 70
f 50 61 72
f 72 62 50
f 75 62 72
f 35 61 50
f 35 11 9
f 35 26 25
f 20 14 35
f 35 25 34
f 23 20 35
f 8 19 35
f 9 5 35
f 35 1 8
f 35 27 23
f 34 46 35
f 35 5 2
f 2 1 35
f 35 14 11
f 35 46 61
f 18 26 35
f 35 19 18
f 66 98 45
f 21 24 45
f 3 6 45
f 33 22 45
f 45 4 3
f 45 55 66
f 12 7 45
f 45 13 16
f 6 10 45
f 45 15 21
f 16 15 45
f 45 7 4
f 45 17 12
f 45 32 43
f 45 98 81
f 43 55 45
f 22 17 45
f 45 10 13
f 81 56 45
f 24 32 45
