# generated by collision_forge
v -0.005358 0.007607 0.001303
v -0.005254 0.008580 0.001594
v -0.005352 0.007607 0.000980
v -0.005351 0.006313 0.000980
v -0.005357 0.007284 0.001303
v -0.005151 0.007931 0.001757
v -0.005357 0.008255 0.001303
v -0.005247 0.009225 0.000699
v -0.005248 0.006313 0.000701
v -0.005350 0.005989 0.000980
v -0.004988 0.007607 0.001875
v -0.004986 0.009225 0.001873
v -0.005142 0.009225 0.000537
v -0.005144 0.007284 0.000536
v -0.005253 0.006637 0.001588
v -0.005147 0.006960 0.001753
v -0.004694 0.006960 0.001960
v -0.004694 0.009225 0.001962
v -0.004694 0.007607 0.001962
v -0.004694 0.008525 0.001962
v -0.005344 0.009549 0.000980
v -0.005346 0.009549 0.001303
v -0.004979 0.009549 0.000411
v -0.004982 0.008255 0.000409
v -0.004982 0.007607 0.000408
v -0.004981 0.006637 0.000409
v -0.005142 0.006313 0.000539
v -0.005347 0.005342 0.000980
v -0.005350 0.005342 0.001303
v -0.004982 0.006637 0.001872
v -0.004694 0.005666 0.001950
v -0.004694 0.005989 0.001953
v -0.004047 0.012807 0.001936
v -0.004694 0.009873 0.001957
v -0.004976 0.009873 0.001868
v -0.005333 0.009873 0.000980
v -0.005138 0.009873 0.001741
v -0.005218 0.010521 0.000750
v -0.004912 0.011168 0.000447
v -0.004694 0.010844 0.000343
v -0.004694 0.009549 0.000322
v -0.004694 0.009225 0.000321
v -0.004694 0.007284 0.000317
v -0.004694 0.006313 0.000316
v -0.004694 0.005989 0.000317
v -0.004694 0.005018 0.000317
v -0.004968 0.005018 0.000413
v -0.005243 0.005018 0.000715
v -0.005342 0.005018 0.000980
v -0.005345 0.005018 0.001303
v -0.005246 0.005018 0.001567
v -0.004694 0.005342 0.001948
v -0.004962 0.005018 0.001863
v -0.004694 0.005018 0.001945
v -0.004025 0.012807 0.001934
v -0.004370 0.012462 0.001925
v -0.004694 0.011168 0.001924
v -0.004370 0.012462 0.000342
v -0.004047 0.012786 0.000332
v -0.004370 0.005018 0.000389
v -0.005130 0.005018 0.000554
v -0.005124 0.005018 0.001729
v -0.004393 0.005018 0.001871
v -0.003736 0.012807 0.001843
v -0.004403 0.012807 0.001869
v -0.004912 0.011168 0.001832
v -0.005226 0.010521 0.001548
v -0.005306 0.010521 0.001303
v -0.004870 0.011730 0.000482
v -0.004399 0.012807 0.000406
v -0.004047 0.012807 0.000333
v -0.003732 0.012807 0.000425
v -0.004199 0.005018 0.000485
v -0.003716 0.012807 0.000430
v -0.004231 0.005018 0.001768
v -0.003730 0.012807 0.001841
v -0.004848 0.011948 0.001782
v -0.004869 0.011731 0.001800
v -0.005181 0.011338 0.001468
v -0.005177 0.011314 0.000827
v -0.005201 0.011435 0.001043
v -0.004572 0.012723 0.000463
v -0.004410 0.012807 0.000410
v -0.004098 0.005018 0.000656
v -0.003715 0.012807 0.000431
v -0.003492 0.012807 0.000655
v -0.003491 0.012807 0.000657
v -0.004116 0.005018 0.001606
v -0.003497 0.012807 0.001615
v -0.003500 0.012807 0.001620
v -0.003600 0.012807 0.001747
v -0.004886 0.012462 0.001514
v -0.004863 0.012642 0.000804
v -0.003980 0.005018 0.000979
v -0.003364 0.012807 0.000958
v -0.003355 0.012807 0.000980
v -0.003990 0.005018 0.001303
v -0.003355 0.012807 0.001303
v -0.004668 0.012807 0.001650
v -0.004951 0.012462 0.001303
v -0.004831 0.012807 0.000980
v -0.004689 0.012807 0.000655
f 39 23 13
f 1 7 3
f 74 73 60
f 46 59 60
f 55 54 63
f 38 8 36
f 13 8 38
f 38 39 13
f 69 39 38
f 82 69 93
f 93 102 82
f 36 22 68
f 68 81 36
f 36 8 21
f 8 3 21
f 21 22 36
f 21 7 22
f 21 3 7
f 9 3 8
f 86 87 73
f 96 94 84
f 73 87 84
f 82 102 83
f 23 39 40
f 40 41 23
f 80 93 69
f 81 93 80
f 69 38 80
f 36 81 80
f 80 38 36
f 102 93 101
f 67 68 22
f 50 51 29
f 51 15 29
f 2 7 1
f 22 7 2
f 2 67 22
f 37 67 2
f 2 6 37
f 15 6 2
f 46 47 26
f 26 25 46
f 28 48 49
f 28 9 48
f 61 48 27
f 48 9 27
f 27 47 61
f 27 26 47
f 85 73 74
f 85 86 73
f 96 84 95
f 95 84 87
f 63 75 76
f 97 94 98
f 98 94 96
f 59 71 72
f 74 60 72
f 72 60 59
f 44 43 59
f 25 43 44
f 42 41 59
f 59 43 42
f 23 41 42
f 58 40 39
f 58 39 69
f 70 71 58
f 58 69 82
f 58 71 59
f 58 83 70
f 82 83 58
f 59 41 58
f 41 40 58
f 66 67 37
f 37 35 66
f 66 35 57
f 65 56 33
f 19 17 33
f 16 15 51
f 16 6 15
f 16 51 62
f 62 53 16
f 16 53 30
f 55 33 31
f 37 6 12
f 12 35 37
f 5 29 15
f 5 2 1
f 15 2 5
f 9 28 10
f 10 28 29
f 29 5 10
f 14 27 9
f 14 8 13
f 14 9 8
f 13 25 14
f 25 26 14
f 26 27 14
f 89 75 88
f 88 98 89
f 97 98 88
f 64 55 63
f 63 76 64
f 91 76 75
f 45 59 46
f 45 44 59
f 46 25 45
f 25 44 45
f 24 43 25
f 24 42 43
f 23 42 24
f 13 23 24
f 24 25 13
f 34 56 57
f 34 33 56
f 57 35 34
f 35 12 34
f 52 31 30
f 52 53 54
f 30 53 52
f 54 55 52
f 55 31 52
f 32 17 30
f 30 31 32
f 32 33 17
f 32 31 33
f 11 12 6
f 11 16 30
f 6 16 11
f 11 17 19
f 30 17 11
f 3 9 4
f 9 10 4
f 1 3 4
f 4 5 1
f 4 10 5
f 90 75 89
f 90 91 75
f 100 93 81
f 100 101 93
f 100 99 101
f 92 99 100
f 68 67 79
f 92 100 79
f 81 68 79
f 79 100 81
f 33 34 18
f 18 34 12
f 12 11 18
f 65 99 77
f 77 99 92
f 92 79 77
f 19 33 20
f 33 18 20
f 20 11 19
f 20 18 11
f 78 56 65
f 65 77 78
f 57 56 78
f 78 66 57
f 67 66 78
f 78 79 67
f 78 77 79
f 49 50 28
f 50 29 28
f 62 51 88
f 46 60 88
f 88 94 97
f 88 50 49
f 88 47 46
f 49 48 88
f 88 53 62
f 88 51 50
f 61 47 88
f 88 48 61
f 73 84 88
f 88 60 73
f 63 54 88
f 88 84 94
f 54 53 88
f 88 75 63
f 99 85 74
f 99 90 89
f 99 83 102
f 65 33 99
f 74 72 99
f 99 98 96
f 87 86 99
f 96 95 99
f 99 71 70
f 70 83 99
f 102 101 99
f 86 85 99
f 99 95 87
f 55 64 99
f 89 98 99
f 99 72 71
f 99 33 55
f 99 64 76
f 76 91 99
f 91 90 99
