# generated by collision_forge
v 0.003848 -0.005417 0.002064
v 0.004694 -0.005989 0.001977
v 0.004694 -0.005417 0.001986
v 0.003848 -0.005417 0.000280
v 0.003848 -0.005612 0.002051
v 0.004200 -0.011663 0.001794
v 0.004268 -0.011663 0.001819
v 0.004361 -0.011663 0.001849
v 0.004522 -0.011663 0.001864
v 0.004694 -0.011663 0.001862
v 0.004694 -0.011492 0.001867
v 0.004694 -0.010844 0.001884
v 0.004694 -0.009550 0.001913
v 0.004694 -0.009226 0.001920
v 0.004694 -0.008902 0.001926
v 0.004947 -0.009873 0.001843
v 0.004948 -0.005417 0.001861
v 0.004957 -0.008578 0.001853
v 0.004959 -0.007608 0.001858
v 0.004957 -0.006960 0.001859
v 0.003848 -0.005650 0.000304
v 0.004370 -0.005417 0.000233
v 0.004370 -0.011663 0.000363
v 0.004160 -0.011663 0.000456
v 0.003992 -0.011663 0.000659
v 0.003890 -0.011663 0.000814
v 0.003883 -0.011663 0.000828
v 0.003848 -0.005665 0.002047
v 0.004166 -0.011663 0.001757
v 0.003848 -0.005906 0.002024
v 0.003848 -0.005989 0.002015
v 0.004921 -0.010844 0.001829
v 0.004932 -0.010521 0.001834
v 0.005109 -0.005417 0.001711
v 0.005121 -0.007932 0.001730
v 0.005114 -0.009550 0.001731
v 0.003852 -0.011663 0.001001
v 0.004445 -0.005417 0.000238
v 0.004694 -0.011492 0.000342
v 0.004694 -0.011663 0.000347
v 0.004054 -0.011663 0.001628
v 0.003857 -0.011663 0.001244
v 0.003875 -0.011663 0.001310
v 0.003902 -0.011663 0.001399
v 0.003948 -0.011663 0.001478
v 0.005083 -0.010844 0.001703
v 0.005241 -0.005989 0.001554
v 0.005250 -0.007608 0.001567
v 0.005237 -0.005417 0.001549
v 0.005255 -0.009550 0.001569
v 0.005256 -0.009226 0.001570
v 0.003852 -0.011663 0.001099
v 0.003848 -0.007474 0.000905
v 0.004694 -0.005417 0.000259
v 0.004954 -0.010844 0.000427
v 0.004947 -0.011168 0.000429
v 0.004925 -0.011663 0.000440
v 0.003848 -0.006313 0.001963
v 0.004956 -0.011663 0.001737
v 0.005224 -0.011168 0.001527
v 0.005243 -0.010521 0.001551
v 0.005367 -0.010197 0.001303
v 0.005378 -0.008578 0.001303
v 0.005375 -0.008255 0.001303
v 0.005342 -0.005417 0.001303
v 0.005368 -0.007608 0.001303
v 0.005361 -0.006960 0.001303
v 0.005376 -0.009550 0.001303
v 0.005378 -0.009226 0.001303
v 0.004966 -0.009873 0.000422
v 0.005125 -0.010197 0.000548
v 0.005109 -0.011168 0.000571
v 0.005208 -0.011492 0.001506
v 0.005319 -0.011168 0.001303
v 0.005357 -0.010521 0.001303
v 0.005372 -0.010197 0.000980
v 0.005365 -0.010521 0.000980
v 0.005378 -0.008578 0.000980
v 0.005376 -0.007932 0.000980
v 0.005371 -0.007284 0.000980
v 0.005353 -0.005417 0.000980
v 0.005351 -0.005417 0.001055
v 0.005378 -0.008902 0.000980
v 0.005375 -0.009550 0.000980
v 0.004967 -0.005417 0.000406
v 0.005128 -0.009873 0.000546
v 0.005254 -0.010197 0.000710
v 0.005250 -0.010521 0.000714
v 0.005208 -0.011663 0.000771
v 0.005220 -0.011492 0.000753
v 0.005299 -0.011492 0.000980
v 0.005350 -0.010844 0.000980
v 0.005255 -0.007932 0.000706
v 0.005255 -0.007608 0.000705
v 0.005254 -0.007284 0.000706
v 0.005248 -0.005417 0.000713
v 0.005272 -0.005417 0.000775
v 0.005005 -0.005417 0.000439
v 0.005130 -0.007608 0.000543
v 0.005129 -0.009550 0.000545
v 0.005259 -0.011663 0.001315
v 0.005129 -0.005417 0.000551
f 2 3 1
f 16 3 2
f 1 6 7
f 7 8 1
f 9 10 1
f 1 8 9
f 19 36 35
f 81 63 80
f 23 24 4
f 23 4 22
f 4 24 25
f 91 101 89
f 74 101 91
f 62 68 50
f 50 68 69
f 15 2 1
f 1 14 15
f 16 2 15
f 15 14 16
f 48 63 47
f 20 17 3
f 3 19 20
f 35 17 20
f 20 19 35
f 18 3 16
f 18 19 3
f 16 36 18
f 36 19 18
f 40 23 39
f 39 23 22
f 6 31 29
f 29 31 41
f 45 31 44
f 41 31 45
f 27 37 21
f 21 4 27
f 27 4 26
f 4 25 26
f 76 68 62
f 69 68 76
f 10 59 32
f 73 59 101
f 101 74 73
f 35 36 51
f 36 50 51
f 51 48 35
f 51 63 48
f 69 63 51
f 51 50 69
f 1 10 11
f 11 12 1
f 10 32 11
f 11 32 12
f 13 14 1
f 1 12 13
f 65 49 67
f 49 66 67
f 64 66 49
f 64 47 63
f 49 47 64
f 63 81 64
f 81 66 64
f 34 47 49
f 34 17 35
f 35 48 34
f 48 47 34
f 97 81 80
f 80 96 97
f 38 39 22
f 54 39 38
f 5 6 1
f 5 28 6
f 30 31 6
f 6 28 30
f 44 31 43
f 31 42 43
f 52 42 58
f 58 42 31
f 56 57 40
f 40 39 56
f 71 72 56
f 56 72 57
f 92 74 91
f 88 72 71
f 78 63 69
f 46 32 59
f 60 73 74
f 59 73 60
f 60 46 59
f 12 32 33
f 33 13 12
f 33 36 16
f 16 14 33
f 14 13 33
f 33 46 36
f 32 46 33
f 65 67 82
f 82 66 81
f 82 67 66
f 102 99 98
f 98 99 85
f 53 37 52
f 52 58 53
f 53 21 37
f 89 57 90
f 57 72 90
f 72 88 90
f 90 88 92
f 91 89 90
f 90 92 91
f 54 85 70
f 74 92 75
f 75 60 74
f 77 88 76
f 92 88 77
f 77 75 92
f 77 76 62
f 62 75 77
f 87 88 71
f 76 88 87
f 79 96 80
f 80 63 79
f 63 78 79
f 54 70 55
f 55 39 54
f 55 56 39
f 71 56 55
f 55 70 71
f 60 75 61
f 61 50 36
f 62 50 61
f 61 75 62
f 36 46 61
f 46 60 61
f 85 99 100
f 94 99 102
f 83 78 69
f 86 70 85
f 85 100 86
f 71 70 86
f 86 87 71
f 86 100 87
f 95 79 78
f 78 94 95
f 96 79 95
f 102 96 95
f 95 94 102
f 76 87 84
f 87 83 84
f 69 76 84
f 84 83 69
f 93 83 87
f 87 100 93
f 93 94 78
f 78 83 93
f 93 100 99
f 99 94 93
f 40 57 43
f 43 37 27
f 10 9 43
f 43 59 10
f 43 7 6
f 6 29 43
f 43 45 44
f 43 23 40
f 8 7 43
f 43 9 8
f 27 26 43
f 52 37 43
f 24 23 43
f 43 25 24
f 43 89 101
f 101 59 43
f 43 29 41
f 41 45 43
f 43 42 52
f 43 26 25
f 43 57 89
f 98 38 22
f 1 3 98
f 98 4 1
f 22 4 98
f 3 17 98
f 98 49 65
f 65 82 98
f 81 97 98
f 98 96 102
f 17 34 98
f 98 85 54
f 98 34 49
f 98 97 96
f 54 38 98
f 98 82 81
f 1 4 53
f 4 21 53
f 53 5 1
f 31 30 53
f 28 5 53
f 53 30 28
f 53 58 31
