# generated by collision_forge
v 0.002643 0.014259 0.000980
v 0.002643 0.014277 0.001303
v 0.002643 0.014268 0.000961
v 0.003732 0.012210 0.000980
v 0.003729 0.012210 0.001303
v 0.002643 0.014452 0.001591
v 0.002643 0.014440 0.000678
v 0.003802 0.012210 0.000802
v 0.003827 0.012210 0.001554
v 0.002643 0.014623 0.001749
v 0.003829 0.012210 0.000745
v 0.003951 0.012210 0.001715
v 0.002643 0.014774 0.001833
v 0.002643 0.014613 0.000524
v 0.003952 0.012210 0.000618
v 0.002643 0.014616 0.000521
v 0.004113 0.012210 0.001851
v 0.002643 0.015044 0.001890
v 0.004115 0.012210 0.000483
v 0.004370 0.012210 0.001934
v 0.002752 0.015053 0.001904
v 0.002643 0.015378 0.001859
v 0.002643 0.014835 0.000435
v 0.004698 0.012210 0.001880
v 0.004370 0.012463 0.001938
v 0.003098 0.015078 0.001860
v 0.004370 0.012787 0.001933
v 0.003399 0.014729 0.001884
v 0.002643 0.015529 0.001808
v 0.002643 0.015053 0.000408
v 0.004370 0.012210 0.000403
v 0.004318 0.012210 0.000415
v 0.004370 0.013111 0.001910
v 0.004046 0.013758 0.001909
v 0.003221 0.015202 0.001780
v 0.002752 0.015053 0.000403
v 0.004370 0.012463 0.000397
v 0.004626 0.012210 0.000433
v 0.004860 0.012327 0.001793
v 0.004589 0.013111 0.001828
v 0.003565 0.014894 0.001791
v 0.004294 0.013758 0.001834
v 0.003954 0.014343 0.001824
v 0.003877 0.014559 0.001784
v 0.002980 0.015581 0.001530
v 0.002643 0.015686 0.001634
v 0.002643 0.015348 0.000444
v 0.003418 0.014748 0.000431
v 0.003723 0.014082 0.000392
v 0.004370 0.012787 0.000397
v 0.005015 0.012210 0.001556
v 0.004917 0.012787 0.001568
v 0.004511 0.013553 0.001771
v 0.004169 0.014186 0.001755
v 0.003552 0.015207 0.001436
v 0.003196 0.015509 0.001303
v 0.003035 0.015616 0.001303
v 0.002643 0.015831 0.001390
v 0.002643 0.015449 0.000481
v 0.004046 0.013758 0.000396
v 0.005082 0.012463 0.001303
v 0.004801 0.012787 0.001730
v 0.004882 0.013033 0.001514
v 0.003880 0.014885 0.001445
v 0.004257 0.014320 0.001539
v 0.003582 0.015233 0.001220
v 0.003582 0.015233 0.001071
v 0.003187 0.015505 0.000980
v 0.002643 0.015852 0.001046
v 0.003183 0.015173 0.000523
v 0.003539 0.014869 0.000507
v 0.004612 0.012787 0.000449
v 0.004839 0.012217 0.000505
v 0.004847 0.012210 0.000514
v 0.005122 0.012210 0.000997
v 0.005076 0.012463 0.000980
v 0.005010 0.012787 0.001303
v 0.004847 0.013249 0.001428
v 0.004191 0.014543 0.001303
v 0.004536 0.013927 0.001473
v 0.004301 0.014381 0.001303
v 0.003905 0.014913 0.001050
v 0.003880 0.014886 0.000834
v 0.002967 0.015572 0.000773
v 0.002643 0.015823 0.000906
v 0.003332 0.015287 0.000739
v 0.003965 0.014670 0.000733
v 0.004230 0.013956 0.000479
v 0.004815 0.012463 0.000526
v 0.004945 0.012463 0.000688
v 0.004951 0.012210 0.000645
v 0.004878 0.013034 0.000783
v 0.004870 0.013313 0.001066
v 0.004870 0.013313 0.001212
v 0.004187 0.014538 0.000980
v 0.004660 0.013758 0.001303
v 0.004544 0.013940 0.000800
v 0.002643 0.015768 0.000796
v 0.004493 0.013495 0.000524
v 0.004848 0.013249 0.000850
v 0.004666 0.013758 0.000980
v 0.004561 0.013973 0.000980
f 25 20 24
f 3 4 1
f 3 7 4
f 17 20 18
f 1 4 5
f 9 6 5
f 80 81 65
f 58 46 45
f 45 46 29
f 28 34 43
f 59 48 47
f 15 11 16
f 10 6 9
f 1 5 2
f 2 5 6
f 49 50 37
f 37 31 30
f 89 73 72
f 76 61 75
f 61 76 77
f 78 77 94
f 45 29 35
f 69 58 57
f 57 58 45
f 65 81 79
f 69 57 68
f 71 88 48
f 34 28 21
f 21 20 25
f 18 20 21
f 27 33 34
f 27 21 25
f 34 21 27
f 25 24 27
f 24 33 27
f 30 47 36
f 36 47 48
f 36 48 49
f 49 37 36
f 36 37 30
f 49 48 60
f 48 88 60
f 60 50 49
f 72 50 60
f 60 88 72
f 4 7 8
f 7 11 8
f 15 16 19
f 14 11 7
f 14 16 11
f 12 10 9
f 13 17 18
f 13 12 17
f 10 12 13
f 73 74 38
f 31 37 38
f 72 73 38
f 38 50 72
f 38 37 50
f 88 97 99
f 72 88 99
f 99 89 72
f 51 52 39
f 61 52 51
f 75 61 51
f 39 24 51
f 43 34 42
f 34 33 42
f 78 80 53
f 90 74 73
f 73 89 90
f 90 76 75
f 63 52 61
f 61 77 63
f 63 77 78
f 78 53 63
f 96 80 78
f 78 94 96
f 81 80 96
f 93 77 76
f 93 94 77
f 93 76 100
f 41 28 43
f 26 35 29
f 26 21 28
f 28 41 26
f 26 41 35
f 56 68 57
f 56 57 45
f 69 68 85
f 83 71 86
f 86 71 70
f 70 48 59
f 70 71 48
f 18 21 22
f 22 26 29
f 21 26 22
f 95 79 81
f 82 79 95
f 95 83 82
f 97 83 95
f 23 19 16
f 30 31 23
f 54 80 65
f 54 53 80
f 43 42 54
f 42 53 54
f 39 52 62
f 52 63 62
f 62 63 53
f 40 24 39
f 40 33 24
f 39 62 40
f 40 62 53
f 40 42 33
f 40 53 42
f 92 90 89
f 89 99 92
f 100 76 92
f 76 90 92
f 92 97 100
f 92 99 97
f 91 90 75
f 74 90 91
f 100 97 101
f 101 93 100
f 101 96 94
f 94 93 101
f 45 35 55
f 35 41 55
f 55 56 45
f 66 56 55
f 67 56 66
f 68 56 67
f 67 66 82
f 82 83 67
f 86 68 67
f 67 83 86
f 98 85 84
f 84 85 68
f 84 68 86
f 86 70 84
f 59 98 84
f 84 70 59
f 87 97 88
f 87 83 97
f 88 71 87
f 71 83 87
f 32 23 31
f 19 23 32
f 44 41 43
f 43 54 44
f 44 54 65
f 97 95 102
f 102 101 97
f 102 95 81
f 81 96 102
f 96 101 102
f 64 55 41
f 41 44 64
f 64 44 65
f 65 79 64
f 66 55 64
f 82 66 64
f 64 79 82
f 23 14 7
f 23 3 1
f 1 2 23
f 69 85 23
f 23 47 30
f 23 58 69
f 7 3 23
f 18 22 23
f 46 58 23
f 23 29 46
f 59 47 23
f 23 13 18
f 6 10 23
f 23 2 6
f 23 98 59
f 16 14 23
f 10 13 23
f 23 85 98
f 23 22 29
f 75 51 32
f 20 17 32
f 31 38 32
f 32 5 4
f 32 24 20
f 4 8 32
f 32 91 75
f 9 5 32
f 32 11 15
f 32 12 9
f 32 8 11
f 15 19 32
f 17 12 32
f 32 38 74
f 32 51 24
f 74 91 32
