# generated by collision_forge
v 0.004694 0.007284 0.001985
v 0.004694 0.006321 0.001978
v 0.004974 0.007284 0.001881
v 0.004976 0.008255 0.001879
v 0.004370 0.012210 0.001934
v 0.004370 0.006321 0.001908
v 0.004701 0.006321 0.001975
v 0.004970 0.006960 0.001880
v 0.005135 0.007284 0.001733
v 0.005138 0.008255 0.001738
v 0.004694 0.007931 0.001981
v 0.005133 0.009226 0.001736
v 0.004694 0.009549 0.001968
v 0.004694 0.009873 0.001963
v 0.004694 0.011168 0.001933
v 0.004698 0.012210 0.001880
v 0.004114 0.012210 0.001851
v 0.004694 0.008255 0.001979
v 0.004694 0.008903 0.001974
v 0.004192 0.006321 0.001808
v 0.004966 0.006321 0.001871
v 0.005243 0.007284 0.001571
v 0.005246 0.009226 0.001574
v 0.005244 0.009549 0.001571
v 0.004969 0.009549 0.001872
v 0.004966 0.009873 0.001869
v 0.004916 0.011492 0.001834
v 0.004868 0.012210 0.001799
v 0.003952 0.012210 0.001715
v 0.004187 0.006321 0.001806
v 0.005127 0.006321 0.001717
v 0.005241 0.006321 0.001553
v 0.005325 0.006321 0.001303
v 0.005338 0.008579 0.001303
v 0.005340 0.008903 0.001303
v 0.005338 0.009226 0.001303
v 0.005334 0.009549 0.001303
v 0.005128 0.009873 0.001728
v 0.005093 0.011168 0.001671
v 0.003827 0.012210 0.001554
v 0.004065 0.006321 0.001631
v 0.005326 0.006321 0.000979
v 0.005334 0.008903 0.000979
v 0.005332 0.009226 0.000979
v 0.005327 0.009873 0.001303
v 0.005226 0.010520 0.001547
v 0.005189 0.011415 0.001485
v 0.005177 0.011631 0.001451
v 0.005015 0.012210 0.001556
v 0.003729 0.012210 0.001303
v 0.003915 0.006321 0.001302
v 0.004062 0.006321 0.001627
v 0.005240 0.006321 0.000717
v 0.005240 0.009226 0.000723
v 0.005240 0.007608 0.000714
v 0.005238 0.009549 0.000726
v 0.005320 0.009873 0.000979
v 0.005316 0.010197 0.001303
v 0.005280 0.010844 0.001303
v 0.005127 0.012210 0.001287
v 0.003732 0.012210 0.000979
v 0.003915 0.006321 0.000981
v 0.005237 0.006321 0.000713
v 0.005128 0.006960 0.000551
v 0.005127 0.007284 0.000552
v 0.005116 0.009226 0.000561
v 0.005107 0.009873 0.000571
v 0.005292 0.010520 0.000979
v 0.005183 0.012002 0.001125
v 0.003802 0.012210 0.000802
v 0.003918 0.006321 0.000970
v 0.004964 0.006321 0.000421
v 0.004966 0.006960 0.000423
v 0.004961 0.008255 0.000426
v 0.004954 0.009226 0.000428
v 0.004951 0.009549 0.000430
v 0.004937 0.010197 0.000439
v 0.005208 0.010844 0.000768
v 0.005186 0.011392 0.000807
v 0.005175 0.011609 0.000839
v 0.005089 0.012210 0.000922
v 0.003829 0.012210 0.000745
v 0.004070 0.006321 0.000656
v 0.004694 0.006321 0.000333
v 0.004694 0.008903 0.000346
v 0.004694 0.009226 0.000348
v 0.004694 0.009873 0.000358
v 0.004694 0.010520 0.000376
v 0.004906 0.011168 0.000459
v 0.004951 0.012210 0.000645
v 0.003952 0.012210 0.000618
v 0.004196 0.006321 0.000485
v 0.004370 0.006321 0.000398
v 0.004370 0.012210 0.000403
v 0.004890 0.011492 0.000469
v 0.004859 0.012001 0.000492
v 0.003989 0.012210 0.000583
v 0.004115 0.012210 0.000483
v 0.004151 0.012210 0.000460
v 0.004318 0.012210 0.000415
v 0.004626 0.012210 0.000434
v 0.004700 0.012210 0.000444
f 6 5 17
f 50 51 40
f 81 60 69
f 98 92 97
f 98 99 92
f 92 99 93
f 93 94 84
f 17 30 20
f 20 6 17
f 29 30 17
f 29 40 30
f 52 40 51
f 16 5 15
f 8 21 9
f 34 33 42
f 34 42 35
f 80 81 69
f 94 93 100
f 100 93 99
f 97 92 91
f 92 82 91
f 61 71 62
f 50 61 62
f 62 51 50
f 70 71 61
f 83 82 92
f 83 70 82
f 71 70 83
f 30 40 41
f 40 52 41
f 14 13 26
f 26 15 14
f 5 13 14
f 14 15 5
f 12 26 25
f 25 4 12
f 26 13 25
f 4 25 18
f 1 6 2
f 5 6 1
f 7 8 2
f 7 21 8
f 22 9 32
f 22 34 35
f 32 33 22
f 33 34 22
f 12 4 10
f 9 22 10
f 32 9 31
f 31 9 21
f 38 26 12
f 12 24 38
f 72 64 63
f 63 64 53
f 42 53 43
f 35 42 43
f 37 44 57
f 56 57 44
f 36 44 37
f 36 37 24
f 35 43 36
f 36 43 44
f 73 72 84
f 84 74 73
f 73 64 72
f 75 74 84
f 75 76 66
f 81 80 90
f 90 80 79
f 102 95 89
f 19 25 13
f 19 18 25
f 19 13 5
f 5 18 19
f 4 18 11
f 11 1 4
f 11 18 5
f 5 1 11
f 8 9 3
f 9 10 3
f 3 10 4
f 4 1 3
f 2 8 3
f 3 1 2
f 23 10 22
f 23 22 35
f 23 24 12
f 12 10 23
f 35 36 23
f 23 36 24
f 69 60 48
f 48 59 69
f 27 28 16
f 16 15 27
f 27 15 26
f 26 38 27
f 39 28 27
f 27 38 39
f 46 38 24
f 39 38 46
f 59 46 58
f 79 80 68
f 68 80 69
f 69 59 68
f 59 58 68
f 68 58 57
f 66 56 54
f 44 43 54
f 54 56 44
f 64 73 65
f 65 73 74
f 74 75 65
f 65 75 66
f 66 54 65
f 86 87 76
f 76 75 86
f 94 87 86
f 102 90 96
f 96 95 102
f 96 90 79
f 102 89 88
f 88 101 102
f 94 101 88
f 88 87 94
f 76 87 77
f 87 88 77
f 77 88 89
f 79 68 78
f 57 56 78
f 78 68 57
f 78 96 79
f 95 96 78
f 49 48 60
f 28 48 49
f 59 48 47
f 47 46 59
f 39 46 47
f 47 28 39
f 47 48 28
f 37 57 45
f 57 58 45
f 45 58 46
f 24 37 45
f 45 46 24
f 53 64 55
f 55 43 53
f 55 54 43
f 64 65 55
f 55 65 54
f 85 75 84
f 85 86 75
f 84 94 85
f 94 86 85
f 67 77 89
f 66 76 67
f 76 77 67
f 67 56 66
f 67 78 56
f 67 89 95
f 95 78 67
f 84 72 63
f 63 53 42
f 63 52 51
f 63 93 84
f 63 20 30
f 2 6 63
f 42 33 63
f 30 41 63
f 63 33 32
f 32 31 63
f 92 93 63
f 51 62 63
f 6 20 63
f 63 83 92
f 63 7 2
f 63 62 71
f 71 83 63
f 63 41 52
f 21 7 63
f 63 31 21
f 49 5 16
f 16 28 49
f 49 61 50
f 50 40 49
f 102 101 49
f 17 5 49
f 49 70 61
f 49 101 94
f 49 29 17
f 49 98 97
f 94 100 49
f 60 81 49
f 99 98 49
f 97 91 49
f 40 29 49
f 49 100 99
f 49 91 82
f 82 70 49
f 49 90 102
f 81 90 49
