# generated by collision_forge
v 0.002449 -0.004046 0.001627
v 0.002314 -0.003722 0.001303
v 0.002316 -0.003722 0.000980
v 0.002315 -0.004370 0.001303
v 0.002567 -0.004046 0.001824
v 0.002481 0.005341 0.001627
v 0.002339 0.004370 0.001303
v 0.002334 0.004370 0.000980
v 0.002331 0.003399 0.000980
v 0.002469 -0.002751 0.000656
v 0.002472 0.005665 0.000656
v 0.002707 -0.004693 0.001986
v 0.002585 0.005665 0.001796
v 0.002584 -0.002751 0.000488
v 0.002578 0.005665 0.000480
v 0.002587 -0.004046 0.000491
v 0.002324 -0.005341 0.000980
v 0.002321 -0.005417 0.001303
v 0.002455 -0.005417 0.001627
v 0.002867 -0.005417 0.002147
v 0.002903 0.005017 0.002122
v 0.002588 0.005830 0.001791
v 0.002349 0.005665 0.001303
v 0.002927 0.005665 0.000183
v 0.002471 0.005923 0.000980
v 0.003131 0.005879 0.000104
v 0.003110 0.004370 0.000057
v 0.003116 0.002751 0.000063
v 0.003075 -0.004693 0.002266
v 0.003075 0.005017 0.002273
v 0.003086 0.005665 0.002263
v 0.003144 0.005886 0.002212
v 0.002752 0.005971 0.001627
v 0.002752 0.006020 0.001303
v 0.002752 0.005969 0.000656
v 0.004196 0.006321 0.000486
v 0.003149 -0.004370 0.000122
v 0.002507 -0.005417 0.000624
v 0.003075 -0.005417 0.002253
v 0.003399 -0.004046 0.002346
v 0.003399 -0.003722 0.002351
v 0.003399 0.005017 0.002423
v 0.003399 0.005341 0.002420
v 0.003399 0.005665 0.002405
v 0.004187 0.006321 0.001805
v 0.003915 0.006321 0.001302
v 0.003918 0.006321 0.000971
v 0.004694 0.006321 0.000333
v 0.003399 -0.003722 0.000027
v 0.002757 -0.005417 0.000380
v 0.003399 -0.004693 0.002327
v 0.004694 -0.005417 0.001986
v 0.004694 -0.004370 0.002001
v 0.004694 0.005017 0.001995
v 0.004694 -0.002751 0.002007
v 0.004694 -0.002427 0.002007
v 0.004694 -0.001780 0.002008
v 0.004694 0.006321 0.001978
v 0.004694 0.005017 0.000266
v 0.004694 0.004694 0.000263
v 0.004539 -0.003722 0.000168
v 0.004537 -0.003985 0.000168
v 0.003029 -0.005417 0.000218
v 0.003399 -0.005417 0.002288
v 0.004948 -0.005417 0.001861
v 0.004962 0.006321 0.001875
v 0.004962 0.006312 0.001875
v 0.005125 0.006321 0.000555
v 0.004701 -0.003722 0.000239
v 0.004694 -0.005417 0.000260
v 0.003723 -0.003722 0.000029
v 0.003191 -0.005417 0.000152
v 0.005110 -0.005417 0.001711
v 0.005124 0.006321 0.001721
v 0.004961 0.005017 0.000406
v 0.005237 0.006321 0.000713
v 0.005248 -0.005417 0.000713
v 0.005157 -0.005417 0.000589
v 0.005129 -0.005417 0.000551
v 0.004967 -0.004370 0.000401
v 0.004757 -0.005417 0.000292
v 0.003399 -0.004693 0.000071
v 0.005207 -0.005417 0.001587
v 0.005239 0.006321 0.001560
v 0.005237 -0.005417 0.001549
v 0.005273 -0.005417 0.000775
v 0.005005 -0.005417 0.000439
v 0.005325 0.006321 0.001303
v 0.005342 -0.005417 0.001303
v 0.005326 0.006321 0.000980
v 0.005353 -0.005417 0.000980
v 0.005351 -0.005417 0.001055
v 0.003620 -0.002620 0.000000
v 0.003902 0.002848 0.000000
v 0.003875 0.000758 0.000000
v 0.003843 0.004895 0.000000
v 0.003249 0.005002 0.000000
v 0.003248 0.002751 0.000000
v 0.003562 0.005747 0.000000
v 0.003301 0.005665 0.000000
v 0.003310 -0.000004 -0.000000
v 0.003795 -0.001976 0.000000
f 2 4 1
f 36 26 35
f 35 47 36
f 25 47 35
f 41 53 42
f 42 29 41
f 53 41 52
f 34 47 25
f 82 70 72
f 25 35 15
f 15 35 26
f 17 18 4
f 71 70 82
f 60 96 59
f 48 26 36
f 68 59 48
f 48 59 96
f 32 31 44
f 64 52 51
f 50 37 63
f 37 72 63
f 76 90 91
f 88 92 91
f 91 90 88
f 89 92 88
f 84 89 88
f 68 79 80
f 29 20 39
f 64 51 39
f 5 1 19
f 19 1 4
f 4 18 19
f 11 15 10
f 25 15 11
f 18 17 38
f 38 16 50
f 38 17 10
f 10 16 38
f 82 72 49
f 49 72 37
f 49 71 82
f 24 15 26
f 26 100 24
f 71 49 93
f 70 71 62
f 58 54 66
f 32 44 58
f 58 45 32
f 66 54 57
f 57 54 42
f 43 44 31
f 43 58 44
f 42 54 43
f 54 58 43
f 40 52 41
f 40 51 52
f 40 39 51
f 40 41 29
f 29 39 40
f 47 34 46
f 34 45 46
f 68 76 77
f 87 80 79
f 68 80 75
f 60 59 75
f 75 59 68
f 70 62 69
f 69 62 61
f 69 75 80
f 69 61 60
f 60 75 69
f 6 1 5
f 5 13 6
f 33 34 25
f 32 45 33
f 33 45 34
f 12 19 20
f 5 19 12
f 12 13 5
f 20 21 12
f 12 21 13
f 10 15 14
f 14 16 10
f 15 24 14
f 14 24 16
f 9 11 3
f 2 9 3
f 10 17 3
f 3 11 10
f 3 4 2
f 3 17 4
f 8 11 9
f 8 9 2
f 99 48 96
f 26 48 99
f 99 100 26
f 37 98 101
f 101 49 37
f 101 93 49
f 16 24 27
f 61 62 95
f 42 53 55
f 84 74 85
f 85 89 84
f 53 52 65
f 65 55 53
f 67 74 66
f 67 73 74
f 67 65 73
f 66 57 67
f 86 76 91
f 86 77 76
f 78 79 68
f 68 77 78
f 80 87 81
f 70 69 81
f 81 69 80
f 2 1 7
f 1 6 7
f 7 8 2
f 22 6 13
f 22 33 25
f 32 33 22
f 22 31 32
f 22 21 31
f 13 21 22
f 31 21 30
f 30 21 20
f 30 20 29
f 30 29 42
f 42 43 30
f 30 43 31
f 98 27 97
f 97 24 100
f 97 27 24
f 28 98 37
f 28 27 98
f 28 37 50
f 50 16 28
f 16 27 28
f 71 93 102
f 102 62 71
f 102 95 62
f 61 95 94
f 94 96 60
f 60 61 94
f 74 73 83
f 83 85 74
f 55 65 56
f 65 67 56
f 56 67 57
f 56 57 42
f 42 55 56
f 23 7 6
f 23 22 25
f 6 22 23
f 8 7 23
f 25 11 23
f 11 8 23
f 46 76 68
f 36 47 46
f 46 48 36
f 46 74 84
f 46 58 66
f 68 48 46
f 66 74 46
f 84 88 46
f 90 76 46
f 46 88 90
f 45 58 46
f 94 102 93
f 94 101 98
f 94 99 96
f 100 99 94
f 93 101 94
f 98 97 94
f 94 97 100
f 95 102 94
f 50 63 83
f 79 78 83
f 91 92 83
f 83 52 64
f 83 19 18
f 83 92 89
f 83 38 50
f 83 72 70
f 83 65 52
f 64 39 83
f 83 63 72
f 83 39 20
f 20 19 83
f 18 38 83
f 89 85 83
f 83 86 91
f 83 87 79
f 70 81 83
f 73 65 83
f 77 86 83
f 83 78 77
f 83 81 87
