# generated by collision_forge
v -0.000099 0.016327 0.001303
v -0.000099 0.016300 0.000979
v -0.000099 0.016246 0.001584
v -0.000486 0.016291 0.001303
v -0.000663 0.016189 0.000812
v -0.001014 0.016199 0.001096
v -0.000975 0.016187 0.001467
v -0.000486 0.016125 0.001714
v -0.000486 0.015964 0.001852
v -0.000099 0.016018 0.001841
v -0.000979 0.015864 0.000493
v -0.001956 0.015868 0.001117
v -0.001324 0.015871 0.001796
v -0.000486 0.015700 0.001931
v -0.000162 0.015700 0.001935
v -0.000099 0.016084 0.000602
v -0.000162 0.015920 0.000455
v -0.001674 0.015886 0.000782
v -0.002592 0.015539 0.001137
v -0.001924 0.015854 0.001405
v -0.002345 0.015585 0.001537
v -0.001540 0.015829 0.001752
v -0.001991 0.015562 0.001807
v -0.001781 0.015377 0.001918
v -0.000099 0.015700 0.001934
v -0.003075 0.014406 0.001939
v -0.003399 0.014082 0.001940
v -0.004046 0.012808 0.001936
v -0.001457 0.015377 0.000387
v -0.002104 0.015328 0.000440
v -0.001933 0.015533 0.000498
v -0.002323 0.015569 0.000769
v -0.002947 0.015239 0.001502
v -0.002606 0.015226 0.001797
v -0.002751 0.014729 0.001932
v -0.000099 0.015461 0.001875
v -0.004025 0.012808 0.001934
v -0.004046 0.013111 0.001936
v -0.004399 0.012808 0.001870
v -0.000099 0.015700 0.000405
v -0.002104 0.015053 0.000373
v -0.002930 0.015226 0.000801
v -0.003180 0.014842 0.001748
v -0.002729 0.015042 0.001839
v -0.000099 0.015406 0.001861
v -0.003735 0.012808 0.001843
v -0.003614 0.014304 0.001818
v -0.004077 0.013464 0.001872
v -0.004403 0.012808 0.001869
v -0.000099 0.015425 0.000444
v -0.004046 0.012808 0.000333
v -0.003723 0.013435 0.000337
v -0.003075 0.014406 0.000363
v -0.002936 0.014907 0.000483
v -0.002561 0.015194 0.000509
v -0.003326 0.014964 0.000979
v -0.003498 0.014833 0.001303
v -0.003619 0.014626 0.001536
v -0.000099 0.015275 0.001782
v -0.003730 0.012808 0.001841
v -0.003830 0.014177 0.001743
v -0.004205 0.013591 0.001786
v -0.004528 0.012939 0.001785
v -0.004549 0.012808 0.001802
v -0.000099 0.015263 0.000530
v -0.003716 0.012808 0.000430
v -0.003732 0.012808 0.000425
v -0.004399 0.012808 0.000406
v -0.003723 0.013758 0.000363
v -0.003280 0.014609 0.000470
v -0.003609 0.014617 0.000762
v -0.003599 0.012808 0.001747
v -0.004221 0.013939 0.001487
v -0.004555 0.013318 0.001505
v -0.004668 0.012808 0.001650
v -0.000099 0.015133 0.000691
v -0.003819 0.014166 0.000550
v -0.003817 0.014496 0.000979
v -0.003968 0.014343 0.001303
v -0.000099 0.015150 0.001631
v -0.003499 0.012808 0.001620
v -0.000099 0.015128 0.001600
v -0.004245 0.013973 0.001303
v -0.004500 0.013534 0.001303
v -0.004823 0.012808 0.001331
v -0.003490 0.012808 0.000657
v -0.000099 0.015016 0.000979
v -0.004527 0.012940 0.000498
v -0.003905 0.013951 0.000479
v -0.004216 0.013931 0.000806
v -0.004125 0.014129 0.000979
v -0.003496 0.012808 0.001616
v -0.004581 0.013369 0.000979
v -0.004831 0.012808 0.000979
v -0.004829 0.012808 0.001303
v -0.000099 0.015015 0.001042
v -0.003354 0.012808 0.000979
v -0.004689 0.012808 0.000654
v -0.004554 0.013314 0.000781
v -0.004193 0.013576 0.000506
v -0.003354 0.012808 0.001303
v -0.000099 0.015011 0.001303
f 19 20 12
f 101 97 102
f 102 92 101
f 82 92 102
f 39 48 49
f 9 8 13
f 10 8 9
f 38 39 28
f 38 48 39
f 45 60 59
f 15 25 10
f 15 9 14
f 10 9 15
f 28 25 15
f 68 69 51
f 73 58 79
f 79 83 73
f 73 83 84
f 99 98 94
f 62 73 74
f 74 73 84
f 74 95 85
f 84 95 74
f 62 48 47
f 44 23 34
f 12 6 18
f 18 6 5
f 33 19 57
f 57 58 33
f 79 58 57
f 59 60 72
f 3 8 10
f 24 23 44
f 13 23 24
f 14 9 24
f 24 9 13
f 45 36 37
f 37 36 25
f 37 25 28
f 51 69 52
f 52 40 51
f 52 41 40
f 40 41 29
f 30 29 41
f 93 99 94
f 94 95 93
f 93 95 84
f 84 83 93
f 75 74 85
f 58 73 61
f 61 73 62
f 62 47 61
f 48 38 27
f 27 47 48
f 27 38 28
f 28 15 27
f 22 23 13
f 43 47 44
f 44 34 43
f 58 61 43
f 43 61 47
f 33 58 43
f 43 34 33
f 13 8 7
f 12 20 7
f 7 6 12
f 8 3 7
f 7 22 13
f 20 22 7
f 32 19 12
f 12 18 32
f 32 42 19
f 32 18 31
f 2 16 5
f 5 6 2
f 5 16 11
f 11 30 31
f 29 30 11
f 31 18 11
f 11 18 5
f 79 57 78
f 86 66 76
f 76 87 86
f 86 87 97
f 51 40 50
f 102 97 96
f 97 87 96
f 59 72 80
f 80 72 82
f 92 82 81
f 82 72 81
f 60 45 46
f 45 37 46
f 53 52 69
f 41 52 53
f 53 30 41
f 88 68 98
f 88 100 68
f 98 99 88
f 99 100 88
f 90 100 99
f 90 78 71
f 99 93 90
f 63 75 64
f 74 75 63
f 62 74 63
f 64 49 63
f 63 48 62
f 63 49 48
f 44 47 35
f 35 24 44
f 14 24 35
f 21 22 20
f 23 22 21
f 21 19 33
f 20 19 21
f 33 34 21
f 21 34 23
f 4 3 1
f 4 7 3
f 6 7 4
f 1 2 4
f 4 2 6
f 30 53 54
f 17 16 40
f 17 11 16
f 40 29 17
f 29 11 17
f 91 83 79
f 79 78 91
f 78 90 91
f 91 93 83
f 91 90 93
f 56 42 71
f 71 78 56
f 56 78 57
f 56 57 19
f 19 42 56
f 76 66 65
f 66 50 65
f 51 50 67
f 67 50 66
f 47 27 26
f 26 35 47
f 26 27 15
f 26 15 14
f 14 35 26
f 31 30 55
f 30 54 55
f 55 32 31
f 42 32 55
f 55 54 42
f 69 68 89
f 68 100 89
f 77 90 71
f 100 90 77
f 77 89 100
f 70 54 53
f 70 53 69
f 69 89 70
f 89 77 70
f 70 77 71
f 71 42 70
f 42 54 70
f 25 36 65
f 65 45 59
f 65 82 102
f 65 50 40
f 10 25 65
f 65 2 1
f 102 96 65
f 1 3 65
f 40 16 65
f 65 87 76
f 65 3 10
f 65 36 45
f 16 2 65
f 59 80 65
f 65 96 87
f 65 80 82
f 28 39 67
f 94 98 67
f 67 95 94
f 97 101 67
f 67 49 64
f 67 68 51
f 67 86 97
f 67 37 28
f 67 101 92
f 60 46 67
f 39 49 67
f 98 68 67
f 85 95 67
f 64 75 67
f 67 72 60
f 92 81 67
f 67 75 85
f 66 86 67
f 67 81 72
f 67 46 37
