# generated by collision_forge
v 0.004399 -0.014085 0.000985
v 0.004230 -0.014273 0.000784
v 0.004289 -0.014085 0.000714
v 0.004242 -0.014288 0.001303
v 0.004127 -0.014470 0.000980
v 0.003927 -0.014614 0.000760
v 0.004153 -0.014085 0.000552
v 0.004210 -0.014246 0.001467
v 0.003950 -0.014641 0.001303
v 0.003815 -0.014819 0.000980
v 0.003512 -0.014841 0.000538
v 0.003923 -0.014292 0.000469
v 0.004260 -0.014085 0.001519
v 0.003907 -0.014592 0.001488
v 0.003639 -0.014965 0.001303
v 0.003470 -0.015142 0.000980
v 0.003269 -0.015238 0.000782
v 0.003296 -0.014936 0.000465
v 0.004047 -0.014085 0.001698
v 0.003589 -0.014917 0.001493
v 0.003451 -0.015127 0.001303
v 0.002934 -0.015552 0.001181
v 0.002897 -0.015528 0.000863
v 0.003075 -0.014729 0.000334
v 0.003722 -0.014085 0.000342
v 0.003399 -0.014405 0.000332
v 0.003547 -0.014553 0.001783
v 0.003209 -0.014866 0.001778
v 0.003243 -0.015219 0.001471
v 0.002303 -0.015879 0.001196
v 0.002258 -0.015859 0.000834
v 0.002536 -0.015507 0.000523
v 0.002320 -0.015563 0.000475
v 0.002104 -0.015376 0.000360
v 0.002428 -0.015053 0.000329
v 0.002751 -0.014729 0.000320
v 0.003399 -0.014085 0.000318
v 0.003423 -0.014429 0.001847
v 0.002848 -0.015167 0.001762
v 0.002654 -0.015574 0.001509
v 0.002303 -0.015879 0.001049
v 0.002218 -0.015842 0.001412
v 0.001362 -0.016204 0.001201
v 0.001781 -0.016061 0.000980
v 0.001267 -0.016181 0.000837
v 0.002042 -0.015900 0.000754
v 0.001599 -0.015855 0.000499
v 0.000486 -0.015700 0.000356
v -0.000099 -0.015700 0.000354
v -0.000099 -0.015448 0.000405
v -0.000099 -0.015379 0.000420
v -0.000099 -0.015224 0.000502
v 0.003746 -0.014085 0.001843
v 0.003399 -0.014085 0.001879
v 0.002751 -0.014729 0.001880
v 0.002745 -0.015057 0.001836
v 0.002003 -0.015884 0.001496
v 0.000810 -0.016269 0.001303
v 0.001051 -0.016197 0.000796
v 0.001383 -0.015884 0.000476
v 0.000486 -0.015957 0.000435
v 0.000810 -0.015700 0.000360
v -0.000099 -0.015967 0.000432
v -0.000099 -0.015752 0.000369
v 0.003028 -0.014085 0.000412
v -0.000099 -0.015150 0.000619
v 0.003396 -0.014085 0.001880
v -0.000099 -0.015700 0.001870
v 0.001781 -0.015376 0.001868
v 0.001993 -0.015561 0.001802
v 0.000998 -0.016191 0.001473
v 0.000810 -0.016204 0.001492
v 0.000486 -0.016309 0.000980
v 0.000486 -0.016119 0.000575
v -0.000099 -0.016129 0.000553
v 0.002752 -0.014085 0.000593
v -0.000099 -0.015126 0.000658
v -0.000099 -0.015444 0.001836
v -0.000099 -0.015651 0.001864
v 0.000162 -0.015917 0.001821
v 0.001000 -0.015868 0.001793
v 0.000162 -0.016316 0.001303
v 0.000162 -0.016243 0.000716
v -0.000099 -0.016246 0.000714
v -0.000099 -0.014987 0.000980
v 0.003093 -0.014085 0.001830
v -0.000099 -0.015282 0.001741
v -0.000099 -0.015413 0.001818
v -0.000099 -0.016051 0.001717
v 0.000162 -0.016079 0.001689
v -0.000099 -0.016228 0.001529
v -0.000099 -0.016330 0.001042
v 0.002687 -0.014085 0.000648
v -0.000099 -0.014987 0.001303
v 0.002473 -0.014085 0.000985
v 0.002941 -0.014085 0.001766
v -0.000099 -0.015122 0.001579
v -0.000099 -0.015250 0.001710
v 0.002768 -0.014085 0.001634
v 0.002761 -0.014085 0.001628
v 0.002573 -0.014085 0.001423
v 0.002491 -0.014085 0.001293
f 67 68 55
f 52 37 51
f 14 8 19
f 97 96 94
f 96 97 86
f 67 86 78
f 60 62 34
f 50 37 49
f 50 51 37
f 65 37 52
f 83 75 74
f 19 8 13
f 1 13 4
f 4 13 8
f 87 86 98
f 98 86 97
f 68 67 79
f 67 78 79
f 88 86 87
f 88 78 86
f 33 60 34
f 34 24 33
f 25 7 12
f 12 6 11
f 34 62 35
f 35 24 34
f 77 85 93
f 95 85 94
f 94 102 95
f 93 85 95
f 75 83 84
f 9 14 15
f 8 14 9
f 9 4 8
f 38 53 54
f 54 67 55
f 55 38 54
f 49 35 48
f 48 35 62
f 62 60 61
f 61 48 62
f 63 48 61
f 61 60 74
f 75 63 61
f 74 75 61
f 74 60 59
f 59 83 74
f 46 33 32
f 37 25 26
f 26 25 12
f 12 11 18
f 18 26 12
f 24 26 18
f 18 33 24
f 32 33 18
f 24 35 36
f 37 26 36
f 36 26 24
f 49 37 36
f 36 35 49
f 76 77 93
f 65 77 76
f 66 65 52
f 66 77 65
f 94 96 99
f 99 100 94
f 101 102 94
f 94 100 101
f 23 16 22
f 17 16 23
f 17 18 11
f 17 11 6
f 6 16 17
f 17 23 32
f 32 18 17
f 2 3 1
f 7 3 2
f 12 7 2
f 2 6 12
f 10 16 6
f 15 16 10
f 10 9 15
f 49 48 64
f 64 48 63
f 73 59 45
f 83 59 73
f 92 84 73
f 73 84 83
f 47 46 45
f 47 59 60
f 45 59 47
f 60 33 47
f 33 46 47
f 32 23 31
f 31 46 32
f 44 45 31
f 45 46 31
f 27 14 19
f 19 53 27
f 27 53 38
f 38 28 27
f 55 68 69
f 68 80 69
f 69 80 81
f 15 14 20
f 14 27 20
f 28 29 20
f 20 27 28
f 70 69 81
f 21 16 15
f 21 22 16
f 29 22 21
f 15 20 21
f 21 20 29
f 89 80 68
f 82 91 92
f 92 73 82
f 82 73 58
f 43 45 44
f 44 30 43
f 43 73 45
f 58 73 43
f 91 82 72
f 72 82 58
f 6 2 5
f 5 10 6
f 5 2 1
f 1 4 5
f 4 9 5
f 9 10 5
f 23 22 41
f 41 31 23
f 41 22 30
f 41 30 44
f 44 31 41
f 39 29 28
f 56 38 55
f 56 28 38
f 55 69 56
f 69 70 56
f 56 39 28
f 70 39 56
f 90 89 91
f 91 72 90
f 80 89 90
f 81 80 90
f 90 72 81
f 58 43 71
f 71 72 58
f 81 72 71
f 29 39 40
f 40 39 70
f 40 22 29
f 57 70 81
f 81 71 57
f 57 40 70
f 57 71 43
f 40 57 42
f 30 22 42
f 22 40 42
f 42 43 30
f 42 57 43
f 37 65 101
f 96 86 101
f 1 3 101
f 101 13 1
f 101 25 37
f 101 86 67
f 101 53 19
f 67 54 101
f 101 76 93
f 19 13 101
f 93 95 101
f 7 25 101
f 101 3 7
f 101 99 96
f 101 95 102
f 101 54 53
f 65 76 101
f 100 99 101
f 89 88 87
f 87 98 89
f 89 50 49
f 89 84 92
f 89 97 94
f 52 51 89
f 92 91 89
f 94 85 89
f 68 79 89
f 51 50 89
f 89 66 52
f 89 98 97
f 89 79 78
f 78 88 89
f 89 63 75
f 85 77 89
f 75 84 89
f 49 64 89
f 77 66 89
f 89 64 63
