# generated by collision_forge
v -0.003121 -0.013588 0.000980
v -0.003178 -0.013588 0.000815
v -0.000099 -0.014987 0.001303
v -0.000099 -0.014987 0.000980
v -0.003200 -0.013588 0.000770
v -0.003142 -0.013588 0.001311
v -0.000099 -0.015096 0.001526
v -0.003222 -0.013588 0.001482
v -0.003390 -0.013588 0.001650
v -0.000099 -0.015126 0.000658
v -0.003278 -0.013588 0.000664
v -0.000099 -0.015122 0.001579
v -0.003555 -0.013588 0.001788
v -0.000099 -0.015150 0.000619
v -0.003485 -0.013588 0.000457
v -0.003428 -0.013588 0.000504
v -0.003340 -0.013588 0.000597
v -0.000099 -0.015224 0.000502
v -0.003563 -0.013588 0.000425
v -0.000099 -0.015282 0.001741
v -0.003724 -0.013588 0.001840
v -0.000099 -0.015412 0.001818
v -0.000099 -0.015379 0.000419
v -0.003712 -0.013588 0.000377
v -0.003722 -0.013758 0.001858
v -0.000099 -0.015700 0.001870
v -0.000099 -0.015651 0.001864
v -0.000099 -0.015447 0.000405
v -0.003892 -0.013588 0.000334
v -0.004254 -0.013588 0.001810
v -0.003722 -0.014082 0.001854
v -0.002428 -0.015053 0.001870
v -0.000162 -0.015700 0.001870
v -0.000099 -0.015700 0.000354
v -0.003722 -0.014082 0.000335
v -0.004046 -0.013588 0.000334
v -0.001781 -0.015376 0.000338
v -0.004420 -0.013588 0.001697
v -0.000099 -0.016051 0.001717
v -0.000099 -0.015752 0.000369
v -0.003075 -0.014729 0.000341
v -0.004253 -0.013588 0.000379
v -0.000810 -0.015700 0.000350
v -0.002104 -0.015376 0.000347
v -0.003888 -0.014248 0.001790
v -0.002241 -0.015525 0.001783
v -0.001781 -0.015609 0.001823
v -0.000810 -0.015894 0.001808
v -0.000099 -0.016228 0.001529
v -0.000099 -0.015967 0.000432
v -0.003420 -0.014751 0.000410
v -0.003967 -0.014342 0.000450
v -0.004368 -0.013588 0.000416
v -0.000810 -0.015956 0.000432
v -0.002104 -0.015643 0.000432
v -0.004235 -0.014283 0.001494
v -0.003937 -0.014623 0.001512
v -0.004581 -0.013687 0.001520
v -0.003246 -0.014899 0.001793
v -0.001781 -0.015770 0.001721
v -0.000810 -0.016213 0.001505
v -0.000099 -0.016315 0.001303
v -0.000099 -0.016129 0.000553
v -0.002751 -0.015318 0.000439
v -0.003874 -0.014558 0.000501
v -0.004531 -0.013595 0.000495
v -0.000810 -0.016118 0.000581
v -0.001674 -0.015877 0.000482
v -0.001890 -0.015844 0.000511
v -0.004162 -0.014511 0.001303
v -0.003845 -0.014851 0.001303
v -0.003617 -0.014941 0.001512
v -0.004733 -0.013588 0.001323
v -0.002251 -0.015856 0.001451
v -0.001039 -0.016199 0.001484
v -0.000810 -0.016287 0.001303
v -0.000162 -0.016333 0.000980
v -0.003184 -0.015178 0.000528
v -0.003647 -0.014974 0.000723
v -0.004268 -0.014325 0.000733
v -0.004553 -0.013954 0.000782
v -0.004659 -0.013588 0.000672
v -0.001133 -0.016207 0.000778
v -0.002579 -0.015531 0.000500
v -0.004569 -0.013982 0.001231
v -0.004312 -0.014381 0.000980
v -0.004186 -0.014542 0.000980
v -0.003501 -0.015166 0.001303
v -0.004786 -0.013588 0.000980
v -0.002905 -0.015534 0.001455
v -0.001255 -0.016177 0.001442
v -0.002347 -0.015897 0.001236
v -0.001634 -0.016190 0.001156
v -0.000810 -0.016299 0.000980
v -0.003532 -0.015191 0.000980
v -0.004758 -0.013588 0.000902
v -0.001324 -0.016192 0.000806
v -0.002300 -0.015878 0.000787
v -0.002937 -0.015553 0.000791
v -0.002972 -0.015578 0.001239
v -0.002751 -0.015705 0.000980
v -0.001634 -0.016190 0.001117
f 77 63 62
f 4 1 3
f 66 81 82
f 66 82 53
f 59 72 90
f 57 72 59
f 80 66 65
f 80 81 66
f 11 4 10
f 10 17 11
f 16 17 10
f 10 15 16
f 34 37 29
f 34 43 37
f 29 37 35
f 37 41 35
f 44 41 37
f 37 43 44
f 12 13 20
f 96 81 89
f 96 82 81
f 102 98 97
f 97 94 102
f 101 102 92
f 98 102 101
f 83 94 97
f 97 68 83
f 83 68 67
f 77 94 83
f 83 63 77
f 83 67 63
f 59 90 46
f 60 47 46
f 88 90 72
f 77 62 76
f 76 94 77
f 74 91 60
f 60 46 74
f 74 46 90
f 74 90 92
f 48 47 60
f 48 33 47
f 48 39 26
f 26 33 48
f 65 78 79
f 79 80 65
f 51 78 65
f 51 35 41
f 89 81 85
f 4 11 5
f 14 15 10
f 14 18 15
f 24 18 23
f 24 23 29
f 29 23 28
f 28 34 29
f 69 98 84
f 97 98 69
f 69 68 97
f 29 35 36
f 65 66 52
f 66 53 52
f 52 51 65
f 35 51 52
f 55 44 43
f 55 69 84
f 68 69 55
f 3 1 6
f 6 8 3
f 3 8 9
f 13 12 9
f 45 57 59
f 56 57 45
f 25 33 26
f 92 90 100
f 100 101 92
f 90 88 100
f 95 101 100
f 100 88 95
f 98 101 99
f 84 98 99
f 99 78 84
f 99 101 95
f 95 79 99
f 99 79 78
f 72 57 71
f 71 88 72
f 95 88 71
f 93 102 94
f 94 76 93
f 93 76 91
f 91 74 93
f 92 102 93
f 93 74 92
f 84 78 64
f 78 51 64
f 64 55 84
f 44 55 64
f 41 44 64
f 64 51 41
f 89 85 73
f 1 4 2
f 4 5 2
f 15 18 19
f 18 24 19
f 43 34 40
f 40 50 43
f 43 50 54
f 54 55 43
f 68 55 54
f 67 68 54
f 54 50 63
f 63 67 54
f 42 36 35
f 42 52 53
f 35 52 42
f 3 9 7
f 7 9 12
f 30 25 21
f 21 22 20
f 20 13 21
f 21 25 26
f 47 33 32
f 33 25 32
f 59 46 32
f 32 46 47
f 70 57 56
f 70 71 57
f 56 85 70
f 62 49 61
f 61 76 62
f 61 49 39
f 39 48 61
f 56 45 58
f 58 85 56
f 58 73 85
f 27 21 26
f 22 21 27
f 31 32 25
f 30 45 31
f 31 25 30
f 31 45 59
f 59 32 31
f 87 79 95
f 80 79 87
f 95 71 87
f 71 70 87
f 91 76 75
f 76 61 75
f 60 91 75
f 75 48 60
f 75 61 48
f 73 58 38
f 38 45 30
f 38 58 45
f 86 70 85
f 86 87 70
f 86 85 81
f 81 80 86
f 80 87 86
f 27 4 3
f 23 18 27
f 26 39 27
f 63 50 27
f 27 40 34
f 27 62 63
f 10 4 27
f 27 28 23
f 3 7 27
f 27 14 10
f 27 12 20
f 20 22 27
f 18 14 27
f 27 49 62
f 34 28 27
f 39 49 27
f 50 40 27
f 27 7 12
f 89 73 38
f 29 36 38
f 38 24 29
f 38 96 89
f 17 16 38
f 13 9 38
f 38 53 82
f 38 11 17
f 38 16 15
f 38 6 1
f 38 42 53
f 82 96 38
f 38 5 11
f 1 2 38
f 15 19 38
f 8 6 38
f 38 9 8
f 38 21 13
f 38 2 5
f 38 19 24
f 36 42 38
f 30 21 38
