# generated by collision_forge
v -0.005383 -0.010197 0.000980
v -0.005368 -0.010197 0.001303
v -0.005368 -0.009941 0.001303
v -0.005383 -0.009941 0.000980
v -0.005261 -0.008903 0.000693
v -0.005261 -0.010844 0.000700
v -0.005382 -0.010521 0.000980
v -0.005247 -0.009873 0.001556
v -0.005365 -0.010521 0.001303
v -0.005368 -0.009873 0.001303
v -0.005381 -0.009226 0.000980
v -0.005136 -0.008903 0.000531
v -0.005137 -0.009226 0.000531
v -0.005131 -0.011168 0.000540
v -0.005257 -0.011168 0.000702
v -0.005244 -0.010521 0.001551
v -0.005095 -0.009873 0.001718
v -0.005095 -0.009226 0.001718
v -0.005354 -0.010844 0.001303
v -0.005245 -0.009226 0.001556
v -0.005365 -0.009226 0.001303
v -0.005380 -0.008903 0.000980
v -0.005260 -0.007932 0.000698
v -0.004962 -0.006320 0.000428
v -0.004971 -0.010521 0.000427
v -0.004969 -0.011168 0.000427
v -0.005122 -0.011492 0.000552
v -0.005365 -0.011168 0.000980
v -0.005087 -0.010844 0.001706
v -0.004926 -0.010844 0.001828
v -0.004932 -0.010197 0.001832
v -0.004933 -0.009550 0.001832
v -0.004926 -0.007284 0.001833
v -0.005241 -0.007608 0.001547
v -0.005363 -0.008903 0.001303
v -0.005377 -0.008255 0.000980
v -0.005375 -0.007932 0.000980
v -0.005124 -0.006320 0.000550
v -0.004694 -0.006320 0.000351
v -0.004694 -0.011492 0.000348
v -0.004694 -0.012139 0.000358
v -0.005225 -0.011815 0.000742
v -0.004694 -0.010521 0.001879
v -0.004694 -0.011815 0.001856
v -0.004694 -0.006320 0.001890
v -0.004920 -0.006320 0.001831
v -0.005309 -0.011492 0.001303
v -0.005216 -0.011492 0.001515
v -0.005354 -0.007608 0.001303
v -0.005086 -0.006961 0.001704
v -0.005372 -0.007608 0.000980
v -0.005249 -0.006320 0.000711
v -0.004348 -0.006320 0.000430
v -0.003893 -0.013587 0.000334
v -0.004047 -0.013434 0.000325
v -0.004370 -0.012786 0.000327
v -0.004370 -0.013110 0.000339
v -0.004882 -0.012462 0.000472
v -0.005299 -0.011815 0.000980
v -0.004370 -0.012786 0.001869
v -0.004047 -0.013434 0.001870
v -0.003944 -0.006320 0.001807
v -0.003724 -0.013587 0.001840
v -0.005235 -0.006320 0.001532
v -0.005342 -0.006637 0.001303
v -0.005353 -0.006320 0.000980
v -0.003944 -0.006320 0.000568
v -0.003564 -0.013587 0.000425
v -0.003712 -0.013587 0.000377
v -0.004253 -0.013587 0.000380
v -0.005180 -0.012304 0.000816
v -0.005197 -0.012378 0.001195
v -0.004052 -0.013587 0.001853
v -0.004862 -0.012004 0.001793
v -0.003560 -0.013587 0.001791
v -0.003556 -0.013587 0.001788
v -0.003391 -0.013587 0.001650
v -0.003222 -0.013587 0.001482
v -0.003142 -0.013587 0.001311
v -0.003127 -0.013587 0.001086
v -0.003121 -0.013587 0.000980
v -0.005181 -0.011986 0.001467
v -0.005337 -0.006320 0.001303
v -0.003178 -0.013587 0.000815
v -0.003200 -0.013587 0.000770
v -0.003279 -0.013587 0.000664
v -0.003340 -0.013587 0.000597
v -0.003429 -0.013587 0.000504
v -0.003486 -0.013587 0.000457
v -0.004577 -0.013378 0.000461
v -0.004873 -0.013313 0.000787
v -0.004984 -0.013110 0.000980
v -0.004890 -0.013345 0.001225
v -0.004552 -0.013003 0.001801
v -0.004254 -0.013587 0.001809
v -0.004539 -0.013587 0.000502
v -0.004659 -0.013587 0.000672
v -0.004786 -0.013587 0.000980
v -0.004882 -0.013024 0.001498
v -0.004843 -0.013239 0.001441
v -0.004733 -0.013587 0.001323
v -0.004531 -0.013587 0.001605
f 81 67 62
f 24 39 25
f 39 40 25
f 56 40 39
f 90 58 57
f 90 70 96
f 57 70 90
f 84 67 81
f 84 85 67
f 67 85 86
f 53 54 39
f 61 73 63
f 75 62 63
f 63 62 45
f 45 61 63
f 95 73 60
f 60 73 61
f 62 78 79
f 77 78 62
f 26 25 40
f 39 54 55
f 55 56 39
f 57 56 55
f 55 54 70
f 55 70 57
f 14 26 27
f 27 26 58
f 51 66 52
f 52 38 23
f 23 51 52
f 37 51 23
f 12 38 24
f 24 25 12
f 5 23 12
f 12 23 38
f 29 48 74
f 88 89 67
f 54 53 69
f 44 60 43
f 45 31 43
f 43 61 45
f 43 60 61
f 45 46 33
f 46 18 33
f 81 62 80
f 62 79 80
f 76 62 75
f 76 77 62
f 41 26 40
f 58 26 41
f 57 58 41
f 41 56 57
f 40 56 41
f 1 5 6
f 6 7 1
f 25 26 13
f 13 12 25
f 13 26 14
f 14 6 13
f 5 12 13
f 13 6 5
f 46 64 50
f 50 18 46
f 37 35 49
f 49 51 37
f 36 35 37
f 37 23 36
f 36 23 22
f 30 74 44
f 44 43 30
f 30 43 31
f 29 74 30
f 30 17 29
f 31 17 30
f 94 60 44
f 44 74 94
f 95 60 94
f 67 86 87
f 87 88 67
f 68 53 67
f 68 69 53
f 67 89 68
f 32 31 45
f 45 33 32
f 32 33 18
f 32 17 31
f 18 17 32
f 8 17 18
f 65 64 83
f 65 49 64
f 51 49 65
f 83 66 65
f 66 51 65
f 11 23 5
f 22 23 11
f 99 94 74
f 98 101 93
f 9 7 28
f 18 50 34
f 34 50 64
f 64 49 34
f 34 49 35
f 2 8 3
f 2 7 9
f 1 7 2
f 2 3 1
f 29 17 16
f 17 8 16
f 16 48 29
f 16 2 9
f 8 2 16
f 4 5 1
f 4 11 5
f 1 3 4
f 3 11 4
f 82 74 48
f 82 99 74
f 72 99 82
f 48 47 82
f 82 47 72
f 95 94 102
f 94 99 102
f 93 72 92
f 92 98 93
f 7 6 15
f 15 28 7
f 14 27 15
f 15 6 14
f 19 47 48
f 19 16 9
f 48 16 19
f 9 28 19
f 28 47 19
f 72 47 59
f 59 47 28
f 20 8 18
f 18 34 20
f 3 8 20
f 101 102 100
f 100 102 99
f 93 101 100
f 100 72 93
f 100 99 72
f 98 92 91
f 91 90 96
f 58 90 91
f 28 15 42
f 42 59 28
f 42 15 27
f 42 27 58
f 21 34 35
f 21 20 34
f 21 36 22
f 35 36 21
f 97 91 96
f 98 91 97
f 58 91 71
f 71 42 58
f 71 91 92
f 59 42 71
f 71 92 72
f 72 59 71
f 3 20 10
f 20 21 10
f 10 21 22
f 22 11 10
f 10 11 3
f 53 39 24
f 53 66 83
f 53 46 45
f 45 62 53
f 83 64 53
f 53 62 67
f 52 66 53
f 24 38 53
f 53 38 52
f 53 64 46
f 89 88 97
f 97 73 95
f 97 76 75
f 75 63 97
f 97 84 81
f 96 70 97
f 70 54 97
f 81 80 97
f 97 87 86
f 85 84 97
f 97 86 85
f 97 63 73
f 97 79 78
f 78 77 97
f 95 102 97
f 54 69 97
f 97 80 79
f 77 76 97
f 97 68 89
f 88 87 97
f 69 68 97
f 101 98 97
f 97 102 101
