# generated by collision_forge
v 0.003848 -0.005417 0.002064
v 0.003663 -0.005417 0.002183
v 0.003848 -0.005611 0.002051
v 0.003848 -0.005417 0.000280
v 0.003399 -0.005417 0.002288
v 0.003646 -0.005665 0.002170
v 0.003848 -0.005665 0.002048
v 0.003848 -0.005649 0.000304
v 0.003573 -0.005417 0.000164
v 0.003399 -0.005665 0.002267
v 0.003324 -0.005417 0.002283
v 0.003075 -0.006636 0.002206
v 0.003617 -0.005989 0.002151
v 0.003848 -0.005989 0.002015
v 0.003848 -0.005905 0.002024
v 0.003399 -0.006312 0.000271
v 0.003562 -0.005510 0.000170
v 0.003848 -0.005803 0.000337
v 0.003472 -0.005417 0.000152
v 0.003399 -0.005989 0.002236
v 0.003075 -0.005417 0.002253
v 0.003075 -0.005665 0.002245
v 0.002664 -0.007071 0.002146
v 0.003075 -0.006312 0.002220
v 0.002738 -0.007071 0.002153
v 0.003001 -0.007071 0.002160
v 0.003102 -0.006985 0.002163
v 0.003581 -0.006312 0.002127
v 0.003848 -0.006201 0.001982
v 0.003399 -0.006636 0.000351
v 0.003075 -0.006960 0.000310
v 0.003373 -0.005967 0.000205
v 0.003464 -0.005725 0.000184
v 0.003249 -0.005844 0.000169
v 0.003848 -0.005993 0.000394
v 0.003396 -0.006930 0.000434
v 0.003392 -0.005417 0.000144
v 0.003399 -0.006312 0.002198
v 0.003027 -0.005417 0.002230
v 0.002579 -0.007071 0.002117
v 0.003070 -0.007071 0.002155
v 0.003285 -0.006894 0.002135
v 0.003561 -0.006474 0.002112
v 0.003848 -0.006312 0.001963
v 0.003082 -0.007071 0.000341
v 0.003340 -0.007071 0.000448
v 0.002752 -0.007071 0.000308
v 0.003075 -0.006636 0.000265
v 0.003232 -0.005844 0.000169
v 0.003563 -0.006803 0.000492
v 0.003848 -0.006659 0.000656
v 0.003190 -0.005417 0.000152
v 0.003396 -0.006604 0.002151
v 0.002867 -0.005417 0.002147
v 0.002327 -0.007071 0.001944
v 0.003238 -0.007071 0.002113
v 0.003848 -0.006603 0.001896
v 0.003502 -0.007019 0.000547
v 0.003487 -0.007071 0.000563
v 0.002429 -0.007071 0.000410
v 0.002752 -0.006960 0.000306
v 0.003213 -0.005665 0.000162
v 0.003848 -0.007071 0.000870
v 0.003029 -0.005417 0.000218
v 0.002829 -0.005417 0.002109
v 0.002214 -0.007071 0.001841
v 0.003280 -0.007071 0.002085
v 0.003591 -0.007071 0.001823
v 0.003848 -0.006957 0.001624
v 0.002320 -0.007071 0.000470
v 0.003848 -0.007071 0.001412
v 0.002757 -0.005417 0.000380
v 0.002705 -0.005417 0.001982
v 0.002197 -0.007071 0.001821
v 0.003651 -0.007071 0.001734
v 0.002210 -0.007071 0.000574
v 0.002596 -0.005417 0.000500
v 0.002673 -0.005417 0.001945
v 0.002570 -0.005417 0.001820
v 0.002028 -0.007071 0.001608
v 0.002116 -0.007071 0.000665
v 0.002032 -0.007071 0.000759
v 0.002507 -0.005417 0.000624
v 0.002455 -0.005417 0.001627
v 0.001948 -0.007071 0.001445
v 0.001915 -0.007071 0.000980
v 0.002480 -0.005417 0.000662
v 0.002321 -0.005417 0.001303
v 0.001901 -0.007071 0.001303
v 0.001901 -0.007071 0.001301
v 0.002326 -0.005417 0.000980
f 74 66 73
f 21 40 23
f 85 88 89
f 80 74 79
f 57 68 69
f 54 55 40
f 66 55 54
f 11 12 5
f 28 14 13
f 57 43 56
f 44 43 57
f 38 43 28
f 78 74 73
f 78 79 74
f 84 85 80
f 80 79 84
f 88 85 84
f 91 86 90
f 90 88 91
f 89 88 90
f 82 86 87
f 87 86 91
f 71 69 75
f 75 69 68
f 58 51 63
f 8 9 4
f 17 9 8
f 16 17 8
f 46 30 36
f 40 21 39
f 39 54 40
f 73 66 65
f 66 54 65
f 22 11 21
f 22 21 23
f 23 11 22
f 23 12 24
f 24 11 23
f 12 11 24
f 6 2 5
f 6 13 14
f 6 7 2
f 1 2 3
f 2 7 3
f 67 68 57
f 57 56 67
f 29 14 28
f 28 43 29
f 43 44 29
f 10 6 5
f 13 6 10
f 5 12 10
f 28 13 20
f 20 38 28
f 13 10 20
f 20 10 12
f 43 38 53
f 83 77 82
f 82 87 83
f 82 77 81
f 59 58 63
f 46 58 59
f 50 58 46
f 51 58 50
f 35 51 50
f 46 36 50
f 50 36 35
f 19 9 17
f 19 34 37
f 17 34 19
f 45 30 46
f 16 30 31
f 30 45 31
f 31 45 47
f 35 36 18
f 18 36 30
f 18 30 16
f 16 8 18
f 15 6 14
f 7 6 15
f 25 12 23
f 25 26 12
f 12 26 27
f 27 20 12
f 38 20 27
f 77 70 76
f 76 81 77
f 72 70 77
f 72 64 70
f 32 31 34
f 32 17 16
f 16 31 32
f 47 34 48
f 48 31 47
f 34 31 48
f 41 27 26
f 42 56 43
f 43 53 42
f 42 41 56
f 27 41 42
f 42 53 38
f 38 27 42
f 49 52 37
f 37 34 49
f 49 34 47
f 64 52 60
f 70 64 60
f 33 34 17
f 17 32 33
f 33 32 34
f 47 52 62
f 62 49 47
f 52 49 62
f 47 60 61
f 61 52 47
f 61 60 52
f 15 4 1
f 57 69 15
f 15 71 63
f 63 51 15
f 15 44 57
f 15 8 4
f 15 69 71
f 15 51 35
f 35 18 15
f 1 3 15
f 14 29 15
f 15 3 7
f 15 29 44
f 15 18 8
f 77 83 52
f 1 4 52
f 52 87 91
f 52 2 1
f 52 11 5
f 91 88 52
f 52 39 21
f 5 2 52
f 52 78 73
f 88 84 52
f 52 72 77
f 21 11 52
f 79 78 52
f 52 84 79
f 73 65 52
f 4 9 52
f 54 39 52
f 52 65 54
f 52 83 87
f 52 19 37
f 9 19 52
f 64 72 52
f 82 81 60
f 23 40 60
f 60 75 68
f 60 55 66
f 60 85 89
f 60 59 63
f 63 71 60
f 66 74 60
f 89 90 60
f 56 41 60
f 60 74 80
f 40 55 60
f 80 85 60
f 60 86 82
f 47 45 60
f 60 90 86
f 68 67 60
f 71 75 60
f 60 76 70
f 60 67 56
f 60 25 23
f 46 59 60
f 60 45 46
f 26 25 60
f 81 76 60
f 60 41 26
