# generated by collision_forge
v 0.003848 -0.007071 0.001412
v 0.003848 -0.007071 0.000870
v 0.003651 -0.007071 0.001734
v 0.003848 -0.007474 0.000905
v 0.003486 -0.007071 0.000563
v 0.003848 -0.007596 0.001348
v 0.003848 -0.007775 0.001019
v 0.003286 -0.007204 0.000461
v 0.003396 -0.007071 0.001988
v 0.003848 -0.007791 0.001191
v 0.003228 -0.007110 0.002109
v 0.002981 -0.007839 0.001843
v 0.002919 -0.007775 0.000490
v 0.002298 -0.008764 0.001071
v 0.002243 -0.008725 0.000856
v 0.002238 -0.008397 0.000507
v 0.002593 -0.008097 0.000492
v 0.002984 -0.007607 0.000456
v 0.003082 -0.007071 0.000341
v 0.003848 -0.007791 0.001142
v 0.002658 -0.008151 0.001836
v 0.002522 -0.008367 0.001721
v 0.002263 -0.008738 0.001458
v 0.002298 -0.008764 0.001242
v 0.002917 -0.007450 0.002114
v 0.002751 -0.007607 0.000372
v 0.001832 -0.009012 0.001303
v 0.001672 -0.009088 0.001055
v 0.001601 -0.009057 0.000839
v 0.002027 -0.008789 0.000762
v 0.002751 -0.007284 0.000310
v 0.002751 -0.007071 0.000308
v 0.001929 -0.008734 0.001781
v 0.001634 -0.009071 0.001477
v 0.003070 -0.007071 0.002155
v 0.002544 -0.007752 0.002108
v 0.002428 -0.007931 0.000377
v 0.001133 -0.009258 0.000980
v 0.001385 -0.009096 0.000777
v 0.001591 -0.008728 0.000501
v 0.002119 -0.008276 0.000418
v -0.000099 -0.008578 0.000394
v 0.002429 -0.007071 0.000410
v -0.000099 -0.008392 0.000437
v -0.000099 -0.008349 0.000447
v 0.002104 -0.008255 0.002011
v 0.001227 -0.009046 0.001765
v 0.001457 -0.009106 0.001538
v 0.001133 -0.009282 0.001303
v 0.002328 -0.007801 0.002118
v 0.002751 -0.007284 0.002154
v 0.001457 -0.008578 0.002012
v 0.001781 -0.008255 0.000364
v 0.002104 -0.007931 0.000340
v 0.001133 -0.009133 0.000730
v 0.000705 -0.009400 0.001100
v 0.000809 -0.008578 0.000390
v -0.000099 -0.008639 0.000402
v 0.002320 -0.007071 0.000470
v -0.000099 -0.008218 0.000570
v -0.000099 -0.008187 0.000599
v 0.001125 -0.008924 0.001888
v 0.000556 -0.009377 0.001416
v 0.002738 -0.007071 0.002153
v 0.001133 -0.008578 0.002039
v -0.000099 -0.008578 0.002018
v 0.000486 -0.008902 0.001976
v 0.000162 -0.009439 0.001303
v 0.001133 -0.008806 0.000461
v -0.000099 -0.008894 0.000440
v -0.000099 -0.008057 0.000761
v 0.000340 -0.009389 0.001469
v 0.002664 -0.007071 0.002146
v -0.000099 -0.008902 0.001997
v -0.000099 -0.008323 0.001876
v 0.002578 -0.007071 0.002117
v 0.000162 -0.009130 0.001853
v 0.000486 -0.009116 0.001837
v 0.000162 -0.009375 0.000849
v 0.000486 -0.009039 0.000508
v -0.000099 -0.009437 0.001303
v -0.000099 -0.009428 0.001008
v 0.000162 -0.009055 0.000498
v -0.000099 -0.009056 0.000498
v 0.002116 -0.007071 0.000665
v -0.000099 -0.007995 0.000938
v 0.002032 -0.007071 0.000759
v -0.000099 -0.008291 0.001839
v 0.002327 -0.007071 0.001944
v -0.000099 -0.008161 0.001679
v -0.000099 -0.009377 0.000846
v -0.000099 -0.009293 0.001644
v -0.000099 -0.009215 0.000659
v -0.000099 -0.007981 0.000980
v 0.001914 -0.007071 0.000980
v 0.002214 -0.007071 0.001841
v -0.000099 -0.008065 0.001517
v -0.000099 -0.008141 0.001648
v -0.000099 -0.007988 0.001303
v 0.001900 -0.007071 0.001303
v 0.001900 -0.007071 0.001301
v 0.002027 -0.007071 0.001608
f 68 81 82
f 53 37 41
f 16 40 41
f 59 71 85
f 66 76 75
f 102 99 97
f 72 81 68
f 69 57 53
f 69 55 80
f 40 55 69
f 53 41 69
f 69 41 40
f 70 57 69
f 42 57 58
f 58 57 70
f 30 40 16
f 80 55 79
f 16 41 17
f 17 41 37
f 26 31 19
f 37 31 26
f 26 17 37
f 13 17 26
f 54 37 53
f 54 31 37
f 42 31 54
f 54 57 42
f 53 57 54
f 19 31 32
f 32 45 43
f 32 31 42
f 71 59 61
f 61 59 43
f 102 97 96
f 100 99 102
f 99 100 94
f 3 6 1
f 3 9 6
f 12 6 11
f 6 9 11
f 11 9 35
f 33 22 21
f 23 22 33
f 46 52 33
f 36 52 46
f 33 21 46
f 46 21 36
f 48 49 34
f 33 48 34
f 34 23 33
f 56 79 55
f 68 82 56
f 82 79 56
f 39 55 40
f 40 30 39
f 83 84 70
f 83 69 80
f 70 69 83
f 93 84 83
f 80 79 83
f 83 79 93
f 91 79 82
f 93 79 91
f 2 4 5
f 7 30 16
f 16 17 7
f 7 17 13
f 44 32 42
f 45 32 44
f 43 45 60
f 60 61 43
f 76 66 73
f 66 64 73
f 35 64 51
f 51 36 35
f 51 64 66
f 75 76 88
f 76 90 88
f 89 90 76
f 89 96 97
f 87 94 95
f 85 71 87
f 95 94 101
f 101 94 100
f 35 36 25
f 25 11 35
f 12 11 25
f 25 21 12
f 36 21 25
f 67 65 74
f 52 65 67
f 81 72 92
f 47 78 72
f 47 48 33
f 23 34 27
f 27 49 28
f 27 34 49
f 63 56 49
f 63 49 48
f 63 72 68
f 68 56 63
f 48 47 63
f 63 47 72
f 29 39 30
f 38 56 55
f 55 39 38
f 39 29 38
f 38 29 28
f 28 49 38
f 49 56 38
f 19 5 8
f 8 5 4
f 4 7 8
f 22 23 10
f 10 21 22
f 10 6 12
f 12 21 10
f 14 27 28
f 36 51 50
f 50 52 36
f 50 65 52
f 74 65 50
f 50 66 74
f 50 51 66
f 98 89 97
f 90 89 98
f 86 87 71
f 94 87 86
f 72 78 77
f 77 92 72
f 74 92 77
f 77 67 74
f 78 67 77
f 62 67 78
f 78 47 62
f 52 67 62
f 33 52 62
f 62 47 33
f 18 26 19
f 19 8 18
f 13 26 18
f 18 7 13
f 18 8 7
f 30 7 15
f 7 14 15
f 15 29 30
f 28 29 15
f 15 14 28
f 20 14 7
f 24 10 23
f 23 27 24
f 27 14 24
f 19 32 101
f 101 89 76
f 1 2 101
f 101 59 85
f 101 3 1
f 101 100 102
f 101 64 35
f 43 59 101
f 102 96 101
f 35 9 101
f 101 32 43
f 101 5 19
f 76 73 101
f 85 87 101
f 9 3 101
f 2 5 101
f 101 73 64
f 96 89 101
f 101 87 95
f 42 58 86
f 86 91 82
f 86 82 81
f 75 88 86
f 71 61 86
f 86 66 75
f 86 60 45
f 86 98 97
f 70 84 86
f 74 66 86
f 86 97 99
f 86 58 70
f 86 84 93
f 86 44 42
f 81 92 86
f 99 94 86
f 93 91 86
f 45 44 86
f 61 60 86
f 86 88 90
f 86 92 74
f 90 98 86
f 20 2 1
f 1 6 20
f 20 4 2
f 20 7 4
f 6 10 20
f 24 20 10
f 14 20 24
