# generated by collision_forge
v 0.005276 -0.011664 0.000979
v 0.005259 -0.011664 0.001315
v 0.005211 -0.012139 0.001239
v 0.005190 -0.012340 0.001178
v 0.005190 -0.012340 0.001097
v 0.005183 -0.011999 0.000811
v 0.005208 -0.011664 0.000771
v 0.005173 -0.011945 0.001451
v 0.005154 -0.012139 0.001401
v 0.005002 -0.012787 0.001303
v 0.004861 -0.013283 0.001156
v 0.004861 -0.013283 0.001118
v 0.005021 -0.012787 0.000979
v 0.005162 -0.012215 0.000881
v 0.004919 -0.012787 0.000723
v 0.005086 -0.011664 0.000609
v 0.005196 -0.011664 0.001490
v 0.005192 -0.011729 0.001483
v 0.004950 -0.012463 0.001573
v 0.004900 -0.012787 0.001520
v 0.004868 -0.012977 0.001482
v 0.004502 -0.013864 0.001303
v 0.004402 -0.014082 0.000979
v 0.004515 -0.013889 0.000979
v 0.004834 -0.013224 0.000902
v 0.004881 -0.013008 0.000779
v 0.004833 -0.012556 0.000514
v 0.004865 -0.012341 0.000486
v 0.004888 -0.012139 0.000467
v 0.004915 -0.011816 0.000445
v 0.004924 -0.011664 0.000440
v 0.005132 -0.011664 0.001557
v 0.004859 -0.011992 0.001791
v 0.004540 -0.012972 0.001794
v 0.004550 -0.013632 0.001489
v 0.004370 -0.014085 0.001307
v 0.004289 -0.014085 0.000714
v 0.004567 -0.013665 0.000764
v 0.004537 -0.013284 0.000489
v 0.004573 -0.013110 0.000463
v 0.004633 -0.012787 0.000430
v 0.004694 -0.012139 0.000375
v 0.004694 -0.011816 0.000351
v 0.004694 -0.011664 0.000347
v 0.005055 -0.011664 0.001636
v 0.004956 -0.011664 0.001737
v 0.004694 -0.011816 0.001857
v 0.004377 -0.013092 0.001833
v 0.004222 -0.013620 0.001797
v 0.004430 -0.013434 0.001706
v 0.004260 -0.014085 0.001519
v 0.004206 -0.013916 0.000496
v 0.004370 -0.013110 0.000372
v 0.004370 -0.012787 0.000336
v 0.004370 -0.012463 0.000328
v 0.004370 -0.012139 0.000335
v 0.004370 -0.011664 0.000363
v 0.004880 -0.011664 0.001804
v 0.004786 -0.011664 0.001835
v 0.004694 -0.011664 0.001862
v 0.004046 -0.013434 0.001868
v 0.004149 -0.013836 0.001752
v 0.003901 -0.014085 0.001797
v 0.004047 -0.014085 0.001698
v 0.003992 -0.014085 0.000435
v 0.003723 -0.014082 0.000341
v 0.004046 -0.013434 0.000328
v 0.003723 -0.013758 0.000315
v 0.003399 -0.014082 0.000318
v 0.004160 -0.011664 0.000456
v 0.003063 -0.014085 0.000401
v 0.003029 -0.014085 0.000412
v 0.004522 -0.011664 0.001864
v 0.003723 -0.013758 0.001880
v 0.003757 -0.014085 0.001840
v 0.003399 -0.014085 0.000318
v 0.002752 -0.014085 0.000593
v 0.002720 -0.014085 0.000616
v 0.002687 -0.014085 0.000648
v 0.003992 -0.011664 0.000659
v 0.004361 -0.011664 0.001849
v 0.003396 -0.014085 0.001880
v 0.002473 -0.014085 0.000985
v 0.003889 -0.011664 0.000814
v 0.004268 -0.011664 0.001819
v 0.003096 -0.014085 0.001831
v 0.002492 -0.014085 0.001293
v 0.003857 -0.011664 0.001244
v 0.003852 -0.011664 0.001099
v 0.003852 -0.011664 0.001001
v 0.003883 -0.011664 0.000828
v 0.004200 -0.011664 0.001794
v 0.003093 -0.014085 0.001830
v 0.002573 -0.014085 0.001423
v 0.003948 -0.011664 0.001478
v 0.003902 -0.011664 0.001399
v 0.003875 -0.011664 0.001310
v 0.004166 -0.011664 0.001757
v 0.002761 -0.014085 0.001628
v 0.002763 -0.014085 0.001630
v 0.002941 -0.014085 0.001766
v 0.004054 -0.011664 0.001628
f 70 72 77
f 68 66 76
f 90 91 83
f 84 79 83
f 83 91 84
f 87 88 83
f 33 46 58
f 33 58 47
f 33 18 17
f 36 35 51
f 22 35 36
f 78 79 70
f 70 77 78
f 67 66 68
f 83 88 89
f 89 90 83
f 70 79 80
f 79 84 80
f 95 87 94
f 94 102 95
f 1 6 7
f 60 47 59
f 59 47 58
f 60 73 74
f 45 46 33
f 5 6 1
f 2 3 1
f 2 17 18
f 68 76 69
f 69 56 68
f 69 76 71
f 44 54 55
f 55 56 44
f 68 56 55
f 55 67 68
f 54 67 55
f 44 56 57
f 57 71 72
f 57 72 70
f 57 69 71
f 56 69 57
f 65 76 66
f 36 37 23
f 23 22 36
f 43 44 31
f 43 54 44
f 43 42 54
f 87 95 96
f 42 29 41
f 41 29 28
f 38 25 24
f 24 23 38
f 38 23 37
f 26 25 38
f 81 86 82
f 82 73 81
f 82 74 73
f 61 47 60
f 60 74 61
f 33 17 32
f 32 45 33
f 1 3 4
f 4 5 1
f 3 9 4
f 4 21 10
f 4 9 21
f 6 5 14
f 26 15 14
f 14 15 6
f 64 62 63
f 51 62 64
f 35 21 50
f 50 51 35
f 50 62 51
f 8 9 3
f 8 2 18
f 3 2 8
f 8 18 33
f 33 19 8
f 21 9 20
f 20 8 19
f 9 8 20
f 30 43 31
f 42 43 30
f 30 29 42
f 99 92 94
f 100 92 99
f 98 102 94
f 94 92 98
f 101 92 100
f 85 86 81
f 88 87 97
f 87 96 97
f 27 28 6
f 6 15 27
f 54 42 53
f 42 41 53
f 53 67 54
f 66 67 53
f 53 65 66
f 37 65 52
f 52 38 37
f 74 82 75
f 75 61 74
f 63 62 49
f 49 75 63
f 61 75 49
f 62 50 49
f 24 25 12
f 26 14 13
f 13 14 5
f 13 25 26
f 13 12 25
f 5 12 13
f 16 30 31
f 29 30 16
f 16 7 6
f 6 28 16
f 28 29 16
f 92 101 93
f 93 85 92
f 86 85 93
f 26 38 39
f 38 52 39
f 39 15 26
f 39 27 15
f 39 52 65
f 61 49 48
f 33 47 48
f 47 61 48
f 11 4 10
f 10 21 11
f 11 21 35
f 35 22 11
f 22 23 11
f 11 23 24
f 24 12 11
f 27 39 40
f 40 41 28
f 28 27 40
f 40 53 41
f 65 53 40
f 40 39 65
f 34 49 50
f 34 48 49
f 33 48 34
f 34 19 33
f 34 20 19
f 34 50 21
f 21 20 34
f 102 98 16
f 16 89 88
f 81 73 16
f 16 2 1
f 46 45 16
f 31 44 16
f 16 58 46
f 16 57 70
f 91 90 16
f 16 84 91
f 70 80 16
f 1 7 16
f 16 73 60
f 60 59 16
f 90 89 16
f 16 80 84
f 16 95 102
f 88 97 16
f 16 59 58
f 16 85 81
f 17 2 16
f 44 57 16
f 16 32 17
f 16 96 95
f 45 32 16
f 16 98 92
f 92 85 16
f 16 97 96
f 93 87 83
f 93 77 72
f 83 79 93
f 76 65 93
f 79 78 93
f 72 71 93
f 93 37 36
f 36 51 93
f 71 76 93
f 94 87 93
f 93 82 86
f 93 78 77
f 93 99 94
f 93 64 63
f 93 65 37
f 63 75 93
f 51 64 93
f 100 99 93
f 93 101 100
f 93 75 82
f 11 12 5
f 5 4 11
