# generated by collision_forge
v 0.000162 0.016335 0.001303
v 0.000162 0.016308 0.000980
v -0.000099 0.016327 0.001303
v -0.000099 0.016262 0.001529
v 0.000162 0.016252 0.001590
v 0.000486 0.016253 0.001594
v 0.000486 0.016335 0.001303
v 0.000162 0.016225 0.000752
v -0.000099 0.016300 0.000980
v -0.000099 0.016322 0.001240
v 0.000486 0.016305 0.000980
v 0.000486 0.016223 0.000754
v -0.000099 0.016168 0.001715
v 0.000486 0.016154 0.001755
v 0.000809 0.016249 0.001586
v 0.000809 0.016328 0.001303
v 0.000162 0.016091 0.000590
v 0.000809 0.016296 0.000980
v 0.000486 0.016089 0.000592
v 0.000809 0.016217 0.000766
v -0.000099 0.015987 0.001862
v 0.000162 0.015990 0.001864
v 0.000486 0.015993 0.001863
v 0.000809 0.015987 0.001862
v 0.000809 0.016149 0.001748
v 0.001133 0.016236 0.001560
v 0.001133 0.016299 0.001303
v 0.001133 0.016267 0.000980
v 0.000162 0.015930 0.000452
v -0.000099 0.015922 0.000454
v -0.000099 0.016193 0.000733
v 0.001133 0.016204 0.000789
v 0.000486 0.015927 0.000455
v 0.001133 0.015906 0.000463
v -0.000099 0.015756 0.001921
v 0.000809 0.015700 0.001930
v -0.000099 0.015700 0.001934
v 0.001133 0.015700 0.001926
v 0.001133 0.015966 0.001854
v 0.001133 0.016128 0.001722
v 0.001457 0.016210 0.001513
v 0.001646 0.016192 0.001478
v 0.001696 0.016202 0.001075
v 0.001543 0.016174 0.000859
v 0.001327 0.016190 0.000810
v -0.000099 0.015700 0.000405
v 0.000809 0.015700 0.000409
v 0.001133 0.015700 0.000413
v 0.001457 0.015887 0.000475
v 0.001650 0.015871 0.000487
v 0.002643 0.015044 0.001890
v -0.000099 0.015461 0.001875
v 0.002643 0.014774 0.001833
v 0.002428 0.015376 0.001894
v 0.001780 0.015700 0.001891
v 0.001971 0.015874 0.001798
v 0.002365 0.015909 0.001533
v 0.002104 0.016084 0.001303
v 0.002104 0.016057 0.000980
v 0.002355 0.015893 0.000771
v 0.002104 0.015936 0.000718
v -0.000099 0.015425 0.000444
v 0.002104 0.015376 0.000400
v 0.002643 0.015053 0.000408
v 0.002643 0.014836 0.000435
v 0.002104 0.015629 0.000449
v 0.002361 0.015582 0.000468
v 0.002643 0.015378 0.001859
v -0.000099 0.015406 0.001861
v 0.002643 0.014623 0.001749
v 0.002625 0.015556 0.001801
v 0.002643 0.015686 0.001634
v 0.002581 0.015858 0.001439
v 0.002612 0.015875 0.001072
v 0.002570 0.015854 0.000856
v 0.002104 0.015791 0.000556
v 0.002643 0.015768 0.000797
v -0.000099 0.015263 0.000530
v 0.002643 0.014764 0.000454
v 0.002643 0.014616 0.000521
v 0.002643 0.015181 0.000414
v 0.002576 0.015529 0.000499
v 0.002643 0.015449 0.000481
v 0.002643 0.015529 0.001808
v -0.000099 0.015276 0.001782
v 0.002643 0.014452 0.001592
v -0.000099 0.015244 0.001762
v 0.002643 0.015831 0.001390
v -0.000099 0.015237 0.000561
v 0.002643 0.014614 0.000524
v 0.002643 0.014480 0.000638
v 0.002643 0.014440 0.000678
v 0.002643 0.014278 0.001303
v -0.000099 0.015150 0.001631
v -0.000099 0.015129 0.001600
v -0.000099 0.015133 0.000691
v 0.002643 0.014268 0.000961
v 0.002643 0.014277 0.001290
v -0.000099 0.015032 0.001359
v -0.000099 0.015012 0.001303
v -0.000099 0.015016 0.000980
v 0.002643 0.014259 0.000980
f 51 37 53
f 87 86 70
f 69 70 53
f 102 101 96
f 100 101 102
f 63 81 64
f 52 53 37
f 52 69 53
f 87 70 85
f 70 69 85
f 3 4 1
f 27 16 26
f 74 58 73
f 50 67 66
f 66 81 63
f 66 67 81
f 81 67 83
f 27 42 43
f 43 42 58
f 78 91 92
f 98 100 102
f 93 100 98
f 95 93 86
f 46 64 65
f 63 64 46
f 90 91 78
f 78 80 90
f 54 38 51
f 36 23 37
f 36 37 51
f 51 38 36
f 14 13 21
f 21 22 14
f 14 22 23
f 15 26 16
f 25 26 15
f 15 14 25
f 40 26 25
f 40 39 56
f 25 39 40
f 41 42 27
f 27 26 41
f 26 40 41
f 56 42 41
f 41 40 56
f 56 71 57
f 57 42 56
f 58 42 57
f 57 73 58
f 74 73 88
f 76 67 50
f 74 88 77
f 82 83 67
f 67 76 82
f 82 76 60
f 82 77 83
f 60 77 82
f 9 8 31
f 2 8 9
f 9 10 2
f 2 10 3
f 3 1 2
f 20 18 32
f 32 18 28
f 27 43 28
f 28 16 27
f 28 18 16
f 59 58 74
f 59 43 58
f 102 96 97
f 96 92 97
f 78 92 89
f 89 92 96
f 99 100 93
f 93 95 99
f 94 86 87
f 94 95 86
f 48 66 63
f 62 79 80
f 62 80 78
f 65 79 62
f 62 46 65
f 68 54 51
f 35 22 21
f 37 23 35
f 23 22 35
f 38 39 24
f 24 36 38
f 23 36 24
f 24 39 25
f 25 14 24
f 24 14 23
f 38 54 55
f 55 39 38
f 56 39 55
f 54 68 55
f 55 71 56
f 55 68 84
f 55 84 71
f 7 15 16
f 7 2 1
f 4 13 5
f 5 1 4
f 13 14 5
f 72 57 71
f 73 57 72
f 72 88 73
f 71 84 72
f 61 76 50
f 60 76 61
f 74 77 75
f 75 77 60
f 75 59 74
f 60 59 75
f 2 7 11
f 16 18 11
f 11 7 16
f 49 32 50
f 49 20 32
f 50 66 49
f 66 48 49
f 30 31 17
f 17 31 8
f 44 28 43
f 43 59 44
f 44 59 60
f 60 61 44
f 63 46 47
f 47 48 63
f 6 7 1
f 1 5 6
f 15 7 6
f 14 15 6
f 6 5 14
f 12 17 8
f 8 2 12
f 2 11 12
f 18 20 12
f 12 11 18
f 48 47 33
f 32 28 45
f 28 44 45
f 50 32 45
f 45 61 50
f 45 44 61
f 20 49 19
f 19 12 20
f 17 12 19
f 29 47 46
f 29 33 47
f 29 46 30
f 30 17 29
f 17 19 29
f 29 19 33
f 34 19 49
f 33 19 34
f 34 49 48
f 48 33 34
f 35 4 3
f 9 31 35
f 35 94 87
f 35 52 37
f 35 62 78
f 87 85 35
f 3 10 35
f 21 13 35
f 100 99 35
f 35 96 101
f 101 100 35
f 35 13 4
f 69 52 35
f 35 85 69
f 78 89 35
f 30 46 35
f 35 10 9
f 35 31 30
f 35 89 96
f 35 99 95
f 95 94 35
f 46 62 35
f 51 53 72
f 72 98 102
f 83 77 72
f 72 70 86
f 86 93 72
f 81 83 72
f 72 64 81
f 53 70 72
f 65 64 72
f 91 90 72
f 102 97 72
f 72 79 65
f 72 92 91
f 93 98 72
f 72 90 80
f 80 79 72
f 72 68 51
f 72 77 88
f 72 97 92
f 84 68 72
