####
#
# OBJ File Generated by Meshlab
#
####
# Object link_0_chull_1.obj
#
# Vertices: 110
# Faces: 216
#
####
vn -0.967634 0.002314 -0.252346
v 0.006267 -0.008448 0.015367
vn -0.759684 -0.249285 0.600614
v 0.006267 0.022225 -0.015367
vn -0.548789 -0.315237 -0.774246
v 0.006267 0.022225 0.015367
vn -0.912075 0.002181 0.410017
v 0.006267 -0.008448 -0.015367
vn 0.975101 -0.018624 -0.220976
v -0.036496 0.022225 0.003419
vn 0.984124 0.161459 -0.073696
v -0.036838 -0.014287 0.001148
vn 0.908492 0.362867 -0.207289
v -0.036496 -0.014287 0.003419
vn 0.996882 -0.032734 -0.071789
v -0.036838 0.022225 0.001148
vn 0.907901 0.220619 -0.356432
v -0.035819 -0.014287 0.005614
vn 0.931171 -0.032699 -0.363114
v -0.035819 0.022225 0.005614
vn -0.639216 0.760696 -0.112888
v 0.005133 -0.010880 0.015367
vn -0.632789 0.753047 0.180274
v 0.005133 -0.010880 -0.015367
vn -0.461443 0.885825 0.048833
v 0.004559 -0.011265 -0.015367
vn -0.458238 0.879673 -0.127251
v 0.004559 -0.011265 0.015367
vn 0.680681 -0.018592 -0.732344
v -0.031966 0.022225 0.011265
vn 0.751491 0.276128 -0.599178
v -0.033528 -0.014287 0.009581
vn 0.575173 0.533826 -0.619843
v -0.031966 -0.014287 0.011265
vn 0.782545 -0.032664 -0.621736
v -0.033528 0.022225 0.009581
vn 0.532986 0.323309 -0.781919
v -0.030170 -0.014287 0.012697
vn 0.563880 -0.032642 -0.825212
v -0.030170 0.022225 0.012697
vn -0.267711 0.963363 -0.016184
v 0.003914 -0.011515 0.015367
vn -0.267712 0.963365 0.016092
v 0.003914 -0.011515 -0.015367
vn -0.249107 0.968460 0.005553
v -0.003203 -0.013422 -0.015367
vn -0.249027 0.968147 -0.026019
v -0.003203 -0.013422 0.015367
vn -0.173692 0.984780 -0.006296
v -0.005366 -0.013902 0.015367
vn -0.173694 0.984795 0.003156
v -0.005366 -0.013902 -0.015367
vn -0.786293 0.603786 0.131096
v 0.005611 -0.010381 -0.015367
vn -0.755468 0.580116 -0.304523
v 0.005611 -0.010381 0.015367
vn -0.888497 0.414299 -0.197307
v 0.005970 -0.009790 0.015367
vn -0.858449 0.400288 0.320678
v 0.005970 -0.009790 -0.015367
vn -0.957283 0.211858 0.196790
v 0.006192 -0.009135 -0.015367
vn -0.883272 0.195478 -0.426168
v 0.006192 -0.009135 0.015367
vn 0.996898 -0.018650 0.076458
v -0.036838 0.022225 -0.001148
vn 0.963422 0.258095 0.072146
v -0.036838 -0.014287 -0.001148
vn 0.970694 0.138923 0.196098
v -0.036496 -0.014287 -0.003419
vn 0.969273 -0.023785 0.244836
v -0.036496 0.022225 -0.003419
vn 0.927929 0.078978 0.364295
v -0.035819 -0.014287 -0.005614
vn 0.928981 -0.032807 0.368672
v -0.035819 0.022225 -0.005614
vn 0.874400 -0.023805 0.484622
v -0.034822 0.022225 -0.007683
vn 0.850847 0.074646 0.520083
v -0.034822 -0.014287 -0.007683
vn 0.563210 0.009347 0.826261
v -0.030170 -0.014287 -0.012697
vn 0.433798 0.004698 0.900998
v -0.028181 -0.014287 -0.013845
vn 0.431095 -0.018752 0.902112
v -0.028181 0.022225 -0.013845
vn 0.558899 -0.032914 0.828583
v -0.030170 0.022225 -0.012697
vn 0.698054 0.027782 0.715506
v -0.031966 -0.014287 -0.011265
vn 0.662284 -0.023859 0.748873
v -0.031966 0.022225 -0.011265
vn 0.866383 -0.018606 -0.499033
v -0.034822 0.022225 0.007683
vn 0.770000 0.457552 -0.444687
v -0.034822 -0.014287 0.007683
vn -0.002664 0.446403 -0.894828
v -0.009777 -0.014287 0.015367
vn 0.004493 -0.018917 -0.999811
v -0.021514 0.022225 0.015367
vn 0.017218 0.576786 -0.816714
v -0.021514 -0.014287 0.015367
vn -0.086951 0.996208 -0.003152
v -0.007563 -0.014191 0.015367
vn 0.434181 -0.018578 -0.900634
v -0.028181 0.022225 0.013845
vn 0.350475 0.589302 -0.727936
v -0.028181 -0.014287 0.013845
vn 0.275114 0.358727 -0.891980
v -0.026043 -0.014287 0.014684
vn 0.295118 -0.032617 -0.954904
v -0.026043 0.022225 0.014684
vn 0.149253 -0.018571 -0.988625
v -0.023804 0.022225 0.015195
vn 0.116441 0.624714 -0.772123
v -0.023804 -0.014287 0.015195
vn 0.780217 -0.018704 0.625230
v -0.033528 0.022225 -0.009581
vn 0.779806 0.072963 0.621755
v -0.033528 -0.014287 -0.009581
vn 0.124410 0.003129 0.992226
v -0.023804 -0.014287 -0.015195
vn 0.010569 0.014812 0.999834
v -0.021514 -0.014287 -0.015367
vn 0.007225 -0.016851 0.999832
v -0.021514 0.022225 -0.015367
vn 0.165245 -0.023957 0.985961
v -0.023804 0.022225 -0.015195
vn -0.011830 0.135533 0.990702
v -0.007563 -0.014191 -0.015367
vn -0.005122 0.999985 0.001956
v -0.009777 -0.014287 -0.015367
vn 0.065794 0.974765 0.213319
v -0.026043 -0.014287 -0.014684
vn 0.289353 -0.032965 0.956655
v -0.026043 0.022225 -0.014684
vn 0.009289 -0.999155 -0.040040
v -0.024769 0.030163 0.013912
vn 0.756418 -0.423239 -0.498699
v -0.033506 0.030163 0.007766
vn 0.699817 -0.332428 -0.632257
v -0.032180 0.030163 0.009506
vn 0.675050 -0.737577 0.016940
v -0.035791 0.030163 -0.000547
vn 0.608470 -0.786067 0.108917
v -0.035540 0.030163 -0.002720
vn 0.254496 -0.902944 0.346300
v -0.029734 0.030163 -0.011686
vn 0.189862 -0.912201 0.363102
v -0.027853 0.030163 -0.012804
vn 0.391683 -0.874040 0.287468
v -0.032877 0.030163 -0.008661
vn 0.321823 -0.890526 0.321549
v -0.031421 0.030163 -0.010294
vn -0.062832 -0.978071 0.198569
v -0.017203 0.030163 -0.013622
vn -0.086367 -0.980883 0.174384
v -0.015174 0.030163 -0.012804
vn 0.611472 -0.251802 -0.750132
v -0.030604 0.030163 0.011023
vn 0.004278 -0.516427 0.856321
v -0.021514 0.030163 -0.014287
vn -0.034985 -0.973314 0.226796
v -0.019333 0.030163 -0.014120
vn 0.778426 -0.515640 -0.358007
v -0.034551 0.030163 0.005845
vn -0.211166 -0.976593 0.040931
v -0.007488 0.030163 -0.002720
vn -0.187231 -0.980013 0.067230
v -0.008067 0.030163 -0.004829
vn -0.246439 -0.968741 -0.028437
v -0.007321 0.030163 0.001639
vn -0.244280 -0.967382 -0.067081
v -0.007737 0.030163 0.003786
vn 0.498046 -0.189239 -0.846250
v -0.028815 0.030163 0.012281
vn -0.233226 -0.949959 -0.207806
v -0.010847 0.030163 0.009506
vn -0.238039 -0.958943 -0.154163
v -0.009521 0.030163 0.007766
vn 0.536855 -0.823522 0.183297
v -0.034960 0.030163 -0.004829
vn 0.067719 -0.923663 0.377175
v -0.023695 0.030163 -0.014120
vn 0.767826 -0.601746 -0.219876
v -0.035291 0.030163 0.003786
vn -0.107336 -0.982445 0.152579
v -0.013294 0.030163 -0.011686
vn -0.155645 -0.730433 -0.665013
v -0.018258 0.030163 0.013912
vn -0.096831 -0.532695 -0.840750
v -0.020420 0.030163 0.014246
vn 0.000000 -0.142811 -0.989750
v -0.021514 0.030163 0.014287
vn 0.366735 -0.149884 -0.918172
v -0.026855 0.030163 0.013252
vn 0.127720 -0.918940 0.373144
v -0.025825 0.030163 -0.013622
vn 0.730676 -0.676338 -0.093160
v -0.035707 0.030163 0.001639
vn 0.463824 -0.852208 0.242091
v -0.034066 0.030163 -0.006825
vn -0.126979 -0.983092 0.131933
v -0.011606 0.030163 -0.010294
vn -0.446794 -0.894634 0.002126
v -0.007237 0.030163 -0.000547
vn -0.146249 -0.982948 0.111468
v -0.010151 0.030163 -0.008661
vn -0.165995 -0.981986 0.090275
v -0.008962 0.030163 -0.006825
vn -0.195371 -0.852676 -0.484535
v -0.016173 0.030163 0.013252
vn 0.097194 -0.140740 -0.985264
v -0.022607 0.030163 0.014246
vn -0.241566 -0.964324 -0.108280
v -0.008476 0.030163 0.005845
vn -0.215050 -0.907116 -0.361793
v -0.014213 0.030163 0.012281
vn -0.226190 -0.934646 -0.274362
v -0.012423 0.030163 0.011023
# 110 vertices, 0 vertices normals

f 103//103 2//2 3//3
f 8//8 100//100 5//5
f 70//70 71//71 18//18
f 15//15 80//80 20//20
f 15//15 71//71 80//80
f 18//18 71//71 15//15
f 73//73 33//33 36//36
f 39//39 101//101 38//38
f 81//81 63//63 2//2
f 82//82 81//81 2//2
f 47//47 70//70 18//18
f 83//83 47//47 10//10
f 70//70 47//47 83//83
f 80//80 88//88 20//20
f 53//53 98//98 56//56
f 53//53 88//88 98//98
f 20//20 88//88 53//53
f 75//75 44//44 43//43
f 75//75 43//43 99//99
f 73//73 72//72 33//33
f 72//72 8//8 33//33
f 72//72 100//100 8//8
f 91//91 36//36 38//38
f 91//91 73//73 36//36
f 101//101 91//91 38//38
f 46//46 77//77 59//59
f 64//64 81//81 92//92
f 64//64 63//63 81//81
f 93//93 10//10 5//5
f 93//93 83//83 10//10
f 93//93 5//5 100//100
f 78//78 82//82 2//2
f 79//79 78//78 2//2
f 102//102 94//94 2//2
f 94//94 79//79 2//2
f 84//84 2//2 103//103
f 84//84 85//85 2//2
f 104//104 102//102 2//2
f 96//96 95//95 3//3
f 97//97 3//3 50//50
f 97//97 96//96 3//3
f 89//89 90//90 3//3
f 75//75 74//74 44//44
f 74//74 46//46 44//44
f 74//74 77//77 46//46
f 76//76 59//59 77//77
f 76//76 39//39 59//59
f 101//101 39//39 76//76
f 68//68 92//92 99//99
f 68//68 64//64 92//92
f 43//43 68//68 99//99
f 85//85 105//105 2//2
f 105//105 104//104 2//2
f 106//106 109//109 3//3
f 95//95 106//106 3//3
f 57//57 107//107 50//50
f 107//107 97//97 50//50
f 86//86 103//103 3//3
f 3//3 87//87 86//86
f 90//90 108//108 3//3
f 108//108 87//87 3//3
f 109//109 110//110 3//3
f 110//110 89//89 3//3
f 69//69 57//57 56//56
f 69//69 107//107 57//57
f 69//69 56//56 98//98
f 1//1 3//3 2//2
f 1//1 2//2 4//4
f 7//7 6//6 5//5
f 5//5 6//6 8//8
f 5//5 9//9 7//7
f 9//9 5//5 10//10
f 11//11 12//12 13//13
f 11//11 13//13 14//14
f 17//17 16//16 15//15
f 15//15 16//16 18//18
f 19//19 17//17 15//15
f 15//15 20//20 19//19
f 21//21 13//13 22//22
f 14//14 13//13 21//21
f 21//21 22//22 23//23
f 24//24 21//21 23//23
f 25//25 23//23 26//26
f 25//25 24//24 23//23
f 27//27 11//11 28//28
f 12//12 11//11 27//27
f 27//27 28//28 29//29
f 27//27 29//29 30//30
f 31//31 1//1 4//4
f 31//31 32//32 1//1
f 31//31 29//29 32//32
f 30//30 29//29 31//31
f 6//6 34//34 33//33
f 33//33 8//8 6//6
f 33//33 34//34 35//35
f 35//35 36//36 33//33
f 37//37 36//36 35//35
f 36//36 37//37 38//38
f 39//39 37//37 40//40
f 37//37 39//39 38//38
f 42//42 43//43 41//41
f 43//43 44//44 41//41
f 41//41 46//46 45//45
f 41//41 44//44 46//46
f 47//47 16//16 48//48
f 47//47 18//18 16//16
f 48//48 9//9 47//47
f 47//47 9//9 10//10
f 1//1 49//49 3//3
f 24//24 25//25 49//49
f 49//49 21//21 24//24
f 49//49 1//1 32//32
f 28//28 11//11 49//49
f 49//49 50//50 3//3
f 49//49 51//51 50//50
f 49//49 11//11 14//14
f 32//32 29//29 49//49
f 14//14 21//21 49//49
f 49//49 25//25 52//52
f 49//49 29//29 28//28
f 53//53 54//54 19//19
f 19//19 20//20 53//53
f 54//54 53//53 55//55
f 55//55 53//53 56//56
f 57//57 50//50 51//51
f 57//57 51//51 58//58
f 58//58 55//55 57//57
f 57//57 55//55 56//56
f 60//60 45//45 59//59
f 59//59 45//45 46//46
f 59//59 40//40 60//60
f 59//59 39//39 40//40
f 61//61 62//62 63//63
f 64//64 61//61 63//63
f 2//2 65//65 4//4
f 30//30 31//31 65//65
f 13//13 12//12 65//65
f 26//26 23//23 65//65
f 23//23 22//22 65//65
f 65//65 22//22 13//13
f 65//65 27//27 30//30
f 65//65 2//2 63//63
f 12//12 27//27 65//65
f 65//65 31//31 4//4
f 63//63 62//62 65//65
f 62//62 66//66 65//65
f 52//52 25//25 65//65
f 65//65 25//25 26//26
f 65//65 49//49 52//52
f 65//65 66//66 49//49
f 67//67 6//6 7//7
f 67//67 45//45 60//60
f 67//67 16//16 17//17
f 67//67 34//34 6//6
f 40//40 67//67 60//60
f 67//67 17//17 19//19
f 67//67 7//7 9//9
f 67//67 51//51 49//49
f 67//67 49//49 66//66
f 67//67 35//35 34//34
f 67//67 9//9 48//48
f 37//37 67//67 40//40
f 54//54 67//67 19//19
f 67//67 58//58 51//51
f 67//67 41//41 45//45
f 67//67 48//48 16//16
f 55//55 67//67 54//54
f 67//67 37//37 35//35
f 41//41 67//67 42//42
f 67//67 55//55 58//58
f 67//67 66//66 62//62
f 61//61 67//67 62//62
f 67//67 43//43 42//42
f 67//67 68//68 43//43
f 67//67 61//61 64//64
f 68//68 67//67 64//64
f 71//71 70//70 69//69
f 69//69 72//72 73//73
f 69//69 74//74 75//75
f 69//69 76//76 77//77
f 69//69 78//78 79//79
f 69//69 80//80 71//71
f 69//69 81//81 82//82
f 70//70 83//83 69//69
f 85//85 84//84 69//69
f 69//69 86//86 87//87
f 69//69 88//88 80//80
f 90//90 89//89 69//69
f 73//73 91//91 69//69
f 69//69 92//92 81//81
f 83//83 93//93 69//69
f 79//79 94//94 69//69
f 69//69 95//95 96//96
f 96//96 97//97 69//69
f 98//98 88//88 69//69
f 69//69 75//75 99//99
f 100//100 72//72 69//69
f 69//69 91//91 101//101
f 99//99 92//92 69//69
f 69//69 93//93 100//100
f 82//82 78//78 69//69
f 69//69 94//94 102//102
f 69//69 84//84 103//103
f 102//102 104//104 69//69
f 104//104 105//105 69//69
f 69//69 106//106 95//95
f 97//97 107//107 69//69
f 87//87 108//108 69//69
f 77//77 74//74 69//69
f 101//101 76//76 69//69
f 69//69 105//105 85//85
f 109//109 106//106 69//69
f 89//89 110//110 69//69
f 69//69 103//103 86//86
f 69//69 108//108 90//90
f 69//69 110//110 109//109
# 216 faces, 0 coords texture

# End of File