# generated by collision_forge
v -0.102600 -0.113512 0.021521
v -0.102600 -0.113576 0.053648
v -0.102600 -0.105470 0.021521
v -0.011541 -0.116781 0.076744
v -0.102600 -0.113861 0.205437
v -0.102600 -0.105477 0.205382
v 0.163337 -0.104855 0.033840
v 0.163337 -0.104909 0.021521
v -0.014832 -0.116898 0.083340
v -0.102600 -0.113509 0.208726
v -0.102600 -0.105488 0.207686
v 0.163337 -0.105119 0.175726
v 0.140249 -0.113779 0.021521
v 0.156729 -0.105541 0.207221
v 0.001674 -0.114805 0.205437
v 0.162336 -0.105437 0.202130
v -0.102600 -0.107765 0.210789
v 0.166074 -0.108133 0.021521
v 0.004964 -0.116846 0.083340
v 0.143540 -0.114263 0.205437
v 0.165574 -0.112864 0.192226
v 0.153438 -0.114186 0.205437
v 0.160046 -0.113899 0.050340
v 0.160046 -0.114257 0.159226
v 0.150148 -0.112743 0.210752
v 0.163942 -0.113316 0.021521
f 1 9 2
f 9 5 2
f 17 10 25
f 25 20 22
f 21 25 22
f 16 25 21
f 21 26 18
f 1 13 4
f 4 9 1
f 23 13 26
f 15 10 5
f 15 5 9
f 15 25 10
f 20 25 15
f 17 25 14
f 14 25 16
f 14 11 17
f 16 11 14
f 12 21 18
f 16 21 12
f 12 11 16
f 11 12 6
f 22 20 19
f 9 4 19
f 19 15 9
f 20 15 19
f 19 4 13
f 13 23 19
f 18 8 7
f 7 12 18
f 7 6 12
f 7 8 3
f 3 6 7
f 22 19 24
f 24 19 23
f 24 21 22
f 26 21 24
f 24 23 26
f 8 13 1
f 1 3 8
f 18 26 8
f 26 13 8
f 6 3 1
f 6 10 17
f 1 2 6
f 6 2 5
f 5 10 6
f 17 11 6
