# generated by collision_forge
v 0.097326 -0.099833 0.011857
v 0.136922 -0.099843 0.011857
v -0.160031 -0.101996 0.021520
v 0.163341 -0.104909 0.021520
v 0.140208 -0.099986 0.011857
v 0.077512 -0.099844 0.011857
v -0.136931 -0.100133 0.011857
v -0.157005 -0.100171 0.011857
v 0.165391 -0.105222 0.021520
v 0.160022 -0.102983 0.011857
v -0.160259 -0.100253 0.011857
v -0.163187 -0.100963 0.011857
v -0.165432 -0.104152 0.011857
v -0.165562 -0.104293 0.021520
v 0.165521 -0.112764 0.021520
v 0.165098 -0.107026 0.011857
v -0.165302 -0.109357 0.011857
v -0.162796 -0.112566 0.011857
v 0.160022 -0.113711 0.020637
v -0.164749 -0.112614 0.021520
v 0.153418 -0.113657 0.011857
v -0.156745 -0.113217 0.011857
v 0.120427 -0.113756 0.011857
v 0.031344 -0.113711 0.021520
v -0.150140 -0.113424 0.014039
v -0.136931 -0.113527 0.021520
f 12 13 14
f 14 3 12
f 2 3 4
f 1 3 2
f 6 3 1
f 24 19 15
f 24 26 23
f 23 19 24
f 17 20 14
f 14 13 17
f 11 3 8
f 11 12 3
f 4 9 10
f 8 3 7
f 3 6 7
f 5 2 4
f 4 10 5
f 16 9 15
f 16 10 9
f 26 20 25
f 20 22 25
f 25 22 23
f 23 26 25
f 20 17 18
f 18 22 20
f 15 19 21
f 21 16 15
f 21 19 23
f 24 3 14
f 15 9 24
f 14 20 24
f 4 3 24
f 24 9 4
f 24 20 26
f 21 6 1
f 13 12 21
f 1 2 21
f 8 7 21
f 21 11 8
f 2 5 21
f 21 17 13
f 12 11 21
f 23 22 21
f 21 7 6
f 21 18 17
f 21 5 10
f 10 16 21
f 22 18 21
