# generated by collision_forge
v -0.102600 -0.110549 0.211163
v -0.143545 -0.112572 0.210699
v -0.102600 -0.113508 0.208731
v -0.102600 -0.105488 0.207692
v -0.102600 -0.113860 0.205427
v -0.102600 -0.105477 0.205371
v -0.158111 -0.102187 0.172421
v -0.160047 -0.102604 0.188924
v -0.160047 -0.113543 0.076746
v -0.160047 -0.113545 0.073442
v -0.102600 -0.113576 0.053654
v -0.102600 -0.105470 0.021521
v -0.160047 -0.101847 0.073442
v -0.160047 -0.101848 0.076746
v -0.159063 -0.105377 0.207469
v -0.102600 -0.113513 0.021521
v -0.160047 -0.101898 0.030542
v -0.156747 -0.113318 0.205427
v -0.140244 -0.113561 0.205427
v -0.165384 -0.112573 0.195533
v -0.165260 -0.112463 0.021521
v -0.164157 -0.102643 0.021521
v -0.165353 -0.105070 0.192228
v -0.165926 -0.107251 0.195533
v -0.156747 -0.113401 0.021521
v -0.166219 -0.107251 0.023953
f 13 12 17
f 17 22 13
f 12 22 17
f 6 12 13
f 7 8 4
f 4 6 7
f 23 8 22
f 23 22 26
f 21 20 26
f 26 22 21
f 1 2 3
f 14 6 13
f 14 7 6
f 8 7 14
f 13 22 14
f 22 8 14
f 26 20 24
f 24 23 26
f 10 21 25
f 20 21 10
f 10 11 5
f 10 25 16
f 16 11 10
f 15 18 2
f 23 24 15
f 20 18 15
f 15 24 20
f 1 4 15
f 15 2 1
f 4 8 15
f 8 23 15
f 5 3 19
f 19 3 2
f 2 18 19
f 9 19 18
f 9 18 20
f 20 10 9
f 9 10 5
f 5 19 9
f 12 16 21
f 21 22 12
f 16 25 21
f 12 6 11
f 11 4 1
f 11 16 12
f 11 6 4
f 1 3 11
f 11 3 5
