# generated by collision_forge
v -0.150124 0.109184 0.009348
v 0.151275 0.108552 -0.000244
v -0.136939 0.107242 -0.001557
v 0.165080 -0.084137 -0.000886
v 0.162371 0.100040 0.009540
v 0.140244 -0.110326 0.001137
v 0.113840 0.103946 0.010530
v -0.143532 0.103946 0.010284
v -0.166704 0.084147 0.004138
v -0.165203 -0.084137 -0.001001
v -0.140236 -0.084137 -0.001598
v -0.165431 -0.104140 0.011855
v 0.165211 0.090739 -0.001003
v 0.165080 -0.107007 0.011855
v 0.153429 0.103946 -0.001462
v 0.080845 0.103946 0.010518
v 0.153429 -0.087433 -0.001415
v -0.165333 0.084147 -0.001104
v -0.001628 0.115821 -0.001088
v -0.146828 -0.105878 -0.000847
v 0.160021 0.097331 0.010478
v -0.004924 0.115257 0.008977
v -0.156750 -0.113125 0.010738
v 0.157867 -0.113599 0.011855
v 0.143540 0.110651 0.007438
v 0.146836 -0.100641 -0.001069
f 10 12 9
f 24 26 14
f 14 12 24
f 9 12 1
f 17 26 11
f 6 26 24
f 18 3 11
f 11 10 18
f 18 10 9
f 9 1 18
f 18 1 3
f 5 14 13
f 21 14 5
f 13 2 5
f 8 1 12
f 15 2 13
f 13 17 15
f 11 3 15
f 15 17 11
f 4 14 26
f 26 17 4
f 13 14 4
f 4 17 13
f 20 10 11
f 11 26 20
f 26 6 20
f 1 8 22
f 19 15 3
f 2 15 19
f 3 1 19
f 1 22 19
f 12 10 23
f 10 20 23
f 24 12 23
f 23 6 24
f 23 20 6
f 25 5 2
f 2 19 25
f 25 19 22
f 21 5 25
f 21 25 7
f 7 25 22
f 12 14 7
f 7 14 21
f 16 22 8
f 16 7 22
f 16 8 12
f 12 7 16
