# https://github.com/mikedh/trimesh

o piece_000.obj
v -0.55796021 -0.02554902 -0.00030854
v 0.55604523 0.00271994 -0.00039075
v -0.55656993 -0.00073631 0.00000000
v -0.55661422 0.02566152 -0.00033235
v 0.55807269 0.02556246 -0.00105423
v 0.55813670 -0.02456323 -0.00119200
v 0.55679923 -0.02524405 -0.00066314
v -0.55748206 -0.02596389 -0.00320019
v 0.55678684 -0.02538285 -0.03422074
v 0.55661607 0.02677096 -0.03431192
v -0.55808413 0.02548266 -0.03303534
v -0.55810606 0.02499208 -0.00098148
v 0.55792701 0.02512993 -0.03275340
v 0.55808097 -0.02439442 -0.03261500
v 0.55671763 0.02697778 -0.00054149
v -0.55813670 -0.02502461 -0.00345177
v -0.55811715 -0.02583855 -0.03329116
v -0.55735004 -0.00235057 -0.03607254
v 0.02732973 0.00127795 -0.19814108
v 0.03886689 -0.04308272 -0.19207382
v 0.02811110 0.01606003 -0.19689880
v 0.03469367 -0.03203001 -0.19609545
v 0.04601817 -0.05285698 -0.18628156
v -0.49913478 0.02785040 -0.15482493
v -0.49505365 0.03595153 -0.15822923
v -0.50190932 0.01598467 -0.15376955
v -0.48873404 0.04512988 -0.16047008
v -0.48253974 0.05106256 -0.16491786
v -0.50003165 -0.02509737 -0.15535353
v -0.49407920 -0.03769190 -0.15863904
v -0.48961845 -0.04384308 -0.16079591
v -0.41731560 0.01411450 -0.19578563
v -0.41608092 0.00137608 -0.19668834
v -0.42493716 0.03787087 -0.19175139
v -0.43135166 0.04633879 -0.18897510
v -0.41690111 -0.01419837 -0.19573070
v 0.50104558 -0.01861284 -0.15415813
v 0.49150002 -0.04071393 -0.15945323
v 0.47224703 -0.05530634 -0.16436668
v 0.47499090 -0.05423501 -0.16897364
v 0.41698506 -0.05359674 -0.07929783
v 0.43409398 -0.05538353 -0.11024974
v 0.50059909 0.02280089 -0.15313981
v 0.44051525 -0.05777377 -0.13849206
v 0.40502968 -0.05351181 -0.07357898
v 0.46436244 -0.05671591 -0.17531870
v 0.43436897 0.04354130 -0.19080837
v 0.42930752 0.03507617 -0.19362886
v 0.04325164 -0.05862857 -0.13040321
v 0.05226380 -0.05979002 -0.15360701
v 0.06123801 -0.06000000 -0.17128533
v 0.03301200 -0.05706257 -0.10947313
v 0.02182286 -0.05530233 -0.08672734
v 0.02777117 -0.05393099 -0.07367264
v 0.05712839 -0.05877765 -0.17966488
v 0.42560059 0.05730252 -0.10948455
v 0.43501911 0.05786581 -0.12726641
v 0.42535830 0.05507229 -0.08700784
v 0.44443557 0.05808912 -0.14303678
v 0.46475208 0.05720324 -0.16863827
v 0.41810724 0.05594615 -0.08874401
v 0.41321087 0.05500841 -0.07483881
v 0.47576815 0.05443442 -0.16878887
v 0.45558411 0.05722957 -0.17455411
v 0.46572188 0.05621757 -0.17415372
v 0.44928405 0.05488435 -0.18196000
v 0.49650604 0.03388543 -0.15634967
v -0.43347591 -0.05530615 -0.10437761
v -0.43416840 -0.05697624 -0.12416018
v -0.44971997 -0.05831511 -0.15356970
v -0.41830793 -0.05347137 -0.07729103
v -0.45518845 -0.05823173 -0.17760815
v -0.41994098 -0.05094866 -0.06789232
v -0.48272389 -0.05048449 -0.16437232
v 0.05118622 0.05929215 -0.15632947
v 0.06512817 0.06000000 -0.17380950
v 0.02693875 0.05445739 -0.07496472
v 0.06077017 0.05826399 -0.17825478
v 0.04987679 0.05385253 -0.18577953
v 0.03853729 0.04420902 -0.19156912
v 0.42604581 -0.05672544 -0.11567011
v 0.45289809 -0.05806466 -0.15898484
v 0.44809949 -0.05369711 -0.18408273
v 0.40406987 -0.05428469 -0.07983489
v 0.44019234 -0.04999411 -0.18738423
v 0.42497620 -0.02785765 -0.19502600
v -0.43805087 0.05655552 -0.11870792
v -0.42317128 0.05586845 -0.10315566
v -0.44104430 0.05780329 -0.14366159
v -0.42523718 0.05411831 -0.08386488
v -0.41763476 0.05365516 -0.07642175
v -0.45233324 0.05760150 -0.14829758
v -0.46750998 0.05800594 -0.17110717
v -0.47540620 0.05540705 -0.16926166
v -0.41263542 0.05122287 -0.06713706
v -0.43683559 0.05150337 -0.18664314
v -0.41969088 -0.01702069 -0.19554469
v -0.43058497 -0.04464729 -0.18955997
v -0.42588907 0.01993303 -0.19298358
v -0.43954808 -0.04790927 -0.18551402
v -0.43616930 -0.05069254 -0.18681277
v -0.44245839 -0.05467253 -0.18390092
v -0.46745026 -0.05791933 -0.17199108
v -0.42007375 0.02435135 -0.19500601
v -0.42508045 -0.03694873 -0.19200645
v -0.44049057 0.04912012 -0.18570155
v -0.47550675 -0.05528463 -0.16920045
v -0.44250879 0.05500618 -0.18334754
v -0.45040691 0.05765235 -0.18007359
v -0.45907983 0.05878465 -0.17675984
v -0.50317562 -0.00314757 -0.15299498
v -0.41979107 -0.02464773 -0.19431286
v 0.49004543 0.04366816 -0.15927209
v 0.44171607 0.05045031 -0.18811330
v 0.50246513 0.00043680 -0.15301321
v 0.45448732 -0.05589391 -0.18033680
v 0.47999087 -0.04932209 -0.16686137
v 0.49655804 -0.03230745 -0.15653345
v 0.43060997 -0.03857639 -0.19237804
v 0.42410353 -0.01226059 -0.19595657
v 0.42075703 -0.01499181 -0.19674012
v 0.41897073 -0.00037505 -0.19748156
v 0.42553413 0.02164548 -0.19582863
v 0.42085999 0.01554775 -0.19662848
v 0.48346385 -0.04856560 -0.16159692
v 0.03056308 -0.00899780 -0.19752413
v 0.03471919 0.03484504 -0.19524644
f 4 15 95
f 15 62 95
f 3 15 4
f 3 2 15
f 4 1 3
f 16 1 12
f 12 1 4
f 16 12 17
f 17 1 16
f 17 8 1
f 107 99 97
f 103 8 107
f 8 17 107
f 7 1 54
f 54 45 7
f 45 41 7
f 15 2 7
f 7 3 1
f 2 3 7
f 6 5 7
f 7 5 15
f 14 5 6
f 20 22 119
f 23 101 20
f 84 49 81
f 81 41 84
f 84 41 45
f 84 45 54
f 81 49 50
f 51 82 50
f 50 70 51
f 69 70 50
f 50 49 69
f 54 1 73
f 73 71 54
f 1 71 73
f 69 49 52
f 52 71 69
f 49 84 52
f 69 71 68
f 68 70 69
f 1 8 68
f 68 71 1
f 68 8 103
f 103 70 68
f 57 59 76
f 15 59 57
f 97 99 33
f 19 126 33
f 100 107 97
f 101 23 102
f 107 100 102
f 42 41 81
f 42 7 41
f 46 82 51
f 120 119 86
f 86 119 22
f 97 22 112
f 112 105 97
f 22 105 112
f 97 105 98
f 98 100 97
f 20 101 98
f 101 102 98
f 98 102 100
f 98 22 20
f 98 105 22
f 20 119 85
f 85 23 20
f 81 50 44
f 44 50 82
f 44 42 81
f 44 82 7
f 7 42 44
f 54 71 53
f 71 52 53
f 53 84 54
f 53 52 84
f 27 25 11
f 11 12 4
f 11 17 12
f 11 18 17
f 4 95 91
f 89 88 75
f 76 110 89
f 89 75 76
f 75 88 56
f 76 75 56
f 56 57 76
f 123 127 48
f 80 96 79
f 15 5 10
f 10 63 15
f 60 59 15
f 15 63 60
f 110 96 106
f 35 96 80
f 80 127 35
f 35 127 34
f 97 33 36
f 36 33 126
f 36 22 97
f 36 126 22
f 104 33 99
f 104 35 34
f 34 127 104
f 99 106 104
f 104 106 96
f 96 35 104
f 29 25 107
f 103 107 72
f 107 102 72
f 51 70 72
f 72 70 103
f 55 102 23
f 55 72 102
f 51 72 55
f 55 46 51
f 116 46 55
f 7 82 39
f 82 46 39
f 22 126 121
f 121 86 22
f 120 86 121
f 121 126 19
f 94 93 110
f 4 93 94
f 94 11 4
f 107 25 94
f 99 107 94
f 110 106 94
f 94 106 99
f 62 88 77
f 88 91 77
f 77 95 62
f 77 91 95
f 90 91 88
f 4 91 90
f 88 89 87
f 87 90 88
f 87 93 4
f 4 90 87
f 61 88 62
f 61 56 88
f 15 57 58
f 57 56 58
f 56 61 58
f 58 62 15
f 58 61 62
f 114 123 48
f 80 79 114
f 114 127 80
f 109 96 110
f 109 110 76
f 5 14 13
f 13 10 5
f 76 59 64
f 59 60 64
f 19 104 21
f 21 104 127
f 19 33 32
f 32 104 19
f 33 104 32
f 25 29 26
f 23 85 83
f 83 55 23
f 116 55 83
f 83 85 119
f 123 114 83
f 83 119 120
f 120 123 83
f 83 46 116
f 83 114 46
f 37 14 118
f 14 38 118
f 117 63 37
f 37 118 117
f 117 118 38
f 117 114 63
f 46 114 117
f 9 38 14
f 125 38 9
f 7 39 9
f 6 7 9
f 9 14 6
f 122 121 19
f 122 123 120
f 120 121 122
f 27 11 28
f 11 94 28
f 28 25 27
f 28 94 25
f 92 89 110
f 92 87 89
f 110 93 92
f 93 87 92
f 78 109 76
f 79 109 78
f 48 127 47
f 47 114 48
f 127 114 47
f 108 79 96
f 96 109 108
f 108 109 79
f 115 14 37
f 115 13 14
f 63 114 65
f 65 60 63
f 65 64 60
f 74 107 17
f 17 31 74
f 74 31 107
f 30 29 107
f 107 31 30
f 17 29 30
f 30 31 17
f 24 11 25
f 25 26 24
f 24 26 11
f 111 29 17
f 111 26 29
f 17 18 111
f 18 11 111
f 11 26 111
f 40 39 46
f 46 117 40
f 125 9 40
f 40 9 39
f 40 38 125
f 40 117 38
f 124 122 19
f 123 122 124
f 19 21 124
f 127 123 124
f 124 21 127
f 10 13 67
f 37 63 67
f 67 115 37
f 66 65 114
f 64 65 66
f 66 114 79
f 79 78 66
f 76 64 66
f 66 78 76
f 13 115 43
f 43 67 13
f 115 67 43
f 63 10 113
f 113 67 63
f 10 67 113

