<?xml version="1.0" encoding="utf-8"?>
<!-- Generator: Adobe Illustrator 19.0.0, SVG Export Plug-In . SVG Version: 6.00 Build 0)  -->
<svg version="1.1" xmlns="http://www.w3.org/2000/svg" xmlns:xlink="http://www.w3.org/1999/xlink" x="0px" y="0px"
	 viewBox="0 0 612 792" style="enable-background:new 0 0 612 792;" xml:space="preserve">
<style type="text/css">
	.st0{fill:none;stroke:#000000;stroke-width:0.5;stroke-miterlimit:10;}
	.st1{fill:none;stroke:#000000;stroke-width:0.5;stroke-miterlimit:10;stroke-dasharray:12.3938,12.3938;}
	.st2{fill:none;stroke:#000000;stroke-width:0.5;stroke-miterlimit:10;stroke-dasharray:12,12;}
	.st3{clip-path:url(#XMLID_136_);}
	.st4{fill:none;stroke:#000000;stroke-width:0.5;stroke-miterlimit:10;stroke-dasharray:12;}
	.st5{clip-path:url(#XMLID_137_);}
	.st6{clip-path:url(#XMLID_138_);}
	.st7{clip-path:url(#XMLID_139_);}
	.st8{clip-path:url(#XMLID_140_);}
	.st9{clip-path:url(#XMLID_141_);}
	.st10{clip-path:url(#XMLID_142_);}
	.st11{clip-path:url(#XMLID_143_);}
	.st12{clip-path:url(#XMLID_144_);}
	.st13{clip-path:url(#XMLID_145_);}
	.st14{clip-path:url(#XMLID_146_);}
	.st15{clip-path:url(#XMLID_147_);}
	.st16{clip-path:url(#XMLID_148_);}
	.st17{clip-path:url(#XMLID_149_);}
	.st18{clip-path:url(#XMLID_150_);}
	.st19{clip-path:url(#XMLID_151_);}
	.st20{clip-path:url(#XMLID_152_);}
	.st21{clip-path:url(#XMLID_153_);}
</style>
<g id="Layer_1">
	<g id="Layer_2">
	</g>
</g>
<g id="Layer_3">
	<g id="XMLID_3_">
		<g id="XMLID_23_">
			<line id="XMLID_28_" class="st0" x1="216" y1="360" x2="216" y2="354"/>
			<line id="XMLID_27_" class="st1" x1="216" y1="341.6" x2="216" y2="124.7"/>
			<line id="XMLID_26_" class="st0" x1="216" y1="118.5" x2="216" y2="112.5"/>
			<g id="XMLID_24_">
				<path id="XMLID_25_" d="M216,109.5c0.5,1.4,1.4,3.2,2.4,4.3l-2.4-0.9l-2.4,0.9C214.6,112.7,215.5,110.9,216,109.5z"/>
			</g>
		</g>
	</g>
	<g id="XMLID_11_">
		<g id="XMLID_29_">
			<line id="XMLID_32_" class="st2" x1="216" y1="360" x2="455.5" y2="360"/>
			<g id="XMLID_30_">
				<path id="XMLID_31_" d="M458.5,360c-1.4,0.5-3.2,1.4-4.3,2.4l0.9-2.4l-0.9-2.4C455.3,358.6,457.1,359.5,458.5,360z"/>
			</g>
		</g>
	</g>
	<g id="XMLID_15_">
		<defs>
			<rect id="XMLID_16_" x="345.1" y="380.2" width="4.1" height="8"/>
		</defs>
		<clipPath id="XMLID_136_">
			<use xlink:href="#XMLID_16_"  style="overflow:visible;"/>
		</clipPath>
		<path id="XMLID_17_" class="st3" d="M347.3,383h1.1c0.2,0,0.4,0,0.4-0.2c0-0.1-0.1-0.1-0.3-0.1h-1c0.4-1.7,0.5-1.9,0.5-2
			c0-0.2-0.1-0.3-0.3-0.3c0,0-0.4,0-0.5,0.4l-0.5,1.9h-1.1c-0.2,0-0.4,0-0.4,0.2c0,0.1,0.1,0.1,0.3,0.1h1c-0.9,3.4-0.9,3.6-0.9,3.8
			c0,0.6,0.5,1.1,1.1,1.1c1.2,0,1.9-1.7,1.9-1.8c0-0.1-0.1-0.1-0.1-0.1c-0.1,0-0.1,0-0.2,0.2c-0.5,1.2-1.1,1.5-1.5,1.5
			c-0.2,0-0.4-0.2-0.4-0.5c0-0.3,0-0.4,0.1-0.6L347.3,383"/>
	</g>
	<line id="XMLID_12_" class="st4" x1="288.1" y1="365.5" x2="288.1" y2="355.7"/>
	<line id="XMLID_13_" class="st4" x1="360.1" y1="364.7" x2="360.1" y2="354.9"/>
	<line id="XMLID_14_" class="st4" x1="432" y1="364.9" x2="432" y2="355.1"/>
	<line id="XMLID_18_" class="st0" x1="210" y1="216" x2="221.5" y2="216"/>
	<line id="XMLID_40_" class="st0" x1="210" y1="288" x2="221.5" y2="288"/>
	<line id="XMLID_41_" class="st0" x1="210.2" y1="143.9" x2="221.8" y2="143.9"/>
	<g id="XMLID_42_">
		<defs>
			<rect id="XMLID_43_" x="202.9" y="285" width="3.1" height="6"/>
		</defs>
		<clipPath id="XMLID_137_">
			<use xlink:href="#XMLID_43_"  style="overflow:visible;"/>
		</clipPath>
		<path id="XMLID_44_" class="st5" d="M204.6,285.6c0-0.2,0-0.2-0.2-0.2c-0.5,0.5-1.2,0.5-1.4,0.5v0.2c0.2,0,0.6,0,1-0.2v4.1
			c0,0.3,0,0.4-0.7,0.4H203v0.2c0.3,0,1,0,1.3,0c0.3,0,1,0,1.3,0v-0.2h-0.3c-0.7,0-0.7-0.1-0.7-0.4V285.6"/>
	</g>
	<g id="XMLID_45_">
		<defs>
			<rect id="XMLID_46_" x="202.4" y="213" width="4" height="6"/>
		</defs>
		<clipPath id="XMLID_138_">
			<use xlink:href="#XMLID_46_"  style="overflow:visible;"/>
		</clipPath>
		<path id="XMLID_47_" class="st6" d="M203.5,218.1l0.8-0.8c1.2-1.1,1.7-1.5,1.7-2.3c0-0.9-0.7-1.5-1.7-1.5c-0.9,0-1.5,0.7-1.5,1.4
			c0,0.4,0.4,0.4,0.4,0.4c0.1,0,0.4-0.1,0.4-0.4c0-0.2-0.1-0.4-0.4-0.4c-0.1,0-0.1,0-0.1,0c0.2-0.5,0.6-0.8,1.1-0.8
			c0.7,0,1.1,0.6,1.1,1.3c0,0.6-0.4,1.3-0.8,1.8l-1.5,1.7c-0.1,0.1-0.1,0.1-0.1,0.3h2.9l0.2-1.4h-0.2c0,0.2-0.1,0.6-0.2,0.7
			c-0.1,0.1-0.6,0.1-0.8,0.1H203.5"/>
	</g>
	<g id="XMLID_48_">
		<defs>
			<rect id="XMLID_49_" x="202.4" y="140.5" width="4" height="6"/>
		</defs>
		<clipPath id="XMLID_139_">
			<use xlink:href="#XMLID_49_"  style="overflow:visible;"/>
		</clipPath>
		<path id="XMLID_50_" class="st7" d="M204.8,143.4c0.7-0.2,1.1-0.8,1.1-1.4c0-0.7-0.7-1.1-1.5-1.1c-0.8,0-1.4,0.5-1.4,1.1
			c0,0.3,0.2,0.4,0.4,0.4c0.2,0,0.4-0.2,0.4-0.4c0-0.4-0.4-0.4-0.5-0.4c0.2-0.4,0.8-0.5,1.1-0.5c0.3,0,0.8,0.2,0.8,0.9
			c0,0.1,0,0.6-0.2,0.9c-0.2,0.4-0.5,0.4-0.7,0.4c-0.1,0-0.3,0-0.3,0c-0.1,0-0.1,0-0.1,0.1c0,0.1,0.1,0.1,0.2,0.1h0.4
			c0.7,0,0.9,0.5,0.9,1.3c0,1.1-0.5,1.3-0.9,1.3c-0.3,0-0.9-0.1-1.2-0.6c0.3,0,0.5-0.1,0.5-0.4c0-0.3-0.2-0.4-0.4-0.4
			c-0.2,0-0.4,0.1-0.4,0.5c0,0.7,0.7,1.2,1.6,1.2c1,0,1.7-0.7,1.7-1.5C206.2,144.2,205.7,143.6,204.8,143.4"/>
	</g>
	<circle id="XMLID_1_" cx="288.2" cy="321" r="2.2"/>
	<circle id="XMLID_2_" cx="360.1" cy="216" r="2.2"/>
	<circle id="XMLID_4_" cx="432" cy="256.5" r="2.2"/>
	<circle id="XMLID_5_" cx="216" cy="360" r="2.2"/>
	<g id="XMLID_7_">
		<defs>
			<rect id="XMLID_8_" x="221.5" y="350.1" width="9.5" height="6.6"/>
		</defs>
		<clipPath id="XMLID_140_">
			<use xlink:href="#XMLID_8_"  style="overflow:visible;"/>
		</clipPath>
		<path id="XMLID_54_" class="st8" d="M223.8,352.9c0-0.2,0.2-0.7,0.6-0.7c0,0,0.2,0,0.3,0.1c-0.2,0-0.3,0.2-0.3,0.3
			c0,0.1,0.1,0.2,0.2,0.2c0.1,0,0.3-0.1,0.3-0.3c0-0.3-0.4-0.4-0.6-0.4c-0.3,0-0.6,0.3-0.6,0.5c-0.1-0.4-0.5-0.5-0.6-0.5
			c-0.6,0-1,0.8-1,0.9c0,0.1,0.1,0.1,0.1,0.1c0,0,0.1,0,0.1-0.1c0.2-0.6,0.6-0.8,0.8-0.8c0.1,0,0.3,0.1,0.3,0.4
			c0,0.2-0.1,0.6-0.3,1.4c-0.1,0.4-0.3,0.6-0.6,0.6c0,0-0.2,0-0.3-0.1c0.1,0,0.3-0.2,0.3-0.3c0-0.2-0.1-0.2-0.2-0.2
			c-0.2,0-0.3,0.2-0.3,0.3c0,0.3,0.3,0.4,0.6,0.4c0.4,0,0.6-0.4,0.6-0.5c0.1,0.2,0.3,0.5,0.6,0.5c0.6,0,1-0.8,1-0.9
			c0-0.1-0.1-0.1-0.1-0.1c-0.1,0-0.1,0-0.1,0.1c-0.2,0.6-0.6,0.8-0.8,0.8c-0.2,0-0.3-0.2-0.3-0.4c0-0.1,0-0.3,0.1-0.5L223.8,352.9"
			/>
		<polyline id="XMLID_53_" class="st8" points="226.7,356.2 226.7,356 226.1,356 226.1,350.5 226.7,350.5 226.7,350.3 225.9,350.3 
			225.9,356.2 226.7,356.2 		"/>
		<path id="XMLID_10_" class="st8" d="M228.3,354.7c-0.2,0-0.6-0.1-0.7-0.7c-0.1-0.4-0.1-0.9-0.1-1.3c0-0.4,0-0.8,0-1.1
			c0.1-0.7,0.6-0.8,0.7-0.8c0.2,0,0.6,0.1,0.7,0.7c0.1,0.3,0.1,0.8,0.1,1.2c0,0.4,0,0.9-0.1,1.2
			C228.9,354.6,228.6,354.7,228.3,354.7 M229.5,352.8c0-0.5,0-1-0.2-1.4c-0.3-0.6-0.8-0.7-1-0.7c-0.4,0-0.8,0.2-1,0.7
			c-0.2,0.4-0.2,0.9-0.2,1.4c0,0.4,0,1,0.3,1.4c0.3,0.5,0.7,0.6,1,0.6c0.3,0,0.8-0.1,1-0.7C229.5,353.8,229.5,353.3,229.5,352.8z"/>
		<polyline id="XMLID_9_" class="st8" points="230.7,350.3 229.9,350.3 229.9,350.5 230.5,350.5 230.5,356 229.9,356 229.9,356.2 
			230.7,356.2 230.7,350.3 		"/>
	</g>
	<g id="XMLID_55_">
		<defs>
			<rect id="XMLID_56_" x="283.3" y="308.8" width="9.5" height="6.6"/>
		</defs>
		<clipPath id="XMLID_141_">
			<use xlink:href="#XMLID_56_"  style="overflow:visible;"/>
		</clipPath>
		<path id="XMLID_60_" class="st9" d="M285.6,311.6c0-0.2,0.2-0.7,0.6-0.7c0,0,0.2,0,0.3,0.1c-0.2,0-0.3,0.2-0.3,0.3
			c0,0.1,0.1,0.2,0.2,0.2c0.1,0,0.3-0.1,0.3-0.3c0-0.3-0.4-0.4-0.6-0.4c-0.3,0-0.6,0.3-0.6,0.5c-0.1-0.4-0.5-0.5-0.6-0.5
			c-0.6,0-1,0.8-1,0.9c0,0.1,0.1,0.1,0.1,0.1c0,0,0.1,0,0.1-0.1c0.2-0.6,0.6-0.8,0.8-0.8c0.1,0,0.3,0.1,0.3,0.4
			c0,0.2-0.1,0.6-0.3,1.4c-0.1,0.4-0.3,0.6-0.6,0.6c0,0-0.2,0-0.3-0.1c0.2,0,0.3-0.2,0.3-0.3c0-0.2-0.1-0.2-0.2-0.2
			c-0.2,0-0.3,0.2-0.3,0.3c0,0.3,0.3,0.4,0.6,0.4c0.4,0,0.6-0.4,0.6-0.5c0.1,0.2,0.3,0.5,0.6,0.5c0.6,0,1-0.8,1-0.9
			c0-0.1-0.1-0.1-0.1-0.1c-0.1,0-0.1,0-0.1,0.1c-0.2,0.6-0.6,0.8-0.8,0.8c-0.2,0-0.3-0.2-0.3-0.4c0-0.1,0-0.3,0.1-0.5L285.6,311.6"
			/>
		<polyline id="XMLID_59_" class="st9" points="288.5,314.9 288.5,314.7 288,314.7 288,309.2 288.5,309.2 288.5,308.9 287.7,308.9 
			287.7,314.9 288.5,314.9 		"/>
		<path id="XMLID_58_" class="st9" d="M290.4,309.6c0-0.1,0-0.2-0.1-0.2c-0.4,0.4-0.9,0.4-1.1,0.4v0.2c0.1,0,0.5,0,0.8-0.2v3.1
			c0,0.2,0,0.3-0.6,0.3h-0.2v0.2c0.2,0,0.7,0,1,0c0.2,0,0.8,0,1,0v-0.2h-0.2c-0.5,0-0.6-0.1-0.6-0.3V309.6"/>
		<polyline id="XMLID_57_" class="st9" points="292.6,308.9 291.8,308.9 291.8,309.2 292.3,309.2 292.3,314.7 291.8,314.7 
			291.8,314.9 292.6,314.9 292.6,308.9 		"/>
	</g>
	<g id="XMLID_61_">
		<defs>
			<rect id="XMLID_62_" x="355.3" y="202.3" width="9.5" height="6.6"/>
		</defs>
		<clipPath id="XMLID_142_">
			<use xlink:href="#XMLID_62_"  style="overflow:visible;"/>
		</clipPath>
		<path id="XMLID_66_" class="st10" d="M357.6,205.2c0-0.2,0.2-0.7,0.6-0.7c0,0,0.2,0,0.3,0.1c-0.2,0-0.3,0.2-0.3,0.3
			c0,0.1,0.1,0.2,0.2,0.2c0.1,0,0.3-0.1,0.3-0.3c0-0.3-0.4-0.4-0.6-0.4c-0.3,0-0.6,0.3-0.6,0.5c-0.1-0.4-0.5-0.5-0.6-0.5
			c-0.6,0-1,0.8-1,0.9c0,0.1,0.1,0.1,0.1,0.1c0,0,0.1,0,0.1-0.1c0.2-0.6,0.6-0.8,0.8-0.8c0.1,0,0.3,0.1,0.3,0.4
			c0,0.2-0.1,0.6-0.3,1.4c-0.1,0.4-0.3,0.6-0.6,0.6c0,0-0.2,0-0.3-0.1c0.2,0,0.3-0.2,0.3-0.3c0-0.2-0.1-0.2-0.2-0.2
			c-0.2,0-0.3,0.2-0.3,0.3c0,0.3,0.3,0.4,0.6,0.4c0.4,0,0.6-0.4,0.6-0.5c0.1,0.2,0.3,0.5,0.6,0.5c0.6,0,1-0.8,1-0.9
			c0-0.1-0.1-0.1-0.1-0.1c-0.1,0-0.1,0-0.1,0.1c-0.2,0.6-0.6,0.8-0.8,0.8c-0.2,0-0.3-0.2-0.3-0.4c0-0.1,0-0.3,0.1-0.5L357.6,205.2"
			/>
		<polyline id="XMLID_65_" class="st10" points="360.5,208.5 360.5,208.2 360,208.2 360,202.8 360.5,202.8 360.5,202.5 359.7,202.5 
			359.7,208.5 360.5,208.5 		"/>
		<path id="XMLID_64_" class="st10" d="M361.4,206.5l0.6-0.6c0.9-0.8,1.3-1.1,1.3-1.7c0-0.7-0.5-1.2-1.3-1.2c-0.7,0-1.1,0.5-1.1,1.1
			c0,0.3,0.3,0.3,0.3,0.3c0.1,0,0.3-0.1,0.3-0.3c0-0.2-0.1-0.3-0.3-0.3c0,0-0.1,0-0.1,0c0.1-0.4,0.5-0.6,0.8-0.6
			c0.5,0,0.8,0.5,0.8,1c0,0.5-0.3,0.9-0.6,1.3l-1.1,1.3c-0.1,0.1-0.1,0.1-0.1,0.2h2.2l0.2-1h-0.2c0,0.2-0.1,0.4-0.1,0.5
			c0,0-0.4,0-0.6,0H361.4"/>
		<polyline id="XMLID_63_" class="st10" points="364.6,202.5 363.8,202.5 363.8,202.8 364.3,202.8 364.3,208.2 363.8,208.2 
			363.8,208.5 364.6,208.5 364.6,202.5 		"/>
	</g>
	<g id="XMLID_67_">
		<defs>
			<rect id="XMLID_68_" x="432" y="243.8" width="9.5" height="6.6"/>
		</defs>
		<clipPath id="XMLID_143_">
			<use xlink:href="#XMLID_68_"  style="overflow:visible;"/>
		</clipPath>
		<path id="XMLID_72_" class="st11" d="M434.3,246.7c0-0.2,0.2-0.7,0.6-0.7c0,0,0.2,0,0.3,0.1c-0.2,0-0.3,0.2-0.3,0.3
			c0,0.1,0.1,0.2,0.2,0.2c0.1,0,0.3-0.1,0.3-0.3c0-0.3-0.4-0.4-0.6-0.4c-0.3,0-0.6,0.3-0.6,0.5c-0.1-0.4-0.5-0.5-0.6-0.5
			c-0.6,0-1,0.8-1,0.9c0,0.1,0.1,0.1,0.1,0.1c0,0,0.1,0,0.1-0.1c0.2-0.6,0.6-0.8,0.8-0.8c0.1,0,0.3,0.1,0.3,0.4
			c0,0.2-0.1,0.6-0.3,1.4c-0.1,0.4-0.3,0.6-0.6,0.6c0,0-0.2,0-0.3-0.1c0.1,0,0.3-0.2,0.3-0.3c0-0.2-0.1-0.2-0.2-0.2
			c-0.2,0-0.3,0.2-0.3,0.3c0,0.3,0.3,0.4,0.6,0.4c0.4,0,0.6-0.4,0.6-0.5c0.1,0.2,0.3,0.5,0.6,0.5c0.6,0,1-0.8,1-0.9
			c0-0.1-0.1-0.1-0.1-0.1c-0.1,0-0.1,0-0.1,0.1c-0.2,0.6-0.6,0.8-0.8,0.8c-0.2,0-0.3-0.2-0.3-0.4c0-0.1,0-0.3,0.1-0.5L434.3,246.7"
			/>
		<polyline id="XMLID_71_" class="st11" points="437.2,250 437.2,249.7 436.6,249.7 436.6,244.2 437.2,244.2 437.2,244 436.4,244 
			436.4,250 437.2,250 		"/>
		<path id="XMLID_70_" class="st11" d="M439,246.4c0.5-0.2,0.8-0.6,0.8-1c0-0.5-0.5-0.8-1.1-0.8c-0.6,0-1.1,0.4-1.1,0.8
			c0,0.2,0.1,0.3,0.3,0.3c0.2,0,0.3-0.1,0.3-0.3c0-0.3-0.3-0.3-0.4-0.3c0.2-0.3,0.6-0.4,0.8-0.4c0.2,0,0.6,0.1,0.6,0.7
			c0,0.1,0,0.4-0.2,0.7c-0.2,0.3-0.4,0.3-0.5,0.3c0,0-0.2,0-0.2,0c0,0-0.1,0-0.1,0.1c0,0.1,0,0.1,0.1,0.1h0.3c0.5,0,0.7,0.4,0.7,1
			c0,0.8-0.4,1-0.7,1c-0.3,0-0.7-0.1-0.9-0.5c0.2,0,0.4-0.1,0.4-0.3c0-0.2-0.2-0.3-0.3-0.3c-0.1,0-0.3,0.1-0.3,0.3
			c0,0.5,0.6,0.9,1.2,0.9c0.7,0,1.3-0.5,1.3-1.1C440,247,439.6,246.5,439,246.4"/>
		<polyline id="XMLID_69_" class="st11" points="441.2,244 440.4,244 440.4,244.2 441,244.2 441,249.7 440.4,249.7 440.4,250 
			441.2,250 441.2,244 		"/>
	</g>
	<g id="XMLID_19_">
		<defs>
			<rect id="XMLID_20_" x="283.5" y="370" width="10" height="6"/>
		</defs>
		<clipPath id="XMLID_144_">
			<use xlink:href="#XMLID_20_"  style="overflow:visible;"/>
		</clipPath>
		<path id="XMLID_35_" class="st12" d="M285.7,375.7c-0.3,0-0.8-0.2-0.9-1c-0.1-0.5-0.1-1.2-0.1-1.7c0-0.5,0-1,0.1-1.5
			c0.2-0.9,0.7-1,0.9-1c0.3,0,0.8,0.1,0.9,0.9c0.1,0.4,0.1,1,0.1,1.5c0,0.6,0,1.1-0.1,1.6C286.5,375.5,286,375.7,285.7,375.7
			 M287.4,373.2c0-0.6,0-1.3-0.3-1.9c-0.4-0.8-1-0.9-1.4-0.9c-0.5,0-1.1,0.2-1.4,0.9c-0.3,0.5-0.3,1.2-0.3,1.8c0,0.6,0,1.3,0.4,1.9
			c0.3,0.6,0.9,0.8,1.3,0.8c0.4,0,1-0.2,1.4-0.9C287.3,374.4,287.4,373.8,287.4,373.2z"/>
		<path id="XMLID_34_" class="st12" d="M289.1,375.3c0-0.2-0.2-0.4-0.4-0.4c-0.2,0-0.4,0.2-0.4,0.4c0,0.2,0.2,0.4,0.4,0.4
			C288.9,375.7,289.1,375.5,289.1,375.3"/>
		<path id="XMLID_33_" class="st12" d="M292.2,370.6c0-0.2,0-0.2-0.2-0.2c-0.5,0.5-1.2,0.5-1.4,0.5v0.2c0.2,0,0.6,0,1-0.2v4.1
			c0,0.3,0,0.4-0.7,0.4h-0.3v0.2c0.3,0,1,0,1.3,0c0.3,0,1,0,1.3,0v-0.2H293c-0.7,0-0.7-0.1-0.7-0.4V370.6"/>
	</g>
	<g id="XMLID_74_">
		<defs>
			<rect id="XMLID_75_" x="355.1" y="369" width="10" height="6"/>
		</defs>
		<clipPath id="XMLID_145_">
			<use xlink:href="#XMLID_75_"  style="overflow:visible;"/>
		</clipPath>
		<path id="XMLID_78_" class="st13" d="M357.3,374.7c-0.3,0-0.8-0.2-0.9-1c-0.1-0.5-0.1-1.2-0.1-1.7c0-0.5,0-1,0.1-1.5
			c0.2-0.9,0.7-1,0.9-1c0.3,0,0.8,0.1,0.9,0.9c0.1,0.4,0.1,1,0.1,1.5c0,0.6,0,1.1-0.1,1.6C358.1,374.5,357.6,374.7,357.3,374.7
			 M359,372.2c0-0.6,0-1.3-0.3-1.9c-0.4-0.8-1-0.9-1.4-0.9c-0.5,0-1.1,0.2-1.4,0.9c-0.3,0.5-0.3,1.2-0.3,1.8c0,0.6,0,1.3,0.4,1.9
			c0.3,0.6,0.9,0.8,1.3,0.8c0.4,0,1-0.2,1.4-0.9C358.9,373.4,359,372.8,359,372.2z"/>
		<path id="XMLID_77_" class="st13" d="M360.7,374.3c0-0.2-0.2-0.4-0.4-0.4c-0.2,0-0.4,0.2-0.4,0.4c0,0.2,0.2,0.4,0.4,0.4
			C360.5,374.7,360.7,374.5,360.7,374.3"/>
		<path id="XMLID_76_" class="st13" d="M362.5,374.1l0.8-0.8c1.2-1.1,1.7-1.5,1.7-2.3c0-0.9-0.7-1.5-1.7-1.5c-0.9,0-1.5,0.7-1.5,1.4
			c0,0.4,0.4,0.4,0.4,0.4c0.1,0,0.4-0.1,0.4-0.4c0-0.2-0.1-0.4-0.4-0.4c-0.1,0-0.1,0-0.1,0c0.2-0.5,0.6-0.8,1.1-0.8
			c0.7,0,1.1,0.6,1.1,1.3c0,0.6-0.4,1.3-0.8,1.8l-1.5,1.7c-0.1,0.1-0.1,0.1-0.1,0.3h2.9l0.2-1.4h-0.2c0,0.2-0.1,0.6-0.2,0.7
			c-0.1,0.1-0.6,0.1-0.8,0.1H362.5"/>
	</g>
	<g id="XMLID_37_">
		<defs>
			<rect id="XMLID_38_" x="426.5" y="369" width="11" height="6"/>
		</defs>
		<clipPath id="XMLID_146_">
			<use xlink:href="#XMLID_38_"  style="overflow:visible;"/>
		</clipPath>
		<path id="XMLID_82_" class="st14" d="M428.7,374.7c-0.3,0-0.8-0.2-0.9-1c-0.1-0.5-0.1-1.2-0.1-1.7c0-0.5,0-1,0.1-1.5
			c0.2-0.9,0.7-1,0.9-1c0.3,0,0.8,0.1,0.9,0.9c0.1,0.4,0.1,1,0.1,1.5c0,0.6,0,1.1-0.1,1.6C429.5,374.5,429,374.7,428.7,374.7
			 M430.4,372.2c0-0.6,0-1.3-0.3-1.9c-0.4-0.8-1-0.9-1.4-0.9c-0.5,0-1.1,0.2-1.4,0.9c-0.3,0.5-0.3,1.2-0.3,1.8c0,0.6,0,1.3,0.4,1.9
			c0.3,0.6,0.9,0.8,1.3,0.8c0.4,0,1-0.2,1.4-0.9C430.3,373.4,430.4,372.8,430.4,372.2z"/>
		<path id="XMLID_81_" class="st14" d="M432.1,374.3c0-0.2-0.2-0.4-0.4-0.4c-0.2,0-0.4,0.2-0.4,0.4c0,0.2,0.2,0.4,0.4,0.4
			C431.9,374.7,432.1,374.5,432.1,374.3"/>
		<path id="XMLID_39_" class="st14" d="M435.2,371.9c0.7-0.2,1.1-0.8,1.1-1.4c0-0.7-0.7-1.1-1.5-1.1c-0.8,0-1.4,0.5-1.4,1.1
			c0,0.3,0.2,0.4,0.4,0.4c0.2,0,0.4-0.2,0.4-0.4c0-0.4-0.4-0.4-0.5-0.4c0.2-0.4,0.8-0.5,1.1-0.5c0.3,0,0.8,0.2,0.8,0.9
			c0,0.1,0,0.6-0.2,0.9c-0.2,0.4-0.5,0.4-0.7,0.4c-0.1,0-0.3,0-0.3,0c-0.1,0-0.1,0-0.1,0.1c0,0.1,0.1,0.1,0.2,0.1h0.3
			c0.7,0,0.9,0.5,0.9,1.3c0,1.1-0.5,1.3-0.9,1.3c-0.3,0-0.9-0.1-1.2-0.6c0.3,0,0.5-0.1,0.5-0.4c0-0.3-0.2-0.4-0.4-0.4
			c-0.2,0-0.4,0.1-0.4,0.5c0,0.7,0.7,1.2,1.6,1.2c1,0,1.7-0.7,1.7-1.5C436.5,372.7,436,372.1,435.2,371.9"/>
	</g>
	<g id="XMLID_94_">
		<defs>
			<rect id="XMLID_95_" x="277.5" y="347" width="20" height="6"/>
		</defs>
		<clipPath id="XMLID_147_">
			<use xlink:href="#XMLID_95_"  style="overflow:visible;"/>
		</clipPath>
		<path id="XMLID_100_" class="st15" d="M278.5,352.3c0,0.1-0.1,0.3-0.1,0.3c0,0.1,0.1,0.2,0.2,0.2c0.1,0,0.2-0.1,0.3-0.2
			c0,0,0.1-0.4,0.2-0.6l0.2-0.7c0-0.2,0.1-0.3,0.1-0.5c0-0.1,0.1-0.4,0.1-0.4c0.1-0.2,0.5-1,1.3-1c0.4,0,0.4,0.3,0.4,0.6
			c0,0.5-0.4,1.5-0.5,1.9c-0.1,0.2-0.1,0.3-0.1,0.4c0,0.4,0.3,0.7,0.7,0.7c0.7,0,1-1.2,1-1.2c0-0.1-0.1-0.1-0.1-0.1
			c-0.1,0-0.1,0-0.1,0.1c-0.2,0.5-0.4,1-0.8,1c-0.1,0-0.2-0.1-0.2-0.3c0-0.2,0.1-0.4,0.1-0.6c0.1-0.4,0.5-1.3,0.5-1.7
			c0-0.5-0.3-0.9-0.9-0.9c-0.7,0-1.1,0.5-1.2,0.7c0-0.4-0.4-0.7-0.7-0.7c-0.4,0-0.5,0.3-0.6,0.5c-0.1,0.3-0.2,0.7-0.2,0.8
			c0,0.1,0.1,0.1,0.1,0.1c0.1,0,0.1,0,0.1-0.2c0.1-0.6,0.3-0.9,0.6-0.9c0.2,0,0.2,0.1,0.2,0.4c0,0.2,0,0.3-0.1,0.7L278.5,352.3"/>
		<path id="XMLID_97_" class="st15" d="M290.3,351.7c0.1,0,0.3,0,0.3-0.2c0-0.2-0.2-0.2-0.3-0.2h-4.7c-0.1,0-0.3,0-0.3,0.2
			c0,0.2,0.2,0.2,0.3,0.2H290.3 M290.3,350.1c0.1,0,0.3,0,0.3-0.2s-0.2-0.2-0.3-0.2h-4.8c-0.1,0-0.3,0-0.3,0.2s0.2,0.2,0.3,0.2
			H290.3z"/>
		<path id="XMLID_96_" class="st15" d="M295.6,347.6c0-0.2,0-0.2-0.2-0.2c-0.5,0.5-1.2,0.5-1.4,0.5v0.2c0.2,0,0.6,0,1-0.2v4.1
			c0,0.3,0,0.4-0.7,0.4h-0.3v0.2c0.3,0,1,0,1.3,0c0.3,0,1,0,1.3,0v-0.2h-0.3c-0.7,0-0.7-0.1-0.7-0.4V347.6"/>
	</g>
	<g id="XMLID_85_">
		<defs>
			<rect id="XMLID_86_" x="350.1" y="347.1" width="20" height="6"/>
		</defs>
		<clipPath id="XMLID_148_">
			<use xlink:href="#XMLID_86_"  style="overflow:visible;"/>
		</clipPath>
		<path id="XMLID_91_" class="st16" d="M351.1,352.3c0,0.1-0.1,0.3-0.1,0.3c0,0.1,0.1,0.2,0.2,0.2c0.1,0,0.2-0.1,0.3-0.2
			c0,0,0.1-0.4,0.2-0.6l0.2-0.7c0-0.2,0.1-0.3,0.1-0.5c0-0.1,0.1-0.4,0.1-0.4c0.1-0.2,0.5-1,1.3-1c0.4,0,0.4,0.3,0.4,0.6
			c0,0.5-0.4,1.5-0.5,1.9c-0.1,0.2-0.1,0.3-0.1,0.4c0,0.4,0.3,0.7,0.7,0.7c0.7,0,1-1.2,1-1.2c0-0.1-0.1-0.1-0.1-0.1
			c-0.1,0-0.1,0-0.1,0.1c-0.2,0.5-0.4,1-0.8,1c-0.1,0-0.2-0.1-0.2-0.3c0-0.2,0.1-0.4,0.1-0.6c0.1-0.4,0.5-1.3,0.5-1.7
			c0-0.5-0.3-0.9-0.9-0.9c-0.7,0-1.1,0.5-1.2,0.7c0-0.4-0.4-0.7-0.7-0.7c-0.4,0-0.5,0.3-0.6,0.5c-0.1,0.3-0.2,0.7-0.2,0.8
			c0,0.1,0.1,0.1,0.1,0.1c0.1,0,0.1,0,0.1-0.2c0.1-0.6,0.3-0.9,0.6-0.9c0.2,0,0.2,0.1,0.2,0.4c0,0.2,0,0.3-0.1,0.7L351.1,352.3"/>
		<path id="XMLID_88_" class="st16" d="M362.9,351.7c0.1,0,0.3,0,0.3-0.2s-0.2-0.2-0.3-0.2h-4.7c-0.1,0-0.3,0-0.3,0.2
			s0.1,0.2,0.3,0.2H362.9 M362.9,350.2c0.1,0,0.3,0,0.3-0.2c0-0.2-0.2-0.2-0.3-0.2h-4.8c-0.1,0-0.3,0-0.3,0.2c0,0.2,0.1,0.2,0.3,0.2
			H362.9z"/>
		<path id="XMLID_87_" class="st16" d="M366.9,352.2l0.8-0.8c1.2-1.1,1.7-1.5,1.7-2.3c0-0.9-0.7-1.5-1.7-1.5c-0.9,0-1.5,0.7-1.5,1.4
			c0,0.4,0.4,0.4,0.4,0.4c0.1,0,0.4-0.1,0.4-0.4c0-0.2-0.1-0.4-0.4-0.4c-0.1,0-0.1,0-0.1,0c0.2-0.5,0.6-0.8,1.1-0.8
			c0.7,0,1.1,0.6,1.1,1.3c0,0.6-0.4,1.3-0.8,1.8l-1.5,1.7c-0.1,0.1-0.1,0.1-0.1,0.3h2.9l0.2-1.4h-0.2c0,0.2-0.1,0.6-0.2,0.7
			c-0.1,0.1-0.6,0.1-0.8,0.1H366.9"/>
	</g>
	<g id="XMLID_92_">
		<defs>
			<rect id="XMLID_93_" x="422" y="347" width="20" height="6"/>
		</defs>
		<clipPath id="XMLID_149_">
			<use xlink:href="#XMLID_93_"  style="overflow:visible;"/>
		</clipPath>
		<path id="XMLID_105_" class="st17" d="M423,352.3c0,0.1-0.1,0.3-0.1,0.3c0,0.1,0.1,0.2,0.2,0.2c0.1,0,0.2-0.1,0.3-0.2
			c0,0,0.1-0.4,0.2-0.6l0.2-0.7c0-0.2,0.1-0.3,0.1-0.5c0-0.1,0.1-0.4,0.1-0.4c0.1-0.2,0.5-1,1.3-1c0.4,0,0.4,0.3,0.4,0.6
			c0,0.5-0.4,1.5-0.5,1.9c-0.1,0.2-0.1,0.3-0.1,0.4c0,0.4,0.3,0.7,0.7,0.7c0.7,0,1-1.2,1-1.2c0-0.1-0.1-0.1-0.1-0.1
			c-0.1,0-0.1,0-0.1,0.1c-0.2,0.5-0.4,1-0.8,1c-0.1,0-0.2-0.1-0.2-0.3c0-0.2,0.1-0.4,0.1-0.6c0.1-0.4,0.5-1.3,0.5-1.7
			c0-0.5-0.3-0.9-0.9-0.9c-0.7,0-1.1,0.5-1.2,0.7c0-0.4-0.4-0.7-0.7-0.7c-0.4,0-0.5,0.3-0.6,0.5c-0.1,0.3-0.2,0.7-0.2,0.8
			c0,0.1,0.1,0.1,0.1,0.1c0.1,0,0.1,0,0.1-0.2c0.1-0.6,0.3-0.9,0.6-0.9c0.2,0,0.2,0.1,0.2,0.4c0,0.2,0,0.3-0.1,0.7L423,352.3"/>
		<path id="XMLID_102_" class="st17" d="M434.8,351.7c0.1,0,0.3,0,0.3-0.2c0-0.2-0.2-0.2-0.3-0.2H430c-0.1,0-0.3,0-0.3,0.2
			c0,0.2,0.2,0.2,0.3,0.2H434.8 M434.8,350.1c0.1,0,0.3,0,0.3-0.2s-0.2-0.2-0.3-0.2H430c-0.1,0-0.3,0-0.3,0.2s0.2,0.2,0.3,0.2H434.8
			z"/>
		<path id="XMLID_101_" class="st17" d="M440.1,349.9c0.7-0.2,1.1-0.8,1.1-1.4c0-0.7-0.7-1.1-1.5-1.1c-0.8,0-1.4,0.5-1.4,1.1
			c0,0.3,0.2,0.4,0.4,0.4c0.2,0,0.4-0.2,0.4-0.4c0-0.4-0.4-0.4-0.5-0.4c0.2-0.4,0.8-0.5,1.1-0.5c0.3,0,0.8,0.2,0.8,0.9
			c0,0.1,0,0.6-0.2,0.9c-0.2,0.4-0.5,0.4-0.7,0.4c-0.1,0-0.3,0-0.3,0c-0.1,0-0.1,0-0.1,0.1c0,0.1,0.1,0.1,0.2,0.1h0.4
			c0.7,0,0.9,0.5,0.9,1.3c0,1.1-0.5,1.3-0.9,1.3c-0.3,0-0.9-0.1-1.2-0.6c0.3,0,0.5-0.1,0.5-0.4c0-0.3-0.2-0.4-0.4-0.4
			c-0.2,0-0.4,0.1-0.4,0.5c0,0.7,0.7,1.2,1.6,1.2c1,0,1.7-0.7,1.7-1.5C441.4,350.7,440.9,350.1,440.1,349.9"/>
	</g>
	<circle id="XMLID_6_" cx="215.8" cy="288" r="2.2"/>
	<circle id="XMLID_106_" cx="288.1" cy="250.4" r="2.2"/>
	<circle id="XMLID_107_" cx="360.1" cy="143.9" r="2.2"/>
	<circle id="XMLID_108_" cx="432" cy="185" r="2.2"/>
	<g id="XMLID_110_">
		<defs>
			<rect id="XMLID_111_" x="283.5" y="236.8" width="9.5" height="6.6"/>
		</defs>
		<clipPath id="XMLID_150_">
			<use xlink:href="#XMLID_111_"  style="overflow:visible;"/>
		</clipPath>
		<path id="XMLID_115_" class="st18" d="M286.8,239.2c0-0.1,0-0.1,0-0.1c0-0.1-0.1-0.2-0.2-0.2c-0.1,0-0.2,0-0.2,0.1
			c0,0-0.1,0.2-0.1,0.3c0,0.2-0.1,0.3-0.1,0.5l-0.3,1.1c0,0.1-0.3,0.5-0.7,0.5c-0.3,0-0.4-0.3-0.4-0.5c0-0.3,0.1-0.6,0.3-1.2
			c0.1-0.2,0.1-0.3,0.1-0.4c0-0.3-0.2-0.5-0.5-0.5c-0.6,0-0.8,0.9-0.8,0.9c0,0.1,0.1,0.1,0.1,0.1c0.1,0,0.1,0,0.1-0.1
			c0.2-0.6,0.4-0.7,0.6-0.7c0,0,0.1,0,0.1,0.2c0,0.1-0.1,0.3-0.1,0.4c-0.2,0.6-0.3,1-0.3,1.3c0,0.5,0.4,0.7,0.7,0.7
			c0.2,0,0.4-0.1,0.6-0.3c-0.1,0.3-0.1,0.6-0.4,0.9c-0.2,0.2-0.4,0.4-0.7,0.4c-0.1,0-0.4,0-0.5-0.3c0.1,0,0.2,0,0.3-0.1
			c0.1-0.1,0.1-0.1,0.1-0.2c0-0.2-0.2-0.2-0.2-0.2c-0.1,0-0.3,0.1-0.3,0.4c0,0.3,0.3,0.5,0.6,0.5c0.6,0,1.2-0.5,1.4-1.2L286.8,239.2
			"/>
		<polyline id="XMLID_114_" class="st18" points="288.5,243 288.5,242.7 287.9,242.7 287.9,237.2 288.5,237.2 288.5,237 287.7,237 
			287.7,243 288.5,243 		"/>
		<path id="XMLID_113_" class="st18" d="M290.4,237.6c0-0.1,0-0.2-0.1-0.2c-0.4,0.4-0.9,0.4-1.1,0.4v0.2c0.1,0,0.5,0,0.8-0.2v3.1
			c0,0.2,0,0.3-0.6,0.3h-0.2v0.2c0.2,0,0.7,0,1,0c0.2,0,0.8,0,1,0v-0.2H291c-0.5,0-0.6-0.1-0.6-0.3V237.6"/>
		<polyline id="XMLID_112_" class="st18" points="292.6,237 291.8,237 291.8,237.2 292.4,237.2 292.4,242.7 291.8,242.7 291.8,243 
			292.6,243 292.6,237 		"/>
	</g>
	<g id="XMLID_122_">
		<defs>
			<rect id="XMLID_123_" x="221.5" y="278.4" width="9.5" height="6.6"/>
		</defs>
		<clipPath id="XMLID_151_">
			<use xlink:href="#XMLID_123_"  style="overflow:visible;"/>
		</clipPath>
		<path id="XMLID_129_" class="st19" d="M224.8,280.8c0-0.1,0-0.1,0-0.1c0-0.1-0.1-0.2-0.2-0.2c-0.1,0-0.2,0-0.2,0.1
			c0,0-0.1,0.2-0.1,0.3c0,0.2-0.1,0.3-0.1,0.5l-0.3,1.1c0,0.1-0.3,0.5-0.7,0.5c-0.3,0-0.4-0.3-0.4-0.5c0-0.3,0.1-0.6,0.3-1.2
			c0.1-0.2,0.1-0.3,0.1-0.4c0-0.3-0.2-0.5-0.5-0.5c-0.6,0-0.8,0.9-0.8,0.9c0,0.1,0.1,0.1,0.1,0.1c0.1,0,0.1,0,0.1-0.1
			c0.2-0.6,0.4-0.7,0.6-0.7c0,0,0.1,0,0.1,0.2c0,0.1-0.1,0.3-0.1,0.4c-0.2,0.6-0.3,1-0.3,1.3c0,0.5,0.4,0.7,0.7,0.7
			c0.2,0,0.4-0.1,0.6-0.3c-0.1,0.3-0.2,0.6-0.4,0.9c-0.2,0.2-0.4,0.4-0.7,0.4c-0.1,0-0.4,0-0.5-0.3c0.1,0,0.2,0,0.3-0.1
			c0.1-0.1,0.1-0.1,0.1-0.2c0-0.2-0.2-0.2-0.2-0.2c-0.1,0-0.3,0.1-0.3,0.4c0,0.3,0.3,0.5,0.6,0.5c0.6,0,1.2-0.5,1.4-1.2L224.8,280.8
			"/>
		<polyline id="XMLID_128_" class="st19" points="226.5,284.5 226.5,284.3 225.9,284.3 225.9,278.8 226.5,278.8 226.5,278.6 
			225.7,278.6 225.7,284.5 226.5,284.5 		"/>
		<path id="XMLID_125_" class="st19" d="M228.2,283.1c-0.2,0-0.6-0.1-0.7-0.7c-0.1-0.4-0.1-0.9-0.1-1.3c0-0.4,0-0.8,0-1.1
			c0.1-0.7,0.6-0.8,0.7-0.8c0.2,0,0.6,0.1,0.7,0.7c0.1,0.3,0.1,0.8,0.1,1.2c0,0.4,0,0.9-0.1,1.2
			C228.8,282.9,228.5,283.1,228.2,283.1 M229.4,281.1c0-0.5,0-1-0.2-1.4c-0.3-0.6-0.8-0.7-1-0.7c-0.4,0-0.8,0.2-1,0.7
			c-0.2,0.4-0.2,0.9-0.2,1.4c0,0.4,0,1,0.3,1.4c0.3,0.5,0.7,0.6,1,0.6c0.3,0,0.8-0.1,1-0.7C229.4,282.1,229.4,281.6,229.4,281.1z"/>
		<polyline id="XMLID_124_" class="st19" points="230.6,278.6 229.8,278.6 229.8,278.8 230.4,278.8 230.4,284.3 229.8,284.3 
			229.8,284.5 230.6,284.5 230.6,278.6 		"/>
	</g>
	<g id="XMLID_116_">
		<defs>
			<rect id="XMLID_117_" x="355.3" y="133.9" width="9.5" height="6.6"/>
		</defs>
		<clipPath id="XMLID_152_">
			<use xlink:href="#XMLID_117_"  style="overflow:visible;"/>
		</clipPath>
		<path id="XMLID_121_" class="st20" d="M358.6,136.3c0-0.1,0-0.1,0-0.1c0-0.1-0.1-0.2-0.2-0.2c-0.1,0-0.2,0-0.2,0.1
			c0,0-0.1,0.2-0.1,0.3c0,0.2-0.1,0.3-0.1,0.5l-0.3,1.1c0,0.1-0.3,0.5-0.7,0.5c-0.3,0-0.4-0.3-0.4-0.5c0-0.3,0.1-0.6,0.3-1.2
			c0.1-0.2,0.1-0.3,0.1-0.4c0-0.3-0.2-0.5-0.5-0.5c-0.6,0-0.8,0.9-0.8,0.9c0,0.1,0.1,0.1,0.1,0.1c0.1,0,0.1,0,0.1-0.1
			c0.2-0.6,0.4-0.7,0.6-0.7c0,0,0.1,0,0.1,0.2c0,0.1-0.1,0.3-0.1,0.4c-0.2,0.6-0.3,1-0.3,1.3c0,0.5,0.4,0.7,0.7,0.7
			c0.2,0,0.4-0.1,0.6-0.3c-0.1,0.3-0.1,0.6-0.4,0.9c-0.2,0.2-0.4,0.4-0.7,0.4c-0.1,0-0.4,0-0.5-0.3c0.1,0,0.2,0,0.3-0.1
			c0.1-0.1,0.1-0.1,0.1-0.2c0-0.2-0.2-0.2-0.2-0.2c-0.1,0-0.3,0.1-0.3,0.4c0,0.3,0.3,0.5,0.6,0.5c0.6,0,1.2-0.5,1.4-1.2L358.6,136.3
			"/>
		<polyline id="XMLID_120_" class="st20" points="360.3,140 360.3,139.8 359.8,139.8 359.8,134.3 360.3,134.3 360.3,134.1 
			359.5,134.1 359.5,140 360.3,140 		"/>
		<path id="XMLID_119_" class="st20" d="M361.3,138.1l0.6-0.6c0.9-0.8,1.3-1.1,1.3-1.7c0-0.7-0.5-1.2-1.3-1.2
			c-0.7,0-1.1,0.5-1.1,1.1c0,0.3,0.3,0.3,0.3,0.3c0.1,0,0.3-0.1,0.3-0.3c0-0.2-0.1-0.3-0.3-0.3c0,0-0.1,0-0.1,0
			c0.1-0.4,0.5-0.6,0.8-0.6c0.5,0,0.8,0.5,0.8,1c0,0.5-0.3,0.9-0.6,1.3l-1.1,1.3c-0.1,0.1-0.1,0.1-0.1,0.2h2.2l0.2-1h-0.1
			c0,0.2-0.1,0.4-0.1,0.5c0,0-0.4,0-0.6,0H361.3"/>
		<polyline id="XMLID_118_" class="st20" points="364.5,134.1 363.7,134.1 363.7,134.3 364.2,134.3 364.2,139.8 363.7,139.8 
			363.7,140 364.5,140 364.5,134.1 		"/>
	</g>
	<g id="XMLID_130_">
		<defs>
			<rect id="XMLID_131_" x="426.5" y="172.8" width="9.5" height="6.6"/>
		</defs>
		<clipPath id="XMLID_153_">
			<use xlink:href="#XMLID_131_"  style="overflow:visible;"/>
		</clipPath>
		<path id="XMLID_135_" class="st21" d="M429.8,175.2c0-0.1,0-0.1,0-0.1c0-0.1-0.1-0.2-0.2-0.2c-0.1,0-0.2,0-0.2,0.1
			c0,0-0.1,0.2-0.1,0.3c0,0.2-0.1,0.3-0.1,0.5l-0.3,1.1c0,0.1-0.3,0.5-0.7,0.5c-0.3,0-0.4-0.3-0.4-0.5c0-0.3,0.1-0.6,0.3-1.2
			c0.1-0.2,0.1-0.3,0.1-0.4c0-0.3-0.2-0.5-0.5-0.5c-0.6,0-0.8,0.9-0.8,0.9c0,0.1,0.1,0.1,0.1,0.1c0.1,0,0.1,0,0.1-0.1
			c0.2-0.6,0.4-0.7,0.6-0.7c0,0,0.1,0,0.1,0.2c0,0.1-0.1,0.3-0.1,0.4c-0.2,0.6-0.3,1-0.3,1.3c0,0.5,0.4,0.7,0.7,0.7
			c0.2,0,0.4-0.1,0.6-0.3c-0.1,0.3-0.1,0.6-0.4,0.9c-0.2,0.2-0.4,0.4-0.7,0.4c-0.1,0-0.4,0-0.5-0.3c0.1,0,0.2,0,0.3-0.1
			c0.1-0.1,0.1-0.1,0.1-0.2c0-0.2-0.2-0.2-0.2-0.2c-0.1,0-0.3,0.1-0.3,0.4c0,0.3,0.3,0.5,0.6,0.5c0.6,0,1.2-0.5,1.4-1.2L429.8,175.2
			"/>
		<polyline id="XMLID_134_" class="st21" points="431.5,179 431.5,178.7 430.9,178.7 430.9,173.2 431.5,173.2 431.5,173 430.7,173 
			430.7,179 431.5,179 		"/>
		<path id="XMLID_133_" class="st21" d="M433.4,175.4c0.5-0.2,0.8-0.6,0.8-1c0-0.5-0.5-0.8-1.1-0.8c-0.6,0-1.1,0.4-1.1,0.8
			c0,0.2,0.1,0.3,0.3,0.3c0.2,0,0.3-0.1,0.3-0.3c0-0.3-0.3-0.3-0.4-0.3c0.2-0.3,0.6-0.4,0.8-0.4c0.2,0,0.6,0.1,0.6,0.7
			c0,0.1,0,0.4-0.2,0.7c-0.2,0.3-0.4,0.3-0.5,0.3c0,0-0.2,0-0.2,0c0,0-0.1,0-0.1,0.1c0,0.1,0,0.1,0.1,0.1h0.3c0.5,0,0.7,0.4,0.7,1
			c0,0.8-0.4,1-0.7,1c-0.3,0-0.7-0.1-0.9-0.5c0.2,0,0.4-0.1,0.4-0.3c0-0.2-0.2-0.3-0.3-0.3c-0.1,0-0.3,0.1-0.3,0.3
			c0,0.5,0.6,0.9,1.2,0.9c0.7,0,1.3-0.5,1.3-1.1C434.4,176,434,175.5,433.4,175.4"/>
		<polyline id="XMLID_132_" class="st21" points="435.6,173 434.8,173 434.8,173.2 435.4,173.2 435.4,178.7 434.8,178.7 434.8,179 
			435.6,179 435.6,173 		"/>
	</g>
</g>
<g id="Layer_4">
</g>
</svg>
