<?xml version="1.0" encoding="utf-8"?>
<!-- Generator: Adobe Illustrator 19.0.0, SVG Export Plug-In . SVG Version: 6.00 Build 0)  -->
<svg version="1.1" xmlns="http://www.w3.org/2000/svg" xmlns:xlink="http://www.w3.org/1999/xlink" x="0px" y="0px"
	 viewBox="0 0 612 792" style="enable-background:new 0 0 612 792;" xml:space="preserve">
<style type="text/css">
	.st0{fill:none;stroke:#6DBE45;stroke-miterlimit:10;}
	.st1{clip-path:url(#XMLID_186_);}
	.st2{fill:none;stroke:#000000;stroke-width:0.5;stroke-miterlimit:10;}
	.st3{fill:none;stroke:#000000;stroke-width:0.5;stroke-miterlimit:10;stroke-dasharray:12.1566,12.1566;}
	.st4{fill:none;stroke:#000000;stroke-width:0.5;stroke-miterlimit:10;stroke-dasharray:12,12;}
	.st5{clip-path:url(#XMLID_187_);}
	.st6{fill:none;stroke:#000000;stroke-width:0.5;stroke-miterlimit:10;stroke-dasharray:12;}
	.st7{clip-path:url(#XMLID_188_);}
	.st8{clip-path:url(#XMLID_189_);}
	.st9{clip-path:url(#XMLID_190_);}
	.st10{clip-path:url(#XMLID_191_);}
	.st11{clip-path:url(#XMLID_192_);}
	.st12{clip-path:url(#XMLID_193_);}
	.st13{clip-path:url(#XMLID_194_);}
	.st14{clip-path:url(#XMLID_195_);}
	.st15{clip-path:url(#XMLID_196_);}
	.st16{clip-path:url(#XMLID_197_);fill:#41BBEC;}
	.st17{clip-path:url(#XMLID_198_);fill:#41BBEC;}
	.st18{clip-path:url(#XMLID_199_);fill:#41BBEC;}
	.st19{clip-path:url(#XMLID_200_);fill:#41BBEC;}
	.st20{clip-path:url(#XMLID_201_);fill:#41BBEC;}
	.st21{fill:none;stroke:#42C7F4;stroke-miterlimit:10;}
	.st22{fill:none;stroke:#000000;stroke-miterlimit:10;}
	.st23{clip-path:url(#XMLID_202_);}
	.st24{clip-path:url(#XMLID_203_);}
	.st25{clip-path:url(#XMLID_204_);}
	.st26{clip-path:url(#XMLID_205_);}
	.st27{clip-path:url(#XMLID_206_);}
</style>
<g id="Layer_1">
	<line id="XMLID_1_" class="st0" x1="216" y1="576" x2="360" y2="432.3"/>
	<g id="Layer_2">
	</g>
</g>
<g id="Layer_3">
	<g id="XMLID_5_">
		<defs>
			<rect id="XMLID_6_" x="308.4" y="447.7" width="20" height="13"/>
		</defs>
		<clipPath id="XMLID_186_">
			<use xlink:href="#XMLID_6_"  style="overflow:visible;"/>
		</clipPath>
		<path id="XMLID_10_" class="st1" d="M312.6,456.2c0.1,0.5,0.5,0.8,1.1,0.8c0.4,0,0.7-0.3,0.9-0.7c0.2-0.4,0.4-1.2,0.4-1.2
			c0-0.1-0.1-0.1-0.1-0.1c-0.1,0-0.1,0-0.2,0.2c-0.2,0.7-0.4,1.5-0.9,1.5c-0.2,0-0.4-0.2-0.4-0.5c0-0.3,0.1-0.8,0.2-1.2l0.3-1.3
			c0-0.2,0.2-0.6,0.2-0.8c0.1-0.3,0.2-0.7,0.2-0.8c0-0.2-0.2-0.3-0.3-0.3c-0.1,0-0.4,0-0.5,0.4c-0.2,0.9-0.8,3-0.9,3.6
			c0,0-0.5,1-1.4,1c-0.6,0-0.7-0.5-0.7-1c0-0.7,0.3-1.6,0.6-2.4c0.1-0.4,0.2-0.5,0.2-0.8c0-0.5-0.4-1-1-1c-1.1,0-1.6,1.7-1.6,1.8
			c0,0.1,0.1,0.1,0.1,0.1c0.1,0,0.1,0,0.2-0.2c0.3-1,0.8-1.5,1.2-1.5c0.1,0,0.3,0,0.3,0.4c0,0.3-0.1,0.6-0.2,0.8
			c-0.4,1.2-0.7,1.9-0.7,2.5c0,1.1,0.8,1.4,1.5,1.4C312,457,312.4,456.5,312.6,456.2"/>
		<path id="XMLID_9_" class="st1" d="M319.2,459.8c0,0,0-0.1-0.2-0.3c-1.5-1.5-1.9-3.8-1.9-5.6c0-2.1,0.5-4.1,1.9-5.6
			c0.2-0.1,0.2-0.2,0.2-0.2c0-0.1,0-0.1-0.1-0.1c-0.1,0-1.2,0.8-1.9,2.3c-0.6,1.3-0.8,2.6-0.8,3.6c0,0.9,0.1,2.4,0.8,3.7
			c0.7,1.5,1.7,2.2,1.9,2.2C319.2,459.9,319.2,459.9,319.2,459.8"/>
		<path id="XMLID_8_" class="st1" d="M322.4,452.1h1.1c0.2,0,0.4,0,0.4-0.2c0-0.1-0.1-0.1-0.3-0.1h-1c0.4-1.7,0.5-1.9,0.5-2
			c0-0.2-0.1-0.3-0.3-0.3c0,0-0.4,0-0.5,0.4l-0.5,1.9h-1.1c-0.2,0-0.4,0-0.4,0.2c0,0.1,0.1,0.1,0.3,0.1h1c-0.9,3.4-0.9,3.6-0.9,3.8
			c0,0.6,0.5,1.1,1.1,1.1c1.2,0,1.9-1.7,1.9-1.8c0-0.1-0.1-0.1-0.1-0.1c-0.1,0-0.1,0-0.2,0.2c-0.5,1.2-1.1,1.5-1.5,1.5
			c-0.2,0-0.4-0.2-0.4-0.5c0-0.3,0-0.4,0.1-0.6L322.4,452.1"/>
		<path id="XMLID_7_" class="st1" d="M327.7,453.9c0-0.9-0.1-2.4-0.8-3.7c-0.7-1.5-1.7-2.2-1.9-2.2c-0.1,0-0.1,0-0.1,0.1
			c0,0,0,0.1,0.2,0.3c1.2,1.2,1.8,3.1,1.8,5.6c0,2-0.4,4.1-1.9,5.6c-0.2,0.1-0.2,0.2-0.2,0.2c0,0.1,0,0.1,0.1,0.1
			c0.1,0,1.2-0.8,1.9-2.3C327.6,456.3,327.7,454.9,327.7,453.9"/>
	</g>
	<g id="XMLID_3_">
		<g id="XMLID_56_">
			<line id="XMLID_61_" class="st2" x1="216" y1="576" x2="216" y2="570"/>
			<line id="XMLID_60_" class="st3" x1="216" y1="557.8" x2="216" y2="150.6"/>
			<line id="XMLID_59_" class="st2" x1="216" y1="144.5" x2="216" y2="138.5"/>
			<g id="XMLID_57_">
				<path id="XMLID_58_" d="M216,135.5c0.5,1.4,1.4,3.2,2.4,4.3l-2.4-0.9l-2.4,0.9C214.6,138.7,215.5,136.9,216,135.5z"/>
			</g>
		</g>
	</g>
	<g id="XMLID_11_">
		<g id="XMLID_30_">
			<line id="XMLID_52_" class="st4" x1="216" y1="576" x2="455.5" y2="576"/>
			<g id="XMLID_31_">
				<path id="XMLID_32_" d="M458.5,576c-1.4,0.5-3.2,1.4-4.3,2.4l0.9-2.4l-0.9-2.4C455.3,574.6,457.1,575.5,458.5,576z"/>
			</g>
		</g>
	</g>
	<g id="XMLID_15_">
		<defs>
			<rect id="XMLID_16_" x="345.1" y="596.2" width="4.1" height="8"/>
		</defs>
		<clipPath id="XMLID_187_">
			<use xlink:href="#XMLID_16_"  style="overflow:visible;"/>
		</clipPath>
		<path id="XMLID_17_" class="st5" d="M347.3,599h1.1c0.2,0,0.4,0,0.4-0.2c0-0.1-0.1-0.1-0.3-0.1h-1c0.4-1.7,0.5-1.9,0.5-2
			c0-0.2-0.1-0.3-0.3-0.3c0,0-0.4,0-0.5,0.4l-0.5,1.9h-1.1c-0.2,0-0.4,0-0.4,0.2c0,0.1,0.1,0.1,0.3,0.1h1c-0.9,3.4-0.9,3.6-0.9,3.8
			c0,0.6,0.5,1.1,1.1,1.1c1.2,0,1.9-1.7,1.9-1.8c0-0.1-0.1-0.1-0.1-0.1c-0.1,0-0.1,0-0.2,0.2c-0.5,1.2-1.1,1.5-1.5,1.5
			c-0.2,0-0.4-0.2-0.4-0.5c0-0.3,0-0.4,0.1-0.6L347.3,599"/>
	</g>
	<line id="XMLID_12_" class="st6" x1="288.1" y1="582.5" x2="288.1" y2="572.7"/>
	<line id="XMLID_13_" class="st6" x1="360.1" y1="581.6" x2="360.1" y2="571.8"/>
	<line id="XMLID_14_" class="st6" x1="432" y1="580.9" x2="432" y2="571.1"/>
	<g id="XMLID_37_">
		<defs>
			<rect id="XMLID_38_" x="430" y="585" width="4" height="6"/>
		</defs>
		<clipPath id="XMLID_188_">
			<use xlink:href="#XMLID_38_"  style="overflow:visible;"/>
		</clipPath>
		<path id="XMLID_39_" class="st7" d="M432.4,587.9c0.7-0.2,1.1-0.8,1.1-1.4c0-0.7-0.7-1.1-1.5-1.1c-0.8,0-1.4,0.5-1.4,1.1
			c0,0.3,0.2,0.4,0.4,0.4c0.2,0,0.4-0.2,0.4-0.4c0-0.4-0.4-0.4-0.5-0.4c0.2-0.4,0.8-0.5,1.1-0.5c0.3,0,0.8,0.2,0.8,0.9
			c0,0.1,0,0.6-0.2,0.9c-0.2,0.4-0.5,0.4-0.7,0.4c-0.1,0-0.3,0-0.3,0c-0.1,0-0.1,0-0.1,0.1c0,0.1,0.1,0.1,0.2,0.1h0.4
			c0.7,0,0.9,0.5,0.9,1.3c0,1.1-0.5,1.3-0.9,1.3c-0.3,0-0.9-0.1-1.2-0.6c0.3,0,0.5-0.1,0.5-0.4c0-0.3-0.2-0.4-0.4-0.4
			c-0.2,0-0.4,0.1-0.4,0.5c0,0.7,0.7,1.2,1.6,1.2c1,0,1.7-0.7,1.7-1.5C433.7,588.7,433.2,588.1,432.4,587.9"/>
	</g>
	<g id="XMLID_34_">
		<defs>
			<rect id="XMLID_35_" x="358.1" y="585" width="4" height="6"/>
		</defs>
		<clipPath id="XMLID_189_">
			<use xlink:href="#XMLID_35_"  style="overflow:visible;"/>
		</clipPath>
		<path id="XMLID_36_" class="st8" d="M359.2,590.1l0.8-0.8c1.2-1.1,1.7-1.5,1.7-2.3c0-0.9-0.7-1.5-1.7-1.5c-0.9,0-1.5,0.7-1.5,1.4
			c0,0.4,0.4,0.4,0.4,0.4c0.1,0,0.4-0.1,0.4-0.4c0-0.2-0.1-0.4-0.4-0.4c-0.1,0-0.1,0-0.1,0c0.2-0.5,0.6-0.8,1.1-0.8
			c0.7,0,1.1,0.6,1.1,1.3c0,0.6-0.4,1.3-0.8,1.8l-1.5,1.7c-0.1,0.1-0.1,0.1-0.1,0.3h2.9l0.2-1.4h-0.2c0,0.2-0.1,0.6-0.2,0.7
			c-0.1,0.1-0.6,0.1-0.8,0.1H359.2"/>
	</g>
	<g id="XMLID_19_">
		<defs>
			<rect id="XMLID_20_" x="286.6" y="585" width="3.1" height="6"/>
		</defs>
		<clipPath id="XMLID_190_">
			<use xlink:href="#XMLID_20_"  style="overflow:visible;"/>
		</clipPath>
		<path id="XMLID_33_" class="st9" d="M288.3,585.7c0-0.2,0-0.2-0.2-0.2c-0.5,0.5-1.2,0.5-1.4,0.5v0.2c0.2,0,0.6,0,1-0.2v4.1
			c0,0.3,0,0.4-0.7,0.4h-0.3v0.2c0.3,0,1,0,1.3,0c0.3,0,1,0,1.3,0v-0.2H289c-0.7,0-0.7-0.1-0.7-0.4V585.7"/>
	</g>
	<line id="XMLID_18_" class="st2" x1="210" y1="432" x2="221.5" y2="432"/>
	<line id="XMLID_40_" class="st2" x1="210" y1="504" x2="221.5" y2="504"/>
	<line id="XMLID_41_" class="st2" x1="210.2" y1="359.9" x2="221.8" y2="359.9"/>
	<g id="XMLID_42_">
		<defs>
			<rect id="XMLID_43_" x="202.9" y="501" width="3.1" height="6"/>
		</defs>
		<clipPath id="XMLID_191_">
			<use xlink:href="#XMLID_43_"  style="overflow:visible;"/>
		</clipPath>
		<path id="XMLID_44_" class="st10" d="M204.6,501.6c0-0.2,0-0.2-0.2-0.2c-0.5,0.5-1.2,0.5-1.4,0.5v0.2c0.2,0,0.6,0,1-0.2v4.1
			c0,0.3,0,0.4-0.7,0.4H203v0.2c0.3,0,1,0,1.3,0c0.3,0,1,0,1.3,0v-0.2h-0.3c-0.7,0-0.7-0.1-0.7-0.4V501.6"/>
	</g>
	<g id="XMLID_45_">
		<defs>
			<rect id="XMLID_46_" x="202.4" y="429" width="4" height="6"/>
		</defs>
		<clipPath id="XMLID_192_">
			<use xlink:href="#XMLID_46_"  style="overflow:visible;"/>
		</clipPath>
		<path id="XMLID_47_" class="st11" d="M203.5,434.1l0.8-0.8c1.2-1.1,1.7-1.5,1.7-2.3c0-0.9-0.7-1.5-1.7-1.5c-0.9,0-1.5,0.7-1.5,1.4
			c0,0.4,0.4,0.4,0.4,0.4c0.1,0,0.4-0.1,0.4-0.4c0-0.2-0.1-0.4-0.4-0.4c-0.1,0-0.1,0-0.1,0c0.2-0.5,0.6-0.8,1.1-0.8
			c0.7,0,1.1,0.6,1.1,1.3c0,0.6-0.4,1.3-0.8,1.8l-1.5,1.7c-0.1,0.1-0.1,0.1-0.1,0.3h2.9l0.2-1.4h-0.2c0,0.2-0.1,0.6-0.2,0.7
			c-0.1,0.1-0.6,0.1-0.8,0.1H203.5"/>
	</g>
	<g id="XMLID_48_">
		<defs>
			<rect id="XMLID_49_" x="202.4" y="356.5" width="4" height="6"/>
		</defs>
		<clipPath id="XMLID_193_">
			<use xlink:href="#XMLID_49_"  style="overflow:visible;"/>
		</clipPath>
		<path id="XMLID_50_" class="st12" d="M204.8,359.4c0.7-0.2,1.1-0.8,1.1-1.4c0-0.7-0.7-1.1-1.5-1.1c-0.8,0-1.4,0.5-1.4,1.1
			c0,0.3,0.2,0.4,0.4,0.4c0.2,0,0.4-0.2,0.4-0.4c0-0.4-0.4-0.4-0.5-0.4c0.2-0.4,0.8-0.5,1.1-0.5c0.3,0,0.8,0.2,0.8,0.9
			c0,0.1,0,0.6-0.2,0.9c-0.2,0.4-0.5,0.4-0.7,0.4c-0.1,0-0.3,0-0.3,0c-0.1,0-0.1,0-0.1,0.1c0,0.1,0.1,0.1,0.2,0.1h0.4
			c0.7,0,0.9,0.5,0.9,1.3c0,1.1-0.5,1.3-0.9,1.3c-0.3,0-0.9-0.1-1.2-0.6c0.3,0,0.5-0.1,0.5-0.4c0-0.3-0.2-0.4-0.4-0.4
			c-0.2,0-0.4,0.1-0.4,0.5c0,0.7,0.7,1.2,1.6,1.2c1,0,1.7-0.7,1.7-1.5C206.2,360.2,205.7,359.6,204.8,359.4"/>
	</g>
	<line id="XMLID_2_" class="st2" x1="210.2" y1="288" x2="221.8" y2="288"/>
	<line id="XMLID_21_" class="st2" x1="210.2" y1="216" x2="221.8" y2="216"/>
	<line id="XMLID_22_" class="st2" x1="210.2" y1="144" x2="221.8" y2="144"/>
	<g id="XMLID_24_">
		<defs>
			<rect id="XMLID_25_" x="202.4" y="285" width="4" height="6"/>
		</defs>
		<clipPath id="XMLID_194_">
			<use xlink:href="#XMLID_25_"  style="overflow:visible;"/>
		</clipPath>
		<path id="XMLID_26_" class="st13" d="M204.9,289.1H203l1.9-3V289.1z M204.9,289.4v0.7c0,0.3,0,0.4-0.6,0.4h-0.2v0.2
			c0.3,0,0.7,0,1.1,0c0.3,0,0.8,0,1.1,0v-0.2h-0.2c-0.6,0-0.6-0.1-0.6-0.4v-0.7h0.8v-0.2h-0.8v-3.6c0-0.2,0-0.2-0.1-0.2
			c-0.1,0-0.1,0-0.2,0.1l-2.4,3.7v0.2H204.9z"/>
	</g>
	<g id="XMLID_53_">
		<defs>
			<rect id="XMLID_54_" x="202.4" y="213.5" width="4" height="6"/>
		</defs>
		<clipPath id="XMLID_195_">
			<use xlink:href="#XMLID_54_"  style="overflow:visible;"/>
		</clipPath>
		<path id="XMLID_62_" class="st14" d="M206.1,217.6c0-0.9-0.7-1.7-1.5-1.7c-0.4,0-0.7,0.1-1,0.4v-1.6c0.2,0,0.4,0.1,0.7,0.1
			c1,0,1.5-0.7,1.5-0.8c0,0,0-0.1-0.1-0.1c0,0,0,0-0.1,0c-0.2,0.1-0.5,0.2-1.1,0.2c-0.3,0-0.7-0.1-1.1-0.2c-0.1,0-0.1,0-0.1,0
			c-0.1,0-0.1,0.1-0.1,0.2v2.4c0,0.1,0,0.2,0.1,0.2c0.1,0,0.1,0,0.1-0.1c0.1-0.1,0.4-0.6,1-0.6c0.4,0,0.6,0.4,0.7,0.5
			c0.1,0.3,0.1,0.6,0.1,1c0,0.3,0,0.8-0.2,1.1c-0.2,0.3-0.5,0.5-0.9,0.5c-0.6,0-1-0.4-1.2-0.9c0,0,0,0,0.1,0c0.3,0,0.4-0.2,0.4-0.4
			s-0.1-0.4-0.4-0.4c-0.1,0-0.4,0.1-0.4,0.4c0,0.7,0.5,1.5,1.4,1.5C205.3,219.3,206.1,218.6,206.1,217.6"/>
	</g>
	<g id="XMLID_63_">
		<defs>
			<rect id="XMLID_64_" x="202.4" y="142" width="4" height="6"/>
		</defs>
		<clipPath id="XMLID_196_">
			<use xlink:href="#XMLID_64_"  style="overflow:visible;"/>
		</clipPath>
		<path id="XMLID_65_" class="st15" d="M204.5,147.7c-0.5,0-0.7-0.5-0.8-0.6c-0.1-0.4-0.1-1-0.1-1.2c0-0.6,0.3-1.4,1-1.4
			c0.1,0,0.5,0,0.7,0.5c0.1,0.3,0.1,0.7,0.1,1.1c0,0.4,0,0.8-0.1,1.1C205.1,147.6,204.7,147.7,204.5,147.7 M203.6,145.1v-0.2
			c0-2,1-2.3,1.4-2.3c0.2,0,0.5,0,0.7,0.3c-0.1,0-0.4,0-0.4,0.4c0,0.2,0.2,0.4,0.4,0.4c0.1,0,0.4-0.1,0.4-0.4c0-0.5-0.4-0.9-1-0.9
			c-1,0-2.1,1-2.1,2.8c0,2.1,0.9,2.7,1.7,2.7c0.9,0,1.6-0.7,1.6-1.8c0-1-0.7-1.8-1.6-1.8C204,144.3,203.7,144.7,203.6,145.1z"/>
	</g>
	<g id="XMLID_68_">
		<defs>
			<rect id="XMLID_69_" x="218.2" y="494.2" width="32.9" height="7.2"/>
		</defs>
		<clipPath id="XMLID_197_">
			<use xlink:href="#XMLID_69_"  style="overflow:visible;"/>
		</clipPath>
		<path id="XMLID_97_" class="st16" d="M220.4,497.7c0-0.2,0.2-0.7,0.6-0.7c0,0,0.2,0,0.3,0.1c-0.2,0-0.3,0.2-0.3,0.3
			c0,0.1,0.1,0.2,0.2,0.2c0.1,0,0.3-0.1,0.3-0.3c0-0.3-0.4-0.4-0.6-0.4c-0.3,0-0.6,0.3-0.6,0.5c-0.1-0.4-0.5-0.5-0.6-0.5
			c-0.6,0-1,0.8-1,0.9c0,0.1,0.1,0.1,0.1,0.1c0,0,0.1,0,0.1-0.1c0.2-0.6,0.6-0.8,0.8-0.8c0.1,0,0.3,0.1,0.3,0.4
			c0,0.2-0.1,0.6-0.3,1.4c-0.1,0.4-0.3,0.6-0.6,0.6c0,0-0.2,0-0.3-0.1c0.2,0,0.3-0.2,0.3-0.3c0-0.2-0.1-0.2-0.2-0.2
			c-0.2,0-0.3,0.2-0.3,0.3c0,0.3,0.3,0.4,0.6,0.4c0.4,0,0.6-0.4,0.6-0.5c0.1,0.2,0.3,0.5,0.6,0.5c0.6,0,1-0.8,1-0.9
			c0-0.1-0.1-0.1-0.1-0.1c-0.1,0-0.1,0-0.1,0.1c-0.2,0.6-0.6,0.8-0.8,0.8c-0.2,0-0.3-0.2-0.3-0.4c0-0.1,0-0.3,0.1-0.5L220.4,497.7"
			/>
		<path id="XMLID_96_" class="st16" d="M223.8,500.9c0,0,0,0-0.1-0.1c-0.7-0.8-0.9-1.9-0.9-2.8c0-1,0.2-2.1,1-2.8
			c0.1-0.1,0.1-0.1,0.1-0.1c0,0,0-0.1-0.1-0.1c-0.1,0-0.6,0.4-0.9,1.2c-0.3,0.7-0.4,1.3-0.4,1.8c0,0.5,0.1,1.2,0.4,1.9
			C223.2,500.6,223.7,501,223.8,500.9C223.8,501,223.8,500.9,223.8,500.9"/>
		<path id="XMLID_93_" class="st16" d="M225.6,499.5c-0.2,0-0.6-0.1-0.7-0.7c-0.1-0.4-0.1-0.9-0.1-1.3c0-0.4,0-0.8,0-1.1
			c0.1-0.7,0.6-0.8,0.7-0.8c0.2,0,0.6,0.1,0.7,0.7c0.1,0.3,0.1,0.8,0.1,1.2c0,0.4,0,0.9-0.1,1.2
			C226.2,499.3,225.9,499.5,225.6,499.5 M226.9,497.6c0-0.5,0-1-0.2-1.4c-0.3-0.6-0.8-0.7-1-0.7c-0.4,0-0.8,0.2-1,0.7
			c-0.2,0.4-0.2,0.9-0.2,1.4c0,0.4,0,1,0.3,1.4c0.3,0.5,0.7,0.6,1,0.6c0.3,0,0.8-0.1,1-0.7C226.8,498.5,226.9,498,226.9,497.6z"/>
		<path id="XMLID_92_" class="st16" d="M229,496h1.3c0.1,0,0.2,0,0.2-0.1c0-0.1-0.1-0.1-0.2-0.1H229v-1.3c0-0.1,0-0.2-0.1-0.2
			c-0.1,0-0.1,0.1-0.1,0.2v1.3h-1.3c-0.1,0-0.2,0-0.2,0.1c0,0.1,0.1,0.1,0.2,0.1h1.3v1.3c0,0.1,0,0.2,0.1,0.2c0.1,0,0.1-0.1,0.1-0.2
			V496"/>
		<path id="XMLID_91_" class="st16" d="M232.9,498c0-0.5-0.1-1.2-0.4-1.9c-0.4-0.7-0.9-1.1-0.9-1.1c0,0-0.1,0-0.1,0.1
			c0,0,0,0,0.1,0.1c0.6,0.6,0.9,1.5,0.9,2.8c0,1-0.2,2.1-1,2.8c-0.1,0.1-0.1,0.1-0.1,0.1c0,0,0,0.1,0.1,0.1c0.1,0,0.6-0.4,0.9-1.2
			C232.8,499.1,232.9,498.5,232.9,498"/>
		<path id="XMLID_74_" class="st16" d="M239.1,498.7c0.1,0,0.2,0,0.2-0.1c0-0.1-0.1-0.1-0.2-0.1h-3.6c-0.1,0-0.2,0-0.2,0.1
			c0,0.1,0.1,0.1,0.2,0.1H239.1 M239.1,497.5c0.1,0,0.2,0,0.2-0.1c0-0.1-0.1-0.1-0.2-0.1h-3.6c-0.1,0-0.2,0-0.2,0.1
			c0,0.1,0.1,0.1,0.2,0.1H239.1z"/>
		<path id="XMLID_73_" class="st16" d="M243.4,497.7c0-0.2,0.2-0.7,0.6-0.7c0,0,0.2,0,0.3,0.1c-0.2,0-0.3,0.2-0.3,0.3
			c0,0.1,0.1,0.2,0.2,0.2c0.1,0,0.3-0.1,0.3-0.3c0-0.3-0.4-0.4-0.6-0.4c-0.3,0-0.6,0.3-0.6,0.5c-0.1-0.4-0.5-0.5-0.6-0.5
			c-0.6,0-1,0.8-1,0.9c0,0.1,0.1,0.1,0.1,0.1c0,0,0.1,0,0.1-0.1c0.2-0.6,0.6-0.8,0.8-0.8c0.1,0,0.3,0.1,0.3,0.4
			c0,0.2-0.1,0.6-0.3,1.4c-0.1,0.4-0.3,0.6-0.6,0.6c0,0-0.2,0-0.3-0.1c0.1,0,0.3-0.2,0.3-0.3c0-0.2-0.1-0.2-0.2-0.2
			c-0.2,0-0.3,0.2-0.3,0.3c0,0.3,0.3,0.4,0.6,0.4c0.4,0,0.6-0.4,0.6-0.5c0.1,0.2,0.3,0.5,0.6,0.5c0.6,0,1-0.8,1-0.9
			c0-0.1-0.1-0.1-0.1-0.1c-0.1,0-0.1,0-0.1,0.1c-0.2,0.6-0.6,0.8-0.8,0.8c-0.2,0-0.3-0.2-0.3-0.4c0-0.1,0-0.3,0.1-0.5L243.4,497.7"
			/>
		<polyline id="XMLID_72_" class="st16" points="246.4,501 246.4,500.7 245.8,500.7 245.8,495.2 246.4,495.2 246.4,495 245.5,495 
			245.5,501 246.4,501 		"/>
		<path id="XMLID_71_" class="st16" d="M248.2,495.6c0-0.1,0-0.2-0.1-0.2c-0.4,0.4-0.9,0.4-1.1,0.4v0.2c0.1,0,0.5,0,0.8-0.2v3.1
			c0,0.2,0,0.3-0.6,0.3H247v0.2c0.2,0,0.7,0,1,0c0.2,0,0.8,0,1,0v-0.2h-0.2c-0.5,0-0.6-0.1-0.6-0.3V495.6"/>
		<polyline id="XMLID_70_" class="st16" points="250.4,495 249.6,495 249.6,495.2 250.1,495.2 250.1,500.7 249.6,500.7 249.6,501 
			250.4,501 250.4,495 		"/>
	</g>
	<g id="XMLID_98_">
		<defs>
			<rect id="XMLID_99_" x="272.8" y="349.8" width="32.9" height="7.2"/>
		</defs>
		<clipPath id="XMLID_198_">
			<use xlink:href="#XMLID_99_"  style="overflow:visible;"/>
		</clipPath>
		<path id="XMLID_111_" class="st17" d="M275,353.3c0-0.2,0.2-0.7,0.6-0.7c0,0,0.2,0,0.3,0.1c-0.2,0-0.3,0.2-0.3,0.3
			c0,0.1,0.1,0.2,0.2,0.2c0.1,0,0.3-0.1,0.3-0.3c0-0.3-0.4-0.4-0.6-0.4c-0.3,0-0.6,0.3-0.6,0.5c-0.1-0.4-0.5-0.5-0.6-0.5
			c-0.6,0-1,0.8-1,0.9c0,0.1,0.1,0.1,0.1,0.1c0,0,0.1,0,0.1-0.1c0.2-0.6,0.6-0.8,0.8-0.8c0.1,0,0.3,0.1,0.3,0.4
			c0,0.2-0.1,0.6-0.3,1.4c-0.1,0.4-0.3,0.6-0.6,0.6c0,0-0.2,0-0.3-0.1c0.1,0,0.3-0.2,0.3-0.3c0-0.2-0.1-0.2-0.2-0.2
			c-0.2,0-0.3,0.2-0.3,0.3c0,0.3,0.3,0.4,0.6,0.4c0.4,0,0.6-0.4,0.6-0.5c0.1,0.2,0.3,0.5,0.6,0.5c0.6,0,1-0.8,1-0.9
			c0-0.1-0.1-0.1-0.1-0.1c-0.1,0-0.1,0-0.1,0.1c-0.2,0.6-0.6,0.8-0.8,0.8c-0.2,0-0.3-0.2-0.3-0.4c0-0.1,0-0.3,0.1-0.5L275,353.3"/>
		<path id="XMLID_110_" class="st17" d="M278.3,356.5c0,0,0,0-0.1-0.1c-0.7-0.8-0.9-1.9-0.9-2.8c0-1,0.2-2.1,1-2.8
			c0.1-0.1,0.1-0.1,0.1-0.1c0,0,0-0.1-0.1-0.1c-0.1,0-0.6,0.4-0.9,1.2c-0.3,0.7-0.4,1.3-0.4,1.8c0,0.5,0.1,1.2,0.4,1.9
			C277.7,356.2,278.2,356.6,278.3,356.5C278.3,356.6,278.3,356.6,278.3,356.5"/>
		<path id="XMLID_109_" class="st17" d="M280.4,351.3c0-0.1,0-0.2-0.1-0.2c-0.4,0.4-0.9,0.4-1.1,0.4v0.2c0.1,0,0.5,0,0.8-0.2v3.1
			c0,0.2,0,0.3-0.6,0.3h-0.2v0.2c0.2,0,0.7,0,1,0c0.2,0,0.8,0,1,0v-0.2H281c-0.5,0-0.6-0.1-0.6-0.3V351.3"/>
		<path id="XMLID_108_" class="st17" d="M283.6,351.6h1.3c0.1,0,0.2,0,0.2-0.1c0-0.1-0.1-0.1-0.2-0.1h-1.3v-1.3c0-0.1,0-0.2-0.1-0.2
			c-0.1,0-0.1,0.1-0.1,0.2v1.3h-1.3c-0.1,0-0.2,0-0.2,0.1c0,0.1,0.1,0.1,0.2,0.1h1.3v1.3c0,0.1,0,0.2,0.1,0.2c0.1,0,0.1-0.1,0.1-0.2
			V351.6"/>
		<path id="XMLID_107_" class="st17" d="M287.4,353.6c0-0.5-0.1-1.2-0.4-1.9c-0.4-0.7-0.9-1.1-0.9-1.1c0,0-0.1,0-0.1,0.1
			c0,0,0,0,0.1,0.1c0.6,0.6,0.9,1.5,0.9,2.8c0,1-0.2,2.1-1,2.8c-0.1,0.1-0.1,0.1-0.1,0.1c0,0,0,0.1,0.1,0.1c0.1,0,0.6-0.4,0.9-1.2
			C287.3,354.8,287.4,354.1,287.4,353.6"/>
		<path id="XMLID_104_" class="st17" d="M293.7,354.3c0.1,0,0.2,0,0.2-0.1c0-0.1-0.1-0.1-0.2-0.1h-3.6c-0.1,0-0.2,0-0.2,0.1
			c0,0.1,0.1,0.1,0.2,0.1H293.7 M293.7,353.1c0.1,0,0.2,0,0.2-0.1c0-0.1-0.1-0.1-0.2-0.1h-3.6c-0.1,0-0.2,0-0.2,0.1
			c0,0.1,0.1,0.1,0.2,0.1H293.7z"/>
		<path id="XMLID_103_" class="st17" d="M298,353.3c0-0.2,0.2-0.7,0.6-0.7c0,0,0.2,0,0.3,0.1c-0.2,0-0.3,0.2-0.3,0.3
			c0,0.1,0.1,0.2,0.2,0.2c0.1,0,0.3-0.1,0.3-0.3c0-0.3-0.4-0.4-0.6-0.4c-0.3,0-0.6,0.3-0.6,0.5c-0.1-0.4-0.5-0.5-0.6-0.5
			c-0.6,0-1,0.8-1,0.9c0,0.1,0.1,0.1,0.1,0.1c0,0,0.1,0,0.1-0.1c0.2-0.6,0.6-0.8,0.8-0.8c0.1,0,0.3,0.1,0.3,0.4
			c0,0.2-0.1,0.6-0.3,1.4c-0.1,0.4-0.3,0.6-0.6,0.6c0,0-0.2,0-0.3-0.1c0.1,0,0.3-0.2,0.3-0.3c0-0.2-0.1-0.2-0.2-0.2
			c-0.2,0-0.3,0.2-0.3,0.3c0,0.3,0.3,0.4,0.6,0.4c0.4,0,0.6-0.4,0.6-0.5c0.1,0.2,0.3,0.5,0.6,0.5c0.6,0,1-0.8,1-0.9
			c0-0.1-0.1-0.1-0.1-0.1c-0.1,0-0.1,0-0.1,0.1c-0.2,0.6-0.6,0.8-0.8,0.8c-0.2,0-0.3-0.2-0.3-0.4c0-0.1,0-0.3,0.1-0.5L298,353.3"/>
		<polyline id="XMLID_102_" class="st17" points="300.9,356.6 300.9,356.3 300.3,356.3 300.3,350.8 300.9,350.8 300.9,350.6 
			300.1,350.6 300.1,356.6 300.9,356.6 		"/>
		<path id="XMLID_101_" class="st17" d="M301.7,354.6l0.6-0.6c0.9-0.8,1.3-1.1,1.3-1.7c0-0.7-0.5-1.2-1.3-1.2
			c-0.7,0-1.1,0.5-1.1,1.1c0,0.3,0.3,0.3,0.3,0.3c0.1,0,0.3-0.1,0.3-0.3c0-0.2-0.1-0.3-0.3-0.3c0,0-0.1,0-0.1,0
			c0.1-0.4,0.5-0.6,0.8-0.6c0.5,0,0.8,0.5,0.8,1c0,0.5-0.3,0.9-0.6,1.3l-1.1,1.3c-0.1,0.1-0.1,0.1-0.1,0.2h2.2l0.2-1h-0.1
			c0,0.2-0.1,0.4-0.1,0.5c0,0-0.4,0-0.6,0H301.7"/>
		<polyline id="XMLID_100_" class="st17" points="304.9,350.6 304.1,350.6 304.1,350.8 304.7,350.8 304.7,356.3 304.1,356.3 
			304.1,356.6 304.9,356.6 304.9,350.6 		"/>
	</g>
	<g id="XMLID_112_">
		<defs>
			<rect id="XMLID_113_" x="270.1" y="494.8" width="14.9" height="6.6"/>
		</defs>
		<clipPath id="XMLID_199_">
			<use xlink:href="#XMLID_113_"  style="overflow:visible;"/>
		</clipPath>
		<path id="XMLID_118_" class="st18" d="M272,497.7c0-0.2,0.2-0.7,0.6-0.7c0,0,0.2,0,0.3,0.1c-0.2,0-0.3,0.2-0.3,0.3
			c0,0.1,0.1,0.2,0.2,0.2c0.1,0,0.3-0.1,0.3-0.3c0-0.3-0.4-0.4-0.6-0.4c-0.3,0-0.6,0.3-0.6,0.5c-0.1-0.4-0.5-0.5-0.6-0.5
			c-0.6,0-1,0.8-1,0.9c0,0.1,0.1,0.1,0.1,0.1c0,0,0.1,0,0.1-0.1c0.2-0.6,0.6-0.8,0.8-0.8c0.1,0,0.3,0.1,0.3,0.4
			c0,0.2-0.1,0.6-0.3,1.4c-0.1,0.4-0.3,0.6-0.6,0.6c0,0-0.2,0-0.3-0.1c0.1,0,0.3-0.2,0.3-0.3c0-0.2-0.1-0.2-0.2-0.2
			c-0.2,0-0.3,0.2-0.3,0.3c0,0.3,0.3,0.4,0.6,0.4c0.4,0,0.6-0.4,0.6-0.5c0.1,0.2,0.3,0.5,0.6,0.5c0.6,0,1-0.8,1-0.9
			c0-0.1-0.1-0.1-0.1-0.1c-0.1,0-0.1,0-0.1,0.1c-0.2,0.6-0.6,0.8-0.8,0.8c-0.2,0-0.3-0.2-0.3-0.4c0-0.1,0-0.3,0.1-0.5L272,497.7"/>
		<path id="XMLID_117_" class="st18" d="M275.4,500.9c0,0,0,0-0.1-0.1c-0.7-0.8-0.9-1.9-0.9-2.8c0-1,0.2-2.1,1-2.8
			c0.1-0.1,0.1-0.1,0.1-0.1c0,0,0-0.1-0.1-0.1c-0.1,0-0.6,0.4-0.9,1.2c-0.3,0.7-0.4,1.3-0.4,1.8c0,0.5,0.1,1.2,0.4,1.9
			C274.8,500.6,275.3,501,275.4,500.9C275.4,501,275.4,500.9,275.4,500.9"/>
		<path id="XMLID_116_" class="st18" d="M277.5,495.6c0-0.1,0-0.2-0.1-0.2c-0.4,0.4-0.9,0.4-1.1,0.4v0.2c0.1,0,0.5,0,0.8-0.2v3.1
			c0,0.2,0,0.3-0.6,0.3h-0.2v0.2c0.2,0,0.7,0,1,0c0.2,0,0.8,0,1,0v-0.2h-0.2c-0.5,0-0.6-0.1-0.6-0.3V495.6"/>
		<path id="XMLID_115_" class="st18" d="M281.8,496c0.1,0,0.2,0,0.2-0.1c0-0.1-0.1-0.1-0.2-0.1h-2.5c-0.1,0-0.2,0-0.2,0.1
			c0,0.1,0.1,0.1,0.2,0.1H281.8"/>
		<path id="XMLID_114_" class="st18" d="M284.5,498c0-0.5-0.1-1.2-0.4-1.9c-0.4-0.7-0.9-1.1-0.9-1.1c0,0-0.1,0-0.1,0.1
			c0,0,0,0,0.1,0.1c0.6,0.6,0.9,1.5,0.9,2.8c0,1-0.2,2.1-1,2.8c-0.1,0.1-0.1,0.1-0.1,0.1c0,0,0,0.1,0.1,0.1c0.1,0,0.6-0.4,0.9-1.2
			C284.4,499.1,284.5,498.5,284.5,498"/>
	</g>
	<g id="XMLID_84_">
		<defs>
			<rect id="XMLID_85_" x="363.1" y="356.8" width="14.9" height="6.6"/>
		</defs>
		<clipPath id="XMLID_200_">
			<use xlink:href="#XMLID_85_"  style="overflow:visible;"/>
		</clipPath>
		<path id="XMLID_90_" class="st19" d="M365,359.7c0-0.2,0.2-0.7,0.6-0.7c0,0,0.2,0,0.3,0.1c-0.2,0-0.3,0.2-0.3,0.3
			c0,0.1,0.1,0.2,0.2,0.2c0.1,0,0.3-0.1,0.3-0.3c0-0.3-0.4-0.4-0.6-0.4c-0.3,0-0.6,0.3-0.6,0.5c-0.1-0.4-0.5-0.5-0.6-0.5
			c-0.6,0-1,0.8-1,0.9c0,0.1,0.1,0.1,0.1,0.1c0,0,0.1,0,0.1-0.1c0.2-0.6,0.6-0.8,0.8-0.8c0.1,0,0.3,0.1,0.3,0.4
			c0,0.2-0.1,0.6-0.3,1.4c-0.1,0.4-0.3,0.6-0.6,0.6c0,0-0.2,0-0.3-0.1c0.1,0,0.3-0.2,0.3-0.3c0-0.2-0.1-0.2-0.2-0.2
			c-0.2,0-0.3,0.2-0.3,0.3c0,0.3,0.3,0.4,0.6,0.4c0.4,0,0.6-0.4,0.6-0.5c0.1,0.2,0.3,0.5,0.6,0.5c0.6,0,1-0.8,1-0.9
			c0-0.1-0.1-0.1-0.1-0.1c-0.1,0-0.1,0-0.1,0.1c-0.2,0.6-0.6,0.8-0.8,0.8c-0.2,0-0.3-0.2-0.3-0.4c0-0.1,0-0.3,0.1-0.5L365,359.7"/>
		<path id="XMLID_89_" class="st19" d="M368.4,362.9c0,0,0,0-0.1-0.1c-0.7-0.8-0.9-1.9-0.9-2.8c0-1,0.2-2.1,1-2.8
			c0.1-0.1,0.1-0.1,0.1-0.1c0,0,0-0.1-0.1-0.1c-0.1,0-0.6,0.4-0.9,1.2c-0.3,0.7-0.4,1.3-0.4,1.8c0,0.5,0.1,1.2,0.4,1.9
			C367.8,362.6,368.3,363,368.4,362.9C368.4,363,368.4,362.9,368.4,362.9"/>
		<path id="XMLID_88_" class="st19" d="M369.5,361l0.6-0.6c0.9-0.8,1.3-1.1,1.3-1.7c0-0.7-0.5-1.2-1.3-1.2c-0.7,0-1.1,0.5-1.1,1.1
			c0,0.3,0.3,0.3,0.3,0.3c0.1,0,0.3-0.1,0.3-0.3c0-0.2-0.1-0.3-0.3-0.3c0,0-0.1,0-0.1,0c0.1-0.4,0.5-0.6,0.8-0.6
			c0.5,0,0.8,0.5,0.8,1c0,0.5-0.3,0.9-0.6,1.3l-1.1,1.3c-0.1,0.1-0.1,0.1-0.1,0.2h2.2l0.2-1h-0.2c0,0.2-0.1,0.4-0.1,0.5
			c0,0-0.4,0-0.6,0H369.5"/>
		<path id="XMLID_87_" class="st19" d="M374.8,358c0.1,0,0.2,0,0.2-0.1c0-0.1-0.1-0.1-0.2-0.1h-2.5c-0.1,0-0.2,0-0.2,0.1
			c0,0.1,0.1,0.1,0.2,0.1H374.8"/>
		<path id="XMLID_86_" class="st19" d="M377.5,360c0-0.5-0.1-1.2-0.4-1.9c-0.4-0.7-0.9-1.1-0.9-1.1c0,0-0.1,0-0.1,0.1
			c0,0,0,0,0.1,0.1c0.6,0.6,0.9,1.5,0.9,2.8c0,1-0.2,2.1-1,2.8c-0.1,0.1-0.1,0.1-0.1,0.1c0,0,0,0.1,0.1,0.1c0.1,0,0.6-0.4,0.9-1.2
			C377.4,361.1,377.5,360.5,377.5,360"/>
	</g>
	<g id="XMLID_77_">
		<defs>
			<rect id="XMLID_78_" x="324.2" y="143.2" width="32.9" height="7.2"/>
		</defs>
		<clipPath id="XMLID_201_">
			<use xlink:href="#XMLID_78_"  style="overflow:visible;"/>
		</clipPath>
		<path id="XMLID_125_" class="st20" d="M326.4,146.7c0-0.2,0.2-0.7,0.6-0.7c0,0,0.2,0,0.3,0.1c-0.2,0-0.3,0.2-0.3,0.3
			c0,0.1,0.1,0.2,0.2,0.2c0.1,0,0.3-0.1,0.3-0.3c0-0.3-0.4-0.4-0.6-0.4c-0.3,0-0.6,0.3-0.6,0.5c-0.1-0.4-0.5-0.5-0.6-0.5
			c-0.6,0-1,0.8-1,0.9c0,0.1,0.1,0.1,0.1,0.1c0,0,0.1,0,0.1-0.1c0.2-0.6,0.6-0.8,0.8-0.8c0.1,0,0.3,0.1,0.3,0.4
			c0,0.2-0.1,0.6-0.3,1.4c-0.1,0.4-0.3,0.6-0.6,0.6c0,0-0.2,0-0.3-0.1c0.1,0,0.3-0.2,0.3-0.3c0-0.2-0.1-0.2-0.2-0.2
			c-0.2,0-0.3,0.2-0.3,0.3c0,0.3,0.3,0.4,0.6,0.4c0.4,0,0.6-0.4,0.6-0.5c0.1,0.2,0.3,0.5,0.6,0.5c0.6,0,1-0.8,1-0.9
			c0-0.1-0.1-0.1-0.1-0.1c-0.1,0-0.1,0-0.1,0.1c-0.2,0.6-0.6,0.8-0.8,0.8c-0.2,0-0.3-0.2-0.3-0.4c0-0.1,0-0.3,0.1-0.5L326.4,146.7"
			/>
		<path id="XMLID_124_" class="st20" d="M329.8,149.9c0,0,0,0-0.1-0.1c-0.7-0.8-0.9-1.9-0.9-2.8c0-1,0.2-2.1,1-2.8
			c0.1-0.1,0.1-0.1,0.1-0.1c0,0,0-0.1-0.1-0.1c-0.1,0-0.6,0.4-0.9,1.2c-0.3,0.7-0.4,1.3-0.4,1.8c0,0.5,0.1,1.2,0.4,1.9
			C329.2,149.6,329.7,150,329.8,149.9C329.8,150,329.8,149.9,329.8,149.9"/>
		<path id="XMLID_123_" class="st20" d="M330.9,148l0.6-0.6c0.9-0.8,1.3-1.1,1.3-1.7c0-0.7-0.5-1.2-1.3-1.2c-0.7,0-1.1,0.5-1.1,1.1
			c0,0.3,0.3,0.3,0.3,0.3c0.1,0,0.3-0.1,0.3-0.3c0-0.2-0.1-0.3-0.3-0.3c0,0-0.1,0-0.1,0c0.1-0.4,0.5-0.6,0.8-0.6
			c0.5,0,0.8,0.5,0.8,1c0,0.5-0.3,0.9-0.6,1.3l-1.1,1.3c-0.1,0.1-0.1,0.1-0.1,0.2h2.2l0.2-1h-0.1c0,0.2-0.1,0.4-0.1,0.5
			c0,0-0.4,0-0.6,0H330.9"/>
		<path id="XMLID_122_" class="st20" d="M335,145h1.3c0.1,0,0.2,0,0.2-0.1c0-0.1-0.1-0.1-0.2-0.1H335v-1.3c0-0.1,0-0.2-0.1-0.2
			c-0.1,0-0.1,0.1-0.1,0.2v1.3h-1.3c-0.1,0-0.2,0-0.2,0.1c0,0.1,0.1,0.1,0.2,0.1h1.3v1.3c0,0.1,0,0.2,0.1,0.2c0.1,0,0.1-0.1,0.1-0.2
			V145"/>
		<path id="XMLID_121_" class="st20" d="M338.9,147c0-0.5-0.1-1.2-0.4-1.9c-0.4-0.7-0.9-1.1-0.9-1.1c0,0-0.1,0-0.1,0.1
			c0,0,0,0,0.1,0.1c0.6,0.6,0.9,1.5,0.9,2.8c0,1-0.2,2.1-1,2.8c-0.1,0.1-0.1,0.1-0.1,0.1c0,0,0,0.1,0.1,0.1c0.1,0,0.6-0.4,0.9-1.2
			C338.8,148.1,338.9,147.5,338.9,147"/>
		<path id="XMLID_83_" class="st20" d="M345.1,147.7c0.1,0,0.2,0,0.2-0.1c0-0.1-0.1-0.1-0.2-0.1h-3.6c-0.1,0-0.2,0-0.2,0.1
			c0,0.1,0.1,0.1,0.2,0.1H345.1 M345.1,146.5c0.1,0,0.2,0,0.2-0.1c0-0.1-0.1-0.1-0.2-0.1h-3.6c-0.1,0-0.2,0-0.2,0.1
			c0,0.1,0.1,0.1,0.2,0.1H345.1z"/>
		<path id="XMLID_82_" class="st20" d="M349.4,146.7c0-0.2,0.2-0.7,0.6-0.7c0,0,0.2,0,0.3,0.1c-0.2,0-0.3,0.2-0.3,0.3
			c0,0.1,0.1,0.2,0.2,0.2c0.1,0,0.3-0.1,0.3-0.3c0-0.3-0.4-0.4-0.6-0.4c-0.3,0-0.6,0.3-0.6,0.5c-0.1-0.4-0.5-0.5-0.6-0.5
			c-0.6,0-1,0.8-1,0.9c0,0.1,0.1,0.1,0.1,0.1c0,0,0.1,0,0.1-0.1c0.2-0.6,0.6-0.8,0.8-0.8c0.1,0,0.3,0.1,0.3,0.4
			c0,0.2-0.1,0.6-0.3,1.4c-0.1,0.4-0.3,0.6-0.6,0.6c0,0-0.2,0-0.3-0.1c0.1,0,0.3-0.2,0.3-0.3c0-0.2-0.1-0.2-0.2-0.2
			c-0.2,0-0.3,0.2-0.3,0.3c0,0.3,0.3,0.4,0.6,0.4c0.4,0,0.6-0.4,0.6-0.5c0.1,0.2,0.3,0.5,0.6,0.5c0.6,0,1-0.8,1-0.9
			c0-0.1-0.1-0.1-0.1-0.1c-0.1,0-0.1,0-0.1,0.1c-0.2,0.6-0.6,0.8-0.8,0.8c-0.2,0-0.3-0.2-0.3-0.4c0-0.1,0-0.3,0.1-0.5L349.4,146.7"
			/>
		<polyline id="XMLID_81_" class="st20" points="352.4,150 352.4,149.7 351.8,149.7 351.8,144.2 352.4,144.2 352.4,144 351.5,144 
			351.5,150 352.4,150 		"/>
		<path id="XMLID_80_" class="st20" d="M354.2,146.4c0.5-0.2,0.8-0.6,0.8-1c0-0.5-0.5-0.8-1.1-0.8c-0.6,0-1.1,0.4-1.1,0.8
			c0,0.2,0.1,0.3,0.3,0.3c0.2,0,0.3-0.1,0.3-0.3c0-0.3-0.3-0.3-0.4-0.3c0.2-0.3,0.6-0.4,0.8-0.4c0.2,0,0.6,0.1,0.6,0.7
			c0,0.1,0,0.4-0.2,0.7c-0.2,0.3-0.4,0.3-0.5,0.3c0,0-0.2,0-0.2,0c0,0-0.1,0-0.1,0.1c0,0.1,0,0.1,0.1,0.1h0.3c0.5,0,0.7,0.4,0.7,1
			c0,0.8-0.4,1-0.7,1c-0.3,0-0.7-0.1-0.9-0.5c0.2,0,0.4-0.1,0.4-0.3c0-0.2-0.2-0.3-0.3-0.3c-0.1,0-0.3,0.1-0.3,0.3
			c0,0.5,0.6,0.9,1.2,0.9c0.7,0,1.3-0.5,1.3-1.1C355.2,147,354.8,146.5,354.2,146.4"/>
		<polyline id="XMLID_79_" class="st20" points="356.4,144 355.6,144 355.6,144.2 356.1,144.2 356.1,149.7 355.6,149.7 355.6,150 
			356.4,150 356.4,144 		"/>
	</g>
	<polyline id="XMLID_51_" class="st21" points="216,576 216,504 287.8,504 287.8,360.5 359.2,360.5 359.2,144 	"/>
	<polyline id="XMLID_23_" class="st22" points="216,576 288,576 288,432.3 359.3,432.3 359.3,216.6 	"/>
	<g id="XMLID_126_">
		<defs>
			<rect id="XMLID_127_" x="216.2" y="577.8" width="32.9" height="6.6"/>
		</defs>
		<clipPath id="XMLID_202_">
			<use xlink:href="#XMLID_127_"  style="overflow:visible;"/>
		</clipPath>
		<path id="XMLID_143_" class="st23" d="M218.3,580.7c0-0.2,0.2-0.7,0.6-0.7c0,0,0.2,0,0.3,0.1c-0.2,0-0.3,0.2-0.3,0.3
			c0,0.1,0.1,0.2,0.2,0.2c0.1,0,0.3-0.1,0.3-0.3c0-0.3-0.4-0.4-0.6-0.4c-0.3,0-0.6,0.3-0.6,0.5c-0.1-0.4-0.5-0.5-0.6-0.5
			c-0.6,0-1,0.8-1,0.9c0,0.1,0.1,0.1,0.1,0.1c0,0,0.1,0,0.1-0.1c0.2-0.6,0.6-0.8,0.8-0.8c0.1,0,0.3,0.1,0.3,0.4
			c0,0.2-0.1,0.6-0.3,1.4c-0.1,0.4-0.3,0.6-0.6,0.6c0,0-0.2,0-0.3-0.1c0.1,0,0.3-0.2,0.3-0.3c0-0.2-0.1-0.2-0.2-0.2
			c-0.2,0-0.3,0.2-0.3,0.3c0,0.3,0.3,0.4,0.6,0.4c0.4,0,0.6-0.4,0.6-0.5c0.1,0.2,0.3,0.5,0.6,0.5c0.6,0,1-0.8,1-0.9
			c0-0.1-0.1-0.1-0.1-0.1c-0.1,0-0.1,0-0.1,0.1c-0.2,0.6-0.6,0.8-0.8,0.8c-0.2,0-0.3-0.2-0.3-0.4c0-0.1,0-0.3,0.1-0.5L218.3,580.7"
			/>
		<path id="XMLID_142_" class="st23" d="M221.7,583.9c0,0,0,0-0.1-0.1c-0.7-0.8-0.9-1.9-0.9-2.8c0-1,0.2-2.1,1-2.8
			c0.1-0.1,0.1-0.1,0.1-0.1c0,0,0-0.1-0.1-0.1c-0.1,0-0.6,0.4-0.9,1.2c-0.3,0.7-0.4,1.3-0.4,1.8c0,0.5,0.1,1.2,0.4,1.9
			C221,583.6,221.6,584,221.7,583.9C221.6,584,221.7,583.9,221.7,583.9"/>
		<path id="XMLID_139_" class="st23" d="M223.6,582.5c-0.2,0-0.6-0.1-0.7-0.7c-0.1-0.4-0.1-0.9-0.1-1.3c0-0.4,0-0.8,0-1.1
			c0.1-0.7,0.6-0.8,0.7-0.8c0.2,0,0.6,0.1,0.7,0.7c0.1,0.3,0.1,0.8,0.1,1.2c0,0.4,0,0.9-0.1,1.2
			C224.2,582.3,223.8,582.5,223.6,582.5 M224.8,580.6c0-0.5,0-1-0.2-1.4c-0.3-0.6-0.8-0.7-1-0.7c-0.4,0-0.8,0.2-1,0.7
			c-0.2,0.4-0.2,0.9-0.2,1.4c0,0.4,0,1,0.3,1.4c0.3,0.5,0.7,0.6,1,0.6c0.3,0,0.8-0.1,1-0.7C224.8,581.5,224.8,581,224.8,580.6z"/>
		<path id="XMLID_138_" class="st23" d="M228.2,579c0.1,0,0.2,0,0.2-0.1c0-0.1-0.1-0.1-0.2-0.1h-2.5c-0.1,0-0.2,0-0.2,0.1
			c0,0.1,0.1,0.1,0.2,0.1H228.2"/>
		<path id="XMLID_137_" class="st23" d="M230.8,581c0-0.5-0.1-1.2-0.4-1.9c-0.4-0.7-0.9-1.1-0.9-1.1c0,0-0.1,0-0.1,0.1
			c0,0,0,0,0.1,0.1c0.6,0.6,0.9,1.5,0.9,2.8c0,1-0.2,2.1-1,2.8c-0.1,0.1-0.1,0.1-0.1,0.1c0,0,0,0.1,0.1,0.1c0.1,0,0.6-0.4,0.9-1.2
			C230.7,582.1,230.8,581.5,230.8,581"/>
		<path id="XMLID_134_" class="st23" d="M237.2,581.7c0.1,0,0.2,0,0.2-0.1c0-0.1-0.1-0.1-0.2-0.1h-3.6c-0.1,0-0.2,0-0.2,0.1
			c0,0.1,0.1,0.1,0.2,0.1H237.2 M237.2,580.5c0.1,0,0.2,0,0.2-0.1c0-0.1-0.1-0.1-0.2-0.1h-3.6c-0.1,0-0.2,0-0.2,0.1
			c0,0.1,0.1,0.1,0.2,0.1H237.2z"/>
		<path id="XMLID_133_" class="st23" d="M241.4,580.7c0-0.2,0.2-0.7,0.6-0.7c0,0,0.2,0,0.3,0.1c-0.2,0-0.3,0.2-0.3,0.3
			c0,0.1,0.1,0.2,0.2,0.2c0.1,0,0.3-0.1,0.3-0.3c0-0.3-0.4-0.4-0.6-0.4c-0.3,0-0.6,0.3-0.6,0.5c-0.1-0.4-0.5-0.5-0.6-0.5
			c-0.6,0-1,0.8-1,0.9c0,0.1,0.1,0.1,0.1,0.1c0,0,0.1,0,0.1-0.1c0.2-0.6,0.6-0.8,0.8-0.8c0.1,0,0.3,0.1,0.3,0.4
			c0,0.2-0.1,0.6-0.3,1.4c-0.1,0.4-0.3,0.6-0.6,0.6c0,0-0.2,0-0.3-0.1c0.2,0,0.3-0.2,0.3-0.3c0-0.2-0.1-0.2-0.2-0.2
			c-0.2,0-0.3,0.2-0.3,0.3c0,0.3,0.3,0.4,0.6,0.4c0.4,0,0.6-0.4,0.6-0.5c0.1,0.2,0.3,0.5,0.6,0.5c0.6,0,1-0.8,1-0.9
			c0-0.1-0.1-0.1-0.1-0.1c-0.1,0-0.1,0-0.1,0.1c-0.2,0.6-0.6,0.8-0.8,0.8c-0.2,0-0.3-0.2-0.3-0.4c0-0.1,0-0.3,0.1-0.5L241.4,580.7"
			/>
		<polyline id="XMLID_132_" class="st23" points="244.3,584 244.3,583.7 243.7,583.7 243.7,578.2 244.3,578.2 244.3,578 243.5,578 
			243.5,584 244.3,584 		"/>
		<path id="XMLID_129_" class="st23" d="M246,582.5c-0.2,0-0.6-0.1-0.7-0.7c-0.1-0.4-0.1-0.9-0.1-1.3c0-0.4,0-0.8,0-1.1
			c0.1-0.7,0.6-0.8,0.7-0.8c0.2,0,0.6,0.1,0.7,0.7c0.1,0.3,0.1,0.8,0.1,1.2c0,0.4,0,0.9-0.1,1.2C246.6,582.3,246.2,582.5,246,582.5
			 M247.2,580.6c0-0.5,0-1-0.2-1.4c-0.3-0.6-0.8-0.7-1-0.7c-0.4,0-0.8,0.2-1,0.7c-0.2,0.4-0.2,0.9-0.2,1.4c0,0.4,0,1,0.3,1.4
			c0.3,0.5,0.7,0.6,1,0.6c0.3,0,0.8-0.1,1-0.7C247.2,581.5,247.2,581,247.2,580.6z"/>
		<polyline id="XMLID_128_" class="st23" points="248.4,578 247.6,578 247.6,578.2 248.2,578.2 248.2,583.7 247.6,583.7 247.6,584 
			248.4,584 248.4,578 		"/>
	</g>
	<g id="XMLID_144_">
		<defs>
			<rect id="XMLID_145_" x="291.2" y="423.2" width="32.9" height="7.2"/>
		</defs>
		<clipPath id="XMLID_203_">
			<use xlink:href="#XMLID_145_"  style="overflow:visible;"/>
		</clipPath>
		<path id="XMLID_157_" class="st24" d="M293.4,426.7c0-0.2,0.2-0.7,0.6-0.7c0,0,0.2,0,0.3,0.1c-0.2,0-0.3,0.2-0.3,0.3
			c0,0.1,0.1,0.2,0.2,0.2c0.1,0,0.3-0.1,0.3-0.3c0-0.3-0.4-0.4-0.6-0.4c-0.3,0-0.6,0.3-0.6,0.5c-0.1-0.4-0.5-0.5-0.6-0.5
			c-0.6,0-1,0.8-1,0.9c0,0.1,0.1,0.1,0.1,0.1c0,0,0.1,0,0.1-0.1c0.2-0.6,0.6-0.8,0.8-0.8c0.1,0,0.3,0.1,0.3,0.4
			c0,0.2-0.1,0.6-0.3,1.4c-0.1,0.4-0.3,0.6-0.6,0.6c0,0-0.2,0-0.3-0.1c0.1,0,0.3-0.2,0.3-0.3c0-0.2-0.1-0.2-0.2-0.2
			c-0.2,0-0.3,0.2-0.3,0.3c0,0.3,0.3,0.4,0.6,0.4c0.4,0,0.6-0.4,0.6-0.5c0.1,0.2,0.3,0.5,0.6,0.5c0.6,0,1-0.8,1-0.9
			c0-0.1-0.1-0.1-0.1-0.1c-0.1,0-0.1,0-0.1,0.1c-0.2,0.6-0.6,0.8-0.8,0.8c-0.2,0-0.3-0.2-0.3-0.4c0-0.1,0-0.3,0.1-0.5L293.4,426.7"
			/>
		<path id="XMLID_156_" class="st24" d="M296.8,429.9c0,0,0,0-0.1-0.1c-0.7-0.8-0.9-1.9-0.9-2.8c0-1,0.2-2.1,1-2.8
			c0.1-0.1,0.1-0.1,0.1-0.1c0,0,0-0.1-0.1-0.1c-0.1,0-0.6,0.4-0.9,1.2c-0.3,0.7-0.4,1.3-0.4,1.8c0,0.5,0.1,1.2,0.4,1.9
			C296.2,429.6,296.7,430,296.8,429.9C296.8,430,296.8,429.9,296.8,429.9"/>
		<path id="XMLID_155_" class="st24" d="M298.9,424.6c0-0.1,0-0.2-0.1-0.2c-0.4,0.4-0.9,0.4-1.1,0.4v0.2c0.1,0,0.5,0,0.8-0.2v3.1
			c0,0.2,0,0.3-0.6,0.3h-0.2v0.2c0.2,0,0.7,0,1,0c0.2,0,0.8,0,1,0v-0.2h-0.2c-0.5,0-0.6-0.1-0.6-0.3V424.6"/>
		<path id="XMLID_154_" class="st24" d="M302,425h1.3c0.1,0,0.2,0,0.2-0.1c0-0.1-0.1-0.1-0.2-0.1H302v-1.3c0-0.1,0-0.2-0.1-0.2
			c-0.1,0-0.1,0.1-0.1,0.2v1.3h-1.3c-0.1,0-0.2,0-0.2,0.1c0,0.1,0.1,0.1,0.2,0.1h1.3v1.3c0,0.1,0,0.2,0.1,0.2c0.1,0,0.1-0.1,0.1-0.2
			V425"/>
		<path id="XMLID_153_" class="st24" d="M305.9,427c0-0.5-0.1-1.2-0.4-1.9c-0.4-0.7-0.9-1.1-0.9-1.1c0,0-0.1,0-0.1,0.1
			c0,0,0,0,0.1,0.1c0.6,0.6,0.9,1.5,0.9,2.8c0,1-0.2,2.1-1,2.8c-0.1,0.1-0.1,0.1-0.1,0.1c0,0,0,0.1,0.1,0.1c0.1,0,0.6-0.4,0.9-1.2
			C305.8,428.1,305.9,427.5,305.9,427"/>
		<path id="XMLID_150_" class="st24" d="M312.1,427.7c0.1,0,0.2,0,0.2-0.1c0-0.1-0.1-0.1-0.2-0.1h-3.6c-0.1,0-0.2,0-0.2,0.1
			c0,0.1,0.1,0.1,0.2,0.1H312.1 M312.1,426.5c0.1,0,0.2,0,0.2-0.1c0-0.1-0.1-0.1-0.2-0.1h-3.6c-0.1,0-0.2,0-0.2,0.1
			c0,0.1,0.1,0.1,0.2,0.1H312.1z"/>
		<path id="XMLID_149_" class="st24" d="M316.4,426.7c0-0.2,0.2-0.7,0.6-0.7c0,0,0.2,0,0.3,0.1c-0.2,0-0.3,0.2-0.3,0.3
			c0,0.1,0.1,0.2,0.2,0.2c0.1,0,0.3-0.1,0.3-0.3c0-0.3-0.4-0.4-0.6-0.4c-0.3,0-0.6,0.3-0.6,0.5c-0.1-0.4-0.5-0.5-0.6-0.5
			c-0.6,0-1,0.8-1,0.9c0,0.1,0.1,0.1,0.1,0.1c0,0,0.1,0,0.1-0.1c0.2-0.6,0.6-0.8,0.8-0.8c0.1,0,0.3,0.1,0.3,0.4
			c0,0.2-0.1,0.6-0.3,1.4c-0.1,0.4-0.3,0.6-0.6,0.6c0,0-0.2,0-0.3-0.1c0.1,0,0.3-0.2,0.3-0.3c0-0.2-0.1-0.2-0.2-0.2
			c-0.2,0-0.3,0.2-0.3,0.3c0,0.3,0.3,0.4,0.6,0.4c0.4,0,0.6-0.4,0.6-0.5c0.1,0.2,0.3,0.5,0.6,0.5c0.6,0,1-0.8,1-0.9
			c0-0.1-0.1-0.1-0.1-0.1c-0.1,0-0.1,0-0.1,0.1c-0.2,0.6-0.6,0.8-0.8,0.8c-0.2,0-0.3-0.2-0.3-0.4c0-0.1,0-0.3,0.1-0.5L316.4,426.7"
			/>
		<polyline id="XMLID_148_" class="st24" points="319.4,430 319.4,429.7 318.8,429.7 318.8,424.2 319.4,424.2 319.4,424 318.5,424 
			318.5,430 319.4,430 		"/>
		<path id="XMLID_147_" class="st24" d="M321.2,424.6c0-0.1,0-0.2-0.1-0.2c-0.4,0.4-0.9,0.4-1.1,0.4v0.2c0.1,0,0.5,0,0.8-0.2v3.1
			c0,0.2,0,0.3-0.6,0.3H320v0.2c0.2,0,0.7,0,1,0c0.2,0,0.8,0,1,0v-0.2h-0.2c-0.5,0-0.6-0.1-0.6-0.3V424.6"/>
		<polyline id="XMLID_146_" class="st24" points="323.4,424 322.6,424 322.6,424.2 323.1,424.2 323.1,429.7 322.6,429.7 322.6,430 
			323.4,430 323.4,424 		"/>
	</g>
	<g id="XMLID_158_">
		<defs>
			<rect id="XMLID_159_" x="363.2" y="213.2" width="32.9" height="7.2"/>
		</defs>
		<clipPath id="XMLID_204_">
			<use xlink:href="#XMLID_159_"  style="overflow:visible;"/>
		</clipPath>
		<path id="XMLID_171_" class="st25" d="M365.4,216.7c0-0.2,0.2-0.7,0.6-0.7c0,0,0.2,0,0.3,0.1c-0.2,0-0.3,0.2-0.3,0.3
			c0,0.1,0.1,0.2,0.2,0.2c0.1,0,0.3-0.1,0.3-0.3c0-0.3-0.4-0.4-0.6-0.4c-0.3,0-0.6,0.3-0.6,0.5c-0.1-0.4-0.5-0.5-0.6-0.5
			c-0.6,0-1,0.8-1,0.9c0,0.1,0.1,0.1,0.1,0.1c0,0,0.1,0,0.1-0.1c0.2-0.6,0.6-0.8,0.8-0.8c0.1,0,0.3,0.1,0.3,0.4
			c0,0.2-0.1,0.6-0.3,1.4c-0.1,0.4-0.3,0.6-0.6,0.6c0,0-0.2,0-0.3-0.1c0.1,0,0.3-0.2,0.3-0.3c0-0.2-0.1-0.2-0.2-0.2
			c-0.2,0-0.3,0.2-0.3,0.3c0,0.3,0.3,0.4,0.6,0.4c0.4,0,0.6-0.4,0.6-0.5c0.1,0.2,0.3,0.5,0.6,0.5c0.6,0,1-0.8,1-0.9
			c0-0.1-0.1-0.1-0.1-0.1c-0.1,0-0.1,0-0.1,0.1c-0.2,0.6-0.6,0.8-0.8,0.8c-0.2,0-0.3-0.2-0.3-0.4c0-0.1,0-0.3,0.1-0.5L365.4,216.7"
			/>
		<path id="XMLID_170_" class="st25" d="M368.8,219.9c0,0,0,0-0.1-0.1c-0.7-0.8-0.9-1.9-0.9-2.8c0-1,0.2-2.1,1-2.8
			c0.1-0.1,0.1-0.1,0.1-0.1c0,0,0-0.1-0.1-0.1c-0.1,0-0.6,0.4-0.9,1.2c-0.3,0.7-0.4,1.3-0.4,1.8c0,0.5,0.1,1.2,0.4,1.9
			C368.2,219.6,368.7,220,368.8,219.9C368.8,220,368.8,219.9,368.8,219.9"/>
		<path id="XMLID_169_" class="st25" d="M369.9,218l0.6-0.6c0.9-0.8,1.3-1.1,1.3-1.7c0-0.7-0.5-1.2-1.3-1.2c-0.7,0-1.1,0.5-1.1,1.1
			c0,0.3,0.3,0.3,0.3,0.3c0.1,0,0.3-0.1,0.3-0.3c0-0.2-0.1-0.3-0.3-0.3c0,0-0.1,0-0.1,0c0.1-0.4,0.5-0.6,0.8-0.6
			c0.5,0,0.8,0.5,0.8,1c0,0.5-0.3,0.9-0.6,1.3l-1.1,1.3c-0.1,0.1-0.1,0.1-0.1,0.2h2.2l0.2-1h-0.1c0,0.2-0.1,0.4-0.1,0.5
			c0,0-0.4,0-0.6,0H369.9"/>
		<path id="XMLID_168_" class="st25" d="M374,215h1.3c0.1,0,0.2,0,0.2-0.1c0-0.1-0.1-0.1-0.2-0.1H374v-1.3c0-0.1,0-0.2-0.1-0.2
			c-0.1,0-0.1,0.1-0.1,0.2v1.3h-1.3c-0.1,0-0.2,0-0.2,0.1c0,0.1,0.1,0.1,0.2,0.1h1.3v1.3c0,0.1,0,0.2,0.1,0.2c0.1,0,0.1-0.1,0.1-0.2
			V215"/>
		<path id="XMLID_167_" class="st25" d="M377.9,217c0-0.5-0.1-1.2-0.4-1.9c-0.4-0.7-0.9-1.1-0.9-1.1c0,0-0.1,0-0.1,0.1
			c0,0,0,0,0.1,0.1c0.6,0.6,0.9,1.5,0.9,2.8c0,1-0.2,2.1-1,2.8c-0.1,0.1-0.1,0.1-0.1,0.1c0,0,0,0.1,0.1,0.1c0.1,0,0.6-0.4,0.9-1.2
			C377.8,218.1,377.9,217.5,377.9,217"/>
		<path id="XMLID_164_" class="st25" d="M384.1,217.7c0.1,0,0.2,0,0.2-0.1c0-0.1-0.1-0.1-0.2-0.1h-3.6c-0.1,0-0.2,0-0.2,0.1
			c0,0.1,0.1,0.1,0.2,0.1H384.1 M384.1,216.5c0.1,0,0.2,0,0.2-0.1c0-0.1-0.1-0.1-0.2-0.1h-3.6c-0.1,0-0.2,0-0.2,0.1
			c0,0.1,0.1,0.1,0.2,0.1H384.1z"/>
		<path id="XMLID_163_" class="st25" d="M388.4,216.7c0-0.2,0.2-0.7,0.6-0.7c0,0,0.2,0,0.3,0.1c-0.2,0-0.3,0.2-0.3,0.3
			c0,0.1,0.1,0.2,0.2,0.2c0.1,0,0.3-0.1,0.3-0.3c0-0.3-0.4-0.4-0.6-0.4c-0.3,0-0.6,0.3-0.6,0.5c-0.1-0.4-0.5-0.5-0.6-0.5
			c-0.6,0-1,0.8-1,0.9c0,0.1,0.1,0.1,0.1,0.1c0,0,0.1,0,0.1-0.1c0.2-0.6,0.6-0.8,0.8-0.8c0.1,0,0.3,0.1,0.3,0.4
			c0,0.2-0.1,0.6-0.3,1.4c-0.1,0.4-0.3,0.6-0.6,0.6c0,0-0.2,0-0.3-0.1c0.1,0,0.3-0.2,0.3-0.3c0-0.2-0.1-0.2-0.2-0.2
			c-0.2,0-0.3,0.2-0.3,0.3c0,0.3,0.3,0.4,0.6,0.4c0.4,0,0.6-0.4,0.6-0.5c0.1,0.2,0.3,0.5,0.6,0.5c0.6,0,1-0.8,1-0.9
			c0-0.1-0.1-0.1-0.1-0.1c-0.1,0-0.1,0-0.1,0.1c-0.2,0.6-0.6,0.8-0.8,0.8c-0.2,0-0.3-0.2-0.3-0.4c0-0.1,0-0.3,0.1-0.5L388.4,216.7"
			/>
		<polyline id="XMLID_162_" class="st25" points="391.4,220 391.4,219.7 390.8,219.7 390.8,214.2 391.4,214.2 391.4,214 390.5,214 
			390.5,220 391.4,220 		"/>
		<path id="XMLID_161_" class="st25" d="M392.2,218l0.6-0.6c0.9-0.8,1.3-1.1,1.3-1.7c0-0.7-0.5-1.2-1.3-1.2c-0.7,0-1.1,0.5-1.1,1.1
			c0,0.3,0.3,0.3,0.3,0.3c0.1,0,0.3-0.1,0.3-0.3c0-0.2-0.1-0.3-0.3-0.3c0,0-0.1,0-0.1,0c0.1-0.4,0.5-0.6,0.8-0.6
			c0.5,0,0.8,0.5,0.8,1c0,0.5-0.3,0.9-0.6,1.3l-1.1,1.3c-0.1,0.1-0.1,0.1-0.1,0.2h2.2l0.2-1H394c0,0.2-0.1,0.4-0.1,0.5
			c0,0-0.4,0-0.6,0H392.2"/>
		<polyline id="XMLID_160_" class="st25" points="395.4,214 394.6,214 394.6,214.2 395.1,214.2 395.1,219.7 394.6,219.7 394.6,220 
			395.4,220 395.4,214 		"/>
	</g>
	<g id="XMLID_172_">
		<defs>
			<rect id="XMLID_173_" x="271.1" y="567.4" width="14.9" height="6.6"/>
		</defs>
		<clipPath id="XMLID_205_">
			<use xlink:href="#XMLID_173_"  style="overflow:visible;"/>
		</clipPath>
		<path id="XMLID_178_" class="st26" d="M273,570.2c0-0.2,0.2-0.7,0.6-0.7c0,0,0.2,0,0.3,0.1c-0.2,0-0.3,0.2-0.3,0.3
			c0,0.1,0.1,0.2,0.2,0.2c0.1,0,0.3-0.1,0.3-0.3c0-0.3-0.4-0.4-0.6-0.4c-0.3,0-0.6,0.3-0.6,0.5c-0.1-0.4-0.5-0.5-0.6-0.5
			c-0.6,0-1,0.8-1,0.9c0,0.1,0.1,0.1,0.1,0.1c0,0,0.1,0,0.1-0.1c0.2-0.6,0.6-0.8,0.8-0.8c0.1,0,0.3,0.1,0.3,0.4
			c0,0.2-0.1,0.6-0.3,1.4c-0.1,0.4-0.3,0.6-0.6,0.6c0,0-0.2,0-0.3-0.1c0.1,0,0.3-0.2,0.3-0.3c0-0.2-0.1-0.2-0.2-0.2
			c-0.2,0-0.3,0.2-0.3,0.3c0,0.3,0.3,0.4,0.6,0.4c0.4,0,0.6-0.4,0.6-0.5c0.1,0.2,0.3,0.5,0.6,0.5c0.6,0,1-0.8,1-0.9
			c0-0.1-0.1-0.1-0.1-0.1c-0.1,0-0.1,0-0.1,0.1c-0.2,0.6-0.6,0.8-0.8,0.8c-0.2,0-0.3-0.2-0.3-0.4c0-0.1,0-0.3,0.1-0.5L273,570.2"/>
		<path id="XMLID_177_" class="st26" d="M276.4,573.5c0,0,0,0-0.1-0.1c-0.7-0.8-0.9-1.9-0.9-2.8c0-1,0.2-2.1,1-2.8
			c0.1-0.1,0.1-0.1,0.1-0.1c0,0,0-0.1-0.1-0.1c-0.1,0-0.6,0.4-0.9,1.2c-0.3,0.7-0.4,1.3-0.4,1.8c0,0.5,0.1,1.2,0.4,1.9
			C275.8,573.1,276.3,573.5,276.4,573.5C276.4,573.5,276.4,573.5,276.4,573.5"/>
		<path id="XMLID_176_" class="st26" d="M278.5,568.2c0-0.1,0-0.2-0.1-0.2c-0.4,0.4-0.9,0.4-1.1,0.4v0.2c0.1,0,0.5,0,0.8-0.2v3.1
			c0,0.2,0,0.3-0.6,0.3h-0.2v0.2c0.2,0,0.7,0,1,0c0.2,0,0.8,0,1,0v-0.2h-0.2c-0.5,0-0.6-0.1-0.6-0.3V568.2"/>
		<path id="XMLID_175_" class="st26" d="M282.8,568.6c0.1,0,0.2,0,0.2-0.1c0-0.1-0.1-0.1-0.2-0.1h-2.5c-0.1,0-0.2,0-0.2,0.1
			c0,0.1,0.1,0.1,0.2,0.1H282.8"/>
		<path id="XMLID_174_" class="st26" d="M285.5,570.5c0-0.5-0.1-1.2-0.4-1.9c-0.4-0.7-0.9-1.1-0.9-1.1c0,0-0.1,0-0.1,0.1
			c0,0,0,0,0.1,0.1c0.6,0.6,0.9,1.5,0.9,2.8c0,1-0.2,2.1-1,2.8c-0.1,0.1-0.1,0.1-0.1,0.1c0,0,0,0.1,0.1,0.1c0.1,0,0.6-0.4,0.9-1.2
			C285.4,571.7,285.5,571,285.5,570.5"/>
	</g>
	<g id="XMLID_179_">
		<defs>
			<rect id="XMLID_180_" x="342.5" y="423.7" width="14.9" height="6.6"/>
		</defs>
		<clipPath id="XMLID_206_">
			<use xlink:href="#XMLID_180_"  style="overflow:visible;"/>
		</clipPath>
		<path id="XMLID_185_" class="st27" d="M344.5,426.5c0-0.2,0.2-0.7,0.6-0.7c0,0,0.2,0,0.3,0.1c-0.2,0-0.3,0.2-0.3,0.3
			c0,0.1,0.1,0.2,0.2,0.2c0.1,0,0.3-0.1,0.3-0.3c0-0.3-0.4-0.4-0.6-0.4c-0.3,0-0.6,0.3-0.6,0.5c-0.1-0.4-0.5-0.5-0.6-0.5
			c-0.6,0-1,0.8-1,0.9c0,0.1,0.1,0.1,0.1,0.1c0,0,0.1,0,0.1-0.1c0.2-0.6,0.6-0.8,0.8-0.8c0.1,0,0.3,0.1,0.3,0.4
			c0,0.2-0.1,0.6-0.3,1.4c-0.1,0.4-0.3,0.6-0.6,0.6c0,0-0.2,0-0.3-0.1c0.1,0,0.3-0.2,0.3-0.3c0-0.2-0.1-0.2-0.2-0.2
			c-0.2,0-0.3,0.2-0.3,0.3c0,0.3,0.3,0.4,0.6,0.4c0.4,0,0.6-0.4,0.6-0.5c0.1,0.2,0.3,0.5,0.6,0.5c0.6,0,1-0.8,1-0.9
			c0-0.1-0.1-0.1-0.1-0.1c-0.1,0-0.1,0-0.1,0.1c-0.2,0.6-0.6,0.8-0.8,0.8c-0.2,0-0.3-0.2-0.3-0.4c0-0.1,0-0.3,0.1-0.5L344.5,426.5"
			/>
		<path id="XMLID_184_" class="st27" d="M347.9,429.8c0,0,0,0-0.1-0.1c-0.7-0.8-0.9-1.9-0.9-2.8c0-1,0.2-2.1,1-2.8
			c0.1-0.1,0.1-0.1,0.1-0.1c0,0,0-0.1-0.1-0.1c-0.1,0-0.6,0.4-0.9,1.2c-0.3,0.7-0.4,1.3-0.4,1.8c0,0.5,0.1,1.2,0.4,1.9
			C347.3,429.4,347.8,429.8,347.9,429.8C347.9,429.8,347.9,429.8,347.9,429.8"/>
		<path id="XMLID_183_" class="st27" d="M349,427.9l0.6-0.6c0.9-0.8,1.3-1.1,1.3-1.7c0-0.7-0.5-1.2-1.3-1.2c-0.7,0-1.1,0.5-1.1,1.1
			c0,0.3,0.3,0.3,0.3,0.3c0.1,0,0.3-0.1,0.3-0.3c0-0.2-0.1-0.3-0.3-0.3c0,0-0.1,0-0.1,0c0.1-0.4,0.5-0.6,0.8-0.6
			c0.5,0,0.8,0.5,0.8,1c0,0.5-0.3,0.9-0.6,1.3l-1.1,1.3c-0.1,0.1-0.1,0.1-0.1,0.2h2.2l0.2-1h-0.1c0,0.2-0.1,0.4-0.1,0.5
			c0,0-0.4,0-0.6,0H349"/>
		<path id="XMLID_182_" class="st27" d="M354.3,424.9c0.1,0,0.2,0,0.2-0.1c0-0.1-0.1-0.1-0.2-0.1h-2.5c-0.1,0-0.2,0-0.2,0.1
			c0,0.1,0.1,0.1,0.2,0.1H354.3"/>
		<path id="XMLID_181_" class="st27" d="M356.9,426.8c0-0.5-0.1-1.2-0.4-1.9c-0.4-0.7-0.9-1.1-0.9-1.1c0,0-0.1,0-0.1,0.1
			c0,0,0,0,0.1,0.1c0.6,0.6,0.9,1.5,0.9,2.8c0,1-0.2,2.1-1,2.8c-0.1,0.1-0.1,0.1-0.1,0.1c0,0,0,0.1,0.1,0.1c0.1,0,0.6-0.4,0.9-1.2
			C356.9,428,356.9,427.3,356.9,426.8"/>
	</g>
</g>
<g id="Layer_4">
</g>
</svg>
