<?xml version="1.0" encoding="utf-8"?>
<!-- Generator: Adobe Illustrator 19.0.0, SVG Export Plug-In . SVG Version: 6.00 Build 0)  -->
<svg version="1.1" id="Layer_1" xmlns="http://www.w3.org/2000/svg" xmlns:xlink="http://www.w3.org/1999/xlink" x="0px" y="0px"
	 viewBox="0 0 612 792" style="enable-background:new 0 0 612 792;" xml:space="preserve">
<style type="text/css">
	.st0{fill:none;stroke:#000000;stroke-miterlimit:10;}
	.st1{fill:none;stroke:#000000;stroke-width:0.5;stroke-miterlimit:10;}
	.st2{fill:none;stroke:#000000;stroke-width:0.5;stroke-miterlimit:10;stroke-dasharray:12.3938,12.3938;}
	.st3{fill:none;stroke:#000000;stroke-width:0.5;stroke-miterlimit:10;stroke-dasharray:12,12;}
	.st4{clip-path:url(#SVGID_2_);}
	.st5{fill:none;stroke:#000000;stroke-width:0.5;stroke-miterlimit:10;stroke-dasharray:12;}
	.st6{clip-path:url(#SVGID_4_);}
	.st7{clip-path:url(#SVGID_6_);}
	.st8{clip-path:url(#SVGID_8_);}
	.st9{clip-path:url(#SVGID_10_);}
	.st10{clip-path:url(#SVGID_12_);}
	.st11{clip-path:url(#SVGID_14_);}
	.st12{fill:none;stroke:#42C7F4;stroke-miterlimit:10;}
	.st13{clip-path:url(#SVGID_16_);fill:#41BBEC;}
	.st14{clip-path:url(#SVGID_18_);fill:#41BBEC;}
	.st15{clip-path:url(#SVGID_20_);fill:#41BBEC;}
	.st16{clip-path:url(#SVGID_22_);fill:#41BBEC;}
	.st17{clip-path:url(#SVGID_24_);fill:#41BBEC;}
	.st18{clip-path:url(#SVGID_26_);fill:#41BBEC;}
	.st19{clip-path:url(#SVGID_28_);fill:#41BBEC;}
	.st20{clip-path:url(#SVGID_30_);fill:#41BBEC;}
	.st21{clip-path:url(#SVGID_32_);fill:#41BBEC;}
	.st22{clip-path:url(#SVGID_34_);fill:#41BBEC;}
	.st23{clip-path:url(#SVGID_36_);fill:#41BBEC;}
	.st24{clip-path:url(#SVGID_38_);fill:#41BBEC;}
	.st25{clip-path:url(#SVGID_40_);fill:#41BBEC;}
	.st26{clip-path:url(#SVGID_42_);fill:#41BBEC;}
	.st27{clip-path:url(#SVGID_44_);fill:#41BBEC;}
	.st28{clip-path:url(#SVGID_46_);fill:#41BBEC;}
	.st29{clip-path:url(#SVGID_48_);fill:#41BBEC;}
	.st30{clip-path:url(#SVGID_50_);fill:#41BBEC;}
	.st31{clip-path:url(#SVGID_52_);fill:#41BBEC;}
	.st32{clip-path:url(#SVGID_54_);fill:#41BBEC;}
	.st33{clip-path:url(#SVGID_56_);fill:#41BBEC;}
	.st34{clip-path:url(#SVGID_58_);fill:#41BBEC;}
	.st35{clip-path:url(#SVGID_60_);fill:#41BBEC;}
	.st36{clip-path:url(#SVGID_62_);fill:#41BBEC;}
	.st37{clip-path:url(#SVGID_64_);fill:#41BBEC;}
	.st38{clip-path:url(#SVGID_66_);fill:#41BBEC;}
	.st39{clip-path:url(#SVGID_68_);fill:#41BBEC;}
	.st40{clip-path:url(#SVGID_70_);fill:#41BBEC;}
	.st41{clip-path:url(#SVGID_72_);fill:#41BBEC;}
	.st42{clip-path:url(#SVGID_74_);fill:#41BBEC;}
	.st43{clip-path:url(#SVGID_76_);fill:#41BBEC;}
	.st44{clip-path:url(#SVGID_78_);fill:#41BBEC;}
	.st45{clip-path:url(#SVGID_80_);fill:#41BBEC;}
	.st46{clip-path:url(#SVGID_82_);fill:#41BBEC;}
	.st47{clip-path:url(#SVGID_84_);fill:#41BBEC;}
	.st48{clip-path:url(#SVGID_86_);fill:#41BBEC;}
	.st49{clip-path:url(#SVGID_88_);fill:#41BBEC;}
	.st50{clip-path:url(#SVGID_90_);fill:#41BBEC;}
	.st51{clip-path:url(#SVGID_92_);fill:#41BBEC;}
	.st52{clip-path:url(#SVGID_94_);fill:#41BBEC;}
	.st53{clip-path:url(#SVGID_96_);fill:#41BBEC;}
	.st54{clip-path:url(#SVGID_98_);fill:#41BBEC;}
	.st55{clip-path:url(#SVGID_100_);fill:#41BBEC;}
	.st56{clip-path:url(#SVGID_102_);fill:#41BBEC;}
	.st57{clip-path:url(#SVGID_104_);fill:#41BBEC;}
	.st58{clip-path:url(#SVGID_106_);fill:#41BBEC;}
	.st59{clip-path:url(#SVGID_108_);fill:#41BBEC;}
	.st60{clip-path:url(#SVGID_110_);fill:#41BBEC;}
	.st61{clip-path:url(#SVGID_112_);fill:#41BBEC;}
	.st62{clip-path:url(#SVGID_114_);fill:#41BBEC;}
	.st63{clip-path:url(#SVGID_116_);fill:#41BBEC;}
	.st64{clip-path:url(#SVGID_118_);fill:#41BBEC;}
	.st65{clip-path:url(#SVGID_120_);fill:#41BBEC;}
	.st66{clip-path:url(#SVGID_122_);fill:#41BBEC;}
	.st67{clip-path:url(#SVGID_124_);fill:#41BBEC;}
	.st68{clip-path:url(#SVGID_126_);}
	.st69{clip-path:url(#SVGID_128_);}
	.st70{clip-path:url(#SVGID_130_);}
	.st71{clip-path:url(#SVGID_132_);}
	.st72{clip-path:url(#SVGID_134_);}
	.st73{clip-path:url(#SVGID_136_);}
	.st74{clip-path:url(#SVGID_138_);}
	.st75{clip-path:url(#SVGID_140_);}
	.st76{clip-path:url(#SVGID_142_);}
	.st77{clip-path:url(#SVGID_144_);}
	.st78{clip-path:url(#SVGID_146_);}
	.st79{clip-path:url(#SVGID_148_);}
	.st80{clip-path:url(#SVGID_150_);}
	.st81{clip-path:url(#SVGID_152_);}
	.st82{clip-path:url(#SVGID_154_);}
	.st83{clip-path:url(#SVGID_156_);}
	.st84{clip-path:url(#SVGID_158_);}
	.st85{clip-path:url(#SVGID_160_);}
	.st86{clip-path:url(#SVGID_162_);}
	.st87{clip-path:url(#SVGID_164_);}
	.st88{clip-path:url(#SVGID_166_);}
	.st89{clip-path:url(#SVGID_168_);}
	.st90{clip-path:url(#SVGID_170_);}
	.st91{clip-path:url(#SVGID_172_);}
	.st92{clip-path:url(#SVGID_174_);}
	.st93{clip-path:url(#SVGID_176_);}
	.st94{clip-path:url(#SVGID_178_);}
	.st95{clip-path:url(#SVGID_180_);}
	.st96{clip-path:url(#SVGID_182_);}
	.st97{clip-path:url(#SVGID_184_);}
	.st98{clip-path:url(#SVGID_186_);}
	.st99{clip-path:url(#SVGID_188_);}
	.st100{clip-path:url(#SVGID_190_);}
	.st101{clip-path:url(#SVGID_192_);}
	.st102{clip-path:url(#SVGID_194_);}
	.st103{clip-path:url(#SVGID_196_);}
	.st104{clip-path:url(#SVGID_198_);}
	.st105{clip-path:url(#SVGID_200_);}
	.st106{clip-path:url(#SVGID_202_);}
	.st107{clip-path:url(#SVGID_204_);}
	.st108{clip-path:url(#SVGID_206_);}
	.st109{clip-path:url(#SVGID_208_);}
	.st110{clip-path:url(#SVGID_210_);}
	.st111{clip-path:url(#SVGID_212_);}
	.st112{clip-path:url(#SVGID_214_);}
	.st113{clip-path:url(#SVGID_216_);}
	.st114{clip-path:url(#SVGID_218_);}
	.st115{clip-path:url(#SVGID_220_);}
	.st116{clip-path:url(#SVGID_222_);}
	.st117{clip-path:url(#SVGID_224_);}
	.st118{clip-path:url(#SVGID_226_);}
	.st119{clip-path:url(#SVGID_228_);}
	.st120{clip-path:url(#SVGID_230_);}
	.st121{clip-path:url(#SVGID_232_);}
	.st122{clip-path:url(#SVGID_234_);}
	.st123{fill:none;stroke:#42C7F4;stroke-miterlimit:10;stroke-dasharray:12.394,12.3938;}
	.st124{clip-path:url(#SVGID_236_);}
	.st125{fill:none;stroke:#000000;stroke-miterlimit:10;stroke-dasharray:12.394,12.3938;}
	.st126{clip-path:url(#SVGID_238_);}
	.st127{clip-path:url(#SVGID_240_);}
	.st128{clip-path:url(#SVGID_242_);}
	.st129{clip-path:url(#SVGID_244_);}
	.st130{clip-path:url(#SVGID_246_);}
	.st131{clip-path:url(#SVGID_248_);}
	.st132{clip-path:url(#SVGID_250_);fill:#37BBF0;}
	.st133{clip-path:url(#SVGID_252_);fill:#37BBF0;}
	.st134{clip-path:url(#SVGID_254_);fill:#37BBF0;}
	.st135{clip-path:url(#SVGID_256_);fill:#37BBF0;}
	.st136{clip-path:url(#SVGID_258_);fill:#37BBF0;}
	.st137{clip-path:url(#SVGID_260_);fill:#37BBF0;}
</style>
<g id="Layer_1_1_">
	<g id="Layer_2">
	</g>
</g>
<polyline id="XMLID_4_" class="st0" points="216,360 288,360 288,288.3 360,288.3 360,216.1 432,216.1 432,143.9 "/>
<g id="XMLID_3_">
	<g id="XMLID_23_">
		<line id="XMLID_28_" class="st1" x1="216" y1="360" x2="216" y2="354"/>
		<line id="XMLID_27_" class="st2" x1="216" y1="341.6" x2="216" y2="72.7"/>
		<line id="XMLID_26_" class="st1" x1="216" y1="66.5" x2="216" y2="60.5"/>
		<g id="XMLID_24_">
			<path id="XMLID_25_" d="M216,57.5c0.5,1.4,1.4,3.2,2.4,4.3l-2.4-0.9l-2.4,0.9C214.6,60.7,215.5,58.9,216,57.5z"/>
		</g>
	</g>
</g>
<g id="XMLID_11_">
	<g id="XMLID_29_">
		<line id="XMLID_32_" class="st3" x1="216" y1="360" x2="455.5" y2="360"/>
		<g id="XMLID_30_">
			<path id="XMLID_31_" d="M458.5,360c-1.4,0.5-3.2,1.4-4.3,2.4l0.9-2.4l-0.9-2.4C455.3,358.6,457.1,359.5,458.5,360z"/>
		</g>
	</g>
</g>
<g id="XMLID_15_">
	<g>
		<defs>
			<rect id="SVGID_1_" x="345.1" y="380.2" width="4.1" height="8"/>
		</defs>
		<clipPath id="SVGID_2_">
			<use xlink:href="#SVGID_1_"  style="overflow:visible;"/>
		</clipPath>
		<path id="XMLID_17_" class="st4" d="M347.3,383h1.1c0.2,0,0.4,0,0.4-0.2c0-0.1-0.1-0.1-0.3-0.1h-1c0.4-1.7,0.5-1.9,0.5-2
			c0-0.2-0.1-0.3-0.3-0.3c0,0-0.4,0-0.5,0.4l-0.5,1.9h-1.1c-0.2,0-0.4,0-0.4,0.2c0,0.1,0.1,0.1,0.3,0.1h1c-0.9,3.4-0.9,3.6-0.9,3.8
			c0,0.6,0.5,1.1,1.1,1.1c1.2,0,1.9-1.7,1.9-1.8c0-0.1-0.1-0.1-0.1-0.1c-0.1,0-0.1,0-0.2,0.2c-0.5,1.2-1.1,1.5-1.5,1.5
			c-0.2,0-0.4-0.2-0.4-0.5s0-0.4,0.1-0.6L347.3,383"/>
	</g>
</g>
<line id="XMLID_12_" class="st5" x1="288.1" y1="366.5" x2="288.1" y2="356.7"/>
<line id="XMLID_13_" class="st5" x1="360.1" y1="365.6" x2="360.1" y2="355.8"/>
<line id="XMLID_14_" class="st5" x1="432" y1="364.9" x2="432" y2="355.1"/>
<g id="XMLID_37_">
	<g>
		<defs>
			<rect id="SVGID_3_" x="430" y="369" width="4" height="6"/>
		</defs>
		<clipPath id="SVGID_4_">
			<use xlink:href="#SVGID_3_"  style="overflow:visible;"/>
		</clipPath>
		<path id="XMLID_39_" class="st6" d="M432.4,371.9c0.7-0.2,1.1-0.8,1.1-1.4c0-0.7-0.7-1.1-1.5-1.1s-1.4,0.5-1.4,1.1
			c0,0.3,0.2,0.4,0.4,0.4c0.2,0,0.4-0.2,0.4-0.4c0-0.4-0.4-0.4-0.5-0.4c0.2-0.4,0.8-0.5,1.1-0.5c0.3,0,0.8,0.2,0.8,0.9
			c0,0.1,0,0.6-0.2,0.9c-0.2,0.4-0.5,0.4-0.7,0.4c-0.1,0-0.3,0-0.3,0c-0.1,0-0.1,0-0.1,0.1s0.1,0.1,0.2,0.1h0.4
			c0.7,0,0.9,0.5,0.9,1.3c0,1.1-0.5,1.3-0.9,1.3c-0.3,0-0.9-0.1-1.2-0.6c0.3,0,0.5-0.1,0.5-0.4s-0.2-0.4-0.4-0.4
			c-0.2,0-0.4,0.1-0.4,0.5c0,0.7,0.7,1.2,1.6,1.2c1,0,1.7-0.7,1.7-1.5C433.7,372.7,433.2,372.1,432.4,371.9"/>
	</g>
</g>
<g id="XMLID_34_">
	<g>
		<defs>
			<rect id="SVGID_5_" x="358.1" y="369" width="4" height="6"/>
		</defs>
		<clipPath id="SVGID_6_">
			<use xlink:href="#SVGID_5_"  style="overflow:visible;"/>
		</clipPath>
		<path id="XMLID_36_" class="st7" d="M359.2,374.1l0.8-0.8c1.2-1.1,1.7-1.5,1.7-2.3c0-0.9-0.7-1.5-1.7-1.5c-0.9,0-1.5,0.7-1.5,1.4
			c0,0.4,0.4,0.4,0.4,0.4c0.1,0,0.4-0.1,0.4-0.4c0-0.2-0.1-0.4-0.4-0.4c-0.1,0-0.1,0-0.1,0c0.2-0.5,0.6-0.8,1.1-0.8
			c0.7,0,1.1,0.6,1.1,1.3c0,0.6-0.4,1.3-0.8,1.8l-1.5,1.7c-0.1,0.1-0.1,0.1-0.1,0.3h2.9l0.2-1.4h-0.2c0,0.2-0.1,0.6-0.2,0.7
			s-0.6,0.1-0.8,0.1h-1.3"/>
	</g>
</g>
<g id="XMLID_19_">
	<g>
		<defs>
			<rect id="SVGID_7_" x="286.6" y="369" width="3.1" height="6"/>
		</defs>
		<clipPath id="SVGID_8_">
			<use xlink:href="#SVGID_7_"  style="overflow:visible;"/>
		</clipPath>
		<path id="XMLID_33_" class="st8" d="M288.3,369.7c0-0.2,0-0.2-0.2-0.2c-0.5,0.5-1.2,0.5-1.4,0.5v0.2c0.2,0,0.6,0,1-0.2v4.1
			c0,0.3,0,0.4-0.7,0.4h-0.3v0.2c0.3,0,1,0,1.3,0s1,0,1.3,0v-0.2H289c-0.7,0-0.7-0.1-0.7-0.4V369.7"/>
	</g>
</g>
<line id="XMLID_18_" class="st1" x1="210" y1="216" x2="221.5" y2="216"/>
<line id="XMLID_40_" class="st1" x1="210" y1="288" x2="221.5" y2="288"/>
<line id="XMLID_41_" class="st1" x1="210.2" y1="143.9" x2="221.8" y2="143.9"/>
<g id="XMLID_42_">
	<g>
		<defs>
			<rect id="SVGID_9_" x="202.9" y="285" width="3.1" height="6"/>
		</defs>
		<clipPath id="SVGID_10_">
			<use xlink:href="#SVGID_9_"  style="overflow:visible;"/>
		</clipPath>
		<path id="XMLID_44_" class="st9" d="M204.6,285.6c0-0.2,0-0.2-0.2-0.2c-0.5,0.5-1.2,0.5-1.4,0.5v0.2c0.2,0,0.6,0,1-0.2v4.1
			c0,0.3,0,0.4-0.7,0.4H203v0.2c0.3,0,1,0,1.3,0s1,0,1.3,0v-0.2h-0.3c-0.7,0-0.7-0.1-0.7-0.4V285.6"/>
	</g>
</g>
<g id="XMLID_45_">
	<g>
		<defs>
			<rect id="SVGID_11_" x="202.4" y="213" width="4" height="6"/>
		</defs>
		<clipPath id="SVGID_12_">
			<use xlink:href="#SVGID_11_"  style="overflow:visible;"/>
		</clipPath>
		<path id="XMLID_47_" class="st10" d="M203.5,218.1l0.8-0.8c1.2-1.1,1.7-1.5,1.7-2.3c0-0.9-0.7-1.5-1.7-1.5c-0.9,0-1.5,0.7-1.5,1.4
			c0,0.4,0.4,0.4,0.4,0.4c0.1,0,0.4-0.1,0.4-0.4c0-0.2-0.1-0.4-0.4-0.4c-0.1,0-0.1,0-0.1,0c0.2-0.5,0.6-0.8,1.1-0.8
			c0.7,0,1.1,0.6,1.1,1.3c0,0.6-0.4,1.3-0.8,1.8l-1.5,1.7c-0.1,0.1-0.1,0.1-0.1,0.3h2.9l0.2-1.4h-0.2c0,0.2-0.1,0.6-0.2,0.7
			c-0.1,0.1-0.6,0.1-0.8,0.1h-1.3"/>
	</g>
</g>
<g id="XMLID_48_">
	<g>
		<defs>
			<rect id="SVGID_13_" x="202.4" y="140.5" width="4" height="6"/>
		</defs>
		<clipPath id="SVGID_14_">
			<use xlink:href="#SVGID_13_"  style="overflow:visible;"/>
		</clipPath>
		<path id="XMLID_50_" class="st11" d="M204.8,143.4c0.7-0.2,1.1-0.8,1.1-1.4c0-0.7-0.7-1.1-1.5-1.1s-1.4,0.5-1.4,1.1
			c0,0.3,0.2,0.4,0.4,0.4s0.4-0.2,0.4-0.4c0-0.4-0.4-0.4-0.5-0.4c0.2-0.4,0.8-0.5,1.1-0.5s0.8,0.2,0.8,0.9c0,0.1,0,0.6-0.2,0.9
			c-0.2,0.4-0.5,0.4-0.7,0.4c-0.1,0-0.3,0-0.3,0c-0.1,0-0.1,0-0.1,0.1s0.1,0.1,0.2,0.1h0.4c0.7,0,0.9,0.5,0.9,1.3
			c0,1.1-0.5,1.3-0.9,1.3c-0.3,0-0.9-0.1-1.2-0.6c0.3,0,0.5-0.1,0.5-0.4c0-0.3-0.2-0.4-0.4-0.4s-0.4,0.1-0.4,0.5
			c0,0.7,0.7,1.2,1.6,1.2c1,0,1.7-0.7,1.7-1.5C206.2,144.2,205.7,143.6,204.8,143.4"/>
	</g>
</g>
<polyline id="XMLID_2_" class="st12" points="216,360 216,288 287.8,288 287.8,216.5 359.2,216.5 359.2,143.5 432,143.5 "/>
<g id="XMLID_68_">
	<g>
		<defs>
			<rect id="SVGID_15_" x="218.2" y="280.2" width="32.9" height="7.2"/>
		</defs>
		<clipPath id="SVGID_16_">
			<use xlink:href="#SVGID_15_"  style="overflow:visible;"/>
		</clipPath>
		<path id="XMLID_97_" class="st13" d="M220.4,283.7c0-0.2,0.2-0.7,0.6-0.7c0,0,0.2,0,0.3,0.1c-0.2,0-0.3,0.2-0.3,0.3
			c0,0.1,0.1,0.2,0.2,0.2c0.1,0,0.3-0.1,0.3-0.3c0-0.3-0.4-0.4-0.6-0.4c-0.3,0-0.6,0.3-0.6,0.5c-0.1-0.4-0.5-0.5-0.6-0.5
			c-0.6,0-1,0.8-1,0.9s0.1,0.1,0.1,0.1s0.1,0,0.1-0.1c0.2-0.6,0.6-0.8,0.8-0.8c0.1,0,0.3,0.1,0.3,0.4c0,0.2-0.1,0.6-0.3,1.4
			c-0.1,0.4-0.3,0.6-0.6,0.6c0,0-0.2,0-0.3-0.1c0.2,0,0.3-0.2,0.3-0.3c0-0.2-0.1-0.2-0.2-0.2c-0.2,0-0.3,0.2-0.3,0.3
			c0,0.3,0.3,0.4,0.6,0.4c0.4,0,0.6-0.4,0.6-0.5c0.1,0.2,0.3,0.5,0.6,0.5c0.6,0,1-0.8,1-0.9s-0.1-0.1-0.1-0.1c-0.1,0-0.1,0-0.1,0.1
			c-0.2,0.6-0.6,0.8-0.8,0.8s-0.3-0.2-0.3-0.4c0-0.1,0-0.3,0.1-0.5L220.4,283.7"/>
	</g>
	<g>
		<defs>
			<rect id="SVGID_17_" x="218.2" y="280.2" width="32.9" height="7.2"/>
		</defs>
		<clipPath id="SVGID_18_">
			<use xlink:href="#SVGID_17_"  style="overflow:visible;"/>
		</clipPath>
		<path id="XMLID_96_" class="st14" d="M223.8,286.9c0,0,0,0-0.1-0.1c-0.7-0.8-0.9-1.9-0.9-2.8c0-1,0.2-2.1,1-2.8
			c0.1-0.1,0.1-0.1,0.1-0.1s0-0.1-0.1-0.1s-0.6,0.4-0.9,1.2c-0.3,0.7-0.4,1.3-0.4,1.8s0.1,1.2,0.4,1.9
			C223.2,286.6,223.7,287,223.8,286.9C223.8,287,223.8,286.9,223.8,286.9"/>
	</g>
	<g>
		<defs>
			<rect id="SVGID_19_" x="218.2" y="280.2" width="32.9" height="7.2"/>
		</defs>
		<clipPath id="SVGID_20_">
			<use xlink:href="#SVGID_19_"  style="overflow:visible;"/>
		</clipPath>
		<path id="XMLID_93_" class="st15" d="M225.6,285.5c-0.2,0-0.6-0.1-0.7-0.7c-0.1-0.4-0.1-0.9-0.1-1.3s0-0.8,0-1.1
			c0.1-0.7,0.6-0.8,0.7-0.8c0.2,0,0.6,0.1,0.7,0.7c0.1,0.3,0.1,0.8,0.1,1.2c0,0.4,0,0.9-0.1,1.2
			C226.2,285.3,225.9,285.5,225.6,285.5 M226.9,283.6c0-0.5,0-1-0.2-1.4c-0.3-0.6-0.8-0.7-1-0.7c-0.4,0-0.8,0.2-1,0.7
			c-0.2,0.4-0.2,0.9-0.2,1.4c0,0.4,0,1,0.3,1.4c0.3,0.5,0.7,0.6,1,0.6s0.8-0.1,1-0.7C226.8,284.5,226.9,284,226.9,283.6z"/>
	</g>
	<g>
		<defs>
			<rect id="SVGID_21_" x="218.2" y="280.2" width="32.9" height="7.2"/>
		</defs>
		<clipPath id="SVGID_22_">
			<use xlink:href="#SVGID_21_"  style="overflow:visible;"/>
		</clipPath>
		<path id="XMLID_92_" class="st16" d="M229,282h1.3c0.1,0,0.2,0,0.2-0.1s-0.1-0.1-0.2-0.1H229v-1.3c0-0.1,0-0.2-0.1-0.2
			s-0.1,0.1-0.1,0.2v1.3h-1.3c-0.1,0-0.2,0-0.2,0.1s0.1,0.1,0.2,0.1h1.3v1.3c0,0.1,0,0.2,0.1,0.2s0.1-0.1,0.1-0.2V282"/>
	</g>
	<g>
		<defs>
			<rect id="SVGID_23_" x="218.2" y="280.2" width="32.9" height="7.2"/>
		</defs>
		<clipPath id="SVGID_24_">
			<use xlink:href="#SVGID_23_"  style="overflow:visible;"/>
		</clipPath>
		<path id="XMLID_91_" class="st17" d="M232.9,284c0-0.5-0.1-1.2-0.4-1.9c-0.4-0.7-0.9-1.1-0.9-1.1s-0.1,0-0.1,0.1c0,0,0,0,0.1,0.1
			c0.6,0.6,0.9,1.5,0.9,2.8c0,1-0.2,2.1-1,2.8c-0.1,0.1-0.1,0.1-0.1,0.1s0,0.1,0.1,0.1s0.6-0.4,0.9-1.2
			C232.8,285.1,232.9,284.5,232.9,284"/>
	</g>
	<g>
		<defs>
			<rect id="SVGID_25_" x="218.2" y="280.2" width="32.9" height="7.2"/>
		</defs>
		<clipPath id="SVGID_26_">
			<use xlink:href="#SVGID_25_"  style="overflow:visible;"/>
		</clipPath>
		<path id="XMLID_74_" class="st18" d="M239.1,284.7c0.1,0,0.2,0,0.2-0.1s-0.1-0.1-0.2-0.1h-3.6c-0.1,0-0.2,0-0.2,0.1
			s0.1,0.1,0.2,0.1H239.1 M239.1,283.5c0.1,0,0.2,0,0.2-0.1s-0.1-0.1-0.2-0.1h-3.6c-0.1,0-0.2,0-0.2,0.1s0.1,0.1,0.2,0.1H239.1z"/>
	</g>
	<g>
		<defs>
			<rect id="SVGID_27_" x="218.2" y="280.2" width="32.9" height="7.2"/>
		</defs>
		<clipPath id="SVGID_28_">
			<use xlink:href="#SVGID_27_"  style="overflow:visible;"/>
		</clipPath>
		<path id="XMLID_73_" class="st19" d="M243.4,283.7c0-0.2,0.2-0.7,0.6-0.7c0,0,0.2,0,0.3,0.1c-0.2,0-0.3,0.2-0.3,0.3
			c0,0.1,0.1,0.2,0.2,0.2c0.1,0,0.3-0.1,0.3-0.3c0-0.3-0.4-0.4-0.6-0.4c-0.3,0-0.6,0.3-0.6,0.5c-0.1-0.4-0.5-0.5-0.6-0.5
			c-0.6,0-1,0.8-1,0.9s0.1,0.1,0.1,0.1s0.1,0,0.1-0.1c0.2-0.6,0.6-0.8,0.8-0.8c0.1,0,0.3,0.1,0.3,0.4c0,0.2-0.1,0.6-0.3,1.4
			c-0.1,0.4-0.3,0.6-0.6,0.6c0,0-0.2,0-0.3-0.1c0.1,0,0.3-0.2,0.3-0.3c0-0.2-0.1-0.2-0.2-0.2c-0.2,0-0.3,0.2-0.3,0.3
			c0,0.3,0.3,0.4,0.6,0.4c0.4,0,0.6-0.4,0.6-0.5c0.1,0.2,0.3,0.5,0.6,0.5c0.6,0,1-0.8,1-0.9s-0.1-0.1-0.1-0.1c-0.1,0-0.1,0-0.1,0.1
			c-0.2,0.6-0.6,0.8-0.8,0.8s-0.3-0.2-0.3-0.4c0-0.1,0-0.3,0.1-0.5L243.4,283.7"/>
	</g>
	<g>
		<defs>
			<rect id="SVGID_29_" x="218.2" y="280.2" width="32.9" height="7.2"/>
		</defs>
		<clipPath id="SVGID_30_">
			<use xlink:href="#SVGID_29_"  style="overflow:visible;"/>
		</clipPath>
		<polyline id="XMLID_72_" class="st20" points="246.4,287 246.4,286.7 245.8,286.7 245.8,281.2 246.4,281.2 246.4,281 245.5,281 
			245.5,287 246.4,287 		"/>
	</g>
	<g>
		<defs>
			<rect id="SVGID_31_" x="218.2" y="280.2" width="32.9" height="7.2"/>
		</defs>
		<clipPath id="SVGID_32_">
			<use xlink:href="#SVGID_31_"  style="overflow:visible;"/>
		</clipPath>
		<path id="XMLID_71_" class="st21" d="M248.2,281.6c0-0.1,0-0.2-0.1-0.2c-0.4,0.4-0.9,0.4-1.1,0.4v0.2c0.1,0,0.5,0,0.8-0.2v3.1
			c0,0.2,0,0.3-0.6,0.3H247v0.2c0.2,0,0.7,0,1,0c0.2,0,0.8,0,1,0v-0.2h-0.2c-0.5,0-0.6-0.1-0.6-0.3V281.6"/>
	</g>
	<g>
		<defs>
			<rect id="SVGID_33_" x="218.2" y="280.2" width="32.9" height="7.2"/>
		</defs>
		<clipPath id="SVGID_34_">
			<use xlink:href="#SVGID_33_"  style="overflow:visible;"/>
		</clipPath>
		<polyline id="XMLID_70_" class="st22" points="250.4,281 249.6,281 249.6,281.2 250.1,281.2 250.1,286.7 249.6,286.7 249.6,287 
			250.4,287 250.4,281 		"/>
	</g>
</g>
<g id="XMLID_98_">
	<g>
		<defs>
			<rect id="SVGID_35_" x="291.2" y="205.8" width="32.9" height="7.2"/>
		</defs>
		<clipPath id="SVGID_36_">
			<use xlink:href="#SVGID_35_"  style="overflow:visible;"/>
		</clipPath>
		<path id="XMLID_111_" class="st23" d="M293.3,209.2c0-0.2,0.2-0.7,0.6-0.7c0,0,0.2,0,0.3,0.1c-0.2,0-0.3,0.2-0.3,0.3
			s0.1,0.2,0.2,0.2s0.3-0.1,0.3-0.3c0-0.3-0.4-0.4-0.6-0.4c-0.3,0-0.6,0.3-0.6,0.5c-0.1-0.4-0.5-0.5-0.6-0.5c-0.6,0-1,0.8-1,0.9
			c0,0.1,0.1,0.1,0.1,0.1s0.1,0,0.1-0.1c0.2-0.6,0.6-0.8,0.8-0.8c0.1,0,0.3,0.1,0.3,0.4c0,0.2-0.1,0.6-0.3,1.4
			c-0.1,0.4-0.3,0.6-0.6,0.6c0,0-0.2,0-0.3-0.1c0.1,0,0.3-0.2,0.3-0.3c0-0.2-0.1-0.2-0.2-0.2c-0.2,0-0.3,0.2-0.3,0.3
			c0,0.3,0.3,0.4,0.6,0.4c0.4,0,0.6-0.4,0.6-0.5c0.1,0.2,0.3,0.5,0.6,0.5c0.6,0,1-0.8,1-0.9c0-0.1-0.1-0.1-0.1-0.1
			c-0.1,0-0.1,0-0.1,0.1c-0.2,0.6-0.6,0.8-0.8,0.8c-0.2,0-0.3-0.2-0.3-0.4c0-0.1,0-0.3,0.1-0.5L293.3,209.2"/>
	</g>
	<g>
		<defs>
			<rect id="SVGID_37_" x="291.2" y="205.8" width="32.9" height="7.2"/>
		</defs>
		<clipPath id="SVGID_38_">
			<use xlink:href="#SVGID_37_"  style="overflow:visible;"/>
		</clipPath>
		<path id="XMLID_110_" class="st24" d="M296.7,212.5c0,0,0,0-0.1-0.1c-0.7-0.8-0.9-1.9-0.9-2.8c0-1,0.2-2.1,1-2.8
			c0.1-0.1,0.1-0.1,0.1-0.1s0-0.1-0.1-0.1s-0.6,0.4-0.9,1.2c-0.3,0.7-0.4,1.3-0.4,1.8s0.1,1.2,0.4,1.9
			C296.1,212.1,296.6,212.5,296.7,212.5L296.7,212.5"/>
	</g>
	<g>
		<defs>
			<rect id="SVGID_39_" x="291.2" y="205.8" width="32.9" height="7.2"/>
		</defs>
		<clipPath id="SVGID_40_">
			<use xlink:href="#SVGID_39_"  style="overflow:visible;"/>
		</clipPath>
		<path id="XMLID_109_" class="st25" d="M298.8,207.2c0-0.1,0-0.2-0.1-0.2c-0.4,0.4-0.9,0.4-1.1,0.4v0.2c0.1,0,0.5,0,0.8-0.2v3.1
			c0,0.2,0,0.3-0.6,0.3h-0.2v0.2c0.2,0,0.7,0,1,0c0.2,0,0.8,0,1,0v-0.2h-0.2c-0.5,0-0.6-0.1-0.6-0.3L298.8,207.2"/>
	</g>
	<g>
		<defs>
			<rect id="SVGID_41_" x="291.2" y="205.8" width="32.9" height="7.2"/>
		</defs>
		<clipPath id="SVGID_42_">
			<use xlink:href="#SVGID_41_"  style="overflow:visible;"/>
		</clipPath>
		<path id="XMLID_108_" class="st26" d="M302,207.6h1.3c0.1,0,0.2,0,0.2-0.1s-0.1-0.1-0.2-0.1H302v-1.3c0-0.1,0-0.2-0.1-0.2
			s-0.1,0.1-0.1,0.2v1.3h-1.3c-0.1,0-0.2,0-0.2,0.1s0.1,0.1,0.2,0.1h1.3v1.3c0,0.1,0,0.2,0.1,0.2s0.1-0.1,0.1-0.2V207.6"/>
	</g>
	<g>
		<defs>
			<rect id="SVGID_43_" x="291.2" y="205.8" width="32.9" height="7.2"/>
		</defs>
		<clipPath id="SVGID_44_">
			<use xlink:href="#SVGID_43_"  style="overflow:visible;"/>
		</clipPath>
		<path id="XMLID_107_" class="st27" d="M305.8,209.5c0-0.5-0.1-1.2-0.4-1.9c-0.4-0.7-0.9-1.1-0.9-1.1s-0.1,0-0.1,0.1
			c0,0,0,0,0.1,0.1c0.6,0.6,0.9,1.5,0.9,2.8c0,1-0.2,2.1-1,2.8c-0.1,0.1-0.1,0.1-0.1,0.1s0,0.1,0.1,0.1s0.6-0.4,0.9-1.2
			C305.7,210.7,305.8,210,305.8,209.5"/>
	</g>
	<g>
		<defs>
			<rect id="SVGID_45_" x="291.2" y="205.8" width="32.9" height="7.2"/>
		</defs>
		<clipPath id="SVGID_46_">
			<use xlink:href="#SVGID_45_"  style="overflow:visible;"/>
		</clipPath>
		<path id="XMLID_104_" class="st28" d="M312.1,210.2c0.1,0,0.2,0,0.2-0.1s-0.1-0.1-0.2-0.1h-3.6c-0.1,0-0.2,0-0.2,0.1
			s0.1,0.1,0.2,0.1H312.1 M312.1,209.1c0.1,0,0.2,0,0.2-0.1s-0.1-0.1-0.2-0.1h-3.6c-0.1,0-0.2,0-0.2,0.1s0.1,0.1,0.2,0.1H312.1z"/>
	</g>
	<g>
		<defs>
			<rect id="SVGID_47_" x="291.2" y="205.8" width="32.9" height="7.2"/>
		</defs>
		<clipPath id="SVGID_48_">
			<use xlink:href="#SVGID_47_"  style="overflow:visible;"/>
		</clipPath>
		<path id="XMLID_103_" class="st29" d="M316.3,209.2c0-0.2,0.2-0.7,0.6-0.7c0,0,0.2,0,0.3,0.1c-0.2,0-0.3,0.2-0.3,0.3
			s0.1,0.2,0.2,0.2s0.3-0.1,0.3-0.3c0-0.3-0.4-0.4-0.6-0.4c-0.3,0-0.6,0.3-0.6,0.5c-0.1-0.4-0.5-0.5-0.6-0.5c-0.6,0-1,0.8-1,0.9
			c0,0.1,0.1,0.1,0.1,0.1s0.1,0,0.1-0.1c0.2-0.6,0.6-0.8,0.8-0.8c0.1,0,0.3,0.1,0.3,0.4c0,0.2-0.1,0.6-0.3,1.4
			c-0.1,0.4-0.3,0.6-0.6,0.6c0,0-0.2,0-0.3-0.1c0.1,0,0.3-0.2,0.3-0.3c0-0.2-0.1-0.2-0.2-0.2c-0.2,0-0.3,0.2-0.3,0.3
			c0,0.3,0.3,0.4,0.6,0.4c0.4,0,0.6-0.4,0.6-0.5c0.1,0.2,0.3,0.5,0.6,0.5c0.6,0,1-0.8,1-0.9c0-0.1-0.1-0.1-0.1-0.1
			c-0.1,0-0.1,0-0.1,0.1c-0.2,0.6-0.6,0.8-0.8,0.8c-0.2,0-0.3-0.2-0.3-0.4c0-0.1,0-0.3,0.1-0.5L316.3,209.2"/>
	</g>
	<g>
		<defs>
			<rect id="SVGID_49_" x="291.2" y="205.8" width="32.9" height="7.2"/>
		</defs>
		<clipPath id="SVGID_50_">
			<use xlink:href="#SVGID_49_"  style="overflow:visible;"/>
		</clipPath>
		<polyline id="XMLID_102_" class="st30" points="319.3,212.5 319.3,212.3 318.7,212.3 318.7,206.8 319.3,206.8 319.3,206.6 
			318.5,206.6 318.5,212.5 319.3,212.5 		"/>
	</g>
	<g>
		<defs>
			<rect id="SVGID_51_" x="291.2" y="205.8" width="32.9" height="7.2"/>
		</defs>
		<clipPath id="SVGID_52_">
			<use xlink:href="#SVGID_51_"  style="overflow:visible;"/>
		</clipPath>
		<path id="XMLID_101_" class="st31" d="M320.1,210.6l0.6-0.6c0.9-0.8,1.3-1.1,1.3-1.7c0-0.7-0.5-1.2-1.3-1.2
			c-0.7,0-1.1,0.5-1.1,1.1c0,0.3,0.3,0.3,0.3,0.3c0.1,0,0.3-0.1,0.3-0.3s-0.1-0.3-0.3-0.3h-0.1c0.1-0.4,0.5-0.6,0.8-0.6
			c0.5,0,0.8,0.5,0.8,1s-0.3,0.9-0.6,1.3l-1.1,1.3c-0.1,0.1-0.1,0.1-0.1,0.2h2.2l0.2-1h-0.1c0,0.2-0.1,0.4-0.1,0.5c0,0-0.4,0-0.6,0
			H320.1"/>
	</g>
	<g>
		<defs>
			<rect id="SVGID_53_" x="291.2" y="205.8" width="32.9" height="7.2"/>
		</defs>
		<clipPath id="SVGID_54_">
			<use xlink:href="#SVGID_53_"  style="overflow:visible;"/>
		</clipPath>
		<polyline id="XMLID_100_" class="st32" points="323.3,206.6 322.5,206.6 322.5,206.8 323.1,206.8 323.1,212.3 322.5,212.3 
			322.5,212.5 323.3,212.5 323.3,206.6 		"/>
	</g>
</g>
<g id="XMLID_112_">
	<g>
		<defs>
			<rect id="SVGID_55_" x="270.1" y="280.8" width="14.9" height="6.6"/>
		</defs>
		<clipPath id="SVGID_56_">
			<use xlink:href="#SVGID_55_"  style="overflow:visible;"/>
		</clipPath>
		<path id="XMLID_118_" class="st33" d="M272,283.7c0-0.2,0.2-0.7,0.6-0.7c0,0,0.2,0,0.3,0.1c-0.2,0-0.3,0.2-0.3,0.3
			c0,0.1,0.1,0.2,0.2,0.2s0.3-0.1,0.3-0.3c0-0.3-0.4-0.4-0.6-0.4c-0.3,0-0.6,0.3-0.6,0.5c-0.1-0.4-0.5-0.5-0.6-0.5
			c-0.6,0-1,0.8-1,0.9s0.1,0.1,0.1,0.1s0.1,0,0.1-0.1c0.2-0.6,0.6-0.8,0.8-0.8c0.1,0,0.3,0.1,0.3,0.4c0,0.2-0.1,0.6-0.3,1.4
			c-0.1,0.4-0.3,0.6-0.6,0.6c0,0-0.2,0-0.3-0.1c0.1,0,0.3-0.2,0.3-0.3c0-0.2-0.1-0.2-0.2-0.2c-0.2,0-0.3,0.2-0.3,0.3
			c0,0.3,0.3,0.4,0.6,0.4c0.4,0,0.6-0.4,0.6-0.5c0.1,0.2,0.3,0.5,0.6,0.5c0.6,0,1-0.8,1-0.9s-0.1-0.1-0.1-0.1c-0.1,0-0.1,0-0.1,0.1
			c-0.2,0.6-0.6,0.8-0.8,0.8c-0.2,0-0.3-0.2-0.3-0.4c0-0.1,0-0.3,0.1-0.5L272,283.7"/>
	</g>
	<g>
		<defs>
			<rect id="SVGID_57_" x="270.1" y="280.8" width="14.9" height="6.6"/>
		</defs>
		<clipPath id="SVGID_58_">
			<use xlink:href="#SVGID_57_"  style="overflow:visible;"/>
		</clipPath>
		<path id="XMLID_117_" class="st34" d="M275.4,286.9c0,0,0,0-0.1-0.1c-0.7-0.8-0.9-1.9-0.9-2.8c0-1,0.2-2.1,1-2.8
			c0.1-0.1,0.1-0.1,0.1-0.1s0-0.1-0.1-0.1s-0.6,0.4-0.9,1.2c-0.3,0.7-0.4,1.3-0.4,1.8s0.1,1.2,0.4,1.9
			C274.8,286.6,275.3,287,275.4,286.9C275.4,287,275.4,286.9,275.4,286.9"/>
	</g>
	<g>
		<defs>
			<rect id="SVGID_59_" x="270.1" y="280.8" width="14.9" height="6.6"/>
		</defs>
		<clipPath id="SVGID_60_">
			<use xlink:href="#SVGID_59_"  style="overflow:visible;"/>
		</clipPath>
		<path id="XMLID_116_" class="st35" d="M277.5,281.6c0-0.1,0-0.2-0.1-0.2c-0.4,0.4-0.9,0.4-1.1,0.4v0.2c0.1,0,0.5,0,0.8-0.2v3.1
			c0,0.2,0,0.3-0.6,0.3h-0.2v0.2c0.2,0,0.7,0,1,0c0.2,0,0.8,0,1,0v-0.2h-0.2c-0.5,0-0.6-0.1-0.6-0.3L277.5,281.6"/>
	</g>
	<g>
		<defs>
			<rect id="SVGID_61_" x="270.1" y="280.8" width="14.9" height="6.6"/>
		</defs>
		<clipPath id="SVGID_62_">
			<use xlink:href="#SVGID_61_"  style="overflow:visible;"/>
		</clipPath>
		<path id="XMLID_115_" class="st36" d="M281.8,282c0.1,0,0.2,0,0.2-0.1s-0.1-0.1-0.2-0.1h-2.5c-0.1,0-0.2,0-0.2,0.1
			s0.1,0.1,0.2,0.1H281.8"/>
	</g>
	<g>
		<defs>
			<rect id="SVGID_63_" x="270.1" y="280.8" width="14.9" height="6.6"/>
		</defs>
		<clipPath id="SVGID_64_">
			<use xlink:href="#SVGID_63_"  style="overflow:visible;"/>
		</clipPath>
		<path id="XMLID_114_" class="st37" d="M284.5,284c0-0.5-0.1-1.2-0.4-1.9c-0.4-0.7-0.9-1.1-0.9-1.1s-0.1,0-0.1,0.1c0,0,0,0,0.1,0.1
			c0.6,0.6,0.9,1.5,0.9,2.8c0,1-0.2,2.1-1,2.8c-0.1,0.1-0.1,0.1-0.1,0.1s0,0.1,0.1,0.1s0.6-0.4,0.9-1.2
			C284.4,285.1,284.5,284.5,284.5,284"/>
	</g>
</g>
<g id="XMLID_84_">
	<g>
		<defs>
			<rect id="SVGID_65_" x="341.7" y="206.1" width="14.9" height="6.6"/>
		</defs>
		<clipPath id="SVGID_66_">
			<use xlink:href="#SVGID_65_"  style="overflow:visible;"/>
		</clipPath>
		<path id="XMLID_90_" class="st38" d="M343.7,208.9c0-0.2,0.2-0.7,0.6-0.7c0,0,0.2,0,0.3,0.1c-0.2,0-0.3,0.2-0.3,0.3
			s0.1,0.2,0.2,0.2s0.3-0.1,0.3-0.3c0-0.3-0.4-0.4-0.6-0.4c-0.3,0-0.6,0.3-0.6,0.5c-0.1-0.4-0.5-0.5-0.6-0.5c-0.6,0-1,0.8-1,0.9
			c0,0.1,0.1,0.1,0.1,0.1s0.1,0,0.1-0.1c0.2-0.6,0.6-0.8,0.8-0.8c0.1,0,0.3,0.1,0.3,0.4c0,0.2-0.1,0.6-0.3,1.4
			c-0.1,0.4-0.3,0.6-0.6,0.6c0,0-0.2,0-0.3-0.1c0.1,0,0.3-0.2,0.3-0.3c0-0.2-0.1-0.2-0.2-0.2c-0.2,0-0.3,0.2-0.3,0.3
			c0,0.3,0.3,0.4,0.6,0.4c0.4,0,0.6-0.4,0.6-0.5c0.1,0.2,0.3,0.5,0.6,0.5c0.6,0,1-0.8,1-0.9c0-0.1-0.1-0.1-0.1-0.1
			c-0.1,0-0.1,0-0.1,0.1c-0.2,0.6-0.6,0.8-0.8,0.8c-0.2,0-0.3-0.2-0.3-0.4c0-0.1,0-0.3,0.1-0.5L343.7,208.9"/>
	</g>
	<g>
		<defs>
			<rect id="SVGID_67_" x="341.7" y="206.1" width="14.9" height="6.6"/>
		</defs>
		<clipPath id="SVGID_68_">
			<use xlink:href="#SVGID_67_"  style="overflow:visible;"/>
		</clipPath>
		<path id="XMLID_89_" class="st39" d="M347,212.2c0,0,0,0-0.1-0.1c-0.7-0.8-0.9-1.9-0.9-2.8c0-1,0.2-2.1,1-2.8
			c0.1-0.1,0.1-0.1,0.1-0.1s0-0.1-0.1-0.1s-0.6,0.4-0.9,1.2c-0.3,0.7-0.4,1.3-0.4,1.8s0.1,1.2,0.4,1.9
			C346.4,211.8,346.9,212.2,347,212.2L347,212.2"/>
	</g>
	<g>
		<defs>
			<rect id="SVGID_69_" x="341.7" y="206.1" width="14.9" height="6.6"/>
		</defs>
		<clipPath id="SVGID_70_">
			<use xlink:href="#SVGID_69_"  style="overflow:visible;"/>
		</clipPath>
		<path id="XMLID_88_" class="st40" d="M348.1,210.3l0.6-0.6c0.9-0.8,1.3-1.1,1.3-1.7c0-0.7-0.5-1.2-1.3-1.2c-0.7,0-1.1,0.5-1.1,1.1
			c0,0.3,0.3,0.3,0.3,0.3c0.1,0,0.3-0.1,0.3-0.3s-0.1-0.3-0.3-0.3h-0.1c0.1-0.4,0.5-0.6,0.8-0.6c0.5,0,0.8,0.5,0.8,1
			s-0.3,0.9-0.6,1.3l-1.1,1.3c-0.1,0.1-0.1,0.1-0.1,0.2h2.2l0.2-1h-0.1c0,0.2-0.1,0.4-0.1,0.5c0,0-0.4,0-0.6,0H348.1"/>
	</g>
	<g>
		<defs>
			<rect id="SVGID_71_" x="341.7" y="206.1" width="14.9" height="6.6"/>
		</defs>
		<clipPath id="SVGID_72_">
			<use xlink:href="#SVGID_71_"  style="overflow:visible;"/>
		</clipPath>
		<path id="XMLID_87_" class="st41" d="M353.4,207.3c0.1,0,0.2,0,0.2-0.1s-0.1-0.1-0.2-0.1H351c-0.1,0-0.2,0-0.2,0.1
			s0.1,0.1,0.2,0.1H353.4"/>
	</g>
	<g>
		<defs>
			<rect id="SVGID_73_" x="341.7" y="206.1" width="14.9" height="6.6"/>
		</defs>
		<clipPath id="SVGID_74_">
			<use xlink:href="#SVGID_73_"  style="overflow:visible;"/>
		</clipPath>
		<path id="XMLID_86_" class="st42" d="M356.1,209.2c0-0.5-0.1-1.2-0.4-1.9c-0.4-0.7-0.9-1.1-0.9-1.1s-0.1,0-0.1,0.1
			c0,0,0,0,0.1,0.1c0.6,0.6,0.9,1.5,0.9,2.8c0,1-0.2,2.1-1,2.8c-0.1,0.1-0.1,0.1-0.1,0.1s0,0.1,0.1,0.1s0.6-0.4,0.9-1.2
			C356,210.4,356.1,209.7,356.1,209.2"/>
	</g>
</g>
<g>
	<g>
		<defs>
			<rect id="SVGID_75_" x="362.2" y="134.2" width="32.9" height="7.2"/>
		</defs>
		<clipPath id="SVGID_76_">
			<use xlink:href="#SVGID_75_"  style="overflow:visible;"/>
		</clipPath>
		<path class="st43" d="M364.4,137.7c0-0.2,0.2-0.7,0.6-0.7c0,0,0.2,0,0.3,0.1c-0.2,0-0.3,0.2-0.3,0.3s0.1,0.2,0.2,0.2
			s0.3-0.1,0.3-0.3c0-0.3-0.4-0.4-0.6-0.4c-0.3,0-0.6,0.3-0.6,0.5c-0.1-0.4-0.5-0.5-0.6-0.5c-0.6,0-1,0.8-1,0.9
			c0,0.1,0.1,0.1,0.1,0.1s0.1,0,0.1-0.1c0.2-0.6,0.6-0.8,0.8-0.8c0.1,0,0.3,0.1,0.3,0.4c0,0.2-0.1,0.6-0.3,1.4
			c-0.1,0.4-0.3,0.6-0.6,0.6c0,0-0.2,0-0.3-0.1c0.1,0,0.3-0.2,0.3-0.3c0-0.2-0.1-0.2-0.2-0.2c-0.2,0-0.3,0.2-0.3,0.3
			c0,0.3,0.3,0.4,0.6,0.4c0.4,0,0.6-0.4,0.6-0.5c0.1,0.2,0.3,0.5,0.6,0.5c0.6,0,1-0.8,1-0.9c0-0.1-0.1-0.1-0.1-0.1
			c-0.1,0-0.1,0-0.1,0.1c-0.2,0.6-0.6,0.8-0.8,0.8c-0.2,0-0.3-0.2-0.3-0.4c0-0.1,0-0.3,0.1-0.5L364.4,137.7"/>
	</g>
	<g>
		<defs>
			<rect id="SVGID_77_" x="362.2" y="134.2" width="32.9" height="7.2"/>
		</defs>
		<clipPath id="SVGID_78_">
			<use xlink:href="#SVGID_77_"  style="overflow:visible;"/>
		</clipPath>
		<path class="st44" d="M367.8,140.9c0,0,0,0-0.1-0.1c-0.7-0.8-0.9-1.9-0.9-2.8c0-1,0.2-2.1,1-2.8c0.1-0.1,0.1-0.1,0.1-0.1
			s0-0.1-0.1-0.1s-0.6,0.4-0.9,1.2c-0.3,0.7-0.4,1.3-0.4,1.8s0.1,1.2,0.4,1.9C367.2,140.6,367.7,141,367.8,140.9
			C367.8,141,367.8,140.9,367.8,140.9"/>
	</g>
	<g>
		<defs>
			<rect id="SVGID_79_" x="362.2" y="134.2" width="32.9" height="7.2"/>
		</defs>
		<clipPath id="SVGID_80_">
			<use xlink:href="#SVGID_79_"  style="overflow:visible;"/>
		</clipPath>
		<path class="st45" d="M368.9,139l0.6-0.6c0.9-0.8,1.3-1.1,1.3-1.7c0-0.7-0.5-1.2-1.3-1.2c-0.7,0-1.1,0.5-1.1,1.1
			c0,0.3,0.3,0.3,0.3,0.3c0.1,0,0.3-0.1,0.3-0.3s-0.1-0.3-0.3-0.3h-0.1c0.1-0.4,0.5-0.6,0.8-0.6c0.5,0,0.8,0.5,0.8,1
			s-0.3,0.9-0.6,1.3l-1.1,1.3c-0.1,0.1-0.1,0.1-0.1,0.2h2.2l0.2-1h-0.1c0,0.2-0.1,0.4-0.1,0.5c0,0-0.4,0-0.6,0H368.9"/>
	</g>
	<g>
		<defs>
			<rect id="SVGID_81_" x="362.2" y="134.2" width="32.9" height="7.2"/>
		</defs>
		<clipPath id="SVGID_82_">
			<use xlink:href="#SVGID_81_"  style="overflow:visible;"/>
		</clipPath>
		<path class="st46" d="M373,136h1.3c0.1,0,0.2,0,0.2-0.1s-0.1-0.1-0.2-0.1H373v-1.3c0-0.1,0-0.2-0.1-0.2s-0.1,0.1-0.1,0.2v1.3h-1.3
			c-0.1,0-0.2,0-0.2,0.1s0.1,0.1,0.2,0.1h1.3v1.3c0,0.1,0,0.2,0.1,0.2s0.1-0.1,0.1-0.2V136"/>
	</g>
	<g>
		<defs>
			<rect id="SVGID_83_" x="362.2" y="134.2" width="32.9" height="7.2"/>
		</defs>
		<clipPath id="SVGID_84_">
			<use xlink:href="#SVGID_83_"  style="overflow:visible;"/>
		</clipPath>
		<path class="st47" d="M376.9,138c0-0.5-0.1-1.2-0.4-1.9c-0.4-0.7-0.9-1.1-0.9-1.1s-0.1,0-0.1,0.1c0,0,0,0,0.1,0.1
			c0.6,0.6,0.9,1.5,0.9,2.8c0,1-0.2,2.1-1,2.8c-0.1,0.1-0.1,0.1-0.1,0.1s0,0.1,0.1,0.1s0.6-0.4,0.9-1.2
			C376.8,139.1,376.9,138.5,376.9,138"/>
	</g>
	<g>
		<defs>
			<rect id="SVGID_85_" x="362.2" y="134.2" width="32.9" height="7.2"/>
		</defs>
		<clipPath id="SVGID_86_">
			<use xlink:href="#SVGID_85_"  style="overflow:visible;"/>
		</clipPath>
		<path class="st48" d="M383.1,138.7c0.1,0,0.2,0,0.2-0.1s-0.1-0.1-0.2-0.1h-3.6c-0.1,0-0.2,0-0.2,0.1s0.1,0.1,0.2,0.1H383.1
			 M383.1,137.5c0.1,0,0.2,0,0.2-0.1s-0.1-0.1-0.2-0.1h-3.6c-0.1,0-0.2,0-0.2,0.1s0.1,0.1,0.2,0.1H383.1z"/>
	</g>
	<g>
		<defs>
			<rect id="SVGID_87_" x="362.2" y="134.2" width="32.9" height="7.2"/>
		</defs>
		<clipPath id="SVGID_88_">
			<use xlink:href="#SVGID_87_"  style="overflow:visible;"/>
		</clipPath>
		<path class="st49" d="M387.4,137.7c0-0.2,0.2-0.7,0.6-0.7c0,0,0.2,0,0.3,0.1c-0.2,0-0.3,0.2-0.3,0.3s0.1,0.2,0.2,0.2
			s0.3-0.1,0.3-0.3c0-0.3-0.4-0.4-0.6-0.4c-0.3,0-0.6,0.3-0.6,0.5c-0.1-0.4-0.5-0.5-0.6-0.5c-0.6,0-1,0.8-1,0.9
			c0,0.1,0.1,0.1,0.1,0.1s0.1,0,0.1-0.1c0.2-0.6,0.6-0.8,0.8-0.8c0.1,0,0.3,0.1,0.3,0.4c0,0.2-0.1,0.6-0.3,1.4
			c-0.1,0.4-0.3,0.6-0.6,0.6c0,0-0.2,0-0.3-0.1c0.1,0,0.3-0.2,0.3-0.3c0-0.2-0.1-0.2-0.2-0.2c-0.2,0-0.3,0.2-0.3,0.3
			c0,0.3,0.3,0.4,0.6,0.4c0.4,0,0.6-0.4,0.6-0.5c0.1,0.2,0.3,0.5,0.6,0.5c0.6,0,1-0.8,1-0.9c0-0.1-0.1-0.1-0.1-0.1
			c-0.1,0-0.1,0-0.1,0.1c-0.2,0.6-0.6,0.8-0.8,0.8c-0.2,0-0.3-0.2-0.3-0.4c0-0.1,0-0.3,0.1-0.5L387.4,137.7"/>
	</g>
	<g>
		<defs>
			<rect id="SVGID_89_" x="362.2" y="134.2" width="32.9" height="7.2"/>
		</defs>
		<clipPath id="SVGID_90_">
			<use xlink:href="#SVGID_89_"  style="overflow:visible;"/>
		</clipPath>
		<polyline class="st50" points="390.4,141 390.4,140.7 389.8,140.7 389.8,135.2 390.4,135.2 390.4,135 389.5,135 389.5,141 
			390.4,141 		"/>
	</g>
	<g>
		<defs>
			<rect id="SVGID_91_" x="362.2" y="134.2" width="32.9" height="7.2"/>
		</defs>
		<clipPath id="SVGID_92_">
			<use xlink:href="#SVGID_91_"  style="overflow:visible;"/>
		</clipPath>
		<path class="st51" d="M392.2,137.4c0.5-0.2,0.8-0.6,0.8-1c0-0.5-0.5-0.8-1.1-0.8s-1.1,0.4-1.1,0.8c0,0.2,0.1,0.3,0.3,0.3
			c0.2,0,0.3-0.1,0.3-0.3c0-0.3-0.3-0.3-0.4-0.3c0.2-0.3,0.6-0.4,0.8-0.4c0.2,0,0.6,0.1,0.6,0.7c0,0.1,0,0.4-0.2,0.7
			s-0.4,0.3-0.5,0.3h-0.2c0,0-0.1,0-0.1,0.1s0,0.1,0.1,0.1h0.3c0.5,0,0.7,0.4,0.7,1c0,0.8-0.4,1-0.7,1c-0.3,0-0.7-0.1-0.9-0.5
			c0.2,0,0.4-0.1,0.4-0.3s-0.2-0.3-0.3-0.3c-0.1,0-0.3,0.1-0.3,0.3c0,0.5,0.6,0.9,1.2,0.9c0.7,0,1.3-0.5,1.3-1.1
			C393.2,138,392.8,137.5,392.2,137.4"/>
	</g>
	<g>
		<defs>
			<rect id="SVGID_93_" x="362.2" y="134.2" width="32.9" height="7.2"/>
		</defs>
		<clipPath id="SVGID_94_">
			<use xlink:href="#SVGID_93_"  style="overflow:visible;"/>
		</clipPath>
		<polyline class="st52" points="394.4,135 393.6,135 393.6,135.2 394.1,135.2 394.1,140.7 393.6,140.7 393.6,141 394.4,141 
			394.4,135 		"/>
	</g>
</g>
<g>
	<g>
		<defs>
			<rect id="SVGID_95_" x="418.1" y="134.8" width="14.9" height="6.6"/>
		</defs>
		<clipPath id="SVGID_96_">
			<use xlink:href="#SVGID_95_"  style="overflow:visible;"/>
		</clipPath>
		<path class="st53" d="M420,137.7c0-0.2,0.2-0.7,0.6-0.7c0,0,0.2,0,0.3,0.1c-0.2,0-0.3,0.2-0.3,0.3s0.1,0.2,0.2,0.2
			s0.3-0.1,0.3-0.3c0-0.3-0.4-0.4-0.6-0.4c-0.3,0-0.6,0.3-0.6,0.5c-0.1-0.4-0.5-0.5-0.6-0.5c-0.6,0-1,0.8-1,0.9
			c0,0.1,0.1,0.1,0.1,0.1s0.1,0,0.1-0.1c0.2-0.6,0.6-0.8,0.8-0.8c0.1,0,0.3,0.1,0.3,0.4c0,0.2-0.1,0.6-0.3,1.4
			c-0.1,0.4-0.3,0.6-0.6,0.6c0,0-0.2,0-0.3-0.1c0.1,0,0.3-0.2,0.3-0.3c0-0.2-0.1-0.2-0.2-0.2c-0.2,0-0.3,0.2-0.3,0.3
			c0,0.3,0.3,0.4,0.6,0.4c0.4,0,0.6-0.4,0.6-0.5c0.1,0.2,0.3,0.5,0.6,0.5c0.6,0,1-0.8,1-0.9c0-0.1-0.1-0.1-0.1-0.1
			c-0.1,0-0.1,0-0.1,0.1c-0.2,0.6-0.6,0.8-0.8,0.8c-0.2,0-0.3-0.2-0.3-0.4c0-0.1,0-0.3,0.1-0.5L420,137.7"/>
	</g>
	<g>
		<defs>
			<rect id="SVGID_97_" x="418.1" y="134.8" width="14.9" height="6.6"/>
		</defs>
		<clipPath id="SVGID_98_">
			<use xlink:href="#SVGID_97_"  style="overflow:visible;"/>
		</clipPath>
		<path class="st54" d="M423.4,140.9c0,0,0,0-0.1-0.1c-0.7-0.8-0.9-1.9-0.9-2.8c0-1,0.2-2.1,1-2.8c0.1-0.1,0.1-0.1,0.1-0.1
			s0-0.1-0.1-0.1s-0.6,0.4-0.9,1.2c-0.3,0.7-0.4,1.3-0.4,1.8s0.1,1.2,0.4,1.9C422.8,140.6,423.3,141,423.4,140.9
			C423.4,141,423.4,140.9,423.4,140.9"/>
	</g>
	<g>
		<defs>
			<rect id="SVGID_99_" x="418.1" y="134.8" width="14.9" height="6.6"/>
		</defs>
		<clipPath id="SVGID_100_">
			<use xlink:href="#SVGID_99_"  style="overflow:visible;"/>
		</clipPath>
		<path class="st55" d="M425.5,137.4c0.5-0.2,0.8-0.6,0.8-1c0-0.5-0.5-0.8-1.1-0.8s-1.1,0.4-1.1,0.8c0,0.2,0.1,0.3,0.3,0.3
			c0.2,0,0.3-0.1,0.3-0.3c0-0.3-0.3-0.3-0.4-0.3c0.2-0.3,0.6-0.4,0.8-0.4c0.2,0,0.6,0.1,0.6,0.7c0,0.1,0,0.4-0.2,0.7
			s-0.4,0.3-0.5,0.3h-0.2c0,0-0.1,0-0.1,0.1s0,0.1,0.1,0.1h0.3c0.5,0,0.7,0.4,0.7,1c0,0.8-0.4,1-0.7,1c-0.3,0-0.7-0.1-0.9-0.5
			c0.2,0,0.4-0.1,0.4-0.3s-0.2-0.3-0.3-0.3c-0.1,0-0.3,0.1-0.3,0.3c0,0.5,0.6,0.9,1.2,0.9c0.7,0,1.3-0.5,1.3-1.1
			C426.5,138,426.1,137.5,425.5,137.4"/>
	</g>
	<g>
		<defs>
			<rect id="SVGID_101_" x="418.1" y="134.8" width="14.9" height="6.6"/>
		</defs>
		<clipPath id="SVGID_102_">
			<use xlink:href="#SVGID_101_"  style="overflow:visible;"/>
		</clipPath>
		<path class="st56" d="M429.8,136c0.1,0,0.2,0,0.2-0.1s-0.1-0.1-0.2-0.1h-2.5c-0.1,0-0.2,0-0.2,0.1s0.1,0.1,0.2,0.1H429.8"/>
	</g>
	<g>
		<defs>
			<rect id="SVGID_103_" x="418.1" y="134.8" width="14.9" height="6.6"/>
		</defs>
		<clipPath id="SVGID_104_">
			<use xlink:href="#SVGID_103_"  style="overflow:visible;"/>
		</clipPath>
		<path class="st57" d="M432.5,138c0-0.5-0.1-1.2-0.4-1.9c-0.4-0.7-0.9-1.1-0.9-1.1s-0.1,0-0.1,0.1c0,0,0,0,0.1,0.1
			c0.6,0.6,0.9,1.5,0.9,2.8c0,1-0.2,2.1-1,2.8c-0.1,0.1-0.1,0.1-0.1,0.1s0,0.1,0.1,0.1s0.6-0.4,0.9-1.2
			C432.4,139.1,432.5,138.5,432.5,138"/>
	</g>
</g>
<g id="XMLID_5_">
	<g>
		<defs>
			<rect id="SVGID_105_" x="180.2" y="350.8" width="32.9" height="6.6"/>
		</defs>
		<clipPath id="SVGID_106_">
			<use xlink:href="#SVGID_105_"  style="overflow:visible;"/>
		</clipPath>
		<path id="XMLID_62_" class="st58" d="M182.3,353.7c0-0.2,0.2-0.7,0.6-0.7c0,0,0.2,0,0.3,0.1c-0.2,0-0.3,0.2-0.3,0.3
			c0,0.1,0.1,0.2,0.2,0.2c0.1,0,0.3-0.1,0.3-0.3c0-0.3-0.4-0.4-0.6-0.4c-0.3,0-0.6,0.3-0.6,0.5c-0.1-0.4-0.5-0.5-0.6-0.5
			c-0.6,0-1,0.8-1,0.9s0.1,0.1,0.1,0.1s0.1,0,0.1-0.1c0.2-0.6,0.6-0.8,0.8-0.8c0.1,0,0.3,0.1,0.3,0.4c0,0.2-0.1,0.6-0.3,1.4
			c-0.1,0.4-0.3,0.6-0.6,0.6c0,0-0.2,0-0.3-0.1c0.1,0,0.3-0.2,0.3-0.3c0-0.2-0.1-0.2-0.2-0.2c-0.2,0-0.3,0.2-0.3,0.3
			c0,0.3,0.3,0.4,0.6,0.4c0.4,0,0.6-0.4,0.6-0.5c0.1,0.2,0.3,0.5,0.6,0.5c0.6,0,1-0.8,1-0.9s-0.1-0.1-0.1-0.1c-0.1,0-0.1,0-0.1,0.1
			c-0.2,0.6-0.6,0.8-0.8,0.8s-0.3-0.2-0.3-0.4c0-0.1,0-0.3,0.1-0.5L182.3,353.7"/>
	</g>
	<g>
		<defs>
			<rect id="SVGID_107_" x="180.2" y="350.8" width="32.9" height="6.6"/>
		</defs>
		<clipPath id="SVGID_108_">
			<use xlink:href="#SVGID_107_"  style="overflow:visible;"/>
		</clipPath>
		<path id="XMLID_61_" class="st59" d="M185.7,356.9c0,0,0,0-0.1-0.1c-0.7-0.8-0.9-1.9-0.9-2.8c0-1,0.2-2.1,1-2.8
			c0.1-0.1,0.1-0.1,0.1-0.1s0-0.1-0.1-0.1s-0.6,0.4-0.9,1.2c-0.3,0.7-0.4,1.3-0.4,1.8s0.1,1.2,0.4,1.9
			C185,356.6,185.6,357,185.7,356.9C185.6,357,185.7,356.9,185.7,356.9"/>
	</g>
	<g>
		<defs>
			<rect id="SVGID_109_" x="180.2" y="350.8" width="32.9" height="6.6"/>
		</defs>
		<clipPath id="SVGID_110_">
			<use xlink:href="#SVGID_109_"  style="overflow:visible;"/>
		</clipPath>
		<path id="XMLID_58_" class="st60" d="M187.6,355.5c-0.2,0-0.6-0.1-0.7-0.7c-0.1-0.4-0.1-0.9-0.1-1.3s0-0.8,0-1.1
			c0.1-0.7,0.6-0.8,0.7-0.8c0.2,0,0.6,0.1,0.7,0.7c0.1,0.3,0.1,0.8,0.1,1.2c0,0.4,0,0.9-0.1,1.2
			C188.2,355.3,187.8,355.5,187.6,355.5 M188.8,353.6c0-0.5,0-1-0.2-1.4c-0.3-0.6-0.8-0.7-1-0.7c-0.4,0-0.8,0.2-1,0.7
			c-0.2,0.4-0.2,0.9-0.2,1.4c0,0.4,0,1,0.3,1.4c0.3,0.5,0.7,0.6,1,0.6s0.8-0.1,1-0.7C188.8,354.5,188.8,354,188.8,353.6z"/>
	</g>
	<g>
		<defs>
			<rect id="SVGID_111_" x="180.2" y="350.8" width="32.9" height="6.6"/>
		</defs>
		<clipPath id="SVGID_112_">
			<use xlink:href="#SVGID_111_"  style="overflow:visible;"/>
		</clipPath>
		<path id="XMLID_57_" class="st61" d="M192.2,352c0.1,0,0.2,0,0.2-0.1s-0.1-0.1-0.2-0.1h-2.5c-0.1,0-0.2,0-0.2,0.1s0.1,0.1,0.2,0.1
			H192.2"/>
	</g>
	<g>
		<defs>
			<rect id="SVGID_113_" x="180.2" y="350.8" width="32.9" height="6.6"/>
		</defs>
		<clipPath id="SVGID_114_">
			<use xlink:href="#SVGID_113_"  style="overflow:visible;"/>
		</clipPath>
		<path id="XMLID_56_" class="st62" d="M194.8,354c0-0.5-0.1-1.2-0.4-1.9c-0.4-0.7-0.9-1.1-0.9-1.1s-0.1,0-0.1,0.1c0,0,0,0,0.1,0.1
			c0.6,0.6,0.9,1.5,0.9,2.8c0,1-0.2,2.1-1,2.8c-0.1,0.1-0.1,0.1-0.1,0.1s0,0.1,0.1,0.1s0.6-0.4,0.9-1.2
			C194.7,355.1,194.8,354.5,194.8,354"/>
	</g>
	<g>
		<defs>
			<rect id="SVGID_115_" x="180.2" y="350.8" width="32.9" height="6.6"/>
		</defs>
		<clipPath id="SVGID_116_">
			<use xlink:href="#SVGID_115_"  style="overflow:visible;"/>
		</clipPath>
		<path id="XMLID_53_" class="st63" d="M201.2,354.7c0.1,0,0.2,0,0.2-0.1s-0.1-0.1-0.2-0.1h-3.6c-0.1,0-0.2,0-0.2,0.1
			s0.1,0.1,0.2,0.1H201.2 M201.2,353.5c0.1,0,0.2,0,0.2-0.1s-0.1-0.1-0.2-0.1h-3.6c-0.1,0-0.2,0-0.2,0.1s0.1,0.1,0.2,0.1H201.2z"/>
	</g>
	<g>
		<defs>
			<rect id="SVGID_117_" x="180.2" y="350.8" width="32.9" height="6.6"/>
		</defs>
		<clipPath id="SVGID_118_">
			<use xlink:href="#SVGID_117_"  style="overflow:visible;"/>
		</clipPath>
		<path id="XMLID_52_" class="st64" d="M205.4,353.7c0-0.2,0.2-0.7,0.6-0.7c0,0,0.2,0,0.3,0.1c-0.2,0-0.3,0.2-0.3,0.3
			c0,0.1,0.1,0.2,0.2,0.2c0.1,0,0.3-0.1,0.3-0.3c0-0.3-0.4-0.4-0.6-0.4c-0.3,0-0.6,0.3-0.6,0.5c-0.1-0.4-0.5-0.5-0.6-0.5
			c-0.6,0-1,0.8-1,0.9s0.1,0.1,0.1,0.1s0.1,0,0.1-0.1c0.2-0.6,0.6-0.8,0.8-0.8c0.1,0,0.3,0.1,0.3,0.4c0,0.2-0.1,0.6-0.3,1.4
			c-0.1,0.4-0.3,0.6-0.6,0.6c0,0-0.2,0-0.3-0.1c0.2,0,0.3-0.2,0.3-0.3c0-0.2-0.1-0.2-0.2-0.2c-0.2,0-0.3,0.2-0.3,0.3
			c0,0.3,0.3,0.4,0.6,0.4c0.4,0,0.6-0.4,0.6-0.5c0.1,0.2,0.3,0.5,0.6,0.5c0.6,0,1-0.8,1-0.9s-0.1-0.1-0.1-0.1c-0.1,0-0.1,0-0.1,0.1
			c-0.2,0.6-0.6,0.8-0.8,0.8s-0.3-0.2-0.3-0.4c0-0.1,0-0.3,0.1-0.5L205.4,353.7"/>
	</g>
	<g>
		<defs>
			<rect id="SVGID_119_" x="180.2" y="350.8" width="32.9" height="6.6"/>
		</defs>
		<clipPath id="SVGID_120_">
			<use xlink:href="#SVGID_119_"  style="overflow:visible;"/>
		</clipPath>
		<polyline id="XMLID_51_" class="st65" points="208.3,357 208.3,356.7 207.7,356.7 207.7,351.2 208.3,351.2 208.3,351 207.5,351 
			207.5,357 208.3,357 		"/>
	</g>
	<g>
		<defs>
			<rect id="SVGID_121_" x="180.2" y="350.8" width="32.9" height="6.6"/>
		</defs>
		<clipPath id="SVGID_122_">
			<use xlink:href="#SVGID_121_"  style="overflow:visible;"/>
		</clipPath>
		<path id="XMLID_8_" class="st66" d="M210,355.5c-0.2,0-0.6-0.1-0.7-0.7c-0.1-0.4-0.1-0.9-0.1-1.3s0-0.8,0-1.1
			c0.1-0.7,0.6-0.8,0.7-0.8c0.2,0,0.6,0.1,0.7,0.7c0.1,0.3,0.1,0.8,0.1,1.2c0,0.4,0,0.9-0.1,1.2C210.6,355.3,210.2,355.5,210,355.5
			 M211.2,353.6c0-0.5,0-1-0.2-1.4c-0.3-0.6-0.8-0.7-1-0.7c-0.4,0-0.8,0.2-1,0.7c-0.2,0.4-0.2,0.9-0.2,1.4c0,0.4,0,1,0.3,1.4
			c0.3,0.5,0.7,0.6,1,0.6s0.8-0.1,1-0.7C211.2,354.5,211.2,354,211.2,353.6z"/>
	</g>
	<g>
		<defs>
			<rect id="SVGID_123_" x="180.2" y="350.8" width="32.9" height="6.6"/>
		</defs>
		<clipPath id="SVGID_124_">
			<use xlink:href="#SVGID_123_"  style="overflow:visible;"/>
		</clipPath>
		<polyline id="XMLID_7_" class="st67" points="212.4,351 211.6,351 211.6,351.2 212.2,351.2 212.2,356.7 211.6,356.7 211.6,357 
			212.4,357 212.4,351 		"/>
	</g>
</g>
<g id="XMLID_63_">
	<g>
		<defs>
			<rect id="SVGID_125_" x="218.2" y="363.2" width="32.9" height="6.6"/>
		</defs>
		<clipPath id="SVGID_126_">
			<use xlink:href="#SVGID_125_"  style="overflow:visible;"/>
		</clipPath>
		<path id="XMLID_124_" class="st68" d="M220.3,366c0-0.2,0.2-0.7,0.6-0.7c0,0,0.2,0,0.3,0.1c-0.2,0-0.3,0.2-0.3,0.3
			c0,0.1,0.1,0.2,0.2,0.2c0.1,0,0.3-0.1,0.3-0.3c0-0.3-0.4-0.4-0.6-0.4c-0.3,0-0.6,0.3-0.6,0.5c-0.1-0.4-0.5-0.5-0.6-0.5
			c-0.6,0-1,0.8-1,0.9s0.1,0.1,0.1,0.1s0.1,0,0.1-0.1c0.2-0.6,0.6-0.8,0.8-0.8c0.1,0,0.3,0.1,0.3,0.4c0,0.2-0.1,0.6-0.3,1.4
			c-0.1,0.4-0.3,0.6-0.6,0.6c0,0-0.2,0-0.3-0.1c0.1,0,0.3-0.2,0.3-0.3c0-0.2-0.1-0.2-0.2-0.2c-0.2,0-0.3,0.2-0.3,0.3
			c0,0.3,0.3,0.4,0.6,0.4c0.4,0,0.6-0.4,0.6-0.5c0.1,0.2,0.3,0.5,0.6,0.5c0.6,0,1-0.8,1-0.9s-0.1-0.1-0.1-0.1c-0.1,0-0.1,0-0.1,0.1
			c-0.2,0.6-0.6,0.8-0.8,0.8s-0.3-0.2-0.3-0.4c0-0.1,0-0.3,0.1-0.5L220.3,366"/>
	</g>
	<g>
		<defs>
			<rect id="SVGID_127_" x="218.2" y="363.2" width="32.9" height="6.6"/>
		</defs>
		<clipPath id="SVGID_128_">
			<use xlink:href="#SVGID_127_"  style="overflow:visible;"/>
		</clipPath>
		<path id="XMLID_123_" class="st69" d="M223.7,369.3c0,0,0,0-0.1-0.1c-0.7-0.8-0.9-1.9-0.9-2.8c0-1,0.2-2.1,1-2.8
			c0.1-0.1,0.1-0.1,0.1-0.1s0-0.1-0.1-0.1s-0.6,0.4-0.9,1.2c-0.3,0.7-0.4,1.3-0.4,1.8s0.1,1.2,0.4,1.9
			C223.1,368.9,223.6,369.3,223.7,369.3L223.7,369.3"/>
	</g>
	<g>
		<defs>
			<rect id="SVGID_129_" x="218.2" y="363.2" width="32.9" height="6.6"/>
		</defs>
		<clipPath id="SVGID_130_">
			<use xlink:href="#SVGID_129_"  style="overflow:visible;"/>
		</clipPath>
		<path id="XMLID_120_" class="st70" d="M225.6,367.8c-0.2,0-0.6-0.1-0.7-0.7c-0.1-0.4-0.1-0.9-0.1-1.3s0-0.8,0-1.1
			c0.1-0.7,0.6-0.8,0.7-0.8c0.2,0,0.6,0.1,0.7,0.7c0.1,0.3,0.1,0.8,0.1,1.2c0,0.4,0,0.9-0.1,1.2
			C226.2,367.7,225.9,367.8,225.6,367.8 M226.9,365.9c0-0.5,0-1-0.2-1.4c-0.3-0.6-0.8-0.7-1-0.7c-0.4,0-0.8,0.2-1,0.7
			c-0.2,0.4-0.2,0.9-0.2,1.4c0,0.4,0,1,0.3,1.4c0.3,0.5,0.7,0.6,1,0.6s0.8-0.1,1-0.7C226.8,366.9,226.9,366.4,226.9,365.9z"/>
	</g>
	<g>
		<defs>
			<rect id="SVGID_131_" x="218.2" y="363.2" width="32.9" height="6.6"/>
		</defs>
		<clipPath id="SVGID_132_">
			<use xlink:href="#SVGID_131_"  style="overflow:visible;"/>
		</clipPath>
		<path id="XMLID_119_" class="st71" d="M230.2,364.4c0.1,0,0.2,0,0.2-0.1s-0.1-0.1-0.2-0.1h-2.5c-0.1,0-0.2,0-0.2,0.1
			s0.1,0.1,0.2,0.1H230.2"/>
	</g>
	<g>
		<defs>
			<rect id="SVGID_133_" x="218.2" y="363.2" width="32.9" height="6.6"/>
		</defs>
		<clipPath id="SVGID_134_">
			<use xlink:href="#SVGID_133_"  style="overflow:visible;"/>
		</clipPath>
		<path id="XMLID_83_" class="st72" d="M232.9,366.3c0-0.5-0.1-1.2-0.4-1.9c-0.4-0.7-0.9-1.1-0.9-1.1s-0.1,0-0.1,0.1
			c0,0,0,0,0.1,0.1c0.6,0.6,0.9,1.5,0.9,2.8c0,1-0.2,2.1-1,2.8c-0.1,0.1-0.1,0.1-0.1,0.1s0,0.1,0.1,0.1s0.6-0.4,0.9-1.2
			C232.8,367.5,232.9,366.8,232.9,366.3"/>
	</g>
	<g>
		<defs>
			<rect id="SVGID_135_" x="218.2" y="363.2" width="32.9" height="6.6"/>
		</defs>
		<clipPath id="SVGID_136_">
			<use xlink:href="#SVGID_135_"  style="overflow:visible;"/>
		</clipPath>
		<path id="XMLID_80_" class="st73" d="M239.2,367c0.1,0,0.2,0,0.2-0.1s-0.1-0.1-0.2-0.1h-3.6c-0.1,0-0.2,0-0.2,0.1s0.1,0.1,0.2,0.1
			H239.2 M239.2,365.9c0.1,0,0.2,0,0.2-0.1s-0.1-0.1-0.2-0.1h-3.6c-0.1,0-0.2,0-0.2,0.1s0.1,0.1,0.2,0.1H239.2z"/>
	</g>
	<g>
		<defs>
			<rect id="SVGID_137_" x="218.2" y="363.2" width="32.9" height="6.6"/>
		</defs>
		<clipPath id="SVGID_138_">
			<use xlink:href="#SVGID_137_"  style="overflow:visible;"/>
		</clipPath>
		<path id="XMLID_79_" class="st74" d="M243.4,366c0-0.2,0.2-0.7,0.6-0.7c0,0,0.2,0,0.3,0.1c-0.2,0-0.3,0.2-0.3,0.3
			c0,0.1,0.1,0.2,0.2,0.2c0.1,0,0.3-0.1,0.3-0.3c0-0.3-0.4-0.4-0.6-0.4c-0.3,0-0.6,0.3-0.6,0.5c-0.1-0.4-0.5-0.5-0.6-0.5
			c-0.6,0-1,0.8-1,0.9s0.1,0.1,0.1,0.1s0.1,0,0.1-0.1c0.2-0.6,0.6-0.8,0.8-0.8c0.1,0,0.3,0.1,0.3,0.4c0,0.2-0.1,0.6-0.3,1.4
			c-0.1,0.4-0.3,0.6-0.6,0.6c0,0-0.2,0-0.3-0.1c0.1,0,0.3-0.2,0.3-0.3c0-0.2-0.1-0.2-0.2-0.2c-0.2,0-0.3,0.2-0.3,0.3
			c0,0.3,0.3,0.4,0.6,0.4c0.4,0,0.6-0.4,0.6-0.5c0.1,0.2,0.3,0.5,0.6,0.5c0.6,0,1-0.8,1-0.9s-0.1-0.1-0.1-0.1c-0.1,0-0.1,0-0.1,0.1
			c-0.2,0.6-0.6,0.8-0.8,0.8s-0.3-0.2-0.3-0.4c0-0.1,0-0.3,0.1-0.5L243.4,366"/>
	</g>
	<g>
		<defs>
			<rect id="SVGID_139_" x="218.2" y="363.2" width="32.9" height="6.6"/>
		</defs>
		<clipPath id="SVGID_140_">
			<use xlink:href="#SVGID_139_"  style="overflow:visible;"/>
		</clipPath>
		<polyline id="XMLID_78_" class="st75" points="246.4,369.3 246.4,369.1 245.8,369.1 245.8,363.6 246.4,363.6 246.4,363.4 
			245.5,363.4 245.5,369.3 246.4,369.3 		"/>
	</g>
	<g>
		<defs>
			<rect id="SVGID_141_" x="218.2" y="363.2" width="32.9" height="6.6"/>
		</defs>
		<clipPath id="SVGID_142_">
			<use xlink:href="#SVGID_141_"  style="overflow:visible;"/>
		</clipPath>
		<path id="XMLID_66_" class="st76" d="M248,367.8c-0.2,0-0.6-0.1-0.7-0.7c-0.1-0.4-0.1-0.9-0.1-1.3s0-0.8,0-1.1
			c0.1-0.7,0.6-0.8,0.7-0.8c0.2,0,0.6,0.1,0.7,0.7c0.1,0.3,0.1,0.8,0.1,1.2c0,0.4,0,0.9-0.1,1.2C248.6,367.7,248.3,367.8,248,367.8
			 M249.3,365.9c0-0.5,0-1-0.2-1.4c-0.3-0.6-0.8-0.7-1-0.7c-0.4,0-0.8,0.2-1,0.7c-0.2,0.4-0.2,0.9-0.2,1.4c0,0.4,0,1,0.3,1.4
			c0.3,0.5,0.7,0.6,1,0.6s0.8-0.1,1-0.7C249.2,366.9,249.3,366.4,249.3,365.9z"/>
	</g>
	<g>
		<defs>
			<rect id="SVGID_143_" x="218.2" y="363.2" width="32.9" height="6.6"/>
		</defs>
		<clipPath id="SVGID_144_">
			<use xlink:href="#SVGID_143_"  style="overflow:visible;"/>
		</clipPath>
		<polyline id="XMLID_65_" class="st77" points="250.5,363.4 249.7,363.4 249.7,363.6 250.2,363.6 250.2,369.1 249.7,369.1 
			249.7,369.3 250.5,369.3 250.5,363.4 		"/>
	</g>
</g>
<g id="XMLID_139_">
	<g>
		<defs>
			<rect id="SVGID_145_" x="271.1" y="362.8" width="14.9" height="6.6"/>
		</defs>
		<clipPath id="SVGID_146_">
			<use xlink:href="#SVGID_145_"  style="overflow:visible;"/>
		</clipPath>
		<path id="XMLID_145_" class="st78" d="M273,365.7c0-0.2,0.2-0.7,0.6-0.7c0,0,0.2,0,0.3,0.1c-0.2,0-0.3,0.2-0.3,0.3
			c0,0.1,0.1,0.2,0.2,0.2s0.3-0.1,0.3-0.3c0-0.3-0.4-0.4-0.6-0.4c-0.3,0-0.6,0.3-0.6,0.5c-0.1-0.4-0.5-0.5-0.6-0.5
			c-0.6,0-1,0.8-1,0.9s0.1,0.1,0.1,0.1s0.1,0,0.1-0.1c0.2-0.6,0.6-0.8,0.8-0.8c0.1,0,0.3,0.1,0.3,0.4c0,0.2-0.1,0.6-0.3,1.4
			c-0.1,0.4-0.3,0.6-0.6,0.6c0,0-0.2,0-0.3-0.1c0.1,0,0.3-0.2,0.3-0.3c0-0.2-0.1-0.2-0.2-0.2c-0.2,0-0.3,0.2-0.3,0.3
			c0,0.3,0.3,0.4,0.6,0.4c0.4,0,0.6-0.4,0.6-0.5c0.1,0.2,0.3,0.5,0.6,0.5c0.6,0,1-0.8,1-0.9s-0.1-0.1-0.1-0.1c-0.1,0-0.1,0-0.1,0.1
			c-0.2,0.6-0.6,0.8-0.8,0.8c-0.2,0-0.3-0.2-0.3-0.4c0-0.1,0-0.3,0.1-0.5L273,365.7"/>
	</g>
	<g>
		<defs>
			<rect id="SVGID_147_" x="271.1" y="362.8" width="14.9" height="6.6"/>
		</defs>
		<clipPath id="SVGID_148_">
			<use xlink:href="#SVGID_147_"  style="overflow:visible;"/>
		</clipPath>
		<path id="XMLID_144_" class="st79" d="M276.4,368.9c0,0,0,0-0.1-0.1c-0.7-0.8-0.9-1.9-0.9-2.8c0-1,0.2-2.1,1-2.8
			c0.1-0.1,0.1-0.1,0.1-0.1s0-0.1-0.1-0.1s-0.6,0.4-0.9,1.2c-0.3,0.7-0.4,1.3-0.4,1.8s0.1,1.2,0.4,1.9
			C275.8,368.6,276.3,369,276.4,368.9C276.4,369,276.4,368.9,276.4,368.9"/>
	</g>
	<g>
		<defs>
			<rect id="SVGID_149_" x="271.1" y="362.8" width="14.9" height="6.6"/>
		</defs>
		<clipPath id="SVGID_150_">
			<use xlink:href="#SVGID_149_"  style="overflow:visible;"/>
		</clipPath>
		<path id="XMLID_143_" class="st80" d="M278.5,363.6c0-0.1,0-0.2-0.1-0.2c-0.4,0.4-0.9,0.4-1.1,0.4v0.2c0.1,0,0.5,0,0.8-0.2v3.1
			c0,0.2,0,0.3-0.6,0.3h-0.2v0.2c0.2,0,0.7,0,1,0c0.2,0,0.8,0,1,0v-0.2h-0.2c-0.5,0-0.6-0.1-0.6-0.3L278.5,363.6"/>
	</g>
	<g>
		<defs>
			<rect id="SVGID_151_" x="271.1" y="362.8" width="14.9" height="6.6"/>
		</defs>
		<clipPath id="SVGID_152_">
			<use xlink:href="#SVGID_151_"  style="overflow:visible;"/>
		</clipPath>
		<path id="XMLID_142_" class="st81" d="M282.8,364c0.1,0,0.2,0,0.2-0.1s-0.1-0.1-0.2-0.1h-2.5c-0.1,0-0.2,0-0.2,0.1
			s0.1,0.1,0.2,0.1H282.8"/>
	</g>
	<g>
		<defs>
			<rect id="SVGID_153_" x="271.1" y="362.8" width="14.9" height="6.6"/>
		</defs>
		<clipPath id="SVGID_154_">
			<use xlink:href="#SVGID_153_"  style="overflow:visible;"/>
		</clipPath>
		<path id="XMLID_141_" class="st82" d="M285.5,366c0-0.5-0.1-1.2-0.4-1.9c-0.4-0.7-0.9-1.1-0.9-1.1s-0.1,0-0.1,0.1c0,0,0,0,0.1,0.1
			c0.6,0.6,0.9,1.5,0.9,2.8c0,1-0.2,2.1-1,2.8c-0.1,0.1-0.1,0.1-0.1,0.1s0,0.1,0.1,0.1s0.6-0.4,0.9-1.2
			C285.4,367.1,285.5,366.5,285.5,366"/>
	</g>
</g>
<g id="XMLID_125_">
	<g>
		<defs>
			<rect id="SVGID_155_" x="291.2" y="290.2" width="32.9" height="7.2"/>
		</defs>
		<clipPath id="SVGID_156_">
			<use xlink:href="#SVGID_155_"  style="overflow:visible;"/>
		</clipPath>
		<path id="XMLID_138_" class="st83" d="M293.4,293.7c0-0.2,0.2-0.7,0.6-0.7c0,0,0.2,0,0.3,0.1c-0.2,0-0.3,0.2-0.3,0.3
			c0,0.1,0.1,0.2,0.2,0.2s0.3-0.1,0.3-0.3c0-0.3-0.4-0.4-0.6-0.4c-0.3,0-0.6,0.3-0.6,0.5c-0.1-0.4-0.5-0.5-0.6-0.5
			c-0.6,0-1,0.8-1,0.9s0.1,0.1,0.1,0.1s0.1,0,0.1-0.1c0.2-0.6,0.6-0.8,0.8-0.8c0.1,0,0.3,0.1,0.3,0.4c0,0.2-0.1,0.6-0.3,1.4
			c-0.1,0.4-0.3,0.6-0.6,0.6c0,0-0.2,0-0.3-0.1c0.1,0,0.3-0.2,0.3-0.3c0-0.2-0.1-0.2-0.2-0.2c-0.2,0-0.3,0.2-0.3,0.3
			c0,0.3,0.3,0.4,0.6,0.4c0.4,0,0.6-0.4,0.6-0.5c0.1,0.2,0.3,0.5,0.6,0.5c0.6,0,1-0.8,1-0.9s-0.1-0.1-0.1-0.1c-0.1,0-0.1,0-0.1,0.1
			c-0.2,0.6-0.6,0.8-0.8,0.8c-0.2,0-0.3-0.2-0.3-0.4c0-0.1,0-0.3,0.1-0.5L293.4,293.7"/>
	</g>
	<g>
		<defs>
			<rect id="SVGID_157_" x="291.2" y="290.2" width="32.9" height="7.2"/>
		</defs>
		<clipPath id="SVGID_158_">
			<use xlink:href="#SVGID_157_"  style="overflow:visible;"/>
		</clipPath>
		<path id="XMLID_137_" class="st84" d="M296.8,296.9c0,0,0,0-0.1-0.1c-0.7-0.8-0.9-1.9-0.9-2.8c0-1,0.2-2.1,1-2.8
			c0.1-0.1,0.1-0.1,0.1-0.1s0-0.1-0.1-0.1s-0.6,0.4-0.9,1.2c-0.3,0.7-0.4,1.3-0.4,1.8s0.1,1.2,0.4,1.9
			C296.2,296.6,296.7,297,296.8,296.9C296.8,297,296.8,296.9,296.8,296.9"/>
	</g>
	<g>
		<defs>
			<rect id="SVGID_159_" x="291.2" y="290.2" width="32.9" height="7.2"/>
		</defs>
		<clipPath id="SVGID_160_">
			<use xlink:href="#SVGID_159_"  style="overflow:visible;"/>
		</clipPath>
		<path id="XMLID_136_" class="st85" d="M298.9,291.6c0-0.1,0-0.2-0.1-0.2c-0.4,0.4-0.9,0.4-1.1,0.4v0.2c0.1,0,0.5,0,0.8-0.2v3.1
			c0,0.2,0,0.3-0.6,0.3h-0.2v0.2c0.2,0,0.7,0,1,0c0.2,0,0.8,0,1,0v-0.2h-0.2c-0.5,0-0.6-0.1-0.6-0.3L298.9,291.6"/>
	</g>
	<g>
		<defs>
			<rect id="SVGID_161_" x="291.2" y="290.2" width="32.9" height="7.2"/>
		</defs>
		<clipPath id="SVGID_162_">
			<use xlink:href="#SVGID_161_"  style="overflow:visible;"/>
		</clipPath>
		<path id="XMLID_135_" class="st86" d="M302,292h1.3c0.1,0,0.2,0,0.2-0.1s-0.1-0.1-0.2-0.1H302v-1.3c0-0.1,0-0.2-0.1-0.2
			s-0.1,0.1-0.1,0.2v1.3h-1.3c-0.1,0-0.2,0-0.2,0.1s0.1,0.1,0.2,0.1h1.3v1.3c0,0.1,0,0.2,0.1,0.2s0.1-0.1,0.1-0.2V292"/>
	</g>
	<g>
		<defs>
			<rect id="SVGID_163_" x="291.2" y="290.2" width="32.9" height="7.2"/>
		</defs>
		<clipPath id="SVGID_164_">
			<use xlink:href="#SVGID_163_"  style="overflow:visible;"/>
		</clipPath>
		<path id="XMLID_134_" class="st87" d="M305.9,294c0-0.5-0.1-1.2-0.4-1.9c-0.4-0.7-0.9-1.1-0.9-1.1s-0.1,0-0.1,0.1c0,0,0,0,0.1,0.1
			c0.6,0.6,0.9,1.5,0.9,2.8c0,1-0.2,2.1-1,2.8c-0.1,0.1-0.1,0.1-0.1,0.1s0,0.1,0.1,0.1s0.6-0.4,0.9-1.2
			C305.8,295.1,305.9,294.5,305.9,294"/>
	</g>
	<g>
		<defs>
			<rect id="SVGID_165_" x="291.2" y="290.2" width="32.9" height="7.2"/>
		</defs>
		<clipPath id="SVGID_166_">
			<use xlink:href="#SVGID_165_"  style="overflow:visible;"/>
		</clipPath>
		<path id="XMLID_131_" class="st88" d="M312.1,294.7c0.1,0,0.2,0,0.2-0.1s-0.1-0.1-0.2-0.1h-3.6c-0.1,0-0.2,0-0.2,0.1
			s0.1,0.1,0.2,0.1H312.1 M312.1,293.5c0.1,0,0.2,0,0.2-0.1s-0.1-0.1-0.2-0.1h-3.6c-0.1,0-0.2,0-0.2,0.1s0.1,0.1,0.2,0.1H312.1z"/>
	</g>
	<g>
		<defs>
			<rect id="SVGID_167_" x="291.2" y="290.2" width="32.9" height="7.2"/>
		</defs>
		<clipPath id="SVGID_168_">
			<use xlink:href="#SVGID_167_"  style="overflow:visible;"/>
		</clipPath>
		<path id="XMLID_130_" class="st89" d="M316.4,293.7c0-0.2,0.2-0.7,0.6-0.7c0,0,0.2,0,0.3,0.1c-0.2,0-0.3,0.2-0.3,0.3
			c0,0.1,0.1,0.2,0.2,0.2s0.3-0.1,0.3-0.3c0-0.3-0.4-0.4-0.6-0.4c-0.3,0-0.6,0.3-0.6,0.5c-0.1-0.4-0.5-0.5-0.6-0.5
			c-0.6,0-1,0.8-1,0.9s0.1,0.1,0.1,0.1s0.1,0,0.1-0.1c0.2-0.6,0.6-0.8,0.8-0.8c0.1,0,0.3,0.1,0.3,0.4c0,0.2-0.1,0.6-0.3,1.4
			c-0.1,0.4-0.3,0.6-0.6,0.6c0,0-0.2,0-0.3-0.1c0.1,0,0.3-0.2,0.3-0.3c0-0.2-0.1-0.2-0.2-0.2c-0.2,0-0.3,0.2-0.3,0.3
			c0,0.3,0.3,0.4,0.6,0.4c0.4,0,0.6-0.4,0.6-0.5c0.1,0.2,0.3,0.5,0.6,0.5c0.6,0,1-0.8,1-0.9s-0.1-0.1-0.1-0.1c-0.1,0-0.1,0-0.1,0.1
			c-0.2,0.6-0.6,0.8-0.8,0.8c-0.2,0-0.3-0.2-0.3-0.4c0-0.1,0-0.3,0.1-0.5L316.4,293.7"/>
	</g>
	<g>
		<defs>
			<rect id="SVGID_169_" x="291.2" y="290.2" width="32.9" height="7.2"/>
		</defs>
		<clipPath id="SVGID_170_">
			<use xlink:href="#SVGID_169_"  style="overflow:visible;"/>
		</clipPath>
		<polyline id="XMLID_129_" class="st90" points="319.4,297 319.4,296.7 318.8,296.7 318.8,291.2 319.4,291.2 319.4,291 318.5,291 
			318.5,297 319.4,297 		"/>
	</g>
	<g>
		<defs>
			<rect id="SVGID_171_" x="291.2" y="290.2" width="32.9" height="7.2"/>
		</defs>
		<clipPath id="SVGID_172_">
			<use xlink:href="#SVGID_171_"  style="overflow:visible;"/>
		</clipPath>
		<path id="XMLID_128_" class="st91" d="M321.2,291.6c0-0.1,0-0.2-0.1-0.2c-0.4,0.4-0.9,0.4-1.1,0.4v0.2c0.1,0,0.5,0,0.8-0.2v3.1
			c0,0.2,0,0.3-0.6,0.3H320v0.2c0.2,0,0.7,0,1,0c0.2,0,0.8,0,1,0v-0.2h-0.2c-0.5,0-0.6-0.1-0.6-0.3L321.2,291.6"/>
	</g>
	<g>
		<defs>
			<rect id="SVGID_173_" x="291.2" y="290.2" width="32.9" height="7.2"/>
		</defs>
		<clipPath id="SVGID_174_">
			<use xlink:href="#SVGID_173_"  style="overflow:visible;"/>
		</clipPath>
		<polyline id="XMLID_127_" class="st92" points="323.4,291 322.6,291 322.6,291.2 323.1,291.2 323.1,296.7 322.6,296.7 322.6,297 
			323.4,297 323.4,291 		"/>
	</g>
</g>
<g id="XMLID_146_">
	<g>
		<defs>
			<rect id="SVGID_175_" x="344.6" y="290.5" width="14.9" height="6.6"/>
		</defs>
		<clipPath id="SVGID_176_">
			<use xlink:href="#SVGID_175_"  style="overflow:visible;"/>
		</clipPath>
		<path id="XMLID_152_" class="st93" d="M346.6,293.4c0-0.2,0.2-0.7,0.6-0.7c0,0,0.2,0,0.3,0.1c-0.2,0-0.3,0.2-0.3,0.3
			c0,0.1,0.1,0.2,0.2,0.2s0.3-0.1,0.3-0.3c0-0.3-0.4-0.4-0.6-0.4c-0.3,0-0.6,0.3-0.6,0.5c-0.1-0.4-0.5-0.5-0.6-0.5
			c-0.6,0-1,0.8-1,0.9s0.1,0.1,0.1,0.1s0.1,0,0.1-0.1c0.2-0.6,0.6-0.8,0.8-0.8c0.1,0,0.3,0.1,0.3,0.4c0,0.2-0.1,0.6-0.3,1.4
			c-0.1,0.4-0.3,0.6-0.6,0.6c0,0-0.2,0-0.3-0.1c0.1,0,0.3-0.2,0.3-0.3c0-0.2-0.1-0.2-0.2-0.2c-0.2,0-0.3,0.2-0.3,0.3
			c0,0.3,0.3,0.4,0.6,0.4c0.4,0,0.6-0.4,0.6-0.5c0.1,0.2,0.3,0.5,0.6,0.5c0.6,0,1-0.8,1-0.9s-0.1-0.1-0.1-0.1c-0.1,0-0.1,0-0.1,0.1
			c-0.2,0.6-0.6,0.8-0.8,0.8c-0.2,0-0.3-0.2-0.3-0.4c0-0.1,0-0.3,0.1-0.5L346.6,293.4"/>
	</g>
	<g>
		<defs>
			<rect id="SVGID_177_" x="344.6" y="290.5" width="14.9" height="6.6"/>
		</defs>
		<clipPath id="SVGID_178_">
			<use xlink:href="#SVGID_177_"  style="overflow:visible;"/>
		</clipPath>
		<path id="XMLID_151_" class="st94" d="M350,296.6c0,0,0,0-0.1-0.1c-0.7-0.8-0.9-1.9-0.9-2.8c0-1,0.2-2.1,1-2.8
			c0.1-0.1,0.1-0.1,0.1-0.1s0-0.1-0.1-0.1s-0.6,0.4-0.9,1.2c-0.3,0.7-0.4,1.3-0.4,1.8s0.1,1.2,0.4,1.9S349.9,296.7,350,296.6
			C350,296.7,350,296.6,350,296.6"/>
	</g>
	<g>
		<defs>
			<rect id="SVGID_179_" x="344.6" y="290.5" width="14.9" height="6.6"/>
		</defs>
		<clipPath id="SVGID_180_">
			<use xlink:href="#SVGID_179_"  style="overflow:visible;"/>
		</clipPath>
		<path id="XMLID_150_" class="st95" d="M351.1,294.7l0.6-0.6c0.9-0.8,1.3-1.1,1.3-1.7c0-0.7-0.5-1.2-1.3-1.2
			c-0.7,0-1.1,0.5-1.1,1.1c0,0.3,0.3,0.3,0.3,0.3c0.1,0,0.3-0.1,0.3-0.3c0-0.2-0.1-0.3-0.3-0.3h-0.1c0.1-0.4,0.5-0.6,0.8-0.6
			c0.5,0,0.8,0.5,0.8,1s-0.3,0.9-0.6,1.3l-1.1,1.3c-0.1,0.1-0.1,0.1-0.1,0.2h2.2l0.2-1h-0.1c0,0.2-0.1,0.4-0.1,0.5c0,0-0.4,0-0.6,0
			L351.1,294.7"/>
	</g>
	<g>
		<defs>
			<rect id="SVGID_181_" x="344.6" y="290.5" width="14.9" height="6.6"/>
		</defs>
		<clipPath id="SVGID_182_">
			<use xlink:href="#SVGID_181_"  style="overflow:visible;"/>
		</clipPath>
		<path id="XMLID_149_" class="st96" d="M356.4,291.7c0.1,0,0.2,0,0.2-0.1s-0.1-0.1-0.2-0.1h-2.5c-0.1,0-0.2,0-0.2,0.1
			s0.1,0.1,0.2,0.1H356.4"/>
	</g>
	<g>
		<defs>
			<rect id="SVGID_183_" x="344.6" y="290.5" width="14.9" height="6.6"/>
		</defs>
		<clipPath id="SVGID_184_">
			<use xlink:href="#SVGID_183_"  style="overflow:visible;"/>
		</clipPath>
		<path id="XMLID_148_" class="st97" d="M359,293.7c0-0.5-0.1-1.2-0.4-1.9c-0.4-0.7-0.9-1.1-0.9-1.1s-0.1,0-0.1,0.1c0,0,0,0,0.1,0.1
			c0.6,0.6,0.9,1.5,0.9,2.8c0,1-0.2,2.1-1,2.8c-0.1,0.1-0.1,0.1-0.1,0.1s0,0.1,0.1,0.1s0.6-0.4,0.9-1.2
			C359,294.8,359,294.2,359,293.7"/>
	</g>
</g>
<g id="XMLID_167_">
	<g>
		<defs>
			<rect id="SVGID_185_" x="417.1" y="218.8" width="14.9" height="6.6"/>
		</defs>
		<clipPath id="SVGID_186_">
			<use xlink:href="#SVGID_185_"  style="overflow:visible;"/>
		</clipPath>
		<path id="XMLID_173_" class="st98" d="M419,221.7c0-0.2,0.2-0.7,0.6-0.7c0,0,0.2,0,0.3,0.1c-0.2,0-0.3,0.2-0.3,0.3
			s0.1,0.2,0.2,0.2s0.3-0.1,0.3-0.3c0-0.3-0.4-0.4-0.6-0.4c-0.3,0-0.6,0.3-0.6,0.5c-0.1-0.4-0.5-0.5-0.6-0.5c-0.6,0-1,0.8-1,0.9
			c0,0.1,0.1,0.1,0.1,0.1s0.1,0,0.1-0.1c0.2-0.6,0.6-0.8,0.8-0.8c0.1,0,0.3,0.1,0.3,0.4c0,0.2-0.1,0.6-0.3,1.4
			c-0.1,0.4-0.3,0.6-0.6,0.6c0,0-0.2,0-0.3-0.1c0.1,0,0.3-0.2,0.3-0.3c0-0.2-0.1-0.2-0.2-0.2c-0.2,0-0.3,0.2-0.3,0.3
			c0,0.3,0.3,0.4,0.6,0.4c0.4,0,0.6-0.4,0.6-0.5c0.1,0.2,0.3,0.5,0.6,0.5c0.6,0,1-0.8,1-0.9c0-0.1-0.1-0.1-0.1-0.1
			c-0.1,0-0.1,0-0.1,0.1c-0.2,0.6-0.6,0.8-0.8,0.8c-0.2,0-0.3-0.2-0.3-0.4c0-0.1,0-0.3,0.1-0.5L419,221.7"/>
	</g>
	<g>
		<defs>
			<rect id="SVGID_187_" x="417.1" y="218.8" width="14.9" height="6.6"/>
		</defs>
		<clipPath id="SVGID_188_">
			<use xlink:href="#SVGID_187_"  style="overflow:visible;"/>
		</clipPath>
		<path id="XMLID_172_" class="st99" d="M422.4,224.9c0,0,0,0-0.1-0.1c-0.7-0.8-0.9-1.9-0.9-2.8c0-1,0.2-2.1,1-2.8
			c0.1-0.1,0.1-0.1,0.1-0.1s0-0.1-0.1-0.1s-0.6,0.4-0.9,1.2c-0.3,0.7-0.4,1.3-0.4,1.8s0.1,1.2,0.4,1.9
			C421.8,224.6,422.3,225,422.4,224.9C422.4,225,422.4,224.9,422.4,224.9"/>
	</g>
	<g>
		<defs>
			<rect id="SVGID_189_" x="417.1" y="218.8" width="14.9" height="6.6"/>
		</defs>
		<clipPath id="SVGID_190_">
			<use xlink:href="#SVGID_189_"  style="overflow:visible;"/>
		</clipPath>
		<path id="XMLID_171_" class="st100" d="M424.5,221.4c0.5-0.2,0.8-0.6,0.8-1c0-0.5-0.5-0.8-1.1-0.8s-1.1,0.4-1.1,0.8
			c0,0.2,0.1,0.3,0.3,0.3c0.2,0,0.3-0.1,0.3-0.3c0-0.3-0.3-0.3-0.4-0.3c0.2-0.3,0.6-0.4,0.8-0.4c0.2,0,0.6,0.1,0.6,0.7
			c0,0.1,0,0.4-0.2,0.7s-0.4,0.3-0.5,0.3h-0.2c0,0-0.1,0-0.1,0.1s0,0.1,0.1,0.1h0.3c0.5,0,0.7,0.4,0.7,1c0,0.8-0.4,1-0.7,1
			c-0.3,0-0.7-0.1-0.9-0.5c0.2,0,0.4-0.1,0.4-0.3s-0.2-0.3-0.3-0.3c-0.1,0-0.3,0.1-0.3,0.3c0,0.5,0.6,0.9,1.2,0.9
			c0.7,0,1.3-0.5,1.3-1.1C425.5,222,425.1,221.5,424.5,221.4"/>
	</g>
	<g>
		<defs>
			<rect id="SVGID_191_" x="417.1" y="218.8" width="14.9" height="6.6"/>
		</defs>
		<clipPath id="SVGID_192_">
			<use xlink:href="#SVGID_191_"  style="overflow:visible;"/>
		</clipPath>
		<path id="XMLID_170_" class="st101" d="M428.8,220c0.1,0,0.2,0,0.2-0.1s-0.1-0.1-0.2-0.1h-2.5c-0.1,0-0.2,0-0.2,0.1
			s0.1,0.1,0.2,0.1H428.8"/>
	</g>
	<g>
		<defs>
			<rect id="SVGID_193_" x="417.1" y="218.8" width="14.9" height="6.6"/>
		</defs>
		<clipPath id="SVGID_194_">
			<use xlink:href="#SVGID_193_"  style="overflow:visible;"/>
		</clipPath>
		<path id="XMLID_169_" class="st102" d="M431.5,222c0-0.5-0.1-1.2-0.4-1.9c-0.4-0.7-0.9-1.1-0.9-1.1s-0.1,0-0.1,0.1
			c0,0,0,0,0.1,0.1c0.6,0.6,0.9,1.5,0.9,2.8c0,1-0.2,2.1-1,2.8c-0.1,0.1-0.1,0.1-0.1,0.1s0,0.1,0.1,0.1s0.6-0.4,0.9-1.2
			C431.4,223.1,431.5,222.5,431.5,222"/>
	</g>
</g>
<g id="XMLID_153_">
	<g>
		<defs>
			<rect id="SVGID_195_" x="363.2" y="218.2" width="32.9" height="7.2"/>
		</defs>
		<clipPath id="SVGID_196_">
			<use xlink:href="#SVGID_195_"  style="overflow:visible;"/>
		</clipPath>
		<path id="XMLID_166_" class="st103" d="M365.4,221.7c0-0.2,0.2-0.7,0.6-0.7c0,0,0.2,0,0.3,0.1c-0.2,0-0.3,0.2-0.3,0.3
			s0.1,0.2,0.2,0.2s0.3-0.1,0.3-0.3c0-0.3-0.4-0.4-0.6-0.4c-0.3,0-0.6,0.3-0.6,0.5c-0.1-0.4-0.5-0.5-0.6-0.5c-0.6,0-1,0.8-1,0.9
			c0,0.1,0.1,0.1,0.1,0.1s0.1,0,0.1-0.1c0.2-0.6,0.6-0.8,0.8-0.8c0.1,0,0.3,0.1,0.3,0.4c0,0.2-0.1,0.6-0.3,1.4
			c-0.1,0.4-0.3,0.6-0.6,0.6c0,0-0.2,0-0.3-0.1c0.1,0,0.3-0.2,0.3-0.3c0-0.2-0.1-0.2-0.2-0.2c-0.2,0-0.3,0.2-0.3,0.3
			c0,0.3,0.3,0.4,0.6,0.4c0.4,0,0.6-0.4,0.6-0.5c0.1,0.2,0.3,0.5,0.6,0.5c0.6,0,1-0.8,1-0.9c0-0.1-0.1-0.1-0.1-0.1
			c-0.1,0-0.1,0-0.1,0.1c-0.2,0.6-0.6,0.8-0.8,0.8c-0.2,0-0.3-0.2-0.3-0.4c0-0.1,0-0.3,0.1-0.5L365.4,221.7"/>
	</g>
	<g>
		<defs>
			<rect id="SVGID_197_" x="363.2" y="218.2" width="32.9" height="7.2"/>
		</defs>
		<clipPath id="SVGID_198_">
			<use xlink:href="#SVGID_197_"  style="overflow:visible;"/>
		</clipPath>
		<path id="XMLID_165_" class="st104" d="M368.8,224.9c0,0,0,0-0.1-0.1c-0.7-0.8-0.9-1.9-0.9-2.8c0-1,0.2-2.1,1-2.8
			c0.1-0.1,0.1-0.1,0.1-0.1s0-0.1-0.1-0.1s-0.6,0.4-0.9,1.2c-0.3,0.7-0.4,1.3-0.4,1.8s0.1,1.2,0.4,1.9
			C368.2,224.6,368.7,225,368.8,224.9C368.8,225,368.8,224.9,368.8,224.9"/>
	</g>
	<g>
		<defs>
			<rect id="SVGID_199_" x="363.2" y="218.2" width="32.9" height="7.2"/>
		</defs>
		<clipPath id="SVGID_200_">
			<use xlink:href="#SVGID_199_"  style="overflow:visible;"/>
		</clipPath>
		<path id="XMLID_164_" class="st105" d="M369.9,223l0.6-0.6c0.9-0.8,1.3-1.1,1.3-1.7c0-0.7-0.5-1.2-1.3-1.2c-0.7,0-1.1,0.5-1.1,1.1
			c0,0.3,0.3,0.3,0.3,0.3c0.1,0,0.3-0.1,0.3-0.3s-0.1-0.3-0.3-0.3h-0.1c0.1-0.4,0.5-0.6,0.8-0.6c0.5,0,0.8,0.5,0.8,1
			s-0.3,0.9-0.6,1.3l-1.1,1.3c-0.1,0.1-0.1,0.1-0.1,0.2h2.2l0.2-1h-0.1c0,0.2-0.1,0.4-0.1,0.5c0,0-0.4,0-0.6,0H369.9"/>
	</g>
	<g>
		<defs>
			<rect id="SVGID_201_" x="363.2" y="218.2" width="32.9" height="7.2"/>
		</defs>
		<clipPath id="SVGID_202_">
			<use xlink:href="#SVGID_201_"  style="overflow:visible;"/>
		</clipPath>
		<path id="XMLID_163_" class="st106" d="M374,220h1.3c0.1,0,0.2,0,0.2-0.1s-0.1-0.1-0.2-0.1H374v-1.3c0-0.1,0-0.2-0.1-0.2
			s-0.1,0.1-0.1,0.2v1.3h-1.3c-0.1,0-0.2,0-0.2,0.1s0.1,0.1,0.2,0.1h1.3v1.3c0,0.1,0,0.2,0.1,0.2s0.1-0.1,0.1-0.2V220"/>
	</g>
	<g>
		<defs>
			<rect id="SVGID_203_" x="363.2" y="218.2" width="32.9" height="7.2"/>
		</defs>
		<clipPath id="SVGID_204_">
			<use xlink:href="#SVGID_203_"  style="overflow:visible;"/>
		</clipPath>
		<path id="XMLID_162_" class="st107" d="M377.9,222c0-0.5-0.1-1.2-0.4-1.9c-0.4-0.7-0.9-1.1-0.9-1.1s-0.1,0-0.1,0.1
			c0,0,0,0,0.1,0.1c0.6,0.6,0.9,1.5,0.9,2.8c0,1-0.2,2.1-1,2.8c-0.1,0.1-0.1,0.1-0.1,0.1s0,0.1,0.1,0.1s0.6-0.4,0.9-1.2
			C377.8,223.1,377.9,222.5,377.9,222"/>
	</g>
	<g>
		<defs>
			<rect id="SVGID_205_" x="363.2" y="218.2" width="32.9" height="7.2"/>
		</defs>
		<clipPath id="SVGID_206_">
			<use xlink:href="#SVGID_205_"  style="overflow:visible;"/>
		</clipPath>
		<path id="XMLID_159_" class="st108" d="M384.1,222.7c0.1,0,0.2,0,0.2-0.1s-0.1-0.1-0.2-0.1h-3.6c-0.1,0-0.2,0-0.2,0.1
			s0.1,0.1,0.2,0.1H384.1 M384.1,221.5c0.1,0,0.2,0,0.2-0.1s-0.1-0.1-0.2-0.1h-3.6c-0.1,0-0.2,0-0.2,0.1s0.1,0.1,0.2,0.1H384.1z"/>
	</g>
	<g>
		<defs>
			<rect id="SVGID_207_" x="363.2" y="218.2" width="32.9" height="7.2"/>
		</defs>
		<clipPath id="SVGID_208_">
			<use xlink:href="#SVGID_207_"  style="overflow:visible;"/>
		</clipPath>
		<path id="XMLID_158_" class="st109" d="M388.4,221.7c0-0.2,0.2-0.7,0.6-0.7c0,0,0.2,0,0.3,0.1c-0.2,0-0.3,0.2-0.3,0.3
			s0.1,0.2,0.2,0.2s0.3-0.1,0.3-0.3c0-0.3-0.4-0.4-0.6-0.4c-0.3,0-0.6,0.3-0.6,0.5c-0.1-0.4-0.5-0.5-0.6-0.5c-0.6,0-1,0.8-1,0.9
			c0,0.1,0.1,0.1,0.1,0.1s0.1,0,0.1-0.1c0.2-0.6,0.6-0.8,0.8-0.8c0.1,0,0.3,0.1,0.3,0.4c0,0.2-0.1,0.6-0.3,1.4
			c-0.1,0.4-0.3,0.6-0.6,0.6c0,0-0.2,0-0.3-0.1c0.1,0,0.3-0.2,0.3-0.3c0-0.2-0.1-0.2-0.2-0.2c-0.2,0-0.3,0.2-0.3,0.3
			c0,0.3,0.3,0.4,0.6,0.4c0.4,0,0.6-0.4,0.6-0.5c0.1,0.2,0.3,0.5,0.6,0.5c0.6,0,1-0.8,1-0.9c0-0.1-0.1-0.1-0.1-0.1
			c-0.1,0-0.1,0-0.1,0.1c-0.2,0.6-0.6,0.8-0.8,0.8c-0.2,0-0.3-0.2-0.3-0.4c0-0.1,0-0.3,0.1-0.5L388.4,221.7"/>
	</g>
	<g>
		<defs>
			<rect id="SVGID_209_" x="363.2" y="218.2" width="32.9" height="7.2"/>
		</defs>
		<clipPath id="SVGID_210_">
			<use xlink:href="#SVGID_209_"  style="overflow:visible;"/>
		</clipPath>
		<polyline id="XMLID_157_" class="st110" points="391.4,225 391.4,224.7 390.8,224.7 390.8,219.2 391.4,219.2 391.4,219 390.5,219 
			390.5,225 391.4,225 		"/>
	</g>
	<g>
		<defs>
			<rect id="SVGID_211_" x="363.2" y="218.2" width="32.9" height="7.2"/>
		</defs>
		<clipPath id="SVGID_212_">
			<use xlink:href="#SVGID_211_"  style="overflow:visible;"/>
		</clipPath>
		<path id="XMLID_156_" class="st111" d="M392.2,223l0.6-0.6c0.9-0.8,1.3-1.1,1.3-1.7c0-0.7-0.5-1.2-1.3-1.2c-0.7,0-1.1,0.5-1.1,1.1
			c0,0.3,0.3,0.3,0.3,0.3c0.1,0,0.3-0.1,0.3-0.3s-0.1-0.3-0.3-0.3h-0.1c0.1-0.4,0.5-0.6,0.8-0.6c0.5,0,0.8,0.5,0.8,1
			s-0.3,0.9-0.6,1.3l-1.1,1.3c-0.1,0.1-0.1,0.1-0.1,0.2h2.2l0.2-1H394c0,0.2-0.1,0.4-0.1,0.5c0,0-0.4,0-0.6,0H392.2"/>
	</g>
	<g>
		<defs>
			<rect id="SVGID_213_" x="363.2" y="218.2" width="32.9" height="7.2"/>
		</defs>
		<clipPath id="SVGID_214_">
			<use xlink:href="#SVGID_213_"  style="overflow:visible;"/>
		</clipPath>
		<polyline id="XMLID_155_" class="st112" points="395.4,219 394.6,219 394.6,219.2 395.1,219.2 395.1,224.7 394.6,224.7 394.6,225 
			395.4,225 395.4,219 		"/>
	</g>
</g>
<g id="XMLID_174_">
	<g>
		<defs>
			<rect id="SVGID_215_" x="435.2" y="143.2" width="32.9" height="7.2"/>
		</defs>
		<clipPath id="SVGID_216_">
			<use xlink:href="#SVGID_215_"  style="overflow:visible;"/>
		</clipPath>
		<path id="XMLID_187_" class="st113" d="M437.4,146.7c0-0.2,0.2-0.7,0.6-0.7c0,0,0.2,0,0.3,0.1c-0.2,0-0.3,0.2-0.3,0.3
			s0.1,0.2,0.2,0.2s0.3-0.1,0.3-0.3c0-0.3-0.4-0.4-0.6-0.4c-0.3,0-0.6,0.3-0.6,0.5c-0.1-0.4-0.5-0.5-0.6-0.5c-0.6,0-1,0.8-1,0.9
			c0,0.1,0.1,0.1,0.1,0.1s0.1,0,0.1-0.1c0.2-0.6,0.6-0.8,0.8-0.8c0.1,0,0.3,0.1,0.3,0.4c0,0.2-0.1,0.6-0.3,1.4
			c-0.1,0.4-0.3,0.6-0.6,0.6c0,0-0.2,0-0.3-0.1c0.1,0,0.3-0.2,0.3-0.3c0-0.2-0.1-0.2-0.2-0.2c-0.2,0-0.3,0.2-0.3,0.3
			c0,0.3,0.3,0.4,0.6,0.4c0.4,0,0.6-0.4,0.6-0.5c0.1,0.2,0.3,0.5,0.6,0.5c0.6,0,1-0.8,1-0.9c0-0.1-0.1-0.1-0.1-0.1
			c-0.1,0-0.1,0-0.1,0.1c-0.2,0.6-0.6,0.8-0.8,0.8c-0.2,0-0.3-0.2-0.3-0.4c0-0.1,0-0.3,0.1-0.5L437.4,146.7"/>
	</g>
	<g>
		<defs>
			<rect id="SVGID_217_" x="435.2" y="143.2" width="32.9" height="7.2"/>
		</defs>
		<clipPath id="SVGID_218_">
			<use xlink:href="#SVGID_217_"  style="overflow:visible;"/>
		</clipPath>
		<path id="XMLID_186_" class="st114" d="M440.8,149.9c0,0,0,0-0.1-0.1c-0.7-0.8-0.9-1.9-0.9-2.8c0-1,0.2-2.1,1-2.8
			c0.1-0.1,0.1-0.1,0.1-0.1s0-0.1-0.1-0.1s-0.6,0.4-0.9,1.2c-0.3,0.7-0.4,1.3-0.4,1.8s0.1,1.2,0.4,1.9
			C440.2,149.6,440.7,150,440.8,149.9C440.8,150,440.8,149.9,440.8,149.9"/>
	</g>
	<g>
		<defs>
			<rect id="SVGID_219_" x="435.2" y="143.2" width="32.9" height="7.2"/>
		</defs>
		<clipPath id="SVGID_220_">
			<use xlink:href="#SVGID_219_"  style="overflow:visible;"/>
		</clipPath>
		<path id="XMLID_185_" class="st115" d="M442.9,146.4c0.5-0.2,0.8-0.6,0.8-1c0-0.5-0.5-0.8-1.1-0.8s-1.1,0.4-1.1,0.8
			c0,0.2,0.1,0.3,0.3,0.3c0.2,0,0.3-0.1,0.3-0.3c0-0.3-0.3-0.3-0.4-0.3c0.2-0.3,0.6-0.4,0.8-0.4c0.2,0,0.6,0.1,0.6,0.7
			c0,0.1,0,0.4-0.2,0.7s-0.4,0.3-0.5,0.3h-0.2c0,0-0.1,0-0.1,0.1s0,0.1,0.1,0.1h0.3c0.5,0,0.7,0.4,0.7,1c0,0.8-0.4,1-0.7,1
			c-0.3,0-0.7-0.1-0.9-0.5c0.2,0,0.4-0.1,0.4-0.3s-0.2-0.3-0.3-0.3c-0.1,0-0.3,0.1-0.3,0.3c0,0.5,0.6,0.9,1.2,0.9
			c0.7,0,1.3-0.5,1.3-1.1C443.9,147,443.5,146.5,442.9,146.4"/>
	</g>
	<g>
		<defs>
			<rect id="SVGID_221_" x="435.2" y="143.2" width="32.9" height="7.2"/>
		</defs>
		<clipPath id="SVGID_222_">
			<use xlink:href="#SVGID_221_"  style="overflow:visible;"/>
		</clipPath>
		<path id="XMLID_184_" class="st116" d="M446,145h1.3c0.1,0,0.2,0,0.2-0.1s-0.1-0.1-0.2-0.1H446v-1.3c0-0.1,0-0.2-0.1-0.2
			s-0.1,0.1-0.1,0.2v1.3h-1.3c-0.1,0-0.2,0-0.2,0.1s0.1,0.1,0.2,0.1h1.3v1.3c0,0.1,0,0.2,0.1,0.2s0.1-0.1,0.1-0.2V145"/>
	</g>
	<g>
		<defs>
			<rect id="SVGID_223_" x="435.2" y="143.2" width="32.9" height="7.2"/>
		</defs>
		<clipPath id="SVGID_224_">
			<use xlink:href="#SVGID_223_"  style="overflow:visible;"/>
		</clipPath>
		<path id="XMLID_183_" class="st117" d="M449.9,147c0-0.5-0.1-1.2-0.4-1.9c-0.4-0.7-0.9-1.1-0.9-1.1s-0.1,0-0.1,0.1
			c0,0,0,0,0.1,0.1c0.6,0.6,0.9,1.5,0.9,2.8c0,1-0.2,2.1-1,2.8c-0.1,0.1-0.1,0.1-0.1,0.1s0,0.1,0.1,0.1s0.6-0.4,0.9-1.2
			C449.8,148.1,449.9,147.5,449.9,147"/>
	</g>
	<g>
		<defs>
			<rect id="SVGID_225_" x="435.2" y="143.2" width="32.9" height="7.2"/>
		</defs>
		<clipPath id="SVGID_226_">
			<use xlink:href="#SVGID_225_"  style="overflow:visible;"/>
		</clipPath>
		<path id="XMLID_180_" class="st118" d="M456.1,147.7c0.1,0,0.2,0,0.2-0.1s-0.1-0.1-0.2-0.1h-3.6c-0.1,0-0.2,0-0.2,0.1
			s0.1,0.1,0.2,0.1H456.1 M456.1,146.5c0.1,0,0.2,0,0.2-0.1s-0.1-0.1-0.2-0.1h-3.6c-0.1,0-0.2,0-0.2,0.1s0.1,0.1,0.2,0.1H456.1z"/>
	</g>
	<g>
		<defs>
			<rect id="SVGID_227_" x="435.2" y="143.2" width="32.9" height="7.2"/>
		</defs>
		<clipPath id="SVGID_228_">
			<use xlink:href="#SVGID_227_"  style="overflow:visible;"/>
		</clipPath>
		<path id="XMLID_179_" class="st119" d="M460.4,146.7c0-0.2,0.2-0.7,0.6-0.7c0,0,0.2,0,0.3,0.1c-0.2,0-0.3,0.2-0.3,0.3
			s0.1,0.2,0.2,0.2s0.3-0.1,0.3-0.3c0-0.3-0.4-0.4-0.6-0.4c-0.3,0-0.6,0.3-0.6,0.5c-0.1-0.4-0.5-0.5-0.6-0.5c-0.6,0-1,0.8-1,0.9
			c0,0.1,0.1,0.1,0.1,0.1s0.1,0,0.1-0.1c0.2-0.6,0.6-0.8,0.8-0.8c0.1,0,0.3,0.1,0.3,0.4c0,0.2-0.1,0.6-0.3,1.4
			c-0.1,0.4-0.3,0.6-0.6,0.6c0,0-0.2,0-0.3-0.1c0.1,0,0.3-0.2,0.3-0.3c0-0.2-0.1-0.2-0.2-0.2c-0.2,0-0.3,0.2-0.3,0.3
			c0,0.3,0.3,0.4,0.6,0.4c0.4,0,0.6-0.4,0.6-0.5c0.1,0.2,0.3,0.5,0.6,0.5c0.6,0,1-0.8,1-0.9c0-0.1-0.1-0.1-0.1-0.1
			c-0.1,0-0.1,0-0.1,0.1c-0.2,0.6-0.6,0.8-0.8,0.8c-0.2,0-0.3-0.2-0.3-0.4c0-0.1,0-0.3,0.1-0.5L460.4,146.7"/>
	</g>
	<g>
		<defs>
			<rect id="SVGID_229_" x="435.2" y="143.2" width="32.9" height="7.2"/>
		</defs>
		<clipPath id="SVGID_230_">
			<use xlink:href="#SVGID_229_"  style="overflow:visible;"/>
		</clipPath>
		<polyline id="XMLID_178_" class="st120" points="463.4,150 463.4,149.7 462.8,149.7 462.8,144.2 463.4,144.2 463.4,144 462.5,144 
			462.5,150 463.4,150 		"/>
	</g>
	<g>
		<defs>
			<rect id="SVGID_231_" x="435.2" y="143.2" width="32.9" height="7.2"/>
		</defs>
		<clipPath id="SVGID_232_">
			<use xlink:href="#SVGID_231_"  style="overflow:visible;"/>
		</clipPath>
		<path id="XMLID_177_" class="st121" d="M465.2,146.4c0.5-0.2,0.8-0.6,0.8-1c0-0.5-0.5-0.8-1.1-0.8s-1.1,0.4-1.1,0.8
			c0,0.2,0.1,0.3,0.3,0.3c0.2,0,0.3-0.1,0.3-0.3c0-0.3-0.3-0.3-0.4-0.3c0.2-0.3,0.6-0.4,0.8-0.4c0.2,0,0.6,0.1,0.6,0.7
			c0,0.1,0,0.4-0.2,0.7s-0.4,0.3-0.5,0.3h-0.2c0,0-0.1,0-0.1,0.1s0,0.1,0.1,0.1h0.3c0.5,0,0.7,0.4,0.7,1c0,0.8-0.4,1-0.7,1
			c-0.3,0-0.7-0.1-0.9-0.5c0.2,0,0.4-0.1,0.4-0.3s-0.2-0.3-0.3-0.3c-0.1,0-0.3,0.1-0.3,0.3c0,0.5,0.6,0.9,1.2,0.9
			c0.7,0,1.3-0.5,1.3-1.1C466.2,147,465.8,146.5,465.2,146.4"/>
	</g>
	<g>
		<defs>
			<rect id="SVGID_233_" x="435.2" y="143.2" width="32.9" height="7.2"/>
		</defs>
		<clipPath id="SVGID_234_">
			<use xlink:href="#SVGID_233_"  style="overflow:visible;"/>
		</clipPath>
		<polyline id="XMLID_176_" class="st122" points="467.4,144 466.6,144 466.6,144.2 467.1,144.2 467.1,149.7 466.6,149.7 466.6,150 
			467.4,150 467.4,144 		"/>
	</g>
</g>
<g id="Layer_4">
</g>
<line id="XMLID_1_" class="st12" x1="470" y1="420" x2="541.8" y2="420"/>
<polyline id="XMLID_6_" class="st123" points="216,288 216,216 287.8,216 287.8,144.5 359.2,144.5 359.2,71.5 432,71.5 "/>
<line id="XMLID_9_" class="st1" x1="210.2" y1="71.7" x2="221.8" y2="71.7"/>
<g>
	<defs>
		<rect id="SVGID_235_" x="202.1" y="68.7" width="4" height="6"/>
	</defs>
	<clipPath id="SVGID_236_">
		<use xlink:href="#SVGID_235_"  style="overflow:visible;"/>
	</clipPath>
	<path class="st124" d="M204.6,72.9h-1.9l1.9-3V72.9z M204.6,73.1v0.7c0,0.3,0,0.4-0.6,0.4h-0.2v0.2c0.3,0,0.7,0,1.1,0
		c0.3,0,0.8,0,1.1,0v-0.2h-0.2c-0.6,0-0.6-0.1-0.6-0.4v-0.7h0.8v-0.2h-0.8v-3.6c0-0.2,0-0.2-0.1-0.2c-0.1,0-0.1,0-0.2,0.1l-2.4,3.7
		v0.2H204.6z"/>
</g>
<polyline id="XMLID_10_" class="st125" points="216,288 288,288 288,216.3 360,216.3 360,144.1 432,144.1 432,71.9 "/>
<g>
	<defs>
		<rect id="SVGID_237_" x="218.2" y="289.9" width="14.9" height="6.6"/>
	</defs>
	<clipPath id="SVGID_238_">
		<use xlink:href="#SVGID_237_"  style="overflow:visible;"/>
	</clipPath>
	<path class="st126" d="M221.2,292.3c0-0.1,0-0.1,0-0.1c0-0.1-0.1-0.2-0.2-0.2c-0.1,0-0.2,0-0.2,0.1c0,0-0.1,0.2-0.1,0.3
		c0,0.2-0.1,0.3-0.1,0.5l-0.3,1.1c0,0.1-0.3,0.5-0.7,0.5c-0.3,0-0.4-0.3-0.4-0.5c0-0.3,0.1-0.6,0.3-1.2c0.1-0.2,0.1-0.3,0.1-0.4
		c0-0.3-0.2-0.5-0.5-0.5c-0.6,0-0.8,0.9-0.8,0.9c0,0.1,0.1,0.1,0.1,0.1c0.1,0,0.1,0,0.1-0.1c0.2-0.6,0.4-0.7,0.6-0.7
		c0,0,0.1,0,0.1,0.2c0,0.1-0.1,0.3-0.1,0.4c-0.2,0.6-0.3,1-0.3,1.3c0,0.5,0.4,0.7,0.7,0.7c0.2,0,0.4-0.1,0.6-0.3
		c-0.1,0.3-0.1,0.6-0.4,0.9c-0.2,0.2-0.4,0.4-0.7,0.4c-0.1,0-0.4,0-0.5-0.3c0.1,0,0.2,0,0.3-0.1c0.1-0.1,0.1-0.1,0.1-0.2
		c0-0.2-0.2-0.2-0.2-0.2c-0.1,0-0.3,0.1-0.3,0.4c0,0.3,0.3,0.5,0.6,0.5c0.6,0,1.2-0.5,1.4-1.2L221.2,292.3"/>
	<path class="st126" d="M223.5,296c0,0,0,0-0.1-0.1c-0.7-0.8-0.9-1.9-0.9-2.8c0-1,0.2-2.1,1-2.8c0.1-0.1,0.1-0.1,0.1-0.1
		c0,0,0-0.1-0.1-0.1c-0.1,0-0.6,0.4-0.9,1.2c-0.3,0.7-0.4,1.3-0.4,1.8c0,0.5,0.1,1.2,0.4,1.9C222.8,295.7,223.4,296.1,223.5,296
		C223.4,296.1,223.5,296,223.5,296"/>
	<path class="st126" d="M225.3,294.6c-0.2,0-0.6-0.1-0.7-0.7c-0.1-0.4-0.1-0.9-0.1-1.3c0-0.4,0-0.8,0-1.1c0.1-0.7,0.6-0.8,0.7-0.8
		c0.2,0,0.6,0.1,0.7,0.7c0.1,0.3,0.1,0.8,0.1,1.2c0,0.4,0,0.9-0.1,1.2C225.9,294.4,225.6,294.6,225.3,294.6 M226.5,292.7
		c0-0.5,0-1-0.2-1.4c-0.3-0.6-0.8-0.7-1-0.7c-0.4,0-0.8,0.2-1,0.7c-0.2,0.4-0.2,0.9-0.2,1.4c0,0.4,0,1,0.3,1.4
		c0.3,0.5,0.7,0.6,1,0.6c0.3,0,0.8-0.1,1-0.7C226.5,293.6,226.5,293.1,226.5,292.7z"/>
	<path class="st126" d="M229.9,291.1c0.1,0,0.2,0,0.2-0.1c0-0.1-0.1-0.1-0.2-0.1h-2.5c-0.1,0-0.2,0-0.2,0.1c0,0.1,0.1,0.1,0.2,0.1
		H229.9"/>
	<path class="st126" d="M232.5,293.1c0-0.5-0.1-1.2-0.4-1.9c-0.4-0.7-0.9-1.1-0.9-1.1c0,0-0.1,0-0.1,0.1c0,0,0,0,0.1,0.1
		c0.6,0.6,0.9,1.5,0.9,2.8c0,1-0.2,2.1-1,2.8c-0.1,0.1-0.1,0.1-0.1,0.1c0,0,0,0.1,0.1,0.1c0.1,0,0.6-0.4,0.9-1.2
		C232.5,294.2,232.5,293.6,232.5,293.1"/>
</g>
<g>
	<defs>
		<rect id="SVGID_239_" x="271.1" y="289.9" width="14.9" height="6.6"/>
	</defs>
	<clipPath id="SVGID_240_">
		<use xlink:href="#SVGID_239_"  style="overflow:visible;"/>
	</clipPath>
	<path class="st127" d="M274.1,292.3c0-0.1,0-0.1,0-0.1c0-0.1-0.1-0.2-0.2-0.2c-0.1,0-0.2,0-0.2,0.1c0,0-0.1,0.2-0.1,0.3
		c0,0.2-0.1,0.3-0.1,0.5l-0.3,1.1c0,0.1-0.3,0.5-0.7,0.5c-0.3,0-0.4-0.3-0.4-0.5c0-0.3,0.1-0.6,0.3-1.2c0.1-0.2,0.1-0.3,0.1-0.4
		c0-0.3-0.2-0.5-0.5-0.5c-0.6,0-0.8,0.9-0.8,0.9c0,0.1,0.1,0.1,0.1,0.1c0.1,0,0.1,0,0.1-0.1c0.2-0.6,0.4-0.7,0.6-0.7
		c0,0,0.1,0,0.1,0.2c0,0.1-0.1,0.3-0.1,0.4c-0.2,0.6-0.3,1-0.3,1.3c0,0.5,0.4,0.7,0.7,0.7c0.2,0,0.4-0.1,0.6-0.3
		c-0.1,0.3-0.1,0.6-0.4,0.9c-0.2,0.2-0.4,0.4-0.7,0.4c-0.1,0-0.4,0-0.5-0.2c0.1,0,0.2,0,0.3-0.1c0.1-0.1,0.1-0.1,0.1-0.2
		c0-0.2-0.2-0.2-0.2-0.2c-0.1,0-0.3,0.1-0.3,0.4c0,0.3,0.3,0.5,0.6,0.5c0.6,0,1.2-0.5,1.4-1.2L274.1,292.3"/>
	<path class="st127" d="M276.4,296c0,0,0,0-0.1-0.1c-0.7-0.8-0.9-1.9-0.9-2.8c0-1,0.2-2.1,1-2.8c0.1-0.1,0.1-0.1,0.1-0.1
		c0,0,0-0.1-0.1-0.1c-0.1,0-0.6,0.4-0.9,1.2c-0.3,0.7-0.4,1.3-0.4,1.8c0,0.5,0.1,1.2,0.4,1.9C275.7,295.7,276.2,296.1,276.4,296
		C276.3,296.1,276.4,296,276.4,296"/>
	<path class="st127" d="M278.4,290.7c0-0.1,0-0.2-0.1-0.2c-0.4,0.4-0.9,0.4-1.1,0.4v0.2c0.1,0,0.5,0,0.8-0.2v3.1
		c0,0.2,0,0.3-0.6,0.3h-0.2v0.2c0.2,0,0.7,0,1,0c0.2,0,0.8,0,1,0v-0.2H279c-0.5,0-0.6-0.1-0.6-0.3V290.7"/>
	<path class="st127" d="M282.7,291.1c0.1,0,0.2,0,0.2-0.1c0-0.1-0.1-0.1-0.2-0.1h-2.5c-0.1,0-0.2,0-0.2,0.1c0,0.1,0.1,0.1,0.2,0.1
		H282.7"/>
	<path class="st127" d="M285.4,293.1c0-0.5-0.1-1.2-0.4-1.9c-0.4-0.7-0.9-1.1-0.9-1.1c0,0-0.1,0-0.1,0.1c0,0,0,0,0.1,0.1
		c0.6,0.6,0.9,1.5,0.9,2.8c0,1-0.2,2.1-1,2.8C284,296,284,296,284,296c0,0,0,0.1,0.1,0.1c0.1,0,0.6-0.4,0.9-1.2
		C285.3,294.2,285.4,293.6,285.4,293.1"/>
</g>
<g>
	<defs>
		<rect id="SVGID_241_" x="291.2" y="218.5" width="14.9" height="7.2"/>
	</defs>
	<clipPath id="SVGID_242_">
		<use xlink:href="#SVGID_241_"  style="overflow:visible;"/>
	</clipPath>
	<path class="st128" d="M294.2,221.5c0-0.1,0-0.1,0-0.1c0-0.1-0.1-0.2-0.2-0.2c-0.1,0-0.2,0-0.2,0.1c0,0-0.1,0.2-0.1,0.3
		c0,0.2-0.1,0.3-0.1,0.5l-0.3,1.1c0,0.1-0.3,0.5-0.7,0.5c-0.3,0-0.4-0.3-0.4-0.5c0-0.3,0.1-0.6,0.3-1.2c0.1-0.2,0.1-0.3,0.1-0.4
		c0-0.3-0.2-0.5-0.5-0.5c-0.6,0-0.8,0.9-0.8,0.9c0,0.1,0.1,0.1,0.1,0.1c0.1,0,0.1,0,0.1-0.1c0.2-0.6,0.4-0.7,0.6-0.7
		c0,0,0.1,0,0.1,0.2c0,0.1-0.1,0.3-0.1,0.4c-0.2,0.6-0.3,1-0.3,1.3c0,0.5,0.4,0.7,0.7,0.7c0.2,0,0.4-0.1,0.6-0.3
		c-0.1,0.3-0.1,0.6-0.4,0.9c-0.2,0.2-0.4,0.4-0.7,0.4c-0.1,0-0.4,0-0.5-0.3c0.1,0,0.2,0,0.3-0.1c0.1-0.1,0.1-0.1,0.1-0.2
		c0-0.2-0.2-0.2-0.2-0.2c-0.1,0-0.3,0.1-0.3,0.4c0,0.3,0.3,0.5,0.6,0.5c0.6,0,1.2-0.5,1.4-1.2L294.2,221.5"/>
	<path class="st128" d="M296.5,225.2c0,0,0,0-0.1-0.1c-0.7-0.8-0.9-1.9-0.9-2.8c0-1,0.2-2.1,1-2.8c0.1-0.1,0.1-0.1,0.1-0.1
		c0,0,0-0.1-0.1-0.1c-0.1,0-0.6,0.4-0.9,1.2c-0.3,0.7-0.4,1.3-0.4,1.8c0,0.5,0.1,1.2,0.4,1.9C295.8,224.8,296.4,225.2,296.5,225.2
		C296.4,225.2,296.5,225.2,296.5,225.2"/>
	<path class="st128" d="M298.6,219.9c0-0.1,0-0.2-0.1-0.2c-0.4,0.4-0.9,0.4-1.1,0.4v0.2c0.1,0,0.5,0,0.8-0.2v3.1
		c0,0.2,0,0.3-0.6,0.3h-0.2v0.2c0.2,0,0.7,0,1,0c0.2,0,0.8,0,1,0v-0.2h-0.2c-0.5,0-0.6-0.1-0.6-0.3V219.9"/>
	<path class="st128" d="M301.7,220.3h1.3c0.1,0,0.2,0,0.2-0.1c0-0.1-0.1-0.1-0.2-0.1h-1.3v-1.3c0-0.1,0-0.2-0.1-0.2
		c-0.1,0-0.1,0.1-0.1,0.2v1.3h-1.3c-0.1,0-0.2,0-0.2,0.1c0,0.1,0.1,0.1,0.2,0.1h1.3v1.3c0,0.1,0,0.2,0.1,0.2c0.1,0,0.1-0.1,0.1-0.2
		V220.3"/>
	<path class="st128" d="M305.5,222.2c0-0.5-0.1-1.2-0.4-1.9c-0.4-0.7-0.9-1.1-0.9-1.1c0,0-0.1,0-0.1,0.1c0,0,0,0,0.1,0.1
		c0.6,0.6,0.9,1.5,0.9,2.8c0,1-0.2,2.1-1,2.8c-0.1,0.1-0.1,0.1-0.1,0.1c0,0,0,0.1,0.1,0.1c0.1,0,0.6-0.4,0.9-1.2
		C305.5,223.4,305.5,222.7,305.5,222.2"/>
</g>
<g>
	<defs>
		<rect id="SVGID_243_" x="341.7" y="218.8" width="14.9" height="6.6"/>
	</defs>
	<clipPath id="SVGID_244_">
		<use xlink:href="#SVGID_243_"  style="overflow:visible;"/>
	</clipPath>
	<path class="st129" d="M344.7,221.2c0-0.1,0-0.1,0-0.1c0-0.1-0.1-0.2-0.2-0.2c-0.1,0-0.2,0-0.2,0.1c0,0-0.1,0.2-0.1,0.3
		c0,0.2-0.1,0.3-0.1,0.5l-0.3,1.1c0,0.1-0.3,0.5-0.7,0.5c-0.3,0-0.4-0.3-0.4-0.5c0-0.3,0.1-0.6,0.3-1.2c0.1-0.2,0.1-0.3,0.1-0.4
		c0-0.3-0.2-0.5-0.5-0.5c-0.6,0-0.8,0.9-0.8,0.9c0,0.1,0.1,0.1,0.1,0.1c0.1,0,0.1,0,0.1-0.1c0.2-0.6,0.4-0.7,0.6-0.7
		c0,0,0.1,0,0.1,0.2c0,0.1-0.1,0.3-0.1,0.4c-0.2,0.6-0.3,1-0.3,1.3c0,0.5,0.4,0.7,0.7,0.7c0.2,0,0.4-0.1,0.6-0.3
		c-0.1,0.3-0.1,0.6-0.4,0.9c-0.2,0.2-0.4,0.4-0.7,0.4c-0.1,0-0.4,0-0.5-0.2c0.1,0,0.2,0,0.3-0.1c0.1-0.1,0.1-0.1,0.1-0.2
		c0-0.2-0.2-0.2-0.2-0.2c-0.1,0-0.3,0.1-0.3,0.4c0,0.3,0.3,0.5,0.6,0.5c0.6,0,1.2-0.5,1.4-1.2L344.7,221.2"/>
	<path class="st129" d="M347,224.9c0,0,0,0-0.1-0.1c-0.7-0.8-0.9-1.9-0.9-2.8c0-1,0.2-2.1,1-2.8c0.1-0.1,0.1-0.1,0.1-0.1
		c0,0,0-0.1-0.1-0.1c-0.1,0-0.6,0.4-0.9,1.2c-0.3,0.7-0.4,1.3-0.4,1.8c0,0.5,0.1,1.2,0.4,1.9C346.3,224.5,346.8,224.9,347,224.9
		C346.9,224.9,347,224.9,347,224.9"/>
	<path class="st129" d="M348,223l0.6-0.6c0.9-0.8,1.3-1.1,1.3-1.7c0-0.7-0.5-1.2-1.3-1.2c-0.7,0-1.1,0.5-1.1,1.1
		c0,0.3,0.3,0.3,0.3,0.3c0.1,0,0.3-0.1,0.3-0.3c0-0.2-0.1-0.3-0.3-0.3c0,0-0.1,0-0.1,0c0.1-0.4,0.5-0.6,0.8-0.6c0.5,0,0.8,0.5,0.8,1
		c0,0.5-0.3,0.9-0.6,1.3l-1.1,1.3c-0.1,0.1-0.1,0.1-0.1,0.2h2.2l0.2-1h-0.2c0,0.2-0.1,0.4-0.1,0.5c0,0-0.4,0-0.6,0H348"/>
	<path class="st129" d="M353.3,220c0.1,0,0.2,0,0.2-0.1c0-0.1-0.1-0.1-0.2-0.1h-2.5c-0.1,0-0.2,0-0.2,0.1c0,0.1,0.1,0.1,0.2,0.1
		H353.3"/>
	<path class="st129" d="M356,221.9c0-0.5-0.1-1.2-0.4-1.9c-0.4-0.7-0.9-1.1-0.9-1.1c0,0-0.1,0-0.1,0.1c0,0,0,0,0.1,0.1
		c0.6,0.6,0.9,1.5,0.9,2.8c0,1-0.2,2.1-1,2.8c-0.1,0.1-0.1,0.1-0.1,0.1c0,0,0,0.1,0.1,0.1c0.1,0,0.6-0.4,0.9-1.2
		C355.9,223.1,356,222.4,356,221.9"/>
</g>
<g>
	<defs>
		<rect id="SVGID_245_" x="436.2" y="134.2" width="14.9" height="7.2"/>
	</defs>
	<clipPath id="SVGID_246_">
		<use xlink:href="#SVGID_245_"  style="overflow:visible;"/>
	</clipPath>
	<path class="st130" d="M439.2,137.2c0-0.1,0-0.1,0-0.1c0-0.1-0.1-0.2-0.2-0.2c-0.1,0-0.2,0-0.2,0.1c0,0-0.1,0.2-0.1,0.3
		c0,0.2-0.1,0.3-0.1,0.5l-0.3,1.1c0,0.1-0.3,0.5-0.7,0.5c-0.3,0-0.4-0.3-0.4-0.5c0-0.3,0.1-0.6,0.3-1.2c0.1-0.2,0.1-0.3,0.1-0.4
		c0-0.3-0.2-0.5-0.5-0.5c-0.6,0-0.8,0.9-0.8,0.9c0,0.1,0.1,0.1,0.1,0.1c0.1,0,0.1,0,0.1-0.1c0.2-0.6,0.4-0.7,0.6-0.7
		c0,0,0.1,0,0.1,0.2c0,0.1-0.1,0.3-0.1,0.4c-0.2,0.6-0.3,1-0.3,1.3c0,0.5,0.4,0.7,0.7,0.7c0.2,0,0.4-0.1,0.6-0.3
		c-0.1,0.3-0.1,0.6-0.4,0.9c-0.2,0.2-0.4,0.4-0.7,0.4c-0.1,0-0.4,0-0.5-0.2c0.1,0,0.2,0,0.3-0.1c0.1-0.1,0.1-0.1,0.1-0.2
		c0-0.2-0.2-0.2-0.2-0.2c-0.1,0-0.3,0.1-0.3,0.4c0,0.3,0.3,0.5,0.6,0.5c0.6,0,1.2-0.5,1.4-1.2L439.2,137.2"/>
	<path class="st130" d="M441.5,140.9c0,0,0,0-0.1-0.1c-0.7-0.8-0.9-1.9-0.9-2.8c0-1,0.2-2.1,1-2.8c0.1-0.1,0.1-0.1,0.1-0.1
		c0,0,0-0.1-0.1-0.1c-0.1,0-0.6,0.4-0.9,1.2c-0.3,0.7-0.4,1.3-0.4,1.8c0,0.5,0.1,1.2,0.4,1.9C440.9,140.5,441.4,140.9,441.5,140.9
		C441.5,140.9,441.5,140.9,441.5,140.9"/>
	<path class="st130" d="M442.6,139l0.6-0.6c0.9-0.8,1.3-1.1,1.3-1.7c0-0.7-0.5-1.2-1.3-1.2c-0.7,0-1.1,0.5-1.1,1.1
		c0,0.3,0.3,0.3,0.3,0.3c0.1,0,0.3-0.1,0.3-0.3c0-0.2-0.1-0.3-0.3-0.3c0,0-0.1,0-0.1,0c0.1-0.4,0.5-0.6,0.8-0.6c0.5,0,0.8,0.5,0.8,1
		c0,0.5-0.3,0.9-0.6,1.3l-1.1,1.3c-0.1,0.1-0.1,0.1-0.1,0.2h2.2l0.2-1h-0.1c0,0.2-0.1,0.4-0.1,0.5c0,0-0.4,0-0.6,0H442.6"/>
	<path class="st130" d="M446.7,136h1.3c0.1,0,0.2,0,0.2-0.1c0-0.1-0.1-0.1-0.2-0.1h-1.3v-1.3c0-0.1,0-0.2-0.1-0.2
		c-0.1,0-0.1,0.1-0.1,0.2v1.3h-1.3c-0.1,0-0.2,0-0.2,0.1c0,0.1,0.1,0.1,0.2,0.1h1.3v1.3c0,0.1,0,0.2,0.1,0.2c0.1,0,0.1-0.1,0.1-0.2
		V136"/>
	<path class="st130" d="M450.5,137.9c0-0.5-0.1-1.2-0.4-1.9c-0.4-0.7-0.9-1.1-0.9-1.1c0,0-0.1,0-0.1,0.1c0,0,0,0,0.1,0.1
		c0.6,0.6,0.9,1.5,0.9,2.8c0,1-0.2,2.1-1,2.8c-0.1,0.1-0.1,0.1-0.1,0.1c0,0,0,0.1,0.1,0.1c0.1,0,0.6-0.4,0.9-1.2
		C450.5,139.1,450.5,138.4,450.5,137.9"/>
</g>
<g>
	<defs>
		<rect id="SVGID_247_" x="436.2" y="69.2" width="14.9" height="7.2"/>
	</defs>
	<clipPath id="SVGID_248_">
		<use xlink:href="#SVGID_247_"  style="overflow:visible;"/>
	</clipPath>
	<path class="st131" d="M439.2,72.2c0-0.1,0-0.1,0-0.1c0-0.1-0.1-0.2-0.2-0.2c-0.1,0-0.2,0-0.2,0.1c0,0-0.1,0.2-0.1,0.3
		c0,0.2-0.1,0.3-0.1,0.5l-0.3,1.1c0,0.1-0.3,0.5-0.7,0.5c-0.3,0-0.4-0.3-0.4-0.5c0-0.3,0.1-0.6,0.3-1.2c0.1-0.2,0.1-0.3,0.1-0.4
		c0-0.3-0.2-0.5-0.5-0.5c-0.6,0-0.8,0.9-0.8,0.9c0,0.1,0.1,0.1,0.1,0.1c0.1,0,0.1,0,0.1-0.1c0.2-0.6,0.4-0.7,0.6-0.7
		c0,0,0.1,0,0.1,0.2c0,0.1-0.1,0.3-0.1,0.4c-0.2,0.6-0.3,1-0.3,1.3c0,0.5,0.4,0.7,0.7,0.7c0.2,0,0.4-0.1,0.6-0.3
		c-0.1,0.3-0.1,0.6-0.4,0.9c-0.2,0.2-0.4,0.4-0.7,0.4c-0.1,0-0.4,0-0.5-0.3c0.1,0,0.2,0,0.3-0.1c0.1-0.1,0.1-0.1,0.1-0.2
		c0-0.2-0.2-0.2-0.2-0.2c-0.1,0-0.3,0.1-0.3,0.4c0,0.3,0.3,0.5,0.6,0.5c0.6,0,1.2-0.5,1.4-1.2L439.2,72.2"/>
	<path class="st131" d="M441.5,75.9c0,0,0,0-0.1-0.1c-0.7-0.8-0.9-1.9-0.9-2.8c0-1,0.2-2.1,1-2.8c0.1-0.1,0.1-0.1,0.1-0.1
		c0,0,0-0.1-0.1-0.1c-0.1,0-0.6,0.4-0.9,1.2c-0.3,0.7-0.4,1.3-0.4,1.8c0,0.5,0.1,1.2,0.4,1.9C440.9,75.6,441.4,76,441.5,75.9
		C441.5,76,441.5,75.9,441.5,75.9"/>
	<path class="st131" d="M443.5,72.4c0.5-0.2,0.8-0.6,0.8-1c0-0.5-0.5-0.8-1.1-0.8c-0.6,0-1.1,0.4-1.1,0.8c0,0.2,0.1,0.3,0.3,0.3
		c0.2,0,0.3-0.1,0.3-0.3c0-0.3-0.3-0.3-0.4-0.3c0.2-0.3,0.6-0.4,0.8-0.4c0.2,0,0.6,0.1,0.6,0.7c0,0.1,0,0.4-0.2,0.7
		c-0.2,0.3-0.4,0.3-0.5,0.3c0,0-0.2,0-0.2,0c0,0-0.1,0-0.1,0.1c0,0.1,0,0.1,0.1,0.1h0.3c0.5,0,0.7,0.4,0.7,1c0,0.8-0.4,1-0.7,1
		c-0.3,0-0.7-0.1-0.9-0.5c0.2,0,0.4-0.1,0.4-0.3c0-0.2-0.2-0.3-0.3-0.3c-0.1,0-0.3,0.1-0.3,0.3c0,0.5,0.6,0.9,1.2,0.9
		c0.7,0,1.3-0.5,1.3-1.1C444.5,73,444.2,72.5,443.5,72.4"/>
	<path class="st131" d="M446.7,71h1.3c0.1,0,0.2,0,0.2-0.1c0-0.1-0.1-0.1-0.2-0.1h-1.3v-1.3c0-0.1,0-0.2-0.1-0.2
		c-0.1,0-0.1,0.1-0.1,0.2v1.3h-1.3c-0.1,0-0.2,0-0.2,0.1c0,0.1,0.1,0.1,0.2,0.1h1.3v1.3c0,0.1,0,0.2,0.1,0.2c0.1,0,0.1-0.1,0.1-0.2
		V71"/>
	<path class="st131" d="M450.5,73c0-0.5-0.1-1.2-0.4-1.9c-0.4-0.7-0.9-1.1-0.9-1.1c0,0-0.1,0-0.1,0.1c0,0,0,0,0.1,0.1
		c0.6,0.6,0.9,1.5,0.9,2.8c0,1-0.2,2.1-1,2.8c-0.1,0.1-0.1,0.1-0.1,0.1c0,0,0,0.1,0.1,0.1c0.1,0,0.6-0.4,0.9-1.2
		C450.5,74.1,450.5,73.5,450.5,73"/>
</g>
<g>
	<defs>
		<rect id="SVGID_249_" x="421.2" y="61.2" width="14.9" height="7.2"/>
	</defs>
	<clipPath id="SVGID_250_">
		<use xlink:href="#SVGID_249_"  style="overflow:visible;"/>
	</clipPath>
	<path class="st132" d="M424.2,64.2c0-0.1,0-0.1,0-0.1c0-0.1-0.1-0.2-0.2-0.2c-0.1,0-0.2,0-0.2,0.1c0,0-0.1,0.2-0.1,0.3
		c0,0.2-0.1,0.3-0.1,0.5l-0.3,1.1c0,0.1-0.3,0.5-0.7,0.5c-0.3,0-0.4-0.3-0.4-0.5c0-0.3,0.1-0.6,0.3-1.2c0.1-0.2,0.1-0.3,0.1-0.4
		c0-0.3-0.2-0.5-0.5-0.5c-0.6,0-0.8,0.9-0.8,0.9c0,0.1,0.1,0.1,0.1,0.1c0.1,0,0.1,0,0.1-0.1c0.2-0.6,0.4-0.7,0.6-0.7
		c0,0,0.1,0,0.1,0.2c0,0.1-0.1,0.3-0.1,0.4c-0.2,0.6-0.3,1-0.3,1.3c0,0.5,0.4,0.7,0.7,0.7c0.2,0,0.4-0.1,0.6-0.3
		c-0.1,0.3-0.1,0.6-0.4,0.9c-0.2,0.2-0.4,0.4-0.7,0.4c-0.1,0-0.4,0-0.5-0.3c0.1,0,0.2,0,0.3-0.1c0.1-0.1,0.1-0.1,0.1-0.2
		c0-0.2-0.2-0.2-0.2-0.2c-0.1,0-0.3,0.1-0.3,0.4c0,0.3,0.3,0.5,0.6,0.5c0.6,0,1.2-0.5,1.4-1.2L424.2,64.2"/>
	<path class="st132" d="M426.5,67.9c0,0,0,0-0.1-0.1c-0.7-0.8-0.9-1.9-0.9-2.8c0-1,0.2-2.1,1-2.8c0.1-0.1,0.1-0.1,0.1-0.1
		c0,0,0-0.1-0.1-0.1c-0.1,0-0.6,0.4-0.9,1.2c-0.3,0.7-0.4,1.3-0.4,1.8c0,0.5,0.1,1.2,0.4,1.9C425.9,67.6,426.4,68,426.5,67.9
		C426.5,68,426.5,67.9,426.5,67.9"/>
	<path class="st132" d="M428.5,64.4c0.5-0.2,0.8-0.6,0.8-1c0-0.5-0.5-0.8-1.1-0.8c-0.6,0-1.1,0.4-1.1,0.8c0,0.2,0.1,0.3,0.3,0.3
		c0.2,0,0.3-0.1,0.3-0.3c0-0.3-0.3-0.3-0.4-0.3c0.2-0.3,0.6-0.4,0.8-0.4c0.2,0,0.6,0.1,0.6,0.7c0,0.1,0,0.4-0.2,0.7
		c-0.2,0.3-0.4,0.3-0.5,0.3c0,0-0.2,0-0.2,0c0,0-0.1,0-0.1,0.1c0,0.1,0,0.1,0.1,0.1h0.3c0.5,0,0.7,0.4,0.7,1c0,0.8-0.4,1-0.7,1
		c-0.3,0-0.7-0.1-0.9-0.5c0.2,0,0.4-0.1,0.4-0.3c0-0.2-0.2-0.3-0.3-0.3c-0.1,0-0.3,0.1-0.3,0.3c0,0.5,0.6,0.9,1.2,0.9
		c0.7,0,1.3-0.5,1.3-1.1C429.5,65,429.2,64.5,428.5,64.4"/>
	<path class="st132" d="M431.7,63h1.3c0.1,0,0.2,0,0.2-0.1c0-0.1-0.1-0.1-0.2-0.1h-1.3v-1.3c0-0.1,0-0.2-0.1-0.2
		c-0.1,0-0.1,0.1-0.1,0.2v1.3h-1.3c-0.1,0-0.2,0-0.2,0.1c0,0.1,0.1,0.1,0.2,0.1h1.3v1.3c0,0.1,0,0.2,0.1,0.2c0.1,0,0.1-0.1,0.1-0.2
		V63"/>
	<path class="st132" d="M435.5,65c0-0.5-0.1-1.2-0.4-1.9c-0.4-0.7-0.9-1.1-0.9-1.1c0,0-0.1,0-0.1,0.1c0,0,0,0,0.1,0.1
		c0.6,0.6,0.9,1.5,0.9,2.8c0,1-0.2,2.1-1,2.8c-0.1,0.1-0.1,0.1-0.1,0.1c0,0,0,0.1,0.1,0.1c0.1,0,0.6-0.4,0.9-1.2
		C435.5,66.1,435.5,65.5,435.5,65"/>
</g>
<g>
	<defs>
		<rect id="SVGID_251_" x="361.2" y="62.9" width="14.9" height="7.2"/>
	</defs>
	<clipPath id="SVGID_252_">
		<use xlink:href="#SVGID_251_"  style="overflow:visible;"/>
	</clipPath>
	<path class="st133" d="M364.2,65.9c0-0.1,0-0.1,0-0.1c0-0.1-0.1-0.2-0.2-0.2c-0.1,0-0.2,0-0.2,0.1c0,0-0.1,0.2-0.1,0.3
		c0,0.2-0.1,0.3-0.1,0.5l-0.3,1.1c0,0.1-0.3,0.5-0.7,0.5c-0.3,0-0.4-0.3-0.4-0.5c0-0.3,0.1-0.6,0.3-1.2c0.1-0.2,0.1-0.3,0.1-0.4
		c0-0.3-0.2-0.5-0.5-0.5c-0.6,0-0.8,0.9-0.8,0.9c0,0.1,0.1,0.1,0.1,0.1c0.1,0,0.1,0,0.1-0.1c0.2-0.6,0.4-0.7,0.6-0.7
		c0,0,0.1,0,0.1,0.2c0,0.1-0.1,0.3-0.1,0.4c-0.2,0.6-0.3,1-0.3,1.3c0,0.5,0.4,0.7,0.7,0.7c0.2,0,0.4-0.1,0.6-0.3
		c-0.1,0.3-0.1,0.6-0.4,0.9c-0.2,0.2-0.4,0.4-0.7,0.4c-0.1,0-0.4,0-0.5-0.3c0.1,0,0.2,0,0.3-0.1c0.1-0.1,0.1-0.1,0.1-0.2
		c0-0.2-0.2-0.2-0.2-0.2c-0.1,0-0.3,0.1-0.3,0.4c0,0.3,0.3,0.5,0.6,0.5c0.6,0,1.2-0.5,1.4-1.2L364.2,65.9"/>
	<path class="st133" d="M366.5,69.6c0,0,0,0-0.1-0.1c-0.7-0.8-0.9-1.9-0.9-2.8c0-1,0.2-2.1,1-2.8c0.1-0.1,0.1-0.1,0.1-0.1
		c0,0,0-0.1-0.1-0.1c-0.1,0-0.6,0.4-0.9,1.2c-0.3,0.7-0.4,1.3-0.4,1.8c0,0.5,0.1,1.2,0.4,1.9C365.9,69.2,366.4,69.6,366.5,69.6
		C366.5,69.6,366.5,69.6,366.5,69.6"/>
	<path class="st133" d="M367.6,67.7l0.6-0.6c0.9-0.8,1.3-1.1,1.3-1.7c0-0.7-0.5-1.2-1.3-1.2c-0.7,0-1.1,0.5-1.1,1.1
		c0,0.3,0.3,0.3,0.3,0.3c0.1,0,0.3-0.1,0.3-0.3c0-0.2-0.1-0.3-0.3-0.3c0,0-0.1,0-0.1,0c0.1-0.4,0.5-0.6,0.8-0.6c0.5,0,0.8,0.5,0.8,1
		c0,0.5-0.3,0.9-0.6,1.3l-1.1,1.3c-0.1,0.1-0.1,0.1-0.1,0.2h2.2l0.2-1h-0.1c0,0.2-0.1,0.4-0.1,0.5c0,0-0.4,0-0.6,0H367.6"/>
	<path class="st133" d="M371.7,64.7h1.3c0.1,0,0.2,0,0.2-0.1c0-0.1-0.1-0.1-0.2-0.1h-1.3v-1.3c0-0.1,0-0.2-0.1-0.2
		c-0.1,0-0.1,0.1-0.1,0.2v1.3h-1.3c-0.1,0-0.2,0-0.2,0.1c0,0.1,0.1,0.1,0.2,0.1h1.3V66c0,0.1,0,0.2,0.1,0.2c0.1,0,0.1-0.1,0.1-0.2
		V64.7"/>
	<path class="st133" d="M375.5,66.6c0-0.5-0.1-1.2-0.4-1.9c-0.4-0.7-0.9-1.1-0.9-1.1c0,0-0.1,0-0.1,0.1c0,0,0,0,0.1,0.1
		c0.6,0.6,0.9,1.5,0.9,2.8c0,1-0.2,2.1-1,2.8c-0.1,0.1-0.1,0.1-0.1,0.1c0,0,0,0.1,0.1,0.1c0.1,0,0.6-0.4,0.9-1.2
		C375.5,67.8,375.5,67.1,375.5,66.6"/>
</g>
<g>
	<defs>
		<rect id="SVGID_253_" x="341.7" y="134.5" width="14.9" height="6.6"/>
	</defs>
	<clipPath id="SVGID_254_">
		<use xlink:href="#SVGID_253_"  style="overflow:visible;"/>
	</clipPath>
	<path class="st134" d="M344.7,136.9c0-0.1,0-0.1,0-0.1c0-0.1-0.1-0.2-0.2-0.2c-0.1,0-0.2,0-0.2,0.1c0,0-0.1,0.2-0.1,0.3
		c0,0.2-0.1,0.3-0.1,0.5l-0.3,1.1c0,0.1-0.3,0.5-0.7,0.5c-0.3,0-0.4-0.3-0.4-0.5c0-0.3,0.1-0.6,0.3-1.2c0.1-0.2,0.1-0.3,0.1-0.4
		c0-0.3-0.2-0.5-0.5-0.5c-0.6,0-0.8,0.9-0.8,0.9c0,0.1,0.1,0.1,0.1,0.1c0.1,0,0.1,0,0.1-0.1c0.2-0.6,0.4-0.7,0.6-0.7
		c0,0,0.1,0,0.1,0.2c0,0.1-0.1,0.3-0.1,0.4c-0.2,0.6-0.3,1-0.3,1.3c0,0.5,0.4,0.7,0.7,0.7c0.2,0,0.4-0.1,0.6-0.3
		c-0.1,0.3-0.1,0.6-0.4,0.9c-0.2,0.2-0.4,0.4-0.7,0.4c-0.1,0-0.4,0-0.5-0.2c0.1,0,0.2,0,0.3-0.1c0.1-0.1,0.1-0.1,0.1-0.2
		c0-0.2-0.2-0.2-0.2-0.2c-0.1,0-0.3,0.1-0.3,0.4c0,0.3,0.3,0.5,0.6,0.5c0.6,0,1.2-0.5,1.4-1.2L344.7,136.9"/>
	<path class="st134" d="M347,140.6c0,0,0,0-0.1-0.1c-0.7-0.8-0.9-1.9-0.9-2.8c0-1,0.2-2.1,1-2.8c0.1-0.1,0.1-0.1,0.1-0.1
		c0,0,0-0.1-0.1-0.1c-0.1,0-0.6,0.4-0.9,1.2c-0.3,0.7-0.4,1.3-0.4,1.8c0,0.5,0.1,1.2,0.4,1.9C346.3,140.2,346.8,140.6,347,140.6
		C346.9,140.6,347,140.6,347,140.6"/>
	<path class="st134" d="M348,138.7l0.6-0.6c0.9-0.8,1.3-1.1,1.3-1.7c0-0.7-0.5-1.2-1.3-1.2c-0.7,0-1.1,0.5-1.1,1.1
		c0,0.3,0.3,0.3,0.3,0.3c0.1,0,0.3-0.1,0.3-0.3c0-0.2-0.1-0.3-0.3-0.3c0,0-0.1,0-0.1,0c0.1-0.4,0.5-0.6,0.8-0.6c0.5,0,0.8,0.5,0.8,1
		c0,0.5-0.3,0.9-0.6,1.3l-1.1,1.3c-0.1,0.1-0.1,0.1-0.1,0.2h2.2l0.2-1h-0.2c0,0.2-0.1,0.4-0.1,0.5c0,0-0.4,0-0.6,0H348"/>
	<path class="st134" d="M353.3,135.7c0.1,0,0.2,0,0.2-0.1c0-0.1-0.1-0.1-0.2-0.1h-2.5c-0.1,0-0.2,0-0.2,0.1c0,0.1,0.1,0.1,0.2,0.1
		H353.3"/>
	<path class="st134" d="M356,137.6c0-0.5-0.1-1.2-0.4-1.9c-0.4-0.7-0.9-1.1-0.9-1.1c0,0-0.1,0-0.1,0.1c0,0,0,0,0.1,0.1
		c0.6,0.6,0.9,1.5,0.9,2.8c0,1-0.2,2.1-1,2.8c-0.1,0.1-0.1,0.1-0.1,0.1c0,0,0,0.1,0.1,0.1c0.1,0,0.6-0.4,0.9-1.2
		C355.9,138.8,356,138.1,356,137.6"/>
</g>
<g>
	<defs>
		<rect id="SVGID_255_" x="291.2" y="134.2" width="14.9" height="7.2"/>
	</defs>
	<clipPath id="SVGID_256_">
		<use xlink:href="#SVGID_255_"  style="overflow:visible;"/>
	</clipPath>
	<path class="st135" d="M294.2,137.2c0-0.1,0-0.1,0-0.1c0-0.1-0.1-0.2-0.2-0.2c-0.1,0-0.2,0-0.2,0.1c0,0-0.1,0.2-0.1,0.3
		c0,0.2-0.1,0.3-0.1,0.5l-0.3,1.1c0,0.1-0.3,0.5-0.7,0.5c-0.3,0-0.4-0.3-0.4-0.5c0-0.3,0.1-0.6,0.3-1.2c0.1-0.2,0.1-0.3,0.1-0.4
		c0-0.3-0.2-0.5-0.5-0.5c-0.6,0-0.8,0.9-0.8,0.9c0,0.1,0.1,0.1,0.1,0.1c0.1,0,0.1,0,0.1-0.1c0.2-0.6,0.4-0.7,0.6-0.7
		c0,0,0.1,0,0.1,0.2c0,0.1-0.1,0.3-0.1,0.4c-0.2,0.6-0.3,1-0.3,1.3c0,0.5,0.4,0.7,0.7,0.7c0.2,0,0.4-0.1,0.6-0.3
		c-0.1,0.3-0.1,0.6-0.4,0.9c-0.2,0.2-0.4,0.4-0.7,0.4c-0.1,0-0.4,0-0.5-0.2c0.1,0,0.2,0,0.3-0.1c0.1-0.1,0.1-0.1,0.1-0.2
		c0-0.2-0.2-0.2-0.2-0.2c-0.1,0-0.3,0.1-0.3,0.4c0,0.3,0.3,0.5,0.6,0.5c0.6,0,1.2-0.5,1.4-1.2L294.2,137.2"/>
	<path class="st135" d="M296.5,140.9c0,0,0,0-0.1-0.1c-0.7-0.8-0.9-1.9-0.9-2.8c0-1,0.2-2.1,1-2.8c0.1-0.1,0.1-0.1,0.1-0.1
		c0,0,0-0.1-0.1-0.1c-0.1,0-0.6,0.4-0.9,1.2c-0.3,0.7-0.4,1.3-0.4,1.8c0,0.5,0.1,1.2,0.4,1.9C295.8,140.5,296.4,140.9,296.5,140.9
		C296.4,140.9,296.5,140.9,296.5,140.9"/>
	<path class="st135" d="M298.6,135.6c0-0.1,0-0.2-0.1-0.2c-0.4,0.4-0.9,0.4-1.1,0.4v0.2c0.1,0,0.5,0,0.8-0.2v3.1
		c0,0.2,0,0.3-0.6,0.3h-0.2v0.2c0.2,0,0.7,0,1,0c0.2,0,0.8,0,1,0v-0.2h-0.2c-0.5,0-0.6-0.1-0.6-0.3V135.6"/>
	<path class="st135" d="M301.7,136h1.3c0.1,0,0.2,0,0.2-0.1c0-0.1-0.1-0.1-0.2-0.1h-1.3v-1.3c0-0.1,0-0.2-0.1-0.2
		c-0.1,0-0.1,0.1-0.1,0.2v1.3h-1.3c-0.1,0-0.2,0-0.2,0.1c0,0.1,0.1,0.1,0.2,0.1h1.3v1.3c0,0.1,0,0.2,0.1,0.2c0.1,0,0.1-0.1,0.1-0.2
		V136"/>
	<path class="st135" d="M305.5,137.9c0-0.5-0.1-1.2-0.4-1.9c-0.4-0.7-0.9-1.1-0.9-1.1c0,0-0.1,0-0.1,0.1c0,0,0,0,0.1,0.1
		c0.6,0.6,0.9,1.5,0.9,2.8c0,1-0.2,2.1-1,2.8c-0.1,0.1-0.1,0.1-0.1,0.1c0,0,0,0.1,0.1,0.1c0.1,0,0.6-0.4,0.9-1.2
		C305.5,139.1,305.5,138.4,305.5,137.9"/>
</g>
<g>
	<defs>
		<rect id="SVGID_257_" x="270.1" y="206.1" width="14.9" height="6.6"/>
	</defs>
	<clipPath id="SVGID_258_">
		<use xlink:href="#SVGID_257_"  style="overflow:visible;"/>
	</clipPath>
	<path class="st136" d="M273.1,208.5c0-0.1,0-0.1,0-0.1c0-0.1-0.1-0.2-0.2-0.2c-0.1,0-0.2,0-0.2,0.1c0,0-0.1,0.2-0.1,0.3
		c0,0.2-0.1,0.3-0.1,0.5l-0.3,1.1c0,0.1-0.3,0.5-0.7,0.5c-0.3,0-0.4-0.3-0.4-0.5c0-0.3,0.1-0.6,0.3-1.2c0.1-0.2,0.1-0.3,0.1-0.4
		c0-0.3-0.2-0.5-0.5-0.5c-0.6,0-0.8,0.9-0.8,0.9c0,0.1,0.1,0.1,0.1,0.1c0.1,0,0.1,0,0.1-0.1c0.2-0.6,0.4-0.7,0.6-0.7
		c0,0,0.1,0,0.1,0.2c0,0.1-0.1,0.3-0.1,0.4c-0.2,0.6-0.3,1-0.3,1.3c0,0.5,0.4,0.7,0.7,0.7c0.2,0,0.4-0.1,0.6-0.3
		c-0.1,0.3-0.1,0.6-0.4,0.9c-0.2,0.2-0.4,0.4-0.7,0.4c-0.1,0-0.4,0-0.5-0.2c0.1,0,0.2,0,0.3-0.1c0.1-0.1,0.1-0.1,0.1-0.2
		c0-0.2-0.2-0.2-0.2-0.2c-0.1,0-0.3,0.1-0.3,0.4c0,0.3,0.3,0.5,0.6,0.5c0.6,0,1.2-0.5,1.4-1.2L273.1,208.5"/>
	<path class="st136" d="M275.4,212.2c0,0,0,0-0.1-0.1c-0.7-0.8-0.9-1.9-0.9-2.8c0-1,0.2-2.1,1-2.8c0.1-0.1,0.1-0.1,0.1-0.1
		c0,0,0-0.1-0.1-0.1c-0.1,0-0.6,0.4-0.9,1.2c-0.3,0.7-0.4,1.3-0.4,1.8c0,0.5,0.1,1.2,0.4,1.9C274.7,211.8,275.2,212.2,275.4,212.2
		C275.3,212.2,275.4,212.2,275.4,212.2"/>
	<path class="st136" d="M277.4,206.9c0-0.1,0-0.2-0.1-0.2c-0.4,0.4-0.9,0.4-1.1,0.4v0.2c0.1,0,0.5,0,0.8-0.2v3.1
		c0,0.2,0,0.3-0.6,0.3h-0.2v0.2c0.2,0,0.7,0,1,0c0.2,0,0.8,0,1,0v-0.2H278c-0.5,0-0.6-0.1-0.6-0.3V206.9"/>
	<path class="st136" d="M281.7,207.3c0.1,0,0.2,0,0.2-0.1c0-0.1-0.1-0.1-0.2-0.1h-2.5c-0.1,0-0.2,0-0.2,0.1c0,0.1,0.1,0.1,0.2,0.1
		H281.7"/>
	<path class="st136" d="M284.4,209.2c0-0.5-0.1-1.2-0.4-1.9c-0.4-0.7-0.9-1.1-0.9-1.1c0,0-0.1,0-0.1,0.1c0,0,0,0,0.1,0.1
		c0.6,0.6,0.9,1.5,0.9,2.8c0,1-0.2,2.1-1,2.8c-0.1,0.1-0.1,0.1-0.1,0.1c0,0,0,0.1,0.1,0.1c0.1,0,0.6-0.4,0.9-1.2
		C284.3,210.4,284.4,209.7,284.4,209.2"/>
</g>
<g>
	<defs>
		<rect id="SVGID_259_" x="218.2" y="205.8" width="14.9" height="7.2"/>
	</defs>
	<clipPath id="SVGID_260_">
		<use xlink:href="#SVGID_259_"  style="overflow:visible;"/>
	</clipPath>
	<path class="st137" d="M221.2,208.8c0-0.1,0-0.1,0-0.1c0-0.1-0.1-0.2-0.2-0.2c-0.1,0-0.2,0-0.2,0.1c0,0-0.1,0.2-0.1,0.3
		c0,0.2-0.1,0.3-0.1,0.5l-0.3,1.1c0,0.1-0.3,0.5-0.7,0.5c-0.3,0-0.4-0.3-0.4-0.5c0-0.3,0.1-0.6,0.3-1.2c0.1-0.2,0.1-0.3,0.1-0.4
		c0-0.3-0.2-0.5-0.5-0.5c-0.6,0-0.8,0.9-0.8,0.9c0,0.1,0.1,0.1,0.1,0.1c0.1,0,0.1,0,0.1-0.1c0.2-0.6,0.4-0.7,0.6-0.7
		c0,0,0.1,0,0.1,0.2c0,0.1-0.1,0.3-0.1,0.4c-0.2,0.6-0.3,1-0.3,1.3c0,0.5,0.4,0.7,0.7,0.7c0.2,0,0.4-0.1,0.6-0.3
		c-0.1,0.3-0.1,0.6-0.4,0.9c-0.2,0.2-0.4,0.4-0.7,0.4c-0.1,0-0.4,0-0.5-0.2c0.1,0,0.2,0,0.3-0.1c0.1-0.1,0.1-0.1,0.1-0.2
		c0-0.2-0.2-0.2-0.2-0.2c-0.1,0-0.3,0.1-0.3,0.4c0,0.3,0.3,0.5,0.6,0.5c0.6,0,1.2-0.5,1.4-1.2L221.2,208.8"/>
	<path class="st137" d="M223.5,212.5c0,0,0,0-0.1-0.1c-0.7-0.8-0.9-1.9-0.9-2.8c0-1,0.2-2.1,1-2.8c0.1-0.1,0.1-0.1,0.1-0.1
		c0,0,0-0.1-0.1-0.1c-0.1,0-0.6,0.4-0.9,1.2c-0.3,0.7-0.4,1.3-0.4,1.8c0,0.5,0.1,1.2,0.4,1.9C222.8,212.1,223.4,212.5,223.5,212.5
		C223.4,212.5,223.5,212.5,223.5,212.5"/>
	<path class="st137" d="M225.3,211c-0.2,0-0.6-0.1-0.7-0.7c-0.1-0.4-0.1-0.9-0.1-1.3c0-0.4,0-0.8,0-1.1c0.1-0.7,0.6-0.8,0.7-0.8
		c0.2,0,0.6,0.1,0.7,0.7c0.1,0.3,0.1,0.8,0.1,1.2c0,0.4,0,0.9-0.1,1.2C225.9,210.9,225.6,211,225.3,211 M226.5,209.1
		c0-0.5,0-1-0.2-1.4c-0.3-0.6-0.8-0.7-1-0.7c-0.4,0-0.8,0.2-1,0.7c-0.2,0.4-0.2,0.9-0.2,1.4c0,0.4,0,1,0.3,1.4
		c0.3,0.5,0.7,0.6,1,0.6c0.3,0,0.8-0.1,1-0.7C226.5,210.1,226.5,209.6,226.5,209.1z"/>
	<path class="st137" d="M228.7,207.6h1.3c0.1,0,0.2,0,0.2-0.1c0-0.1-0.1-0.1-0.2-0.1h-1.3v-1.3c0-0.1,0-0.2-0.1-0.2
		c-0.1,0-0.1,0.1-0.1,0.2v1.3h-1.3c-0.1,0-0.2,0-0.2,0.1c0,0.1,0.1,0.1,0.2,0.1h1.3v1.3c0,0.1,0,0.2,0.1,0.2c0.1,0,0.1-0.1,0.1-0.2
		V207.6"/>
	<path class="st137" d="M232.5,209.5c0-0.5-0.1-1.2-0.4-1.9c-0.4-0.7-0.9-1.1-0.9-1.1c0,0-0.1,0-0.1,0.1c0,0,0,0,0.1,0.1
		c0.6,0.6,0.9,1.5,0.9,2.8c0,1-0.2,2.1-1,2.8c-0.1,0.1-0.1,0.1-0.1,0.1c0,0,0,0.1,0.1,0.1c0.1,0,0.6-0.4,0.9-1.2
		C232.5,210.7,232.5,210,232.5,209.5"/>
</g>
</svg>
