<?xml version="1.0" encoding="utf-8"?>
<!-- Generator: Adobe Illustrator 19.0.0, SVG Export Plug-In . SVG Version: 6.00 Build 0)  -->
<svg version="1.1" xmlns="http://www.w3.org/2000/svg" xmlns:xlink="http://www.w3.org/1999/xlink" x="0px" y="0px"
	 viewBox="0 0 612 792" style="enable-background:new 0 0 612 792;" xml:space="preserve">
<style type="text/css">
	.st0{fill:none;stroke:#000000;stroke-miterlimit:10;}
	.st1{fill:none;stroke:#000000;stroke-width:0.5;stroke-miterlimit:10;}
	.st2{fill:none;stroke:#000000;stroke-width:0.5;stroke-miterlimit:10;stroke-dasharray:12.3938,12.3938;}
	.st3{fill:none;stroke:#000000;stroke-width:0.5;stroke-miterlimit:10;stroke-dasharray:12,12;}
	.st4{clip-path:url(#XMLID_188_);}
	.st5{fill:none;stroke:#000000;stroke-width:0.5;stroke-miterlimit:10;stroke-dasharray:12;}
	.st6{clip-path:url(#XMLID_189_);}
	.st7{clip-path:url(#XMLID_190_);}
	.st8{clip-path:url(#XMLID_191_);}
	.st9{clip-path:url(#XMLID_192_);}
	.st10{clip-path:url(#XMLID_193_);}
	.st11{clip-path:url(#XMLID_194_);}
	.st12{fill:none;stroke:#42C7F4;stroke-miterlimit:10;}
	.st13{clip-path:url(#XMLID_195_);fill:#41BBEC;}
	.st14{clip-path:url(#XMLID_196_);fill:#41BBEC;}
	.st15{clip-path:url(#XMLID_197_);fill:#41BBEC;}
	.st16{clip-path:url(#XMLID_198_);fill:#41BBEC;}
	.st17{clip-path:url(#SVGID_2_);fill:#41BBEC;}
	.st18{clip-path:url(#SVGID_4_);fill:#41BBEC;}
	.st19{clip-path:url(#XMLID_199_);fill:#41BBEC;}
	.st20{clip-path:url(#XMLID_200_);}
	.st21{clip-path:url(#XMLID_201_);}
	.st22{clip-path:url(#XMLID_202_);}
	.st23{clip-path:url(#XMLID_203_);}
	.st24{clip-path:url(#XMLID_204_);}
	.st25{clip-path:url(#XMLID_205_);}
	.st26{clip-path:url(#XMLID_206_);}
</style>
<g id="Layer_1">
	<g id="Layer_2">
	</g>
</g>
<g id="Layer_3">
	<polyline id="XMLID_4_" class="st0" points="216,360 288,360 288,288.3 360,288.3 360,216.1 432,216.1 432,143.9 	"/>
	<g id="XMLID_3_">
		<g id="XMLID_23_">
			<line id="XMLID_28_" class="st1" x1="216" y1="360" x2="216" y2="354"/>
			<line id="XMLID_27_" class="st2" x1="216" y1="341.6" x2="216" y2="124.7"/>
			<line id="XMLID_26_" class="st1" x1="216" y1="118.5" x2="216" y2="112.5"/>
			<g id="XMLID_24_">
				<path id="XMLID_25_" d="M216,109.5c0.5,1.4,1.4,3.2,2.4,4.3l-2.4-0.9l-2.4,0.9C214.6,112.7,215.5,110.9,216,109.5z"/>
			</g>
		</g>
	</g>
	<g id="XMLID_11_">
		<g id="XMLID_29_">
			<line id="XMLID_32_" class="st3" x1="216" y1="360" x2="455.5" y2="360"/>
			<g id="XMLID_30_">
				<path id="XMLID_31_" d="M458.5,360c-1.4,0.5-3.2,1.4-4.3,2.4l0.9-2.4l-0.9-2.4C455.3,358.6,457.1,359.5,458.5,360z"/>
			</g>
		</g>
	</g>
	<g id="XMLID_15_">
		<defs>
			<rect id="XMLID_16_" x="345.1" y="380.2" width="4.1" height="8"/>
		</defs>
		<clipPath id="XMLID_188_">
			<use xlink:href="#XMLID_16_"  style="overflow:visible;"/>
		</clipPath>
		<path id="XMLID_17_" class="st4" d="M347.3,383h1.1c0.2,0,0.4,0,0.4-0.2c0-0.1-0.1-0.1-0.3-0.1h-1c0.4-1.7,0.5-1.9,0.5-2
			c0-0.2-0.1-0.3-0.3-0.3c0,0-0.4,0-0.5,0.4l-0.5,1.9h-1.1c-0.2,0-0.4,0-0.4,0.2c0,0.1,0.1,0.1,0.3,0.1h1c-0.9,3.4-0.9,3.6-0.9,3.8
			c0,0.6,0.5,1.1,1.1,1.1c1.2,0,1.9-1.7,1.9-1.8c0-0.1-0.1-0.1-0.1-0.1c-0.1,0-0.1,0-0.2,0.2c-0.5,1.2-1.1,1.5-1.5,1.5
			c-0.2,0-0.4-0.2-0.4-0.5c0-0.3,0-0.4,0.1-0.6L347.3,383"/>
	</g>
	<line id="XMLID_12_" class="st5" x1="288.1" y1="366.5" x2="288.1" y2="356.7"/>
	<line id="XMLID_13_" class="st5" x1="360.1" y1="365.6" x2="360.1" y2="355.8"/>
	<line id="XMLID_14_" class="st5" x1="432" y1="364.9" x2="432" y2="355.1"/>
	<g id="XMLID_37_">
		<defs>
			<rect id="XMLID_38_" x="430" y="369" width="4" height="6"/>
		</defs>
		<clipPath id="XMLID_189_">
			<use xlink:href="#XMLID_38_"  style="overflow:visible;"/>
		</clipPath>
		<path id="XMLID_39_" class="st6" d="M432.4,371.9c0.7-0.2,1.1-0.8,1.1-1.4c0-0.7-0.7-1.1-1.5-1.1c-0.8,0-1.4,0.5-1.4,1.1
			c0,0.3,0.2,0.4,0.4,0.4c0.2,0,0.4-0.2,0.4-0.4c0-0.4-0.4-0.4-0.5-0.4c0.2-0.4,0.8-0.5,1.1-0.5c0.3,0,0.8,0.2,0.8,0.9
			c0,0.1,0,0.6-0.2,0.9c-0.2,0.4-0.5,0.4-0.7,0.4c-0.1,0-0.3,0-0.3,0c-0.1,0-0.1,0-0.1,0.1c0,0.1,0.1,0.1,0.2,0.1h0.4
			c0.7,0,0.9,0.5,0.9,1.3c0,1.1-0.5,1.3-0.9,1.3c-0.3,0-0.9-0.1-1.2-0.6c0.3,0,0.5-0.1,0.5-0.4c0-0.3-0.2-0.4-0.4-0.4
			c-0.2,0-0.4,0.1-0.4,0.5c0,0.7,0.7,1.2,1.6,1.2c1,0,1.7-0.7,1.7-1.5C433.7,372.7,433.2,372.1,432.4,371.9"/>
	</g>
	<g id="XMLID_34_">
		<defs>
			<rect id="XMLID_35_" x="358.1" y="369" width="4" height="6"/>
		</defs>
		<clipPath id="XMLID_190_">
			<use xlink:href="#XMLID_35_"  style="overflow:visible;"/>
		</clipPath>
		<path id="XMLID_36_" class="st7" d="M359.2,374.1l0.8-0.8c1.2-1.1,1.7-1.5,1.7-2.3c0-0.9-0.7-1.5-1.7-1.5c-0.9,0-1.5,0.7-1.5,1.4
			c0,0.4,0.4,0.4,0.4,0.4c0.1,0,0.4-0.1,0.4-0.4c0-0.2-0.1-0.4-0.4-0.4c-0.1,0-0.1,0-0.1,0c0.2-0.5,0.6-0.8,1.1-0.8
			c0.7,0,1.1,0.6,1.1,1.3c0,0.6-0.4,1.3-0.8,1.8l-1.5,1.7c-0.1,0.1-0.1,0.1-0.1,0.3h2.9l0.2-1.4h-0.2c0,0.2-0.1,0.6-0.2,0.7
			c-0.1,0.1-0.6,0.1-0.8,0.1H359.2"/>
	</g>
	<g id="XMLID_19_">
		<defs>
			<rect id="XMLID_20_" x="286.6" y="369" width="3.1" height="6"/>
		</defs>
		<clipPath id="XMLID_191_">
			<use xlink:href="#XMLID_20_"  style="overflow:visible;"/>
		</clipPath>
		<path id="XMLID_33_" class="st8" d="M288.3,369.7c0-0.2,0-0.2-0.2-0.2c-0.5,0.5-1.2,0.5-1.4,0.5v0.2c0.2,0,0.6,0,1-0.2v4.1
			c0,0.3,0,0.4-0.7,0.4h-0.3v0.2c0.3,0,1,0,1.3,0c0.3,0,1,0,1.3,0v-0.2H289c-0.7,0-0.7-0.1-0.7-0.4V369.7"/>
	</g>
	<line id="XMLID_18_" class="st1" x1="210" y1="216" x2="221.5" y2="216"/>
	<line id="XMLID_40_" class="st1" x1="210" y1="288" x2="221.5" y2="288"/>
	<line id="XMLID_41_" class="st1" x1="210.2" y1="143.9" x2="221.8" y2="143.9"/>
	<g id="XMLID_42_">
		<defs>
			<rect id="XMLID_43_" x="202.9" y="285" width="3.1" height="6"/>
		</defs>
		<clipPath id="XMLID_192_">
			<use xlink:href="#XMLID_43_"  style="overflow:visible;"/>
		</clipPath>
		<path id="XMLID_44_" class="st9" d="M204.6,285.6c0-0.2,0-0.2-0.2-0.2c-0.5,0.5-1.2,0.5-1.4,0.5v0.2c0.2,0,0.6,0,1-0.2v4.1
			c0,0.3,0,0.4-0.7,0.4H203v0.2c0.3,0,1,0,1.3,0c0.3,0,1,0,1.3,0v-0.2h-0.3c-0.7,0-0.7-0.1-0.7-0.4V285.6"/>
	</g>
	<g id="XMLID_45_">
		<defs>
			<rect id="XMLID_46_" x="202.4" y="213" width="4" height="6"/>
		</defs>
		<clipPath id="XMLID_193_">
			<use xlink:href="#XMLID_46_"  style="overflow:visible;"/>
		</clipPath>
		<path id="XMLID_47_" class="st10" d="M203.5,218.1l0.8-0.8c1.2-1.1,1.7-1.5,1.7-2.3c0-0.9-0.7-1.5-1.7-1.5c-0.9,0-1.5,0.7-1.5,1.4
			c0,0.4,0.4,0.4,0.4,0.4c0.1,0,0.4-0.1,0.4-0.4c0-0.2-0.1-0.4-0.4-0.4c-0.1,0-0.1,0-0.1,0c0.2-0.5,0.6-0.8,1.1-0.8
			c0.7,0,1.1,0.6,1.1,1.3c0,0.6-0.4,1.3-0.8,1.8l-1.5,1.7c-0.1,0.1-0.1,0.1-0.1,0.3h2.9l0.2-1.4h-0.2c0,0.2-0.1,0.6-0.2,0.7
			c-0.1,0.1-0.6,0.1-0.8,0.1H203.5"/>
	</g>
	<g id="XMLID_48_">
		<defs>
			<rect id="XMLID_49_" x="202.4" y="140.5" width="4" height="6"/>
		</defs>
		<clipPath id="XMLID_194_">
			<use xlink:href="#XMLID_49_"  style="overflow:visible;"/>
		</clipPath>
		<path id="XMLID_50_" class="st11" d="M204.8,143.4c0.7-0.2,1.1-0.8,1.1-1.4c0-0.7-0.7-1.1-1.5-1.1c-0.8,0-1.4,0.5-1.4,1.1
			c0,0.3,0.2,0.4,0.4,0.4c0.2,0,0.4-0.2,0.4-0.4c0-0.4-0.4-0.4-0.5-0.4c0.2-0.4,0.8-0.5,1.1-0.5c0.3,0,0.8,0.2,0.8,0.9
			c0,0.1,0,0.6-0.2,0.9c-0.2,0.4-0.5,0.4-0.7,0.4c-0.1,0-0.3,0-0.3,0c-0.1,0-0.1,0-0.1,0.1c0,0.1,0.1,0.1,0.2,0.1h0.4
			c0.7,0,0.9,0.5,0.9,1.3c0,1.1-0.5,1.3-0.9,1.3c-0.3,0-0.9-0.1-1.2-0.6c0.3,0,0.5-0.1,0.5-0.4c0-0.3-0.2-0.4-0.4-0.4
			c-0.2,0-0.4,0.1-0.4,0.5c0,0.7,0.7,1.2,1.6,1.2c1,0,1.7-0.7,1.7-1.5C206.2,144.2,205.7,143.6,204.8,143.4"/>
	</g>
	<polyline id="XMLID_2_" class="st12" points="216,360 216,288 287.8,288 287.8,216.5 359.2,216.5 359.2,143.5 432,143.5 	"/>
	<g id="XMLID_68_">
		<defs>
			<rect id="XMLID_69_" x="218.2" y="280.2" width="32.9" height="7.2"/>
		</defs>
		<clipPath id="XMLID_195_">
			<use xlink:href="#XMLID_69_"  style="overflow:visible;"/>
		</clipPath>
		<path id="XMLID_97_" class="st13" d="M220.4,283.7c0-0.2,0.2-0.7,0.6-0.7c0,0,0.2,0,0.3,0.1c-0.2,0-0.3,0.2-0.3,0.3
			c0,0.1,0.1,0.2,0.2,0.2c0.1,0,0.3-0.1,0.3-0.3c0-0.3-0.4-0.4-0.6-0.4c-0.3,0-0.6,0.3-0.6,0.5c-0.1-0.4-0.5-0.5-0.6-0.5
			c-0.6,0-1,0.8-1,0.9c0,0.1,0.1,0.1,0.1,0.1c0,0,0.1,0,0.1-0.1c0.2-0.6,0.6-0.8,0.8-0.8c0.1,0,0.3,0.1,0.3,0.4
			c0,0.2-0.1,0.6-0.3,1.4c-0.1,0.4-0.3,0.6-0.6,0.6c0,0-0.2,0-0.3-0.1c0.2,0,0.3-0.2,0.3-0.3c0-0.2-0.1-0.2-0.2-0.2
			c-0.2,0-0.3,0.2-0.3,0.3c0,0.3,0.3,0.4,0.6,0.4c0.4,0,0.6-0.4,0.6-0.5c0.1,0.2,0.3,0.5,0.6,0.5c0.6,0,1-0.8,1-0.9
			c0-0.1-0.1-0.1-0.1-0.1c-0.1,0-0.1,0-0.1,0.1c-0.2,0.6-0.6,0.8-0.8,0.8c-0.2,0-0.3-0.2-0.3-0.4c0-0.1,0-0.3,0.1-0.5L220.4,283.7"
			/>
		<path id="XMLID_96_" class="st13" d="M223.8,286.9c0,0,0,0-0.1-0.1c-0.7-0.8-0.9-1.9-0.9-2.8c0-1,0.2-2.1,1-2.8
			c0.1-0.1,0.1-0.1,0.1-0.1c0,0,0-0.1-0.1-0.1c-0.1,0-0.6,0.4-0.9,1.2c-0.3,0.7-0.4,1.3-0.4,1.8c0,0.5,0.1,1.2,0.4,1.9
			C223.2,286.6,223.7,287,223.8,286.9C223.8,287,223.8,286.9,223.8,286.9"/>
		<path id="XMLID_93_" class="st13" d="M225.6,285.5c-0.2,0-0.6-0.1-0.7-0.7c-0.1-0.4-0.1-0.9-0.1-1.3c0-0.4,0-0.8,0-1.1
			c0.1-0.7,0.6-0.8,0.7-0.8c0.2,0,0.6,0.1,0.7,0.7c0.1,0.3,0.1,0.8,0.1,1.2c0,0.4,0,0.9-0.1,1.2
			C226.2,285.3,225.9,285.5,225.6,285.5 M226.9,283.6c0-0.5,0-1-0.2-1.4c-0.3-0.6-0.8-0.7-1-0.7c-0.4,0-0.8,0.2-1,0.7
			c-0.2,0.4-0.2,0.9-0.2,1.4c0,0.4,0,1,0.3,1.4c0.3,0.5,0.7,0.6,1,0.6c0.3,0,0.8-0.1,1-0.7C226.8,284.5,226.9,284,226.9,283.6z"/>
		<path id="XMLID_92_" class="st13" d="M229,282h1.3c0.1,0,0.2,0,0.2-0.1c0-0.1-0.1-0.1-0.2-0.1H229v-1.3c0-0.1,0-0.2-0.1-0.2
			c-0.1,0-0.1,0.1-0.1,0.2v1.3h-1.3c-0.1,0-0.2,0-0.2,0.1c0,0.1,0.1,0.1,0.2,0.1h1.3v1.3c0,0.1,0,0.2,0.1,0.2c0.1,0,0.1-0.1,0.1-0.2
			V282"/>
		<path id="XMLID_91_" class="st13" d="M232.9,284c0-0.5-0.1-1.2-0.4-1.9c-0.4-0.7-0.9-1.1-0.9-1.1c0,0-0.1,0-0.1,0.1
			c0,0,0,0,0.1,0.1c0.6,0.6,0.9,1.5,0.9,2.8c0,1-0.2,2.1-1,2.8c-0.1,0.1-0.1,0.1-0.1,0.1c0,0,0,0.1,0.1,0.1c0.1,0,0.6-0.4,0.9-1.2
			C232.8,285.1,232.9,284.5,232.9,284"/>
		<path id="XMLID_74_" class="st13" d="M239.1,284.7c0.1,0,0.2,0,0.2-0.1c0-0.1-0.1-0.1-0.2-0.1h-3.6c-0.1,0-0.2,0-0.2,0.1
			c0,0.1,0.1,0.1,0.2,0.1H239.1 M239.1,283.5c0.1,0,0.2,0,0.2-0.1c0-0.1-0.1-0.1-0.2-0.1h-3.6c-0.1,0-0.2,0-0.2,0.1
			c0,0.1,0.1,0.1,0.2,0.1H239.1z"/>
		<path id="XMLID_73_" class="st13" d="M243.4,283.7c0-0.2,0.2-0.7,0.6-0.7c0,0,0.2,0,0.3,0.1c-0.2,0-0.3,0.2-0.3,0.3
			c0,0.1,0.1,0.2,0.2,0.2c0.1,0,0.3-0.1,0.3-0.3c0-0.3-0.4-0.4-0.6-0.4c-0.3,0-0.6,0.3-0.6,0.5c-0.1-0.4-0.5-0.5-0.6-0.5
			c-0.6,0-1,0.8-1,0.9c0,0.1,0.1,0.1,0.1,0.1c0,0,0.1,0,0.1-0.1c0.2-0.6,0.6-0.8,0.8-0.8c0.1,0,0.3,0.1,0.3,0.4
			c0,0.2-0.1,0.6-0.3,1.4c-0.1,0.4-0.3,0.6-0.6,0.6c0,0-0.2,0-0.3-0.1c0.1,0,0.3-0.2,0.3-0.3c0-0.2-0.1-0.2-0.2-0.2
			c-0.2,0-0.3,0.2-0.3,0.3c0,0.3,0.3,0.4,0.6,0.4c0.4,0,0.6-0.4,0.6-0.5c0.1,0.2,0.3,0.5,0.6,0.5c0.6,0,1-0.8,1-0.9
			c0-0.1-0.1-0.1-0.1-0.1c-0.1,0-0.1,0-0.1,0.1c-0.2,0.6-0.6,0.8-0.8,0.8c-0.2,0-0.3-0.2-0.3-0.4c0-0.1,0-0.3,0.1-0.5L243.4,283.7"
			/>
		<polyline id="XMLID_72_" class="st13" points="246.4,287 246.4,286.7 245.8,286.7 245.8,281.2 246.4,281.2 246.4,281 245.5,281 
			245.5,287 246.4,287 		"/>
		<path id="XMLID_71_" class="st13" d="M248.2,281.6c0-0.1,0-0.2-0.1-0.2c-0.4,0.4-0.9,0.4-1.1,0.4v0.2c0.1,0,0.5,0,0.8-0.2v3.1
			c0,0.2,0,0.3-0.6,0.3H247v0.2c0.2,0,0.7,0,1,0c0.2,0,0.8,0,1,0v-0.2h-0.2c-0.5,0-0.6-0.1-0.6-0.3V281.6"/>
		<polyline id="XMLID_70_" class="st13" points="250.4,281 249.6,281 249.6,281.2 250.1,281.2 250.1,286.7 249.6,286.7 249.6,287 
			250.4,287 250.4,281 		"/>
	</g>
	<g id="XMLID_98_">
		<defs>
			<rect id="XMLID_99_" x="273.2" y="205.8" width="32.9" height="7.2"/>
		</defs>
		<clipPath id="XMLID_196_">
			<use xlink:href="#XMLID_99_"  style="overflow:visible;"/>
		</clipPath>
		<path id="XMLID_111_" class="st14" d="M275.3,209.2c0-0.2,0.2-0.7,0.6-0.7c0,0,0.2,0,0.3,0.1c-0.2,0-0.3,0.2-0.3,0.3
			c0,0.1,0.1,0.2,0.2,0.2c0.1,0,0.3-0.1,0.3-0.3c0-0.3-0.4-0.4-0.6-0.4c-0.3,0-0.6,0.3-0.6,0.5c-0.1-0.4-0.5-0.5-0.6-0.5
			c-0.6,0-1,0.8-1,0.9c0,0.1,0.1,0.1,0.1,0.1c0,0,0.1,0,0.1-0.1c0.2-0.6,0.6-0.8,0.8-0.8c0.1,0,0.3,0.1,0.3,0.4
			c0,0.2-0.1,0.6-0.3,1.4c-0.1,0.4-0.3,0.6-0.6,0.6c0,0-0.2,0-0.3-0.1c0.1,0,0.3-0.2,0.3-0.3c0-0.2-0.1-0.2-0.2-0.2
			c-0.2,0-0.3,0.2-0.3,0.3c0,0.3,0.3,0.4,0.6,0.4c0.4,0,0.6-0.4,0.6-0.5c0.1,0.2,0.3,0.5,0.6,0.5c0.6,0,1-0.8,1-0.9
			c0-0.1-0.1-0.1-0.1-0.1c-0.1,0-0.1,0-0.1,0.1c-0.2,0.6-0.6,0.8-0.8,0.8c-0.2,0-0.3-0.2-0.3-0.4c0-0.1,0-0.3,0.1-0.5L275.3,209.2"
			/>
		<path id="XMLID_110_" class="st14" d="M278.7,212.5c0,0,0,0-0.1-0.1c-0.7-0.8-0.9-1.9-0.9-2.8c0-1,0.2-2.1,1-2.8
			c0.1-0.1,0.1-0.1,0.1-0.1c0,0,0-0.1-0.1-0.1c-0.1,0-0.6,0.4-0.9,1.2c-0.3,0.7-0.4,1.3-0.4,1.8c0,0.5,0.1,1.2,0.4,1.9
			C278.1,212.1,278.6,212.5,278.7,212.5C278.7,212.5,278.7,212.5,278.7,212.5"/>
		<path id="XMLID_109_" class="st14" d="M280.8,207.2c0-0.1,0-0.2-0.1-0.2c-0.4,0.4-0.9,0.4-1.1,0.4v0.2c0.1,0,0.5,0,0.8-0.2v3.1
			c0,0.2,0,0.3-0.6,0.3h-0.2v0.2c0.2,0,0.7,0,1,0c0.2,0,0.8,0,1,0v-0.2h-0.2c-0.5,0-0.6-0.1-0.6-0.3V207.2"/>
		<path id="XMLID_108_" class="st14" d="M284,207.6h1.3c0.1,0,0.2,0,0.2-0.1c0-0.1-0.1-0.1-0.2-0.1H284v-1.3c0-0.1,0-0.2-0.1-0.2
			c-0.1,0-0.1,0.1-0.1,0.2v1.3h-1.3c-0.1,0-0.2,0-0.2,0.1c0,0.1,0.1,0.1,0.2,0.1h1.3v1.3c0,0.1,0,0.2,0.1,0.2c0.1,0,0.1-0.1,0.1-0.2
			V207.6"/>
		<path id="XMLID_107_" class="st14" d="M287.8,209.5c0-0.5-0.1-1.2-0.4-1.9c-0.4-0.7-0.9-1.1-0.9-1.1c0,0-0.1,0-0.1,0.1
			c0,0,0,0,0.1,0.1c0.6,0.6,0.9,1.5,0.9,2.8c0,1-0.2,2.1-1,2.8c-0.1,0.1-0.1,0.1-0.1,0.1c0,0,0,0.1,0.1,0.1c0.1,0,0.6-0.4,0.9-1.2
			C287.7,210.7,287.8,210,287.8,209.5"/>
		<path id="XMLID_104_" class="st14" d="M294.1,210.2c0.1,0,0.2,0,0.2-0.1c0-0.1-0.1-0.1-0.2-0.1h-3.6c-0.1,0-0.2,0-0.2,0.1
			c0,0.1,0.1,0.1,0.2,0.1H294.1 M294.1,209.1c0.1,0,0.2,0,0.2-0.1c0-0.1-0.1-0.1-0.2-0.1h-3.6c-0.1,0-0.2,0-0.2,0.1
			c0,0.1,0.1,0.1,0.2,0.1H294.1z"/>
		<path id="XMLID_103_" class="st14" d="M298.3,209.2c0-0.2,0.2-0.7,0.6-0.7c0,0,0.2,0,0.3,0.1c-0.2,0-0.3,0.2-0.3,0.3
			c0,0.1,0.1,0.2,0.2,0.2c0.1,0,0.3-0.1,0.3-0.3c0-0.3-0.4-0.4-0.6-0.4c-0.3,0-0.6,0.3-0.6,0.5c-0.1-0.4-0.5-0.5-0.6-0.5
			c-0.6,0-1,0.8-1,0.9c0,0.1,0.1,0.1,0.1,0.1c0,0,0.1,0,0.1-0.1c0.2-0.6,0.6-0.8,0.8-0.8c0.1,0,0.3,0.1,0.3,0.4
			c0,0.2-0.1,0.6-0.3,1.4c-0.1,0.4-0.3,0.6-0.6,0.6c0,0-0.2,0-0.3-0.1c0.1,0,0.3-0.2,0.3-0.3c0-0.2-0.1-0.2-0.2-0.2
			c-0.2,0-0.3,0.2-0.3,0.3c0,0.3,0.3,0.4,0.6,0.4c0.4,0,0.6-0.4,0.6-0.5c0.1,0.2,0.3,0.5,0.6,0.5c0.6,0,1-0.8,1-0.9
			c0-0.1-0.1-0.1-0.1-0.1c-0.1,0-0.1,0-0.1,0.1c-0.2,0.6-0.6,0.8-0.8,0.8c-0.2,0-0.3-0.2-0.3-0.4c0-0.1,0-0.3,0.1-0.5L298.3,209.2"
			/>
		<polyline id="XMLID_102_" class="st14" points="301.3,212.5 301.3,212.3 300.7,212.3 300.7,206.8 301.3,206.8 301.3,206.6 
			300.5,206.6 300.5,212.5 301.3,212.5 		"/>
		<path id="XMLID_101_" class="st14" d="M302.1,210.6l0.6-0.6c0.9-0.8,1.3-1.1,1.3-1.7c0-0.7-0.5-1.2-1.3-1.2
			c-0.7,0-1.1,0.5-1.1,1.1c0,0.3,0.3,0.3,0.3,0.3c0.1,0,0.3-0.1,0.3-0.3c0-0.2-0.1-0.3-0.3-0.3c0,0-0.1,0-0.1,0
			c0.1-0.4,0.5-0.6,0.8-0.6c0.5,0,0.8,0.5,0.8,1c0,0.5-0.3,0.9-0.6,1.3l-1.1,1.3c-0.1,0.1-0.1,0.1-0.1,0.2h2.2l0.2-1h-0.1
			c0,0.2-0.1,0.4-0.1,0.5c0,0-0.4,0-0.6,0H302.1"/>
		<polyline id="XMLID_100_" class="st14" points="305.3,206.6 304.5,206.6 304.5,206.8 305.1,206.8 305.1,212.3 304.5,212.3 
			304.5,212.5 305.3,212.5 305.3,206.6 		"/>
	</g>
	<g id="XMLID_112_">
		<defs>
			<rect id="XMLID_113_" x="270.1" y="280.8" width="14.9" height="6.6"/>
		</defs>
		<clipPath id="XMLID_197_">
			<use xlink:href="#XMLID_113_"  style="overflow:visible;"/>
		</clipPath>
		<path id="XMLID_118_" class="st15" d="M272,283.7c0-0.2,0.2-0.7,0.6-0.7c0,0,0.2,0,0.3,0.1c-0.2,0-0.3,0.2-0.3,0.3
			c0,0.1,0.1,0.2,0.2,0.2c0.1,0,0.3-0.1,0.3-0.3c0-0.3-0.4-0.4-0.6-0.4c-0.3,0-0.6,0.3-0.6,0.5c-0.1-0.4-0.5-0.5-0.6-0.5
			c-0.6,0-1,0.8-1,0.9c0,0.1,0.1,0.1,0.1,0.1c0,0,0.1,0,0.1-0.1c0.2-0.6,0.6-0.8,0.8-0.8c0.1,0,0.3,0.1,0.3,0.4
			c0,0.2-0.1,0.6-0.3,1.4c-0.1,0.4-0.3,0.6-0.6,0.6c0,0-0.2,0-0.3-0.1c0.1,0,0.3-0.2,0.3-0.3c0-0.2-0.1-0.2-0.2-0.2
			c-0.2,0-0.3,0.2-0.3,0.3c0,0.3,0.3,0.4,0.6,0.4c0.4,0,0.6-0.4,0.6-0.5c0.1,0.2,0.3,0.5,0.6,0.5c0.6,0,1-0.8,1-0.9
			c0-0.1-0.1-0.1-0.1-0.1c-0.1,0-0.1,0-0.1,0.1c-0.2,0.6-0.6,0.8-0.8,0.8c-0.2,0-0.3-0.2-0.3-0.4c0-0.1,0-0.3,0.1-0.5L272,283.7"/>
		<path id="XMLID_117_" class="st15" d="M275.4,286.9c0,0,0,0-0.1-0.1c-0.7-0.8-0.9-1.9-0.9-2.8c0-1,0.2-2.1,1-2.8
			c0.1-0.1,0.1-0.1,0.1-0.1c0,0,0-0.1-0.1-0.1c-0.1,0-0.6,0.4-0.9,1.2c-0.3,0.7-0.4,1.3-0.4,1.8c0,0.5,0.1,1.2,0.4,1.9
			C274.8,286.6,275.3,287,275.4,286.9C275.4,287,275.4,286.9,275.4,286.9"/>
		<path id="XMLID_116_" class="st15" d="M277.5,281.6c0-0.1,0-0.2-0.1-0.2c-0.4,0.4-0.9,0.4-1.1,0.4v0.2c0.1,0,0.5,0,0.8-0.2v3.1
			c0,0.2,0,0.3-0.6,0.3h-0.2v0.2c0.2,0,0.7,0,1,0c0.2,0,0.8,0,1,0v-0.2h-0.2c-0.5,0-0.6-0.1-0.6-0.3V281.6"/>
		<path id="XMLID_115_" class="st15" d="M281.8,282c0.1,0,0.2,0,0.2-0.1c0-0.1-0.1-0.1-0.2-0.1h-2.5c-0.1,0-0.2,0-0.2,0.1
			c0,0.1,0.1,0.1,0.2,0.1H281.8"/>
		<path id="XMLID_114_" class="st15" d="M284.5,284c0-0.5-0.1-1.2-0.4-1.9c-0.4-0.7-0.9-1.1-0.9-1.1c0,0-0.1,0-0.1,0.1
			c0,0,0,0,0.1,0.1c0.6,0.6,0.9,1.5,0.9,2.8c0,1-0.2,2.1-1,2.8c-0.1,0.1-0.1,0.1-0.1,0.1c0,0,0,0.1,0.1,0.1c0.1,0,0.6-0.4,0.9-1.2
			C284.4,285.1,284.5,284.5,284.5,284"/>
	</g>
	<g id="XMLID_84_">
		<defs>
			<rect id="XMLID_85_" x="341.7" y="206.1" width="14.9" height="6.6"/>
		</defs>
		<clipPath id="XMLID_198_">
			<use xlink:href="#XMLID_85_"  style="overflow:visible;"/>
		</clipPath>
		<path id="XMLID_90_" class="st16" d="M343.7,208.9c0-0.2,0.2-0.7,0.6-0.7c0,0,0.2,0,0.3,0.1c-0.2,0-0.3,0.2-0.3,0.3
			c0,0.1,0.1,0.2,0.2,0.2c0.1,0,0.3-0.1,0.3-0.3c0-0.3-0.4-0.4-0.6-0.4c-0.3,0-0.6,0.3-0.6,0.5c-0.1-0.4-0.5-0.5-0.6-0.5
			c-0.6,0-1,0.8-1,0.9c0,0.1,0.1,0.1,0.1,0.1c0,0,0.1,0,0.1-0.1c0.2-0.6,0.6-0.8,0.8-0.8c0.1,0,0.3,0.1,0.3,0.4
			c0,0.2-0.1,0.6-0.3,1.4c-0.1,0.4-0.3,0.6-0.6,0.6c0,0-0.2,0-0.3-0.1c0.1,0,0.3-0.2,0.3-0.3c0-0.2-0.1-0.2-0.2-0.2
			c-0.2,0-0.3,0.2-0.3,0.3c0,0.3,0.3,0.4,0.6,0.4c0.4,0,0.6-0.4,0.6-0.5c0.1,0.2,0.3,0.5,0.6,0.5c0.6,0,1-0.8,1-0.9
			c0-0.1-0.1-0.1-0.1-0.1c-0.1,0-0.1,0-0.1,0.1c-0.2,0.6-0.6,0.8-0.8,0.8c-0.2,0-0.3-0.2-0.3-0.4c0-0.1,0-0.3,0.1-0.5L343.7,208.9"
			/>
		<path id="XMLID_89_" class="st16" d="M347,212.2c0,0,0,0-0.1-0.1c-0.7-0.8-0.9-1.9-0.9-2.8c0-1,0.2-2.1,1-2.8
			c0.1-0.1,0.1-0.1,0.1-0.1c0,0,0-0.1-0.1-0.1c-0.1,0-0.6,0.4-0.9,1.2c-0.3,0.7-0.4,1.3-0.4,1.8c0,0.5,0.1,1.2,0.4,1.9
			C346.4,211.8,346.9,212.2,347,212.2C347,212.2,347,212.2,347,212.2"/>
		<path id="XMLID_88_" class="st16" d="M348.1,210.3l0.6-0.6c0.9-0.8,1.3-1.1,1.3-1.7c0-0.7-0.5-1.2-1.3-1.2c-0.7,0-1.1,0.5-1.1,1.1
			c0,0.3,0.3,0.3,0.3,0.3c0.1,0,0.3-0.1,0.3-0.3c0-0.2-0.1-0.3-0.3-0.3c0,0-0.1,0-0.1,0c0.1-0.4,0.5-0.6,0.8-0.6
			c0.5,0,0.8,0.5,0.8,1c0,0.5-0.3,0.9-0.6,1.3l-1.1,1.3c-0.1,0.1-0.1,0.1-0.1,0.2h2.2l0.2-1h-0.1c0,0.2-0.1,0.4-0.1,0.5
			c0,0-0.4,0-0.6,0H348.1"/>
		<path id="XMLID_87_" class="st16" d="M353.4,207.3c0.1,0,0.2,0,0.2-0.1c0-0.1-0.1-0.1-0.2-0.1H351c-0.1,0-0.2,0-0.2,0.1
			c0,0.1,0.1,0.1,0.2,0.1H353.4"/>
		<path id="XMLID_86_" class="st16" d="M356.1,209.2c0-0.5-0.1-1.2-0.4-1.9c-0.4-0.7-0.9-1.1-0.9-1.1c0,0-0.1,0-0.1,0.1
			c0,0,0,0,0.1,0.1c0.6,0.6,0.9,1.5,0.9,2.8c0,1-0.2,2.1-1,2.8c-0.1,0.1-0.1,0.1-0.1,0.1c0,0,0,0.1,0.1,0.1c0.1,0,0.6-0.4,0.9-1.2
			C356,210.4,356.1,209.7,356.1,209.2"/>
	</g>
	<g>
		<defs>
			<rect id="SVGID_1_" x="344.2" y="134.2" width="32.9" height="7.2"/>
		</defs>
		<clipPath id="SVGID_2_">
			<use xlink:href="#SVGID_1_"  style="overflow:visible;"/>
		</clipPath>
		<path class="st17" d="M346.4,137.7c0-0.2,0.2-0.7,0.6-0.7c0,0,0.2,0,0.3,0.1c-0.2,0-0.3,0.2-0.3,0.3c0,0.1,0.1,0.2,0.2,0.2
			c0.1,0,0.3-0.1,0.3-0.3c0-0.3-0.4-0.4-0.6-0.4c-0.3,0-0.6,0.3-0.6,0.5c-0.1-0.4-0.5-0.5-0.6-0.5c-0.6,0-1,0.8-1,0.9
			c0,0.1,0.1,0.1,0.1,0.1c0,0,0.1,0,0.1-0.1c0.2-0.6,0.6-0.8,0.8-0.8c0.1,0,0.3,0.1,0.3,0.4c0,0.2-0.1,0.6-0.3,1.4
			c-0.1,0.4-0.3,0.6-0.6,0.6c0,0-0.2,0-0.3-0.1c0.1,0,0.3-0.2,0.3-0.3c0-0.2-0.1-0.2-0.2-0.2c-0.2,0-0.3,0.2-0.3,0.3
			c0,0.3,0.3,0.4,0.6,0.4c0.4,0,0.6-0.4,0.6-0.5c0.1,0.2,0.3,0.5,0.6,0.5c0.6,0,1-0.8,1-0.9c0-0.1-0.1-0.1-0.1-0.1
			c-0.1,0-0.1,0-0.1,0.1c-0.2,0.6-0.6,0.8-0.8,0.8c-0.2,0-0.3-0.2-0.3-0.4c0-0.1,0-0.3,0.1-0.5L346.4,137.7"/>
		<path class="st17" d="M349.8,140.9c0,0,0,0-0.1-0.1c-0.7-0.8-0.9-1.9-0.9-2.8c0-1,0.2-2.1,1-2.8c0.1-0.1,0.1-0.1,0.1-0.1
			c0,0,0-0.1-0.1-0.1c-0.1,0-0.6,0.4-0.9,1.2c-0.3,0.7-0.4,1.3-0.4,1.8c0,0.5,0.1,1.2,0.4,1.9C349.2,140.6,349.7,141,349.8,140.9
			C349.8,141,349.8,140.9,349.8,140.9"/>
		<path class="st17" d="M350.9,139l0.6-0.6c0.9-0.8,1.3-1.1,1.3-1.7c0-0.7-0.5-1.2-1.3-1.2c-0.7,0-1.1,0.5-1.1,1.1
			c0,0.3,0.3,0.3,0.3,0.3c0.1,0,0.3-0.1,0.3-0.3c0-0.2-0.1-0.3-0.3-0.3c0,0-0.1,0-0.1,0c0.1-0.4,0.5-0.6,0.8-0.6
			c0.5,0,0.8,0.5,0.8,1c0,0.5-0.3,0.9-0.6,1.3l-1.1,1.3c-0.1,0.1-0.1,0.1-0.1,0.2h2.2l0.2-1h-0.1c0,0.2-0.1,0.4-0.1,0.5
			c0,0-0.4,0-0.6,0H350.9"/>
		<path class="st17" d="M355,136h1.3c0.1,0,0.2,0,0.2-0.1c0-0.1-0.1-0.1-0.2-0.1H355v-1.3c0-0.1,0-0.2-0.1-0.2
			c-0.1,0-0.1,0.1-0.1,0.2v1.3h-1.3c-0.1,0-0.2,0-0.2,0.1c0,0.1,0.1,0.1,0.2,0.1h1.3v1.3c0,0.1,0,0.2,0.1,0.2c0.1,0,0.1-0.1,0.1-0.2
			V136"/>
		<path class="st17" d="M358.9,138c0-0.5-0.1-1.2-0.4-1.9c-0.4-0.7-0.9-1.1-0.9-1.1c0,0-0.1,0-0.1,0.1c0,0,0,0,0.1,0.1
			c0.6,0.6,0.9,1.5,0.9,2.8c0,1-0.2,2.1-1,2.8c-0.1,0.1-0.1,0.1-0.1,0.1c0,0,0,0.1,0.1,0.1c0.1,0,0.6-0.4,0.9-1.2
			C358.8,139.1,358.9,138.5,358.9,138"/>
		<path class="st17" d="M365.1,138.7c0.1,0,0.2,0,0.2-0.1c0-0.1-0.1-0.1-0.2-0.1h-3.6c-0.1,0-0.2,0-0.2,0.1c0,0.1,0.1,0.1,0.2,0.1
			H365.1 M365.1,137.5c0.1,0,0.2,0,0.2-0.1c0-0.1-0.1-0.1-0.2-0.1h-3.6c-0.1,0-0.2,0-0.2,0.1c0,0.1,0.1,0.1,0.2,0.1H365.1z"/>
		<path class="st17" d="M369.4,137.7c0-0.2,0.2-0.7,0.6-0.7c0,0,0.2,0,0.3,0.1c-0.2,0-0.3,0.2-0.3,0.3c0,0.1,0.1,0.2,0.2,0.2
			c0.1,0,0.3-0.1,0.3-0.3c0-0.3-0.4-0.4-0.6-0.4c-0.3,0-0.6,0.3-0.6,0.5c-0.1-0.4-0.5-0.5-0.6-0.5c-0.6,0-1,0.8-1,0.9
			c0,0.1,0.1,0.1,0.1,0.1c0,0,0.1,0,0.1-0.1c0.2-0.6,0.6-0.8,0.8-0.8c0.1,0,0.3,0.1,0.3,0.4c0,0.2-0.1,0.6-0.3,1.4
			c-0.1,0.4-0.3,0.6-0.6,0.6c0,0-0.2,0-0.3-0.1c0.1,0,0.3-0.2,0.3-0.3c0-0.2-0.1-0.2-0.2-0.2c-0.2,0-0.3,0.2-0.3,0.3
			c0,0.3,0.3,0.4,0.6,0.4c0.4,0,0.6-0.4,0.6-0.5c0.1,0.2,0.3,0.5,0.6,0.5c0.6,0,1-0.8,1-0.9c0-0.1-0.1-0.1-0.1-0.1
			c-0.1,0-0.1,0-0.1,0.1c-0.2,0.6-0.6,0.8-0.8,0.8c-0.2,0-0.3-0.2-0.3-0.4c0-0.1,0-0.3,0.1-0.5L369.4,137.7"/>
		<polyline class="st17" points="372.4,141 372.4,140.7 371.8,140.7 371.8,135.2 372.4,135.2 372.4,135 371.5,135 371.5,141 
			372.4,141 		"/>
		<path class="st17" d="M374.2,137.4c0.5-0.2,0.8-0.6,0.8-1c0-0.5-0.5-0.8-1.1-0.8c-0.6,0-1.1,0.4-1.1,0.8c0,0.2,0.1,0.3,0.3,0.3
			c0.2,0,0.3-0.1,0.3-0.3c0-0.3-0.3-0.3-0.4-0.3c0.2-0.3,0.6-0.4,0.8-0.4c0.2,0,0.6,0.1,0.6,0.7c0,0.1,0,0.4-0.2,0.7
			c-0.2,0.3-0.4,0.3-0.5,0.3c0,0-0.2,0-0.2,0c0,0-0.1,0-0.1,0.1c0,0.1,0,0.1,0.1,0.1h0.3c0.5,0,0.7,0.4,0.7,1c0,0.8-0.4,1-0.7,1
			c-0.3,0-0.7-0.1-0.9-0.5c0.2,0,0.4-0.1,0.4-0.3c0-0.2-0.2-0.3-0.3-0.3c-0.1,0-0.3,0.1-0.3,0.3c0,0.5,0.6,0.9,1.2,0.9
			c0.7,0,1.3-0.5,1.3-1.1C375.2,138,374.8,137.5,374.2,137.4"/>
		<polyline class="st17" points="376.4,135 375.6,135 375.6,135.2 376.1,135.2 376.1,140.7 375.6,140.7 375.6,141 376.4,141 
			376.4,135 		"/>
	</g>
	<g>
		<defs>
			<rect id="SVGID_3_" x="418.1" y="134.8" width="14.9" height="6.6"/>
		</defs>
		<clipPath id="SVGID_4_">
			<use xlink:href="#SVGID_3_"  style="overflow:visible;"/>
		</clipPath>
		<path class="st18" d="M420,137.7c0-0.2,0.2-0.7,0.6-0.7c0,0,0.2,0,0.3,0.1c-0.2,0-0.3,0.2-0.3,0.3c0,0.1,0.1,0.2,0.2,0.2
			c0.1,0,0.3-0.1,0.3-0.3c0-0.3-0.4-0.4-0.6-0.4c-0.3,0-0.6,0.3-0.6,0.5c-0.1-0.4-0.5-0.5-0.6-0.5c-0.6,0-1,0.8-1,0.9
			c0,0.1,0.1,0.1,0.1,0.1c0,0,0.1,0,0.1-0.1c0.2-0.6,0.6-0.8,0.8-0.8c0.1,0,0.3,0.1,0.3,0.4c0,0.2-0.1,0.6-0.3,1.4
			c-0.1,0.4-0.3,0.6-0.6,0.6c0,0-0.2,0-0.3-0.1c0.1,0,0.3-0.2,0.3-0.3c0-0.2-0.1-0.2-0.2-0.2c-0.2,0-0.3,0.2-0.3,0.3
			c0,0.3,0.3,0.4,0.6,0.4c0.4,0,0.6-0.4,0.6-0.5c0.1,0.2,0.3,0.5,0.6,0.5c0.6,0,1-0.8,1-0.9c0-0.1-0.1-0.1-0.1-0.1
			c-0.1,0-0.1,0-0.1,0.1c-0.2,0.6-0.6,0.8-0.8,0.8c-0.2,0-0.3-0.2-0.3-0.4c0-0.1,0-0.3,0.1-0.5L420,137.7"/>
		<path class="st18" d="M423.4,140.9c0,0,0,0-0.1-0.1c-0.7-0.8-0.9-1.9-0.9-2.8c0-1,0.2-2.1,1-2.8c0.1-0.1,0.1-0.1,0.1-0.1
			c0,0,0-0.1-0.1-0.1c-0.1,0-0.6,0.4-0.9,1.2c-0.3,0.7-0.4,1.3-0.4,1.8c0,0.5,0.1,1.2,0.4,1.9C422.8,140.6,423.3,141,423.4,140.9
			C423.4,141,423.4,140.9,423.4,140.9"/>
		<path class="st18" d="M425.5,137.4c0.5-0.2,0.8-0.6,0.8-1c0-0.5-0.5-0.8-1.1-0.8c-0.6,0-1.1,0.4-1.1,0.8c0,0.2,0.1,0.3,0.3,0.3
			c0.2,0,0.3-0.1,0.3-0.3c0-0.3-0.3-0.3-0.4-0.3c0.2-0.3,0.6-0.4,0.8-0.4c0.2,0,0.6,0.1,0.6,0.7c0,0.1,0,0.4-0.2,0.7
			c-0.2,0.3-0.4,0.3-0.5,0.3c0,0-0.2,0-0.2,0c0,0-0.1,0-0.1,0.1c0,0.1,0,0.1,0.1,0.1h0.3c0.5,0,0.7,0.4,0.7,1c0,0.8-0.4,1-0.7,1
			c-0.3,0-0.7-0.1-0.9-0.5c0.2,0,0.4-0.1,0.4-0.3c0-0.2-0.2-0.3-0.3-0.3c-0.1,0-0.3,0.1-0.3,0.3c0,0.5,0.6,0.9,1.2,0.9
			c0.7,0,1.3-0.5,1.3-1.1C426.5,138,426.1,137.5,425.5,137.4"/>
		<path class="st18" d="M429.8,136c0.1,0,0.2,0,0.2-0.1c0-0.1-0.1-0.1-0.2-0.1h-2.5c-0.1,0-0.2,0-0.2,0.1c0,0.1,0.1,0.1,0.2,0.1
			H429.8"/>
		<path class="st18" d="M432.5,138c0-0.5-0.1-1.2-0.4-1.9c-0.4-0.7-0.9-1.1-0.9-1.1c0,0-0.1,0-0.1,0.1c0,0,0,0,0.1,0.1
			c0.6,0.6,0.9,1.5,0.9,2.8c0,1-0.2,2.1-1,2.8c-0.1,0.1-0.1,0.1-0.1,0.1c0,0,0,0.1,0.1,0.1c0.1,0,0.6-0.4,0.9-1.2
			C432.4,139.1,432.5,138.5,432.5,138"/>
	</g>
	<g id="XMLID_5_">
		<defs>
			<rect id="XMLID_6_" x="180.2" y="350.8" width="32.9" height="6.6"/>
		</defs>
		<clipPath id="XMLID_199_">
			<use xlink:href="#XMLID_6_"  style="overflow:visible;"/>
		</clipPath>
		<path id="XMLID_62_" class="st19" d="M182.3,353.7c0-0.2,0.2-0.7,0.6-0.7c0,0,0.2,0,0.3,0.1c-0.2,0-0.3,0.2-0.3,0.3
			c0,0.1,0.1,0.2,0.2,0.2c0.1,0,0.3-0.1,0.3-0.3c0-0.3-0.4-0.4-0.6-0.4c-0.3,0-0.6,0.3-0.6,0.5c-0.1-0.4-0.5-0.5-0.6-0.5
			c-0.6,0-1,0.8-1,0.9c0,0.1,0.1,0.1,0.1,0.1c0,0,0.1,0,0.1-0.1c0.2-0.6,0.6-0.8,0.8-0.8c0.1,0,0.3,0.1,0.3,0.4
			c0,0.2-0.1,0.6-0.3,1.4c-0.1,0.4-0.3,0.6-0.6,0.6c0,0-0.2,0-0.3-0.1c0.1,0,0.3-0.2,0.3-0.3c0-0.2-0.1-0.2-0.2-0.2
			c-0.2,0-0.3,0.2-0.3,0.3c0,0.3,0.3,0.4,0.6,0.4c0.4,0,0.6-0.4,0.6-0.5c0.1,0.2,0.3,0.5,0.6,0.5c0.6,0,1-0.8,1-0.9
			c0-0.1-0.1-0.1-0.1-0.1c-0.1,0-0.1,0-0.1,0.1c-0.2,0.6-0.6,0.8-0.8,0.8c-0.2,0-0.3-0.2-0.3-0.4c0-0.1,0-0.3,0.1-0.5L182.3,353.7"
			/>
		<path id="XMLID_61_" class="st19" d="M185.7,356.9c0,0,0,0-0.1-0.1c-0.7-0.8-0.9-1.9-0.9-2.8c0-1,0.2-2.1,1-2.8
			c0.1-0.1,0.1-0.1,0.1-0.1c0,0,0-0.1-0.1-0.1c-0.1,0-0.6,0.4-0.9,1.2c-0.3,0.7-0.4,1.3-0.4,1.8c0,0.5,0.1,1.2,0.4,1.9
			C185,356.6,185.6,357,185.7,356.9C185.6,357,185.7,356.9,185.7,356.9"/>
		<path id="XMLID_58_" class="st19" d="M187.6,355.5c-0.2,0-0.6-0.1-0.7-0.7c-0.1-0.4-0.1-0.9-0.1-1.3c0-0.4,0-0.8,0-1.1
			c0.1-0.7,0.6-0.8,0.7-0.8c0.2,0,0.6,0.1,0.7,0.7c0.1,0.3,0.1,0.8,0.1,1.2c0,0.4,0,0.9-0.1,1.2
			C188.2,355.3,187.8,355.5,187.6,355.5 M188.8,353.6c0-0.5,0-1-0.2-1.4c-0.3-0.6-0.8-0.7-1-0.7c-0.4,0-0.8,0.2-1,0.7
			c-0.2,0.4-0.2,0.9-0.2,1.4c0,0.4,0,1,0.3,1.4c0.3,0.5,0.7,0.6,1,0.6c0.3,0,0.8-0.1,1-0.7C188.8,354.5,188.8,354,188.8,353.6z"/>
		<path id="XMLID_57_" class="st19" d="M192.2,352c0.1,0,0.2,0,0.2-0.1c0-0.1-0.1-0.1-0.2-0.1h-2.5c-0.1,0-0.2,0-0.2,0.1
			c0,0.1,0.1,0.1,0.2,0.1H192.2"/>
		<path id="XMLID_56_" class="st19" d="M194.8,354c0-0.5-0.1-1.2-0.4-1.9c-0.4-0.7-0.9-1.1-0.9-1.1c0,0-0.1,0-0.1,0.1
			c0,0,0,0,0.1,0.1c0.6,0.6,0.9,1.5,0.9,2.8c0,1-0.2,2.1-1,2.8c-0.1,0.1-0.1,0.1-0.1,0.1c0,0,0,0.1,0.1,0.1c0.1,0,0.6-0.4,0.9-1.2
			C194.7,355.1,194.8,354.5,194.8,354"/>
		<path id="XMLID_53_" class="st19" d="M201.2,354.7c0.1,0,0.2,0,0.2-0.1c0-0.1-0.1-0.1-0.2-0.1h-3.6c-0.1,0-0.2,0-0.2,0.1
			c0,0.1,0.1,0.1,0.2,0.1H201.2 M201.2,353.5c0.1,0,0.2,0,0.2-0.1c0-0.1-0.1-0.1-0.2-0.1h-3.6c-0.1,0-0.2,0-0.2,0.1
			c0,0.1,0.1,0.1,0.2,0.1H201.2z"/>
		<path id="XMLID_52_" class="st19" d="M205.4,353.7c0-0.2,0.2-0.7,0.6-0.7c0,0,0.2,0,0.3,0.1c-0.2,0-0.3,0.2-0.3,0.3
			c0,0.1,0.1,0.2,0.2,0.2c0.1,0,0.3-0.1,0.3-0.3c0-0.3-0.4-0.4-0.6-0.4c-0.3,0-0.6,0.3-0.6,0.5c-0.1-0.4-0.5-0.5-0.6-0.5
			c-0.6,0-1,0.8-1,0.9c0,0.1,0.1,0.1,0.1,0.1c0,0,0.1,0,0.1-0.1c0.2-0.6,0.6-0.8,0.8-0.8c0.1,0,0.3,0.1,0.3,0.4
			c0,0.2-0.1,0.6-0.3,1.4c-0.1,0.4-0.3,0.6-0.6,0.6c0,0-0.2,0-0.3-0.1c0.2,0,0.3-0.2,0.3-0.3c0-0.2-0.1-0.2-0.2-0.2
			c-0.2,0-0.3,0.2-0.3,0.3c0,0.3,0.3,0.4,0.6,0.4c0.4,0,0.6-0.4,0.6-0.5c0.1,0.2,0.3,0.5,0.6,0.5c0.6,0,1-0.8,1-0.9
			c0-0.1-0.1-0.1-0.1-0.1c-0.1,0-0.1,0-0.1,0.1c-0.2,0.6-0.6,0.8-0.8,0.8c-0.2,0-0.3-0.2-0.3-0.4c0-0.1,0-0.3,0.1-0.5L205.4,353.7"
			/>
		<polyline id="XMLID_51_" class="st19" points="208.3,357 208.3,356.7 207.7,356.7 207.7,351.2 208.3,351.2 208.3,351 207.5,351 
			207.5,357 208.3,357 		"/>
		<path id="XMLID_8_" class="st19" d="M210,355.5c-0.2,0-0.6-0.1-0.7-0.7c-0.1-0.4-0.1-0.9-0.1-1.3c0-0.4,0-0.8,0-1.1
			c0.1-0.7,0.6-0.8,0.7-0.8c0.2,0,0.6,0.1,0.7,0.7c0.1,0.3,0.1,0.8,0.1,1.2c0,0.4,0,0.9-0.1,1.2C210.6,355.3,210.2,355.5,210,355.5
			 M211.2,353.6c0-0.5,0-1-0.2-1.4c-0.3-0.6-0.8-0.7-1-0.7c-0.4,0-0.8,0.2-1,0.7c-0.2,0.4-0.2,0.9-0.2,1.4c0,0.4,0,1,0.3,1.4
			c0.3,0.5,0.7,0.6,1,0.6c0.3,0,0.8-0.1,1-0.7C211.2,354.5,211.2,354,211.2,353.6z"/>
		<polyline id="XMLID_7_" class="st19" points="212.4,351 211.6,351 211.6,351.2 212.2,351.2 212.2,356.7 211.6,356.7 211.6,357 
			212.4,357 212.4,351 		"/>
	</g>
	<g id="XMLID_63_">
		<defs>
			<rect id="XMLID_64_" x="218.2" y="363.2" width="32.9" height="6.6"/>
		</defs>
		<clipPath id="XMLID_200_">
			<use xlink:href="#XMLID_64_"  style="overflow:visible;"/>
		</clipPath>
		<path id="XMLID_124_" class="st20" d="M220.3,366c0-0.2,0.2-0.7,0.6-0.7c0,0,0.2,0,0.3,0.1c-0.2,0-0.3,0.2-0.3,0.3
			c0,0.1,0.1,0.2,0.2,0.2c0.1,0,0.3-0.1,0.3-0.3c0-0.3-0.4-0.4-0.6-0.4c-0.3,0-0.6,0.3-0.6,0.5c-0.1-0.4-0.5-0.5-0.6-0.5
			c-0.6,0-1,0.8-1,0.9c0,0.1,0.1,0.1,0.1,0.1c0,0,0.1,0,0.1-0.1c0.2-0.6,0.6-0.8,0.8-0.8c0.1,0,0.3,0.1,0.3,0.4
			c0,0.2-0.1,0.6-0.3,1.4c-0.1,0.4-0.3,0.6-0.6,0.6c0,0-0.2,0-0.3-0.1c0.1,0,0.3-0.2,0.3-0.3c0-0.2-0.1-0.2-0.2-0.2
			c-0.2,0-0.3,0.2-0.3,0.3c0,0.3,0.3,0.4,0.6,0.4c0.4,0,0.6-0.4,0.6-0.5c0.1,0.2,0.3,0.5,0.6,0.5c0.6,0,1-0.8,1-0.9
			c0-0.1-0.1-0.1-0.1-0.1c-0.1,0-0.1,0-0.1,0.1c-0.2,0.6-0.6,0.8-0.8,0.8c-0.2,0-0.3-0.2-0.3-0.4c0-0.1,0-0.3,0.1-0.5L220.3,366"/>
		<path id="XMLID_123_" class="st20" d="M223.7,369.3c0,0,0,0-0.1-0.1c-0.7-0.8-0.9-1.9-0.9-2.8c0-1,0.2-2.1,1-2.8
			c0.1-0.1,0.1-0.1,0.1-0.1c0,0,0-0.1-0.1-0.1c-0.1,0-0.6,0.4-0.9,1.2c-0.3,0.7-0.4,1.3-0.4,1.8c0,0.5,0.1,1.2,0.4,1.9
			C223.1,368.9,223.6,369.3,223.7,369.3C223.7,369.3,223.7,369.3,223.7,369.3"/>
		<path id="XMLID_120_" class="st20" d="M225.6,367.8c-0.2,0-0.6-0.1-0.7-0.7c-0.1-0.4-0.1-0.9-0.1-1.3c0-0.4,0-0.8,0-1.1
			c0.1-0.7,0.6-0.8,0.7-0.8c0.2,0,0.6,0.1,0.7,0.7c0.1,0.3,0.1,0.8,0.1,1.2c0,0.4,0,0.9-0.1,1.2
			C226.2,367.7,225.9,367.8,225.6,367.8 M226.9,365.9c0-0.5,0-1-0.2-1.4c-0.3-0.6-0.8-0.7-1-0.7c-0.4,0-0.8,0.2-1,0.7
			c-0.2,0.4-0.2,0.9-0.2,1.4c0,0.4,0,1,0.3,1.4c0.3,0.5,0.7,0.6,1,0.6c0.3,0,0.8-0.1,1-0.7C226.8,366.9,226.9,366.4,226.9,365.9z"/>
		<path id="XMLID_119_" class="st20" d="M230.2,364.4c0.1,0,0.2,0,0.2-0.1c0-0.1-0.1-0.1-0.2-0.1h-2.5c-0.1,0-0.2,0-0.2,0.1
			c0,0.1,0.1,0.1,0.2,0.1H230.2"/>
		<path id="XMLID_83_" class="st20" d="M232.9,366.3c0-0.5-0.1-1.2-0.4-1.9c-0.4-0.7-0.9-1.1-0.9-1.1c0,0-0.1,0-0.1,0.1
			c0,0,0,0,0.1,0.1c0.6,0.6,0.9,1.5,0.9,2.8c0,1-0.2,2.1-1,2.8c-0.1,0.1-0.1,0.1-0.1,0.1c0,0,0,0.1,0.1,0.1c0.1,0,0.6-0.4,0.9-1.2
			C232.8,367.5,232.9,366.8,232.9,366.3"/>
		<path id="XMLID_80_" class="st20" d="M239.2,367c0.1,0,0.2,0,0.2-0.1c0-0.1-0.1-0.1-0.2-0.1h-3.6c-0.1,0-0.2,0-0.2,0.1
			c0,0.1,0.1,0.1,0.2,0.1H239.2 M239.2,365.9c0.1,0,0.2,0,0.2-0.1c0-0.1-0.1-0.1-0.2-0.1h-3.6c-0.1,0-0.2,0-0.2,0.1
			c0,0.1,0.1,0.1,0.2,0.1H239.2z"/>
		<path id="XMLID_79_" class="st20" d="M243.4,366c0-0.2,0.2-0.7,0.6-0.7c0,0,0.2,0,0.3,0.1c-0.2,0-0.3,0.2-0.3,0.3
			c0,0.1,0.1,0.2,0.2,0.2c0.1,0,0.3-0.1,0.3-0.3c0-0.3-0.4-0.4-0.6-0.4c-0.3,0-0.6,0.3-0.6,0.5c-0.1-0.4-0.5-0.5-0.6-0.5
			c-0.6,0-1,0.8-1,0.9c0,0.1,0.1,0.1,0.1,0.1c0,0,0.1,0,0.1-0.1c0.2-0.6,0.6-0.8,0.8-0.8c0.1,0,0.3,0.1,0.3,0.4
			c0,0.2-0.1,0.6-0.3,1.4c-0.1,0.4-0.3,0.6-0.6,0.6c0,0-0.2,0-0.3-0.1c0.1,0,0.3-0.2,0.3-0.3c0-0.2-0.1-0.2-0.2-0.2
			c-0.2,0-0.3,0.2-0.3,0.3c0,0.3,0.3,0.4,0.6,0.4c0.4,0,0.6-0.4,0.6-0.5c0.1,0.2,0.3,0.5,0.6,0.5c0.6,0,1-0.8,1-0.9
			c0-0.1-0.1-0.1-0.1-0.1c-0.1,0-0.1,0-0.1,0.1c-0.2,0.6-0.6,0.8-0.8,0.8c-0.2,0-0.3-0.2-0.3-0.4c0-0.1,0-0.3,0.1-0.5L243.4,366"/>
		<polyline id="XMLID_78_" class="st20" points="246.4,369.3 246.4,369.1 245.8,369.1 245.8,363.6 246.4,363.6 246.4,363.4 
			245.5,363.4 245.5,369.3 246.4,369.3 		"/>
		<path id="XMLID_66_" class="st20" d="M248,367.8c-0.2,0-0.6-0.1-0.7-0.7c-0.1-0.4-0.1-0.9-0.1-1.3c0-0.4,0-0.8,0-1.1
			c0.1-0.7,0.6-0.8,0.7-0.8c0.2,0,0.6,0.1,0.7,0.7c0.1,0.3,0.1,0.8,0.1,1.2c0,0.4,0,0.9-0.1,1.2C248.6,367.7,248.3,367.8,248,367.8
			 M249.3,365.9c0-0.5,0-1-0.2-1.4c-0.3-0.6-0.8-0.7-1-0.7c-0.4,0-0.8,0.2-1,0.7c-0.2,0.4-0.2,0.9-0.2,1.4c0,0.4,0,1,0.3,1.4
			c0.3,0.5,0.7,0.6,1,0.6c0.3,0,0.8-0.1,1-0.7C249.2,366.9,249.3,366.4,249.3,365.9z"/>
		<polyline id="XMLID_65_" class="st20" points="250.5,363.4 249.7,363.4 249.7,363.6 250.2,363.6 250.2,369.1 249.7,369.1 
			249.7,369.3 250.5,369.3 250.5,363.4 		"/>
	</g>
	<g id="XMLID_139_">
		<defs>
			<rect id="XMLID_140_" x="271.1" y="362.8" width="14.9" height="6.6"/>
		</defs>
		<clipPath id="XMLID_201_">
			<use xlink:href="#XMLID_140_"  style="overflow:visible;"/>
		</clipPath>
		<path id="XMLID_145_" class="st21" d="M273,365.7c0-0.2,0.2-0.7,0.6-0.7c0,0,0.2,0,0.3,0.1c-0.2,0-0.3,0.2-0.3,0.3
			c0,0.1,0.1,0.2,0.2,0.2c0.1,0,0.3-0.1,0.3-0.3c0-0.3-0.4-0.4-0.6-0.4c-0.3,0-0.6,0.3-0.6,0.5c-0.1-0.4-0.5-0.5-0.6-0.5
			c-0.6,0-1,0.8-1,0.9c0,0.1,0.1,0.1,0.1,0.1c0,0,0.1,0,0.1-0.1c0.2-0.6,0.6-0.8,0.8-0.8c0.1,0,0.3,0.1,0.3,0.4
			c0,0.2-0.1,0.6-0.3,1.4c-0.1,0.4-0.3,0.6-0.6,0.6c0,0-0.2,0-0.3-0.1c0.1,0,0.3-0.2,0.3-0.3c0-0.2-0.1-0.2-0.2-0.2
			c-0.2,0-0.3,0.2-0.3,0.3c0,0.3,0.3,0.4,0.6,0.4c0.4,0,0.6-0.4,0.6-0.5c0.1,0.2,0.3,0.5,0.6,0.5c0.6,0,1-0.8,1-0.9
			c0-0.1-0.1-0.1-0.1-0.1c-0.1,0-0.1,0-0.1,0.1c-0.2,0.6-0.6,0.8-0.8,0.8c-0.2,0-0.3-0.2-0.3-0.4c0-0.1,0-0.3,0.1-0.5L273,365.7"/>
		<path id="XMLID_144_" class="st21" d="M276.4,368.9c0,0,0,0-0.1-0.1c-0.7-0.8-0.9-1.9-0.9-2.8c0-1,0.2-2.1,1-2.8
			c0.1-0.1,0.1-0.1,0.1-0.1c0,0,0-0.1-0.1-0.1c-0.1,0-0.6,0.4-0.9,1.2c-0.3,0.7-0.4,1.3-0.4,1.8c0,0.5,0.1,1.2,0.4,1.9
			C275.8,368.6,276.3,369,276.4,368.9C276.4,369,276.4,368.9,276.4,368.9"/>
		<path id="XMLID_143_" class="st21" d="M278.5,363.6c0-0.1,0-0.2-0.1-0.2c-0.4,0.4-0.9,0.4-1.1,0.4v0.2c0.1,0,0.5,0,0.8-0.2v3.1
			c0,0.2,0,0.3-0.6,0.3h-0.2v0.2c0.2,0,0.7,0,1,0c0.2,0,0.8,0,1,0v-0.2h-0.2c-0.5,0-0.6-0.1-0.6-0.3V363.6"/>
		<path id="XMLID_142_" class="st21" d="M282.8,364c0.1,0,0.2,0,0.2-0.1c0-0.1-0.1-0.1-0.2-0.1h-2.5c-0.1,0-0.2,0-0.2,0.1
			c0,0.1,0.1,0.1,0.2,0.1H282.8"/>
		<path id="XMLID_141_" class="st21" d="M285.5,366c0-0.5-0.1-1.2-0.4-1.9c-0.4-0.7-0.9-1.1-0.9-1.1c0,0-0.1,0-0.1,0.1
			c0,0,0,0,0.1,0.1c0.6,0.6,0.9,1.5,0.9,2.8c0,1-0.2,2.1-1,2.8c-0.1,0.1-0.1,0.1-0.1,0.1c0,0,0,0.1,0.1,0.1c0.1,0,0.6-0.4,0.9-1.2
			C285.4,367.1,285.5,366.5,285.5,366"/>
	</g>
	<g id="XMLID_125_">
		<defs>
			<rect id="XMLID_126_" x="291.2" y="290.2" width="32.9" height="7.2"/>
		</defs>
		<clipPath id="XMLID_202_">
			<use xlink:href="#XMLID_126_"  style="overflow:visible;"/>
		</clipPath>
		<path id="XMLID_138_" class="st22" d="M293.4,293.7c0-0.2,0.2-0.7,0.6-0.7c0,0,0.2,0,0.3,0.1c-0.2,0-0.3,0.2-0.3,0.3
			c0,0.1,0.1,0.2,0.2,0.2c0.1,0,0.3-0.1,0.3-0.3c0-0.3-0.4-0.4-0.6-0.4c-0.3,0-0.6,0.3-0.6,0.5c-0.1-0.4-0.5-0.5-0.6-0.5
			c-0.6,0-1,0.8-1,0.9c0,0.1,0.1,0.1,0.1,0.1c0,0,0.1,0,0.1-0.1c0.2-0.6,0.6-0.8,0.8-0.8c0.1,0,0.3,0.1,0.3,0.4
			c0,0.2-0.1,0.6-0.3,1.4c-0.1,0.4-0.3,0.6-0.6,0.6c0,0-0.2,0-0.3-0.1c0.1,0,0.3-0.2,0.3-0.3c0-0.2-0.1-0.2-0.2-0.2
			c-0.2,0-0.3,0.2-0.3,0.3c0,0.3,0.3,0.4,0.6,0.4c0.4,0,0.6-0.4,0.6-0.5c0.1,0.2,0.3,0.5,0.6,0.5c0.6,0,1-0.8,1-0.9
			c0-0.1-0.1-0.1-0.1-0.1c-0.1,0-0.1,0-0.1,0.1c-0.2,0.6-0.6,0.8-0.8,0.8c-0.2,0-0.3-0.2-0.3-0.4c0-0.1,0-0.3,0.1-0.5L293.4,293.7"
			/>
		<path id="XMLID_137_" class="st22" d="M296.8,296.9c0,0,0,0-0.1-0.1c-0.7-0.8-0.9-1.9-0.9-2.8c0-1,0.2-2.1,1-2.8
			c0.1-0.1,0.1-0.1,0.1-0.1c0,0,0-0.1-0.1-0.1c-0.1,0-0.6,0.4-0.9,1.2c-0.3,0.7-0.4,1.3-0.4,1.8c0,0.5,0.1,1.2,0.4,1.9
			C296.2,296.6,296.7,297,296.8,296.9C296.8,297,296.8,296.9,296.8,296.9"/>
		<path id="XMLID_136_" class="st22" d="M298.9,291.6c0-0.1,0-0.2-0.1-0.2c-0.4,0.4-0.9,0.4-1.1,0.4v0.2c0.1,0,0.5,0,0.8-0.2v3.1
			c0,0.2,0,0.3-0.6,0.3h-0.2v0.2c0.2,0,0.7,0,1,0c0.2,0,0.8,0,1,0v-0.2h-0.2c-0.5,0-0.6-0.1-0.6-0.3V291.6"/>
		<path id="XMLID_135_" class="st22" d="M302,292h1.3c0.1,0,0.2,0,0.2-0.1c0-0.1-0.1-0.1-0.2-0.1H302v-1.3c0-0.1,0-0.2-0.1-0.2
			c-0.1,0-0.1,0.1-0.1,0.2v1.3h-1.3c-0.1,0-0.2,0-0.2,0.1c0,0.1,0.1,0.1,0.2,0.1h1.3v1.3c0,0.1,0,0.2,0.1,0.2c0.1,0,0.1-0.1,0.1-0.2
			V292"/>
		<path id="XMLID_134_" class="st22" d="M305.9,294c0-0.5-0.1-1.2-0.4-1.9c-0.4-0.7-0.9-1.1-0.9-1.1c0,0-0.1,0-0.1,0.1
			c0,0,0,0,0.1,0.1c0.6,0.6,0.9,1.5,0.9,2.8c0,1-0.2,2.1-1,2.8c-0.1,0.1-0.1,0.1-0.1,0.1c0,0,0,0.1,0.1,0.1c0.1,0,0.6-0.4,0.9-1.2
			C305.8,295.1,305.9,294.5,305.9,294"/>
		<path id="XMLID_131_" class="st22" d="M312.1,294.7c0.1,0,0.2,0,0.2-0.1c0-0.1-0.1-0.1-0.2-0.1h-3.6c-0.1,0-0.2,0-0.2,0.1
			c0,0.1,0.1,0.1,0.2,0.1H312.1 M312.1,293.5c0.1,0,0.2,0,0.2-0.1c0-0.1-0.1-0.1-0.2-0.1h-3.6c-0.1,0-0.2,0-0.2,0.1
			c0,0.1,0.1,0.1,0.2,0.1H312.1z"/>
		<path id="XMLID_130_" class="st22" d="M316.4,293.7c0-0.2,0.2-0.7,0.6-0.7c0,0,0.2,0,0.3,0.1c-0.2,0-0.3,0.2-0.3,0.3
			c0,0.1,0.1,0.2,0.2,0.2c0.1,0,0.3-0.1,0.3-0.3c0-0.3-0.4-0.4-0.6-0.4c-0.3,0-0.6,0.3-0.6,0.5c-0.1-0.4-0.5-0.5-0.6-0.5
			c-0.6,0-1,0.8-1,0.9c0,0.1,0.1,0.1,0.1,0.1c0,0,0.1,0,0.1-0.1c0.2-0.6,0.6-0.8,0.8-0.8c0.1,0,0.3,0.1,0.3,0.4
			c0,0.2-0.1,0.6-0.3,1.4c-0.1,0.4-0.3,0.6-0.6,0.6c0,0-0.2,0-0.3-0.1c0.1,0,0.3-0.2,0.3-0.3c0-0.2-0.1-0.2-0.2-0.2
			c-0.2,0-0.3,0.2-0.3,0.3c0,0.3,0.3,0.4,0.6,0.4c0.4,0,0.6-0.4,0.6-0.5c0.1,0.2,0.3,0.5,0.6,0.5c0.6,0,1-0.8,1-0.9
			c0-0.1-0.1-0.1-0.1-0.1c-0.1,0-0.1,0-0.1,0.1c-0.2,0.6-0.6,0.8-0.8,0.8c-0.2,0-0.3-0.2-0.3-0.4c0-0.1,0-0.3,0.1-0.5L316.4,293.7"
			/>
		<polyline id="XMLID_129_" class="st22" points="319.4,297 319.4,296.7 318.8,296.7 318.8,291.2 319.4,291.2 319.4,291 318.5,291 
			318.5,297 319.4,297 		"/>
		<path id="XMLID_128_" class="st22" d="M321.2,291.6c0-0.1,0-0.2-0.1-0.2c-0.4,0.4-0.9,0.4-1.1,0.4v0.2c0.1,0,0.5,0,0.8-0.2v3.1
			c0,0.2,0,0.3-0.6,0.3H320v0.2c0.2,0,0.7,0,1,0c0.2,0,0.8,0,1,0v-0.2h-0.2c-0.5,0-0.6-0.1-0.6-0.3V291.6"/>
		<polyline id="XMLID_127_" class="st22" points="323.4,291 322.6,291 322.6,291.2 323.1,291.2 323.1,296.7 322.6,296.7 322.6,297 
			323.4,297 323.4,291 		"/>
	</g>
	<g id="XMLID_146_">
		<defs>
			<rect id="XMLID_147_" x="344.6" y="290.5" width="14.9" height="6.6"/>
		</defs>
		<clipPath id="XMLID_203_">
			<use xlink:href="#XMLID_147_"  style="overflow:visible;"/>
		</clipPath>
		<path id="XMLID_152_" class="st23" d="M346.6,293.4c0-0.2,0.2-0.7,0.6-0.7c0,0,0.2,0,0.3,0.1c-0.2,0-0.3,0.2-0.3,0.3
			c0,0.1,0.1,0.2,0.2,0.2c0.1,0,0.3-0.1,0.3-0.3c0-0.3-0.4-0.4-0.6-0.4c-0.3,0-0.6,0.3-0.6,0.5c-0.1-0.4-0.5-0.5-0.6-0.5
			c-0.6,0-1,0.8-1,0.9c0,0.1,0.1,0.1,0.1,0.1c0,0,0.1,0,0.1-0.1c0.2-0.6,0.6-0.8,0.8-0.8c0.1,0,0.3,0.1,0.3,0.4
			c0,0.2-0.1,0.6-0.3,1.4c-0.1,0.4-0.3,0.6-0.6,0.6c0,0-0.2,0-0.3-0.1c0.1,0,0.3-0.2,0.3-0.3c0-0.2-0.1-0.2-0.2-0.2
			c-0.2,0-0.3,0.2-0.3,0.3c0,0.3,0.3,0.4,0.6,0.4c0.4,0,0.6-0.4,0.6-0.5c0.1,0.2,0.3,0.5,0.6,0.5c0.6,0,1-0.8,1-0.9
			c0-0.1-0.1-0.1-0.1-0.1c-0.1,0-0.1,0-0.1,0.1c-0.2,0.6-0.6,0.8-0.8,0.8c-0.2,0-0.3-0.2-0.3-0.4c0-0.1,0-0.3,0.1-0.5L346.6,293.4"
			/>
		<path id="XMLID_151_" class="st23" d="M350,296.6c0,0,0,0-0.1-0.1c-0.7-0.8-0.9-1.9-0.9-2.8c0-1,0.2-2.1,1-2.8
			c0.1-0.1,0.1-0.1,0.1-0.1c0,0,0-0.1-0.1-0.1c-0.1,0-0.6,0.4-0.9,1.2c-0.3,0.7-0.4,1.3-0.4,1.8c0,0.5,0.1,1.2,0.4,1.9
			C349.4,296.3,349.9,296.7,350,296.6C350,296.7,350,296.6,350,296.6"/>
		<path id="XMLID_150_" class="st23" d="M351.1,294.7l0.6-0.6c0.9-0.8,1.3-1.1,1.3-1.7c0-0.7-0.5-1.2-1.3-1.2
			c-0.7,0-1.1,0.5-1.1,1.1c0,0.3,0.3,0.3,0.3,0.3c0.1,0,0.3-0.1,0.3-0.3c0-0.2-0.1-0.3-0.3-0.3c0,0-0.1,0-0.1,0
			c0.1-0.4,0.5-0.6,0.8-0.6c0.5,0,0.8,0.5,0.8,1c0,0.5-0.3,0.9-0.6,1.3l-1.1,1.3c-0.1,0.1-0.1,0.1-0.1,0.2h2.2l0.2-1h-0.1
			c0,0.2-0.1,0.4-0.1,0.5c0,0-0.4,0-0.6,0H351.1"/>
		<path id="XMLID_149_" class="st23" d="M356.4,291.7c0.1,0,0.2,0,0.2-0.1c0-0.1-0.1-0.1-0.2-0.1h-2.5c-0.1,0-0.2,0-0.2,0.1
			c0,0.1,0.1,0.1,0.2,0.1H356.4"/>
		<path id="XMLID_148_" class="st23" d="M359,293.7c0-0.5-0.1-1.2-0.4-1.9c-0.4-0.7-0.9-1.1-0.9-1.1c0,0-0.1,0-0.1,0.1
			c0,0,0,0,0.1,0.1c0.6,0.6,0.9,1.5,0.9,2.8c0,1-0.2,2.1-1,2.8c-0.1,0.1-0.1,0.1-0.1,0.1c0,0,0,0.1,0.1,0.1c0.1,0,0.6-0.4,0.9-1.2
			C359,294.8,359,294.2,359,293.7"/>
	</g>
	<g id="XMLID_167_">
		<defs>
			<rect id="XMLID_168_" x="417.1" y="218.8" width="14.9" height="6.6"/>
		</defs>
		<clipPath id="XMLID_204_">
			<use xlink:href="#XMLID_168_"  style="overflow:visible;"/>
		</clipPath>
		<path id="XMLID_173_" class="st24" d="M419,221.7c0-0.2,0.2-0.7,0.6-0.7c0,0,0.2,0,0.3,0.1c-0.2,0-0.3,0.2-0.3,0.3
			c0,0.1,0.1,0.2,0.2,0.2c0.1,0,0.3-0.1,0.3-0.3c0-0.3-0.4-0.4-0.6-0.4c-0.3,0-0.6,0.3-0.6,0.5c-0.1-0.4-0.5-0.5-0.6-0.5
			c-0.6,0-1,0.8-1,0.9c0,0.1,0.1,0.1,0.1,0.1c0,0,0.1,0,0.1-0.1c0.2-0.6,0.6-0.8,0.8-0.8c0.1,0,0.3,0.1,0.3,0.4
			c0,0.2-0.1,0.6-0.3,1.4c-0.1,0.4-0.3,0.6-0.6,0.6c0,0-0.2,0-0.3-0.1c0.1,0,0.3-0.2,0.3-0.3c0-0.2-0.1-0.2-0.2-0.2
			c-0.2,0-0.3,0.2-0.3,0.3c0,0.3,0.3,0.4,0.6,0.4c0.4,0,0.6-0.4,0.6-0.5c0.1,0.2,0.3,0.5,0.6,0.5c0.6,0,1-0.8,1-0.9
			c0-0.1-0.1-0.1-0.1-0.1c-0.1,0-0.1,0-0.1,0.1c-0.2,0.6-0.6,0.8-0.8,0.8c-0.2,0-0.3-0.2-0.3-0.4c0-0.1,0-0.3,0.1-0.5L419,221.7"/>
		<path id="XMLID_172_" class="st24" d="M422.4,224.9c0,0,0,0-0.1-0.1c-0.7-0.8-0.9-1.9-0.9-2.8c0-1,0.2-2.1,1-2.8
			c0.1-0.1,0.1-0.1,0.1-0.1c0,0,0-0.1-0.1-0.1c-0.1,0-0.6,0.4-0.9,1.2c-0.3,0.7-0.4,1.3-0.4,1.8c0,0.5,0.1,1.2,0.4,1.9
			C421.8,224.6,422.3,225,422.4,224.9C422.4,225,422.4,224.9,422.4,224.9"/>
		<path id="XMLID_171_" class="st24" d="M424.5,221.4c0.5-0.2,0.8-0.6,0.8-1c0-0.5-0.5-0.8-1.1-0.8c-0.6,0-1.1,0.4-1.1,0.8
			c0,0.2,0.1,0.3,0.3,0.3c0.2,0,0.3-0.1,0.3-0.3c0-0.3-0.3-0.3-0.4-0.3c0.2-0.3,0.6-0.4,0.8-0.4c0.2,0,0.6,0.1,0.6,0.7
			c0,0.1,0,0.4-0.2,0.7c-0.2,0.3-0.4,0.3-0.5,0.3c0,0-0.2,0-0.2,0c0,0-0.1,0-0.1,0.1c0,0.1,0,0.1,0.1,0.1h0.3c0.5,0,0.7,0.4,0.7,1
			c0,0.8-0.4,1-0.7,1c-0.3,0-0.7-0.1-0.9-0.5c0.2,0,0.4-0.1,0.4-0.3c0-0.2-0.2-0.3-0.3-0.3c-0.1,0-0.3,0.1-0.3,0.3
			c0,0.5,0.6,0.9,1.2,0.9c0.7,0,1.3-0.5,1.3-1.1C425.5,222,425.1,221.5,424.5,221.4"/>
		<path id="XMLID_170_" class="st24" d="M428.8,220c0.1,0,0.2,0,0.2-0.1c0-0.1-0.1-0.1-0.2-0.1h-2.5c-0.1,0-0.2,0-0.2,0.1
			c0,0.1,0.1,0.1,0.2,0.1H428.8"/>
		<path id="XMLID_169_" class="st24" d="M431.5,222c0-0.5-0.1-1.2-0.4-1.9c-0.4-0.7-0.9-1.1-0.9-1.1c0,0-0.1,0-0.1,0.1
			c0,0,0,0,0.1,0.1c0.6,0.6,0.9,1.5,0.9,2.8c0,1-0.2,2.1-1,2.8c-0.1,0.1-0.1,0.1-0.1,0.1c0,0,0,0.1,0.1,0.1c0.1,0,0.6-0.4,0.9-1.2
			C431.4,223.1,431.5,222.5,431.5,222"/>
	</g>
	<g id="XMLID_153_">
		<defs>
			<rect id="XMLID_154_" x="363.2" y="218.2" width="32.9" height="7.2"/>
		</defs>
		<clipPath id="XMLID_205_">
			<use xlink:href="#XMLID_154_"  style="overflow:visible;"/>
		</clipPath>
		<path id="XMLID_166_" class="st25" d="M365.4,221.7c0-0.2,0.2-0.7,0.6-0.7c0,0,0.2,0,0.3,0.1c-0.2,0-0.3,0.2-0.3,0.3
			c0,0.1,0.1,0.2,0.2,0.2c0.1,0,0.3-0.1,0.3-0.3c0-0.3-0.4-0.4-0.6-0.4c-0.3,0-0.6,0.3-0.6,0.5c-0.1-0.4-0.5-0.5-0.6-0.5
			c-0.6,0-1,0.8-1,0.9c0,0.1,0.1,0.1,0.1,0.1c0,0,0.1,0,0.1-0.1c0.2-0.6,0.6-0.8,0.8-0.8c0.1,0,0.3,0.1,0.3,0.4
			c0,0.2-0.1,0.6-0.3,1.4c-0.1,0.4-0.3,0.6-0.6,0.6c0,0-0.2,0-0.3-0.1c0.1,0,0.3-0.2,0.3-0.3c0-0.2-0.1-0.2-0.2-0.2
			c-0.2,0-0.3,0.2-0.3,0.3c0,0.3,0.3,0.4,0.6,0.4c0.4,0,0.6-0.4,0.6-0.5c0.1,0.2,0.3,0.5,0.6,0.5c0.6,0,1-0.8,1-0.9
			c0-0.1-0.1-0.1-0.1-0.1c-0.1,0-0.1,0-0.1,0.1c-0.2,0.6-0.6,0.8-0.8,0.8c-0.2,0-0.3-0.2-0.3-0.4c0-0.1,0-0.3,0.1-0.5L365.4,221.7"
			/>
		<path id="XMLID_165_" class="st25" d="M368.8,224.9c0,0,0,0-0.1-0.1c-0.7-0.8-0.9-1.9-0.9-2.8c0-1,0.2-2.1,1-2.8
			c0.1-0.1,0.1-0.1,0.1-0.1c0,0,0-0.1-0.1-0.1c-0.1,0-0.6,0.4-0.9,1.2c-0.3,0.7-0.4,1.3-0.4,1.8c0,0.5,0.1,1.2,0.4,1.9
			C368.2,224.6,368.7,225,368.8,224.9C368.8,225,368.8,224.9,368.8,224.9"/>
		<path id="XMLID_164_" class="st25" d="M369.9,223l0.6-0.6c0.9-0.8,1.3-1.1,1.3-1.7c0-0.7-0.5-1.2-1.3-1.2c-0.7,0-1.1,0.5-1.1,1.1
			c0,0.3,0.3,0.3,0.3,0.3c0.1,0,0.3-0.1,0.3-0.3c0-0.2-0.1-0.3-0.3-0.3c0,0-0.1,0-0.1,0c0.1-0.4,0.5-0.6,0.8-0.6
			c0.5,0,0.8,0.5,0.8,1c0,0.5-0.3,0.9-0.6,1.3l-1.1,1.3c-0.1,0.1-0.1,0.1-0.1,0.2h2.2l0.2-1h-0.1c0,0.2-0.1,0.4-0.1,0.5
			c0,0-0.4,0-0.6,0H369.9"/>
		<path id="XMLID_163_" class="st25" d="M374,220h1.3c0.1,0,0.2,0,0.2-0.1c0-0.1-0.1-0.1-0.2-0.1H374v-1.3c0-0.1,0-0.2-0.1-0.2
			c-0.1,0-0.1,0.1-0.1,0.2v1.3h-1.3c-0.1,0-0.2,0-0.2,0.1c0,0.1,0.1,0.1,0.2,0.1h1.3v1.3c0,0.1,0,0.2,0.1,0.2c0.1,0,0.1-0.1,0.1-0.2
			V220"/>
		<path id="XMLID_162_" class="st25" d="M377.9,222c0-0.5-0.1-1.2-0.4-1.9c-0.4-0.7-0.9-1.1-0.9-1.1c0,0-0.1,0-0.1,0.1
			c0,0,0,0,0.1,0.1c0.6,0.6,0.9,1.5,0.9,2.8c0,1-0.2,2.1-1,2.8c-0.1,0.1-0.1,0.1-0.1,0.1c0,0,0,0.1,0.1,0.1c0.1,0,0.6-0.4,0.9-1.2
			C377.8,223.1,377.9,222.5,377.9,222"/>
		<path id="XMLID_159_" class="st25" d="M384.1,222.7c0.1,0,0.2,0,0.2-0.1c0-0.1-0.1-0.1-0.2-0.1h-3.6c-0.1,0-0.2,0-0.2,0.1
			c0,0.1,0.1,0.1,0.2,0.1H384.1 M384.1,221.5c0.1,0,0.2,0,0.2-0.1c0-0.1-0.1-0.1-0.2-0.1h-3.6c-0.1,0-0.2,0-0.2,0.1
			c0,0.1,0.1,0.1,0.2,0.1H384.1z"/>
		<path id="XMLID_158_" class="st25" d="M388.4,221.7c0-0.2,0.2-0.7,0.6-0.7c0,0,0.2,0,0.3,0.1c-0.2,0-0.3,0.2-0.3,0.3
			c0,0.1,0.1,0.2,0.2,0.2c0.1,0,0.3-0.1,0.3-0.3c0-0.3-0.4-0.4-0.6-0.4c-0.3,0-0.6,0.3-0.6,0.5c-0.1-0.4-0.5-0.5-0.6-0.5
			c-0.6,0-1,0.8-1,0.9c0,0.1,0.1,0.1,0.1,0.1c0,0,0.1,0,0.1-0.1c0.2-0.6,0.6-0.8,0.8-0.8c0.1,0,0.3,0.1,0.3,0.4
			c0,0.2-0.1,0.6-0.3,1.4c-0.1,0.4-0.3,0.6-0.6,0.6c0,0-0.2,0-0.3-0.1c0.1,0,0.3-0.2,0.3-0.3c0-0.2-0.1-0.2-0.2-0.2
			c-0.2,0-0.3,0.2-0.3,0.3c0,0.3,0.3,0.4,0.6,0.4c0.4,0,0.6-0.4,0.6-0.5c0.1,0.2,0.3,0.5,0.6,0.5c0.6,0,1-0.8,1-0.9
			c0-0.1-0.1-0.1-0.1-0.1c-0.1,0-0.1,0-0.1,0.1c-0.2,0.6-0.6,0.8-0.8,0.8c-0.2,0-0.3-0.2-0.3-0.4c0-0.1,0-0.3,0.1-0.5L388.4,221.7"
			/>
		<polyline id="XMLID_157_" class="st25" points="391.4,225 391.4,224.7 390.8,224.7 390.8,219.2 391.4,219.2 391.4,219 390.5,219 
			390.5,225 391.4,225 		"/>
		<path id="XMLID_156_" class="st25" d="M392.2,223l0.6-0.6c0.9-0.8,1.3-1.1,1.3-1.7c0-0.7-0.5-1.2-1.3-1.2c-0.7,0-1.1,0.5-1.1,1.1
			c0,0.3,0.3,0.3,0.3,0.3c0.1,0,0.3-0.1,0.3-0.3c0-0.2-0.1-0.3-0.3-0.3c0,0-0.1,0-0.1,0c0.1-0.4,0.5-0.6,0.8-0.6
			c0.5,0,0.8,0.5,0.8,1c0,0.5-0.3,0.9-0.6,1.3l-1.1,1.3c-0.1,0.1-0.1,0.1-0.1,0.2h2.2l0.2-1H394c0,0.2-0.1,0.4-0.1,0.5
			c0,0-0.4,0-0.6,0H392.2"/>
		<polyline id="XMLID_155_" class="st25" points="395.4,219 394.6,219 394.6,219.2 395.1,219.2 395.1,224.7 394.6,224.7 394.6,225 
			395.4,225 395.4,219 		"/>
	</g>
	<g id="XMLID_174_">
		<defs>
			<rect id="XMLID_175_" x="435.2" y="143.2" width="32.9" height="7.2"/>
		</defs>
		<clipPath id="XMLID_206_">
			<use xlink:href="#XMLID_175_"  style="overflow:visible;"/>
		</clipPath>
		<path id="XMLID_187_" class="st26" d="M437.4,146.7c0-0.2,0.2-0.7,0.6-0.7c0,0,0.2,0,0.3,0.1c-0.2,0-0.3,0.2-0.3,0.3
			c0,0.1,0.1,0.2,0.2,0.2c0.1,0,0.3-0.1,0.3-0.3c0-0.3-0.4-0.4-0.6-0.4c-0.3,0-0.6,0.3-0.6,0.5c-0.1-0.4-0.5-0.5-0.6-0.5
			c-0.6,0-1,0.8-1,0.9c0,0.1,0.1,0.1,0.1,0.1c0,0,0.1,0,0.1-0.1c0.2-0.6,0.6-0.8,0.8-0.8c0.1,0,0.3,0.1,0.3,0.4
			c0,0.2-0.1,0.6-0.3,1.4c-0.1,0.4-0.3,0.6-0.6,0.6c0,0-0.2,0-0.3-0.1c0.1,0,0.3-0.2,0.3-0.3c0-0.2-0.1-0.2-0.2-0.2
			c-0.2,0-0.3,0.2-0.3,0.3c0,0.3,0.3,0.4,0.6,0.4c0.4,0,0.6-0.4,0.6-0.5c0.1,0.2,0.3,0.5,0.6,0.5c0.6,0,1-0.8,1-0.9
			c0-0.1-0.1-0.1-0.1-0.1c-0.1,0-0.1,0-0.1,0.1c-0.2,0.6-0.6,0.8-0.8,0.8c-0.2,0-0.3-0.2-0.3-0.4c0-0.1,0-0.3,0.1-0.5L437.4,146.7"
			/>
		<path id="XMLID_186_" class="st26" d="M440.8,149.9c0,0,0,0-0.1-0.1c-0.7-0.8-0.9-1.9-0.9-2.8c0-1,0.2-2.1,1-2.8
			c0.1-0.1,0.1-0.1,0.1-0.1c0,0,0-0.1-0.1-0.1c-0.1,0-0.6,0.4-0.9,1.2c-0.3,0.7-0.4,1.3-0.4,1.8c0,0.5,0.1,1.2,0.4,1.9
			C440.2,149.6,440.7,150,440.8,149.9C440.8,150,440.8,149.9,440.8,149.9"/>
		<path id="XMLID_185_" class="st26" d="M442.9,146.4c0.5-0.2,0.8-0.6,0.8-1c0-0.5-0.5-0.8-1.1-0.8c-0.6,0-1.1,0.4-1.1,0.8
			c0,0.2,0.1,0.3,0.3,0.3c0.2,0,0.3-0.1,0.3-0.3c0-0.3-0.3-0.3-0.4-0.3c0.2-0.3,0.6-0.4,0.8-0.4c0.2,0,0.6,0.1,0.6,0.7
			c0,0.1,0,0.4-0.2,0.7c-0.2,0.3-0.4,0.3-0.5,0.3c0,0-0.2,0-0.2,0c0,0-0.1,0-0.1,0.1c0,0.1,0,0.1,0.1,0.1h0.3c0.5,0,0.7,0.4,0.7,1
			c0,0.8-0.4,1-0.7,1c-0.3,0-0.7-0.1-0.9-0.5c0.2,0,0.4-0.1,0.4-0.3c0-0.2-0.2-0.3-0.3-0.3c-0.1,0-0.3,0.1-0.3,0.3
			c0,0.5,0.6,0.9,1.2,0.9c0.7,0,1.3-0.5,1.3-1.1C443.9,147,443.5,146.5,442.9,146.4"/>
		<path id="XMLID_184_" class="st26" d="M446,145h1.3c0.1,0,0.2,0,0.2-0.1c0-0.1-0.1-0.1-0.2-0.1H446v-1.3c0-0.1,0-0.2-0.1-0.2
			c-0.1,0-0.1,0.1-0.1,0.2v1.3h-1.3c-0.1,0-0.2,0-0.2,0.1c0,0.1,0.1,0.1,0.2,0.1h1.3v1.3c0,0.1,0,0.2,0.1,0.2c0.1,0,0.1-0.1,0.1-0.2
			V145"/>
		<path id="XMLID_183_" class="st26" d="M449.9,147c0-0.5-0.1-1.2-0.4-1.9c-0.4-0.7-0.9-1.1-0.9-1.1c0,0-0.1,0-0.1,0.1
			c0,0,0,0,0.1,0.1c0.6,0.6,0.9,1.5,0.9,2.8c0,1-0.2,2.1-1,2.8c-0.1,0.1-0.1,0.1-0.1,0.1c0,0,0,0.1,0.1,0.1c0.1,0,0.6-0.4,0.9-1.2
			C449.8,148.1,449.9,147.5,449.9,147"/>
		<path id="XMLID_180_" class="st26" d="M456.1,147.7c0.1,0,0.2,0,0.2-0.1c0-0.1-0.1-0.1-0.2-0.1h-3.6c-0.1,0-0.2,0-0.2,0.1
			c0,0.1,0.1,0.1,0.2,0.1H456.1 M456.1,146.5c0.1,0,0.2,0,0.2-0.1c0-0.1-0.1-0.1-0.2-0.1h-3.6c-0.1,0-0.2,0-0.2,0.1
			c0,0.1,0.1,0.1,0.2,0.1H456.1z"/>
		<path id="XMLID_179_" class="st26" d="M460.4,146.7c0-0.2,0.2-0.7,0.6-0.7c0,0,0.2,0,0.3,0.1c-0.2,0-0.3,0.2-0.3,0.3
			c0,0.1,0.1,0.2,0.2,0.2c0.1,0,0.3-0.1,0.3-0.3c0-0.3-0.4-0.4-0.6-0.4c-0.3,0-0.6,0.3-0.6,0.5c-0.1-0.4-0.5-0.5-0.6-0.5
			c-0.6,0-1,0.8-1,0.9c0,0.1,0.1,0.1,0.1,0.1c0,0,0.1,0,0.1-0.1c0.2-0.6,0.6-0.8,0.8-0.8c0.1,0,0.3,0.1,0.3,0.4
			c0,0.2-0.1,0.6-0.3,1.4c-0.1,0.4-0.3,0.6-0.6,0.6c0,0-0.2,0-0.3-0.1c0.1,0,0.3-0.2,0.3-0.3c0-0.2-0.1-0.2-0.2-0.2
			c-0.2,0-0.3,0.2-0.3,0.3c0,0.3,0.3,0.4,0.6,0.4c0.4,0,0.6-0.4,0.6-0.5c0.1,0.2,0.3,0.5,0.6,0.5c0.6,0,1-0.8,1-0.9
			c0-0.1-0.1-0.1-0.1-0.1c-0.1,0-0.1,0-0.1,0.1c-0.2,0.6-0.6,0.8-0.8,0.8c-0.2,0-0.3-0.2-0.3-0.4c0-0.1,0-0.3,0.1-0.5L460.4,146.7"
			/>
		<polyline id="XMLID_178_" class="st26" points="463.4,150 463.4,149.7 462.8,149.7 462.8,144.2 463.4,144.2 463.4,144 462.5,144 
			462.5,150 463.4,150 		"/>
		<path id="XMLID_177_" class="st26" d="M465.2,146.4c0.5-0.2,0.8-0.6,0.8-1c0-0.5-0.5-0.8-1.1-0.8c-0.6,0-1.1,0.4-1.1,0.8
			c0,0.2,0.1,0.3,0.3,0.3c0.2,0,0.3-0.1,0.3-0.3c0-0.3-0.3-0.3-0.4-0.3c0.2-0.3,0.6-0.4,0.8-0.4c0.2,0,0.6,0.1,0.6,0.7
			c0,0.1,0,0.4-0.2,0.7c-0.2,0.3-0.4,0.3-0.5,0.3c0,0-0.2,0-0.2,0c0,0-0.1,0-0.1,0.1c0,0.1,0,0.1,0.1,0.1h0.3c0.5,0,0.7,0.4,0.7,1
			c0,0.8-0.4,1-0.7,1c-0.3,0-0.7-0.1-0.9-0.5c0.2,0,0.4-0.1,0.4-0.3c0-0.2-0.2-0.3-0.3-0.3c-0.1,0-0.3,0.1-0.3,0.3
			c0,0.5,0.6,0.9,1.2,0.9c0.7,0,1.3-0.5,1.3-1.1C466.2,147,465.8,146.5,465.2,146.4"/>
		<polyline id="XMLID_176_" class="st26" points="467.4,144 466.6,144 466.6,144.2 467.1,144.2 467.1,149.7 466.6,149.7 466.6,150 
			467.4,150 467.4,144 		"/>
	</g>
</g>
<g id="Layer_4">
</g>
</svg>
