<?xml version="1.0" encoding="utf-8"?>
<!-- Generator: Adobe Illustrator 19.0.0, SVG Export Plug-In . SVG Version: 6.00 Build 0)  -->
<svg version="1.1" xmlns="http://www.w3.org/2000/svg" xmlns:xlink="http://www.w3.org/1999/xlink" x="0px" y="0px"
	 viewBox="0 0 612 792" style="enable-background:new 0 0 612 792;" xml:space="preserve">
<style type="text/css">
	.st0{fill:none;stroke:#6DBE45;stroke-miterlimit:10;}
	.st1{clip-path:url(#XMLID_22_);}
	.st2{fill:none;stroke:#000000;stroke-width:0.5;stroke-miterlimit:10;}
	.st3{fill:none;stroke:#000000;stroke-width:0.5;stroke-miterlimit:10;stroke-dasharray:12.2281,12.2281;}
	.st4{fill:none;stroke:#000000;stroke-width:0.5;stroke-miterlimit:10;stroke-dasharray:12,12;}
	.st5{clip-path:url(#XMLID_29_);}
	.st6{fill:none;stroke:#000000;stroke-width:0.5;stroke-miterlimit:10;stroke-dasharray:12;}
	.st7{clip-path:url(#XMLID_30_);}
	.st8{clip-path:url(#XMLID_31_);}
	.st9{clip-path:url(#XMLID_32_);}
	.st10{clip-path:url(#XMLID_37_);}
	.st11{clip-path:url(#XMLID_38_);}
	.st12{clip-path:url(#XMLID_39_);}
	.st13{clip-path:url(#XMLID_65_);}
	.st14{clip-path:url(#XMLID_191_);fill:#41BBEC;}
	.st15{clip-path:url(#XMLID_192_);fill:#41BBEC;}
	.st16{clip-path:url(#XMLID_193_);fill:#41BBEC;}
	.st17{clip-path:url(#XMLID_194_);fill:#41BBEC;}
	.st18{clip-path:url(#XMLID_195_);fill:#41BBEC;}
	.st19{fill:none;stroke:#42C7F4;stroke-miterlimit:10;}
	.st20{fill:none;stroke:#000000;stroke-miterlimit:10;}
	.st21{fill:none;}
	.st22{clip-path:url(#XMLID_196_);}
	.st23{clip-path:url(#XMLID_197_);}
	.st24{clip-path:url(#XMLID_198_);}
	.st25{clip-path:url(#XMLID_199_);}
	.st26{clip-path:url(#XMLID_200_);}
</style>
<g id="Layer_1">
	<line id="XMLID_1_" class="st0" x1="216.1" y1="503.9" x2="360.1" y2="360.1"/>
	<g id="Layer_2">
	</g>
</g>
<g id="Layer_3">
	<g id="XMLID_5_">
		<defs>
			<rect id="XMLID_6_" x="324.2" y="403.1" width="20" height="13"/>
		</defs>
		<clipPath id="XMLID_22_">
			<use xlink:href="#XMLID_6_"  style="overflow:visible;"/>
		</clipPath>
		<path id="XMLID_10_" class="st1" d="M328.4,411.6c0.1,0.5,0.5,0.8,1.1,0.8c0.4,0,0.7-0.3,0.9-0.7c0.2-0.4,0.4-1.2,0.4-1.2
			c0-0.1-0.1-0.1-0.1-0.1c-0.1,0-0.1,0-0.2,0.2c-0.2,0.7-0.4,1.5-0.9,1.5c-0.2,0-0.4-0.2-0.4-0.5c0-0.3,0.1-0.8,0.2-1.2l0.3-1.3
			c0-0.2,0.2-0.6,0.2-0.8c0.1-0.3,0.2-0.7,0.2-0.8c0-0.2-0.2-0.3-0.3-0.3c-0.1,0-0.4,0-0.5,0.4c-0.2,0.9-0.8,3-0.9,3.6
			c0,0-0.5,1-1.4,1c-0.6,0-0.7-0.5-0.7-1c0-0.7,0.3-1.6,0.6-2.4c0.1-0.4,0.2-0.5,0.2-0.8c0-0.5-0.4-1-1-1c-1.1,0-1.6,1.7-1.6,1.8
			c0,0.1,0.1,0.1,0.1,0.1c0.1,0,0.1,0,0.2-0.2c0.3-1,0.8-1.5,1.2-1.5c0.1,0,0.3,0,0.3,0.4c0,0.3-0.1,0.6-0.2,0.8
			c-0.4,1.2-0.7,1.9-0.7,2.5c0,1.1,0.8,1.4,1.5,1.4C327.8,412.4,328.2,411.9,328.4,411.6"/>
		<path id="XMLID_9_" class="st1" d="M335,415.2c0,0,0-0.1-0.2-0.3c-1.5-1.5-1.9-3.8-1.9-5.6c0-2.1,0.5-4.1,1.9-5.6
			c0.2-0.1,0.2-0.2,0.2-0.2c0-0.1,0-0.1-0.1-0.1c-0.1,0-1.2,0.8-1.9,2.3c-0.6,1.3-0.8,2.6-0.8,3.6c0,0.9,0.1,2.4,0.8,3.7
			c0.7,1.5,1.7,2.2,1.9,2.2C335,415.3,335,415.2,335,415.2"/>
		<path id="XMLID_8_" class="st1" d="M338.2,407.5h1.1c0.2,0,0.4,0,0.4-0.2c0-0.1-0.1-0.1-0.3-0.1h-1c0.4-1.7,0.5-1.9,0.5-2
			c0-0.2-0.1-0.3-0.3-0.3c0,0-0.4,0-0.5,0.4l-0.5,1.9h-1.1c-0.2,0-0.4,0-0.4,0.2c0,0.1,0.1,0.1,0.3,0.1h1c-0.9,3.4-0.9,3.6-0.9,3.8
			c0,0.6,0.5,1.1,1.1,1.1c1.2,0,1.9-1.7,1.9-1.8c0-0.1-0.1-0.1-0.1-0.1c-0.1,0-0.1,0-0.2,0.2c-0.5,1.2-1.1,1.5-1.6,1.5
			c-0.2,0-0.4-0.2-0.4-0.5c0-0.3,0-0.4,0.1-0.6L338.2,407.5"/>
		<path id="XMLID_7_" class="st1" d="M343.5,409.3c0-0.9-0.1-2.4-0.8-3.7c-0.7-1.5-1.7-2.2-1.9-2.2c-0.1,0-0.1,0-0.1,0.1
			c0,0,0,0.1,0.2,0.3c1.2,1.2,1.8,3.1,1.8,5.6c0,2-0.4,4.1-1.9,5.6c-0.2,0.1-0.2,0.2-0.2,0.2c0,0.1,0,0.1,0.1,0.1
			c0.1,0,1.2-0.8,1.9-2.3C343.4,411.6,343.5,410.3,343.5,409.3"/>
	</g>
	<g id="XMLID_3_">
		<g id="XMLID_67_">
			<line id="XMLID_190_" class="st2" x1="216" y1="576" x2="216" y2="570"/>
			<line id="XMLID_189_" class="st3" x1="216" y1="557.8" x2="216" y2="148.1"/>
			<line id="XMLID_188_" class="st2" x1="216" y1="142" x2="216" y2="136"/>
			<g id="XMLID_186_">
				<path id="XMLID_187_" d="M216,133c0.5,1.4,1.4,3.2,2.4,4.3l-2.4-0.9l-2.4,0.9C214.6,136.2,215.5,134.4,216,133z"/>
			</g>
		</g>
	</g>
	<g id="XMLID_11_">
		<g id="XMLID_60_">
			<line id="XMLID_64_" class="st4" x1="216" y1="576" x2="368.5" y2="576"/>
			<g id="XMLID_61_">
				<path id="XMLID_63_" d="M371.5,576c-1.4,0.5-3.2,1.4-4.3,2.4l0.9-2.4l-0.9-2.4C368.3,574.6,370.1,575.5,371.5,576z"/>
			</g>
		</g>
	</g>
	<g id="XMLID_15_">
		<defs>
			<rect id="XMLID_16_" x="345.1" y="596.2" width="4.1" height="8"/>
		</defs>
		<clipPath id="XMLID_29_">
			<use xlink:href="#XMLID_16_"  style="overflow:visible;"/>
		</clipPath>
		<path id="XMLID_17_" class="st5" d="M347.3,599h1.1c0.2,0,0.4,0,0.4-0.2c0-0.1-0.1-0.1-0.3-0.1h-1c0.4-1.7,0.5-1.9,0.5-2
			c0-0.2-0.1-0.3-0.3-0.3c0,0-0.4,0-0.5,0.4l-0.5,1.9h-1.1c-0.2,0-0.4,0-0.4,0.2c0,0.1,0.1,0.1,0.3,0.1h1c-0.9,3.4-0.9,3.6-0.9,3.8
			c0,0.6,0.5,1.1,1.1,1.1c1.2,0,1.9-1.7,1.9-1.8c0-0.1-0.1-0.1-0.1-0.1c-0.1,0-0.1,0-0.2,0.2c-0.5,1.2-1.1,1.5-1.5,1.5
			c-0.2,0-0.4-0.2-0.4-0.5c0-0.3,0-0.4,0.1-0.6L347.3,599"/>
	</g>
	<line id="XMLID_12_" class="st6" x1="288.1" y1="582.5" x2="288.1" y2="572.7"/>
	<line id="XMLID_13_" class="st6" x1="360.1" y1="581.6" x2="360.1" y2="571.8"/>
	<g id="XMLID_34_">
		<defs>
			<rect id="XMLID_35_" x="358.1" y="585" width="4" height="6"/>
		</defs>
		<clipPath id="XMLID_30_">
			<use xlink:href="#XMLID_35_"  style="overflow:visible;"/>
		</clipPath>
		<path id="XMLID_36_" class="st7" d="M359.2,590.1l0.8-0.8c1.2-1.1,1.7-1.5,1.7-2.3c0-0.9-0.7-1.5-1.7-1.5c-0.9,0-1.5,0.7-1.5,1.4
			c0,0.4,0.4,0.4,0.4,0.4c0.1,0,0.4-0.1,0.4-0.4c0-0.2-0.1-0.4-0.4-0.4c-0.1,0-0.1,0-0.1,0c0.2-0.5,0.6-0.8,1.1-0.8
			c0.7,0,1.1,0.6,1.1,1.3c0,0.6-0.4,1.3-0.8,1.8l-1.5,1.7c-0.1,0.1-0.1,0.1-0.1,0.3h2.9l0.2-1.4h-0.2c0,0.2-0.1,0.6-0.2,0.7
			c-0.1,0.1-0.6,0.1-0.8,0.1H359.2"/>
	</g>
	<g id="XMLID_19_">
		<defs>
			<rect id="XMLID_20_" x="286.6" y="585" width="3.1" height="6"/>
		</defs>
		<clipPath id="XMLID_31_">
			<use xlink:href="#XMLID_20_"  style="overflow:visible;"/>
		</clipPath>
		<path id="XMLID_33_" class="st8" d="M288.3,585.7c0-0.2,0-0.2-0.2-0.2c-0.5,0.5-1.2,0.5-1.4,0.5v0.2c0.2,0,0.6,0,1-0.2v4.1
			c0,0.3,0,0.4-0.7,0.4h-0.3v0.2c0.3,0,1,0,1.3,0c0.3,0,1,0,1.3,0v-0.2H289c-0.7,0-0.7-0.1-0.7-0.4V585.7"/>
	</g>
	<line id="XMLID_18_" class="st2" x1="210" y1="432" x2="221.5" y2="432"/>
	<line id="XMLID_40_" class="st2" x1="210" y1="504" x2="221.5" y2="504"/>
	<line id="XMLID_41_" class="st2" x1="210.2" y1="359.9" x2="221.8" y2="359.9"/>
	<g id="XMLID_42_">
		<defs>
			<rect id="XMLID_43_" x="202.9" y="501" width="3.1" height="6"/>
		</defs>
		<clipPath id="XMLID_32_">
			<use xlink:href="#XMLID_43_"  style="overflow:visible;"/>
		</clipPath>
		<path id="XMLID_44_" class="st9" d="M204.6,501.6c0-0.2,0-0.2-0.2-0.2c-0.5,0.5-1.2,0.5-1.4,0.5v0.2c0.2,0,0.6,0,1-0.2v4.1
			c0,0.3,0,0.4-0.7,0.4H203v0.2c0.3,0,1,0,1.3,0c0.3,0,1,0,1.3,0v-0.2h-0.3c-0.7,0-0.7-0.1-0.7-0.4V501.6"/>
	</g>
	<g id="XMLID_45_">
		<defs>
			<rect id="XMLID_46_" x="202.4" y="429" width="4" height="6"/>
		</defs>
		<clipPath id="XMLID_37_">
			<use xlink:href="#XMLID_46_"  style="overflow:visible;"/>
		</clipPath>
		<path id="XMLID_47_" class="st10" d="M203.5,434.1l0.8-0.8c1.2-1.1,1.7-1.5,1.7-2.3c0-0.9-0.7-1.5-1.7-1.5c-0.9,0-1.5,0.7-1.5,1.4
			c0,0.4,0.4,0.4,0.4,0.4c0.1,0,0.4-0.1,0.4-0.4c0-0.2-0.1-0.4-0.4-0.4c-0.1,0-0.1,0-0.1,0c0.2-0.5,0.6-0.8,1.1-0.8
			c0.7,0,1.1,0.6,1.1,1.3c0,0.6-0.4,1.3-0.8,1.8l-1.5,1.7c-0.1,0.1-0.1,0.1-0.1,0.3h2.9l0.2-1.4h-0.2c0,0.2-0.1,0.6-0.2,0.7
			c-0.1,0.1-0.6,0.1-0.8,0.1H203.5"/>
	</g>
	<g id="XMLID_48_">
		<defs>
			<rect id="XMLID_49_" x="202.4" y="356.5" width="4" height="6"/>
		</defs>
		<clipPath id="XMLID_38_">
			<use xlink:href="#XMLID_49_"  style="overflow:visible;"/>
		</clipPath>
		<path id="XMLID_50_" class="st11" d="M204.8,359.4c0.7-0.2,1.1-0.8,1.1-1.4c0-0.7-0.7-1.1-1.5-1.1c-0.8,0-1.4,0.5-1.4,1.1
			c0,0.3,0.2,0.4,0.4,0.4c0.2,0,0.4-0.2,0.4-0.4c0-0.4-0.4-0.4-0.5-0.4c0.2-0.4,0.8-0.5,1.1-0.5c0.3,0,0.8,0.2,0.8,0.9
			c0,0.1,0,0.6-0.2,0.9c-0.2,0.4-0.5,0.4-0.7,0.4c-0.1,0-0.3,0-0.3,0c-0.1,0-0.1,0-0.1,0.1c0,0.1,0.1,0.1,0.2,0.1h0.4
			c0.7,0,0.9,0.5,0.9,1.3c0,1.1-0.5,1.3-0.9,1.3c-0.3,0-0.9-0.1-1.2-0.6c0.3,0,0.5-0.1,0.5-0.4c0-0.3-0.2-0.4-0.4-0.4
			c-0.2,0-0.4,0.1-0.4,0.5c0,0.7,0.7,1.2,1.6,1.2c1,0,1.7-0.7,1.7-1.5C206.2,360.2,205.7,359.6,204.8,359.4"/>
	</g>
	<line id="XMLID_2_" class="st2" x1="210.2" y1="288" x2="221.8" y2="288"/>
	<line id="XMLID_21_" class="st2" x1="210.2" y1="216" x2="221.8" y2="216"/>
	<g id="XMLID_24_">
		<defs>
			<rect id="XMLID_25_" x="202.4" y="285" width="4" height="6"/>
		</defs>
		<clipPath id="XMLID_39_">
			<use xlink:href="#XMLID_25_"  style="overflow:visible;"/>
		</clipPath>
		<path id="XMLID_26_" class="st12" d="M204.9,289.1H203l1.9-3V289.1z M204.9,289.4v0.7c0,0.3,0,0.4-0.6,0.4h-0.2v0.2
			c0.3,0,0.7,0,1.1,0c0.3,0,0.8,0,1.1,0v-0.2h-0.2c-0.6,0-0.6-0.1-0.6-0.4v-0.7h0.8v-0.2h-0.8v-3.6c0-0.2,0-0.2-0.1-0.2
			c-0.1,0-0.1,0-0.2,0.1l-2.4,3.7v0.2H204.9z"/>
	</g>
	<g id="XMLID_53_">
		<defs>
			<rect id="XMLID_54_" x="202.4" y="213.5" width="4" height="6"/>
		</defs>
		<clipPath id="XMLID_65_">
			<use xlink:href="#XMLID_54_"  style="overflow:visible;"/>
		</clipPath>
		<path id="XMLID_62_" class="st13" d="M206.1,217.6c0-0.9-0.7-1.7-1.5-1.7c-0.4,0-0.7,0.1-1,0.4v-1.6c0.2,0,0.4,0.1,0.7,0.1
			c1,0,1.5-0.7,1.5-0.8c0,0,0-0.1-0.1-0.1c0,0,0,0-0.1,0c-0.2,0.1-0.5,0.2-1.1,0.2c-0.3,0-0.7-0.1-1.1-0.2c-0.1,0-0.1,0-0.1,0
			c-0.1,0-0.1,0.1-0.1,0.2v2.4c0,0.1,0,0.2,0.1,0.2c0.1,0,0.1,0,0.1-0.1c0.1-0.1,0.4-0.6,1-0.6c0.4,0,0.6,0.4,0.7,0.5
			c0.1,0.3,0.1,0.6,0.1,1c0,0.3,0,0.8-0.2,1.1c-0.2,0.3-0.5,0.5-0.9,0.5c-0.6,0-1-0.4-1.2-0.9c0,0,0,0,0.1,0c0.3,0,0.4-0.2,0.4-0.4
			s-0.1-0.4-0.4-0.4c-0.1,0-0.4,0.1-0.4,0.4c0,0.7,0.5,1.5,1.4,1.5C205.3,219.3,206.1,218.6,206.1,217.6"/>
	</g>
	<g id="XMLID_68_">
		<defs>
			<rect id="XMLID_69_" x="216.2" y="505.2" width="32.9" height="7.2"/>
		</defs>
		<clipPath id="XMLID_191_">
			<use xlink:href="#XMLID_69_"  style="overflow:visible;"/>
		</clipPath>
		<path id="XMLID_97_" class="st14" d="M218.4,508.7c0-0.2,0.2-0.7,0.6-0.7c0,0,0.2,0,0.3,0.1c-0.2,0-0.3,0.2-0.3,0.3
			c0,0.1,0.1,0.2,0.2,0.2c0.1,0,0.3-0.1,0.3-0.3c0-0.3-0.4-0.4-0.6-0.4c-0.3,0-0.6,0.3-0.6,0.5c-0.1-0.4-0.5-0.5-0.6-0.5
			c-0.6,0-1,0.8-1,0.9c0,0.1,0.1,0.1,0.1,0.1c0,0,0.1,0,0.1-0.1c0.2-0.6,0.6-0.8,0.8-0.8c0.1,0,0.3,0.1,0.3,0.4
			c0,0.2-0.1,0.6-0.3,1.4c-0.1,0.4-0.3,0.6-0.6,0.6c0,0-0.2,0-0.3-0.1c0.2,0,0.3-0.2,0.3-0.3c0-0.2-0.1-0.2-0.2-0.2
			c-0.2,0-0.3,0.2-0.3,0.3c0,0.3,0.3,0.4,0.6,0.4c0.4,0,0.6-0.4,0.6-0.5c0.1,0.2,0.3,0.5,0.6,0.5c0.6,0,1-0.8,1-0.9
			c0-0.1-0.1-0.1-0.1-0.1c-0.1,0-0.1,0-0.1,0.1c-0.2,0.6-0.6,0.8-0.8,0.8c-0.2,0-0.3-0.2-0.3-0.4c0-0.1,0-0.3,0.1-0.5L218.4,508.7"
			/>
		<path id="XMLID_96_" class="st14" d="M221.8,511.9c0,0,0,0-0.1-0.1c-0.7-0.8-0.9-1.9-0.9-2.8c0-1,0.2-2.1,1-2.8
			c0.1-0.1,0.1-0.1,0.1-0.1c0,0,0-0.1-0.1-0.1c-0.1,0-0.6,0.4-0.9,1.2c-0.3,0.7-0.4,1.3-0.4,1.8c0,0.5,0.1,1.2,0.4,1.9
			C221.2,511.6,221.7,512,221.8,511.9C221.8,512,221.8,511.9,221.8,511.9"/>
		<path id="XMLID_93_" class="st14" d="M223.6,510.5c-0.2,0-0.6-0.1-0.7-0.7c-0.1-0.4-0.1-0.9-0.1-1.3c0-0.4,0-0.8,0-1.1
			c0.1-0.7,0.6-0.8,0.7-0.8c0.2,0,0.6,0.1,0.7,0.7c0.1,0.3,0.1,0.8,0.1,1.2c0,0.4,0,0.9-0.1,1.2
			C224.2,510.3,223.9,510.5,223.6,510.5 M224.9,508.6c0-0.5,0-1-0.2-1.4c-0.3-0.6-0.8-0.7-1-0.7c-0.4,0-0.8,0.2-1,0.7
			c-0.2,0.4-0.2,0.9-0.2,1.4c0,0.4,0,1,0.3,1.4c0.3,0.5,0.7,0.6,1,0.6c0.3,0,0.8-0.1,1-0.7C224.8,509.5,224.9,509,224.9,508.6z"/>
		<path id="XMLID_92_" class="st14" d="M227,507h1.3c0.1,0,0.2,0,0.2-0.1c0-0.1-0.1-0.1-0.2-0.1H227v-1.3c0-0.1,0-0.2-0.1-0.2
			c-0.1,0-0.1,0.1-0.1,0.2v1.3h-1.3c-0.1,0-0.2,0-0.2,0.1c0,0.1,0.1,0.1,0.2,0.1h1.3v1.3c0,0.1,0,0.2,0.1,0.2c0.1,0,0.1-0.1,0.1-0.2
			V507"/>
		<path id="XMLID_91_" class="st14" d="M230.9,509c0-0.5-0.1-1.2-0.4-1.9c-0.4-0.7-0.9-1.1-0.9-1.1c0,0-0.1,0-0.1,0.1
			c0,0,0,0,0.1,0.1c0.6,0.6,0.9,1.5,0.9,2.8c0,1-0.2,2.1-1,2.8c-0.1,0.1-0.1,0.1-0.1,0.1c0,0,0,0.1,0.1,0.1c0.1,0,0.6-0.4,0.9-1.2
			C230.8,510.1,230.9,509.5,230.9,509"/>
		<path id="XMLID_74_" class="st14" d="M237.1,509.7c0.1,0,0.2,0,0.2-0.1c0-0.1-0.1-0.1-0.2-0.1h-3.6c-0.1,0-0.2,0-0.2,0.1
			c0,0.1,0.1,0.1,0.2,0.1H237.1 M237.1,508.5c0.1,0,0.2,0,0.2-0.1c0-0.1-0.1-0.1-0.2-0.1h-3.6c-0.1,0-0.2,0-0.2,0.1
			c0,0.1,0.1,0.1,0.2,0.1H237.1z"/>
		<path id="XMLID_73_" class="st14" d="M241.4,508.7c0-0.2,0.2-0.7,0.6-0.7c0,0,0.2,0,0.3,0.1c-0.2,0-0.3,0.2-0.3,0.3
			c0,0.1,0.1,0.2,0.2,0.2c0.1,0,0.3-0.1,0.3-0.3c0-0.3-0.4-0.4-0.6-0.4c-0.3,0-0.6,0.3-0.6,0.5c-0.1-0.4-0.5-0.5-0.6-0.5
			c-0.6,0-1,0.8-1,0.9c0,0.1,0.1,0.1,0.1,0.1c0,0,0.1,0,0.1-0.1c0.2-0.6,0.6-0.8,0.8-0.8c0.1,0,0.3,0.1,0.3,0.4
			c0,0.2-0.1,0.6-0.3,1.4c-0.1,0.4-0.3,0.6-0.6,0.6c0,0-0.2,0-0.3-0.1c0.1,0,0.3-0.2,0.3-0.3c0-0.2-0.1-0.2-0.2-0.2
			c-0.2,0-0.3,0.2-0.3,0.3c0,0.3,0.3,0.4,0.6,0.4c0.4,0,0.6-0.4,0.6-0.5c0.1,0.2,0.3,0.5,0.6,0.5c0.6,0,1-0.8,1-0.9
			c0-0.1-0.1-0.1-0.1-0.1c-0.1,0-0.1,0-0.1,0.1c-0.2,0.6-0.6,0.8-0.8,0.8c-0.2,0-0.3-0.2-0.3-0.4c0-0.1,0-0.3,0.1-0.5L241.4,508.7"
			/>
		<polyline id="XMLID_72_" class="st14" points="244.4,512 244.4,511.7 243.8,511.7 243.8,506.2 244.4,506.2 244.4,506 243.5,506 
			243.5,512 244.4,512 		"/>
		<path id="XMLID_71_" class="st14" d="M246.2,506.6c0-0.1,0-0.2-0.1-0.2c-0.4,0.4-0.9,0.4-1.1,0.4v0.2c0.1,0,0.5,0,0.8-0.2v3.1
			c0,0.2,0,0.3-0.6,0.3H245v0.2c0.2,0,0.7,0,1,0c0.2,0,0.8,0,1,0v-0.2h-0.2c-0.5,0-0.6-0.1-0.6-0.3V506.6"/>
		<polyline id="XMLID_70_" class="st14" points="248.4,506 247.6,506 247.6,506.2 248.1,506.2 248.1,511.7 247.6,511.7 247.6,512 
			248.4,512 248.4,506 		"/>
	</g>
	<g id="XMLID_98_">
		<defs>
			<rect id="XMLID_99_" x="272.8" y="350.8" width="32.9" height="7.2"/>
		</defs>
		<clipPath id="XMLID_192_">
			<use xlink:href="#XMLID_99_"  style="overflow:visible;"/>
		</clipPath>
		<path id="XMLID_111_" class="st15" d="M275,354.3c0-0.2,0.2-0.7,0.6-0.7c0,0,0.2,0,0.3,0.1c-0.2,0-0.3,0.2-0.3,0.3
			c0,0.1,0.1,0.2,0.2,0.2c0.1,0,0.3-0.1,0.3-0.3c0-0.3-0.4-0.4-0.6-0.4c-0.3,0-0.6,0.3-0.6,0.5c-0.1-0.4-0.5-0.5-0.6-0.5
			c-0.6,0-1,0.8-1,0.9c0,0.1,0.1,0.1,0.1,0.1c0,0,0.1,0,0.1-0.1c0.2-0.6,0.6-0.8,0.8-0.8c0.1,0,0.3,0.1,0.3,0.4
			c0,0.2-0.1,0.6-0.3,1.4c-0.1,0.4-0.3,0.6-0.6,0.6c0,0-0.2,0-0.3-0.1c0.1,0,0.3-0.2,0.3-0.3c0-0.2-0.1-0.2-0.2-0.2
			c-0.2,0-0.3,0.2-0.3,0.3c0,0.3,0.3,0.4,0.6,0.4c0.4,0,0.6-0.4,0.6-0.5c0.1,0.2,0.3,0.5,0.6,0.5c0.6,0,1-0.8,1-0.9
			c0-0.1-0.1-0.1-0.1-0.1c-0.1,0-0.1,0-0.1,0.1c-0.2,0.6-0.6,0.8-0.8,0.8c-0.2,0-0.3-0.2-0.3-0.4c0-0.1,0-0.3,0.1-0.5L275,354.3"/>
		<path id="XMLID_110_" class="st15" d="M278.3,357.5c0,0,0,0-0.1-0.1c-0.7-0.8-0.9-1.9-0.9-2.8c0-1,0.2-2.1,1-2.8
			c0.1-0.1,0.1-0.1,0.1-0.1c0,0,0-0.1-0.1-0.1c-0.1,0-0.6,0.4-0.9,1.2c-0.3,0.7-0.4,1.3-0.4,1.8c0,0.5,0.1,1.2,0.4,1.9
			C277.7,357.2,278.2,357.6,278.3,357.5C278.3,357.6,278.3,357.6,278.3,357.5"/>
		<path id="XMLID_109_" class="st15" d="M280.4,352.3c0-0.1,0-0.2-0.1-0.2c-0.4,0.4-0.9,0.4-1.1,0.4v0.2c0.1,0,0.5,0,0.8-0.2v3.1
			c0,0.2,0,0.3-0.6,0.3h-0.2v0.2c0.2,0,0.7,0,1,0c0.2,0,0.8,0,1,0v-0.2H281c-0.5,0-0.6-0.1-0.6-0.3V352.3"/>
		<path id="XMLID_108_" class="st15" d="M283.6,352.6h1.3c0.1,0,0.2,0,0.2-0.1c0-0.1-0.1-0.1-0.2-0.1h-1.3v-1.3c0-0.1,0-0.2-0.1-0.2
			c-0.1,0-0.1,0.1-0.1,0.2v1.3h-1.3c-0.1,0-0.2,0-0.2,0.1c0,0.1,0.1,0.1,0.2,0.1h1.3v1.3c0,0.1,0,0.2,0.1,0.2c0.1,0,0.1-0.1,0.1-0.2
			V352.6"/>
		<path id="XMLID_107_" class="st15" d="M287.4,354.6c0-0.5-0.1-1.2-0.4-1.9c-0.4-0.7-0.9-1.1-0.9-1.1c0,0-0.1,0-0.1,0.1
			c0,0,0,0,0.1,0.1c0.6,0.6,0.9,1.5,0.9,2.8c0,1-0.2,2.1-1,2.8c-0.1,0.1-0.1,0.1-0.1,0.1c0,0,0,0.1,0.1,0.1c0.1,0,0.6-0.4,0.9-1.2
			C287.3,355.8,287.4,355.1,287.4,354.6"/>
		<path id="XMLID_104_" class="st15" d="M293.7,355.3c0.1,0,0.2,0,0.2-0.1c0-0.1-0.1-0.1-0.2-0.1h-3.6c-0.1,0-0.2,0-0.2,0.1
			c0,0.1,0.1,0.1,0.2,0.1H293.7 M293.7,354.1c0.1,0,0.2,0,0.2-0.1c0-0.1-0.1-0.1-0.2-0.1h-3.6c-0.1,0-0.2,0-0.2,0.1
			c0,0.1,0.1,0.1,0.2,0.1H293.7z"/>
		<path id="XMLID_103_" class="st15" d="M298,354.3c0-0.2,0.2-0.7,0.6-0.7c0,0,0.2,0,0.3,0.1c-0.2,0-0.3,0.2-0.3,0.3
			c0,0.1,0.1,0.2,0.2,0.2c0.1,0,0.3-0.1,0.3-0.3c0-0.3-0.4-0.4-0.6-0.4c-0.3,0-0.6,0.3-0.6,0.5c-0.1-0.4-0.5-0.5-0.6-0.5
			c-0.6,0-1,0.8-1,0.9c0,0.1,0.1,0.1,0.1,0.1c0,0,0.1,0,0.1-0.1c0.2-0.6,0.6-0.8,0.8-0.8c0.1,0,0.3,0.1,0.3,0.4
			c0,0.2-0.1,0.6-0.3,1.4c-0.1,0.4-0.3,0.6-0.6,0.6c0,0-0.2,0-0.3-0.1c0.1,0,0.3-0.2,0.3-0.3c0-0.2-0.1-0.2-0.2-0.2
			c-0.2,0-0.3,0.2-0.3,0.3c0,0.3,0.3,0.4,0.6,0.4c0.4,0,0.6-0.4,0.6-0.5c0.1,0.2,0.3,0.5,0.6,0.5c0.6,0,1-0.8,1-0.9
			c0-0.1-0.1-0.1-0.1-0.1c-0.1,0-0.1,0-0.1,0.1c-0.2,0.6-0.6,0.8-0.8,0.8c-0.2,0-0.3-0.2-0.3-0.4c0-0.1,0-0.3,0.1-0.5L298,354.3"/>
		<polyline id="XMLID_102_" class="st15" points="300.9,357.6 300.9,357.3 300.3,357.3 300.3,351.8 300.9,351.8 300.9,351.6 
			300.1,351.6 300.1,357.6 300.9,357.6 		"/>
		<path id="XMLID_101_" class="st15" d="M301.7,355.6l0.6-0.6c0.9-0.8,1.3-1.1,1.3-1.7c0-0.7-0.5-1.2-1.3-1.2
			c-0.7,0-1.1,0.5-1.1,1.1c0,0.3,0.3,0.3,0.3,0.3c0.1,0,0.3-0.1,0.3-0.3c0-0.2-0.1-0.3-0.3-0.3c0,0-0.1,0-0.1,0
			c0.1-0.4,0.5-0.6,0.8-0.6c0.5,0,0.8,0.5,0.8,1c0,0.5-0.3,0.9-0.6,1.3l-1.1,1.3c-0.1,0.1-0.1,0.1-0.1,0.2h2.2l0.2-1h-0.1
			c0,0.2-0.1,0.4-0.1,0.5c0,0-0.4,0-0.6,0H301.7"/>
		<polyline id="XMLID_100_" class="st15" points="304.9,351.6 304.1,351.6 304.1,351.8 304.7,351.8 304.7,357.3 304.1,357.3 
			304.1,357.6 304.9,357.6 304.9,351.6 		"/>
	</g>
	<g id="XMLID_112_">
		<defs>
			<rect id="XMLID_113_" x="271.1" y="505.8" width="14.9" height="6.6"/>
		</defs>
		<clipPath id="XMLID_193_">
			<use xlink:href="#XMLID_113_"  style="overflow:visible;"/>
		</clipPath>
		<path id="XMLID_118_" class="st16" d="M273,508.7c0-0.2,0.2-0.7,0.6-0.7c0,0,0.2,0,0.3,0.1c-0.2,0-0.3,0.2-0.3,0.3
			c0,0.1,0.1,0.2,0.2,0.2c0.1,0,0.3-0.1,0.3-0.3c0-0.3-0.4-0.4-0.6-0.4c-0.3,0-0.6,0.3-0.6,0.5c-0.1-0.4-0.5-0.5-0.6-0.5
			c-0.6,0-1,0.8-1,0.9c0,0.1,0.1,0.1,0.1,0.1c0,0,0.1,0,0.1-0.1c0.2-0.6,0.6-0.8,0.8-0.8c0.1,0,0.3,0.1,0.3,0.4
			c0,0.2-0.1,0.6-0.3,1.4c-0.1,0.4-0.3,0.6-0.6,0.6c0,0-0.2,0-0.3-0.1c0.1,0,0.3-0.2,0.3-0.3c0-0.2-0.1-0.2-0.2-0.2
			c-0.2,0-0.3,0.2-0.3,0.3c0,0.3,0.3,0.4,0.6,0.4c0.4,0,0.6-0.4,0.6-0.5c0.1,0.2,0.3,0.5,0.6,0.5c0.6,0,1-0.8,1-0.9
			c0-0.1-0.1-0.1-0.1-0.1c-0.1,0-0.1,0-0.1,0.1c-0.2,0.6-0.6,0.8-0.8,0.8c-0.2,0-0.3-0.2-0.3-0.4c0-0.1,0-0.3,0.1-0.5L273,508.7"/>
		<path id="XMLID_117_" class="st16" d="M276.4,511.9c0,0,0,0-0.1-0.1c-0.7-0.8-0.9-1.9-0.9-2.8c0-1,0.2-2.1,1-2.8
			c0.1-0.1,0.1-0.1,0.1-0.1c0,0,0-0.1-0.1-0.1c-0.1,0-0.6,0.4-0.9,1.2c-0.3,0.7-0.4,1.3-0.4,1.8c0,0.5,0.1,1.2,0.4,1.9
			C275.8,511.6,276.3,512,276.4,511.9C276.4,512,276.4,511.9,276.4,511.9"/>
		<path id="XMLID_116_" class="st16" d="M278.5,506.6c0-0.1,0-0.2-0.1-0.2c-0.4,0.4-0.9,0.4-1.1,0.4v0.2c0.1,0,0.5,0,0.8-0.2v3.1
			c0,0.2,0,0.3-0.6,0.3h-0.2v0.2c0.2,0,0.7,0,1,0c0.2,0,0.8,0,1,0v-0.2h-0.2c-0.5,0-0.6-0.1-0.6-0.3V506.6"/>
		<path id="XMLID_115_" class="st16" d="M282.8,507c0.1,0,0.2,0,0.2-0.1c0-0.1-0.1-0.1-0.2-0.1h-2.5c-0.1,0-0.2,0-0.2,0.1
			c0,0.1,0.1,0.1,0.2,0.1H282.8"/>
		<path id="XMLID_114_" class="st16" d="M285.5,509c0-0.5-0.1-1.2-0.4-1.9c-0.4-0.7-0.9-1.1-0.9-1.1c0,0-0.1,0-0.1,0.1
			c0,0,0,0,0.1,0.1c0.6,0.6,0.9,1.5,0.9,2.8c0,1-0.2,2.1-1,2.8c-0.1,0.1-0.1,0.1-0.1,0.1c0,0,0,0.1,0.1,0.1c0.1,0,0.6-0.4,0.9-1.2
			C285.4,510.1,285.5,509.5,285.5,509"/>
	</g>
	<g id="XMLID_84_">
		<defs>
			<rect id="XMLID_85_" x="342.1" y="350.8" width="14.9" height="6.6"/>
		</defs>
		<clipPath id="XMLID_194_">
			<use xlink:href="#XMLID_85_"  style="overflow:visible;"/>
		</clipPath>
		<path id="XMLID_90_" class="st17" d="M344,353.7c0-0.2,0.2-0.7,0.6-0.7c0,0,0.2,0,0.3,0.1c-0.2,0-0.3,0.2-0.3,0.3
			c0,0.1,0.1,0.2,0.2,0.2c0.1,0,0.3-0.1,0.3-0.3c0-0.3-0.4-0.4-0.6-0.4c-0.3,0-0.6,0.3-0.6,0.5c-0.1-0.4-0.5-0.5-0.6-0.5
			c-0.6,0-1,0.8-1,0.9c0,0.1,0.1,0.1,0.1,0.1c0,0,0.1,0,0.1-0.1c0.2-0.6,0.6-0.8,0.8-0.8c0.1,0,0.3,0.1,0.3,0.4
			c0,0.2-0.1,0.6-0.3,1.4c-0.1,0.4-0.3,0.6-0.6,0.6c0,0-0.2,0-0.3-0.1c0.1,0,0.3-0.2,0.3-0.3c0-0.2-0.1-0.2-0.2-0.2
			c-0.2,0-0.3,0.2-0.3,0.3c0,0.3,0.3,0.4,0.6,0.4c0.4,0,0.6-0.4,0.6-0.5c0.1,0.2,0.3,0.5,0.6,0.5c0.6,0,1-0.8,1-0.9
			c0-0.1-0.1-0.1-0.1-0.1c-0.1,0-0.1,0-0.1,0.1c-0.2,0.6-0.6,0.8-0.8,0.8c-0.2,0-0.3-0.2-0.3-0.4c0-0.1,0-0.3,0.1-0.5L344,353.7"/>
		<path id="XMLID_89_" class="st17" d="M347.4,356.9c0,0,0,0-0.1-0.1c-0.7-0.8-0.9-1.9-0.9-2.8c0-1,0.2-2.1,1-2.8
			c0.1-0.1,0.1-0.1,0.1-0.1c0,0,0-0.1-0.1-0.1c-0.1,0-0.6,0.4-0.9,1.2c-0.3,0.7-0.4,1.3-0.4,1.8c0,0.5,0.1,1.2,0.4,1.9
			C346.8,356.6,347.3,357,347.4,356.9C347.4,357,347.4,356.9,347.4,356.9"/>
		<path id="XMLID_88_" class="st17" d="M348.5,355l0.6-0.6c0.9-0.8,1.3-1.1,1.3-1.7c0-0.7-0.5-1.2-1.3-1.2c-0.7,0-1.1,0.5-1.1,1.1
			c0,0.3,0.3,0.3,0.3,0.3c0.1,0,0.3-0.1,0.3-0.3c0-0.2-0.1-0.3-0.3-0.3c0,0-0.1,0-0.1,0c0.1-0.4,0.5-0.6,0.8-0.6
			c0.5,0,0.8,0.5,0.8,1c0,0.5-0.3,0.9-0.6,1.3l-1.1,1.3c-0.1,0.1-0.1,0.1-0.1,0.2h2.2l0.2-1h-0.2c0,0.2-0.1,0.4-0.1,0.5
			c0,0-0.4,0-0.6,0H348.5"/>
		<path id="XMLID_87_" class="st17" d="M353.8,352c0.1,0,0.2,0,0.2-0.1c0-0.1-0.1-0.1-0.2-0.1h-2.5c-0.1,0-0.2,0-0.2,0.1
			c0,0.1,0.1,0.1,0.2,0.1H353.8"/>
		<path id="XMLID_86_" class="st17" d="M356.5,354c0-0.5-0.1-1.2-0.4-1.9c-0.4-0.7-0.9-1.1-0.9-1.1c0,0-0.1,0-0.1,0.1
			c0,0,0,0,0.1,0.1c0.6,0.6,0.9,1.5,0.9,2.8c0,1-0.2,2.1-1,2.8c-0.1,0.1-0.1,0.1-0.1,0.1c0,0,0,0.1,0.1,0.1c0.1,0,0.6-0.4,0.9-1.2
			C356.4,355.1,356.5,354.5,356.5,354"/>
	</g>
	<g id="XMLID_77_">
		<defs>
			<rect id="XMLID_78_" x="324.2" y="142.2" width="32.9" height="7.2"/>
		</defs>
		<clipPath id="XMLID_195_">
			<use xlink:href="#XMLID_78_"  style="overflow:visible;"/>
		</clipPath>
		<path id="XMLID_125_" class="st18" d="M326.4,145.7c0-0.2,0.2-0.7,0.6-0.7c0,0,0.2,0,0.3,0.1c-0.2,0-0.3,0.2-0.3,0.3
			c0,0.1,0.1,0.2,0.2,0.2c0.1,0,0.3-0.1,0.3-0.3c0-0.3-0.4-0.4-0.6-0.4c-0.3,0-0.6,0.3-0.6,0.5c-0.1-0.4-0.5-0.5-0.6-0.5
			c-0.6,0-1,0.8-1,0.9c0,0.1,0.1,0.1,0.1,0.1c0,0,0.1,0,0.1-0.1c0.2-0.6,0.6-0.8,0.8-0.8c0.1,0,0.3,0.1,0.3,0.4
			c0,0.2-0.1,0.6-0.3,1.4c-0.1,0.4-0.3,0.6-0.6,0.6c0,0-0.2,0-0.3-0.1c0.1,0,0.3-0.2,0.3-0.3c0-0.2-0.1-0.2-0.2-0.2
			c-0.2,0-0.3,0.2-0.3,0.3c0,0.3,0.3,0.4,0.6,0.4c0.4,0,0.6-0.4,0.6-0.5c0.1,0.2,0.3,0.5,0.6,0.5c0.6,0,1-0.8,1-0.9
			c0-0.1-0.1-0.1-0.1-0.1c-0.1,0-0.1,0-0.1,0.1c-0.2,0.6-0.6,0.8-0.8,0.8c-0.2,0-0.3-0.2-0.3-0.4c0-0.1,0-0.3,0.1-0.5L326.4,145.7"
			/>
		<path id="XMLID_124_" class="st18" d="M329.8,148.9c0,0,0,0-0.1-0.1c-0.7-0.8-0.9-1.9-0.9-2.8c0-1,0.2-2.1,1-2.8
			c0.1-0.1,0.1-0.1,0.1-0.1c0,0,0-0.1-0.1-0.1c-0.1,0-0.6,0.4-0.9,1.2c-0.3,0.7-0.4,1.3-0.4,1.8c0,0.5,0.1,1.2,0.4,1.9
			C329.2,148.6,329.7,149,329.8,148.9C329.8,149,329.8,148.9,329.8,148.9"/>
		<path id="XMLID_123_" class="st18" d="M330.9,147l0.6-0.6c0.9-0.8,1.3-1.1,1.3-1.7c0-0.7-0.5-1.2-1.3-1.2c-0.7,0-1.1,0.5-1.1,1.1
			c0,0.3,0.3,0.3,0.3,0.3c0.1,0,0.3-0.1,0.3-0.3c0-0.2-0.1-0.3-0.3-0.3c0,0-0.1,0-0.1,0c0.1-0.4,0.5-0.6,0.8-0.6
			c0.5,0,0.8,0.5,0.8,1c0,0.5-0.3,0.9-0.6,1.3l-1.1,1.3c-0.1,0.1-0.1,0.1-0.1,0.2h2.2l0.2-1h-0.1c0,0.2-0.1,0.4-0.1,0.5
			c0,0-0.4,0-0.6,0H330.9"/>
		<path id="XMLID_122_" class="st18" d="M335,144h1.3c0.1,0,0.2,0,0.2-0.1c0-0.1-0.1-0.1-0.2-0.1H335v-1.3c0-0.1,0-0.2-0.1-0.2
			c-0.1,0-0.1,0.1-0.1,0.2v1.3h-1.3c-0.1,0-0.2,0-0.2,0.1c0,0.1,0.1,0.1,0.2,0.1h1.3v1.3c0,0.1,0,0.2,0.1,0.2c0.1,0,0.1-0.1,0.1-0.2
			V144"/>
		<path id="XMLID_121_" class="st18" d="M338.9,146c0-0.5-0.1-1.2-0.4-1.9c-0.4-0.7-0.9-1.1-0.9-1.1c0,0-0.1,0-0.1,0.1
			c0,0,0,0,0.1,0.1c0.6,0.6,0.9,1.5,0.9,2.8c0,1-0.2,2.1-1,2.8c-0.1,0.1-0.1,0.1-0.1,0.1c0,0,0,0.1,0.1,0.1c0.1,0,0.6-0.4,0.9-1.2
			C338.8,147.1,338.9,146.5,338.9,146"/>
		<path id="XMLID_83_" class="st18" d="M345.1,146.7c0.1,0,0.2,0,0.2-0.1c0-0.1-0.1-0.1-0.2-0.1h-3.6c-0.1,0-0.2,0-0.2,0.1
			c0,0.1,0.1,0.1,0.2,0.1H345.1 M345.1,145.5c0.1,0,0.2,0,0.2-0.1c0-0.1-0.1-0.1-0.2-0.1h-3.6c-0.1,0-0.2,0-0.2,0.1
			c0,0.1,0.1,0.1,0.2,0.1H345.1z"/>
		<path id="XMLID_82_" class="st18" d="M349.4,145.7c0-0.2,0.2-0.7,0.6-0.7c0,0,0.2,0,0.3,0.1c-0.2,0-0.3,0.2-0.3,0.3
			c0,0.1,0.1,0.2,0.2,0.2c0.1,0,0.3-0.1,0.3-0.3c0-0.3-0.4-0.4-0.6-0.4c-0.3,0-0.6,0.3-0.6,0.5c-0.1-0.4-0.5-0.5-0.6-0.5
			c-0.6,0-1,0.8-1,0.9c0,0.1,0.1,0.1,0.1,0.1c0,0,0.1,0,0.1-0.1c0.2-0.6,0.6-0.8,0.8-0.8c0.1,0,0.3,0.1,0.3,0.4
			c0,0.2-0.1,0.6-0.3,1.4c-0.1,0.4-0.3,0.6-0.6,0.6c0,0-0.2,0-0.3-0.1c0.1,0,0.3-0.2,0.3-0.3c0-0.2-0.1-0.2-0.2-0.2
			c-0.2,0-0.3,0.2-0.3,0.3c0,0.3,0.3,0.4,0.6,0.4c0.4,0,0.6-0.4,0.6-0.5c0.1,0.2,0.3,0.5,0.6,0.5c0.6,0,1-0.8,1-0.9
			c0-0.1-0.1-0.1-0.1-0.1c-0.1,0-0.1,0-0.1,0.1c-0.2,0.6-0.6,0.8-0.8,0.8c-0.2,0-0.3-0.2-0.3-0.4c0-0.1,0-0.3,0.1-0.5L349.4,145.7"
			/>
		<polyline id="XMLID_81_" class="st18" points="352.4,149 352.4,148.7 351.8,148.7 351.8,143.2 352.4,143.2 352.4,143 351.5,143 
			351.5,149 352.4,149 		"/>
		<path id="XMLID_80_" class="st18" d="M354.2,145.4c0.5-0.2,0.8-0.6,0.8-1c0-0.5-0.5-0.8-1.1-0.8c-0.6,0-1.1,0.4-1.1,0.8
			c0,0.2,0.1,0.3,0.3,0.3c0.2,0,0.3-0.1,0.3-0.3c0-0.3-0.3-0.3-0.4-0.3c0.2-0.3,0.6-0.4,0.8-0.4c0.2,0,0.6,0.1,0.6,0.7
			c0,0.1,0,0.4-0.2,0.7c-0.2,0.3-0.4,0.3-0.5,0.3c0,0-0.2,0-0.2,0c0,0-0.1,0-0.1,0.1c0,0.1,0,0.1,0.1,0.1h0.3c0.5,0,0.7,0.4,0.7,1
			c0,0.8-0.4,1-0.7,1c-0.3,0-0.7-0.1-0.9-0.5c0.2,0,0.4-0.1,0.4-0.3c0-0.2-0.2-0.3-0.3-0.3c-0.1,0-0.3,0.1-0.3,0.3
			c0,0.5,0.6,0.9,1.2,0.9c0.7,0,1.3-0.5,1.3-1.1C355.2,146,354.8,145.5,354.2,145.4"/>
		<polyline id="XMLID_79_" class="st18" points="356.4,143 355.6,143 355.6,143.2 356.1,143.2 356.1,148.7 355.6,148.7 355.6,149 
			356.4,149 356.4,143 		"/>
	</g>
	<polyline id="XMLID_51_" class="st19" points="216,504 287.8,504 287.8,359.5 359.2,359.5 359.2,143 	"/>
	<polyline id="XMLID_23_" class="st20" points="216,576 288,576 288,432.3 359.3,432.3 359.3,216.6 	"/>
	<g id="XMLID_126_">
		<path id="XMLID_143_" d="M218.3,580.7c0-0.2,0.2-0.7,0.6-0.7c0,0,0.2,0,0.3,0.1c-0.2,0-0.3,0.2-0.3,0.3c0,0.1,0.1,0.2,0.2,0.2
			c0.1,0,0.3-0.1,0.3-0.3c0-0.3-0.4-0.4-0.6-0.4c-0.3,0-0.6,0.3-0.6,0.5c-0.1-0.4-0.5-0.5-0.6-0.5c-0.6,0-1,0.8-1,0.9
			c0,0.1,0.1,0.1,0.1,0.1c0,0,0.1,0,0.1-0.1c0.2-0.6,0.6-0.8,0.8-0.8c0.1,0,0.3,0.1,0.3,0.4c0,0.2-0.1,0.6-0.3,1.4
			c-0.1,0.4-0.3,0.6-0.6,0.6c0,0-0.2,0-0.3-0.1c0.1,0,0.3-0.2,0.3-0.3c0-0.2-0.1-0.2-0.2-0.2c-0.2,0-0.3,0.2-0.3,0.3
			c0,0.3,0.3,0.4,0.6,0.4c0.4,0,0.6-0.4,0.6-0.5c0.1,0.2,0.3,0.5,0.6,0.5c0.6,0,1-0.8,1-0.9c0-0.1-0.1-0.1-0.1-0.1
			c-0.1,0-0.1,0-0.1,0.1c-0.2,0.6-0.6,0.8-0.8,0.8c-0.2,0-0.3-0.2-0.3-0.4c0-0.1,0-0.3,0.1-0.5L218.3,580.7"/>
		<path id="XMLID_142_" d="M221.7,583.9c0,0,0,0-0.1-0.1c-0.7-0.8-0.9-1.9-0.9-2.8c0-1,0.2-2.1,1-2.8c0.1-0.1,0.1-0.1,0.1-0.1
			c0,0,0-0.1-0.1-0.1c-0.1,0-0.6,0.4-0.9,1.2c-0.3,0.7-0.4,1.3-0.4,1.8c0,0.5,0.1,1.2,0.4,1.9C221,583.6,221.6,584,221.7,583.9
			C221.6,584,221.7,583.9,221.7,583.9"/>
		<path id="XMLID_139_" d="M223.6,582.5c-0.2,0-0.6-0.1-0.7-0.7c-0.1-0.4-0.1-0.9-0.1-1.3c0-0.4,0-0.8,0-1.1
			c0.1-0.7,0.6-0.8,0.7-0.8c0.2,0,0.6,0.1,0.7,0.7c0.1,0.3,0.1,0.8,0.1,1.2c0,0.4,0,0.9-0.1,1.2
			C224.2,582.3,223.8,582.5,223.6,582.5 M224.8,580.6c0-0.5,0-1-0.2-1.4c-0.3-0.6-0.8-0.7-1-0.7c-0.4,0-0.8,0.2-1,0.7
			c-0.2,0.4-0.2,0.9-0.2,1.4c0,0.4,0,1,0.3,1.4c0.3,0.5,0.7,0.6,1,0.6c0.3,0,0.8-0.1,1-0.7C224.8,581.5,224.8,581,224.8,580.6z"/>
		<path id="XMLID_138_" d="M228.2,579c0.1,0,0.2,0,0.2-0.1c0-0.1-0.1-0.1-0.2-0.1h-2.5c-0.1,0-0.2,0-0.2,0.1c0,0.1,0.1,0.1,0.2,0.1
			H228.2"/>
		<path id="XMLID_137_" d="M230.8,581c0-0.5-0.1-1.2-0.4-1.9c-0.4-0.7-0.9-1.1-0.9-1.1c0,0-0.1,0-0.1,0.1c0,0,0,0,0.1,0.1
			c0.6,0.6,0.9,1.5,0.9,2.8c0,1-0.2,2.1-1,2.8c-0.1,0.1-0.1,0.1-0.1,0.1c0,0,0,0.1,0.1,0.1c0.1,0,0.6-0.4,0.9-1.2
			C230.7,582.1,230.8,581.5,230.8,581"/>
		<path id="XMLID_134_" d="M237.2,581.7c0.1,0,0.2,0,0.2-0.1c0-0.1-0.1-0.1-0.2-0.1h-3.6c-0.1,0-0.2,0-0.2,0.1
			c0,0.1,0.1,0.1,0.2,0.1H237.2 M237.2,580.5c0.1,0,0.2,0,0.2-0.1c0-0.1-0.1-0.1-0.2-0.1h-3.6c-0.1,0-0.2,0-0.2,0.1
			c0,0.1,0.1,0.1,0.2,0.1H237.2z"/>
		<path id="XMLID_133_" d="M241.4,580.7c0-0.2,0.2-0.7,0.6-0.7c0,0,0.2,0,0.3,0.1c-0.2,0-0.3,0.2-0.3,0.3c0,0.1,0.1,0.2,0.2,0.2
			c0.1,0,0.3-0.1,0.3-0.3c0-0.3-0.4-0.4-0.6-0.4c-0.3,0-0.6,0.3-0.6,0.5c-0.1-0.4-0.5-0.5-0.6-0.5c-0.6,0-1,0.8-1,0.9
			c0,0.1,0.1,0.1,0.1,0.1c0,0,0.1,0,0.1-0.1c0.2-0.6,0.6-0.8,0.8-0.8c0.1,0,0.3,0.1,0.3,0.4c0,0.2-0.1,0.6-0.3,1.4
			c-0.1,0.4-0.3,0.6-0.6,0.6c0,0-0.2,0-0.3-0.1c0.2,0,0.3-0.2,0.3-0.3c0-0.2-0.1-0.2-0.2-0.2c-0.2,0-0.3,0.2-0.3,0.3
			c0,0.3,0.3,0.4,0.6,0.4c0.4,0,0.6-0.4,0.6-0.5c0.1,0.2,0.3,0.5,0.6,0.5c0.6,0,1-0.8,1-0.9c0-0.1-0.1-0.1-0.1-0.1
			c-0.1,0-0.1,0-0.1,0.1c-0.2,0.6-0.6,0.8-0.8,0.8c-0.2,0-0.3-0.2-0.3-0.4c0-0.1,0-0.3,0.1-0.5L241.4,580.7"/>
		<polyline id="XMLID_132_" points="244.3,584 244.3,583.7 243.7,583.7 243.7,578.2 244.3,578.2 244.3,578 243.5,578 243.5,584 
			244.3,584 		"/>
		<path id="XMLID_129_" d="M246,582.5c-0.2,0-0.6-0.1-0.7-0.7c-0.1-0.4-0.1-0.9-0.1-1.3c0-0.4,0-0.8,0-1.1c0.1-0.7,0.6-0.8,0.7-0.8
			c0.2,0,0.6,0.1,0.7,0.7c0.1,0.3,0.1,0.8,0.1,1.2c0,0.4,0,0.9-0.1,1.2C246.6,582.3,246.2,582.5,246,582.5 M247.2,580.6
			c0-0.5,0-1-0.2-1.4c-0.3-0.6-0.8-0.7-1-0.7c-0.4,0-0.8,0.2-1,0.7c-0.2,0.4-0.2,0.9-0.2,1.4c0,0.4,0,1,0.3,1.4
			c0.3,0.5,0.7,0.6,1,0.6c0.3,0,0.8-0.1,1-0.7C247.2,581.5,247.2,581,247.2,580.6z"/>
		<polyline id="XMLID_128_" points="248.4,578 247.6,578 247.6,578.2 248.2,578.2 248.2,583.7 247.6,583.7 247.6,584 248.4,584 
			248.4,578 		"/>
		<line id="XMLID_127_" class="st21" x1="249.1" y1="577.8" x2="216.2" y2="577.8"/>
	</g>
	<g id="XMLID_144_">
		<defs>
			<rect id="XMLID_145_" x="291.2" y="435" width="32.9" height="7.2"/>
		</defs>
		<clipPath id="XMLID_196_">
			<use xlink:href="#XMLID_145_"  style="overflow:visible;"/>
		</clipPath>
		<path id="XMLID_157_" class="st22" d="M293.4,438.4c0-0.2,0.2-0.7,0.6-0.7c0,0,0.2,0,0.3,0.1c-0.2,0-0.3,0.2-0.3,0.3
			c0,0.1,0.1,0.2,0.2,0.2c0.1,0,0.3-0.1,0.3-0.3c0-0.3-0.4-0.4-0.6-0.4c-0.3,0-0.6,0.3-0.6,0.5c-0.1-0.4-0.5-0.5-0.6-0.5
			c-0.6,0-1,0.8-1,0.9c0,0.1,0.1,0.1,0.1,0.1c0,0,0.1,0,0.1-0.1c0.2-0.6,0.6-0.8,0.8-0.8c0.1,0,0.3,0.1,0.3,0.4
			c0,0.2-0.1,0.6-0.3,1.4c-0.1,0.4-0.3,0.6-0.6,0.6c0,0-0.2,0-0.3-0.1c0.1,0,0.3-0.2,0.3-0.3c0-0.2-0.1-0.2-0.2-0.2
			c-0.2,0-0.3,0.2-0.3,0.3c0,0.3,0.3,0.4,0.6,0.4c0.4,0,0.6-0.4,0.6-0.5c0.1,0.2,0.3,0.5,0.6,0.5c0.6,0,1-0.8,1-0.9
			c0-0.1-0.1-0.1-0.1-0.1c-0.1,0-0.1,0-0.1,0.1c-0.2,0.6-0.6,0.8-0.8,0.8c-0.2,0-0.3-0.2-0.3-0.4c0-0.1,0-0.3,0.1-0.5L293.4,438.4"
			/>
		<path id="XMLID_156_" class="st22" d="M296.8,441.7c0,0,0,0-0.1-0.1c-0.7-0.8-0.9-1.9-0.9-2.8c0-1,0.2-2.1,1-2.8
			c0.1-0.1,0.1-0.1,0.1-0.1c0,0,0-0.1-0.1-0.1c-0.1,0-0.6,0.4-0.9,1.2c-0.3,0.7-0.4,1.3-0.4,1.8c0,0.5,0.1,1.2,0.4,1.9
			C296.2,441.3,296.7,441.7,296.8,441.7C296.8,441.7,296.8,441.7,296.8,441.7"/>
		<path id="XMLID_155_" class="st22" d="M298.9,436.4c0-0.1,0-0.2-0.1-0.2c-0.4,0.4-0.9,0.4-1.1,0.4v0.2c0.1,0,0.5,0,0.8-0.2v3.1
			c0,0.2,0,0.3-0.6,0.3h-0.2v0.2c0.2,0,0.7,0,1,0c0.2,0,0.8,0,1,0v-0.2h-0.2c-0.5,0-0.6-0.1-0.6-0.3V436.4"/>
		<path id="XMLID_154_" class="st22" d="M302,436.8h1.3c0.1,0,0.2,0,0.2-0.1c0-0.1-0.1-0.1-0.2-0.1H302v-1.3c0-0.1,0-0.2-0.1-0.2
			c-0.1,0-0.1,0.1-0.1,0.2v1.3h-1.3c-0.1,0-0.2,0-0.2,0.1c0,0.1,0.1,0.1,0.2,0.1h1.3v1.3c0,0.1,0,0.2,0.1,0.2c0.1,0,0.1-0.1,0.1-0.2
			V436.8"/>
		<path id="XMLID_153_" class="st22" d="M305.9,438.7c0-0.5-0.1-1.2-0.4-1.9c-0.4-0.7-0.9-1.1-0.9-1.1c0,0-0.1,0-0.1,0.1
			c0,0,0,0,0.1,0.1c0.6,0.6,0.9,1.5,0.9,2.8c0,1-0.2,2.1-1,2.8c-0.1,0.1-0.1,0.1-0.1,0.1c0,0,0,0.1,0.1,0.1c0.1,0,0.6-0.4,0.9-1.2
			C305.8,439.9,305.9,439.2,305.9,438.7"/>
		<path id="XMLID_150_" class="st22" d="M312.1,439.4c0.1,0,0.2,0,0.2-0.1c0-0.1-0.1-0.1-0.2-0.1h-3.6c-0.1,0-0.2,0-0.2,0.1
			c0,0.1,0.1,0.1,0.2,0.1H312.1 M312.1,438.3c0.1,0,0.2,0,0.2-0.1c0-0.1-0.1-0.1-0.2-0.1h-3.6c-0.1,0-0.2,0-0.2,0.1
			c0,0.1,0.1,0.1,0.2,0.1H312.1z"/>
		<path id="XMLID_149_" class="st22" d="M316.4,438.4c0-0.2,0.2-0.7,0.6-0.7c0,0,0.2,0,0.3,0.1c-0.2,0-0.3,0.2-0.3,0.3
			c0,0.1,0.1,0.2,0.2,0.2c0.1,0,0.3-0.1,0.3-0.3c0-0.3-0.4-0.4-0.6-0.4c-0.3,0-0.6,0.3-0.6,0.5c-0.1-0.4-0.5-0.5-0.6-0.5
			c-0.6,0-1,0.8-1,0.9c0,0.1,0.1,0.1,0.1,0.1c0,0,0.1,0,0.1-0.1c0.2-0.6,0.6-0.8,0.8-0.8c0.1,0,0.3,0.1,0.3,0.4
			c0,0.2-0.1,0.6-0.3,1.4c-0.1,0.4-0.3,0.6-0.6,0.6c0,0-0.2,0-0.3-0.1c0.1,0,0.3-0.2,0.3-0.3c0-0.2-0.1-0.2-0.2-0.2
			c-0.2,0-0.3,0.2-0.3,0.3c0,0.3,0.3,0.4,0.6,0.4c0.4,0,0.6-0.4,0.6-0.5c0.1,0.2,0.3,0.5,0.6,0.5c0.6,0,1-0.8,1-0.9
			c0-0.1-0.1-0.1-0.1-0.1c-0.1,0-0.1,0-0.1,0.1c-0.2,0.6-0.6,0.8-0.8,0.8c-0.2,0-0.3-0.2-0.3-0.4c0-0.1,0-0.3,0.1-0.5L316.4,438.4"
			/>
		<polyline id="XMLID_148_" class="st22" points="319.4,441.7 319.4,441.5 318.8,441.5 318.8,436 319.4,436 319.4,435.8 
			318.5,435.8 318.5,441.7 319.4,441.7 		"/>
		<path id="XMLID_147_" class="st22" d="M321.2,436.4c0-0.1,0-0.2-0.1-0.2c-0.4,0.4-0.9,0.4-1.1,0.4v0.2c0.1,0,0.5,0,0.8-0.2v3.1
			c0,0.2,0,0.3-0.6,0.3H320v0.2c0.2,0,0.7,0,1,0c0.2,0,0.8,0,1,0v-0.2h-0.2c-0.5,0-0.6-0.1-0.6-0.3V436.4"/>
		<polyline id="XMLID_146_" class="st22" points="323.4,435.8 322.6,435.8 322.6,436 323.1,436 323.1,441.5 322.6,441.5 
			322.6,441.7 323.4,441.7 323.4,435.8 		"/>
	</g>
	<g id="XMLID_158_">
		<defs>
			<rect id="XMLID_159_" x="323.6" y="213" width="32.9" height="7.2"/>
		</defs>
		<clipPath id="XMLID_197_">
			<use xlink:href="#XMLID_159_"  style="overflow:visible;"/>
		</clipPath>
		<path id="XMLID_171_" class="st23" d="M325.8,216.4c0-0.2,0.2-0.7,0.6-0.7c0,0,0.2,0,0.3,0.1c-0.2,0-0.3,0.2-0.3,0.3
			c0,0.1,0.1,0.2,0.2,0.2c0.1,0,0.3-0.1,0.3-0.3c0-0.3-0.4-0.4-0.6-0.4c-0.3,0-0.6,0.3-0.6,0.5c-0.1-0.4-0.5-0.5-0.6-0.5
			c-0.6,0-1,0.8-1,0.9c0,0.1,0.1,0.1,0.1,0.1c0,0,0.1,0,0.1-0.1c0.2-0.6,0.6-0.8,0.8-0.8c0.1,0,0.3,0.1,0.3,0.4
			c0,0.2-0.1,0.6-0.3,1.4c-0.1,0.4-0.3,0.6-0.6,0.6c0,0-0.2,0-0.3-0.1c0.2,0,0.3-0.2,0.3-0.3c0-0.2-0.1-0.2-0.2-0.2
			c-0.2,0-0.3,0.2-0.3,0.3c0,0.3,0.3,0.4,0.6,0.4c0.4,0,0.6-0.4,0.6-0.5c0.1,0.2,0.3,0.5,0.6,0.5c0.6,0,1-0.8,1-0.9
			c0-0.1-0.1-0.1-0.1-0.1c-0.1,0-0.1,0-0.1,0.1c-0.2,0.6-0.6,0.8-0.8,0.8c-0.2,0-0.3-0.2-0.3-0.4c0-0.1,0-0.3,0.1-0.5L325.8,216.4"
			/>
		<path id="XMLID_170_" class="st23" d="M329.2,219.7c0,0,0,0-0.1-0.1c-0.7-0.8-0.9-1.9-0.9-2.8c0-1,0.2-2.1,1-2.8
			c0.1-0.1,0.1-0.1,0.1-0.1c0,0,0-0.1-0.1-0.1c-0.1,0-0.6,0.4-0.9,1.2c-0.3,0.7-0.4,1.3-0.4,1.8c0,0.5,0.1,1.2,0.4,1.9
			C328.5,219.3,329,219.7,329.2,219.7C329.1,219.7,329.2,219.7,329.2,219.7"/>
		<path id="XMLID_169_" class="st23" d="M330.2,217.8l0.6-0.6c0.9-0.8,1.3-1.1,1.3-1.7c0-0.7-0.5-1.2-1.3-1.2
			c-0.7,0-1.1,0.5-1.1,1.1c0,0.3,0.3,0.3,0.3,0.3c0.1,0,0.3-0.1,0.3-0.3c0-0.2-0.1-0.3-0.3-0.3c0,0-0.1,0-0.1,0
			c0.1-0.4,0.5-0.6,0.8-0.6c0.5,0,0.8,0.5,0.8,1c0,0.5-0.3,0.9-0.6,1.3l-1.1,1.3c-0.1,0.1-0.1,0.1-0.1,0.2h2.2l0.2-1H332
			c0,0.2-0.1,0.4-0.1,0.5c0,0-0.4,0-0.6,0H330.2"/>
		<path id="XMLID_168_" class="st23" d="M334.4,214.8h1.3c0.1,0,0.2,0,0.2-0.1c0-0.1-0.1-0.1-0.2-0.1h-1.3v-1.3c0-0.1,0-0.2-0.1-0.2
			c-0.1,0-0.1,0.1-0.1,0.2v1.3h-1.3c-0.1,0-0.2,0-0.2,0.1c0,0.1,0.1,0.1,0.2,0.1h1.3v1.3c0,0.1,0,0.2,0.1,0.2c0.1,0,0.1-0.1,0.1-0.2
			V214.8"/>
		<path id="XMLID_167_" class="st23" d="M338.2,216.7c0-0.5-0.1-1.2-0.4-1.9c-0.4-0.7-0.9-1.1-0.9-1.1c0,0-0.1,0-0.1,0.1
			c0,0,0,0,0.1,0.1c0.6,0.6,0.9,1.5,0.9,2.8c0,1-0.2,2.1-1,2.8c-0.1,0.1-0.1,0.1-0.1,0.1c0,0,0,0.1,0.1,0.1c0.1,0,0.6-0.4,0.9-1.2
			C338.1,217.9,338.2,217.2,338.2,216.7"/>
		<path id="XMLID_164_" class="st23" d="M344.5,217.4c0.1,0,0.2,0,0.2-0.1c0-0.1-0.1-0.1-0.2-0.1h-3.6c-0.1,0-0.2,0-0.2,0.1
			c0,0.1,0.1,0.1,0.2,0.1H344.5 M344.5,216.3c0.1,0,0.2,0,0.2-0.1c0-0.1-0.1-0.1-0.2-0.1h-3.6c-0.1,0-0.2,0-0.2,0.1
			c0,0.1,0.1,0.1,0.2,0.1H344.5z"/>
		<path id="XMLID_163_" class="st23" d="M348.8,216.4c0-0.2,0.2-0.7,0.6-0.7c0,0,0.2,0,0.3,0.1c-0.2,0-0.3,0.2-0.3,0.3
			c0,0.1,0.1,0.2,0.2,0.2c0.1,0,0.3-0.1,0.3-0.3c0-0.3-0.4-0.4-0.6-0.4c-0.3,0-0.6,0.3-0.6,0.5c-0.1-0.4-0.5-0.5-0.6-0.5
			c-0.6,0-1,0.8-1,0.9c0,0.1,0.1,0.1,0.1,0.1c0,0,0.1,0,0.1-0.1c0.2-0.6,0.6-0.8,0.8-0.8c0.1,0,0.3,0.1,0.3,0.4
			c0,0.2-0.1,0.6-0.3,1.4c-0.1,0.4-0.3,0.6-0.6,0.6c0,0-0.2,0-0.3-0.1c0.1,0,0.3-0.2,0.3-0.3c0-0.2-0.1-0.2-0.2-0.2
			c-0.2,0-0.3,0.2-0.3,0.3c0,0.3,0.3,0.4,0.6,0.4c0.4,0,0.6-0.4,0.6-0.5c0.1,0.2,0.3,0.5,0.6,0.5c0.6,0,1-0.8,1-0.9
			c0-0.1-0.1-0.1-0.1-0.1c-0.1,0-0.1,0-0.1,0.1c-0.2,0.6-0.6,0.8-0.8,0.8c-0.2,0-0.3-0.2-0.3-0.4c0-0.1,0-0.3,0.1-0.5L348.8,216.4"
			/>
		<polyline id="XMLID_162_" class="st23" points="351.7,219.7 351.7,219.5 351.1,219.5 351.1,214 351.7,214 351.7,213.8 
			350.9,213.8 350.9,219.7 351.7,219.7 		"/>
		<path id="XMLID_161_" class="st23" d="M352.5,217.8l0.6-0.6c0.9-0.8,1.3-1.1,1.3-1.7c0-0.7-0.5-1.2-1.3-1.2
			c-0.7,0-1.1,0.5-1.1,1.1c0,0.3,0.3,0.3,0.3,0.3c0.1,0,0.3-0.1,0.3-0.3c0-0.2-0.1-0.3-0.3-0.3c0,0-0.1,0-0.1,0
			c0.1-0.4,0.5-0.6,0.8-0.6c0.5,0,0.8,0.5,0.8,1c0,0.5-0.3,0.9-0.6,1.3l-1.1,1.3c-0.1,0.1-0.1,0.1-0.1,0.2h2.2l0.2-1h-0.1
			c0,0.2-0.1,0.4-0.1,0.5c0,0-0.4,0-0.6,0H352.5"/>
		<polyline id="XMLID_160_" class="st23" points="355.7,213.8 354.9,213.8 354.9,214 355.5,214 355.5,219.5 354.9,219.5 
			354.9,219.7 355.7,219.7 355.7,213.8 		"/>
	</g>
	<g id="XMLID_172_">
		<defs>
			<rect id="XMLID_173_" x="271.1" y="567.4" width="14.9" height="6.6"/>
		</defs>
		<clipPath id="XMLID_198_">
			<use xlink:href="#XMLID_173_"  style="overflow:visible;"/>
		</clipPath>
		<path id="XMLID_178_" class="st24" d="M273,570.2c0-0.2,0.2-0.7,0.6-0.7c0,0,0.2,0,0.3,0.1c-0.2,0-0.3,0.2-0.3,0.3
			c0,0.1,0.1,0.2,0.2,0.2c0.1,0,0.3-0.1,0.3-0.3c0-0.3-0.4-0.4-0.6-0.4c-0.3,0-0.6,0.3-0.6,0.5c-0.1-0.4-0.5-0.5-0.6-0.5
			c-0.6,0-1,0.8-1,0.9c0,0.1,0.1,0.1,0.1,0.1c0,0,0.1,0,0.1-0.1c0.2-0.6,0.6-0.8,0.8-0.8c0.1,0,0.3,0.1,0.3,0.4
			c0,0.2-0.1,0.6-0.3,1.4c-0.1,0.4-0.3,0.6-0.6,0.6c0,0-0.2,0-0.3-0.1c0.1,0,0.3-0.2,0.3-0.3c0-0.2-0.1-0.2-0.2-0.2
			c-0.2,0-0.3,0.2-0.3,0.3c0,0.3,0.3,0.4,0.6,0.4c0.4,0,0.6-0.4,0.6-0.5c0.1,0.2,0.3,0.5,0.6,0.5c0.6,0,1-0.8,1-0.9
			c0-0.1-0.1-0.1-0.1-0.1c-0.1,0-0.1,0-0.1,0.1c-0.2,0.6-0.6,0.8-0.8,0.8c-0.2,0-0.3-0.2-0.3-0.4c0-0.1,0-0.3,0.1-0.5L273,570.2"/>
		<path id="XMLID_177_" class="st24" d="M276.4,573.5c0,0,0,0-0.1-0.1c-0.7-0.8-0.9-1.9-0.9-2.8c0-1,0.2-2.1,1-2.8
			c0.1-0.1,0.1-0.1,0.1-0.1c0,0,0-0.1-0.1-0.1c-0.1,0-0.6,0.4-0.9,1.2c-0.3,0.7-0.4,1.3-0.4,1.8c0,0.5,0.1,1.2,0.4,1.9
			C275.8,573.1,276.3,573.5,276.4,573.5C276.4,573.5,276.4,573.5,276.4,573.5"/>
		<path id="XMLID_176_" class="st24" d="M278.5,568.2c0-0.1,0-0.2-0.1-0.2c-0.4,0.4-0.9,0.4-1.1,0.4v0.2c0.1,0,0.5,0,0.8-0.2v3.1
			c0,0.2,0,0.3-0.6,0.3h-0.2v0.2c0.2,0,0.7,0,1,0c0.2,0,0.8,0,1,0v-0.2h-0.2c-0.5,0-0.6-0.1-0.6-0.3V568.2"/>
		<path id="XMLID_175_" class="st24" d="M282.8,568.6c0.1,0,0.2,0,0.2-0.1c0-0.1-0.1-0.1-0.2-0.1h-2.5c-0.1,0-0.2,0-0.2,0.1
			c0,0.1,0.1,0.1,0.2,0.1H282.8"/>
		<path id="XMLID_174_" class="st24" d="M285.5,570.5c0-0.5-0.1-1.2-0.4-1.9c-0.4-0.7-0.9-1.1-0.9-1.1c0,0-0.1,0-0.1,0.1
			c0,0,0,0,0.1,0.1c0.6,0.6,0.9,1.5,0.9,2.8c0,1-0.2,2.1-1,2.8c-0.1,0.1-0.1,0.1-0.1,0.1c0,0,0,0.1,0.1,0.1c0.1,0,0.6-0.4,0.9-1.2
			C285.4,571.7,285.5,571,285.5,570.5"/>
	</g>
	<g id="XMLID_179_">
		<defs>
			<rect id="XMLID_180_" x="345.1" y="435.3" width="14.9" height="6.6"/>
		</defs>
		<clipPath id="XMLID_199_">
			<use xlink:href="#XMLID_180_"  style="overflow:visible;"/>
		</clipPath>
		<path id="XMLID_185_" class="st25" d="M347.1,438.1c0-0.2,0.2-0.7,0.6-0.7c0,0,0.2,0,0.3,0.1c-0.2,0-0.3,0.2-0.3,0.3
			c0,0.1,0.1,0.2,0.2,0.2c0.1,0,0.3-0.1,0.3-0.3c0-0.3-0.4-0.4-0.6-0.4c-0.3,0-0.6,0.3-0.6,0.5c-0.1-0.4-0.5-0.5-0.6-0.5
			c-0.6,0-1,0.8-1,0.9c0,0.1,0.1,0.1,0.1,0.1c0,0,0.1,0,0.1-0.1c0.2-0.6,0.6-0.8,0.8-0.8c0.1,0,0.3,0.1,0.3,0.4
			c0,0.2-0.1,0.6-0.3,1.4c-0.1,0.4-0.3,0.6-0.6,0.6c0,0-0.2,0-0.3-0.1c0.2,0,0.3-0.2,0.3-0.3c0-0.2-0.1-0.2-0.2-0.2
			c-0.2,0-0.3,0.2-0.3,0.3c0,0.3,0.3,0.4,0.6,0.4c0.4,0,0.6-0.4,0.6-0.5c0.1,0.2,0.3,0.5,0.6,0.5c0.6,0,1-0.8,1-0.9
			c0-0.1-0.1-0.1-0.1-0.1c-0.1,0-0.1,0-0.1,0.1c-0.2,0.6-0.6,0.8-0.8,0.8c-0.2,0-0.3-0.2-0.3-0.4c0-0.1,0-0.3,0.1-0.5L347.1,438.1"
			/>
		<path id="XMLID_184_" class="st25" d="M350.5,441.4c0,0,0,0-0.1-0.1c-0.7-0.8-0.9-1.9-0.9-2.8c0-1,0.2-2.1,1-2.8
			c0.1-0.1,0.1-0.1,0.1-0.1c0,0,0-0.1-0.1-0.1c-0.1,0-0.6,0.4-0.9,1.2c-0.3,0.7-0.4,1.3-0.4,1.8c0,0.5,0.1,1.2,0.4,1.9
			C349.8,441,350.3,441.4,350.5,441.4C350.4,441.4,350.5,441.4,350.5,441.4"/>
		<path id="XMLID_183_" class="st25" d="M351.5,439.5l0.6-0.6c0.9-0.8,1.3-1.1,1.3-1.7c0-0.7-0.5-1.2-1.3-1.2
			c-0.7,0-1.1,0.5-1.1,1.1c0,0.3,0.3,0.3,0.3,0.3c0.1,0,0.3-0.1,0.3-0.3c0-0.2-0.1-0.3-0.3-0.3c0,0-0.1,0-0.1,0
			c0.1-0.4,0.5-0.6,0.8-0.6c0.5,0,0.8,0.5,0.8,1c0,0.5-0.3,0.9-0.6,1.3l-1.1,1.3c-0.1,0.1-0.1,0.1-0.1,0.2h2.2l0.2-1h-0.1
			c0,0.2-0.1,0.4-0.1,0.5c0,0-0.4,0-0.6,0H351.5"/>
		<path id="XMLID_182_" class="st25" d="M356.9,436.5c0.1,0,0.2,0,0.2-0.1c0-0.1-0.1-0.1-0.2-0.1h-2.5c-0.1,0-0.2,0-0.2,0.1
			c0,0.1,0.1,0.1,0.2,0.1H356.9"/>
		<path id="XMLID_181_" class="st25" d="M359.5,438.4c0-0.5-0.1-1.2-0.4-1.9c-0.4-0.7-0.9-1.1-0.9-1.1c0,0-0.1,0-0.1,0.1
			c0,0,0,0,0.1,0.1c0.6,0.6,0.9,1.5,0.9,2.8c0,1-0.2,2.1-1,2.8c-0.1,0.1-0.1,0.1-0.1,0.1c0,0,0,0.1,0.1,0.1c0.1,0,0.6-0.4,0.9-1.2
			C359.4,439.6,359.5,438.9,359.5,438.4"/>
	</g>
	<line id="XMLID_4_" class="st2" x1="210.2" y1="144.5" x2="221.8" y2="144.5"/>
	<g id="XMLID_55_">
		<defs>
			<rect id="XMLID_56_" x="202.4" y="140.9" width="4" height="6"/>
		</defs>
		<clipPath id="XMLID_200_">
			<use xlink:href="#XMLID_56_"  style="overflow:visible;"/>
		</clipPath>
		<path id="XMLID_57_" class="st26" d="M204.5,146.5c-0.5,0-0.7-0.5-0.8-0.6c-0.1-0.4-0.1-1-0.1-1.2c0-0.6,0.3-1.4,1-1.4
			c0.1,0,0.5,0,0.7,0.5c0.1,0.3,0.1,0.7,0.1,1.1c0,0.4,0,0.8-0.1,1.1C205.1,146.5,204.7,146.5,204.5,146.5 M203.6,144v-0.2
			c0-2,1-2.3,1.4-2.3c0.2,0,0.5,0,0.7,0.3c-0.1,0-0.4,0-0.4,0.4c0,0.2,0.2,0.4,0.4,0.4c0.1,0,0.4-0.1,0.4-0.4c0-0.5-0.3-0.9-1-0.9
			c-1,0-2.1,1-2.1,2.8c0,2.1,0.9,2.7,1.7,2.7c0.9,0,1.6-0.7,1.6-1.8c0-1-0.7-1.8-1.6-1.8C204,143.2,203.7,143.6,203.6,144z"/>
	</g>
</g>
<g id="Layer_4">
</g>
</svg>
