<?xml version="1.0" encoding="UTF-8" standalone="no"?>
<svg
   xmlns:dc="http://purl.org/dc/elements/1.1/"
   xmlns:cc="http://creativecommons.org/ns#"
   xmlns:rdf="http://www.w3.org/1999/02/22-rdf-syntax-ns#"
   xmlns:svg="http://www.w3.org/2000/svg"
   xmlns="http://www.w3.org/2000/svg"
   xmlns:sodipodi="http://sodipodi.sourceforge.net/DTD/sodipodi-0.dtd"
   xmlns:inkscape="http://www.inkscape.org/namespaces/inkscape"
   style="fill:none;stroke:none;stroke-linecap:square;stroke-miterlimit:10"
   height="450"
   width="850"
   id="svg349"
   stroke-miterlimit="10"
   viewBox="0 0 850 450"
   version="1.1"
   inkscape:version="0.91 r13725"
   sodipodi:docname="system_context_cache.svg">
  <sodipodi:namedview
     pagecolor="#ffffff"
     bordercolor="#666666"
     borderopacity="1"
     objecttolerance="10"
     gridtolerance="10"
     guidetolerance="10"
     inkscape:pageopacity="0"
     inkscape:pageshadow="2"
     inkscape:window-width="3763"
     inkscape:window-height="1951"
     id="namedview3766"
     showgrid="false"
     inkscape:zoom="3.8729412"
     inkscape:cx="488.16923"
     inkscape:cy="225"
     inkscape:window-x="65"
     inkscape:window-y="24"
     inkscape:window-maximized="1"
     inkscape:current-layer="svg349" />
  <metadata
     id="metadata355">
    <rdf:RDF>
      <cc:Work
         rdf:about="">
        <dc:format>image/svg+xml</dc:format>
        <dc:type
           rdf:resource="http://purl.org/dc/dcmitype/StillImage" />
        <dc:title />
      </cc:Work>
    </rdf:RDF>
  </metadata>
  <defs
     id="defs353" />
  <clipPath
     id="p.0">
    <path
       style="clip-rule:nonzero"
       id="path2"
       d="M 0,0 H 960 V 720 H 0 Z" />
  </clipPath>
  <path
     d="m -14.19685,-255.66407 h 960 v 720 h -960 z"
     id="path5"
     style="fill:#000000;fill-opacity:0;fill-rule:evenodd" />
  <path
     d="m 98.24147,100.89498 h 74.3622"
     id="path7"
     style="fill:#000000;fill-opacity:0;fill-rule:evenodd" />
  <path
     d="m 98.24147,100.89498 h 68.3622"
     id="path9"
     style="fill-rule:evenodd;stroke:#1155cc;stroke-width:1;stroke-linecap:butt;stroke-linejoin:round" />
  <path
     d="m 166.60367,102.54671 4.5381,-1.65173 -4.5381,-1.651737 z"
     id="path11"
     style="fill:#1155cc;fill-rule:evenodd;stroke:#1155cc;stroke-width:1;stroke-linecap:butt" />
  <path
     d="m 98.24147,121.6955 h 74.3622"
     id="path13"
     style="fill:#000000;fill-opacity:0;fill-rule:evenodd" />
  <path
     d="m 98.24147,121.6955 h 68.3622"
     id="path15"
     style="fill-rule:evenodd;stroke:#1155cc;stroke-width:1;stroke-linecap:butt;stroke-linejoin:round" />
  <path
     d="m 166.60367,123.34723 4.5381,-1.65173 -4.5381,-1.65172 z"
     id="path17"
     style="fill:#1155cc;fill-rule:evenodd;stroke:#1155cc;stroke-width:1;stroke-linecap:butt" />
  <path
     d="M 241.59581,120.09708 H 702.60368 V 382.90024 H 241.59581 Z"
     id="path19"
     style="fill:#d9d9d9;fill-rule:evenodd" />
  <path
     d="M 241.59581,120.09708 H 702.60368 V 382.90024 H 241.59581 Z"
     id="path21"
     style="fill-rule:evenodd;stroke:#000000;stroke-width:1;stroke-linecap:butt;stroke-linejoin:round" />
  <path
     d="m 122.80315,143.13645 49.79527,-0.62991"
     id="path23"
     style="fill:#000000;fill-opacity:0;fill-rule:evenodd" />
  <path
     d="m 122.80315,143.13645 43.79575,-0.55403"
     id="path25"
     style="fill-rule:evenodd;stroke:#1155cc;stroke-width:1;stroke-linecap:butt;stroke-linejoin:round" />
  <path
     d="m 166.6198,144.23403 4.51685,-1.709 -4.55864,-1.59421 z"
     id="path27"
     style="fill:#1155cc;fill-rule:evenodd;stroke:#1155cc;stroke-width:1;stroke-linecap:butt" />
  <path
     d="M 98.80315,67.136453 172,67.640393"
     id="path29"
     style="fill:#000000;fill-opacity:0;fill-rule:evenodd" />
  <path
     d="m 98.80315,67.136453 67.19699,0.46263"
     id="path31"
     style="fill-rule:evenodd;stroke:#000000;stroke-width:1;stroke-linecap:butt;stroke-linejoin:round" />
  <path
     d="m 165.98877,69.250773 4.54936,-1.62044 -4.52662,-1.68294 z"
     id="path33"
     style="fill:#000000;fill-rule:evenodd;stroke:#000000;stroke-width:1;stroke-linecap:butt" />
  <path
     d="M 174.80315,43.136453 H 635.81102 V 315.13645 H 174.80315 Z"
     id="path35"
     style="fill:#cfe2f3;fill-rule:evenodd" />
  <path
     d="M 174.80315,43.136453 H 635.81102 V 315.13645 H 174.80315 Z"
     id="path37"
     style="fill-rule:evenodd;stroke:#000000;stroke-width:1;stroke-linecap:butt;stroke-linejoin:round" />
  <path
     d="m 487.05775,348.49603 h 327.4331 v 21.60632 h -327.4331 z"
     id="path39"
     style="fill:#000000;fill-opacity:0;fill-rule:evenodd" />
  <path
     d="m 234.05248,4.4960327 h 327.4331 V 26.102333 h -327.4331 z"
     id="path43"
     style="fill:#000000;fill-opacity:0;fill-rule:evenodd" />
  <path
     d="m 636.80315,159.13647 94.99213,1.00787"
     id="path47"
     style="fill:#000000;fill-opacity:0;fill-rule:evenodd" />
  <path
     d="m 636.80315,159.13647 88.99243,0.94421"
     id="path49"
     style="fill-rule:evenodd;stroke:#ff0000;stroke-width:1;stroke-linecap:butt;stroke-linejoin:round" />
  <path
     d="m 725.77805,161.73233 4.55542,-1.60352 -4.52032,-1.69976 z"
     id="path51"
     style="fill:#ff0000;fill-rule:evenodd;stroke:#ff0000;stroke-width:1;stroke-linecap:butt" />
  <path
     d="m 609.91698,181.09579 120.8819,0.0315"
     id="path53"
     style="fill:#000000;fill-opacity:0;fill-rule:evenodd" />
  <path
     d="m 609.91698,181.09579 114.8819,0.0299"
     id="path55"
     style="fill-rule:evenodd;stroke:#ff0000;stroke-width:1;stroke-linecap:butt;stroke-linejoin:round" />
  <path
     d="m 724.79845,182.77743 4.53851,-1.65054 -4.53766,-1.65293 z"
     id="path57"
     style="fill:#ff0000;fill-rule:evenodd;stroke:#ff0000;stroke-width:1;stroke-linecap:butt" />
  <path
     d="m 636.60369,206.49499 h 96"
     id="path59"
     style="fill:#000000;fill-opacity:0;fill-rule:evenodd" />
  <path
     d="m 636.60369,206.49499 h 90"
     id="path61"
     style="fill-rule:evenodd;stroke:#ff0000;stroke-width:1;stroke-linecap:butt;stroke-linejoin:round" />
  <path
     d="m 726.60369,208.14673 4.53809,-1.65173 -4.53809,-1.65174 z"
     id="path63"
     style="fill:#ff0000;fill-rule:evenodd;stroke:#ff0000;stroke-width:1;stroke-linecap:butt" />
  <path
     d="m 608.37841,96.335933 113.95276,-0.18898"
     id="path65"
     style="fill:#000000;fill-opacity:0;fill-rule:evenodd" />
  <path
     d="m 608.37835,96.335933 107.95276,-0.17903"
     id="path67"
     style="fill-rule:evenodd;stroke:#000000;stroke-width:1;stroke-linecap:butt;stroke-linejoin:round" />
  <path
     d="m 716.33385,97.808633 4.53534,-1.65926 -4.54077,-1.64419 z"
     id="path69"
     style="fill:#000000;fill-rule:evenodd;stroke:#000000;stroke-width:1;stroke-linecap:butt" />
  <path
     d="M 7.041996,96.687633 H 103.042 V 137.88448 H 7.041996 Z"
     id="path71"
     style="fill:#000000;fill-opacity:0;fill-rule:evenodd" />
  <path
     d="m 607.26245,65.574783 114.55121,-0.44095"
     id="path81"
     style="fill:#000000;fill-opacity:0;fill-rule:evenodd" />
  <path
     d="m 607.26245,65.574783 108.55127,-0.41785"
     id="path83"
     style="fill-rule:evenodd;stroke:#000000;stroke-width:1;stroke-linecap:butt;stroke-linejoin:round" />
  <path
     d="m 715.82005,66.808653 4.53168,-1.66919 -4.54438,-1.63425 z"
     id="path85"
     style="fill:#000000;fill-rule:evenodd;stroke:#000000;stroke-width:1;stroke-linecap:butt" />
  <path
     d="m 4,43.136453 h 100 v 41.19685 H 4 Z"
     id="path87"
     style="fill:#000000;fill-opacity:0;fill-rule:evenodd" />
  <path
     d="m 738.71655,165.13909 h 96 v 41.19684 h -96 z"
     id="path95"
     style="fill:#000000;fill-opacity:0;fill-rule:evenodd" />
  <path
     d="M 733.39635,50.894983 H 848.60894 V 115.68238 H 733.39635 Z"
     id="path105"
     style="fill:#000000;fill-opacity:0;fill-rule:evenodd" />
  <path
     d="M 262.60369,350.1711 120.8084,350.1396"
     id="path111"
     style="fill:#000000;fill-opacity:0;fill-rule:evenodd" />
  <path
     d="M 262.60369,350.1711 120.8084,350.1396"
     id="path113"
     style="fill-rule:evenodd;stroke:#1155cc;stroke-width:1;stroke-linecap:butt;stroke-linejoin:round" />
  <path
     d="m 121.80315,350.13647 1.00787,-208.00002"
     id="path115"
     style="fill:#000000;fill-opacity:0;fill-rule:evenodd" />
  <path
     d="m 121.80315,350.13647 1.00787,-208.00002"
     id="path117"
     style="fill-rule:evenodd;stroke:#1155cc;stroke-width:1;stroke-linecap:butt;stroke-linejoin:round" />
  <path
     d="m 181.31234,233.62991 v 0 c 0,-8.13208 31.74194,-14.72443 70.89764,-14.72443 v 0 c 39.15567,0 70.89765,6.59235 70.89765,14.72443 v 0 c 0,8.13205 -31.74198,14.7244 -70.89765,14.7244 v 0 c -39.1557,0 -70.89764,-6.59235 -70.89764,-14.7244 z"
     id="path119"
     style="fill:#d9d9d9;fill-rule:evenodd" />
  <path
     d="m 181.31234,233.62991 v 0 c 0,-8.13208 31.74194,-14.72443 70.89764,-14.72443 v 0 c 39.15567,0 70.89765,6.59235 70.89765,14.72443 v 0 c 0,8.13205 -31.74198,14.7244 -70.89765,14.7244 v 0 c -39.1557,0 -70.89764,-6.59235 -70.89764,-14.7244 z"
     id="path121"
     style="fill-rule:evenodd;stroke:#b45f06;stroke-width:2;stroke-linecap:butt;stroke-linejoin:round" />
  <path
     d="m 170.90288,67.136453 v 0 c 0,-5.96642 9.31389,-10.80315 20.80316,-10.80315 v 0 c 11.48926,0 20.80313,4.83674 20.80313,10.80315 v 0 c 0,5.96642 -9.31387,10.80315 -20.80313,10.80315 v 0 c -11.48927,0 -20.80316,-4.83674 -20.80316,-10.80315 z"
     id="path123"
     style="fill:#d9d9d9;fill-rule:evenodd" />
  <path
     d="m 170.90288,67.136453 v 0 c 0,-5.96642 9.31389,-10.80315 20.80316,-10.80315 v 0 c 11.48926,0 20.80313,4.83674 20.80313,10.80315 v 0 c 0,5.96642 -9.31387,10.80315 -20.80313,10.80315 v 0 c -11.48927,0 -20.80316,-4.83674 -20.80316,-10.80315 z"
     id="path125"
     style="fill-rule:evenodd;stroke:#000000;stroke-width:1;stroke-linecap:butt;stroke-linejoin:round" />
  <path
     d="m 170.90288,101.13645 v 0 c 0,-5.966417 9.31389,-10.803147 20.80316,-10.803147 v 0 c 11.48926,0 20.80313,4.83674 20.80313,10.803147 v 0 c 0,5.96642 -9.31387,10.80315 -20.80313,10.80315 v 0 c -11.48927,0 -20.80316,-4.83674 -20.80316,-10.80315 z"
     id="path127"
     style="fill:#d9d9d9;fill-rule:evenodd" />
  <path
     d="m 170.90288,101.13645 v 0 c 0,-5.966417 9.31389,-10.803147 20.80316,-10.803147 v 0 c 11.48926,0 20.80313,4.83674 20.80313,10.803147 v 0 c 0,5.96642 -9.31387,10.80315 -20.80313,10.80315 v 0 c -11.48927,0 -20.80316,-4.83674 -20.80316,-10.80315 z"
     id="path129"
     style="fill-rule:evenodd;stroke:#1155cc;stroke-width:1;stroke-linecap:butt;stroke-linejoin:round" />
  <path
     d="m 170.90288,122.13645 v 0 c 0,-5.96642 9.31389,-10.80315 20.80316,-10.80315 v 0 c 11.48926,0 20.80313,4.83674 20.80313,10.80315 v 0 c 0,5.96642 -9.31387,10.80315 -20.80313,10.80315 v 0 c -11.48927,0 -20.80316,-4.83674 -20.80316,-10.80315 z"
     id="path131"
     style="fill:#d9d9d9;fill-rule:evenodd" />
  <path
     d="m 170.90288,122.13645 v 0 c 0,-5.96642 9.31389,-10.80315 20.80316,-10.80315 v 0 c 11.48926,0 20.80313,4.83674 20.80313,10.80315 v 0 c 0,5.96642 -9.31387,10.80315 -20.80313,10.80315 v 0 c -11.48927,0 -20.80316,-4.83674 -20.80316,-10.80315 z"
     id="path133"
     style="fill-rule:evenodd;stroke:#1155cc;stroke-width:1;stroke-linecap:butt;stroke-linejoin:round" />
  <path
     d="m 170.90288,143.13645 v 0 c 0,-5.96642 9.31389,-10.80315 20.80316,-10.80315 v 0 c 11.48926,0 20.80313,4.83674 20.80313,10.80315 v 0 c 0,5.96642 -9.31387,10.80315 -20.80313,10.80315 v 0 c -11.48927,0 -20.80316,-4.83673 -20.80316,-10.80315 z"
     id="path135"
     style="fill:#d9d9d9;fill-rule:evenodd" />
  <path
     d="m 170.90288,143.13645 v 0 c 0,-5.96642 9.31389,-10.80315 20.80316,-10.80315 v 0 c 11.48926,0 20.80313,4.83674 20.80313,10.80315 v 0 c 0,5.96642 -9.31387,10.80315 -20.80313,10.80315 v 0 c -11.48927,0 -20.80316,-4.83673 -20.80316,-10.80315 z"
     id="path137"
     style="fill-rule:evenodd;stroke:#1155cc;stroke-width:1;stroke-linecap:butt;stroke-linejoin:round" />
  <path
     d="m 262.60369,350.02883 v 0 c 0,-8.13205 39.62454,-14.7244 88.50394,-14.7244 v 0 c 48.87936,0 88.50394,6.59235 88.50394,14.7244 v 0 c 0,8.13208 -39.62457,14.72443 -88.50394,14.72443 v 0 c -48.87939,0 -88.50394,-6.59235 -88.50394,-14.72443 z"
     id="path139"
     style="fill:#d9d9d9;fill-rule:evenodd" />
  <path
     d="m 262.60369,350.02883 v 0 c 0,-8.13205 39.62454,-14.7244 88.50394,-14.7244 v 0 c 48.87936,0 88.50394,6.59235 88.50394,14.7244 v 0 c 0,8.13208 -39.62457,14.72443 -88.50394,14.72443 v 0 c -48.87939,0 -88.50394,-6.59235 -88.50394,-14.72443 z"
     id="path141"
     style="fill-rule:evenodd;stroke:#1155cc;stroke-width:1;stroke-linecap:butt;stroke-linejoin:round" />
  <path
     d="m 187.55118,221.5039 h 125.51183 v 21.60632 H 187.55118 Z"
     id="path145"
     style="fill:#000000;fill-opacity:0;fill-rule:evenodd" />
  <path
     d="m 181.31234,273.62991 v 0 c 0,-8.13208 31.74194,-14.72443 70.89764,-14.72443 v 0 c 39.15567,0 70.89765,6.59235 70.89765,14.72443 v 0 c 0,8.13205 -31.74198,14.7244 -70.89765,14.7244 v 0 c -39.1557,0 -70.89764,-6.59235 -70.89764,-14.7244 z"
     id="path153"
     style="fill:#d9d9d9;fill-rule:evenodd" />
  <path
     d="m 181.31234,273.62991 v 0 c 0,-8.13208 31.74194,-14.72443 70.89764,-14.72443 v 0 c 39.15567,0 70.89765,6.59235 70.89765,14.72443 v 0 c 0,8.13205 -31.74198,14.7244 -70.89765,14.7244 v 0 c -39.1557,0 -70.89764,-6.59235 -70.89764,-14.7244 z"
     id="path155"
     style="fill-rule:evenodd;stroke:#38761d;stroke-width:2;stroke-linecap:butt;stroke-linejoin:round" />
  <path
     d="m 191.55118,263.5039 h 125.51183 v 21.60632 H 191.55118 Z"
     id="path157"
     style="fill:#000000;fill-opacity:0;fill-rule:evenodd" />
  <path
     d="m 338.91088,92.792633 v 0 c 0,-5.96642 8.32016,-10.80315 18.58359,-10.80315 v 0 c 10.26343,0 18.58359,4.83674 18.58359,10.80315 v 0 c 0,5.96642 -8.32016,10.803147 -18.58359,10.803147 v 0 c -10.26343,0 -18.58359,-4.836737 -18.58359,-10.803147 z"
     id="path165"
     style="fill:#d9d9d9;fill-rule:evenodd" />
  <path
     d="m 338.91088,92.792633 v 0 c 0,-5.96642 8.32016,-10.80315 18.58359,-10.80315 v 0 c 10.26343,0 18.58359,4.83674 18.58359,10.80315 v 0 c 0,5.96642 -8.32016,10.803147 -18.58359,10.803147 v 0 c -10.26343,0 -18.58359,-4.836737 -18.58359,-10.803147 z"
     id="path167"
     style="fill-rule:evenodd;stroke:#ff0000;stroke-width:1;stroke-linecap:butt;stroke-linejoin:round" />
  <path
     d="M 287.81282,81.989483 H 356.6227 V 103.59577 H 287.81282 Z"
     id="path169"
     style="fill:#d9d9d9;fill-rule:evenodd" />
  <path
     d="M 287.81282,81.989483 H 356.6227 V 103.59577 H 287.81282 Z"
     id="path171"
     style="fill-rule:evenodd;stroke:#ff0000;stroke-width:1;stroke-linecap:butt;stroke-linejoin:round" />
  <path
     d="m 353.64492,84.259823 h 5.97122 v 17.007867 h -5.97122 z"
     id="path173"
     style="fill:#d9d9d9;fill-rule:evenodd" />
  <path
     d="m 572.74981,181.09579 v 0 c 0,-5.96643 8.32013,-10.80316 18.58356,-10.80316 v 0 c 10.26342,0 18.58361,4.83673 18.58361,10.80316 v 0 c 0,5.9664 -8.32019,10.80313 -18.58361,10.80313 v 0 c -10.26343,0 -18.58356,-4.83673 -18.58356,-10.80313 z"
     id="path175"
     style="fill:#d9d9d9;fill-rule:evenodd" />
  <path
     d="m 572.74981,181.09579 v 0 c 0,-5.96643 8.32013,-10.80316 18.58356,-10.80316 v 0 c 10.26342,0 18.58361,4.83673 18.58361,10.80316 v 0 c 0,5.9664 -8.32019,10.80313 -18.58361,10.80313 v 0 c -10.26343,0 -18.58356,-4.83673 -18.58356,-10.80313 z"
     id="path177"
     style="fill-rule:evenodd;stroke:#ff0000;stroke-width:1;stroke-linecap:butt;stroke-linejoin:round" />
  <path
     d="m 521.65175,170.29263 h 68.80988 v 21.60629 h -68.80988 z"
     id="path179"
     style="fill:#d9d9d9;fill-rule:evenodd" />
  <path
     d="m 521.65175,170.29263 h 68.80988 v 21.60629 h -68.80988 z"
     id="path181"
     style="fill-rule:evenodd;stroke:#ff0000;stroke-width:1;stroke-linecap:butt;stroke-linejoin:round" />
  <path
     d="m 587.48381,172.56295 h 5.97119 v 17.00787 h -5.97119 z"
     id="path183"
     style="fill:#d9d9d9;fill-rule:evenodd" />
  <path
     d="m 446.88951,180.70339 v 0 c 0,-5.96643 8.32016,-10.80316 18.58362,-10.80316 v 0 c 10.26343,0 18.58356,4.83673 18.58356,10.80316 v 0 c 0,5.9664 -8.32013,10.80313 -18.58356,10.80313 v 0 c -10.26346,0 -18.58362,-4.83673 -18.58362,-10.80313 z"
     id="path185"
     style="fill:#d9d9d9;fill-rule:evenodd" />
  <path
     d="m 446.88951,180.70339 v 0 c 0,-5.96643 8.32016,-10.80316 18.58362,-10.80316 v 0 c 10.26343,0 18.58356,4.83673 18.58356,10.80316 v 0 c 0,5.9664 -8.32013,10.80313 -18.58356,10.80313 v 0 c -10.26346,0 -18.58362,-4.83673 -18.58362,-10.80313 z"
     id="path187"
     style="fill-rule:evenodd;stroke:#ff0000;stroke-width:1;stroke-linecap:butt;stroke-linejoin:round" />
  <path
     d="m 395.79149,169.90023 h 68.80981 v 21.60629 h -68.80981 z"
     id="path189"
     style="fill:#d9d9d9;fill-rule:evenodd" />
  <path
     d="m 395.79149,169.90023 h 68.80981 v 21.60629 h -68.80981 z"
     id="path191"
     style="fill-rule:evenodd;stroke:#ff0000;stroke-width:1;stroke-linecap:butt;stroke-linejoin:round" />
  <path
     d="m 461.62355,172.17059 h 5.97122 v 17.00787 h -5.97122 z"
     id="path193"
     style="fill:#d9d9d9;fill-rule:evenodd" />
  <path
     d="m 571.21115,96.335933 v 0 c 0,-5.96642 8.32019,-10.80315 18.58362,-10.80315 v 0 c 10.26343,0 18.58362,4.83674 18.58362,10.80315 v 0 c 0,5.966417 -8.32019,10.803147 -18.58362,10.803147 v 0 c -10.26343,0 -18.58362,-4.83674 -18.58362,-10.803147 z"
     id="path195"
     style="fill:#d9d9d9;fill-rule:evenodd" />
  <path
     d="m 571.21115,96.335933 v 0 c 0,-5.96642 8.32019,-10.80315 18.58362,-10.80315 v 0 c 10.26343,0 18.58362,4.83674 18.58362,10.80315 v 0 c 0,5.966417 -8.32019,10.803147 -18.58362,10.803147 v 0 c -10.26343,0 -18.58362,-4.83674 -18.58362,-10.803147 z"
     id="path197"
     style="fill-rule:evenodd;stroke:#ff0000;stroke-width:1;stroke-linecap:butt;stroke-linejoin:round" />
  <path
     d="m 520.11315,85.532783 h 68.80987 v 21.606287 h -68.80987 z"
     id="path199"
     style="fill:#d9d9d9;fill-rule:evenodd" />
  <path
     d="m 520.11315,85.532783 h 68.80987 v 21.606287 h -68.80987 z"
     id="path201"
     style="fill-rule:evenodd;stroke:#ff0000;stroke-width:1;stroke-linecap:butt;stroke-linejoin:round" />
  <path
     d="m 585.94525,87.803133 h 5.97119 V 104.811 h -5.97119 z"
     id="path203"
     style="fill:#d9d9d9;fill-rule:evenodd" />
  <path
     d="m 570.87511,65.099713 v 0 c 0,-5.96642 8.26556,-10.80315 18.46161,-10.80315 v 0 c 10.19604,0 18.46161,4.83674 18.46161,10.80315 v 0 c 0,5.96642 -8.26557,10.80315 -18.46161,10.80315 v 0 c -10.19605,0 -18.46161,-4.83674 -18.46161,-10.80315 z"
     id="path205"
     style="fill:#d9d9d9;fill-rule:evenodd" />
  <path
     d="m 570.87511,65.099713 v 0 c 0,-5.96642 8.26556,-10.80315 18.46161,-10.80315 v 0 c 10.19604,0 18.46161,4.83674 18.46161,10.80315 v 0 c 0,5.96642 -8.26557,10.80315 -18.46161,10.80315 v 0 c -10.19605,0 -18.46161,-4.83674 -18.46161,-10.80315 z"
     id="path207"
     style="fill-rule:evenodd;stroke:#ff0000;stroke-width:1;stroke-linecap:butt;stroke-linejoin:round" />
  <path
     d="m 520.11255,54.296563 h 68.35815 v 21.60629 h -68.35815 z"
     id="path209"
     style="fill:#d9d9d9;fill-rule:evenodd" />
  <path
     d="m 520.11255,54.296563 h 68.35815 v 21.60629 h -68.35815 z"
     id="path211"
     style="fill-rule:evenodd;stroke:#ff0000;stroke-width:1;stroke-linecap:butt;stroke-linejoin:round" />
  <path
     d="m 585.51245,56.566903 h 5.93201 v 17.00787 h -5.93201 z"
     id="path213"
     style="fill:#d9d9d9;fill-rule:evenodd" />
  <path
     d="m 449.88951,132.49866 v 0 c 0,-5.96642 8.32016,-10.80316 18.58362,-10.80316 v 0 c 10.26343,0 18.58356,4.83674 18.58356,10.80316 v 0 c 0,5.96642 -8.32013,10.80315 -18.58356,10.80315 v 0 c -10.26346,0 -18.58362,-4.83674 -18.58362,-10.80315 z"
     id="path215"
     style="fill:#d9d9d9;fill-rule:evenodd" />
  <path
     d="m 449.88951,132.49866 v 0 c 0,-5.96642 8.32016,-10.80316 18.58362,-10.80316 v 0 c 10.26343,0 18.58356,4.83674 18.58356,10.80316 v 0 c 0,5.96642 -8.32013,10.80315 -18.58356,10.80315 v 0 c -10.26346,0 -18.58362,-4.83674 -18.58362,-10.80315 z"
     id="path217"
     style="fill-rule:evenodd;stroke:#ff0000;stroke-width:1;stroke-linecap:butt;stroke-linejoin:round" />
  <path
     d="m 398.79149,121.6955 h 68.80981 v 21.60631 h -68.80981 z"
     id="path219"
     style="fill:#d9d9d9;fill-rule:evenodd" />
  <path
     d="m 398.79149,121.6955 h 68.80981 v 21.60631 h -68.80981 z"
     id="path221"
     style="fill-rule:evenodd;stroke:#ff0000;stroke-width:1;stroke-linecap:butt;stroke-linejoin:round" />
  <path
     d="m 464.62358,123.96586 h 5.97119 v 17.00787 h -5.97119 z"
     id="path223"
     style="fill:#d9d9d9;fill-rule:evenodd" />
  <path
     d="m 487.05669,132.49866 c 8.2641,0 12.39429,-9.03938 16.5282,-18.07875 4.13385,-9.03937 8.27136,-18.078737 16.54266,-18.078737"
     id="path225"
     style="fill:#000000;fill-opacity:0;fill-rule:evenodd" />
  <path
     d="m 487.05669,132.49866 c 8.2641,0 12.39429,-9.03938 16.52814,-18.07875 2.06695,-4.51968 4.13476,-9.03937 6.71985,-12.42912 0.64624,-0.84745 1.32482,-1.62427 2.04376,-2.312817 0.35949,-0.34426 0.72912,-0.66648 1.1098,-0.9644 0.19037,-0.14898 0.38348,-0.29187 0.57947,-0.42841 0.098,-0.0683 0.19678,-0.13496 0.29626,-0.20003 l 0.0443,-0.028"
     id="path227"
     style="fill-rule:evenodd;stroke:#ff0000;stroke-width:1;stroke-linecap:butt;stroke-linejoin:round" />
  <path
     d="m 514.85055,99.639873 3.87616,-2.8806 -4.82092,-0.28488 z"
     id="path229"
     style="fill-rule:evenodd;stroke:#ff0000;stroke-width:1;stroke-linecap:butt" />
  <path
     d="m 487.05669,132.49866 c 37.18109,0 55.77167,6.40944 74.36224,12.81889 18.59052,6.40946 37.18109,12.81891 74.36218,12.81891"
     id="path231"
     style="fill:#000000;fill-opacity:0;fill-rule:evenodd" />
  <path
     d="m 487.05669,132.49866 c 37.18115,0 55.77167,6.40944 74.36224,12.81889 9.29529,3.20473 18.59052,6.40946 30.20966,8.81299 5.80951,1.20178 12.20001,2.20325 19.46197,2.9043 3.63098,0.35049 7.4798,0.62591 11.58277,0.81369 2.05151,0.0939 4.1665,0.16586 6.34967,0.21435 l 0.75842,0.0147"
     id="path233"
     style="fill-rule:evenodd;stroke:#ff0000;stroke-width:1;stroke-linecap:butt;stroke-linejoin:round" />
  <path
     d="m 629.76519,159.72923 4.55414,-1.60712 -4.52173,-1.69616 z"
     id="path235"
     style="fill-rule:evenodd;stroke:#ff0000;stroke-width:1;stroke-linecap:butt" />
  <path
     d="M 322.80315,273.13647 H 612.8189"
     id="path237"
     style="fill:#000000;fill-opacity:0;fill-rule:evenodd" />
  <path
     d="M 322.80315,273.13647 H 612.8189"
     id="path239"
     style="fill-rule:evenodd;stroke:#38761d;stroke-width:2;stroke-linecap:butt;stroke-linejoin:round" />
  <path
     d="m 323.10762,233.62991 172.6929,-1.48032"
     id="path241"
     style="fill:#000000;fill-opacity:0;fill-rule:evenodd" />
  <path
     d="m 323.10762,233.62991 172.6929,-1.48032"
     id="path243"
     style="fill-rule:evenodd;stroke:#b45f06;stroke-width:2;stroke-linecap:butt;stroke-linejoin:round" />
  <path
     d="m 212.50917,67.136453 c 18.57483,0 27.86221,5 37.14963,10 9.28738,5 18.5748,10 37.1496,10"
     id="path245"
     style="fill:#000000;fill-opacity:0;fill-rule:evenodd" />
  <path
     d="m 212.50917,67.136453 c 18.57483,0 27.86221,5 37.14963,10 4.64367,2.5 9.28738,5 15.09201,6.875 2.90231,0.9375 6.09488,1.71875 9.72275,2.26562 1.81396,0.27344 3.73675,0.48829 5.7865,0.63477 l 0.55127,0.0368"
     id="path247"
     style="fill-rule:evenodd;stroke:#000000;stroke-width:1;stroke-linecap:butt;stroke-linejoin:round" />
  <path
     d="m 280.75963,88.599573 4.58759,-1.50888 -4.48417,-1.79297 z"
     id="path249"
     style="fill-rule:evenodd;stroke:#000000;stroke-width:1;stroke-linecap:butt" />
  <path
     d="m 212.50917,101.13645 c 18.82678,0 28.24017,-1 37.65356,-1.999997 9.4134,-1 18.82676,-2 37.65354,-2"
     id="path251"
     style="fill:#000000;fill-opacity:0;fill-rule:evenodd" />
  <path
     d="m 212.50917,101.13645 c 18.82678,0 28.24017,-1 37.65356,-1.999997 4.7067,-0.5 9.4134,-1 15.29676,-1.375 2.94168,-0.1875 6.17752,-0.34375 9.85461,-0.45313 1.83856,-0.0547 3.78745,-0.0976 5.86499,-0.12693 l 0.6373,-0.008"
     id="path253"
     style="fill-rule:evenodd;stroke:#1155cc;stroke-width:1;stroke-linecap:butt;stroke-linejoin:round" />
  <path
     d="m 281.82662,98.825283 4.52777,-1.67978 -4.54822,-1.62363 z"
     id="path255"
     style="fill-rule:evenodd;stroke:#1155cc;stroke-width:1;stroke-linecap:butt" />
  <path
     d="m 376.07805,92.792633 c 5.67831,0 8.51804,9.929137 11.3566,19.858257 2.83859,9.92914 5.67605,19.85828 11.35208,19.85828"
     id="path257"
     style="fill:#000000;fill-opacity:0;fill-rule:evenodd" />
  <path
     d="m 376.07805,92.792633 c 5.67831,0 8.51804,9.929137 11.35663,19.858257 1.41928,4.96457 2.83829,9.92914 4.612,13.65256 0.44339,0.93086 0.90899,1.78415 1.40225,2.54046 0.0617,0.0945 0.12378,0.18757 0.18631,0.27904 l 0.10193,0.14548"
     id="path259"
     style="fill-rule:evenodd;stroke:#ff0000;stroke-width:1;stroke-linecap:butt;stroke-linejoin:round" />
  <path
     d="m 392.84505,130.6585 4.71133,1.06105 -2.92706,-3.8412 z"
     id="path261"
     style="fill-rule:evenodd;stroke:#ff0000;stroke-width:1;stroke-linecap:butt" />
  <path
     d="m 376.07805,92.792633 c 36.00861,0 54.01328,-6.92126 72.01721,-13.84253 18.00391,-6.92125 36.00714,-13.84251 72.01428,-13.84251"
     id="path263"
     style="fill:#000000;fill-opacity:0;fill-rule:evenodd" />
  <path
     d="m 376.07805,92.792633 c 36.00861,0 54.01328,-6.92126 72.01721,-13.84253 9.00198,-3.46062 18.00372,-6.92125 29.25592,-9.51672 5.6261,-1.29775 11.81476,-2.37918 18.84741,-3.1362 3.5163,-0.37851 7.24359,-0.67591 11.21704,-0.87867 1.9867,-0.10139 4.03498,-0.17912 6.14917,-0.2315 l 0.54511,-0.0118"
     id="path265"
     style="fill-rule:evenodd;stroke:#ff0000;stroke-width:1;stroke-linecap:butt;stroke-linejoin:round" />
  <path
     d="m 514.12855,66.826853 4.51923,-1.70279 -4.55646,-1.60046 z"
     id="path267"
     style="fill-rule:evenodd;stroke:#ff0000;stroke-width:1;stroke-linecap:butt" />
  <path
     d="m 580.80315,272.13647 c 0,-28.5 13.25195,-48.74802 26.50397,-57 13.25195,-8.25195 26.5039,-4.50787 26.5039,-9.01575"
     id="path269"
     style="fill:#000000;fill-opacity:0;fill-rule:evenodd" />
  <path
     d="m 580.80315,272.13647 c 0,-28.5 13.25195,-48.74802 26.50397,-57 6.62597,-4.12598 13.25195,-5.25293 18.22143,-5.9119 0.62116,-0.0824 1.21649,-0.15744 1.78266,-0.2301 0.28314,-0.0364 0.5589,-0.0721 0.82702,-0.10788 l 0.3252,-0.045"
     id="path271"
     style="fill-rule:evenodd;stroke:#38761d;stroke-width:1;stroke-linecap:butt;stroke-linejoin:round" />
  <path
     d="m 629.21245,210.31371 3.29565,-3.53006 -4.7937,0.58582 z"
     id="path273"
     style="fill-rule:evenodd;stroke:#38761d;stroke-width:1;stroke-linecap:butt" />
  <path
     d="m 212.50917,122.13645 c 46.57483,0 69.86221,4.25197 93.14963,8.50394 23.28738,4.25197 46.5748,8.50393 93.1496,8.50393"
     id="path275"
     style="fill:#000000;fill-opacity:0;fill-rule:evenodd" />
  <path
     d="m 212.50917,122.13645 c 46.57483,0 69.86221,4.25197 93.14963,8.50394 11.64368,2.12599 23.28738,4.25197 37.84201,5.84646 7.27731,0.79724 15.28238,1.46161 24.37903,1.92667 4.54831,0.23253 9.36951,0.41524 14.50909,0.53979 2.5698,0.0623 5.21921,0.11004 7.95392,0.14223 0.68366,0.008 1.37265,0.0151 2.06708,0.0212 l 0.3985,0.003"
     id="path277"
     style="fill-rule:evenodd;stroke:#1155cc;stroke-width:1;stroke-linecap:butt;stroke-linejoin:round" />
  <path
     d="m 392.80165,140.77135 4.54486,-1.63304 -4.53128,-1.6704 z"
     id="path279"
     style="fill-rule:evenodd;stroke:#1155cc;stroke-width:1;stroke-linecap:butt" />
  <path
     d="m 414.25939,233.93173 c 0,-10.60629 3.98425,-15.90945 7.96851,-21.21259 3.98425,-5.30316 7.9685,-10.60629 7.9685,-21.21261"
     id="path281"
     style="fill:#000000;fill-opacity:0;fill-rule:evenodd" />
  <path
     d="m 414.25939,233.93173 c 0,-10.60629 3.98425,-15.90945 7.96851,-21.21259 1.99212,-2.65158 3.98425,-5.30316 5.47836,-8.61761 0.74704,-1.65726 1.36957,-3.48019 1.80536,-5.55176 0.0544,-0.25894 0.10602,-0.52176 0.15451,-0.78863 l 0.0479,-0.27402"
     id="path283"
     style="fill-rule:evenodd;stroke:#b45f06;stroke-width:1;stroke-linecap:butt;stroke-linejoin:round" />
  <path
     d="m 431.3604,197.6199 -1.28152,-4.65619 -2.01124,4.39063 z"
     id="path285"
     style="fill-rule:evenodd;stroke:#b45f06;stroke-width:1;stroke-linecap:butt" />
  <path
     d="m 484.05669,180.70339 c 9.39874,0 14.09674,0.0945 18.79755,0.18896 4.70074,0.0945 9.40435,0.18897 18.80877,0.18897"
     id="path287"
     style="fill:#000000;fill-opacity:0;fill-rule:evenodd" />
  <path
     d="m 484.05669,180.70339 c 9.39874,0 14.09674,0.0945 18.79755,0.18896 2.35034,0.0473 4.70147,0.0945 7.6405,0.12992 1.46954,0.0177 3.08606,0.0325 4.92297,0.0428 l 0.2453,0.001"
     id="path289"
     style="fill-rule:evenodd;stroke:#ff0000;stroke-width:1;stroke-linecap:butt;stroke-linejoin:round" />
  <path
     d="m 515.65885,182.71783 4.54224,-1.6402 -4.53388,-1.66327 z"
     id="path291"
     style="fill-rule:evenodd;stroke:#ff0000;stroke-width:1;stroke-linecap:butt" />
  <path
     d="m 528.81255,273.12728 c 0,-20.24411 3.24414,-30.36615 6.48822,-40.48819 3.24408,-10.12207 6.48816,-20.24411 6.48816,-40.48819"
     id="path293"
     style="fill:#000000;fill-opacity:0;fill-rule:evenodd" />
  <path
     d="m 528.81261,273.12728 c 0,-20.24411 3.24408,-30.36615 6.48816,-40.48819 1.62207,-5.06103 3.24408,-10.12207 4.46063,-16.44833 0.60828,-3.16315 1.11517,-6.64261 1.46997,-10.59653 0.17743,-1.97696 0.31684,-4.07254 0.41187,-6.30652 0.0118,-0.27924 0.0231,-0.56064 0.0336,-0.84424 l 0.01,-0.29345"
     id="path295"
     style="fill-rule:evenodd;stroke:#38761d;stroke-width:1;stroke-linecap:butt;stroke-linejoin:round" />
  <path
     d="m 543.33831,198.17815 -1.57422,-4.56558 -1.72876,4.50934 z"
     id="path297"
     style="fill-rule:evenodd;stroke:#38761d;stroke-width:1;stroke-linecap:butt" />
  <path
     d="m 212.50917,143.13645 c 45.82074,0 68.73202,9.39369 91.64148,18.7874 22.90945,9.39371 45.81705,18.78741 91.63412,18.78741"
     id="path299"
     style="fill:#000000;fill-opacity:0;fill-rule:evenodd" />
  <path
     d="m 212.50917,143.13645 c 45.82074,0 68.73202,9.39369 91.64145,18.7874 11.45474,4.69687 22.909,9.39371 37.22672,12.91635 7.15887,1.76132 15.0336,3.22907 23.98214,4.2565 4.47431,0.51373 9.21707,0.91739 14.27301,1.19257 2.52799,0.1376 5.13428,0.2431 7.82443,0.31418 0.67258,0.0178 1.35038,0.0334 2.03348,0.0468 l 0.29462,0.005"
     id="path301"
     style="fill-rule:evenodd;stroke:#1155cc;stroke-width:1;stroke-linecap:butt;stroke-linejoin:round" />
  <path
     d="m 389.76958,182.30679 4.55334,-1.60919 -4.52243,-1.69415 z"
     id="path303"
     style="fill-rule:evenodd;stroke:#1155cc;stroke-width:1;stroke-linecap:butt" />
  <path
     d="m 480.80315,232.13647 c 0,-19.00009 10,-32.37418 20,-38.00015 10,-5.62601 20,-3.50388 20,-7.00772"
     id="path305"
     style="fill:#000000;fill-opacity:0;fill-rule:evenodd" />
  <path
     d="m 480.80315,232.13647 c 0,-19.00009 10,-32.37418 20,-38.00015 5,-2.81299 10,-3.68897 13.75,-4.29965 l 0.82947,-0.13559"
     id="path307"
     style="fill-rule:evenodd;stroke:#b45f06;stroke-width:1;stroke-linecap:butt;stroke-linejoin:round" />
  <path
     d="m 516.09081,191.19329 3.3916,-3.43793 -4.80798,0.45352 z"
     id="path309"
     style="fill-rule:evenodd;stroke:#b45f06;stroke-width:1;stroke-linecap:butt" />
  <path
     d="m 553.78895,274.13515 c 0,-19.74805 0.50397,-29.62207 1.00787,-39.49606 0.50397,-9.87403 1.00788,-19.74805 1.00788,-39.49607"
     id="path311"
     style="fill:#000000;fill-opacity:0;fill-rule:evenodd" />
  <path
     d="m 553.78895,274.13515 c 0,-19.74805 0.50397,-29.62207 1.00787,-39.49606 0.50397,-9.87403 1.00788,-19.74805 1.00788,-39.49607"
     id="path313"
     style="fill-rule:evenodd;stroke:#38761d;stroke-width:1;stroke-linecap:butt;stroke-linejoin:round" />
  <path
     d="m 555.80945,167.13909 c 0,-15.00002 -0.32288,-22.50002 -0.64569,-30.00002 -0.32282,-7.5 -0.64569,-15 -0.64569,-30"
     id="path315"
     style="fill:#000000;fill-opacity:0;fill-rule:evenodd" />
  <path
     d="m 555.80945,167.13909 c 0,-15.00002 -0.32288,-22.50002 -0.64569,-30.00002 -0.16144,-3.75 -0.32282,-7.5 -0.44391,-12.1875 -0.0605,-2.34375 -0.11096,-4.92187 -0.14624,-7.85156 -0.009,-0.73242 -0.0167,-1.48681 -0.0236,-2.265 l -0.0123,-1.69597"
     id="path317"
     style="fill-rule:evenodd;stroke:#38761d;stroke-width:1;stroke-linecap:butt;stroke-linejoin:round" />
  <path
     d="m 556.18945,113.13364 -1.66656,-4.53267 -1.63685,4.54349 z"
     id="path319"
     style="fill-rule:evenodd;stroke:#38761d;stroke-width:1;stroke-linecap:butt" />
  <path
     d="m 247.6903,430.42779 v 0 c 0,-8.13208 32.24255,-14.72443 72.01575,-14.72443 v 0 c 39.77319,0 72.01575,6.59235 72.01575,14.72443 v 0 c 0,8.13208 -32.24255,14.72443 -72.01575,14.72443 v 0 c -39.77319,0 -72.01575,-6.59235 -72.01575,-14.72443 z"
     id="path321"
     style="fill:#d9d9d9;fill-rule:evenodd" />
  <path
     d="m 247.6903,430.42779 v 0 c 0,-8.13208 32.24255,-14.72443 72.01575,-14.72443 v 0 c 39.77319,0 72.01575,6.59235 72.01575,14.72443 v 0 c 0,8.13208 -32.24255,14.72443 -72.01575,14.72443 v 0 c -39.77319,0 -72.01575,-6.59235 -72.01575,-14.72443 z"
     id="path323"
     style="fill-rule:evenodd;stroke:#000000;stroke-width:1;stroke-linecap:butt;stroke-linejoin:round" />
  <path
     d="m 503.88469,428.26753 v 0 c 0,-7.64478 15.65271,-13.84204 34.96124,-13.84204 v 0 c 19.3086,0 34.96131,6.19726 34.96131,13.84204 v 0 c 0,7.64478 -15.65271,13.8421 -34.96131,13.8421 v 0 c -19.30853,0 -34.96124,-6.19732 -34.96124,-13.8421 z"
     id="path327"
     style="fill:#d9d9d9;fill-rule:evenodd" />
  <path
     d="m 503.88469,428.26753 v 0 c 0,-7.64478 15.65271,-13.84204 34.96124,-13.84204 v 0 c 19.3086,0 34.96131,6.19726 34.96131,13.84204 v 0 c 0,7.64478 -15.65271,13.8421 -34.96131,13.8421 v 0 c -19.30853,0 -34.96124,-6.19732 -34.96124,-13.8421 z"
     id="path329"
     style="fill-rule:evenodd;stroke:#ff0000;stroke-width:1;stroke-linecap:butt;stroke-linejoin:round" />
  <path
     d="m 407.75415,414.42547 h 129.45172 v 27.68414 H 407.75415 Z"
     id="path331"
     style="fill:#d9d9d9;fill-rule:evenodd" />
  <path
     d="m 407.75415,414.42547 h 129.45172 v 27.68414 H 407.75415 Z"
     id="path333"
     style="fill-rule:evenodd;stroke:#ff0000;stroke-width:1;stroke-linecap:butt;stroke-linejoin:round" />
  <path
     d="m 531.60381,417.33447 h 11.23364 v 21.79218 h -11.23364 z"
     id="path337"
     style="fill:#d9d9d9;fill-rule:evenodd" />
  <path
     d="m 142.27297,408.80313 h 100 V 450 h -100 z"
     id="path339"
     style="fill:#000000;fill-opacity:0;fill-rule:evenodd" />
  <path
     d="m 561.48035,403.13647 h 144.0315 v 41.19684 h -144.0315 z"
     id="path343"
     style="fill:#000000;fill-opacity:0;fill-rule:evenodd" />
  <text
     id="text4029"
     y="29.335932"
     x="245.80315"
     style="font-style:normal;font-weight:normal;font-size:40px;line-height:1.25;font-family:sans-serif;letter-spacing:0px;word-spacing:0px;fill:#000000;fill-opacity:1;stroke:none"
     xml:space="preserve"><tspan
       style="font-style:normal;font-variant:normal;font-weight:bold;font-stretch:normal;font-size:18.66666603px;font-family:'Courier New';-inkscape-font-specification:'Courier New'"
       y="29.335932"
       x="245.80315"
       id="tspan4027">drake::systems::LeafSystem</tspan></text>
  <text
     id="text4029-6"
     y="399.2962"
     x="398.78302"
     style="font-style:normal;font-weight:normal;font-size:40px;line-height:1.25;font-family:sans-serif;letter-spacing:0px;word-spacing:0px;fill:#000000;fill-opacity:1;stroke:none"
     xml:space="preserve"><tspan
       style="font-style:normal;font-variant:normal;font-weight:bold;font-stretch:normal;font-size:18.66666603px;font-family:'Courier New';-inkscape-font-specification:'Courier New'"
       y="399.2962"
       x="398.78302"
       id="tspan4027-2">drake::systems::LeafContext</tspan></text>
  <text
     id="text4221"
     y="70.33593"
     x="11.80315"
     style="font-style:normal;font-weight:normal;font-size:40px;line-height:1.25;font-family:sans-serif;letter-spacing:0px;word-spacing:0px;fill:#000000;fill-opacity:1;stroke:none"
     xml:space="preserve"><tspan
       style="font-size:18.66666603px"
       y="70.33593"
       x="11.80315"
       id="tspan4219">Time (<tspan
   id="tspan4223"
   style="font-style:italic;font-size:18.66666603px">t</tspan>)</tspan></text>
  <text
     id="text4227"
     y="106.33593"
     x="4.8031502"
     style="font-style:normal;font-weight:normal;font-size:40px;line-height:0.5;font-family:sans-serif;letter-spacing:0px;word-spacing:0px;fill:#000000;fill-opacity:1;stroke:none"
     xml:space="preserve"><tspan
       style="font-size:18.66666603px;fill:#0000ff"
       id="tspan4229"
       y="106.33593"
       x="4.8031502">Input</tspan><tspan
       id="tspan4243"
       style="font-size:18.66666603px;fill:#0000ff"
       y="127.13231"
       x="4.8031502">ports (<tspan
   id="tspan4231"
   style="font-style:italic;font-size:18.66666603px;fill:#0000ff">u</tspan>)</tspan></text>
  <flowRoot
     transform="translate(-14.19685,-255.66407)"
     style="font-style:normal;font-weight:normal;font-size:40px;line-height:1.25;font-family:sans-serif;letter-spacing:0px;word-spacing:0px;fill:#000000;fill-opacity:1;stroke:none"
     id="flowRoot4233"
     xml:space="preserve"><flowRegion
       id="flowRegion4235"><rect
         y="290"
         x="47"
         height="59"
         width="87"
         id="rect4237" /></flowRegion><flowPara
       id="flowPara4239" /></flowRoot>  <text
     id="text4248"
     y="238.33594"
     x="190.80315"
     style="font-style:normal;font-weight:normal;font-size:16px;line-height:1.25;font-family:sans-serif;letter-spacing:0px;word-spacing:0px;fill:#000000;fill-opacity:1;stroke:none"
     xml:space="preserve"><tspan
       y="238.33594"
       x="190.80315"
       id="tspan4246">Parameters (<tspan
   id="tspan4250"
   style="font-style:italic">p</tspan>)</tspan></text>
  <text
     id="text4248-5"
     y="277.80469"
     x="218.04924"
     style="font-style:normal;font-weight:normal;font-size:16px;line-height:1.25;font-family:sans-serif;letter-spacing:0px;word-spacing:0px;fill:#000000;fill-opacity:1;stroke:none"
     xml:space="preserve"><tspan
       y="277.80469"
       x="218.04924"
       id="tspan4246-5">State (<tspan
   id="tspan4273"
   style="font-style:italic">x</tspan>)</tspan></text>
  <text
     id="text4248-5-7"
     y="435.80469"
     x="166.80705"
     style="font-style:normal;font-weight:normal;font-size:18.66666603px;line-height:1.25;font-family:sans-serif;letter-spacing:0px;word-spacing:0px;fill:#000000;fill-opacity:1;stroke:none"
     xml:space="preserve"><tspan
       y="435.80469"
       x="166.80705"
       id="tspan4246-5-2">Values:</tspan></text>
  <text
     id="text4248-5-7-5"
     y="437.28583"
     x="283.6124"
     style="font-style:normal;font-weight:normal;font-size:18.66666603px;line-height:1.25;font-family:sans-serif;letter-spacing:0px;word-spacing:0px;fill:#000000;fill-opacity:1;stroke:none"
     xml:space="preserve"><tspan
       y="437.28583"
       x="283.6124"
       id="tspan4246-5-2-6">Source</tspan></text>
  <text
     id="text4248-5-7-3"
     y="435.28583"
     x="422.61243"
     style="font-style:normal;font-weight:normal;font-size:18.66666603px;line-height:1.25;font-family:sans-serif;letter-spacing:0px;word-spacing:0px;fill:#000000;fill-opacity:1;stroke:none"
     xml:space="preserve"><tspan
       y="435.28583"
       x="422.61243"
       id="tspan4246-5-2-5">Computed</tspan></text>
  <text
     id="text4248-5-7-7"
     y="433.28583"
     x="579.61243"
     style="font-style:normal;font-weight:normal;font-size:16px;line-height:1.25;font-family:sans-serif;letter-spacing:0px;word-spacing:0px;fill:#000000;fill-opacity:1;stroke:none"
     xml:space="preserve"><tspan
       y="433.28583"
       x="579.61243"
       id="tspan4246-5-2-59">(cache entry)</tspan></text>
  <text
     id="text4227-4"
     y="176.84595"
     x="743.30444"
     style="font-style:normal;font-weight:normal;font-size:40px;line-height:0.5;font-family:sans-serif;letter-spacing:0px;word-spacing:0px;fill:#000000;fill-opacity:1;stroke:none"
     xml:space="preserve"><tspan
       style="font-size:18.66666603px;fill:#ff0000"
       id="tspan4229-5"
       y="176.84595"
       x="743.30444">Output</tspan><tspan
       id="tspan4243-4"
       style="font-size:18.66666603px;fill:#ff0000"
       y="197.64233"
       x="743.30444">ports (y)</tspan></text>
  <text
     id="text4248-5-7-7-2"
     y="75.285759"
     x="740.61243"
     style="font-style:italic;font-variant:normal;font-weight:normal;font-stretch:normal;font-size:16px;line-height:125%;font-family:'Accanthis ADF Std No2';-inkscape-font-specification:'Accanthis ADF Std No2, Italic';text-align:start;letter-spacing:0px;word-spacing:0px;writing-mode:lr-tb;text-anchor:start;fill:#000000;fill-opacity:1;stroke:none"
     xml:space="preserve"
     sodipodi:linespacing="125%"><tspan
       sodipodi:role="line"
       id="tspan3772"
       x="740.61243"
       y="75.285759"
       style="-inkscape-font-specification:'Amiri Quran, Normal';font-family:'Amiri Quran';font-weight:normal;font-style:normal;font-stretch:normal;font-variant:normal;font-size:16.00000024px;text-anchor:start;text-align:start;writing-mode:lr;line-height:125%">derivatives,</tspan><tspan
       sodipodi:role="line"
       id="tspan3774"
       x="740.61243"
       y="95.285759"
       style="-inkscape-font-specification:'Amiri Quran, Normal';font-family:'Amiri Quran';font-weight:normal;font-style:normal;font-stretch:normal;font-variant:normal;font-size:16.00000024px;text-anchor:start;text-align:start;writing-mode:lr;line-height:125%">energy, etc.</tspan></text>
  <text
     id="text4248-5-7-7-5"
     y="357.80469"
     x="302.59222"
     style="font-style:normal;font-weight:normal;font-size:16px;line-height:1.25;font-family:sans-serif;letter-spacing:0px;word-spacing:0px;fill:#000000;fill-opacity:1;stroke:none"
     xml:space="preserve"><tspan
       y="357.80469"
       x="302.59222"
       id="tspan4246-5-2-59-1">Fixed inputs</tspan></text>
  <text
     xml:space="preserve"
     style="font-style:normal;font-weight:normal;font-size:40px;line-height:125%;font-family:sans-serif;letter-spacing:0px;word-spacing:0px;fill:#000000;fill-opacity:1;stroke:none;stroke-width:1px;stroke-linecap:butt;stroke-linejoin:miter;stroke-opacity:1"
     x="749.30133"
     y="84.902794"
     id="text3768"
     sodipodi:linespacing="125%"><tspan
       sodipodi:role="line"
       id="tspan3770"
       x="749.30133"
       y="84.902794"></tspan></text>
</svg>
