<svg version="1.1" id="Layer_1" xmlns="http://www.w3.org/2000/svg" x="0" y="0" viewBox="0 0 200 19.8" xml:space="preserve"><style>.st0{fill:white}</style><path class="st0" d="M23 9.9L17.3 0H0v4h14.8l3.4 5.9-3.4 5.8H0v4.1h17.3L23 9.9zM135.2 0h4v19.8h-4zM145.8 9.9L158.6 0H153l-12.8 9.9 12.8 9.9h5.6zM63.1 11.6c1.9-1.1 3.1-3.1 3.1-5.4C66.2 2.8 63.4 0 60 0H45.1v4H60c1.2 0 2.2 1 2.2 2.2 0 1.2-1 2.2-2.2 2.2H45.1v11.4h4v-7.3h10.1l4.6 7.3h4.3l-5-8.2zM103.3 0h-4.7L88.1 19.8h4.4l8.5-16 8.5 16h4.3zM186.4 11.4h5.9v-3h-5.9l-.8 1.5z"/><path class="st0" d="M200 3.7V0h-17.3L177 9.9l5.7 9.9H200v-3.7h-14.9l-3.6-6.2 3.6-6.2z"/></svg>