# generated by collision_forge
v -0.016990 0.007570 0.003171
v -0.016990 0.007000 0.003171
v -0.016990 0.008040 0.003171
v -0.016990 0.008040 0.003171
v -0.018368 0.005981 0.003171
v -0.016990 0.005990 0.000237
v -0.017400 0.008238 0.001990
v -0.017006 0.008036 0.003171
v -0.019469 0.005981 0.003171
v -0.017038 0.005981 0.000241
v -0.016990 0.005989 0.000232
v -0.017000 0.008293 0.001990
v -0.017400 0.008318 0.001590
v -0.017800 0.008223 0.001590
v -0.017381 0.007944 0.003171
v -0.019399 0.006185 0.003171
v -0.016990 0.005989 0.000175
v -0.017000 0.008364 0.001590
v -0.017400 0.008317 0.001191
v -0.017800 0.008230 0.001191
v -0.018436 0.008021 0.001475
v -0.018024 0.008011 0.002233
v -0.019635 0.006476 0.002282
v -0.019840 0.006200 0.001990
v -0.019271 0.006487 0.003171
v -0.017788 0.005981 -0.000051
v -0.016990 0.006200 0.000014
v -0.016990 0.008363 0.001580
v -0.017000 0.008354 0.001191
v -0.017400 0.008166 0.000791
v -0.017780 0.008086 0.000780
v -0.018396 0.007998 0.001000
v -0.018436 0.008021 0.001267
v -0.018373 0.007987 0.001741
v -0.018907 0.007690 0.001191
v -0.018900 0.007683 0.001590
v -0.018093 0.007658 0.003171
v -0.017799 0.007802 0.003171
v -0.018200 0.005981 -0.000156
v -0.016990 0.006590 -0.000137
v -0.017000 0.008187 0.000791
v -0.017400 0.008024 0.000565
v -0.017633 0.008011 0.000578
v -0.017899 0.007963 0.000640
v -0.018462 0.007645 0.000547
v -0.018855 0.007646 0.000921
v -0.018846 0.007638 0.001895
v -0.019107 0.007505 0.001191
v -0.019101 0.007497 0.001590
v -0.018106 0.007650 0.003171
v -0.019619 0.006825 0.001844
v -0.019136 0.006707 0.003171
v -0.019799 0.006600 0.001590
v -0.019992 0.005981 0.001762
v -0.020029 0.006081 0.001499
v -0.018600 0.005981 -0.000153
v -0.018200 0.006200 -0.000172
v -0.016990 0.006600 -0.000141
v -0.017000 0.008030 0.000560
v -0.017400 0.007591 0.000196
v -0.017800 0.007548 0.000227
v -0.018200 0.007706 0.000490
v -0.018418 0.007215 0.000181
v -0.018883 0.007274 0.000528
v -0.019249 0.007254 0.000914
v -0.018783 0.007587 0.002162
v -0.019294 0.007305 0.001191
v -0.019286 0.007297 0.001590
v -0.019653 0.006868 0.001590
v -0.019813 0.006600 0.001191
v -0.019955 0.006279 0.001191
v -0.019015 0.005981 -0.000014
v -0.018600 0.006200 -0.000131
v -0.018200 0.006600 -0.000127
v -0.017800 0.006600 -0.000161
v -0.016990 0.006990 -0.000098
v -0.016990 0.007394 0.000075
v -0.017400 0.007391 0.000079
v -0.017800 0.007349 0.000101
v -0.018200 0.007000 0.000014
v -0.018833 0.006834 0.000171
v -0.019266 0.006880 0.000533
v -0.019149 0.007146 0.000647
v -0.019626 0.006834 0.000944
v -0.019185 0.007183 0.002154
v -0.018755 0.007152 0.003171
v -0.018574 0.007315 0.003171
v -0.019494 0.007076 0.001191
v -0.020009 0.006024 0.000973
v -0.020054 0.005981 0.001191
v -0.019281 0.005981 0.000136
v -0.019037 0.006233 0.000057
v -0.018600 0.006600 -0.000025
v -0.017800 0.007000 -0.000067
v -0.017400 0.007000 -0.000098
v -0.017000 0.007000 -0.000097
v -0.016990 0.007800 0.000364
v -0.019194 0.006388 0.000195
v -0.019616 0.006431 0.000573
v -0.019892 0.005981 0.000771
v -0.019660 0.006200 0.000526
v -0.019692 0.005981 0.000490
f 39 56 57
f 6 2 5
f 58 39 57
f 69 88 70
f 70 88 84
f 17 10 26
f 89 70 84
f 5 10 11
f 11 6 5
f 11 10 17
f 68 85 49
f 68 88 69
f 86 85 52
f 98 82 81
f 90 54 55
f 25 23 16
f 24 54 9
f 9 16 24
f 24 16 23
f 24 55 54
f 17 26 27
f 27 26 39
f 90 89 100
f 71 89 90
f 70 89 71
f 90 55 71
f 57 56 73
f 73 74 57
f 56 72 73
f 12 3 28
f 1 3 4
f 67 68 49
f 88 68 67
f 84 88 67
f 51 52 85
f 51 68 69
f 85 68 51
f 25 52 51
f 51 23 25
f 22 37 38
f 66 85 86
f 84 67 65
f 45 46 32
f 69 70 53
f 53 51 69
f 70 71 53
f 53 71 55
f 55 24 53
f 53 24 23
f 23 51 53
f 39 58 40
f 40 27 39
f 92 72 91
f 92 91 98
f 98 81 92
f 92 73 72
f 84 82 99
f 99 89 84
f 99 100 89
f 99 82 98
f 96 95 77
f 57 74 75
f 75 58 57
f 95 96 75
f 32 33 20
f 20 31 32
f 19 31 20
f 29 28 41
f 60 61 43
f 60 79 61
f 29 19 18
f 18 28 29
f 12 28 18
f 35 33 32
f 32 46 35
f 22 38 15
f 87 66 86
f 49 85 47
f 85 66 47
f 34 37 22
f 34 66 37
f 34 47 66
f 64 81 82
f 46 45 64
f 43 61 62
f 63 79 80
f 61 79 63
f 63 62 61
f 45 62 63
f 81 64 63
f 63 64 45
f 44 45 32
f 32 31 44
f 44 31 43
f 43 62 44
f 44 62 45
f 93 92 81
f 73 92 93
f 74 73 93
f 80 74 93
f 93 63 80
f 81 63 93
f 102 100 101
f 100 99 101
f 101 99 98
f 101 91 102
f 98 91 101
f 76 96 77
f 58 75 76
f 76 75 96
f 80 79 94
f 94 74 80
f 94 75 74
f 95 75 94
f 42 41 59
f 42 60 43
f 59 60 42
f 43 31 30
f 30 42 43
f 41 42 30
f 30 31 19
f 30 19 29
f 29 41 30
f 97 41 28
f 59 41 97
f 77 60 97
f 97 60 59
f 79 60 78
f 95 94 78
f 78 94 79
f 77 95 78
f 78 60 77
f 7 15 8
f 22 15 7
f 8 4 7
f 7 3 12
f 7 4 3
f 46 65 48
f 48 35 46
f 48 65 67
f 48 67 49
f 37 66 50
f 66 87 50
f 49 47 36
f 36 48 49
f 35 48 36
f 22 7 14
f 83 64 82
f 83 82 84
f 84 65 83
f 83 65 46
f 46 64 83
f 47 34 21
f 21 36 47
f 33 35 21
f 35 36 21
f 21 20 33
f 21 14 20
f 21 34 22
f 22 14 21
f 19 20 13
f 20 14 13
f 13 18 19
f 13 14 7
f 12 18 13
f 13 7 12
f 5 9 100
f 100 72 56
f 100 10 5
f 100 54 90
f 9 54 100
f 56 39 100
f 100 26 10
f 39 26 100
f 102 91 100
f 91 72 100
f 1 2 97
f 97 11 17
f 97 3 1
f 2 6 97
f 97 40 58
f 6 11 97
f 17 27 97
f 97 76 77
f 97 28 3
f 27 40 97
f 58 76 97
f 50 9 5
f 50 16 9
f 50 2 1
f 86 52 50
f 5 2 50
f 8 15 50
f 50 52 25
f 1 4 50
f 25 16 50
f 50 4 8
f 50 38 37
f 50 15 38
f 50 87 86
