# generated by collision_forge
v -0.019747 -0.005297 0.002842
v -0.019748 -0.005000 0.002842
v -0.018643 -0.005297 0.002842
v -0.018832 -0.005297 0.005409
v -0.018822 -0.005274 0.005453
v -0.018666 -0.005000 0.005991
v -0.018768 -0.005000 0.005699
v -0.018439 -0.004600 0.006703
v -0.018548 -0.004600 0.006390
v -0.019730 -0.001187 0.002842
v -0.018083 -0.001187 0.007751
v -0.018137 -0.001187 0.007590
v -0.018200 -0.001187 0.007404
v -0.018437 -0.001187 0.006699
v -0.018626 -0.003051 0.002842
v -0.016800 -0.005297 0.007836
v -0.018428 -0.005297 0.006490
v -0.018406 -0.005220 0.006607
v -0.018017 -0.004865 0.007835
v -0.018523 -0.005000 0.006390
v -0.018369 -0.004600 0.006903
v -0.018034 -0.003000 0.007884
v -0.018035 -0.001187 0.007891
v -0.018621 -0.001187 0.002842
v -0.018624 -0.002651 0.002842
v -0.016800 -0.001187 0.008184
v -0.016800 -0.005297 0.009076
v -0.018622 -0.002252 0.002842
v -0.018620 -0.001451 0.002842
v -0.018620 -0.001400 0.002842
v -0.018351 -0.005297 0.006684
v -0.017981 -0.005132 0.007742
v -0.017918 -0.004999 0.007977
v -0.017944 -0.004600 0.008061
v -0.018027 -0.004600 0.007861
v -0.018124 -0.004600 0.007590
v -0.018029 -0.004200 0.007868
v -0.018033 -0.003400 0.007881
v -0.017957 -0.003000 0.008085
v -0.017960 -0.001187 0.008091
v -0.017996 -0.001187 0.007998
v -0.016800 -0.001187 0.009211
v -0.016800 -0.005000 0.009150
v -0.016952 -0.005000 0.009073
v -0.016879 -0.005297 0.009036
v -0.017955 -0.005297 0.007660
v -0.017796 -0.005297 0.008012
v -0.017659 -0.005297 0.008271
v -0.017711 -0.005000 0.008344
v -0.017949 -0.004200 0.008068
v -0.017599 -0.004765 0.008589
v -0.017717 -0.004619 0.008429
v -0.017755 -0.004200 0.008390
v -0.017953 -0.003800 0.008075
v -0.017955 -0.003400 0.008081
v -0.017767 -0.003400 0.008390
v -0.017770 -0.003000 0.008390
v -0.017771 -0.002600 0.008390
v -0.017776 -0.001400 0.008390
v -0.017776 -0.001187 0.008390
v -0.017000 -0.001187 0.009116
v -0.017000 -0.001400 0.009116
v -0.016800 -0.001800 0.009211
v -0.016800 -0.004593 0.009191
v -0.017198 -0.004706 0.008989
v -0.017153 -0.005000 0.008959
v -0.017051 -0.005297 0.008919
v -0.017645 -0.005297 0.008291
v -0.017565 -0.005000 0.008543
v -0.017365 -0.005000 0.008759
v -0.017602 -0.004499 0.008593
v -0.017605 -0.004200 0.008597
v -0.017762 -0.003800 0.008390
v -0.017609 -0.003800 0.008601
v -0.017612 -0.003400 0.008605
v -0.017613 -0.003000 0.008606
v -0.017614 -0.002600 0.008608
v -0.017616 -0.001400 0.008610
v -0.017616 -0.001187 0.008610
v -0.017096 -0.001187 0.009059
v -0.017206 -0.003000 0.008995
v -0.017206 -0.003400 0.008995
v -0.017000 -0.002600 0.009114
v -0.016800 -0.004200 0.009200
v -0.017039 -0.004583 0.009076
v -0.017201 -0.004439 0.008991
v -0.017000 -0.004200 0.009103
v -0.017306 -0.005297 0.008701
v -0.017251 -0.005297 0.008752
v -0.017526 -0.005297 0.008442
v -0.017406 -0.003400 0.008805
v -0.017406 -0.003000 0.008807
v -0.017406 -0.001400 0.008810
v -0.017406 -0.001187 0.008810
v -0.017206 -0.001187 0.008994
v -0.017000 -0.003400 0.009111
v -0.017000 -0.003000 0.009113
v -0.017204 -0.003800 0.008994
v -0.016800 -0.003000 0.009209
v -0.016800 -0.003800 0.009204
v -0.017000 -0.003800 0.009108
v -0.016800 -0.003400 0.009207
f 16 3 15
f 15 25 16
f 16 24 26
f 14 10 2
f 16 25 28
f 28 29 16
f 30 24 16
f 16 29 30
f 43 64 65
f 49 48 69
f 88 70 69
f 65 70 66
f 66 70 88
f 2 12 13
f 13 14 2
f 2 1 9
f 5 1 4
f 5 6 1
f 88 69 90
f 27 43 44
f 44 43 65
f 65 66 44
f 17 5 4
f 32 46 47
f 41 22 40
f 41 23 22
f 11 9 23
f 11 12 2
f 2 9 11
f 8 9 1
f 22 23 8
f 23 9 8
f 40 22 39
f 39 55 56
f 35 50 54
f 54 55 35
f 65 64 85
f 85 87 65
f 84 85 64
f 87 85 84
f 68 69 48
f 68 90 69
f 66 67 45
f 27 44 45
f 45 44 66
f 89 66 88
f 89 67 66
f 40 39 57
f 57 39 56
f 51 70 65
f 51 69 70
f 49 69 51
f 31 46 32
f 35 36 19
f 37 36 35
f 55 38 37
f 35 55 37
f 1 6 7
f 7 8 1
f 6 8 7
f 21 8 6
f 21 19 36
f 21 37 38
f 36 37 21
f 21 38 22
f 22 8 21
f 100 101 87
f 87 84 100
f 96 101 100
f 100 102 96
f 86 101 96
f 65 87 86
f 87 101 86
f 97 82 96
f 91 82 92
f 59 60 40
f 56 74 75
f 75 57 56
f 75 86 91
f 74 86 75
f 71 51 65
f 34 50 35
f 35 19 34
f 49 51 34
f 6 5 20
f 5 19 20
f 20 21 6
f 19 21 20
f 5 17 18
f 18 19 5
f 32 19 18
f 17 31 18
f 18 31 32
f 32 47 33
f 33 19 32
f 33 47 48
f 33 48 49
f 49 34 33
f 33 34 19
f 96 82 98
f 98 86 96
f 98 82 91
f 91 86 98
f 95 81 80
f 80 81 61
f 94 81 95
f 82 81 94
f 61 81 62
f 62 81 82
f 42 61 62
f 62 63 42
f 99 63 62
f 40 57 58
f 58 59 40
f 60 59 77
f 59 58 77
f 77 58 57
f 65 86 72
f 72 71 65
f 72 86 74
f 71 72 53
f 50 34 53
f 53 54 50
f 93 92 82
f 82 94 93
f 82 97 83
f 83 62 82
f 83 97 99
f 99 62 83
f 79 60 78
f 60 77 78
f 78 77 92
f 92 93 78
f 91 92 76
f 92 77 76
f 76 75 91
f 57 75 76
f 76 77 57
f 51 71 52
f 71 53 52
f 52 34 51
f 52 53 34
f 73 72 74
f 73 53 72
f 73 74 56
f 56 55 73
f 55 54 73
f 54 53 73
f 25 15 30
f 2 10 30
f 10 24 30
f 30 1 2
f 30 15 3
f 3 1 30
f 30 28 25
f 29 28 30
f 39 38 55
f 22 38 39
f 31 3 16
f 16 27 31
f 48 47 31
f 31 1 3
f 4 1 31
f 31 68 48
f 31 17 4
f 88 90 31
f 27 45 31
f 31 89 88
f 31 47 46
f 90 68 31
f 31 45 67
f 67 89 31
f 63 27 16
f 63 26 42
f 16 26 63
f 63 43 27
f 64 43 63
f 102 100 63
f 63 99 102
f 63 84 64
f 63 100 84
f 102 99 97
f 96 102 97
f 94 24 10
f 42 26 94
f 40 60 94
f 94 13 12
f 94 26 24
f 12 11 94
f 10 14 94
f 14 13 94
f 94 41 40
f 95 80 94
f 94 60 79
f 23 41 94
f 94 11 23
f 94 61 42
f 94 80 61
f 78 94 79
f 78 93 94
