# generated by collision_forge
v -0.016200 -0.003800 0.009382
v -0.015798 -0.003800 0.009381
v -0.015798 -0.003398 0.009381
v -0.016200 -0.003400 0.009382
v -0.016600 -0.001187 0.009306
v -0.016600 -0.001400 0.009306
v -0.016600 -0.002200 0.009306
v -0.016600 -0.002600 0.009305
v -0.016600 -0.003000 0.009304
v -0.016200 -0.004200 0.009380
v -0.015800 -0.004600 0.009379
v -0.015798 -0.004200 0.009381
v -0.015798 -0.001187 0.009375
v -0.015987 -0.001187 0.009376
v -0.016200 -0.001187 0.009377
v -0.016387 -0.001187 0.009344
v -0.016800 -0.001187 0.009211
v -0.016800 -0.001293 0.009211
v -0.016800 -0.001800 0.009211
v -0.016800 -0.002800 0.009209
v -0.016800 -0.003000 0.009209
v -0.016600 -0.003400 0.009303
v -0.016600 -0.004200 0.009296
v -0.016200 -0.004600 0.009375
v -0.015800 -0.005000 0.009375
v -0.016600 -0.003800 0.009300
v -0.015798 -0.004600 0.009379
v -0.015798 -0.001187 0.009364
v -0.016800 -0.001187 0.008184
v -0.016800 -0.003400 0.009207
v -0.016800 -0.004200 0.009200
v -0.016600 -0.004600 0.009287
v -0.016800 -0.003800 0.009204
v -0.016200 -0.005000 0.009359
v -0.015800 -0.005400 0.009358
v -0.015798 -0.005000 0.009375
v -0.015798 -0.001188 0.008477
v -0.015800 -0.001187 0.008477
v -0.016800 -0.005962 0.006945
v -0.016800 -0.004592 0.009191
v -0.016600 -0.005000 0.009250
v -0.016200 -0.005400 0.009308
v -0.015798 -0.005400 0.009358
v -0.015800 -0.005800 0.009260
v -0.015798 -0.005800 0.009260
v -0.015798 -0.005962 0.008018
v -0.016800 -0.005962 0.008737
v -0.016800 -0.005000 0.009150
v -0.016637 -0.005435 0.009127
v -0.016200 -0.005800 0.009166
v -0.015800 -0.005962 0.009179
v -0.015798 -0.005961 0.009179
v -0.015798 -0.005962 0.009172
v -0.016798 -0.005962 0.008743
v -0.016800 -0.005794 0.008852
v -0.016800 -0.005359 0.009062
v -0.016796 -0.005592 0.008988
v -0.016497 -0.005800 0.009047
v -0.016363 -0.005962 0.009024
v -0.016200 -0.005962 0.009077
v -0.016419 -0.005962 0.009001
v -0.016697 -0.005800 0.008924
v -0.016800 -0.005596 0.008982
v -0.016800 -0.005589 0.008986
f 29 37 39
f 39 37 46
f 37 29 38
f 3 1 2
f 37 38 28
f 53 52 51
f 7 18 19
f 25 34 35
f 51 52 44
f 44 50 51
f 14 3 13
f 15 3 14
f 1 3 4
f 4 3 15
f 4 5 1
f 6 18 7
f 6 7 1
f 1 5 6
f 2 1 12
f 10 11 1
f 25 11 10
f 42 35 34
f 50 44 42
f 42 44 35
f 45 44 52
f 43 35 45
f 35 44 45
f 55 47 54
f 51 50 60
f 54 61 62
f 16 4 15
f 5 4 16
f 1 7 8
f 8 9 1
f 23 10 26
f 32 34 24
f 24 23 32
f 10 23 24
f 24 34 25
f 25 10 24
f 26 10 22
f 32 40 41
f 41 34 32
f 41 42 34
f 26 22 30
f 63 55 54
f 54 62 63
f 59 60 50
f 50 58 59
f 59 58 61
f 61 58 57
f 64 63 57
f 57 62 61
f 57 63 62
f 50 42 49
f 49 58 50
f 49 57 58
f 42 41 49
f 48 41 40
f 48 49 41
f 33 23 26
f 26 30 33
f 21 22 9
f 21 30 22
f 49 48 56
f 64 57 56
f 57 49 56
f 23 33 31
f 31 40 32
f 32 23 31
f 9 8 20
f 20 21 9
f 20 8 7
f 7 19 20
f 43 36 35
f 36 25 35
f 17 18 6
f 6 5 17
f 27 12 11
f 11 12 1
f 36 27 11
f 11 25 36
f 45 3 2
f 2 12 45
f 45 46 37
f 37 28 45
f 45 36 43
f 45 53 46
f 13 3 45
f 45 28 13
f 45 27 36
f 52 53 45
f 45 12 27
f 16 29 17
f 17 5 16
f 13 28 16
f 16 38 29
f 16 14 13
f 16 28 38
f 15 14 16
f 22 10 1
f 1 9 22
f 46 53 59
f 39 46 59
f 59 47 39
f 59 53 51
f 54 47 59
f 59 61 54
f 51 60 59
f 20 29 39
f 17 29 20
f 20 18 17
f 20 19 18
f 39 47 20
f 20 63 64
f 64 56 20
f 47 55 20
f 40 31 20
f 55 63 20
f 20 48 40
f 20 33 30
f 30 21 20
f 20 56 48
f 20 31 33
