# generated by collision_forge
v 0.014194 -0.006600 -0.000140
v -0.006598 -0.006600 -0.000129
v -0.000599 -0.006200 -0.000002
v 0.001796 -0.006200 -0.000003
v 0.015943 -0.006600 -0.000138
v 0.015943 -0.007001 -0.000082
v 0.014194 -0.007001 -0.000082
v -0.017546 -0.006854 -0.000092
v -0.011796 -0.006600 -0.000126
v -0.001800 -0.005978 0.000153
v 0.001796 -0.005977 0.000152
v 0.014194 -0.006200 0.000017
v 0.015943 -0.006200 0.000022
v 0.012996 -0.007388 0.000086
v 0.015943 -0.007379 0.000087
v -0.012596 -0.007389 0.000091
v -0.017400 -0.007000 -0.000069
v -0.017944 -0.006854 -0.000076
v -0.016799 -0.006600 -0.000110
v -0.001800 -0.006200 -0.000001
v -0.001800 -0.005978 0.000258
v -0.016799 -0.006183 0.000056
v 0.001796 -0.005977 0.000270
v 0.015943 -0.005995 0.000182
v 0.015943 -0.006068 0.000124
v 0.012996 -0.007588 0.000199
v -0.012194 -0.007588 0.000198
v -0.012596 -0.007588 0.000198
v 0.015943 -0.007579 0.000204
v -0.017400 -0.007382 0.000091
v -0.018199 -0.006854 -0.000037
v -0.015396 -0.005999 0.000197
v -0.019233 -0.006854 0.002842
v -0.016799 -0.006086 0.000380
v -0.018583 -0.006854 0.000067
v -0.018845 -0.006854 0.000169
v -0.019299 -0.006854 0.000511
v -0.019352 -0.006854 0.000564
v 0.007396 -0.006034 0.000449
v 0.015943 -0.007800 0.000388
v 0.012996 -0.007800 0.000376
v -0.012596 -0.007800 0.000371
v -0.017400 -0.007583 0.000202
v -0.015696 -0.006000 0.000194
v -0.019243 -0.006854 0.002821
v -0.017707 -0.006854 0.002842
v -0.019477 -0.006854 0.000723
v -0.019606 -0.006854 0.000927
v -0.019620 -0.006854 0.000951
v -0.019634 -0.006854 0.000984
v -0.019704 -0.006854 0.001191
v -0.019725 -0.006854 0.001590
v -0.019645 -0.006854 0.001913
v -0.019638 -0.006854 0.001936
v -0.019561 -0.006854 0.002127
v -0.018426 -0.007221 0.000178
v -0.019177 -0.007177 0.000615
v 0.012193 -0.006034 0.000436
v 0.015943 -0.008016 0.000574
v 0.012996 -0.008022 0.000568
v -0.008200 -0.008025 0.000565
v -0.012596 -0.008026 0.000564
v -0.012997 -0.008025 0.000564
v -0.016998 -0.008022 0.000568
v -0.018863 -0.007266 0.002842
v -0.016799 -0.007052 0.002842
v 0.015943 -0.006989 0.001889
v 0.015499 -0.006974 0.001889
v 0.015943 -0.006245 0.000753
v 0.015943 -0.006174 0.000634
v 0.015943 -0.006045 0.000414
v -0.018751 -0.007566 0.000633
v 0.012996 -0.008184 0.000791
v -0.002998 -0.008210 0.000791
v -0.003399 -0.008211 0.000791
v -0.016998 -0.008193 0.000791
v -0.016799 -0.008133 0.002842
v 0.015943 -0.008314 0.001889
v -0.019153 -0.007555 0.001191
v -0.018426 -0.008017 0.000963
v 0.015943 -0.008234 0.000934
v 0.015943 -0.008351 0.001191
v 0.002197 -0.008390 0.001135
v 0.001796 -0.008391 0.001136
v -0.002198 -0.008392 0.001141
v -0.017019 -0.008376 0.001229
v -0.017763 -0.008101 0.000772
v -0.019149 -0.007556 0.001590
v 0.008995 -0.008328 0.001889
v 0.009798 -0.008327 0.001889
v 0.015943 -0.008363 0.001590
v 0.012815 -0.008400 0.001390
v -0.017201 -0.008400 0.001387
v -0.017798 -0.008282 0.001191
v -0.017201 -0.008400 0.001393
v -0.011283 -0.008289 0.002106
v -0.018199 -0.008162 0.001590
v 0.007797 -0.008404 0.001418
v -0.018426 -0.008016 0.001848
v -0.018196 -0.007781 0.002842
v 0.007797 -0.008373 0.001618
v -0.017382 -0.008050 0.002842
f 52 88 53
f 88 54 53
f 34 53 54
f 52 53 34
f 52 34 51
f 51 34 50
f 55 34 54
f 55 54 88
f 88 65 55
f 19 20 9
f 44 34 33
f 67 69 68
f 23 21 33
f 33 39 23
f 29 26 15
f 15 26 14
f 15 14 6
f 79 51 50
f 79 88 52
f 52 51 79
f 99 65 88
f 78 77 90
f 90 77 89
f 33 34 45
f 34 55 45
f 45 65 33
f 45 55 65
f 56 36 35
f 72 36 56
f 91 92 82
f 78 90 91
f 89 77 96
f 84 92 98
f 98 85 84
f 12 13 5
f 5 4 12
f 19 9 8
f 8 18 19
f 17 18 8
f 1 4 5
f 5 6 1
f 22 20 19
f 19 18 22
f 34 44 22
f 35 36 22
f 22 36 37
f 33 21 32
f 32 44 33
f 11 12 4
f 11 23 24
f 13 12 11
f 58 23 39
f 71 24 58
f 24 23 58
f 26 29 40
f 30 28 43
f 30 18 17
f 43 56 30
f 42 64 43
f 43 28 42
f 38 47 34
f 38 22 37
f 34 22 38
f 34 47 48
f 72 79 57
f 47 38 57
f 57 48 47
f 57 38 37
f 37 36 57
f 57 36 72
f 65 99 100
f 88 79 97
f 97 99 88
f 46 66 67
f 67 68 46
f 46 68 69
f 69 70 46
f 46 70 71
f 71 58 46
f 46 39 33
f 46 58 39
f 101 90 89
f 101 91 90
f 89 96 101
f 98 92 101
f 92 91 101
f 82 92 83
f 92 84 83
f 2 8 9
f 2 1 8
f 7 1 6
f 8 1 7
f 17 8 7
f 7 6 14
f 35 22 31
f 31 22 18
f 31 56 35
f 18 30 31
f 31 30 56
f 20 22 10
f 10 22 44
f 10 32 21
f 44 32 10
f 13 11 25
f 25 11 24
f 41 40 59
f 59 60 41
f 26 40 41
f 41 42 26
f 14 28 16
f 28 30 16
f 16 7 14
f 16 30 17
f 17 7 16
f 26 42 27
f 27 42 28
f 27 14 26
f 27 28 14
f 42 41 62
f 50 34 49
f 34 48 49
f 49 79 50
f 49 57 79
f 48 57 49
f 80 79 72
f 80 97 79
f 102 100 99
f 99 97 102
f 82 83 73
f 73 60 59
f 73 83 84
f 1 2 3
f 4 1 3
f 3 9 20
f 3 2 9
f 20 10 3
f 3 10 11
f 3 11 4
f 64 42 63
f 42 62 63
f 61 41 60
f 61 62 41
f 93 85 98
f 81 73 59
f 82 73 81
f 62 61 75
f 75 61 60
f 75 63 62
f 75 84 85
f 43 64 87
f 87 56 43
f 72 56 87
f 87 80 72
f 97 80 94
f 80 87 94
f 95 102 97
f 97 94 95
f 95 94 93
f 77 102 95
f 95 96 77
f 95 101 96
f 98 101 95
f 95 93 98
f 60 73 74
f 74 75 60
f 74 73 84
f 84 75 74
f 76 87 64
f 76 94 87
f 76 75 85
f 64 63 76
f 63 75 76
f 93 94 86
f 94 76 86
f 85 93 86
f 86 76 85
f 66 78 67
f 66 77 78
f 23 11 10
f 21 23 10
f 65 100 102
f 33 65 102
f 77 66 102
f 102 46 33
f 66 46 102
f 13 25 81
f 67 78 81
f 78 91 81
f 5 13 81
f 81 69 67
f 71 70 81
f 81 6 5
f 59 40 81
f 81 24 71
f 81 70 69
f 81 29 15
f 15 6 81
f 81 91 82
f 81 40 29
f 81 25 24
