# generated by collision_forge
v -0.020139 -0.001187 0.001645
v -0.018885 -0.001187 0.001645
v -0.020049 -0.001187 0.001935
v -0.020045 0.005000 0.001927
v -0.020136 0.001400 0.001645
v -0.018805 0.005981 0.001645
v -0.016025 0.005981 0.007805
v -0.016025 -0.001187 0.008461
v -0.019978 0.005000 0.002127
v -0.018036 -0.001187 0.007891
v -0.018037 -0.000599 0.007895
v -0.018556 0.004600 0.006390
v -0.020127 0.005065 0.001645
v -0.020017 0.005981 0.001645
v -0.016025 0.005981 0.009121
v -0.016025 -0.001187 0.009376
v -0.019978 0.005400 0.002125
v -0.017960 -0.001187 0.008091
v -0.017962 -0.000599 0.008094
v -0.018037 0.001400 0.007893
v -0.018443 0.004600 0.006712
v -0.018675 0.005000 0.005990
v -0.020030 0.005708 0.001879
v -0.020124 0.005400 0.001645
v -0.020057 0.005854 0.001645
v -0.016200 0.005981 0.009079
v -0.016200 0.005800 0.009169
v -0.016025 0.005970 0.009126
v -0.016025 0.000376 0.009376
v -0.016200 -0.001187 0.009377
v -0.017863 -0.001187 0.008250
v -0.017778 -0.000599 0.008390
v -0.017962 -0.000200 0.008095
v -0.017961 0.001400 0.008094
v -0.018035 0.002599 0.007888
v -0.018372 0.004600 0.006912
v -0.018029 0.004600 0.007871
v -0.018824 0.005281 0.005461
v -0.016431 0.005981 0.009009
v -0.016200 0.005400 0.009305
v -0.016025 0.003800 0.009375
v -0.016200 0.003400 0.009374
v -0.016600 -0.000999 0.009306
v -0.016600 -0.001187 0.009306
v -0.017616 -0.001187 0.008610
v -0.017778 0.000600 0.008390
v -0.017776 0.001800 0.008390
v -0.017960 0.002200 0.008090
v -0.017958 0.002599 0.008088
v -0.018020 0.004867 0.007843
v -0.017951 0.004600 0.008071
v -0.018409 0.005227 0.006613
v -0.019205 0.005614 0.004205
v -0.019760 0.005981 0.002397
v -0.016794 0.005589 0.008986
v -0.016200 0.005000 0.009356
v -0.016025 0.005400 0.009325
v -0.016636 0.005433 0.009128
v -0.016600 0.005000 0.009250
v -0.016200 0.004200 0.009373
v -0.016600 0.000600 0.009305
v -0.017000 -0.000999 0.009116
v -0.017504 -0.001187 0.008717
v -0.017617 0.000600 0.008611
v -0.017617 0.001000 0.008611
v -0.017616 0.001800 0.008609
v -0.017759 0.004200 0.008390
v -0.017980 0.005134 0.007740
v -0.017918 0.005000 0.007982
v -0.017601 0.004801 0.008591
v -0.018364 0.005494 0.006499
v -0.019543 0.005981 0.002980
v -0.018369 0.005913 0.006113
v -0.016893 0.005981 0.008657
v -0.017220 0.005634 0.008613
v -0.016200 0.004600 0.009369
v -0.016025 0.005000 0.009363
v -0.016600 0.004600 0.009285
v -0.017203 0.004806 0.008992
v -0.016025 0.004600 0.009371
v -0.016600 0.003800 0.009296
v -0.016600 0.003400 0.009298
v -0.016600 0.001800 0.009302
v -0.017000 0.003000 0.009112
v -0.017000 0.000600 0.009115
v -0.017208 0.003400 0.008996
v -0.017208 0.003000 0.008996
v -0.017096 -0.001187 0.009059
v -0.017206 -0.001187 0.008994
v -0.017204 0.004600 0.008993
v -0.017612 0.002599 0.008605
v -0.017608 0.003800 0.008599
v -0.017652 0.005319 0.008259
v -0.017276 0.005400 0.008673
v -0.017987 0.005562 0.007358
v -0.018431 0.005981 0.005878
v -0.017990 0.005977 0.006970
v -0.017593 0.005586 0.008179
v -0.016600 0.004200 0.009292
v -0.017000 0.003400 0.009112
v -0.017628 0.005981 0.007774
v -0.017330 0.005981 0.008202
f 2 6 7
f 8 2 7
f 97 96 73
f 30 16 29
f 1 4 5
f 5 4 13
f 3 4 1
f 3 11 12
f 3 10 11
f 101 96 97
f 101 69 98
f 67 47 66
f 78 76 56
f 12 11 20
f 9 3 12
f 4 3 9
f 13 4 24
f 72 73 96
f 98 69 93
f 93 75 98
f 95 101 97
f 97 73 95
f 51 37 49
f 49 37 35
f 49 67 51
f 47 67 49
f 51 67 70
f 70 69 51
f 70 93 69
f 45 32 31
f 33 20 11
f 34 20 33
f 66 47 65
f 65 86 66
f 59 79 78
f 78 56 59
f 57 56 77
f 77 56 76
f 76 80 77
f 30 29 41
f 43 44 30
f 61 85 43
f 85 86 62
f 44 43 62
f 62 43 85
f 102 75 74
f 102 101 98
f 98 75 102
f 35 37 36
f 25 23 14
f 25 24 23
f 4 9 17
f 17 24 4
f 17 9 12
f 23 24 17
f 14 23 54
f 73 72 53
f 72 54 53
f 53 54 23
f 69 101 68
f 101 95 68
f 87 63 89
f 87 62 86
f 66 86 90
f 48 49 35
f 35 20 48
f 48 20 34
f 48 34 47
f 47 49 48
f 92 70 67
f 79 70 92
f 92 90 79
f 75 93 94
f 93 70 94
f 94 70 79
f 19 33 11
f 19 10 18
f 11 10 19
f 18 31 19
f 19 31 32
f 32 33 19
f 46 33 32
f 46 65 47
f 47 34 46
f 34 33 46
f 64 32 45
f 45 63 64
f 64 46 32
f 65 46 64
f 63 87 64
f 86 65 64
f 64 87 86
f 79 59 58
f 58 27 39
f 40 56 57
f 40 59 56
f 57 27 40
f 40 58 59
f 27 58 40
f 30 41 42
f 42 43 30
f 61 43 42
f 99 76 78
f 99 81 76
f 78 79 99
f 44 62 88
f 88 87 89
f 62 87 88
f 28 27 57
f 15 27 28
f 26 27 15
f 39 27 26
f 21 20 35
f 35 36 21
f 12 20 21
f 38 53 23
f 100 90 86
f 79 90 100
f 100 99 79
f 81 99 100
f 91 67 66
f 91 92 67
f 66 90 91
f 90 92 91
f 79 58 55
f 55 94 79
f 75 94 55
f 55 58 39
f 55 39 74
f 74 75 55
f 60 42 41
f 60 41 80
f 60 80 76
f 76 81 60
f 61 42 60
f 53 38 52
f 23 17 22
f 22 38 23
f 22 17 12
f 12 21 22
f 22 21 36
f 22 36 37
f 84 85 61
f 84 86 85
f 84 100 86
f 61 60 83
f 83 84 61
f 100 84 83
f 69 68 50
f 68 52 50
f 51 69 50
f 50 37 51
f 50 22 37
f 50 52 38
f 38 22 50
f 71 68 95
f 71 52 68
f 71 95 73
f 73 53 71
f 53 52 71
f 82 60 81
f 82 83 60
f 81 100 82
f 100 83 82
f 25 2 1
f 6 2 25
f 25 14 6
f 1 5 25
f 25 5 13
f 13 24 25
f 30 44 88
f 1 2 88
f 89 63 88
f 2 8 88
f 88 16 30
f 8 16 88
f 88 3 1
f 88 31 18
f 18 10 88
f 10 3 88
f 88 63 45
f 45 31 88
f 28 16 8
f 7 15 28
f 28 8 7
f 28 41 29
f 28 29 16
f 57 77 28
f 28 77 80
f 80 41 28
f 6 14 26
f 7 6 26
f 26 15 7
f 74 39 26
f 96 101 26
f 26 72 96
f 14 54 26
f 26 102 74
f 101 102 26
f 26 54 72
