# generated by collision_forge
v -0.000020 0.006913 0.001737
v -0.000020 0.008347 0.001737
v 0.000062 0.006912 0.001737
v 0.016316 0.005971 0.007727
v -0.000018 0.006131 0.007727
v -0.000020 0.006132 0.007726
v -0.000020 0.008334 0.001817
v 0.003001 0.008312 0.001991
v 0.003001 0.008352 0.001737
v 0.000201 0.006911 0.001737
v 0.001947 0.006901 0.001737
v 0.002348 0.006899 0.001737
v 0.002748 0.006898 0.001737
v 0.003148 0.006897 0.001737
v 0.003548 0.006897 0.001737
v 0.005401 0.006897 0.001737
v 0.005801 0.006899 0.001737
v 0.006200 0.006901 0.001737
v 0.006600 0.006904 0.001737
v 0.011399 0.006937 0.001737
v 0.011546 0.006938 0.001737
v 0.011799 0.006940 0.001737
v 0.015400 0.006983 0.001737
v 0.015799 0.006995 0.001737
v 0.016199 0.007017 0.001737
v 0.016303 0.007024 0.001737
v 0.016316 0.007025 0.001737
v 0.016316 0.007000 0.007727
v -0.000020 0.006134 0.007727
v -0.000020 0.008305 0.001991
v -0.000020 0.008266 0.002211
v -0.000020 0.008235 0.002391
v -0.000020 0.008196 0.002611
v 0.007801 0.008319 0.001991
v 0.008086 0.008361 0.001737
v 0.007801 0.008360 0.001737
v 0.016316 0.008345 0.001737
v 0.016316 0.007043 0.007600
v 0.016199 0.007085 0.007590
v 0.016199 0.007039 0.007727
v -0.000020 0.007133 0.007727
v -0.000020 0.008163 0.002791
v 0.007801 0.008174 0.002791
v 0.008599 0.008320 0.001991
v 0.008999 0.008362 0.001737
v 0.008484 0.008361 0.001737
v 0.016316 0.008319 0.001879
v 0.016063 0.008346 0.001737
v 0.015799 0.008303 0.001991
v 0.016316 0.007085 0.007475
v 0.016316 0.007187 0.007102
v 0.016236 0.007175 0.007219
v 0.016127 0.007230 0.007104
v 0.015966 0.007195 0.007371
v 0.015818 0.007163 0.007589
v 0.015812 0.007121 0.007727
v 0.016063 0.007069 0.007727
v -0.000020 0.007165 0.007629
v 0.015400 0.007162 0.007727
v -0.000020 0.008089 0.003191
v 0.007801 0.008099 0.003191
v 0.008199 0.008174 0.002791
v 0.008999 0.008320 0.001991
v 0.009283 0.008361 0.001737
v 0.016316 0.008299 0.001991
v 0.015663 0.008348 0.001737
v 0.015400 0.008305 0.001991
v 0.015799 0.008081 0.003191
v 0.016199 0.008021 0.003502
v 0.016316 0.007263 0.006798
v 0.016236 0.007274 0.006827
v 0.016316 0.007585 0.005494
v 0.015699 0.007214 0.007455
v 0.015400 0.007176 0.007681
v -0.000020 0.007208 0.007429
v -0.000020 0.008026 0.003516
v 0.007801 0.008030 0.003534
v 0.008199 0.008099 0.003191
v 0.012600 0.008090 0.003191
v 0.012200 0.008313 0.001991
v 0.015400 0.008349 0.001737
v 0.016316 0.008098 0.003075
v 0.012999 0.008089 0.003191
v 0.015799 0.008022 0.003505
v 0.016199 0.007983 0.003702
v 0.016316 0.007774 0.004675
v 0.015799 0.007353 0.006791
v 0.015799 0.007440 0.006390
v 0.016199 0.007761 0.004791
v 0.015400 0.007281 0.007190
v 0.005801 0.007354 0.006791
v -0.000020 0.007985 0.003716
v 0.008199 0.008030 0.003535
v 0.015400 0.007366 0.006791
v 0.015799 0.007850 0.004391
v 0.012999 0.007987 0.003724
v 0.012999 0.008026 0.003524
v 0.016199 0.007929 0.003991
v 0.016316 0.008034 0.003413
v 0.016316 0.007863 0.004275
v 0.016199 0.007850 0.004391
v 0.016316 0.007941 0.003894
f 1 4 5
f 6 5 29
f 1 5 6
f 19 20 4
f 4 23 24
f 22 23 4
f 15 16 4
f 4 14 15
f 4 16 17
f 4 24 25
f 4 20 21
f 21 22 4
f 101 94 88
f 10 11 4
f 4 11 12
f 18 19 4
f 4 17 18
f 26 27 4
f 4 25 26
f 42 60 43
f 95 94 101
f 96 78 95
f 55 74 59
f 91 75 74
f 74 75 58
f 58 41 59
f 59 74 58
f 2 8 9
f 30 31 8
f 8 31 32
f 3 4 1
f 3 10 4
f 13 14 4
f 4 12 13
f 66 81 67
f 98 95 101
f 101 102 98
f 65 47 49
f 67 68 49
f 49 47 37
f 85 98 82
f 61 60 76
f 76 77 61
f 61 77 78
f 61 43 60
f 93 77 94
f 78 77 93
f 94 95 93
f 93 95 78
f 42 43 34
f 45 46 34
f 34 46 35
f 34 35 8
f 62 78 79
f 79 67 62
f 62 61 78
f 43 61 62
f 100 102 101
f 101 89 100
f 100 89 86
f 56 55 59
f 88 74 73
f 74 55 73
f 86 89 73
f 75 91 92
f 92 91 94
f 92 77 76
f 94 77 92
f 94 91 90
f 90 91 74
f 90 88 94
f 90 74 88
f 8 35 36
f 36 9 8
f 7 8 2
f 7 30 8
f 8 32 33
f 42 34 33
f 33 34 8
f 67 81 80
f 80 62 67
f 83 67 79
f 83 68 67
f 79 78 97
f 97 78 96
f 96 95 97
f 95 98 97
f 65 49 69
f 69 82 65
f 85 82 69
f 69 49 68
f 48 49 37
f 48 66 67
f 67 49 48
f 99 98 102
f 99 82 98
f 44 34 43
f 43 62 44
f 45 34 44
f 101 88 87
f 88 73 87
f 87 89 101
f 87 73 89
f 86 73 72
f 68 83 84
f 85 69 84
f 84 69 68
f 84 98 85
f 84 97 98
f 84 83 79
f 79 97 84
f 62 80 63
f 63 44 62
f 81 64 63
f 63 80 81
f 63 64 45
f 45 44 63
f 39 40 28
f 39 57 40
f 56 57 39
f 55 56 39
f 39 50 51
f 70 53 51
f 38 39 28
f 50 39 38
f 55 39 54
f 54 39 53
f 54 53 72
f 54 73 55
f 54 72 73
f 51 53 52
f 52 39 51
f 53 39 52
f 71 70 72
f 72 53 71
f 53 70 71
f 33 2 1
f 1 6 33
f 33 6 29
f 33 7 2
f 41 58 33
f 29 41 33
f 76 60 33
f 33 92 76
f 33 60 42
f 33 58 75
f 31 30 33
f 33 32 31
f 75 92 33
f 30 7 33
f 48 21 20
f 1 2 48
f 27 26 48
f 20 19 48
f 48 37 27
f 19 18 48
f 48 17 16
f 14 13 48
f 16 15 48
f 48 24 23
f 23 22 48
f 2 9 48
f 48 15 14
f 48 3 1
f 48 25 24
f 22 21 48
f 48 46 45
f 11 10 48
f 48 12 11
f 48 18 17
f 48 26 25
f 45 64 48
f 35 46 48
f 48 36 35
f 10 3 48
f 48 13 12
f 48 64 81
f 81 66 48
f 9 36 48
f 29 5 57
f 57 5 4
f 57 41 29
f 59 41 57
f 4 28 57
f 57 56 59
f 28 40 57
f 27 37 38
f 38 28 4
f 4 27 38
f 102 100 38
f 37 47 38
f 86 72 38
f 38 47 65
f 65 82 38
f 38 100 86
f 38 99 102
f 82 99 38
f 38 70 51
f 51 50 38
f 72 70 38
