# generated by collision_forge
v 0.015400 0.007162 0.007727
v 0.015400 0.007079 0.007991
v 0.015799 0.007038 0.007991
v -0.000020 0.007132 0.007727
v 0.004200 0.007061 0.007991
v 0.015400 0.006902 0.008371
v 0.003800 0.006894 0.008375
v 0.004200 0.006895 0.008375
v 0.015799 0.006881 0.008331
v 0.016063 0.007069 0.007727
v -0.000020 0.006134 0.007727
v -0.000020 0.007101 0.007828
v 0.003800 0.007060 0.007991
v 0.003401 0.006893 0.008376
v 0.015400 0.006788 0.008571
v 0.003401 0.006790 0.008575
v 0.006600 0.006790 0.008574
v 0.007002 0.006790 0.008574
v 0.003001 0.006790 0.008574
v 0.015799 0.006762 0.008531
v 0.016316 0.006818 0.008220
v -0.000018 0.006131 0.007727
v -0.000020 -0.001186 0.008366
v -0.000020 0.007047 0.007991
v -0.000020 0.006958 0.008197
v -0.000020 0.006788 0.008566
v 0.014598 0.006611 0.008790
v 0.015633 0.006410 0.008999
v 0.000201 0.006595 0.008790
v 0.014598 0.006423 0.009011
v 0.016199 0.006497 0.008700
v 0.016316 0.006756 0.008311
v 0.016316 0.006999 0.007727
v 0.000601 -0.001186 0.008361
v 0.000201 -0.001186 0.008364
v -0.000013 -0.001186 0.008366
v 0.016316 0.005970 0.007727
v -0.000020 -0.001186 0.009349
v 0.015000 0.006422 0.009009
v 0.015400 0.006417 0.009005
v 0.015780 0.006216 0.009074
v 0.015900 0.006359 0.008962
v 0.015400 0.006199 0.009121
v 0.000201 0.006407 0.008995
v 0.014199 0.006199 0.009128
v 0.014598 0.006199 0.009128
v 0.006200 0.006199 0.009123
v 0.006600 0.006199 0.009124
v 0.001000 -0.001186 0.008361
v 0.016316 -0.001186 0.008417
v 0.004414 -0.001186 0.009364
v -0.000020 0.004200 0.009354
v 0.015799 0.005800 0.009266
v 0.016199 0.005800 0.009190
v 0.016316 0.006050 0.009022
v 0.015400 0.005800 0.009292
v -0.000020 0.006406 0.008995
v 0.013799 0.005800 0.009299
v 0.006600 0.005800 0.009297
v 0.014199 0.005800 0.009298
v 0.014598 0.005800 0.009298
v 0.005401 0.005800 0.009296
v 0.005801 0.005800 0.009296
v 0.003001 0.006199 0.009112
v 0.003401 0.005800 0.009289
v 0.006200 0.005800 0.009297
v 0.016316 0.006354 0.008779
v 0.016316 -0.001186 0.009394
v 0.005801 -0.001186 0.009369
v 0.005801 0.003799 0.009370
v 0.015799 0.005399 0.009360
v 0.016199 0.005399 0.009324
v 0.016316 0.005399 0.009286
v 0.016316 0.005791 0.009148
v -0.000020 0.006293 0.009052
v 0.014598 0.005399 0.009372
v 0.008999 0.005399 0.009368
v 0.015000 0.005399 0.009371
v -0.000020 0.005399 0.009351
v 0.003800 0.005399 0.009359
v 0.006200 0.005399 0.009364
v 0.007401 0.005399 0.009366
v 0.008199 0.005399 0.009367
v -0.000020 0.005800 0.009275
v 0.016316 0.000294 0.009394
v 0.016268 -0.001186 0.009394
v -0.000020 0.004780 0.009354
v 0.006200 0.004200 0.009371
v 0.016316 0.005000 0.009342
v 0.015799 0.005000 0.009378
v 0.016199 0.004200 0.009386
v -0.000020 0.005000 0.009353
v 0.006600 0.004599 0.009371
v 0.016316 0.000600 0.009393
v 0.006600 0.004200 0.009372
v 0.016199 0.004599 0.009382
v 0.016316 0.004599 0.009360
v 0.016316 0.001035 0.009393
v 0.016316 0.001379 0.009392
v 0.016316 0.001727 0.009391
v 0.016316 0.002137 0.009389
v 0.016316 0.004200 0.009365
f 11 22 23
f 34 22 37
f 21 33 10
f 5 1 4
f 22 34 35
f 37 50 49
f 49 34 37
f 65 84 79
f 51 52 38
f 51 69 52
f 91 95 98
f 52 69 70
f 29 26 57
f 19 26 29
f 14 26 19
f 3 10 1
f 21 10 3
f 23 22 36
f 22 35 36
f 71 53 56
f 78 90 71
f 76 90 78
f 71 56 78
f 71 90 96
f 97 89 96
f 96 102 97
f 77 76 59
f 77 90 76
f 77 96 90
f 77 83 91
f 91 96 77
f 93 95 91
f 91 83 93
f 62 65 79
f 84 65 64
f 86 70 69
f 68 85 86
f 26 14 25
f 25 14 24
f 21 3 9
f 9 20 21
f 74 54 73
f 55 54 74
f 73 54 72
f 72 54 53
f 72 53 71
f 72 89 73
f 71 96 72
f 72 96 89
f 102 96 101
f 101 96 91
f 92 93 79
f 79 93 80
f 80 93 81
f 66 77 59
f 83 77 66
f 75 64 57
f 84 64 75
f 94 98 95
f 95 85 94
f 70 86 88
f 52 70 88
f 88 85 95
f 88 86 85
f 88 87 52
f 95 93 88
f 88 92 87
f 93 92 88
f 4 12 13
f 13 5 4
f 13 12 24
f 13 14 5
f 24 14 13
f 7 14 19
f 5 14 7
f 20 9 15
f 57 64 47
f 65 62 47
f 47 64 65
f 59 76 58
f 76 60 58
f 46 58 60
f 91 98 99
f 63 80 81
f 63 62 79
f 79 80 63
f 83 66 63
f 63 47 62
f 66 47 63
f 16 7 19
f 8 7 16
f 19 29 16
f 29 30 16
f 31 67 32
f 21 20 32
f 20 31 32
f 27 15 18
f 18 17 27
f 27 16 30
f 17 16 27
f 28 31 20
f 20 15 28
f 1 5 2
f 2 3 1
f 5 7 2
f 2 7 8
f 57 47 44
f 44 47 30
f 44 29 57
f 44 30 29
f 56 46 61
f 61 46 60
f 61 78 56
f 76 78 61
f 61 60 76
f 30 47 48
f 48 66 59
f 48 47 66
f 100 101 91
f 91 99 100
f 83 63 82
f 82 63 81
f 82 93 83
f 81 93 82
f 40 28 15
f 42 67 31
f 31 28 42
f 55 67 42
f 53 54 41
f 41 42 28
f 41 54 55
f 55 42 41
f 6 15 9
f 6 9 3
f 3 2 6
f 6 2 8
f 18 15 6
f 6 17 18
f 8 16 6
f 6 16 17
f 45 46 30
f 30 48 45
f 45 48 59
f 59 58 45
f 58 46 45
f 15 27 39
f 39 40 15
f 39 27 30
f 30 46 39
f 43 39 46
f 40 39 43
f 43 46 56
f 28 40 43
f 43 56 53
f 53 41 43
f 43 41 28
f 10 33 37
f 4 1 10
f 37 22 10
f 10 11 4
f 22 11 10
f 86 38 23
f 23 36 86
f 86 50 68
f 86 51 38
f 86 49 50
f 86 35 34
f 34 49 86
f 69 51 86
f 86 36 35
f 79 84 75
f 26 25 75
f 4 11 75
f 23 38 75
f 38 52 75
f 75 11 23
f 75 92 79
f 57 26 75
f 52 87 75
f 75 12 4
f 24 12 75
f 75 25 24
f 87 92 75
f 68 50 100
f 100 50 37
f 37 33 100
f 98 94 100
f 100 33 21
f 100 85 68
f 73 89 100
f 97 102 100
f 100 89 97
f 100 74 73
f 102 101 100
f 55 74 100
f 100 99 98
f 100 94 85
f 100 67 55
f 21 32 100
f 100 32 67
