# generated by collision_forge
v 0.017827 -0.005293 0.000391
v 0.017891 -0.005293 0.000056
v 0.017846 -0.005293 0.000460
v 0.017863 0.005402 0.000391
v 0.017914 0.005402 0.000081
v 0.018225 -0.005293 -0.000151
v 0.018199 0.005402 -0.000106
v 0.017937 -0.005293 0.000666
v 0.017949 0.005402 0.000664
v 0.018397 -0.003155 -0.000210
v 0.018594 -0.005293 -0.000204
v 0.018200 0.005400 -0.000107
v 0.018598 0.005402 -0.000182
v 0.018983 -0.005291 0.001592
v 0.018939 -0.003000 0.001592
v 0.018932 -0.002600 0.001592
v 0.018921 -0.001800 0.001592
v 0.018920 -0.001400 0.001592
v 0.018200 0.005402 0.000836
v 0.018921 -0.001185 0.001592
v 0.018600 0.003399 -0.000198
v 0.019000 -0.005293 -0.000112
v 0.018625 -0.003399 -0.000204
v 0.019000 -0.002600 -0.000128
v 0.019000 -0.003000 -0.000127
v 0.018999 0.005402 -0.000100
v 0.018990 -0.005293 0.001592
v 0.018910 0.005400 0.001293
v 0.018934 -0.001185 0.001592
v 0.019852 0.005402 0.001293
v 0.019000 0.003399 -0.000126
v 0.019000 0.002999 -0.000129
v 0.019390 -0.002600 0.000067
v 0.019385 -0.003399 0.000071
v 0.019366 -0.005293 0.000083
v 0.019395 -0.001185 0.000066
v 0.019392 -0.002200 0.000067
v 0.019397 0.000200 0.000065
v 0.019000 0.005000 -0.000108
v 0.019000 0.004599 -0.000113
v 0.019000 0.004199 -0.000118
v 0.019000 0.003799 -0.000122
v 0.020159 -0.005293 0.001592
v 0.020149 -0.001186 0.001592
v 0.020156 0.005402 0.001189
v 0.020156 0.005400 0.001293
v 0.019378 0.003799 0.000071
v 0.019381 0.003399 0.000069
v 0.019383 0.002999 0.000067
v 0.019392 0.001799 0.000066
v 0.019592 -0.002200 0.000197
v 0.019585 -0.003399 0.000202
v 0.019583 -0.003799 0.000204
v 0.019566 -0.005293 0.000216
v 0.019596 -0.000599 0.000193
v 0.019597 0.000200 0.000193
v 0.019597 -0.000199 0.000193
v 0.019550 0.005402 0.000229
v 0.019358 0.005000 0.000080
v 0.019373 0.004199 0.000073
v 0.020160 -0.005293 0.001590
v 0.020159 0.005000 0.001190
v 0.020159 0.005000 0.001293
v 0.019578 0.003799 0.000208
v 0.019592 0.001799 0.000197
v 0.019594 0.001400 0.000196
v 0.019596 0.000600 0.000194
v 0.019783 -0.003799 0.000403
v 0.019719 -0.005293 0.000363
v 0.019782 -0.000199 0.000393
v 0.019765 0.005400 0.000429
v 0.019573 0.004199 0.000212
v 0.020163 -0.005293 0.001484
v 0.020180 -0.000199 0.001190
v 0.020180 0.000200 0.001190
v 0.019965 0.005400 0.000659
v 0.020057 0.004599 0.000849
v 0.020161 0.004599 0.001190
v 0.020071 0.001400 0.000828
v 0.020069 0.001799 0.000830
v 0.020059 0.004199 0.000845
v 0.020176 0.001400 0.001190
v 0.019774 0.003799 0.000408
v 0.019779 0.001400 0.000396
v 0.019983 -0.003799 0.000626
v 0.019981 -0.004199 0.000628
v 0.019975 -0.005293 0.000639
v 0.019982 0.000200 0.000624
v 0.019982 -0.000199 0.000624
v 0.020169 -0.005293 0.001190
v 0.020074 -0.000199 0.000824
v 0.020074 0.000200 0.000824
v 0.020073 0.000600 0.000825
v 0.019970 0.004599 0.000649
v 0.019976 0.003399 0.000638
v 0.019972 0.004199 0.000645
v 0.019978 0.002999 0.000635
v 0.020064 -0.004199 0.000828
v 0.020063 -0.005293 0.000839
v 0.020073 -0.000599 0.000825
v 0.020039 -0.005293 0.000785
v 0.020141 -0.005293 0.001096
f 10 6 12
f 3 8 9
f 3 4 1
f 3 9 4
f 9 8 18
f 7 12 6
f 14 8 27
f 11 6 10
f 10 23 11
f 11 23 24
f 9 18 20
f 1 4 5
f 21 23 10
f 73 90 74
f 15 8 14
f 15 16 8
f 17 18 8
f 8 16 17
f 9 20 19
f 19 20 28
f 1 5 2
f 2 5 7
f 2 7 6
f 24 23 32
f 23 21 32
f 59 26 58
f 66 83 84
f 12 7 13
f 10 12 13
f 13 21 10
f 61 73 74
f 74 75 61
f 61 75 63
f 99 98 102
f 90 102 100
f 100 102 98
f 53 54 35
f 58 76 71
f 76 83 71
f 84 83 97
f 28 20 30
f 30 19 28
f 43 61 44
f 46 30 44
f 63 46 44
f 44 61 63
f 62 46 63
f 64 71 83
f 74 90 91
f 90 100 91
f 91 89 92
f 53 35 34
f 35 22 34
f 92 89 88
f 88 97 92
f 84 97 88
f 84 88 70
f 70 88 89
f 85 70 89
f 68 70 85
f 89 91 85
f 85 91 100
f 85 100 98
f 85 98 99
f 69 68 87
f 69 54 53
f 53 68 69
f 45 30 46
f 45 76 58
f 46 62 45
f 29 30 20
f 29 44 30
f 63 75 82
f 60 40 39
f 26 59 39
f 39 59 60
f 39 13 26
f 39 40 13
f 31 32 21
f 21 13 31
f 83 66 65
f 65 64 83
f 60 59 72
f 72 64 60
f 72 59 58
f 58 71 72
f 71 64 72
f 32 50 38
f 38 36 24
f 24 32 38
f 25 22 11
f 25 11 24
f 95 97 83
f 83 96 95
f 94 83 76
f 94 96 83
f 52 68 53
f 52 51 68
f 53 34 52
f 55 70 68
f 68 51 55
f 33 52 34
f 51 52 33
f 33 34 22
f 22 25 33
f 87 68 86
f 68 85 86
f 86 101 87
f 99 101 86
f 86 85 99
f 78 62 63
f 63 82 78
f 42 31 13
f 31 42 47
f 60 64 47
f 47 40 60
f 49 50 32
f 32 31 49
f 66 50 49
f 49 65 66
f 67 50 66
f 67 66 84
f 76 45 77
f 77 94 76
f 77 45 62
f 96 94 77
f 77 95 96
f 36 55 37
f 24 36 37
f 37 55 51
f 51 33 37
f 37 25 24
f 37 33 25
f 40 47 41
f 41 47 42
f 13 40 41
f 41 42 13
f 31 47 48
f 48 49 31
f 65 49 48
f 64 65 48
f 48 47 64
f 70 55 57
f 36 38 57
f 57 55 36
f 92 97 93
f 93 75 92
f 93 82 75
f 97 95 80
f 70 57 56
f 84 70 56
f 56 67 84
f 56 57 38
f 56 38 50
f 50 67 56
f 95 77 81
f 81 80 95
f 81 77 62
f 62 80 81
f 79 93 97
f 97 80 79
f 82 93 79
f 79 78 82
f 62 78 79
f 79 80 62
f 92 75 91
f 91 75 74
f 69 27 8
f 99 102 69
f 69 3 1
f 69 61 43
f 8 3 69
f 6 11 69
f 43 27 69
f 1 2 69
f 90 73 69
f 69 101 99
f 69 2 6
f 73 61 69
f 69 102 90
f 11 22 69
f 69 35 54
f 87 101 69
f 69 22 35
f 45 5 4
f 4 9 45
f 58 26 45
f 9 19 45
f 7 5 45
f 45 13 7
f 26 13 45
f 19 30 45
f 29 27 43
f 14 27 29
f 18 17 29
f 29 15 14
f 29 20 18
f 16 15 29
f 29 17 16
f 43 44 29
