# generated by collision_forge
v 0.008599 0.008406 0.001348
v -0.000020 0.008402 0.001405
v 0.009398 0.008406 0.001434
v -0.000020 0.008402 0.001346
v 0.001802 0.008389 0.001145
v -0.000020 0.008389 0.001146
v -0.000020 0.008384 0.001515
v 0.008086 0.008361 0.001737
v 0.009283 0.008361 0.001737
v 0.016316 0.008403 0.001406
v 0.016316 0.008403 0.001379
v 0.004200 0.008213 0.000791
v 0.003401 0.008214 0.000791
v 0.008199 0.008375 0.001147
v 0.008999 0.008206 0.000791
v 0.008599 0.008207 0.000791
v 0.003001 0.008212 0.000791
v -0.000020 0.008303 0.000985
v -0.000020 0.008369 0.001605
v 0.003001 0.008352 0.001737
v 0.016199 0.008352 0.001179
v 0.009398 0.008372 0.001151
v 0.008999 0.008373 0.001150
v 0.008999 0.008033 0.000557
v 0.003401 0.008029 0.000559
v 0.008599 0.008033 0.000557
v 0.004200 0.008030 0.000558
v 0.009398 0.008205 0.000791
v 0.016316 0.008025 0.000566
v 0.009398 0.008032 0.000557
v -0.000020 0.008199 0.000791
v -0.000020 0.008347 0.001737
v 0.016063 0.008347 0.001737
v 0.016316 0.008301 0.001067
v 0.016316 0.008177 0.000791
v 0.006600 0.007597 0.000192
v -0.000020 0.007591 0.000198
v 0.003001 0.008028 0.000561
v 0.016316 0.008134 0.000726
v -0.000020 0.008009 0.000582
v -0.000020 0.006913 0.001737
v 0.016316 0.008345 0.001737
v 0.001400 0.007391 0.000067
v -0.000020 0.007391 0.000066
v -0.000020 0.007501 0.000138
v 0.016316 0.007733 0.000338
v 0.016316 0.007567 0.000214
v 0.016316 0.007367 0.000083
v 0.012999 0.007374 0.000078
v -0.000020 0.007706 0.000302
v 0.000201 0.006911 0.001737
v -0.000020 0.006027 0.000463
v 0.000601 0.006023 0.000471
v 0.005801 0.006003 0.000520
v 0.012999 0.007000 -0.000084
v -0.000020 0.007000 -0.000077
v 0.016316 0.007000 -0.000074
v 0.014598 0.007000 -0.000080
v 0.014199 0.007000 -0.000081
v 0.013799 0.007000 -0.000082
v 0.001947 0.006901 0.001737
v -0.000020 0.006005 0.000353
v -0.000020 0.005988 0.000263
v 0.006200 0.006004 0.000520
v 0.005401 0.006897 0.001737
v 0.016316 0.005993 0.000227
v 0.016303 0.007024 0.001737
v 0.016316 0.006236 0.000748
v 0.010999 0.006600 -0.000143
v 0.005001 0.006600 -0.000128
v 0.004601 0.006600 -0.000126
v 0.003800 0.006600 -0.000122
v -0.000020 0.006600 -0.000097
v 0.010599 0.006600 -0.000142
v 0.008599 0.006600 -0.000137
v 0.016316 0.006600 -0.000125
v 0.015400 0.006600 -0.000129
v 0.014598 0.006600 -0.000132
v 0.014199 0.006600 -0.000134
v 0.011399 0.006600 -0.000142
v -0.000020 0.005988 0.000171
v 0.006600 0.006004 0.000518
v 0.011399 0.006207 0.000766
v 0.006200 0.006901 0.001737
v 0.001400 0.005987 0.000170
v 0.016316 0.005993 0.000179
v 0.016316 0.006036 0.000427
v 0.010999 0.006007 0.000471
v 0.010599 0.006007 0.000477
v 0.015400 0.006983 0.001737
v 0.016199 0.006236 0.000751
v 0.016316 0.006200 0.000020
v 0.013399 0.006200 0.000012
v 0.007801 0.006200 0.000015
v -0.000020 0.006200 0.000026
v -0.000020 0.006420 -0.000042
v 0.016316 0.006484 -0.000083
v -0.000020 0.006104 0.000091
v 0.011799 0.006209 0.000765
v 0.011546 0.006938 0.001737
v 0.016316 0.006140 0.000066
v 0.015799 0.006234 0.000753
f 3 9 10
f 1 4 2
f 2 3 1
f 42 67 68
f 8 3 2
f 9 3 8
f 93 86 85
f 61 54 65
f 33 42 10
f 10 9 33
f 68 67 90
f 41 52 53
f 53 54 41
f 41 54 51
f 54 61 51
f 65 83 84
f 84 83 100
f 72 73 56
f 56 71 72
f 56 44 55
f 69 56 55
f 57 58 48
f 92 93 69
f 58 57 78
f 32 20 19
f 54 53 63
f 63 81 85
f 91 87 68
f 91 90 100
f 68 90 91
f 82 83 65
f 89 82 66
f 54 63 66
f 85 86 66
f 66 63 85
f 28 14 23
f 23 35 28
f 22 35 23
f 39 29 28
f 28 35 39
f 95 72 71
f 74 56 69
f 74 75 56
f 69 95 74
f 74 95 75
f 70 71 56
f 56 75 70
f 70 95 71
f 75 95 70
f 40 31 38
f 31 25 38
f 36 47 48
f 5 13 6
f 6 1 5
f 4 1 6
f 27 13 26
f 25 13 27
f 26 36 27
f 69 55 60
f 86 93 101
f 93 92 101
f 7 19 20
f 7 20 8
f 7 8 2
f 62 53 52
f 62 63 53
f 87 91 88
f 88 91 89
f 88 66 87
f 89 66 88
f 83 82 99
f 99 82 89
f 100 83 99
f 65 54 64
f 64 82 65
f 54 66 64
f 64 66 82
f 34 35 22
f 22 21 34
f 73 72 96
f 72 95 96
f 94 93 85
f 85 81 94
f 69 93 94
f 94 95 69
f 37 38 25
f 25 27 37
f 37 27 36
f 46 36 29
f 47 36 46
f 29 36 30
f 30 16 29
f 49 36 48
f 48 60 49
f 49 60 55
f 12 13 5
f 5 16 12
f 26 13 12
f 5 14 15
f 15 16 5
f 15 14 28
f 28 29 15
f 29 16 15
f 17 6 13
f 17 25 31
f 17 13 25
f 48 58 59
f 59 60 48
f 69 60 59
f 76 97 77
f 77 57 76
f 77 78 57
f 77 97 92
f 92 78 77
f 89 91 102
f 102 99 89
f 102 91 100
f 100 99 102
f 11 34 21
f 11 21 22
f 22 23 11
f 11 23 14
f 11 14 5
f 5 1 11
f 11 3 10
f 11 1 3
f 98 94 81
f 95 94 98
f 40 38 50
f 38 37 50
f 45 36 44
f 45 37 36
f 24 36 26
f 24 30 36
f 26 12 24
f 16 30 24
f 24 12 16
f 44 36 43
f 36 49 43
f 43 55 44
f 43 49 55
f 18 17 31
f 6 17 18
f 79 78 92
f 59 79 80
f 69 59 80
f 80 92 69
f 80 79 92
f 84 61 65
f 9 8 84
f 41 51 84
f 84 32 41
f 67 42 84
f 84 33 9
f 84 90 67
f 84 20 32
f 42 33 84
f 100 90 84
f 8 20 84
f 84 51 61
f 68 87 11
f 10 42 11
f 48 47 11
f 11 42 68
f 29 39 11
f 11 97 76
f 11 57 48
f 11 66 86
f 11 46 29
f 76 57 11
f 86 101 11
f 87 66 11
f 11 39 35
f 11 101 92
f 92 97 11
f 35 34 11
f 47 46 11
f 41 32 18
f 2 4 18
f 18 7 2
f 56 73 18
f 18 31 40
f 18 52 41
f 18 44 56
f 18 62 52
f 73 96 18
f 4 6 18
f 32 19 18
f 81 63 18
f 18 98 81
f 18 45 44
f 19 7 18
f 63 62 18
f 18 96 95
f 40 50 18
f 95 98 18
f 18 50 37
f 37 45 18
f 79 59 58
f 58 78 79
