# generated by collision_forge
v -0.019469 0.005981 0.003172
v -0.019214 0.005981 0.003839
v -0.019400 0.006180 0.003172
v -0.018367 0.005981 0.003172
v -0.018429 0.005981 0.005879
v -0.000020 0.006948 0.003172
v -0.000020 0.005981 0.008008
v -0.019212 0.006423 0.003423
v -0.017988 0.005981 0.006967
v -0.000020 0.008093 0.003172
v -0.000020 0.005981 0.008727
v -0.018841 0.006459 0.004292
v -0.019252 0.006524 0.003172
v -0.017605 0.006007 0.007801
v -0.003001 0.008098 0.003172
v -0.000020 0.006200 0.009099
v -0.000022 0.005981 0.009195
v -0.018797 0.006798 0.003787
v -0.017329 0.005981 0.008202
v -0.017249 0.006053 0.008247
v -0.017207 0.006408 0.007803
v -0.017615 0.006417 0.007023
v -0.000020 0.007985 0.003716
v -0.003401 0.008028 0.003525
v -0.003382 0.008098 0.003172
v -0.000020 0.006293 0.009052
v -0.003220 0.005981 0.009207
v -0.018755 0.007152 0.003172
v -0.018018 0.006819 0.005433
v -0.016845 0.006440 0.008238
v -0.016783 0.006790 0.007769
v -0.000020 0.007208 0.007429
v -0.015399 0.007367 0.006790
v -0.003801 0.008028 0.003526
v -0.008200 0.008098 0.003172
v -0.000020 0.006406 0.008995
v -0.003001 0.006414 0.009002
v -0.003401 0.005981 0.009208
v -0.018405 0.007205 0.003805
v -0.016891 0.005981 0.008657
v -0.016415 0.006015 0.009000
v -0.016446 0.006435 0.008629
v -0.016383 0.006795 0.008180
v -0.016628 0.006922 0.007617
v -0.000020 0.007164 0.007629
v -0.015399 0.007283 0.007190
v -0.015399 0.007220 0.007480
v -0.015798 0.007448 0.006390
v -0.016198 0.007770 0.004791
v -0.011798 0.008092 0.003191
v -0.000020 0.006594 0.008791
v -0.006601 0.006421 0.009008
v -0.006201 0.006200 0.009123
v -0.005802 0.005981 0.009215
v -0.018290 0.007531 0.003172
v -0.017161 0.007183 0.006143
v -0.017260 0.006849 0.006790
v -0.016198 0.005981 0.009079
v -0.016198 0.006491 0.008694
v -0.016198 0.007086 0.007590
v -0.016800 0.007200 0.006592
v -0.004200 0.007056 0.007991
v -0.015399 0.007176 0.007680
v -0.015798 0.007363 0.006790
v -0.016849 0.008012 0.003444
v -0.016198 0.008083 0.003172
v -0.000020 0.006788 0.008566
v -0.003001 0.006793 0.008577
v -0.007001 0.006421 0.009008
v -0.006601 0.006200 0.009124
v -0.007001 0.005981 0.009215
v -0.018106 0.007650 0.003172
v -0.017597 0.007599 0.004189
v -0.015625 0.006409 0.008997
v -0.015798 0.006757 0.008523
v -0.015798 0.007036 0.007991
v -0.015983 0.007198 0.007384
v -0.016434 0.007610 0.005426
v -0.017380 0.007944 0.003172
v -0.004200 0.006892 0.008376
v -0.003001 0.006889 0.008377
v -0.000020 0.007048 0.007991
v -0.013799 0.007072 0.007991
v -0.015399 0.007074 0.007991
v -0.016600 0.008081 0.003172
v -0.000020 0.006884 0.008366
v -0.007001 0.006793 0.008578
v -0.014599 0.006425 0.009011
v -0.013799 0.006425 0.009011
v -0.014599 0.006200 0.009121
v -0.014599 0.005981 0.009212
v -0.015789 0.005981 0.009169
v -0.015617 0.005981 0.009189
v -0.015399 0.006417 0.009004
v -0.015399 0.006784 0.008565
v -0.015399 0.006899 0.008365
v -0.017392 0.007940 0.003172
v -0.000020 0.006958 0.008196
v -0.014599 0.006609 0.008791
v -0.014999 0.006424 0.009009
v -0.014818 0.005981 0.009211
v -0.015399 0.005981 0.009206
f 6 7 4
f 65 85 79
f 85 65 49
f 35 49 34
f 100 102 90
f 58 92 74
f 73 72 56
f 39 28 29
f 9 19 14
f 28 13 18
f 29 28 18
f 18 14 29
f 50 49 35
f 78 65 79
f 61 73 56
f 77 78 61
f 61 78 79
f 35 34 25
f 25 34 15
f 33 34 48
f 48 34 49
f 48 46 33
f 96 84 76
f 37 53 36
f 82 62 81
f 24 10 15
f 15 34 24
f 23 10 24
f 33 23 24
f 24 34 33
f 84 83 63
f 63 83 62
f 76 84 63
f 63 77 76
f 17 53 27
f 54 53 70
f 59 74 75
f 75 74 95
f 75 43 59
f 76 43 75
f 75 96 76
f 95 96 75
f 102 74 93
f 93 74 92
f 94 102 100
f 94 74 102
f 100 95 94
f 95 74 94
f 72 73 97
f 97 61 79
f 73 61 97
f 28 39 55
f 56 72 55
f 55 39 56
f 41 40 58
f 58 74 41
f 41 74 59
f 29 14 22
f 14 21 22
f 57 21 31
f 57 31 56
f 29 22 57
f 57 22 21
f 57 39 29
f 56 39 57
f 14 19 20
f 20 21 14
f 19 40 20
f 66 50 35
f 85 49 66
f 49 50 66
f 56 31 44
f 44 61 56
f 31 43 44
f 87 96 95
f 80 68 81
f 84 96 80
f 96 87 80
f 80 87 68
f 80 83 84
f 81 62 80
f 62 83 80
f 37 36 51
f 81 86 98
f 98 82 81
f 46 48 64
f 77 63 64
f 64 78 77
f 64 48 49
f 64 49 65
f 65 78 64
f 62 82 45
f 45 63 62
f 90 91 71
f 54 70 71
f 71 70 90
f 101 90 102
f 101 91 90
f 38 53 54
f 38 27 53
f 100 90 88
f 90 70 88
f 68 87 88
f 69 70 53
f 9 8 5
f 13 8 12
f 12 8 9
f 12 18 13
f 12 9 14
f 14 18 12
f 42 41 59
f 40 41 42
f 59 43 42
f 42 20 40
f 31 21 30
f 21 20 30
f 20 42 30
f 30 43 31
f 30 42 43
f 60 44 43
f 76 77 60
f 60 43 76
f 77 61 60
f 61 44 60
f 17 11 16
f 16 53 17
f 68 51 67
f 67 86 81
f 81 68 67
f 46 64 47
f 47 64 63
f 63 45 47
f 99 87 95
f 99 88 87
f 99 95 100
f 100 88 99
f 52 53 37
f 52 69 53
f 37 51 52
f 52 51 68
f 68 69 52
f 89 88 70
f 70 69 89
f 68 88 89
f 89 69 68
f 3 5 8
f 3 8 13
f 26 36 53
f 53 16 26
f 46 47 32
f 32 47 45
f 33 46 32
f 32 23 33
f 2 3 1
f 5 3 2
f 35 25 3
f 28 55 3
f 3 4 1
f 6 4 3
f 79 85 3
f 3 66 35
f 3 10 6
f 3 97 79
f 3 13 28
f 15 10 3
f 3 25 15
f 72 97 3
f 3 55 72
f 85 66 3
f 6 10 32
f 32 7 6
f 32 98 86
f 32 10 23
f 32 11 7
f 86 67 32
f 36 26 32
f 32 51 36
f 82 98 32
f 32 45 82
f 32 16 11
f 32 67 51
f 32 26 16
f 1 4 2
f 58 40 2
f 7 11 2
f 2 4 7
f 102 93 2
f 2 92 58
f 2 38 54
f 2 101 102
f 19 9 2
f 2 40 19
f 54 71 2
f 17 27 2
f 2 93 92
f 2 11 17
f 2 71 91
f 91 101 2
f 27 38 2
f 9 5 2
