# generated by collision_forge
v -0.017833 -0.005395 0.000391
v -0.017834 -0.005395 0.000387
v -0.017951 -0.005395 0.000650
v -0.016800 -0.006085 0.000379
v -0.017883 -0.005395 0.000072
v -0.016800 -0.006292 0.000671
v -0.018849 -0.005395 0.001240
v -0.016800 -0.006182 0.000055
v -0.017886 -0.005395 0.000070
v -0.016800 -0.006729 0.000876
v -0.020157 -0.005395 0.001240
v -0.018045 -0.006854 0.001240
v -0.016800 -0.006854 0.000932
v -0.016800 -0.006600 -0.000110
v -0.018200 -0.005395 -0.000098
v -0.020157 -0.005395 0.001191
v -0.020157 -0.005400 0.001240
v -0.019707 -0.006854 0.001240
v -0.016800 -0.006854 -0.000081
v -0.018205 -0.005395 -0.000099
v -0.016800 -0.006800 -0.000087
v -0.017800 -0.006600 -0.000130
v -0.018600 -0.005395 -0.000163
v -0.020156 -0.005400 0.001191
v -0.020052 -0.005395 0.000893
v -0.020052 -0.005400 0.000893
v -0.020090 -0.005829 0.001240
v -0.019839 -0.006600 0.001240
v -0.019704 -0.006854 0.001191
v -0.017147 -0.006854 -0.000086
v -0.017546 -0.006854 -0.000092
v -0.018200 -0.006600 -0.000117
v -0.018600 -0.005800 -0.000152
v -0.018605 -0.005395 -0.000162
v -0.020032 -0.005728 0.000930
v -0.020085 -0.005837 0.001153
v -0.019937 -0.005395 0.000696
v -0.019935 -0.005400 0.000693
v -0.020049 -0.006065 0.001240
v -0.020026 -0.006144 0.001240
v -0.019836 -0.006600 0.001191
v -0.019634 -0.006854 0.000983
v -0.017946 -0.006854 -0.000077
v -0.018200 -0.006854 -0.000037
v -0.018346 -0.006854 -0.000006
v -0.018600 -0.006600 -0.000033
v -0.018600 -0.006200 -0.000120
v -0.019000 -0.005400 -0.000083
v -0.019000 -0.005395 -0.000083
v -0.019925 -0.005837 0.000794
v -0.019998 -0.005994 0.000995
v -0.019935 -0.005395 0.000693
v -0.019736 -0.005395 0.000442
v -0.019735 -0.005400 0.000442
v -0.019708 -0.005800 0.000472
v -0.019968 -0.006233 0.001153
v -0.019679 -0.006586 0.000799
v -0.019626 -0.006841 0.000939
v -0.019622 -0.006854 0.000950
v -0.018585 -0.006854 0.000066
v -0.018844 -0.006850 0.000164
v -0.018929 -0.006600 0.000113
v -0.019037 -0.006233 0.000060
v -0.019000 -0.005800 -0.000050
v -0.019336 -0.005400 0.000101
v -0.019336 -0.005395 0.000101
v -0.019004 -0.005395 -0.000081
v -0.019820 -0.006200 0.000791
v -0.019657 -0.006200 0.000528
v -0.019620 -0.006443 0.000567
v -0.019538 -0.005395 0.000244
v -0.019536 -0.005400 0.000242
v -0.019501 -0.005800 0.000272
v -0.019546 -0.006709 0.000672
v -0.019610 -0.006854 0.000927
v -0.018837 -0.006854 0.000163
v -0.018848 -0.006854 0.000169
v -0.019129 -0.006600 0.000242
v -0.019195 -0.006388 0.000194
v -0.018842 -0.006854 0.000165
v -0.019245 -0.006121 0.000159
v -0.019301 -0.005800 0.000123
v -0.019536 -0.005395 0.000242
v -0.019387 -0.006233 0.000303
v -0.019407 -0.006586 0.000458
v -0.019301 -0.006854 0.000511
v -0.019354 -0.006854 0.000564
v -0.019479 -0.006854 0.000722
f 13 7 12
f 4 8 5
f 7 13 10
f 10 6 7
f 7 6 3
f 3 6 4
f 4 1 3
f 2 1 4
f 4 5 2
f 15 8 14
f 47 33 32
f 9 5 8
f 8 15 9
f 20 14 23
f 20 15 14
f 72 83 66
f 23 33 34
f 34 33 49
f 22 31 32
f 32 33 22
f 23 14 22
f 22 33 23
f 32 31 43
f 79 81 63
f 46 32 45
f 46 47 32
f 41 40 56
f 56 57 41
f 36 39 27
f 71 83 72
f 72 53 71
f 37 26 25
f 36 27 24
f 51 57 56
f 51 39 36
f 40 39 51
f 56 40 51
f 63 81 82
f 45 32 44
f 32 43 44
f 21 22 14
f 21 19 22
f 31 22 30
f 22 19 30
f 61 80 77
f 60 46 45
f 61 46 60
f 62 79 63
f 61 79 62
f 63 46 62
f 62 46 61
f 75 74 88
f 70 74 57
f 57 51 70
f 40 41 28
f 28 29 18
f 41 29 28
f 36 24 35
f 35 24 26
f 35 51 36
f 17 24 27
f 16 17 11
f 24 17 16
f 16 25 26
f 26 24 16
f 72 66 65
f 65 82 72
f 78 77 86
f 78 79 61
f 61 77 78
f 76 80 61
f 61 60 76
f 87 88 74
f 87 70 86
f 74 70 87
f 58 41 57
f 57 74 58
f 58 74 75
f 68 70 51
f 48 65 66
f 49 33 48
f 33 47 48
f 86 70 85
f 85 78 86
f 85 70 79
f 79 78 85
f 38 26 37
f 38 35 26
f 72 82 73
f 73 55 72
f 73 69 55
f 73 82 81
f 70 69 73
f 42 29 41
f 41 58 42
f 49 48 67
f 67 48 66
f 82 65 64
f 65 48 64
f 63 82 64
f 64 48 47
f 64 46 63
f 47 46 64
f 52 38 37
f 53 38 52
f 54 38 53
f 55 38 54
f 54 53 72
f 72 55 54
f 35 38 50
f 50 38 55
f 55 69 50
f 50 69 70
f 70 68 50
f 51 35 50
f 50 68 51
f 79 70 84
f 70 73 84
f 81 79 84
f 84 73 81
f 59 58 75
f 59 42 58
f 14 8 21
f 21 8 4
f 21 10 13
f 4 6 21
f 6 10 21
f 13 19 21
f 17 7 11
f 12 7 17
f 17 18 12
f 17 28 18
f 17 39 40
f 17 27 39
f 40 28 17
f 11 7 52
f 1 2 52
f 5 9 52
f 7 3 52
f 83 71 52
f 52 3 1
f 52 2 5
f 52 66 83
f 52 20 23
f 23 34 52
f 52 9 15
f 15 20 52
f 49 67 52
f 52 16 11
f 52 34 49
f 52 71 53
f 37 25 52
f 25 16 52
f 52 67 66
f 12 18 59
f 59 13 12
f 31 30 59
f 59 19 13
f 59 60 45
f 80 76 59
f 59 43 31
f 45 44 59
f 86 77 59
f 59 44 43
f 59 30 19
f 59 77 80
f 18 29 59
f 75 88 59
f 59 87 86
f 59 76 60
f 88 87 59
f 29 42 59
