# generated by collision_forge
v 0.017648 -0.008261 0.001191
v 0.017648 -0.008100 0.000786
v 0.017762 -0.008080 0.000783
v 0.017800 -0.008229 0.001191
v 0.017648 -0.008253 0.001590
v 0.018407 -0.008004 0.000983
v 0.017800 -0.008217 0.001590
v 0.017648 -0.008165 0.001990
v 0.017648 -0.007949 0.000553
v 0.018200 -0.007706 0.000487
v 0.018919 -0.007694 0.001191
v 0.018440 -0.008022 0.001191
v 0.018474 -0.007650 0.000541
v 0.018861 -0.007648 0.000914
v 0.018446 -0.008026 0.001501
v 0.017648 -0.008073 0.002378
v 0.017800 -0.007550 0.000229
v 0.019119 -0.007529 0.001191
v 0.018908 -0.007685 0.001590
v 0.018422 -0.007217 0.000180
v 0.018909 -0.007288 0.000516
v 0.018741 -0.007555 0.000648
v 0.019264 -0.007270 0.000885
v 0.018385 -0.007994 0.001768
v 0.017906 -0.007972 0.002491
v 0.017648 -0.008009 0.002627
v 0.017648 -0.007363 0.000095
v 0.018200 -0.007270 0.000145
v 0.019322 -0.007329 0.001191
v 0.019313 -0.007319 0.001590
v 0.019108 -0.007519 0.001590
v 0.018200 -0.007000 0.000003
v 0.018844 -0.006845 0.000166
v 0.019175 -0.007175 0.000618
v 0.019634 -0.006846 0.000927
v 0.019522 -0.007102 0.001191
v 0.018789 -0.007591 0.002167
v 0.018234 -0.007715 0.002792
v 0.017747 -0.007934 0.002792
v 0.017648 -0.007962 0.002792
v 0.017800 -0.007000 -0.000074
v 0.019513 -0.007097 0.001590
v 0.018200 -0.006600 -0.000138
v 0.018600 -0.006600 -0.000031
v 0.019203 -0.006405 0.000188
v 0.019286 -0.006908 0.000517
v 0.019679 -0.006902 0.001191
v 0.019677 -0.006897 0.001590
v 0.018866 -0.007264 0.002792
v 0.018582 -0.007487 0.002792
v 0.017648 -0.007561 0.002792
v 0.017648 -0.006600 -0.000171
v 0.019631 -0.006838 0.001882
v 0.019201 -0.007201 0.002193
v 0.018418 -0.006024 -0.000212
v 0.018571 -0.006174 -0.000154
v 0.019000 -0.006200 0.000013
v 0.019640 -0.006471 0.000548
v 0.020003 -0.006407 0.001379
v 0.020003 -0.006407 0.001400
v 0.017648 -0.006884 0.002791
v 0.018389 -0.005529 -0.000211
v 0.017648 -0.006200 -0.000133
v 0.019585 -0.006774 0.002149
v 0.018653 -0.005800 -0.000192
v 0.019000 -0.005800 -0.000078
v 0.019332 -0.005800 0.000104
v 0.019532 -0.005800 0.000242
v 0.019695 -0.006200 0.000495
v 0.019951 -0.005800 0.000687
v 0.020016 -0.006046 0.000951
v 0.020134 -0.005800 0.001191
v 0.020122 -0.005800 0.001590
v 0.019249 -0.006856 0.002791
v 0.018671 -0.005293 0.002792
v 0.017846 -0.005293 0.000460
v 0.017827 -0.005293 0.000391
v 0.017648 -0.005706 0.000391
v 0.018594 -0.005293 -0.000204
v 0.018225 -0.005293 -0.000151
v 0.017648 -0.005821 0.000028
v 0.017891 -0.005293 0.000056
v 0.019600 -0.006401 0.002592
v 0.019408 -0.006601 0.002792
v 0.019000 -0.005293 -0.000112
v 0.019000 -0.005400 -0.000112
v 0.019565 -0.005400 0.000217
v 0.019751 -0.005800 0.000442
v 0.019974 -0.005400 0.000640
v 0.020161 -0.005400 0.001590
v 0.020005 -0.006017 0.001806
v 0.020032 -0.005800 0.001886
v 0.019203 -0.005293 0.002792
v 0.019430 -0.006564 0.002792
v 0.019366 -0.005293 0.000083
v 0.019975 -0.005293 0.000639
v 0.020141 -0.005293 0.001096
v 0.020170 -0.005293 0.001191
v 0.019762 -0.005294 0.002792
v 0.019680 -0.005889 0.002792
v 0.019762 -0.005402 0.002792
v 0.019904 -0.005293 0.002391
f 75 61 51
f 46 33 45
f 76 61 75
f 4 5 1
f 9 27 17
f 98 90 72
f 74 49 54
f 49 37 54
f 84 49 74
f 60 83 64
f 64 84 74
f 74 54 64
f 46 45 58
f 71 35 58
f 57 45 33
f 77 81 78
f 78 61 77
f 61 76 77
f 7 4 15
f 5 4 7
f 3 9 6
f 3 4 1
f 6 4 3
f 10 9 17
f 10 13 6
f 6 9 10
f 59 72 60
f 71 72 59
f 59 35 71
f 98 72 97
f 39 25 38
f 16 25 26
f 26 39 40
f 25 39 26
f 50 37 49
f 38 37 50
f 83 100 94
f 94 64 83
f 84 64 94
f 53 64 54
f 53 48 60
f 60 64 53
f 31 54 37
f 46 58 34
f 34 58 35
f 34 33 46
f 79 85 65
f 79 65 55
f 95 96 87
f 20 32 33
f 13 10 20
f 44 57 33
f 33 32 44
f 41 27 52
f 81 77 82
f 82 63 81
f 80 63 82
f 24 7 15
f 25 7 24
f 38 25 24
f 24 37 38
f 5 7 8
f 8 25 16
f 8 7 25
f 2 3 1
f 9 3 2
f 100 92 101
f 101 92 90
f 90 92 73
f 60 72 73
f 73 72 90
f 91 100 83
f 91 92 100
f 91 83 60
f 60 73 91
f 91 73 92
f 12 11 15
f 6 11 12
f 15 4 12
f 12 4 6
f 19 31 37
f 19 24 15
f 37 24 19
f 15 11 19
f 19 11 18
f 18 31 19
f 48 53 42
f 42 53 54
f 42 36 48
f 35 59 47
f 47 36 35
f 48 36 47
f 60 48 47
f 47 59 60
f 36 42 29
f 14 11 6
f 18 11 14
f 55 52 62
f 62 79 55
f 80 79 62
f 52 63 62
f 62 63 80
f 69 58 45
f 45 68 69
f 45 57 67
f 67 68 45
f 57 66 67
f 67 95 87
f 87 68 67
f 85 95 86
f 65 85 86
f 86 66 65
f 95 67 86
f 86 67 66
f 13 20 21
f 33 34 21
f 21 20 33
f 32 20 28
f 17 27 28
f 28 10 17
f 28 20 10
f 27 41 28
f 28 41 32
f 56 66 57
f 57 44 56
f 65 66 56
f 55 65 56
f 43 52 55
f 43 41 52
f 55 56 43
f 43 56 44
f 43 44 32
f 32 41 43
f 99 101 102
f 102 101 90
f 102 90 98
f 102 93 99
f 30 29 42
f 54 31 30
f 30 42 54
f 30 31 18
f 18 29 30
f 34 14 22
f 13 21 22
f 22 21 34
f 6 13 22
f 22 14 6
f 23 29 18
f 18 14 23
f 23 14 34
f 23 34 35
f 35 36 23
f 36 29 23
f 88 69 68
f 88 68 87
f 87 96 89
f 89 88 87
f 96 97 89
f 89 97 72
f 69 88 70
f 88 89 70
f 71 58 70
f 58 69 70
f 70 72 71
f 70 89 72
f 40 51 2
f 2 61 78
f 1 5 2
f 2 63 52
f 78 81 2
f 2 51 61
f 52 27 2
f 5 8 2
f 2 26 40
f 27 9 2
f 81 63 2
f 16 26 2
f 2 8 16
f 101 93 75
f 101 51 40
f 99 93 101
f 49 84 101
f 75 51 101
f 40 39 101
f 101 94 100
f 101 50 49
f 101 39 38
f 38 50 101
f 84 94 101
f 75 93 102
f 80 82 102
f 102 76 75
f 98 97 102
f 96 95 102
f 102 79 80
f 102 77 76
f 102 97 96
f 85 79 102
f 102 95 85
f 102 82 77
