# generated by collision_forge
v -0.016800 -0.005297 0.009077
v -0.016879 -0.005297 0.009036
v -0.016800 -0.005297 0.007836
v -0.017051 -0.005297 0.008919
v -0.016800 -0.005589 0.008986
v -0.016800 -0.007052 0.002842
v -0.018643 -0.005297 0.002842
v -0.017251 -0.005297 0.008753
v -0.017003 -0.005435 0.008901
v -0.017226 -0.005639 0.008618
v -0.016800 -0.005596 0.008981
v -0.016800 -0.008133 0.002842
v -0.019747 -0.005297 0.002842
v -0.017285 -0.005400 0.008681
v -0.016857 -0.006056 0.008638
v -0.016994 -0.005784 0.008714
v -0.017507 -0.005438 0.008394
v -0.017599 -0.005596 0.008188
v -0.017324 -0.005784 0.008382
v -0.017248 -0.006051 0.008242
v -0.017123 -0.005906 0.008509
v -0.016949 -0.008125 0.002842
v -0.016800 -0.008105 0.002991
v -0.018832 -0.005297 0.005409
v -0.019746 -0.005339 0.002842
v -0.017526 -0.005297 0.008442
v -0.016800 -0.006076 0.008662
v -0.016800 -0.006278 0.008462
v -0.017645 -0.005297 0.008291
v -0.017653 -0.005330 0.008263
v -0.017738 -0.005438 0.008029
v -0.017663 -0.005725 0.007921
v -0.017595 -0.005992 0.007780
v -0.017545 -0.005835 0.008029
v -0.017310 -0.006191 0.007957
v -0.017115 -0.006318 0.008067
v -0.016848 -0.006440 0.008239
v -0.016999 -0.008120 0.002842
v -0.016859 -0.008013 0.003449
v -0.016800 -0.008015 0.003457
v -0.018807 -0.005297 0.005477
v -0.019745 -0.005400 0.002842
v -0.019628 -0.005693 0.003063
v -0.016800 -0.006400 0.008330
v -0.017796 -0.005297 0.008012
v -0.017955 -0.005297 0.007660
v -0.017936 -0.005414 0.007601
v -0.017986 -0.005969 0.006961
v -0.017612 -0.006413 0.007015
v -0.017206 -0.006406 0.007801
v -0.018047 -0.006067 0.006695
v -0.018402 -0.006403 0.005397
v -0.018011 -0.006412 0.006211
v -0.016989 -0.006499 0.007957
v -0.016800 -0.006773 0.007741
v -0.017359 -0.008055 0.002842
v -0.016800 -0.007827 0.004191
v -0.016800 -0.007201 0.006566
v -0.017000 -0.007839 0.003991
v -0.017383 -0.008050 0.002842
v -0.018428 -0.005297 0.006490
v -0.019680 -0.005801 0.002842
v -0.018371 -0.005917 0.006118
v -0.018795 -0.006388 0.004580
v -0.017951 -0.006751 0.005697
v -0.017542 -0.006748 0.006484
v -0.017143 -0.006753 0.007190
v -0.016995 -0.006677 0.007611
v -0.019203 -0.006804 0.002999
v -0.018812 -0.006814 0.003817
v -0.018417 -0.006818 0.004627
v -0.016858 -0.006841 0.007491
v -0.016800 -0.007196 0.006579
v -0.017616 -0.007608 0.004218
v -0.017816 -0.007944 0.002842
v -0.017772 -0.007956 0.002842
v -0.018363 -0.005487 0.006498
v -0.018351 -0.005297 0.006684
v -0.019610 -0.006032 0.002842
v -0.018416 -0.005650 0.006232
v -0.019562 -0.006178 0.002842
v -0.019544 -0.006232 0.002842
v -0.019406 -0.006549 0.002842
v -0.019385 -0.006598 0.002842
v -0.018019 -0.006818 0.005430
v -0.017614 -0.006812 0.006217
v -0.019240 -0.006848 0.002842
v -0.019064 -0.007050 0.002842
v -0.018819 -0.007220 0.003031
v -0.017156 -0.007180 0.006134
v -0.016800 -0.006858 0.007521
v -0.017275 -0.006858 0.006723
v -0.018400 -0.007600 0.002991
v -0.018056 -0.007636 0.003488
v -0.018199 -0.007781 0.002842
v -0.018149 -0.007804 0.002842
v -0.018416 -0.007214 0.003821
v -0.018644 -0.007464 0.002842
v -0.018008 -0.007206 0.004605
v -0.018866 -0.007266 0.002842
v -0.018442 -0.007631 0.002842
v -0.018419 -0.007647 0.002842
f 6 7 3
f 42 62 43
f 43 24 42
f 94 74 90
f 90 72 94
f 44 37 55
f 87 69 84
f 43 61 41
f 41 24 43
f 32 48 33
f 33 48 51
f 25 24 13
f 25 42 24
f 75 74 96
f 75 76 58
f 58 74 75
f 55 72 91
f 96 74 95
f 74 94 95
f 14 8 26
f 15 10 21
f 20 34 33
f 33 35 20
f 21 10 20
f 35 36 20
f 20 36 37
f 20 15 21
f 2 5 1
f 2 4 5
f 9 4 8
f 9 8 14
f 14 10 9
f 5 4 9
f 9 10 5
f 17 26 29
f 17 10 14
f 14 26 17
f 50 35 33
f 50 36 35
f 50 68 55
f 45 46 31
f 48 32 31
f 52 53 33
f 33 51 52
f 63 82 64
f 84 69 64
f 48 63 64
f 64 51 48
f 69 52 64
f 64 52 51
f 79 61 43
f 43 62 79
f 47 63 48
f 47 46 63
f 48 31 47
f 47 31 46
f 23 40 39
f 58 39 57
f 39 40 57
f 39 56 38
f 58 76 59
f 59 39 58
f 73 91 72
f 73 72 90
f 73 74 58
f 90 74 73
f 102 94 101
f 102 95 94
f 86 98 99
f 92 86 99
f 67 86 92
f 92 72 67
f 68 50 67
f 67 72 55
f 55 68 67
f 27 15 28
f 37 44 28
f 28 20 37
f 15 20 28
f 11 15 27
f 5 10 11
f 34 20 18
f 10 17 18
f 18 31 32
f 33 34 18
f 18 32 33
f 97 98 86
f 86 85 97
f 33 53 49
f 49 50 33
f 37 36 54
f 36 50 54
f 55 37 54
f 54 50 55
f 84 64 83
f 83 64 82
f 61 79 80
f 12 23 22
f 22 23 39
f 39 38 22
f 60 59 76
f 60 56 39
f 39 59 60
f 93 98 101
f 93 99 98
f 92 99 93
f 93 72 92
f 101 94 93
f 93 94 72
f 86 67 66
f 66 67 50
f 50 49 66
f 10 15 16
f 16 11 10
f 15 11 16
f 19 20 10
f 10 18 19
f 19 18 20
f 30 29 45
f 45 31 30
f 31 18 30
f 30 17 29
f 30 18 17
f 89 88 100
f 85 71 89
f 89 97 85
f 100 98 89
f 98 97 89
f 53 71 65
f 65 49 53
f 65 71 85
f 65 66 49
f 65 85 86
f 86 66 65
f 77 78 61
f 61 80 77
f 46 78 77
f 63 46 77
f 77 80 63
f 81 80 79
f 81 82 63
f 63 80 81
f 88 89 70
f 70 89 71
f 87 88 70
f 69 87 70
f 70 71 53
f 70 52 69
f 53 52 70
f 78 7 13
f 1 3 78
f 45 29 78
f 78 3 7
f 78 41 61
f 13 24 78
f 78 26 8
f 78 46 45
f 8 4 78
f 24 41 78
f 78 2 1
f 29 26 78
f 4 2 78
f 12 6 11
f 11 44 55
f 11 3 1
f 6 3 11
f 55 91 11
f 1 5 11
f 27 28 11
f 11 73 58
f 11 23 12
f 58 57 11
f 40 23 11
f 11 57 40
f 91 73 11
f 11 28 44
f 81 6 12
f 13 7 81
f 96 95 81
f 81 7 6
f 81 98 100
f 81 102 101
f 81 75 96
f 81 25 13
f 81 79 62
f 62 42 81
f 81 87 84
f 42 25 81
f 100 88 81
f 12 22 81
f 76 75 81
f 84 83 81
f 101 98 81
f 81 88 87
f 81 60 76
f 81 38 56
f 95 102 81
f 81 83 82
f 81 22 38
f 56 60 81
