# generated by collision_forge
v -0.000020 0.005981 0.008727
v -0.000020 0.005981 0.008008
v -0.000021 0.005981 0.009195
v -0.000020 0.005980 0.009196
v -0.000020 -0.001187 0.008366
v -0.016025 0.005981 0.007806
v -0.000020 0.005800 0.009275
v -0.003219 0.005981 0.009207
v -0.000020 -0.001187 0.009349
v -0.001402 -0.001187 0.008366
v -0.016025 -0.001187 0.008462
v -0.016025 0.005981 0.009121
v -0.001615 -0.001187 0.008366
v -0.001801 -0.001187 0.008366
v -0.006601 -0.001187 0.008394
v -0.000020 0.005400 0.009351
v -0.003401 0.005800 0.009286
v -0.003401 0.005981 0.009208
v -0.000020 0.004200 0.009354
v -0.003401 0.004200 0.009365
v -0.003587 -0.001187 0.009361
v -0.016025 -0.001187 0.009376
v -0.016012 0.005981 0.009124
v -0.016025 0.005970 0.009127
v -0.000020 0.005000 0.009353
v -0.003401 0.005400 0.009362
v -0.003401 0.005000 0.009364
v -0.005801 0.005981 0.009215
v -0.005401 0.005800 0.009292
v -0.003800 0.005400 0.009363
v -0.000020 0.004600 0.009354
v -0.003401 0.004600 0.009365
v -0.003800 0.004600 0.009366
v -0.003800 0.004200 0.009366
v -0.003988 -0.001187 0.009362
v -0.006601 -0.001187 0.009366
v -0.005801 0.004200 0.009369
v -0.005801 0.004600 0.009370
v -0.006200 0.004600 0.009370
v -0.015399 0.003800 0.009376
v -0.015799 0.003800 0.009376
v -0.016025 -0.001105 0.009376
v -0.015788 0.005981 0.009170
v -0.016025 0.005877 0.009170
v -0.000020 0.004780 0.009354
v -0.003800 0.005000 0.009365
v -0.006200 0.005981 0.009216
v -0.005801 0.005800 0.009293
v -0.004601 0.005400 0.009364
v -0.005000 0.005000 0.009367
v -0.004601 0.004600 0.009368
v -0.005000 0.004200 0.009368
v -0.005401 -0.001187 0.009364
v -0.006388 -0.001187 0.009366
v -0.005401 0.004200 0.009369
v -0.005401 0.005000 0.009368
v -0.005801 0.005000 0.009368
v -0.005000 0.004600 0.009368
v -0.006200 0.005000 0.009369
v -0.015399 0.004200 0.009376
v -0.015799 0.004200 0.009376
v -0.016025 0.003975 0.009375
v -0.016025 0.003800 0.009375
v -0.016025 0.003575 0.009375
v -0.015799 0.005800 0.009251
v -0.015617 0.005981 0.009189
v -0.016025 0.005800 0.009205
v -0.006601 0.005981 0.009216
v -0.005401 0.005400 0.009365
v -0.006200 0.005800 0.009293
v -0.008199 0.005400 0.009367
v -0.005987 -0.001187 0.009365
v -0.005588 -0.001187 0.009364
v -0.015399 0.005000 0.009372
v -0.015399 0.004600 0.009374
v -0.016025 0.004375 0.009373
v -0.016025 0.004200 0.009374
v -0.015799 0.004600 0.009374
v -0.015799 0.005400 0.009351
v -0.015399 0.005800 0.009284
v -0.016025 0.005575 0.009281
v -0.016025 0.005400 0.009325
v -0.015399 0.005981 0.009207
v -0.007001 0.005981 0.009216
v -0.006601 0.005800 0.009292
v -0.015000 0.005400 0.009366
v -0.008599 0.005400 0.009367
v -0.015799 0.005000 0.009371
v -0.016025 0.004775 0.009370
v -0.016025 0.005175 0.009354
v -0.015399 0.005400 0.009365
v -0.015000 0.005800 0.009287
v -0.015218 0.005981 0.009210
v -0.014599 0.005981 0.009212
v -0.014599 0.005800 0.009287
v -0.016025 0.005000 0.009363
v -0.015000 0.005981 0.009211
v -0.014818 0.005981 0.009212
f 2 5 6
f 15 11 6
f 14 15 6
f 13 14 6
f 41 22 40
f 1 3 4
f 6 5 10
f 10 13 6
f 63 41 62
f 63 64 41
f 22 41 42
f 41 64 42
f 62 41 61
f 76 61 78
f 88 78 74
f 89 76 88
f 88 76 78
f 74 86 88
f 86 91 88
f 9 19 20
f 40 22 39
f 22 38 39
f 7 4 3
f 92 91 86
f 62 61 77
f 61 76 77
f 9 20 21
f 21 20 34
f 40 39 60
f 22 36 37
f 37 38 22
f 52 53 34
f 71 69 48
f 34 53 35
f 35 21 34
f 55 37 36
f 38 37 55
f 55 52 38
f 87 86 74
f 74 71 87
f 59 60 39
f 59 71 74
f 69 71 59
f 8 7 3
f 28 47 48
f 95 92 86
f 86 85 95
f 95 94 92
f 85 94 95
f 84 94 85
f 89 88 96
f 88 90 96
f 79 88 91
f 79 90 88
f 82 90 79
f 79 65 82
f 43 65 66
f 83 66 80
f 66 65 80
f 80 93 83
f 92 93 80
f 65 79 80
f 91 92 80
f 80 79 91
f 53 52 73
f 52 72 73
f 54 55 36
f 54 72 52
f 52 55 54
f 70 85 86
f 86 87 70
f 49 50 30
f 48 69 49
f 49 30 48
f 75 59 74
f 60 59 75
f 74 78 75
f 61 60 75
f 78 61 75
f 69 59 57
f 16 27 25
f 25 27 45
f 26 27 16
f 32 31 45
f 45 27 32
f 30 50 46
f 46 26 30
f 27 26 46
f 46 32 27
f 18 28 17
f 17 8 18
f 7 8 17
f 30 26 17
f 16 7 17
f 17 26 16
f 97 93 92
f 82 65 81
f 65 67 81
f 65 43 44
f 44 67 65
f 68 84 85
f 85 70 68
f 56 57 38
f 38 50 56
f 69 57 56
f 56 49 69
f 50 49 56
f 20 32 33
f 34 20 33
f 32 46 33
f 29 28 48
f 29 17 28
f 48 30 29
f 30 17 29
f 92 94 98
f 98 97 92
f 24 44 43
f 51 52 34
f 34 33 51
f 51 33 46
f 12 24 23
f 23 24 43
f 38 52 58
f 52 51 58
f 58 51 46
f 58 50 38
f 58 46 50
f 60 61 41
f 60 41 40
f 5 9 54
f 54 22 11
f 11 15 54
f 15 14 54
f 54 10 5
f 14 13 54
f 13 10 54
f 54 36 22
f 54 35 53
f 9 21 54
f 21 35 54
f 53 73 54
f 54 73 72
f 70 87 71
f 70 71 48
f 57 59 39
f 57 39 38
f 25 2 1
f 5 2 25
f 25 9 5
f 1 4 25
f 25 19 9
f 25 7 16
f 4 7 25
f 25 31 19
f 45 31 25
f 19 31 32
f 32 20 19
f 68 70 48
f 48 47 68
f 24 12 6
f 6 11 24
f 11 22 24
f 22 42 24
f 62 77 24
f 24 63 62
f 64 63 24
f 24 42 64
f 24 76 89
f 24 77 76
f 89 96 24
f 24 90 82
f 24 96 90
f 82 81 24
f 24 81 67
f 67 44 24
f 1 2 23
f 23 2 6
f 6 12 23
f 47 28 23
f 23 3 1
f 23 66 83
f 23 68 47
f 23 8 3
f 83 93 23
f 18 8 23
f 23 28 18
f 23 98 94
f 94 84 23
f 23 43 66
f 93 97 23
f 84 68 23
f 97 98 23
