# generated by collision_forge
v -0.000020 -0.008322 0.001890
v -0.000020 -0.008306 0.001991
v -0.000020 -0.006933 0.001890
v 0.003693 -0.008326 0.001890
v -0.000020 -0.008237 0.002391
v 0.003801 -0.008310 0.001991
v -0.000020 -0.005458 0.008356
v 0.000077 -0.006932 0.001890
v 0.004201 -0.008310 0.001991
v 0.008091 -0.008329 0.001890
v -0.000020 -0.008161 0.002791
v 0.003801 -0.008239 0.002391
v 0.008599 -0.008168 0.002791
v -0.000020 -0.006877 0.008356
v 0.000108 -0.005458 0.008356
v 0.000201 -0.006932 0.001890
v 0.008199 -0.008312 0.001991
v 0.008491 -0.008328 0.001890
v -0.000020 -0.008125 0.002971
v 0.008599 -0.008242 0.002391
v 0.008999 -0.008168 0.002791
v 0.008999 -0.008088 0.003191
v 0.008599 -0.008088 0.003191
v -0.000020 -0.006884 0.008343
v 0.000624 -0.006878 0.008356
v 0.005401 -0.005457 0.008356
v 0.011799 -0.006926 0.001890
v 0.008599 -0.008312 0.001991
v 0.008999 -0.008328 0.001890
v -0.000020 -0.008082 0.003191
v 0.008999 -0.008241 0.002391
v 0.015799 -0.008227 0.002391
v 0.015799 -0.008151 0.002791
v 0.015799 -0.008073 0.003191
v 0.015943 -0.007836 0.004391
v 0.015799 -0.007755 0.004791
v 0.015399 -0.007348 0.006790
v -0.000020 -0.008001 0.003579
v -0.000020 -0.008054 0.003325
v -0.000020 -0.007044 0.007990
v 0.004601 -0.006890 0.008350
v 0.000601 -0.006884 0.008345
v 0.005401 -0.006888 0.008356
v 0.005477 -0.005457 0.008356
v 0.012199 -0.006927 0.001890
v 0.009399 -0.008311 0.001991
v 0.009799 -0.008327 0.001890
v 0.015799 -0.008298 0.001991
v 0.015943 -0.008298 0.001991
v 0.015943 -0.008226 0.002391
v 0.015943 -0.008199 0.002534
v 0.015943 -0.008150 0.002791
v 0.015943 -0.008123 0.002934
v 0.015943 -0.008072 0.003191
v 0.015943 -0.008053 0.003291
v 0.015943 -0.007755 0.004791
v 0.015799 -0.007427 0.006390
v 0.015399 -0.007264 0.007190
v -0.000020 -0.007250 0.007190
v -0.000020 -0.007979 0.003688
v 0.005401 -0.006891 0.008351
v -0.000020 -0.007108 0.007781
v 0.015399 -0.007068 0.007990
v 0.005801 -0.006891 0.008352
v 0.006201 -0.006889 0.008356
v 0.006282 -0.005461 0.008356
v 0.012599 -0.006930 0.001890
v 0.015799 -0.008315 0.001890
v 0.015943 -0.008314 0.001890
v 0.015943 -0.007615 0.005460
v 0.015799 -0.007342 0.006790
v 0.015399 -0.007170 0.007643
v -0.000020 -0.007204 0.007408
v -0.000020 -0.007160 0.007608
v 0.015799 -0.007159 0.007570
v 0.015799 -0.007031 0.007990
v 0.015424 -0.006897 0.008356
v 0.015396 -0.006899 0.008356
v 0.015940 -0.005526 0.008356
v 0.015943 -0.005525 0.008355
v 0.014999 -0.006961 0.001890
v 0.015943 -0.006989 0.001890
v 0.015943 -0.007571 0.005660
v 0.015932 -0.007192 0.007364
v 0.015799 -0.007243 0.007214
v 0.015665 -0.007207 0.007424
v 0.015943 -0.007411 0.006390
v 0.015943 -0.007290 0.006931
v -0.000020 -0.007184 0.007498
v 0.015943 -0.007188 0.007372
v 0.015943 -0.007127 0.007577
v 0.015799 -0.006877 0.008319
v 0.015943 -0.006991 0.008002
v 0.015943 -0.006946 0.008103
v 0.015943 -0.006860 0.008288
v 0.015799 -0.006855 0.008356
v 0.015943 -0.005785 0.008356
v 0.015501 -0.006973 0.001890
v 0.015399 -0.006971 0.001890
v 0.015101 -0.006963 0.001890
v 0.015943 -0.007191 0.007358
v 0.015943 -0.006814 0.008356
f 36 22 35
f 6 5 2
f 1 4 2
f 2 4 6
f 63 74 72
f 22 36 37
f 8 3 7
f 7 16 8
f 5 12 13
f 80 79 97
f 48 32 31
f 9 5 6
f 9 12 5
f 17 12 9
f 6 4 9
f 9 4 10
f 10 17 9
f 20 12 17
f 20 13 12
f 73 72 89
f 72 74 89
f 40 63 61
f 62 63 40
f 74 63 62
f 23 30 19
f 23 13 22
f 19 13 23
f 22 37 23
f 23 37 38
f 59 72 73
f 33 34 21
f 21 32 33
f 22 13 21
f 31 32 21
f 35 22 21
f 21 34 35
f 21 20 31
f 13 20 21
f 11 13 19
f 5 13 11
f 66 79 80
f 80 82 98
f 80 81 67
f 67 66 80
f 46 29 47
f 47 48 46
f 46 48 31
f 69 48 68
f 68 48 47
f 56 70 57
f 56 36 35
f 56 37 36
f 57 37 56
f 57 70 71
f 72 57 71
f 71 86 72
f 72 86 75
f 75 63 72
f 75 76 63
f 39 23 38
f 30 23 39
f 38 37 60
f 37 59 60
f 72 59 58
f 58 59 37
f 58 57 72
f 58 37 57
f 35 34 55
f 34 54 55
f 33 52 53
f 53 34 33
f 53 54 34
f 49 48 69
f 49 50 32
f 32 48 49
f 51 52 33
f 33 32 51
f 32 50 51
f 15 26 27
f 27 16 15
f 15 16 7
f 100 81 80
f 66 67 45
f 44 66 45
f 45 26 44
f 27 26 45
f 28 18 29
f 29 46 28
f 28 20 17
f 31 20 28
f 28 46 31
f 41 24 40
f 40 61 41
f 43 41 61
f 91 93 76
f 76 75 91
f 86 71 85
f 85 75 86
f 80 98 99
f 99 100 80
f 14 24 25
f 41 43 25
f 102 96 95
f 95 96 92
f 95 92 76
f 90 91 75
f 84 88 101
f 71 88 84
f 84 85 71
f 75 85 84
f 101 90 84
f 84 90 75
f 87 88 71
f 24 41 42
f 42 25 24
f 41 25 42
f 78 65 64
f 64 61 63
f 63 78 64
f 64 65 43
f 64 43 61
f 92 96 77
f 76 92 77
f 63 76 77
f 77 78 63
f 76 93 94
f 94 95 76
f 83 71 70
f 83 87 71
f 60 3 1
f 1 2 60
f 60 14 7
f 73 89 60
f 7 3 60
f 60 11 19
f 60 59 73
f 60 62 40
f 60 2 5
f 19 30 60
f 40 24 60
f 60 89 74
f 74 62 60
f 60 39 38
f 5 11 60
f 60 24 14
f 30 39 60
f 10 18 28
f 28 17 10
f 1 3 99
f 3 8 99
f 99 4 1
f 99 16 27
f 10 4 99
f 99 98 82
f 99 82 69
f 99 18 10
f 99 8 16
f 81 100 99
f 47 29 99
f 69 68 99
f 99 67 81
f 29 18 99
f 99 68 47
f 27 45 99
f 99 45 67
f 7 14 77
f 77 65 78
f 102 97 77
f 77 97 79
f 79 66 77
f 77 66 44
f 44 26 77
f 77 15 7
f 26 15 77
f 14 25 77
f 77 25 43
f 43 65 77
f 77 96 102
f 83 97 102
f 69 82 83
f 101 88 83
f 83 82 80
f 83 53 52
f 83 56 35
f 80 97 83
f 102 95 83
f 35 55 83
f 83 49 69
f 52 51 83
f 70 56 83
f 83 55 54
f 54 53 83
f 50 49 83
f 83 51 50
f 93 91 83
f 83 90 101
f 83 94 93
f 91 90 83
f 88 87 83
f 95 94 83
