# generated by collision_forge
v -0.016800 -0.008279 0.002106
v -0.016800 -0.007102 0.002106
v -0.016800 -0.008264 0.002191
v -0.016800 -0.005987 0.006806
v -0.015115 -0.007057 0.002106
v -0.016599 -0.008280 0.002106
v -0.016599 -0.008079 0.003191
v -0.011399 -0.006988 0.002106
v -0.011915 -0.006994 0.002106
v -0.012199 -0.006999 0.002106
v -0.014315 -0.007039 0.002106
v -0.014599 -0.007045 0.002106
v -0.014715 -0.007047 0.002106
v -0.016800 -0.005963 0.006945
v -0.000020 -0.006948 0.002106
v -0.006601 -0.006957 0.002106
v -0.006716 -0.006958 0.002106
v -0.010998 -0.008241 0.002391
v -0.010998 -0.008167 0.002791
v -0.016199 -0.007844 0.004391
v -0.016800 -0.005963 0.008737
v -0.000020 -0.005963 0.008005
v -0.000020 -0.008286 0.002106
v -0.010599 -0.008167 0.002791
v -0.010998 -0.008088 0.003191
v -0.016199 -0.007763 0.004791
v -0.016800 -0.008005 0.003502
v -0.016800 -0.005965 0.008740
v -0.000020 -0.005963 0.009217
v -0.000020 -0.008237 0.002391
v -0.002201 -0.008290 0.002106
v -0.009799 -0.008290 0.002106
v -0.003400 -0.008241 0.002391
v -0.003001 -0.008167 0.002791
v -0.007401 -0.008089 0.003191
v -0.015800 -0.007521 0.005990
v -0.015800 -0.007436 0.006391
v -0.016800 -0.007724 0.004591
v -0.016415 -0.007604 0.005407
v -0.016800 -0.006076 0.008661
v -0.016401 -0.006001 0.008991
v -0.000020 -0.008162 0.002791
v -0.002485 -0.008290 0.002106
v -0.002600 -0.008088 0.003191
v -0.015399 -0.007352 0.006790
v -0.002201 -0.008023 0.003501
v -0.000020 -0.007250 0.007191
v -0.015662 -0.007208 0.007430
v -0.015399 -0.007266 0.007191
v -0.015399 -0.007168 0.007640
v -0.016793 -0.007198 0.006584
v -0.016388 -0.007197 0.006979
v -0.015929 -0.007190 0.007357
v -0.016440 -0.006428 0.008621
v -0.000200 -0.006200 0.009121
v -0.000020 -0.008082 0.003191
v -0.000020 -0.007229 0.007289
v -0.000020 -0.007204 0.007408
v -0.013400 -0.007167 0.007638
v -0.015399 -0.007060 0.007990
v -0.013400 -0.007060 0.007990
v -0.016199 -0.007064 0.007590
v -0.016800 -0.006859 0.007521
v -0.016800 -0.006400 0.008331
v -0.016363 -0.006788 0.008170
v -0.016199 -0.006484 0.008682
v -0.016800 -0.006454 0.008265
v -0.016199 -0.005963 0.009076
v -0.000601 -0.006422 0.009008
v -0.000020 -0.006421 0.009007
v -0.007000 -0.005963 0.009230
v -0.000020 -0.008020 0.003489
v -0.000020 -0.007160 0.007608
v -0.015800 -0.007016 0.007990
v -0.015000 -0.006893 0.008364
v -0.000020 -0.007044 0.007990
v -0.004202 -0.006889 0.008362
v -0.007800 -0.006890 0.008365
v -0.016800 -0.006802 0.007678
v -0.015800 -0.006752 0.008507
v -0.015578 -0.006398 0.008988
v -0.015800 -0.005963 0.009178
v -0.007000 -0.006200 0.009131
v -0.002600 -0.006423 0.009009
v -0.007401 -0.006608 0.008790
v -0.003001 -0.006604 0.008790
v -0.000020 -0.006595 0.008790
v -0.015800 -0.006867 0.008307
v -0.015000 -0.006785 0.008564
v -0.007800 -0.006786 0.008565
v -0.015399 -0.006782 0.008557
v -0.003801 -0.006784 0.008562
v -0.015409 -0.005963 0.009217
v -0.015000 -0.006417 0.009002
v -0.007000 -0.006422 0.009010
v -0.011562 -0.005963 0.009230
v -0.011800 -0.006200 0.009127
v -0.014599 -0.006602 0.008790
v -0.000020 -0.006773 0.008543
v -0.003001 -0.006782 0.008558
v -0.014599 -0.006418 0.009004
v -0.014599 -0.006200 0.009122
f 15 14 22
f 55 29 71
f 15 16 4
f 4 14 15
f 59 61 50
f 50 61 60
f 83 55 71
f 69 55 83
f 8 4 17
f 17 4 16
f 2 4 5
f 68 21 28
f 65 67 79
f 54 67 65
f 82 68 81
f 81 93 82
f 94 93 81
f 43 33 32
f 33 43 30
f 32 33 18
f 29 55 70
f 70 55 69
f 73 59 58
f 61 59 73
f 73 76 61
f 96 83 71
f 9 4 8
f 9 10 4
f 12 4 11
f 4 10 11
f 13 4 12
f 13 5 4
f 41 68 28
f 41 81 68
f 40 41 28
f 54 41 40
f 80 81 66
f 66 65 80
f 54 65 66
f 66 41 54
f 81 41 66
f 36 47 45
f 62 74 65
f 62 51 52
f 62 65 79
f 80 65 88
f 65 74 88
f 88 74 60
f 91 81 80
f 80 88 91
f 94 81 91
f 91 89 94
f 91 88 60
f 44 56 46
f 46 36 44
f 46 47 36
f 23 30 31
f 31 30 43
f 42 56 44
f 6 3 1
f 6 18 3
f 32 18 6
f 7 27 3
f 34 42 44
f 30 42 34
f 33 30 34
f 102 96 93
f 102 93 94
f 69 83 84
f 83 95 84
f 85 84 95
f 69 84 85
f 64 67 54
f 54 40 64
f 36 45 37
f 58 45 57
f 57 45 47
f 52 51 38
f 75 91 60
f 89 91 75
f 75 60 61
f 61 78 75
f 61 76 77
f 77 78 61
f 72 46 56
f 47 46 72
f 3 18 19
f 19 7 3
f 99 77 76
f 83 96 97
f 96 102 97
f 97 95 83
f 98 85 95
f 94 89 98
f 89 85 98
f 90 85 89
f 89 75 90
f 90 75 78
f 90 77 92
f 78 77 90
f 69 85 86
f 92 87 86
f 86 90 92
f 85 90 86
f 86 87 70
f 86 70 69
f 50 37 49
f 49 37 45
f 49 59 50
f 58 59 49
f 49 45 58
f 53 62 52
f 74 62 53
f 39 38 27
f 52 38 39
f 39 53 52
f 27 37 39
f 63 38 51
f 63 62 79
f 51 62 63
f 24 18 33
f 24 19 18
f 33 34 24
f 7 19 20
f 100 99 87
f 100 87 92
f 92 77 100
f 77 99 100
f 101 102 94
f 101 97 102
f 95 97 101
f 94 98 101
f 101 98 95
f 48 39 37
f 53 39 48
f 48 37 50
f 74 53 48
f 50 60 48
f 60 74 48
f 19 24 25
f 25 20 19
f 27 7 26
f 7 20 26
f 26 37 27
f 36 37 26
f 26 25 36
f 20 25 26
f 35 24 34
f 35 25 24
f 35 34 44
f 44 36 35
f 36 25 35
f 71 29 96
f 29 22 96
f 14 21 96
f 96 22 14
f 96 68 82
f 82 93 96
f 21 68 96
f 6 13 12
f 1 2 6
f 15 23 6
f 6 16 15
f 23 31 6
f 8 17 6
f 2 5 6
f 6 17 16
f 6 9 8
f 12 11 6
f 6 43 32
f 10 9 6
f 6 11 10
f 5 13 6
f 6 31 43
f 99 23 15
f 15 22 99
f 29 70 99
f 99 22 29
f 99 72 56
f 99 30 23
f 58 57 99
f 99 73 58
f 56 42 99
f 76 73 99
f 99 42 30
f 70 87 99
f 99 57 47
f 47 72 99
f 63 2 1
f 14 4 63
f 63 21 14
f 1 3 63
f 63 4 2
f 28 21 63
f 63 40 28
f 79 67 63
f 67 64 63
f 3 27 63
f 63 64 40
f 27 38 63
