# generated by collision_forge
v -0.016990 0.006600 -0.000142
v -0.016990 0.006200 0.000014
v -0.016990 0.007000 -0.000097
v -0.004601 0.006600 -0.000138
v -0.005800 0.006200 0.000016
v -0.016990 0.006195 0.000018
v -0.000020 0.005988 0.000171
v -0.000601 0.005988 0.000171
v -0.016990 0.007384 0.000071
v -0.014599 0.007394 0.000073
v -0.013400 0.007399 0.000074
v -0.001001 0.007392 0.000067
v -0.000020 0.007391 0.000066
v -0.004201 0.007000 -0.000083
v -0.000020 0.007000 -0.000077
v -0.004201 0.006600 -0.000137
v -0.000020 0.006200 0.000026
v -0.003001 0.006200 0.000019
v -0.005001 0.006200 0.000017
v -0.005400 0.006200 0.000017
v -0.016990 0.005989 0.000175
v -0.001800 0.005988 0.000171
v -0.000020 0.006104 0.000091
v -0.000020 0.005988 0.000263
v -0.016990 0.007394 0.000076
v -0.013400 0.007599 0.000192
v -0.005800 0.007602 0.000189
v -0.003001 0.007600 0.000191
v -0.002601 0.007599 0.000191
v -0.000020 0.007501 0.000138
v -0.000020 0.006600 -0.000097
v -0.003400 0.006600 -0.000134
v -0.000020 0.006420 -0.000042
v -0.016990 0.005989 0.000232
v -0.001800 0.005988 0.000259
v -0.000020 0.006005 0.000353
v -0.003001 0.006014 0.000464
v -0.007800 0.006011 0.000451
v -0.016990 0.007588 0.000192
v -0.016990 0.007794 0.000360
v -0.005400 0.007802 0.000357
v -0.003800 0.007800 0.000356
v -0.000020 0.007591 0.000198
v -0.016990 0.005990 0.000237
v -0.000020 0.006027 0.000463
v -0.000020 0.006948 0.003171
v -0.004601 0.006943 0.003171
v -0.005001 0.006943 0.003171
v -0.008201 0.006011 0.000448
v -0.016990 0.008024 0.000555
v -0.003800 0.008031 0.000556
v -0.003400 0.008031 0.000557
v -0.000020 0.007706 0.000303
v -0.003001 0.008029 0.000559
v -0.015000 0.006032 0.000413
v -0.015400 0.006035 0.000415
v -0.016990 0.007001 0.003171
v -0.000020 0.008093 0.003171
v -0.016990 0.008030 0.000560
v -0.003001 0.008208 0.000791
v -0.002601 0.008208 0.000791
v -0.000020 0.008199 0.000791
v -0.000020 0.008009 0.000581
v -0.016990 0.007570 0.003171
v -0.000020 0.008123 0.003010
v -0.002981 0.008097 0.003171
v -0.016990 0.008187 0.000791
v -0.001400 0.008391 0.001140
v -0.000020 0.008303 0.000985
v -0.016990 0.008040 0.003171
v -0.003001 0.008168 0.002790
v -0.016990 0.008354 0.001191
v -0.016599 0.008356 0.001191
v -0.000020 0.008402 0.001347
v -0.000201 0.008390 0.001145
v -0.011222 0.008400 0.001390
v -0.000020 0.008389 0.001146
v -0.016599 0.008081 0.003171
v -0.016990 0.008208 0.002390
v -0.000020 0.008235 0.002390
v -0.003001 0.008239 0.002390
v -0.008201 0.008243 0.002390
v -0.008201 0.008171 0.002790
v -0.016990 0.008363 0.001580
v -0.008201 0.008402 0.001409
v -0.000020 0.008402 0.001405
v -0.016990 0.008364 0.001590
v -0.008599 0.008402 0.001407
v -0.016990 0.008293 0.001990
v -0.016199 0.008083 0.003171
v -0.003001 0.008309 0.001990
v -0.008201 0.008314 0.001990
v -0.008599 0.008314 0.001990
v -0.011799 0.008166 0.002790
v -0.011799 0.008096 0.003171
v -0.008599 0.008098 0.003171
v -0.008201 0.008375 0.001609
v -0.016599 0.008366 0.001590
v -0.016599 0.008298 0.001990
v -0.000020 0.008305 0.001990
v -0.000020 0.008369 0.001605
v -0.009000 0.008313 0.001990
f 46 37 45
f 7 2 5
f 5 2 1
f 37 48 38
f 34 38 44
f 35 38 34
f 21 6 22
f 37 38 24
f 24 38 35
f 64 78 70
f 47 37 46
f 47 48 37
f 84 76 72
f 87 76 84
f 88 68 76
f 13 15 14
f 14 3 13
f 56 57 44
f 57 56 55
f 55 56 44
f 8 22 6
f 8 6 2
f 8 2 7
f 36 45 37
f 37 24 36
f 70 78 79
f 78 89 79
f 73 67 72
f 68 67 73
f 72 76 73
f 76 68 73
f 60 67 68
f 59 67 60
f 26 25 39
f 7 18 23
f 23 18 17
f 19 18 7
f 17 18 4
f 18 19 4
f 4 5 1
f 4 14 15
f 1 3 4
f 3 14 4
f 49 48 57
f 57 55 49
f 49 38 48
f 44 38 49
f 49 55 44
f 74 88 85
f 68 88 74
f 74 75 68
f 77 75 74
f 61 68 62
f 61 60 68
f 62 52 61
f 40 26 39
f 7 5 20
f 20 19 7
f 5 4 20
f 20 4 19
f 32 33 17
f 31 33 32
f 32 15 31
f 99 89 78
f 87 89 99
f 69 75 77
f 62 68 69
f 68 75 69
f 86 74 85
f 85 97 86
f 86 91 101
f 62 63 54
f 54 52 62
f 54 43 52
f 13 27 28
f 26 27 11
f 26 40 41
f 41 27 26
f 17 4 16
f 16 32 17
f 16 4 15
f 15 32 16
f 82 83 71
f 71 83 66
f 90 99 78
f 87 99 98
f 93 97 98
f 98 76 87
f 98 88 76
f 85 88 98
f 98 97 85
f 94 83 82
f 95 83 94
f 82 93 94
f 94 90 95
f 99 90 94
f 101 91 100
f 100 91 80
f 92 97 93
f 92 86 97
f 91 86 92
f 92 93 82
f 43 54 53
f 53 54 63
f 13 28 29
f 12 27 13
f 12 11 27
f 13 3 12
f 3 11 12
f 3 9 10
f 10 11 3
f 10 9 25
f 25 26 10
f 26 11 10
f 50 41 40
f 42 29 28
f 42 28 27
f 27 41 42
f 52 43 42
f 43 29 42
f 96 83 95
f 66 83 96
f 65 66 58
f 65 71 66
f 80 71 65
f 80 91 81
f 81 71 80
f 91 92 81
f 82 71 81
f 81 92 82
f 93 98 102
f 102 98 99
f 102 94 93
f 99 94 102
f 13 29 30
f 30 29 43
f 51 50 59
f 59 60 51
f 41 50 51
f 51 61 52
f 60 61 51
f 52 42 51
f 51 42 41
f 22 34 21
f 35 34 22
f 35 22 8
f 7 24 8
f 8 24 35
f 1 2 50
f 50 64 70
f 50 34 44
f 50 84 72
f 44 57 50
f 39 25 50
f 2 6 50
f 50 3 1
f 50 9 3
f 72 67 50
f 50 6 21
f 21 34 50
f 57 64 50
f 50 89 87
f 87 84 50
f 50 67 59
f 70 79 50
f 50 79 89
f 25 9 50
f 50 40 39
f 46 58 96
f 96 47 46
f 96 64 57
f 57 48 96
f 78 64 96
f 48 47 96
f 58 66 96
f 96 90 78
f 95 90 96
f 30 58 46
f 30 65 58
f 30 15 13
f 30 63 62
f 30 24 7
f 31 15 30
f 30 33 31
f 46 45 30
f 17 33 30
f 7 23 30
f 45 36 30
f 30 36 24
f 43 53 30
f 62 69 30
f 30 23 17
f 30 86 101
f 77 74 30
f 101 100 30
f 30 69 77
f 74 86 30
f 30 100 80
f 30 53 63
f 80 65 30
