# generated by collision_forge
v -0.018621 -0.001187 0.002842
v -0.019730 -0.001187 0.002842
v -0.018620 -0.001400 0.002842
v -0.017833 -0.005395 0.000391
v -0.017973 -0.001187 0.000635
v -0.019749 -0.001187 0.002791
v -0.019748 -0.005000 0.002842
v -0.018620 -0.001452 0.002842
v -0.018637 -0.005395 0.002842
v -0.017834 -0.005395 0.000387
v -0.017940 -0.001187 0.000096
v -0.017913 -0.001187 0.000391
v -0.017941 -0.001187 0.000505
v -0.018621 -0.001852 0.002842
v -0.018624 -0.002652 0.002842
v -0.019766 -0.005000 0.002791
v -0.019746 -0.005339 0.002842
v -0.019891 -0.001187 0.002390
v -0.019745 -0.005395 0.002842
v -0.017883 -0.005395 0.000072
v -0.018200 -0.001187 -0.000076
v -0.019989 -0.005395 0.002158
v -0.019981 -0.001187 0.002135
v -0.019763 -0.005395 0.002795
v -0.017886 -0.005395 0.000069
v -0.018600 -0.001187 -0.000169
v -0.018200 -0.005395 -0.000098
v -0.020054 -0.005395 0.001958
v -0.020013 -0.001187 0.002041
v -0.020049 -0.001187 0.001935
v -0.020050 -0.001400 0.001935
v -0.018813 -0.001187 -0.000138
v -0.018600 -0.002600 -0.000172
v -0.018205 -0.005395 -0.000099
v -0.018600 -0.003000 -0.000172
v -0.020162 -0.004600 0.001591
v -0.020161 -0.005000 0.001591
v -0.020159 -0.005395 0.001591
v -0.020157 -0.001400 0.001591
v -0.020156 -0.001187 0.001591
v -0.019000 -0.001187 -0.000110
v -0.019000 -0.002600 -0.000110
v -0.018600 -0.005395 -0.000163
v -0.018600 -0.005000 -0.000165
v -0.018600 -0.004600 -0.000166
v -0.020180 -0.001187 0.001191
v -0.020180 -0.001400 0.001191
v -0.020180 -0.001800 0.001191
v -0.020178 -0.002200 0.001191
v -0.020157 -0.005395 0.001191
v -0.020168 -0.004600 0.001191
v -0.020164 -0.005000 0.001191
v -0.019198 -0.001187 -0.000011
v -0.019000 -0.003000 -0.000108
v -0.019369 -0.001400 0.000077
v -0.019370 -0.001187 0.000077
v -0.018605 -0.005395 -0.000162
v -0.020073 -0.001187 0.000853
v -0.020073 -0.001400 0.000853
v -0.020072 -0.001800 0.000855
v -0.020057 -0.005000 0.000883
v -0.020053 -0.005395 0.000897
v -0.020059 -0.004600 0.000878
v -0.020071 -0.002200 0.000858
v -0.019360 -0.003000 0.000081
v -0.019363 -0.002600 0.000079
v -0.019365 -0.002200 0.000079
v -0.019000 -0.004600 -0.000093
v -0.019477 -0.001187 0.000150
v -0.019000 -0.005000 -0.000090
v -0.019960 -0.001187 0.000653
v -0.019958 -0.001800 0.000655
v -0.019960 -0.001400 0.000653
v -0.019944 -0.004600 0.000678
v -0.019941 -0.005000 0.000683
v -0.020052 -0.005395 0.000893
v -0.019956 -0.002200 0.000658
v -0.019559 -0.003000 0.000224
v -0.019563 -0.002600 0.000222
v -0.019565 -0.002200 0.000219
v -0.019345 -0.004600 0.000093
v -0.019549 -0.004200 0.000233
v -0.019568 -0.001800 0.000217
v -0.019570 -0.001187 0.000215
v -0.019004 -0.005395 -0.000081
v -0.019341 -0.005000 0.000097
v -0.019760 -0.001187 0.000415
v -0.019758 -0.001800 0.000417
v -0.019757 -0.002200 0.000419
v -0.019760 -0.001400 0.000416
v -0.019744 -0.004600 0.000436
v -0.019741 -0.005000 0.000439
v -0.019738 -0.005395 0.000445
v -0.019935 -0.005395 0.000693
v -0.019937 -0.005395 0.000696
v -0.019746 -0.004200 0.000433
v -0.019541 -0.005000 0.000239
v -0.019545 -0.004600 0.000236
v -0.019336 -0.005395 0.000101
v -0.019536 -0.005395 0.000242
v -0.019538 -0.005395 0.000244
v -0.019735 -0.005395 0.000442
f 5 1 4
f 15 9 4
f 4 11 12
f 46 58 47
f 13 5 4
f 4 12 13
f 4 1 3
f 3 8 4
f 14 15 4
f 4 8 14
f 10 11 4
f 10 20 11
f 33 26 27
f 33 42 41
f 40 46 39
f 39 31 40
f 71 87 73
f 60 71 73
f 22 7 16
f 51 60 64
f 33 27 35
f 35 42 33
f 21 27 26
f 11 20 21
f 53 42 56
f 53 41 42
f 32 26 33
f 33 41 32
f 30 40 31
f 31 22 30
f 88 84 89
f 58 71 59
f 71 60 59
f 7 22 24
f 28 31 39
f 28 22 31
f 52 50 38
f 38 51 52
f 52 61 50
f 49 51 38
f 60 51 49
f 25 21 20
f 27 21 25
f 89 77 72
f 73 88 72
f 72 88 89
f 72 77 64
f 72 60 73
f 64 60 72
f 75 61 74
f 75 76 61
f 74 61 63
f 64 77 63
f 63 77 74
f 63 51 64
f 63 52 51
f 61 52 63
f 23 22 16
f 87 84 90
f 84 88 90
f 73 87 90
f 90 88 73
f 17 24 19
f 7 24 17
f 36 28 39
f 36 46 47
f 39 46 36
f 43 44 34
f 34 35 27
f 42 35 45
f 45 44 42
f 35 34 45
f 45 34 44
f 85 70 57
f 86 85 99
f 86 70 85
f 99 100 86
f 74 77 91
f 50 61 62
f 61 76 62
f 94 75 93
f 95 75 94
f 76 75 95
f 16 7 18
f 18 23 16
f 29 30 22
f 22 23 29
f 38 28 37
f 28 36 37
f 37 49 38
f 43 57 54
f 54 44 43
f 42 44 54
f 81 65 70
f 70 86 81
f 96 77 89
f 96 91 77
f 97 100 101
f 97 86 100
f 97 81 86
f 92 75 74
f 92 93 75
f 74 91 92
f 102 93 92
f 101 102 92
f 92 97 101
f 6 7 2
f 6 18 7
f 49 37 48
f 48 37 36
f 48 36 47
f 60 49 48
f 48 59 60
f 47 58 48
f 58 59 48
f 68 57 70
f 68 54 57
f 70 65 68
f 65 54 68
f 66 54 65
f 91 96 79
f 56 42 55
f 42 54 55
f 55 69 56
f 84 69 67
f 67 66 84
f 69 55 67
f 54 66 67
f 67 55 54
f 89 84 83
f 84 66 83
f 80 96 89
f 80 79 96
f 89 83 80
f 65 79 80
f 80 66 65
f 80 83 66
f 78 92 91
f 91 79 78
f 78 79 65
f 92 78 82
f 82 78 65
f 65 81 82
f 97 92 98
f 92 82 98
f 81 97 98
f 98 82 81
f 15 14 17
f 1 2 17
f 19 9 17
f 9 15 17
f 17 3 1
f 8 3 17
f 17 14 8
f 2 7 17
f 95 9 19
f 4 9 95
f 43 34 95
f 94 93 95
f 95 100 99
f 95 10 4
f 38 50 95
f 20 10 95
f 95 28 38
f 95 25 20
f 19 24 95
f 99 85 95
f 50 62 95
f 95 24 22
f 22 28 95
f 27 25 95
f 95 102 101
f 101 100 95
f 95 57 43
f 95 34 27
f 85 57 95
f 95 62 76
f 95 93 102
f 6 2 1
f 1 5 6
f 56 69 6
f 6 12 11
f 5 13 6
f 11 21 6
f 6 71 58
f 58 46 6
f 26 32 6
f 6 13 12
f 6 53 56
f 46 40 6
f 87 71 6
f 6 84 87
f 6 21 26
f 41 53 6
f 6 32 41
f 40 30 6
f 6 69 84
f 30 29 6
f 23 18 6
f 6 29 23
