# generated by collision_forge
v -0.020180 -0.001187 0.001191
v -0.020073 -0.001187 0.000853
v -0.020156 -0.001187 0.001591
v -0.020180 -0.000599 0.001191
v -0.020073 0.000200 0.000849
v -0.020073 -0.000200 0.000850
v -0.019962 -0.000200 0.000650
v -0.019961 -0.000999 0.000652
v -0.020139 -0.001187 0.001645
v -0.020178 0.001400 0.001191
v -0.019963 0.000200 0.000650
v -0.020073 0.001400 0.000852
v -0.019763 -0.000200 0.000410
v -0.019867 -0.001187 0.000542
v -0.018885 -0.001187 0.001645
v -0.020137 0.001000 0.001645
v -0.020177 0.001800 0.001191
v -0.020072 0.001800 0.000852
v -0.019763 0.000600 0.000409
v -0.019576 0.000200 0.000209
v -0.019575 -0.000200 0.000210
v -0.017973 -0.001187 0.000635
v -0.017038 0.005981 0.000240
v -0.018804 0.005981 0.001645
v -0.020152 0.001800 0.001591
v -0.020143 0.005000 0.001591
v -0.020176 0.002200 0.001191
v -0.020068 0.003400 0.000858
v -0.020070 0.002599 0.000855
v -0.020072 0.002200 0.000853
v -0.019962 0.001000 0.000651
v -0.019576 0.000600 0.000209
v -0.019573 0.003400 0.000213
v -0.019574 0.003000 0.000212
v -0.019377 0.000200 0.000076
v -0.019375 -0.000200 0.000076
v -0.019370 -0.001187 0.000077
v -0.019570 -0.001187 0.000215
v -0.017941 -0.001187 0.000505
v -0.017038 0.005981 0.000169
v -0.017913 -0.001187 0.000391
v -0.020017 0.005981 0.001645
v -0.020127 0.005065 0.001645
v -0.020140 0.005400 0.001591
v -0.020161 0.004600 0.001191
v -0.020067 0.003800 0.000861
v -0.019957 0.003400 0.000659
v -0.019959 0.002599 0.000655
v -0.019757 0.003400 0.000413
v -0.019373 0.003000 0.000077
v -0.019755 0.003800 0.000415
v -0.019571 0.003800 0.000215
v -0.019371 0.003800 0.000080
v -0.019000 0.003000 -0.000118
v -0.019000 -0.000999 -0.000111
v -0.019000 -0.001187 -0.000110
v -0.019198 -0.001187 -0.000011
v -0.017941 -0.001187 0.000096
v -0.018079 -0.001187 0.000004
v -0.018200 -0.001187 -0.000076
v -0.017788 0.005981 -0.000052
v -0.020046 0.005981 0.001544
v -0.020057 0.005854 0.001645
v -0.020152 0.005400 0.001191
v -0.020158 0.005000 0.001191
v -0.020102 0.005800 0.001191
v -0.020063 0.004600 0.000868
v -0.020065 0.004200 0.000864
v -0.019000 0.003400 -0.000116
v -0.019000 0.003800 -0.000113
v -0.019953 0.004200 0.000664
v -0.019567 0.004200 0.000218
v -0.019747 0.005000 0.000429
v -0.019000 0.004200 -0.000110
v -0.019000 0.005400 -0.000100
v -0.018600 0.005400 -0.000178
v -0.018600 0.003400 -0.000183
v -0.018600 0.003000 -0.000184
v -0.018813 -0.001187 -0.000138
v -0.018600 -0.001187 -0.000169
v -0.018200 0.005981 -0.000156
v -0.020034 0.005800 0.000924
v -0.020056 0.005400 0.000880
v -0.020060 0.005000 0.000873
v -0.020054 0.005981 0.001191
v -0.020014 0.005981 0.000964
v -0.019950 0.004600 0.000668
v -0.019743 0.005400 0.000433
v -0.019549 0.005400 0.000233
v -0.019349 0.005400 0.000091
v -0.019947 0.005000 0.000673
v -0.019000 0.005800 -0.000064
v -0.018600 0.005800 -0.000172
v -0.018600 0.005981 -0.000153
v -0.019918 0.005800 0.000725
v -0.019943 0.005400 0.000680
v -0.019718 0.005800 0.000461
v -0.019515 0.005800 0.000261
v -0.019315 0.005800 0.000113
v -0.019015 0.005981 -0.000014
v -0.019580 0.005981 0.000381
v -0.019281 0.005981 0.000136
f 23 15 22
f 59 40 58
f 60 40 59
f 60 80 81
f 81 80 78
f 79 56 78
f 78 80 79
f 41 40 23
f 58 40 41
f 24 15 23
f 26 17 25
f 26 43 44
f 25 43 26
f 44 45 26
f 1 3 4
f 3 25 10
f 25 17 10
f 10 4 3
f 61 40 60
f 60 81 61
f 23 22 39
f 39 41 23
f 44 43 63
f 63 42 62
f 62 44 63
f 16 43 25
f 16 3 9
f 16 25 3
f 66 44 62
f 66 64 44
f 95 86 101
f 92 100 94
f 44 64 65
f 65 45 44
f 17 26 27
f 27 26 45
f 94 81 93
f 81 76 93
f 93 76 75
f 93 92 94
f 75 92 93
f 85 66 62
f 86 66 85
f 97 95 101
f 78 54 77
f 77 54 76
f 77 81 78
f 77 76 81
f 88 97 89
f 100 92 99
f 14 2 8
f 1 4 5
f 4 10 5
f 88 91 96
f 96 97 88
f 95 97 96
f 17 27 28
f 75 76 74
f 76 70 74
f 69 54 50
f 76 54 69
f 69 70 76
f 57 36 56
f 37 36 57
f 56 36 55
f 55 36 54
f 78 56 55
f 55 54 78
f 50 54 35
f 54 36 35
f 50 35 32
f 88 89 72
f 100 99 102
f 98 97 101
f 101 102 98
f 98 102 99
f 98 89 97
f 98 99 89
f 13 14 8
f 38 14 13
f 6 2 1
f 1 5 6
f 18 17 30
f 18 10 17
f 30 31 18
f 52 51 73
f 88 72 73
f 73 72 52
f 73 91 88
f 86 95 82
f 95 96 82
f 64 66 82
f 82 66 86
f 45 65 67
f 33 51 52
f 52 72 90
f 90 72 89
f 89 99 90
f 90 92 75
f 90 99 92
f 11 6 5
f 11 18 31
f 19 11 31
f 13 11 19
f 20 19 32
f 13 19 20
f 20 36 37
f 20 35 36
f 20 32 35
f 12 5 10
f 10 18 12
f 12 11 5
f 18 11 12
f 51 47 71
f 48 31 30
f 28 47 29
f 30 17 29
f 17 28 29
f 29 48 30
f 47 48 29
f 45 67 68
f 68 71 47
f 67 71 68
f 83 82 96
f 83 96 91
f 64 82 83
f 83 65 64
f 52 90 53
f 50 33 53
f 53 33 52
f 53 90 75
f 75 74 53
f 53 74 70
f 53 69 50
f 70 69 53
f 2 6 7
f 6 11 7
f 8 2 7
f 7 13 8
f 7 11 13
f 49 19 31
f 31 48 49
f 51 33 49
f 33 19 49
f 49 47 51
f 49 48 47
f 32 19 34
f 34 19 33
f 50 32 34
f 34 33 50
f 38 13 21
f 13 20 21
f 21 37 38
f 21 20 37
f 51 71 87
f 91 73 87
f 87 73 51
f 87 71 67
f 46 47 28
f 46 68 47
f 46 28 27
f 46 27 45
f 45 68 46
f 84 67 65
f 65 83 84
f 84 83 91
f 9 15 16
f 42 63 16
f 16 24 42
f 15 24 16
f 16 63 43
f 56 79 57
f 57 15 9
f 57 3 1
f 57 14 38
f 57 59 58
f 9 3 57
f 57 39 22
f 57 80 60
f 57 22 15
f 60 59 57
f 57 79 80
f 58 41 57
f 41 39 57
f 38 37 57
f 1 2 57
f 2 14 57
f 102 81 94
f 23 40 102
f 102 24 23
f 62 42 102
f 40 61 102
f 94 100 102
f 42 24 102
f 101 86 102
f 102 85 62
f 102 61 81
f 86 85 102
f 84 87 67
f 91 87 84
