# generated by collision_forge
v -0.020157 -0.005400 0.001240
v -0.020157 -0.005395 0.001240
v -0.020090 -0.005829 0.001240
v -0.020111 -0.005800 0.001591
v -0.020159 -0.005400 0.001591
v -0.020159 -0.005395 0.001591
v -0.018850 -0.005395 0.001240
v -0.020049 -0.006065 0.001240
v -0.020040 -0.006122 0.001262
v -0.020032 -0.006097 0.001591
v -0.020002 -0.006008 0.001797
v -0.020029 -0.005800 0.001881
v -0.020054 -0.005400 0.001958
v -0.020158 -0.005395 0.001595
v -0.018637 -0.005395 0.002842
v -0.017701 -0.006854 0.002841
v -0.018045 -0.006854 0.001240
v -0.020026 -0.006144 0.001240
v -0.019839 -0.006600 0.001240
v -0.019857 -0.006600 0.001591
v -0.019969 -0.006297 0.001591
v -0.019900 -0.006164 0.001954
v -0.019961 -0.005800 0.002081
v -0.019989 -0.005400 0.002158
v -0.020054 -0.005395 0.001961
v -0.020054 -0.005395 0.001958
v -0.017709 -0.006851 0.002842
v -0.019745 -0.005395 0.002842
v -0.017710 -0.006854 0.002842
v -0.019707 -0.006854 0.001240
v -0.019725 -0.006854 0.001591
v -0.019645 -0.006854 0.001913
v -0.019713 -0.006633 0.002022
v -0.019649 -0.006521 0.002317
v -0.019597 -0.006392 0.002584
v -0.019706 -0.006235 0.002426
v -0.019850 -0.005800 0.002391
v -0.019908 -0.005400 0.002391
v -0.019764 -0.005400 0.002791
v -0.019988 -0.005395 0.002161
v -0.019764 -0.005395 0.002791
v -0.019745 -0.005400 0.002842
v -0.019235 -0.006854 0.002842
v -0.019638 -0.006854 0.001936
v -0.019594 -0.006788 0.002176
v -0.019554 -0.006201 0.002842
v -0.019562 -0.006177 0.002842
v -0.019610 -0.006032 0.002842
v -0.019639 -0.006125 0.002692
v -0.019385 -0.006598 0.002842
v -0.019544 -0.006232 0.002842
v -0.019688 -0.005816 0.002811
v -0.019680 -0.005801 0.002842
v -0.019906 -0.005395 0.002396
v -0.019240 -0.006848 0.002842
v -0.019245 -0.006854 0.002821
v -0.019562 -0.006854 0.002128
v -0.019667 -0.005846 0.002842
f 7 15 16
f 16 15 27
f 27 29 16
f 17 7 16
f 56 43 55
f 4 12 5
f 45 56 55
f 8 18 9
f 9 4 8
f 9 18 19
f 5 12 13
f 56 45 57
f 50 45 55
f 3 8 4
f 12 4 11
f 11 23 12
f 33 45 34
f 9 19 20
f 20 21 9
f 32 33 20
f 20 33 21
f 24 13 12
f 12 23 24
f 40 25 24
f 24 25 13
f 23 38 24
f 24 38 40
f 40 38 54
f 39 38 23
f 44 57 45
f 44 33 32
f 45 33 44
f 34 45 35
f 45 50 35
f 35 50 51
f 1 3 4
f 1 4 5
f 10 11 4
f 21 11 10
f 10 4 9
f 9 21 10
f 32 20 31
f 14 6 5
f 5 13 14
f 41 42 28
f 39 42 41
f 41 54 38
f 38 39 41
f 13 25 26
f 26 14 13
f 53 42 37
f 37 39 23
f 37 42 39
f 47 48 35
f 35 48 49
f 49 36 35
f 36 37 22
f 23 11 22
f 22 37 23
f 22 33 34
f 34 35 22
f 35 36 22
f 22 11 21
f 21 33 22
f 46 35 51
f 46 47 35
f 52 49 48
f 53 37 52
f 52 37 36
f 36 49 52
f 53 52 58
f 58 52 48
f 2 7 1
f 1 17 30
f 7 17 1
f 30 19 1
f 18 8 1
f 1 19 18
f 8 3 1
f 1 6 2
f 5 6 1
f 31 17 16
f 16 29 31
f 30 17 31
f 29 43 31
f 31 44 32
f 43 56 31
f 56 57 31
f 57 44 31
f 31 19 30
f 31 20 19
f 2 6 26
f 15 7 26
f 26 7 2
f 26 28 15
f 6 14 26
f 26 25 40
f 40 54 26
f 26 41 28
f 54 41 26
f 58 27 15
f 55 43 58
f 29 27 58
f 58 43 29
f 15 28 58
f 58 50 55
f 51 50 58
f 28 42 58
f 58 42 53
f 58 46 51
f 48 47 58
f 47 46 58
