# generated by collision_forge
v -0.000020 -0.001187 0.009349
v -0.000020 -0.003000 0.009353
v -0.000020 -0.001187 0.008366
v -0.003400 -0.001187 0.009360
v -0.000020 -0.003220 0.009354
v -0.000020 -0.005962 0.008006
v -0.003000 -0.005962 0.007993
v -0.006601 -0.005962 0.007991
v -0.001400 -0.001187 0.008366
v -0.000020 -0.003620 0.009354
v -0.003587 -0.001187 0.009361
v -0.000020 -0.005962 0.009217
v -0.001800 -0.001187 0.008366
v -0.001614 -0.001187 0.008366
v -0.015798 -0.005962 0.008018
v -0.000020 -0.004019 0.009355
v -0.003400 -0.004600 0.009365
v -0.003801 -0.001187 0.009361
v -0.000020 -0.005800 0.009283
v -0.000068 -0.005962 0.009217
v -0.006601 -0.001187 0.008394
v -0.015798 -0.005962 0.009172
v -0.015798 -0.001188 0.008477
v -0.011799 -0.001187 0.008437
v -0.000020 -0.004200 0.009355
v -0.003400 -0.005000 0.009365
v -0.003987 -0.001187 0.009362
v -0.003801 -0.004600 0.009365
v -0.000020 -0.005400 0.009352
v -0.003000 -0.005400 0.009361
v -0.003400 -0.005800 0.009292
v -0.003000 -0.005962 0.009224
v -0.015798 -0.005961 0.009179
v -0.015410 -0.005962 0.009217
v -0.015798 -0.001187 0.009364
v -0.015612 -0.001187 0.008476
v -0.000020 -0.004600 0.009355
v -0.003400 -0.005400 0.009361
v -0.000020 -0.005219 0.009354
v -0.000020 -0.005000 0.009355
v -0.007401 -0.004600 0.009372
v -0.007801 -0.005000 0.009373
v -0.007801 -0.005400 0.009370
v -0.005001 -0.001187 0.009363
v -0.006601 -0.003400 0.009370
v -0.006601 -0.003800 0.009370
v -0.007401 -0.005800 0.009300
v -0.007001 -0.005962 0.009231
v -0.015798 -0.005800 0.009260
v -0.014999 -0.005962 0.009224
v -0.015399 -0.005800 0.009293
v -0.015798 -0.001187 0.009375
v -0.007801 -0.004600 0.009373
v -0.008199 -0.005000 0.009374
v -0.008199 -0.005400 0.009371
v -0.005801 -0.001187 0.009365
v -0.006601 -0.001187 0.009366
v -0.008599 -0.003400 0.009373
v -0.007401 -0.003800 0.009371
v -0.007401 -0.005962 0.009231
v -0.008599 -0.005400 0.009371
v -0.010999 -0.005800 0.009300
v -0.015798 -0.005400 0.009358
v -0.014599 -0.005962 0.009225
v -0.014999 -0.005800 0.009295
v -0.015399 -0.005400 0.009368
v -0.015798 -0.003398 0.009381
v -0.007801 -0.004200 0.009372
v -0.008199 -0.004600 0.009373
v -0.015798 -0.003800 0.009381
v -0.015798 -0.004200 0.009381
v -0.015399 -0.004600 0.009380
v -0.015399 -0.005000 0.009377
v -0.008999 -0.003400 0.009373
v -0.011561 -0.005962 0.009230
v -0.009399 -0.005400 0.009371
v -0.014999 -0.005400 0.009370
v -0.011399 -0.005800 0.009300
v -0.015798 -0.005000 0.009375
v -0.014199 -0.005962 0.009226
v -0.014199 -0.005800 0.009296
v -0.015798 -0.004600 0.009380
v -0.011799 -0.005962 0.009230
v -0.012199 -0.005800 0.009299
f 7 3 6
f 8 3 7
f 9 8 14
f 9 3 8
f 57 52 67
f 35 36 23
f 33 22 34
f 20 12 19
f 23 36 24
f 15 23 24
f 24 21 15
f 15 21 13
f 13 8 15
f 14 8 13
f 33 34 49
f 48 32 47
f 79 63 66
f 63 49 51
f 66 63 51
f 51 34 50
f 51 49 34
f 48 47 60
f 31 47 32
f 32 20 31
f 31 20 19
f 56 57 45
f 10 26 16
f 37 26 40
f 84 83 78
f 78 83 75
f 19 29 30
f 30 31 19
f 29 26 30
f 4 2 1
f 11 10 4
f 74 57 67
f 25 26 37
f 25 16 26
f 39 26 29
f 39 40 26
f 65 51 50
f 66 51 65
f 62 75 60
f 78 75 62
f 62 60 47
f 47 61 62
f 5 4 10
f 2 4 5
f 56 45 44
f 45 27 44
f 17 10 11
f 17 26 10
f 58 45 57
f 57 74 58
f 70 54 67
f 70 71 54
f 72 71 82
f 54 71 72
f 77 84 78
f 78 62 77
f 66 65 77
f 26 42 43
f 47 31 43
f 83 84 81
f 81 80 83
f 65 80 81
f 84 77 81
f 81 77 65
f 18 17 11
f 27 17 18
f 28 27 45
f 28 17 27
f 45 46 28
f 26 17 28
f 68 58 74
f 54 72 55
f 55 42 54
f 55 43 42
f 55 61 47
f 47 43 55
f 82 79 73
f 73 72 82
f 61 55 73
f 73 55 72
f 73 79 66
f 66 77 73
f 38 30 26
f 26 43 38
f 31 30 38
f 38 43 31
f 64 65 50
f 64 80 65
f 59 46 45
f 45 58 59
f 58 68 59
f 59 53 46
f 68 53 59
f 61 73 76
f 76 73 77
f 76 62 61
f 76 77 62
f 67 54 69
f 69 74 67
f 69 68 74
f 69 53 68
f 46 53 41
f 26 28 41
f 41 28 46
f 41 53 42
f 41 42 26
f 5 3 1
f 6 3 5
f 5 12 6
f 19 12 5
f 5 29 19
f 5 25 37
f 1 2 5
f 5 39 29
f 10 16 5
f 37 40 5
f 16 25 5
f 40 39 5
f 67 52 70
f 70 23 15
f 15 22 70
f 52 35 70
f 70 22 33
f 63 79 70
f 70 35 23
f 33 49 70
f 70 49 63
f 70 79 82
f 82 71 70
f 18 9 14
f 1 3 18
f 14 13 18
f 3 9 18
f 52 57 18
f 18 57 56
f 18 4 1
f 18 35 52
f 36 35 18
f 18 24 36
f 21 24 18
f 18 13 21
f 11 4 18
f 56 44 18
f 18 44 27
f 64 22 15
f 64 7 6
f 15 8 64
f 8 7 64
f 6 12 64
f 12 20 64
f 64 32 48
f 64 34 22
f 50 34 64
f 64 20 32
f 64 75 83
f 48 60 64
f 60 75 64
f 83 80 64
f 42 53 69
f 54 42 69
