# generated by collision_forge
v 0.017795 -0.001186 0.008356
v 0.017795 -0.001800 0.008356
v 0.016484 -0.001186 0.008356
v 0.017699 -0.001186 0.008490
v 0.017783 -0.004600 0.008356
v -0.000018 -0.005458 0.008356
v 0.000601 -0.001400 0.008360
v 0.000601 -0.001186 0.008361
v 0.017612 -0.001800 0.008604
v 0.017762 -0.004600 0.008391
v 0.017743 -0.004911 0.008356
v -0.000018 -0.006877 0.008356
v -0.000018 -0.001400 0.008365
v 0.000200 -0.001186 0.008364
v 0.017605 -0.004200 0.008596
v 0.017602 -0.004810 0.008594
v 0.017431 -0.001186 0.008804
v 0.004614 -0.006886 0.008356
v 0.001001 -0.006775 0.008546
v -0.000018 -0.006834 0.008433
v -0.000018 -0.001186 0.008366
v 0.017230 -0.002200 0.009017
v 0.017227 -0.003800 0.009014
v 0.017211 -0.004836 0.009000
v 0.017230 -0.001186 0.009018
v 0.017603 -0.005400 0.008356
v 0.017155 -0.005103 0.008956
v 0.005001 -0.006887 0.008356
v -0.000018 -0.006594 0.008791
v 0.005401 -0.006887 0.008356
v 0.006600 -0.006889 0.008356
v 0.005802 -0.006777 0.008552
v -0.000018 -0.006773 0.008543
v -0.000018 -0.001186 0.009349
v 0.017000 -0.001186 0.009151
v 0.017000 -0.001800 0.009150
v 0.017000 -0.002200 0.009149
v 0.017000 -0.003800 0.009141
v 0.017223 -0.004200 0.009012
v 0.017000 -0.004600 0.009130
v 0.016559 -0.004962 0.009308
v 0.017235 -0.005654 0.008626
v 0.016811 -0.005615 0.008999
v -0.000018 -0.006421 0.009008
v 0.000601 -0.006595 0.008791
v 0.015399 -0.006898 0.008358
v 0.015399 -0.006780 0.008558
v 0.004016 -0.001186 0.009363
v -0.000018 -0.003000 0.009353
v 0.004201 -0.003800 0.009373
v 0.016611 -0.001186 0.009324
v 0.016611 -0.004200 0.009316
v 0.016400 -0.004804 0.009391
v 0.016599 -0.005400 0.009201
v 0.016867 -0.006069 0.008646
v 0.016421 -0.006020 0.009004
v -0.000018 -0.006200 0.009121
v 0.014999 -0.006603 0.008791
v 0.014598 -0.006424 0.009010
v 0.013800 -0.006200 0.009128
v 0.015800 -0.006854 0.008356
v 0.015800 -0.006755 0.008519
v 0.015631 -0.006409 0.008998
v 0.004415 -0.001186 0.009364
v 0.004600 -0.005000 0.009375
v 0.005001 -0.003400 0.009374
v 0.003400 -0.005400 0.009371
v 0.016519 -0.001186 0.009357
v 0.016412 -0.003000 0.009395
v 0.016410 -0.004200 0.009395
v 0.016013 -0.005207 0.009391
v 0.016166 -0.005364 0.009352
v 0.016199 -0.005800 0.009198
v 0.017368 -0.005833 0.008356
v 0.015896 -0.006358 0.008960
v 0.016459 -0.006438 0.008635
v 0.007401 -0.005800 0.009302
v 0.003400 -0.005800 0.009295
v -0.000018 -0.005800 0.009283
v 0.013399 -0.005800 0.009306
v 0.014999 -0.006423 0.009010
v 0.015399 -0.005800 0.009307
v 0.016259 -0.006726 0.008356
v 0.016199 -0.006493 0.008701
v 0.015800 -0.005800 0.009279
v 0.015399 -0.006200 0.009123
v 0.015399 -0.006418 0.009005
v 0.004201 -0.005400 0.009374
v 0.004600 -0.005400 0.009375
v 0.016199 -0.004200 0.009396
v 0.016199 -0.003800 0.009396
v 0.016267 -0.001186 0.009394
v 0.005802 -0.001186 0.009369
v 0.005401 -0.001186 0.009367
v -0.000018 -0.005000 0.009355
v -0.000018 -0.005400 0.009352
v -0.000018 -0.005619 0.009314
v 0.015399 -0.005400 0.009388
v 0.017028 -0.006230 0.008356
v 0.016675 -0.006515 0.008356
v 0.008601 -0.005400 0.009380
v 0.005802 -0.004200 0.009377
f 31 61 46
f 6 7 3
f 7 8 3
f 13 7 6
f 26 16 27
f 98 80 82
f 98 101 77
f 77 80 98
f 14 13 21
f 14 8 7
f 7 13 14
f 91 92 102
f 57 80 77
f 77 101 89
f 18 19 12
f 32 31 46
f 32 19 31
f 83 62 61
f 84 62 83
f 24 27 16
f 72 98 82
f 63 62 84
f 69 92 91
f 91 90 69
f 11 16 26
f 49 50 34
f 49 95 50
f 34 50 66
f 92 93 66
f 66 102 92
f 50 102 66
f 79 57 78
f 78 57 77
f 77 89 78
f 82 80 60
f 80 57 60
f 60 57 44
f 67 95 96
f 50 95 67
f 19 18 28
f 12 19 20
f 19 33 20
f 29 33 19
f 19 32 29
f 76 83 100
f 84 83 76
f 22 25 35
f 39 24 16
f 85 72 82
f 73 72 85
f 85 63 73
f 71 72 53
f 98 72 71
f 101 98 71
f 71 89 101
f 71 90 89
f 54 72 73
f 27 24 54
f 82 60 86
f 86 60 81
f 86 85 82
f 63 85 86
f 87 86 81
f 63 86 87
f 92 69 68
f 68 69 51
f 70 69 90
f 70 71 53
f 90 71 70
f 53 52 70
f 51 69 70
f 70 52 51
f 9 4 17
f 17 25 22
f 10 4 9
f 9 15 10
f 10 15 16
f 10 11 5
f 16 11 10
f 34 66 48
f 48 66 64
f 94 66 93
f 64 66 94
f 59 60 44
f 81 60 59
f 97 67 96
f 79 67 97
f 88 67 79
f 79 78 88
f 88 78 89
f 31 19 30
f 19 28 30
f 56 76 55
f 56 54 73
f 99 74 55
f 99 76 100
f 55 76 99
f 42 74 26
f 26 27 42
f 55 74 42
f 38 52 40
f 40 39 38
f 24 39 40
f 40 52 53
f 37 52 38
f 16 15 23
f 23 39 16
f 23 15 9
f 22 37 23
f 23 17 22
f 9 17 23
f 38 39 23
f 23 37 38
f 53 72 41
f 72 54 41
f 41 54 24
f 41 40 53
f 24 40 41
f 1 4 2
f 4 10 2
f 2 10 5
f 58 59 44
f 81 59 58
f 58 87 81
f 50 67 65
f 67 88 65
f 65 88 89
f 65 102 50
f 91 102 65
f 65 90 91
f 89 90 65
f 84 76 75
f 76 56 75
f 75 63 84
f 73 63 75
f 75 56 73
f 27 54 43
f 43 42 27
f 54 56 43
f 43 56 55
f 55 42 43
f 22 35 36
f 36 37 22
f 36 35 51
f 51 52 36
f 52 37 36
f 44 29 45
f 45 58 44
f 45 29 32
f 47 45 32
f 58 45 47
f 47 32 46
f 46 61 47
f 61 62 47
f 62 63 47
f 63 87 47
f 87 58 47
f 94 21 34
f 94 35 25
f 1 3 94
f 94 93 92
f 25 17 94
f 94 3 8
f 94 14 21
f 8 14 94
f 94 4 1
f 34 48 94
f 92 68 94
f 51 35 94
f 94 68 51
f 94 17 4
f 94 48 64
f 34 21 97
f 6 12 97
f 44 57 97
f 97 29 44
f 97 13 6
f 21 13 97
f 97 49 34
f 96 95 97
f 97 57 79
f 12 20 97
f 95 49 97
f 97 20 33
f 33 29 97
f 2 12 6
f 61 31 2
f 2 18 12
f 6 3 2
f 2 99 100
f 2 3 1
f 26 74 2
f 2 83 61
f 2 11 26
f 100 83 2
f 5 11 2
f 2 28 18
f 31 30 2
f 2 30 28
f 74 99 2
