# generated by collision_forge
v 0.018990 -0.005293 0.001592
v 0.018983 -0.005292 0.001592
v 0.020159 -0.005293 0.001592
v 0.016225 -0.005293 0.008356
v 0.018939 -0.003000 0.001592
v 0.020149 -0.001187 0.001592
v 0.020081 -0.005293 0.001856
v 0.017639 -0.005293 0.008356
v 0.016484 -0.001186 0.008356
v 0.018920 -0.001186 0.001592
v 0.018920 -0.001400 0.001592
v 0.018921 -0.001800 0.001592
v 0.018926 -0.002200 0.001592
v 0.018932 -0.002600 0.001592
v 0.018933 -0.001186 0.001592
v 0.020101 -0.001186 0.001744
v 0.020053 -0.005293 0.001950
v 0.017691 -0.005137 0.008356
v 0.017678 -0.005293 0.008311
v 0.017797 -0.001186 0.008356
v 0.020045 -0.001186 0.001922
v 0.019987 -0.005293 0.002150
v 0.017734 -0.004972 0.008356
v 0.017940 -0.005018 0.007984
v 0.017744 -0.005293 0.008197
v 0.017797 -0.001400 0.008356
v 0.017876 -0.001186 0.008226
v 0.017963 -0.001186 0.008081
v 0.019904 -0.005293 0.002391
v 0.018438 -0.004600 0.006699
v 0.018535 -0.005000 0.006390
v 0.017744 -0.004911 0.008356
v 0.018019 -0.004896 0.007846
v 0.017958 -0.004600 0.008073
v 0.017856 -0.005293 0.007989
v 0.017992 -0.005163 0.007771
v 0.018416 -0.005253 0.006633
v 0.017796 -0.001756 0.008356
v 0.018028 -0.004600 0.007873
v 0.018825 -0.005293 0.005465
v 0.018432 -0.005000 0.006679
v 0.017784 -0.004600 0.008356
v 0.017794 -0.002156 0.008356
v 0.017899 -0.005293 0.007891
v 0.017972 -0.005293 0.007720
v 0.018387 -0.005293 0.006674
v 0.018410 -0.005293 0.006617
v 0.018430 -0.005293 0.006563
f 4 9 10
f 2 1 4
f 15 16 6
f 4 14 5
f 5 2 4
f 4 10 11
f 11 12 4
f 13 14 4
f 4 12 13
f 34 31 39
f 39 31 30
f 39 28 34
f 30 28 39
f 34 24 33
f 33 24 37
f 43 42 34
f 34 38 43
f 34 28 27
f 27 38 34
f 37 48 40
f 40 31 37
f 40 29 31
f 30 31 22
f 31 29 22
f 22 28 30
f 22 21 28
f 36 24 35
f 37 24 36
f 45 46 36
f 36 46 37
f 35 24 25
f 24 19 25
f 37 31 41
f 41 33 37
f 41 31 34
f 34 33 41
f 26 27 20
f 38 27 26
f 16 21 17
f 21 22 17
f 6 16 17
f 47 48 37
f 37 46 47
f 44 36 35
f 45 36 44
f 8 19 18
f 18 19 24
f 24 23 18
f 34 42 32
f 32 24 34
f 32 23 24
f 3 6 7
f 6 17 7
f 13 6 3
f 3 1 13
f 13 5 14
f 1 2 13
f 13 15 6
f 13 11 10
f 10 15 13
f 2 5 13
f 12 11 13
f 9 20 27
f 27 10 9
f 27 15 10
f 28 21 27
f 16 15 27
f 27 21 16
f 4 8 32
f 32 9 4
f 42 43 32
f 32 20 9
f 8 18 32
f 32 43 38
f 32 26 20
f 38 26 32
f 32 18 23
f 7 1 3
f 4 1 7
f 7 8 4
f 48 47 7
f 7 40 48
f 7 44 35
f 35 25 7
f 7 19 8
f 29 40 7
f 7 22 29
f 7 46 45
f 7 25 19
f 7 17 22
f 7 47 46
f 45 44 7
