# generated by collision_forge
v 0.017691 0.008001 0.002581
v 0.017691 0.008018 0.002516
v 0.017691 0.006924 0.002581
v 0.018198 0.007807 0.002581
v 0.018023 0.008010 0.002229
v 0.017691 0.008034 0.002458
v 0.017691 0.005807 0.000430
v 0.017863 0.005402 0.000391
v 0.017949 0.005402 0.000664
v 0.018733 0.005402 0.002581
v 0.018390 0.007699 0.002581
v 0.018383 0.007992 0.001759
v 0.017691 0.008125 0.002100
v 0.017691 0.005845 0.000066
v 0.017913 0.005402 0.000081
v 0.019841 0.005402 0.002581
v 0.018442 0.008023 0.001493
v 0.017800 0.008219 0.001590
v 0.017691 0.008219 0.001700
v 0.017691 0.008153 0.001990
v 0.018198 0.005402 -0.000106
v 0.019909 0.005402 0.002389
v 0.019961 0.005800 0.002077
v 0.018794 0.007596 0.002180
v 0.018918 0.007691 0.001590
v 0.018442 0.008023 0.001299
v 0.017800 0.008213 0.001191
v 0.017691 0.008238 0.001300
v 0.017691 0.008242 0.001590
v 0.017691 0.006200 -0.000085
v 0.018599 0.005402 -0.000182
v 0.017691 0.006309 -0.000115
v 0.019989 0.005402 0.002157
v 0.020000 0.006002 0.001792
v 0.018913 0.007311 0.002581
v 0.019118 0.007521 0.001590
v 0.018915 0.007690 0.001191
v 0.018372 0.007988 0.001033
v 0.017691 0.008236 0.001191
v 0.018105 0.008039 0.000909
v 0.018600 0.005800 -0.000175
v 0.018998 0.005402 -0.000100
v 0.017691 0.006600 -0.000138
v 0.020053 0.005402 0.001956
v 0.020107 0.005800 0.001590
v 0.019960 0.006281 0.001590
v 0.020156 0.005402 0.001589
v 0.019251 0.007259 0.001920
v 0.019115 0.007518 0.001191
v 0.019304 0.007321 0.001590
v 0.018852 0.007641 0.000907
v 0.017873 0.007965 0.000642
v 0.017691 0.008037 0.000693
v 0.018600 0.006200 -0.000135
v 0.019000 0.005800 -0.000073
v 0.019349 0.005402 0.000085
v 0.017691 0.006709 -0.000121
v 0.018200 0.006600 -0.000120
v 0.019664 0.006160 0.002581
v 0.020109 0.005800 0.001191
v 0.020032 0.006089 0.001191
v 0.019959 0.006290 0.001191
v 0.019829 0.006600 0.001590
v 0.020156 0.005402 0.001190
v 0.019295 0.006906 0.002581
v 0.019633 0.006842 0.001891
v 0.019301 0.007318 0.001191
v 0.019248 0.007254 0.000885
v 0.019181 0.007181 0.000618
v 0.018753 0.007565 0.000640
v 0.018486 0.007652 0.000543
v 0.018200 0.007713 0.000490
v 0.018600 0.006600 -0.000040
v 0.019000 0.006200 0.000005
v 0.019325 0.005800 0.000105
v 0.017800 0.007000 -0.000052
v 0.018200 0.007000 0.000010
v 0.019587 0.006775 0.002157
v 0.019482 0.006614 0.002581
v 0.020004 0.006012 0.000978
v 0.019688 0.006603 0.000796
v 0.019821 0.006600 0.001191
v 0.019669 0.006888 0.001590
v 0.020052 0.005402 0.000858
v 0.019623 0.006830 0.000933
v 0.019559 0.006739 0.000666
v 0.019292 0.006914 0.000517
v 0.018915 0.007298 0.000517
v 0.018422 0.007216 0.000180
v 0.017691 0.007903 0.000524
v 0.018849 0.006848 0.000160
v 0.019205 0.006409 0.000187
v 0.019525 0.005800 0.000249
v 0.019764 0.005402 0.000428
v 0.019742 0.005800 0.000449
v 0.018200 0.007266 0.000146
v 0.019942 0.005800 0.000716
v 0.019635 0.006472 0.000553
v 0.019662 0.006880 0.001191
v 0.019964 0.005402 0.000658
v 0.019686 0.006200 0.000501
v 0.017691 0.007398 0.000135
f 10 3 9
f 9 3 8
f 7 14 8
f 8 3 7
f 8 14 15
f 78 65 79
f 78 48 65
f 63 78 46
f 78 34 46
f 18 20 5
f 5 12 18
f 18 12 17
f 4 5 1
f 4 12 5
f 4 11 12
f 65 48 35
f 47 64 60
f 82 83 63
f 99 83 82
f 66 78 63
f 63 83 66
f 66 83 50
f 50 48 66
f 48 78 66
f 34 23 45
f 45 46 34
f 45 44 47
f 23 44 45
f 47 60 45
f 61 46 45
f 45 60 61
f 16 23 59
f 59 23 34
f 59 78 79
f 59 34 78
f 1 5 2
f 5 6 2
f 5 20 13
f 13 6 5
f 19 18 29
f 20 18 19
f 17 12 25
f 41 43 58
f 84 60 64
f 61 60 80
f 60 84 80
f 62 82 63
f 63 46 62
f 62 46 61
f 61 80 62
f 97 84 100
f 97 80 84
f 33 44 23
f 29 18 28
f 39 28 27
f 27 28 18
f 24 35 48
f 11 35 24
f 12 11 24
f 24 25 12
f 30 15 14
f 21 30 32
f 15 30 21
f 90 72 102
f 22 23 16
f 22 33 23
f 26 18 17
f 26 27 18
f 17 25 26
f 25 37 26
f 36 24 48
f 25 24 36
f 36 48 50
f 36 37 25
f 50 83 67
f 67 83 99
f 102 76 57
f 57 58 43
f 57 76 58
f 41 42 31
f 31 43 41
f 31 32 43
f 31 21 32
f 51 69 70
f 71 89 72
f 53 39 40
f 39 27 40
f 37 36 49
f 49 51 37
f 49 36 50
f 50 67 49
f 102 72 96
f 72 89 96
f 70 69 88
f 88 71 70
f 89 71 88
f 41 58 54
f 92 74 91
f 89 88 91
f 91 88 69
f 95 97 100
f 27 26 38
f 38 40 27
f 38 26 37
f 37 51 38
f 38 51 70
f 70 71 38
f 71 40 38
f 53 40 52
f 52 40 71
f 52 71 72
f 52 90 53
f 72 90 52
f 69 86 87
f 92 91 87
f 87 91 69
f 82 62 81
f 81 62 80
f 85 86 69
f 85 67 99
f 85 81 86
f 99 82 85
f 82 81 85
f 69 51 68
f 51 49 68
f 68 49 67
f 68 85 69
f 67 85 68
f 77 76 102
f 102 96 77
f 58 76 77
f 77 96 89
f 55 56 42
f 55 54 74
f 55 42 41
f 41 54 55
f 94 95 100
f 94 56 93
f 93 95 94
f 86 81 98
f 80 97 98
f 98 81 80
f 92 87 98
f 98 87 86
f 89 91 73
f 73 77 89
f 74 54 73
f 73 91 74
f 73 54 58
f 58 77 73
f 93 56 75
f 56 55 75
f 75 55 74
f 75 74 92
f 92 93 75
f 97 95 101
f 101 98 97
f 101 95 93
f 101 93 92
f 92 98 101
f 1 3 59
f 10 16 59
f 59 3 10
f 65 35 59
f 79 65 59
f 59 4 1
f 11 4 59
f 59 35 11
f 57 3 1
f 57 19 29
f 14 7 57
f 57 7 3
f 29 28 57
f 57 13 20
f 57 30 14
f 1 2 57
f 57 90 102
f 57 2 6
f 6 13 57
f 20 19 57
f 57 39 53
f 43 32 57
f 57 28 39
f 32 30 57
f 53 90 57
f 94 16 10
f 8 15 94
f 94 9 8
f 94 31 42
f 10 9 94
f 94 64 47
f 47 44 94
f 15 21 94
f 100 84 94
f 94 84 64
f 44 33 94
f 94 22 16
f 33 22 94
f 21 31 94
f 42 56 94
