# generated by collision_forge
v 0.017691 0.005807 0.000429
v 0.016316 0.006036 0.000427
v 0.016316 0.005993 0.000227
v 0.016316 0.005993 0.000179
v 0.017691 0.005845 0.000066
v 0.017691 0.006924 0.002581
v 0.016316 0.007046 0.002581
v 0.016316 0.006140 0.000066
v 0.016316 0.006200 0.000020
v 0.017691 0.005911 0.000022
v 0.017691 0.008000 0.002581
v 0.016316 0.008189 0.002581
v 0.016316 0.006484 -0.000083
v 0.017691 0.006200 -0.000085
v 0.017651 0.008011 0.002581
v 0.017691 0.008018 0.002515
v 0.016410 0.008188 0.002581
v 0.016600 0.008297 0.001990
v 0.016316 0.008299 0.001990
v 0.016316 0.006600 -0.000124
v 0.017691 0.006309 -0.000115
v 0.017566 0.008033 0.002581
v 0.017691 0.008034 0.002458
v 0.016600 0.008187 0.002581
v 0.016600 0.008223 0.002390
v 0.016832 0.008401 0.001400
v 0.016600 0.008368 0.001605
v 0.016316 0.008319 0.001879
v 0.017691 0.006600 -0.000138
v 0.016316 0.007000 -0.000074
v 0.017388 0.008075 0.002581
v 0.017691 0.008125 0.002100
v 0.016810 0.008172 0.002581
v 0.017000 0.008280 0.001990
v 0.016979 0.008366 0.001556
v 0.016832 0.008401 0.001384
v 0.016600 0.008402 0.001405
v 0.017400 0.008306 0.001590
v 0.016316 0.008379 0.001548
v 0.016316 0.008368 0.001606
v 0.017691 0.006709 -0.000121
v 0.017000 0.007000 -0.000074
v 0.016316 0.007367 0.000083
v 0.017210 0.008114 0.002581
v 0.017691 0.008153 0.001990
v 0.017400 0.008218 0.001990
v 0.017000 0.008153 0.002581
v 0.017000 0.008195 0.002390
v 0.016600 0.008402 0.001380
v 0.017400 0.008299 0.001191
v 0.016979 0.008356 0.001226
v 0.016600 0.008351 0.001180
v 0.016316 0.008403 0.001406
v 0.017691 0.008242 0.001590
v 0.017691 0.008238 0.001300
v 0.017400 0.007000 -0.000073
v 0.017691 0.007000 -0.000057
v 0.016316 0.007567 0.000214
v 0.016600 0.007567 0.000214
v 0.016600 0.007367 0.000084
v 0.017691 0.008218 0.001700
v 0.016316 0.008403 0.001379
v 0.016316 0.008352 0.001180
v 0.017691 0.008236 0.001191
v 0.017691 0.008114 0.000863
v 0.017691 0.008082 0.000783
v 0.017400 0.008140 0.000791
v 0.017000 0.008173 0.000791
v 0.016600 0.008177 0.000791
v 0.017691 0.007100 -0.000013
v 0.017000 0.007366 0.000086
v 0.017400 0.007364 0.000089
v 0.016316 0.007733 0.000338
v 0.016600 0.007800 0.000389
v 0.017000 0.007566 0.000214
v 0.016316 0.008301 0.001067
v 0.017691 0.008037 0.000693
v 0.017606 0.008001 0.000589
v 0.017400 0.008013 0.000578
v 0.017000 0.008025 0.000567
v 0.016600 0.008025 0.000566
v 0.016316 0.008134 0.000726
v 0.016316 0.008177 0.000791
v 0.017691 0.007343 0.000100
v 0.017400 0.007564 0.000215
v 0.017691 0.007398 0.000135
v 0.016316 0.007800 0.000389
v 0.016316 0.007960 0.000515
v 0.017000 0.007800 0.000391
v 0.017691 0.007990 0.000606
v 0.017691 0.007903 0.000524
v 0.017691 0.007607 0.000283
v 0.017400 0.007800 0.000403
v 0.016316 0.008025 0.000566
v 0.017691 0.007543 0.000232
f 1 6 7
f 2 1 7
f 10 5 9
f 41 29 30
f 4 5 1
f 30 29 20
f 8 9 5
f 5 4 8
f 3 1 2
f 3 4 1
f 21 20 29
f 78 90 91
f 55 64 50
f 67 66 78
f 50 66 67
f 54 55 38
f 38 55 50
f 20 21 14
f 14 13 20
f 9 13 14
f 10 9 14
f 78 91 92
f 92 93 78
f 95 93 92
f 77 90 78
f 78 66 77
f 50 64 65
f 65 66 50
f 83 76 69
f 69 76 63
f 69 80 81
f 79 67 78
f 78 93 79
f 93 80 79
f 54 38 46
f 44 31 46
f 46 31 45
f 34 38 35
f 34 24 33
f 35 24 34
f 30 43 42
f 42 41 30
f 85 93 95
f 85 80 93
f 58 59 43
f 50 67 51
f 82 81 94
f 82 83 69
f 69 81 82
f 54 46 61
f 61 46 45
f 44 46 47
f 39 37 53
f 17 18 12
f 12 18 19
f 27 40 28
f 28 19 27
f 27 19 18
f 27 39 40
f 37 39 27
f 72 84 70
f 56 42 43
f 56 70 57
f 72 70 56
f 57 41 56
f 41 42 56
f 86 85 95
f 86 84 72
f 72 85 86
f 59 74 75
f 50 51 36
f 36 38 50
f 68 51 67
f 67 79 68
f 68 80 69
f 68 79 80
f 89 74 81
f 89 81 80
f 80 85 89
f 85 75 89
f 89 75 74
f 33 47 48
f 48 34 33
f 38 34 48
f 48 46 38
f 48 47 46
f 25 17 24
f 18 17 25
f 72 56 71
f 71 85 72
f 71 75 85
f 63 62 49
f 37 27 26
f 26 27 18
f 18 25 26
f 35 38 26
f 38 36 26
f 26 24 35
f 26 25 24
f 51 68 52
f 52 36 51
f 69 63 52
f 52 68 69
f 52 49 36
f 63 49 52
f 59 58 73
f 73 87 74
f 73 74 59
f 94 81 88
f 81 74 88
f 74 87 88
f 23 22 16
f 32 22 23
f 31 22 32
f 45 31 32
f 75 71 60
f 43 59 60
f 59 75 60
f 60 56 43
f 60 71 56
f 11 16 15
f 15 16 22
f 49 62 53
f 53 37 49
f 26 49 37
f 36 49 26
f 88 43 30
f 2 7 88
f 53 62 88
f 9 8 88
f 88 13 9
f 7 12 88
f 30 20 88
f 88 3 2
f 88 8 4
f 4 3 88
f 20 13 88
f 88 82 94
f 12 19 88
f 88 39 53
f 76 83 88
f 88 63 76
f 28 40 88
f 88 58 43
f 88 62 63
f 83 82 88
f 40 39 88
f 88 19 28
f 88 73 58
f 87 73 88
f 32 65 64
f 32 6 1
f 32 11 6
f 1 5 32
f 32 5 10
f 32 91 90
f 32 41 57
f 95 92 32
f 29 41 32
f 32 86 95
f 32 55 54
f 32 21 29
f 10 14 32
f 64 55 32
f 90 77 32
f 54 61 32
f 32 14 21
f 32 92 91
f 32 77 66
f 66 65 32
f 57 70 32
f 32 16 11
f 32 61 45
f 32 70 84
f 84 86 32
f 23 16 32
f 6 11 15
f 15 7 6
f 15 12 7
f 15 17 12
f 33 24 15
f 15 47 33
f 15 31 44
f 44 47 15
f 24 17 15
f 15 22 31
