# generated by collision_forge
v 0.016200 -0.008363 0.001590
v 0.015943 -0.008363 0.001590
v 0.016600 -0.008354 0.001191
v 0.016600 -0.008363 0.001590
v 0.015943 -0.008298 0.001990
v 0.015943 -0.008351 0.001191
v 0.016200 -0.008352 0.001191
v 0.017000 -0.008350 0.001191
v 0.016600 -0.008172 0.000791
v 0.017000 -0.008359 0.001590
v 0.016600 -0.008294 0.001990
v 0.016200 -0.008297 0.001990
v 0.015943 -0.008272 0.002133
v 0.015943 -0.008234 0.000934
v 0.015943 -0.008169 0.000791
v 0.016200 -0.008170 0.000791
v 0.017400 -0.008314 0.001191
v 0.017000 -0.008167 0.000791
v 0.017400 -0.008145 0.000791
v 0.015943 -0.008071 0.000652
v 0.015943 -0.008016 0.000574
v 0.016200 -0.008016 0.000573
v 0.016600 -0.008016 0.000573
v 0.017000 -0.008014 0.000576
v 0.017400 -0.008311 0.001590
v 0.017000 -0.008286 0.001990
v 0.016600 -0.008221 0.002391
v 0.016200 -0.008225 0.002391
v 0.015943 -0.008226 0.002391
v 0.017648 -0.008261 0.001191
v 0.017648 -0.008100 0.000786
v 0.017400 -0.008006 0.000584
v 0.017604 -0.008001 0.000589
v 0.015943 -0.007877 0.000454
v 0.016600 -0.007800 0.000385
v 0.017400 -0.007584 0.000201
v 0.017400 -0.007800 0.000394
v 0.017648 -0.008253 0.001590
v 0.017400 -0.008229 0.001990
v 0.017000 -0.008204 0.002391
v 0.016600 -0.008144 0.002790
v 0.016200 -0.008149 0.002792
v 0.015943 -0.008150 0.002790
v 0.017648 -0.008023 0.000644
v 0.017648 -0.007949 0.000553
v 0.017648 -0.007563 0.000218
v 0.015943 -0.007800 0.000387
v 0.015943 -0.007658 0.000269
v 0.015943 -0.007579 0.000204
v 0.015943 -0.007379 0.000087
v 0.017400 -0.007384 0.000086
v 0.017648 -0.007363 0.000095
v 0.017648 -0.008165 0.001990
v 0.017400 -0.008136 0.002391
v 0.017000 -0.008115 0.002792
v 0.016600 -0.008144 0.002792
v 0.015943 -0.008150 0.002792
v 0.015943 -0.007000 -0.000083
v 0.017400 -0.007000 -0.000092
v 0.017648 -0.007000 -0.000081
v 0.017648 -0.008072 0.002378
v 0.017379 -0.008040 0.002792
v 0.015943 -0.007003 0.002792
v 0.015943 -0.006600 -0.000139
v 0.017648 -0.006600 -0.000172
v 0.017648 -0.008012 0.002615
v 0.017405 -0.008033 0.002792
v 0.017639 -0.008011 0.002632
v 0.017398 -0.006960 0.002792
v 0.017648 -0.006885 0.002790
v 0.017648 -0.005706 0.000391
v 0.015943 -0.006045 0.000414
v 0.017648 -0.006200 -0.000133
v 0.015943 -0.006343 -0.000036
v 0.017648 -0.008009 0.002627
v 0.017648 -0.007963 0.002792
v 0.017648 -0.007561 0.002792
v 0.017648 -0.005821 0.000028
v 0.015943 -0.005995 0.000182
v 0.015943 -0.005995 0.000214
v 0.015943 -0.006026 0.000342
v 0.015943 -0.006200 0.000022
v 0.015943 -0.006068 0.000124
f 63 70 71
f 63 69 70
f 70 69 77
f 11 4 10
f 1 5 2
f 4 5 1
f 42 41 56
f 56 41 55
f 55 41 40
f 26 11 10
f 26 40 41
f 55 54 62
f 54 61 62
f 72 63 71
f 73 65 64
f 64 65 58
f 42 57 43
f 43 28 42
f 29 28 43
f 59 65 60
f 58 65 59
f 60 51 59
f 58 59 50
f 50 59 51
f 46 45 33
f 37 24 36
f 33 37 36
f 36 46 33
f 49 50 36
f 36 50 51
f 27 28 11
f 11 26 27
f 27 26 41
f 27 41 42
f 42 28 27
f 12 28 29
f 11 28 12
f 4 11 12
f 12 5 4
f 25 26 10
f 30 38 25
f 53 61 54
f 71 80 81
f 81 72 71
f 71 78 79
f 79 80 71
f 82 78 73
f 33 45 44
f 44 31 33
f 33 31 19
f 16 15 20
f 23 36 24
f 52 51 60
f 52 36 51
f 46 36 52
f 13 12 29
f 5 12 13
f 39 54 55
f 55 40 39
f 39 53 54
f 38 53 39
f 39 25 38
f 66 62 61
f 73 64 74
f 74 82 73
f 83 79 78
f 78 82 83
f 32 37 33
f 32 24 37
f 24 32 18
f 33 19 18
f 18 32 33
f 17 31 30
f 17 19 31
f 30 25 17
f 17 25 10
f 49 36 48
f 36 47 48
f 68 75 76
f 76 67 68
f 68 67 62
f 68 66 75
f 62 66 68
f 9 22 23
f 9 23 24
f 24 18 9
f 16 20 9
f 9 20 21
f 21 22 9
f 4 1 3
f 3 1 2
f 35 22 21
f 23 22 35
f 36 23 35
f 35 47 36
f 8 9 18
f 8 3 9
f 8 18 19
f 19 17 8
f 8 17 10
f 10 4 8
f 4 3 8
f 7 14 15
f 7 15 16
f 6 14 7
f 2 6 7
f 7 3 2
f 34 35 21
f 47 35 34
f 26 25 39
f 40 26 39
f 76 77 67
f 67 57 42
f 42 56 67
f 69 63 67
f 67 77 69
f 63 57 67
f 67 56 55
f 55 62 67
f 71 70 66
f 60 65 66
f 66 38 30
f 70 77 66
f 66 78 71
f 66 77 76
f 66 53 38
f 66 65 73
f 30 31 66
f 66 44 45
f 73 78 66
f 76 75 66
f 45 46 66
f 61 53 66
f 66 52 60
f 31 44 66
f 46 52 66
f 9 3 7
f 16 9 7
f 34 6 2
f 2 5 34
f 34 13 29
f 63 72 34
f 29 43 34
f 34 14 6
f 49 48 34
f 34 57 63
f 34 64 58
f 58 50 34
f 34 81 80
f 34 43 57
f 21 20 34
f 34 50 49
f 72 81 34
f 80 79 34
f 34 74 64
f 34 20 15
f 15 14 34
f 79 83 34
f 5 13 34
f 82 74 34
f 34 83 82
f 34 48 47
