# generated by collision_forge
v 0.019762 -0.005294 0.002792
v 0.019762 -0.005402 0.002792
v 0.019202 -0.005293 0.002792
v 0.018825 -0.005293 0.005465
v 0.019629 -0.005704 0.003072
v 0.019758 -0.005428 0.002792
v 0.018670 -0.005293 0.002792
v 0.018430 -0.005293 0.006563
v 0.019591 -0.005971 0.002969
v 0.019700 -0.005821 0.002792
v 0.015943 -0.007003 0.002792
v 0.016225 -0.005293 0.008356
v 0.018410 -0.005293 0.006617
v 0.018375 -0.005520 0.006525
v 0.019587 -0.006200 0.002792
v 0.019680 -0.005889 0.002792
v 0.015943 -0.005525 0.008355
v 0.016147 -0.005347 0.008356
v 0.015943 -0.008150 0.002792
v 0.017639 -0.005293 0.008356
v 0.018002 -0.005605 0.007395
v 0.018380 -0.005944 0.006142
v 0.019228 -0.006451 0.003461
v 0.019484 -0.006441 0.002792
v 0.015943 -0.005785 0.008356
v 0.016200 -0.008148 0.002792
v 0.015943 -0.008123 0.002934
v 0.017604 -0.005400 0.008356
v 0.017678 -0.005293 0.008311
v 0.017972 -0.005293 0.007720
v 0.018006 -0.006010 0.007006
v 0.017823 -0.005400 0.007991
v 0.017673 -0.005786 0.007973
v 0.019430 -0.006564 0.002792
v 0.018801 -0.006402 0.004593
v 0.015943 -0.006814 0.008356
v 0.016600 -0.008144 0.002792
v 0.016600 -0.008067 0.003191
v 0.017416 -0.005766 0.008356
v 0.017622 -0.005644 0.008219
v 0.017744 -0.005293 0.008197
v 0.017618 -0.006023 0.007829
v 0.018417 -0.006421 0.005432
v 0.019203 -0.006804 0.002998
v 0.019408 -0.006601 0.002792
v 0.015943 -0.006860 0.008288
v 0.017000 -0.008115 0.002792
v 0.016837 -0.008008 0.003428
v 0.016200 -0.007835 0.004391
v 0.017273 -0.006084 0.008264
v 0.017540 -0.005911 0.008095
v 0.017228 -0.006426 0.007846
v 0.017565 -0.006363 0.007323
v 0.017964 -0.006357 0.006514
v 0.018027 -0.006429 0.006247
v 0.018866 -0.006871 0.003591
v 0.019064 -0.007058 0.002792
v 0.019249 -0.006856 0.002792
v 0.016259 -0.006726 0.008356
v 0.015943 -0.006946 0.008104
v 0.016236 -0.006910 0.008028
v 0.016393 -0.006797 0.008186
v 0.017247 -0.008013 0.003039
v 0.016200 -0.007668 0.005191
v 0.016200 -0.007754 0.004791
v 0.016418 -0.007605 0.005408
v 0.017089 -0.006172 0.008356
v 0.017148 -0.006351 0.008113
v 0.017028 -0.006230 0.008356
v 0.017633 -0.006433 0.007056
v 0.016796 -0.006798 0.007785
v 0.017553 -0.006762 0.006505
v 0.017959 -0.006763 0.005715
v 0.018813 -0.007212 0.003018
v 0.016560 -0.006584 0.008356
v 0.016200 -0.007071 0.007590
v 0.016529 -0.006855 0.007919
v 0.016882 -0.006460 0.008261
v 0.017514 -0.007976 0.002899
v 0.015943 -0.007290 0.006931
v 0.015943 -0.007671 0.005191
v 0.016111 -0.007229 0.007097
v 0.015943 -0.007192 0.007358
v 0.016818 -0.007605 0.005012
v 0.016637 -0.006913 0.007627
v 0.017155 -0.007182 0.006138
v 0.017663 -0.007241 0.005101
v 0.018004 -0.007203 0.004598
v 0.017624 -0.006819 0.006238
v 0.018027 -0.006825 0.005448
v 0.018467 -0.007254 0.003591
v 0.018809 -0.007309 0.002792
v 0.016378 -0.007194 0.006968
v 0.016774 -0.007193 0.006564
v 0.017747 -0.007934 0.002792
v 0.017400 -0.007823 0.003591
v 0.017593 -0.007598 0.004183
v 0.018026 -0.007617 0.003437
v 0.018369 -0.007580 0.002938
v 0.018582 -0.007488 0.002792
v 0.017784 -0.007922 0.002792
v 0.018233 -0.007715 0.002792
f 11 12 7
f 18 17 25
f 11 17 18
f 18 12 11
f 59 36 46
f 46 62 59
f 29 20 28
f 78 62 71
f 63 48 47
f 47 79 63
f 95 79 47
f 83 76 60
f 60 76 61
f 61 46 60
f 62 46 61
f 86 87 71
f 98 87 86
f 98 86 97
f 97 102 98
f 96 79 95
f 63 79 84
f 79 96 84
f 9 5 8
f 10 5 9
f 40 28 39
f 29 28 40
f 58 44 57
f 90 74 55
f 32 30 41
f 29 40 41
f 41 40 32
f 21 30 32
f 99 102 100
f 98 102 99
f 99 87 98
f 88 99 100
f 87 99 88
f 71 87 88
f 48 65 38
f 66 83 80
f 66 48 63
f 63 84 66
f 77 61 76
f 71 62 77
f 62 61 77
f 94 97 86
f 94 96 97
f 94 84 96
f 102 97 101
f 101 96 95
f 97 96 101
f 6 5 10
f 6 2 5
f 4 2 1
f 1 3 4
f 8 5 4
f 5 2 4
f 10 9 16
f 16 9 15
f 42 40 51
f 42 31 33
f 33 40 42
f 32 40 33
f 33 21 32
f 31 21 33
f 78 69 75
f 59 62 75
f 62 78 75
f 68 78 71
f 71 52 68
f 68 69 78
f 68 52 42
f 42 51 68
f 44 58 45
f 34 23 45
f 45 23 44
f 57 74 92
f 57 44 56
f 56 74 57
f 56 55 74
f 43 56 44
f 55 56 43
f 43 31 42
f 24 23 34
f 15 23 24
f 30 21 14
f 14 9 8
f 15 9 14
f 91 74 90
f 91 92 74
f 100 92 91
f 91 88 100
f 72 52 71
f 72 70 52
f 37 47 48
f 48 38 37
f 64 65 48
f 48 66 64
f 64 66 80
f 80 81 64
f 64 81 65
f 76 83 82
f 83 66 82
f 85 77 76
f 76 94 85
f 71 77 85
f 85 86 71
f 85 94 86
f 50 40 39
f 50 51 40
f 69 68 50
f 50 68 51
f 44 23 35
f 35 43 44
f 31 43 35
f 54 43 42
f 55 43 54
f 54 70 55
f 90 55 73
f 55 70 73
f 73 72 90
f 70 72 73
f 13 14 8
f 30 14 13
f 15 14 22
f 22 23 15
f 22 21 31
f 22 14 21
f 31 35 22
f 22 35 23
f 88 91 89
f 71 88 89
f 89 72 71
f 89 91 90
f 90 72 89
f 81 27 49
f 65 81 49
f 49 38 65
f 26 27 19
f 26 37 38
f 38 49 26
f 26 49 27
f 93 66 84
f 93 82 66
f 76 82 93
f 93 94 76
f 84 94 93
f 67 50 39
f 69 50 67
f 53 54 42
f 70 54 53
f 42 52 53
f 52 70 53
f 11 19 27
f 27 17 11
f 25 17 27
f 27 83 60
f 60 46 27
f 27 36 25
f 27 46 36
f 80 83 27
f 27 81 80
f 13 3 7
f 13 7 12
f 12 20 13
f 13 20 29
f 29 41 13
f 13 4 3
f 13 41 30
f 8 4 13
f 11 7 26
f 26 19 11
f 26 3 1
f 100 102 26
f 7 3 26
f 26 24 34
f 26 92 100
f 34 45 26
f 1 2 26
f 26 6 10
f 10 16 26
f 95 47 26
f 26 101 95
f 26 58 57
f 102 101 26
f 2 6 26
f 26 16 15
f 26 45 58
f 57 92 26
f 15 24 26
f 47 37 26
f 67 20 12
f 12 18 67
f 67 18 25
f 25 36 67
f 67 36 59
f 67 28 20
f 39 28 67
f 59 75 67
f 67 75 69
