# generated by collision_forge
v 0.018900 -0.001186 0.001293
v 0.018874 -0.001185 0.001293
v 0.020169 -0.001186 0.001293
v 0.016316 -0.001186 0.008417
v 0.018877 0.001413 0.001293
v 0.016316 0.005402 0.008271
v 0.020150 -0.001000 0.001591
v 0.020149 -0.001186 0.001591
v 0.016316 -0.001186 0.009394
v 0.018880 0.001800 0.001293
v 0.018982 0.005402 0.001591
v 0.018910 0.005400 0.001293
v 0.016316 0.005402 0.009285
v 0.020172 -0.000302 0.001293
v 0.020153 -0.000200 0.001591
v 0.020046 -0.000600 0.001927
v 0.020045 -0.001186 0.001922
v 0.016412 -0.001186 0.009394
v 0.016316 0.000294 0.009394
v 0.019852 0.005402 0.001293
v 0.016316 0.005400 0.009286
v 0.016600 0.005402 0.009192
v 0.020154 0.000200 0.001591
v 0.020053 0.005400 0.001958
v 0.020047 -0.000200 0.001929
v 0.017963 -0.001186 0.008081
v 0.016410 0.000200 0.009394
v 0.016611 -0.000200 0.009324
v 0.016407 0.001000 0.009393
v 0.020156 0.005400 0.001293
v 0.020157 0.005402 0.001589
v 0.016600 0.005000 0.009276
v 0.016874 0.005400 0.009041
v 0.020173 0.000200 0.001293
v 0.020157 0.005400 0.001591
v 0.019989 0.005402 0.002158
v 0.019989 0.005400 0.002158
v 0.018692 0.004599 0.005990
v 0.017964 -0.001000 0.008082
v 0.016609 0.000600 0.009323
v 0.016605 0.001401 0.009323
v 0.016820 -0.001186 0.009231
v 0.017000 -0.001186 0.009151
v 0.017000 -0.000600 0.009151
v 0.016600 0.003000 0.009320
v 0.016600 0.004599 0.009306
v 0.017000 0.004599 0.009123
v 0.017208 0.004821 0.008996
v 0.016316 0.004599 0.009360
v 0.017152 0.005088 0.008949
v 0.017074 0.005402 0.008880
v 0.018556 0.004599 0.006391
v 0.017964 -0.000600 0.008084
v 0.017000 0.001401 0.009147
v 0.017000 0.002600 0.009144
v 0.017231 -0.001000 0.009018
v 0.017230 -0.000200 0.009017
v 0.016600 0.003800 0.009317
v 0.016401 0.002079 0.009390
v 0.016600 0.004200 0.009314
v 0.017000 0.004200 0.009133
v 0.017214 0.004599 0.009003
v 0.017600 0.004767 0.008589
v 0.017566 0.005000 0.008554
v 0.019768 0.005402 0.002790
v 0.018688 0.005000 0.005990
v 0.018443 0.004599 0.006712
v 0.017964 -0.000200 0.008084
v 0.017777 -0.000600 0.008390
v 0.017700 -0.001186 0.008490
v 0.017225 0.002600 0.009013
v 0.017000 0.003000 0.009142
v 0.017431 -0.001186 0.008804
v 0.017427 0.001401 0.008803
v 0.017220 0.004200 0.009007
v 0.017726 0.004620 0.008430
v 0.017725 0.005000 0.008353
v 0.017652 0.005400 0.008262
v 0.017486 0.005402 0.008462
v 0.018831 0.005305 0.005482
v 0.018544 0.005000 0.006391
v 0.018372 0.004599 0.006912
v 0.017962 0.001800 0.008078
v 0.017964 0.000600 0.008081
v 0.017774 0.001401 0.008390
v 0.017777 -0.000200 0.008390
v 0.017613 -0.001000 0.008604
v 0.017222 0.003800 0.009010
v 0.017612 0.001401 0.008603
v 0.017955 0.004599 0.008068
v 0.017929 0.005003 0.007982
v 0.018417 0.005246 0.006631
v 0.018019 0.004872 0.007843
v 0.018027 0.004599 0.007868
v 0.017773 0.001800 0.008390
v 0.017611 0.001800 0.008602
v 0.017607 0.003800 0.008597
v 0.017763 0.003800 0.008390
v 0.017799 0.005402 0.007962
v 0.017788 0.005402 0.007988
v 0.018454 0.005402 0.006398
v 0.018229 0.005402 0.006947
f 4 6 2
f 2 1 4
f 5 2 6
f 30 31 34
f 11 12 6
f 6 12 10
f 10 5 6
f 31 30 20
f 12 11 20
f 34 15 14
f 34 31 35
f 23 15 34
f 34 35 23
f 100 79 78
f 78 91 100
f 49 32 21
f 92 80 101
f 79 51 50
f 33 48 50
f 50 51 33
f 90 91 77
f 91 78 77
f 19 59 49
f 18 19 9
f 46 32 49
f 13 21 22
f 33 51 22
f 22 21 32
f 22 48 33
f 22 32 48
f 102 92 101
f 93 91 90
f 93 92 91
f 7 8 3
f 3 14 7
f 7 14 15
f 17 8 7
f 68 86 69
f 101 80 65
f 64 78 79
f 64 77 78
f 64 63 77
f 48 63 64
f 64 50 48
f 79 50 64
f 59 19 29
f 28 18 42
f 49 59 60
f 60 46 49
f 61 46 60
f 47 46 61
f 48 32 47
f 32 46 47
f 92 102 99
f 100 91 99
f 91 92 99
f 56 43 73
f 69 86 87
f 86 89 87
f 89 73 87
f 44 43 56
f 42 43 44
f 44 28 42
f 53 68 69
f 86 68 85
f 95 89 85
f 85 89 86
f 95 85 84
f 84 85 68
f 24 25 15
f 37 25 24
f 15 23 24
f 24 23 35
f 24 36 37
f 31 36 24
f 24 35 31
f 16 7 15
f 15 25 16
f 17 7 16
f 16 26 17
f 16 25 26
f 26 25 38
f 38 25 37
f 37 36 38
f 88 71 97
f 62 63 48
f 48 47 62
f 62 47 61
f 18 28 27
f 19 18 27
f 27 29 19
f 41 29 27
f 59 29 58
f 58 60 59
f 61 60 72
f 72 88 61
f 72 58 55
f 60 58 72
f 72 71 88
f 55 71 72
f 70 26 69
f 69 87 70
f 70 87 73
f 54 71 55
f 54 55 41
f 69 26 39
f 39 53 69
f 26 38 39
f 90 95 83
f 95 84 83
f 67 84 68
f 67 83 84
f 96 89 95
f 95 97 96
f 63 97 76
f 90 77 76
f 77 63 76
f 63 62 75
f 88 97 75
f 75 97 63
f 61 88 75
f 75 62 61
f 45 29 41
f 45 58 29
f 41 55 45
f 55 58 45
f 71 54 57
f 57 44 56
f 57 54 44
f 40 54 41
f 41 27 40
f 40 27 28
f 28 44 40
f 44 54 40
f 66 65 80
f 66 36 65
f 74 97 71
f 74 96 97
f 89 96 74
f 71 57 74
f 74 73 89
f 56 73 74
f 74 57 56
f 98 97 95
f 98 76 97
f 98 95 90
f 90 76 98
f 67 66 82
f 83 67 82
f 80 92 81
f 81 66 80
f 92 93 81
f 81 93 90
f 81 82 66
f 52 38 36
f 36 66 52
f 52 66 67
f 53 39 52
f 52 39 38
f 68 53 52
f 52 67 68
f 94 81 90
f 82 81 94
f 90 83 94
f 83 82 94
f 12 20 14
f 14 30 34
f 14 3 1
f 1 2 14
f 2 5 14
f 14 10 12
f 5 10 14
f 14 20 30
f 4 9 19
f 19 6 4
f 49 21 19
f 19 13 6
f 19 21 13
f 6 13 99
f 99 11 6
f 99 36 31
f 31 20 99
f 99 20 11
f 99 79 100
f 13 22 99
f 99 51 79
f 99 22 51
f 99 102 101
f 101 65 99
f 65 36 99
f 1 3 70
f 70 9 4
f 4 1 70
f 17 26 70
f 3 8 70
f 70 8 17
f 70 18 9
f 42 18 70
f 70 43 42
f 70 73 43
