# generated by collision_forge
v 0.019842 0.005402 0.002581
v 0.018733 0.005402 0.002581
v 0.019810 0.005610 0.002581
v 0.019631 0.005697 0.003076
v 0.019768 0.005402 0.002789
v 0.016316 0.007046 0.002581
v 0.016316 0.005402 0.008271
v 0.019777 0.005808 0.002581
v 0.019162 0.005402 0.004487
v 0.019696 0.006059 0.002581
v 0.019663 0.006160 0.002581
v 0.019587 0.005963 0.002959
v 0.018613 0.005402 0.005989
v 0.018765 0.005402 0.005583
v 0.016316 0.008189 0.002581
v 0.016316 0.005402 0.009285
v 0.019592 0.006374 0.002581
v 0.018463 0.005402 0.006377
v 0.016410 0.008188 0.002581
v 0.016600 0.005402 0.009192
v 0.016316 0.005791 0.009148
v 0.019482 0.006614 0.002581
v 0.018797 0.006393 0.004584
v 0.018373 0.005928 0.006121
v 0.018422 0.005661 0.006246
v 0.018313 0.005402 0.006747
v 0.016875 0.005402 0.009039
v 0.016814 0.005618 0.009000
v 0.016573 0.005771 0.009055
v 0.016422 0.006019 0.009003
v 0.016316 0.005915 0.009092
v 0.019295 0.006906 0.002581
v 0.019204 0.006805 0.003001
v 0.018411 0.006414 0.005417
v 0.017611 0.006014 0.007813
v 0.017995 0.005988 0.006979
v 0.016600 0.008147 0.002791
v 0.017227 0.005647 0.008618
v 0.017139 0.005914 0.008537
v 0.016872 0.006069 0.008648
v 0.016316 0.006050 0.009021
v 0.016457 0.006438 0.008632
v 0.016316 0.006354 0.008779
v 0.019113 0.007106 0.002581
v 0.018815 0.006816 0.003822
v 0.018021 0.006423 0.006234
v 0.017628 0.006430 0.007047
v 0.017378 0.006181 0.007952
v 0.017271 0.006080 0.008271
v 0.017538 0.005883 0.008079
v 0.017608 0.005616 0.008201
v 0.017788 0.005402 0.007988
v 0.016316 0.007992 0.003631
v 0.017000 0.008153 0.002581
v 0.016814 0.008003 0.003404
v 0.017287 0.005402 0.008679
v 0.017486 0.005402 0.008462
v 0.016723 0.006336 0.008527
v 0.016316 0.006471 0.008669
v 0.016872 0.006461 0.008260
v 0.016411 0.006805 0.008198
v 0.018866 0.007265 0.002791
v 0.018812 0.007212 0.003018
v 0.018026 0.006825 0.005445
v 0.017219 0.006417 0.007826
v 0.017555 0.006761 0.006505
v 0.017139 0.006347 0.008092
v 0.017652 0.005402 0.008261
v 0.016316 0.007863 0.004275
v 0.017210 0.008113 0.002581
v 0.016600 0.007806 0.004391
v 0.016316 0.006757 0.008311
v 0.016794 0.006796 0.007782
v 0.018667 0.007519 0.002581
v 0.018413 0.007211 0.003816
v 0.017624 0.006820 0.006239
v 0.017140 0.006751 0.007285
v 0.017216 0.006812 0.007018
v 0.016316 0.007774 0.004675
v 0.017388 0.008075 0.002581
v 0.017000 0.007816 0.003991
v 0.017377 0.007933 0.003167
v 0.017566 0.008033 0.002581
v 0.016316 0.007585 0.005494
v 0.016873 0.006852 0.007515
v 0.016636 0.006927 0.007625
v 0.016316 0.007043 0.007600
v 0.018477 0.007647 0.002581
v 0.017668 0.007246 0.005113
v 0.018007 0.007205 0.004605
v 0.017593 0.007195 0.005379
v 0.016395 0.007199 0.006985
v 0.016804 0.007201 0.006596
v 0.017858 0.007958 0.002581
v 0.016316 0.007236 0.006906
v 0.017248 0.007228 0.005878
v 0.017162 0.007183 0.006144
v 0.016316 0.007084 0.007475
v 0.018389 0.007699 0.002581
v 0.018030 0.007618 0.003446
v 0.017605 0.007602 0.004200
v 0.018197 0.007807 0.002581
f 6 2 7
f 57 68 51
f 51 68 52
f 51 52 36
f 87 72 61
f 90 74 89
f 26 36 52
f 61 73 86
f 86 87 61
f 101 102 94
f 100 102 101
f 77 73 65
f 77 78 73
f 88 89 74
f 100 89 88
f 91 78 90
f 90 89 91
f 61 72 59
f 59 42 61
f 56 57 38
f 38 57 51
f 40 42 30
f 40 58 42
f 49 38 51
f 39 38 49
f 49 40 39
f 58 40 49
f 3 4 1
f 3 8 4
f 22 23 17
f 1 4 5
f 4 9 5
f 14 4 13
f 14 9 4
f 24 17 23
f 24 23 36
f 93 101 94
f 55 81 80
f 55 54 37
f 37 69 55
f 75 74 90
f 99 102 100
f 100 88 99
f 30 41 31
f 31 21 30
f 20 21 16
f 43 41 30
f 30 42 43
f 42 59 43
f 50 49 51
f 67 48 65
f 67 49 48
f 65 73 67
f 13 17 18
f 87 86 98
f 86 93 98
f 82 93 94
f 81 93 82
f 82 80 81
f 85 86 73
f 85 93 86
f 73 78 85
f 78 91 85
f 70 54 55
f 55 80 70
f 71 84 95
f 95 81 71
f 71 81 55
f 69 37 53
f 62 44 74
f 63 44 62
f 74 75 62
f 62 75 63
f 90 78 76
f 76 75 90
f 22 32 33
f 33 23 22
f 32 44 33
f 33 44 63
f 63 45 33
f 28 20 27
f 28 40 30
f 39 40 28
f 28 38 39
f 28 27 56
f 56 38 28
f 58 49 60
f 49 67 60
f 61 42 60
f 42 58 60
f 60 73 61
f 60 67 73
f 4 8 10
f 10 11 4
f 12 11 17
f 4 11 12
f 13 4 12
f 12 17 13
f 26 18 25
f 36 26 25
f 25 24 36
f 17 24 25
f 25 18 17
f 95 98 92
f 92 98 93
f 92 81 95
f 92 93 81
f 83 82 94
f 80 82 83
f 101 93 97
f 93 85 97
f 84 71 79
f 55 69 79
f 79 71 55
f 15 53 19
f 19 53 37
f 19 37 54
f 66 76 78
f 66 77 65
f 78 77 66
f 29 28 30
f 20 28 29
f 30 21 29
f 21 20 29
f 100 101 96
f 101 97 96
f 96 89 100
f 96 91 89
f 96 85 91
f 96 97 85
f 47 46 45
f 47 66 65
f 65 48 47
f 75 76 64
f 76 66 64
f 63 75 64
f 66 47 64
f 64 45 63
f 64 47 45
f 36 23 35
f 46 47 35
f 35 47 48
f 48 49 35
f 49 50 35
f 51 36 35
f 35 50 51
f 34 33 45
f 45 46 34
f 23 33 34
f 34 35 23
f 46 35 34
f 18 2 1
f 16 7 18
f 18 7 2
f 18 52 68
f 18 14 13
f 68 57 18
f 18 57 56
f 18 20 16
f 56 27 18
f 1 5 18
f 18 26 52
f 18 5 9
f 9 14 18
f 27 20 18
f 79 15 6
f 6 7 79
f 79 7 16
f 72 87 79
f 79 98 95
f 41 43 79
f 16 21 79
f 79 59 72
f 95 84 79
f 79 31 41
f 79 53 15
f 21 31 79
f 79 43 59
f 87 98 79
f 69 53 79
f 19 2 6
f 6 15 19
f 1 2 19
f 19 83 94
f 19 88 74
f 19 10 8
f 19 32 22
f 94 102 19
f 19 3 1
f 22 17 19
f 74 44 19
f 8 3 19
f 102 99 19
f 54 70 19
f 19 44 32
f 19 99 88
f 17 11 19
f 19 70 80
f 11 10 19
f 80 83 19
