# generated by collision_forge
v -0.440000 -0.221000 2.141000
v -0.440000 -0.073700 2.140000
v -0.440000 0.073700 2.140000
v -0.440000 0.221000 2.141000
v -0.146700 -0.073700 2.139000
v -0.146700 0.073700 2.139000
v -0.146700 0.221000 2.140000
v 0.146700 -0.221000 2.140000
v 0.146700 -0.073700 2.139000
v 0.146700 0.073700 2.139000
v 0.440000 -0.221000 2.141000
v 0.440000 -0.073700 2.140000
v 0.440000 0.073700 2.140000
v 0.440000 0.221000 2.141000
v -0.440000 -0.221000 2.187000
v -0.440000 0.073700 2.188000
v -0.440000 0.221000 2.187000
v -0.146700 -0.073700 2.189000
v -0.146700 0.073700 2.189000
v -0.146700 0.221000 2.188000
v 0.146700 -0.221000 2.188000
v 0.146700 -0.073700 2.189000
v 0.146700 0.073700 2.189000
v 0.440000 -0.221000 2.187000
v 0.440000 -0.073700 2.188000
v 0.440000 0.221000 2.187000
f 1 5 8
f 15 21 18
f 18 16 15
f 18 21 22
f 9 8 5
f 11 8 9
f 2 5 1
f 21 24 25
f 25 22 21
f 25 23 22
f 26 23 25
f 20 17 16
f 20 23 26
f 6 3 4
f 11 9 12
f 19 20 16
f 23 20 19
f 19 16 18
f 14 10 7
f 10 6 7
f 7 6 4
f 13 10 14
f 24 15 1
f 1 8 24
f 24 8 11
f 21 15 24
f 1 15 2
f 2 17 4
f 4 3 2
f 2 15 16
f 16 17 2
f 6 2 3
f 5 2 6
f 6 10 9
f 6 9 5
f 22 23 19
f 18 22 19
f 26 14 7
f 4 17 7
f 7 20 26
f 17 20 7
f 13 24 11
f 26 25 13
f 13 14 26
f 13 25 24
f 11 12 13
f 9 10 13
f 13 12 9
