# generated by collision_forge
v -0.440000 -0.221000 0.591000
v -0.440000 -0.073700 0.590000
v -0.440000 0.221000 0.591000
v -0.146700 -0.221000 0.590000
v -0.146700 -0.073700 0.589000
v -0.146700 0.073700 0.589000
v -0.146700 0.221000 0.590000
v 0.146700 -0.221000 0.590000
v 0.146700 -0.073700 0.589000
v 0.146700 0.073700 0.589000
v 0.440000 -0.221000 0.591000
v 0.440000 0.073700 0.590000
v 0.440000 0.221000 0.591000
v -0.440000 -0.221000 0.633700
v -0.440000 0.073700 0.634700
v -0.440000 0.221000 0.633700
v -0.146700 -0.073700 0.635700
v -0.146700 0.073700 0.635700
v 0.146700 -0.221000 0.634700
v 0.146700 -0.073700 0.635700
v 0.146700 0.073700 0.635700
v 0.146700 0.221000 0.634700
v 0.440000 -0.221000 0.633700
v 0.440000 -0.073700 0.634700
v 0.440000 0.073700 0.634700
v 0.440000 0.221000 0.633700
f 14 19 17
f 17 15 14
f 17 19 20
f 8 9 11
f 6 2 3
f 5 2 6
f 18 16 15
f 18 15 17
f 7 6 3
f 10 7 13
f 6 7 10
f 22 18 21
f 16 18 22
f 11 9 12
f 9 10 12
f 12 10 13
f 2 4 1
f 5 4 2
f 1 14 16
f 16 2 1
f 3 2 16
f 16 14 15
f 8 14 1
f 1 4 8
f 11 23 8
f 19 14 8
f 8 23 19
f 8 4 5
f 5 9 8
f 20 21 18
f 17 20 18
f 19 23 24
f 24 20 19
f 10 9 5
f 5 6 10
f 26 13 22
f 3 16 22
f 22 7 3
f 13 7 22
f 25 21 20
f 20 24 25
f 26 22 25
f 25 22 21
f 12 23 11
f 26 25 12
f 12 13 26
f 12 24 23
f 12 25 24
