# generated by collision_forge
v -0.440000 -0.221000 1.348000
v -0.440000 -0.073700 1.347000
v -0.440000 0.073700 1.347000
v -0.440000 0.221000 1.348000
v -0.146700 -0.221000 1.347000
v -0.146700 -0.073700 1.346000
v -0.146700 0.073700 1.346000
v 0.146700 -0.221000 1.347000
v 0.146700 -0.073700 1.346000
v 0.146700 0.073700 1.346000
v 0.146700 0.221000 1.347000
v 0.440000 -0.221000 1.348000
v 0.440000 0.073700 1.347000
v 0.440000 0.221000 1.348000
v -0.440000 -0.221000 1.385700
v -0.440000 0.073700 1.386700
v -0.440000 0.221000 1.385700
v -0.146700 -0.073700 1.387700
v -0.146700 0.073700 1.387700
v -0.146700 0.221000 1.386700
v 0.146700 -0.221000 1.386700
v 0.146700 -0.073700 1.387700
v 0.146700 0.073700 1.387700
v 0.440000 -0.221000 1.385700
v 0.440000 -0.073700 1.386700
v 0.440000 0.221000 1.385700
f 15 21 18
f 18 16 15
f 18 21 22
f 21 24 25
f 25 22 21
f 25 23 22
f 26 23 25
f 12 9 13
f 8 9 12
f 20 17 16
f 20 23 26
f 19 20 16
f 23 20 19
f 19 16 18
f 7 3 4
f 4 11 7
f 10 13 9
f 10 7 11
f 1 15 2
f 2 17 4
f 4 3 2
f 2 15 16
f 16 17 2
f 2 5 1
f 6 5 2
f 13 24 12
f 26 25 13
f 13 14 26
f 13 25 24
f 8 15 1
f 1 5 8
f 12 24 8
f 21 15 8
f 8 24 21
f 8 5 6
f 6 9 8
f 26 14 11
f 4 17 11
f 11 20 26
f 17 20 11
f 22 23 19
f 18 22 19
f 7 2 3
f 6 2 7
f 10 9 6
f 6 7 10
f 14 13 10
f 10 11 14
