# generated by collision_forge
v -0.440000 -0.221000 1.758000
v -0.440000 -0.073700 1.757000
v -0.440000 0.073700 1.757000
v -0.440000 0.221000 1.758000
v -0.146700 -0.221000 1.757000
v -0.146700 -0.073700 1.756000
v -0.146700 0.073700 1.756000
v 0.146700 -0.221000 1.757000
v 0.146700 -0.073700 1.756000
v 0.146700 0.073700 1.756000
v 0.146700 0.221000 1.757000
v 0.440000 -0.221000 1.758000
v 0.440000 0.073700 1.757000
v 0.440000 0.221000 1.758000
v -0.440000 -0.221000 1.799600
v -0.440000 0.073700 1.800600
v -0.440000 0.221000 1.799600
v -0.146700 -0.073700 1.801600
v -0.146700 0.073700 1.801600
v 0.146700 -0.221000 1.800600
v 0.146700 -0.073700 1.801600
v 0.146700 0.073700 1.801600
v 0.146700 0.221000 1.800600
v 0.440000 -0.221000 1.799600
v 0.440000 0.073700 1.800600
v 0.440000 0.221000 1.799600
f 15 20 18
f 18 16 15
f 18 20 21
f 20 24 21
f 2 5 1
f 6 5 2
f 12 9 13
f 8 9 12
f 19 17 16
f 19 16 18
f 25 21 24
f 25 22 21
f 14 13 11
f 23 19 22
f 17 19 23
f 7 3 4
f 4 11 7
f 10 13 9
f 10 11 13
f 10 7 11
f 1 15 2
f 2 17 4
f 4 3 2
f 2 15 16
f 16 17 2
f 8 15 1
f 1 5 8
f 12 24 8
f 20 15 8
f 8 24 20
f 6 9 8
f 8 5 6
f 21 22 19
f 18 21 19
f 25 24 12
f 12 13 25
f 25 14 26
f 25 13 14
f 26 14 23
f 4 17 23
f 23 11 4
f 14 11 23
f 23 25 26
f 22 25 23
f 7 2 3
f 6 2 7
f 10 9 6
f 6 7 10
