# generated by collision_forge
v -0.440000 -0.221000 0.970500
v -0.440000 -0.073700 0.969500
v -0.440000 0.221000 0.970500
v -0.146700 -0.221000 0.969500
v -0.146700 -0.073700 0.968500
v -0.146700 0.073700 0.968500
v 0.146700 -0.221000 0.969500
v 0.146700 -0.073700 0.968500
v 0.146700 0.073700 0.968500
v 0.146700 0.221000 0.969500
v 0.440000 -0.221000 0.970500
v 0.440000 0.073700 0.969500
v 0.440000 0.221000 0.970500
v -0.440000 -0.221000 1.009600
v -0.440000 0.073700 1.010600
v -0.440000 0.221000 1.009600
v -0.146700 -0.073700 1.011600
v -0.146700 0.073700 1.011600
v -0.146700 0.221000 1.010600
v 0.146700 -0.221000 1.010600
v 0.146700 -0.073700 1.011600
v 0.146700 0.073700 1.011600
v 0.440000 -0.221000 1.009600
v 0.440000 -0.073700 1.010600
v 0.440000 0.073700 1.010600
v 0.440000 0.221000 1.009600
f 14 20 17
f 17 15 14
f 17 20 21
f 20 23 21
f 7 8 11
f 6 2 3
f 5 2 6
f 18 16 15
f 18 15 17
f 24 21 23
f 19 22 26
f 19 18 22
f 16 18 19
f 26 22 25
f 11 8 12
f 8 9 12
f 10 6 3
f 10 9 6
f 2 4 1
f 5 4 2
f 1 14 16
f 16 2 1
f 3 2 16
f 16 14 15
f 7 14 1
f 1 4 7
f 11 23 7
f 20 14 7
f 7 23 20
f 7 4 5
f 5 8 7
f 21 22 18
f 17 21 18
f 9 8 5
f 5 6 9
f 25 22 21
f 21 24 25
f 12 23 11
f 26 25 12
f 12 13 26
f 12 24 23
f 12 25 24
f 26 13 10
f 3 16 10
f 10 19 26
f 16 19 10
f 13 12 10
f 10 12 9
