<svg xmlns="http://www.w3.org/2000/svg" width="18" height="12" viewBox="0 0 18 12">
  <g fill="#AEB3BB" transform="matrix(-1 0 0 1 18 0)">
    <path d="M14.8675557,6 L10.2766462,10.4395626 C9.89530693,10.8083303 9.91002771,11.3926323 10.3095259,11.7446377 C10.7090242,12.0966432 11.342018,12.0830547 11.7233572,11.7142871 L16.9733572,6.63736394 C17.3422165,6.28066485 17.3422165,5.71933854 16.9733572,5.36263945 L11.7233572,0.285716266 C11.342018,-0.0830513442 10.7090242,-0.0966397631 10.3095259,0.255365683 C9.91002771,0.607371129 9.89530693,1.19167314 10.2766462,1.56044075 L14.8675557,6 Z"/>
    <path d="M15.0985915,5 L0.901408451,5 C0.40357431,5 0,5.44771525 0,6 C0,6.55228475 0.40357431,7 0.901408451,7 L15.0985915,7 C15.5964257,7 16,6.55228475 16,6 C16,5.44771525 15.5964257,5 15.0985915,5 Z"/>
  </g>
</svg>
