<svg xmlns="http://www.w3.org/2000/svg" width="14" height="14" viewBox="0 0 14 14">
  <path fill="#4C60E6" d="M7,9.25592372 L2.75671491,13.4992088 C2.10780228,14.1481214 1.07674892,14.1691633 0.453792787,13.5462072 C-0.169163346,12.9232511 -0.148121441,11.8921977 0.500791197,11.2432851 L4.74407628,7 L0.500791197,2.75671491 C-0.148121441,2.10780228 -0.169163346,1.07674892 0.453792787,0.453792787 C1.07674892,-0.169163346 2.10780228,-0.148121441 2.75671491,0.500791197 L7,4.74407628 L11.2432851,0.500791197 C11.8921977,-0.148121441 12.9232511,-0.169163346 13.5462072,0.453792787 C14.1691633,1.07674892 14.1481214,2.10780228 13.4992088,2.75671491 L9.25592372,7 L13.4992088,11.2432851 C14.1481214,11.8921977 14.1691633,12.9232511 13.5462072,13.5462072 C12.9232511,14.1691633 11.8921977,14.1481214 11.2432851,13.4992088 L7,9.25592372 Z"/>
</svg>
