# generated by collision_forge
v -0.261090 0.129944 0.561776
v -0.259810 0.110709 0.549161
v -0.259370 0.158768 0.550689
v -0.255749 0.158768 0.543919
v -0.259197 0.110709 0.566152
v -0.251493 0.158768 0.537936
v -0.251980 0.081827 0.537136
v -0.250826 0.139571 0.578072
v -0.230329 0.158768 0.520007
v -0.254092 0.004828 0.543919
v -0.247040 0.158768 0.579141
v -0.258058 0.158768 0.566086
v -0.250119 0.097666 0.577475
v -0.186226 0.158768 0.520007
v -0.242949 -0.024054 0.527118
v -0.245682 -0.038331 0.531723
v -0.235857 0.139571 0.585026
v -0.235857 0.158768 0.584199
v -0.259982 0.066662 0.558509
v -0.252483 0.052964 0.570547
v -0.180870 0.158768 0.522204
v -0.180870 0.058617 0.520007
v -0.234680 -0.029669 0.520007
v -0.226230 0.149199 0.586548
v -0.226230 0.072199 0.583845
v -0.235857 0.062572 0.581687
v -0.180870 0.158768 0.583254
v -0.180870 -0.038331 0.520007
v -0.234530 -0.038331 0.520007
v -0.250951 -0.038331 0.544175
v -0.250881 -0.038331 0.552014
v -0.216609 0.110709 0.586115
v -0.245619 -0.038331 0.563147
v -0.251360 0.033709 0.569261
v -0.241630 0.043337 0.578151
v -0.226230 -0.038331 0.575638
v -0.217913 -0.038331 0.577173
v -0.180870 -0.038331 0.574385
v -0.206982 0.158768 0.586344
v -0.241347 -0.038331 0.568592
v -0.180870 0.107930 0.581988
v -0.205466 -0.038331 0.577344
f 22 14 21
f 3 2 1
f 15 6 9
f 9 23 15
f 15 29 16
f 15 23 29
f 35 26 13
f 35 34 40
f 17 8 13
f 13 26 17
f 40 34 33
f 33 34 31
f 13 8 5
f 2 3 4
f 12 3 1
f 1 5 12
f 12 5 8
f 30 10 16
f 1 2 19
f 2 10 19
f 19 5 1
f 19 30 31
f 10 30 19
f 31 34 19
f 41 27 39
f 6 15 7
f 7 4 6
f 2 4 7
f 7 15 16
f 16 10 7
f 7 10 2
f 36 35 40
f 26 35 36
f 36 37 26
f 26 37 25
f 24 17 25
f 25 17 26
f 13 5 20
f 20 35 13
f 34 35 20
f 20 19 34
f 5 19 20
f 11 12 8
f 8 17 11
f 32 39 24
f 24 25 32
f 32 41 39
f 18 17 24
f 18 11 17
f 24 39 18
f 38 41 42
f 41 32 42
f 42 25 37
f 42 32 25
f 9 14 23
f 28 29 23
f 23 22 28
f 14 22 23
f 41 38 28
f 28 22 41
f 41 22 21
f 21 27 41
f 9 6 18
f 21 14 18
f 18 14 9
f 18 27 21
f 6 4 18
f 39 27 18
f 18 4 3
f 3 12 18
f 12 11 18
f 40 33 42
f 16 29 42
f 42 29 28
f 42 30 16
f 28 38 42
f 42 36 40
f 42 33 31
f 31 30 42
f 37 36 42
