# generated by collision_forge
v 0.004812 -0.143357 0.502535
v 0.004874 -0.149220 0.503958
v 0.004874 -0.143357 0.596321
v -0.043328 -0.149220 0.504858
v 0.004874 -0.209520 0.596321
v -0.120363 -0.143357 0.596321
v 0.004874 -0.170206 0.511716
v -0.033705 -0.169830 0.511899
v -0.057880 -0.163681 0.510219
v -0.120363 -0.143357 0.509044
v -0.120363 -0.175467 0.596321
v -0.010180 -0.209468 0.596321
v -0.120363 -0.199005 0.596303
v 0.004874 -0.182963 0.519849
v -0.033705 -0.182691 0.520042
v -0.043328 -0.182302 0.520363
v -0.110703 -0.143357 0.508172
v -0.110703 -0.200683 0.596321
v -0.004823 -0.192344 0.529755
v -0.072198 -0.185567 0.526707
v -0.072198 -0.175661 0.518068
v -0.033705 -0.207745 0.582422
v -0.014446 -0.205821 0.563171
v 0.004874 -0.207278 0.572792
v -0.110703 -0.158848 0.513414
v -0.033705 -0.191988 0.530287
v -0.120363 -0.165683 0.518536
v -0.120363 -0.197515 0.572764
v -0.097513 -0.202354 0.584442
v -0.062563 -0.194133 0.536603
v -0.048685 -0.207939 0.596321
v -0.062563 -0.203747 0.563171
v -0.019301 -0.202160 0.548730
v -0.103875 -0.172823 0.520180
v 0.004874 -0.200126 0.543791
v -0.087742 -0.192720 0.538843
v -0.062563 -0.201110 0.552072
v -0.105836 -0.182898 0.529498
v -0.120363 -0.193537 0.553917
v -0.091445 -0.198409 0.553541
v -0.086749 -0.202179 0.567871
v -0.120363 -0.189578 0.544746
f 1 3 2
f 4 1 2
f 28 29 13
f 13 29 18
f 18 11 13
f 31 18 29
f 1 4 17
f 2 7 8
f 8 4 2
f 42 27 38
f 38 27 34
f 39 40 28
f 29 28 41
f 28 40 41
f 41 31 29
f 31 22 12
f 19 14 35
f 35 26 19
f 9 17 4
f 4 8 9
f 10 17 9
f 42 38 36
f 36 39 42
f 40 39 36
f 36 30 37
f 37 40 36
f 15 7 14
f 15 8 7
f 15 14 19
f 19 26 15
f 20 26 30
f 30 36 20
f 20 36 38
f 20 38 34
f 32 40 37
f 32 41 40
f 32 22 31
f 31 41 32
f 5 12 24
f 24 12 22
f 25 27 10
f 10 9 25
f 34 27 25
f 16 15 26
f 26 20 16
f 8 15 16
f 22 32 23
f 23 24 22
f 23 32 37
f 35 24 23
f 21 20 34
f 21 16 20
f 34 25 21
f 21 25 9
f 21 9 8
f 8 16 21
f 33 23 37
f 35 23 33
f 37 30 33
f 30 26 33
f 26 35 33
f 17 10 6
f 6 3 17
f 3 1 17
f 39 11 6
f 6 10 39
f 39 27 42
f 13 11 39
f 39 28 13
f 10 27 39
f 12 3 6
f 6 11 12
f 5 3 12
f 11 18 12
f 18 31 12
f 24 3 5
f 2 3 24
f 24 7 2
f 14 7 24
f 24 35 14
