# generated by collision_forge
v -0.043505 -0.244083 0.816391
v -0.053181 -0.244083 0.820096
v -0.043505 -0.227466 0.739622
v -0.043505 -0.244083 0.967228
v -0.049784 -0.226768 0.739622
v -0.043505 -0.151360 0.739622
v -0.072525 -0.244083 0.829089
v -0.043505 -0.235851 0.967585
v -0.079397 -0.146306 0.739622
v -0.043505 -0.226222 0.965554
v -0.079397 -0.226222 0.966581
v -0.079397 -0.235851 0.967295
v -0.062572 -0.225064 0.739622
v -0.079397 -0.244083 0.832771
v -0.079397 -0.222508 0.739622
v -0.079397 -0.147015 0.743662
v -0.043505 -0.220670 0.963211
v -0.079397 -0.218871 0.964171
v -0.079397 -0.244083 0.966023
v -0.072198 -0.244083 0.966425
v -0.079397 -0.147455 0.746094
v -0.043505 -0.153753 0.752298
v -0.079397 -0.149427 0.755713
v -0.043505 -0.156386 0.765331
v -0.043505 -0.211223 0.953816
v -0.079397 -0.209366 0.955981
v -0.079397 -0.151456 0.765532
v -0.079397 -0.153045 0.772718
v -0.043505 -0.158520 0.774972
v -0.043505 -0.208036 0.948237
v -0.079397 -0.158042 0.794231
v -0.043505 -0.164024 0.797712
v -0.043505 -0.203786 0.939288
v -0.079397 -0.201900 0.943907
v -0.079397 -0.162483 0.811370
v -0.043505 -0.178401 0.852187
v -0.079397 -0.196128 0.928978
v -0.079397 -0.193448 0.920765
v -0.043505 -0.196913 0.919359
v -0.079397 -0.168322 0.832749
v -0.043505 -0.193850 0.908692
v -0.079397 -0.184594 0.890147
f 2 3 1
f 3 2 7
f 14 15 13
f 14 13 5
f 5 7 14
f 3 7 5
f 29 24 28
f 35 36 32
f 24 22 21
f 21 22 6
f 35 32 31
f 31 32 29
f 29 28 31
f 26 17 25
f 39 41 42
f 42 38 39
f 33 39 37
f 39 38 37
f 27 28 24
f 16 6 9
f 16 21 6
f 18 17 26
f 10 11 8
f 10 18 11
f 17 18 10
f 19 20 12
f 8 11 12
f 12 4 8
f 12 20 4
f 40 42 41
f 40 41 36
f 40 36 35
f 24 21 23
f 23 27 24
f 25 30 34
f 26 25 34
f 34 30 33
f 33 37 34
f 5 6 3
f 9 6 5
f 5 15 9
f 5 13 15
f 1 4 20
f 20 2 1
f 14 7 20
f 20 7 2
f 20 19 14
f 10 32 36
f 1 3 10
f 3 6 10
f 10 4 1
f 8 4 10
f 10 39 33
f 36 41 10
f 33 30 10
f 10 24 29
f 29 32 10
f 6 22 10
f 10 41 39
f 10 22 24
f 10 25 17
f 10 30 25
f 9 15 34
f 34 15 14
f 34 18 26
f 14 19 34
f 35 31 34
f 28 27 34
f 19 12 34
f 34 23 21
f 34 31 28
f 34 16 9
f 38 42 34
f 34 37 38
f 34 40 35
f 21 16 34
f 11 18 34
f 34 12 11
f 42 40 34
f 27 23 34
