# generated by collision_forge
v -0.189896 -0.107977 0.516769
v -0.189896 -0.140600 0.516769
v -0.229713 -0.107977 0.516769
v -0.214508 -0.154806 0.484313
v -0.209774 -0.151545 0.484313
v -0.194429 -0.141206 0.516769
v -0.219077 -0.154578 0.492438
v -0.189896 -0.108539 0.484844
v -0.216707 -0.116689 0.484313
v -0.190459 -0.107977 0.484955
v -0.229393 -0.107977 0.507441
v -0.241619 -0.132875 0.484313
v -0.241041 -0.133766 0.492368
v -0.235480 -0.129966 0.505411
v -0.229713 -0.108063 0.516769
v -0.216232 -0.155493 0.484313
v -0.208617 -0.149909 0.484313
v -0.216604 -0.148497 0.505411
v -0.226775 -0.156690 0.484313
v -0.233905 -0.122607 0.484313
v -0.216754 -0.107977 0.488380
v -0.238717 -0.128068 0.484313
v -0.241980 -0.134210 0.484313
v -0.239022 -0.139589 0.497048
v -0.228443 -0.119021 0.516769
v -0.203810 -0.140242 0.484313
v -0.189896 -0.118845 0.488164
v -0.189896 -0.131830 0.499180
v -0.189896 -0.135540 0.505411
v -0.222170 -0.144749 0.510552
v -0.230668 -0.153938 0.490770
v -0.189896 -0.110709 0.484781
v -0.225913 -0.107977 0.495787
v -0.222929 -0.107977 0.492810
v -0.241624 -0.146466 0.484313
v -0.240798 -0.144601 0.491262
v -0.231463 -0.135540 0.510586
v -0.220905 -0.134892 0.516769
v -0.232578 -0.145870 0.502380
v -0.216010 -0.138664 0.516769
v -0.237050 -0.151688 0.484313
v -0.225892 -0.129866 0.516769
f 1 8 10
f 4 2 16
f 33 20 22
f 13 12 23
f 13 3 12
f 23 35 13
f 13 35 36
f 28 17 27
f 29 17 28
f 36 35 41
f 42 25 37
f 19 16 7
f 7 16 2
f 34 20 33
f 34 21 20
f 9 21 10
f 20 21 9
f 9 10 8
f 33 22 11
f 11 22 12
f 12 3 11
f 32 9 8
f 5 29 2
f 17 29 5
f 5 2 4
f 31 41 19
f 19 7 31
f 36 41 31
f 30 37 39
f 36 31 39
f 39 31 30
f 15 37 25
f 30 40 38
f 42 37 38
f 38 37 30
f 6 40 30
f 6 7 2
f 26 32 27
f 26 27 17
f 9 32 26
f 14 15 3
f 3 13 14
f 37 15 14
f 18 6 30
f 7 6 18
f 30 31 18
f 18 31 7
f 24 13 36
f 24 14 13
f 37 14 24
f 36 39 24
f 24 39 37
f 11 3 1
f 1 10 11
f 11 34 33
f 10 21 11
f 21 34 11
f 1 2 32
f 32 8 1
f 32 29 28
f 28 27 32
f 2 29 32
f 6 2 1
f 6 25 42
f 1 3 6
f 3 15 6
f 42 38 6
f 6 15 25
f 6 38 40
f 26 35 23
f 20 9 26
f 23 12 26
f 4 16 26
f 19 41 26
f 26 22 20
f 26 16 19
f 12 22 26
f 26 41 35
f 26 5 4
f 17 5 26
