# generated by collision_forge
v 0.081853 -0.038331 0.501941
v 0.091456 -0.038331 0.503003
v 0.081853 -0.038331 0.562748
v 0.101084 -0.033681 0.504310
v 0.081853 -0.014456 0.503133
v 0.086824 -0.038331 0.563497
v 0.081853 -0.038318 0.562901
v 0.101084 -0.014429 0.505288
v 0.110712 -0.033681 0.505471
v 0.105724 -0.038331 0.504638
v 0.158835 -0.038331 0.573780
v 0.168353 -0.038331 0.575133
v 0.081853 0.097389 0.568104
v 0.101084 -0.004810 0.505899
v 0.110712 -0.014429 0.506548
v 0.110712 -0.024062 0.505975
v 0.081853 0.004796 0.504226
v 0.081853 0.043287 0.506625
v 0.120340 -0.033681 0.506754
v 0.168353 -0.038331 0.513982
v 0.168353 0.097402 0.579992
v 0.081862 0.097402 0.568104
v 0.081853 0.097402 0.532899
v 0.081853 0.052920 0.507274
v 0.110712 -0.004810 0.507228
v 0.120340 -0.014429 0.508007
v 0.120340 -0.024062 0.507335
v 0.124981 -0.038331 0.507213
v 0.168353 -0.038278 0.513982
v 0.168353 0.097402 0.524044
v 0.081853 0.097402 0.511132
v 0.081853 0.062539 0.508038
v 0.092057 0.062831 0.509513
v 0.091456 0.052946 0.508649
v 0.168353 0.072185 0.521859
v 0.168353 -0.024062 0.514952
v 0.168353 -0.033681 0.514295
v 0.168353 0.081937 0.522699
v 0.101084 0.097402 0.513745
v 0.091456 0.097402 0.512339
v 0.095665 0.066219 0.510315
v 0.095140 0.097402 0.512874
f 12 21 13
f 12 13 7
f 22 13 21
f 7 3 6
f 13 22 23
f 12 7 11
f 7 6 11
f 5 2 1
f 38 39 30
f 38 35 39
f 39 35 41
f 29 20 28
f 28 19 29
f 8 5 17
f 31 40 32
f 39 41 42
f 42 41 40
f 34 41 35
f 19 28 10
f 18 8 17
f 2 5 4
f 5 8 4
f 4 10 2
f 35 36 26
f 24 32 33
f 33 34 24
f 41 34 33
f 40 41 33
f 33 32 40
f 19 10 9
f 9 4 8
f 10 4 9
f 19 15 27
f 27 15 26
f 29 19 27
f 27 37 29
f 36 37 27
f 27 26 36
f 19 9 16
f 16 15 19
f 16 9 8
f 8 15 16
f 8 18 14
f 14 15 8
f 14 18 24
f 24 15 14
f 26 15 25
f 25 34 35
f 35 26 25
f 24 34 25
f 25 15 24
f 21 30 42
f 42 22 21
f 31 23 42
f 42 23 22
f 30 39 42
f 42 40 31
f 1 2 10
f 10 20 12
f 12 11 10
f 10 3 1
f 10 6 3
f 10 11 6
f 10 28 20
f 18 7 13
f 1 3 18
f 13 23 18
f 18 3 7
f 18 5 1
f 31 32 18
f 18 23 31
f 17 5 18
f 18 32 24
f 12 20 37
f 37 21 12
f 37 20 29
f 37 30 21
f 37 38 30
f 35 38 37
f 37 36 35
