# generated by collision_forge
v -0.197341 -0.113018 0.596321
v -0.201042 -0.113450 0.596321
v -0.187720 -0.118660 0.660750
v -0.187720 -0.113344 0.596321
v -0.197341 -0.119265 0.660750
v -0.211269 -0.115398 0.596321
v -0.178084 -0.119274 0.660750
v -0.178068 -0.114563 0.596321
v -0.207743 -0.121942 0.660750
v -0.169771 -0.120339 0.660750
v -0.168463 -0.120512 0.660750
v -0.176217 -0.114860 0.596321
v -0.213359 -0.124254 0.660750
v -0.158843 -0.122076 0.660750
v -0.072226 -0.134119 0.596321
v -0.217507 -0.127037 0.660750
v -0.219039 -0.119773 0.596321
v -0.072226 -0.138120 0.660750
v -0.072226 -0.138005 0.659438
v -0.072226 -0.206020 0.596321
v -0.223682 -0.132315 0.660750
v -0.226474 -0.125895 0.596321
v -0.072226 -0.211048 0.660750
v -0.228995 -0.140212 0.660750
v -0.080522 -0.209897 0.660750
v -0.232042 -0.133102 0.596321
v -0.229298 -0.140778 0.660750
v -0.234611 -0.139598 0.596321
v -0.231531 -0.147879 0.660750
v -0.103847 -0.201836 0.596321
v -0.231133 -0.158828 0.596321
v -0.231228 -0.155805 0.660750
v -0.120344 -0.199006 0.596321
v -0.224113 -0.166476 0.660750
v -0.224336 -0.165891 0.596321
v -0.128050 -0.201798 0.660750
v -0.213918 -0.174651 0.660750
v -0.157518 -0.195561 0.660750
v -0.168463 -0.189064 0.596321
v -0.202765 -0.177722 0.596321
v -0.195123 -0.183998 0.660750
v -0.190975 -0.182376 0.596321
f 15 12 19
f 4 1 3
f 13 6 17
f 29 27 28
f 28 32 29
f 31 32 28
f 28 27 26
f 18 19 14
f 14 19 12
f 12 11 14
f 7 4 3
f 8 11 12
f 4 7 8
f 5 2 6
f 1 2 5
f 3 1 5
f 17 22 16
f 16 13 17
f 32 31 34
f 35 40 37
f 37 34 35
f 35 34 31
f 24 26 27
f 30 20 23
f 39 33 36
f 36 38 39
f 33 30 36
f 37 40 41
f 11 8 10
f 10 8 7
f 6 13 9
f 9 5 6
f 22 26 21
f 26 24 21
f 21 16 22
f 25 30 23
f 25 36 30
f 42 41 40
f 38 41 42
f 39 38 42
f 19 20 15
f 23 20 19
f 19 18 23
f 23 18 25
f 27 29 25
f 25 34 37
f 18 14 25
f 25 7 3
f 25 24 27
f 3 5 25
f 25 29 32
f 16 21 25
f 25 14 11
f 37 41 25
f 11 10 25
f 13 16 25
f 32 34 25
f 25 9 13
f 38 36 25
f 25 41 38
f 25 10 7
f 5 9 25
f 25 21 24
f 15 20 42
f 1 4 42
f 42 2 1
f 42 12 15
f 42 31 28
f 28 26 42
f 17 6 42
f 42 22 17
f 20 30 42
f 40 35 42
f 6 2 42
f 42 8 12
f 42 26 22
f 42 33 39
f 4 8 42
f 42 35 31
f 42 30 33
