# generated by collision_forge
v 0.081842 0.158768 0.570637
v 0.010413 0.158768 0.565516
v 0.010413 0.154813 0.565494
v 0.010413 0.149199 0.565458
v 0.010413 0.145186 0.565378
v 0.010413 0.139591 0.565262
v 0.081842 0.149199 0.570368
v 0.081842 0.158768 0.512897
v 0.010413 0.158768 0.506920
v 0.010413 0.120317 0.564639
v 0.010413 -0.038331 0.558757
v 0.081849 -0.038312 0.562891
v 0.081821 0.158768 0.512592
v 0.014525 0.158768 0.507116
v 0.014448 0.033729 0.499544
v 0.010413 0.033729 0.499377
v 0.081821 -0.038331 0.562891
v 0.010413 -0.038331 0.496556
v 0.081849 -0.038331 0.562738
v 0.081849 -0.004819 0.503657
v 0.056264 -0.003141 0.500755
v 0.048208 0.009805 0.500603
v 0.024077 0.158768 0.507704
v 0.025000 0.034636 0.500139
v 0.024070 0.024101 0.499457
v 0.019084 -0.038331 0.496853
v 0.081849 -0.038331 0.501952
v 0.081849 -0.014427 0.503142
v 0.063242 0.158768 0.510685
v 0.057774 -0.009546 0.500603
v 0.043327 0.158768 0.508893
v 0.031391 0.032070 0.500393
v 0.010413 -0.029649 0.496795
v 0.052320 0.158768 0.509626
v 0.069829 -0.038331 0.500610
v 0.037803 0.027786 0.500668
v 0.033705 -0.004800 0.498688
v 0.024070 -0.004800 0.498079
v 0.010413 0.004828 0.497883
v 0.043327 -0.024054 0.498638
v 0.033705 -0.038331 0.497506
v 0.047949 -0.038331 0.498492
f 11 7 10
f 12 7 17
f 17 7 11
f 6 10 7
f 12 17 19
f 12 20 1
f 1 7 12
f 1 6 7
f 8 20 13
f 8 1 20
f 13 20 21
f 3 1 2
f 3 4 1
f 6 1 5
f 1 4 5
f 28 21 20
f 42 41 40
f 40 41 37
f 13 21 22
f 22 40 37
f 37 41 38
f 30 28 27
f 21 28 30
f 27 35 30
f 30 35 42
f 42 40 30
f 30 22 21
f 40 22 30
f 14 15 9
f 9 15 16
f 16 15 39
f 13 22 29
f 29 22 34
f 26 38 41
f 34 32 31
f 24 14 23
f 23 31 24
f 24 31 32
f 15 14 24
f 34 22 36
f 36 32 34
f 36 22 37
f 37 32 36
f 33 26 18
f 39 38 33
f 38 26 33
f 15 24 25
f 39 15 25
f 25 38 39
f 25 24 32
f 37 38 25
f 25 32 37
f 28 19 27
f 28 20 12
f 12 19 28
f 11 18 26
f 27 19 26
f 26 17 11
f 26 19 17
f 26 35 27
f 26 41 42
f 42 35 26
f 31 9 2
f 2 1 31
f 31 8 13
f 31 14 9
f 1 8 31
f 13 29 31
f 23 14 31
f 31 29 34
f 33 18 11
f 2 9 33
f 9 16 33
f 11 10 33
f 10 6 33
f 33 3 2
f 6 5 33
f 4 3 33
f 33 5 4
f 33 16 39
