# generated by collision_forge
v -0.080522 0.158738 0.510980
v -0.080611 0.158768 0.510987
v -0.080522 0.158768 0.511659
v -0.080522 0.120332 0.511610
v -0.081259 0.158768 0.511044
v -0.080522 0.158768 0.569714
v -0.080522 0.120332 0.569290
v -0.081829 0.120332 0.511730
v -0.120344 0.158768 0.514623
v -0.080522 0.149214 0.569813
v -0.180862 0.158768 0.583255
v -0.080522 0.121652 0.569325
v -0.180862 0.136828 0.583057
v -0.180862 0.129964 0.582873
v -0.180862 0.120332 0.582548
v -0.091465 0.120332 0.512720
v -0.129970 0.158768 0.515586
v -0.180862 0.149214 0.583234
v -0.080522 0.139589 0.569736
v -0.180862 0.158768 0.522200
v -0.180862 0.139589 0.583114
v -0.180862 0.120332 0.522993
v -0.110717 0.120332 0.514836
v -0.120344 0.120332 0.515953
f 10 6 11
f 1 4 2
f 20 17 22
f 17 24 22
f 1 2 3
f 19 10 18
f 18 21 19
f 18 10 11
f 13 12 19
f 19 21 13
f 7 12 13
f 8 16 17
f 17 9 8
f 8 9 4
f 23 24 17
f 17 16 23
f 5 2 4
f 4 9 5
f 14 15 7
f 7 13 14
f 3 12 7
f 3 4 1
f 3 7 4
f 6 10 3
f 3 10 19
f 19 12 3
f 4 7 23
f 7 15 23
f 15 22 23
f 23 22 24
f 23 8 4
f 16 8 23
f 5 20 11
f 11 6 5
f 5 17 20
f 6 3 5
f 5 3 2
f 5 9 17
f 11 20 14
f 14 22 15
f 14 18 11
f 20 22 14
f 21 18 14
f 14 13 21
