# generated by collision_forge
v 0.084950 -0.178267 0.872565
v 0.188368 -0.237952 0.909746
v 0.133473 -0.259599 0.938620
v 0.178041 -0.168505 0.872565
v 0.084950 -0.219347 0.963967
v 0.084950 -0.191468 0.914897
v 0.110719 -0.260816 0.954240
v 0.101087 -0.235858 0.966974
v 0.084950 -0.269111 0.938620
v 0.202943 -0.181946 0.872565
v 0.147511 -0.220105 0.963094
v 0.099513 -0.175625 0.872565
v 0.148023 -0.168256 0.872565
v 0.184181 -0.216615 0.944736
v 0.084950 -0.266609 0.950583
v 0.149208 -0.202885 0.952282
v 0.192115 -0.229726 0.932782
v 0.175001 -0.241931 0.944912
v 0.174073 -0.226227 0.953609
v 0.129798 -0.194489 0.937877
v 0.169972 -0.248940 0.928986
v 0.158839 -0.182873 0.914674
v 0.084950 -0.200302 0.938972
v 0.091456 -0.253537 0.872565
v 0.139247 -0.235868 0.963559
v 0.084950 -0.209745 0.955567
v 0.140931 -0.244733 0.872565
v 0.208937 -0.208319 0.872565
v 0.205628 -0.206983 0.900121
v 0.168470 -0.200831 0.944959
v 0.206739 -0.189065 0.872565
v 0.183778 -0.201399 0.934712
v 0.149208 -0.252729 0.909746
v 0.188697 -0.229876 0.872565
v 0.106471 -0.260028 0.904520
v 0.192140 -0.183133 0.894877
v 0.084950 -0.250805 0.964524
v 0.084950 -0.255012 0.874356
v 0.203053 -0.222797 0.900121
v 0.084950 -0.268423 0.928967
v 0.192408 -0.212327 0.933617
v 0.146021 -0.250924 0.953720
f 26 16 20
f 34 33 27
f 33 35 27
f 5 16 26
f 5 37 8
f 26 20 23
f 20 13 23
f 38 35 40
f 40 35 33
f 24 38 1
f 24 35 38
f 24 27 35
f 33 21 3
f 9 40 3
f 3 40 33
f 41 29 10
f 39 34 28
f 28 29 39
f 2 33 34
f 2 21 33
f 34 39 2
f 31 29 28
f 10 29 31
f 4 13 22
f 22 13 20
f 22 16 30
f 22 20 16
f 6 23 13
f 7 15 9
f 9 3 7
f 37 15 7
f 1 6 12
f 12 6 13
f 8 37 25
f 36 41 10
f 36 32 41
f 36 10 4
f 30 32 36
f 36 22 30
f 4 22 36
f 37 7 42
f 42 25 37
f 42 3 21
f 42 7 3
f 25 42 19
f 11 5 8
f 8 25 11
f 16 5 11
f 25 19 11
f 30 16 11
f 14 32 30
f 30 11 14
f 14 11 19
f 41 32 14
f 18 42 21
f 18 19 42
f 21 2 18
f 17 2 39
f 17 18 2
f 29 41 17
f 17 39 29
f 41 14 17
f 17 14 19
f 19 18 17
f 6 40 9
f 1 38 6
f 37 5 6
f 9 15 6
f 6 15 37
f 6 5 26
f 26 23 6
f 38 40 6
f 28 34 12
f 12 24 1
f 12 31 28
f 4 10 12
f 34 27 12
f 12 13 4
f 27 24 12
f 10 31 12
