# generated by collision_forge
v 0.181952 0.257807 0.524697
v 0.015982 0.158791 0.565635
v 0.181952 0.158802 0.585043
v 0.015982 0.235850 0.552968
v 0.015982 0.206262 0.489406
v 0.181952 0.158814 0.524233
v 0.149183 0.245473 0.495528
v 0.015982 0.244065 0.479882
v 0.015982 0.158768 0.507206
v 0.181952 0.158768 0.549928
v 0.181952 0.178104 0.584157
v 0.181952 0.254271 0.507536
v 0.181952 0.224523 0.569923
v 0.181952 0.251353 0.541023
v 0.181952 0.210312 0.577097
v 0.181952 0.203081 0.509968
v 0.015982 0.261548 0.531633
v 0.168451 0.240141 0.557833
v 0.120330 0.158768 0.517028
v 0.015982 0.266971 0.482191
v 0.116724 0.269717 0.500197
v 0.015982 0.206994 0.561760
v 0.081844 0.255095 0.484448
v 0.015982 0.187738 0.564306
v 0.015982 0.168470 0.565532
v 0.033707 0.216617 0.485819
v 0.015982 0.158768 0.556308
v 0.043405 0.158768 0.508896
v 0.015982 0.274477 0.505412
v 0.015982 0.266045 0.524666
v 0.015982 0.246948 0.546238
v 0.015982 0.272532 0.487004
v 0.072210 0.209809 0.490179
v 0.168451 0.259431 0.527902
v 0.015982 0.257589 0.536436
v 0.156088 0.260736 0.499816
v 0.015982 0.242132 0.549680
v 0.181952 0.241617 0.503949
v 0.153391 0.212383 0.500733
v 0.015982 0.269225 0.519182
v 0.107106 0.220736 0.490797
v 0.015982 0.221582 0.558400
f 2 27 3
f 3 27 10
f 1 21 34
f 34 21 29
f 14 18 13
f 1 34 14
f 13 18 31
f 23 8 20
f 36 21 1
f 36 7 23
f 23 20 36
f 36 20 21
f 18 14 17
f 37 4 13
f 13 31 37
f 13 4 15
f 29 21 32
f 21 20 32
f 7 36 38
f 35 31 18
f 18 17 35
f 40 34 29
f 2 3 25
f 42 15 4
f 22 15 42
f 19 6 10
f 19 33 6
f 26 33 9
f 16 6 39
f 39 38 16
f 7 38 39
f 12 36 1
f 12 38 36
f 30 14 34
f 34 40 30
f 30 17 14
f 24 25 11
f 11 25 3
f 22 24 11
f 11 15 22
f 9 33 28
f 33 19 28
f 5 26 9
f 8 26 5
f 6 33 41
f 41 39 6
f 41 8 23
f 23 7 41
f 7 39 41
f 41 26 8
f 33 26 41
f 11 3 10
f 1 14 11
f 10 6 11
f 11 14 13
f 13 15 11
f 11 12 1
f 11 6 16
f 16 38 11
f 38 12 11
f 28 27 9
f 10 27 28
f 28 19 10
f 5 40 29
f 5 27 2
f 9 27 5
f 4 37 5
f 17 30 5
f 31 35 5
f 2 25 5
f 5 20 8
f 29 32 5
f 5 37 31
f 5 24 22
f 5 32 20
f 5 35 17
f 5 42 4
f 5 25 24
f 22 42 5
f 5 30 40
