# generated by collision_forge
v -0.180677 -0.107977 0.577883
v -0.180677 -0.081830 0.573807
v -0.188450 -0.107977 0.580932
v -0.180677 -0.107977 0.483222
v -0.187735 -0.081797 0.574892
v -0.180677 -0.081797 0.514334
v -0.197361 -0.107977 0.582113
v -0.206986 -0.107977 0.486591
v -0.206986 -0.101765 0.486891
v -0.206980 -0.081830 0.487907
v -0.180677 -0.101765 0.484074
v -0.197354 -0.081797 0.576121
v -0.180677 -0.081797 0.508564
v -0.206581 -0.107977 0.581125
v -0.206980 -0.081797 0.576644
v -0.216599 -0.081797 0.575743
v -0.198950 -0.081797 0.489282
v -0.189878 -0.081797 0.497065
v -0.180677 -0.092926 0.490482
v -0.226231 -0.081797 0.572743
v -0.225620 -0.107977 0.573198
v -0.217886 -0.107977 0.489079
v -0.214083 -0.081797 0.489630
v -0.194118 -0.081797 0.492254
v -0.232942 -0.081797 0.569326
v -0.232157 -0.107977 0.568909
v -0.237761 -0.081797 0.565008
v -0.241905 -0.081797 0.560188
v -0.237433 -0.107977 0.562521
v -0.225909 -0.107977 0.495796
v -0.222937 -0.081797 0.498246
v -0.239164 -0.107977 0.560246
v -0.244755 -0.081830 0.553538
v -0.244047 -0.081797 0.534284
v -0.241171 -0.081797 0.528863
v -0.241486 -0.107977 0.537324
v -0.242155 -0.101081 0.535901
v -0.241062 -0.107977 0.556122
v -0.246408 -0.081797 0.543916
v -0.241956 -0.107977 0.539598
v -0.245205 -0.091458 0.543916
v -0.241699 -0.107977 0.553692
f 5 7 3
f 21 25 26
f 2 3 1
f 5 3 2
f 15 16 7
f 7 16 14
f 40 42 41
f 41 42 39
f 39 37 41
f 32 28 38
f 27 26 25
f 28 26 27
f 29 28 32
f 29 26 28
f 24 19 17
f 17 19 11
f 5 2 6
f 34 37 39
f 30 37 34
f 23 22 30
f 30 31 23
f 36 37 30
f 40 41 36
f 36 41 37
f 12 7 5
f 12 15 7
f 20 14 16
f 21 14 20
f 20 25 21
f 33 28 39
f 33 38 28
f 42 38 33
f 39 42 33
f 13 19 18
f 19 24 18
f 8 9 4
f 22 9 8
f 35 31 30
f 30 34 35
f 10 9 22
f 22 23 10
f 4 9 10
f 10 11 4
f 10 23 17
f 17 11 10
f 1 4 6
f 6 2 1
f 6 19 13
f 4 11 6
f 6 11 19
f 1 3 8
f 8 4 1
f 21 26 8
f 40 36 8
f 8 42 40
f 8 29 32
f 8 3 7
f 8 14 21
f 32 38 8
f 30 22 8
f 7 14 8
f 8 38 42
f 26 29 8
f 8 36 30
f 5 6 35
f 39 28 35
f 35 24 17
f 35 27 25
f 35 12 5
f 17 23 35
f 35 34 39
f 16 15 35
f 28 27 35
f 25 20 35
f 35 6 13
f 13 18 35
f 35 23 31
f 15 12 35
f 35 20 16
f 35 18 24
