# generated by collision_forge
v -0.120363 -0.143357 0.596313
v -0.189896 -0.143357 0.596313
v -0.120363 -0.175457 0.596313
v -0.120363 -0.143357 0.509051
v -0.189896 -0.182740 0.596313
v -0.189896 -0.143357 0.521250
v -0.120363 -0.199006 0.596295
v -0.186160 -0.183993 0.596313
v -0.187916 -0.143357 0.520626
v -0.129967 -0.197323 0.596313
v -0.120363 -0.150776 0.511306
v -0.189896 -0.154812 0.528870
v -0.139591 -0.149218 0.513656
v -0.189896 -0.181488 0.581645
v -0.162712 -0.153576 0.520097
v -0.165945 -0.164514 0.528759
v -0.172356 -0.163294 0.529818
v -0.189896 -0.157585 0.531432
v -0.120363 -0.197508 0.572761
v -0.154823 -0.192268 0.596313
v -0.168463 -0.188046 0.582414
v -0.168463 -0.186782 0.572787
v -0.144022 -0.173159 0.529613
v -0.134867 -0.163697 0.519840
v -0.120363 -0.195993 0.563142
v -0.120363 -0.170479 0.521933
v -0.145744 -0.192856 0.575614
v -0.175161 -0.183514 0.565474
v -0.143525 -0.192333 0.569199
v -0.120363 -0.181041 0.531714
v -0.135099 -0.182991 0.539001
v -0.165264 -0.173829 0.538437
v -0.171676 -0.172717 0.539898
v -0.189896 -0.167199 0.541982
v -0.134153 -0.192398 0.558973
v -0.120363 -0.193531 0.553916
v -0.172642 -0.182719 0.559059
v -0.189896 -0.177288 0.561135
v -0.120363 -0.189310 0.544289
v -0.183934 -0.173649 0.548107
v -0.189896 -0.174809 0.554548
v -0.154701 -0.183094 0.548381
f 3 10 7
f 7 10 19
f 27 19 10
f 39 36 42
f 4 13 9
f 11 13 4
f 6 9 12
f 20 27 10
f 25 19 29
f 19 27 29
f 27 22 29
f 37 38 41
f 15 9 13
f 16 12 15
f 15 12 9
f 24 11 26
f 13 11 24
f 24 15 13
f 16 15 24
f 17 12 16
f 26 30 23
f 23 24 26
f 16 24 23
f 23 17 16
f 31 30 39
f 39 42 31
f 31 23 30
f 21 14 22
f 27 20 21
f 21 22 27
f 35 36 25
f 25 29 35
f 35 29 37
f 37 42 35
f 35 42 36
f 40 41 34
f 40 42 37
f 37 41 40
f 18 17 34
f 12 17 18
f 28 14 38
f 28 38 37
f 22 14 28
f 37 29 28
f 28 29 22
f 8 21 20
f 5 14 8
f 14 21 8
f 23 31 32
f 32 31 42
f 17 23 32
f 33 40 34
f 34 17 33
f 17 32 33
f 42 40 33
f 33 32 42
f 1 4 9
f 2 1 9
f 9 6 2
f 30 4 1
f 1 3 30
f 30 36 39
f 30 3 7
f 7 19 30
f 30 11 4
f 30 19 25
f 25 36 30
f 26 11 30
f 2 6 18
f 18 5 2
f 18 14 5
f 34 41 18
f 6 12 18
f 18 41 38
f 38 14 18
f 8 1 2
f 8 3 1
f 10 3 8
f 2 5 8
f 8 20 10
