# generated by collision_forge
v 0.250402 -0.039634 0.548526
v 0.250458 -0.038331 0.548422
v 0.250498 -0.038331 0.558790
v 0.244706 -0.086185 0.557138
v 0.245874 -0.086185 0.553545
v 0.243026 -0.086185 0.561948
v 0.244298 -0.086185 0.543916
v 0.241706 -0.081824 0.537200
v 0.247730 -0.038331 0.563270
v 0.221266 -0.086185 0.500970
v 0.240778 -0.068380 0.568089
v 0.234554 -0.086185 0.570177
v 0.237194 -0.086185 0.568394
v 0.218626 -0.086185 0.498578
v 0.240050 -0.038331 0.530380
v 0.242690 -0.038331 0.569751
v 0.235858 -0.038331 0.574013
v 0.226226 -0.086185 0.573856
v 0.221258 -0.038331 0.500866
v 0.228754 -0.038331 0.577058
v 0.208242 -0.086185 0.491880
v 0.216450 -0.038331 0.496960
v 0.205610 -0.086185 0.491228
v 0.211538 -0.038331 0.494525
v 0.212242 -0.086185 0.576344
v 0.211962 -0.038331 0.579406
v 0.200554 -0.069345 0.577736
v 0.206986 -0.038331 0.579545
v 0.201074 -0.086185 0.490688
v 0.196258 -0.086185 0.492280
v 0.201922 -0.045292 0.490897
v 0.197778 -0.038331 0.492828
v 0.188162 -0.086185 0.497160
v 0.189850 -0.038331 0.497787
v 0.193930 -0.038331 0.578493
v 0.168946 -0.086185 0.510173
v 0.168946 -0.038331 0.513914
v 0.168946 -0.086185 0.573265
v 0.168946 -0.038331 0.575213
v 0.181258 -0.038331 0.576892
v 0.168946 -0.042856 0.575074
v 0.173746 -0.086185 0.573943
f 21 24 22
f 31 24 21
f 17 11 16
f 3 4 5
f 21 22 14
f 30 31 29
f 36 37 34
f 34 33 36
f 9 16 11
f 20 18 17
f 20 25 18
f 1 5 7
f 3 5 1
f 19 15 10
f 10 14 19
f 19 14 22
f 23 31 21
f 23 29 31
f 30 33 32
f 33 34 32
f 32 31 30
f 24 31 32
f 41 40 39
f 11 13 6
f 6 4 3
f 3 9 6
f 6 9 11
f 12 11 17
f 12 13 11
f 17 18 12
f 27 25 28
f 28 35 27
f 28 25 26
f 25 20 26
f 8 7 10
f 8 1 7
f 25 27 42
f 42 27 35
f 35 40 42
f 42 41 38
f 40 41 42
f 2 8 10
f 1 8 2
f 10 15 2
f 3 1 2
f 36 38 41
f 41 39 37
f 41 37 36
f 42 38 36
f 42 12 18
f 36 33 42
f 42 5 4
f 21 14 42
f 10 7 42
f 42 33 30
f 42 23 21
f 7 5 42
f 42 14 10
f 30 29 42
f 4 6 42
f 18 25 42
f 29 23 42
f 42 6 13
f 13 12 42
f 39 40 2
f 2 35 28
f 2 9 3
f 28 26 2
f 37 39 2
f 2 22 24
f 2 34 37
f 17 16 2
f 24 32 2
f 2 19 22
f 2 40 35
f 16 9 2
f 2 20 17
f 15 19 2
f 2 32 34
f 2 26 20
