# generated by collision_forge
v 0.203695 0.158773 0.505024
v 0.206167 0.158773 0.503930
v 0.203695 0.158773 0.511707
v 0.203695 0.168472 0.506247
v 0.210527 0.190704 0.502289
v 0.206981 0.158773 0.503573
v 0.229833 0.158773 0.511707
v 0.203695 0.188756 0.511707
v 0.211673 0.199697 0.502289
v 0.216608 0.158773 0.503801
v 0.216468 0.178067 0.502289
v 0.226202 0.176846 0.502289
v 0.225204 0.158773 0.507611
v 0.243598 0.188761 0.502289
v 0.244996 0.191651 0.502289
v 0.242289 0.190015 0.511707
v 0.208345 0.204305 0.511707
v 0.211869 0.200419 0.502289
v 0.203695 0.181203 0.509189
v 0.233971 0.179752 0.502289
v 0.235773 0.180453 0.502289
v 0.239153 0.183956 0.502289
v 0.247229 0.197595 0.502289
v 0.246475 0.197349 0.505412
v 0.209700 0.206413 0.511707
v 0.215999 0.207053 0.502289
v 0.246888 0.199954 0.502289
v 0.242443 0.205017 0.511707
v 0.243952 0.197349 0.511707
v 0.220474 0.212931 0.511707
v 0.220487 0.212543 0.502289
v 0.245047 0.207031 0.502289
v 0.241612 0.212548 0.502499
v 0.239328 0.210999 0.508916
v 0.238122 0.209543 0.511707
v 0.225349 0.214387 0.511707
v 0.225754 0.214475 0.502289
v 0.221424 0.212981 0.502289
v 0.235961 0.214612 0.502289
v 0.228933 0.214436 0.511707
v 0.232411 0.212636 0.511707
v 0.229342 0.214683 0.502289
f 17 18 8
f 33 32 39
f 28 32 33
f 11 6 5
f 1 4 5
f 10 21 13
f 7 13 14
f 10 6 12
f 12 6 11
f 26 18 17
f 37 36 42
f 37 30 36
f 29 16 24
f 24 28 29
f 34 41 35
f 35 28 34
f 34 28 33
f 33 39 40
f 40 34 33
f 41 34 40
f 40 39 42
f 42 36 40
f 1 5 2
f 2 5 6
f 9 5 4
f 4 19 9
f 9 19 8
f 9 8 18
f 7 14 15
f 15 16 7
f 23 24 15
f 15 24 16
f 22 13 21
f 22 14 13
f 20 21 10
f 10 12 20
f 25 30 31
f 31 26 25
f 25 26 17
f 31 30 38
f 30 37 38
f 27 24 23
f 32 28 27
f 28 24 27
f 1 3 19
f 3 8 19
f 19 4 1
f 2 7 3
f 2 3 1
f 2 13 7
f 2 6 10
f 10 13 2
f 35 41 25
f 3 7 25
f 25 8 3
f 7 16 25
f 17 8 25
f 25 28 35
f 25 16 29
f 25 40 36
f 29 28 25
f 36 30 25
f 41 40 25
f 31 38 27
f 11 5 27
f 42 39 27
f 18 26 27
f 27 9 18
f 27 12 11
f 27 39 32
f 27 37 42
f 23 15 27
f 27 22 21
f 27 26 31
f 21 20 27
f 5 9 27
f 27 15 14
f 14 22 27
f 27 20 12
f 27 38 37
