# generated by collision_forge
v -0.185348 0.158768 0.521419
v -0.185348 0.158768 0.531409
v -0.185348 0.158779 0.520980
v -0.185348 0.158791 0.583905
v -0.149199 0.216618 0.496948
v -0.120280 0.158768 0.514613
v -0.078461 0.158768 0.510791
v -0.078461 0.158848 0.569513
v -0.135472 0.230759 0.490890
v -0.078461 0.226227 0.486928
v -0.185348 0.226023 0.499024
v -0.078461 0.168480 0.569254
v -0.153730 0.245480 0.491020
v -0.185348 0.170848 0.583615
v -0.078461 0.235848 0.484084
v -0.078461 0.180150 0.568585
v -0.078461 0.255204 0.481968
v -0.185348 0.180480 0.583046
v -0.116608 0.269720 0.490811
v -0.078461 0.269413 0.486589
v -0.185348 0.253075 0.499393
v -0.078461 0.196944 0.566679
v -0.144805 0.269629 0.500421
v -0.185348 0.261067 0.507547
v -0.101102 0.273546 0.505421
v -0.078461 0.274787 0.502058
v -0.168451 0.265918 0.515042
v -0.078461 0.216618 0.562627
v -0.129979 0.269265 0.518755
v -0.185348 0.259792 0.528775
v -0.178087 0.209457 0.576978
v -0.168451 0.261181 0.532188
v -0.139584 0.259485 0.538415
v -0.078461 0.269743 0.520252
v -0.185348 0.216618 0.574773
v -0.078461 0.230941 0.557916
v -0.158836 0.229085 0.567048
v -0.078461 0.244023 0.550891
v -0.185348 0.242349 0.557557
v -0.149199 0.251094 0.549603
v -0.158836 0.241427 0.558984
v -0.078461 0.260111 0.536090
f 7 4 2
f 8 4 7
f 15 10 9
f 1 3 6
f 6 10 7
f 20 19 26
f 17 19 20
f 26 19 23
f 19 21 23
f 22 18 16
f 14 12 16
f 16 18 14
f 8 12 14
f 4 8 14
f 26 23 25
f 25 23 27
f 27 23 24
f 24 23 21
f 30 27 24
f 35 18 31
f 18 22 31
f 41 39 35
f 3 11 5
f 5 11 9
f 5 6 3
f 9 10 5
f 10 6 5
f 13 11 21
f 9 11 13
f 17 15 13
f 13 15 9
f 13 19 17
f 13 21 19
f 37 41 35
f 38 41 37
f 37 36 38
f 35 31 37
f 31 36 37
f 26 25 34
f 38 42 40
f 40 41 38
f 39 41 40
f 28 31 22
f 28 36 31
f 29 25 27
f 29 34 25
f 32 27 30
f 32 29 27
f 30 39 32
f 39 40 32
f 33 32 40
f 42 34 33
f 33 40 42
f 34 29 33
f 29 32 33
f 6 2 1
f 7 2 6
f 1 2 24
f 24 3 1
f 24 2 4
f 4 14 24
f 24 11 3
f 24 18 35
f 24 39 30
f 24 14 18
f 35 39 24
f 21 11 24
f 28 15 17
f 28 8 7
f 16 12 28
f 7 10 28
f 28 22 16
f 28 12 8
f 28 20 26
f 10 15 28
f 17 20 28
f 38 36 28
f 28 42 38
f 26 34 28
f 28 34 42
