# generated by collision_forge
v -0.080512 -0.038331 0.499973
v -0.080512 -0.038331 0.563019
v -0.072199 -0.038331 0.499124
v 0.010413 -0.038331 0.558769
v -0.080512 0.102564 0.568730
v 0.010413 -0.038331 0.496556
v 0.010413 0.120328 0.564637
v -0.080512 0.110697 0.569046
v -0.062569 -0.004806 0.499599
v -0.068800 0.002283 0.500462
v 0.004806 -0.038331 0.496384
v 0.010413 0.135532 0.565127
v -0.080512 0.111864 0.569082
v 0.010413 0.139590 0.565256
v -0.043318 -0.033681 0.497096
v 0.010413 -0.010396 0.497347
v 0.010413 0.139590 0.509028
v -0.080512 0.139590 0.569730
v -0.048756 0.029608 0.500555
v -0.080512 0.013202 0.502375
v -0.033697 -0.004806 0.497793
v -0.033697 0.004825 0.498239
v 0.010413 0.062542 0.501785
v 0.004806 0.062542 0.501512
v 0.004806 0.139590 0.508805
v -0.080512 0.139590 0.512221
v -0.052948 0.043349 0.501936
v -0.072199 0.043349 0.503619
v -0.062569 0.043349 0.502727
v -0.024067 -0.038331 0.496427
v -0.004815 -0.004806 0.497211
v 0.004806 0.004825 0.497671
v -0.004815 0.062542 0.501433
v -0.056152 0.139590 0.510344
v -0.038539 0.038543 0.500605
v -0.004815 0.024070 0.498534
v -0.024067 0.033701 0.499620
v -0.024067 0.139590 0.508812
v -0.043318 0.139590 0.509560
v 0.004806 0.033701 0.499153
v -0.004815 0.043349 0.499807
v -0.024067 0.062542 0.501950
f 4 7 8
f 5 2 4
f 4 8 5
f 14 8 12
f 12 8 7
f 14 18 13
f 13 8 14
f 15 30 3
f 1 10 3
f 16 6 11
f 20 10 1
f 28 10 20
f 20 26 28
f 29 10 28
f 28 26 29
f 10 29 19
f 31 11 30
f 15 3 9
f 9 3 10
f 10 19 9
f 40 23 16
f 21 30 15
f 21 31 30
f 15 9 21
f 17 23 24
f 24 25 17
f 24 40 41
f 23 40 24
f 32 40 16
f 16 11 32
f 11 31 32
f 41 40 36
f 31 21 36
f 36 32 31
f 40 32 36
f 38 42 39
f 27 19 29
f 26 34 27
f 27 29 26
f 41 36 37
f 37 42 41
f 33 24 41
f 41 42 33
f 42 38 33
f 33 38 25
f 25 24 33
f 22 36 21
f 22 37 36
f 22 9 19
f 22 21 9
f 42 37 35
f 19 27 35
f 35 22 19
f 37 22 35
f 39 42 35
f 35 34 39
f 35 27 34
f 11 6 4
f 11 2 1
f 4 2 11
f 1 3 11
f 11 3 30
f 1 2 20
f 20 13 18
f 2 5 20
f 20 5 8
f 8 13 20
f 18 26 20
f 4 6 23
f 23 7 4
f 23 17 14
f 23 6 16
f 14 12 23
f 23 12 7
f 14 17 38
f 38 18 14
f 38 26 18
f 17 25 38
f 38 34 26
f 39 34 38
