# generated by collision_forge
v -0.057036 -0.128096 0.492537
v -0.066020 -0.128096 0.492862
v -0.047535 -0.128096 0.492730
v 0.004802 -0.143357 0.502545
v -0.004324 -0.143357 0.502646
v -0.010688 -0.143357 0.502748
v -0.029940 -0.143357 0.503083
v -0.033702 -0.143357 0.503154
v -0.039567 -0.143357 0.503286
v -0.043328 -0.143357 0.503388
v -0.084185 -0.128096 0.493797
v 0.004874 -0.128096 0.494356
v 0.004874 -0.143357 0.502555
v -0.052954 -0.143357 0.503937
v -0.087679 -0.143357 0.506355
v -0.093116 -0.128096 0.494427
v 0.004874 -0.128096 0.544891
v 0.004874 -0.143357 0.596321
v -0.097305 -0.143357 0.507056
v -0.107181 -0.143357 0.507868
v -0.110710 -0.143357 0.508173
v -0.120336 -0.143357 0.509047
v -0.127431 -0.143357 0.509758
v -0.126950 -0.128096 0.498064
v 0.004856 -0.128096 0.563738
v 0.004874 -0.129058 0.564205
v -0.077625 -0.143357 0.596321
v 0.004874 -0.138865 0.596321
v -0.132708 -0.143357 0.510459
v -0.130390 -0.128096 0.498481
v 0.004802 -0.137853 0.596321
v 0.004874 -0.137849 0.596280
v -0.110175 -0.128096 0.596311
v -0.177237 -0.143357 0.596311
v -0.077625 -0.133377 0.596321
v -0.133189 -0.143357 0.510530
v -0.177237 -0.128096 0.506009
v -0.177237 -0.128096 0.596311
v -0.177237 -0.143357 0.518333
v -0.139588 -0.143357 0.511597
v -0.174367 -0.143357 0.517663
f 13 4 12
f 25 26 17
f 32 26 25
f 35 33 38
f 12 4 3
f 4 1 3
f 33 35 31
f 25 33 31
f 31 32 25
f 2 10 11
f 1 10 2
f 39 37 41
f 30 36 37
f 32 31 28
f 11 10 14
f 14 15 11
f 5 1 4
f 9 10 1
f 37 36 40
f 40 41 37
f 6 7 1
f 1 5 6
f 1 7 8
f 8 9 1
f 36 30 29
f 30 23 29
f 16 20 21
f 19 20 16
f 15 19 16
f 11 15 16
f 24 23 30
f 24 16 23
f 22 16 21
f 23 16 22
f 37 39 34
f 34 38 37
f 34 27 35
f 35 38 34
f 18 13 28
f 28 13 12
f 12 17 28
f 28 17 26
f 26 32 28
f 28 27 18
f 28 35 27
f 28 31 35
f 38 33 24
f 24 37 38
f 24 17 12
f 24 33 25
f 12 3 24
f 24 2 11
f 25 17 24
f 24 3 1
f 1 2 24
f 24 30 37
f 11 16 24
f 34 39 22
f 22 13 18
f 22 27 34
f 4 13 22
f 18 27 22
f 39 41 22
f 22 14 10
f 22 40 36
f 36 29 22
f 22 5 4
f 10 9 22
f 22 19 15
f 15 14 22
f 21 20 22
f 7 6 22
f 41 40 22
f 22 8 7
f 22 20 19
f 22 6 5
f 9 8 22
f 22 29 23
