# generated by collision_forge
v -0.024103 -0.081795 0.495829
v -0.014476 -0.081795 0.495869
v -0.033731 -0.081795 0.495875
v -0.004814 -0.043322 0.496166
v 0.004874 -0.081795 0.495994
v -0.024069 -0.043322 0.496324
v -0.014441 -0.043322 0.496238
v -0.043350 -0.081795 0.495987
v -0.004814 -0.038331 0.496258
v -0.000180 -0.038331 0.496304
v 0.004805 -0.043322 0.496265
v 0.004874 -0.043322 0.496271
v 0.004874 -0.081795 0.558514
v -0.033697 -0.043322 0.496489
v -0.024069 -0.038331 0.496423
v -0.014441 -0.038331 0.496331
v -0.052977 -0.081795 0.496205
v 0.004805 -0.038331 0.496377
v 0.004874 -0.038365 0.496377
v 0.004874 -0.038331 0.558679
v -0.082787 -0.038331 0.563239
v -0.082787 -0.081795 0.561840
v -0.033697 -0.038331 0.496601
v -0.062605 -0.081795 0.496608
v -0.043316 -0.038331 0.496971
v 0.004874 -0.038331 0.557874
v -0.082787 -0.038331 0.500197
v -0.082787 -0.081795 0.555182
v -0.072233 -0.081795 0.497175
v -0.052943 -0.038331 0.497564
v -0.081852 -0.081795 0.497855
v -0.082238 -0.081795 0.497894
v -0.082787 -0.081748 0.497960
v -0.072198 -0.038331 0.499122
v -0.062571 -0.038331 0.498270
f 13 20 21
f 21 22 13
f 2 4 5
f 1 4 2
f 5 4 11
f 32 33 27
f 19 18 26
f 10 18 19
f 19 11 10
f 10 4 9
f 10 11 4
f 5 11 12
f 12 11 19
f 33 32 28
f 25 23 17
f 17 23 14
f 14 23 15
f 15 6 14
f 14 6 8
f 8 17 14
f 25 17 24
f 16 7 6
f 6 15 16
f 3 7 4
f 3 4 1
f 6 7 3
f 3 8 6
f 29 30 25
f 25 24 29
f 30 29 31
f 35 30 31
f 31 34 35
f 27 34 31
f 31 32 27
f 12 13 5
f 12 26 20
f 20 13 12
f 19 26 12
f 21 27 28
f 28 22 21
f 27 33 28
f 16 10 9
f 21 20 16
f 16 27 21
f 25 30 16
f 20 26 16
f 16 26 18
f 18 10 16
f 16 23 25
f 16 34 27
f 16 15 23
f 35 34 16
f 16 30 35
f 9 4 16
f 4 7 16
f 5 13 31
f 31 13 22
f 31 2 5
f 1 2 31
f 22 28 31
f 31 28 32
f 31 3 1
f 17 8 31
f 31 24 17
f 8 3 31
f 31 29 24
