# generated by collision_forge
v -0.185350 0.261840 0.516956
v -0.185350 0.262072 0.515038
v -0.189597 0.260920 0.516956
v -0.185350 0.171620 0.516956
v -0.185350 0.261051 0.507528
v -0.192552 0.259918 0.510212
v -0.192842 0.259999 0.516956
v -0.188962 0.158778 0.516956
v -0.193278 0.158768 0.511238
v -0.185350 0.219743 0.500530
v -0.185350 0.260060 0.505593
v -0.192813 0.259989 0.515038
v -0.185350 0.257896 0.502721
v -0.203616 0.252506 0.507973
v -0.203616 0.255692 0.515038
v -0.197623 0.258189 0.515038
v -0.199486 0.257502 0.516952
v -0.203616 0.255793 0.516952
v -0.189026 0.158768 0.516956
v -0.198088 0.158768 0.506736
v -0.185350 0.220522 0.500285
v -0.185350 0.253083 0.499381
v -0.187726 0.252213 0.499729
v -0.192692 0.250403 0.500544
v -0.203616 0.249018 0.505819
v -0.203616 0.190500 0.516956
v -0.203616 0.158768 0.516956
v -0.203616 0.158768 0.503878
v -0.185350 0.226033 0.499009
v -0.185350 0.250545 0.498743
v -0.185350 0.245479 0.497515
v -0.187726 0.245479 0.498102
v -0.194351 0.245479 0.500005
v -0.199160 0.245468 0.501894
v -0.203616 0.245468 0.503857
v -0.203616 0.186364 0.502606
v -0.185350 0.235842 0.497360
v -0.187726 0.235842 0.497845
v -0.195796 0.235842 0.499719
v -0.200607 0.235842 0.501021
v -0.203616 0.235842 0.502029
v -0.203616 0.197366 0.502149
f 9 10 4
f 29 28 37
f 29 20 28
f 14 13 24
f 9 4 8
f 20 29 21
f 9 20 21
f 21 10 9
f 37 28 36
f 36 42 37
f 26 7 18
f 9 8 19
f 40 42 41
f 40 39 42
f 14 24 25
f 24 35 25
f 41 35 34
f 34 35 24
f 6 13 14
f 13 22 23
f 23 24 13
f 23 22 30
f 30 31 23
f 38 31 37
f 39 31 38
f 37 42 38
f 42 39 38
f 33 40 41
f 41 34 33
f 33 34 24
f 5 6 2
f 2 3 1
f 15 6 14
f 18 16 15
f 15 16 6
f 13 6 11
f 11 6 5
f 24 23 32
f 32 23 31
f 32 33 24
f 40 33 32
f 39 40 32
f 32 31 39
f 7 3 12
f 12 16 7
f 6 16 12
f 12 2 6
f 3 2 12
f 18 7 17
f 17 16 18
f 7 16 17
f 19 27 28
f 19 20 9
f 28 20 19
f 3 4 1
f 27 19 3
f 3 26 27
f 3 8 4
f 7 26 3
f 3 19 8
f 28 27 15
f 15 36 28
f 14 25 15
f 27 26 15
f 41 42 15
f 42 36 15
f 15 35 41
f 15 26 18
f 15 25 35
f 10 21 11
f 11 22 13
f 1 4 11
f 11 4 10
f 11 29 37
f 11 21 29
f 37 31 11
f 11 2 1
f 30 22 11
f 11 31 30
f 5 2 11
