# generated by collision_forge
v -0.126543 -0.107977 0.567098
v -0.126543 -0.081831 0.566326
v -0.146992 -0.107977 0.572005
v -0.126543 -0.107977 0.475394
v -0.126543 -0.081795 0.526202
v -0.129966 -0.081795 0.566737
v -0.178097 -0.081795 0.573419
v -0.180672 -0.081831 0.573821
v -0.180672 -0.107977 0.577894
v -0.132700 -0.107977 0.476036
v -0.168468 -0.103794 0.480460
v -0.149217 -0.101080 0.478976
v -0.126543 -0.104502 0.476106
v -0.126543 -0.081831 0.503828
v -0.129998 -0.081795 0.504290
v -0.180672 -0.081795 0.514333
v -0.180672 -0.107977 0.483220
v -0.142323 -0.107977 0.477079
v -0.157897 -0.100770 0.480039
v -0.162645 -0.107977 0.479417
v -0.174589 -0.105217 0.481083
v -0.180672 -0.101480 0.484113
v -0.180672 -0.099432 0.485146
v -0.154055 -0.096262 0.481343
v -0.139594 -0.101080 0.478063
v -0.126543 -0.103530 0.476307
v -0.126543 -0.095516 0.480400
v -0.139594 -0.095847 0.480872
v -0.149217 -0.096113 0.481183
v -0.180672 -0.081795 0.508554
v -0.158867 -0.081795 0.506698
v -0.180672 -0.106037 0.483481
v -0.174769 -0.107977 0.481143
v -0.174276 -0.107977 0.481042
v -0.174589 -0.107810 0.481083
v -0.180672 -0.094243 0.488788
v -0.126543 -0.097556 0.479006
v -0.126543 -0.101080 0.476838
v -0.180672 -0.092928 0.490474
v -0.174530 -0.107977 0.481093
f 8 9 2
f 8 2 7
f 1 2 3
f 3 2 9
f 6 2 5
f 6 7 2
f 8 7 16
f 5 14 15
f 30 14 24
f 31 14 30
f 31 15 14
f 14 27 28
f 30 24 39
f 24 36 39
f 37 38 24
f 20 34 35
f 21 33 17
f 35 33 21
f 21 20 35
f 23 36 24
f 27 37 29
f 29 37 24
f 29 28 27
f 29 24 14
f 14 28 29
f 12 19 24
f 35 34 40
f 40 33 35
f 32 21 17
f 22 21 32
f 11 18 20
f 20 21 11
f 19 12 11
f 11 12 4
f 24 19 11
f 11 21 22
f 22 23 11
f 11 23 24
f 4 12 13
f 12 26 13
f 38 26 25
f 25 26 12
f 24 38 25
f 25 12 24
f 10 11 4
f 18 11 10
f 31 6 5
f 30 16 31
f 7 6 31
f 31 16 7
f 5 15 31
f 32 17 9
f 32 9 8
f 8 16 32
f 32 16 30
f 30 39 32
f 32 39 36
f 36 23 32
f 32 23 22
f 13 2 1
f 1 4 13
f 5 2 13
f 13 14 5
f 13 27 14
f 13 37 27
f 38 37 13
f 13 26 38
f 10 4 1
f 1 3 10
f 10 3 9
f 9 17 10
f 10 40 34
f 34 20 10
f 17 33 10
f 33 40 10
f 20 18 10
