# generated by collision_forge
v -0.247260 0.206974 0.494337
v -0.246978 0.206974 0.495787
v -0.243975 0.217091 0.494337
v -0.244594 0.197356 0.494337
v -0.244432 0.197356 0.495787
v -0.241262 0.200007 0.511311
v -0.238745 0.219393 0.516952
v -0.235981 0.226087 0.516952
v -0.235259 0.227464 0.516952
v -0.241416 0.191812 0.494337
v -0.231161 0.174974 0.516952
v -0.240343 0.193589 0.508581
v -0.238886 0.200146 0.516952
v -0.243791 0.206974 0.505413
v -0.203616 0.227464 0.516952
v -0.234310 0.227464 0.515385
v -0.236301 0.223971 0.494337
v -0.238527 0.222861 0.494337
v -0.225885 0.174974 0.505862
v -0.230956 0.174974 0.515903
v -0.203616 0.174974 0.516952
v -0.232482 0.178293 0.516952
v -0.235964 0.187727 0.516952
v -0.203616 0.227464 0.502599
v -0.225983 0.227464 0.505885
v -0.226231 0.225651 0.494337
v -0.235857 0.188302 0.494337
v -0.223317 0.174974 0.504217
v -0.203616 0.174974 0.503478
v -0.208393 0.206974 0.494337
v -0.208517 0.207955 0.494337
v -0.210448 0.213998 0.494337
v -0.214832 0.219552 0.494337
v -0.218925 0.223066 0.494337
v -0.216724 0.227464 0.504060
v -0.228025 0.185420 0.494337
v -0.203616 0.186360 0.502606
v -0.206282 0.174974 0.501981
v -0.211444 0.191534 0.494337
v -0.208743 0.198219 0.494337
v -0.214409 0.174974 0.499871
v -0.216203 0.187645 0.494337
f 2 3 1
f 2 7 3
f 9 3 8
f 3 7 8
f 5 2 1
f 12 2 5
f 11 12 5
f 19 10 27
f 27 28 19
f 27 36 41
f 41 28 27
f 22 12 11
f 22 23 12
f 6 23 13
f 12 23 6
f 6 2 12
f 4 5 1
f 4 10 11
f 11 5 4
f 11 10 20
f 10 19 20
f 13 7 14
f 14 6 13
f 7 2 14
f 2 6 14
f 42 41 36
f 38 39 29
f 38 42 39
f 41 42 38
f 37 30 24
f 32 24 31
f 24 30 31
f 29 39 40
f 40 37 29
f 30 37 40
f 34 26 24
f 35 26 25
f 24 26 35
f 17 16 25
f 25 26 17
f 9 16 17
f 33 24 32
f 33 34 24
f 18 3 9
f 9 17 18
f 15 9 22
f 9 8 22
f 22 21 15
f 11 21 22
f 22 7 13
f 13 23 22
f 22 8 7
f 38 21 11
f 29 21 38
f 11 20 38
f 38 19 28
f 28 41 38
f 38 20 19
f 15 21 37
f 37 21 29
f 37 24 15
f 35 9 15
f 35 16 9
f 25 16 35
f 15 24 35
f 18 42 36
f 1 3 18
f 27 10 18
f 18 36 27
f 18 4 1
f 10 4 18
f 18 33 32
f 32 31 18
f 18 40 39
f 39 42 18
f 18 31 30
f 30 40 18
f 26 34 18
f 18 17 26
f 34 33 18
