# generated by collision_forge
v 0.187711 -0.115809 0.596326
v 0.178092 -0.115995 0.596326
v 0.178092 -0.120728 0.649763
v 0.178139 -0.120728 0.649763
v 0.187711 -0.120988 0.649763
v 0.193117 -0.116348 0.596326
v 0.168725 -0.116988 0.596326
v 0.168520 -0.121294 0.649763
v 0.197329 -0.116858 0.596326
v 0.158839 -0.118538 0.596326
v 0.158886 -0.122492 0.649763
v 0.202704 -0.118102 0.596326
v 0.072334 -0.134083 0.596352
v 0.072334 -0.137545 0.649763
v 0.148387 -0.124208 0.649763
v 0.149204 -0.124069 0.649763
v 0.203600 -0.124515 0.649763
v 0.206964 -0.119215 0.596326
v 0.072334 -0.171290 0.596326
v 0.072334 -0.210613 0.649763
v 0.215906 -0.123141 0.596326
v 0.072334 -0.205982 0.596400
v 0.081842 -0.204980 0.596326
v 0.081842 -0.209388 0.649763
v 0.215639 -0.131670 0.649763
v 0.220307 -0.126000 0.596326
v 0.099885 -0.202585 0.596326
v 0.223560 -0.140766 0.649763
v 0.229926 -0.137981 0.596326
v 0.227238 -0.158798 0.649763
v 0.223859 -0.167003 0.649763
v 0.232299 -0.156812 0.596326
v 0.158839 -0.195356 0.649763
v 0.154422 -0.192627 0.596326
v 0.227647 -0.164079 0.596326
v 0.214948 -0.175355 0.649763
v 0.224975 -0.166696 0.596326
v 0.206964 -0.179578 0.649763
v 0.187302 -0.184052 0.596326
v 0.187711 -0.187207 0.649763
v 0.213517 -0.174149 0.596326
v 0.196968 -0.180868 0.596326
f 10 19 13
f 13 14 10
f 22 19 23
f 20 22 23
f 15 10 14
f 9 5 17
f 20 23 24
f 36 41 37
f 11 10 16
f 10 15 16
f 3 2 8
f 7 10 11
f 11 8 7
f 7 8 2
f 1 2 3
f 27 24 23
f 33 24 27
f 34 33 27
f 38 41 36
f 39 40 33
f 39 33 34
f 4 1 3
f 5 1 4
f 6 5 9
f 6 1 5
f 9 17 12
f 17 18 12
f 21 18 17
f 26 28 29
f 25 28 26
f 26 21 25
f 25 21 17
f 32 29 30
f 30 29 28
f 40 39 42
f 42 38 40
f 41 38 42
f 31 35 32
f 32 30 31
f 37 35 31
f 36 37 31
f 19 22 20
f 19 14 13
f 20 14 19
f 42 23 19
f 42 21 26
f 42 39 34
f 10 7 42
f 19 10 42
f 32 35 42
f 42 6 9
f 34 27 42
f 42 37 41
f 42 7 2
f 2 1 42
f 9 12 42
f 42 27 23
f 42 35 37
f 42 29 32
f 1 6 42
f 42 12 18
f 18 21 42
f 26 29 42
f 31 14 20
f 31 38 36
f 11 16 31
f 3 8 31
f 31 15 14
f 20 24 31
f 31 25 17
f 31 17 5
f 31 24 33
f 33 40 31
f 31 16 15
f 31 8 11
f 31 4 3
f 40 38 31
f 5 4 31
f 28 25 31
f 31 30 28
