# generated by collision_forge
v -0.062567 -0.103637 0.471703
v -0.062567 -0.104564 0.471155
v -0.072200 -0.104579 0.471148
v -0.072200 -0.103661 0.471703
v -0.062567 -0.109206 0.471155
v -0.052945 -0.104597 0.471174
v -0.072200 -0.109786 0.471148
v -0.081822 -0.104766 0.471224
v -0.081822 -0.103992 0.471703
v -0.043323 -0.103769 0.471703
v -0.052945 -0.108620 0.471174
v -0.024068 -0.107844 0.471250
v -0.014446 -0.107727 0.471281
v -0.043323 -0.104637 0.471197
v -0.072200 -0.113418 0.471703
v -0.081822 -0.113147 0.471703
v -0.081822 -0.109644 0.471224
v -0.091454 -0.105098 0.471377
v -0.091454 -0.104570 0.471703
v -0.033701 -0.104684 0.471222
v -0.024068 -0.104738 0.471250
v -0.014446 -0.104799 0.471281
v -0.004824 -0.107449 0.471363
v -0.004824 -0.108775 0.471703
v -0.085236 -0.112341 0.471703
v -0.091454 -0.108488 0.471377
v -0.098971 -0.105478 0.471542
v -0.099156 -0.105238 0.471703
v -0.024068 -0.103947 0.471703
v -0.014446 -0.104056 0.471703
v -0.004824 -0.104996 0.471363
v 0.004809 -0.106865 0.471515
v -0.002282 -0.108561 0.471703
v -0.091454 -0.110736 0.471703
v -0.098971 -0.107111 0.471542
v -0.099615 -0.107883 0.471703
v 0.004111 -0.105004 0.471703
v 0.004809 -0.105380 0.471515
v 0.011835 -0.106560 0.471703
v -0.096702 -0.108978 0.471703
v 0.011453 -0.105576 0.471703
v 0.011616 -0.105698 0.471640
f 8 4 3
f 3 4 1
f 17 16 26
f 7 13 15
f 15 16 7
f 7 16 17
f 4 8 9
f 36 28 27
f 23 24 15
f 15 13 23
f 25 26 16
f 25 34 26
f 36 27 35
f 35 40 36
f 34 40 35
f 26 34 35
f 19 27 28
f 19 9 8
f 24 23 33
f 13 7 5
f 42 41 39
f 37 31 30
f 30 31 22
f 22 21 30
f 30 21 29
f 1 10 6
f 13 5 12
f 12 5 11
f 18 19 8
f 27 19 18
f 39 33 32
f 32 33 23
f 32 42 39
f 3 1 2
f 1 6 2
f 10 29 14
f 14 6 10
f 11 6 14
f 42 32 38
f 31 37 38
f 38 37 41
f 41 42 38
f 20 29 21
f 20 14 29
f 21 12 20
f 20 12 11
f 11 14 20
f 17 8 7
f 7 8 3
f 31 23 22
f 22 23 13
f 29 1 4
f 39 41 29
f 29 28 36
f 29 19 28
f 29 37 30
f 29 16 15
f 4 9 29
f 15 24 29
f 29 25 16
f 29 10 1
f 36 40 29
f 29 33 39
f 29 40 34
f 34 25 29
f 9 19 29
f 24 33 29
f 41 37 29
f 12 22 13
f 21 22 12
f 18 8 17
f 17 26 18
f 26 35 18
f 18 35 27
f 2 7 3
f 2 5 7
f 2 6 11
f 11 5 2
f 38 23 31
f 38 32 23
