# generated by collision_forge
v 0.210529 0.190710 0.502289
v 0.212205 0.186431 0.502289
v 0.211191 0.197149 0.502289
v 0.215731 0.206977 0.479107
v 0.214907 0.197352 0.479107
v 0.218726 0.189526 0.479107
v 0.216183 0.178597 0.502289
v 0.211670 0.199699 0.502289
v 0.211868 0.200422 0.502289
v 0.219554 0.213769 0.479107
v 0.220414 0.188238 0.479107
v 0.216468 0.178065 0.502289
v 0.216001 0.207052 0.502289
v 0.224487 0.216843 0.479107
v 0.226297 0.184500 0.479107
v 0.226206 0.176844 0.502289
v 0.229696 0.183237 0.479107
v 0.220485 0.212544 0.502289
v 0.219998 0.213038 0.495784
v 0.233967 0.179752 0.502289
v 0.234700 0.183436 0.479107
v 0.221424 0.212984 0.502289
v 0.233282 0.218962 0.479107
v 0.235770 0.180454 0.502289
v 0.244906 0.188633 0.479107
v 0.225758 0.214475 0.502289
v 0.226234 0.215942 0.495784
v 0.235857 0.219277 0.479107
v 0.229348 0.214679 0.502289
v 0.235857 0.218330 0.486160
v 0.244545 0.215231 0.479107
v 0.243943 0.214691 0.486160
v 0.243598 0.188770 0.502289
v 0.249719 0.194594 0.479107
v 0.235960 0.214612 0.502289
v 0.242802 0.213590 0.495784
v 0.249359 0.209453 0.479107
v 0.244997 0.191657 0.502289
v 0.245048 0.207035 0.502289
v 0.250999 0.204639 0.479107
v 0.250333 0.202267 0.491188
v 0.247231 0.197602 0.502289
f 1 4 5
f 9 10 4
f 39 37 36
f 27 30 28
f 17 12 15
f 2 5 6
f 1 5 2
f 41 34 40
f 40 37 41
f 41 37 39
f 3 4 1
f 10 9 13
f 32 37 31
f 32 36 37
f 30 36 32
f 32 31 28
f 28 30 32
f 23 27 28
f 14 27 23
f 35 36 30
f 39 36 35
f 11 12 6
f 11 15 12
f 6 12 7
f 7 2 6
f 8 9 4
f 4 3 8
f 19 13 18
f 10 13 19
f 14 10 19
f 19 27 14
f 18 22 19
f 19 22 27
f 30 27 29
f 29 35 30
f 42 41 39
f 34 41 42
f 25 24 21
f 17 21 16
f 16 12 17
f 27 22 26
f 26 29 27
f 33 25 34
f 24 25 33
f 21 24 20
f 20 16 21
f 34 42 38
f 38 33 34
f 25 37 40
f 17 15 25
f 25 5 4
f 40 34 25
f 28 31 25
f 4 10 25
f 25 21 17
f 31 37 25
f 6 5 25
f 25 11 6
f 25 10 14
f 25 23 28
f 14 23 25
f 15 11 25
f 18 13 38
f 1 2 38
f 38 7 12
f 38 3 1
f 39 35 38
f 12 16 38
f 38 13 9
f 38 22 18
f 9 8 38
f 2 7 38
f 38 42 39
f 38 8 3
f 35 29 38
f 38 26 22
f 24 33 38
f 29 26 38
f 38 20 24
f 16 20 38
