# generated by collision_forge
v -0.005193 -0.229168 0.738078
v -0.005193 -0.217410 0.668039
v -0.005117 -0.229177 0.738078
v -0.005193 -0.153459 0.738078
v -0.004852 -0.217419 0.668039
v -0.005193 -0.143266 0.668039
v 0.072197 -0.146900 0.738078
v 0.072334 -0.146873 0.738058
v 0.004817 -0.217419 0.668039
v 0.004817 -0.229115 0.738078
v -0.005193 -0.143355 0.669074
v 0.072334 -0.138961 0.669074
v 0.072334 -0.138881 0.668039
v 0.072334 -0.147448 0.738078
v 0.072334 -0.146608 0.736453
v -0.005193 -0.149967 0.717586
v -0.005193 -0.151497 0.726828
v 0.013416 -0.217216 0.668039
v -0.005193 -0.144106 0.676314
v 0.072334 -0.141498 0.697951
v 0.072334 -0.140579 0.688325
v 0.072334 -0.212698 0.668039
v 0.072334 -0.223351 0.738078
v 0.072311 -0.145158 0.726766
v -0.005193 -0.148323 0.707570
v 0.016065 -0.228690 0.738078
v 0.024072 -0.216844 0.668039
v 0.072334 -0.142568 0.707570
v 0.072197 -0.223369 0.738078
v 0.054567 -0.225605 0.738078
v 0.052943 -0.225800 0.738078
v 0.043319 -0.226834 0.738078
v 0.068623 -0.213096 0.668039
v -0.005193 -0.146900 0.697951
v 0.024072 -0.228319 0.738078
v 0.033688 -0.216270 0.668039
v 0.072334 -0.143779 0.717031
v -0.005193 -0.145680 0.688716
v 0.033688 -0.227656 0.738078
v 0.043319 -0.215589 0.668039
v 0.052943 -0.214749 0.668039
v 0.025696 -0.228213 0.738078
f 8 17 4
f 7 14 8
f 8 4 7
f 30 31 22
f 22 31 32
f 34 24 37
f 13 6 12
f 6 21 12
f 1 2 3
f 29 22 23
f 29 30 22
f 42 36 39
f 42 35 36
f 37 24 15
f 38 37 28
f 38 34 37
f 11 20 21
f 11 21 6
f 9 18 10
f 10 3 9
f 27 35 26
f 26 10 27
f 10 18 27
f 36 35 27
f 22 32 33
f 32 41 33
f 40 32 39
f 40 41 32
f 39 36 40
f 24 34 25
f 25 15 24
f 28 20 19
f 20 11 19
f 19 38 28
f 5 3 2
f 5 9 3
f 15 25 16
f 8 15 16
f 16 17 8
f 23 14 42
f 42 4 1
f 14 7 42
f 42 29 23
f 39 32 42
f 1 3 42
f 42 7 4
f 42 10 26
f 31 30 42
f 42 32 31
f 26 35 42
f 42 3 10
f 30 29 42
f 8 14 15
f 15 22 13
f 15 14 23
f 23 22 15
f 15 20 28
f 28 37 15
f 13 12 15
f 15 12 21
f 21 20 15
f 13 22 5
f 2 6 5
f 5 6 13
f 36 27 5
f 5 40 36
f 22 33 5
f 18 9 5
f 5 27 18
f 5 33 41
f 41 40 5
f 1 4 16
f 16 2 1
f 16 4 17
f 16 6 2
f 16 11 6
f 34 38 16
f 38 19 16
f 16 25 34
f 16 19 11
