# generated by collision_forge
v 0.188205 -0.107537 0.515424
v 0.188205 -0.107537 0.490710
v 0.168940 -0.107537 0.515424
v 0.188205 -0.140334 0.515424
v 0.188205 -0.109957 0.490160
v 0.168940 -0.110711 0.488146
v 0.168940 -0.107537 0.489241
v 0.168940 -0.142068 0.515424
v 0.188205 -0.139753 0.513478
v 0.188205 -0.110714 0.490034
v 0.188205 -0.120261 0.489911
v 0.168940 -0.111059 0.488157
v 0.168940 -0.123361 0.493433
v 0.188205 -0.130318 0.495139
v 0.188205 -0.134327 0.501887
v 0.188205 -0.125484 0.491682
v 0.168940 -0.118547 0.488977
v 0.168940 -0.118777 0.489169
f 6 7 2
f 8 14 15
f 13 14 8
f 13 18 14
f 9 4 8
f 8 15 9
f 14 18 17
f 10 11 6
f 6 11 12
f 11 17 12
f 14 17 16
f 16 17 11
f 6 2 5
f 5 10 6
f 3 8 4
f 4 1 3
f 2 7 3
f 3 1 2
f 3 7 12
f 12 8 3
f 12 7 6
f 12 13 8
f 18 13 12
f 12 17 18
f 1 4 5
f 5 2 1
f 5 15 14
f 14 16 5
f 4 9 5
f 5 9 15
f 11 10 5
f 5 16 11
