# generated by collision_forge
v -0.078452 0.158768 0.510786
v -0.052946 0.158768 0.508078
v -0.078452 0.232483 0.485053
v -0.078452 0.158849 0.569513
v -0.024075 0.216613 0.486279
v -0.052946 0.226227 0.484894
v 0.015973 0.158768 0.556316
v 0.015973 0.158849 0.565649
v -0.024075 0.158768 0.506525
v 0.015973 0.158768 0.507204
v 0.015973 0.178099 0.565076
v -0.078452 0.245558 0.482177
v -0.078452 0.171625 0.569089
v -0.043313 0.245478 0.480166
v -0.078452 0.255207 0.481956
v -0.002026 0.230850 0.481295
v 0.015973 0.216613 0.485565
v 0.015973 0.215106 0.486120
v -0.078452 0.269421 0.486588
v -0.033689 0.262613 0.480695
v 0.015973 0.206987 0.561767
v -0.078452 0.206987 0.564961
v -0.078452 0.272066 0.488167
v -0.078452 0.274550 0.505414
v -0.024075 0.276252 0.495789
v 0.015973 0.261141 0.480686
v 0.015973 0.255103 0.479910
v 0.015973 0.221581 0.558406
v -0.078452 0.272756 0.511677
v 0.015973 0.272537 0.487003
v -0.004818 0.274826 0.505414
v 0.015973 0.275171 0.494413
v 0.015973 0.235852 0.552972
v -0.078452 0.230447 0.558150
v -0.078452 0.267178 0.525051
v -0.043313 0.269743 0.520208
v 0.015973 0.271364 0.514368
v 0.015973 0.269237 0.519185
v -0.078452 0.245719 0.549761
v 0.015973 0.252792 0.541433
v 0.015973 0.261543 0.531632
v -0.078452 0.255713 0.541071
f 1 7 4
f 25 24 31
f 36 37 31
f 23 24 25
f 36 35 41
f 10 9 18
f 18 9 17
f 32 31 37
f 25 31 32
f 1 3 2
f 29 35 36
f 29 31 24
f 36 31 29
f 38 37 36
f 36 41 38
f 42 41 35
f 17 16 27
f 27 16 14
f 14 20 27
f 27 20 26
f 30 23 25
f 25 32 30
f 26 20 30
f 30 20 23
f 9 2 5
f 17 9 5
f 5 16 17
f 15 20 14
f 14 12 15
f 11 13 4
f 6 2 3
f 6 5 2
f 16 5 6
f 14 16 6
f 3 12 6
f 6 12 14
f 23 20 19
f 20 15 19
f 8 4 7
f 8 11 4
f 28 22 21
f 21 22 13
f 13 11 21
f 39 33 40
f 40 42 39
f 41 42 40
f 34 33 39
f 28 33 34
f 34 22 28
f 2 10 7
f 2 7 1
f 2 9 10
f 37 38 40
f 7 10 40
f 26 30 40
f 40 18 17
f 40 32 37
f 10 18 40
f 17 27 40
f 40 38 41
f 28 21 40
f 40 27 26
f 40 30 32
f 40 8 7
f 40 33 28
f 11 8 40
f 40 21 11
f 34 12 3
f 1 4 34
f 24 23 34
f 34 3 1
f 4 13 34
f 34 29 24
f 23 19 34
f 39 42 34
f 35 29 34
f 34 42 35
f 34 15 12
f 13 22 34
f 34 19 15
