# generated by collision_forge
v 0.168362 -0.038331 0.520628
v 0.230093 -0.038331 0.520628
v 0.168362 -0.038331 0.575131
v 0.168362 0.041369 0.520628
v 0.230284 -0.038293 0.520628
v 0.168471 -0.038331 0.575151
v 0.237939 -0.024054 0.527791
v 0.235242 -0.038331 0.525493
v 0.233376 0.158768 0.520628
v 0.196244 0.139571 0.586773
v 0.168362 0.149102 0.582629
v 0.187370 0.158768 0.520628
v 0.237939 -0.014427 0.527658
v 0.237939 -0.038331 0.528306
v 0.237939 0.158729 0.532576
v 0.237939 0.085222 0.528420
v 0.237939 0.076290 0.527918
v 0.237939 0.067164 0.527664
v 0.237939 0.031742 0.527524
v 0.237939 0.020108 0.527491
v 0.237939 -0.003835 0.527511
v 0.168362 0.158652 0.582903
v 0.168362 0.158768 0.524971
v 0.237939 -0.038331 0.572732
v 0.237939 0.158768 0.532877
v 0.206978 0.139571 0.588022
v 0.193936 -0.038331 0.578493
v 0.178026 0.158768 0.584454
v 0.235855 -0.038331 0.574015
v 0.237939 0.158768 0.586793
v 0.195325 0.158768 0.586920
v 0.237939 0.016519 0.578386
v 0.237939 0.149199 0.587421
v 0.226232 0.129944 0.588644
v 0.216601 0.120336 0.587962
v 0.216601 0.158768 0.588577
v 0.231762 0.103763 0.587347
v 0.206978 -0.038331 0.579542
v 0.237939 0.083891 0.584634
v 0.223936 -0.038331 0.578159
v 0.237939 0.131758 0.587615
v 0.216601 -0.038331 0.579228
f 5 9 7
f 7 14 8
f 8 5 7
f 8 2 5
f 25 15 9
f 28 23 22
f 23 12 4
f 11 28 22
f 10 28 11
f 34 36 26
f 17 18 9
f 6 11 3
f 10 11 6
f 35 38 34
f 34 26 35
f 31 26 36
f 31 28 10
f 10 26 31
f 7 9 13
f 9 21 13
f 20 21 9
f 9 15 16
f 16 17 9
f 30 36 33
f 33 36 34
f 34 41 33
f 37 41 34
f 38 42 37
f 34 38 37
f 39 41 37
f 42 40 37
f 37 40 39
f 29 24 32
f 32 40 29
f 39 40 32
f 27 26 10
f 10 6 27
f 38 35 27
f 27 35 26
f 9 18 19
f 19 20 9
f 9 5 4
f 4 2 1
f 5 2 4
f 4 12 9
f 1 3 11
f 11 4 1
f 22 23 11
f 23 4 11
f 31 36 30
f 9 12 31
f 30 25 31
f 31 12 23
f 31 25 9
f 23 28 31
f 1 2 27
f 27 3 1
f 2 8 27
f 14 24 27
f 29 40 27
f 27 8 14
f 27 42 38
f 27 40 42
f 27 24 29
f 27 6 3
f 19 25 30
f 19 14 7
f 39 32 19
f 19 24 14
f 15 25 19
f 19 16 15
f 7 13 19
f 18 17 19
f 19 41 39
f 30 33 19
f 19 13 21
f 21 20 19
f 17 16 19
f 19 33 41
f 19 32 24
