# generated by collision_forge
v -0.122819 -0.107979 0.566653
v -0.099522 -0.128091 0.582417
v -0.062215 -0.128089 0.566653
v -0.189896 -0.107979 0.566653
v -0.146990 -0.107979 0.572006
v -0.178085 -0.111098 0.582417
v -0.167649 -0.113238 0.582417
v -0.062578 -0.128091 0.566716
v -0.189896 -0.128091 0.582417
v -0.064877 -0.128091 0.566653
v -0.189896 -0.128091 0.566653
v -0.189896 -0.107979 0.580735
v -0.188434 -0.107979 0.580950
v -0.188371 -0.109119 0.582417
v -0.189896 -0.109044 0.582417
f 3 1 2
f 3 2 8
f 7 2 1
f 3 8 10
f 15 13 12
f 14 13 15
f 14 5 13
f 5 14 6
f 1 5 6
f 6 7 1
f 10 1 3
f 4 1 10
f 10 11 4
f 2 9 10
f 10 8 2
f 10 9 11
f 4 11 12
f 12 9 15
f 11 9 12
f 5 1 4
f 4 12 5
f 5 12 13
f 6 9 2
f 2 7 6
f 15 9 6
f 6 14 15
