# generated by collision_forge
v -0.245010 0.203037 0.273594
v -0.237511 0.204301 0.273594
v -0.260018 0.211732 0.161936
v -0.250092 0.211722 0.124326
v -0.260615 0.211150 0.226215
v -0.269335 0.221514 0.024071
v -0.263416 0.220423 0.014464
v -0.250071 0.221267 0.018247
v -0.230303 0.211045 0.245482
v -0.231083 0.221561 0.164031
v -0.259857 0.211942 0.273594
v -0.269366 0.222312 0.158833
v -0.277343 0.235856 0.014464
v -0.249063 0.229743 -0.000911
v -0.240473 0.230692 0.027336
v -0.224789 0.216607 0.273594
v -0.230838 0.230152 0.141498
v -0.275628 0.245481 0.014464
v -0.270816 0.229485 -0.001156
v -0.240213 0.241896 0.016233
v -0.262226 0.226232 0.273594
v -0.249562 0.250991 -0.000585
v -0.269694 0.229884 0.175189
v -0.264736 0.255709 0.014464
v -0.264736 0.251657 -0.001184
v -0.255112 0.256611 0.014464
v -0.224550 0.226867 0.273594
v -0.231836 0.238973 0.168467
v -0.269450 0.240380 0.143267
v -0.269756 0.250498 0.059857
v -0.255112 0.255866 0.052972
v -0.259893 0.250293 0.134695
v -0.241803 0.248388 0.033704
v -0.228276 0.234361 0.273594
v -0.260002 0.232167 0.273594
v -0.259981 0.240721 0.221833
v -0.250606 0.250345 0.154969
v -0.250331 0.240684 0.269702
v -0.241460 0.249500 0.072212
v -0.242484 0.249443 0.120353
v -0.245638 0.241209 0.273594
v -0.234414 0.239356 0.273594
f 13 23 18
f 3 4 1
f 13 6 12
f 12 23 13
f 11 23 12
f 7 14 8
f 8 4 7
f 7 3 6
f 4 3 7
f 21 23 11
f 29 21 35
f 23 21 29
f 30 18 29
f 29 18 23
f 41 42 37
f 30 32 24
f 26 25 24
f 24 18 30
f 24 25 18
f 35 41 38
f 41 37 38
f 38 37 32
f 1 11 5
f 5 3 1
f 6 3 5
f 11 12 5
f 5 12 6
f 9 16 2
f 1 4 2
f 8 9 2
f 2 4 8
f 27 16 17
f 22 25 26
f 22 20 14
f 14 25 22
f 19 25 14
f 14 7 19
f 13 18 19
f 18 25 19
f 19 6 13
f 19 7 6
f 32 37 31
f 31 24 32
f 26 24 31
f 35 38 36
f 36 38 32
f 36 29 35
f 36 32 30
f 30 29 36
f 28 34 27
f 27 17 28
f 28 17 20
f 10 16 9
f 10 17 16
f 10 9 8
f 20 22 33
f 33 28 20
f 33 22 26
f 34 28 39
f 28 33 39
f 39 33 26
f 20 17 15
f 17 10 15
f 15 10 8
f 8 14 15
f 14 20 15
f 42 34 40
f 34 39 40
f 40 37 42
f 40 31 37
f 26 31 40
f 40 39 26
f 2 11 1
f 35 21 2
f 2 16 27
f 2 41 35
f 2 42 41
f 27 34 2
f 2 21 11
f 2 34 42
