# generated by collision_forge
v -0.099606 -0.107882 0.471703
v -0.126543 -0.107977 0.475400
v -0.099156 -0.105237 0.471703
v 0.002301 -0.107977 0.471703
v -0.126543 -0.107977 0.567100
v -0.091450 -0.100283 0.474355
v -0.126543 -0.101080 0.476838
v 0.004874 -0.107977 0.471787
v -0.126543 -0.081831 0.566325
v 0.004874 -0.107977 0.559022
v 0.004874 -0.081795 0.558509
v -0.081828 -0.099953 0.474205
v -0.126543 -0.095516 0.480406
v -0.110707 -0.095083 0.479696
v -0.101072 -0.094904 0.479378
v -0.126543 -0.097556 0.479005
v 0.004874 -0.105132 0.471703
v -0.120330 -0.081795 0.565596
v -0.126543 -0.081795 0.526199
v 0.004874 -0.081795 0.496000
v -0.091450 -0.094755 0.479173
v -0.072193 -0.099763 0.474065
v -0.072193 -0.103658 0.471703
v -0.126543 -0.081831 0.503825
v -0.101072 -0.081795 0.499847
v -0.092042 -0.081795 0.498521
v -0.062597 -0.081795 0.496616
v 0.004809 -0.094706 0.479108
v -0.004826 -0.094594 0.478930
v -0.014448 -0.094524 0.478837
v -0.014486 -0.081795 0.495869
v -0.081828 -0.094627 0.479014
v -0.072193 -0.094537 0.478874
v -0.062571 -0.094509 0.478818
v -0.062571 -0.099750 0.474000
v 0.004874 -0.100611 0.474270
v -0.014448 -0.099983 0.474018
v -0.024070 -0.094514 0.478827
v -0.033730 -0.081795 0.495879
v -0.043327 -0.094512 0.478818
v -0.033705 -0.094514 0.478818
v -0.004826 -0.104399 0.471703
f 9 5 11
f 11 5 10
f 18 9 11
f 9 18 19
f 2 3 1
f 36 28 20
f 7 3 2
f 24 19 25
f 25 13 24
f 2 1 4
f 35 23 22
f 12 23 3
f 3 6 12
f 22 23 12
f 12 21 22
f 3 7 16
f 16 6 3
f 13 6 16
f 13 25 26
f 8 4 17
f 20 28 29
f 29 30 20
f 20 30 31
f 27 39 33
f 14 26 27
f 13 26 14
f 14 6 13
f 23 35 37
f 35 30 37
f 30 29 37
f 28 36 37
f 37 29 28
f 38 31 30
f 38 30 35
f 32 21 27
f 27 33 32
f 22 21 32
f 32 33 22
f 34 33 39
f 39 31 34
f 34 31 40
f 40 35 34
f 34 35 22
f 22 33 34
f 27 21 15
f 15 14 27
f 21 12 15
f 15 12 6
f 6 14 15
f 23 37 42
f 36 17 42
f 42 37 36
f 41 35 40
f 41 38 35
f 40 31 41
f 31 38 41
f 4 5 2
f 8 10 4
f 4 10 5
f 2 5 16
f 5 9 16
f 9 19 16
f 24 13 16
f 16 19 24
f 16 7 2
f 17 10 8
f 11 10 17
f 17 20 11
f 17 36 20
f 11 20 31
f 31 39 27
f 31 18 11
f 31 19 18
f 31 25 19
f 27 26 31
f 31 26 25
f 3 23 42
f 42 1 3
f 42 4 1
f 42 17 4
