# generated by collision_forge
v -0.271526 -0.251920 0.024086
v -0.264736 -0.255314 0.004833
v -0.248741 -0.251707 0.014460
v -0.250697 -0.250196 0.047235
v -0.260075 -0.250338 0.058047
v -0.270733 -0.251396 -0.000982
v -0.249942 -0.250667 -0.000390
v -0.240771 -0.240378 0.052966
v -0.249981 -0.240796 0.106547
v -0.269380 -0.240529 0.086221
v -0.279323 -0.241027 0.020868
v -0.239536 -0.231999 0.129978
v -0.241419 -0.221328 0.201711
v -0.260086 -0.221532 0.193016
v -0.251228 -0.221657 0.203235
v -0.269621 -0.221523 0.154510
v -0.249948 -0.230649 -0.000361
v -0.240346 -0.230187 0.036479
v -0.231633 -0.219480 0.149203
v -0.232393 -0.201656 0.283974
v -0.245969 -0.203646 0.283974
v -0.260595 -0.193677 0.283974
v -0.269581 -0.202056 0.202445
v -0.278781 -0.233732 0.014460
v -0.271141 -0.229538 -0.001180
v -0.250345 -0.221435 0.019343
v -0.231024 -0.211723 0.134579
v -0.230119 -0.213127 0.197335
v -0.227414 -0.196840 0.283974
v -0.261522 -0.179123 0.283974
v -0.270034 -0.201078 0.178082
v -0.269989 -0.221115 0.018017
v -0.259169 -0.221159 0.008870
v -0.222848 -0.178981 0.283974
v -0.222395 -0.186968 0.283974
v -0.270761 -0.220457 0.024086
v -0.238932 -0.172565 0.247246
v -0.230711 -0.192104 0.190729
v -0.228034 -0.170353 0.283974
v -0.254508 -0.169767 0.283974
v -0.269749 -0.211607 0.075804
v -0.245108 -0.165093 0.283974
f 24 32 25
f 6 1 11
f 11 24 6
f 6 24 25
f 42 32 36
f 36 24 41
f 32 24 36
f 33 32 42
f 25 32 33
f 42 36 40
f 40 36 41
f 41 24 31
f 30 40 31
f 31 40 41
f 1 6 2
f 29 28 35
f 20 28 29
f 12 28 20
f 42 39 37
f 37 33 42
f 22 30 23
f 30 31 23
f 23 16 22
f 11 16 23
f 23 24 11
f 23 31 24
f 1 2 5
f 13 12 20
f 9 12 13
f 20 21 13
f 14 21 22
f 22 16 14
f 26 37 39
f 33 37 26
f 39 34 38
f 38 26 39
f 18 26 38
f 35 28 19
f 28 12 19
f 4 2 3
f 4 5 2
f 9 5 4
f 3 12 4
f 4 12 9
f 15 13 21
f 21 14 15
f 15 14 5
f 15 5 9
f 9 13 15
f 10 14 16
f 11 1 10
f 10 16 11
f 1 5 10
f 5 14 10
f 17 26 18
f 33 26 17
f 25 33 17
f 27 38 34
f 18 38 27
f 27 34 35
f 35 19 27
f 8 12 3
f 8 19 12
f 18 27 8
f 8 27 19
f 7 17 18
f 7 8 3
f 18 8 7
f 3 2 7
f 7 2 6
f 7 6 25
f 25 17 7
f 42 40 21
f 35 34 21
f 21 39 42
f 21 29 35
f 21 30 22
f 21 34 39
f 21 40 30
f 20 29 21
