# generated by collision_forge
v -0.189896 -0.107984 0.576729
v -0.189896 -0.107977 0.524077
v -0.215094 -0.107984 0.576729
v -0.189896 -0.180755 0.576729
v -0.189896 -0.107977 0.516776
v -0.216602 -0.107984 0.576465
v -0.194042 -0.179302 0.576729
v -0.189896 -0.180214 0.573108
v -0.229712 -0.107977 0.516776
v -0.242646 -0.107984 0.543921
v -0.241702 -0.107984 0.553693
v -0.241056 -0.107984 0.556129
v -0.239166 -0.107984 0.560255
v -0.237437 -0.107984 0.562526
v -0.232159 -0.107984 0.568911
v -0.225622 -0.107984 0.573214
v -0.189896 -0.140605 0.516776
v -0.222468 -0.114424 0.576729
v -0.240721 -0.115706 0.539002
v -0.238149 -0.139593 0.563171
v -0.236822 -0.139593 0.576729
v -0.233822 -0.129883 0.576729
v -0.230089 -0.123685 0.576729
v -0.189896 -0.154803 0.528861
v -0.206781 -0.171401 0.563001
v -0.226082 -0.129192 0.516776
v -0.225891 -0.129862 0.516776
v -0.237209 -0.139593 0.553540
v -0.235924 -0.149210 0.576729
v -0.204034 -0.141310 0.516776
v -0.189896 -0.157574 0.531425
v -0.220738 -0.163245 0.559773
v -0.231974 -0.145677 0.547243
v -0.231168 -0.154169 0.558101
v -0.189896 -0.164456 0.538234
v -0.220480 -0.167056 0.576729
v -0.210844 -0.163195 0.549473
v -0.222633 -0.154959 0.547472
v -0.189896 -0.172093 0.549326
v -0.231096 -0.158336 0.576729
v -0.215233 -0.139037 0.516776
v -0.189896 -0.167184 0.541978
f 5 9 2
f 1 2 3
f 11 9 10
f 10 20 11
f 11 20 21
f 15 16 9
f 15 23 16
f 10 9 19
f 19 27 28
f 19 20 10
f 28 20 19
f 28 27 33
f 16 23 18
f 12 13 9
f 9 11 12
f 21 13 12
f 12 11 21
f 9 13 14
f 14 15 9
f 23 15 22
f 15 14 22
f 22 13 21
f 22 14 13
f 26 19 9
f 27 19 26
f 24 30 17
f 24 31 30
f 41 30 35
f 30 31 35
f 35 42 41
f 42 39 37
f 41 42 37
f 37 25 32
f 39 25 37
f 21 20 29
f 29 20 28
f 6 18 3
f 16 18 6
f 9 16 6
f 6 2 9
f 6 3 2
f 8 25 39
f 36 40 32
f 32 25 36
f 41 37 38
f 38 37 32
f 38 27 41
f 38 33 27
f 40 29 34
f 34 29 28
f 28 33 34
f 32 40 34
f 34 38 32
f 33 38 34
f 7 36 25
f 7 8 4
f 25 8 7
f 5 17 26
f 26 9 5
f 41 27 26
f 26 30 41
f 17 30 26
f 8 2 1
f 1 4 8
f 8 17 5
f 5 2 8
f 42 35 8
f 8 24 17
f 8 39 42
f 31 24 8
f 8 35 31
f 7 4 1
f 3 18 7
f 1 3 7
f 21 29 7
f 7 22 21
f 7 18 23
f 23 22 7
f 7 29 40
f 40 36 7
