# generated by collision_forge
v 0.063398 -0.245488 0.966953
v 0.063398 -0.244225 0.957932
v -0.005215 -0.244090 0.967421
v 0.063398 -0.244225 0.833111
v -0.005215 -0.244090 0.808032
v 0.043313 -0.261116 0.963379
v 0.063398 -0.259991 0.962724
v 0.063356 -0.244225 0.824216
v 0.052929 -0.244225 0.819518
v 0.043313 -0.244225 0.816132
v 0.024067 -0.244225 0.811418
v 0.004807 -0.270135 0.902857
v -0.004823 -0.270138 0.902857
v 0.004807 -0.266348 0.960289
v 0.004807 -0.255113 0.965704
v 0.063398 -0.265019 0.900110
v 0.029294 -0.269585 0.904777
v -0.024056 -0.244090 0.810264
v 0.024067 -0.271068 0.955201
v -0.022281 -0.269742 0.904230
v -0.028710 -0.269538 0.904948
v 0.024067 -0.274723 0.928982
v -0.004823 -0.275659 0.928982
v -0.024056 -0.274804 0.928982
v -0.005215 -0.274512 0.948241
v 0.004807 -0.276187 0.938596
v 0.063398 -0.270568 0.948459
v 0.063398 -0.271847 0.939236
v -0.052946 -0.265807 0.900095
v -0.079390 -0.244090 0.966032
v -0.061779 -0.244090 0.823888
v -0.055965 -0.259692 0.962568
v -0.043316 -0.270301 0.954156
v -0.079390 -0.244090 0.832768
v -0.052946 -0.272278 0.928982
v -0.052946 -0.272869 0.938612
v -0.050654 -0.269921 0.953625
v -0.079390 -0.252436 0.963629
v -0.079390 -0.260418 0.893321
v -0.079390 -0.269032 0.931417
v -0.079390 -0.267212 0.948194
v -0.079390 -0.264566 0.909724
f 30 15 3
f 3 15 1
f 1 2 3
f 32 15 30
f 14 15 32
f 27 7 19
f 5 12 13
f 39 29 42
f 5 13 18
f 18 13 20
f 36 24 26
f 36 41 40
f 37 41 36
f 20 24 21
f 21 18 20
f 33 19 14
f 14 32 33
f 33 32 37
f 14 19 6
f 6 19 7
f 6 15 14
f 6 7 1
f 1 15 6
f 4 8 5
f 11 12 5
f 12 11 17
f 38 32 30
f 37 32 38
f 38 41 37
f 23 13 12
f 26 24 23
f 23 24 20
f 20 13 23
f 31 39 34
f 29 39 31
f 31 21 29
f 18 21 31
f 35 36 40
f 24 36 35
f 35 21 24
f 29 21 35
f 35 40 42
f 42 29 35
f 37 36 25
f 25 33 37
f 25 36 26
f 19 33 25
f 26 27 25
f 27 19 25
f 8 4 16
f 26 23 22
f 17 16 22
f 12 17 22
f 22 23 12
f 10 17 11
f 10 11 5
f 28 22 16
f 28 27 26
f 26 22 28
f 5 8 9
f 9 10 5
f 8 16 9
f 9 16 17
f 17 10 9
f 5 3 4
f 4 3 2
f 42 40 38
f 30 34 38
f 38 39 42
f 40 41 38
f 34 39 38
f 31 34 30
f 30 3 31
f 31 3 5
f 5 18 31
f 1 7 28
f 28 2 1
f 28 7 27
f 28 4 2
f 28 16 4
