# generated by collision_forge
v -0.216189 0.187647 0.494315
v -0.228035 0.185418 0.494337
v -0.240387 0.202049 0.277942
v -0.211441 0.191535 0.494337
v -0.236577 0.204498 0.273621
v -0.228815 0.209610 0.273621
v -0.248797 0.202500 0.293649
v -0.245003 0.203038 0.273621
v -0.208838 0.197509 0.494337
v -0.255943 0.208572 0.273621
v -0.245931 0.203439 0.273621
v -0.208743 0.198217 0.494337
v -0.224720 0.217346 0.273621
v -0.241657 0.191661 0.486148
v -0.241673 0.191732 0.476491
v -0.259853 0.211944 0.273621
v -0.208390 0.206980 0.494337
v -0.250283 0.202209 0.461864
v -0.261366 0.215798 0.273621
v -0.208516 0.207957 0.494337
v -0.224557 0.226862 0.273621
v -0.210445 0.213997 0.494337
v -0.247264 0.206980 0.494337
v -0.259663 0.214942 0.322535
v -0.262224 0.226225 0.273621
v -0.228277 0.234357 0.273621
v -0.214112 0.218812 0.494337
v -0.243976 0.217094 0.494337
v -0.250547 0.212432 0.473963
v -0.214834 0.219554 0.494337
v -0.260069 0.231271 0.280794
v -0.234416 0.239353 0.273621
v -0.218929 0.223068 0.494337
v -0.236303 0.223974 0.494337
v -0.242922 0.223348 0.476491
v -0.250115 0.221042 0.441145
v -0.251127 0.231759 0.361034
v -0.238843 0.241357 0.273621
v -0.226238 0.225648 0.494337
v -0.240988 0.231199 0.416040
v -0.245625 0.241203 0.273621
v -0.231265 0.231062 0.433562
f 1 4 2
f 3 8 5
f 2 8 3
f 3 1 2
f 5 1 3
f 7 8 2
f 6 13 4
f 6 1 5
f 4 1 6
f 4 13 9
f 17 13 21
f 37 31 36
f 36 35 37
f 37 35 40
f 34 35 28
f 34 40 35
f 11 7 10
f 8 7 11
f 25 19 24
f 19 16 24
f 24 16 18
f 12 13 17
f 12 9 13
f 22 21 26
f 26 27 22
f 37 40 41
f 41 31 37
f 25 31 41
f 39 33 42
f 42 33 38
f 42 34 39
f 40 34 42
f 38 41 42
f 42 41 40
f 32 33 26
f 38 33 32
f 30 27 26
f 26 33 30
f 2 23 14
f 14 23 18
f 18 16 14
f 29 23 28
f 28 35 29
f 35 36 29
f 18 23 29
f 29 24 18
f 25 24 29
f 29 31 25
f 29 36 31
f 17 21 20
f 21 22 20
f 15 7 2
f 2 14 15
f 10 7 15
f 15 16 10
f 15 14 16
f 32 19 25
f 10 16 32
f 5 8 32
f 26 21 32
f 32 11 10
f 32 6 5
f 25 41 32
f 13 6 32
f 32 21 13
f 8 11 32
f 32 16 19
f 32 41 38
f 20 34 28
f 20 12 17
f 2 4 20
f 20 33 39
f 20 23 2
f 4 9 20
f 27 30 20
f 39 34 20
f 28 23 20
f 9 12 20
f 20 22 27
f 20 30 33
