# generated by collision_forge
v 0.004874 -0.083529 0.495353
v 0.004874 -0.083529 0.558519
v 0.004874 -0.038367 0.496377
v 0.016709 -0.083529 0.495533
v 0.004874 -0.038331 0.558675
v 0.168929 -0.083529 0.573349
v 0.168929 -0.062570 0.574310
v 0.168929 -0.052955 0.574717
v 0.168929 -0.043327 0.575053
v 0.168929 -0.042858 0.575068
v 0.168929 -0.038331 0.575217
v 0.004874 -0.038331 0.557870
v 0.009467 -0.038331 0.496526
v 0.045502 -0.083529 0.496213
v 0.035915 -0.083529 0.495947
v 0.168929 -0.083529 0.510558
v 0.168929 -0.038331 0.513920
v 0.019086 -0.038331 0.496854
v 0.055057 -0.083529 0.496635
v 0.024080 -0.038331 0.497034
v 0.160883 -0.083529 0.509010
v 0.124960 -0.038331 0.507212
v 0.028721 -0.038331 0.497253
v 0.033715 -0.038331 0.497495
v 0.038340 -0.038331 0.497792
v 0.043318 -0.038331 0.498113
v 0.064596 -0.083529 0.497276
v 0.110700 -0.038331 0.505242
v 0.120335 -0.038331 0.506524
v 0.082068 -0.083529 0.499027
v 0.047959 -0.038331 0.498480
v 0.052953 -0.038331 0.498902
v 0.074135 -0.083529 0.498144
v 0.101081 -0.038331 0.504085
v 0.091462 -0.038331 0.503006
v 0.057594 -0.038331 0.499340
v 0.066378 -0.038331 0.500231
v 0.068594 -0.038331 0.500466
f 2 11 5
f 7 2 6
f 7 8 2
f 2 8 9
f 11 2 10
f 2 9 10
f 1 3 4
f 21 17 16
f 21 30 28
f 3 14 15
f 15 4 3
f 17 21 22
f 14 20 19
f 3 12 13
f 13 14 3
f 35 30 33
f 33 27 32
f 32 36 33
f 29 21 28
f 29 22 21
f 24 19 23
f 23 19 20
f 18 20 14
f 14 13 18
f 38 35 33
f 28 30 34
f 30 35 34
f 27 19 26
f 33 36 37
f 37 38 33
f 31 32 27
f 27 26 31
f 25 19 24
f 25 26 19
f 1 2 12
f 12 2 5
f 12 3 1
f 6 16 10
f 10 17 11
f 10 7 6
f 16 17 10
f 8 7 10
f 10 9 8
f 19 16 6
f 19 2 1
f 6 2 19
f 1 4 19
f 19 15 14
f 19 21 16
f 33 30 19
f 30 21 19
f 4 15 19
f 19 27 33
f 11 17 25
f 25 12 5
f 5 11 25
f 25 13 12
f 17 22 25
f 25 29 28
f 32 31 25
f 28 34 25
f 24 23 25
f 20 18 25
f 36 32 25
f 22 29 25
f 25 23 20
f 25 18 13
f 35 38 25
f 25 34 35
f 25 37 36
f 38 37 25
f 25 31 26
