# generated by collision_forge
v -0.180015 -0.038331 0.574271
v -0.182737 -0.038331 0.574640
v -0.180015 -0.081795 0.573717
v -0.180015 -0.038331 0.513056
v -0.192368 -0.038331 0.575897
v -0.197353 -0.081795 0.576126
v -0.180015 -0.081795 0.508976
v -0.190847 -0.038331 0.498089
v -0.197353 -0.038331 0.576504
v -0.205464 -0.038331 0.577340
v -0.210276 -0.038331 0.577744
v -0.206984 -0.081795 0.576654
v -0.189875 -0.081795 0.497060
v -0.194118 -0.081795 0.492250
v -0.195631 -0.038331 0.493279
v -0.211970 -0.049478 0.577630
v -0.216601 -0.081795 0.575748
v -0.198944 -0.081795 0.489269
v -0.199756 -0.052950 0.489770
v -0.200443 -0.038331 0.490166
v -0.217900 -0.038331 0.577173
v -0.226225 -0.038331 0.575634
v -0.226225 -0.081795 0.572749
v -0.207005 -0.081795 0.487906
v -0.206984 -0.038331 0.489761
v -0.232947 -0.081795 0.569328
v -0.213782 -0.072201 0.489814
v -0.212567 -0.038331 0.490570
v -0.238911 -0.038331 0.570050
v -0.218879 -0.081795 0.493402
v -0.215060 -0.038331 0.492400
v -0.245619 -0.038331 0.563146
v -0.241904 -0.081795 0.560200
v -0.222934 -0.081795 0.498239
v -0.222587 -0.038331 0.498942
v -0.249736 -0.038331 0.556393
v -0.244758 -0.081795 0.553543
v -0.247702 -0.038331 0.534724
v -0.250410 -0.049074 0.549155
v -0.246403 -0.081795 0.543914
v -0.244043 -0.081795 0.534285
v -0.250167 -0.038331 0.539069
f 42 40 39
f 22 23 17
f 30 27 24
f 34 35 30
f 40 42 41
f 36 42 39
f 29 23 22
f 32 36 33
f 33 29 32
f 28 25 24
f 24 27 28
f 38 35 34
f 34 41 38
f 38 41 42
f 22 17 21
f 6 10 11
f 9 10 6
f 6 5 9
f 6 3 1
f 24 19 18
f 18 19 14
f 24 25 20
f 20 19 24
f 23 29 26
f 29 33 26
f 39 40 37
f 37 36 39
f 37 33 36
f 27 30 31
f 31 28 27
f 31 30 35
f 11 21 16
f 16 21 17
f 16 6 11
f 2 6 1
f 5 6 2
f 8 13 14
f 8 4 7
f 7 13 8
f 12 16 17
f 6 16 12
f 15 8 14
f 14 19 15
f 19 20 15
f 3 7 4
f 1 3 4
f 3 6 12
f 12 7 3
f 12 13 7
f 40 41 12
f 23 26 12
f 12 30 24
f 12 17 23
f 14 13 12
f 34 30 12
f 12 41 34
f 24 18 12
f 12 37 40
f 12 18 14
f 12 26 33
f 33 37 12
f 1 4 15
f 42 36 15
f 15 38 42
f 15 29 22
f 22 21 15
f 15 31 35
f 11 10 15
f 25 28 15
f 9 5 15
f 15 10 9
f 15 36 32
f 32 29 15
f 15 20 25
f 35 38 15
f 15 21 11
f 15 2 1
f 28 31 15
f 5 2 15
f 4 8 15
