# generated by collision_forge
v -0.236823 -0.139594 0.576736
v -0.235918 -0.149211 0.582427
v -0.235481 -0.149211 0.592051
v -0.235215 -0.149211 0.596321
v -0.234622 -0.139594 0.596321
v -0.233818 -0.129889 0.576736
v -0.235931 -0.149211 0.576736
v -0.232812 -0.156683 0.582427
v -0.232054 -0.133102 0.596321
v -0.230088 -0.123690 0.576736
v -0.232697 -0.156369 0.576736
v -0.228898 -0.161499 0.582427
v -0.231140 -0.158820 0.596321
v -0.227773 -0.120302 0.576736
v -0.224088 -0.165590 0.582427
v -0.224346 -0.165890 0.596321
v -0.226473 -0.125893 0.596321
v -0.222476 -0.114425 0.576736
v -0.223537 -0.165166 0.576736
v -0.216600 -0.170216 0.582427
v -0.223794 -0.123039 0.596321
v -0.216591 -0.108701 0.576736
v -0.211345 -0.173085 0.582427
v -0.216531 -0.170969 0.596321
v -0.215195 -0.108021 0.576736
v -0.216435 -0.118040 0.596321
v -0.212144 -0.115749 0.596321
v -0.207656 -0.173941 0.576736
v -0.206531 -0.175185 0.582427
v -0.207463 -0.175741 0.596321
v -0.215089 -0.107977 0.576748
v -0.207022 -0.114227 0.596321
v -0.189896 -0.107977 0.576736
v -0.194040 -0.179306 0.576736
v -0.206581 -0.107977 0.581138
v -0.201050 -0.113451 0.596321
v -0.189896 -0.180755 0.576736
v -0.189896 -0.107977 0.580738
v -0.189896 -0.181487 0.581658
v -0.197352 -0.107977 0.582114
v -0.189896 -0.113283 0.596321
v -0.189896 -0.182738 0.596321
f 1 4 5
f 26 22 21
f 12 11 19
f 42 29 39
f 30 29 42
f 9 10 6
f 6 5 9
f 1 5 6
f 14 10 9
f 38 40 41
f 41 40 36
f 1 7 2
f 13 12 16
f 37 39 34
f 29 28 34
f 34 39 29
f 19 28 20
f 18 21 22
f 17 14 9
f 17 18 14
f 21 18 17
f 25 31 33
f 32 31 27
f 31 25 27
f 27 25 22
f 27 22 26
f 35 36 40
f 32 36 35
f 35 31 32
f 3 4 1
f 1 2 3
f 3 13 4
f 11 12 8
f 12 13 8
f 8 7 11
f 8 2 7
f 8 3 2
f 13 3 8
f 19 20 15
f 15 12 19
f 16 12 15
f 15 24 16
f 20 24 15
f 29 30 23
f 23 28 29
f 23 20 28
f 30 24 23
f 23 24 20
f 38 37 33
f 38 41 42
f 42 39 38
f 38 39 37
f 33 37 25
f 37 34 25
f 25 7 1
f 25 18 22
f 19 11 25
f 1 6 25
f 11 7 25
f 25 28 19
f 25 6 10
f 10 14 25
f 25 34 28
f 14 18 25
f 35 38 33
f 33 31 35
f 40 38 35
f 24 17 9
f 42 41 24
f 24 5 4
f 26 21 24
f 41 36 24
f 9 5 24
f 4 13 24
f 24 30 42
f 24 27 26
f 24 36 32
f 24 13 16
f 21 17 24
f 32 27 24
