# generated by collision_forge
v -0.177237 -0.143357 0.518330
v -0.183037 -0.143357 0.519253
v -0.189895 -0.136956 0.507860
v -0.189895 -0.135544 0.505420
v -0.189895 -0.131827 0.499180
v -0.177237 -0.128095 0.506013
v -0.177237 -0.143357 0.596321
v -0.189895 -0.139333 0.512643
v -0.187923 -0.143357 0.520624
v -0.189895 -0.142704 0.519457
v -0.189895 -0.129372 0.497508
v -0.186321 -0.128095 0.499082
v -0.177237 -0.128095 0.596321
v -0.189895 -0.143357 0.596321
v -0.189895 -0.143357 0.521236
v -0.189895 -0.128095 0.497012
v -0.188247 -0.128095 0.497780
v -0.189895 -0.128095 0.596321
f 5 6 1
f 4 1 3
f 4 5 1
f 6 5 12
f 11 12 5
f 3 1 2
f 17 11 16
f 12 11 17
f 15 10 9
f 10 2 9
f 3 2 8
f 8 2 10
f 13 7 1
f 1 6 13
f 18 14 13
f 13 14 7
f 17 13 6
f 18 13 17
f 17 16 18
f 6 12 17
f 1 7 9
f 7 14 9
f 14 15 9
f 9 2 1
f 8 4 3
f 18 16 8
f 8 14 18
f 5 4 8
f 8 11 5
f 8 15 14
f 8 10 15
f 16 11 8
