# generated by collision_forge
v -0.005205 -0.244083 0.808020
v -0.005205 -0.229460 0.739645
v -0.005205 -0.244083 0.967420
v -0.024068 -0.228997 0.739645
v -0.005205 -0.153750 0.739645
v -0.005205 -0.236241 0.967509
v -0.043505 -0.236041 0.967576
v -0.024068 -0.244083 0.967353
v -0.043505 -0.151363 0.739645
v -0.043505 -0.151381 0.739756
v -0.005205 -0.235851 0.967509
v -0.043505 -0.235851 0.967576
v -0.043505 -0.226229 0.965567
v -0.043505 -0.244083 0.967219
v -0.043318 -0.227482 0.739645
v -0.043318 -0.244083 0.816299
v -0.043505 -0.227464 0.739645
v -0.005205 -0.158751 0.765352
v -0.005205 -0.156845 0.755712
v -0.005205 -0.226992 0.965009
v -0.005205 -0.226619 0.964898
v -0.043318 -0.220683 0.963224
v -0.043505 -0.244083 0.816388
v -0.043505 -0.156382 0.765330
v -0.005205 -0.221999 0.962532
v -0.005205 -0.221800 0.962421
v -0.043505 -0.158552 0.775149
v -0.005205 -0.217406 0.957802
v -0.043318 -0.211234 0.953807
v -0.043505 -0.215863 0.958627
v -0.043505 -0.162836 0.792823
v -0.005205 -0.212405 0.952044
v -0.043505 -0.208112 0.948362
v -0.005205 -0.169998 0.813487
v -0.005205 -0.209773 0.947425
v -0.005205 -0.205606 0.938610
v -0.005205 -0.183332 0.864857
v -0.043505 -0.199979 0.928992
v -0.043505 -0.180917 0.861599
v -0.005205 -0.198871 0.919664
v -0.043505 -0.188732 0.890476
v -0.005205 -0.192073 0.896880
f 4 2 1
f 16 4 1
f 17 16 23
f 7 14 8
f 8 3 7
f 4 16 15
f 16 17 15
f 7 3 6
f 26 29 30
f 34 18 27
f 40 38 36
f 40 42 38
f 38 42 41
f 39 41 37
f 37 41 42
f 33 30 29
f 36 38 33
f 29 32 33
f 26 30 22
f 28 29 26
f 28 32 29
f 10 5 9
f 10 19 5
f 34 27 31
f 31 37 34
f 39 37 31
f 36 33 35
f 35 33 32
f 26 22 25
f 25 22 21
f 13 20 21
f 21 22 13
f 11 20 13
f 13 12 11
f 13 22 30
f 18 19 24
f 19 10 24
f 24 27 18
f 1 3 8
f 8 14 23
f 8 16 1
f 23 16 8
f 15 5 2
f 9 5 15
f 2 4 15
f 15 17 9
f 25 3 1
f 1 2 25
f 2 5 25
f 36 35 25
f 25 28 26
f 5 19 25
f 25 6 3
f 25 18 34
f 25 40 36
f 11 6 25
f 34 37 25
f 25 20 11
f 25 19 18
f 42 40 25
f 25 37 42
f 21 20 25
f 32 28 25
f 25 35 32
f 12 6 11
f 7 6 12
f 24 14 7
f 39 31 24
f 9 17 24
f 23 14 24
f 24 17 23
f 24 33 38
f 38 41 24
f 24 10 9
f 24 41 39
f 30 33 24
f 24 13 30
f 24 31 27
f 7 12 24
f 12 13 24
