# generated by collision_forge
v 0.245481 -0.257130 0.014465
v 0.237264 -0.253205 0.014465
v 0.250576 -0.250407 0.058337
v 0.241859 -0.250226 0.057322
v 0.230947 -0.221474 0.202485
v 0.231047 -0.240664 0.077037
v 0.245481 -0.252678 -0.001723
v 0.260977 -0.251354 -0.000860
v 0.266177 -0.245478 0.014465
v 0.259850 -0.250251 0.038342
v 0.219689 -0.204334 0.255110
v 0.229960 -0.242837 0.033699
v 0.230897 -0.241257 0.008959
v 0.238041 -0.245478 -0.001774
v 0.267505 -0.235859 0.014465
v 0.260205 -0.231374 0.117026
v 0.250436 -0.221524 0.193046
v 0.235862 -0.211879 0.255110
v 0.226753 -0.209625 0.255110
v 0.216623 -0.197355 0.255110
v 0.239374 -0.229753 -0.001038
v 0.265872 -0.226231 0.081833
v 0.251648 -0.203914 0.255110
v 0.260801 -0.230156 -0.000708
v 0.244955 -0.209082 0.255110
v 0.216643 -0.187728 0.255110
v 0.221348 -0.211493 0.152854
v 0.239920 -0.220890 0.017637
v 0.260756 -0.220660 0.024082
v 0.254273 -0.197355 0.255110
v 0.230616 -0.230148 0.024082
v 0.251653 -0.220972 0.008452
v 0.251307 -0.201684 0.102994
v 0.260185 -0.211542 0.075337
v 0.260075 -0.201873 0.168459
v 0.254399 -0.187728 0.255110
v 0.221167 -0.182642 0.239404
v 0.239419 -0.201577 0.103197
v 0.249589 -0.211690 0.047527
v 0.251773 -0.180996 0.255110
v 0.245090 -0.175730 0.255110
v 0.233046 -0.173302 0.255110
f 2 7 1
f 14 7 2
f 1 7 8
f 8 10 1
f 4 2 1
f 17 16 23
f 10 16 17
f 37 31 26
f 9 16 10
f 9 8 15
f 10 8 9
f 25 17 23
f 18 17 25
f 10 17 3
f 1 10 3
f 3 4 1
f 18 4 3
f 3 17 18
f 23 16 30
f 29 34 15
f 40 36 35
f 35 34 40
f 15 34 35
f 34 29 33
f 20 26 27
f 27 12 20
f 27 26 31
f 13 21 14
f 31 21 13
f 14 2 13
f 13 2 12
f 12 27 13
f 13 27 31
f 28 21 31
f 28 37 38
f 28 31 37
f 32 21 28
f 18 19 5
f 5 4 18
f 20 12 11
f 11 5 19
f 24 29 15
f 32 29 24
f 15 8 24
f 24 21 32
f 24 8 7
f 24 7 14
f 14 21 24
f 15 35 22
f 22 9 15
f 36 30 22
f 22 35 36
f 16 9 22
f 22 30 16
f 39 28 38
f 32 28 39
f 39 29 32
f 39 33 29
f 40 34 41
f 34 33 41
f 2 4 6
f 4 5 6
f 5 11 6
f 12 2 6
f 6 11 12
f 37 26 42
f 38 37 42
f 42 41 33
f 42 39 38
f 33 39 42
f 23 30 42
f 42 26 20
f 42 25 23
f 42 36 40
f 20 11 42
f 42 19 18
f 18 25 42
f 42 30 36
f 42 11 19
f 40 41 42
