# generated by collision_forge
v -0.214564 0.174973 0.499871
v -0.214402 0.174973 0.499871
v -0.211859 0.162147 0.500575
v -0.215697 0.158768 0.502184
v -0.218490 0.174973 0.501663
v -0.211706 0.162147 0.500575
v -0.211094 0.174973 0.500351
v -0.207877 0.158768 0.501674
v -0.215567 0.158768 0.502174
v -0.224010 0.158768 0.507331
v -0.223312 0.174973 0.504215
v -0.209532 0.174973 0.500830
v -0.206280 0.174973 0.501980
v -0.203616 0.158768 0.503879
v -0.224069 0.158768 0.507369
v -0.225887 0.174973 0.505862
v -0.203616 0.174973 0.503477
v -0.203616 0.165009 0.503703
v -0.203616 0.158768 0.516956
v -0.228346 0.158768 0.514977
v -0.228378 0.158768 0.515038
v -0.229910 0.174973 0.513444
v -0.203616 0.174973 0.516956
v -0.216177 0.158768 0.516956
v -0.229133 0.158795 0.516956
v -0.230962 0.174973 0.515904
v -0.231164 0.174973 0.516956
f 1 4 5
f 3 4 1
f 3 9 4
f 8 3 6
f 9 3 8
f 16 21 22
f 25 21 24
f 11 5 4
f 14 8 13
f 20 21 16
f 16 15 20
f 26 25 27
f 26 21 25
f 26 22 21
f 10 11 4
f 16 11 10
f 10 15 16
f 18 13 17
f 14 13 18
f 7 8 6
f 2 7 6
f 12 13 8
f 8 7 12
f 24 23 27
f 24 19 23
f 27 25 24
f 14 19 10
f 21 20 10
f 10 8 14
f 4 9 10
f 9 8 10
f 19 24 10
f 10 24 21
f 10 20 15
f 18 17 23
f 18 19 14
f 23 19 18
f 2 3 1
f 6 3 2
f 1 5 12
f 27 23 12
f 12 11 16
f 23 17 12
f 12 26 27
f 16 22 12
f 5 11 12
f 17 13 12
f 22 26 12
f 12 2 1
f 7 2 12
