# generated by collision_forge
v 0.187719 -0.120982 0.649763
v 0.168521 -0.121293 0.649763
v 0.203611 -0.124518 0.649763
v 0.149217 -0.124066 0.649763
v 0.147518 -0.125644 0.669076
v 0.184383 -0.124960 0.694647
v 0.193148 -0.124980 0.684948
v 0.204612 -0.133399 0.717201
v 0.072334 -0.139759 0.678697
v 0.158831 -0.129140 0.717201
v 0.214120 -0.142009 0.726823
v 0.220428 -0.135941 0.649763
v 0.072334 -0.137549 0.649763
v 0.139603 -0.130677 0.707571
v 0.187855 -0.131782 0.738070
v 0.206462 -0.138654 0.738070
v 0.223567 -0.140763 0.649763
v 0.176467 -0.131149 0.738070
v 0.217608 -0.149765 0.738070
v 0.222324 -0.152096 0.717201
v 0.226934 -0.149172 0.649763
v 0.072334 -0.210627 0.649815
v 0.072334 -0.145154 0.726745
v 0.140391 -0.135147 0.738070
v 0.147640 -0.133992 0.738070
v 0.072334 -0.223356 0.738070
v 0.091410 -0.208035 0.649763
v 0.073835 -0.223155 0.738070
v 0.072334 -0.147444 0.738070
v 0.222248 -0.169356 0.738070
v 0.227237 -0.158847 0.649763
v 0.126046 -0.202328 0.649763
v 0.219761 -0.171827 0.649763
v 0.217608 -0.179432 0.738070
v 0.120344 -0.215690 0.738070
v 0.214954 -0.175354 0.649763
v 0.206507 -0.189851 0.738070
v 0.149277 -0.209542 0.738070
v 0.195877 -0.184235 0.649763
v 0.187598 -0.198380 0.738070
v 0.178090 -0.190252 0.649763
v 0.174951 -0.202710 0.738070
f 5 13 9
f 22 13 27
f 10 25 18
f 15 6 18
f 18 6 10
f 24 23 29
f 7 6 15
f 7 3 1
f 1 6 7
f 12 3 8
f 8 7 15
f 3 7 8
f 31 21 30
f 9 23 14
f 14 5 9
f 10 5 14
f 23 24 14
f 14 24 25
f 14 25 10
f 2 6 1
f 10 6 2
f 2 5 10
f 41 38 32
f 12 8 11
f 31 30 34
f 19 30 20
f 20 30 21
f 21 17 20
f 20 11 19
f 20 17 12
f 12 11 20
f 13 5 4
f 5 2 4
f 42 38 41
f 40 42 39
f 39 42 41
f 37 40 39
f 39 36 37
f 35 32 38
f 27 32 35
f 16 8 15
f 16 11 8
f 19 11 16
f 31 34 33
f 33 34 37
f 37 36 33
f 27 35 28
f 26 22 28
f 22 27 28
f 23 22 26
f 9 13 23
f 26 29 23
f 23 13 22
f 1 3 33
f 33 27 13
f 33 21 31
f 33 39 41
f 33 3 12
f 13 4 33
f 33 2 1
f 41 32 33
f 12 17 33
f 33 32 27
f 33 17 21
f 33 4 2
f 36 39 33
f 28 29 26
f 28 16 15
f 38 42 28
f 15 18 28
f 28 24 29
f 28 40 37
f 28 18 25
f 25 24 28
f 28 30 19
f 37 34 28
f 28 34 30
f 28 42 40
f 28 35 38
f 19 16 28
