# generated by collision_forge
v -0.187718 -0.128245 0.739622
v -0.197341 -0.129812 0.739622
v -0.178094 -0.128288 0.739622
v -0.168470 -0.129311 0.739622
v -0.185793 -0.134342 0.771982
v -0.201509 -0.134981 0.759710
v -0.165258 -0.134981 0.769125
v -0.211089 -0.135312 0.739622
v -0.212262 -0.144009 0.771507
v -0.144983 -0.134885 0.750242
v -0.189613 -0.143775 0.806099
v -0.180641 -0.142901 0.806099
v -0.220149 -0.143402 0.739622
v -0.206965 -0.151247 0.806099
v -0.149223 -0.141238 0.784586
v -0.079412 -0.146290 0.739622
v -0.221451 -0.153986 0.770316
v -0.149382 -0.146461 0.806099
v -0.079412 -0.149424 0.755714
v -0.140714 -0.134086 0.739622
v -0.079412 -0.222511 0.739622
v -0.079412 -0.161063 0.806099
v -0.079412 -0.237125 0.806099
v -0.089209 -0.235654 0.806099
v -0.091915 -0.220550 0.739622
v -0.227225 -0.158846 0.739622
v -0.221683 -0.172170 0.806099
v -0.225894 -0.168471 0.739622
v -0.221567 -0.176412 0.806099
v -0.113217 -0.231433 0.806099
v -0.213173 -0.193935 0.806099
v -0.217674 -0.187721 0.806099
v -0.221046 -0.180025 0.806099
v -0.206618 -0.199105 0.806099
v -0.129961 -0.213260 0.739622
v -0.210843 -0.185184 0.739622
v -0.196256 -0.205596 0.806099
v -0.149324 -0.223375 0.806099
v -0.158832 -0.205980 0.739622
v -0.166300 -0.218280 0.806099
v -0.184259 -0.197815 0.739622
v -0.176097 -0.214805 0.806099
f 26 27 17
f 5 6 11
f 8 6 2
f 2 5 1
f 6 5 2
f 29 27 26
f 26 17 13
f 9 6 8
f 8 13 9
f 9 13 17
f 39 40 41
f 35 25 30
f 37 36 41
f 19 15 22
f 22 15 18
f 18 15 7
f 1 5 3
f 7 4 3
f 3 5 7
f 28 32 33
f 31 32 28
f 28 36 31
f 33 29 28
f 28 29 26
f 11 6 14
f 6 9 14
f 14 17 27
f 14 9 17
f 38 39 35
f 40 39 38
f 35 30 38
f 24 30 25
f 24 21 23
f 24 25 21
f 41 40 42
f 42 37 41
f 31 36 34
f 36 37 34
f 7 15 10
f 15 19 10
f 10 20 4
f 10 4 7
f 16 20 10
f 10 19 16
f 12 5 11
f 7 5 12
f 12 18 7
f 19 21 16
f 23 21 19
f 19 22 23
f 16 21 28
f 28 2 1
f 26 13 28
f 28 39 41
f 1 3 28
f 41 36 28
f 21 25 28
f 28 20 16
f 8 2 28
f 28 13 8
f 28 25 35
f 35 39 28
f 4 20 28
f 28 3 4
f 23 22 12
f 27 29 12
f 12 42 40
f 31 34 12
f 12 32 31
f 40 38 12
f 33 32 12
f 12 29 33
f 11 14 12
f 12 24 23
f 22 18 12
f 12 14 27
f 12 38 30
f 30 24 12
f 37 42 12
f 12 34 37
