# generated by collision_forge
v -0.245965 -0.203640 0.283974
v -0.240989 -0.192628 0.337374
v -0.232398 -0.201647 0.284011
v -0.230439 -0.183184 0.376607
v -0.241188 -0.183192 0.376442
v -0.227411 -0.196835 0.284011
v -0.211326 -0.154582 0.471703
v -0.250629 -0.183223 0.357276
v -0.255051 -0.199190 0.283974
v -0.260086 -0.192778 0.289670
v -0.208771 -0.149218 0.471703
v -0.214037 -0.156441 0.471703
v -0.226233 -0.160301 0.471703
v -0.231063 -0.158946 0.471703
v -0.240897 -0.154283 0.471703
v -0.250753 -0.164484 0.406744
v -0.220831 -0.184357 0.303250
v -0.207232 -0.139592 0.471703
v -0.243216 -0.149265 0.471703
v -0.259855 -0.181459 0.317087
v -0.250510 -0.154771 0.425083
v -0.209771 -0.131416 0.471703
v -0.221321 -0.182483 0.286988
v -0.221122 -0.172644 0.306080
v -0.261522 -0.179119 0.283974
v -0.260005 -0.173085 0.319311
v -0.244362 -0.139592 0.471703
v -0.222843 -0.178977 0.283974
v -0.212794 -0.128273 0.471703
v -0.228035 -0.170344 0.283974
v -0.259311 -0.174291 0.283974
v -0.251393 -0.152243 0.389874
v -0.214435 -0.126808 0.471703
v -0.231004 -0.163625 0.298325
v -0.250371 -0.153960 0.355567
v -0.245104 -0.165090 0.283974
v -0.250489 -0.163523 0.297774
v -0.242022 -0.133275 0.457259
v -0.239950 -0.163460 0.287943
v -0.242086 -0.153487 0.333956
v -0.232408 -0.124303 0.471703
v -0.226233 -0.123169 0.471703
f 25 10 20
f 25 20 26
f 21 26 20
f 40 36 37
f 30 36 39
f 39 36 40
f 40 42 39
f 11 17 18
f 7 17 11
f 23 24 18
f 18 17 23
f 12 13 4
f 12 3 7
f 4 3 12
f 5 13 14
f 14 15 5
f 15 8 5
f 9 8 10
f 9 10 25
f 1 5 9
f 9 5 8
f 27 21 19
f 16 8 15
f 15 19 16
f 16 19 21
f 10 8 16
f 16 20 10
f 16 21 20
f 31 37 36
f 35 37 31
f 25 26 31
f 18 24 22
f 22 24 30
f 41 38 27
f 35 38 41
f 41 42 40
f 40 37 41
f 41 37 35
f 27 38 32
f 32 21 27
f 26 21 32
f 32 38 35
f 35 31 32
f 32 31 26
f 34 33 30
f 30 39 34
f 42 33 34
f 34 39 42
f 30 24 28
f 24 23 28
f 6 17 7
f 7 3 6
f 6 23 17
f 6 28 23
f 1 28 6
f 6 3 1
f 4 13 2
f 13 5 2
f 2 5 1
f 1 3 2
f 2 3 4
f 30 33 29
f 29 22 30
f 25 31 28
f 28 9 25
f 28 36 30
f 1 9 28
f 28 31 36
f 29 12 7
f 27 19 29
f 29 11 18
f 29 15 14
f 18 22 29
f 14 13 29
f 29 33 42
f 7 11 29
f 13 12 29
f 29 19 15
f 29 41 27
f 42 41 29
