# generated by collision_forge
v 0.245486 0.120336 0.585119
v 0.245486 0.149199 0.585048
v 0.237942 0.149199 0.587416
v 0.254745 0.129944 0.580653
v 0.245486 0.158768 0.584241
v 0.237942 0.158768 0.586792
v 0.258880 0.110709 0.576482
v 0.259549 0.139571 0.577183
v 0.237942 0.158768 0.532876
v 0.237942 0.083891 0.584636
v 0.262644 0.129944 0.572400
v 0.261633 0.158768 0.570833
v 0.245486 0.081827 0.582126
v 0.250059 0.058848 0.577466
v 0.242694 -0.038331 0.569754
v 0.260023 0.066566 0.568134
v 0.264645 0.101081 0.563168
v 0.265835 0.120336 0.563168
v 0.265821 0.139571 0.563168
v 0.264216 0.158768 0.563239
v 0.249990 0.158768 0.539220
v 0.237942 0.076290 0.527915
v 0.237942 -0.038331 0.572729
v 0.239574 -0.038331 0.571716
v 0.245188 -0.038331 0.566715
v 0.250505 -0.038331 0.558791
v 0.263208 0.091454 0.553548
v 0.259946 0.038321 0.558278
v 0.264489 0.139571 0.553548
v 0.251901 0.101081 0.537924
v 0.260127 0.074669 0.548411
v 0.250464 -0.038331 0.548428
v 0.260692 0.091454 0.547562
v 0.261121 0.110709 0.547003
v 0.260986 0.149199 0.547226
v 0.260653 0.158768 0.547715
v 0.251909 0.091454 0.537789
v 0.237942 -0.036228 0.528186
v 0.240059 -0.038331 0.530378
v 0.250252 0.019876 0.539185
v 0.251752 0.072199 0.537695
v 0.240904 0.014455 0.529288
f 16 7 15
f 15 7 14
f 22 9 21
f 17 27 18
f 10 1 3
f 4 14 7
f 15 14 24
f 24 14 23
f 23 38 39
f 41 39 38
f 18 27 29
f 11 17 18
f 7 16 11
f 16 17 11
f 35 21 36
f 36 29 35
f 20 29 36
f 25 16 15
f 25 26 16
f 28 26 32
f 32 27 28
f 27 17 28
f 28 17 16
f 16 26 28
f 13 10 23
f 23 14 13
f 1 10 13
f 13 4 1
f 14 4 13
f 31 27 32
f 42 38 22
f 42 41 38
f 22 21 30
f 30 21 35
f 18 29 19
f 19 29 20
f 19 11 18
f 2 6 3
f 2 5 6
f 3 1 2
f 1 4 2
f 12 19 20
f 11 19 12
f 32 39 40
f 40 31 32
f 39 41 40
f 37 42 22
f 22 30 37
f 41 42 37
f 37 30 35
f 11 12 8
f 8 4 7
f 7 11 8
f 8 12 5
f 8 2 4
f 5 2 8
f 33 40 41
f 31 40 33
f 27 31 33
f 34 33 41
f 34 37 35
f 41 37 34
f 35 29 34
f 34 29 27
f 27 33 34
f 10 9 22
f 22 38 10
f 3 6 10
f 10 6 9
f 10 38 23
f 15 24 25
f 23 39 25
f 32 26 25
f 25 24 23
f 25 39 32
f 9 6 12
f 12 21 9
f 12 36 21
f 20 36 12
f 6 5 12
