# generated by collision_forge
v -0.005201 -0.244220 0.808588
v -0.005201 -0.229171 0.738078
v -0.005201 -0.244220 0.967404
v -0.005201 -0.153457 0.738078
v 0.004818 -0.244220 0.967449
v -0.005201 -0.236240 0.967517
v 0.063398 -0.148203 0.738078
v 0.021638 -0.244220 0.811037
v -0.005201 -0.235854 0.967517
v 0.063398 -0.151427 0.755717
v 0.063398 -0.224481 0.738078
v 0.016065 -0.228692 0.738078
v 0.063398 -0.235027 0.967494
v 0.063398 -0.235854 0.967606
v -0.005201 -0.226614 0.964910
v 0.063364 -0.244220 0.824227
v 0.063351 -0.244220 0.967067
v 0.063398 -0.225693 0.965697
v 0.063398 -0.220279 0.963472
v -0.005201 -0.221999 0.962528
v -0.005201 -0.160920 0.775333
v 0.063398 -0.155384 0.774187
v 0.044939 -0.226661 0.738078
v 0.062572 -0.244220 0.823845
v 0.063398 -0.244220 0.833103
v -0.005201 -0.221802 0.962416
v 0.063398 -0.157762 0.784613
v 0.063398 -0.215466 0.959023
v -0.005201 -0.217403 0.957810
v -0.005201 -0.173478 0.827575
v 0.063398 -0.210926 0.954214
v -0.005201 -0.212402 0.952035
v 0.063398 -0.164990 0.812700
v -0.005201 -0.209667 0.947226
v 0.063398 -0.207063 0.947676
v -0.005201 -0.205606 0.938620
v -0.005201 -0.190294 0.890468
v 0.063398 -0.175894 0.851977
v -0.005201 -0.201282 0.927026
v -0.005201 -0.193575 0.901995
v 0.063398 -0.198603 0.928150
v 0.063398 -0.195473 0.918847
f 1 2 8
f 23 11 16
f 14 17 25
f 16 11 25
f 5 17 14
f 12 8 2
f 35 41 36
f 35 32 31
f 3 5 6
f 14 9 6
f 6 5 14
f 36 41 39
f 7 4 10
f 8 12 24
f 24 12 23
f 24 23 16
f 26 19 28
f 20 19 26
f 15 19 20
f 18 15 9
f 18 19 15
f 31 32 29
f 29 28 31
f 26 28 29
f 34 35 36
f 32 35 34
f 42 38 40
f 40 39 42
f 42 39 41
f 22 10 21
f 21 10 4
f 27 30 33
f 27 21 30
f 22 21 27
f 33 30 37
f 37 38 33
f 40 38 37
f 13 9 14
f 13 18 9
f 2 4 12
f 12 4 7
f 7 11 12
f 11 23 12
f 24 3 1
f 1 8 24
f 24 5 3
f 16 25 24
f 24 25 17
f 17 5 24
f 1 3 37
f 37 2 1
f 37 4 2
f 26 29 37
f 37 34 36
f 3 6 37
f 36 39 37
f 9 15 37
f 37 20 26
f 37 6 9
f 37 39 40
f 37 21 4
f 15 20 37
f 37 29 32
f 32 34 37
f 30 21 37
f 13 11 7
f 13 27 33
f 14 25 13
f 41 35 13
f 31 28 13
f 13 25 11
f 13 42 41
f 7 10 13
f 13 35 31
f 33 38 13
f 13 10 22
f 13 28 19
f 19 18 13
f 38 42 13
f 22 27 13
