# generated by collision_forge
v 0.216609 0.158768 0.588578
v 0.211139 0.173636 0.587289
v 0.206979 0.158768 0.588146
v 0.238164 0.158849 0.586744
v 0.203701 0.197354 0.581988
v 0.203701 0.169489 0.587126
v 0.203701 0.158768 0.578065
v 0.235858 0.178106 0.584060
v 0.203701 0.158768 0.524649
v 0.251036 0.175336 0.578196
v 0.216609 0.204379 0.578641
v 0.234347 0.158768 0.524649
v 0.203701 0.250646 0.524649
v 0.258243 0.158768 0.575649
v 0.249667 0.181749 0.577158
v 0.240890 0.192776 0.577739
v 0.229879 0.201573 0.577314
v 0.203701 0.216602 0.573822
v 0.208123 0.248470 0.524649
v 0.260009 0.173573 0.568128
v 0.250852 0.193577 0.568710
v 0.232486 0.212933 0.568910
v 0.213960 0.222224 0.568622
v 0.237322 0.178106 0.524649
v 0.260625 0.158768 0.547665
v 0.264229 0.158849 0.563172
v 0.242105 0.213373 0.560049
v 0.238780 0.197354 0.524649
v 0.203701 0.248695 0.535143
v 0.221232 0.240573 0.538322
v 0.263233 0.158768 0.553547
v 0.259950 0.182990 0.558190
v 0.248612 0.209254 0.553547
v 0.230862 0.230931 0.548435
v 0.220491 0.230670 0.557840
v 0.211441 0.240555 0.548516
v 0.203701 0.233242 0.560694
v 0.236925 0.207887 0.524649
v 0.240380 0.218788 0.530062
v 0.250449 0.202769 0.538898
v 0.241500 0.222575 0.536483
v 0.225321 0.235509 0.524649
f 6 7 3
f 2 1 4
f 5 6 2
f 3 1 2
f 2 6 3
f 25 24 28
f 12 24 25
f 37 36 29
f 35 22 27
f 35 36 37
f 31 32 26
f 40 25 28
f 40 33 32
f 41 33 40
f 40 31 25
f 32 31 40
f 39 42 41
f 39 40 28
f 41 40 39
f 5 2 8
f 8 2 4
f 14 31 26
f 4 1 14
f 27 22 21
f 22 16 21
f 21 33 27
f 32 33 21
f 37 18 23
f 23 35 37
f 22 35 23
f 11 18 5
f 5 8 11
f 11 23 18
f 13 29 30
f 30 19 13
f 30 29 36
f 42 19 30
f 41 42 30
f 38 39 28
f 42 39 38
f 26 32 20
f 20 14 26
f 32 21 20
f 15 21 16
f 16 8 15
f 15 20 21
f 17 8 16
f 17 11 8
f 17 16 22
f 22 23 17
f 23 11 17
f 36 35 34
f 34 30 36
f 34 35 27
f 41 30 34
f 27 33 34
f 34 33 41
f 10 8 4
f 10 15 8
f 4 14 10
f 14 20 10
f 20 15 10
f 13 9 29
f 29 6 5
f 9 7 29
f 5 18 29
f 7 6 29
f 29 18 37
f 14 7 9
f 3 7 14
f 14 1 3
f 9 12 14
f 12 25 14
f 25 31 14
f 38 9 13
f 28 24 38
f 38 12 9
f 38 24 12
f 13 19 38
f 38 19 42
