# generated by collision_forge
v 0.203695 0.190139 0.512085
v 0.181952 0.190139 0.515511
v 0.181952 0.193643 0.513923
v 0.181952 0.197214 0.512312
v 0.181952 0.201557 0.510505
v 0.181952 0.203076 0.509958
v 0.181952 0.207359 0.508667
v 0.181952 0.212782 0.507291
v 0.181952 0.216326 0.506461
v 0.181952 0.226232 0.504897
v 0.181952 0.232001 0.504381
v 0.181952 0.235858 0.504045
v 0.203695 0.190139 0.583839
v 0.181952 0.190139 0.582392
v 0.181952 0.241627 0.503935
v 0.202631 0.241274 0.510036
v 0.203695 0.239548 0.510544
v 0.197351 0.197353 0.581962
v 0.183401 0.190139 0.582541
v 0.181952 0.245484 0.504006
v 0.193932 0.251046 0.509504
v 0.181952 0.205487 0.578700
v 0.181952 0.254284 0.507517
v 0.181952 0.257315 0.513297
v 0.181952 0.258188 0.515042
v 0.203695 0.249254 0.517967
v 0.197351 0.211203 0.577371
v 0.181952 0.257821 0.524685
v 0.187726 0.256409 0.524670
v 0.203695 0.250653 0.524670
v 0.181952 0.216606 0.574250
v 0.203695 0.216606 0.573827
v 0.202953 0.250640 0.530567
v 0.197351 0.224067 0.569839
v 0.181952 0.224540 0.569940
v 0.192851 0.250373 0.539257
v 0.203695 0.228297 0.565505
v 0.181952 0.248595 0.545842
v 0.181952 0.234905 0.561955
v 0.197351 0.242493 0.551137
v 0.181952 0.239721 0.557293
v 0.203695 0.241060 0.551020
f 1 9 10
f 25 30 26
f 26 21 25
f 1 6 7
f 25 21 24
f 21 23 24
f 20 23 21
f 3 1 2
f 3 4 1
f 5 6 1
f 1 4 5
f 8 9 1
f 1 7 8
f 1 10 11
f 11 12 1
f 26 17 16
f 21 26 16
f 16 20 21
f 15 20 16
f 16 12 15
f 16 17 1
f 1 12 16
f 13 18 19
f 37 42 40
f 40 41 37
f 34 32 37
f 14 19 22
f 22 19 18
f 41 40 38
f 35 34 39
f 37 41 39
f 39 34 37
f 27 22 18
f 13 32 27
f 27 18 13
f 32 34 27
f 27 34 35
f 31 27 35
f 22 27 31
f 25 28 29
f 29 30 25
f 33 42 30
f 30 29 33
f 36 29 28
f 36 33 29
f 36 28 38
f 42 33 36
f 36 40 42
f 36 38 40
f 42 13 1
f 42 32 13
f 1 17 42
f 42 26 30
f 37 32 42
f 42 17 26
f 1 13 19
f 2 1 19
f 19 14 2
f 2 14 31
f 15 12 31
f 6 5 31
f 14 22 31
f 31 11 10
f 31 10 9
f 25 24 31
f 31 20 15
f 31 3 2
f 31 7 6
f 9 8 31
f 31 24 23
f 23 20 31
f 31 39 41
f 4 3 31
f 31 5 4
f 31 8 7
f 12 11 31
f 31 28 25
f 41 38 31
f 35 39 31
f 38 28 31
