# generated by collision_forge
v -0.099470 -0.107979 0.471712
v -0.091463 -0.113303 0.472074
v -0.110699 -0.110710 0.473069
v 0.002300 -0.107979 0.471712
v -0.129955 -0.118901 0.478599
v -0.139583 -0.118309 0.479129
v -0.149211 -0.117633 0.479686
v -0.081835 -0.114459 0.471888
v -0.158839 -0.116779 0.480374
v -0.149211 -0.110710 0.477474
v 0.004855 -0.107979 0.471786
v -0.120327 -0.119398 0.478069
v -0.189877 -0.128091 0.497020
v -0.081835 -0.113148 0.471712
v -0.081835 -0.120028 0.476703
v -0.101071 -0.119868 0.477168
v -0.072207 -0.114601 0.471888
v -0.189877 -0.118840 0.488163
v -0.165798 -0.116034 0.480969
v -0.174263 -0.107979 0.481043
v 0.004855 -0.107979 0.559022
v -0.004830 -0.108776 0.471712
v -0.189877 -0.128091 0.566643
v -0.101071 -0.124683 0.483060
v -0.091463 -0.124773 0.482726
v -0.081835 -0.124840 0.482595
v -0.057031 -0.128091 0.492522
v -0.072207 -0.120002 0.476703
v -0.004830 -0.112263 0.472604
v 0.004855 -0.118974 0.477474
v -0.189877 -0.110710 0.484780
v -0.172204 -0.114231 0.481601
v 0.004855 -0.128091 0.563744
v -0.122806 -0.107979 0.566643
v -0.189877 -0.107979 0.566643
v -0.064886 -0.128091 0.566643
v -0.072207 -0.124817 0.482781
v -0.047536 -0.128091 0.492717
v 0.004855 -0.128091 0.494343
v -0.189877 -0.108538 0.484845
v -0.062217 -0.128089 0.566643
v -0.189877 -0.107979 0.484910
f 13 26 27
f 33 41 36
f 33 21 34
f 34 41 33
f 25 26 13
f 13 24 25
f 16 25 24
f 39 37 30
f 26 37 38
f 38 27 26
f 38 37 39
f 3 10 1
f 12 16 24
f 12 24 13
f 11 30 29
f 29 30 17
f 29 4 11
f 17 30 28
f 28 37 26
f 28 30 37
f 1 14 2
f 2 3 1
f 10 3 9
f 13 18 9
f 31 32 18
f 13 6 5
f 5 12 13
f 6 2 5
f 22 29 17
f 4 29 22
f 17 14 22
f 17 28 15
f 15 28 26
f 26 25 15
f 25 16 15
f 16 12 8
f 12 5 8
f 8 5 2
f 17 15 8
f 8 15 16
f 8 14 17
f 8 2 14
f 19 32 10
f 10 9 19
f 18 32 19
f 19 9 18
f 3 2 7
f 7 9 3
f 7 2 6
f 7 6 13
f 13 9 7
f 1 10 20
f 10 32 20
f 32 31 20
f 42 20 40
f 40 20 31
f 34 35 23
f 23 36 34
f 34 36 41
f 33 39 30
f 11 21 30
f 30 21 33
f 13 27 38
f 38 23 13
f 38 39 33
f 38 36 23
f 33 36 38
f 1 4 22
f 22 14 1
f 20 42 35
f 35 34 20
f 11 4 20
f 20 21 11
f 20 34 21
f 20 4 1
f 13 23 40
f 23 35 40
f 35 42 40
f 40 18 13
f 40 31 18
