# generated by collision_forge
v 0.168952 -0.188033 0.583092
v 0.178108 -0.185582 0.583092
v 0.168952 -0.186819 0.573262
v 0.169090 -0.113980 0.583092
v 0.168952 -0.107541 0.575011
v 0.168952 -0.107533 0.529031
v 0.178755 -0.107541 0.575799
v 0.168952 -0.107533 0.515431
v 0.196785 -0.107541 0.576905
v 0.187730 -0.112128 0.583092
v 0.225737 -0.107533 0.515431
v 0.206974 -0.107541 0.576541
v 0.216363 -0.107541 0.575309
v 0.219597 -0.107541 0.574534
v 0.226224 -0.107541 0.572162
v 0.232896 -0.107541 0.569267
v 0.237707 -0.107541 0.564816
v 0.241696 -0.107541 0.560000
v 0.243186 -0.107541 0.553548
v 0.239938 -0.107541 0.540630
v 0.168952 -0.142074 0.515431
v 0.168952 -0.181729 0.553157
v 0.202279 -0.173320 0.558257
v 0.212082 -0.173415 0.576753
v 0.225469 -0.120339 0.515431
v 0.216319 -0.119370 0.583092
v 0.228346 -0.130253 0.583092
v 0.234516 -0.149206 0.583092
v 0.241260 -0.118393 0.547473
v 0.224444 -0.129347 0.515431
v 0.206974 -0.142720 0.515431
v 0.191545 -0.172926 0.549440
v 0.221682 -0.163824 0.557999
v 0.232896 -0.157409 0.583092
v 0.235679 -0.149206 0.563166
v 0.232300 -0.146345 0.546731
v 0.218158 -0.139237 0.515431
v 0.216399 -0.140576 0.515431
v 0.168952 -0.164565 0.528686
v 0.168952 -0.159143 0.524672
v 0.168952 -0.170152 0.534728
v 0.224989 -0.166330 0.583092
f 1 4 5
f 11 8 6
f 13 11 6
f 19 28 35
f 38 39 31
f 28 17 27
f 18 28 19
f 18 17 28
f 19 11 18
f 11 17 18
f 26 13 10
f 10 5 4
f 14 13 26
f 11 13 14
f 24 42 2
f 33 42 24
f 36 35 33
f 41 39 38
f 19 35 29
f 29 35 36
f 36 30 29
f 34 35 28
f 42 33 34
f 34 33 35
f 37 30 36
f 37 33 38
f 36 33 37
f 21 31 40
f 40 31 39
f 26 27 16
f 16 27 17
f 16 17 11
f 3 2 1
f 24 2 3
f 22 41 32
f 32 41 38
f 20 29 30
f 20 11 19
f 19 29 20
f 12 10 13
f 12 9 10
f 12 13 6
f 6 9 12
f 6 5 7
f 7 9 6
f 5 10 7
f 10 9 7
f 15 14 26
f 26 16 15
f 11 14 15
f 15 16 11
f 23 3 22
f 24 3 23
f 22 32 23
f 23 33 24
f 38 33 23
f 23 32 38
f 11 20 25
f 25 20 30
f 28 27 34
f 34 4 1
f 34 10 4
f 1 2 34
f 34 27 26
f 26 10 34
f 34 2 42
f 6 8 3
f 1 5 3
f 3 5 6
f 8 21 3
f 39 41 3
f 3 40 39
f 3 41 22
f 21 40 3
f 25 21 8
f 8 11 25
f 38 31 25
f 25 37 38
f 25 31 21
f 30 37 25
