# generated by collision_forge
v 0.004890 -0.105057 0.471712
v 0.004890 -0.108784 0.471976
v 0.004890 -0.100609 0.474281
v 0.033701 -0.101081 0.475286
v 0.011715 -0.105591 0.471712
v 0.011844 -0.106555 0.471712
v 0.013690 -0.108784 0.472240
v 0.004890 -0.108784 0.559052
v 0.004890 -0.094750 0.479085
v 0.014445 -0.094819 0.479308
v 0.024081 -0.094953 0.479501
v 0.033701 -0.095121 0.479745
v 0.043336 -0.095397 0.480100
v 0.043336 -0.101081 0.475865
v 0.081831 -0.108784 0.476718
v 0.060649 -0.108784 0.475053
v 0.051029 -0.108784 0.474322
v 0.091435 -0.102761 0.479146
v 0.004890 -0.083538 0.558514
v 0.168922 -0.108784 0.575464
v 0.004890 -0.083538 0.495365
v 0.016710 -0.083538 0.495537
v 0.035901 -0.083538 0.495954
v 0.045504 -0.083538 0.496218
v 0.055060 -0.083538 0.496634
v 0.064599 -0.083538 0.497274
v 0.052956 -0.095783 0.480649
v 0.074122 -0.083538 0.498137
v 0.091435 -0.108784 0.477572
v 0.101070 -0.103579 0.479735
v 0.060006 -0.096082 0.481085
v 0.066430 -0.096371 0.481573
v 0.168922 -0.083541 0.573341
v 0.168922 -0.108784 0.488814
v 0.082056 -0.083538 0.499041
v 0.110706 -0.104573 0.480415
v 0.160892 -0.083541 0.509014
v 0.168922 -0.083541 0.510568
v 0.168922 -0.104845 0.490155
v 0.126493 -0.108784 0.481898
v 0.117435 -0.105364 0.480974
v 0.110706 -0.108784 0.479643
f 20 19 8
f 33 19 20
f 38 39 37
f 38 37 35
f 35 33 38
f 19 33 35
f 32 37 30
f 22 9 21
f 6 2 1
f 31 37 32
f 31 35 37
f 36 37 39
f 36 30 37
f 29 30 36
f 23 24 9
f 9 22 23
f 28 13 26
f 2 6 7
f 7 6 17
f 5 6 1
f 17 6 5
f 27 14 13
f 27 31 14
f 27 13 28
f 28 35 27
f 35 31 27
f 14 31 18
f 18 5 14
f 32 30 18
f 18 31 32
f 25 26 12
f 12 26 13
f 41 39 34
f 41 36 39
f 34 40 41
f 29 36 41
f 1 3 4
f 4 5 1
f 14 5 4
f 3 12 4
f 13 14 4
f 4 12 13
f 15 30 29
f 15 18 30
f 5 18 15
f 11 12 3
f 24 25 11
f 25 12 11
f 29 41 42
f 42 41 40
f 17 5 16
f 5 15 16
f 10 3 9
f 10 11 3
f 9 24 10
f 24 11 10
f 38 33 39
f 20 34 39
f 39 33 20
f 1 2 3
f 3 8 19
f 2 8 3
f 19 21 3
f 21 9 3
f 26 21 19
f 19 35 26
f 26 22 21
f 26 35 28
f 24 23 26
f 26 25 24
f 26 23 22
f 16 8 2
f 20 8 16
f 16 34 20
f 16 40 34
f 2 7 16
f 16 15 29
f 16 7 17
f 29 42 16
f 16 42 40
