# generated by collision_forge
v -0.234681 -0.024054 0.520007
v -0.222300 0.014455 0.499560
v -0.222590 -0.038331 0.498935
v -0.234676 -0.029669 0.520007
v -0.230329 0.158768 0.520007
v -0.228380 0.158768 0.515036
v -0.224070 0.158768 0.507367
v -0.222184 0.024082 0.499738
v -0.217374 -0.038331 0.494124
v -0.220156 -0.038331 0.496617
v -0.234529 -0.038331 0.520007
v -0.186220 0.158768 0.520007
v -0.215693 0.158768 0.502186
v -0.221389 0.057459 0.500623
v -0.212558 -0.038331 0.490571
v -0.215056 -0.038331 0.492392
v -0.180862 -0.038331 0.520007
v -0.180862 0.058617 0.520007
v -0.180862 0.053446 0.518207
v -0.180862 0.036796 0.516356
v -0.191779 0.004828 0.499652
v -0.193280 0.158768 0.511240
v -0.215561 0.158768 0.502174
v -0.212168 0.137796 0.500478
v -0.211178 -0.019752 0.490998
v -0.212037 -0.026157 0.490850
v -0.212369 -0.033682 0.490678
v -0.209771 -0.038331 0.490107
v -0.180862 -0.038331 0.512857
v -0.180862 0.027323 0.515649
v -0.191052 -0.024054 0.498512
v -0.195625 -0.038331 0.493272
v -0.195894 -0.033682 0.493381
v -0.198091 0.158768 0.506731
v -0.207874 0.158768 0.501674
v -0.206979 -0.038331 0.489760
v -0.190851 -0.038331 0.498086
v -0.180862 0.008397 0.514467
v -0.200440 -0.038331 0.490163
v -0.200704 -0.033682 0.490308
v -0.201426 -0.024054 0.490645
v -0.201947 -0.018054 0.490876
f 1 5 6
f 1 2 3
f 7 2 1
f 1 6 7
f 4 3 11
f 1 3 4
f 36 40 39
f 37 38 29
f 22 12 21
f 20 21 12
f 13 14 7
f 22 21 34
f 10 3 2
f 2 9 10
f 2 7 8
f 7 14 8
f 8 14 15
f 15 16 8
f 8 16 9
f 8 9 2
f 12 18 19
f 19 20 12
f 21 20 30
f 41 34 40
f 41 40 36
f 36 42 41
f 35 34 41
f 41 42 35
f 37 32 31
f 31 32 21
f 21 30 31
f 31 30 38
f 31 38 37
f 33 32 39
f 33 39 40
f 40 34 33
f 33 34 21
f 21 32 33
f 36 25 24
f 24 42 36
f 35 42 24
f 24 23 35
f 13 23 24
f 24 25 13
f 36 28 26
f 26 25 36
f 13 25 26
f 27 28 15
f 27 26 28
f 15 14 27
f 14 13 27
f 13 26 27
f 1 4 18
f 18 5 1
f 18 11 17
f 18 12 5
f 18 4 11
f 30 18 17
f 17 29 30
f 30 29 38
f 30 19 18
f 20 19 30
f 17 11 28
f 36 39 28
f 28 32 37
f 11 3 28
f 28 29 17
f 28 16 15
f 37 29 28
f 3 10 28
f 28 10 9
f 9 16 28
f 39 32 28
f 5 12 23
f 23 12 22
f 23 6 5
f 23 7 6
f 23 13 7
f 22 34 23
f 23 34 35
