# generated by collision_forge
v 0.004874 -0.108784 0.471971
v 0.004874 -0.111671 0.472663
v 0.004874 -0.108784 0.559052
v 0.052956 -0.119552 0.477854
v 0.004874 -0.133181 0.570174
v 0.136353 -0.108784 0.570174
v 0.043336 -0.110712 0.473403
v 0.004874 -0.118979 0.477469
v 0.043336 -0.119428 0.477642
v 0.062592 -0.119512 0.478181
v 0.081847 -0.123990 0.483593
v 0.004874 -0.134706 0.570174
v 0.168938 -0.108784 0.570174
v 0.052956 -0.110712 0.473932
v 0.081847 -0.119182 0.478883
v 0.004874 -0.134706 0.500511
v 0.062592 -0.124325 0.483843
v 0.013514 -0.134706 0.499233
v 0.091451 -0.123655 0.483862
v 0.130267 -0.134706 0.505346
v 0.110706 -0.134706 0.504029
v 0.168938 -0.134706 0.570174
v 0.168938 -0.108784 0.488812
v 0.062592 -0.110712 0.474634
v 0.101054 -0.118271 0.479728
v 0.141942 -0.124998 0.491408
v 0.139581 -0.134706 0.506384
v 0.168938 -0.134706 0.511969
v 0.060681 -0.108784 0.475057
v 0.127488 -0.116010 0.481093
v 0.120326 -0.116695 0.480719
v 0.110706 -0.117538 0.480219
v 0.149185 -0.119908 0.487284
v 0.149185 -0.124719 0.492061
v 0.158515 -0.134706 0.508720
v 0.124582 -0.108784 0.481584
v 0.168938 -0.111060 0.488159
v 0.127488 -0.113912 0.481093
v 0.081847 -0.110712 0.476162
v 0.168938 -0.118545 0.488976
v 0.168938 -0.123354 0.493436
v 0.119394 -0.108784 0.480747
f 6 3 5
f 11 17 4
f 29 42 39
f 1 29 14
f 14 7 1
f 18 17 11
f 16 8 18
f 8 17 18
f 15 14 25
f 7 14 15
f 1 7 2
f 7 4 2
f 40 30 37
f 11 20 21
f 21 18 11
f 35 41 28
f 25 32 33
f 32 31 33
f 40 41 33
f 33 30 40
f 33 31 30
f 11 4 10
f 10 15 11
f 10 4 7
f 7 15 10
f 8 2 9
f 9 2 4
f 9 17 8
f 9 4 17
f 23 37 36
f 36 37 42
f 42 37 38
f 38 37 30
f 39 42 38
f 38 30 39
f 24 31 32
f 25 14 24
f 24 32 25
f 24 29 39
f 24 14 29
f 39 30 24
f 30 31 24
f 25 33 26
f 20 26 27
f 27 26 35
f 19 20 11
f 19 26 20
f 25 26 19
f 19 15 25
f 11 15 19
f 41 35 34
f 35 26 34
f 34 33 41
f 34 26 33
f 6 5 12
f 6 22 13
f 12 22 6
f 12 5 2
f 2 3 1
f 5 3 2
f 2 16 12
f 2 8 16
f 37 23 13
f 13 22 37
f 37 22 28
f 28 41 37
f 37 41 40
f 1 3 36
f 36 6 13
f 13 23 36
f 3 6 36
f 36 29 1
f 42 29 36
f 12 16 27
f 28 22 27
f 27 22 12
f 27 21 20
f 16 18 27
f 18 21 27
f 27 35 28
