# generated by collision_forge
v -0.180862 -0.038327 0.512867
v -0.179998 -0.081795 0.508976
v -0.180862 -0.038327 0.574380
v -0.168604 -0.081795 0.507527
v -0.179998 -0.081795 0.573709
v -0.180862 0.008405 0.514474
v -0.180862 0.017862 0.515020
v -0.101099 0.004843 0.504082
v -0.180862 0.110693 0.582122
v -0.092063 -0.081795 0.498526
v -0.082791 -0.081795 0.561836
v -0.180862 0.120328 0.582544
v -0.180862 0.027299 0.515658
v -0.101099 0.014459 0.504728
v -0.091474 0.024054 0.504248
v -0.091474 0.004843 0.503022
v -0.082791 -0.081736 0.497955
v -0.080522 -0.004792 0.501333
v -0.082791 -0.081795 0.555179
v -0.080522 -0.038327 0.563011
v -0.080522 0.102561 0.568725
v -0.180862 0.120328 0.523002
v -0.080522 0.110693 0.569039
v -0.080522 0.111860 0.569072
v -0.080522 0.120249 0.569288
v -0.080522 0.120328 0.569288
v -0.101099 0.033690 0.506111
v -0.101099 0.024054 0.505399
v -0.180862 0.036796 0.516370
v -0.080522 0.004883 0.501847
v -0.080522 -0.038327 0.499975
v -0.120340 0.120328 0.515956
v -0.091474 0.072191 0.508115
v -0.091474 0.062536 0.507254
v -0.101099 0.043285 0.506873
v -0.080522 0.043285 0.504496
v -0.081848 0.062536 0.506202
v -0.080522 0.120249 0.511609
v -0.081652 0.120328 0.511725
v -0.091474 0.120328 0.512727
v -0.091208 0.100840 0.510797
v -0.080522 0.081807 0.507858
f 18 17 10
f 9 3 5
f 9 5 12
f 31 17 18
f 12 5 11
f 19 10 17
f 17 31 19
f 39 26 38
f 10 4 8
f 8 4 2
f 12 23 24
f 12 11 21
f 21 23 12
f 21 11 20
f 42 39 38
f 18 10 16
f 10 8 16
f 7 8 2
f 13 29 27
f 22 32 33
f 33 34 22
f 25 26 12
f 12 24 25
f 37 42 36
f 37 36 34
f 34 33 37
f 37 33 42
f 18 16 30
f 6 2 1
f 6 7 2
f 13 27 28
f 22 34 35
f 34 27 35
f 35 29 22
f 35 27 29
f 41 33 32
f 39 42 41
f 42 33 41
f 36 30 15
f 15 30 16
f 15 28 27
f 15 16 8
f 34 36 15
f 15 27 34
f 39 41 40
f 40 41 32
f 14 15 8
f 28 15 14
f 13 28 14
f 14 7 13
f 8 7 14
f 1 2 3
f 3 2 5
f 5 2 19
f 19 11 5
f 2 4 19
f 19 4 10
f 19 31 20
f 20 11 19
f 30 31 18
f 30 42 38
f 20 31 30
f 38 26 30
f 26 25 30
f 30 21 20
f 30 24 23
f 23 21 30
f 36 42 30
f 30 25 24
f 12 22 6
f 1 3 6
f 22 29 6
f 6 9 12
f 3 9 6
f 6 29 13
f 13 7 6
f 40 22 12
f 12 26 40
f 26 39 40
f 40 32 22
