# generated by collision_forge
v -0.244367 -0.139589 0.471703
v -0.244087 -0.144416 0.471703
v -0.241980 -0.134210 0.484310
v -0.243421 -0.136131 0.471703
v -0.241628 -0.146465 0.484310
v -0.242638 -0.139589 0.484310
v -0.243217 -0.149257 0.471703
v -0.241616 -0.132883 0.484310
v -0.242059 -0.132751 0.471703
v -0.237049 -0.151690 0.484310
v -0.240830 -0.154204 0.472186
v -0.238718 -0.128068 0.484310
v -0.234830 -0.123390 0.484310
v -0.232886 -0.155160 0.484310
v -0.235928 -0.157329 0.471703
v -0.233908 -0.122609 0.484310
v -0.234219 -0.125524 0.471703
v -0.231057 -0.158942 0.471703
v -0.226231 -0.159096 0.476532
v -0.226778 -0.156693 0.484310
v -0.232403 -0.124303 0.471703
v -0.226491 -0.118630 0.484310
v -0.226231 -0.160295 0.471703
v -0.217632 -0.155792 0.484310
v -0.216710 -0.116693 0.484310
v -0.226231 -0.123172 0.471703
v -0.221437 -0.159275 0.471703
v -0.207341 -0.120649 0.484310
v -0.218990 -0.123983 0.471703
v -0.216606 -0.157764 0.471703
v -0.207245 -0.120880 0.484310
v -0.209768 -0.131419 0.471703
v -0.212798 -0.128269 0.471703
v -0.214435 -0.126805 0.471703
v -0.214036 -0.156441 0.471703
v -0.209772 -0.151545 0.484310
v -0.203584 -0.129963 0.484310
v -0.207233 -0.139589 0.471703
v -0.211325 -0.154580 0.471703
v -0.208618 -0.149910 0.484310
v -0.203808 -0.140242 0.484310
v -0.208770 -0.149214 0.471703
f 6 3 1
f 38 32 37
f 7 11 5
f 37 32 31
f 32 28 31
f 25 28 29
f 29 26 25
f 11 7 15
f 5 6 2
f 2 7 5
f 2 6 1
f 27 24 23
f 30 24 27
f 34 29 28
f 11 15 14
f 39 36 35
f 35 36 24
f 35 24 30
f 39 42 41
f 41 42 38
f 41 38 37
f 33 28 32
f 33 34 28
f 21 22 25
f 25 26 21
f 16 22 21
f 5 11 10
f 11 14 10
f 18 14 15
f 40 36 39
f 39 41 40
f 16 21 17
f 8 12 9
f 8 9 4
f 8 4 1
f 1 3 8
f 9 12 13
f 13 17 9
f 16 17 13
f 24 20 19
f 23 24 19
f 19 20 14
f 19 18 23
f 14 18 19
f 32 38 17
f 17 42 39
f 1 4 17
f 17 2 1
f 17 21 26
f 4 9 17
f 39 35 17
f 17 27 23
f 38 42 17
f 26 29 17
f 17 15 7
f 7 2 17
f 30 27 17
f 29 34 17
f 17 33 32
f 17 35 30
f 34 33 17
f 23 18 17
f 17 18 15
f 3 6 13
f 13 41 37
f 37 31 13
f 13 6 5
f 13 28 25
f 25 22 13
f 13 31 28
f 36 40 13
f 24 36 13
f 13 22 16
f 5 10 13
f 13 20 24
f 13 8 3
f 13 10 14
f 14 20 13
f 13 40 41
f 12 8 13
