# generated by collision_forge
v 0.245874 -0.086185 0.553545
v 0.244707 -0.086185 0.557141
v 0.241702 -0.107531 0.559999
v 0.242342 -0.107531 0.557664
v 0.243720 -0.091457 0.543915
v 0.244300 -0.086185 0.543915
v 0.243028 -0.086185 0.561947
v 0.239368 -0.086185 0.566762
v 0.243186 -0.107531 0.553545
v 0.242041 -0.107531 0.545177
v 0.222438 -0.107531 0.499227
v 0.241454 -0.086185 0.537642
v 0.234487 -0.107531 0.567929
v 0.237191 -0.086185 0.568401
v 0.232898 -0.107531 0.569268
v 0.221233 -0.107531 0.498163
v 0.218627 -0.086185 0.498575
v 0.221263 -0.086185 0.500969
v 0.234555 -0.086185 0.570178
v 0.226226 -0.086185 0.573851
v 0.221873 -0.086185 0.574855
v 0.216368 -0.107531 0.575310
v 0.216601 -0.086185 0.576022
v 0.207406 -0.107531 0.576503
v 0.206261 -0.107531 0.489984
v 0.203430 -0.086185 0.490688
v 0.212241 -0.086185 0.576348
v 0.168946 -0.107531 0.489237
v 0.201073 -0.086185 0.490688
v 0.206984 -0.086185 0.576700
v 0.197352 -0.107531 0.576898
v 0.168946 -0.107531 0.575009
v 0.196260 -0.086185 0.492284
v 0.202624 -0.086185 0.576537
v 0.168946 -0.100031 0.495219
v 0.188165 -0.086185 0.497159
v 0.169992 -0.107531 0.575138
v 0.173743 -0.086185 0.573945
v 0.168946 -0.086185 0.573267
v 0.197352 -0.086185 0.576331
v 0.168946 -0.086185 0.510178
v 0.187728 -0.086185 0.575550
f 9 10 1
f 3 8 13
f 13 8 15
f 7 8 3
f 28 26 25
f 1 3 4
f 4 9 1
f 5 10 11
f 11 6 5
f 5 6 1
f 1 10 5
f 2 3 1
f 2 7 3
f 20 22 15
f 40 37 31
f 35 33 28
f 29 26 28
f 28 33 29
f 12 6 11
f 11 18 12
f 24 22 23
f 19 20 15
f 23 22 21
f 22 20 21
f 31 24 30
f 37 40 42
f 17 16 25
f 17 25 26
f 11 16 17
f 17 18 11
f 36 35 41
f 33 35 36
f 15 8 14
f 14 19 15
f 34 40 31
f 31 30 34
f 27 24 23
f 27 30 24
f 37 42 38
f 39 32 38
f 32 37 38
f 28 32 35
f 35 32 39
f 39 41 35
f 3 13 24
f 28 25 24
f 24 32 28
f 24 4 3
f 31 37 24
f 11 10 24
f 24 37 32
f 10 9 24
f 24 13 15
f 24 16 11
f 9 4 24
f 15 22 24
f 25 16 24
f 38 41 39
f 1 6 38
f 38 27 23
f 6 12 38
f 38 17 26
f 8 7 38
f 38 2 1
f 40 34 38
f 26 29 38
f 7 2 38
f 38 36 41
f 23 21 38
f 38 29 33
f 38 12 18
f 20 19 38
f 38 21 20
f 38 14 8
f 38 42 40
f 18 17 38
f 33 36 38
f 19 14 38
f 38 34 30
f 30 27 38
