# generated by collision_forge
v 0.168460 -0.158963 0.848223
v 0.149207 -0.168110 0.872565
v 0.183241 -0.163546 0.857106
v 0.167136 -0.167259 0.872565
v 0.148045 -0.168250 0.872565
v 0.178043 -0.168502 0.872565
v 0.192599 -0.163583 0.848223
v 0.131053 -0.162723 0.848223
v 0.120645 -0.171991 0.872565
v 0.129966 -0.170578 0.872565
v 0.197209 -0.176956 0.872565
v 0.198271 -0.167240 0.848223
v 0.123869 -0.163873 0.848223
v 0.110712 -0.173646 0.872565
v 0.119458 -0.172178 0.872565
v 0.084962 -0.178266 0.872565
v 0.101254 -0.175311 0.872565
v 0.203294 -0.182586 0.872565
v 0.205430 -0.174151 0.848223
v 0.084962 -0.171140 0.848223
v 0.084962 -0.171551 0.849686
v 0.084962 -0.254493 0.872565
v 0.099518 -0.175619 0.872565
v 0.206742 -0.189058 0.872565
v 0.210453 -0.182745 0.848223
v 0.084962 -0.247582 0.848223
v 0.209516 -0.197353 0.872565
v 0.212552 -0.189226 0.848223
v 0.106964 -0.244253 0.848223
v 0.211827 -0.202282 0.857428
v 0.208929 -0.208304 0.872565
v 0.204880 -0.217198 0.872565
v 0.211827 -0.202263 0.848223
v 0.206480 -0.210998 0.848223
v 0.139599 -0.245020 0.872565
v 0.202169 -0.221444 0.872565
v 0.197821 -0.224474 0.872565
v 0.197621 -0.218778 0.848223
v 0.149207 -0.236220 0.848223
v 0.156104 -0.241279 0.872565
v 0.184115 -0.232049 0.872565
v 0.177768 -0.227953 0.848223
f 2 1 8
f 22 26 29
f 15 8 13
f 28 27 30
f 19 12 18
f 4 1 2
f 22 29 35
f 40 42 41
f 38 34 36
f 38 41 42
f 39 42 40
f 40 35 39
f 39 35 29
f 2 8 5
f 8 10 5
f 9 8 15
f 9 10 8
f 15 13 14
f 14 13 17
f 23 13 16
f 17 13 23
f 21 13 20
f 16 13 21
f 28 30 33
f 31 30 27
f 18 24 25
f 25 19 18
f 25 24 27
f 25 27 28
f 3 7 1
f 3 4 6
f 1 4 3
f 12 7 11
f 18 12 11
f 11 3 6
f 7 3 11
f 37 38 36
f 41 38 37
f 34 33 32
f 36 34 32
f 32 33 30
f 30 31 32
f 21 22 16
f 21 26 22
f 20 26 21
f 25 26 20
f 1 7 25
f 25 39 29
f 20 13 25
f 25 8 1
f 28 33 25
f 25 29 26
f 34 38 25
f 25 13 8
f 12 19 25
f 25 7 12
f 25 38 42
f 42 39 25
f 25 33 34
f 32 23 16
f 16 22 32
f 32 4 2
f 32 24 18
f 15 14 32
f 22 35 32
f 32 9 15
f 18 11 32
f 32 37 36
f 2 5 32
f 27 24 32
f 6 4 32
f 32 35 40
f 40 41 32
f 32 5 10
f 10 9 32
f 32 14 17
f 17 23 32
f 32 31 27
f 32 11 6
f 41 37 32
