# generated by collision_forge
v 0.203695 0.158768 0.505032
v 0.197027 0.158768 0.507990
v 0.181958 0.190135 0.515519
v 0.203695 0.168474 0.506256
v 0.203695 0.158768 0.578058
v 0.195614 0.158768 0.509133
v 0.203693 0.190135 0.512091
v 0.203693 0.187764 0.511305
v 0.203695 0.177536 0.508039
v 0.181958 0.184024 0.517026
v 0.181952 0.158808 0.524231
v 0.181952 0.178693 0.519838
v 0.181952 0.190138 0.521046
v 0.203695 0.158811 0.587823
v 0.200135 0.158768 0.587458
v 0.191853 0.158768 0.513655
v 0.203695 0.190138 0.521046
v 0.181952 0.158768 0.549515
v 0.186010 0.158768 0.522723
v 0.181952 0.190138 0.582385
v 0.201063 0.164866 0.587345
v 0.203695 0.190138 0.583828
v 0.181952 0.158768 0.549928
v 0.181952 0.187721 0.582896
v 0.187726 0.187721 0.583496
v 0.187726 0.190138 0.582969
v 0.203695 0.169485 0.587118
v 0.195322 0.158845 0.586907
v 0.197349 0.178095 0.585732
v 0.197653 0.168235 0.586713
v 0.187726 0.168474 0.585619
v 0.187726 0.158768 0.585894
v 0.197349 0.190138 0.583658
v 0.203695 0.187721 0.584484
v 0.181952 0.158802 0.585035
v 0.181952 0.178095 0.584160
v 0.187726 0.178095 0.584849
v 0.187726 0.178693 0.584768
v 0.197349 0.187721 0.584233
v 0.187726 0.158845 0.585894
v 0.181952 0.168474 0.584849
v 0.203695 0.177625 0.586218
f 12 3 11
f 13 3 12
f 13 17 7
f 7 3 13
f 7 8 3
f 11 3 10
f 10 6 11
f 3 6 10
f 2 3 1
f 2 6 3
f 9 7 17
f 8 7 9
f 3 8 9
f 15 5 14
f 19 18 11
f 32 35 23
f 1 3 4
f 3 9 4
f 11 6 16
f 16 19 11
f 21 15 14
f 32 15 28
f 15 21 28
f 28 21 31
f 41 28 31
f 41 31 36
f 34 39 42
f 33 34 22
f 39 34 33
f 27 21 14
f 36 31 37
f 40 41 35
f 40 35 32
f 32 28 40
f 28 41 40
f 24 25 20
f 36 37 24
f 20 25 26
f 39 33 26
f 26 25 39
f 31 21 30
f 30 37 31
f 29 27 42
f 37 30 29
f 42 39 29
f 39 25 29
f 21 27 29
f 29 30 21
f 25 24 38
f 38 24 37
f 38 29 25
f 37 29 38
f 1 5 16
f 32 23 16
f 16 2 1
f 6 2 16
f 16 15 32
f 5 15 16
f 18 19 16
f 16 23 18
f 27 5 1
f 22 34 27
f 17 22 27
f 14 5 27
f 27 9 17
f 1 4 27
f 27 4 9
f 27 34 42
f 13 12 24
f 24 12 11
f 11 18 24
f 18 23 24
f 24 20 13
f 35 41 24
f 24 23 35
f 24 41 36
f 26 22 17
f 13 20 26
f 26 17 13
f 26 33 22
