# generated by collision_forge
v 0.234703 0.183433 0.479107
v 0.240659 0.192537 0.336900
v 0.235952 0.183763 0.479107
v 0.226295 0.184498 0.479107
v 0.240959 0.202205 0.221780
v 0.250667 0.202034 0.209969
v 0.244959 0.188671 0.476521
v 0.253300 0.200776 0.245508
v 0.220417 0.188238 0.479107
v 0.230915 0.202034 0.278033
v 0.236174 0.207841 0.206743
v 0.254378 0.203753 0.206743
v 0.221325 0.202011 0.364600
v 0.262858 0.208883 0.206743
v 0.259375 0.203082 0.303254
v 0.214904 0.197354 0.479107
v 0.230048 0.217481 0.206743
v 0.250998 0.199409 0.479107
v 0.215730 0.206982 0.479107
v 0.267333 0.216809 0.206743
v 0.250998 0.204642 0.479107
v 0.219555 0.213768 0.479107
v 0.220757 0.213740 0.351376
v 0.230073 0.225571 0.206743
v 0.267628 0.226209 0.206743
v 0.260097 0.212385 0.358308
v 0.224489 0.216843 0.479107
v 0.231286 0.230268 0.206743
v 0.244546 0.215232 0.479107
v 0.260009 0.221546 0.328209
v 0.226233 0.217817 0.479107
v 0.232319 0.230377 0.312879
v 0.242838 0.240192 0.206743
v 0.236236 0.235495 0.206743
v 0.231070 0.231003 0.242468
v 0.262249 0.233616 0.226232
v 0.250574 0.221683 0.406190
v 0.240948 0.221552 0.453806
v 0.231044 0.221415 0.462097
v 0.247653 0.241183 0.206743
v 0.256815 0.239464 0.206743
v 0.241516 0.231214 0.348710
f 41 36 25
f 25 36 30
f 13 9 16
f 29 39 31
f 31 32 27
f 39 32 31
f 33 32 39
f 16 19 23
f 23 13 16
f 17 13 23
f 27 32 22
f 38 39 29
f 37 30 36
f 37 38 29
f 36 41 37
f 41 38 37
f 11 12 6
f 6 5 11
f 9 13 10
f 11 5 10
f 10 17 11
f 10 13 17
f 4 9 10
f 10 5 4
f 35 22 32
f 19 22 35
f 28 23 35
f 35 23 19
f 24 23 28
f 17 23 24
f 42 41 40
f 42 38 41
f 39 38 42
f 40 33 42
f 42 33 39
f 4 5 2
f 5 6 2
f 28 35 34
f 32 33 34
f 34 35 32
f 7 18 3
f 21 37 29
f 30 37 21
f 12 14 8
f 7 3 8
f 8 6 12
f 8 2 6
f 8 3 2
f 4 2 1
f 2 3 1
f 25 30 26
f 30 21 26
f 26 21 18
f 26 20 25
f 7 8 15
f 15 8 14
f 15 18 7
f 14 20 15
f 15 26 18
f 20 26 15
f 20 41 25
f 11 17 20
f 20 24 28
f 20 12 11
f 20 33 40
f 40 41 20
f 28 34 20
f 17 24 20
f 20 14 12
f 20 34 33
f 27 22 1
f 16 9 1
f 1 19 16
f 1 9 4
f 29 31 1
f 1 31 27
f 1 22 19
f 1 21 29
f 1 3 18
f 18 21 1
