# generated by collision_forge
v -0.203616 0.255796 0.516956
v -0.203616 0.227464 0.516956
v -0.203616 0.255765 0.516266
v -0.208561 0.253777 0.516956
v -0.203616 0.227464 0.502599
v -0.235262 0.227464 0.516956
v -0.203616 0.255707 0.515037
v -0.213691 0.251208 0.515037
v -0.213936 0.251297 0.516956
v -0.206981 0.254304 0.515037
v -0.203616 0.235860 0.502026
v -0.216721 0.227464 0.504057
v -0.233496 0.232046 0.516956
v -0.234314 0.227464 0.515385
v -0.203616 0.252526 0.507977
v -0.206981 0.251699 0.508783
v -0.211965 0.250410 0.510110
v -0.225435 0.243265 0.516956
v -0.203616 0.245484 0.503854
v -0.225987 0.227467 0.505885
v -0.225987 0.227464 0.505885
v -0.232077 0.234540 0.516956
v -0.203616 0.249026 0.505818
v -0.221281 0.240370 0.510317
v -0.229215 0.239241 0.516956
v -0.225984 0.242777 0.516956
v -0.206981 0.245484 0.505337
v -0.231164 0.236048 0.516956
f 11 5 12
f 12 20 11
f 17 20 24
f 11 20 19
f 16 7 15
f 17 7 16
f 20 12 21
f 25 26 17
f 17 24 25
f 20 28 25
f 25 24 20
f 27 20 17
f 17 19 27
f 27 19 20
f 23 16 15
f 23 19 17
f 17 16 23
f 9 4 8
f 6 13 14
f 14 13 20
f 20 21 14
f 22 28 20
f 20 13 22
f 3 4 1
f 7 4 3
f 9 8 18
f 17 26 18
f 18 8 17
f 10 4 7
f 10 8 4
f 10 7 17
f 17 8 10
f 14 5 2
f 14 2 6
f 14 12 5
f 14 21 12
f 2 5 3
f 1 2 3
f 3 5 11
f 3 23 15
f 15 7 3
f 11 19 3
f 19 23 3
f 18 2 1
f 6 2 18
f 26 25 18
f 18 13 6
f 28 22 18
f 1 4 18
f 18 25 28
f 18 4 9
f 18 22 13
