# generated by collision_forge
v -0.079397 -0.269224 0.936856
v -0.079397 -0.268606 0.928966
v -0.113215 -0.262465 0.928998
v -0.113215 -0.260904 0.919734
v -0.113215 -0.260893 0.947019
v -0.113215 -0.262633 0.938624
v -0.113215 -0.262622 0.936209
v -0.113215 -0.259905 0.914669
v -0.079397 -0.264564 0.909730
v -0.079397 -0.262757 0.956266
v -0.101080 -0.260713 0.954010
v -0.113215 -0.254964 0.956172
v -0.086372 -0.259882 0.895464
v -0.113215 -0.249608 0.960211
v -0.113215 -0.253942 0.890477
v -0.079397 -0.257244 0.961079
v -0.097190 -0.250529 0.962815
v -0.113212 -0.231441 0.806099
v -0.098825 -0.234046 0.806099
v -0.079397 -0.260590 0.893996
v -0.079397 -0.237123 0.806099
v -0.113215 -0.226714 0.806099
v -0.079397 -0.161063 0.806099
v -0.079397 -0.245476 0.965845
v -0.113215 -0.235854 0.965593
v -0.113215 -0.154529 0.806099
v -0.113215 -0.154854 0.807377
v -0.079397 -0.226231 0.966603
v -0.110706 -0.226231 0.966287
v -0.113215 -0.217844 0.964251
v -0.113215 -0.164701 0.843151
v -0.113215 -0.213038 0.961995
v -0.079397 -0.184586 0.890162
v -0.079397 -0.193445 0.920792
v -0.113215 -0.187955 0.919356
v -0.113215 -0.183980 0.907173
v -0.079397 -0.212881 0.959580
v -0.113215 -0.202742 0.952148
v -0.079397 -0.199812 0.938750
v -0.079397 -0.209378 0.955982
v -0.113215 -0.200047 0.947555
v -0.079397 -0.201923 0.943910
f 2 1 3
f 15 22 18
f 9 2 8
f 19 15 18
f 17 24 25
f 28 32 30
f 38 40 42
f 4 2 3
f 4 8 2
f 13 19 21
f 15 19 13
f 13 8 15
f 9 8 13
f 1 5 6
f 12 5 11
f 11 5 1
f 38 32 37
f 37 40 38
f 32 28 37
f 14 17 25
f 12 17 14
f 29 30 25
f 29 28 30
f 24 28 29
f 25 24 29
f 34 33 31
f 31 33 23
f 38 42 41
f 41 42 35
f 34 35 39
f 35 42 39
f 9 13 20
f 20 13 21
f 3 1 7
f 1 6 7
f 10 11 1
f 36 35 34
f 34 31 36
f 27 23 26
f 27 31 23
f 24 17 16
f 11 10 16
f 16 17 12
f 12 11 16
f 19 22 26
f 26 23 19
f 18 22 19
f 23 21 19
f 27 32 38
f 27 4 3
f 26 22 27
f 27 14 25
f 22 15 27
f 38 41 27
f 25 30 27
f 15 8 27
f 27 5 12
f 30 32 27
f 35 36 27
f 8 4 27
f 27 6 5
f 12 14 27
f 3 7 27
f 27 41 35
f 27 7 6
f 27 36 31
f 1 2 16
f 16 21 23
f 9 20 16
f 16 2 9
f 34 39 16
f 16 42 40
f 23 33 16
f 16 28 24
f 40 37 16
f 16 33 34
f 16 37 28
f 16 39 42
f 16 20 21
f 16 10 1
