# generated by collision_forge
v 0.178075 -0.038331 0.512599
v 0.189850 -0.038331 0.497779
v 0.178075 -0.038331 0.520625
v 0.178075 0.004828 0.515771
v 0.192292 0.052964 0.500364
v 0.191983 0.043337 0.500068
v 0.197781 -0.038331 0.492822
v 0.230097 -0.038331 0.520625
v 0.178075 0.032880 0.520625
v 0.192497 0.058231 0.500557
v 0.197354 0.043337 0.497151
v 0.197354 0.033709 0.496614
v 0.206579 -0.038331 0.492081
v 0.206974 0.033709 0.494630
v 0.206974 0.024082 0.494228
v 0.206974 0.014455 0.493864
v 0.230281 -0.038293 0.520625
v 0.178075 0.024179 0.518062
v 0.191095 0.129944 0.508483
v 0.190694 0.120336 0.507991
v 0.201972 0.116400 0.500524
v 0.206974 0.043337 0.495172
v 0.216600 0.158768 0.503802
v 0.215398 0.052964 0.498414
v 0.221262 -0.038331 0.500865
v 0.232355 0.158768 0.516679
v 0.232371 0.158768 0.516732
v 0.233378 0.158768 0.520625
v 0.186287 0.146768 0.520625
v 0.187062 0.156163 0.520625
v 0.197354 0.139571 0.505205
v 0.206974 0.158768 0.503575
v 0.215837 0.033709 0.497838
v 0.216346 -0.004800 0.497226
v 0.216449 -0.038331 0.496955
v 0.225198 0.158768 0.507611
v 0.230011 0.158768 0.511867
v 0.187370 0.158768 0.520625
v 0.192535 0.154041 0.510218
v 0.206162 0.158768 0.503930
v 0.221159 -0.004800 0.500957
v 0.197029 0.158768 0.507977
f 37 26 25
f 25 26 17
f 17 8 25
f 28 17 27
f 17 26 27
f 6 2 1
f 6 7 2
f 23 36 24
f 24 36 33
f 41 36 37
f 37 25 41
f 25 35 41
f 38 42 39
f 20 19 10
f 4 18 20
f 20 18 19
f 15 24 33
f 23 22 32
f 22 21 32
f 31 39 42
f 19 39 31
f 31 32 21
f 10 19 31
f 31 21 10
f 11 21 22
f 10 21 11
f 1 4 5
f 5 6 1
f 5 20 10
f 4 20 5
f 10 11 5
f 7 6 5
f 34 35 13
f 13 33 34
f 34 41 35
f 33 36 34
f 36 41 34
f 29 18 9
f 19 18 29
f 13 7 16
f 7 15 16
f 16 33 13
f 16 15 33
f 14 15 7
f 14 11 22
f 14 22 23
f 23 24 14
f 24 15 14
f 40 31 42
f 32 31 40
f 19 29 30
f 38 39 30
f 30 39 19
f 12 14 7
f 11 14 12
f 7 5 12
f 12 5 11
f 35 8 3
f 1 2 35
f 35 3 1
f 35 7 13
f 35 25 8
f 2 7 35
f 3 9 18
f 1 3 18
f 18 4 1
f 40 36 23
f 40 38 28
f 28 27 40
f 40 26 37
f 40 42 38
f 37 36 40
f 40 27 26
f 23 32 40
f 28 38 30
f 30 17 28
f 30 8 17
f 30 9 3
f 3 8 30
f 30 29 9
