# generated by collision_forge
v 0.063413 -0.250470 0.848217
v 0.063398 -0.148195 0.738078
v 0.149199 -0.236212 0.848217
v 0.063398 -0.224489 0.738078
v 0.187596 -0.198368 0.738078
v 0.063398 -0.157451 0.783240
v 0.187689 -0.223975 0.848217
v 0.123871 -0.163879 0.848217
v 0.063413 -0.174865 0.848217
v 0.193336 -0.153629 0.819486
v 0.110740 -0.217418 0.738078
v 0.218136 -0.178114 0.794215
v 0.206436 -0.138658 0.738078
v 0.178090 -0.134065 0.754271
v 0.129192 -0.240349 0.848217
v 0.197599 -0.218762 0.848217
v 0.139615 -0.138331 0.755716
v 0.063398 -0.149585 0.746089
v 0.140393 -0.135163 0.738078
v 0.192434 -0.134801 0.750843
v 0.202827 -0.143975 0.771877
v 0.169191 -0.204422 0.738078
v 0.130592 -0.213643 0.738078
v 0.204289 -0.213901 0.848217
v 0.144718 -0.144466 0.789202
v 0.164368 -0.144443 0.798948
v 0.211866 -0.153921 0.780189
v 0.181326 -0.144501 0.798743
v 0.221496 -0.173474 0.738078
v 0.187222 -0.161705 0.848217
v 0.166079 -0.231654 0.848217
v 0.220967 -0.155429 0.738078
v 0.077913 -0.248577 0.848217
v 0.212550 -0.189240 0.848217
v 0.162594 -0.159111 0.848217
v 0.203714 -0.171604 0.848217
v 0.186087 -0.131645 0.738078
v 0.157087 -0.132697 0.738078
v 0.211819 -0.202237 0.848217
v 0.166857 -0.131645 0.738078
v 0.218400 -0.178289 0.738078
v 0.206498 -0.189848 0.738078
f 6 4 1
f 1 9 6
f 6 9 8
f 8 25 6
f 25 38 17
f 26 25 8
f 35 26 8
f 28 26 35
f 2 17 19
f 19 17 38
f 18 17 2
f 18 6 25
f 25 17 18
f 14 26 28
f 39 41 29
f 1 4 33
f 3 15 23
f 23 22 3
f 3 22 31
f 5 42 7
f 7 31 5
f 5 31 22
f 40 14 37
f 26 14 40
f 40 38 25
f 25 26 40
f 27 32 13
f 29 32 12
f 12 39 29
f 28 35 30
f 42 41 24
f 41 39 24
f 15 33 11
f 11 33 4
f 11 23 15
f 20 13 37
f 37 14 20
f 20 14 28
f 39 12 34
f 34 32 27
f 34 12 32
f 7 42 16
f 42 24 16
f 28 30 10
f 10 20 28
f 36 10 30
f 36 34 27
f 27 13 21
f 21 36 27
f 10 36 21
f 13 20 21
f 20 10 21
f 2 4 18
f 4 6 18
f 2 19 11
f 11 4 2
f 11 32 29
f 42 5 11
f 29 41 11
f 11 41 42
f 37 13 11
f 11 19 38
f 11 40 37
f 22 23 11
f 11 5 22
f 38 40 11
f 11 13 32
f 36 9 1
f 8 9 36
f 36 35 8
f 1 33 36
f 36 30 35
f 36 15 3
f 36 31 7
f 36 33 15
f 3 31 36
f 39 34 36
f 36 24 39
f 7 16 36
f 36 16 24
