# generated by collision_forge
v 0.081853 0.097402 0.511135
v 0.091456 0.097402 0.512337
v 0.081853 0.097402 0.532903
v 0.081853 0.158738 0.512597
v 0.081904 0.158762 0.512597
v 0.091532 0.158762 0.513665
v 0.120340 0.158762 0.517016
v 0.120399 0.158762 0.517023
v 0.095140 0.097402 0.512871
v 0.130290 0.158762 0.518408
v 0.081862 0.097402 0.568104
v 0.081853 0.101085 0.568280
v 0.081853 0.158762 0.512899
v 0.101084 0.097402 0.513742
v 0.168353 0.158762 0.524970
v 0.168353 0.097402 0.524050
v 0.081853 0.109861 0.568708
v 0.168353 0.097402 0.579986
v 0.168353 0.101079 0.580203
v 0.168353 0.120336 0.581300
v 0.168353 0.129959 0.581841
v 0.081853 0.158762 0.570641
v 0.168353 0.158762 0.526052
v 0.081853 0.110750 0.568751
v 0.168353 0.139588 0.582304
v 0.081853 0.149211 0.570367
v 0.168353 0.158732 0.582909
v 0.158768 0.158762 0.581314
v 0.158835 0.158762 0.581321
v 0.081853 0.120336 0.569179
v 0.168353 0.149103 0.582627
v 0.081853 0.139588 0.569994
v 0.081853 0.129959 0.569587
f 15 16 10
f 14 10 16
f 4 5 1
f 1 5 6
f 1 8 2
f 2 8 10
f 5 4 13
f 23 29 27
f 28 22 27
f 27 29 28
f 7 8 1
f 1 6 7
f 10 14 9
f 9 2 10
f 11 12 3
f 26 31 27
f 27 22 26
f 25 31 26
f 26 32 25
f 11 18 19
f 25 30 24
f 25 32 33
f 33 30 25
f 20 21 11
f 11 19 20
f 17 12 11
f 11 21 17
f 17 21 25
f 25 24 17
f 5 13 7
f 15 10 7
f 7 6 5
f 10 8 7
f 7 23 15
f 22 28 7
f 7 13 22
f 29 23 7
f 7 28 29
f 3 14 16
f 3 9 14
f 1 2 3
f 16 18 3
f 3 18 11
f 2 9 3
f 20 18 16
f 15 23 20
f 20 16 15
f 20 23 27
f 27 31 20
f 20 31 25
f 25 21 20
f 20 19 18
f 22 13 17
f 17 13 4
f 17 4 1
f 1 3 17
f 17 3 12
f 17 26 22
f 17 33 32
f 32 26 17
f 17 24 30
f 30 33 17
