# generated by collision_forge
v 0.203695 0.215567 0.513249
v 0.203695 0.215567 0.524648
v 0.203695 0.226235 0.511696
v 0.217701 0.215567 0.514365
v 0.233075 0.215567 0.524648
v 0.203695 0.250648 0.524648
v 0.203695 0.229896 0.511172
v 0.224724 0.215567 0.514972
v 0.225123 0.215567 0.515138
v 0.232304 0.221001 0.524648
v 0.208121 0.248467 0.524648
v 0.203695 0.250338 0.519756
v 0.203695 0.233200 0.510885
v 0.203695 0.237380 0.510544
v 0.203695 0.239551 0.510544
v 0.222788 0.233073 0.519041
v 0.230892 0.226235 0.524648
v 0.217011 0.243188 0.524648
v 0.214273 0.242497 0.517999
v 0.203695 0.249250 0.517961
v 0.203695 0.242487 0.511685
v 0.220686 0.239482 0.521929
v 0.225316 0.235508 0.524648
v 0.217485 0.242848 0.524648
v 0.203695 0.246148 0.514117
v 0.224839 0.236226 0.524648
f 4 7 8
f 15 8 14
f 22 16 19
f 20 12 19
f 22 19 18
f 18 19 12
f 9 8 15
f 15 16 9
f 17 9 16
f 3 4 1
f 7 4 3
f 8 7 13
f 13 14 8
f 20 19 25
f 24 26 22
f 22 18 24
f 11 12 6
f 11 18 12
f 23 17 16
f 22 26 23
f 23 16 22
f 5 9 10
f 9 17 10
f 21 25 19
f 21 16 15
f 21 19 16
f 9 2 1
f 5 2 9
f 1 4 9
f 9 4 8
f 6 2 10
f 10 2 5
f 26 24 10
f 10 23 26
f 10 11 6
f 10 24 18
f 18 11 10
f 17 23 10
f 21 2 6
f 1 2 21
f 6 12 21
f 15 14 21
f 21 13 7
f 21 3 1
f 21 12 20
f 7 3 21
f 14 13 21
f 20 25 21
