# generated by collision_forge
v 0.090677 -0.134707 0.570175
v 0.090677 -0.134707 0.596320
v 0.090677 -0.124560 0.570175
v 0.168938 -0.134707 0.570175
v 0.090677 -0.131758 0.596320
v 0.168930 -0.134707 0.596320
v 0.136357 -0.108789 0.570175
v 0.168938 -0.108789 0.570175
v 0.168938 -0.134707 0.596151
v 0.149212 -0.120308 0.596320
v 0.168938 -0.118001 0.596320
v 0.158841 -0.118539 0.596320
v 0.168724 -0.116986 0.596320
v 0.139575 -0.108789 0.570902
v 0.168938 -0.108789 0.575465
v 0.168938 -0.117720 0.596320
v 0.168938 -0.116961 0.596284
v 0.152337 -0.108789 0.573535
v 0.149763 -0.108789 0.573182
v 0.159998 -0.108789 0.574487
f 7 3 5
f 5 10 7
f 7 10 12
f 7 12 13
f 17 15 20
f 17 13 16
f 7 13 14
f 14 13 19
f 17 20 18
f 18 13 17
f 19 13 18
f 6 9 11
f 1 3 8
f 8 4 1
f 8 3 7
f 5 3 1
f 1 2 5
f 1 4 9
f 9 2 1
f 9 6 2
f 18 8 7
f 18 15 8
f 18 20 15
f 7 14 18
f 18 14 19
f 2 6 11
f 11 5 2
f 10 5 11
f 11 12 10
f 11 13 12
f 11 16 13
f 4 8 11
f 11 15 17
f 8 15 11
f 11 9 4
f 17 16 11
