# generated by collision_forge
v 0.168944 -0.189132 0.596321
v 0.168944 -0.188845 0.592260
v 0.178099 -0.186742 0.596321
v 0.168944 -0.117721 0.596321
v 0.168944 -0.116960 0.596286
v 0.168944 -0.188039 0.583099
v 0.178690 -0.185423 0.583099
v 0.185148 -0.183591 0.583099
v 0.189957 -0.182114 0.583099
v 0.178099 -0.115995 0.596321
v 0.178099 -0.112678 0.583099
v 0.169086 -0.113975 0.583099
v 0.168944 -0.114005 0.583099
v 0.197353 -0.179694 0.583099
v 0.196974 -0.180870 0.596321
v 0.186439 -0.115829 0.596321
v 0.187729 -0.112128 0.583099
v 0.186863 -0.112158 0.583099
v 0.206976 -0.176128 0.583099
v 0.206976 -0.177048 0.596321
v 0.197430 -0.112565 0.583099
v 0.212722 -0.173731 0.583099
v 0.193122 -0.116349 0.596321
v 0.204389 -0.113899 0.583099
v 0.216195 -0.172713 0.596321
v 0.206976 -0.119214 0.596321
v 0.224997 -0.166336 0.583099
v 0.216324 -0.119372 0.583099
v 0.215919 -0.123141 0.596321
v 0.229472 -0.162559 0.583099
v 0.224978 -0.166698 0.596321
v 0.220310 -0.125998 0.596321
v 0.229812 -0.162235 0.583099
v 0.227655 -0.164082 0.596321
v 0.224625 -0.130356 0.596321
v 0.223090 -0.124182 0.583099
v 0.231340 -0.134275 0.583099
v 0.232521 -0.157139 0.592053
v 0.234453 -0.149774 0.583099
v 0.232296 -0.156807 0.596321
v 0.231686 -0.142492 0.596321
v 0.232829 -0.152398 0.596321
f 37 41 39
f 32 36 28
f 24 21 23
f 13 5 12
f 5 11 12
f 39 41 42
f 42 40 39
f 38 33 39
f 39 40 38
f 38 40 34
f 34 33 38
f 41 37 35
f 35 37 36
f 35 36 32
f 22 27 25
f 25 20 22
f 22 20 19
f 9 3 8
f 8 3 7
f 9 14 15
f 15 3 9
f 14 19 15
f 15 19 20
f 6 7 2
f 7 3 2
f 2 3 1
f 5 4 10
f 17 18 10
f 10 18 11
f 10 11 5
f 24 23 26
f 31 25 27
f 27 30 31
f 31 30 33
f 31 33 34
f 17 10 16
f 16 21 17
f 16 23 21
f 29 28 24
f 24 26 29
f 32 28 29
f 8 28 36
f 8 7 6
f 13 12 8
f 6 13 8
f 39 33 8
f 8 27 22
f 8 37 39
f 33 30 8
f 22 19 8
f 17 21 8
f 36 37 8
f 8 18 17
f 8 14 9
f 24 28 8
f 8 21 24
f 8 12 11
f 11 18 8
f 8 30 27
f 8 19 14
f 2 13 6
f 1 4 2
f 2 5 13
f 2 4 5
f 29 42 41
f 34 40 29
f 29 4 1
f 29 35 32
f 1 3 29
f 29 10 4
f 23 16 29
f 29 15 20
f 40 42 29
f 41 35 29
f 20 25 29
f 3 15 29
f 29 31 34
f 29 26 23
f 25 31 29
f 29 16 10
