# generated by collision_forge
v -0.260676 0.158768 0.560373
v -0.255751 0.158768 0.543925
v -0.254792 0.197352 0.543925
v -0.251489 0.158768 0.537938
v -0.238880 0.200147 0.516963
v -0.259976 0.173620 0.558491
v -0.250855 0.213395 0.537931
v -0.229132 0.158798 0.516963
v -0.238740 0.219388 0.516963
v -0.253163 0.158768 0.573452
v -0.241151 0.231718 0.528310
v -0.216177 0.158768 0.516963
v -0.241446 0.184386 0.578109
v -0.250044 0.191964 0.567662
v -0.250589 0.212285 0.549333
v -0.231271 0.240890 0.519575
v -0.189028 0.158768 0.516963
v -0.246069 0.158768 0.579677
v -0.241749 0.203729 0.568937
v -0.240628 0.230992 0.538893
v -0.231735 0.241203 0.531215
v -0.185348 0.158768 0.521409
v -0.226227 0.158768 0.586101
v -0.239544 0.220297 0.557127
v -0.213596 0.251021 0.531610
v -0.185348 0.171623 0.516963
v -0.185348 0.158768 0.531406
v -0.216612 0.187726 0.583789
v -0.232716 0.213234 0.569040
v -0.220911 0.240436 0.548324
v -0.185348 0.261847 0.516963
v -0.185348 0.158788 0.583912
v -0.187730 0.158768 0.584260
v -0.222430 0.231638 0.559002
v -0.197352 0.187726 0.583612
v -0.202440 0.211821 0.577625
v -0.216612 0.209985 0.576779
v -0.197352 0.249124 0.546755
v -0.185348 0.259789 0.528767
v -0.206982 0.229196 0.566551
v -0.185348 0.205797 0.578695
v -0.185348 0.237238 0.562187
f 22 17 26
f 8 4 5
f 23 13 18
f 1 6 2
f 5 4 2
f 9 16 31
f 5 2 9
f 4 8 12
f 10 6 1
f 10 18 13
f 33 35 23
f 32 35 33
f 33 27 32
f 28 13 23
f 23 35 28
f 42 39 38
f 34 24 29
f 13 29 19
f 19 29 24
f 25 39 31
f 31 16 25
f 38 39 25
f 30 24 34
f 30 20 24
f 34 38 30
f 38 25 30
f 24 20 15
f 15 19 24
f 14 10 13
f 6 10 14
f 13 19 14
f 14 15 6
f 19 15 14
f 36 28 35
f 21 25 16
f 20 30 21
f 21 30 25
f 6 15 3
f 3 2 6
f 3 9 2
f 41 36 35
f 42 36 41
f 41 35 32
f 28 36 37
f 13 28 37
f 37 29 13
f 7 3 15
f 9 3 7
f 40 36 42
f 40 37 36
f 40 38 34
f 40 42 38
f 34 29 40
f 29 37 40
f 11 15 20
f 11 7 15
f 11 21 16
f 20 21 11
f 16 9 11
f 9 7 11
f 31 26 12
f 12 8 5
f 12 26 17
f 12 9 31
f 5 9 12
f 33 17 22
f 22 27 33
f 33 10 1
f 4 12 33
f 1 2 33
f 23 18 33
f 33 2 4
f 33 12 17
f 18 10 33
f 41 27 22
f 32 27 41
f 22 26 41
f 41 26 31
f 31 39 41
f 39 42 41
