# generated by collision_forge
v -0.005193 -0.217407 0.668032
v -0.005193 -0.209534 0.596321
v -0.004852 -0.217415 0.668032
v -0.005193 -0.143261 0.668032
v -0.004806 -0.209542 0.596321
v -0.005193 -0.137934 0.596321
v 0.004817 -0.217415 0.668032
v 0.072334 -0.138880 0.668032
v -0.005193 -0.142519 0.659825
v -0.000541 -0.209534 0.596321
v -0.005193 -0.141034 0.640569
v 0.072334 -0.138186 0.659439
v 0.072334 -0.137550 0.649814
v 0.072334 -0.134075 0.596349
v 0.067901 -0.134613 0.596321
v 0.013416 -0.217211 0.668032
v 0.004817 -0.209517 0.596321
v 0.009083 -0.209436 0.596321
v 0.014441 -0.209330 0.596321
v -0.005193 -0.141687 0.649814
v -0.005193 -0.142486 0.659439
v 0.072334 -0.212699 0.668032
v 0.072334 -0.171302 0.596321
v 0.014441 -0.217187 0.668032
v 0.024072 -0.209085 0.596321
v 0.062657 -0.213727 0.668032
v 0.072197 -0.205993 0.596321
v 0.072334 -0.205985 0.596398
v 0.072334 -0.205977 0.596321
v 0.024072 -0.216852 0.668032
v 0.033688 -0.208669 0.596321
v 0.052943 -0.214747 0.668032
v 0.062574 -0.206833 0.596321
v 0.033688 -0.216265 0.668032
v 0.037961 -0.208432 0.596321
v 0.043319 -0.208130 0.596321
v 0.043319 -0.215587 0.668032
v 0.052943 -0.207535 0.596321
v 0.042287 -0.215661 0.668032
f 14 6 13
f 13 6 12
f 8 12 20
f 12 6 11
f 11 20 12
f 9 4 8
f 15 6 14
f 8 20 21
f 21 9 8
f 1 2 3
f 25 31 30
f 36 34 30
f 23 15 14
f 38 34 36
f 37 38 33
f 7 3 5
f 5 3 2
f 25 30 24
f 24 19 25
f 36 30 35
f 35 30 31
f 22 26 27
f 27 26 32
f 32 37 27
f 27 37 33
f 34 38 39
f 38 37 39
f 10 17 7
f 7 5 10
f 7 17 18
f 18 19 7
f 7 19 16
f 19 24 16
f 28 27 29
f 22 27 28
f 1 4 21
f 21 2 1
f 21 6 2
f 21 11 6
f 20 11 21
f 4 9 21
f 2 6 18
f 18 23 29
f 25 19 18
f 6 15 18
f 18 31 25
f 18 38 36
f 36 35 18
f 18 5 2
f 15 23 18
f 33 38 18
f 29 27 18
f 17 10 18
f 18 35 31
f 18 27 33
f 18 10 5
f 8 4 16
f 16 4 1
f 16 22 8
f 16 30 34
f 1 3 16
f 16 26 22
f 16 3 7
f 34 39 16
f 32 26 16
f 16 37 32
f 16 24 30
f 16 39 37
f 8 22 28
f 14 13 28
f 28 12 8
f 28 13 12
f 28 23 14
f 29 23 28
