# generated by collision_forge
v 0.168362 -0.038331 0.513977
v 0.168362 -0.038331 0.520627
v 0.168362 -0.038275 0.513980
v 0.173526 -0.038331 0.513153
v 0.178069 -0.038331 0.520627
v 0.168362 0.041350 0.520627
v 0.168362 -0.033688 0.514291
v 0.178069 -0.038331 0.512600
v 0.168362 -0.024062 0.514946
v 0.168362 -0.014324 0.515654
v 0.168362 -0.004698 0.516359
v 0.178069 0.004807 0.515772
v 0.178069 0.032861 0.520627
v 0.168363 0.044027 0.520627
v 0.168362 0.043946 0.520625
v 0.168362 0.004920 0.517084
v 0.168362 0.014432 0.517862
v 0.168362 0.014545 0.517871
v 0.178069 0.014432 0.516583
v 0.178069 0.024163 0.518064
v 0.168362 0.043285 0.520551
f 14 13 20
f 14 20 19
f 14 15 6
f 8 4 12
f 12 18 19
f 7 9 4
f 16 12 11
f 11 12 4
f 21 15 14
f 14 19 21
f 19 18 21
f 17 12 16
f 18 12 17
f 3 4 1
f 3 7 4
f 4 9 10
f 10 11 4
f 4 8 5
f 4 2 1
f 5 2 4
f 6 2 5
f 5 13 6
f 6 13 14
f 5 8 12
f 12 13 5
f 12 20 13
f 12 19 20
f 1 2 10
f 15 21 10
f 2 6 10
f 10 17 16
f 10 6 15
f 16 11 10
f 9 7 10
f 10 3 1
f 10 21 18
f 18 17 10
f 7 3 10
