# generated by collision_forge
v -0.005201 -0.229466 0.739615
v -0.005201 -0.153758 0.739615
v -0.014445 -0.229251 0.739615
v -0.024070 -0.209202 0.596342
v -0.019805 -0.209295 0.596342
v -0.014445 -0.209398 0.596342
v -0.010174 -0.209463 0.596342
v -0.005201 -0.209538 0.596342
v -0.072226 -0.147542 0.739615
v -0.024070 -0.228990 0.739615
v -0.029430 -0.209006 0.596342
v -0.005201 -0.137947 0.596342
v -0.072226 -0.146963 0.736445
v -0.072226 -0.223595 0.739615
v -0.005201 -0.153310 0.737259
v -0.033432 -0.228420 0.739615
v -0.033694 -0.208847 0.596342
v -0.072226 -0.134110 0.596342
v -0.072199 -0.137349 0.649822
v -0.072226 -0.138012 0.659444
v -0.005201 -0.141008 0.640186
v -0.005201 -0.151499 0.726824
v -0.005201 -0.149969 0.717581
v -0.005201 -0.148391 0.707945
v -0.072226 -0.145414 0.726403
v -0.072199 -0.223604 0.739615
v -0.072226 -0.206019 0.596342
v -0.043319 -0.227477 0.739615
v -0.067928 -0.206401 0.596342
v -0.058304 -0.207223 0.596342
v -0.048679 -0.207932 0.596342
v -0.005201 -0.141690 0.649822
v -0.005201 -0.142978 0.664900
v -0.072226 -0.143930 0.716136
v -0.062568 -0.225060 0.739615
v -0.049781 -0.226759 0.739615
v -0.052944 -0.226404 0.739615
v -0.005201 -0.143388 0.669374
v -0.005201 -0.146907 0.697944
v -0.072226 -0.142726 0.707566
v -0.072226 -0.141596 0.697944
v -0.005201 -0.144704 0.681114
f 20 41 38
f 38 41 42
f 7 8 1
f 1 6 7
f 1 4 5
f 5 6 1
f 18 20 19
f 19 12 18
f 20 12 19
f 3 4 1
f 3 10 4
f 17 10 16
f 40 42 41
f 39 42 40
f 40 34 39
f 33 20 38
f 33 32 20
f 21 12 20
f 20 32 21
f 4 10 11
f 10 17 11
f 31 17 16
f 27 37 35
f 28 27 16
f 9 2 15
f 25 24 39
f 39 34 25
f 30 31 16
f 14 27 26
f 27 35 26
f 36 37 27
f 27 28 36
f 24 25 13
f 23 24 13
f 13 22 23
f 13 15 22
f 9 15 13
f 16 27 29
f 29 30 16
f 15 2 1
f 1 8 15
f 39 24 15
f 38 42 15
f 8 12 15
f 12 21 15
f 15 42 39
f 15 33 38
f 23 22 15
f 15 24 23
f 32 33 15
f 15 21 32
f 36 2 9
f 9 14 36
f 1 2 36
f 36 3 1
f 16 10 36
f 10 3 36
f 36 28 16
f 36 35 37
f 14 26 36
f 36 26 35
f 13 14 9
f 13 20 18
f 18 27 13
f 41 20 13
f 13 27 14
f 13 40 41
f 34 40 13
f 13 25 34
f 8 7 29
f 29 12 8
f 29 27 18
f 18 12 29
f 29 5 4
f 29 7 6
f 6 5 29
f 4 11 29
f 29 11 17
f 17 31 29
f 31 30 29
