# generated by collision_forge
v 0.063398 -0.271905 0.938617
v 0.063398 -0.271304 0.929816
v 0.063398 -0.271846 0.939248
v 0.063398 -0.271244 0.928986
v 0.084950 -0.268423 0.928962
v 0.084950 -0.269104 0.938617
v 0.063398 -0.270564 0.948469
v 0.063398 -0.270070 0.921658
v 0.084950 -0.267358 0.922487
v 0.084950 -0.266608 0.950585
v 0.063398 -0.269074 0.916877
v 0.084950 -0.264714 0.909736
v 0.084950 -0.263244 0.956744
v 0.063398 -0.269429 0.952618
v 0.063398 -0.267417 0.909736
v 0.084950 -0.257898 0.961560
v 0.063398 -0.265227 0.900947
v 0.063398 -0.265020 0.900117
v 0.063398 -0.262366 0.890440
v 0.084950 -0.260472 0.893385
v 0.063398 -0.259979 0.962740
v 0.063398 -0.250480 0.848223
v 0.084950 -0.247580 0.848223
v 0.063398 -0.174860 0.848223
v 0.072203 -0.249345 0.848223
v 0.084471 -0.171220 0.848223
v 0.084950 -0.242362 0.966562
v 0.063398 -0.181183 0.870769
v 0.084950 -0.172019 0.851332
v 0.063398 -0.244660 0.967030
v 0.063398 -0.235032 0.967497
v 0.084950 -0.223886 0.965615
v 0.063398 -0.195476 0.918864
v 0.063398 -0.225691 0.965697
v 0.084950 -0.186006 0.897955
v 0.063398 -0.220285 0.963488
v 0.084950 -0.212976 0.958813
v 0.084950 -0.199235 0.936384
v 0.084950 -0.209750 0.955564
v 0.063398 -0.215077 0.958614
v 0.063398 -0.203239 0.940042
v 0.063398 -0.210934 0.954208
f 29 23 26
f 37 36 32
f 2 4 5
f 5 4 8
f 22 20 19
f 23 20 25
f 25 20 22
f 1 2 6
f 6 2 5
f 41 42 38
f 41 38 33
f 16 21 13
f 7 6 10
f 27 21 16
f 18 19 20
f 20 12 18
f 15 12 11
f 11 12 8
f 5 8 9
f 8 12 9
f 40 36 37
f 39 38 42
f 42 40 39
f 39 40 37
f 28 33 29
f 26 24 28
f 28 29 26
f 29 33 35
f 35 33 38
f 1 6 3
f 6 7 3
f 10 13 14
f 14 7 10
f 14 13 21
f 31 27 32
f 17 12 15
f 17 18 12
f 21 27 30
f 27 31 30
f 34 32 36
f 34 31 32
f 22 24 25
f 25 24 26
f 26 23 25
f 37 32 35
f 35 6 5
f 35 27 16
f 23 29 35
f 35 20 23
f 5 9 35
f 16 13 35
f 35 12 20
f 10 6 35
f 35 39 37
f 35 13 10
f 32 27 35
f 35 9 12
f 38 39 35
f 34 24 22
f 15 11 34
f 21 30 34
f 36 40 34
f 34 2 1
f 22 19 34
f 34 14 21
f 4 2 34
f 34 8 4
f 34 28 24
f 34 42 41
f 41 33 34
f 1 3 34
f 19 18 34
f 34 11 8
f 34 40 42
f 33 28 34
f 34 3 7
f 7 14 34
f 34 17 15
f 18 17 34
f 34 30 31
