# generated by collision_forge
v 0.279292 0.230750 0.014459
v 0.278955 0.237871 0.014459
v 0.279282 0.230793 0.008819
v 0.271212 0.242628 0.081830
v 0.269534 0.230903 0.173068
v 0.272051 0.219048 0.033702
v 0.269597 0.221274 0.193306
v 0.272094 0.243475 -0.001695
v 0.269886 0.250515 0.008176
v 0.269573 0.250309 0.029057
v 0.263175 0.234655 0.206743
v 0.264737 0.216617 0.014459
v 0.269963 0.221140 -0.000367
v 0.267336 0.216813 0.206743
v 0.264737 0.235856 -0.005074
v 0.260080 0.240780 0.183955
v 0.259983 0.211774 0.057507
v 0.254381 0.203753 0.206743
v 0.257404 0.220283 -0.001155
v 0.262977 0.209080 0.206743
v 0.257635 0.251223 0.004817
v 0.256883 0.250912 0.052965
v 0.252004 0.241182 0.206743
v 0.250235 0.211760 0.067087
v 0.248914 0.220216 0.014459
v 0.245925 0.202916 0.206743
v 0.248648 0.228352 -0.001529
v 0.248856 0.242566 -0.001342
v 0.251406 0.249859 0.024080
v 0.247655 0.241182 0.206743
v 0.236171 0.207845 0.206743
v 0.244661 0.235856 0.004817
v 0.239985 0.241422 0.101073
v 0.239946 0.241226 0.158843
v 0.240235 0.220781 0.062587
v 0.240409 0.230214 0.035713
v 0.240462 0.211611 0.123115
v 0.240428 0.240991 0.072208
v 0.231287 0.230271 0.206743
v 0.230853 0.220872 0.170331
v 0.237950 0.235856 0.081830
v 0.231321 0.212793 0.206743
f 25 36 27
f 18 17 6
f 40 36 35
f 35 36 25
f 40 35 42
f 40 42 39
f 29 22 21
f 9 8 21
f 21 22 9
f 9 22 10
f 10 2 9
f 9 2 8
f 13 8 3
f 1 6 3
f 3 6 13
f 3 2 1
f 8 2 3
f 4 2 10
f 4 16 11
f 10 16 4
f 5 4 11
f 2 4 5
f 11 16 23
f 23 22 30
f 10 22 23
f 23 16 10
f 25 27 19
f 26 17 18
f 18 6 20
f 1 14 20
f 20 6 1
f 33 29 38
f 38 39 33
f 28 38 29
f 28 29 21
f 21 8 28
f 30 22 34
f 22 29 34
f 34 29 33
f 34 39 30
f 33 39 34
f 11 14 7
f 7 5 11
f 7 14 1
f 1 2 7
f 2 5 7
f 12 19 13
f 13 6 12
f 12 6 17
f 15 19 27
f 15 28 8
f 27 28 15
f 15 8 13
f 13 19 15
f 17 26 24
f 25 19 24
f 24 12 17
f 19 12 24
f 40 39 41
f 39 38 41
f 41 36 40
f 32 27 36
f 32 28 27
f 38 28 32
f 36 41 32
f 32 41 38
f 37 26 31
f 37 24 26
f 31 42 37
f 37 42 35
f 37 35 25
f 25 24 37
f 20 14 11
f 30 39 20
f 20 26 18
f 11 23 20
f 20 42 31
f 20 39 42
f 20 23 30
f 31 26 20
