# generated by collision_forge
v -0.189896 -0.109042 0.582417
v -0.189896 -0.113279 0.596321
v -0.187720 -0.113342 0.596321
v -0.188375 -0.109118 0.582417
v -0.189896 -0.128093 0.582417
v -0.189896 -0.128093 0.596321
v -0.178077 -0.114554 0.596321
v -0.176220 -0.114857 0.596321
v -0.178095 -0.111097 0.582417
v -0.099521 -0.128093 0.582417
v -0.110190 -0.128093 0.596321
v -0.167656 -0.113240 0.582417
f 12 11 10
f 1 2 3
f 9 8 11
f 11 12 9
f 1 3 4
f 8 9 4
f 8 4 7
f 7 4 3
f 6 2 1
f 1 5 6
f 11 6 5
f 11 5 10
f 4 5 1
f 10 5 4
f 4 12 10
f 4 9 12
f 2 6 7
f 6 11 7
f 11 8 7
f 7 3 2
