# generated by collision_forge
v -0.113236 -0.231433 0.806099
v -0.113236 -0.154529 0.806099
v -0.176666 -0.242564 0.928977
v -0.162799 -0.144255 0.806099
v -0.113226 -0.226226 0.966155
v -0.113226 -0.253940 0.890482
v -0.113226 -0.192987 0.932706
v -0.113226 -0.167266 0.851831
v -0.149230 -0.243373 0.955266
v -0.212128 -0.203074 0.880878
v -0.200523 -0.164651 0.854416
v -0.169085 -0.226566 0.955376
v -0.187039 -0.143328 0.806099
v -0.113226 -0.249601 0.960202
v -0.139600 -0.148571 0.806099
v -0.221504 -0.172966 0.809248
v -0.183249 -0.231468 0.943782
v -0.184066 -0.231598 0.883401
v -0.158860 -0.186114 0.928977
v -0.129980 -0.227950 0.806099
v -0.202297 -0.221628 0.915190
v -0.202020 -0.221288 0.886299
v -0.154241 -0.250363 0.943579
v -0.113226 -0.259253 0.951318
v -0.113226 -0.200048 0.947558
v -0.198973 -0.146894 0.806099
v -0.160718 -0.202956 0.952478
v -0.212755 -0.162469 0.823113
v -0.187867 -0.209876 0.806099
v -0.139069 -0.251102 0.900541
v -0.178088 -0.142824 0.806099
v -0.168363 -0.217594 0.806099
v -0.158860 -0.174421 0.901763
v -0.149230 -0.253577 0.928977
v -0.183015 -0.182865 0.914641
v -0.221037 -0.180027 0.806099
v -0.191987 -0.203109 0.933144
v -0.178088 -0.164463 0.873938
v -0.217671 -0.187733 0.806099
v -0.202169 -0.211835 0.924183
v -0.146278 -0.163982 0.865383
v -0.202880 -0.182126 0.887177
f 16 10 42
f 19 38 35
f 16 26 36
f 36 10 16
f 24 14 9
f 9 14 5
f 5 12 9
f 28 26 16
f 16 42 28
f 11 42 35
f 35 38 11
f 11 38 26
f 26 28 11
f 11 28 42
f 40 42 10
f 13 38 31
f 26 38 13
f 7 19 25
f 27 19 35
f 27 12 5
f 5 25 27
f 27 25 19
f 31 41 4
f 8 41 7
f 1 2 8
f 31 38 33
f 33 41 31
f 38 19 33
f 33 19 7
f 7 41 33
f 29 18 22
f 22 18 3
f 1 8 6
f 3 18 34
f 18 30 34
f 34 6 24
f 30 6 34
f 32 18 29
f 32 30 18
f 17 9 12
f 37 27 35
f 35 42 37
f 42 40 37
f 12 27 37
f 37 17 12
f 40 17 37
f 15 4 41
f 15 8 2
f 41 8 15
f 29 22 39
f 10 36 39
f 39 22 10
f 3 34 23
f 23 17 3
f 9 17 23
f 24 9 23
f 23 34 24
f 30 32 20
f 1 6 20
f 20 6 30
f 21 17 40
f 21 40 10
f 10 22 21
f 21 22 3
f 3 17 21
f 6 25 5
f 5 14 6
f 6 14 24
f 7 25 6
f 6 8 7
f 20 2 1
f 20 13 31
f 20 36 26
f 31 4 20
f 20 15 2
f 26 13 20
f 29 39 20
f 20 32 29
f 4 15 20
f 20 39 36
