# generated by collision_forge
v 0.168938 -0.135366 0.596321
v 0.004874 -0.134707 0.500508
v 0.110706 -0.134707 0.504034
v 0.004874 -0.137856 0.596293
v 0.127890 -0.193104 0.556678
v 0.066928 -0.134707 0.596321
v 0.104379 -0.201951 0.596321
v 0.168938 -0.182016 0.553818
v 0.014445 -0.209326 0.596321
v 0.135695 -0.163942 0.519659
v 0.004874 -0.158889 0.506990
v 0.142119 -0.182339 0.540074
v 0.110706 -0.158845 0.513177
v 0.168938 -0.134707 0.511970
v 0.004874 -0.134707 0.574461
v 0.004874 -0.200120 0.543790
v 0.024081 -0.206821 0.572798
v 0.072211 -0.205994 0.596321
v 0.115829 -0.192592 0.548590
v 0.085605 -0.202076 0.568663
v 0.129962 -0.195777 0.572798
v 0.110706 -0.182390 0.530114
v 0.168938 -0.164579 0.528688
v 0.158515 -0.134707 0.508719
v 0.158837 -0.189355 0.572798
v 0.081831 -0.199095 0.553542
v 0.081831 -0.184653 0.527614
v 0.052956 -0.205298 0.572798
v 0.004874 -0.209524 0.596321
v 0.004874 -0.203584 0.553532
v 0.013514 -0.134707 0.499225
v 0.043336 -0.198487 0.543924
v 0.162482 -0.190702 0.596321
v 0.033701 -0.182141 0.520486
v 0.004874 -0.178098 0.516503
v 0.014445 -0.192225 0.529914
v 0.103961 -0.172884 0.520134
v 0.048716 -0.163737 0.510193
v 0.004874 -0.165421 0.509470
v 0.087066 -0.192599 0.539010
v 0.059749 -0.202325 0.557819
v 0.168938 -0.188827 0.592044
f 6 4 29
f 6 15 4
f 1 14 6
f 1 33 42
f 2 31 11
f 36 16 35
f 30 17 29
f 29 17 9
f 20 18 28
f 18 9 28
f 28 9 17
f 25 42 33
f 33 21 25
f 7 21 33
f 7 18 20
f 20 21 7
f 31 3 38
f 38 11 31
f 39 11 38
f 38 35 39
f 32 30 16
f 32 16 36
f 36 40 32
f 26 32 40
f 40 19 26
f 17 30 41
f 41 28 17
f 30 32 41
f 32 26 41
f 20 28 41
f 41 26 20
f 42 25 8
f 27 40 36
f 13 38 3
f 23 8 12
f 12 8 19
f 12 19 40
f 5 8 25
f 19 8 5
f 5 25 21
f 5 21 20
f 20 26 5
f 5 26 19
f 35 38 34
f 36 35 34
f 34 27 36
f 24 13 3
f 24 14 23
f 23 12 22
f 40 27 22
f 22 12 40
f 38 13 37
f 37 34 38
f 27 34 37
f 37 22 27
f 13 24 10
f 10 37 13
f 10 24 23
f 23 22 10
f 22 37 10
f 29 4 30
f 30 15 2
f 4 15 30
f 30 35 16
f 2 11 30
f 30 11 39
f 39 35 30
f 1 6 7
f 7 33 1
f 7 6 29
f 29 9 7
f 7 9 18
f 23 14 8
f 8 14 1
f 1 42 8
f 2 15 24
f 24 31 2
f 24 6 14
f 15 6 24
f 24 3 31
