# generated by collision_forge
v 0.188208 -0.140336 0.515424
v 0.188208 -0.139755 0.513477
v 0.201697 -0.154615 0.481760
v 0.201992 -0.154199 0.491857
v 0.203387 -0.153537 0.498276
v 0.209806 -0.154652 0.501604
v 0.190244 -0.140806 0.515424
v 0.188208 -0.107539 0.515424
v 0.188208 -0.134336 0.501884
v 0.200152 -0.151761 0.481760
v 0.207320 -0.158802 0.481760
v 0.216604 -0.160829 0.486159
v 0.216604 -0.154780 0.501736
v 0.225739 -0.107539 0.515424
v 0.188208 -0.107539 0.490707
v 0.216604 -0.162024 0.481760
v 0.226165 -0.160023 0.481760
v 0.222157 -0.154402 0.501110
v 0.206978 -0.142710 0.515424
v 0.236040 -0.139590 0.481760
v 0.224611 -0.107539 0.505130
v 0.225472 -0.120329 0.515424
v 0.232107 -0.139590 0.502728
v 0.234260 -0.139590 0.495785
v 0.235810 -0.139590 0.486159
v 0.188208 -0.109955 0.490160
v 0.201879 -0.131370 0.481760
v 0.188208 -0.125492 0.491679
v 0.229293 -0.158167 0.481760
v 0.231128 -0.154119 0.491161
v 0.222270 -0.145025 0.510719
v 0.235908 -0.149212 0.481760
v 0.232814 -0.132576 0.481760
v 0.222438 -0.107539 0.499222
v 0.224456 -0.129338 0.515424
v 0.231634 -0.145451 0.501611
v 0.206262 -0.107539 0.489978
v 0.216604 -0.125482 0.481760
v 0.198302 -0.139568 0.481760
v 0.218164 -0.139232 0.515424
v 0.229063 -0.129482 0.481760
v 0.210639 -0.107539 0.491214
f 17 12 16
f 32 24 36
f 18 12 17
f 10 9 28
f 15 38 27
f 15 27 26
f 11 16 5
f 23 24 14
f 36 24 23
f 23 35 36
f 30 32 36
f 30 18 17
f 36 18 30
f 25 32 20
f 24 32 25
f 20 14 25
f 14 24 25
f 12 18 13
f 19 13 31
f 31 13 18
f 36 35 31
f 31 18 36
f 39 28 26
f 39 10 28
f 26 27 39
f 9 10 2
f 2 10 3
f 2 3 1
f 21 14 20
f 42 34 41
f 38 15 37
f 37 41 38
f 42 41 37
f 3 11 4
f 1 3 4
f 4 5 1
f 4 11 5
f 22 23 14
f 35 23 22
f 29 30 17
f 32 30 29
f 6 13 19
f 1 5 6
f 12 13 6
f 6 16 12
f 5 16 6
f 19 31 40
f 40 31 35
f 33 41 34
f 34 21 33
f 33 21 20
f 1 6 7
f 7 6 19
f 1 8 2
f 8 15 2
f 26 28 2
f 28 9 2
f 2 15 26
f 8 14 37
f 37 15 8
f 37 34 42
f 14 21 37
f 37 21 34
f 3 10 33
f 33 39 27
f 20 32 33
f 17 16 33
f 33 29 17
f 33 11 3
f 27 38 33
f 16 11 33
f 10 39 33
f 38 41 33
f 32 29 33
f 7 14 8
f 7 8 1
f 19 40 7
f 7 22 14
f 35 22 7
f 7 40 35
