# generated by collision_forge
v 0.235854 -0.211861 0.255110
v 0.231316 -0.202204 0.308290
v 0.244748 -0.209138 0.255110
v 0.241077 -0.202398 0.299549
v 0.244953 -0.209070 0.255110
v 0.232426 -0.183583 0.387670
v 0.211491 -0.163846 0.472509
v 0.226756 -0.209620 0.255110
v 0.221578 -0.202060 0.288300
v 0.251649 -0.203903 0.255133
v 0.240426 -0.182720 0.374914
v 0.231344 -0.163896 0.462880
v 0.222798 -0.164133 0.473463
v 0.216609 -0.162027 0.481760
v 0.201697 -0.154620 0.481760
v 0.250440 -0.183228 0.328346
v 0.240740 -0.163769 0.433506
v 0.200157 -0.151761 0.481760
v 0.219695 -0.204326 0.255133
v 0.254399 -0.187718 0.255110
v 0.240746 -0.154239 0.452896
v 0.235904 -0.149224 0.481760
v 0.216620 -0.197341 0.255110
v 0.251776 -0.180987 0.255110
v 0.250545 -0.172725 0.330431
v 0.236031 -0.139593 0.481760
v 0.197998 -0.143990 0.481760
v 0.216648 -0.187718 0.255110
v 0.245091 -0.175718 0.255110
v 0.240829 -0.153901 0.364819
v 0.240387 -0.145275 0.438010
v 0.198307 -0.139576 0.481760
v 0.198688 -0.135204 0.481760
v 0.219717 -0.180682 0.255110
v 0.201879 -0.131373 0.481760
v 0.235854 -0.173063 0.255110
v 0.231167 -0.134696 0.451832
v 0.206959 -0.127788 0.481760
v 0.216609 -0.125479 0.481760
v 0.231504 -0.144193 0.393705
v 0.208284 -0.127246 0.481760
v 0.230096 -0.172894 0.258194
f 14 15 7
f 40 36 39
f 23 18 27
f 26 22 21
f 21 22 17
f 26 21 31
f 31 21 25
f 16 21 17
f 25 21 16
f 16 10 20
f 20 25 16
f 17 22 12
f 14 7 2
f 24 25 20
f 24 31 25
f 27 32 28
f 28 23 27
f 28 32 33
f 28 33 34
f 15 18 19
f 18 23 19
f 37 39 26
f 26 31 37
f 40 39 37
f 13 22 14
f 13 12 22
f 6 12 13
f 14 2 13
f 13 2 6
f 11 12 6
f 17 12 11
f 11 16 17
f 10 16 11
f 29 36 40
f 42 36 34
f 34 38 42
f 42 39 36
f 34 33 35
f 35 38 34
f 8 19 23
f 1 2 8
f 4 2 1
f 10 11 4
f 6 2 4
f 4 11 6
f 40 37 30
f 30 29 40
f 24 29 30
f 31 24 30
f 30 37 31
f 39 42 41
f 41 42 38
f 9 2 7
f 9 8 2
f 19 8 9
f 9 7 15
f 15 19 9
f 10 4 5
f 20 10 5
f 3 4 1
f 3 5 4
f 27 18 41
f 14 22 41
f 41 15 14
f 41 32 27
f 41 18 15
f 41 22 26
f 33 32 41
f 26 39 41
f 41 35 33
f 38 35 41
f 36 29 3
f 1 8 3
f 34 36 3
f 3 24 20
f 3 28 34
f 23 28 3
f 3 29 24
f 3 8 23
f 20 5 3
