# generated by collision_forge
v -0.004815 0.158768 0.506458
v -0.024076 0.158768 0.506520
v -0.004744 0.158768 0.506458
v -0.004815 0.139592 0.508642
v -0.024076 0.139592 0.508815
v -0.033697 0.158768 0.506675
v -0.014445 0.139592 0.508722
v 0.004886 0.158768 0.506644
v 0.004806 0.139592 0.508797
v -0.033697 0.139592 0.509113
v -0.043318 0.139592 0.509553
v -0.043238 0.158768 0.507190
v 0.010413 0.158768 0.506917
v 0.010413 0.139592 0.509020
v -0.051337 0.139592 0.509988
v -0.056152 0.139592 0.510347
v -0.062569 0.139592 0.510831
v -0.072199 0.139592 0.511569
v -0.080512 0.139592 0.512208
v -0.043318 0.158768 0.507196
v 0.010413 0.158768 0.565518
v 0.010413 0.139592 0.565264
v -0.080512 0.139592 0.569736
v -0.080512 0.158738 0.510986
v -0.063130 0.158768 0.509070
v -0.052948 0.158768 0.508077
v -0.080512 0.149216 0.569817
v 0.010413 0.154814 0.565494
v -0.080512 0.158768 0.569718
v -0.080512 0.150532 0.569804
v 0.010413 0.145190 0.565382
v 0.010413 0.149216 0.565456
v -0.080512 0.158768 0.511656
v -0.079320 0.158768 0.510874
f 23 32 27
f 27 32 28
f 28 21 27
f 2 5 6
f 23 22 31
f 32 23 31
f 14 8 13
f 21 29 30
f 27 21 30
f 10 11 6
f 6 5 10
f 1 3 4
f 4 2 1
f 7 2 4
f 5 2 7
f 8 14 9
f 3 8 9
f 4 3 9
f 19 24 25
f 24 33 34
f 34 25 24
f 19 25 26
f 26 20 19
f 12 18 19
f 19 20 12
f 17 18 12
f 12 16 17
f 15 16 12
f 11 15 12
f 6 11 12
f 13 21 14
f 32 31 14
f 14 28 32
f 21 28 14
f 14 31 22
f 19 23 33
f 33 23 27
f 27 30 33
f 33 30 29
f 33 24 19
f 11 10 16
f 16 23 19
f 16 7 4
f 16 22 23
f 16 15 11
f 4 9 16
f 16 14 22
f 19 18 16
f 16 10 5
f 5 7 16
f 16 9 14
f 16 18 17
f 3 1 12
f 12 21 13
f 13 8 12
f 12 29 21
f 12 8 3
f 12 2 6
f 12 1 2
f 12 33 29
f 12 34 33
f 25 34 12
f 12 26 25
f 20 26 12
