# generated by collision_forge
v -0.187714 -0.118651 0.660756
v -0.197339 -0.119268 0.660756
v -0.178089 -0.119278 0.660756
v -0.206965 -0.121651 0.660756
v -0.168463 -0.120511 0.660756
v -0.202472 -0.125031 0.703640
v -0.158838 -0.122072 0.660756
v -0.072241 -0.138129 0.660756
v -0.218961 -0.128164 0.660756
v -0.149556 -0.125843 0.688609
v -0.187714 -0.128236 0.739622
v -0.178089 -0.128288 0.739622
v -0.206575 -0.133054 0.739622
v -0.197339 -0.129808 0.739622
v -0.223672 -0.132315 0.660756
v -0.072553 -0.210997 0.660756
v -0.220147 -0.143399 0.739622
v -0.228992 -0.140204 0.660756
v -0.158838 -0.130733 0.739622
v -0.140710 -0.134082 0.739622
v -0.072241 -0.223602 0.739615
v -0.231535 -0.147879 0.660756
v -0.227229 -0.158850 0.739622
v -0.072241 -0.147540 0.739622
v -0.072241 -0.146964 0.736449
v -0.078512 -0.222647 0.739622
v -0.225888 -0.168476 0.739622
v -0.091913 -0.220551 0.739622
v -0.222580 -0.174825 0.739622
v -0.091461 -0.208172 0.660756
v -0.231223 -0.155799 0.660756
v -0.221145 -0.176407 0.739622
v -0.217822 -0.179633 0.739622
v -0.224125 -0.166483 0.660756
v -0.218743 -0.171291 0.660756
v -0.206965 -0.187482 0.739622
v -0.206107 -0.178955 0.660756
v -0.140367 -0.210812 0.739622
v -0.158838 -0.195238 0.660756
v -0.192176 -0.194766 0.739622
v -0.177964 -0.190071 0.660756
v -0.172504 -0.201936 0.739622
f 8 21 16
f 21 24 26
f 18 23 17
f 22 23 18
f 7 10 8
f 8 10 25
f 11 1 2
f 9 17 13
f 15 17 9
f 15 18 17
f 33 34 35
f 6 2 4
f 11 2 6
f 6 4 9
f 9 13 6
f 31 27 23
f 31 23 22
f 31 29 27
f 34 29 31
f 10 7 5
f 5 3 10
f 24 25 20
f 20 25 10
f 10 19 20
f 12 3 1
f 12 1 11
f 10 3 12
f 12 19 10
f 37 40 36
f 36 35 37
f 33 35 36
f 42 40 41
f 41 40 37
f 38 41 39
f 42 41 38
f 30 16 21
f 21 26 30
f 11 6 14
f 14 6 13
f 32 34 33
f 32 29 34
f 28 30 26
f 39 30 28
f 28 38 39
f 25 24 21
f 25 21 8
f 8 16 30
f 30 7 8
f 30 41 37
f 22 18 30
f 1 3 30
f 9 4 30
f 30 2 1
f 30 15 9
f 37 35 30
f 4 2 30
f 18 15 30
f 30 35 34
f 30 31 22
f 30 5 7
f 34 31 30
f 3 5 30
f 39 41 30
f 24 20 28
f 28 12 11
f 28 32 33
f 28 26 24
f 17 23 28
f 33 36 28
f 28 13 17
f 23 27 28
f 11 14 28
f 28 40 42
f 27 29 28
f 28 20 19
f 19 12 28
f 28 36 40
f 42 38 28
f 28 14 13
f 29 32 28
