# generated by collision_forge
v 0.203695 0.158774 0.511709
v 0.229833 0.158774 0.511709
v 0.203695 0.158774 0.524649
v 0.203695 0.188756 0.511709
v 0.230010 0.158774 0.511869
v 0.242293 0.190012 0.511709
v 0.234416 0.158774 0.524649
v 0.203695 0.215564 0.524649
v 0.203695 0.209993 0.512625
v 0.208341 0.204306 0.511709
v 0.232359 0.158774 0.516683
v 0.242927 0.191702 0.511709
v 0.243948 0.197351 0.511709
v 0.237324 0.178098 0.524649
v 0.233072 0.215564 0.524649
v 0.203695 0.215564 0.513248
v 0.209697 0.206407 0.511709
v 0.242447 0.205017 0.511709
v 0.242206 0.204578 0.512805
v 0.236926 0.207892 0.524649
v 0.238782 0.197351 0.524649
v 0.238258 0.187722 0.524649
v 0.238120 0.209543 0.511709
v 0.232410 0.212634 0.511709
v 0.228935 0.214435 0.511709
v 0.225128 0.215564 0.515137
v 0.217704 0.215564 0.514363
v 0.225345 0.214391 0.511709
v 0.220470 0.212929 0.511709
v 0.224722 0.215564 0.514971
f 14 7 13
f 20 21 13
f 13 7 12
f 13 21 22
f 22 14 13
f 15 20 18
f 29 17 16
f 16 17 9
f 11 12 7
f 15 18 23
f 13 18 19
f 19 20 13
f 19 18 20
f 27 25 16
f 27 30 25
f 15 25 26
f 25 30 26
f 16 25 28
f 28 29 16
f 4 9 10
f 10 9 17
f 24 25 15
f 15 23 24
f 6 5 2
f 11 5 6
f 12 11 6
f 8 3 22
f 3 7 22
f 22 15 8
f 21 20 22
f 7 14 22
f 22 20 15
f 9 3 8
f 1 3 9
f 8 16 9
f 9 4 1
f 26 16 8
f 8 15 26
f 26 27 16
f 30 27 26
f 5 3 1
f 5 7 3
f 1 2 5
f 5 11 7
f 6 2 1
f 13 12 6
f 1 4 6
f 6 18 13
f 6 28 25
f 25 24 6
f 17 29 6
f 6 10 17
f 6 23 18
f 29 28 6
f 4 10 6
f 6 24 23
