# generated by collision_forge
v -0.053496 0.000010 0.009975
v -0.053536 0.002795 0.008934
v -0.053525 -0.002087 0.009141
v -0.063513 -0.001669 0.007177
v -0.053429 -0.005036 0.005196
v -0.053391 -0.003418 0.008474
v -0.060433 -0.003798 0.005102
v -0.053485 -0.003469 0.001524
v -0.053706 0.005146 0.004908
v -0.053394 0.003180 0.008665
v -0.071192 0.000414 0.005156
v -0.053501 0.004533 0.003200
v -0.063710 0.000013 0.002292
v -0.053665 -0.000179 0.000003
v -0.053446 0.002822 0.001098
v -0.071168 0.000165 0.004702
v -0.028000 -0.000123 0.009983
v -0.028000 -0.003199 0.008670
v -0.028000 0.005033 0.005401
v -0.028000 0.005049 0.004909
v -0.028000 -0.005142 0.004822
v -0.028000 -0.000025 0.000049
v -0.028000 0.002876 0.008892
v -0.028000 0.003304 0.001434
v -0.028000 -0.005141 0.005144
v -0.028000 -0.003467 0.001519
f 1 2 11
f 11 4 1
f 19 20 9
f 25 18 6
f 25 5 21
f 6 5 25
f 7 5 6
f 6 4 7
f 3 18 17
f 17 1 3
f 6 18 3
f 3 4 6
f 3 1 4
f 23 1 17
f 2 1 23
f 8 26 21
f 21 5 8
f 14 26 8
f 5 7 8
f 20 24 12
f 9 20 12
f 24 15 12
f 11 9 12
f 22 26 14
f 14 15 22
f 22 15 24
f 10 23 19
f 2 23 10
f 10 19 9
f 10 9 11
f 11 2 10
f 14 8 13
f 13 15 14
f 16 8 7
f 16 4 11
f 16 7 4
f 16 13 8
f 15 13 16
f 11 12 16
f 16 12 15
f 22 25 21
f 17 18 22
f 22 24 20
f 20 19 22
f 21 26 22
f 22 23 17
f 18 25 22
f 19 23 22
