# generated by collision_forge
v -0.007107 0.004780 0.006608
v -0.028000 0.000157 0.009894
v -0.028000 0.002876 0.008892
v -0.028000 -0.003199 0.008670
v -0.028000 -0.003586 0.008269
v -0.028000 -0.005141 0.005144
v -0.028000 -0.003467 0.001519
v -0.028000 -0.003176 0.001294
v -0.028000 0.003137 0.001268
v -0.028000 0.000221 0.000130
v -0.028000 -0.000123 0.009983
v -0.028000 0.004278 0.007146
v -0.028000 0.005049 0.004909
v -0.028000 0.004610 0.003334
v 0.005000 -0.000702 0.009553
v 0.005000 -0.003239 0.008600
v 0.005000 0.003315 0.008555
v 0.005000 0.004899 0.005018
v 0.005000 0.004832 0.003593
v 0.005000 -0.005191 0.004884
v 0.005000 -0.002957 0.001259
v 0.005000 0.003247 0.001403
v 0.005000 0.000200 0.009800
v 0.005000 0.004649 0.006773
v 0.005000 0.000718 0.000390
v 0.005000 -0.003838 0.008033
f 3 23 17
f 2 23 3
f 1 18 13
f 15 23 11
f 11 23 2
f 6 20 26
f 7 20 6
f 9 14 19
f 22 9 19
f 19 14 13
f 13 18 19
f 12 1 13
f 12 3 17
f 17 1 12
f 24 1 17
f 18 1 24
f 6 26 5
f 5 26 4
f 4 26 16
f 16 11 4
f 15 11 16
f 20 7 21
f 10 21 8
f 8 21 7
f 25 21 10
f 10 9 25
f 25 9 22
f 2 3 8
f 13 14 8
f 8 11 2
f 8 9 10
f 6 5 8
f 8 12 13
f 8 14 9
f 4 11 8
f 8 7 6
f 3 12 8
f 8 5 4
f 25 23 15
f 25 24 17
f 17 23 25
f 22 19 25
f 15 16 25
f 25 26 20
f 25 19 18
f 18 24 25
f 25 16 26
f 20 21 25
