# generated by collision_forge
v 0.005000 -0.000123 0.009767
v 0.005000 -0.002608 0.008841
v 0.005000 0.004895 0.006184
v 0.005000 0.004896 0.003738
v 0.005000 -0.003838 0.008033
v 0.005000 -0.005187 0.005122
v 0.005000 -0.003188 0.001345
v 0.005000 -0.000100 0.000248
v 0.005000 -0.000702 0.009553
v 0.005000 0.002937 0.008788
v 0.005000 -0.003239 0.008600
v 0.005000 -0.003477 0.008489
v 0.005000 0.003315 0.008555
v 0.005000 -0.002957 0.001259
v 0.005000 0.003247 0.001403
v 0.038000 -0.000125 0.009831
v 0.038000 0.003306 0.008474
v 0.038000 0.002744 0.008798
v 0.038000 0.004655 0.006727
v 0.038000 0.004935 0.004540
v 0.038000 0.003464 0.001689
v 0.038000 -0.005007 0.004856
v 0.038000 -0.003126 0.001443
v 0.038000 -0.000121 0.000227
v 0.038000 -0.003866 0.007926
v 0.038000 -0.003153 0.008563
f 1 16 10
f 13 10 17
f 23 7 24
f 9 16 1
f 9 2 16
f 16 2 11
f 6 25 5
f 5 25 12
f 12 25 26
f 26 11 12
f 16 11 26
f 22 25 6
f 6 7 22
f 22 7 23
f 13 17 19
f 18 10 16
f 18 17 10
f 21 24 15
f 15 4 21
f 21 4 20
f 15 24 8
f 13 19 3
f 3 19 20
f 20 4 3
f 14 24 7
f 14 8 24
f 20 19 21
f 21 18 16
f 16 26 21
f 21 22 23
f 23 24 21
f 21 26 25
f 25 22 21
f 21 19 17
f 17 18 21
f 14 4 15
f 14 7 6
f 12 11 14
f 1 10 14
f 14 9 1
f 14 10 13
f 15 8 14
f 6 5 14
f 2 9 14
f 14 11 2
f 14 5 12
f 13 3 14
f 14 3 4
