# generated by collision_forge
v 0.070184 0.002680 0.008871
v 0.070464 -0.001926 0.009299
v 0.070478 -0.004850 0.005869
v 0.070457 -0.003943 0.007854
v 0.068798 -0.005040 0.004819
v 0.070512 0.005211 0.004946
v 0.070583 0.004389 0.007239
v 0.071108 0.004077 0.002956
v 0.071168 -0.003617 0.002869
v 0.066776 -0.003465 0.001580
v 0.070154 -0.001790 0.000761
v 0.070416 0.001551 0.000679
v 0.038000 0.002744 0.008798
v 0.038000 0.003306 0.008474
v 0.038000 -0.003850 0.007961
v 0.038000 0.004655 0.006727
v 0.038000 0.004803 0.006351
v 0.038000 0.004890 0.004029
v 0.038000 -0.005009 0.005163
v 0.038000 -0.004555 0.003797
v 0.038000 0.003298 0.001524
v 0.038000 0.000215 0.000198
v 0.038000 -0.000125 0.009831
v 0.038000 -0.003552 0.008368
v 0.038000 -0.003126 0.001443
v 0.038000 -0.000121 0.000227
f 7 1 2
f 9 12 8
f 6 7 8
f 8 18 6
f 8 2 9
f 8 7 2
f 21 12 22
f 18 8 21
f 21 8 12
f 23 24 2
f 23 1 13
f 2 1 23
f 9 2 4
f 4 3 9
f 2 24 4
f 19 3 15
f 15 4 24
f 3 4 15
f 25 10 20
f 11 10 25
f 22 12 11
f 11 12 9
f 9 10 11
f 7 16 14
f 13 1 14
f 1 7 14
f 6 18 17
f 17 7 6
f 17 16 7
f 19 20 5
f 5 3 19
f 5 20 10
f 9 3 5
f 5 10 9
f 22 11 26
f 26 11 25
f 26 21 22
f 26 17 18
f 26 20 19
f 19 15 26
f 26 23 13
f 18 21 26
f 13 14 26
f 24 23 26
f 26 15 24
f 25 20 26
f 26 14 16
f 16 17 26
