# Blender v2.82 (sub 7) OBJ File: 'torso_01.blend'
# www.blender.org
mtllib torso_coll_04.mtl
o torso_coll_04_Cube.009
v -0.067785 0.058941 -0.053691
v -0.067494 0.038006 -0.053691
v -0.067507 0.040380 -0.044772
v -0.067776 0.058511 -0.050996
v -0.028988 0.064008 -0.053791
v -0.028896 0.057448 -0.053791
v -0.028895 0.057691 -0.052961
v -0.028979 0.063591 -0.053041
v -0.048201 0.049036 -0.048866
v -0.048195 0.047727 -0.053741
v -0.044450 0.063099 -0.053751
v -0.044441 0.062677 -0.052226
vt 0.669339 0.665134
vt 0.632354 0.664550
vt 0.625000 0.664433
vt 0.632194 0.664547
vt 0.638894 0.664653
vt 0.625000 0.664433
vt 0.655483 0.664915
vt 0.654117 0.664894
vt 0.625150 0.664436
vt 0.641626 0.664696
vt 0.632065 0.664545
vt 0.669339 0.665134
vn -0.9999 -0.0139 0.0011
vn 0.9999 0.0139 -0.0038
vn 0.4379 -0.8681 0.2336
vn -0.0026 -0.0000 -1.0000
vn 0.1127 0.2082 0.9716
vn -0.0428 0.9628 0.2667
vn -0.1656 0.9738 0.1557
vn 0.0546 0.3249 0.9442
vn 0.4381 -0.8685 0.2319
vn -0.9999 -0.0141 0.0023
vn 0.9999 0.0141 -0.0054
vn 0.4399 -0.8620 0.2519
vn 0.0518 0.0143 0.9986
vn -0.0500 0.8724 0.4862
vn -0.1686 0.9497 0.2638
vn 0.0089 0.2368 0.9715
vn 0.4386 -0.8678 0.2335
usemtl None
s off
f 2/1/1 4/2/1 1/3/1
f 8/4/2 6/5/2 5/6/2
f 6/5/3 9/7/3 10/8/3
f 11/9/4 6/5/4 10/8/4
f 7/10/5 12/11/5 9/7/5
f 8/4/6 11/9/6 12/11/6
f 12/11/7 1/3/7 4/2/7
f 9/7/8 4/2/8 3/12/8
f 1/3/4 10/8/4 2/1/4
f 10/8/9 3/12/9 2/1/9
f 2/1/10 3/12/10 4/2/10
f 8/4/11 7/10/11 6/5/11
f 6/5/12 7/10/12 9/7/12
f 11/9/4 5/6/4 6/5/4
f 7/10/13 8/4/13 12/11/13
f 8/4/14 5/6/14 11/9/14
f 12/11/15 11/9/15 1/3/15
f 9/7/16 12/11/16 4/2/16
f 1/3/4 11/9/4 10/8/4
f 10/8/17 9/7/17 3/12/17
