# Blender v2.78 (sub 0) OBJ File: ''
# www.blender.org
o Cylinder_Cylinder.001
v -0.000000 1.000000 0.000000
v 0.195090 0.980785 0.000000
v 0.382683 0.923879 0.000000
v 0.555570 0.831470 0.000000
v 0.707107 0.707107 0.000000
v 0.831470 0.555570 0.000000
v 0.923879 0.382683 0.000000
v 0.980785 0.195090 0.000000
v 1.000000 0.000000 0.000000
v 0.980785 -0.195090 0.000000
v 0.923879 -0.382683 0.000000
v 0.831470 -0.555570 0.000000
v 0.707107 -0.707107 -0.000000
v 0.555570 -0.831470 -0.000000
v 0.382683 -0.923880 -0.000000
v 0.195090 -0.980785 -0.000000
v -0.000000 -1.000000 -0.000000
v -0.195091 -0.980785 -0.000000
v -0.382684 -0.923879 -0.000000
v -0.555571 -0.831469 -0.000000
v -0.707107 -0.707106 -0.000000
v -0.831470 -0.555570 0.000000
v -0.923880 -0.382683 0.000000
v -0.980786 -0.195090 0.000000
v -1.000000 0.000001 0.000000
v -0.980785 0.195091 0.000000
v -0.923879 0.382684 0.000000
v -0.831469 0.555571 0.000000
v -0.707106 0.707108 0.000000
v -0.555569 0.831470 0.000000
v -0.382682 0.923880 0.000000
v -0.195089 0.980785 0.000000
v 0.000000 0.000000 0.100000
v 0.161520 0.812016 0.200000
v 0.000000 0.827925 0.200000
v 0.316833 0.764903 0.200000
v 0.459970 0.688394 0.200000
v 0.585431 0.585431 0.200000
v 0.688394 0.459970 0.200000
v 0.764903 0.316833 0.200000
v 0.812016 0.161520 0.200000
v 0.827925 0.000000 0.200000
v 0.812017 -0.161520 0.200000
v 0.764903 -0.316833 0.200000
v 0.688394 -0.459970 0.200000
v 0.585431 -0.585431 0.200000
v 0.459970 -0.688394 0.200000
v 0.316833 -0.764903 0.200000
v 0.161520 -0.812017 0.200000
v -0.000000 -0.827925 0.200000
v -0.161520 -0.812016 0.200000
v -0.316833 -0.764903 0.200000
v -0.459971 -0.688394 0.200000
v -0.585432 -0.585431 0.200000
v -0.688395 -0.459970 0.200000
v -0.764903 -0.316833 0.200000
v -0.812017 -0.161519 0.200000
v -0.827925 0.000001 0.200000
v -0.812016 0.161521 0.200000
v -0.764902 0.316834 0.200000
v -0.688394 0.459971 0.200000
v -0.585431 0.585432 0.200000
v -0.459969 0.688395 0.200000
v -0.316832 0.764903 0.200000
v -0.161519 0.812017 0.200000
v 0.121772 0.612190 0.200000
v -0.000000 0.624184 0.200000
v 0.238865 0.576671 0.200000
v 0.346778 0.518990 0.200000
v 0.441365 0.441365 0.200000
v 0.518990 0.346778 0.200000
v 0.576671 0.238865 0.200000
v 0.612191 0.121772 0.200000
v 0.624184 -0.000000 0.200000
v 0.612191 -0.121772 0.200000
v 0.576671 -0.238865 0.200000
v 0.518990 -0.346778 0.200000
v 0.441365 -0.441365 0.200000
v 0.346778 -0.518990 0.200000
v 0.238865 -0.576671 0.200000
v 0.121772 -0.612191 0.200000
v -0.000000 -0.624184 0.200000
v -0.121773 -0.612191 0.200000
v -0.238865 -0.576671 0.200000
v -0.346778 -0.518990 0.200000
v -0.441365 -0.441365 0.200000
v -0.518990 -0.346778 0.200000
v -0.576671 -0.238865 0.200000
v -0.612191 -0.121772 0.200000
v -0.624184 0.000000 0.200000
v -0.612190 0.121773 0.200000
v -0.576671 0.238865 0.200000
v -0.518990 0.346779 0.200000
v -0.441364 0.441365 0.200000
v -0.346777 0.518990 0.200000
v -0.238864 0.576671 0.200000
v -0.121771 0.612191 0.200000
v 0.072264 0.363299 0.000000
v -0.000000 0.370416 0.000000
v 0.141752 0.342220 0.000000
v 0.205792 0.307990 0.000000
v 0.261924 0.261924 0.000000
v 0.307990 0.205792 0.000000
v 0.342220 0.141752 0.000000
v 0.363299 0.072264 0.000000
v 0.370416 -0.000000 0.000000
v 0.363299 -0.072265 0.000000
v 0.342220 -0.141752 0.000000
v 0.307990 -0.205792 0.000000
v 0.261924 -0.261924 0.000000
v 0.205792 -0.307990 0.000000
v 0.141752 -0.342220 0.000000
v 0.072265 -0.363299 0.000000
v -0.000000 -0.370416 0.000000
v -0.072265 -0.363299 0.000000
v -0.141752 -0.342220 0.000000
v -0.205792 -0.307990 0.000000
v -0.261924 -0.261924 0.000000
v -0.307990 -0.205792 0.000000
v -0.342220 -0.141752 0.000000
v -0.363299 -0.072264 0.000000
v -0.370416 0.000000 0.000000
v -0.363299 0.072265 0.000000
v -0.342220 0.141752 0.000000
v -0.307989 0.205792 0.000000
v -0.261923 0.261924 0.000000
v -0.205792 0.307990 0.000000
v -0.141752 0.342220 0.000000
v -0.072264 0.363299 0.000000
vn -0.4819 0.5872 0.6504
vn 0.7269 0.2205 0.6504
vn 0.0745 -0.7559 0.6504
vn -0.7559 0.0745 0.6504
vn 0.3581 0.6699 0.6504
vn 0.5872 -0.4819 0.6504
vn -0.5872 -0.4819 0.6504
vn -0.3581 0.6699 0.6504
vn 0.7559 0.0745 0.6504
vn -0.0745 -0.7559 0.6504
vn -0.7269 0.2205 0.6504
vn 0.4819 0.5872 0.6504
vn 0.4819 -0.5872 0.6504
vn -0.6699 -0.3581 0.6504
vn -0.2205 0.7269 0.6504
vn 0.7559 -0.0745 0.6504
vn -0.2205 -0.7269 0.6504
vn -0.6699 0.3581 0.6504
vn 0.5872 0.4819 0.6504
vn 0.3581 -0.6699 0.6504
vn 0.0745 0.7559 0.6504
vn -0.7269 -0.2205 0.6504
vn -0.0745 0.7559 0.6504
vn 0.7269 -0.2205 0.6504
vn -0.3581 -0.6699 0.6504
vn -0.5872 0.4819 0.6504
vn 0.6699 0.3581 0.6504
vn 0.2205 -0.7269 0.6504
vn -0.7559 -0.0745 0.6504
vn 0.2205 0.7269 0.6504
vn 0.6699 -0.3581 0.6504
vn -0.4819 -0.5872 0.6504
vn -0.0000 0.0000 1.0000
vn -0.0609 -0.6178 0.7839
vn -0.1802 -0.5941 0.7839
vn -0.2927 -0.5475 0.7839
vn -0.3939 -0.4799 0.7839
vn -0.4799 -0.3939 0.7839
vn -0.5475 -0.2927 0.7839
vn -0.5941 -0.1802 0.7839
vn -0.6178 -0.0609 0.7839
vn -0.6178 0.0609 0.7839
vn -0.5941 0.1802 0.7839
vn -0.5475 0.2927 0.7839
vn -0.4799 0.3939 0.7839
vn -0.3939 0.4799 0.7839
vn -0.2927 0.5475 0.7839
vn -0.1802 0.5941 0.7839
vn -0.0609 0.6178 0.7839
vn 0.0609 0.6178 0.7839
vn 0.1802 0.5941 0.7839
vn 0.2927 0.5475 0.7839
vn 0.3939 0.4799 0.7839
vn 0.4799 0.3939 0.7839
vn 0.5475 0.2927 0.7839
vn 0.5941 0.1802 0.7839
vn 0.6178 0.0609 0.7839
vn 0.6178 -0.0609 0.7839
vn 0.5941 -0.1802 0.7839
vn 0.5475 -0.2927 0.7839
vn 0.4799 -0.3939 0.7839
vn 0.3939 -0.4799 0.7839
vn 0.2927 -0.5475 0.7839
vn 0.1802 -0.5941 0.7839
vn 0.0609 -0.6178 0.7839
vn 0.0257 0.2605 0.9651
vn 0.0760 0.2505 0.9651
vn 0.1234 0.2309 0.9651
vn 0.1661 0.2024 0.9651
vn 0.2024 0.1661 0.9651
vn 0.2309 0.1234 0.9651
vn 0.2505 0.0760 0.9651
vn 0.2605 0.0257 0.9651
vn 0.2605 -0.0257 0.9651
vn 0.2505 -0.0760 0.9651
vn 0.2309 -0.1234 0.9651
vn 0.2024 -0.1661 0.9651
vn 0.1661 -0.2024 0.9651
vn 0.1234 -0.2309 0.9651
vn 0.0760 -0.2505 0.9651
vn 0.0257 -0.2605 0.9651
vn -0.0257 -0.2605 0.9651
vn -0.0760 -0.2505 0.9651
vn -0.1234 -0.2309 0.9651
vn -0.1661 -0.2024 0.9651
vn -0.2024 -0.1661 0.9651
vn -0.2309 -0.1234 0.9651
vn -0.2505 -0.0760 0.9651
vn -0.2605 -0.0257 0.9651
vn -0.2605 0.0257 0.9651
vn -0.2505 0.0760 0.9651
vn -0.2309 0.1234 0.9651
vn -0.2024 0.1661 0.9651
vn -0.1661 0.2024 0.9651
vn -0.1234 0.2309 0.9651
vn -0.0760 0.2505 0.9651
vn -0.0257 0.2605 0.9651
s off
f 30//1 62//1 63//1
f 7//2 41//2 8//2
f 16//3 50//3 17//3
f 26//4 58//4 59//4
f 4//5 36//5 37//5
f 12//6 46//6 13//6
f 21//7 55//7 22//7
f 31//8 63//8 64//8
f 8//9 42//9 9//9
f 17//10 51//10 18//10
f 27//11 59//11 60//11
f 5//12 37//12 38//12
f 13//13 47//13 14//13
f 22//14 56//14 23//14
f 32//15 64//15 65//15
f 9//16 43//16 10//16
f 18//17 52//17 19//17
f 28//18 60//18 61//18
f 6//19 38//19 39//19
f 14//20 48//20 15//20
f 2//21 35//21 34//21
f 24//22 56//22 57//22
f 1//23 65//23 35//23
f 10//24 44//24 11//24
f 19//25 53//25 20//25
f 29//26 61//26 62//26
f 7//27 39//27 40//27
f 15//28 49//28 16//28
f 25//29 57//29 58//29
f 3//30 34//30 36//30
f 11//31 45//31 12//31
f 20//32 54//32 21//32
f 67//33 34//33 35//33
f 66//33 36//33 34//33
f 68//33 37//33 36//33
f 69//33 38//33 37//33
f 70//33 39//33 38//33
f 71//33 40//33 39//33
f 72//33 41//33 40//33
f 73//33 42//33 41//33
f 74//33 43//33 42//33
f 75//33 44//33 43//33
f 76//33 45//33 44//33
f 77//33 46//33 45//33
f 78//33 47//33 46//33
f 79//33 48//33 47//33
f 80//33 49//33 48//33
f 81//33 50//33 49//33
f 83//33 50//33 82//33
f 84//33 51//33 83//33
f 85//33 52//33 84//33
f 86//33 53//33 85//33
f 87//33 54//33 86//33
f 88//33 55//33 87//33
f 89//33 56//33 88//33
f 90//33 57//33 89//33
f 91//33 58//33 90//33
f 92//33 59//33 91//33
f 93//33 60//33 92//33
f 94//33 61//33 93//33
f 95//33 62//33 94//33
f 96//33 63//33 95//33
f 96//33 65//33 64//33
f 67//33 65//33 97//33
f 99//34 66//34 67//34
f 100//35 66//35 98//35
f 101//36 68//36 100//36
f 102//37 69//37 101//37
f 103//38 70//38 102//38
f 104//39 71//39 103//39
f 105//40 72//40 104//40
f 106//41 73//41 105//41
f 107//42 74//42 106//42
f 108//43 75//43 107//43
f 109//44 76//44 108//44
f 109//45 78//45 77//45
f 111//46 78//46 110//46
f 112//47 79//47 111//47
f 113//48 80//48 112//48
f 113//49 82//49 81//49
f 115//50 82//50 114//50
f 115//51 84//51 83//51
f 117//52 84//52 116//52
f 117//53 86//53 85//53
f 118//54 87//54 86//54
f 119//55 88//55 87//55
f 120//56 89//56 88//56
f 121//57 90//57 89//57
f 122//58 91//58 90//58
f 123//59 92//59 91//59
f 124//60 93//60 92//60
f 126//61 93//61 125//61
f 126//62 95//62 94//62
f 127//63 96//63 95//63
f 128//64 97//64 96//64
f 99//65 97//65 129//65
f 33//66 98//66 99//66
f 33//67 100//67 98//67
f 33//68 101//68 100//68
f 33//69 102//69 101//69
f 33//70 103//70 102//70
f 33//71 104//71 103//71
f 33//72 105//72 104//72
f 33//73 106//73 105//73
f 33//74 107//74 106//74
f 33//75 108//75 107//75
f 33//76 109//76 108//76
f 33//77 110//77 109//77
f 33//78 111//78 110//78
f 33//79 112//79 111//79
f 33//80 113//80 112//80
f 33//81 114//81 113//81
f 33//82 115//82 114//82
f 33//83 116//83 115//83
f 33//84 117//84 116//84
f 33//85 118//85 117//85
f 33//86 119//86 118//86
f 33//87 120//87 119//87
f 33//88 121//88 120//88
f 33//89 122//89 121//89
f 33//90 123//90 122//90
f 33//91 124//91 123//91
f 33//92 125//92 124//92
f 33//93 126//93 125//93
f 33//94 127//94 126//94
f 33//95 128//95 127//95
f 33//96 129//96 128//96
f 33//97 99//97 129//97
f 30//1 29//1 62//1
f 7//2 40//2 41//2
f 16//3 49//3 50//3
f 26//4 25//4 58//4
f 4//5 3//5 36//5
f 12//6 45//6 46//6
f 21//7 54//7 55//7
f 31//8 30//8 63//8
f 8//9 41//9 42//9
f 17//10 50//10 51//10
f 27//11 26//11 59//11
f 5//12 4//12 37//12
f 13//13 46//13 47//13
f 22//14 55//14 56//14
f 32//15 31//15 64//15
f 9//16 42//16 43//16
f 18//17 51//17 52//17
f 28//18 27//18 60//18
f 6//19 5//19 38//19
f 14//20 47//20 48//20
f 2//21 1//21 35//21
f 24//22 23//22 56//22
f 1//23 32//23 65//23
f 10//24 43//24 44//24
f 19//25 52//25 53//25
f 29//26 28//26 61//26
f 7//27 6//27 39//27
f 15//28 48//28 49//28
f 25//29 24//29 57//29
f 3//30 2//30 34//30
f 11//31 44//31 45//31
f 20//32 53//32 54//32
f 67//33 66//33 34//33
f 66//33 68//33 36//33
f 68//33 69//33 37//33
f 69//33 70//33 38//33
f 70//33 71//33 39//33
f 71//33 72//33 40//33
f 72//33 73//33 41//33
f 73//33 74//33 42//33
f 74//33 75//33 43//33
f 75//33 76//33 44//33
f 76//33 77//33 45//33
f 77//33 78//33 46//33
f 78//33 79//33 47//33
f 79//33 80//33 48//33
f 80//33 81//33 49//33
f 81//33 82//33 50//33
f 83//33 51//33 50//33
f 84//33 52//33 51//33
f 85//33 53//33 52//33
f 86//33 54//33 53//33
f 87//33 55//33 54//33
f 88//33 56//33 55//33
f 89//33 57//33 56//33
f 90//33 58//33 57//33
f 91//33 59//33 58//33
f 92//33 60//33 59//33
f 93//33 61//33 60//33
f 94//33 62//33 61//33
f 95//33 63//33 62//33
f 96//33 64//33 63//33
f 96//33 97//33 65//33
f 67//33 35//33 65//33
f 99//34 98//34 66//34
f 100//35 68//35 66//35
f 101//36 69//36 68//36
f 102//37 70//37 69//37
f 103//38 71//38 70//38
f 104//39 72//39 71//39
f 105//40 73//40 72//40
f 106//41 74//41 73//41
f 107//42 75//42 74//42
f 108//43 76//43 75//43
f 109//44 77//44 76//44
f 109//45 110//45 78//45
f 111//46 79//46 78//46
f 112//47 80//47 79//47
f 113//48 81//48 80//48
f 113//49 114//49 82//49
f 115//50 83//50 82//50
f 115//51 116//51 84//51
f 117//52 85//52 84//52
f 117//53 118//53 86//53
f 118//54 119//54 87//54
f 119//55 120//55 88//55
f 120//56 121//56 89//56
f 121//57 122//57 90//57
f 122//58 123//58 91//58
f 123//59 124//59 92//59
f 124//60 125//60 93//60
f 126//61 94//61 93//61
f 126//62 127//62 95//62
f 127//63 128//63 96//63
f 128//64 129//64 97//64
f 99//65 67//65 97//65
