# generated by collision_forge
v 0.044299 -0.010396 0.099255
v 0.023916 -0.038541 0.100370
v 0.037225 0.000002 0.114967
v 0.040242 -0.017972 0.107712
v 0.036992 -0.010633 0.114967
v 0.044018 -0.003276 0.107476
v 0.033488 -0.029018 0.107601
v 0.036762 -0.023318 0.108681
v 0.029162 -0.033606 0.106844
v 0.042433 -0.015644 0.102054
v 0.038856 0.000002 0.108586
v 0.038277 -0.010396 0.098305
v 0.034893 -0.016323 0.114967
v 0.033682 -0.030343 0.100370
v 0.023916 -0.033523 0.098305
v 0.038024 -0.004887 0.114967
v 0.023914 -0.030286 0.114969
v 0.039097 -0.021246 0.106567
v 0.042551 0.000002 0.107476
v 0.030940 -0.030939 0.108449
v 0.026674 -0.034508 0.108666
v 0.025876 -0.036957 0.098627
v 0.035906 -0.013987 0.114967
v 0.033302 -0.024287 0.098305
v 0.036970 -0.024748 0.106877
v 0.029044 -0.032388 0.108750
v 0.038888 -0.019537 0.108555
v 0.043293 -0.005031 0.108474
v 0.042533 -0.012599 0.106802
v 0.038193 -0.002797 0.114967
v 0.043457 -0.001680 0.108673
v 0.044108 -0.010396 0.101488
v 0.042340 -0.016538 0.100370
v 0.034673 -0.027985 0.106694
v 0.032606 -0.020477 0.114969
v 0.023916 -0.037753 0.098759
v 0.032011 -0.030860 0.107070
v 0.042421 -0.008902 0.108737
v 0.040097 -0.016542 0.108668
v 0.037433 0.000002 0.113216
v 0.044153 -0.000564 0.107476
v 0.025542 -0.028883 0.114969
v 0.041400 -0.015863 0.106784
v 0.042988 -0.011728 0.098358
v 0.023914 -0.028679 0.114969
v 0.033472 -0.027879 0.108722
v 0.030343 -0.023687 0.114969
v 0.028296 -0.026098 0.114969
v 0.030261 -0.033595 0.098633
v 0.023916 -0.031976 0.098305
v 0.023914 -0.029056 0.113064
v 0.023914 -0.037609 0.105954
v 0.043487 0.000002 0.108697
v 0.038063 0.000002 0.110162
v 0.024752 -0.036964 0.106874
v 0.038301 -0.000564 0.114967
v 0.035430 -0.015097 0.114967
v 0.037265 -0.009498 0.114967
v 0.039468 -0.010396 0.098305
v 0.044090 -0.002129 0.107476
v 0.044215 -0.010611 0.100370
v 0.043425 -0.002797 0.108642
v 0.029116 -0.034682 0.098645
v 0.039005 -0.023348 0.099255
v 0.035535 -0.025393 0.108567
v 0.038121 -0.003914 0.114967
v 0.043876 -0.010611 0.098407
v 0.031323 -0.031320 0.107706
v 0.039452 -0.021775 0.098527
v 0.032403 -0.029049 0.108753
v 0.038397 0.000002 0.109303
v 0.043553 -0.013429 0.098689
v 0.027735 -0.026698 0.114969
v 0.025880 -0.035859 0.107826
v 0.035861 -0.025872 0.107823
v 0.031501 -0.032595 0.100370
v 0.023916 -0.038394 0.099172
v 0.024984 -0.029400 0.114969
v 0.032195 -0.021111 0.114969
v 0.041136 -0.013961 0.108578
v 0.032251 -0.025532 0.098305
v 0.029713 -0.034229 0.100370
v 0.038036 -0.022461 0.107753
v 0.040199 -0.018990 0.106518
v 0.027961 -0.035761 0.100005
v 0.043481 -0.007687 0.107476
v 0.042623 -0.010611 0.107957
v 0.035605 -0.026642 0.107070
v 0.036759 -0.026676 0.100370
v 0.026656 -0.035617 0.107070
v 0.035783 -0.027981 0.100132
v 0.037712 -0.025302 0.100370
v 0.038902 -0.023133 0.101488
v 0.038056 -0.024706 0.098623
v 0.034703 -0.029128 0.098632
v 0.040356 -0.020413 0.101488
v 0.043565 -0.013459 0.099912
v 0.023914 -0.036655 0.108376
v 0.041316 -0.018987 0.098831
v 0.043627 -0.006144 0.107779
v 0.041426 -0.014810 0.107818
v 0.037515 0.000002 0.112651
f 3 50 51
f 51 45 3
f 3 45 35
f 17 98 74
f 13 35 8
f 1 41 60
f 86 29 32
f 23 5 35
f 12 11 19
f 19 59 12
f 52 51 50
f 17 74 21
f 21 68 26
f 74 68 21
f 95 69 94
f 87 29 86
f 99 72 33
f 94 69 99
f 69 72 99
f 84 43 4
f 26 42 78
f 17 21 78
f 78 21 26
f 20 42 26
f 26 68 20
f 86 32 100
f 100 32 6
f 100 87 86
f 61 60 6
f 6 32 61
f 1 60 61
f 97 32 29
f 97 61 32
f 33 72 97
f 97 72 1
f 1 61 97
f 57 35 13
f 57 23 35
f 102 54 50
f 50 54 71
f 71 12 50
f 71 11 12
f 98 52 55
f 55 74 98
f 55 52 2
f 2 52 77
f 77 52 36
f 77 36 22
f 77 85 2
f 22 85 77
f 15 52 50
f 36 52 15
f 22 36 15
f 44 24 59
f 69 24 44
f 29 87 101
f 4 43 101
f 101 43 29
f 75 83 8
f 88 89 25
f 25 75 88
f 83 75 25
f 13 8 27
f 8 83 27
f 27 83 4
f 27 57 13
f 96 99 33
f 33 84 96
f 94 99 64
f 64 96 93
f 99 96 64
f 76 95 14
f 14 37 76
f 42 20 73
f 46 47 48
f 41 19 53
f 5 87 38
f 87 100 38
f 29 43 10
f 10 97 29
f 33 97 10
f 10 84 33
f 43 84 10
f 40 50 3
f 40 102 50
f 49 95 76
f 67 44 59
f 59 19 67
f 1 72 67
f 67 41 1
f 67 19 41
f 67 72 69
f 69 44 67
f 4 101 39
f 39 27 4
f 23 57 39
f 57 27 39
f 80 87 5
f 80 101 87
f 5 23 80
f 23 39 80
f 80 39 101
f 65 8 35
f 65 75 8
f 47 46 65
f 65 46 75
f 93 25 92
f 92 25 89
f 92 64 93
f 92 89 94
f 94 64 92
f 83 25 18
f 4 83 18
f 18 84 4
f 18 25 93
f 93 96 18
f 18 96 84
f 91 14 95
f 91 95 94
f 94 89 91
f 9 37 68
f 76 37 9
f 9 82 76
f 85 82 9
f 70 46 48
f 48 73 70
f 70 73 20
f 70 20 68
f 75 46 7
f 88 75 7
f 7 70 68
f 46 70 7
f 68 37 7
f 62 100 6
f 6 60 62
f 56 53 3
f 3 35 56
f 5 38 58
f 35 5 58
f 58 16 35
f 28 38 100
f 28 62 16
f 100 62 28
f 16 58 28
f 28 58 38
f 22 15 63
f 15 49 63
f 63 85 22
f 63 82 85
f 76 82 63
f 63 49 76
f 81 49 15
f 95 49 81
f 81 24 69
f 69 95 81
f 79 65 35
f 47 65 79
f 37 14 34
f 14 91 34
f 34 7 37
f 88 7 34
f 34 89 88
f 34 91 89
f 90 68 74
f 90 9 68
f 74 55 90
f 85 9 90
f 2 85 90
f 90 55 2
f 30 56 35
f 53 56 31
f 41 53 31
f 31 30 62
f 56 30 31
f 31 60 41
f 31 62 60
f 35 16 66
f 66 30 35
f 16 62 66
f 62 30 66
f 45 51 52
f 17 45 52
f 52 98 17
f 40 19 11
f 11 71 40
f 3 53 40
f 54 102 40
f 40 71 54
f 40 53 19
f 12 59 81
f 50 12 81
f 59 24 81
f 81 15 50
f 79 45 17
f 79 35 45
f 79 73 48
f 17 78 79
f 48 47 79
f 79 78 42
f 42 73 79
