# generated by collision_forge
v 0.038362 -0.014188 0.098294
v 0.013586 -0.027946 0.007038
v 0.033640 -0.012732 0.051518
v 0.011943 -0.037080 0.076162
v 0.026495 -0.013962 0.006895
v 0.022334 -0.031259 0.070781
v 0.023467 -0.032395 0.085201
v 0.035846 -0.012732 0.070413
v 0.011943 -0.039527 0.098509
v 0.029195 -0.012732 0.015943
v 0.034789 -0.021564 0.098294
v 0.037194 -0.015077 0.090313
v 0.024618 -0.032421 0.092546
v 0.019060 -0.035768 0.092815
v 0.025468 -0.018647 0.011038
v 0.011943 -0.036340 0.081381
v 0.031277 -0.022351 0.070664
v 0.030147 -0.014521 0.029467
v 0.016761 -0.026802 0.010446
v 0.033534 -0.014597 0.057060
v 0.033532 -0.023508 0.095012
v 0.022339 -0.022338 0.011594
v 0.027090 -0.012732 0.010159
v 0.038094 -0.014188 0.094868
v 0.011943 -0.039252 0.094779
v 0.037026 -0.017104 0.098294
v 0.032381 -0.014523 0.047312
v 0.022720 -0.033699 0.091425
v 0.033296 -0.024289 0.098294
v 0.035903 -0.019347 0.098294
v 0.013886 -0.038203 0.091425
v 0.019063 -0.024625 0.007065
v 0.018357 -0.036715 0.098509
v 0.024594 -0.020126 0.012544
v 0.028109 -0.012732 0.007738
v 0.036410 -0.012732 0.076162
v 0.020749 -0.034861 0.092537
v 0.015078 -0.027031 0.006931
v 0.023723 -0.033683 0.098509
v 0.030191 -0.026839 0.091730
v 0.020255 -0.023594 0.007002
v 0.028983 -0.028982 0.098294
v 0.035764 -0.013477 0.071588
v 0.021020 -0.023248 0.008814
v 0.024871 -0.031542 0.088080
v 0.026790 -0.012732 0.007702
v 0.011943 -0.035784 0.076162
v 0.013586 -0.026703 0.007397
v 0.025895 -0.018214 0.012168
v 0.023917 -0.031994 0.098509
v 0.037095 -0.014188 0.098294
v 0.032503 -0.021469 0.076915
v 0.031411 -0.020386 0.063508
v 0.025913 -0.017133 0.007702
v 0.035220 -0.012732 0.076162
v 0.011943 -0.038352 0.098509
v 0.029704 -0.027463 0.092546
v 0.029164 -0.013689 0.018867
v 0.032549 -0.024756 0.094779
v 0.028285 -0.029389 0.095891
v 0.013487 -0.038006 0.088331
v 0.038021 -0.014647 0.095891
v 0.029205 -0.015963 0.027799
v 0.034799 -0.020475 0.092546
v 0.019826 -0.024352 0.008814
v 0.027012 -0.016032 0.011038
v 0.023555 -0.033573 0.094779
v 0.015339 -0.038247 0.098509
v 0.030811 -0.026314 0.092546
v 0.024680 -0.019132 0.007702
v 0.027524 -0.012732 0.007002
v 0.027967 -0.029079 0.091658
v 0.032738 -0.024979 0.098294
v 0.020705 -0.023387 0.007702
v 0.031096 -0.026802 0.098294
v 0.020640 -0.022870 0.006940
v 0.026661 -0.013091 0.006984
v 0.022039 -0.022023 0.007702
v 0.013601 -0.038064 0.089192
v 0.032409 -0.013474 0.043743
v 0.026004 -0.030459 0.088080
v 0.017878 -0.025690 0.008204
v 0.032244 -0.025541 0.098294
v 0.025807 -0.016963 0.007002
v 0.038119 -0.014862 0.098294
v 0.034628 -0.013440 0.061697
v 0.032459 -0.021380 0.076162
v 0.019267 -0.024772 0.008814
v 0.026808 -0.016774 0.012625
v 0.013405 -0.039081 0.097568
v 0.013586 -0.028114 0.007702
v 0.023444 -0.033489 0.093146
v 0.033664 -0.023733 0.098294
v 0.015892 -0.026936 0.007702
v 0.026632 -0.031222 0.098294
v 0.024618 -0.019051 0.007074
v 0.027005 -0.015142 0.007756
v 0.027098 -0.013962 0.006895
v 0.013961 -0.026640 0.006984
v 0.012471 -0.036930 0.076162
v 0.012321 -0.039089 0.094124
v 0.037982 -0.014565 0.095128
f 39 67 95
f 100 101 4
f 46 48 16
f 16 56 46
f 46 56 23
f 16 48 47
f 91 100 4
f 51 56 50
f 50 39 1
f 1 51 50
f 23 56 55
f 55 56 51
f 21 59 17
f 17 52 21
f 21 52 64
f 88 6 82
f 65 6 88
f 4 101 25
f 101 100 61
f 100 91 61
f 33 67 39
f 92 67 33
f 90 68 9
f 9 25 90
f 90 25 101
f 31 68 90
f 77 46 71
f 48 46 77
f 77 71 5
f 2 91 4
f 4 47 2
f 2 47 48
f 31 91 14
f 14 33 68
f 14 68 31
f 19 6 92
f 82 6 19
f 1 39 85
f 39 95 42
f 42 75 39
f 42 95 60
f 60 75 42
f 93 21 11
f 11 21 30
f 39 93 11
f 11 30 39
f 17 59 69
f 69 40 17
f 59 75 69
f 7 6 65
f 92 6 7
f 34 70 17
f 17 40 34
f 40 22 34
f 57 22 40
f 60 72 57
f 40 69 57
f 57 75 60
f 57 69 75
f 81 72 60
f 58 35 10
f 10 80 58
f 58 80 18
f 32 88 82
f 65 88 32
f 70 34 78
f 78 34 22
f 101 61 79
f 79 90 101
f 31 90 79
f 79 91 31
f 79 61 91
f 41 32 38
f 48 77 99
f 99 2 48
f 99 77 5
f 5 38 99
f 99 38 2
f 28 19 92
f 3 8 86
f 3 80 10
f 86 80 3
f 8 36 24
f 24 36 1
f 18 80 27
f 27 80 86
f 86 20 27
f 64 52 12
f 12 102 64
f 12 20 86
f 30 21 26
f 39 30 26
f 26 85 39
f 83 75 59
f 59 73 83
f 39 75 83
f 83 73 39
f 59 21 29
f 29 73 59
f 29 21 93
f 29 93 39
f 39 73 29
f 92 7 13
f 13 7 45
f 13 67 92
f 13 95 67
f 60 95 13
f 13 81 60
f 45 81 13
f 71 35 98
f 35 84 98
f 5 71 98
f 98 38 5
f 70 78 96
f 96 78 41
f 17 70 15
f 66 58 18
f 44 78 22
f 72 81 44
f 44 57 72
f 22 57 44
f 19 28 94
f 82 19 94
f 94 14 91
f 91 2 94
f 2 38 94
f 94 32 82
f 94 38 32
f 86 8 43
f 8 24 43
f 43 24 102
f 43 12 86
f 102 12 43
f 87 12 52
f 20 12 87
f 87 52 17
f 17 53 87
f 87 27 20
f 53 27 87
f 85 26 62
f 1 85 62
f 62 26 21
f 62 24 1
f 102 24 62
f 64 102 62
f 62 21 64
f 41 38 76
f 38 98 76
f 76 98 84
f 76 96 41
f 84 96 76
f 70 96 54
f 54 96 84
f 54 15 70
f 35 58 97
f 58 66 97
f 66 54 97
f 97 84 35
f 97 54 84
f 63 66 18
f 18 27 63
f 63 27 53
f 63 53 17
f 17 66 63
f 89 66 17
f 89 54 66
f 41 78 74
f 78 44 74
f 65 32 74
f 74 32 41
f 74 7 65
f 45 7 74
f 74 81 45
f 74 44 81
f 14 94 37
f 37 94 28
f 33 14 37
f 92 33 37
f 37 28 92
f 15 54 49
f 54 89 49
f 17 15 49
f 49 89 17
f 9 56 25
f 25 47 4
f 25 56 16
f 16 47 25
f 33 56 9
f 9 68 33
f 39 50 33
f 33 50 56
f 23 55 36
f 36 46 23
f 71 46 36
f 10 35 36
f 36 35 71
f 36 3 10
f 8 3 36
f 36 51 1
f 36 55 51
