# generated by collision_forge
v 0.000027 0.045793 0.099869
v -0.043566 0.013396 0.099257
v 0.000027 0.033369 0.119066
v -0.011495 0.042517 0.107813
v -0.032602 0.018816 0.118970
v -0.012404 0.035779 0.118844
v -0.040305 0.018134 0.107844
v -0.029009 0.024540 0.118717
v -0.038060 0.013396 0.103063
v -0.017926 0.033369 0.118782
v 0.000027 0.040424 0.098542
v -0.042452 0.013396 0.106611
v -0.007262 0.045000 0.100371
v -0.038082 0.022533 0.107838
v -0.027963 0.018816 0.119201
v -0.000566 0.037849 0.118491
v -0.023461 0.037973 0.106548
v -0.038679 0.013396 0.098526
v -0.015622 0.041300 0.107611
v -0.026798 0.036850 0.098695
v -0.019125 0.041385 0.100083
v -0.009498 0.035176 0.119358
v -0.036836 0.026795 0.098801
v -0.041346 0.015721 0.107701
v -0.009267 0.044699 0.098661
v -0.039255 0.020341 0.107844
v -0.026820 0.035753 0.106584
v -0.036883 0.024622 0.107695
v -0.040378 0.013396 0.107844
v -0.013595 0.043605 0.100024
v -0.033793 0.030470 0.100371
v -0.030319 0.018816 0.119362
v -0.024767 0.038094 0.098612
v -0.037647 0.013396 0.100320
v -0.034749 0.029208 0.098620
v -0.008064 0.036895 0.118848
v 0.000027 0.036289 0.119348
v -0.009007 0.043564 0.106568
v -0.040224 0.021277 0.098667
v -0.034728 0.028079 0.106856
v -0.015635 0.034615 0.118789
v -0.024771 0.028656 0.118785
v -0.022544 0.038011 0.107844
v -0.027925 0.025694 0.118799
v -0.032479 0.030261 0.107791
v -0.037996 0.023503 0.106607
v -0.030008 0.028079 0.098526
v -0.024007 0.027359 0.119379
v -0.039149 0.021343 0.106729
v -0.040263 0.019127 0.106736
v -0.009225 0.044728 0.100104
v 0.000027 0.045073 0.098634
v -0.023478 0.039099 0.099894
v -0.041325 0.019013 0.099885
v -0.016783 0.042441 0.099857
v -0.020295 0.039181 0.107821
v -0.002798 0.045593 0.099255
v -0.039085 0.023459 0.099847
v -0.041948 0.013396 0.107844
v -0.025996 0.035874 0.107844
v -0.000566 0.041518 0.098542
v -0.037467 0.013396 0.098526
v 0.000027 0.033369 0.117878
v -0.026816 0.036860 0.099871
v -0.037783 0.013396 0.101488
v -0.029201 0.018816 0.119321
v -0.002798 0.045536 0.100371
v 0.000027 0.035176 0.119299
v -0.031433 0.018816 0.119338
v -0.002798 0.044163 0.107068
v -0.036848 0.026804 0.099828
v -0.032193 0.032195 0.099255
v -0.003916 0.043757 0.108026
v -0.001680 0.036289 0.119352
v 0.000027 0.037291 0.119080
v -0.035897 0.025919 0.107893
v -0.027358 0.025127 0.119244
v -0.005030 0.037136 0.119048
v -0.013966 0.034060 0.119315
v -0.042627 0.015077 0.098579
v -0.030708 0.019545 0.119372
v -0.025689 0.027924 0.118797
v -0.014884 0.041439 0.107862
v -0.031395 0.031396 0.107823
v -0.034604 0.027911 0.107613
v -0.029214 0.033340 0.107844
v -0.035760 0.026839 0.106599
v -0.018012 0.040256 0.107762
v -0.030972 0.032116 0.107068
v -0.007266 0.036968 0.118925
v -0.007262 0.044851 0.098561
v -0.029837 0.034355 0.100371
v 0.000027 0.034060 0.119205
v -0.019014 0.040212 0.106568
v -0.031331 0.021312 0.118858
v -0.006890 0.043573 0.107687
v -0.019172 0.041401 0.098622
v 0.000027 0.045657 0.099261
v -0.043557 0.013396 0.099879
v -0.025126 0.028171 0.118946
v -0.008380 0.043627 0.106768
v 0.000027 0.043868 0.108148
f 47 35 33
f 62 11 63
f 62 63 3
f 18 47 62
f 62 47 11
f 3 15 62
f 81 74 48
f 16 75 102
f 39 35 80
f 80 18 2
f 2 39 80
f 80 47 18
f 35 47 80
f 91 47 33
f 15 9 65
f 5 59 69
f 54 39 2
f 29 9 15
f 48 74 22
f 22 79 48
f 70 102 1
f 16 102 73
f 73 70 96
f 102 70 73
f 36 96 4
f 67 70 1
f 11 47 61
f 47 91 61
f 61 52 11
f 61 91 52
f 52 91 57
f 57 91 25
f 57 67 1
f 25 13 57
f 13 67 57
f 34 62 15
f 15 65 34
f 74 81 37
f 37 75 74
f 93 15 3
f 66 29 15
f 66 93 68
f 15 93 66
f 78 22 74
f 74 75 78
f 78 75 16
f 16 73 78
f 22 78 90
f 90 78 73
f 90 96 36
f 90 73 96
f 39 54 58
f 43 17 60
f 60 17 27
f 98 57 1
f 52 57 98
f 99 54 2
f 29 66 32
f 59 29 32
f 32 69 59
f 81 69 32
f 32 37 81
f 68 37 32
f 32 66 68
f 95 14 5
f 5 69 95
f 24 59 5
f 5 7 24
f 24 12 59
f 5 14 26
f 26 7 5
f 64 92 27
f 27 92 89
f 27 17 53
f 53 64 27
f 43 41 56
f 56 41 88
f 88 94 56
f 56 17 43
f 56 94 17
f 43 60 10
f 10 41 43
f 10 60 42
f 79 41 10
f 6 4 83
f 83 41 6
f 36 4 6
f 6 41 79
f 6 90 36
f 79 22 6
f 22 90 6
f 44 82 84
f 8 95 44
f 45 85 8
f 45 44 84
f 8 44 45
f 84 89 45
f 46 71 58
f 14 95 28
f 28 46 14
f 76 95 8
f 8 85 76
f 76 28 95
f 39 58 23
f 58 71 23
f 23 35 39
f 83 4 19
f 19 94 88
f 4 38 19
f 19 38 30
f 19 41 83
f 88 41 19
f 92 64 20
f 33 35 20
f 20 53 33
f 64 53 20
f 86 60 27
f 27 89 86
f 86 89 84
f 84 82 86
f 42 60 86
f 86 82 42
f 31 89 92
f 35 23 31
f 31 23 71
f 51 38 13
f 30 38 51
f 51 13 25
f 25 30 51
f 101 4 96
f 101 38 4
f 96 70 101
f 70 67 101
f 101 67 13
f 13 38 101
f 17 94 21
f 21 53 17
f 77 81 48
f 77 44 95
f 77 69 81
f 77 95 69
f 49 26 14
f 14 46 49
f 49 58 54
f 49 46 58
f 40 31 71
f 85 45 40
f 40 45 89
f 89 31 40
f 35 31 72
f 72 31 92
f 72 20 35
f 92 20 72
f 55 21 94
f 55 19 30
f 94 19 55
f 82 44 100
f 44 77 100
f 100 77 48
f 42 82 100
f 100 10 42
f 48 79 100
f 79 10 100
f 7 26 50
f 26 49 50
f 50 24 7
f 50 49 54
f 12 24 50
f 50 99 12
f 54 99 50
f 71 46 87
f 87 40 71
f 46 28 87
f 85 40 87
f 87 76 85
f 28 76 87
f 97 30 25
f 97 55 30
f 97 91 33
f 25 91 97
f 21 55 97
f 33 53 97
f 53 21 97
f 3 63 98
f 1 102 98
f 63 11 98
f 98 93 3
f 98 102 75
f 11 52 98
f 75 37 98
f 98 37 68
f 68 93 98
f 18 62 99
f 2 18 99
f 62 34 99
f 99 65 9
f 9 29 99
f 99 29 59
f 99 34 65
f 59 12 99
