# generated by collision_forge
v -0.012266 0.039537 0.098539
v -0.012266 0.038293 0.098539
v -0.037314 0.013909 0.098521
v -0.034136 0.013385 0.069639
v -0.029624 0.013385 0.032845
v -0.026544 0.013385 0.007694
v -0.013086 0.026865 0.007694
v -0.012613 0.039227 0.095893
v -0.030012 0.028074 0.098539
v -0.038530 0.013909 0.098521
v -0.034992 0.013385 0.076160
v -0.026637 0.013385 0.006976
v -0.013086 0.027042 0.007003
v -0.012266 0.035769 0.076160
v -0.016004 0.037876 0.098539
v -0.014551 0.037978 0.092978
v -0.032735 0.025091 0.098521
v -0.033321 0.024270 0.098521
v -0.034833 0.021584 0.098521
v -0.035969 0.019518 0.098521
v -0.037077 0.017278 0.098521
v -0.038152 0.014997 0.098521
v -0.038373 0.014362 0.098521
v -0.029069 0.029069 0.098539
v -0.032136 0.025419 0.094781
v -0.036208 0.013385 0.076160
v -0.027256 0.013385 0.006958
v -0.013086 0.027339 0.006949
v -0.012266 0.037090 0.076160
v -0.012567 0.036985 0.076160
v -0.033532 0.023509 0.094978
v -0.035823 0.019170 0.094781
v -0.037961 0.014519 0.094225
v -0.025398 0.032111 0.094781
v -0.027593 0.029835 0.093659
v -0.038098 0.013909 0.093659
v -0.027809 0.013385 0.007407
v -0.027138 0.013961 0.006905
v -0.018438 0.023993 0.006923
v -0.013086 0.028040 0.007012
v -0.013086 0.028227 0.007694
v -0.013086 0.032612 0.042487
v -0.016829 0.035769 0.083613
v -0.019030 0.035754 0.092915
v -0.036946 0.015834 0.090314
v -0.036887 0.014603 0.084941
v -0.036838 0.014511 0.084196
v -0.031434 0.025859 0.092547
v -0.032388 0.024577 0.090816
v -0.035758 0.013385 0.071720
v -0.027953 0.013385 0.008071
v -0.027082 0.015010 0.007694
v -0.025974 0.016193 0.006923
v -0.017009 0.025867 0.006967
v -0.013718 0.028074 0.008815
v -0.013582 0.032474 0.043411
v -0.018498 0.034363 0.079147
v -0.017971 0.036900 0.098539
v -0.034797 0.020458 0.091426
v -0.032514 0.013697 0.045645
v -0.032444 0.013546 0.044532
v -0.024418 0.033386 0.098539
v -0.024673 0.032477 0.092547
v -0.024932 0.031601 0.088080
v -0.025485 0.031076 0.088080
v -0.027187 0.029412 0.088080
v -0.027745 0.028865 0.088080
v -0.031293 0.025713 0.090699
v -0.032558 0.023740 0.088080
v -0.022511 0.021410 0.007694
v -0.024719 0.019160 0.008806
v -0.025519 0.018758 0.012161
v -0.026809 0.019001 0.022682
v -0.027956 0.014595 0.012385
v -0.025807 0.018074 0.011049
v -0.019017 0.024592 0.007102
v -0.015688 0.026824 0.007102
v -0.015911 0.026952 0.008815
v -0.015693 0.027946 0.015820
v -0.021842 0.033713 0.088179
v -0.022338 0.033501 0.088619
v -0.033262 0.023038 0.090314
v -0.033653 0.022608 0.091426
v -0.035771 0.017957 0.089193
v -0.032414 0.013385 0.043779
v -0.023480 0.033516 0.094054
v -0.024223 0.032077 0.086968
v -0.019852 0.024344 0.009936
v -0.020364 0.023699 0.008806
v -0.020832 0.023084 0.007694
v -0.021421 0.022526 0.007694
v -0.028542 0.028074 0.088080
v -0.029426 0.027190 0.088080
v -0.022066 0.022058 0.008806
v -0.022426 0.021315 0.007048
v -0.024583 0.018996 0.007120
v -0.019086 0.024648 0.007694
v -0.017197 0.025995 0.007694
v -0.016341 0.026550 0.007694
v -0.023495 0.032413 0.085058
v -0.019030 0.026829 0.022539
v -0.019025 0.025716 0.014735
f 4 2 3
f 4 3 11
f 9 3 2
f 10 3 9
f 9 23 10
f 6 7 2
f 23 9 22
f 25 9 24
f 2 7 14
f 7 13 14
f 5 2 4
f 5 6 2
f 12 13 7
f 7 6 12
f 12 27 38
f 38 27 37
f 36 26 10
f 38 37 53
f 91 67 66
f 71 72 49
f 49 72 73
f 73 69 49
f 9 18 19
f 9 25 17
f 17 18 9
f 17 25 49
f 49 18 17
f 31 18 49
f 31 19 18
f 41 40 77
f 28 14 13
f 28 12 38
f 13 12 28
f 1 8 15
f 101 100 99
f 62 58 86
f 70 71 49
f 49 68 70
f 72 71 96
f 96 53 37
f 71 70 96
f 33 47 36
f 23 22 33
f 10 23 33
f 33 36 10
f 75 73 72
f 72 96 75
f 82 73 83
f 69 73 82
f 49 69 82
f 82 31 49
f 83 31 82
f 19 31 20
f 9 19 20
f 86 58 44
f 58 15 44
f 81 100 86
f 86 44 81
f 81 44 80
f 78 77 99
f 78 81 80
f 99 100 78
f 100 81 78
f 92 67 91
f 98 101 99
f 98 76 97
f 99 77 98
f 77 76 98
f 97 100 102
f 100 101 102
f 102 98 97
f 101 98 102
f 88 100 97
f 88 87 100
f 91 66 65
f 91 70 94
f 94 70 68
f 68 93 94
f 94 92 91
f 93 92 94
f 52 37 51
f 52 96 37
f 52 75 96
f 47 85 50
f 26 36 50
f 36 47 50
f 32 31 83
f 32 20 31
f 53 96 95
f 91 76 95
f 95 70 91
f 95 96 70
f 53 95 39
f 38 53 39
f 39 28 38
f 80 44 57
f 16 15 8
f 16 44 15
f 56 42 79
f 79 57 56
f 79 78 80
f 80 57 79
f 48 93 68
f 48 92 93
f 48 25 24
f 67 92 48
f 49 25 48
f 48 68 49
f 91 65 64
f 87 88 64
f 74 52 51
f 83 73 74
f 73 75 74
f 75 52 74
f 47 33 46
f 20 32 21
f 21 22 9
f 9 20 21
f 21 33 22
f 21 32 33
f 54 95 76
f 54 39 95
f 54 76 77
f 54 77 40
f 40 28 54
f 28 39 54
f 30 16 8
f 78 79 55
f 41 77 55
f 77 78 55
f 55 42 41
f 55 79 42
f 89 64 88
f 89 88 97
f 24 62 34
f 34 64 65
f 51 85 61
f 61 74 51
f 61 85 47
f 29 8 1
f 29 30 8
f 41 42 29
f 42 30 29
f 29 40 41
f 14 28 29
f 29 28 40
f 44 16 43
f 16 30 43
f 43 57 44
f 43 30 42
f 43 42 56
f 56 57 43
f 90 89 97
f 90 76 91
f 97 76 90
f 91 64 90
f 64 89 90
f 24 34 35
f 35 34 65
f 35 65 66
f 35 66 67
f 35 48 24
f 67 48 35
f 87 64 63
f 64 34 63
f 63 34 62
f 100 87 63
f 86 100 63
f 63 62 86
f 59 32 83
f 83 74 59
f 74 61 60
f 47 46 60
f 60 61 47
f 84 59 74
f 74 60 84
f 32 59 84
f 45 60 46
f 45 84 60
f 32 84 45
f 33 32 45
f 45 46 33
f 10 26 11
f 11 3 10
f 62 2 1
f 24 9 62
f 62 9 2
f 1 15 62
f 62 15 58
f 50 37 27
f 4 11 50
f 50 11 26
f 50 5 4
f 27 12 50
f 6 5 50
f 50 12 6
f 51 37 50
f 50 85 51
f 1 2 29
f 2 14 29
