# generated by collision_forge
v 0.037618 0.024032 0.105944
v 0.037604 0.024032 0.104952
v 0.037475 0.024032 0.106990
v 0.030854 0.023739 0.076151
v 0.032050 0.032145 0.099247
v 0.032125 0.032145 0.100371
v 0.020407 0.023739 0.008711
v 0.034611 0.027920 0.107629
v 0.037058 0.024032 0.107915
v 0.029162 0.023739 0.076151
v 0.036591 0.024032 0.108466
v 0.030586 0.024032 0.113158
v 0.030398 0.033745 0.099247
v 0.020224 0.023739 0.007709
v 0.033519 0.027946 0.108752
v 0.018219 0.023739 0.007709
v 0.029018 0.024032 0.113158
v 0.014164 0.034878 0.118995
v 0.013956 0.034878 0.119039
v 0.011727 0.034878 0.119249
v 0.009494 0.034878 0.119348
v 0.029812 0.034302 0.099247
v 0.019013 0.024591 0.007125
v 0.028045 0.035835 0.099247
v 0.029256 0.034816 0.099247
v 0.030924 0.032083 0.107067
v 0.015097 0.034878 0.118268
v -0.013082 0.026867 0.007709
v 0.007266 0.034878 0.119337
v 0.000035 0.034878 0.119271
v 0.012412 0.035772 0.118830
v 0.020283 0.039179 0.107794
v 0.015658 0.026817 0.007125
v 0.017191 0.025999 0.007709
v 0.023450 0.039084 0.099732
v 0.023450 0.039084 0.099831
v 0.029251 0.034818 0.100371
v 0.029837 0.032108 0.108477
v 0.027147 0.034878 0.107948
v -0.013082 0.034280 0.067824
v -0.013082 0.027046 0.007015
v 0.000035 0.036290 0.119348
v 0.000035 0.035172 0.119293
v -0.012258 0.038294 0.098520
v -0.013082 0.035347 0.076151
v 0.015658 0.041323 0.107651
v 0.011529 0.042523 0.107816
v 0.019678 0.023739 0.006982
v 0.013425 0.027933 0.007125
v 0.019097 0.041368 0.098641
v 0.021251 0.040215 0.098674
v 0.026799 0.035731 0.106516
v 0.024576 0.036858 0.107640
v -0.013082 0.027344 0.006960
v 0.018715 0.023739 0.006938
v 0.000035 0.037292 0.119072
v -0.012258 0.039533 0.098520
v 0.012640 0.042540 0.106869
v 0.009022 0.043566 0.106571
v 0.007266 0.036979 0.118929
v 0.006149 0.037067 0.119006
v 0.019013 0.040213 0.106571
v 0.005032 0.037145 0.119050
v 0.005032 0.030435 0.006839
v 0.011171 0.029039 0.007136
v 0.016755 0.042432 0.098685
v -0.013082 0.028048 0.007037
v 0.000035 0.037849 0.118478
v 0.000040 0.043870 0.108146
v 0.000040 0.044261 0.107067
v 0.000040 0.045791 0.099864
v 0.000040 0.045791 0.099633
v 0.009191 0.044723 0.100095
v 0.003916 0.043775 0.108014
v 0.016755 0.042432 0.099820
v -0.005022 0.030422 0.006861
v -0.000025 0.031284 0.007125
v 0.000134 0.031284 0.007125
v 0.005032 0.030755 0.007709
v 0.006144 0.030582 0.007709
v 0.010611 0.029345 0.007709
v 0.013613 0.043602 0.098641
v 0.013668 0.043620 0.099247
v 0.000298 0.045791 0.099633
v -0.000119 0.031284 0.007136
v -0.006139 0.030554 0.007709
v -0.007320 0.030282 0.007687
v -0.010601 0.029397 0.007709
v -0.011320 0.029118 0.007709
v -0.011489 0.030319 0.017754
v -0.011335 0.033577 0.043439
v -0.012516 0.036966 0.075776
v -0.012258 0.039138 0.093817
v -0.013082 0.036539 0.074664
v 0.005032 0.044028 0.107067
v 0.008377 0.044928 0.099247
v 0.007266 0.045083 0.099247
v 0.003916 0.045465 0.099247
v 0.009181 0.044714 0.098641
v 0.007320 0.030284 0.007709
v -0.013082 0.029259 0.015738
v 0.003916 0.045416 0.100371
f 17 30 28
f 1 4 2
f 10 17 16
f 28 55 16
f 16 17 28
f 72 57 71
f 23 24 14
f 7 2 4
f 1 2 6
f 1 6 8
f 8 6 26
f 4 11 12
f 28 30 40
f 30 45 40
f 44 45 30
f 57 45 44
f 86 72 85
f 85 72 77
f 89 72 88
f 88 67 89
f 48 23 14
f 33 23 48
f 48 55 64
f 64 33 48
f 34 23 33
f 24 23 34
f 26 52 39
f 66 50 65
f 65 82 66
f 81 82 65
f 37 52 26
f 26 6 37
f 24 36 37
f 37 36 52
f 2 7 5
f 5 6 2
f 5 7 14
f 1 8 3
f 3 4 1
f 20 12 19
f 11 8 15
f 15 12 11
f 21 12 20
f 17 12 21
f 41 55 28
f 67 88 76
f 86 85 76
f 76 85 77
f 76 77 64
f 64 55 76
f 84 72 71
f 57 72 93
f 72 92 93
f 91 92 72
f 89 67 101
f 66 82 83
f 83 82 99
f 80 79 99
f 99 82 80
f 64 79 80
f 80 65 64
f 49 50 33
f 49 65 50
f 49 33 64
f 64 65 49
f 24 34 35
f 35 36 24
f 35 34 33
f 50 36 35
f 14 24 25
f 24 37 25
f 71 57 70
f 57 69 70
f 57 44 42
f 31 47 60
f 60 19 31
f 9 8 11
f 9 3 8
f 9 11 4
f 4 3 9
f 26 39 38
f 38 8 26
f 38 15 8
f 39 27 38
f 38 27 15
f 30 17 29
f 17 21 29
f 21 42 29
f 86 76 87
f 87 76 88
f 87 72 86
f 87 88 72
f 67 76 54
f 55 41 54
f 54 76 55
f 78 97 79
f 64 77 78
f 78 79 64
f 98 97 78
f 78 84 98
f 99 79 96
f 79 97 96
f 96 83 99
f 90 72 89
f 90 91 72
f 89 101 90
f 90 101 91
f 92 91 94
f 91 101 94
f 94 45 57
f 57 93 94
f 94 93 92
f 100 82 81
f 100 80 82
f 81 65 100
f 65 80 100
f 53 39 52
f 52 36 53
f 53 27 39
f 32 27 53
f 46 47 31
f 31 32 46
f 75 36 50
f 75 50 66
f 66 83 75
f 33 50 51
f 51 35 33
f 50 35 51
f 13 5 14
f 6 5 13
f 71 70 95
f 68 69 57
f 18 32 31
f 18 27 32
f 31 19 18
f 18 19 12
f 12 15 18
f 15 27 18
f 30 29 43
f 43 29 42
f 43 44 30
f 43 42 44
f 62 53 36
f 32 53 62
f 36 75 62
f 62 46 32
f 62 75 46
f 14 25 22
f 22 13 14
f 6 13 22
f 22 37 6
f 22 25 37
f 74 60 47
f 47 59 74
f 74 59 95
f 69 68 74
f 74 70 69
f 74 95 70
f 57 42 56
f 56 68 57
f 83 96 73
f 73 96 97
f 58 75 83
f 46 75 58
f 83 73 58
f 58 73 59
f 47 46 58
f 58 59 47
f 68 56 63
f 63 74 68
f 63 56 42
f 63 42 21
f 63 21 20
f 95 59 102
f 59 73 102
f 71 95 102
f 102 97 98
f 102 73 97
f 102 84 71
f 98 84 102
f 60 74 61
f 74 63 61
f 61 63 20
f 20 19 61
f 19 60 61
f 10 4 12
f 12 17 10
f 10 16 48
f 14 7 48
f 48 4 10
f 48 16 55
f 48 7 4
f 72 84 78
f 77 72 78
f 94 40 45
f 28 40 94
f 94 41 28
f 67 54 94
f 94 101 67
f 94 54 41
