# generated by collision_forge
v 0.000111 -0.041621 0.097939
v -0.007256 -0.044896 0.098514
v -0.012838 -0.043683 0.098580
v -0.013928 -0.038896 0.098424
v -0.001230 -0.045784 0.098693
v -0.013928 -0.042903 0.098624
v -0.009238 -0.044720 0.098636
v -0.015327 -0.041256 0.107969
v -0.013928 -0.037559 0.098424
v 0.006141 -0.044946 0.098449
v -0.013928 -0.043445 0.099024
v -0.015327 -0.039452 0.107969
v -0.013456 -0.042450 0.106580
v -0.015073 -0.041353 0.107969
v -0.014750 -0.034712 0.118901
v -0.015327 -0.035802 0.108766
v -0.015327 -0.034665 0.111658
v 0.023914 -0.032000 0.098512
v 0.011945 -0.038330 0.097939
v 0.008373 -0.044797 0.098561
v 0.003910 -0.045551 0.099255
v 0.000291 -0.045797 0.099893
v -0.007256 -0.045063 0.100372
v -0.009238 -0.044739 0.100183
v -0.013525 -0.043588 0.100002
v -0.009142 -0.043594 0.106653
v -0.012350 -0.042454 0.107671
v -0.015327 -0.034365 0.118786
v -0.011497 -0.035834 0.118907
v -0.015327 -0.034486 0.112466
v 0.023914 -0.029065 0.113062
v 0.023914 -0.033546 0.098512
v 0.011945 -0.039504 0.097939
v 0.003910 -0.045447 0.100372
v 0.000560 -0.044695 0.105667
v -0.005025 -0.044060 0.107071
v -0.007794 -0.043539 0.107618
v -0.015327 -0.033876 0.119132
v -0.015327 -0.034452 0.112649
v 0.023914 -0.028685 0.114966
v 0.022566 -0.039239 0.098588
v 0.015072 -0.042715 0.098525
v 0.013532 -0.043583 0.098653
v 0.009906 -0.044616 0.099255
v 0.006141 -0.043931 0.107073
v 0.005024 -0.044062 0.107073
v -0.006139 -0.043665 0.107843
v -0.007030 -0.036916 0.118869
v -0.013955 -0.033876 0.119314
v -0.012838 -0.034060 0.119371
v -0.015327 -0.033876 0.115982
v -0.015327 -0.034202 0.114017
v 0.010797 -0.032755 0.119275
v 0.015264 -0.032755 0.119367
v 0.016374 -0.032755 0.119354
v 0.018928 -0.032755 0.118702
v 0.023914 -0.030295 0.114966
v -0.015327 -0.033995 0.115247
v 0.000111 -0.032755 0.119039
v 0.023914 -0.038130 0.098867
v 0.019059 -0.041352 0.098659
v 0.013497 -0.043576 0.099956
v 0.007259 -0.045033 0.100372
v 0.009110 -0.043583 0.106638
v 0.005024 -0.043735 0.107958
v -0.000558 -0.043889 0.108175
v -0.002789 -0.043849 0.108107
v 0.002796 -0.043841 0.108118
v -0.003907 -0.037159 0.119077
v -0.005025 -0.037092 0.119035
v -0.002789 -0.036293 0.119379
v 0.017050 -0.033651 0.118943
v 0.022474 -0.038042 0.107768
v 0.023914 -0.037057 0.107906
v 0.023914 -0.036658 0.108380
v 0.023914 -0.038526 0.100221
v 0.023265 -0.038971 0.100370
v 0.021245 -0.040216 0.099904
v 0.015072 -0.042976 0.100370
v 0.013401 -0.042432 0.106519
v 0.012295 -0.042435 0.107637
v 0.007728 -0.043516 0.107583
v 0.007874 -0.036862 0.118807
v 0.006141 -0.037001 0.118968
v 0.005024 -0.037082 0.119029
v 0.001678 -0.043869 0.108156
v -0.000558 -0.037241 0.119090
v -0.002789 -0.037194 0.119090
v 0.003913 -0.037140 0.119063
v 0.002796 -0.037181 0.119081
v 0.009491 -0.035176 0.119369
v 0.014753 -0.034717 0.118901
v 0.018041 -0.040271 0.107774
v 0.020296 -0.039186 0.107809
v 0.023914 -0.037395 0.107155
v 0.021245 -0.039095 0.106573
v 0.015663 -0.041326 0.107656
v 0.012302 -0.035745 0.118802
v 0.010605 -0.042677 0.108034
v 0.001682 -0.037211 0.119088
v 0.000560 -0.037238 0.119088
v 0.019044 -0.040226 0.106613
f 19 9 18
f 19 1 9
f 18 30 31
f 31 30 40
f 18 9 17
f 17 30 18
f 51 38 40
f 77 76 95
f 41 76 77
f 11 25 8
f 1 2 3
f 59 53 40
f 16 17 9
f 8 25 13
f 24 13 25
f 26 13 24
f 40 56 57
f 55 56 40
f 76 41 60
f 1 19 33
f 9 1 4
f 1 3 4
f 12 16 9
f 40 30 39
f 39 52 40
f 58 51 40
f 40 52 58
f 27 13 26
f 29 27 48
f 22 36 23
f 26 24 23
f 23 36 26
f 11 3 7
f 25 11 7
f 7 24 25
f 7 3 2
f 7 23 24
f 75 56 74
f 75 57 56
f 40 53 54
f 54 55 40
f 32 60 41
f 41 33 32
f 10 2 1
f 1 33 10
f 6 3 11
f 6 4 3
f 8 4 6
f 6 11 8
f 8 13 14
f 13 27 14
f 27 29 14
f 37 27 26
f 48 27 37
f 26 36 37
f 8 14 15
f 15 14 29
f 101 71 87
f 67 69 70
f 70 29 48
f 70 69 71
f 100 71 101
f 100 90 71
f 71 90 91
f 91 54 71
f 55 54 91
f 85 84 91
f 91 92 55
f 71 54 50
f 50 70 71
f 29 70 50
f 56 55 72
f 55 92 72
f 77 95 96
f 78 41 77
f 77 96 78
f 78 96 102
f 35 36 22
f 67 36 35
f 34 35 22
f 46 35 34
f 65 84 85
f 83 84 65
f 42 33 41
f 42 10 33
f 2 10 5
f 5 7 2
f 22 23 5
f 23 7 5
f 8 15 28
f 28 15 38
f 88 69 67
f 71 69 88
f 88 87 71
f 48 37 47
f 47 70 48
f 67 70 47
f 47 36 67
f 47 37 36
f 29 50 49
f 38 15 49
f 49 15 29
f 40 38 49
f 49 59 40
f 53 59 49
f 49 54 53
f 49 50 54
f 83 99 98
f 98 84 83
f 98 91 84
f 92 91 98
f 73 95 74
f 73 96 95
f 74 56 73
f 56 72 73
f 79 78 102
f 80 62 79
f 79 102 80
f 64 62 80
f 46 34 45
f 34 63 45
f 63 64 45
f 45 65 46
f 21 63 34
f 21 34 22
f 22 5 21
f 86 100 101
f 90 100 86
f 43 79 62
f 80 102 97
f 92 98 97
f 65 45 82
f 82 99 83
f 83 65 82
f 82 64 99
f 82 45 64
f 46 65 68
f 68 35 46
f 68 86 35
f 68 65 85
f 90 86 68
f 67 35 66
f 35 86 66
f 66 88 67
f 87 88 66
f 101 87 66
f 66 86 101
f 10 42 20
f 42 43 20
f 20 5 10
f 20 21 5
f 61 42 41
f 61 43 42
f 41 78 61
f 78 79 61
f 79 43 61
f 81 98 99
f 81 97 98
f 80 97 81
f 81 64 80
f 99 64 81
f 94 73 72
f 102 96 94
f 96 73 94
f 89 68 85
f 90 68 89
f 85 91 89
f 89 91 90
f 63 21 44
f 21 20 44
f 62 64 44
f 44 64 63
f 44 43 62
f 44 20 43
f 93 72 92
f 93 94 72
f 92 97 93
f 93 97 102
f 102 94 93
f 12 4 8
f 9 4 12
f 40 57 32
f 32 95 76
f 18 31 32
f 32 31 40
f 74 95 32
f 32 75 74
f 76 60 32
f 57 75 32
f 32 19 18
f 32 33 19
f 38 51 28
f 51 58 28
f 30 17 28
f 28 12 8
f 17 16 28
f 28 39 30
f 16 12 28
f 52 39 28
f 28 58 52
