# generated by collision_forge
v 0.018594 0.023733 0.006973
v 0.023779 0.032135 0.097304
v 0.028112 -0.012721 0.007701
v 0.034604 -0.014181 0.076145
v 0.034828 0.017226 0.113166
v 0.030175 0.006792 0.007119
v 0.042486 0.015779 0.098626
v 0.037438 0.000012 0.113166
v 0.041269 -0.010390 0.107462
v 0.029027 0.024023 0.113166
v 0.044490 -0.009483 0.099250
v 0.040234 0.019062 0.106640
v 0.031597 0.032135 0.098647
v 0.029161 0.032135 0.104954
v 0.036803 0.023384 0.108711
v 0.024803 0.032135 0.102154
v 0.029313 -0.008372 0.006890
v 0.045224 0.003912 0.099250
v 0.037096 -0.014181 0.098293
v 0.043596 0.012478 0.098626
v 0.032149 0.031006 0.104954
v 0.041280 0.018940 0.099250
v 0.031290 -0.000146 0.009242
v 0.029505 0.009490 0.007712
v 0.031869 0.032135 0.101478
v 0.043561 0.008986 0.106557
v 0.045221 -0.003901 0.099250
v 0.044106 -0.010390 0.101488
v 0.024566 0.018967 0.007171
v 0.030658 0.003917 0.007712
v 0.044354 0.009485 0.099250
v 0.034302 0.029832 0.099250
v 0.044968 0.006148 0.099250
v 0.039684 -0.010385 0.105880
v 0.045365 0.001681 0.099250
v 0.029129 -0.010290 0.007701
v 0.037977 0.023465 0.106557
v 0.025684 0.032135 0.097304
v 0.040199 0.021221 0.098668
v 0.043484 0.000012 0.108691
v 0.020230 0.023733 0.007712
v 0.042996 -0.010390 0.107056
v 0.041304 0.013371 0.108732
v 0.044167 0.003917 0.107056
v 0.044642 0.007758 0.098772
v 0.036837 0.026785 0.099250
v 0.026805 0.015625 0.008263
v 0.035388 0.028589 0.100364
v 0.031005 0.032135 0.104954
v 0.033201 0.030970 0.099250
v 0.045368 -0.001670 0.099250
v 0.030596 0.024023 0.113166
v 0.030471 -0.001674 0.006858
v 0.035951 -0.014181 0.076145
v 0.026791 -0.012721 0.007701
v 0.038118 0.024803 0.099250
v 0.029841 0.002801 0.006838
v 0.028133 0.012718 0.007712
v 0.038364 -0.014181 0.098293
v 0.045426 0.000012 0.099250
v 0.037310 0.010605 0.113166
v 0.025868 0.017040 0.007712
v 0.038580 0.000012 0.113166
v 0.044260 -0.010390 0.100364
v 0.040282 0.018074 0.107785
v 0.043439 0.002797 0.108649
v 0.030628 -0.003905 0.007701
v 0.045112 0.003912 0.101488
v 0.045368 -0.000550 0.101488
v 0.045304 0.002797 0.099250
v 0.045298 -0.002785 0.099250
v 0.045120 -0.005016 0.099250
v 0.045109 0.005032 0.099250
v 0.030476 -0.005021 0.007701
v 0.044698 -0.008041 0.098647
v 0.042430 0.013394 0.106484
v 0.035391 0.028621 0.099250
v 0.044295 -0.010390 0.099250
v 0.019688 0.023733 0.006983
v 0.027528 -0.012721 0.007014
v 0.037475 0.024023 0.106994
v 0.023926 0.032135 0.098137
v 0.044677 -0.006780 0.102092
v 0.026935 0.014773 0.007004
v 0.018224 0.023733 0.007712
v 0.032099 0.032095 0.099250
v 0.039105 0.019035 0.108753
v 0.034831 0.029274 0.099250
v 0.034681 -0.014181 0.076904
v 0.029235 0.009490 0.006921
v 0.029385 -0.009483 0.007701
v 0.024529 0.032135 0.101478
v 0.036595 0.024023 0.108472
v 0.030268 -0.006195 0.007701
v 0.021452 0.022558 0.007712
v 0.044116 -0.003901 0.107056
v 0.029195 0.010406 0.007712
v 0.042513 0.011721 0.107785
v 0.022541 0.021425 0.007712
v 0.043609 0.012501 0.100364
v 0.043665 -0.006603 0.107462
v 0.039017 0.023338 0.100364
f 2 38 1
f 85 2 1
f 89 19 2
f 11 78 94
f 94 75 11
f 54 3 78
f 78 3 36
f 10 19 8
f 79 1 38
f 85 1 55
f 55 2 85
f 4 89 55
f 55 89 2
f 59 54 78
f 59 9 19
f 42 9 59
f 94 78 91
f 78 36 91
f 19 10 92
f 67 53 23
f 67 23 75
f 24 20 6
f 80 55 1
f 80 54 4
f 3 54 80
f 4 55 80
f 7 20 24
f 56 29 46
f 26 68 31
f 31 68 33
f 31 6 20
f 8 19 34
f 34 9 8
f 19 9 34
f 42 59 28
f 28 101 42
f 63 101 40
f 42 101 63
f 63 66 61
f 40 66 63
f 8 9 63
f 63 9 42
f 41 86 95
f 95 79 41
f 29 79 95
f 95 99 29
f 41 79 13
f 13 86 41
f 13 79 38
f 93 49 52
f 2 19 82
f 19 92 82
f 74 75 94
f 74 67 75
f 53 67 74
f 23 53 30
f 53 6 30
f 30 6 33
f 57 6 53
f 1 79 57
f 20 7 100
f 26 31 100
f 100 31 20
f 7 22 100
f 39 56 102
f 102 22 39
f 102 56 46
f 84 79 29
f 39 47 62
f 29 56 62
f 62 56 39
f 62 84 29
f 47 84 62
f 23 30 18
f 40 101 96
f 33 6 45
f 45 31 33
f 6 31 45
f 64 59 78
f 64 28 59
f 78 11 64
f 44 68 26
f 44 66 40
f 40 96 44
f 29 99 88
f 86 13 25
f 81 48 21
f 49 93 21
f 21 93 81
f 21 25 49
f 48 25 21
f 61 66 43
f 43 5 61
f 10 14 16
f 16 92 10
f 17 57 53
f 17 80 1
f 1 57 17
f 94 91 17
f 17 91 36
f 17 74 94
f 53 74 17
f 17 36 3
f 3 80 17
f 37 102 46
f 46 48 37
f 37 48 81
f 58 84 47
f 58 47 39
f 84 58 97
f 97 7 24
f 97 22 7
f 39 22 97
f 97 58 39
f 6 57 90
f 84 97 90
f 90 57 79
f 79 84 90
f 24 6 90
f 90 97 24
f 33 68 73
f 68 18 73
f 73 30 33
f 73 18 30
f 60 23 35
f 101 28 83
f 83 96 101
f 28 64 83
f 83 64 11
f 68 44 69
f 69 44 96
f 60 35 69
f 96 83 69
f 46 29 77
f 29 88 77
f 77 48 46
f 77 88 48
f 86 25 50
f 50 95 86
f 52 5 15
f 15 93 52
f 98 43 66
f 98 44 26
f 66 44 98
f 23 18 70
f 70 35 23
f 70 18 68
f 68 69 70
f 70 69 35
f 72 11 75
f 72 83 11
f 72 69 83
f 75 23 72
f 95 50 32
f 99 95 32
f 32 88 99
f 48 88 32
f 32 25 48
f 32 50 25
f 5 43 87
f 87 15 5
f 26 100 76
f 76 98 26
f 60 69 51
f 51 23 60
f 43 98 65
f 65 87 43
f 98 76 65
f 65 37 81
f 15 87 65
f 81 93 65
f 93 15 65
f 69 72 27
f 27 72 23
f 12 65 76
f 12 100 22
f 12 76 100
f 37 65 12
f 22 102 12
f 102 37 12
f 71 51 69
f 69 27 71
f 23 51 71
f 71 27 23
f 19 89 59
f 59 89 4
f 4 54 59
f 14 10 52
f 52 49 14
f 8 63 5
f 5 10 8
f 52 10 5
f 5 63 61
f 16 13 38
f 16 38 2
f 2 82 16
f 16 14 49
f 16 82 92
f 49 25 16
f 16 25 13
