# generated by collision_forge
v 0.038575 0.000560 0.113171
v -0.044063 0.000554 0.107842
v 0.000112 -0.033859 0.119204
v 0.000039 0.034870 0.119273
v -0.029249 -0.023992 0.118940
v 0.027758 -0.026648 0.114967
v 0.026925 0.028037 0.113171
v -0.040301 0.018121 0.107842
v -0.016579 -0.034912 0.114423
v -0.035164 0.007242 0.119381
v 0.014821 0.034739 0.118922
v -0.043254 -0.008158 0.107968
v 0.036997 -0.005000 0.118971
v 0.021787 -0.031857 0.114967
v 0.019238 0.033652 0.113169
v 0.037305 0.010593 0.113171
v 0.007248 0.034870 0.119341
v 0.033357 0.019890 0.113171
v -0.023238 0.028099 0.119363
v 0.037248 -0.009472 0.114967
v 0.013826 0.034877 0.113169
v -0.019330 0.033363 0.114863
v -0.021296 -0.032283 0.114423
v 0.038268 0.005611 0.113171
v 0.030185 0.024603 0.113171
v -0.025115 -0.026228 0.119386
v 0.035921 0.014997 0.113171
v 0.030946 -0.022856 0.114967
v -0.034047 0.011708 0.119378
v 0.022928 0.031326 0.113169
v 0.024967 -0.029400 0.114967
v -0.037162 0.003891 0.119067
v -0.042405 -0.011716 0.107968
v -0.015317 -0.034919 0.117116
v -0.037971 -0.018769 0.107968
v 0.015832 0.034877 0.116248
v -0.041482 -0.014723 0.107968
v 0.016843 0.034877 0.113169
v 0.037386 0.003891 0.118232
v -0.018262 0.033363 0.118209
v -0.021854 0.032042 0.113671
v 0.034821 0.017227 0.113171
v 0.018316 -0.032745 0.119047
v -0.034832 0.013944 0.118995
v -0.031814 -0.017289 0.119391
v -0.043368 0.008033 0.107842
v 0.030379 -0.022643 0.118232
v -0.015058 -0.032930 0.119368
v 0.031512 0.022697 0.113171
v 0.031811 -0.018404 0.119298
v -0.043554 -0.001470 0.108754
v -0.034913 -0.013938 0.119047
v 0.038478 0.003382 0.113171
v -0.037033 0.006127 0.119001
v -0.038222 0.018809 0.107842
v 0.029311 -0.024907 0.114967
v 0.012830 0.034051 0.119346
v -0.017307 0.031808 0.119361
v -0.032696 0.018410 0.119029
v 0.032928 -0.015039 0.119378
v 0.024530 0.030101 0.113169
v 0.021310 0.032448 0.113169
v 0.028899 0.026028 0.113171
v -0.042510 0.011715 0.107842
v -0.031353 -0.021329 0.118885
v -0.021296 -0.031327 0.118864
v 0.036884 -0.006981 0.118851
v -0.021296 0.031319 0.118858
v -0.035835 0.011502 0.118909
v 0.021301 0.031333 0.118871
v 0.034675 -0.014695 0.118879
v 0.035153 0.008357 0.119373
v 0.035420 -0.015067 0.114967
v 0.021277 -0.031299 0.118846
v 0.036852 0.012314 0.113171
v 0.025614 -0.027852 0.118646
v 0.035695 0.012238 0.118751
v -0.024759 0.028643 0.118784
v -0.039703 -0.018769 0.108193
v 0.032442 0.021314 0.113171
v -0.036280 0.000010 0.119384
v 0.001673 0.034870 0.119290
v 0.020436 -0.032745 0.114967
v 0.025687 0.027934 0.118709
v 0.029247 0.023723 0.118966
v 0.026221 0.025113 0.119367
v -0.025689 -0.027921 0.118807
v 0.025776 0.029111 0.113171
v -0.015317 -0.034355 0.118786
v 0.038041 0.007118 0.113171
v 0.032612 0.019360 0.118232
v -0.037105 -0.005006 0.119048
v 0.017297 -0.031809 0.119380
v 0.033737 -0.018466 0.114967
v -0.036005 -0.010587 0.119053
v 0.038025 -0.002770 0.115811
v -0.015317 -0.035421 0.114423
v -0.041021 -0.015975 0.107968
v -0.017235 0.033363 0.119027
v 0.028049 0.026929 0.113171
v -0.019654 0.033363 0.113671
v 0.026302 -0.026311 0.119129
f 97 35 83
f 55 35 2
f 1 35 55
f 31 35 1
f 79 35 97
f 29 19 59
f 59 19 78
f 14 83 35
f 35 31 14
f 87 79 23
f 35 79 98
f 2 35 98
f 98 37 2
f 60 72 45
f 85 72 77
f 77 72 39
f 39 96 1
f 38 55 21
f 55 101 21
f 21 101 4
f 59 78 8
f 8 101 55
f 2 12 51
f 51 12 92
f 2 37 33
f 33 12 2
f 19 29 58
f 11 57 70
f 97 34 9
f 9 79 97
f 9 23 79
f 5 79 87
f 5 65 79
f 87 26 5
f 45 65 5
f 5 26 45
f 37 98 52
f 52 98 79
f 79 65 52
f 52 65 45
f 72 60 13
f 13 60 67
f 13 39 72
f 67 96 13
f 96 39 13
f 93 26 48
f 93 50 60
f 45 26 93
f 93 60 45
f 102 50 93
f 34 89 66
f 66 9 34
f 23 9 66
f 87 23 66
f 66 89 48
f 66 26 87
f 48 26 66
f 27 75 55
f 77 75 27
f 91 85 77
f 77 27 91
f 101 8 41
f 41 8 78
f 29 54 10
f 57 58 86
f 72 85 86
f 86 58 29
f 70 57 86
f 29 10 86
f 86 84 70
f 85 84 86
f 86 10 81
f 45 72 86
f 86 81 45
f 17 58 57
f 57 11 17
f 68 78 19
f 68 41 78
f 44 29 59
f 44 54 29
f 59 8 44
f 2 54 46
f 46 54 64
f 36 11 70
f 36 17 11
f 38 21 36
f 36 21 4
f 95 33 37
f 37 52 95
f 92 12 95
f 12 33 95
f 95 81 92
f 45 81 95
f 95 52 45
f 67 60 71
f 60 50 71
f 48 89 3
f 3 93 48
f 3 89 34
f 3 34 97
f 83 14 74
f 74 14 31
f 1 55 53
f 55 24 53
f 53 39 1
f 53 24 39
f 90 24 55
f 77 39 90
f 39 24 90
f 55 18 42
f 42 27 55
f 18 91 42
f 42 91 27
f 30 62 70
f 55 62 30
f 55 88 7
f 7 100 55
f 88 84 7
f 7 84 100
f 85 91 25
f 25 84 85
f 81 10 32
f 32 10 54
f 92 81 32
f 32 51 92
f 2 51 32
f 32 54 2
f 4 58 82
f 58 17 82
f 82 36 4
f 17 36 82
f 19 58 99
f 99 68 19
f 99 58 4
f 41 68 40
f 68 99 40
f 40 99 4
f 69 8 64
f 69 44 8
f 64 54 69
f 54 44 69
f 70 62 15
f 15 36 70
f 38 36 15
f 15 55 38
f 15 62 55
f 20 96 67
f 67 71 20
f 1 96 20
f 93 3 43
f 83 74 43
f 97 83 43
f 43 3 97
f 102 93 43
f 43 74 102
f 102 74 76
f 76 74 31
f 55 75 16
f 16 90 55
f 16 75 77
f 77 90 16
f 61 30 70
f 70 84 61
f 61 84 88
f 61 88 55
f 55 30 61
f 49 25 91
f 55 25 49
f 55 100 63
f 63 25 55
f 100 84 63
f 84 25 63
f 101 41 22
f 41 40 22
f 4 101 22
f 22 40 4
f 80 91 18
f 80 49 91
f 80 18 55
f 55 49 80
f 73 20 71
f 71 94 73
f 1 20 73
f 73 94 1
f 6 76 31
f 6 31 1
f 47 94 71
f 47 71 50
f 47 50 102
f 102 76 47
f 94 47 28
f 1 94 28
f 56 28 47
f 76 6 56
f 56 47 76
f 56 6 1
f 1 28 56
f 46 8 55
f 46 55 2
f 64 8 46
