# generated by collision_forge
v -0.037657 -0.016085 0.098513
v -0.036369 -0.016085 0.098513
v -0.042348 -0.016085 0.098622
v -0.028175 -0.011810 0.006914
v -0.036411 -0.016085 0.099127
v -0.027569 -0.011810 0.006914
v -0.027519 -0.011810 0.006994
v -0.027283 -0.011810 0.007706
v -0.028480 -0.011810 0.007617
v -0.029116 -0.010222 0.007033
v -0.036508 -0.016085 0.100226
v -0.027590 -0.011722 0.006904
v -0.026640 0.013383 0.006994
v -0.026548 0.013383 0.007706
v -0.029194 -0.010398 0.007706
v -0.042663 -0.016085 0.099236
v -0.030155 -0.006705 0.007132
v -0.029503 -0.009488 0.007706
v -0.030338 -0.005025 0.006924
v -0.036521 -0.016085 0.100365
v -0.027606 0.011721 0.006914
v -0.027262 0.013383 0.006964
v -0.034789 0.013908 0.076151
v -0.037133 0.013908 0.097127
v -0.036647 -0.016085 0.101463
v -0.043571 -0.013484 0.098672
v -0.042665 -0.016085 0.099414
v -0.030593 -0.005025 0.007706
v -0.044693 -0.008325 0.098791
v -0.044708 -0.008137 0.098642
v -0.030460 -0.002791 0.006835
v -0.030732 -0.003907 0.007706
v -0.027816 0.013383 0.007419
v -0.036056 0.013908 0.076151
v -0.037316 0.013908 0.098523
v -0.036652 -0.016085 0.101503
v -0.043575 -0.013489 0.099939
v -0.045156 -0.005022 0.099246
v -0.030458 0.002790 0.006845
v -0.031308 -0.000369 0.009072
v -0.029116 0.010241 0.007033
v -0.028117 0.012907 0.007736
v -0.027958 0.013383 0.008083
v -0.037007 0.013908 0.083892
v -0.043557 0.013394 0.098682
v -0.038527 0.013908 0.098523
v -0.040381 0.013394 0.107839
v -0.038066 0.013394 0.103057
v -0.038014 0.013394 0.102948
v -0.036894 -0.016085 0.102602
v -0.044619 -0.008666 0.100365
v -0.042437 -0.013413 0.106522
v -0.043573 -0.009036 0.106591
v -0.045156 -0.005022 0.100365
v -0.045243 -0.003907 0.099246
v -0.030919 0.000556 0.007706
v -0.031306 0.000033 0.009092
v -0.045291 -0.002791 0.099246
v -0.045333 -0.001673 0.099246
v -0.045363 -0.000560 0.099246
v -0.045354 0.000556 0.099246
v -0.030145 0.006692 0.007162
v -0.029496 0.009487 0.007706
v -0.029196 0.010420 0.007706
v -0.044711 0.008019 0.098642
v -0.043566 0.013394 0.099246
v -0.030327 0.006248 0.007607
v -0.043560 0.013394 0.099830
v -0.043558 0.013394 0.099870
v -0.043323 0.013394 0.101483
v -0.042456 0.013394 0.106601
v -0.042250 0.013394 0.107185
v -0.042039 0.013394 0.107660
v -0.041950 0.013394 0.107839
v -0.042398 0.000001 0.107967
v -0.039182 -0.016085 0.107967
v -0.041421 -0.015917 0.107066
v -0.043551 -0.007829 0.107631
v -0.045128 -0.003907 0.101483
v -0.045452 -0.000560 0.100365
v -0.031302 0.000556 0.009132
v -0.030719 0.003906 0.007706
v -0.045270 0.002790 0.099246
v -0.030593 0.005024 0.007706
v -0.045048 0.006140 0.099246
v -0.044195 0.010605 0.100365
v -0.043586 0.009082 0.106641
v -0.044008 0.000001 0.107967
v -0.040960 -0.016085 0.107967
v -0.042437 -0.012300 0.107631
v -0.044066 -0.005022 0.107066
v -0.043253 -0.008158 0.107967
v -0.045218 0.003906 0.099246
v -0.045150 0.005024 0.099246
v -0.045317 0.000556 0.101483
v -0.045346 0.002790 0.100365
v -0.045024 0.006140 0.100365
v -0.042537 0.011636 0.107839
v -0.043653 0.006533 0.107839
v -0.044386 -0.000560 0.107066
v -0.045026 0.005024 0.101483
v -0.044265 0.003906 0.107066
f 24 25 14
f 31 56 39
f 3 4 1
f 16 4 3
f 25 24 35
f 82 56 81
f 82 39 56
f 45 65 86
f 41 39 62
f 34 43 45
f 81 56 57
f 56 40 57
f 57 61 81
f 57 40 61
f 8 13 14
f 8 7 13
f 8 2 7
f 12 4 31
f 9 4 16
f 88 74 98
f 62 39 84
f 39 82 84
f 81 61 83
f 85 82 81
f 81 94 85
f 85 84 82
f 65 84 85
f 85 86 65
f 39 41 21
f 13 12 21
f 31 39 21
f 21 12 31
f 43 34 33
f 62 45 63
f 63 41 62
f 64 63 45
f 41 63 64
f 14 13 23
f 23 24 14
f 45 46 44
f 44 34 45
f 38 55 40
f 61 40 60
f 80 61 60
f 7 2 6
f 4 12 6
f 13 7 6
f 6 12 13
f 14 25 20
f 20 8 14
f 4 9 10
f 30 28 17
f 18 26 17
f 17 10 18
f 86 85 97
f 49 76 50
f 35 47 48
f 49 35 48
f 48 76 49
f 48 47 76
f 76 47 75
f 62 84 67
f 67 84 65
f 67 45 62
f 67 65 45
f 93 94 81
f 81 83 93
f 72 71 98
f 46 71 72
f 13 21 22
f 22 21 41
f 41 33 22
f 22 33 34
f 34 23 22
f 22 23 13
f 42 33 41
f 41 64 42
f 43 33 42
f 45 43 42
f 42 64 45
f 32 38 40
f 32 28 30
f 30 38 32
f 32 56 31
f 32 40 56
f 59 60 40
f 80 60 59
f 2 8 5
f 54 79 80
f 80 55 54
f 55 38 54
f 15 9 16
f 15 10 9
f 16 26 15
f 15 26 18
f 18 10 15
f 30 17 29
f 29 17 26
f 26 37 29
f 29 38 30
f 29 54 38
f 10 17 19
f 31 4 19
f 4 10 19
f 19 32 31
f 19 17 28
f 28 32 19
f 80 79 100
f 100 95 80
f 100 102 95
f 88 102 100
f 88 78 92
f 49 50 36
f 36 35 49
f 25 35 36
f 96 93 83
f 96 61 80
f 96 83 61
f 94 93 96
f 80 95 96
f 96 85 94
f 96 97 85
f 95 102 96
f 98 74 73
f 73 72 98
f 74 46 73
f 46 72 73
f 45 86 66
f 66 46 45
f 70 69 86
f 70 71 46
f 46 69 70
f 40 55 58
f 58 59 40
f 58 55 80
f 80 59 58
f 8 20 11
f 11 5 8
f 89 77 27
f 27 77 37
f 27 26 16
f 27 37 26
f 37 77 52
f 51 29 37
f 54 29 51
f 86 97 87
f 87 70 86
f 71 70 87
f 98 71 87
f 91 78 88
f 88 100 91
f 91 100 79
f 79 54 91
f 97 96 101
f 101 96 102
f 101 87 97
f 102 87 101
f 86 69 68
f 68 66 86
f 68 69 46
f 46 66 68
f 37 52 53
f 53 51 37
f 78 91 53
f 54 51 53
f 53 91 54
f 89 92 90
f 90 92 78
f 90 77 89
f 90 52 77
f 78 53 90
f 90 53 52
f 98 87 99
f 99 87 102
f 99 88 98
f 99 102 88
f 35 46 47
f 47 46 74
f 44 46 35
f 44 35 24
f 24 23 44
f 44 23 34
f 6 2 1
f 1 4 6
f 75 47 74
f 74 88 75
f 89 76 92
f 92 75 88
f 76 75 92
f 27 3 1
f 27 11 20
f 16 3 27
f 1 2 27
f 27 20 25
f 27 76 89
f 2 5 27
f 27 50 76
f 25 36 27
f 27 36 50
f 5 11 27
