# generated by collision_forge
v 0.013583 -0.034999 0.076135
v -0.028168 -0.011815 0.006907
v -0.040953 -0.016090 0.107959
v -0.033344 -0.011815 0.058612
v 0.013583 -0.028410 0.022724
v -0.008072 -0.030203 0.007065
v -0.036714 -0.011815 0.076146
v -0.034341 -0.029869 0.099239
v 0.013583 -0.033388 0.063277
v -0.015329 -0.035420 0.114424
v -0.040232 -0.021306 0.098639
v 0.000071 -0.041324 0.094132
v 0.013583 -0.029438 0.031412
v -0.028014 -0.035795 0.098629
v -0.037165 -0.014342 0.098502
v -0.021259 -0.040212 0.098660
v -0.029314 -0.011815 0.013289
v -0.036069 -0.011815 0.070070
v -0.042555 -0.016090 0.100661
v 0.013583 -0.026706 0.007391
v -0.029176 -0.025398 0.114424
v 0.013583 -0.027799 0.017553
v -0.026742 -0.034559 0.108685
v 0.011942 -0.038329 0.097923
v -0.024826 -0.038130 0.099239
v 0.005021 -0.030457 0.006844
v -0.027073 -0.015005 0.007697
v -0.011221 -0.029063 0.007097
v 0.007994 -0.040234 0.094764
v -0.005027 -0.029866 0.006854
v -0.017839 -0.025659 0.007255
v -0.031411 -0.030305 0.108833
v 0.011458 -0.029169 0.007707
v -0.031026 -0.023156 0.114424
v -0.039087 -0.023481 0.099239
v 0.012327 -0.036870 0.075008
v -0.033773 -0.018782 0.114424
v -0.026803 -0.035730 0.106505
v -0.016788 -0.042440 0.098671
v -0.019034 -0.040221 0.106579
v -0.013941 -0.042124 0.106990
v -0.035750 -0.026839 0.106579
v -0.001179 -0.031275 0.007139
v -0.017025 -0.034735 0.114424
v -0.013941 -0.043443 0.099008
v -0.021242 -0.037972 0.108748
v -0.039175 -0.016090 0.107959
v -0.023466 -0.039082 0.099829
v -0.022519 -0.031408 0.114424
v -0.035800 -0.028013 0.098629
v -0.036835 -0.023453 0.108738
v 0.012834 -0.028156 0.006928
v -0.028664 -0.011815 0.008718
v 0.007251 -0.030476 0.007707
v -0.006145 -0.030652 0.007697
v -0.031367 -0.031365 0.107769
v 0.013583 -0.036191 0.074661
v -0.042594 -0.016297 0.099218
v -0.028086 -0.012899 0.007792
v -0.032375 -0.018782 0.114424
v 0.011942 -0.039159 0.093837
v -0.031593 -0.032688 0.099239
v -0.041344 -0.019067 0.098650
v -0.019078 -0.041352 0.098650
v 0.013583 -0.036352 0.076135
v -0.015329 -0.034125 0.114424
v -0.038162 -0.024878 0.099239
v -0.035458 -0.011815 0.076146
v -0.013941 -0.043372 0.100356
v -0.027271 -0.011815 0.007697
v -0.038354 -0.014342 0.098502
v 0.011942 -0.039500 0.097923
v -0.016777 -0.042433 0.099840
v 0.006139 -0.040562 0.094764
v 0.006139 -0.030671 0.007707
v 0.013583 -0.028115 0.007707
v -0.013941 -0.041674 0.107959
v 0.009178 -0.040262 0.097923
v -0.041344 -0.016090 0.107053
v -0.028636 -0.035398 0.099239
v -0.010610 -0.029460 0.007697
v 0.007251 -0.040668 0.097923
v 0.001167 -0.031272 0.007139
v -0.019012 -0.024593 0.007118
v -0.034594 -0.026786 0.108717
v -0.017102 -0.025879 0.006960
v -0.031593 -0.032688 0.100356
v -0.033784 -0.030457 0.099239
v 0.013583 -0.027381 0.006960
v -0.021418 -0.022527 0.007697
v 0.001134 -0.041318 0.095301
v -0.032149 -0.032149 0.099239
v -0.016722 -0.040181 0.108717
v 0.008963 -0.030166 0.008129
v -0.029297 -0.034844 0.099239
v -0.032601 -0.030392 0.107053
v -0.039120 -0.021309 0.106653
v -0.034836 -0.029314 0.099239
v -0.027513 -0.011815 0.007002
v -0.022508 -0.021408 0.007697
v -0.015665 -0.026817 0.007128
v -0.024568 -0.018989 0.007149
f 1 68 60
f 15 60 68
f 24 60 66
f 1 60 24
f 26 75 83
f 2 52 26
f 26 30 2
f 9 68 1
f 9 13 68
f 89 52 2
f 76 52 89
f 22 20 68
f 58 7 18
f 18 17 58
f 31 48 25
f 46 44 49
f 43 83 45
f 43 26 83
f 30 26 43
f 2 59 53
f 58 17 53
f 53 59 58
f 58 59 63
f 98 42 67
f 35 102 67
f 67 42 35
f 35 63 11
f 11 63 27
f 27 63 59
f 27 35 11
f 102 35 27
f 27 59 2
f 2 102 27
f 2 30 86
f 86 102 2
f 33 76 36
f 36 94 33
f 33 52 76
f 83 75 91
f 75 74 91
f 54 74 75
f 75 26 54
f 54 33 94
f 54 26 52
f 52 33 54
f 29 54 94
f 74 54 29
f 36 76 57
f 99 70 20
f 20 89 99
f 99 89 2
f 68 20 4
f 20 70 4
f 68 13 5
f 5 22 68
f 19 7 58
f 19 79 7
f 58 63 19
f 63 35 19
f 7 79 71
f 60 15 47
f 10 77 72
f 82 91 74
f 82 69 45
f 45 91 82
f 74 29 82
f 93 44 46
f 93 10 44
f 77 10 93
f 16 48 31
f 40 93 46
f 46 38 40
f 40 38 48
f 23 38 46
f 56 38 23
f 46 49 23
f 80 25 48
f 48 38 80
f 67 102 50
f 50 98 67
f 102 98 50
f 42 98 96
f 56 85 96
f 96 85 42
f 92 90 62
f 102 90 100
f 90 92 100
f 97 35 42
f 79 19 97
f 97 19 35
f 84 86 31
f 102 86 84
f 84 90 102
f 45 83 12
f 12 91 45
f 83 91 12
f 61 65 72
f 61 94 36
f 61 29 94
f 61 57 65
f 36 57 61
f 3 71 79
f 79 97 3
f 72 77 78
f 78 82 29
f 78 61 72
f 29 61 78
f 48 16 64
f 45 69 73
f 73 39 45
f 73 64 39
f 73 40 48
f 48 64 73
f 77 93 41
f 93 40 41
f 69 82 41
f 41 73 69
f 40 73 41
f 41 78 77
f 82 78 41
f 31 25 14
f 14 80 31
f 25 80 14
f 32 85 56
f 21 85 32
f 56 23 32
f 32 49 21
f 32 23 49
f 95 80 38
f 62 90 95
f 90 84 95
f 31 80 95
f 95 84 31
f 87 92 62
f 62 95 87
f 87 95 38
f 87 38 56
f 56 96 87
f 8 98 102
f 102 100 8
f 8 96 98
f 8 87 96
f 42 85 51
f 51 97 42
f 51 3 97
f 31 86 101
f 86 28 101
f 28 64 101
f 101 16 31
f 101 64 16
f 39 64 81
f 81 64 28
f 6 86 30
f 6 28 86
f 30 43 6
f 6 81 28
f 45 39 6
f 39 81 6
f 88 100 92
f 88 8 100
f 92 87 88
f 87 8 88
f 3 51 37
f 55 43 45
f 45 6 55
f 55 6 43
f 34 85 21
f 34 51 85
f 34 37 51
f 24 65 1
f 72 65 24
f 4 7 68
f 4 18 7
f 2 53 4
f 4 99 2
f 17 18 4
f 4 53 17
f 70 99 4
f 1 65 5
f 5 9 1
f 76 89 5
f 5 57 76
f 13 9 5
f 5 89 20
f 20 22 5
f 65 57 5
f 68 7 71
f 71 15 68
f 72 24 10
f 10 24 66
f 15 71 3
f 3 47 15
f 47 3 37
f 60 47 37
f 34 49 44
f 66 60 34
f 34 10 66
f 21 49 34
f 44 10 34
f 60 37 34
