####
#
# OBJ File Generated by Meshlab
#
####
# Object l_clav.obj
#
# Vertices: 138
# Faces: 250
#
####
vn -0.918237 -0.040682 0.393935
v -0.065726 0.081189 0.185523
vn -0.570012 -0.529273 -0.628456
v -0.065655 0.073005 0.171347
vn -0.915877 0.036615 -0.399785
v -0.065655 0.112661 0.148451
vn -0.572269 0.528926 0.626694
v -0.065726 0.120846 0.162627
vn 0.624123 -0.676632 0.390691
v 0.050069 0.081189 0.185523
vn 0.623636 0.676994 -0.390841
v 0.050069 0.120846 0.162627
vn 0.422305 0.089688 -0.902006
v 0.050069 0.112626 0.148390
vn 0.139751 -0.638816 -0.756561
v 0.050069 0.072969 0.171286
vn -0.231060 0.924349 -0.303629
v -0.054146 0.120846 0.162627
vn -0.448349 -0.504620 0.737795
v -0.054146 0.081189 0.185523
vn -0.001197 -0.339827 -0.940487
v -0.054076 0.112661 0.148451
vn -0.000993 -0.910875 -0.412681
v -0.054076 0.073005 0.171347
vn 0.177594 0.772197 0.610060
v -0.007257 0.136714 0.190112
vn 0.584538 0.117886 0.802757
v -0.007257 0.097058 0.213008
vn -0.177827 0.141695 0.973807
v -0.054146 0.097058 0.213008
vn -0.586552 0.636158 0.501258
v -0.054146 0.136714 0.190112
vn -0.000417 -0.198700 -0.980060
v -0.007257 0.112626 0.148390
vn 0.000000 0.866025 -0.500001
v -0.007257 0.120846 0.162627
vn -0.000880 -0.777227 -0.629220
v -0.007257 0.072969 0.171286
vn -0.000004 -0.866015 0.500018
v -0.007257 0.081189 0.185523
vn 0.375837 -0.007953 0.926652
v 0.050069 0.087908 0.197160
vn 0.116546 0.616192 0.778925
v 0.050069 0.127565 0.174265
vn 0.129348 -0.095957 0.986946
v -0.007185 0.087944 0.197222
vn -0.571326 0.711222 -0.409573
v -0.054076 0.127601 0.174327
vn -0.838268 -0.472794 0.271611
v -0.054076 0.087944 0.197222
vn 0.384743 0.906302 0.174898
v -0.007185 0.127601 0.174327
vn -0.842084 0.376144 0.386535
v -0.023955 0.103214 0.156052
vn -0.909377 -0.335535 0.245866
v -0.023955 0.082909 0.167775
vn -0.984713 -0.157228 0.074961
v -0.022413 0.035981 0.089601
vn -0.930285 0.305815 -0.202601
v -0.022413 0.056162 0.077949
vn -0.150543 -0.668467 0.728346
v -0.013847 0.073871 0.172993
vn -0.402596 -0.787738 0.466247
v -0.012304 0.026820 0.094890
vn 0.338264 -0.775675 0.532828
v 0.013548 0.073871 0.172993
vn 0.127123 -0.848751 0.513285
v 0.015090 0.026846 0.094791
vn 0.859997 0.146920 0.488692
v 0.022342 0.080928 0.168919
vn 0.929611 -0.307362 0.203352
v 0.023885 0.033876 0.090816
vn 0.944579 0.309528 -0.109378
v 0.022342 0.105318 0.154837
vn 0.992578 0.111874 -0.047683
v 0.023885 0.058293 0.076637
vn 0.131071 0.970837 -0.200737
v 0.014356 0.113365 0.150192
vn 0.379761 0.796074 -0.471220
v 0.015899 0.066339 0.071990
vn -0.442004 0.799007 -0.407702
v -0.014756 0.113365 0.150192
vn -0.172220 0.842443 -0.510520
v -0.013214 0.066313 0.072089
vn -0.776760 0.443164 -0.447493
v -0.020821 0.080979 0.132356
vn -0.879882 0.279379 0.384388
v -0.020821 0.087699 0.143993
vn -0.974141 0.075116 0.213089
v -0.020821 0.028212 0.178968
vn -0.794728 -0.592118 -0.133427
v -0.020821 0.021495 0.167331
vn -0.133474 0.705663 0.695862
v -0.012836 0.091772 0.151050
vn -0.315725 -0.047282 0.947672
v -0.012836 0.032287 0.186024
vn 0.351932 0.528625 0.772463
v 0.012334 0.091772 0.151050
vn 0.131317 0.460569 0.877857
v 0.012334 0.032287 0.186024
vn 0.789259 0.596690 -0.145022
v 0.020219 0.087912 0.144365
vn 0.803131 -0.144923 0.577908
v 0.020219 0.028428 0.179339
vn 0.891260 -0.188733 -0.412353
v 0.020219 0.080837 0.132108
vn 0.978841 -0.136985 -0.152003
v 0.020219 0.021350 0.167083
vn 0.114741 -0.270889 -0.955748
v 0.012941 0.077190 0.125794
vn 0.283426 -0.859181 -0.426002
v 0.012941 0.017706 0.160768
vn -0.343550 -0.418678 -0.840644
v -0.013442 0.077288 0.125820
vn -0.126034 -0.542839 -0.830326
v -0.013442 0.017680 0.160866
vn -0.270261 0.760571 -0.590331
v -0.054263 0.177748 0.183028
vn -0.271064 0.119183 -0.955154
v -0.054192 0.154416 0.165054
vn -0.155134 0.349487 -0.924009
v -0.008302 0.154416 0.165054
vn -0.155406 0.899691 -0.407927
v -0.008231 0.177748 0.183028
vn -0.271175 -0.590908 -0.759797
v -0.054192 0.125132 0.168920
vn -0.155983 -0.407066 -0.899982
v -0.008302 0.125132 0.168920
vn -0.270965 -0.955062 -0.120141
v -0.054192 0.107231 0.192296
vn -0.155663 -0.924565 -0.347778
v -0.008302 0.107231 0.192296
vn -0.271525 -0.759591 0.591013
v -0.054263 0.111042 0.221541
vn -0.154774 -0.900294 0.406836
v -0.008231 0.111042 0.221541
vn -0.270952 -0.119884 0.955098
v -0.054192 0.134463 0.239465
vn -0.155888 -0.348688 0.924184
v -0.008302 0.134463 0.239465
vn -0.271107 0.590778 0.759922
v -0.054192 0.163658 0.235649
vn -0.155844 0.406991 0.900039
v -0.008302 0.163658 0.235649
vn -0.270773 0.955236 0.119186
v -0.054192 0.181649 0.212222
vn -0.155376 0.924330 0.348528
v -0.008302 0.181649 0.212222
vn -0.124293 0.150475 -0.980769
v -0.001726 0.156355 0.157496
vn -0.125489 0.799098 -0.587958
v -0.001655 0.184577 0.179085
vn -0.124543 -0.587451 -0.799619
v -0.001726 0.121201 0.162110
vn -0.125386 -0.980793 -0.149410
v -0.001726 0.099627 0.190248
vn -0.124957 -0.799747 0.587188
v -0.001655 0.104301 0.225434
vn -0.124621 -0.151025 0.980643
v -0.001726 0.132436 0.247073
vn -0.124677 0.587460 0.799591
v -0.001726 0.167591 0.242459
vn -0.124664 0.980644 0.150984
v -0.001726 0.189164 0.214322
vn 0.095871 0.385737 -0.917614
v 0.050238 0.156391 0.157557
vn 0.095727 0.922350 -0.374307
v 0.050238 0.184577 0.179085
vn 0.096834 -0.374882 -0.922001
v 0.050238 0.121238 0.162172
vn 0.097073 -0.917209 -0.386400
v 0.050238 0.099664 0.190309
vn 0.096308 -0.921924 0.375208
v 0.050238 0.104301 0.225434
vn 0.096809 -0.387180 0.916908
v 0.050238 0.132400 0.247012
vn 0.096994 0.374878 0.921986
v 0.050238 0.167555 0.242398
vn 0.096260 0.917052 0.386975
v 0.050238 0.189128 0.214260
vn -0.843904 0.423845 -0.328909
v -0.054263 0.164793 0.190508
vn -0.842552 0.064605 -0.534727
v -0.054192 0.150514 0.179522
vn -0.844120 -0.328908 -0.423416
v -0.054192 0.132637 0.181919
vn -0.843811 -0.532367 -0.067598
v -0.054192 0.121711 0.196151
vn -0.845065 -0.422388 0.327802
v -0.054263 0.124086 0.214011
vn -0.843775 -0.066545 0.532555
v -0.054192 0.138367 0.224997
vn -0.843629 0.330091 0.423473
v -0.054192 0.156154 0.222651
vn -0.844203 0.531648 0.068348
v -0.054192 0.167167 0.208369
vn -0.977481 0.195911 -0.078423
v -0.065699 0.164793 0.190508
vn -0.371258 0.359474 -0.856123
v -0.065699 0.150549 0.179584
vn -0.937508 -0.131331 -0.322228
v -0.065699 0.132673 0.181980
vn -0.370695 -0.855747 -0.360946
v -0.065699 0.121748 0.196212
vn -0.977485 -0.195115 0.080325
v -0.065699 0.124086 0.214011
vn -0.368912 -0.361443 0.856308
v -0.065699 0.138330 0.224935
vn -0.937738 0.131009 0.321690
v -0.065628 0.156154 0.222651
vn -0.370716 0.855068 0.362531
v -0.065699 0.167132 0.208307
vn 0.115315 -0.385168 0.915614
v 0.050238 0.155098 0.162597
vn 0.115642 -0.920001 0.374466
v 0.050238 0.180026 0.181714
vn 0.115984 0.373815 0.920223
v 0.050167 0.123846 0.166692
vn 0.116749 0.915724 0.384473
v 0.050238 0.104761 0.191659
vn 0.116596 0.919998 -0.374179
v 0.050238 0.108853 0.222805
vn 0.115638 0.386568 -0.914982
v 0.050238 0.133781 0.241922
vn 0.115357 -0.374572 -0.919994
v 0.050167 0.164945 0.237878
vn 0.115081 -0.915057 -0.386558
v 0.050238 0.184118 0.212861
vn 0.894722 -0.055665 0.443141
v 0.003920 0.155098 0.162597
vn 0.169197 -0.778213 0.604779
v 0.003920 0.180026 0.181714
vn 0.169987 0.605356 0.777591
v 0.003992 0.123846 0.166692
vn 0.761245 0.643451 0.080482
v 0.003920 0.104761 0.191659
vn 0.169083 0.778051 -0.605018
v 0.003920 0.108853 0.222805
vn 0.894575 0.055317 -0.443481
v 0.003992 0.133817 0.241985
vn 0.168563 -0.605373 -0.777888
v 0.003992 0.164945 0.237878
vn 0.760579 -0.644070 -0.081813
v 0.003992 0.184154 0.212923
vn 0.627356 0.588371 -0.510141
v 0.005819 0.094664 0.126481
vn 0.051412 0.998207 -0.030660
v 0.005387 0.101406 0.138096
vn -0.029923 0.954126 -0.297906
v -0.063585 0.101712 0.135986
vn -0.417279 0.481185 -0.770934
v -0.063153 0.094971 0.124370
vn 0.234848 0.594697 0.768884
v 0.004972 0.098585 0.149144
vn -0.533966 0.673252 0.511480
v -0.064000 0.098891 0.147033
vn 0.034775 0.163727 0.985893
v 0.004489 0.076811 0.161763
vn -0.074395 0.383359 0.920598
v -0.064483 0.077119 0.159652
vn 0.568164 -0.596354 0.567054
v 0.004586 0.066118 0.159043
vn -0.443339 -0.479841 0.757102
v -0.064386 0.066425 0.156931
vn 0.040109 -0.997505 0.058092
v 0.005041 0.059018 0.146809
vn -0.054955 -0.947134 0.316097
v -0.063931 0.059325 0.144697
vn 0.271861 -0.582578 -0.765960
v 0.005415 0.061656 0.136856
vn -0.510461 -0.645556 -0.568056
v -0.063557 0.061963 0.134746
vn 0.094421 -0.173094 -0.980369
v 0.005990 0.084515 0.123694
vn -0.020654 -0.387874 -0.921481
v -0.063126 0.084821 0.121579
# 138 vertices, 0 vertices normals

f 1//1 4//4 3//3
f 3//3 2//2 1//1
f 5//5 8//8 7//7
f 7//7 6//6 5//5
f 4//4 1//1 10//10
f 10//10 9//9 4//4
f 3//3 4//4 9//9
f 9//9 11//11 3//3
f 2//2 3//3 11//11
f 11//11 12//12 2//2
f 1//1 2//2 12//12
f 12//12 10//10 1//1
f 13//13 16//16 15//15
f 15//15 14//14 13//13
f 17//17 11//11 9//9
f 9//9 18//18 17//17
f 19//19 12//12 11//11
f 11//11 17//17 19//19
f 20//20 10//10 12//12
f 12//12 19//19 20//20
f 6//6 22//22 21//21
f 21//21 5//5 6//6
f 20//20 5//5 21//21
f 21//21 23//23 20//20
f 10//10 25//25 24//24
f 24//24 9//9 10//10
f 18//18 9//9 24//24
f 24//24 26//26 18//18
f 22//22 26//26 23//23
f 23//23 21//21 22//22
f 7//7 17//17 18//18
f 18//18 6//6 7//7
f 8//8 19//19 17//17
f 17//17 7//7 8//8
f 5//5 20//20 19//19
f 19//19 8//8 5//5
f 10//10 20//20 23//23
f 23//23 25//25 10//10
f 6//6 18//18 26//26
f 26//26 22//22 6//6
f 25//25 15//15 16//16
f 16//16 24//24 25//25
f 24//24 16//16 13//13
f 13//13 26//26 24//24
f 26//26 13//13 14//14
f 14//14 23//23 26//26
f 23//23 14//14 15//15
f 15//15 25//25 23//23
f 27//27 30//30 29//29
f 29//29 28//28 27//27
f 28//28 29//29 32//32
f 32//32 31//31 28//28
f 31//31 32//32 34//34
f 34//34 33//33 31//31
f 33//33 34//34 36//36
f 36//36 35//35 33//33
f 35//35 36//36 38//38
f 38//38 37//37 35//35
f 37//37 38//38 40//40
f 40//40 39//39 37//37
f 39//39 40//40 42//42
f 42//42 41//41 39//39
f 41//41 42//42 30//30
f 30//30 27//27 41//41
f 43//43 46//46 45//45
f 45//45 44//44 43//43
f 44//44 45//45 48//48
f 48//48 47//47 44//44
f 47//47 48//48 50//50
f 50//50 49//49 47//47
f 49//49 50//50 52//52
f 52//52 51//51 49//49
f 51//51 52//52 54//54
f 54//54 53//53 51//51
f 53//53 54//54 56//56
f 56//56 55//55 53//53
f 55//55 56//56 58//58
f 58//58 57//57 55//55
f 57//57 58//58 46//46
f 46//46 43//43 57//57
f 27//27 35//35 39//39
f 39//39 41//41 27//27
f 39//39 35//35 37//37
f 35//35 27//27 31//31
f 31//31 33//33 35//35
f 28//28 31//31 27//27
f 43//43 51//51 55//55
f 55//55 57//57 43//43
f 55//55 51//51 53//53
f 51//51 43//43 47//47
f 47//47 49//49 51//51
f 44//44 47//47 43//43
f 46//46 56//56 48//48
f 48//48 45//45 46//46
f 48//48 56//56 52//52
f 52//52 50//50 48//48
f 52//52 56//56 54//54
f 46//46 58//58 56//56
f 59//59 62//62 61//61
f 61//61 60//60 59//59
f 60//60 61//61 64//64
f 64//64 63//63 60//60
f 63//63 64//64 66//66
f 66//66 65//65 63//63
f 65//65 66//66 68//68
f 68//68 67//67 65//65
f 67//67 68//68 70//70
f 70//70 69//69 67//67
f 69//69 70//70 72//72
f 72//72 71//71 69//69
f 71//71 72//72 74//74
f 74//74 73//73 71//71
f 73//73 74//74 62//62
f 62//62 59//59 73//73
f 62//62 76//76 75//75
f 75//75 61//61 62//62
f 61//61 75//75 77//77
f 77//77 64//64 61//61
f 64//64 77//77 78//78
f 78//78 66//66 64//64
f 66//66 78//78 79//79
f 79//79 68//68 66//66
f 68//68 79//79 80//80
f 80//80 70//70 68//68
f 70//70 80//80 81//81
f 81//81 72//72 70//70
f 72//72 81//81 82//82
f 82//82 74//74 72//72
f 74//74 82//82 76//76
f 76//76 62//62 74//74
f 76//76 84//84 83//83
f 83//83 75//75 76//76
f 75//75 83//83 85//85
f 85//85 77//77 75//75
f 77//77 85//85 86//86
f 86//86 78//78 77//77
f 78//78 86//86 87//87
f 87//87 79//79 78//78
f 79//79 87//87 88//88
f 88//88 80//80 79//79
f 80//80 88//88 89//89
f 89//89 81//81 80//80
f 81//81 89//89 90//90
f 90//90 82//82 81//81
f 82//82 90//90 84//84
f 84//84 76//76 82//82
f 59//59 60//60 92//92
f 92//92 91//91 59//59
f 60//60 63//63 93//93
f 93//93 92//92 60//60
f 63//63 65//65 94//94
f 94//94 93//93 63//63
f 65//65 67//67 95//95
f 95//95 94//94 65//65
f 67//67 69//69 96//96
f 96//96 95//95 67//67
f 69//69 71//71 97//97
f 97//97 96//96 69//69
f 71//71 73//73 98//98
f 98//98 97//97 71//71
f 73//73 59//59 91//91
f 91//91 98//98 73//73
f 91//91 92//92 100//100
f 100//100 99//99 91//91
f 92//92 93//93 101//101
f 101//101 100//100 92//92
f 93//93 94//94 102//102
f 102//102 101//101 93//93
f 94//94 95//95 103//103
f 103//103 102//102 94//94
f 95//95 96//96 104//104
f 104//104 103//103 95//95
f 96//96 97//97 105//105
f 105//105 104//104 96//96
f 97//97 98//98 106//106
f 106//106 105//105 97//97
f 98//98 91//91 99//99
f 99//99 106//106 98//98
f 99//99 103//103 105//105
f 105//105 106//106 99//99
f 105//105 103//103 104//104
f 103//103 99//99 101//101
f 101//101 102//102 103//103
f 100//100 101//101 99//99
f 83//83 84//84 108//108
f 108//108 107//107 83//83
f 85//85 83//83 107//107
f 107//107 109//109 85//85
f 86//86 85//85 109//109
f 109//109 110//110 86//86
f 87//87 86//86 110//110
f 110//110 111//111 87//87
f 88//88 87//87 111//111
f 111//111 112//112 88//88
f 89//89 88//88 112//112
f 112//112 113//113 89//89
f 90//90 89//89 113//113
f 113//113 114//114 90//90
f 84//84 90//90 114//114
f 114//114 108//108 84//84
f 107//107 108//108 116//116
f 116//116 115//115 107//107
f 109//109 107//107 115//115
f 115//115 117//117 109//109
f 110//110 109//109 117//117
f 117//117 118//118 110//110
f 111//111 110//110 118//118
f 118//118 119//119 111//111
f 112//112 111//111 119//119
f 119//119 120//120 112//112
f 113//113 112//112 120//120
f 120//120 121//121 113//113
f 114//114 113//113 121//121
f 121//121 122//122 114//114
f 108//108 114//114 122//122
f 122//122 116//116 108//108
f 115//115 120//120 118//118
f 118//118 117//117 115//115
f 118//118 120//120 119//119
f 120//120 115//115 122//122
f 122//122 121//121 120//120
f 116//116 122//122 115//115
f 123//123 126//126 125//125
f 125//125 124//124 123//123
f 124//124 125//125 128//128
f 128//128 127//127 124//124
f 127//127 128//128 130//130
f 130//130 129//129 127//127
f 129//129 130//130 132//132
f 132//132 131//131 129//129
f 131//131 132//132 134//134
f 134//134 133//133 131//131
f 133//133 134//134 136//136
f 136//136 135//135 133//133
f 135//135 136//136 138//138
f 138//138 137//137 135//135
f 137//137 138//138 126//126
f 126//126 123//123 137//137
f 123//123 131//131 135//135
f 135//135 137//137 123//123
f 135//135 131//131 133//133
f 131//131 123//123 127//127
f 127//127 129//129 131//131
f 124//124 127//127 123//123
f 126//126 136//136 128//128
f 128//128 125//125 126//126
f 128//128 136//136 132//132
f 132//132 130//130 128//128
f 132//132 136//136 134//134
f 126//126 138//138 136//136
# 250 faces, 0 coords texture

# End of File