####
#
# OBJ File Generated by Meshlab
#
####
# Object l_uglut_chull.obj
#
# Vertices: 12
# Faces: 20
#
####
vn 0.705675 0.671839 -0.225065
v 0.023346 0.007377 -0.045492
vn -0.838396 0.545043 -0.004387
v -0.021615 0.007110 -0.045510
vn -0.014729 0.986832 0.161073
v 0.000592 0.012925 0.049541
vn -0.005643 0.967281 -0.253644
v 0.001033 0.020953 -0.044372
vn 0.840136 -0.467907 -0.274290
v 0.023575 -0.012709 -0.047001
vn 0.670008 -0.706055 0.229291
v 0.023575 -0.021806 0.057319
vn 0.831056 0.397181 0.389351
v 0.023516 -0.002328 0.058836
vn -0.698801 -0.655007 0.287477
v -0.021712 -0.021806 0.057319
vn -0.741300 0.559181 0.371203
v -0.021712 -0.003409 0.058937
vn -0.535726 -0.625633 -0.567081
v -0.021734 -0.012600 -0.047304
vn 0.177616 -0.980347 -0.085861
v 0.012940 -0.031346 0.000387
vn -0.385764 -0.919053 -0.080788
v -0.011081 -0.031341 0.000388
# 12 vertices, 0 vertices normals

f 3//3 9//9 7//7
f 10//10 12//12 8//8
f 7//7 1//1 3//3
f 3//3 1//1 4//4
f 4//4 1//1 10//10
f 11//11 5//5 6//6
f 1//1 5//5 10//10
f 3//3 4//4 2//2
f 9//9 3//3 2//2
f 2//2 4//4 10//10
f 5//5 7//7 6//6
f 5//5 1//1 7//7
f 11//11 6//6 8//8
f 12//12 11//11 8//8
f 8//8 6//6 7//7
f 8//8 7//7 9//9
f 8//8 9//9 2//2
f 8//8 2//2 10//10
f 11//11 12//12 10//10
f 11//11 10//10 5//5
# 20 faces, 0 coords texture

# End of File