####
#
# OBJ File Generated by Meshlab
#
####
# Object mtorso_chull.obj
#
# Vertices: 12
# Faces: 20
#
####
vn 0.671707 0.000714 0.740817
v -0.016845 -0.001749 -0.014352
vn -0.390401 0.895206 0.214924
v 0.020016 -0.017819 -0.005053
vn -0.900042 0.000420 0.435804
v 0.020016 -0.001749 -0.014352
vn 0.342893 0.913418 0.219297
v -0.016845 -0.017819 -0.005053
vn -0.390466 -0.894996 0.215683
v 0.020016 0.014338 -0.005084
vn 0.771773 -0.618200 0.148979
v -0.016845 0.014338 -0.005084
vn 0.390394 -0.895212 -0.214916
v -0.016845 0.014356 0.052477
vn -0.342880 -0.913426 -0.219288
v 0.020016 0.014356 0.052477
vn -0.875680 -0.000466 -0.482892
v 0.020016 -0.001713 0.061775
vn -0.343204 0.913116 -0.220067
v 0.020016 -0.017801 0.052508
vn 0.244200 -0.000935 -0.969724
v -0.016845 -0.001713 0.061775
vn 0.646898 0.741350 -0.178670
v -0.016845 -0.017801 0.052508
# 12 vertices, 0 vertices normals

f 1//1 2//2 3//3
f 2//2 1//1 4//4
f 5//5 1//1 3//3
f 1//1 5//5 6//6
f 7//7 5//5 8//8
f 5//5 7//7 6//6
f 9//9 3//3 2//2
f 10//10 9//9 2//2
f 5//5 9//9 8//8
f 9//9 5//5 3//3
f 9//9 11//11 7//7
f 9//9 7//7 8//8
f 4//4 1//1 12//12
f 12//12 1//1 6//6
f 12//12 7//7 11//11
f 12//12 6//6 7//7
f 12//12 10//10 2//2
f 12//12 2//2 4//4
f 12//12 9//9 10//10
f 11//11 9//9 12//12
# 20 faces, 0 coords texture

# End of File