####
#
# OBJ File Generated by Meshlab
#
####
# Object mtorso.obj
#
# Vertices: 12
# Faces: 20
#
####
vn 0.162678 -0.187408 -0.968718
v 0.020016 -0.001749 -0.014352
vn 0.589409 -0.801210 -0.103251
v 0.020016 -0.017819 -0.005053
vn -0.290555 -0.881646 -0.371857
v -0.016845 -0.017819 -0.005053
vn -0.911034 0.077538 -0.404976
v -0.016845 -0.001749 -0.014352
vn 0.290857 -0.881151 0.372794
v 0.020016 -0.017801 0.052508
vn -0.589391 -0.801146 0.103849
v -0.016845 -0.017801 0.052508
vn 0.911033 0.078311 0.404828
v 0.020016 -0.001713 0.061775
vn -0.162661 -0.185521 0.969084
v -0.016845 -0.001713 0.061775
vn 0.196174 0.972528 0.125322
v 0.020016 0.014356 0.052477
vn -0.742173 0.617531 0.260450
v -0.016845 0.014356 0.052477
vn 0.742214 0.617207 -0.261102
v 0.020016 0.014338 -0.005084
vn -0.196344 0.972401 -0.126039
v -0.016845 0.014338 -0.005084
# 12 vertices, 0 vertices normals

f 3//3 4//4 1//1
f 1//1 2//2 3//3
f 6//6 3//3 2//2
f 2//2 5//5 6//6
f 8//8 6//6 5//5
f 5//5 7//7 8//8
f 10//10 8//8 7//7
f 7//7 9//9 10//10
f 12//12 10//10 9//9
f 9//9 11//11 12//12
f 4//4 12//12 11//11
f 11//11 1//1 4//4
f 7//7 2//2 11//11
f 11//11 9//9 7//7
f 7//7 5//5 2//2
f 1//1 11//11 2//2
f 10//10 4//4 6//6
f 6//6 8//8 10//10
f 10//10 12//12 4//4
f 3//3 6//6 4//4
# 20 faces, 0 coords texture

# End of File