####
#
# OBJ File Generated by Meshlab
#
####
# Object r_clav.obj
#
# Vertices: 138
# Faces: 250
#
####
vn -0.918250 -0.319490 0.233974
v -0.065004 -0.009899 0.000422
vn -0.570018 0.809681 0.139630
v -0.064933 0.006470 0.000331
vn -0.915884 0.326611 -0.233415
v -0.064933 0.006215 -0.045460
vn -0.572305 -0.807964 -0.140217
v -0.065004 -0.010154 -0.045369
vn 0.624135 0.004335 0.781304
v 0.050790 -0.009899 0.000422
vn 0.623648 -0.004360 -0.781693
v 0.050790 -0.010154 -0.045369
vn 0.422311 0.733356 -0.532768
v 0.050790 0.006286 -0.045460
vn 0.139746 0.975566 0.169534
v 0.050790 0.006540 0.000331
vn -0.231042 -0.204547 -0.951199
v -0.053425 -0.010154 -0.045369
vn -0.448342 -0.382123 0.808066
v -0.053425 -0.009899 0.000422
vn -0.001187 0.983406 -0.181417
v -0.053354 0.006215 -0.045460
vn -0.000977 0.816068 0.577955
v -0.053354 0.006470 0.000331
vn 0.177597 -0.916436 -0.358615
v -0.006535 -0.041890 -0.045192
vn 0.584539 -0.752474 0.303475
v -0.006535 -0.041635 0.000599
vn -0.177818 -0.912158 0.369253
v -0.053425 -0.041635 0.000599
vn -0.586558 -0.753832 -0.296119
v -0.053425 -0.041890 -0.045192
vn -0.000416 0.946324 -0.323219
v -0.006535 0.006286 -0.045460
vn 0.000000 -0.005575 -0.999984
v -0.006535 -0.010154 -0.045369
vn -0.000873 0.935518 0.353278
v -0.006535 0.006540 0.000331
vn 0.000000 0.005574 0.999985
v -0.006535 -0.009899 0.000422
vn 0.375846 -0.795892 0.474654
v 0.050790 -0.023337 0.000497
vn 0.116538 -0.983452 -0.138714
v 0.050790 -0.023592 -0.045294
vn 0.129340 -0.803525 0.581049
v -0.006464 -0.023408 0.000498
vn -0.571332 -0.005474 -0.820701
v -0.053354 -0.023663 -0.045293
vn -0.838281 0.004232 0.545223
v -0.053354 -0.023408 0.000498
vn 0.384744 -0.608477 -0.694066
v -0.006464 -0.023663 -0.045293
vn -0.842085 -0.523546 -0.129581
v -0.023234 0.004423 -0.033467
vn -0.909375 -0.042857 0.413763
v -0.023234 0.004553 -0.010021
vn -0.984716 0.014674 0.173548
v -0.021691 0.095725 -0.008975
vn -0.930287 0.020522 -0.366258
v -0.021691 0.095596 -0.032277
vn -0.150536 -0.291285 0.944718
v -0.013125 0.004611 0.000414
vn -0.402590 -0.004821 0.915368
v -0.011583 0.095785 0.001603
vn 0.338283 -0.068391 0.938556
v 0.014269 0.004611 0.000414
vn 0.127126 -0.014631 0.991779
v 0.015811 0.095856 0.001531
vn 0.860000 -0.496016 0.119866
v 0.023063 0.004566 -0.007735
vn 0.929613 -0.020382 0.367974
v 0.024606 0.095739 -0.006545
vn 0.944585 -0.061827 -0.322393
v 0.023063 0.004409 -0.035897
vn 0.992578 -0.015314 -0.120644
v 0.024606 0.095653 -0.034780
vn 0.131076 -0.316813 -0.939387
v 0.015078 0.004358 -0.045188
vn 0.379789 0.004904 -0.925060
v 0.016620 0.095602 -0.044071
vn -0.442017 -0.051407 -0.895533
v -0.014035 0.004358 -0.045188
vn -0.172231 0.015419 -0.984936
v -0.012492 0.095531 -0.043999
vn -0.776758 0.162598 -0.608448
v -0.020100 0.036102 -0.026236
vn -0.879854 -0.472902 -0.047127
v -0.020100 0.022665 -0.026161
vn -0.974134 -0.221892 0.042733
v -0.020100 0.022503 0.042844
vn -0.794737 0.414076 0.443773
v -0.020100 0.035940 0.042769
vn -0.133481 -0.956917 -0.257862
v -0.012114 0.014517 -0.026116
vn -0.315720 -0.794206 0.519190
v -0.012114 0.014355 0.042889
vn 0.351915 -0.933675 -0.066380
v 0.013056 0.014517 -0.026116
vn 0.131301 -0.990295 0.045568
v 0.013056 0.014355 0.042889
vn 0.789263 -0.176012 -0.588289
v 0.020941 0.022236 -0.026159
vn 0.803129 -0.425716 0.416834
v 0.020941 0.022073 0.042846
vn 0.891230 0.451289 -0.045243
v 0.020941 0.036388 -0.026238
vn 0.978835 0.200392 0.041524
v 0.020941 0.036226 0.042768
vn 0.114758 0.961777 -0.248627
v 0.013662 0.043679 -0.026277
vn 0.283433 0.801466 0.526609
v 0.013662 0.043517 0.042727
vn -0.343546 0.937023 -0.062960
v -0.012721 0.043608 -0.026349
vn -0.126014 0.990796 0.049435
v -0.012721 0.043446 0.042799
vn -0.270271 0.125630 -0.954552
v -0.053541 -0.056490 -0.084190
vn -0.271076 0.764343 -0.585062
v -0.053470 -0.029195 -0.073122
vn -0.155126 0.621195 -0.768149
v -0.007581 -0.029195 -0.073122
vn -0.155407 -0.102054 -0.982565
v -0.007510 -0.056490 -0.084190
vn -0.271196 0.954170 0.126540
v -0.053470 -0.017749 -0.045892
vn -0.155972 0.982384 -0.102929
v -0.007581 -0.017749 -0.045892
vn -0.270970 0.585825 0.763796
v -0.053470 -0.028892 -0.018638
vn -0.155652 0.766935 0.622561
v -0.007581 -0.028892 -0.018638
vn -0.271531 -0.126750 0.954047
v -0.053541 -0.056061 -0.007165
vn -0.154770 0.103268 0.982539
v -0.007510 -0.056061 -0.007165
vn -0.270964 -0.763953 0.585623
v -0.053470 -0.083357 -0.018335
vn -0.155904 -0.621770 0.767526
v -0.007581 -0.083357 -0.018335
vn -0.271124 -0.954213 -0.126367
v -0.053470 -0.094801 -0.045464
vn -0.155848 -0.982394 0.103019
v -0.007581 -0.094801 -0.045464
vn -0.270774 -0.585099 -0.764422
v -0.053470 -0.083660 -0.072819
vn -0.155378 -0.767459 -0.621984
v -0.007581 -0.083660 -0.072819
vn -0.124282 0.770664 -0.625005
v -0.001005 -0.023650 -0.078612
vn -0.125484 0.104144 -0.986614
v -0.000933 -0.056534 -0.092075
vn -0.124526 0.986809 0.103450
v -0.001005 -0.009887 -0.045936
vn -0.125374 0.624091 0.771228
v -0.001005 -0.023285 -0.013109
vn -0.124936 -0.103144 0.986789
v -0.000933 -0.056018 0.000618
vn -0.124603 -0.770272 0.625424
v -0.001005 -0.088902 -0.012744
vn -0.124669 -0.986788 -0.103472
v -0.001005 -0.102665 -0.045420
vn -0.124663 -0.625379 -0.770299
v -0.001005 -0.089266 -0.078246
vn 0.095871 0.597385 -0.796203
v 0.050960 -0.023721 -0.078611
vn 0.095723 -0.142504 -0.985155
v 0.050960 -0.056534 -0.092075
vn 0.096832 0.985145 -0.141821
v 0.050960 -0.009959 -0.045936
vn 0.097077 0.796569 0.596702
v 0.050960 -0.023357 -0.013109
vn 0.096310 0.141502 0.985242
v 0.050960 -0.056018 0.000618
vn 0.096805 -0.596034 0.797102
v 0.050960 -0.088830 -0.012744
vn 0.096995 -0.985128 0.141828
v 0.050960 -0.102593 -0.045420
vn 0.096258 -0.796988 -0.596275
v 0.050960 -0.089195 -0.078247
vn -0.843876 0.069964 -0.531957
v -0.053541 -0.056407 -0.069230
vn -0.842540 0.428994 -0.325714
v -0.053470 -0.039715 -0.062450
vn -0.844114 0.531551 0.070173
v -0.053470 -0.032760 -0.045809
vn -0.843809 0.327109 0.425424
v -0.053470 -0.039529 -0.029192
vn -0.845039 -0.069745 0.530137
v -0.053541 -0.056145 -0.022226
vn -0.843758 -0.426144 0.326302
v -0.053470 -0.072837 -0.029008
vn -0.843632 -0.532182 -0.071185
v -0.053470 -0.079792 -0.045547
vn -0.844190 -0.327401 -0.424443
v -0.053470 -0.073022 -0.062264
vn -0.977479 -0.031218 -0.208710
v -0.064978 -0.056407 -0.069230
vn -0.371259 0.557548 -0.742501
v -0.064978 -0.039786 -0.062449
vn -0.937499 0.344480 -0.049293
v -0.064978 -0.032831 -0.045808
vn -0.370675 0.743598 0.556473
v -0.064978 -0.039601 -0.029193
vn -0.977484 0.029144 0.208989
v -0.064978 -0.056145 -0.022226
vn -0.368893 -0.556734 0.744289
v -0.064978 -0.072766 -0.029007
vn -0.937725 -0.343863 0.049304
v -0.064906 -0.079792 -0.045547
vn -0.370670 -0.744608 -0.555123
v -0.064978 -0.072951 -0.062265
vn 0.115308 -0.595951 0.794699
v 0.050960 -0.027418 -0.074951
vn 0.115649 0.141171 0.983207
v 0.050960 -0.056505 -0.086819
vn 0.115983 -0.983072 0.141838
v 0.050888 -0.015177 -0.045907
vn 0.116740 -0.794162 -0.596387
v 0.050960 -0.027095 -0.016829
vn 0.116580 -0.141417 -0.983062
v 0.050960 -0.056047 -0.004638
vn 0.115625 0.594691 -0.795596
v 0.050960 -0.085134 -0.016505
vn 0.115353 0.983256 -0.141072
v 0.050888 -0.097375 -0.045449
vn 0.115092 0.795605 0.594783
v 0.050960 -0.085457 -0.074629
vn 0.894723 -0.354432 0.271752
v 0.004642 -0.027418 -0.074951
vn 0.169202 -0.129227 0.977073
v 0.004642 -0.056505 -0.086819
vn 0.169978 -0.976832 -0.130028
v 0.004713 -0.015177 -0.045907
vn 0.761232 -0.394300 -0.514833
v 0.004642 -0.027095 -0.016828
vn 0.169071 0.129489 -0.977061
v 0.004642 -0.056047 -0.004638
vn 0.894577 0.354892 -0.271633
v 0.004713 -0.085206 -0.016505
vn 0.168576 0.977090 0.129910
v 0.004713 -0.097375 -0.045449
vn 0.760584 0.395744 0.514684
v 0.004713 -0.085529 -0.074628
vn 0.627343 0.143336 -0.765438
v 0.006540 0.034266 -0.041015
vn 0.051409 -0.477419 -0.877170
v 0.006108 0.020835 -0.040970
vn -0.029916 -0.224515 -0.974011
v -0.062863 0.022503 -0.042300
vn -0.417290 0.422606 -0.804533
v -0.062432 0.035933 -0.042345
vn 0.234860 -0.963930 -0.125220
v 0.005694 0.012723 -0.032959
vn -0.533978 -0.781378 -0.322980
v -0.063279 0.014390 -0.034289
vn 0.034786 -0.933701 0.356360
v 0.005211 0.012822 -0.007793
vn -0.074386 -0.988213 0.133800
v -0.063762 0.014488 -0.009124
vn 0.568167 -0.188433 0.801049
v 0.005308 0.020568 0.000064
vn -0.443331 -0.411315 0.796416
v -0.063665 0.022235 -0.001266
vn 0.040107 0.453386 0.890411
v 0.005763 0.034713 0.000017
vn -0.054948 0.205257 0.977164
v -0.063210 0.036380 -0.001313
vn 0.271856 0.955294 0.116218
v 0.006137 0.041972 -0.007284
vn -0.510461 0.816247 0.270498
v -0.062836 0.043639 -0.008614
vn 0.094415 0.933670 -0.345465
v 0.006712 0.041794 -0.033660
vn -0.020648 0.991252 -0.130354
v -0.062404 0.043466 -0.034993
# 138 vertices, 0 vertices normals

f 1//1 2//2 3//3
f 3//3 4//4 1//1
f 5//5 6//6 7//7
f 7//7 8//8 5//5
f 4//4 9//9 10//10
f 10//10 1//1 4//4
f 3//3 11//11 9//9
f 9//9 4//4 3//3
f 2//2 12//12 11//11
f 11//11 3//3 2//2
f 1//1 10//10 12//12
f 12//12 2//2 1//1
f 13//13 14//14 15//15
f 15//15 16//16 13//13
f 17//17 18//18 9//9
f 9//9 11//11 17//17
f 19//19 17//17 11//11
f 11//11 12//12 19//19
f 20//20 19//19 12//12
f 12//12 10//10 20//20
f 6//6 5//5 21//21
f 21//21 22//22 6//6
f 20//20 23//23 21//21
f 21//21 5//5 20//20
f 10//10 9//9 24//24
f 24//24 25//25 10//10
f 18//18 26//26 24//24
f 24//24 9//9 18//18
f 22//22 21//21 23//23
f 23//23 26//26 22//22
f 7//7 6//6 18//18
f 18//18 17//17 7//7
f 8//8 7//7 17//17
f 17//17 19//19 8//8
f 5//5 8//8 19//19
f 19//19 20//20 5//5
f 10//10 25//25 23//23
f 23//23 20//20 10//10
f 6//6 22//22 26//26
f 26//26 18//18 6//6
f 25//25 24//24 16//16
f 16//16 15//15 25//25
f 24//24 26//26 13//13
f 13//13 16//16 24//24
f 26//26 23//23 14//14
f 14//14 13//13 26//26
f 23//23 25//25 15//15
f 15//15 14//14 23//23
f 27//27 28//28 29//29
f 29//29 30//30 27//27
f 28//28 31//31 32//32
f 32//32 29//29 28//28
f 31//31 33//33 34//34
f 34//34 32//32 31//31
f 33//33 35//35 36//36
f 36//36 34//34 33//33
f 35//35 37//37 38//38
f 38//38 36//36 35//35
f 37//37 39//39 40//40
f 40//40 38//38 37//37
f 39//39 41//41 42//42
f 42//42 40//40 39//39
f 41//41 27//27 30//30
f 30//30 42//42 41//41
f 43//43 44//44 45//45
f 45//45 46//46 43//43
f 44//44 47//47 48//48
f 48//48 45//45 44//44
f 47//47 49//49 50//50
f 50//50 48//48 47//47
f 49//49 51//51 52//52
f 52//52 50//50 49//49
f 51//51 53//53 54//54
f 54//54 52//52 51//51
f 53//53 55//55 56//56
f 56//56 54//54 53//53
f 55//55 57//57 58//58
f 58//58 56//56 55//55
f 57//57 43//43 46//46
f 46//46 58//58 57//57
f 27//27 41//41 39//39
f 39//39 35//35 27//27
f 39//39 37//37 35//35
f 35//35 33//33 31//31
f 31//31 27//27 35//35
f 28//28 27//27 31//31
f 43//43 57//57 55//55
f 55//55 51//51 43//43
f 55//55 53//53 51//51
f 51//51 49//49 47//47
f 47//47 43//43 51//51
f 44//44 43//43 47//47
f 46//46 45//45 48//48
f 48//48 56//56 46//46
f 48//48 50//50 52//52
f 52//52 56//56 48//48
f 52//52 54//54 56//56
f 46//46 56//56 58//58
f 59//59 60//60 61//61
f 61//61 62//62 59//59
f 60//60 63//63 64//64
f 64//64 61//61 60//60
f 63//63 65//65 66//66
f 66//66 64//64 63//63
f 65//65 67//67 68//68
f 68//68 66//66 65//65
f 67//67 69//69 70//70
f 70//70 68//68 67//67
f 69//69 71//71 72//72
f 72//72 70//70 69//69
f 71//71 73//73 74//74
f 74//74 72//72 71//71
f 73//73 59//59 62//62
f 62//62 74//74 73//73
f 62//62 61//61 75//75
f 75//75 76//76 62//62
f 61//61 64//64 77//77
f 77//77 75//75 61//61
f 64//64 66//66 78//78
f 78//78 77//77 64//64
f 66//66 68//68 79//79
f 79//79 78//78 66//66
f 68//68 70//70 80//80
f 80//80 79//79 68//68
f 70//70 72//72 81//81
f 81//81 80//80 70//70
f 72//72 74//74 82//82
f 82//82 81//81 72//72
f 74//74 62//62 76//76
f 76//76 82//82 74//74
f 76//76 75//75 83//83
f 83//83 84//84 76//76
f 75//75 77//77 85//85
f 85//85 83//83 75//75
f 77//77 78//78 86//86
f 86//86 85//85 77//77
f 78//78 79//79 87//87
f 87//87 86//86 78//78
f 79//79 80//80 88//88
f 88//88 87//87 79//79
f 80//80 81//81 89//89
f 89//89 88//88 80//80
f 81//81 82//82 90//90
f 90//90 89//89 81//81
f 82//82 76//76 84//84
f 84//84 90//90 82//82
f 59//59 91//91 92//92
f 92//92 60//60 59//59
f 60//60 92//92 93//93
f 93//93 63//63 60//60
f 63//63 93//93 94//94
f 94//94 65//65 63//63
f 65//65 94//94 95//95
f 95//95 67//67 65//65
f 67//67 95//95 96//96
f 96//96 69//69 67//67
f 69//69 96//96 97//97
f 97//97 71//71 69//69
f 71//71 97//97 98//98
f 98//98 73//73 71//71
f 73//73 98//98 91//91
f 91//91 59//59 73//73
f 91//91 99//99 100//100
f 100//100 92//92 91//91
f 92//92 100//100 101//101
f 101//101 93//93 92//92
f 93//93 101//101 102//102
f 102//102 94//94 93//93
f 94//94 102//102 103//103
f 103//103 95//95 94//94
f 95//95 103//103 104//104
f 104//104 96//96 95//95
f 96//96 104//104 105//105
f 105//105 97//97 96//96
f 97//97 105//105 106//106
f 106//106 98//98 97//97
f 98//98 106//106 99//99
f 99//99 91//91 98//98
f 99//99 106//106 105//105
f 105//105 103//103 99//99
f 105//105 104//104 103//103
f 103//103 102//102 101//101
f 101//101 99//99 103//103
f 100//100 99//99 101//101
f 83//83 107//107 108//108
f 108//108 84//84 83//83
f 85//85 109//109 107//107
f 107//107 83//83 85//85
f 86//86 110//110 109//109
f 109//109 85//85 86//86
f 87//87 111//111 110//110
f 110//110 86//86 87//87
f 88//88 112//112 111//111
f 111//111 87//87 88//88
f 89//89 113//113 112//112
f 112//112 88//88 89//89
f 90//90 114//114 113//113
f 113//113 89//89 90//90
f 84//84 108//108 114//114
f 114//114 90//90 84//84
f 107//107 115//115 116//116
f 116//116 108//108 107//107
f 109//109 117//117 115//115
f 115//115 107//107 109//109
f 110//110 118//118 117//117
f 117//117 109//109 110//110
f 111//111 119//119 118//118
f 118//118 110//110 111//111
f 112//112 120//120 119//119
f 119//119 111//111 112//112
f 113//113 121//121 120//120
f 120//120 112//112 113//113
f 114//114 122//122 121//121
f 121//121 113//113 114//114
f 108//108 116//116 122//122
f 122//122 114//114 108//108
f 115//115 117//117 118//118
f 118//118 120//120 115//115
f 118//118 119//119 120//120
f 120//120 121//121 122//122
f 122//122 115//115 120//120
f 116//116 115//115 122//122
f 123//123 124//124 125//125
f 125//125 126//126 123//123
f 124//124 127//127 128//128
f 128//128 125//125 124//124
f 127//127 129//129 130//130
f 130//130 128//128 127//127
f 129//129 131//131 132//132
f 132//132 130//130 129//129
f 131//131 133//133 134//134
f 134//134 132//132 131//131
f 133//133 135//135 136//136
f 136//136 134//134 133//133
f 135//135 137//137 138//138
f 138//138 136//136 135//135
f 137//137 123//123 126//126
f 126//126 138//138 137//137
f 123//123 137//137 135//135
f 135//135 131//131 123//123
f 135//135 133//133 131//131
f 131//131 129//129 127//127
f 127//127 123//123 131//131
f 124//124 123//123 127//127
f 126//126 125//125 128//128
f 128//128 136//136 126//126
f 128//128 130//130 132//132
f 132//132 136//136 128//128
f 132//132 134//134 136//136
f 126//126 136//136 138//138
# 250 faces, 0 coords texture

# End of File