####
#
# OBJ File Generated by Meshlab
#
####
# Object r_hand_chull.obj
#
# Vertices: 12
# Faces: 20
#
####
vn -0.751293 -0.481306 -0.451556
v -0.068628 -0.090550 -0.020126
vn -0.952776 -0.134644 0.272191
v -0.068638 -0.090110 0.040180
vn 0.191185 0.244588 -0.950592
v 0.060902 0.009998 -0.029130
vn 0.203854 0.345866 0.915871
v 0.060885 0.016378 0.024911
vn 0.674890 0.736839 0.039902
v 0.064197 0.028737 -0.000303
vn -0.720586 0.628957 -0.291836
v -0.068585 0.033622 -0.016848
vn 0.125983 -0.717340 -0.685239
v 0.020807 -0.130919 -0.018169
vn -0.091397 -0.501847 0.860114
v -0.028871 -0.124238 0.044079
vn -0.040753 -0.029885 -0.998722
v -0.068969 -0.005986 -0.036020
vn 0.435838 -0.137774 0.889417
v 0.066942 -0.083100 0.041320
vn 0.519260 -0.171720 -0.837187
v 0.066139 -0.085314 -0.020355
vn -0.117455 0.347497 0.930296
v -0.069280 0.020490 0.032521
# 12 vertices, 0 vertices normals

f 7//7 11//11 10//10
f 9//9 6//6 3//3
f 11//11 9//9 3//3
f 11//11 7//7 9//9
f 1//1 8//8 2//2
f 6//6 9//9 1//1
f 1//1 2//2 6//6
f 5//5 11//11 3//3
f 12//12 6//6 2//2
f 8//8 7//7 10//10
f 7//7 1//1 9//9
f 1//1 7//7 8//8
f 2//2 8//8 12//12
f 10//10 4//4 12//12
f 10//10 12//12 8//8
f 10//10 5//5 4//4
f 6//6 5//5 3//3
f 12//12 5//5 6//6
f 5//5 12//12 4//4
f 11//11 5//5 10//10
# 20 faces, 0 coords texture

# End of File