# Blender v2.82 (sub 7) OBJ File: 'base_01.blend'
# www.blender.org
mtllib base_coll_07.mtl
o base_coll_07_Vert
v 0.000000 0.000000 0.024303
v 0.000000 -0.216997 0.024303
v 0.000000 -0.216997 0.154473
v 0.000000 0.000000 0.154473
v 0.000000 0.000000 0.024303
v 0.061135 -0.208207 0.024303
v 0.061135 -0.208207 0.154473
v 0.000000 0.000000 0.154473
v 0.000000 0.000000 0.024303
v 0.117317 -0.182549 0.024303
v 0.117317 -0.182549 0.154473
v 0.000000 0.000000 0.154473
v 0.000000 0.000000 0.024303
v 0.163995 -0.142103 0.024303
v 0.163995 -0.142103 0.154473
v 0.000000 0.000000 0.154473
v 0.000000 0.000000 0.024303
v 0.197387 -0.090144 0.024303
v 0.197387 -0.090144 0.154473
v 0.000000 0.000000 0.154473
v 0.000000 0.000000 0.024303
v 0.214788 -0.030882 0.024303
v 0.214788 -0.030882 0.154473
v 0.000000 0.000000 0.154473
v 0.000000 0.000000 0.024303
v 0.214788 0.030882 0.024303
v 0.214788 0.030882 0.154473
v 0.000000 0.000000 0.154473
v 0.000000 0.000000 0.024303
v 0.197387 0.090144 0.024303
v 0.197387 0.090144 0.154473
v 0.000000 0.000000 0.154473
v 0.000000 0.000000 0.024303
v 0.163995 0.142103 0.024303
v 0.163995 0.142103 0.154473
v 0.000000 0.000000 0.154473
v 0.000000 0.000000 0.024303
v 0.117317 0.182550 0.024303
v 0.117317 0.182550 0.154473
v 0.000000 0.000000 0.154473
v 0.000000 0.000000 0.024303
v 0.061135 0.208207 0.024303
v 0.061135 0.208207 0.154473
v 0.000000 0.000000 0.154473
v 0.000000 0.000000 0.024303
v -0.000000 0.216997 0.024303
v -0.000000 0.216997 0.154473
v 0.000000 0.000000 0.154473
v 0.000000 0.000000 0.024303
v -0.061135 0.208207 0.024303
v -0.061135 0.208207 0.154473
v 0.000000 0.000000 0.154473
v 0.000000 0.000000 0.024303
v -0.117317 0.182549 0.024303
v -0.117317 0.182549 0.154473
v 0.000000 0.000000 0.154473
v 0.000000 0.000000 0.024303
v -0.163995 0.142103 0.024303
v -0.163995 0.142103 0.154473
v 0.000000 0.000000 0.154473
v 0.000000 0.000000 0.024303
v -0.197387 0.090144 0.024303
v -0.197387 0.090144 0.154473
v 0.000000 0.000000 0.154473
v 0.000000 0.000000 0.024303
v -0.214788 0.030882 0.024303
v -0.214788 0.030882 0.154473
v 0.000000 0.000000 0.154473
v 0.000000 0.000000 0.024303
v -0.214788 -0.030882 0.024303
v -0.214788 -0.030882 0.154473
v 0.000000 0.000000 0.154473
v 0.000000 0.000000 0.024303
v -0.197387 -0.090144 0.024303
v -0.197387 -0.090144 0.154473
v 0.000000 0.000000 0.154473
v 0.000000 0.000000 0.024303
v -0.163995 -0.142103 0.024303
v -0.163995 -0.142103 0.154473
v 0.000000 0.000000 0.154473
v 0.000000 0.000000 0.024303
v -0.117317 -0.182550 0.024303
v -0.117317 -0.182550 0.154473
v 0.000000 0.000000 0.154473
v 0.000000 0.000000 0.024303
v -0.061135 -0.208207 0.024303
v -0.061135 -0.208207 0.154473
v 0.000000 0.000000 0.154473
vn 0.0000 0.7365 0.6764
vn 0.0000 0.0000 1.0000
vn -0.2075 0.7067 0.6764
vn -0.5566 0.4823 0.6764
vn -0.7289 0.1048 0.6765
vn -0.7290 -0.1048 0.6764
vn -0.5566 -0.4823 0.6764
vn -0.3982 -0.6196 0.6764
vn 0.0000 -0.7365 0.6764
vn 0.2075 -0.7067 0.6764
vn 0.3982 -0.6196 0.6764
vn 0.6699 -0.3059 0.6764
vn 0.7290 -0.1048 0.6764
vn 0.7290 0.1048 0.6764
vn 0.6699 0.3059 0.6764
vn 0.3982 0.6196 0.6764
vn 0.2075 0.7067 0.6764
vn 0.0000 0.7365 -0.6764
vn -0.2075 0.7067 -0.6764
vn -0.3982 0.6196 0.6764
vn -0.3982 0.6196 -0.6764
vn -0.5566 0.4823 -0.6764
vn -0.6699 0.3059 0.6764
vn -0.6699 0.3059 -0.6764
vn -0.7291 0.1048 -0.6763
vn -0.7290 -0.1048 -0.6764
vn -0.6699 -0.3059 0.6764
vn -0.6699 -0.3059 -0.6764
vn -0.5566 -0.4823 -0.6764
vn -0.3982 -0.6196 -0.6764
vn -0.2075 -0.7067 0.6764
vn -0.2075 -0.7067 -0.6764
vn 0.0000 -0.7365 -0.6764
vn 0.2075 -0.7067 -0.6764
vn 0.3982 -0.6196 -0.6764
vn 0.5566 -0.4823 0.6764
vn 0.5566 -0.4823 -0.6764
vn 0.6699 -0.3059 -0.6764
vn 0.7290 -0.1048 -0.6764
vn 0.7290 0.1048 -0.6764
vn 0.6699 0.3059 -0.6764
vn 0.5566 0.4823 0.6764
vn 0.5566 0.4823 -0.6764
vn 0.3982 0.6196 -0.6764
vn 0.2075 0.7067 -0.6764
usemtl None
s 1
f 2//1 5//2 1//2
f 6//3 9//2 5//2
f 9//2 14//4 13//2
f 14//4 17//2 13//2
f 17//2 22//5 21//2
f 22//5 25//2 21//2
f 26//6 29//2 25//2
f 29//2 34//7 33//2
f 34//7 37//2 33//2
f 38//8 41//2 37//2
f 41//2 46//9 45//2
f 46//9 49//2 45//2
f 50//10 53//2 49//2
f 54//11 57//2 53//2
f 57//2 62//12 61//2
f 62//12 65//2 61//2
f 66//13 69//2 65//2
f 70//14 73//2 69//2
f 74//15 77//2 73//2
f 77//2 82//16 81//2
f 82//16 85//2 81//2
f 86//17 1//2 85//2
f 3//18 6//3 2//1
f 7//19 10//20 6//3
f 11//21 14//4 10//20
f 15//22 18//23 14//4
f 19//24 22//5 18//23
f 23//25 26//6 22//5
f 27//26 30//27 26//6
f 31//28 34//7 30//27
f 35//29 38//8 34//7
f 39//30 42//31 38//8
f 43//32 46//9 42//31
f 47//33 50//10 46//9
f 51//34 54//11 50//10
f 55//35 58//36 54//11
f 59//37 62//12 58//36
f 63//38 66//13 62//12
f 67//39 70//14 66//13
f 71//40 74//15 70//14
f 75//41 78//42 74//15
f 79//43 82//16 78//42
f 83//44 86//17 82//16
f 87//45 2//1 86//17
f 3//18 8//2 7//19
f 8//2 11//21 7//19
f 12//2 15//22 11//21
f 15//22 20//2 19//24
f 20//2 23//25 19//24
f 23//25 28//2 27//26
f 27//26 32//2 31//28
f 32//2 35//29 31//28
f 36//2 39//30 35//29
f 40//2 43//32 39//30
f 44//2 47//33 43//32
f 47//33 52//2 51//34
f 52//2 55//35 51//34
f 56//2 59//37 55//35
f 60//2 63//38 59//37
f 64//2 67//39 63//38
f 68//2 71//40 67//39
f 71//40 76//2 75//41
f 76//2 79//43 75//41
f 80//2 83//44 79//43
f 84//2 87//45 83//44
f 88//2 3//18 87//45
f 2//1 6//3 5//2
f 6//3 10//20 9//2
f 9//2 10//20 14//4
f 14//4 18//23 17//2
f 17//2 18//23 22//5
f 22//5 26//6 25//2
f 26//6 30//27 29//2
f 29//2 30//27 34//7
f 34//7 38//8 37//2
f 38//8 42//31 41//2
f 41//2 42//31 46//9
f 46//9 50//10 49//2
f 50//10 54//11 53//2
f 54//11 58//36 57//2
f 57//2 58//36 62//12
f 62//12 66//13 65//2
f 66//13 70//14 69//2
f 70//14 74//15 73//2
f 74//15 78//42 77//2
f 77//2 78//42 82//16
f 82//16 86//17 85//2
f 86//17 2//1 1//2
f 3//18 7//19 6//3
f 7//19 11//21 10//20
f 11//21 15//22 14//4
f 15//22 19//24 18//23
f 19//24 23//25 22//5
f 23//25 27//26 26//6
f 27//26 31//28 30//27
f 31//28 35//29 34//7
f 35//29 39//30 38//8
f 39//30 43//32 42//31
f 43//32 47//33 46//9
f 47//33 51//34 50//10
f 51//34 55//35 54//11
f 55//35 59//37 58//36
f 59//37 63//38 62//12
f 63//38 67//39 66//13
f 67//39 71//40 70//14
f 71//40 75//41 74//15
f 75//41 79//43 78//42
f 79//43 83//44 82//16
f 83//44 87//45 86//17
f 87//45 3//18 2//1
f 3//18 4//2 8//2
f 8//2 12//2 11//21
f 12//2 16//2 15//22
f 15//22 16//2 20//2
f 20//2 24//2 23//25
f 23//25 24//2 28//2
f 27//26 28//2 32//2
f 32//2 36//2 35//29
f 36//2 40//2 39//30
f 40//2 44//2 43//32
f 44//2 48//2 47//33
f 47//33 48//2 52//2
f 52//2 56//2 55//35
f 56//2 60//2 59//37
f 60//2 64//2 63//38
f 64//2 68//2 67//39
f 68//2 72//2 71//40
f 71//40 72//2 76//2
f 76//2 80//2 79//43
f 80//2 84//2 83//44
f 84//2 88//2 87//45
f 88//2 4//2 3//18
