# generated by collision_forge
v -0.011719 0.000268 0.061310
v -0.011415 -0.015136 0.059435
v -0.011719 0.000268 0.062374
v -0.011719 0.020712 0.056992
v 0.010143 -0.017646 0.058924
v 0.009312 -0.017646 0.058956
v -0.002623 -0.017646 0.061964
v -0.011415 -0.015136 0.060444
v -0.011719 0.001049 0.062379
v -0.011415 -0.014464 0.060704
v -0.011415 -0.013853 0.060913
v -0.011415 -0.013550 0.061001
v -0.011415 -0.010797 0.061614
v -0.011415 -0.008640 0.061937
v -0.011415 -0.004836 0.062315
v -0.008412 -0.013104 0.064022
v -0.008480 -0.008640 0.064174
v -0.011719 0.022727 0.056992
v -0.000036 0.022169 0.057058
v 0.011466 0.020153 0.057221
v 0.011466 0.000272 0.061335
v 0.010143 -0.017646 0.059755
v -0.002623 -0.017646 0.062747
v -0.008499 -0.015136 0.062637
v -0.008331 -0.013558 0.063997
v -0.008546 0.003284 0.064141
v -0.007820 -0.013104 0.064156
v -0.007820 -0.008640 0.064449
v -0.009765 0.023703 0.056992
v -0.000036 0.022169 0.058012
v 0.011466 0.020153 0.058429
v 0.011466 0.000272 0.062406
v 0.010143 -0.016593 0.060230
v 0.004029 -0.017646 0.062747
v 0.001115 -0.013614 0.064082
v -0.007820 -0.013586 0.064047
v -0.007818 0.007748 0.064353
v -0.008494 0.007748 0.064117
v -0.011719 0.001952 0.062373
v -0.002623 -0.013104 0.064186
v -0.004838 -0.008640 0.064457
v -0.006327 0.007748 0.064373
v -0.001116 0.022169 0.058027
v 0.009310 0.020153 0.059006
v 0.010054 0.020153 0.058938
v 0.010799 0.020153 0.058757
v 0.010885 0.020153 0.058729
v 0.008493 -0.008640 0.064177
v 0.008402 -0.013104 0.064009
v 0.008783 -0.013117 0.063504
v 0.010143 -0.014363 0.060972
v 0.008761 -0.017646 0.062152
v 0.008348 -0.013558 0.063991
v 0.007755 -0.017646 0.062736
v -0.001860 -0.013104 0.064188
v -0.008458 0.008497 0.064075
v -0.011719 0.005514 0.062244
v -0.011719 0.004769 0.062307
v -0.004096 -0.008640 0.064458
v -0.000034 0.007752 0.064379
v -0.003351 0.008497 0.064275
v -0.010854 0.023395 0.056992
v -0.011263 0.021598 0.057971
v -0.002859 0.022169 0.058027
v 0.000373 0.015045 0.061832
v 0.003353 0.015041 0.061828
v 0.007077 0.015033 0.061818
v 0.008550 0.003280 0.064141
v 0.007821 -0.008640 0.064443
v 0.007821 -0.013104 0.064132
v 0.001859 -0.008640 0.064459
v -0.007818 0.009205 0.064030
v -0.008342 0.009088 0.063980
v -0.011719 0.013131 0.061030
v -0.011719 0.009007 0.061873
v 0.003353 0.007752 0.064377
v -0.002605 0.009237 0.064053
v -0.009765 0.022209 0.057966
v -0.007818 0.022169 0.058023
v -0.001860 0.015045 0.061832
v 0.007821 0.013519 0.062468
v 0.008352 0.013455 0.062446
v 0.008847 0.013220 0.062358
v 0.008497 0.007752 0.064120
v 0.007821 0.007752 0.064356
v 0.006330 0.007752 0.064370
v 0.004841 0.007752 0.064375
v -0.007073 0.013503 0.062462
v -0.008301 0.013439 0.062439
v -0.011719 0.016086 0.060168
v -0.010800 0.020291 0.058801
v -0.011206 0.018579 0.059435
v -0.003351 0.015041 0.061831
v 0.007821 0.009185 0.064025
v 0.008357 0.009075 0.063976
v 0.008475 0.008493 0.064073
v 0.011466 0.004028 0.062315
v -0.007818 0.015013 0.061811
v -0.006329 0.015033 0.061826
v 0.011466 0.015470 0.060285
v 0.011466 0.009254 0.061770
v 0.011466 0.012961 0.060993
f 20 5 4
f 2 4 5
f 1 4 2
f 21 5 20
f 6 2 5
f 50 51 32
f 24 23 25
f 25 23 36
f 8 23 24
f 24 25 8
f 2 6 7
f 20 4 19
f 33 22 32
f 32 51 33
f 22 33 52
f 51 50 52
f 52 33 51
f 27 25 36
f 35 34 54
f 23 34 35
f 36 23 35
f 17 28 26
f 28 37 26
f 29 19 4
f 29 30 19
f 43 30 29
f 79 29 78
f 98 79 78
f 49 50 32
f 32 48 49
f 49 48 69
f 68 85 69
f 69 48 68
f 68 48 32
f 53 35 54
f 70 35 53
f 54 52 53
f 69 70 53
f 53 49 69
f 53 52 50
f 50 49 53
f 40 27 36
f 36 35 40
f 40 41 28
f 28 27 40
f 30 47 31
f 43 67 44
f 44 30 43
f 84 68 32
f 85 68 84
f 39 26 38
f 38 37 56
f 38 26 37
f 9 26 39
f 17 26 9
f 9 3 17
f 56 74 75
f 86 94 61
f 85 94 86
f 69 85 86
f 61 37 42
f 42 60 61
f 42 37 28
f 28 41 42
f 71 60 59
f 59 42 41
f 60 42 59
f 43 29 64
f 29 79 64
f 73 74 56
f 56 37 73
f 55 35 70
f 55 40 35
f 55 70 69
f 55 69 71
f 71 59 55
f 41 40 55
f 55 59 41
f 30 44 45
f 45 44 67
f 61 94 77
f 94 81 77
f 80 64 79
f 97 84 32
f 100 31 47
f 47 83 100
f 3 14 15
f 57 38 56
f 56 75 57
f 78 29 62
f 61 60 76
f 76 60 71
f 46 47 30
f 30 45 46
f 82 81 94
f 67 81 82
f 82 45 67
f 82 46 45
f 82 83 47
f 47 46 82
f 61 77 72
f 72 37 61
f 72 73 37
f 66 81 67
f 66 67 43
f 79 98 99
f 95 100 83
f 95 94 85
f 95 82 94
f 83 82 95
f 10 3 8
f 10 8 25
f 13 14 3
f 3 12 13
f 39 38 58
f 38 57 58
f 91 98 78
f 74 73 90
f 73 72 89
f 98 91 89
f 89 91 92
f 89 90 73
f 92 90 89
f 87 86 61
f 61 76 87
f 87 76 71
f 71 69 87
f 69 86 87
f 65 80 81
f 81 66 65
f 65 66 43
f 93 80 79
f 79 99 93
f 102 100 96
f 100 95 96
f 96 101 102
f 96 97 101
f 84 97 96
f 85 84 96
f 96 95 85
f 11 12 3
f 3 10 11
f 25 12 11
f 11 10 25
f 16 12 25
f 16 13 12
f 14 13 16
f 16 15 14
f 16 28 17
f 17 3 16
f 3 15 16
f 16 27 28
f 25 27 16
f 63 62 18
f 92 91 63
f 78 62 63
f 63 91 78
f 18 90 63
f 63 90 92
f 88 93 99
f 81 80 88
f 80 93 88
f 88 77 81
f 88 99 98
f 98 89 88
f 88 72 77
f 88 89 72
f 22 21 32
f 5 21 22
f 7 8 2
f 23 8 7
f 52 6 5
f 5 22 52
f 54 34 52
f 52 7 6
f 52 34 23
f 23 7 52
f 2 8 3
f 1 2 3
f 20 19 31
f 19 30 31
f 32 21 100
f 100 21 20
f 20 31 100
f 102 101 100
f 100 97 32
f 101 97 100
f 4 18 62
f 62 29 4
f 1 3 90
f 90 4 1
f 90 18 4
f 90 9 39
f 3 9 90
f 90 75 74
f 39 58 90
f 90 57 75
f 90 58 57
f 64 80 65
f 43 64 65
