# generated by collision_forge
v -0.011416 -0.010304 0.061708
v -0.014650 -0.006830 0.028931
v -0.012594 -0.013113 0.004090
v -0.011938 -0.007690 0.045628
v -0.013411 -0.026926 0.005780
v -0.011975 -0.007892 0.017333
v -0.011415 -0.036423 0.004633
v -0.018062 -0.006830 0.052031
v -0.012335 -0.007386 0.037438
v -0.013419 -0.026177 0.048250
v -0.011416 -0.017515 0.059600
v -0.012103 -0.010304 0.010799
v -0.011940 -0.007898 0.052031
v -0.013422 -0.034380 0.019272
v -0.013425 -0.029914 0.038026
v -0.016177 -0.006830 0.043384
v -0.011415 -0.026279 0.052512
v -0.012813 -0.019786 0.056824
v -0.013413 -0.030695 0.006481
v -0.012900 -0.017582 0.004017
v -0.011415 -0.036701 0.018079
v -0.012300 -0.007354 0.048612
v -0.013103 -0.033967 0.004661
v -0.013418 -0.029150 0.040863
v -0.013421 -0.010304 0.004266
v -0.015937 -0.006830 0.031486
v -0.011415 -0.028524 0.048934
v -0.012753 -0.007892 0.014750
v -0.015245 -0.006830 0.026405
v -0.011415 -0.036657 0.008442
v -0.018047 -0.006830 0.049680
v -0.012999 -0.022051 0.054569
v -0.011416 -0.015779 0.060272
v -0.012331 -0.007380 0.038930
v -0.011550 -0.031477 0.041100
v -0.012623 -0.010304 0.060860
v -0.013428 -0.026952 0.046939
v -0.013415 -0.011624 0.004277
v -0.013416 -0.033645 0.011557
v -0.013040 -0.007205 0.052031
v -0.011415 -0.022908 0.056542
v -0.012677 -0.029144 0.045294
v -0.018141 -0.007152 0.050844
v -0.013408 -0.034336 0.014750
v -0.012671 -0.012765 0.060165
v -0.012996 -0.030245 0.040411
v -0.015675 -0.006830 0.029383
v -0.012699 -0.023250 0.054292
v -0.011415 -0.036557 0.019430
v -0.011415 -0.035571 0.004068
v -0.011416 -0.010304 0.060724
v -0.018000 -0.007720 0.051591
v -0.012488 -0.033967 0.003966
v -0.013425 -0.034389 0.016587
v -0.017226 -0.006830 0.052031
v -0.012636 -0.010304 0.004186
v -0.011415 -0.031336 0.041852
v -0.014470 -0.006830 0.026405
v -0.011935 -0.007717 0.046374
v -0.012857 -0.035413 0.009143
v -0.012987 -0.034714 0.004661
v -0.012016 -0.007892 0.014750
v -0.011968 -0.007892 0.018068
v -0.011809 -0.036510 0.018825
v -0.011415 -0.023414 0.056084
v -0.012312 -0.007348 0.052031
v -0.011415 -0.030649 0.044135
v -0.013287 -0.034769 0.018825
v -0.013106 -0.027263 0.047860
v -0.013418 -0.010880 0.004266
v -0.012060 -0.035943 0.004096
v -0.018133 -0.007152 0.051591
v -0.013412 -0.012174 0.004288
v -0.012000 -0.029194 0.046899
v -0.011415 -0.025595 0.053540
v -0.018087 -0.007152 0.050104
v -0.011415 -0.036209 0.004147
v -0.011896 -0.010304 0.061499
v -0.012174 -0.036042 0.005407
v -0.011917 -0.021676 0.057180
v -0.011982 -0.030663 0.043163
v -0.012677 -0.020968 0.056451
v -0.013415 -0.034356 0.015253
v -0.012819 -0.034714 0.004023
v -0.011883 -0.036545 0.014355
v -0.012697 -0.030654 0.040931
v -0.012718 -0.027708 0.048335
v -0.012000 -0.031421 0.040411
v -0.011968 -0.022498 0.056491
v -0.012708 -0.035875 0.018079
v -0.012687 -0.035852 0.019261
v -0.011952 -0.012844 0.060933
v -0.011952 -0.015059 0.060193
v -0.013417 -0.030245 0.006402
v -0.011416 -0.013558 0.060990
v -0.013392 -0.026868 0.047436
v -0.012685 -0.035852 0.012122
v -0.017966 -0.007664 0.052031
v -0.012300 -0.010304 0.061165
v -0.012712 -0.022536 0.055055
v -0.011935 -0.024676 0.054219
v -0.012674 -0.016493 0.058678
f 1 51 4
f 41 51 1
f 58 9 62
f 25 29 28
f 62 56 28
f 28 56 25
f 51 41 50
f 40 58 2
f 66 58 40
f 1 66 40
f 40 55 1
f 13 66 1
f 63 9 4
f 63 4 51
f 43 23 39
f 25 31 26
f 76 23 43
f 43 31 76
f 22 58 66
f 66 4 22
f 12 56 62
f 62 50 12
f 12 50 56
f 16 40 2
f 55 40 16
f 59 4 66
f 66 13 59
f 1 4 59
f 59 13 1
f 62 9 6
f 9 63 6
f 6 50 62
f 51 50 6
f 6 63 51
f 43 14 72
f 14 52 72
f 15 52 14
f 24 52 15
f 24 96 37
f 37 52 24
f 71 77 7
f 50 77 71
f 61 39 23
f 95 41 1
f 1 92 95
f 87 101 48
f 32 10 48
f 87 48 69
f 69 10 96
f 69 48 10
f 42 69 96
f 87 69 42
f 47 29 25
f 25 26 47
f 9 58 34
f 58 22 34
f 4 9 34
f 34 22 4
f 56 50 3
f 50 20 3
f 25 56 3
f 3 20 25
f 23 5 73
f 73 5 76
f 73 76 31
f 1 55 8
f 8 31 43
f 43 72 8
f 24 15 46
f 86 42 46
f 46 91 86
f 46 96 24
f 46 42 96
f 46 15 14
f 53 20 50
f 50 71 53
f 83 61 60
f 33 11 41
f 41 95 33
f 33 95 92
f 80 102 82
f 82 89 80
f 41 11 80
f 80 89 41
f 11 33 93
f 93 33 92
f 93 80 11
f 102 80 93
f 93 92 45
f 45 102 93
f 101 75 65
f 41 89 65
f 65 89 101
f 87 27 17
f 17 101 87
f 17 75 101
f 32 48 100
f 100 89 82
f 101 89 100
f 100 48 101
f 74 27 87
f 87 42 74
f 23 76 19
f 45 92 36
f 98 102 45
f 45 36 98
f 98 36 8
f 98 100 82
f 98 72 52
f 98 8 72
f 32 100 98
f 98 10 32
f 96 10 98
f 98 37 96
f 52 37 98
f 68 46 14
f 91 46 68
f 60 97 68
f 71 61 84
f 84 53 71
f 84 61 23
f 23 73 84
f 20 53 84
f 85 30 21
f 49 64 21
f 21 64 85
f 7 30 79
f 79 71 7
f 79 97 60
f 79 30 85
f 85 97 79
f 60 61 79
f 79 61 71
f 90 97 85
f 85 64 90
f 90 64 91
f 91 68 90
f 90 68 97
f 39 61 44
f 61 83 44
f 43 39 44
f 44 83 43
f 54 14 43
f 43 83 54
f 54 68 14
f 54 83 60
f 60 68 54
f 49 57 35
f 35 64 49
f 27 74 67
f 76 5 94
f 94 19 76
f 94 5 23
f 23 19 94
f 78 92 1
f 1 8 78
f 82 102 18
f 18 98 82
f 102 98 18
f 70 31 25
f 25 20 70
f 20 84 70
f 81 67 74
f 81 42 86
f 81 74 42
f 57 67 81
f 81 35 57
f 99 36 92
f 92 78 99
f 8 36 99
f 99 78 8
f 38 84 73
f 38 70 84
f 38 73 31
f 31 70 38
f 86 91 88
f 88 81 86
f 35 81 88
f 91 64 88
f 64 35 88
f 29 58 28
f 28 58 62
f 8 16 2
f 2 58 8
f 29 47 8
f 8 58 29
f 8 26 31
f 55 16 8
f 8 47 26
f 7 77 67
f 49 21 67
f 41 65 67
f 67 50 41
f 67 77 50
f 67 30 7
f 67 57 49
f 67 17 27
f 67 65 75
f 75 17 67
f 67 21 30
