# generated by collision_forge
v -0.011719 0.034771 0.029320
v -0.011719 0.036719 0.019560
v -0.012276 0.036645 0.018816
v -0.012649 0.036415 0.018816
v -0.011719 0.033825 0.026825
v -0.011798 0.014449 0.029320
v -0.012978 0.036041 0.018816
v -0.012552 0.034051 0.029320
v -0.011719 0.035155 0.004663
v -0.013350 0.035496 0.018816
v -0.012814 0.033673 0.029320
v -0.011719 0.035408 0.004023
v -0.011892 -0.003418 0.015844
v -0.013450 0.035127 0.018816
v -0.013419 0.032011 0.029320
v -0.013304 0.032385 0.029320
v -0.011920 -0.003155 0.010137
v -0.011940 -0.002675 0.009656
v -0.012637 -0.010300 0.004187
v -0.011805 0.012893 0.029320
v -0.012574 0.036359 0.015095
v -0.011719 0.036659 0.011608
v -0.013413 0.034951 0.013915
v -0.013429 0.035016 0.015095
v -0.013447 0.035095 0.016586
v -0.013455 0.035131 0.017325
v -0.017907 0.004534 0.016154
v -0.017907 0.004534 0.016276
v -0.013451 0.031587 0.029320
v -0.017944 0.004027 0.016340
v -0.012076 -0.009377 0.010621
v -0.013038 -0.010300 0.004154
v -0.011970 -0.007882 0.018074
v -0.013298 0.035348 0.014349
v -0.013038 0.034568 0.004663
v -0.013411 0.034199 0.010983
v -0.013111 0.033825 0.004663
v -0.015264 0.009699 0.028216
v -0.017979 0.003283 0.016383
v -0.012886 0.033825 0.003981
v -0.011719 0.036188 0.005367
v -0.012042 -0.010300 0.013602
v -0.013442 -0.007886 0.004197
v -0.013448 -0.007143 0.004182
v -0.013453 -0.006400 0.004167
v -0.013458 -0.005652 0.004157
v -0.013462 -0.004909 0.004147
v -0.013464 -0.004162 0.004140
v -0.013469 -0.001932 0.004127
v -0.013599 -0.009391 0.026391
v -0.012028 -0.010300 0.014746
v -0.011889 0.010982 0.029320
v -0.011980 0.036465 0.009879
v -0.012816 0.035191 0.004663
v -0.017979 0.003283 0.015966
v -0.017939 0.001045 0.015410
v -0.015282 0.009238 0.028216
v -0.015292 0.008956 0.028216
v -0.018073 0.000306 0.015844
v -0.017991 0.002536 0.016393
v -0.015302 0.008490 0.028216
v -0.017956 0.000306 0.015393
v -0.013471 0.000274 0.004120
v -0.013472 0.001797 0.004117
v -0.013471 0.004770 0.004122
v -0.013470 0.005513 0.004125
v -0.013468 0.006261 0.004130
v -0.013411 0.017841 0.004293
v -0.012660 0.035681 0.006580
v -0.013421 -0.010300 0.004261
v -0.017952 -0.000437 0.015398
v -0.014696 0.000274 0.028216
v -0.015373 0.000274 0.028216
v -0.014529 -0.009294 0.026391
v -0.012138 0.010609 0.029320
v -0.013599 -0.009719 0.024620
v -0.013599 -0.010217 0.021304
v -0.013599 -0.010296 0.020592
v -0.017995 -0.001180 0.016390
v -0.015320 0.006718 0.028216
v -0.015307 0.008208 0.028216
v -0.013457 -0.010300 0.004663
v -0.015899 -0.009322 0.018074
v -0.016509 -0.008473 0.017328
v -0.017198 -0.006991 0.016717
v -0.017897 -0.004609 0.016179
v -0.017965 -0.003418 0.015981
v -0.017913 -0.001923 0.015438
v -0.013566 0.010216 0.029320
v -0.013566 0.011213 0.029320
v -0.013533 0.027940 0.029320
v -0.017965 -0.003418 0.016365
v -0.015231 -0.007891 0.026391
v -0.015140 -0.008634 0.026391
v -0.015016 -0.009008 0.026391
v -0.014978 -0.009086 0.026391
v -0.015165 -0.009922 0.018813
v -0.014531 -0.010139 0.018813
v -0.013592 -0.010300 0.008391
v -0.013523 0.029353 0.029320
v -0.017198 -0.006991 0.017062
v -0.017897 -0.004609 0.016251
f 32 12 19
f 40 12 32
f 50 33 52
f 51 33 50
f 20 52 33
f 40 68 62
f 40 32 49
f 49 32 48
f 48 62 49
f 28 15 14
f 85 70 84
f 85 86 70
f 84 70 83
f 50 73 74
f 67 68 40
f 40 66 67
f 67 62 68
f 67 66 62
f 43 32 70
f 48 32 47
f 47 62 48
f 55 37 56
f 59 55 56
f 56 62 59
f 40 62 56
f 56 37 40
f 100 73 91
f 27 37 55
f 39 55 59
f 59 60 39
f 90 73 89
f 91 73 90
f 94 73 93
f 89 73 72
f 72 73 50
f 92 93 73
f 19 31 42
f 42 17 51
f 31 17 42
f 33 51 13
f 51 17 13
f 13 20 33
f 13 17 12
f 19 12 18
f 12 17 18
f 18 31 19
f 18 17 31
f 6 5 1
f 20 13 6
f 36 27 23
f 10 16 11
f 15 16 10
f 14 15 10
f 53 41 69
f 101 85 84
f 70 88 71
f 71 43 70
f 59 62 71
f 71 88 59
f 62 47 71
f 70 86 87
f 87 88 70
f 59 88 87
f 87 92 59
f 96 83 97
f 97 74 96
f 84 83 96
f 96 74 73
f 97 98 78
f 65 66 40
f 40 64 65
f 62 66 65
f 65 64 62
f 40 49 63
f 63 64 40
f 63 49 62
f 62 64 63
f 32 45 46
f 46 47 32
f 45 71 46
f 46 71 47
f 80 100 81
f 73 100 80
f 81 60 80
f 60 73 80
f 61 60 81
f 61 39 60
f 81 100 61
f 89 72 75
f 50 52 75
f 75 72 50
f 79 73 60
f 79 92 73
f 79 60 59
f 59 92 79
f 5 6 9
f 9 13 12
f 9 6 13
f 36 23 35
f 35 27 36
f 37 27 35
f 40 37 35
f 35 23 34
f 26 10 34
f 14 10 26
f 26 27 28
f 26 28 14
f 69 34 21
f 21 53 69
f 41 53 22
f 102 101 94
f 94 93 102
f 93 92 102
f 44 71 45
f 43 71 44
f 44 45 32
f 32 43 44
f 95 101 84
f 84 96 95
f 94 101 95
f 95 73 94
f 95 96 73
f 51 78 99
f 99 78 98
f 76 51 50
f 50 74 76
f 28 27 30
f 30 27 55
f 55 39 30
f 30 29 15
f 15 28 30
f 100 29 58
f 58 61 100
f 39 61 58
f 54 34 69
f 54 35 34
f 69 41 54
f 54 41 12
f 54 12 40
f 40 35 54
f 34 23 24
f 24 23 27
f 34 10 7
f 7 21 34
f 11 8 7
f 7 10 11
f 2 22 3
f 53 21 3
f 3 22 53
f 1 2 3
f 82 99 98
f 82 98 97
f 82 83 70
f 97 83 82
f 77 78 51
f 51 76 77
f 77 76 74
f 77 74 97
f 97 78 77
f 29 30 38
f 38 30 39
f 25 26 34
f 34 24 25
f 27 26 25
f 25 24 27
f 1 3 4
f 4 8 1
f 4 7 8
f 21 7 4
f 4 3 21
f 57 58 29
f 29 38 57
f 39 58 57
f 57 38 39
f 75 16 15
f 75 90 89
f 15 29 75
f 52 20 75
f 75 6 1
f 1 8 75
f 11 16 75
f 75 8 11
f 75 100 91
f 91 90 75
f 20 6 75
f 75 29 100
f 1 5 22
f 22 2 1
f 12 41 22
f 22 9 12
f 5 9 22
f 85 101 102
f 86 85 102
f 102 87 86
f 92 87 102
f 70 32 82
f 82 32 19
f 19 42 82
f 82 42 51
f 51 99 82
