# generated by collision_forge
v 0.010144 -0.024558 0.053931
v 0.005584 -0.025070 0.050851
v 0.004096 -0.025045 0.050851
v 0.002606 -0.025028 0.050851
v -0.002607 -0.025007 0.050851
v -0.003352 -0.025004 0.050851
v -0.011415 -0.024804 0.052764
v -0.010806 -0.024804 0.055019
v -0.010548 -0.024804 0.055110
v -0.010056 -0.024804 0.055272
v -0.009875 -0.024804 0.055294
v -0.009311 -0.024804 0.055358
v -0.008564 -0.024804 0.055407
v -0.007819 -0.024804 0.055437
v -0.005278 -0.024804 0.055513
v -0.004673 -0.024804 0.055528
v -0.004097 -0.024804 0.055539
v -0.002623 -0.024804 0.055561
v 0.010144 -0.025726 0.053931
v 0.010142 -0.033423 0.023278
v 0.010142 -0.033208 0.023948
v 0.006044 -0.032772 0.018311
v 0.005586 -0.032476 0.018823
v 0.004839 -0.032539 0.018078
v 0.004092 -0.032474 0.018078
v 0.003347 -0.032430 0.018078
v 0.002604 -0.032401 0.018078
v 0.001859 -0.032384 0.018078
v 0.001114 -0.032379 0.018078
v -0.004097 -0.025016 0.050851
v 0.000367 -0.032376 0.018078
v -0.000376 -0.032376 0.018078
v -0.001117 -0.032381 0.018078
v -0.001862 -0.032404 0.018078
v -0.004092 -0.032505 0.018078
v -0.004839 -0.032554 0.018078
v -0.005584 -0.032502 0.018823
v -0.011415 -0.032428 0.024039
v -0.011415 -0.024845 0.054518
v -0.007608 -0.029503 0.051510
v -0.007062 -0.029503 0.051833
v -0.007003 -0.029503 0.051845
v -0.002623 -0.029675 0.051920
v 0.009311 -0.026075 0.053931
v 0.010075 -0.025763 0.053931
v 0.005586 -0.029675 0.051946
v 0.006276 -0.029675 0.051924
v 0.010144 -0.026109 0.053396
v 0.007082 -0.029675 0.051724
v 0.007418 -0.029675 0.051494
v 0.007519 -0.029675 0.051393
v 0.010142 -0.034786 0.021086
v 0.010142 -0.034204 0.021968
v 0.010142 -0.033828 0.022581
v 0.004092 -0.032720 0.017592
v -0.001117 -0.032651 0.017539
v -0.011415 -0.032683 0.023361
v -0.011373 -0.025549 0.053664
v -0.011415 -0.029023 0.048023
v -0.011415 -0.029159 0.047766
v -0.011295 -0.029943 0.046174
v -0.011196 -0.030631 0.044547
v -0.010662 -0.031420 0.042498
v -0.010056 -0.032183 0.039629
v -0.010056 -0.032337 0.038932
v -0.009311 -0.032343 0.038932
v 0.010056 -0.032279 0.039674
v 0.006481 -0.029675 0.051905
v 0.006882 -0.029675 0.051800
v 0.010144 -0.031523 0.042743
v 0.010144 -0.031404 0.043161
v 0.010144 -0.030661 0.045368
v 0.010144 -0.029982 0.047006
v 0.010144 -0.028985 0.049111
v 0.006164 -0.034716 0.017517
v 0.006014 -0.033491 0.017660
v 0.000367 -0.033226 0.017321
v -0.005810 -0.032968 0.017806
v -0.009763 -0.032856 0.036345
v -0.010565 -0.032887 0.035784
v 0.010144 -0.033079 0.035340
v 0.010064 -0.034786 0.022660
v 0.004092 -0.034716 0.017091
v -0.004092 -0.034702 0.017110
v -0.004839 -0.033970 0.017245
v -0.006006 -0.033465 0.017656
v -0.011415 -0.034702 0.020714
v -0.011415 -0.034277 0.021241
v 0.009311 -0.032892 0.036541
v -0.011415 -0.034702 0.022220
v 0.009321 -0.034786 0.022800
v -0.002626 -0.034785 0.017196
v -0.006106 -0.034702 0.017550
v -0.011114 -0.034702 0.022352
v -0.008566 -0.033171 0.034470
v -0.002626 -0.034785 0.018179
v -0.011415 -0.032191 0.038186
v -0.010006 -0.034702 0.022593
v 0.009311 -0.033165 0.034933
v 0.005257 -0.034786 0.017212
v -0.010835 -0.034702 0.022453
v 0.007819 -0.034786 0.022419
f 7 1 6
f 8 1 7
f 7 6 30
f 21 22 1
f 39 8 7
f 40 62 63
f 8 39 40
f 89 67 79
f 22 21 20
f 20 21 1
f 1 22 23
f 26 2 1
f 1 25 26
f 55 26 25
f 12 13 1
f 1 8 9
f 9 10 1
f 14 13 43
f 43 15 14
f 1 13 14
f 14 15 1
f 43 18 17
f 17 18 1
f 1 18 19
f 43 67 46
f 46 18 43
f 49 67 70
f 63 62 97
f 66 67 43
f 66 79 67
f 81 70 67
f 81 67 89
f 81 20 1
f 5 6 1
f 1 4 5
f 1 2 3
f 3 4 1
f 52 22 53
f 53 81 52
f 24 23 22
f 22 55 24
f 24 55 25
f 24 25 1
f 1 23 24
f 28 3 2
f 4 3 28
f 83 55 100
f 100 92 83
f 100 75 52
f 76 55 22
f 76 22 52
f 52 75 76
f 75 100 76
f 76 100 55
f 1 10 11
f 11 12 1
f 16 15 43
f 43 17 16
f 1 15 16
f 16 17 1
f 71 72 51
f 18 44 45
f 45 19 18
f 49 19 45
f 39 59 58
f 58 40 39
f 58 59 40
f 57 38 37
f 37 78 57
f 37 38 7
f 56 28 55
f 63 97 65
f 79 66 65
f 65 66 43
f 80 97 90
f 79 65 80
f 80 65 97
f 61 97 62
f 62 40 61
f 96 100 102
f 92 100 96
f 52 81 82
f 89 79 99
f 99 81 89
f 91 82 99
f 99 82 81
f 101 102 91
f 91 98 101
f 22 20 54
f 54 53 22
f 20 81 54
f 81 53 54
f 2 26 27
f 27 28 2
f 26 55 27
f 55 28 27
f 4 28 29
f 29 5 4
f 29 56 31
f 28 56 29
f 31 6 29
f 6 5 29
f 12 11 42
f 42 11 10
f 43 13 42
f 13 12 42
f 74 51 73
f 73 51 72
f 48 51 74
f 19 51 48
f 50 19 49
f 50 51 19
f 49 70 50
f 50 70 71
f 71 51 50
f 57 78 88
f 78 87 88
f 92 87 93
f 77 55 83
f 77 56 55
f 69 67 49
f 69 68 67
f 44 68 69
f 49 45 69
f 69 45 44
f 47 46 67
f 67 68 47
f 18 46 47
f 47 44 18
f 47 68 44
f 97 61 60
f 40 59 60
f 60 61 40
f 95 99 79
f 79 101 95
f 95 101 98
f 95 98 91
f 91 99 95
f 94 101 79
f 94 80 90
f 79 80 94
f 102 101 94
f 90 96 94
f 94 96 102
f 64 65 43
f 43 42 64
f 63 65 64
f 10 9 41
f 41 42 10
f 41 9 8
f 8 40 41
f 41 40 63
f 63 64 41
f 41 64 42
f 78 56 85
f 56 77 85
f 36 37 7
f 7 35 36
f 78 37 36
f 36 56 78
f 36 35 56
f 7 30 33
f 33 30 6
f 78 85 86
f 86 85 93
f 86 87 78
f 86 93 87
f 84 77 83
f 84 85 77
f 83 92 84
f 92 93 84
f 93 85 84
f 34 35 7
f 7 33 34
f 56 35 34
f 34 33 56
f 32 6 31
f 32 33 6
f 31 56 32
f 56 33 32
f 90 87 96
f 96 87 92
f 91 102 82
f 82 100 52
f 102 100 82
f 48 72 71
f 1 19 48
f 48 81 1
f 74 73 48
f 71 70 48
f 70 81 48
f 48 73 72
f 90 97 60
f 60 39 7
f 7 38 60
f 60 38 57
f 60 59 39
f 57 88 60
f 60 87 90
f 60 88 87
