# generated by collision_forge
v -0.015247 -0.006830 0.026396
v -0.014470 -0.006830 0.026396
v -0.015677 -0.006830 0.029380
v -0.014486 0.000269 0.026396
v -0.013566 0.011218 0.028223
v -0.013566 0.010170 0.028223
v -0.013577 0.001046 0.037444
v -0.013618 0.000301 0.037444
v -0.013697 -0.000444 0.038191
v -0.013827 -0.001189 0.038938
v -0.014048 -0.001802 0.040422
v -0.014649 -0.006830 0.028929
v -0.015849 -0.006830 0.030741
v -0.015270 -0.003425 0.026396
v -0.015265 0.000269 0.026396
v -0.014210 0.011112 0.028223
v -0.014905 0.011105 0.030329
v -0.015717 0.011149 0.036700
v -0.016018 0.011250 0.044144
v -0.013567 0.011211 0.052338
v -0.013567 0.009680 0.054668
v -0.013875 -0.001189 0.039675
v -0.014156 -0.001564 0.042306
v -0.014728 -0.006830 0.029679
v -0.015677 -0.003425 0.029352
v -0.015937 -0.006830 0.031486
v -0.015936 -0.004913 0.031486
v -0.015284 0.009239 0.028223
v -0.015266 0.009701 0.028223
v -0.015248 0.009984 0.028223
v -0.015065 0.010629 0.028223
v -0.014889 0.010770 0.028223
v -0.014583 0.011002 0.028223
v -0.015268 -0.000315 0.026396
v -0.015673 -0.002679 0.029374
v -0.015661 -0.000444 0.029482
v -0.015647 0.006648 0.030362
v -0.015660 0.011112 0.035468
v -0.017246 0.011179 0.047869
v -0.016762 0.011245 0.047124
v -0.016762 0.011252 0.047869
v -0.013567 0.011207 0.052728
v -0.016762 0.011239 0.049361
v -0.013567 0.009984 0.054657
v -0.015108 0.009680 0.054245
v -0.018062 -0.006830 0.052034
v -0.017227 -0.006830 0.052034
v -0.014346 -0.001189 0.044144
v -0.016178 -0.006830 0.043386
v -0.015846 -0.004168 0.030741
v -0.018073 0.004023 0.050102
v -0.018068 0.004768 0.050102
v -0.018096 -0.006830 0.050102
v -0.018107 -0.006403 0.050102
v -0.018114 -0.005658 0.050102
v -0.018081 0.002533 0.050102
v -0.018073 0.009984 0.050852
v -0.017923 0.010537 0.050105
v -0.017962 0.010772 0.050852
v -0.017894 0.011115 0.051101
v -0.018061 0.005512 0.050102
v -0.018045 0.007004 0.050102
v -0.018037 0.007747 0.050102
v -0.018024 0.008494 0.050102
v -0.017507 0.011183 0.051597
v -0.016762 0.011181 0.052338
v -0.013567 0.011179 0.053196
v -0.013567 0.010983 0.053830
v -0.013567 0.010652 0.054461
v -0.013567 0.010324 0.054561
v -0.014997 0.010402 0.054223
v -0.016018 0.009984 0.053957
v -0.016018 0.009680 0.053954
v -0.018067 -0.006711 0.052034
v -0.018084 -0.006830 0.051915
v -0.016777 0.009680 0.053650
v -0.017121 0.009680 0.053445
v -0.018143 0.004023 0.050849
v -0.018111 0.007747 0.050849
v -0.018165 -0.006403 0.050849
v -0.018171 -0.005658 0.050849
v -0.018152 0.001790 0.050849
v -0.018104 0.009984 0.051597
v -0.018001 0.010729 0.051597
v -0.017880 0.011101 0.051970
v -0.017245 0.011137 0.052803
v -0.016391 0.011101 0.053459
v -0.016561 0.010729 0.053556
v -0.018149 -0.006403 0.051594
v -0.017479 0.009680 0.053121
v -0.017895 0.009680 0.052734
v -0.017113 0.009984 0.053440
v -0.018138 0.003278 0.051594
v -0.018134 0.004023 0.051594
v -0.018106 0.009680 0.051594
v -0.018153 -0.001934 0.051594
v -0.018148 0.000269 0.051594
v -0.018004 0.009984 0.052338
v -0.017888 0.010395 0.052726
v -0.016934 0.010729 0.053326
v -0.018005 0.009680 0.052338
v -0.018078 -0.004168 0.052034
f 20 42 5
f 46 47 21
f 21 47 48
f 5 4 15
f 71 87 88
f 69 87 71
f 45 46 21
f 73 46 45
f 27 13 26
f 23 48 47
f 47 49 23
f 21 48 23
f 2 4 5
f 15 36 37
f 68 87 69
f 68 69 5
f 42 20 43
f 88 87 100
f 72 71 88
f 73 45 72
f 72 45 71
f 69 71 70
f 5 69 70
f 58 30 57
f 55 56 27
f 27 26 55
f 55 80 81
f 81 82 55
f 55 82 56
f 75 80 53
f 99 98 91
f 76 46 73
f 76 77 46
f 73 72 76
f 44 45 21
f 71 45 44
f 44 70 71
f 44 21 5
f 5 70 44
f 8 7 21
f 21 9 8
f 8 2 7
f 9 2 8
f 21 23 22
f 22 23 11
f 6 2 5
f 7 2 6
f 5 21 6
f 21 7 6
f 12 2 11
f 11 23 12
f 5 15 16
f 15 33 16
f 16 17 5
f 16 33 17
f 31 15 30
f 31 38 17
f 1 3 14
f 25 3 13
f 25 14 3
f 15 37 28
f 37 57 28
f 5 42 67
f 67 68 5
f 87 68 67
f 42 43 66
f 66 67 42
f 19 20 5
f 59 30 58
f 59 31 30
f 58 57 59
f 64 57 37
f 81 96 97
f 97 82 81
f 96 102 101
f 101 97 96
f 98 97 101
f 102 91 101
f 101 91 98
f 56 82 78
f 54 26 53
f 54 55 26
f 53 80 54
f 80 55 54
f 80 75 89
f 89 96 81
f 81 80 89
f 89 102 96
f 90 77 99
f 99 91 90
f 92 72 88
f 92 76 72
f 77 76 92
f 88 100 92
f 99 77 92
f 92 100 99
f 10 9 21
f 21 22 10
f 10 2 9
f 11 2 10
f 10 22 11
f 24 23 49
f 24 12 23
f 32 33 15
f 15 31 32
f 17 33 32
f 32 31 17
f 50 13 27
f 50 25 13
f 27 56 50
f 35 36 15
f 15 25 35
f 34 25 15
f 14 25 34
f 30 15 29
f 15 28 29
f 29 57 30
f 29 28 57
f 87 67 86
f 67 66 86
f 99 100 86
f 86 100 87
f 41 43 20
f 20 19 41
f 41 19 5
f 62 35 61
f 63 37 36
f 63 64 37
f 36 35 63
f 35 62 63
f 57 64 63
f 83 78 95
f 95 98 83
f 82 97 93
f 93 78 82
f 93 97 98
f 56 78 51
f 51 50 56
f 25 50 51
f 74 75 46
f 74 89 75
f 102 89 74
f 74 91 102
f 74 90 91
f 46 77 74
f 77 90 74
f 84 98 99
f 83 98 84
f 84 57 83
f 84 59 57
f 40 41 5
f 79 63 62
f 79 62 61
f 57 63 79
f 83 57 79
f 79 78 83
f 94 95 78
f 78 93 94
f 98 95 94
f 94 93 98
f 25 51 52
f 61 35 52
f 52 35 25
f 52 79 61
f 52 51 78
f 78 79 52
f 59 84 60
f 60 39 38
f 38 31 60
f 31 59 60
f 5 17 18
f 18 40 5
f 39 40 18
f 17 38 18
f 38 39 18
f 85 84 99
f 85 60 84
f 99 86 85
f 65 40 39
f 39 60 65
f 41 40 65
f 43 41 65
f 60 85 65
f 65 85 86
f 65 66 43
f 65 86 66
f 47 46 24
f 1 2 24
f 24 3 1
f 53 26 24
f 24 49 47
f 24 26 13
f 24 75 53
f 13 3 24
f 46 75 24
f 2 12 24
f 34 15 4
f 34 2 1
f 4 2 34
f 1 14 34
