# generated by collision_forge
v -0.011719 0.009240 0.054796
v -0.011526 0.009240 0.054578
v -0.011719 0.009985 0.054783
v -0.011719 0.008978 0.054778
v -0.011285 0.009985 0.053833
v -0.011551 0.009985 0.054578
v -0.011719 0.008449 0.054688
v -0.011678 0.008490 0.054641
v -0.011383 0.008495 0.053833
v -0.011279 0.009240 0.053833
v -0.011719 0.010589 0.054613
v -0.011719 0.011186 0.052632
v -0.011719 0.011369 0.053194
v -0.011719 0.011353 0.053833
v -0.011719 0.010731 0.054485
v -0.011719 0.008388 0.054669
v -0.011719 0.008148 0.054562
v -0.011671 0.008495 0.053222
v -0.011719 0.007844 0.054388
v -0.011719 0.007714 0.053901
v -0.011719 0.007714 0.053887
v -0.011719 0.007814 0.053772
v -0.011719 0.008268 0.053278
v -0.011719 0.010223 0.052785
v -0.011719 0.008495 0.053211
f 10 24 12
f 18 24 10
f 9 19 20
f 9 18 10
f 18 9 23
f 3 6 11
f 2 3 1
f 6 3 2
f 2 7 8
f 2 9 10
f 8 9 2
f 24 18 25
f 18 23 25
f 22 23 9
f 11 6 5
f 5 2 10
f 6 2 5
f 13 14 5
f 5 12 13
f 10 12 5
f 19 9 17
f 17 9 8
f 4 2 1
f 7 2 4
f 21 9 20
f 21 22 9
f 11 5 15
f 15 5 14
f 8 7 16
f 16 17 8
f 24 25 16
f 16 14 13
f 13 12 16
f 1 3 16
f 20 19 16
f 16 12 24
f 19 17 16
f 16 3 11
f 16 21 20
f 16 4 1
f 16 25 23
f 23 22 16
f 11 15 16
f 7 4 16
f 22 21 16
f 16 15 14
