# generated by collision_forge
v -0.011416 0.000268 0.062472
v -0.011720 0.027222 0.051333
v -0.013566 0.011211 0.051333
v -0.012709 -0.010303 0.052036
v -0.018071 0.000268 0.052036
v -0.011416 -0.010109 0.061737
v -0.018073 -0.006402 0.052036
v -0.013461 0.021158 0.051333
v -0.012033 0.023935 0.055841
v -0.012919 0.004772 0.061245
v -0.013477 -0.010303 0.056815
v -0.011720 0.014634 0.051333
v -0.013307 -0.001190 0.060658
v -0.013285 -0.010303 0.059617
v -0.011416 -0.004834 0.062314
v -0.011720 0.026488 0.053119
v -0.011720 0.022594 0.057112
v -0.011720 0.025386 0.054740
v -0.011984 0.010414 0.051333
v -0.012812 0.008496 0.061089
v -0.017542 -0.007919 0.052036
v -0.012745 0.022502 0.055883
v -0.012741 0.023971 0.054446
v -0.012654 0.001047 0.061642
v -0.013511 -0.010303 0.058302
v -0.012716 0.017433 0.058748
v -0.011720 0.017966 0.059461
v -0.011720 0.015821 0.060245
v -0.011720 0.021397 0.057853
v -0.013038 0.010248 0.051333
v -0.011416 -0.010303 0.060724
v -0.012837 -0.007148 0.061108
v -0.012085 0.008496 0.061773
v -0.011416 0.000268 0.061558
v -0.011720 0.026958 0.052195
v -0.017862 -0.007409 0.052689
v -0.011720 0.024666 0.055489
v -0.012726 0.009980 0.060977
v -0.012730 0.020412 0.057299
v -0.011889 -0.010303 0.052036
v -0.012839 0.014450 0.059671
v -0.012798 0.012221 0.060339
v -0.012867 -0.006402 0.061144
v -0.011725 0.013888 0.051333
v -0.012771 0.009238 0.061035
v -0.012213 0.006263 0.061889
v -0.011720 0.019957 0.058637
v -0.013012 0.024882 0.051333
v -0.017898 -0.006402 0.052741
v -0.018049 -0.007152 0.052036
v -0.013307 -0.003423 0.060641
v -0.012894 0.024882 0.052345
v -0.011730 0.013227 0.051333
v -0.011720 0.005521 0.062243
v -0.011720 0.023652 0.056355
v -0.017895 0.009679 0.052738
v -0.011720 0.026172 0.053630
v -0.012657 0.023755 0.054942
v -0.018076 -0.002241 0.052036
v -0.013566 0.010274 0.051333
v -0.011978 0.019417 0.058723
v -0.017953 -0.007640 0.052193
v -0.018041 0.009679 0.052079
v -0.012797 -0.007894 0.061063
v -0.012700 0.015703 0.059464
v -0.012190 -0.005657 0.061893
v -0.012074 -0.007894 0.061780
v -0.012848 0.007754 0.061134
v -0.011720 0.025900 0.054050
v -0.017892 -0.006913 0.052732
v -0.012894 -0.005657 0.061178
v -0.012669 0.025261 0.052728
v -0.011720 0.026723 0.052691
v -0.012642 -0.003423 0.061630
v -0.012690 0.010472 0.060936
v -0.012686 0.019362 0.057959
v -0.012721 0.021694 0.056541
v -0.018076 -0.005220 0.052036
v -0.012853 -0.010068 0.060586
v -0.017895 0.009238 0.052739
v -0.011720 0.016210 0.060125
v -0.012356 0.010285 0.051333
v -0.011933 0.022289 0.057196
v -0.012498 0.026135 0.051333
v -0.011720 0.027149 0.051686
v -0.011720 0.018289 0.059329
v -0.018077 -0.002678 0.052036
v -0.018077 -0.004911 0.052036
v -0.018072 -0.000007 0.052036
v -0.012782 0.025522 0.051600
v -0.018004 0.009679 0.052343
v -0.011720 0.026840 0.052452
v -0.013303 0.010259 0.051333
v -0.011919 0.013330 0.060907
v -0.011720 0.022388 0.057253
v -0.012851 -0.010303 0.060538
v -0.012301 -0.010303 0.061170
v -0.011721 0.014399 0.051333
v -0.011848 0.010788 0.051333
v -0.011720 0.010381 0.061646
v -0.011416 -0.010303 0.061706
v -0.011803 0.001793 0.062347
f 34 2 1
f 30 40 4
f 2 34 31
f 4 60 93
f 93 30 4
f 19 99 40
f 65 56 41
f 21 25 62
f 62 50 21
f 21 60 4
f 21 50 60
f 62 25 14
f 60 50 7
f 50 70 7
f 36 14 96
f 62 14 36
f 36 50 62
f 36 70 50
f 76 39 56
f 40 99 53
f 53 31 40
f 53 44 31
f 2 31 12
f 40 30 82
f 82 19 40
f 5 8 3
f 74 66 102
f 102 15 1
f 66 15 102
f 56 13 10
f 49 7 70
f 11 21 4
f 25 21 11
f 43 66 74
f 74 71 43
f 43 71 70
f 70 71 51
f 51 49 70
f 13 49 51
f 74 13 51
f 51 71 74
f 18 37 1
f 29 47 1
f 1 95 29
f 1 37 55
f 23 56 58
f 56 22 58
f 56 39 77
f 77 22 56
f 67 15 66
f 67 97 101
f 31 44 98
f 98 12 31
f 89 5 3
f 72 52 23
f 90 52 72
f 90 48 63
f 63 48 8
f 8 5 63
f 68 46 20
f 68 10 46
f 68 20 56
f 56 10 68
f 24 102 46
f 46 10 24
f 74 102 24
f 24 13 74
f 24 10 13
f 20 46 33
f 38 75 56
f 38 33 75
f 42 41 56
f 56 75 42
f 65 41 42
f 80 13 56
f 80 49 13
f 78 88 60
f 60 7 78
f 7 49 78
f 49 88 78
f 97 67 64
f 1 2 85
f 85 35 1
f 73 16 1
f 73 72 16
f 69 18 1
f 69 72 23
f 23 58 69
f 69 58 18
f 17 95 1
f 1 55 17
f 65 61 26
f 26 61 76
f 26 56 65
f 26 76 56
f 83 77 39
f 83 29 95
f 39 76 83
f 76 61 83
f 47 29 83
f 83 61 47
f 95 17 83
f 83 17 55
f 6 67 101
f 15 67 6
f 59 3 87
f 59 89 3
f 90 72 84
f 84 72 35
f 35 85 84
f 84 85 2
f 84 48 90
f 91 52 90
f 90 63 91
f 23 52 91
f 91 56 23
f 91 80 56
f 5 89 91
f 91 63 5
f 89 59 91
f 91 59 87
f 49 80 91
f 87 88 91
f 91 88 49
f 65 42 94
f 94 42 75
f 75 33 94
f 94 33 100
f 100 33 54
f 54 102 1
f 1 100 54
f 46 102 54
f 54 33 46
f 20 33 45
f 33 38 45
f 56 20 45
f 45 38 56
f 96 97 79
f 97 64 79
f 79 64 70
f 79 36 96
f 70 36 79
f 32 43 70
f 70 64 32
f 66 43 32
f 32 67 66
f 32 64 67
f 1 35 92
f 92 73 1
f 35 72 92
f 72 73 92
f 1 16 57
f 57 69 1
f 16 72 57
f 72 69 57
f 22 77 9
f 77 83 9
f 9 83 55
f 9 58 22
f 9 55 37
f 37 18 9
f 18 58 9
f 81 61 65
f 65 94 81
f 61 81 27
f 27 81 1
f 28 94 100
f 28 81 94
f 28 100 1
f 1 81 28
f 47 61 86
f 61 27 86
f 1 47 86
f 86 27 1
f 4 40 11
f 96 14 11
f 11 97 96
f 40 31 11
f 11 31 101
f 11 14 25
f 101 97 11
f 88 3 60
f 87 3 88
f 101 31 6
f 6 34 1
f 6 31 34
f 1 15 6
f 60 3 84
f 99 19 84
f 84 53 99
f 84 93 60
f 84 82 30
f 30 93 84
f 2 12 84
f 3 8 84
f 44 53 84
f 84 98 44
f 19 82 84
f 8 48 84
f 12 98 84
