# generated by collision_forge
v -0.011700 0.017435 0.048615
v -0.011719 0.034777 0.029320
v -0.013566 0.010218 0.029320
v -0.011719 0.031656 0.044245
v -0.012498 0.026139 0.051331
v -0.013566 0.010278 0.051331
v -0.013533 0.027862 0.029320
v -0.011719 0.034265 0.034600
v -0.013461 0.021164 0.051331
v -0.011801 0.013711 0.029320
v -0.011764 0.011477 0.048617
v -0.011719 0.030413 0.047369
v -0.011750 0.012966 0.038935
v -0.013418 0.031988 0.034315
v -0.011765 0.011477 0.051331
v -0.011843 0.011477 0.029320
v -0.013491 0.027120 0.044890
v -0.013504 0.027862 0.042655
v -0.011845 0.010807 0.038935
v -0.011719 0.032625 0.041277
v -0.011719 0.029565 0.048782
v -0.012862 0.029264 0.047126
v -0.013233 0.030036 0.043370
v -0.012705 0.033503 0.033718
v -0.013544 0.028610 0.034464
v -0.011719 0.031135 0.045634
v -0.012814 0.033676 0.029320
v -0.013012 0.024881 0.051331
v -0.011719 0.027220 0.051331
v -0.012867 0.032983 0.035210
v -0.011719 0.015081 0.051717
v -0.012356 0.010287 0.051331
v -0.013412 0.028983 0.045274
v -0.012696 0.030512 0.044631
v -0.011719 0.033695 0.029320
v -0.012510 0.010311 0.029320
v -0.012662 0.028980 0.048238
v -0.013415 0.022174 0.051331
v -0.012365 0.010283 0.048617
v -0.013566 0.011215 0.029320
v -0.013566 0.011211 0.051331
v -0.012005 0.034267 0.033718
v -0.012427 0.033193 0.036699
v -0.012118 0.034373 0.031485
v -0.013421 0.032024 0.030739
v -0.011973 0.010408 0.044144
v -0.011997 0.010422 0.039678
v -0.012738 0.033546 0.032973
v -0.013473 0.030841 0.037445
v -0.013522 0.029355 0.029320
v -0.011718 0.013711 0.049361
v -0.013540 0.029355 0.034464
v -0.011804 0.012966 0.029320
v -0.011726 0.012966 0.049361
v -0.011817 0.012220 0.029320
v -0.013474 0.027862 0.044890
v -0.011763 0.011477 0.039678
v -0.011702 0.016692 0.048615
v -0.013526 0.030101 0.035210
v -0.013462 0.031589 0.033718
v -0.012346 0.010287 0.044890
v -0.011848 0.010790 0.051331
v -0.011719 0.034130 0.035267
v -0.011764 0.011477 0.038935
v -0.013038 0.010242 0.048617
v -0.013451 0.031589 0.029320
v -0.013493 0.030841 0.029320
v -0.011719 0.031368 0.045024
v -0.013080 0.033080 0.029320
v -0.012793 0.025583 0.051331
v -0.012177 0.026663 0.051331
v -0.011719 0.033423 0.038353
v -0.012179 0.034440 0.029320
v -0.012995 0.033080 0.032973
v -0.013038 0.010254 0.051331
v -0.011982 0.032024 0.042473
v -0.012622 0.030423 0.045129
v -0.011967 0.032750 0.040203
v -0.013405 0.028211 0.046729
v -0.012685 0.031983 0.040135
v -0.011889 0.010982 0.029320
v -0.012515 0.034089 0.029320
v -0.011719 0.031942 0.043401
v -0.011719 0.032394 0.042021
v -0.012137 0.010610 0.029320
v -0.011946 0.030493 0.046805
v -0.012791 0.028432 0.048617
v -0.013417 0.029747 0.043103
v -0.011719 0.030041 0.048060
v -0.011959 0.034229 0.034254
v -0.013414 0.031226 0.038608
v -0.011719 0.030752 0.046584
v -0.011719 0.031789 0.043862
v -0.011983 0.010417 0.051331
v -0.011719 0.034366 0.033940
v -0.013299 0.032274 0.034526
v -0.011719 0.032534 0.041574
v -0.011719 0.034207 0.034903
v -0.011719 0.030591 0.046965
v -0.011910 0.027016 0.051331
v -0.011719 0.029815 0.048426
v -0.011719 0.033517 0.037974
f 29 31 1
f 1 21 29
f 32 94 31
f 52 7 25
f 35 2 1
f 53 13 64
f 13 51 64
f 16 64 81
f 65 6 3
f 3 36 61
f 40 25 7
f 9 38 79
f 31 38 9
f 79 38 28
f 28 38 31
f 31 70 28
f 10 13 53
f 10 35 13
f 58 35 1
f 13 35 58
f 58 51 13
f 1 31 58
f 31 51 58
f 55 64 16
f 53 64 55
f 73 44 2
f 1 2 95
f 1 72 20
f 6 65 75
f 75 65 32
f 31 6 75
f 75 32 31
f 39 65 3
f 3 61 39
f 32 65 39
f 50 7 52
f 52 67 50
f 49 14 60
f 66 67 60
f 52 18 59
f 59 18 49
f 49 60 59
f 59 67 52
f 59 60 67
f 56 18 17
f 56 9 79
f 17 9 56
f 49 18 56
f 41 9 17
f 17 18 41
f 41 6 31
f 31 9 41
f 41 18 52
f 52 25 41
f 25 40 41
f 100 29 21
f 31 29 100
f 100 71 31
f 5 70 31
f 31 71 5
f 54 64 51
f 54 15 11
f 54 51 31
f 31 15 54
f 74 48 27
f 27 69 74
f 27 48 82
f 44 73 82
f 82 48 44
f 2 44 42
f 42 95 2
f 44 48 42
f 45 69 66
f 14 69 45
f 66 60 45
f 45 60 14
f 1 12 89
f 91 14 49
f 70 5 87
f 87 5 71
f 79 28 87
f 87 28 70
f 85 47 36
f 81 47 85
f 46 61 36
f 36 47 46
f 94 32 46
f 32 39 46
f 46 39 61
f 64 54 57
f 57 54 11
f 96 69 14
f 96 74 69
f 30 74 96
f 96 91 30
f 14 91 96
f 24 42 48
f 24 74 30
f 48 74 24
f 43 24 30
f 102 72 1
f 1 63 102
f 1 95 8
f 101 21 1
f 1 89 101
f 1 4 68
f 68 26 1
f 1 26 92
f 1 84 83
f 1 20 97
f 97 84 1
f 33 56 79
f 19 47 81
f 19 46 47
f 19 81 64
f 64 57 19
f 80 91 23
f 30 91 80
f 80 43 30
f 98 63 1
f 1 8 98
f 99 12 1
f 1 92 99
f 23 33 22
f 79 87 22
f 22 33 79
f 93 4 1
f 1 83 93
f 23 91 88
f 88 33 23
f 88 91 49
f 49 56 88
f 56 33 88
f 94 46 62
f 46 19 62
f 31 94 62
f 62 15 31
f 11 15 62
f 62 57 11
f 62 19 57
f 76 83 84
f 76 93 83
f 4 93 76
f 90 98 8
f 95 42 90
f 90 8 95
f 63 98 90
f 90 102 63
f 42 24 90
f 24 43 90
f 72 102 90
f 86 92 26
f 26 68 86
f 86 99 92
f 12 99 86
f 86 68 4
f 86 89 12
f 84 97 78
f 78 76 84
f 78 97 20
f 80 76 78
f 43 80 78
f 78 20 72
f 72 90 78
f 78 90 43
f 4 76 77
f 77 86 4
f 22 86 77
f 89 86 37
f 37 86 22
f 37 22 87
f 37 101 89
f 21 101 37
f 37 100 21
f 71 100 37
f 37 87 71
f 34 76 80
f 34 77 76
f 34 80 23
f 23 22 34
f 22 77 34
f 41 40 3
f 3 6 41
f 85 36 3
f 85 55 16
f 85 67 66
f 85 10 53
f 85 73 2
f 2 35 85
f 16 81 85
f 3 40 85
f 27 82 85
f 66 69 85
f 85 40 7
f 35 10 85
f 53 55 85
f 7 50 85
f 85 69 27
f 85 50 67
f 85 82 73
