# generated by collision_forge
v -0.004009 0.034843 0.047800
v -0.004098 0.034843 0.047800
v -0.003394 0.034839 0.047800
v -0.004772 0.034838 0.047800
v -0.000035 0.034782 0.047874
v -0.000035 0.034806 0.047800
v 0.009722 0.031248 0.047109
v 0.008564 0.031274 0.047109
v -0.005473 0.034576 0.047800
v -0.005498 0.034355 0.048619
v -0.005344 0.034244 0.049060
v -0.000033 0.029636 0.047109
v -0.004842 0.034266 0.049091
v -0.000035 0.034243 0.049057
v -0.000035 0.034468 0.048619
v -0.000035 0.034612 0.048280
v 0.010173 0.031130 0.047109
v -0.005584 0.034514 0.047800
v -0.011719 0.027789 0.049945
v -0.011211 0.027526 0.052045
v -0.011204 0.026773 0.053493
v -0.010981 0.025897 0.054825
v -0.005412 0.033555 0.049842
v -0.004842 0.033603 0.049894
v -0.000033 0.028830 0.047109
v -0.007252 0.030690 0.047800
v -0.005925 0.033824 0.047800
v -0.000035 0.033946 0.049429
v 0.005441 0.030618 0.051406
v 0.010462 0.030487 0.048274
v -0.011719 0.027789 0.048700
v -0.011719 0.027154 0.051686
v -0.011719 0.026491 0.053115
v -0.011719 0.025387 0.054736
v -0.005375 0.032801 0.050556
v -0.000035 0.033206 0.050241
v -0.000035 0.033573 0.049868
v -0.011719 0.026337 0.049288
v -0.011719 0.026419 0.049243
v -0.011719 0.027122 0.048938
v -0.006871 0.028856 0.047800
v -0.007252 0.029265 0.047800
v 0.006331 0.028476 0.047109
v 0.009762 0.026783 0.054244
v 0.009846 0.028312 0.052102
v 0.010516 0.027547 0.052796
v -0.011719 0.027290 0.048877
v -0.010437 0.025263 0.055696
v -0.004842 0.032845 0.050595
v -0.010055 0.024104 0.056683
v -0.004098 0.032844 0.050595
v -0.000035 0.032834 0.050590
v -0.000035 0.033003 0.050432
v 0.009801 0.025305 0.055735
v 0.009794 0.026049 0.054997
v -0.011719 0.026182 0.049471
v 0.006331 0.028123 0.047396
v 0.011467 0.026173 0.049152
v 0.011467 0.029135 0.047109
v 0.011467 0.026554 0.048839
v 0.011115 0.026704 0.053396
v 0.011347 0.029859 0.048452
v 0.011467 0.030456 0.047109
v -0.010802 0.023979 0.056595
v -0.003353 0.024557 0.056472
v 0.007820 0.023298 0.057362
v -0.008567 0.024531 0.056451
v -0.006331 0.023285 0.057355
v -0.005587 0.023291 0.057356
v 0.008564 0.024550 0.056467
v 0.009703 0.024523 0.056446
v 0.010298 0.025207 0.055644
v -0.011719 0.020716 0.056990
v 0.011465 0.020157 0.057219
v 0.011467 0.029669 0.048562
v -0.011719 0.023584 0.056408
v -0.004844 0.023294 0.057357
v 0.007075 0.023298 0.057362
v -0.009311 0.023256 0.057337
v -0.000033 0.020157 0.058968
v -0.009765 0.022175 0.057980
v -0.011719 0.022733 0.056990
v -0.000033 0.020157 0.058115
v 0.011465 0.020157 0.058426
v 0.011206 0.025293 0.054984
v 0.011465 0.025368 0.054578
v -0.009765 0.022214 0.057963
v 0.008564 0.022327 0.057956
v -0.007820 0.022312 0.057948
v 0.009742 0.022303 0.057942
v 0.010527 0.023092 0.057229
v 0.011156 0.023758 0.056426
v -0.000033 0.020417 0.058880
v 0.011465 0.024119 0.055849
v 0.011465 0.022572 0.057041
v 0.011465 0.021114 0.057937
v 0.008564 0.021908 0.058182
v -0.008809 0.022175 0.058012
v 0.011161 0.021524 0.057917
v 0.006331 0.021233 0.058525
v 0.009311 0.020417 0.058912
v 0.010053 0.020157 0.058935
f 41 42 25
f 58 84 74
f 40 41 25
f 32 20 19
f 30 17 15
f 15 3 1
f 80 73 83
f 73 74 83
f 56 74 73
f 56 38 58
f 58 74 56
f 81 73 80
f 25 38 39
f 39 40 25
f 42 41 31
f 31 26 42
f 19 18 31
f 14 29 30
f 30 15 14
f 43 59 60
f 43 38 25
f 63 17 30
f 102 101 80
f 80 101 93
f 44 46 29
f 44 29 37
f 30 29 45
f 45 46 30
f 29 46 45
f 27 12 26
f 18 12 27
f 27 31 18
f 26 31 27
f 8 2 1
f 1 3 8
f 3 6 8
f 9 12 18
f 20 32 33
f 73 81 82
f 41 40 47
f 47 31 41
f 37 29 28
f 29 14 28
f 10 9 18
f 19 20 10
f 10 18 19
f 5 6 3
f 17 6 5
f 58 38 57
f 38 43 57
f 57 60 58
f 57 43 60
f 30 46 62
f 62 63 30
f 99 102 84
f 4 8 12
f 2 8 4
f 12 9 4
f 9 10 4
f 7 6 17
f 7 8 6
f 87 82 81
f 22 48 23
f 13 28 14
f 13 14 15
f 2 4 13
f 13 15 1
f 1 2 13
f 20 33 21
f 21 10 20
f 21 33 34
f 34 22 21
f 3 15 16
f 16 5 3
f 16 15 17
f 17 5 16
f 61 62 46
f 46 44 61
f 96 99 84
f 95 99 96
f 85 94 86
f 86 61 85
f 85 44 72
f 85 61 44
f 95 94 92
f 91 99 92
f 92 99 95
f 72 91 92
f 92 85 72
f 94 85 92
f 55 44 37
f 37 36 55
f 72 44 55
f 35 48 50
f 50 49 35
f 23 48 35
f 24 36 37
f 23 35 24
f 24 35 49
f 37 28 24
f 28 13 24
f 24 53 36
f 52 53 24
f 98 81 80
f 80 93 98
f 98 87 81
f 50 87 79
f 79 98 89
f 87 98 79
f 71 91 72
f 77 89 88
f 51 66 52
f 49 66 51
f 52 24 51
f 51 24 49
f 65 66 49
f 76 22 34
f 48 22 76
f 11 4 10
f 11 13 4
f 10 21 11
f 23 24 11
f 11 24 13
f 11 22 23
f 11 21 22
f 75 61 86
f 62 61 75
f 63 62 75
f 86 94 75
f 75 94 95
f 95 96 75
f 75 96 84
f 75 84 58
f 68 79 89
f 52 66 70
f 70 71 52
f 66 71 70
f 72 55 54
f 54 71 72
f 54 55 36
f 36 53 54
f 54 53 52
f 52 71 54
f 89 98 100
f 100 93 101
f 100 98 93
f 90 71 66
f 66 88 90
f 91 71 90
f 101 102 90
f 90 99 91
f 102 99 90
f 78 65 77
f 66 65 78
f 77 88 78
f 78 88 66
f 64 76 82
f 64 87 50
f 82 87 64
f 50 48 64
f 48 76 64
f 69 89 77
f 69 68 89
f 77 65 69
f 69 65 49
f 49 68 69
f 67 68 49
f 79 68 67
f 67 49 50
f 50 79 67
f 97 88 89
f 89 100 97
f 97 100 101
f 101 90 97
f 97 90 88
f 25 42 12
f 42 26 12
f 102 74 84
f 80 83 102
f 102 83 74
f 7 43 25
f 25 12 7
f 17 63 7
f 59 43 7
f 7 63 59
f 12 8 7
f 76 32 19
f 76 39 38
f 76 33 32
f 76 56 73
f 38 56 76
f 19 31 76
f 40 39 76
f 73 82 76
f 34 33 76
f 76 47 40
f 31 47 76
f 59 63 75
f 58 60 75
f 60 59 75
