# generated by collision_forge
v 0.011465 0.030460 0.047103
v -0.011712 0.035869 0.004033
v 0.011465 0.036929 0.019566
v -0.011717 0.034297 0.034406
v -0.007863 0.027791 0.053108
v 0.005584 0.034065 0.003995
v 0.004093 0.037289 0.034464
v 0.011462 0.036776 0.010625
v -0.004093 0.036928 0.037435
v 0.004838 0.037552 0.026274
v 0.004838 0.030623 0.051586
v -0.004093 0.033909 0.004664
v 0.004838 0.035006 0.047103
v 0.011462 0.035865 0.004130
v -0.011717 0.027791 0.048687
v -0.011717 0.036850 0.018074
v -0.000033 0.032834 0.050585
v 0.006326 0.028479 0.047103
v 0.000371 0.034045 0.003976
v 0.011465 0.032121 0.042996
v -0.005580 0.034513 0.047797
v -0.011717 0.033422 0.038350
v -0.008246 0.034183 0.004236
v -0.010963 0.027791 0.051793
v 0.005332 0.033560 0.049853
v -0.011717 0.030482 0.047219
v -0.009311 0.036840 0.005410
v 0.008217 0.034194 0.004274
v -0.004838 0.035332 0.045635
v 0.009309 0.036836 0.004669
v 0.011465 0.032904 0.040464
v 0.009844 0.037201 0.012113
v 0.011465 0.031410 0.044884
v -0.003664 0.034942 0.047493
v 0.005126 0.036426 0.040030
v -0.010212 0.027791 0.049646
v 0.004838 0.032339 0.050965
v -0.009334 0.036045 0.003937
v 0.004838 0.037382 0.032971
v 0.003346 0.036676 0.038928
v 0.010053 0.037301 0.018815
v -0.009869 0.027791 0.052877
v -0.007252 0.027791 0.051731
v -0.010543 0.037196 0.017328
v -0.010473 0.037184 0.018671
v 0.005405 0.034354 0.048610
v 0.011465 0.029140 0.047103
v 0.011465 0.036901 0.014443
v -0.011717 0.027791 0.049939
v 0.003147 0.037178 0.035600
v -0.005963 0.037184 0.034166
v 0.005298 0.037211 0.034464
v 0.009644 0.037181 0.010938
v -0.011192 0.032721 0.042327
v 0.011462 0.034827 0.004669
v -0.005233 0.036436 0.040083
v 0.011163 0.034185 0.035562
v -0.000033 0.031934 0.051206
v 0.009322 0.036046 0.003927
v 0.010825 0.036503 0.004717
v 0.005586 0.037461 0.018815
v -0.004838 0.037562 0.031484
v -0.000033 0.033574 0.049862
v -0.004838 0.034051 0.003980
v -0.005484 0.035058 0.046371
v 0.004838 0.033925 0.004669
v 0.005344 0.031453 0.051307
v -0.007073 0.034096 0.004038
v -0.011717 0.028623 0.049463
v -0.011712 0.035155 0.004664
v -0.011717 0.036731 0.013808
v 0.010053 0.036549 0.004048
v -0.010055 0.036536 0.004062
v -0.011717 0.034130 0.035263
v 0.011465 0.033626 0.037377
v 0.005586 0.037532 0.022470
v 0.010609 0.037216 0.019379
v 0.004838 0.034808 0.047869
v 0.005316 0.032820 0.050565
v 0.011465 0.031108 0.045611
v -0.011717 0.029821 0.048423
v 0.004838 0.033980 0.049443
v -0.011544 0.036916 0.018815
v 0.001118 0.036127 0.041908
v 0.011465 0.036883 0.013692
v -0.004838 0.037434 0.033718
v -0.005582 0.037398 0.032971
v -0.009311 0.036799 0.004664
v -0.010800 0.036753 0.007645
v -0.005582 0.033920 0.004664
v -0.007075 0.037425 0.018074
v 0.006329 0.033967 0.004669
v -0.006331 0.037416 0.017328
v -0.010496 0.037188 0.016586
v 0.010053 0.037292 0.016581
v 0.004838 0.037457 0.031484
v -0.004838 0.037578 0.030742
v 0.004838 0.037512 0.029249
v 0.004838 0.037538 0.027766
v -0.005582 0.037554 0.026274
v 0.000371 0.033902 0.004669
v -0.008564 0.027791 0.053084
f 5 18 47
f 5 47 11
f 43 18 5
f 34 21 63
f 26 21 54
f 54 21 65
f 65 21 34
f 36 15 18
f 18 43 36
f 49 24 69
f 79 37 67
f 1 79 67
f 5 11 67
f 67 37 5
f 67 47 1
f 67 11 47
f 5 37 58
f 21 26 81
f 24 42 81
f 81 42 21
f 69 24 81
f 54 65 22
f 22 26 54
f 29 65 34
f 4 83 16
f 44 16 83
f 34 63 82
f 82 78 34
f 92 6 28
f 28 55 47
f 28 47 18
f 18 92 28
f 23 15 70
f 23 68 15
f 70 2 23
f 23 2 68
f 15 101 66
f 18 15 66
f 66 92 18
f 66 6 92
f 66 101 6
f 15 68 90
f 90 68 64
f 6 101 19
f 59 6 19
f 47 55 85
f 5 58 102
f 17 63 21
f 21 42 17
f 17 58 37
f 42 102 17
f 17 102 58
f 17 37 79
f 74 22 65
f 35 3 52
f 35 57 3
f 70 15 71
f 71 2 70
f 16 44 71
f 100 93 91
f 91 44 100
f 78 82 46
f 1 80 46
f 46 80 33
f 46 33 20
f 64 68 38
f 68 2 38
f 59 19 38
f 38 19 64
f 2 73 38
f 12 90 64
f 64 19 12
f 12 19 101
f 12 101 15
f 15 90 12
f 3 57 75
f 57 35 75
f 25 17 79
f 25 46 82
f 25 82 63
f 63 17 25
f 25 79 1
f 1 46 25
f 99 10 97
f 100 44 97
f 84 29 34
f 45 44 83
f 45 97 44
f 51 83 4
f 44 91 94
f 94 71 44
f 2 71 89
f 89 73 2
f 88 73 89
f 71 94 89
f 31 46 20
f 31 75 46
f 13 75 35
f 46 75 13
f 78 46 13
f 35 84 13
f 34 78 13
f 13 84 34
f 59 38 72
f 72 38 73
f 14 85 55
f 14 72 60
f 59 72 14
f 55 28 14
f 14 6 59
f 14 28 6
f 99 97 98
f 9 50 86
f 87 51 86
f 87 45 83
f 83 51 87
f 56 51 4
f 4 74 56
f 56 74 65
f 65 29 56
f 29 84 56
f 84 9 56
f 86 51 56
f 56 9 86
f 27 94 91
f 27 91 93
f 88 89 27
f 27 89 94
f 30 73 88
f 30 72 73
f 60 72 30
f 85 14 8
f 8 14 60
f 60 30 8
f 86 50 7
f 7 39 86
f 52 39 7
f 7 35 52
f 7 50 35
f 35 50 40
f 50 9 40
f 40 84 35
f 40 9 84
f 97 45 62
f 45 87 62
f 62 87 86
f 86 39 62
f 62 39 96
f 96 98 62
f 62 98 97
f 53 27 93
f 88 27 53
f 53 30 88
f 53 8 30
f 61 53 93
f 3 48 77
f 96 39 77
f 52 3 77
f 77 39 52
f 95 48 85
f 95 77 48
f 41 10 99
f 77 95 41
f 99 98 41
f 41 98 96
f 96 77 41
f 76 95 61
f 10 41 76
f 76 41 95
f 100 97 76
f 76 97 10
f 76 93 100
f 76 61 93
f 53 61 32
f 61 95 32
f 8 53 32
f 85 8 32
f 32 95 85
f 102 49 15
f 102 43 5
f 15 36 102
f 102 36 43
f 24 49 102
f 102 42 24
f 69 81 71
f 4 16 71
f 15 49 71
f 71 49 69
f 71 81 26
f 26 22 71
f 71 74 4
f 22 74 71
f 48 80 1
f 1 47 48
f 20 33 48
f 47 85 48
f 33 80 48
f 48 31 20
f 3 75 48
f 75 31 48
