# generated by collision_forge
v -0.002626 -0.015140 0.062825
v -0.002626 -0.015140 0.062065
v -0.007821 -0.015140 0.062855
v 0.007758 -0.017646 0.062736
v 0.007821 -0.017646 0.062735
v 0.008420 -0.017646 0.062565
v 0.008794 -0.017646 0.062112
v 0.010144 -0.017646 0.059753
v -0.008769 -0.015140 0.059980
v 0.010144 -0.017646 0.058922
v -0.008303 -0.015140 0.062701
v -0.007821 -0.016838 0.062794
v -0.007076 -0.017583 0.062769
v 0.004096 -0.017646 0.062747
v 0.003351 -0.018327 0.062709
v 0.004096 -0.018327 0.062706
v 0.007076 -0.018327 0.062675
v 0.008387 -0.018327 0.062530
v 0.008758 -0.018327 0.062071
v 0.008944 -0.018715 0.061668
v -0.009311 -0.015140 0.059827
v 0.010144 -0.024556 0.053933
v -0.011413 -0.015140 0.059434
v -0.008501 -0.015140 0.062636
v -0.008444 -0.016838 0.062593
v -0.008425 -0.017583 0.062569
v -0.007821 -0.017583 0.062755
v -0.007076 -0.018327 0.062713
v -0.006331 -0.018327 0.062716
v -0.002607 -0.018327 0.062714
v 0.002606 -0.018327 0.062710
v 0.003351 -0.018913 0.062537
v 0.004096 -0.018910 0.062535
v 0.005586 -0.018900 0.062526
v 0.007076 -0.018889 0.062516
v 0.007821 -0.018883 0.062510
v 0.008306 -0.018820 0.062472
v 0.010144 -0.022420 0.057181
v 0.010144 -0.022055 0.057428
v 0.010144 -0.021121 0.058039
v 0.010144 -0.020107 0.058620
v 0.010144 -0.018636 0.059367
v 0.010144 -0.025725 0.053933
v -0.011415 -0.024801 0.052767
v -0.011413 -0.015140 0.060441
v -0.008393 -0.018327 0.062532
v -0.007821 -0.018327 0.062687
v -0.007076 -0.018914 0.062534
v -0.006331 -0.018918 0.062541
v -0.005587 -0.018918 0.062542
v 0.000371 -0.018914 0.062540
v 0.006331 -0.025429 0.054981
v 0.007076 -0.025426 0.054979
v 0.007821 -0.025417 0.054967
v 0.008294 -0.025408 0.054956
v 0.008792 -0.025392 0.054943
v 0.009311 -0.025334 0.054874
v 0.010056 -0.024805 0.055107
v 0.010144 -0.024780 0.055081
v 0.010144 -0.024345 0.055532
v 0.010144 -0.023560 0.056280
v 0.010077 -0.025761 0.053933
v -0.002623 -0.026158 0.053933
v -0.011415 -0.024801 0.054572
v 0.009311 -0.026073 0.053933
v 0.009079 -0.026109 0.053933
v 0.008566 -0.026185 0.053933
v 0.007821 -0.026218 0.053933
v 0.007076 -0.026230 0.053933
v 0.005586 -0.026221 0.053933
v 0.004096 -0.026210 0.053933
v -0.011413 -0.015775 0.060277
v -0.008311 -0.018827 0.062473
v -0.007821 -0.018900 0.062519
v -0.002623 -0.025376 0.054930
v 0.000717 -0.025405 0.054953
v 0.001116 -0.025408 0.054956
v 0.001861 -0.025411 0.054960
v 0.005586 -0.025426 0.054977
v 0.009912 -0.025526 0.054361
v 0.002606 -0.026065 0.054117
v -0.002623 -0.026055 0.054075
v -0.008566 -0.024801 0.055410
v -0.009311 -0.024801 0.055361
v -0.009875 -0.024801 0.055297
v -0.010056 -0.024801 0.055276
v -0.010803 -0.024801 0.055025
v -0.011415 -0.020694 0.058027
v -0.011413 -0.018217 0.059275
v -0.011413 -0.017583 0.059573
v -0.011413 -0.016092 0.060163
v -0.011413 -0.019705 0.058538
v -0.011415 -0.021173 0.057778
v -0.011415 -0.021885 0.057335
v -0.011415 -0.022690 0.056721
v -0.011415 -0.022881 0.056573
v -0.011221 -0.023945 0.055729
v -0.010801 -0.024764 0.055072
v -0.007821 -0.019272 0.062084
v -0.007821 -0.024801 0.055441
v -0.002623 -0.025675 0.054558
v -0.011415 -0.023562 0.055948
f 44 23 22
f 10 22 23
f 44 22 43
f 8 1 7
f 2 10 9
f 21 10 23
f 21 9 10
f 43 59 80
f 80 59 58
f 6 7 1
f 1 5 6
f 4 1 3
f 4 5 1
f 86 87 63
f 63 87 64
f 63 64 44
f 64 87 98
f 98 87 86
f 46 27 26
f 46 26 45
f 74 86 99
f 25 24 45
f 45 26 25
f 43 80 62
f 62 80 65
f 44 43 62
f 62 65 44
f 65 80 57
f 57 80 58
f 53 52 69
f 53 32 52
f 53 33 32
f 84 63 83
f 83 99 84
f 83 63 82
f 64 98 97
f 27 46 47
f 74 47 73
f 73 47 46
f 73 97 98
f 73 86 74
f 73 98 86
f 75 99 100
f 100 99 83
f 24 25 11
f 12 13 3
f 27 13 12
f 3 11 12
f 12 11 25
f 26 27 12
f 12 25 26
f 8 7 19
f 19 20 8
f 78 49 77
f 77 82 78
f 54 55 36
f 36 53 54
f 33 53 34
f 44 65 66
f 66 67 44
f 55 67 56
f 36 55 56
f 67 66 56
f 65 57 56
f 56 66 65
f 14 4 3
f 3 13 14
f 86 63 85
f 63 84 85
f 85 99 86
f 85 84 99
f 44 69 70
f 64 97 102
f 102 73 96
f 97 73 102
f 74 99 48
f 48 99 75
f 75 76 48
f 77 49 48
f 48 76 77
f 52 32 51
f 94 73 93
f 83 82 101
f 101 100 83
f 75 100 101
f 101 76 75
f 101 82 77
f 77 76 101
f 8 20 42
f 20 41 42
f 40 20 39
f 40 41 20
f 7 6 18
f 18 19 7
f 18 6 5
f 39 20 38
f 81 78 82
f 69 52 81
f 81 70 69
f 81 82 63
f 68 53 69
f 68 54 53
f 68 69 44
f 44 67 68
f 68 67 55
f 55 54 68
f 35 53 36
f 35 34 53
f 31 51 32
f 96 73 95
f 73 94 95
f 72 46 45
f 72 73 46
f 20 19 37
f 19 18 37
f 61 38 37
f 37 38 20
f 37 60 61
f 37 5 36
f 37 18 5
f 37 57 58
f 59 60 37
f 58 59 37
f 36 56 37
f 37 56 57
f 79 81 52
f 78 81 79
f 52 49 79
f 49 78 79
f 71 81 63
f 70 81 71
f 71 63 44
f 44 70 71
f 15 14 13
f 13 31 15
f 4 14 15
f 32 33 15
f 15 31 32
f 91 90 73
f 73 72 91
f 93 73 88
f 73 92 88
f 90 91 88
f 88 91 72
f 88 72 45
f 88 45 23
f 88 23 44
f 73 90 89
f 89 92 73
f 90 88 89
f 89 88 92
f 30 31 13
f 13 29 30
f 51 31 30
f 28 13 27
f 28 29 13
f 27 47 28
f 28 47 74
f 74 48 28
f 28 48 49
f 49 29 28
f 50 29 49
f 50 49 52
f 52 51 50
f 51 30 50
f 50 30 29
f 5 4 17
f 36 5 17
f 4 15 16
f 16 17 4
f 34 35 16
f 16 35 36
f 36 17 16
f 33 34 16
f 16 15 33
f 8 10 1
f 1 10 2
f 3 1 11
f 11 21 23
f 23 45 11
f 11 1 2
f 2 9 11
f 45 24 11
f 9 21 11
f 60 10 8
f 22 10 60
f 60 43 22
f 60 59 43
f 39 38 60
f 8 42 60
f 60 40 39
f 60 42 41
f 41 40 60
f 60 38 61
f 96 95 88
f 44 64 88
f 64 102 88
f 88 102 96
f 88 94 93
f 88 95 94
