# generated by collision_forge
v 0.010144 -0.033168 0.034582
v -0.011415 -0.036094 0.004037
v 0.010144 -0.036694 0.011519
v 0.007452 -0.034350 0.049746
v 0.002604 -0.033386 0.003980
v -0.010069 -0.033232 0.033337
v -0.000374 -0.037319 0.030315
v 0.010056 -0.035639 0.003999
v -0.004844 -0.033380 0.003980
v -0.006329 -0.035594 0.047871
v -0.011415 -0.034704 0.020711
v 0.010144 -0.036611 0.018613
v 0.005584 -0.029677 0.051953
v -0.002623 -0.029502 0.049656
v 0.005582 -0.037483 0.003975
v -0.007076 -0.037351 0.004184
v -0.003352 -0.037558 0.027015
v 0.007072 -0.033191 0.005410
v -0.008566 -0.033320 0.005415
v 0.005584 -0.035581 0.047871
v 0.007515 -0.031738 0.051470
v 0.007076 -0.029677 0.049864
v -0.007361 -0.029502 0.049651
v 0.004837 -0.033154 0.004667
v 0.007781 -0.036982 0.004008
v -0.005587 -0.029502 0.051896
v 0.005584 -0.032007 0.051939
v -0.007074 -0.033390 0.004136
v 0.006329 -0.033509 0.051153
v 0.010144 -0.033168 0.032740
v -0.007076 -0.034944 0.049457
v 0.005584 -0.034935 0.049448
v 0.007418 -0.029677 0.051498
v 0.004094 -0.036950 0.003786
v -0.011415 -0.036559 0.019428
v -0.011415 -0.034704 0.022217
v -0.006331 -0.037526 0.021796
v 0.006185 -0.033515 0.004245
v -0.006331 -0.036206 0.003843
v -0.006329 -0.033520 0.051167
v -0.007589 -0.035266 0.047871
v 0.008224 -0.033584 0.005017
v -0.007752 -0.029502 0.050850
v -0.002623 -0.037628 0.024036
v -0.008286 -0.033532 0.004255
v -0.011415 -0.036501 0.005183
v -0.007771 -0.033971 0.049358
v 0.007479 -0.032919 0.051266
v -0.008210 -0.037326 0.004302
v -0.007781 -0.032483 0.050850
v 0.006329 -0.034311 0.050438
v -0.007484 -0.031481 0.051991
v 0.004554 -0.037327 0.029643
v 0.007477 -0.033672 0.050542
v 0.007072 -0.037411 0.004605
v -0.005584 -0.037586 0.022606
v -0.011415 -0.036711 0.017325
v -0.006334 -0.033151 0.004671
v 0.006327 -0.037218 0.029240
v -0.011415 -0.035447 0.004690
v 0.010140 -0.036250 0.004662
v 0.006329 -0.032483 0.051740
v -0.006329 -0.034578 0.050059
v 0.007390 -0.030992 0.051910
v 0.010052 -0.036776 0.015843
v 0.010144 -0.036653 0.010558
v -0.006329 -0.029839 0.051977
v -0.011415 -0.035207 0.021573
v -0.007566 -0.034487 0.049931
v -0.007566 -0.033052 0.051347
v 0.008562 -0.036950 0.004667
v -0.007819 -0.033165 0.005415
v 0.010144 -0.036714 0.017472
v 0.006975 -0.035304 0.047871
v 0.005582 -0.037550 0.024036
v -0.006329 -0.037455 0.026271
v -0.006329 -0.032483 0.051730
v 0.003349 -0.033972 0.003762
v 0.002602 -0.037348 0.029842
v 0.005584 -0.030992 0.052133
v -0.006747 -0.037339 0.027758
v 0.002602 -0.037544 0.027015
v -0.010799 -0.036891 0.009886
v 0.006327 -0.037424 0.024779
v 0.004837 -0.037583 0.024036
v 0.001857 -0.037611 0.023292
v -0.005587 -0.030994 0.052104
v 0.006019 -0.037334 0.028345
v -0.006350 -0.037300 0.029283
v 0.010140 -0.035433 0.004667
v 0.006329 -0.035553 0.047871
v -0.003352 -0.037621 0.022606
v 0.007595 -0.029677 0.050850
v -0.008984 -0.033555 0.004951
v -0.007678 -0.030992 0.051593
v -0.010799 -0.036900 0.015081
v -0.010799 -0.036872 0.017325
v -0.007608 -0.029502 0.051513
v -0.011415 -0.036700 0.018074
v -0.004094 -0.037350 0.029870
v -0.005591 -0.033973 0.003814
v -0.007821 -0.036950 0.003980
f 30 93 1
f 2 28 101
f 22 93 18
f 18 24 22
f 14 93 22
f 22 24 14
f 93 30 42
f 42 30 90
f 18 93 42
f 90 30 66
f 94 60 43
f 72 23 58
f 58 28 72
f 58 23 14
f 14 24 58
f 16 56 49
f 49 56 37
f 49 46 2
f 41 99 81
f 81 10 41
f 35 99 41
f 43 60 11
f 11 36 43
f 9 101 28
f 28 58 9
f 5 78 9
f 9 78 101
f 9 24 5
f 9 58 24
f 74 4 91
f 20 10 7
f 44 15 86
f 101 78 34
f 38 78 5
f 5 24 38
f 38 24 18
f 18 42 38
f 90 66 61
f 55 3 65
f 75 15 55
f 65 84 55
f 55 84 75
f 19 94 43
f 43 23 19
f 19 23 72
f 2 60 45
f 60 94 45
f 45 28 2
f 94 19 45
f 72 28 45
f 45 19 72
f 75 84 88
f 16 15 92
f 92 56 16
f 92 15 44
f 44 56 92
f 96 49 37
f 10 81 89
f 43 36 6
f 36 50 6
f 47 50 36
f 75 88 85
f 85 88 82
f 85 15 75
f 85 86 15
f 85 82 44
f 44 86 85
f 2 101 39
f 101 34 39
f 90 61 8
f 78 38 8
f 8 34 78
f 8 42 90
f 8 38 42
f 71 66 3
f 3 55 71
f 71 61 66
f 82 88 53
f 91 20 53
f 53 88 91
f 73 84 65
f 65 3 73
f 97 96 37
f 97 81 99
f 57 97 99
f 96 97 57
f 46 49 83
f 49 96 83
f 83 57 46
f 96 57 83
f 7 10 100
f 10 89 100
f 43 6 95
f 95 6 50
f 95 98 43
f 50 70 95
f 91 4 51
f 69 35 41
f 69 47 35
f 69 70 50
f 50 47 69
f 68 47 36
f 35 47 68
f 27 64 80
f 80 64 13
f 33 64 93
f 13 64 33
f 26 13 33
f 14 26 33
f 33 93 14
f 2 39 102
f 102 49 2
f 16 49 102
f 102 39 34
f 102 15 16
f 102 34 15
f 25 55 15
f 25 71 55
f 15 34 25
f 34 8 25
f 25 8 61
f 61 71 25
f 82 53 79
f 79 20 7
f 79 53 20
f 59 88 84
f 84 73 59
f 91 88 59
f 59 74 91
f 59 73 74
f 1 4 12
f 4 74 12
f 74 73 12
f 76 97 37
f 81 97 76
f 37 56 76
f 76 89 81
f 7 100 17
f 17 79 7
f 82 79 17
f 44 82 17
f 17 56 44
f 17 76 56
f 17 100 89
f 89 76 17
f 98 95 52
f 52 95 70
f 70 69 40
f 10 20 32
f 32 20 91
f 91 51 32
f 26 98 67
f 98 52 67
f 67 13 26
f 67 80 13
f 27 52 77
f 77 52 70
f 70 40 77
f 51 40 63
f 63 40 69
f 63 32 51
f 51 48 29
f 29 40 51
f 54 51 4
f 54 48 51
f 54 4 1
f 1 48 54
f 93 64 21
f 64 48 21
f 1 93 21
f 21 48 1
f 80 67 87
f 87 67 52
f 27 80 87
f 87 52 27
f 10 32 31
f 32 63 31
f 31 63 69
f 41 10 31
f 31 69 41
f 62 29 48
f 62 64 27
f 62 48 64
f 27 77 62
f 62 77 40
f 40 29 62
f 98 23 43
f 14 23 98
f 98 26 14
f 2 46 68
f 68 60 2
f 68 11 60
f 99 35 68
f 68 57 99
f 36 11 68
f 46 57 68
f 12 30 1
f 3 66 12
f 12 66 30
f 12 73 3
