# generated by collision_forge
v 0.010145 0.000270 0.062750
v 0.010145 0.000270 0.061913
v 0.011467 0.004800 0.062272
v 0.011467 0.007756 0.061967
v 0.011467 0.009986 0.061635
v 0.011467 0.012810 0.061028
v 0.011467 0.012967 0.060992
v 0.011467 0.015474 0.060282
v 0.011467 0.015912 0.060135
v 0.011467 0.017593 0.059537
v 0.011467 0.019296 0.058831
v 0.011467 0.019666 0.058670
v 0.011467 0.020321 0.058345
v 0.011467 0.020617 0.058194
v 0.011467 0.021112 0.057939
v 0.011467 0.021312 0.057825
v 0.011467 0.021810 0.057527
v 0.011467 0.022070 0.057368
v 0.011467 0.022565 0.057043
v 0.011467 0.023075 0.056693
v 0.011467 0.023320 0.056513
v 0.011467 0.023552 0.056329
v 0.011467 0.024115 0.055852
v 0.011467 0.024759 0.055242
v 0.011467 0.024777 0.055225
v 0.011467 0.025365 0.054579
v 0.011467 0.026013 0.053799
v 0.011467 0.026180 0.053582
v 0.010145 -0.010205 0.061108
v 0.011339 0.000270 0.062471
v 0.011919 0.008860 0.061654
v 0.011908 0.012564 0.060899
v 0.011873 0.019225 0.058638
v 0.011938 0.024535 0.054977
v 0.011467 0.024567 0.053582
v 0.011770 0.025835 0.053582
v 0.017710 0.000270 0.050918
v 0.016988 0.000270 0.050918
v 0.016975 -0.000379 0.050918
v 0.016931 -0.005661 0.050918
v 0.011755 -0.006134 0.053964
v 0.012235 -0.010205 0.055892
v 0.010145 -0.010205 0.061949
v 0.010145 -0.002594 0.062718
v 0.011703 -0.000443 0.062279
v 0.012137 0.005523 0.061847
v 0.012018 0.007756 0.061733
v 0.012655 0.008803 0.060896
v 0.011962 0.014936 0.060198
v 0.011956 0.017145 0.059450
v 0.011978 0.021636 0.057249
v 0.012032 0.022494 0.056592
v 0.011641 0.012219 0.053582
v 0.012034 0.025457 0.053582
v 0.012139 0.025219 0.053582
v 0.012702 0.023887 0.053582
v 0.017423 0.009291 0.052830
v 0.017538 0.000270 0.052344
v 0.017710 0.000237 0.050918
v 0.017605 -0.005661 0.050918
v 0.012083 -0.006134 0.053727
v 0.011664 0.011474 0.053582
v 0.013055 -0.010205 0.055892
v 0.011266 -0.003424 0.062440
v 0.012164 0.001050 0.061908
v 0.012683 0.008305 0.060935
v 0.017348 0.009291 0.053050
v 0.012642 0.012482 0.060135
v 0.012712 0.023189 0.054398
v 0.012700 0.023876 0.053614
v 0.012715 0.022469 0.055125
v 0.017368 0.009291 0.052999
v 0.017349 0.005516 0.053053
v 0.017521 -0.005661 0.052344
v 0.017574 -0.005661 0.051599
v 0.013084 -0.010205 0.056814
v 0.010145 -0.006362 0.062482
v 0.011359 -0.009383 0.061765
v 0.012123 -0.004165 0.061861
v 0.012526 -0.001935 0.061438
v 0.012521 0.004775 0.061445
v 0.012702 0.007756 0.060964
v 0.012710 0.021696 0.055828
v 0.012689 0.020877 0.056497
v 0.012648 0.018512 0.057912
v 0.012696 0.016468 0.058731
v 0.012669 0.014844 0.059425
v 0.012755 0.004775 0.061072
v 0.012759 0.001050 0.061081
v 0.012759 0.000302 0.061080
v 0.017346 0.004771 0.053054
v 0.017306 -0.005661 0.053017
v 0.013029 -0.010205 0.059047
v 0.011527 -0.010205 0.061487
v 0.011202 -0.004688 0.062411
v 0.012087 -0.005657 0.061801
v 0.012752 -0.001935 0.061066
v 0.012703 -0.005657 0.060982
v 0.012667 -0.006793 0.060912
v 0.012684 -0.010205 0.060202
v 0.012087 -0.010205 0.061077
v 0.011953 -0.007691 0.061681
f 1 28 2
f 28 29 2
f 35 29 28
f 35 41 29
f 28 40 35
f 38 28 37
f 29 41 42
f 41 35 53
f 53 35 40
f 39 40 28
f 28 38 39
f 40 42 61
f 61 42 41
f 37 28 36
f 56 57 37
f 37 55 56
f 78 94 102
f 43 94 78
f 78 77 43
f 74 92 100
f 62 53 40
f 40 61 62
f 41 53 62
f 62 61 41
f 54 55 37
f 37 36 54
f 68 32 48
f 48 47 66
f 101 102 94
f 4 5 1
f 85 50 86
f 50 87 86
f 49 87 50
f 49 32 68
f 68 87 49
f 93 74 100
f 58 59 37
f 58 74 59
f 37 57 58
f 57 73 58
f 58 73 74
f 66 82 67
f 67 48 66
f 68 48 67
f 67 87 68
f 67 86 87
f 85 86 67
f 5 32 6
f 32 7 6
f 1 5 6
f 6 7 1
f 1 7 8
f 8 7 32
f 32 49 8
f 55 54 34
f 34 54 36
f 33 50 85
f 10 50 33
f 100 92 99
f 92 98 99
f 99 101 100
f 102 101 99
f 95 77 78
f 78 102 95
f 5 4 31
f 31 4 47
f 31 32 5
f 31 48 32
f 47 48 31
f 47 4 3
f 3 4 1
f 76 63 60
f 60 93 76
f 75 93 60
f 74 93 75
f 60 59 75
f 59 74 75
f 72 73 57
f 72 67 73
f 91 90 92
f 73 90 91
f 92 74 91
f 74 73 91
f 97 98 92
f 92 90 97
f 88 82 81
f 88 67 82
f 73 67 89
f 89 90 73
f 67 88 89
f 89 88 81
f 9 10 1
f 1 8 9
f 9 50 10
f 9 49 50
f 9 8 49
f 71 72 57
f 52 34 22
f 51 33 85
f 77 95 44
f 64 44 95
f 47 3 46
f 46 65 81
f 45 65 46
f 46 3 45
f 66 47 46
f 81 82 46
f 46 82 66
f 30 3 1
f 45 3 30
f 30 64 45
f 1 44 30
f 44 64 30
f 98 97 80
f 80 97 90
f 81 65 80
f 80 89 81
f 90 89 80
f 34 71 69
f 69 71 57
f 83 34 52
f 83 71 34
f 67 72 83
f 72 71 83
f 33 13 12
f 12 13 1
f 27 26 34
f 27 36 28
f 27 34 36
f 27 28 1
f 1 26 27
f 20 51 52
f 19 51 20
f 1 19 20
f 45 64 79
f 79 64 95
f 98 80 79
f 79 65 45
f 79 80 65
f 55 34 70
f 34 69 70
f 70 56 55
f 57 56 70
f 70 69 57
f 85 67 84
f 67 83 84
f 84 51 85
f 52 51 84
f 84 83 52
f 18 19 1
f 18 51 19
f 15 16 1
f 33 51 15
f 51 16 15
f 10 33 11
f 33 12 11
f 1 10 11
f 11 12 1
f 52 22 21
f 21 20 52
f 21 22 1
f 1 20 21
f 34 26 25
f 25 24 34
f 25 26 1
f 1 24 25
f 23 22 34
f 34 24 23
f 1 22 23
f 23 24 1
f 96 95 102
f 96 79 95
f 102 99 96
f 96 99 98
f 98 79 96
f 1 16 17
f 17 18 1
f 17 16 51
f 51 18 17
f 1 13 14
f 14 15 1
f 14 13 33
f 33 15 14
f 40 39 59
f 59 38 37
f 59 60 40
f 59 39 38
f 40 60 63
f 63 42 40
f 100 101 76
f 29 42 76
f 76 43 29
f 42 63 76
f 94 43 76
f 76 101 94
f 76 93 100
f 44 2 29
f 1 2 44
f 29 43 44
f 44 43 77
