# generated by collision_forge
v 0.018032 0.001047 0.015842
v 0.011467 0.026175 0.053577
v 0.011467 0.036106 0.004662
v 0.011467 0.034209 0.034454
v 0.011886 -0.010205 0.004167
v 0.013228 -0.007947 0.035083
v 0.011252 -0.010205 0.020643
v 0.011477 -0.001931 0.009137
v 0.017884 0.001190 0.050504
v 0.011467 0.036836 0.012199
v 0.011640 0.012230 0.053577
v 0.012698 0.030099 0.004197
v 0.012682 -0.004909 0.004246
v 0.012639 0.028188 0.048185
v 0.015272 -0.009896 0.018755
v 0.017885 0.005161 0.016203
v 0.011467 0.036928 0.015946
v 0.011467 0.036540 0.007665
v 0.012673 0.033078 0.004266
v 0.011467 0.033622 0.037383
v 0.013027 0.034564 0.011372
v 0.011467 0.032704 0.041159
v 0.011467 0.030441 0.047125
v 0.012702 0.023884 0.053577
v 0.011467 0.036965 0.018820
v 0.013420 0.009289 0.054647
v 0.012898 0.031581 0.036699
v 0.012684 -0.002679 0.004236
v 0.017896 -0.004604 0.016179
v 0.017989 0.003282 0.015971
v 0.016489 -0.008474 0.017333
v 0.011467 0.029665 0.048552
v 0.012021 0.033548 0.035945
v 0.011467 0.024563 0.053577
v 0.013411 0.034195 0.019182
v 0.012695 -0.010205 0.020643
v 0.016846 -0.006419 0.050911
v 0.011467 0.031974 0.043393
v 0.012775 0.030085 0.042898
v 0.011467 0.036771 0.010629
v 0.012165 0.036637 0.019568
v 0.011467 0.035372 0.004088
v 0.017906 0.000304 0.015445
v 0.017958 -0.003418 0.016025
v 0.011467 0.033442 0.038185
v 0.014530 -0.010118 0.018820
v 0.017622 -0.006419 0.050911
v 0.011467 0.036924 0.019573
v 0.017578 0.010730 0.052338
v 0.011665 0.011482 0.053577
v 0.011979 0.035779 0.005411
v 0.011970 0.029785 0.047620
v 0.017966 0.004021 0.016050
v 0.011467 0.031097 0.045613
v 0.017995 0.009982 0.050093
v 0.016677 0.010730 0.053636
v 0.011467 0.032897 0.040465
v 0.011467 0.032482 0.041857
v 0.011467 0.026576 0.053027
v 0.011467 0.036882 0.013691
v 0.011467 0.030002 0.047997
v 0.011467 0.036804 0.011372
v 0.011467 0.031401 0.044885
v 0.012953 0.034564 0.009885
v 0.012149 0.036642 0.014350
v 0.012753 0.035853 0.019568
v 0.015273 -0.008571 0.035083
v 0.011467 0.036721 0.009885
v 0.011467 0.036411 0.006436
v 0.011467 0.036240 0.005282
v 0.015649 -0.009753 0.018389
v 0.012703 0.028326 0.047690
v 0.017384 0.000271 0.052818
v 0.011467 0.030644 0.046664
v 0.011467 0.035862 0.004127
v 0.017328 0.010730 0.052997
v 0.011946 0.031983 0.042368
v 0.012674 0.029744 0.044563
v 0.017888 0.011113 0.050390
v 0.012537 0.036222 0.019568
v 0.017172 -0.006913 0.017016
v 0.012673 0.034213 0.004950
v 0.018031 0.000304 0.015842
v 0.012677 0.035705 0.012323
v 0.012168 0.034564 0.004028
v 0.012294 -0.010205 0.004157
v 0.017919 0.004764 0.016149
v 0.015209 0.009982 0.054265
v 0.012670 -0.010205 0.004281
v 0.012666 0.033456 0.004291
v 0.011467 0.036480 0.007051
v 0.011249 -0.010127 0.020306
v 0.012274 0.024896 0.053577
v 0.012034 0.025459 0.053577
v 0.011770 0.025833 0.053577
v 0.011467 0.030132 0.047769
v 0.011788 0.010702 0.053577
v 0.017925 -0.004166 0.016114
v 0.017888 0.011113 0.050529
v 0.011467 0.032112 0.042997
v 0.011450 -0.010127 0.011372
v 0.011249 -0.010205 0.020306
f 101 8 5
f 102 101 5
f 71 31 47
f 26 2 34
f 26 50 97
f 56 73 76
f 31 71 89
f 48 25 92
f 92 4 48
f 11 50 26
f 26 34 11
f 37 97 6
f 26 97 37
f 37 67 47
f 37 73 26
f 47 73 37
f 7 97 50
f 50 11 7
f 6 97 7
f 7 34 102
f 7 11 34
f 7 37 6
f 67 37 7
f 36 67 7
f 26 73 88
f 73 56 88
f 24 56 76
f 24 88 56
f 9 73 47
f 42 102 92
f 92 75 42
f 101 102 42
f 8 101 42
f 5 8 42
f 42 85 5
f 42 75 85
f 5 85 86
f 31 89 81
f 81 89 29
f 47 31 81
f 81 29 47
f 36 89 46
f 46 67 36
f 92 22 57
f 57 45 92
f 20 4 92
f 92 45 20
f 92 2 59
f 59 32 92
f 61 96 92
f 92 32 61
f 95 2 26
f 95 59 2
f 26 88 94
f 94 95 26
f 16 55 87
f 55 53 87
f 30 55 1
f 30 53 55
f 85 75 51
f 16 87 90
f 90 87 53
f 53 30 90
f 85 12 28
f 28 86 85
f 12 43 28
f 83 43 1
f 1 55 83
f 55 9 83
f 89 43 44
f 43 83 44
f 44 83 9
f 44 9 47
f 67 46 15
f 47 67 15
f 15 71 47
f 15 89 71
f 15 46 89
f 58 22 92
f 92 100 58
f 92 63 38
f 38 100 92
f 92 96 23
f 23 74 92
f 54 63 92
f 92 74 54
f 88 24 93
f 93 94 88
f 4 20 33
f 33 20 45
f 45 57 33
f 84 51 65
f 51 84 82
f 16 90 82
f 85 51 82
f 82 90 85
f 19 30 1
f 19 90 30
f 1 43 19
f 19 43 12
f 19 12 85
f 85 90 19
f 89 86 13
f 86 28 13
f 13 43 89
f 13 28 43
f 29 89 98
f 89 44 98
f 47 29 98
f 98 44 47
f 49 24 76
f 55 99 49
f 76 73 49
f 73 9 49
f 49 9 55
f 72 99 78
f 79 55 16
f 79 99 55
f 3 51 75
f 3 75 92
f 65 51 69
f 21 84 35
f 99 79 35
f 16 21 35
f 35 79 16
f 100 38 77
f 77 58 100
f 77 38 63
f 22 58 77
f 77 57 22
f 77 33 57
f 64 84 21
f 64 82 84
f 64 21 16
f 16 82 64
f 95 94 52
f 52 61 32
f 32 59 52
f 59 95 52
f 96 61 52
f 52 23 96
f 74 23 52
f 52 72 78
f 78 77 52
f 52 54 74
f 63 54 52
f 52 77 63
f 25 65 17
f 65 60 17
f 92 25 17
f 17 60 92
f 18 68 65
f 92 68 18
f 51 3 70
f 70 69 51
f 70 3 92
f 92 69 70
f 33 77 27
f 99 35 27
f 80 84 65
f 14 52 94
f 72 52 14
f 94 93 14
f 14 93 24
f 24 49 14
f 14 49 99
f 99 72 14
f 65 68 40
f 40 62 65
f 40 68 92
f 92 62 40
f 10 60 65
f 65 62 10
f 92 60 10
f 10 62 92
f 65 69 91
f 91 18 65
f 91 69 92
f 92 18 91
f 39 77 78
f 39 27 77
f 78 99 39
f 99 27 39
f 41 48 4
f 4 33 41
f 33 80 41
f 25 48 41
f 41 65 25
f 41 80 65
f 66 27 35
f 66 35 84
f 84 80 66
f 33 27 66
f 66 80 33
f 92 102 34
f 34 2 92
f 36 7 86
f 86 102 5
f 86 89 36
f 86 7 102
