# generated by collision_forge
v 0.017652 -0.007154 0.050850
v 0.010145 -0.036020 0.004016
v 0.013226 -0.007957 0.022550
v 0.010145 -0.032246 0.039773
v 0.012669 -0.016095 0.004288
v 0.012675 -0.035098 0.019973
v 0.010144 -0.010206 0.061950
v 0.016396 -0.007574 0.037758
v 0.011454 -0.010206 0.011382
v 0.012514 -0.007413 0.030744
v 0.012234 -0.006137 0.055889
v 0.011886 -0.010206 0.004174
v 0.010145 -0.036738 0.016722
v 0.012670 -0.032968 0.005673
v 0.012659 -0.020179 0.056428
v 0.012672 -0.034362 0.009339
v 0.016017 -0.005663 0.054034
v 0.010145 -0.028467 0.049965
v 0.012681 -0.022471 0.054238
v 0.015260 -0.006426 0.035085
v 0.012684 -0.010206 0.060196
v 0.011389 -0.008642 0.028508
v 0.010144 -0.014373 0.060968
v 0.013678 -0.005663 0.053710
v 0.012079 -0.034715 0.004033
v 0.017305 -0.007154 0.052995
v 0.011755 -0.006137 0.053954
v 0.010145 -0.036611 0.018628
v 0.010633 -0.018122 0.059498
v 0.010145 -0.036665 0.010740
v 0.011549 -0.036114 0.019576
v 0.012738 -0.021260 0.055282
v 0.010145 -0.036410 0.006161
v 0.010145 -0.029976 0.046997
v 0.017306 -0.005663 0.053006
v 0.010144 -0.021120 0.058029
v 0.011527 -0.010206 0.061485
v 0.011975 -0.030667 0.041906
v 0.012675 -0.015770 0.058687
v 0.016419 -0.006426 0.038150
v 0.011164 -0.025390 0.053438
v 0.010144 -0.022240 0.057297
v 0.011192 -0.031373 0.041577
v 0.012670 -0.029139 0.043802
v 0.010145 -0.036723 0.012863
v 0.012684 -0.017297 0.057966
v 0.011891 -0.028351 0.048189
v 0.012670 -0.032222 0.004969
v 0.012669 -0.033622 0.006433
v 0.010145 -0.031403 0.043161
v 0.012037 -0.019075 0.058051
v 0.011693 -0.008128 0.029252
v 0.016931 -0.005663 0.050912
v 0.011982 -0.035886 0.012114
v 0.010144 -0.010206 0.061104
v 0.013064 -0.006137 0.055889
v 0.012020 -0.035217 0.004674
v 0.016056 -0.006426 0.035085
v 0.012669 -0.010206 0.004288
v 0.010145 -0.036754 0.015223
v 0.010145 -0.036693 0.011518
v 0.013018 -0.026522 0.047859
v 0.016699 -0.005663 0.053670
v 0.010145 -0.036711 0.017482
v 0.012070 -0.030767 0.041163
v 0.012954 -0.028010 0.044886
v 0.012867 -0.033969 0.014355
v 0.012995 -0.028753 0.041906
v 0.012650 -0.028753 0.004328
v 0.017597 -0.007154 0.051593
v 0.012478 -0.007373 0.031487
v 0.012845 -0.034715 0.018827
v 0.012668 -0.016835 0.004288
v 0.017510 -0.007154 0.048608
v 0.017632 -0.007154 0.050101
v 0.010867 -0.010206 0.061785
v 0.012928 -0.027264 0.047122
v 0.012155 -0.033969 0.004016
v 0.010145 -0.026108 0.053381
v 0.012087 -0.010206 0.061070
v 0.017523 -0.007154 0.052337
v 0.011976 -0.035871 0.020064
v 0.010145 -0.036248 0.004668
v 0.010145 -0.036352 0.005474
v 0.010618 -0.030716 0.044886
v 0.017604 -0.005663 0.050912
v 0.012669 -0.035092 0.016858
v 0.011264 -0.024005 0.055032
v 0.011735 -0.006137 0.054573
v 0.011353 -0.008642 0.029252
v 0.012500 -0.013116 0.059879
v 0.012065 -0.035953 0.017329
v 0.012827 -0.034715 0.019576
v 0.011241 -0.015837 0.060196
v 0.011217 -0.013578 0.060929
v 0.011079 -0.029060 0.048103
v 0.010483 -0.032131 0.040164
v 0.011938 -0.023938 0.054227
v 0.011994 -0.029197 0.046174
v 0.011877 -0.020879 0.057138
v 0.017248 -0.007653 0.052893
v 0.012683 -0.027666 0.047553
f 11 89 7
f 9 12 2
f 12 9 22
f 22 9 90
f 90 9 55
f 7 89 55
f 89 90 55
f 55 9 2
f 52 10 12
f 12 22 52
f 12 10 3
f 3 10 20
f 3 58 12
f 20 58 3
f 27 52 22
f 27 90 89
f 27 22 90
f 56 11 7
f 12 58 59
f 69 73 8
f 48 69 8
f 8 74 48
f 48 74 75
f 57 83 2
f 57 84 83
f 32 101 15
f 19 101 32
f 36 29 23
f 98 32 15
f 19 32 98
f 20 10 71
f 71 27 20
f 10 52 71
f 52 27 71
f 21 35 80
f 76 56 7
f 86 75 74
f 1 75 86
f 86 70 1
f 24 53 20
f 20 27 24
f 24 27 89
f 89 11 24
f 74 8 40
f 58 86 40
f 40 86 74
f 40 59 58
f 40 8 59
f 5 8 73
f 59 8 5
f 6 65 82
f 43 85 97
f 97 82 43
f 87 57 16
f 25 57 2
f 6 93 68
f 68 93 1
f 1 70 68
f 68 70 66
f 47 96 99
f 99 96 85
f 81 101 19
f 19 62 81
f 81 86 35
f 70 86 81
f 15 101 46
f 101 39 46
f 46 51 15
f 39 51 46
f 21 80 91
f 100 29 36
f 100 51 29
f 15 51 100
f 100 98 15
f 88 98 100
f 42 79 88
f 42 100 36
f 88 100 42
f 18 79 42
f 42 45 60
f 42 61 45
f 30 61 42
f 33 30 42
f 42 84 33
f 83 84 42
f 2 83 42
f 42 55 2
f 88 79 41
f 47 98 41
f 41 98 88
f 41 96 47
f 41 79 18
f 18 96 41
f 102 62 19
f 19 98 102
f 102 98 47
f 47 99 102
f 11 56 17
f 17 24 11
f 56 76 17
f 17 76 37
f 13 42 60
f 64 42 13
f 92 87 6
f 6 82 92
f 60 45 92
f 92 13 60
f 34 96 18
f 85 96 34
f 18 42 34
f 4 97 50
f 50 97 85
f 85 34 50
f 50 42 4
f 50 34 42
f 28 97 4
f 4 42 28
f 28 42 64
f 75 16 49
f 49 16 57
f 57 25 49
f 67 75 1
f 67 16 75
f 78 69 48
f 48 25 78
f 78 73 69
f 78 5 73
f 59 5 78
f 12 59 78
f 2 12 78
f 78 25 2
f 44 68 66
f 44 65 6
f 6 68 44
f 44 102 99
f 43 82 38
f 38 82 65
f 38 85 43
f 38 99 85
f 65 44 38
f 38 44 99
f 26 39 101
f 26 91 39
f 21 91 26
f 26 35 21
f 26 81 35
f 101 81 26
f 94 51 39
f 39 91 94
f 29 51 94
f 94 23 29
f 62 102 77
f 77 81 62
f 77 44 66
f 102 44 77
f 66 70 77
f 70 81 77
f 63 80 35
f 37 80 63
f 63 17 37
f 54 57 87
f 87 92 54
f 33 84 54
f 84 57 54
f 54 30 33
f 54 61 30
f 45 61 54
f 54 92 45
f 82 97 31
f 97 28 31
f 31 28 64
f 31 92 82
f 64 13 31
f 13 92 31
f 48 75 14
f 75 49 14
f 14 25 48
f 14 49 25
f 16 67 72
f 87 16 72
f 1 93 72
f 72 67 1
f 6 87 72
f 72 93 6
f 95 91 80
f 95 94 91
f 95 80 37
f 37 76 95
f 23 94 95
f 7 23 95
f 95 76 7
f 20 53 86
f 86 58 20
f 42 23 7
f 7 55 42
f 36 23 42
f 63 86 53
f 35 86 63
f 53 24 63
f 24 17 63
