<?xml version="1.0" standalone="no"?>
<!DOCTYPE svg PUBLIC "-//W3C//DTD SVG 20010904//EN"
   "http://www.w3.org/TR/2001/REC-SVG-20010904/DTD/svg10.dtd">

<svg xmlns="http://www.w3.org/2000/svg" xmlns:xlink="http://www.w3.org/1999/xlink">
   <g id="cvpage1_top" width="612px" height="792px" transform="translate(0,0)">
      <rect x="0px" y="0px" width="612px" height="792px" fill="#FFFFFF" stroke="none" />
      <path d="M 330.111 234.527 C 340.563 218.334 381.77 207.439 400.291 213.693 C 414.668 218.547 436.164 206.328 449.698 221.211 C 460.285 232.853 471.459 218.547 477.828 232.02 C 486.038 249.388 486.125 253.326 480.317 269.004 C 475.162 297.034 464.103 312.059 431.093 314.828 C 401.187 314.822 392.123 305.307 361.528 306.667 C 324.263 308.243 323.806 296.586 323.026 284.325 C 322.46 275.414 320.314 245.763 330.371 234.527 " fill="#B4FFFF" fill-rule="nonzero" stroke="#000064" />
      <circle cx="414.853px" cy="236.908px" r="5.213px" fill="#FFF" fill-rule="nonzero" stroke="#1F1A17" stroke-width="0.25px" />
      <path d="M 414.853 242.121 C 411.994 242.121 409.64 239.767 409.64 236.908 C 409.64 236.908 414.853 236.908 414.853 236.908 C 414.853 236.908 414.853 242.121 414.853 242.121 " fill="#1F1A17" fill-rule="evenodd" stroke="none" />
      <path d="M 414.853 242.121 C 411.994 242.121 409.64 239.767 409.64 236.908 " fill="none" stroke="#1F1A17" stroke-width="0.25px" />
      <path d="M 414.854 231.704 C 417.713 231.704 420.067 234.057 420.067 236.917 C 420.067 236.917 414.854 236.917 414.854 236.917 C 414.854 236.917 414.854 231.704 414.854 231.704 " fill="#1F1A17" fill-rule="evenodd" stroke="none" />
      <path d="M 414.854 231.704 C 417.713 231.704 420.067 234.057 420.067 236.917 " fill="none" stroke="#1F1A17" stroke-width="0.25px" />
      <path d="M 457.781 219.054 C 457.781 215.94 459.854 213.251 463.194 212.035 " fill="none" stroke="#00008C" />
      <polyline points="457.81,226.313 459.643,218.298 455.919,218.298 457.81,226.313 " fill="#00008C" fill-rule="evenodd" stroke="none" />
      <circle cx="470.793px" cy="209.295px" r="7.792px" fill="none" stroke="#00008C" />
      <rect x="438.578px" y="286.31px" width="4.83px" height="4.83px" fill="#FFF" fill-rule="nonzero" stroke="#00008C" stroke-width="0.5px" />
      <line x1="438.669px" y1="286.422px" x2="443.323px" y2="291.076px" fill="none" stroke="#00008C" />
      <line x1="443.315px" y1="286.443px" x2="438.662px" y2="291.096px" fill="none" stroke="#00008C" />
      <path d="M 187.896 235.693 C 201.959 232.021 217.963 221.041 226.624 220.69 C 231.965 220.474 241.783 220.397 250.604 231.321 C 260.331 243.369 267.159 248.673 276.018 265.877 C 279.386 272.417 270.229 281.505 262.108 290.964 C 254.119 300.27 255.235 302.979 231.287 306.089 C 219.224 307.656 207.831 317.451 201.332 320.972 C 189.06 327.62 176.625 329.594 161.137 328.178 C 151.78 327.323 135.947 325.039 128.809 319.356 C 120.535 312.77 125.18 294.021 120.819 278.051 C 117.376 265.44 116.422 255.608 128.039 247.642 C 132.067 244.88 140.429 242.377 150.517 245.609 C 163.329 249.713 178.365 238.398 187.946 235.668 " fill="#FFC78E" fill-rule="nonzero" stroke="#C86400" />
      <path d="M 141.69 236.565 C 141.69 233.602 139.728 231.043 136.567 229.885 " fill="none" stroke="#C86400" />
      <polyline points="141.661,243.825 139.828,235.81 143.552,235.81 141.661,243.825 " fill="#C86400" fill-rule="evenodd" stroke="none" />
      <ellipse cx="130.281px" cy="226.858px" rx="7.331px" ry="7.543px" fill="none" stroke="#C86400" />
      <circle cx="173.873px" cy="257.267px" r="5.212px" fill="#FFF" fill-rule="nonzero" stroke="#1F1A17" stroke-width="0.25px" />
      <path d="M 173.873 262.479 C 171.014 262.479 168.661 260.126 168.661 257.267 C 168.661 257.267 173.873 257.267 173.873 257.267 C 173.873 257.267 173.873 262.479 173.873 262.479 " fill="#1F1A17" fill-rule="evenodd" stroke="none" />
      <path d="M 173.873 262.479 C 171.014 262.479 168.661 260.126 168.661 257.267 " fill="none" stroke="#1F1A17" stroke-width="0.25px" />
      <path d="M 173.873 252.064 C 176.732 252.064 179.085 254.417 179.085 257.276 C 179.085 257.276 173.873 257.276 173.873 257.276 C 173.873 257.276 173.873 252.064 173.873 252.064 " fill="#1F1A17" fill-rule="evenodd" stroke="none" />
      <path d="M 173.873 252.064 C 176.732 252.064 179.085 254.417 179.085 257.276 " fill="none" stroke="#1F1A17" stroke-width="0.25px" />
      <rect x="155.137px" y="295.293px" width="4.83px" height="4.83px" fill="#FFF" fill-rule="nonzero" stroke="#C86400" stroke-width="0.5px" />
      <line x1="155.187px" y1="295.404px" x2="159.841px" y2="300.058px" fill="none" stroke="#C86400" />
      <line x1="159.833px" y1="295.425px" x2="155.18px" y2="300.078px" fill="none" stroke="#C86400" />
      <line x1="270.573px" y1="249.72px" x2="283.939px" y2="246.138px" fill="none" stroke="#C86400" stroke-width="2px" stroke-miterlimit="11.474" />
      <polyline points="281.641,243.518 283.258,249.553 293.059,243.745 281.641,243.518 " fill="#C86400" fill-rule="evenodd" stroke="none" />
      <rect x="263.757px" y="249.883px" width="4.83px" height="4.83px" fill="#FFF" fill-rule="nonzero" stroke="#C86400" stroke-width="0.5px" />
      <line x1="263.807px" y1="249.994px" x2="268.461px" y2="254.648px" fill="none" stroke="#C86400" />
      <line x1="268.453px" y1="250.015px" x2="263.8px" y2="254.668px" fill="none" stroke="#C86400" />
      <line x1="264.269px" y1="247.744px" x2="260.889px" y2="235.13px" fill="none" stroke="#C86400" stroke-width="2px" stroke-miterlimit="11.474" />
      <polyline points="258.268,237.428 264.304,235.811 258.496,226.01 258.268,237.428 " fill="#C86400" fill-rule="evenodd" stroke="none" />
      <line x1="262.338px" y1="255.059px" x2="253.769px" y2="263.687px" fill="none" stroke="#C86400" stroke-width="2px" stroke-miterlimit="11.474" />
      <polyline points="257.074,264.796 252.64,260.393 247.091,270.343 257.074,264.796 " fill="#C86400" fill-rule="evenodd" stroke="none" />
      <line x1="331.02px" y1="244.535px" x2="344.648px" y2="246.938px" fill="none" stroke="#000078" stroke-width="2px" stroke-miterlimit="11.474" />
      <polyline points="343.672,243.591 342.587,249.744 353.925,248.623 343.672,243.591 " fill="#000078" fill-rule="evenodd" stroke="none" />
      <line x1="326.807px" y1="240.408px" x2="329.075px" y2="227.547px" fill="none" stroke="#000078" stroke-width="2px" stroke-miterlimit="11.474" />
      <polyline points="325.729,228.523 331.882,229.608 330.76,218.27 325.729,228.523 " fill="#000078" fill-rule="evenodd" stroke="none" />
      <line x1="321.233px" y1="244.809px" x2="309.499px" y2="247.997px" fill="none" stroke="#000078" stroke-width="2px" stroke-miterlimit="11.474" />
      <polyline points="311.806,250.61 310.168,244.58 300.387,250.422 311.806,250.61 " fill="#000078" fill-rule="evenodd" stroke="none" />
      <rect x="324.264px" y="241.425px" width="4.83px" height="4.83px" fill="#FFF" fill-rule="nonzero" stroke="#00008C" stroke-width="0.5px" />
      <line x1="324.355px" y1="241.537px" x2="329.01px" y2="246.191px" fill="none" stroke="#00008C" />
      <line x1="329.001px" y1="241.558px" x2="324.348px" y2="246.211px" fill="none" stroke="#00008C" />
      <path d="M 365.192 241.667 L 364.575 246.629 M 363.752 249.461 L 361.383 253.864 M 359.532 256.193 L 356.069 259.8 M 353.798 261.738 L 349.702 264.606 M 347.244 266.326 L 347.1 266.427 L 342.783 268.581 M 340.099 269.921 L 337.322 271.306 L 335.535 271.942 M 332.709 272.948 L 327.999 274.625 M 325.146 275.543 L 320.284 276.71 M 317.367 277.41 L 313.364 278.371 L 312.489 278.491 M 309.517 278.897 L 304.563 279.575 M 301.59 279.981 L 299.727 280.236 L 299.727 280.236 L 296.61 280.356 M 293.612 280.472 L 288.616 280.665 M 285.619 280.745 L 280.628 280.44 M 277.634 280.257 L 273.016 279.974 L 272.647 279.912 M 269.689 279.412 L 264.759 278.579 M 261.801 278.079 L 261.152 277.969 L 256.99 276.735 M 254.114 275.882 L 250.676 274.862 L 249.394 274.264 M 246.675 272.997 L 242.143 270.884 M 239.693 269.162 L 235.656 266.211 M 233.661 263.998 L 230.563 260.073 M 229.664 257.215 L 228.56 253.619 L 228.56 253.619 L 228.712 252.39 M 229.082 249.413 L 229.386 246.963 L 230.586 244.734 M 232.007 242.092 L 232.858 240.51 L 235.077 238.2 M 237.155 236.036 L 238.704 234.422 L 240.968 232.838 M 243.425 231.117 L 246.652 228.858 L 247.602 228.384 M 250.286 227.045 L 254.76 224.812 M 257.498 223.599 L 262.209 221.922 M 265.035 220.916 L 267.765 219.945 L 269.809 219.454 M 272.726 218.754 L 277.588 217.587 M 280.507 216.898 L 285.461 216.221 M 288.433 215.814 L 293.387 215.137 M 296.38 214.959 L 301.376 214.766 M 304.374 214.65 L 307.778 214.519 L 309.368 214.616 M 312.363 214.799 L 317.353 215.104 M 320.348 215.287 L 320.735 215.311 L 325.283 216.08 M 328.241 216.58 L 332.599 217.316 L 333.155 217.481 M 336.031 218.334 L 340.825 219.756 M 343.666 220.699 L 348.198 222.812 M 350.917 224.08 L 351.868 224.523 L 355.058 226.854 M 357.48 228.625 L 358.682 229.504 L 360.857 232.259 M 362.716 234.614 L 363.222 235.255 L 364.45 239.254 Z" fill="none" stroke="#000" />
      <line x1="162.084px" y1="297.967px" x2="176.025px" y2="297.937px" fill="none" stroke="#C86400" stroke-width="2px" stroke-miterlimit="11.474" />
      <polyline points="174.477,295.226 174.489,300.65 185.454,297.958 174.477,295.226 " fill="#C86400" fill-rule="evenodd" stroke="none" />
      <line x1="157.171px" y1="293.671px" x2="157.141px" y2="279.73px" fill="none" stroke="#C86400" stroke-width="2px" stroke-miterlimit="11.474" />
      <polyline points="154.43,281.278 159.854,281.266 157.162,270.301 154.43,281.278 " fill="#C86400" fill-rule="evenodd" stroke="none" />
      <line x1="153.927px" y1="301.034px" x2="145.897px" y2="309.554px" fill="none" stroke="#C86400" stroke-width="2px" stroke-miterlimit="11.474" />
      <polyline points="148.929,310.293 144.982,306.573 139.399,316.386 148.929,310.293 " fill="#C86400" fill-rule="evenodd" stroke="none" />
      <line x1="446.265px" y1="289.521px" x2="460.205px" y2="289.491px" fill="none" stroke="#000078" stroke-width="2px" stroke-miterlimit="11.474" />
      <polyline points="458.658,286.78 458.67,292.204 469.634,289.512 458.658,286.78 " fill="#000078" fill-rule="evenodd" stroke="none" />
      <line x1="440.934px" y1="284.143px" x2="440.904px" y2="270.202px" fill="none" stroke="#000078" stroke-width="2px" stroke-miterlimit="11.474" />
      <polyline points="438.193,271.75 443.617,271.738 440.925,260.774 438.193,271.75 " fill="#000078" fill-rule="evenodd" stroke="none" />
      <line x1="436.39px" y1="292.86px" x2="428.36px" y2="301.38px" fill="none" stroke="#000078" stroke-width="2px" stroke-miterlimit="11.474" />
      <polyline points="431.392,302.12 427.445,298.399 421.862,308.212 431.392,302.12 " fill="#000078" fill-rule="evenodd" stroke="none" />
      <g transform="translate(466.751,202.675)" font-size="12px" fill="#00008C" font-family="'Times New Roman', serif">
         <text x="0px" y="12px">
            B
         </text>
      </g>
      <g transform="translate(401.478,235.425)" font-size="10px" fill="#000082" font-family="'Times New Roman', serif">
         <text x="0px" y="12px" font-size="12px">
            B<tspan font-size="10px" letter-spacing="0px" baseline-shift="sub">cm</tspan>
         </text>
      </g>
      <g transform="translate(438.156,290.878)" font-size="10px" fill="#000078" font-family="'Times New Roman', serif">
         <text x="0px" y="12px" font-size="12px">
            B<tspan font-size="10px" baseline-shift="sub">o</tspan>
         </text>
      </g>
      <g transform="translate(126.865,219.659)" font-size="12px" fill="#C86400" font-family="'Times New Roman', serif">
         <text x="0px" y="12px">
            P
         </text>
      </g>
      <g transform="translate(141.085,217.709)" font-size="12px" fill="#C86400" font-family="'Times New Roman', serif">
         <text x="0px" y="12px">
            Parent body
         </text>
      </g>
      <g transform="translate(180.037,241.118)" font-size="10px" fill="#C86400" font-family="'Times New Roman', serif">
         <text x="0px" y="12px" font-size="12px">
            P<tspan font-size="10px" letter-spacing="0px" baseline-shift="sub">cm</tspan>
         </text>
      </g>
      <g transform="translate(154.892,298.524)" font-size="10px" fill="#C86400" font-family="'Times New Roman', serif">
         <text x="0px" y="12px" font-size="12px">
            P<tspan font-size="10px" baseline-shift="sub">o</tspan>
         </text>
      </g>
      <g transform="translate(263.25,253.578)" font-size="10px" fill="#C86400" font-family="'Times New Roman', serif">
         <text x="0px" y="12px" font-size="12px">
            F<tspan font-size="10px" baseline-shift="sub">o</tspan>
         </text>
      </g>
      <g transform="translate(404.383,200.257)" font-size="12px" fill="#00008C" font-family="'Times New Roman', serif">
         <text x="0px" y="12px">
            Child body
         </text>
      </g>
      <g transform="translate(324.6,244.861)" font-size="10px" fill="#000078" font-family="'Times New Roman', serif">
         <text x="0px" y="12px" font-size="12px">
            M<tspan font-size="10px" baseline-shift="sub">o</tspan>
         </text>
      </g>
      <g transform="translate(265.66,224.905)" font-size="12px" fill="#C86400" font-family="'Times New Roman', serif">
         <text x="0px" y="12px">
            F
         </text>
      </g>
      <g transform="translate(279.57,202.387)" font-size="10px" font-family="'Times New Roman', serif">
         <text x="0px" y="10px" font-weight="bold">
            Joint
         </text>
      </g>
      <g transform="translate(314.693,219.206)" font-size="12px" fill="#000078" font-family="'Times New Roman', serif">
         <text x="0px" y="12px">
            M
         </text>
      </g>
   </g>
</svg>