<?xml version="1.0" encoding="UTF-8" standalone="no"?>
<!-- Created with Inkscape (http://www.inkscape.org/) -->

<svg
   width="126.95039mm"
   height="49.041092mm"
   viewBox="0 0 126.95039 49.041092"
   version="1.1"
   id="svg5"
   inkscape:version="1.1.2 (0a00cf5339, 2022-02-04)"
   sodipodi:docname="hydro_analytic.svg"
   xmlns:inkscape="http://www.inkscape.org/namespaces/inkscape"
   xmlns:sodipodi="http://sodipodi.sourceforge.net/DTD/sodipodi-0.dtd"
   xmlns:xlink="http://www.w3.org/1999/xlink"
   xmlns="http://www.w3.org/2000/svg"
   xmlns:svg="http://www.w3.org/2000/svg">
  <sodipodi:namedview
     id="namedview7"
     pagecolor="#ffffff"
     bordercolor="#000000"
     borderopacity="0.25"
     inkscape:pageshadow="2"
     inkscape:pageopacity="0.0"
     inkscape:pagecheckerboard="0"
     inkscape:document-units="mm"
     showgrid="false"
     inkscape:zoom="1.1253557"
     inkscape:cx="-562.48882"
     inkscape:cy="81.307626"
     inkscape:window-width="3770"
     inkscape:window-height="1536"
     inkscape:window-x="70"
     inkscape:window-y="27"
     inkscape:window-maximized="1"
     inkscape:current-layer="layer1"
     inkscape:snap-global="true"
     inkscape:object-paths="true"
     inkscape:snap-center="true"
     inkscape:snap-intersection-paths="true"
     fit-margin-top="0"
     fit-margin-left="0"
     fit-margin-right="0"
     fit-margin-bottom="0">
    <inkscape:grid
       type="xygrid"
       id="grid3137"
       originx="-59.761191"
       originy="-130.33678" />
  </sodipodi:namedview>
  <defs
     id="defs2">
    <marker
       style="overflow:visible"
       id="DotM"
       refX="0"
       refY="0"
       orient="auto"
       inkscape:stockid="DotM"
       inkscape:isstock="true">
      <path
         transform="matrix(0.4,0,0,0.4,2.96,0.4)"
         style="fill:context-stroke;fill-rule:evenodd;stroke:context-stroke;stroke-width:1pt"
         d="m -2.5,-1 c 0,2.76 -2.24,5 -5,5 -2.76,0 -5,-2.24 -5,-5 0,-2.76 2.24,-5 5,-5 2.76,0 5,2.24 5,5 z"
         id="path9442" />
    </marker>
    <inkscape:path-effect
       effect="spiro"
       id="path-effect29503"
       is_visible="true"
       lpeversion="1" />
    <inkscape:path-effect
       effect="spiro"
       id="path-effect13348"
       is_visible="true"
       lpeversion="1" />
    <marker
       style="overflow:visible"
       id="marker10587"
       refX="0"
       refY="0"
       orient="auto"
       inkscape:stockid="Arrow1Mend"
       inkscape:isstock="true">
      <path
         transform="matrix(-0.4,0,0,-0.4,-4,0)"
         style="fill:context-stroke;fill-rule:evenodd;stroke:context-stroke;stroke-width:1pt"
         d="M 0,0 5,-5 -12.5,0 5,5 Z"
         id="path10585" />
    </marker>
    <marker
       style="overflow:visible"
       id="Arrow1Mstart"
       refX="0"
       refY="0"
       orient="auto"
       inkscape:stockid="Arrow1Mstart"
       inkscape:isstock="true">
      <path
         transform="matrix(0.4,0,0,0.4,4,0)"
         style="fill:context-stroke;fill-rule:evenodd;stroke:context-stroke;stroke-width:1pt"
         d="M 0,0 5,-5 -12.5,0 5,5 Z"
         id="path9384" />
    </marker>
    <marker
       style="overflow:visible"
       id="Arrow1Send"
       refX="0"
       refY="0"
       orient="auto"
       inkscape:stockid="Arrow1Send"
       inkscape:isstock="true">
      <path
         transform="matrix(-0.2,0,0,-0.2,-1.2,0)"
         style="fill:context-stroke;fill-rule:evenodd;stroke:context-stroke;stroke-width:1pt"
         d="M 0,0 5,-5 -12.5,0 5,5 Z"
         id="path9393" />
    </marker>
    <marker
       style="overflow:visible"
       id="Arrow1Sstart"
       refX="0"
       refY="0"
       orient="auto"
       inkscape:stockid="Arrow1Sstart"
       inkscape:isstock="true">
      <path
         transform="matrix(0.2,0,0,0.2,1.2,0)"
         style="fill:context-stroke;fill-rule:evenodd;stroke:context-stroke;stroke-width:1pt"
         d="M 0,0 5,-5 -12.5,0 5,5 Z"
         id="path9390" />
    </marker>
    <marker
       style="overflow:visible"
       id="Arrow1Mend"
       refX="0"
       refY="0"
       orient="auto"
       inkscape:stockid="Arrow1Mend"
       inkscape:isstock="true">
      <path
         transform="matrix(-0.4,0,0,-0.4,-4,0)"
         style="fill:context-stroke;fill-rule:evenodd;stroke:context-stroke;stroke-width:1pt"
         d="M 0,0 5,-5 -12.5,0 5,5 Z"
         id="path9387" />
    </marker>
    <g
       id="g5981">
      <symbol
         overflow="visible"
         id="symbol4746">
        <path
           style="stroke:none"
           d=""
           id="path9158" />
      </symbol>
      <symbol
         overflow="visible"
         id="symbol6049">
        <path
           style="stroke:none"
           d="m 3.65625,-3.984375 h 0.859375 c 0.203125,0 0.296875,0 0.296875,-0.203125 0,-0.109375 -0.09375,-0.109375 -0.265625,-0.109375 H 3.71875 L 3.921875,-5.4375 c 0.046875,-0.203125 0.1875,-0.90625 0.25,-1.03125 0.078125,-0.1875 0.25,-0.34375 0.46875,-0.34375 0.03125,0 0.296875,0 0.484375,0.1875 -0.4375,0.03125 -0.546875,0.390625 -0.546875,0.53125 0,0.234375 0.1875,0.359375 0.375,0.359375 C 5.21875,-5.734375 5.5,-5.96875 5.5,-6.34375 c 0,-0.453125 -0.453125,-0.6875 -0.859375,-0.6875 -0.34375,0 -0.96875,0.1875 -1.265625,1.171875 -0.0625,0.203125 -0.09375,0.3125 -0.328125,1.5625 h -0.6875 c -0.203125,0 -0.3125,0 -0.3125,0.1875 0,0.125 0.09375,0.125 0.28125,0.125 h 0.65625 L 2.25,-0.046875 c -0.1875,0.96875 -0.359375,1.875 -0.875,1.875 -0.046875,0 -0.28125,0 -0.484375,-0.1875 C 1.359375,1.609375 1.453125,1.25 1.453125,1.109375 1.453125,0.875 1.265625,0.75 1.078125,0.75 0.8125,0.75 0.53125,0.984375 0.53125,1.359375 c 0,0.4375 0.4375,0.6875 0.84375,0.6875 0.546875,0 0.953125,-0.59375 1.125,-0.96875 0.328125,-0.625 0.546875,-1.828125 0.5625,-1.90625 z m 0,0"
           id="path2315" />
      </symbol>
      <symbol
         overflow="visible"
         id="symbol6627">
        <path
           style="stroke:none"
           d=""
           id="path8033" />
      </symbol>
      <symbol
         overflow="visible"
         id="symbol6475">
        <path
           style="stroke:none"
           d="m 0.84375,-0.4375 c -0.015625,0.09375 -0.0625,0.265625 -0.0625,0.28125 0,0.15625 0.125,0.21875 0.234375,0.21875 0.125,0 0.234375,-0.078125 0.28125,-0.140625 0.03125,-0.0625 0.078125,-0.296875 0.125,-0.4375 0.03125,-0.125 0.109375,-0.453125 0.140625,-0.625 0.046875,-0.15625 0.09375,-0.3125 0.125,-0.46875 0.078125,-0.28125 0.09375,-0.34375 0.296875,-0.625 C 2.171875,-2.515625 2.5,-2.875 3.03125,-2.875 c 0.390625,0 0.40625,0.359375 0.40625,0.484375 0,0.421875 -0.296875,1.1875 -0.40625,1.484375 -0.078125,0.203125 -0.109375,0.265625 -0.109375,0.375 0,0.375 0.296875,0.59375 0.65625,0.59375 0.703125,0 1,-0.953125 1,-1.0625 0,-0.09375 -0.078125,-0.09375 -0.109375,-0.09375 -0.09375,0 -0.09375,0.046875 -0.125,0.125 C 4.1875,-0.40625 3.875,-0.125 3.609375,-0.125 c -0.15625,0 -0.1875,-0.09375 -0.1875,-0.25 0,-0.15625 0.046875,-0.25 0.171875,-0.5625 0.078125,-0.21875 0.359375,-0.953125 0.359375,-1.34375 0,-0.671875 -0.53125,-0.796875 -0.90625,-0.796875 -0.578125,0 -0.96875,0.359375 -1.171875,0.640625 -0.046875,-0.484375 -0.453125,-0.640625 -0.75,-0.640625 -0.296875,0 -0.453125,0.21875 -0.546875,0.375 -0.15625,0.265625 -0.25,0.65625 -0.25,0.703125 0,0.078125 0.09375,0.078125 0.125,0.078125 0.09375,0 0.09375,-0.015625 0.140625,-0.203125 0.109375,-0.40625 0.25,-0.75 0.515625,-0.75 0.1875,0 0.234375,0.15625 0.234375,0.34375 0,0.125 -0.0625,0.390625 -0.125,0.578125 -0.046875,0.1875 -0.109375,0.46875 -0.140625,0.625 z m 0,0"
           id="path3958" />
      </symbol>
    </g>
    <g
       id="g8876">
      <symbol
         overflow="visible"
         id="symbol6965">
        <path
           style="stroke:none"
           d=""
           id="path7495" />
      </symbol>
      <symbol
         overflow="visible"
         id="symbol9905">
        <path
           style="stroke:none"
           d="M 7.609375,-6.046875 C 7.703125,-6.40625 7.71875,-6.5 8.4375,-6.5 c 0.265625,0 0.34375,0 0.34375,-0.203125 0,-0.109375 -0.109375,-0.109375 -0.140625,-0.109375 -0.28125,0 -1,0.03125 -1.28125,0.03125 -0.28125,0 -0.984375,-0.03125 -1.28125,-0.03125 -0.078125,0 -0.1875,0 -0.1875,0.203125 0,0.109375 0.09375,0.109375 0.28125,0.109375 0.015625,0 0.203125,0 0.375,0.015625 0.1875,0.03125 0.265625,0.03125 0.265625,0.171875 0,0.03125 0,0.046875 -0.03125,0.1875 L 6.1875,-3.703125 H 3.140625 l 0.59375,-2.34375 C 3.8125,-6.40625 3.84375,-6.5 4.5625,-6.5 c 0.265625,0 0.34375,0 0.34375,-0.203125 0,-0.109375 -0.109375,-0.109375 -0.140625,-0.109375 -0.28125,0 -1,0.03125 -1.28125,0.03125 -0.28125,0 -0.984375,-0.03125 -1.28125,-0.03125 -0.078125,0 -0.1875,0 -0.1875,0.203125 0,0.109375 0.09375,0.109375 0.28125,0.109375 0.015625,0 0.203125,0 0.375,0.015625 0.171875,0.03125 0.265625,0.03125 0.265625,0.171875 0,0.03125 0,0.0625 -0.03125,0.1875 L 1.5625,-0.78125 c -0.09375,0.390625 -0.109375,0.46875 -0.90625,0.46875 -0.171875,0 -0.265625,0 -0.265625,0.203125 C 0.390625,0 0.515625,0 0.53125,0 0.8125,0 1.515625,-0.03125 1.796875,-0.03125 2,-0.03125 2.21875,-0.015625 2.4375,-0.015625 2.65625,-0.015625 2.875,0 3.078125,0 3.15625,0 3.28125,0 3.28125,-0.203125 3.28125,-0.3125 3.1875,-0.3125 3,-0.3125 c -0.375,0 -0.640625,0 -0.640625,-0.171875 0,-0.0625 0.015625,-0.109375 0.015625,-0.171875 l 0.6875,-2.734375 h 3.03125 c -0.40625,1.65625 -0.640625,2.609375 -0.6875,2.75 C 5.3125,-0.3125 5.125,-0.3125 4.5,-0.3125 c -0.140625,0 -0.234375,0 -0.234375,0.203125 C 4.265625,0 4.390625,0 4.40625,0 4.6875,0 5.390625,-0.03125 5.671875,-0.03125 5.875,-0.03125 6.09375,-0.015625 6.3125,-0.015625 6.53125,-0.015625 6.75,0 6.953125,0 7.03125,0 7.15625,0 7.15625,-0.203125 7.15625,-0.3125 7.0625,-0.3125 6.875,-0.3125 c -0.359375,0 -0.640625,0 -0.640625,-0.171875 0,-0.0625 0.015625,-0.109375 0.03125,-0.171875 z m 0,0"
           id="path5500" />
      </symbol>
    </g>
    <g
       id="g1251">
      <symbol
         overflow="visible"
         id="symbol6146">
        <path
           style="stroke:none"
           d=""
           id="path6687" />
      </symbol>
      <symbol
         overflow="visible"
         id="symbol4630">
        <path
           style="stroke:none"
           d="m 4.359375,-6.671875 c 0,-0.03125 0.03125,-0.140625 0.03125,-0.140625 0,-0.015625 0,-0.109375 -0.125,-0.109375 -0.09375,0 -0.109375,0.03125 -0.15625,0.203125 L 3.53125,-4.421875 c -1.578125,0.0625 -3.046875,1.375 -3.046875,2.734375 0,0.953125 0.703125,1.734375 1.921875,1.8125 C 2.328125,0.421875 2.25,0.75 2.171875,1.0625 c -0.125,0.46875 -0.21875,0.84375 -0.21875,0.875 0,0.09375 0.078125,0.109375 0.125,0.109375 C 2.125,2.046875 2.140625,2.03125 2.171875,2 2.1875,1.984375 2.25,1.75 2.28125,1.609375 L 2.65625,0.125 c 1.609375,-0.0625 3.0625,-1.40625 3.0625,-2.734375 0,-0.796875 -0.53125,-1.703125 -1.921875,-1.8125 z m -1.90625,6.578125 c -0.59375,-0.03125 -1.3125,-0.390625 -1.3125,-1.375 0,-1.203125 0.859375,-2.59375 2.34375,-2.734375 z m 1.28125,-4.109375 c 0.765625,0.046875 1.328125,0.5 1.328125,1.375 0,1.1875 -0.859375,2.609375 -2.34375,2.734375 z m 0,0"
           id="path3277" />
      </symbol>
      <symbol
         overflow="visible"
         id="symbol1277">
        <path
           style="stroke:none"
           d=""
           id="path6255" />
      </symbol>
      <symbol
         overflow="visible"
         id="symbol1498">
        <path
           style="stroke:none"
           d="m 2.9375,-2.65625 c -0.140625,-0.234375 -0.375,-0.421875 -0.71875,-0.421875 -0.890625,0 -1.796875,0.984375 -1.796875,1.984375 0,0.6875 0.453125,1.15625 1.0625,1.15625 0.375,0 0.703125,-0.203125 0.984375,-0.484375 C 2.59375,0 3,0.0625 3.1875,0.0625 c 0.25,0 0.421875,-0.140625 0.546875,-0.359375 0.15625,-0.28125 0.25,-0.671875 0.25,-0.703125 0,-0.09375 -0.09375,-0.09375 -0.109375,-0.09375 -0.109375,0 -0.109375,0.03125 -0.15625,0.21875 C 3.625,-0.53125 3.5,-0.125 3.203125,-0.125 3.03125,-0.125 2.96875,-0.28125 2.96875,-0.46875 c 0,-0.109375 0.0625,-0.375 0.109375,-0.546875 0.046875,-0.1875 0.125,-0.46875 0.15625,-0.625 L 3.375,-2.171875 C 3.421875,-2.359375 3.5,-2.6875 3.5,-2.71875 3.5,-2.875 3.375,-2.9375 3.265625,-2.9375 c -0.125,0 -0.28125,0.078125 -0.328125,0.28125 z M 2.5,-0.875 C 2.453125,-0.671875 2.296875,-0.53125 2.140625,-0.40625 2.078125,-0.34375 1.796875,-0.125 1.5,-0.125 c -0.265625,0 -0.515625,-0.1875 -0.515625,-0.671875 0,-0.375 0.203125,-1.140625 0.375,-1.421875 0.3125,-0.5625 0.671875,-0.65625 0.859375,-0.65625 0.484375,0 0.625,0.53125 0.625,0.609375 0,0.015625 -0.015625,0.078125 -0.015625,0.09375 z m 0,0"
           id="path1709" />
      </symbol>
    </g>
    <g
       id="g4884">
      <symbol
         overflow="visible"
         id="symbol224">
        <path
           style="stroke:none"
           d=""
           id="path5415" />
      </symbol>
      <symbol
         overflow="visible"
         id="symbol7317">
        <path
           style="stroke:none"
           d="m 4.359375,-6.671875 c 0,-0.03125 0.03125,-0.140625 0.03125,-0.140625 0,-0.015625 0,-0.109375 -0.125,-0.109375 -0.09375,0 -0.109375,0.03125 -0.15625,0.203125 L 3.53125,-4.421875 c -1.578125,0.0625 -3.046875,1.375 -3.046875,2.734375 0,0.953125 0.703125,1.734375 1.921875,1.8125 C 2.328125,0.421875 2.25,0.75 2.171875,1.0625 c -0.125,0.46875 -0.21875,0.84375 -0.21875,0.875 0,0.09375 0.078125,0.109375 0.125,0.109375 C 2.125,2.046875 2.140625,2.03125 2.171875,2 2.1875,1.984375 2.25,1.75 2.28125,1.609375 L 2.65625,0.125 c 1.609375,-0.0625 3.0625,-1.40625 3.0625,-2.734375 0,-0.796875 -0.53125,-1.703125 -1.921875,-1.8125 z m -1.90625,6.578125 c -0.59375,-0.03125 -1.3125,-0.390625 -1.3125,-1.375 0,-1.203125 0.859375,-2.59375 2.34375,-2.734375 z m 1.28125,-4.109375 c 0.765625,0.046875 1.328125,0.5 1.328125,1.375 0,1.1875 -0.859375,2.609375 -2.34375,2.734375 z m 0,0"
           id="path5913" />
      </symbol>
      <symbol
         overflow="visible"
         id="symbol9095">
        <path
           style="stroke:none"
           d=""
           id="path7807" />
      </symbol>
      <symbol
         overflow="visible"
         id="symbol3227">
        <path
           style="stroke:none"
           d="m 1.84375,-4.625 c 0,-0.015625 0.03125,-0.109375 0.03125,-0.109375 0,-0.046875 -0.03125,-0.109375 -0.125,-0.109375 -0.140625,0 -0.71875,0.0625 -0.890625,0.078125 -0.046875,0 -0.15625,0.015625 -0.15625,0.15625 0,0.09375 0.109375,0.09375 0.1875,0.09375 0.328125,0 0.328125,0.0625 0.328125,0.109375 0,0.046875 -0.0625,0.328125 -0.109375,0.484375 l -0.15625,0.640625 c -0.0625,0.25 -0.4375,1.765625 -0.453125,1.859375 -0.046875,0.171875 -0.046875,0.265625 -0.046875,0.34375 0,0.703125 0.453125,1.140625 1.03125,1.140625 0.875,0 1.796875,-0.9375 1.796875,-1.96875 0,-0.8125 -0.5625,-1.171875 -1.046875,-1.171875 -0.359375,0 -0.671875,0.203125 -0.875,0.390625 z m -0.359375,4.5 c -0.328125,0 -0.53125,-0.296875 -0.53125,-0.71875 0,-0.25 0.0625,-0.484375 0.265625,-1.28125 C 1.25,-2.25 1.25,-2.265625 1.390625,-2.421875 1.65625,-2.71875 1.96875,-2.875 2.21875,-2.875 c 0.265625,0 0.5,0.203125 0.5,0.671875 0,0.28125 -0.140625,1 -0.359375,1.40625 C 2.1875,-0.453125 1.84375,-0.125 1.484375,-0.125 Z m 0,0"
           id="path6679" />
      </symbol>
    </g>
    <g
       id="g4995">
      <symbol
         overflow="visible"
         id="symbol7626">
        <path
           style="stroke:none"
           d=""
           id="path3978" />
      </symbol>
      <symbol
         overflow="visible"
         id="symbol4598">
        <path
           style="stroke:none"
           d="m 7.203125,-4.5 c 0,-0.21875 -0.078125,-0.3125 -0.140625,-0.3125 -0.046875,0 -0.140625,0.046875 -0.140625,0.28125 C 6.875,-3.84375 6.1875,-3.4375 5.53125,-3.4375 4.953125,-3.4375 4.453125,-3.75 3.9375,-4.09375 3.40625,-4.453125 2.859375,-4.8125 2.21875,-4.8125 c -0.9375,0 -1.671875,0.703125 -1.671875,1.625 0,0.21875 0.078125,0.296875 0.140625,0.296875 0.09375,0 0.140625,-0.1875 0.140625,-0.234375 C 0.875,-3.953125 1.6875,-4.25 2.21875,-4.25 c 0.578125,0 1.078125,0.296875 1.59375,0.65625 0.53125,0.359375 1.078125,0.71875 1.71875,0.71875 0.921875,0 1.671875,-0.71875 1.671875,-1.625 z m 0,2.328125 c 0,-0.296875 -0.125,-0.3125 -0.140625,-0.3125 -0.046875,0 -0.140625,0.046875 -0.140625,0.265625 C 6.875,-1.53125 6.1875,-1.109375 5.53125,-1.109375 c -0.578125,0 -1.078125,-0.3125 -1.59375,-0.671875 C 3.40625,-2.140625 2.859375,-2.5 2.21875,-2.5 c -0.9375,0 -1.671875,0.71875 -1.671875,1.625 0,0.234375 0.078125,0.3125 0.140625,0.3125 0.09375,0 0.140625,-0.1875 0.140625,-0.234375 C 0.875,-1.640625 1.6875,-1.9375 2.21875,-1.9375 c 0.578125,0 1.078125,0.3125 1.59375,0.65625 0.53125,0.359375 1.078125,0.71875 1.71875,0.71875 0.953125,0 1.671875,-0.734375 1.671875,-1.609375 z m 0,0"
           id="path5650" />
      </symbol>
      <symbol
         overflow="visible"
         id="symbol4551">
        <path
           style="stroke:none"
           d=""
           id="path2576" />
      </symbol>
      <symbol
         overflow="visible"
         id="symbol7460">
        <path
           style="stroke:none"
           d="m 4.359375,-6.671875 c 0,-0.03125 0.03125,-0.140625 0.03125,-0.140625 0,-0.015625 0,-0.109375 -0.125,-0.109375 -0.09375,0 -0.109375,0.03125 -0.15625,0.203125 L 3.53125,-4.421875 c -1.578125,0.0625 -3.046875,1.375 -3.046875,2.734375 0,0.953125 0.703125,1.734375 1.921875,1.8125 C 2.328125,0.421875 2.25,0.75 2.171875,1.0625 c -0.125,0.46875 -0.21875,0.84375 -0.21875,0.875 0,0.09375 0.078125,0.109375 0.125,0.109375 C 2.125,2.046875 2.140625,2.03125 2.171875,2 2.1875,1.984375 2.25,1.75 2.28125,1.609375 L 2.65625,0.125 c 1.609375,-0.0625 3.0625,-1.40625 3.0625,-2.734375 0,-0.796875 -0.53125,-1.703125 -1.921875,-1.8125 z m -1.90625,6.578125 c -0.59375,-0.03125 -1.3125,-0.390625 -1.3125,-1.375 0,-1.203125 0.859375,-2.59375 2.34375,-2.734375 z m 1.28125,-4.109375 c 0.765625,0.046875 1.328125,0.5 1.328125,1.375 0,1.1875 -0.859375,2.609375 -2.34375,2.734375 z m 0,0"
           id="path4418" />
      </symbol>
    </g>
    <g
       id="g4336">
      <symbol
         overflow="visible"
         id="symbol9345">
        <path
           style="stroke:none"
           d=""
           id="path1628" />
      </symbol>
      <symbol
         overflow="visible"
         id="symbol5711">
        <path
           style="stroke:none"
           d="M 1.78125,-1.140625 C 1.390625,-0.484375 1,-0.34375 0.5625,-0.3125 0.4375,-0.296875 0.34375,-0.296875 0.34375,-0.109375 0.34375,-0.046875 0.40625,0 0.484375,0 0.75,0 1.0625,-0.03125 1.328125,-0.03125 c 0.34375,0 0.6875,0.03125 1,0.03125 0.0625,0 0.1875,0 0.1875,-0.1875 0,-0.109375 -0.078125,-0.125 -0.15625,-0.125 -0.21875,-0.015625 -0.46875,-0.09375 -0.46875,-0.34375 0,-0.125 0.0625,-0.234375 0.140625,-0.375 l 0.765625,-1.265625 h 2.5 c 0.015625,0.203125 0.15625,1.5625 0.15625,1.65625 0,0.296875 -0.515625,0.328125 -0.71875,0.328125 C 4.59375,-0.3125 4.5,-0.3125 4.5,-0.109375 4.5,0 4.609375,0 4.640625,0 5.046875,0 5.46875,-0.03125 5.875,-0.03125 6.125,-0.03125 6.765625,0 7.015625,0 7.0625,0 7.1875,0 7.1875,-0.203125 7.1875,-0.3125 7.09375,-0.3125 6.953125,-0.3125 6.34375,-0.3125 6.34375,-0.375 6.3125,-0.671875 l -0.609375,-6.21875 c -0.015625,-0.203125 -0.015625,-0.25 -0.1875,-0.25 -0.15625,0 -0.203125,0.078125 -0.265625,0.171875 z M 2.984375,-2.609375 4.9375,-5.90625 5.265625,-2.609375 Z m 0,0"
           id="path2391" />
      </symbol>
    </g>
    <g
       id="g7721">
      <symbol
         overflow="visible"
         id="symbol2063">
        <path
           style="stroke:none"
           d=""
           id="path5729" />
      </symbol>
      <symbol
         overflow="visible"
         id="symbol5442">
        <path
           style="stroke:none"
           d="M 1.59375,-0.78125 C 1.5,-0.390625 1.46875,-0.3125 0.6875,-0.3125 c -0.171875,0 -0.265625,0 -0.265625,0.203125 C 0.421875,0 0.515625,0 0.6875,0 H 4.25 C 5.828125,0 7,-1.171875 7,-2.15625 7,-2.875 6.421875,-3.453125 5.453125,-3.5625 6.484375,-3.75 7.53125,-4.484375 7.53125,-5.4375 c 0,-0.734375 -0.65625,-1.375 -1.84375,-1.375 H 2.328125 c -0.1875,0 -0.28125,0 -0.28125,0.203125 0,0.109375 0.09375,0.109375 0.28125,0.109375 0.015625,0 0.203125,0 0.375,0.015625 0.171875,0.03125 0.265625,0.03125 0.265625,0.171875 0,0.03125 -0.015625,0.0625 -0.03125,0.1875 z m 1.5,-2.875 0.625,-2.46875 C 3.8125,-6.46875 3.828125,-6.5 4.25,-6.5 h 1.296875 c 0.875,0 1.078125,0.59375 1.078125,1.03125 0,0.875 -0.859375,1.8125 -2.0625,1.8125 z m -0.4375,3.34375 c -0.140625,0 -0.15625,0 -0.21875,0 -0.109375,-0.015625 -0.140625,-0.03125 -0.140625,-0.109375 0,-0.03125 0,-0.046875 0.0625,-0.21875 l 0.6875,-2.78125 h 1.875 c 0.953125,0 1.15625,0.734375 1.15625,1.15625 C 6.078125,-1.28125 5.1875,-0.3125 4,-0.3125 Z m 0,0"
           id="path2449" />
      </symbol>
    </g>
    <g
       id="g626">
      <symbol
         overflow="visible"
         id="symbol7273">
        <path
           style="stroke:none"
           d=""
           id="path5367" />
      </symbol>
      <symbol
         overflow="visible"
         id="symbol8451">
        <path
           style="stroke:none"
           d="m 4.359375,-6.671875 c 0,-0.03125 0.03125,-0.140625 0.03125,-0.140625 0,-0.015625 0,-0.109375 -0.125,-0.109375 -0.09375,0 -0.109375,0.03125 -0.15625,0.203125 L 3.53125,-4.421875 c -1.578125,0.0625 -3.046875,1.375 -3.046875,2.734375 0,0.953125 0.703125,1.734375 1.921875,1.8125 C 2.328125,0.421875 2.25,0.75 2.171875,1.0625 c -0.125,0.46875 -0.21875,0.84375 -0.21875,0.875 0,0.09375 0.078125,0.109375 0.125,0.109375 C 2.125,2.046875 2.140625,2.03125 2.171875,2 2.1875,1.984375 2.25,1.75 2.28125,1.609375 L 2.65625,0.125 c 1.609375,-0.0625 3.0625,-1.40625 3.0625,-2.734375 0,-0.796875 -0.53125,-1.703125 -1.921875,-1.8125 z m -1.90625,6.578125 c -0.59375,-0.03125 -1.3125,-0.390625 -1.3125,-1.375 0,-1.203125 0.859375,-2.59375 2.34375,-2.734375 z m 1.28125,-4.109375 c 0.765625,0.046875 1.328125,0.5 1.328125,1.375 0,1.1875 -0.859375,2.609375 -2.34375,2.734375 z m 0,0"
           id="path3147" />
      </symbol>
      <symbol
         overflow="visible"
         id="symbol2602">
        <path
           style="stroke:none"
           d=""
           id="path5074" />
      </symbol>
      <symbol
         overflow="visible"
         id="symbol4915">
        <path
           style="stroke:none"
           d="m 3.296875,2.390625 c 0,-0.03125 0,-0.046875 -0.171875,-0.21875 C 1.890625,0.921875 1.5625,-0.96875 1.5625,-2.5 c 0,-1.734375 0.375,-3.46875 1.609375,-4.703125 0.125,-0.125 0.125,-0.140625 0.125,-0.171875 0,-0.078125 -0.03125,-0.109375 -0.09375,-0.109375 -0.109375,0 -1,0.6875 -1.59375,1.953125 -0.5,1.09375 -0.625,2.203125 -0.625,3.03125 0,0.78125 0.109375,1.984375 0.65625,3.125 C 2.25,1.84375 3.09375,2.5 3.203125,2.5 c 0.0625,0 0.09375,-0.03125 0.09375,-0.109375 z m 0,0"
           id="path8482" />
      </symbol>
      <symbol
         overflow="visible"
         id="symbol1822">
        <path
           style="stroke:none"
           d=""
           id="path8222" />
      </symbol>
      <symbol
         overflow="visible"
         id="symbol7412">
        <path
           style="stroke:none"
           d="M 4.421875,-4 C 3.875,-3.890625 3.8125,-3.40625 3.8125,-3.3125 c 0,0.21875 0.171875,0.46875 0.5,0.46875 0.34375,0 0.71875,-0.28125 0.71875,-0.796875 C 5.03125,-4.09375 4.671875,-4.5 4.0625,-4.5 3.5,-4.5 3.03125,-4.234375 2.734375,-3.90625 2.5,-4.359375 1.921875,-4.5 1.5625,-4.5 c -0.359375,0 -0.640625,0.203125 -0.859375,0.5625 -0.25,0.390625 -0.390625,0.921875 -0.390625,0.984375 0,0.140625 0.15625,0.140625 0.25,0.140625 0.109375,0 0.140625,0 0.1875,-0.046875 C 0.78125,-2.875 0.78125,-2.90625 0.84375,-3.15625 c 0.1875,-0.75 0.40625,-0.984375 0.671875,-0.984375 0.15625,0 0.234375,0.09375 0.234375,0.359375 0,0.171875 -0.03125,0.28125 -0.140625,0.75 -0.046875,0.171875 -0.21875,0.828125 -0.28125,1.078125 -0.046875,0.1875 -0.15625,0.640625 -0.203125,0.8125 -0.0625,0.265625 -0.171875,0.71875 -0.171875,0.78125 0,0.203125 0.15625,0.4375 0.46875,0.4375 0.1875,0 0.546875,-0.125 0.65625,-0.53125 0,-0.03125 0.6875,-2.734375 0.6875,-2.796875 C 2.8125,-3.40625 2.8125,-3.421875 2.9375,-3.5625 c 0.234375,-0.296875 0.59375,-0.578125 1.09375,-0.578125 0.25,0 0.359375,0.109375 0.390625,0.140625 z m 0,0"
           id="path1209" />
      </symbol>
    </g>
    <g
       id="g7580">
      <symbol
         overflow="visible"
         id="symbol3910">
        <path
           style="stroke:none"
           d=""
           id="path6096" />
      </symbol>
      <symbol
         overflow="visible"
         id="symbol7539">
        <path
           style="stroke:none"
           d="m 4.359375,-6.671875 c 0,-0.03125 0.03125,-0.140625 0.03125,-0.140625 0,-0.015625 0,-0.109375 -0.125,-0.109375 -0.09375,0 -0.109375,0.03125 -0.15625,0.203125 L 3.53125,-4.421875 c -1.578125,0.0625 -3.046875,1.375 -3.046875,2.734375 0,0.953125 0.703125,1.734375 1.921875,1.8125 C 2.328125,0.421875 2.25,0.75 2.171875,1.0625 c -0.125,0.46875 -0.21875,0.84375 -0.21875,0.875 0,0.09375 0.078125,0.109375 0.125,0.109375 C 2.125,2.046875 2.140625,2.03125 2.171875,2 2.1875,1.984375 2.25,1.75 2.28125,1.609375 L 2.65625,0.125 c 1.609375,-0.0625 3.0625,-1.40625 3.0625,-2.734375 0,-0.796875 -0.53125,-1.703125 -1.921875,-1.8125 z m -1.90625,6.578125 c -0.59375,-0.03125 -1.3125,-0.390625 -1.3125,-1.375 0,-1.203125 0.859375,-2.59375 2.34375,-2.734375 z m 1.28125,-4.109375 c 0.765625,0.046875 1.328125,0.5 1.328125,1.375 0,1.1875 -0.859375,2.609375 -2.34375,2.734375 z m 0,0"
           id="path5064" />
      </symbol>
      <symbol
         overflow="visible"
         id="symbol8087">
        <path
           style="stroke:none"
           d=""
           id="path647" />
      </symbol>
      <symbol
         overflow="visible"
         id="symbol8520">
        <path
           style="stroke:none"
           d="m 3.296875,2.390625 c 0,-0.03125 0,-0.046875 -0.171875,-0.21875 C 1.890625,0.921875 1.5625,-0.96875 1.5625,-2.5 c 0,-1.734375 0.375,-3.46875 1.609375,-4.703125 0.125,-0.125 0.125,-0.140625 0.125,-0.171875 0,-0.078125 -0.03125,-0.109375 -0.09375,-0.109375 -0.109375,0 -1,0.6875 -1.59375,1.953125 -0.5,1.09375 -0.625,2.203125 -0.625,3.03125 0,0.78125 0.109375,1.984375 0.65625,3.125 C 2.25,1.84375 3.09375,2.5 3.203125,2.5 c 0.0625,0 0.09375,-0.03125 0.09375,-0.109375 z m 0,0"
           id="path7298" />
      </symbol>
      <symbol
         overflow="visible"
         id="symbol8925">
        <path
           style="stroke:none"
           d="m 2.875,-2.5 c 0,-0.765625 -0.109375,-1.96875 -0.65625,-3.109375 -0.59375,-1.21875 -1.453125,-1.875 -1.546875,-1.875 -0.0625,0 -0.109375,0.046875 -0.109375,0.109375 0,0.03125 0,0.046875 0.1875,0.234375 0.984375,0.984375 1.546875,2.5625 1.546875,4.640625 0,1.71875 -0.359375,3.46875 -1.59375,4.71875 C 0.5625,2.34375 0.5625,2.359375 0.5625,2.390625 0.5625,2.453125 0.609375,2.5 0.671875,2.5 0.765625,2.5 1.671875,1.8125 2.25,0.546875 2.765625,-0.546875 2.875,-1.65625 2.875,-2.5 Z m 0,0"
           id="path1134" />
      </symbol>
      <symbol
         overflow="visible"
         id="symbol9928">
        <path
           style="stroke:none"
           d=""
           id="path3507" />
      </symbol>
      <symbol
         overflow="visible"
         id="symbol9137">
        <path
           style="stroke:none"
           d="M 4.421875,-4 C 3.875,-3.890625 3.8125,-3.40625 3.8125,-3.3125 c 0,0.21875 0.171875,0.46875 0.5,0.46875 0.34375,0 0.71875,-0.28125 0.71875,-0.796875 C 5.03125,-4.09375 4.671875,-4.5 4.0625,-4.5 3.5,-4.5 3.03125,-4.234375 2.734375,-3.90625 2.5,-4.359375 1.921875,-4.5 1.5625,-4.5 c -0.359375,0 -0.640625,0.203125 -0.859375,0.5625 -0.25,0.390625 -0.390625,0.921875 -0.390625,0.984375 0,0.140625 0.15625,0.140625 0.25,0.140625 0.109375,0 0.140625,0 0.1875,-0.046875 C 0.78125,-2.875 0.78125,-2.90625 0.84375,-3.15625 c 0.1875,-0.75 0.40625,-0.984375 0.671875,-0.984375 0.15625,0 0.234375,0.09375 0.234375,0.359375 0,0.171875 -0.03125,0.28125 -0.140625,0.75 -0.046875,0.171875 -0.21875,0.828125 -0.28125,1.078125 -0.046875,0.1875 -0.15625,0.640625 -0.203125,0.8125 -0.0625,0.265625 -0.171875,0.71875 -0.171875,0.78125 0,0.203125 0.15625,0.4375 0.46875,0.4375 0.1875,0 0.546875,-0.125 0.65625,-0.53125 0,-0.03125 0.6875,-2.734375 0.6875,-2.796875 C 2.8125,-3.40625 2.8125,-3.421875 2.9375,-3.5625 c 0.234375,-0.296875 0.59375,-0.578125 1.09375,-0.578125 0.25,0 0.359375,0.109375 0.390625,0.140625 z m 0,0"
           id="path2774" />
      </symbol>
    </g>
    <g
       id="g5950">
      <symbol
         overflow="visible"
         id="symbol3500">
        <path
           style="stroke:none"
           d=""
           id="path8295" />
      </symbol>
      <symbol
         overflow="visible"
         id="symbol5932">
        <path
           style="stroke:none"
           d="m 4.359375,-6.671875 c 0,-0.03125 0.03125,-0.140625 0.03125,-0.140625 0,-0.015625 0,-0.109375 -0.125,-0.109375 -0.09375,0 -0.109375,0.03125 -0.15625,0.203125 L 3.53125,-4.421875 c -1.578125,0.0625 -3.046875,1.375 -3.046875,2.734375 0,0.953125 0.703125,1.734375 1.921875,1.8125 C 2.328125,0.421875 2.25,0.75 2.171875,1.0625 c -0.125,0.46875 -0.21875,0.84375 -0.21875,0.875 0,0.09375 0.078125,0.109375 0.125,0.109375 C 2.125,2.046875 2.140625,2.03125 2.171875,2 2.1875,1.984375 2.25,1.75 2.28125,1.609375 L 2.65625,0.125 c 1.609375,-0.0625 3.0625,-1.40625 3.0625,-2.734375 0,-0.796875 -0.53125,-1.703125 -1.921875,-1.8125 z m -1.90625,6.578125 c -0.59375,-0.03125 -1.3125,-0.390625 -1.3125,-1.375 0,-1.203125 0.859375,-2.59375 2.34375,-2.734375 z m 1.28125,-4.109375 c 0.765625,0.046875 1.328125,0.5 1.328125,1.375 0,1.1875 -0.859375,2.609375 -2.34375,2.734375 z m 0,0"
           id="path3581" />
      </symbol>
      <symbol
         overflow="visible"
         id="symbol4647">
        <path
           style="stroke:none"
           d=""
           id="path3343" />
      </symbol>
      <symbol
         overflow="visible"
         id="symbol708">
        <path
           style="stroke:none"
           d="m 2.9375,-2.65625 c -0.140625,-0.234375 -0.375,-0.421875 -0.71875,-0.421875 -0.890625,0 -1.796875,0.984375 -1.796875,1.984375 0,0.6875 0.453125,1.15625 1.0625,1.15625 0.375,0 0.703125,-0.203125 0.984375,-0.484375 C 2.59375,0 3,0.0625 3.1875,0.0625 c 0.25,0 0.421875,-0.140625 0.546875,-0.359375 0.15625,-0.28125 0.25,-0.671875 0.25,-0.703125 0,-0.09375 -0.09375,-0.09375 -0.109375,-0.09375 -0.109375,0 -0.109375,0.03125 -0.15625,0.21875 C 3.625,-0.53125 3.5,-0.125 3.203125,-0.125 3.03125,-0.125 2.96875,-0.28125 2.96875,-0.46875 c 0,-0.109375 0.0625,-0.375 0.109375,-0.546875 0.046875,-0.1875 0.125,-0.46875 0.15625,-0.625 L 3.375,-2.171875 C 3.421875,-2.359375 3.5,-2.6875 3.5,-2.71875 3.5,-2.875 3.375,-2.9375 3.265625,-2.9375 c -0.125,0 -0.28125,0.078125 -0.328125,0.28125 z M 2.5,-0.875 C 2.453125,-0.671875 2.296875,-0.53125 2.140625,-0.40625 2.078125,-0.34375 1.796875,-0.125 1.5,-0.125 c -0.265625,0 -0.515625,-0.1875 -0.515625,-0.671875 0,-0.375 0.203125,-1.140625 0.375,-1.421875 0.3125,-0.5625 0.671875,-0.65625 0.859375,-0.65625 0.484375,0 0.625,0.53125 0.625,0.609375 0,0.015625 -0.015625,0.078125 -0.015625,0.09375 z m 0,0"
           id="path2125" />
      </symbol>
      <symbol
         overflow="visible"
         id="symbol6495">
        <path
           style="stroke:none"
           d=""
           id="path4691" />
      </symbol>
      <symbol
         overflow="visible"
         id="symbol5115">
        <path
           style="stroke:none"
           d="m 3.296875,2.390625 c 0,-0.03125 0,-0.046875 -0.171875,-0.21875 C 1.890625,0.921875 1.5625,-0.96875 1.5625,-2.5 c 0,-1.734375 0.375,-3.46875 1.609375,-4.703125 0.125,-0.125 0.125,-0.140625 0.125,-0.171875 0,-0.078125 -0.03125,-0.109375 -0.09375,-0.109375 -0.109375,0 -1,0.6875 -1.59375,1.953125 -0.5,1.09375 -0.625,2.203125 -0.625,3.03125 0,0.78125 0.109375,1.984375 0.65625,3.125 C 2.25,1.84375 3.09375,2.5 3.203125,2.5 c 0.0625,0 0.09375,-0.03125 0.09375,-0.109375 z m 0,0"
           id="path3191" />
      </symbol>
      <symbol
         overflow="visible"
         id="symbol6332">
        <path
           style="stroke:none"
           d="m 2.875,-2.5 c 0,-0.765625 -0.109375,-1.96875 -0.65625,-3.109375 -0.59375,-1.21875 -1.453125,-1.875 -1.546875,-1.875 -0.0625,0 -0.109375,0.046875 -0.109375,0.109375 0,0.03125 0,0.046875 0.1875,0.234375 0.984375,0.984375 1.546875,2.5625 1.546875,4.640625 0,1.71875 -0.359375,3.46875 -1.59375,4.71875 C 0.5625,2.34375 0.5625,2.359375 0.5625,2.390625 0.5625,2.453125 0.609375,2.5 0.671875,2.5 0.765625,2.5 1.671875,1.8125 2.25,0.546875 2.765625,-0.546875 2.875,-1.65625 2.875,-2.5 Z m 0,0"
           id="path9208" />
      </symbol>
      <symbol
         overflow="visible"
         id="symbol7225">
        <path
           style="stroke:none"
           d=""
           id="path1843" />
      </symbol>
      <symbol
         overflow="visible"
         id="symbol5923">
        <path
           style="stroke:none"
           d="M 4.421875,-4 C 3.875,-3.890625 3.8125,-3.40625 3.8125,-3.3125 c 0,0.21875 0.171875,0.46875 0.5,0.46875 0.34375,0 0.71875,-0.28125 0.71875,-0.796875 C 5.03125,-4.09375 4.671875,-4.5 4.0625,-4.5 3.5,-4.5 3.03125,-4.234375 2.734375,-3.90625 2.5,-4.359375 1.921875,-4.5 1.5625,-4.5 c -0.359375,0 -0.640625,0.203125 -0.859375,0.5625 -0.25,0.390625 -0.390625,0.921875 -0.390625,0.984375 0,0.140625 0.15625,0.140625 0.25,0.140625 0.109375,0 0.140625,0 0.1875,-0.046875 C 0.78125,-2.875 0.78125,-2.90625 0.84375,-3.15625 c 0.1875,-0.75 0.40625,-0.984375 0.671875,-0.984375 0.15625,0 0.234375,0.09375 0.234375,0.359375 0,0.171875 -0.03125,0.28125 -0.140625,0.75 -0.046875,0.171875 -0.21875,0.828125 -0.28125,1.078125 -0.046875,0.1875 -0.15625,0.640625 -0.203125,0.8125 -0.0625,0.265625 -0.171875,0.71875 -0.171875,0.78125 0,0.203125 0.15625,0.4375 0.46875,0.4375 0.1875,0 0.546875,-0.125 0.65625,-0.53125 0,-0.03125 0.6875,-2.734375 0.6875,-2.796875 C 2.8125,-3.40625 2.8125,-3.421875 2.9375,-3.5625 c 0.234375,-0.296875 0.59375,-0.578125 1.09375,-0.578125 0.25,0 0.359375,0.109375 0.390625,0.140625 z m 0,0"
           id="path3031" />
      </symbol>
    </g>
    <g
       id="g1148">
      <symbol
         overflow="visible"
         id="symbol833">
        <path
           style="stroke:none"
           d=""
           id="path1747" />
      </symbol>
      <symbol
         overflow="visible"
         id="symbol8697">
        <path
           style="stroke:none"
           d="M 0.453125,1.21875 C 0.375,1.5625 0.34375,1.625 -0.09375,1.625 c -0.109375,0 -0.21875,0 -0.21875,0.1875 0,0.078125 0.046875,0.125 0.125,0.125 0.265625,0 0.5625,-0.03125 0.828125,-0.03125 0.34375,0 0.671875,0.03125 1,0.03125 0.046875,0 0.171875,0 0.171875,-0.203125 C 1.8125,1.625 1.71875,1.625 1.578125,1.625 c -0.5,0 -0.5,-0.0625 -0.5,-0.15625 0,-0.125 0.421875,-1.75 0.484375,-2 0.125,0.296875 0.40625,0.640625 0.921875,0.640625 1.15625,0 2.40625,-1.453125 2.40625,-2.921875 0,-0.9375 -0.578125,-1.59375 -1.328125,-1.59375 -0.5,0 -0.984375,0.359375 -1.3125,0.75 -0.09375,-0.546875 -0.53125,-0.75 -0.890625,-0.75 -0.46875,0 -0.65625,0.390625 -0.734375,0.5625 C 0.4375,-3.5 0.3125,-2.90625 0.3125,-2.875 c 0,0.109375 0.09375,0.109375 0.109375,0.109375 0.109375,0 0.109375,-0.015625 0.171875,-0.234375 0.171875,-0.703125 0.375,-1.1875 0.734375,-1.1875 0.171875,0 0.3125,0.078125 0.3125,0.453125 0,0.234375 -0.03125,0.34375 -0.078125,0.515625 z m 1.75,-4.328125 C 2.265625,-3.375 2.546875,-3.65625 2.71875,-3.8125 c 0.359375,-0.296875 0.640625,-0.375 0.8125,-0.375 0.390625,0 0.640625,0.34375 0.640625,0.9375 0,0.59375 -0.328125,1.734375 -0.515625,2.109375 -0.34375,0.703125 -0.8125,1.03125 -1.1875,1.03125 C 1.8125,-0.109375 1.6875,-0.9375 1.6875,-1 c 0,-0.015625 0,-0.03125 0.03125,-0.15625 z m 0,0"
           id="path9414" />
      </symbol>
      <symbol
         overflow="visible"
         id="symbol2463">
        <path
           style="stroke:none"
           d=""
           id="path5188" />
      </symbol>
      <symbol
         overflow="visible"
         id="symbol994">
        <path
           style="stroke:none"
           d="m 3.296875,2.390625 c 0,-0.03125 0,-0.046875 -0.171875,-0.21875 C 1.890625,0.921875 1.5625,-0.96875 1.5625,-2.5 c 0,-1.734375 0.375,-3.46875 1.609375,-4.703125 0.125,-0.125 0.125,-0.140625 0.125,-0.171875 0,-0.078125 -0.03125,-0.109375 -0.09375,-0.109375 -0.109375,0 -1,0.6875 -1.59375,1.953125 -0.5,1.09375 -0.625,2.203125 -0.625,3.03125 0,0.78125 0.109375,1.984375 0.65625,3.125 C 2.25,1.84375 3.09375,2.5 3.203125,2.5 c 0.0625,0 0.09375,-0.03125 0.09375,-0.109375 z m 0,0"
           id="path1916" />
      </symbol>
      <symbol
         overflow="visible"
         id="symbol7104">
        <path
           style="stroke:none"
           d="m 2.875,-2.5 c 0,-0.765625 -0.109375,-1.96875 -0.65625,-3.109375 -0.59375,-1.21875 -1.453125,-1.875 -1.546875,-1.875 -0.0625,0 -0.109375,0.046875 -0.109375,0.109375 0,0.03125 0,0.046875 0.1875,0.234375 0.984375,0.984375 1.546875,2.5625 1.546875,4.640625 0,1.71875 -0.359375,3.46875 -1.59375,4.71875 C 0.5625,2.34375 0.5625,2.359375 0.5625,2.390625 0.5625,2.453125 0.609375,2.5 0.671875,2.5 0.765625,2.5 1.671875,1.8125 2.25,0.546875 2.765625,-0.546875 2.875,-1.65625 2.875,-2.5 Z m 0,0"
           id="path9978" />
      </symbol>
      <symbol
         overflow="visible"
         id="symbol6525">
        <path
           style="stroke:none"
           d="m 6.84375,-3.265625 c 0.15625,0 0.34375,0 0.34375,-0.1875 C 7.1875,-3.65625 7,-3.65625 6.859375,-3.65625 h -5.96875 c -0.140625,0 -0.328125,0 -0.328125,0.203125 0,0.1875 0.1875,0.1875 0.328125,0.1875 z m 0.015625,1.9375 c 0.140625,0 0.328125,0 0.328125,-0.203125 0,-0.1875 -0.1875,-0.1875 -0.34375,-0.1875 H 0.890625 c -0.140625,0 -0.328125,0 -0.328125,0.1875 0,0.203125 0.1875,0.203125 0.328125,0.203125 z m 0,0"
           id="path5359" />
      </symbol>
      <symbol
         overflow="visible"
         id="symbol141">
        <path
           style="stroke:none"
           d=""
           id="path1665" />
      </symbol>
      <symbol
         overflow="visible"
         id="symbol689">
        <path
           style="stroke:none"
           d="M 4.421875,-4 C 3.875,-3.890625 3.8125,-3.40625 3.8125,-3.3125 c 0,0.21875 0.171875,0.46875 0.5,0.46875 0.34375,0 0.71875,-0.28125 0.71875,-0.796875 C 5.03125,-4.09375 4.671875,-4.5 4.0625,-4.5 3.5,-4.5 3.03125,-4.234375 2.734375,-3.90625 2.5,-4.359375 1.921875,-4.5 1.5625,-4.5 c -0.359375,0 -0.640625,0.203125 -0.859375,0.5625 -0.25,0.390625 -0.390625,0.921875 -0.390625,0.984375 0,0.140625 0.15625,0.140625 0.25,0.140625 0.109375,0 0.140625,0 0.1875,-0.046875 C 0.78125,-2.875 0.78125,-2.90625 0.84375,-3.15625 c 0.1875,-0.75 0.40625,-0.984375 0.671875,-0.984375 0.15625,0 0.234375,0.09375 0.234375,0.359375 0,0.171875 -0.03125,0.28125 -0.140625,0.75 -0.046875,0.171875 -0.21875,0.828125 -0.28125,1.078125 -0.046875,0.1875 -0.15625,0.640625 -0.203125,0.8125 -0.0625,0.265625 -0.171875,0.71875 -0.171875,0.78125 0,0.203125 0.15625,0.4375 0.46875,0.4375 0.1875,0 0.546875,-0.125 0.65625,-0.53125 0,-0.03125 0.6875,-2.734375 0.6875,-2.796875 C 2.8125,-3.40625 2.8125,-3.421875 2.9375,-3.5625 c 0.234375,-0.296875 0.59375,-0.578125 1.09375,-0.578125 0.25,0 0.359375,0.109375 0.390625,0.140625 z m 0,0"
           id="path4500" />
      </symbol>
      <symbol
         overflow="visible"
         id="symbol6959">
        <path
           style="stroke:none"
           d=""
           id="path9071" />
      </symbol>
      <symbol
         overflow="visible"
         id="symbol5991">
        <path
           style="stroke:none"
           d="m 2.9375,-2.65625 c -0.140625,-0.234375 -0.375,-0.421875 -0.71875,-0.421875 -0.890625,0 -1.796875,0.984375 -1.796875,1.984375 0,0.6875 0.453125,1.15625 1.0625,1.15625 0.375,0 0.703125,-0.203125 0.984375,-0.484375 C 2.59375,0 3,0.0625 3.1875,0.0625 c 0.25,0 0.421875,-0.140625 0.546875,-0.359375 0.15625,-0.28125 0.25,-0.671875 0.25,-0.703125 0,-0.09375 -0.09375,-0.09375 -0.109375,-0.09375 -0.109375,0 -0.109375,0.03125 -0.15625,0.21875 C 3.625,-0.53125 3.5,-0.125 3.203125,-0.125 3.03125,-0.125 2.96875,-0.28125 2.96875,-0.46875 c 0,-0.109375 0.0625,-0.375 0.109375,-0.546875 0.046875,-0.1875 0.125,-0.46875 0.15625,-0.625 L 3.375,-2.171875 C 3.421875,-2.359375 3.5,-2.6875 3.5,-2.71875 3.5,-2.875 3.375,-2.9375 3.265625,-2.9375 c -0.125,0 -0.28125,0.078125 -0.328125,0.28125 z M 2.5,-0.875 C 2.453125,-0.671875 2.296875,-0.53125 2.140625,-0.40625 2.078125,-0.34375 1.796875,-0.125 1.5,-0.125 c -0.265625,0 -0.515625,-0.1875 -0.515625,-0.671875 0,-0.375 0.203125,-1.140625 0.375,-1.421875 0.3125,-0.5625 0.671875,-0.65625 0.859375,-0.65625 0.484375,0 0.625,0.53125 0.625,0.609375 0,0.015625 -0.015625,0.078125 -0.015625,0.09375 z m 0,0"
           id="path5428" />
      </symbol>
      <symbol
         overflow="visible"
         id="symbol5832">
        <path
           style="stroke:none"
           d="m 1.84375,-4.625 c 0,-0.015625 0.03125,-0.109375 0.03125,-0.109375 0,-0.046875 -0.03125,-0.109375 -0.125,-0.109375 -0.140625,0 -0.71875,0.0625 -0.890625,0.078125 -0.046875,0 -0.15625,0.015625 -0.15625,0.15625 0,0.09375 0.109375,0.09375 0.1875,0.09375 0.328125,0 0.328125,0.0625 0.328125,0.109375 0,0.046875 -0.0625,0.328125 -0.109375,0.484375 l -0.15625,0.640625 c -0.0625,0.25 -0.4375,1.765625 -0.453125,1.859375 -0.046875,0.171875 -0.046875,0.265625 -0.046875,0.34375 0,0.703125 0.453125,1.140625 1.03125,1.140625 0.875,0 1.796875,-0.9375 1.796875,-1.96875 0,-0.8125 -0.5625,-1.171875 -1.046875,-1.171875 -0.359375,0 -0.671875,0.203125 -0.875,0.390625 z m -0.359375,4.5 c -0.328125,0 -0.53125,-0.296875 -0.53125,-0.71875 0,-0.25 0.0625,-0.484375 0.265625,-1.28125 C 1.25,-2.25 1.25,-2.265625 1.390625,-2.421875 1.65625,-2.71875 1.96875,-2.875 2.21875,-2.875 c 0.265625,0 0.5,0.203125 0.5,0.671875 0,0.28125 -0.140625,1 -0.359375,1.40625 C 2.1875,-0.453125 1.84375,-0.125 1.484375,-0.125 Z m 0,0"
           id="path4351" />
      </symbol>
    </g>
    <g
       id="g8619">
      <symbol
         overflow="visible"
         id="symbol7001">
        <path
           style="stroke:none"
           d=""
           id="path7124" />
      </symbol>
      <symbol
         overflow="visible"
         id="symbol1950">
        <path
           style="stroke:none"
           d="M 0.453125,1.21875 C 0.375,1.5625 0.34375,1.625 -0.09375,1.625 c -0.109375,0 -0.21875,0 -0.21875,0.1875 0,0.078125 0.046875,0.125 0.125,0.125 0.265625,0 0.5625,-0.03125 0.828125,-0.03125 0.34375,0 0.671875,0.03125 1,0.03125 0.046875,0 0.171875,0 0.171875,-0.203125 C 1.8125,1.625 1.71875,1.625 1.578125,1.625 c -0.5,0 -0.5,-0.0625 -0.5,-0.15625 0,-0.125 0.421875,-1.75 0.484375,-2 0.125,0.296875 0.40625,0.640625 0.921875,0.640625 1.15625,0 2.40625,-1.453125 2.40625,-2.921875 0,-0.9375 -0.578125,-1.59375 -1.328125,-1.59375 -0.5,0 -0.984375,0.359375 -1.3125,0.75 -0.09375,-0.546875 -0.53125,-0.75 -0.890625,-0.75 -0.46875,0 -0.65625,0.390625 -0.734375,0.5625 C 0.4375,-3.5 0.3125,-2.90625 0.3125,-2.875 c 0,0.109375 0.09375,0.109375 0.109375,0.109375 0.109375,0 0.109375,-0.015625 0.171875,-0.234375 0.171875,-0.703125 0.375,-1.1875 0.734375,-1.1875 0.171875,0 0.3125,0.078125 0.3125,0.453125 0,0.234375 -0.03125,0.34375 -0.078125,0.515625 z m 1.75,-4.328125 C 2.265625,-3.375 2.546875,-3.65625 2.71875,-3.8125 c 0.359375,-0.296875 0.640625,-0.375 0.8125,-0.375 0.390625,0 0.640625,0.34375 0.640625,0.9375 0,0.59375 -0.328125,1.734375 -0.515625,2.109375 -0.34375,0.703125 -0.8125,1.03125 -1.1875,1.03125 C 1.8125,-0.109375 1.6875,-0.9375 1.6875,-1 c 0,-0.015625 0,-0.03125 0.03125,-0.15625 z m 0,0"
           id="path3869" />
      </symbol>
      <symbol
         overflow="visible"
         id="symbol4167">
        <path
           style="stroke:none"
           d=""
           id="path4658" />
      </symbol>
      <symbol
         overflow="visible"
         id="symbol417">
        <path
           style="stroke:none"
           d="m 6.84375,-3.265625 c 0.15625,0 0.34375,0 0.34375,-0.1875 C 7.1875,-3.65625 7,-3.65625 6.859375,-3.65625 h -5.96875 c -0.140625,0 -0.328125,0 -0.328125,0.203125 0,0.1875 0.1875,0.1875 0.328125,0.1875 z m 0.015625,1.9375 c 0.140625,0 0.328125,0 0.328125,-0.203125 0,-0.1875 -0.1875,-0.1875 -0.34375,-0.1875 H 0.890625 c -0.140625,0 -0.328125,0 -0.328125,0.1875 0,0.203125 0.1875,0.203125 0.328125,0.203125 z m 0,0"
           id="path6425" />
      </symbol>
      <symbol
         overflow="visible"
         id="symbol414">
        <path
           style="stroke:none"
           d=""
           id="path3529" />
      </symbol>
      <symbol
         overflow="visible"
         id="symbol5341">
        <path
           style="stroke:none"
           d="m 2.9375,-2.65625 c -0.140625,-0.234375 -0.375,-0.421875 -0.71875,-0.421875 -0.890625,0 -1.796875,0.984375 -1.796875,1.984375 0,0.6875 0.453125,1.15625 1.0625,1.15625 0.375,0 0.703125,-0.203125 0.984375,-0.484375 C 2.59375,0 3,0.0625 3.1875,0.0625 c 0.25,0 0.421875,-0.140625 0.546875,-0.359375 0.15625,-0.28125 0.25,-0.671875 0.25,-0.703125 0,-0.09375 -0.09375,-0.09375 -0.109375,-0.09375 -0.109375,0 -0.109375,0.03125 -0.15625,0.21875 C 3.625,-0.53125 3.5,-0.125 3.203125,-0.125 3.03125,-0.125 2.96875,-0.28125 2.96875,-0.46875 c 0,-0.109375 0.0625,-0.375 0.109375,-0.546875 0.046875,-0.1875 0.125,-0.46875 0.15625,-0.625 L 3.375,-2.171875 C 3.421875,-2.359375 3.5,-2.6875 3.5,-2.71875 3.5,-2.875 3.375,-2.9375 3.265625,-2.9375 c -0.125,0 -0.28125,0.078125 -0.328125,0.28125 z M 2.5,-0.875 C 2.453125,-0.671875 2.296875,-0.53125 2.140625,-0.40625 2.078125,-0.34375 1.796875,-0.125 1.5,-0.125 c -0.265625,0 -0.515625,-0.1875 -0.515625,-0.671875 0,-0.375 0.203125,-1.140625 0.375,-1.421875 0.3125,-0.5625 0.671875,-0.65625 0.859375,-0.65625 0.484375,0 0.625,0.53125 0.625,0.609375 0,0.015625 -0.015625,0.078125 -0.015625,0.09375 z m 0,0"
           id="path2970" />
      </symbol>
      <symbol
         overflow="visible"
         id="symbol5809">
        <path
           style="stroke:none"
           d="m 1.84375,-4.625 c 0,-0.015625 0.03125,-0.109375 0.03125,-0.109375 0,-0.046875 -0.03125,-0.109375 -0.125,-0.109375 -0.140625,0 -0.71875,0.0625 -0.890625,0.078125 -0.046875,0 -0.15625,0.015625 -0.15625,0.15625 0,0.09375 0.109375,0.09375 0.1875,0.09375 0.328125,0 0.328125,0.0625 0.328125,0.109375 0,0.046875 -0.0625,0.328125 -0.109375,0.484375 l -0.15625,0.640625 c -0.0625,0.25 -0.4375,1.765625 -0.453125,1.859375 -0.046875,0.171875 -0.046875,0.265625 -0.046875,0.34375 0,0.703125 0.453125,1.140625 1.03125,1.140625 0.875,0 1.796875,-0.9375 1.796875,-1.96875 0,-0.8125 -0.5625,-1.171875 -1.046875,-1.171875 -0.359375,0 -0.671875,0.203125 -0.875,0.390625 z m -0.359375,4.5 c -0.328125,0 -0.53125,-0.296875 -0.53125,-0.71875 0,-0.25 0.0625,-0.484375 0.265625,-1.28125 C 1.25,-2.25 1.25,-2.265625 1.390625,-2.421875 1.65625,-2.71875 1.96875,-2.875 2.21875,-2.875 c 0.265625,0 0.5,0.203125 0.5,0.671875 0,0.28125 -0.140625,1 -0.359375,1.40625 C 2.1875,-0.453125 1.84375,-0.125 1.484375,-0.125 Z m 0,0"
           id="path460" />
      </symbol>
    </g>
    <g
       id="g885">
      <symbol
         overflow="visible"
         id="symbol6751">
        <path
           style="stroke:none"
           d=""
           id="path1566" />
      </symbol>
      <symbol
         overflow="visible"
         id="symbol8098">
        <path
           style="stroke:none"
           d="M 0.453125,1.21875 C 0.375,1.5625 0.34375,1.625 -0.09375,1.625 c -0.109375,0 -0.21875,0 -0.21875,0.1875 0,0.078125 0.046875,0.125 0.125,0.125 0.265625,0 0.5625,-0.03125 0.828125,-0.03125 0.34375,0 0.671875,0.03125 1,0.03125 0.046875,0 0.171875,0 0.171875,-0.203125 C 1.8125,1.625 1.71875,1.625 1.578125,1.625 c -0.5,0 -0.5,-0.0625 -0.5,-0.15625 0,-0.125 0.421875,-1.75 0.484375,-2 0.125,0.296875 0.40625,0.640625 0.921875,0.640625 1.15625,0 2.40625,-1.453125 2.40625,-2.921875 0,-0.9375 -0.578125,-1.59375 -1.328125,-1.59375 -0.5,0 -0.984375,0.359375 -1.3125,0.75 -0.09375,-0.546875 -0.53125,-0.75 -0.890625,-0.75 -0.46875,0 -0.65625,0.390625 -0.734375,0.5625 C 0.4375,-3.5 0.3125,-2.90625 0.3125,-2.875 c 0,0.109375 0.09375,0.109375 0.109375,0.109375 0.109375,0 0.109375,-0.015625 0.171875,-0.234375 0.171875,-0.703125 0.375,-1.1875 0.734375,-1.1875 0.171875,0 0.3125,0.078125 0.3125,0.453125 0,0.234375 -0.03125,0.34375 -0.078125,0.515625 z m 1.75,-4.328125 C 2.265625,-3.375 2.546875,-3.65625 2.71875,-3.8125 c 0.359375,-0.296875 0.640625,-0.375 0.8125,-0.375 0.390625,0 0.640625,0.34375 0.640625,0.9375 0,0.59375 -0.328125,1.734375 -0.515625,2.109375 -0.34375,0.703125 -0.8125,1.03125 -1.1875,1.03125 C 1.8125,-0.109375 1.6875,-0.9375 1.6875,-1 c 0,-0.015625 0,-0.03125 0.03125,-0.15625 z m 0,0"
           id="path4411" />
      </symbol>
      <symbol
         overflow="visible"
         id="symbol307">
        <path
           style="stroke:none"
           d=""
           id="path4861" />
      </symbol>
      <symbol
         overflow="visible"
         id="symbol22">
        <path
           style="stroke:none"
           d="m 2.9375,-2.65625 c -0.140625,-0.234375 -0.375,-0.421875 -0.71875,-0.421875 -0.890625,0 -1.796875,0.984375 -1.796875,1.984375 0,0.6875 0.453125,1.15625 1.0625,1.15625 0.375,0 0.703125,-0.203125 0.984375,-0.484375 C 2.59375,0 3,0.0625 3.1875,0.0625 c 0.25,0 0.421875,-0.140625 0.546875,-0.359375 0.15625,-0.28125 0.25,-0.671875 0.25,-0.703125 0,-0.09375 -0.09375,-0.09375 -0.109375,-0.09375 -0.109375,0 -0.109375,0.03125 -0.15625,0.21875 C 3.625,-0.53125 3.5,-0.125 3.203125,-0.125 3.03125,-0.125 2.96875,-0.28125 2.96875,-0.46875 c 0,-0.109375 0.0625,-0.375 0.109375,-0.546875 0.046875,-0.1875 0.125,-0.46875 0.15625,-0.625 L 3.375,-2.171875 C 3.421875,-2.359375 3.5,-2.6875 3.5,-2.71875 3.5,-2.875 3.375,-2.9375 3.265625,-2.9375 c -0.125,0 -0.28125,0.078125 -0.328125,0.28125 z M 2.5,-0.875 C 2.453125,-0.671875 2.296875,-0.53125 2.140625,-0.40625 2.078125,-0.34375 1.796875,-0.125 1.5,-0.125 c -0.265625,0 -0.515625,-0.1875 -0.515625,-0.671875 0,-0.375 0.203125,-1.140625 0.375,-1.421875 0.3125,-0.5625 0.671875,-0.65625 0.859375,-0.65625 0.484375,0 0.625,0.53125 0.625,0.609375 0,0.015625 -0.015625,0.078125 -0.015625,0.09375 z m 0,0"
           id="path3201" />
      </symbol>
      <symbol
         overflow="visible"
         id="symbol374">
        <path
           style="stroke:none"
           d="m 1.84375,-4.625 c 0,-0.015625 0.03125,-0.109375 0.03125,-0.109375 0,-0.046875 -0.03125,-0.109375 -0.125,-0.109375 -0.140625,0 -0.71875,0.0625 -0.890625,0.078125 -0.046875,0 -0.15625,0.015625 -0.15625,0.15625 0,0.09375 0.109375,0.09375 0.1875,0.09375 0.328125,0 0.328125,0.0625 0.328125,0.109375 0,0.046875 -0.0625,0.328125 -0.109375,0.484375 l -0.15625,0.640625 c -0.0625,0.25 -0.4375,1.765625 -0.453125,1.859375 -0.046875,0.171875 -0.046875,0.265625 -0.046875,0.34375 0,0.703125 0.453125,1.140625 1.03125,1.140625 0.875,0 1.796875,-0.9375 1.796875,-1.96875 0,-0.8125 -0.5625,-1.171875 -1.046875,-1.171875 -0.359375,0 -0.671875,0.203125 -0.875,0.390625 z m -0.359375,4.5 c -0.328125,0 -0.53125,-0.296875 -0.53125,-0.71875 0,-0.25 0.0625,-0.484375 0.265625,-1.28125 C 1.25,-2.25 1.25,-2.265625 1.390625,-2.421875 1.65625,-2.71875 1.96875,-2.875 2.21875,-2.875 c 0.265625,0 0.5,0.203125 0.5,0.671875 0,0.28125 -0.140625,1 -0.359375,1.40625 C 2.1875,-0.453125 1.84375,-0.125 1.484375,-0.125 Z m 0,0"
           id="path6628" />
      </symbol>
      <symbol
         overflow="visible"
         id="symbol8751">
        <path
           style="stroke:none"
           d=""
           id="path8762" />
      </symbol>
      <symbol
         overflow="visible"
         id="symbol5473">
        <path
           style="stroke:none"
           d="m 6.84375,-3.265625 c 0.15625,0 0.34375,0 0.34375,-0.1875 C 7.1875,-3.65625 7,-3.65625 6.859375,-3.65625 h -5.96875 c -0.140625,0 -0.328125,0 -0.328125,0.203125 0,0.1875 0.1875,0.1875 0.328125,0.1875 z m 0.015625,1.9375 c 0.140625,0 0.328125,0 0.328125,-0.203125 0,-0.1875 -0.1875,-0.1875 -0.34375,-0.1875 H 0.890625 c -0.140625,0 -0.328125,0 -0.328125,0.1875 0,0.203125 0.1875,0.203125 0.328125,0.203125 z m 0,0"
           id="path850" />
      </symbol>
    </g>
  </defs>
  <g
     inkscape:label="Layer 1"
     inkscape:groupmode="layer"
     id="layer1"
     transform="translate(-59.761192,-130.33677)">
    <g
       id="g9273"
       style="stroke-width:0.705556;stroke-miterlimit:10.433;stroke-dasharray:none" />
    <g
       id="g30990"
       inkscape:export-filename="/home/alejandrocastro/Drake/drake/multibody/plant/images/hydro_analytic.png"
       inkscape:export-xdpi="200"
       inkscape:export-ydpi="200"
       transform="matrix(2.658992,0,0,2.658992,-99.143331,-216.22767)">
      <path
         style="fill:none;fill-opacity:1;stroke:#0091ff;stroke-width:0.176389;stroke-linecap:round;stroke-linejoin:round;stroke-miterlimit:10.433;stroke-dasharray:none;stroke-opacity:1"
         d="m 68.497611,138.67379 c 4.600602,0.89004 9.258489,1.48387 13.935244,1.77658 5.477986,0.34286 10.981795,0.27238 16.449204,-0.21065"
         id="path13346"
         inkscape:path-effect="#path-effect13348"
         inkscape:original-d="m 68.497611,138.67379 c 4.547481,1.1341 9.408049,0.62324 13.935244,1.77658 4.527193,1.15333 10.848779,0.42124 16.449204,-0.21065"
         sodipodi:nodetypes="csc" />
      <path
         style="fill:none;fill-opacity:1;stroke:#ff0000;stroke-width:0.246944;stroke-linecap:round;stroke-linejoin:round;stroke-miterlimit:10.433;stroke-dasharray:none;stroke-opacity:1"
         id="path7228-3-20"
         sodipodi:type="arc"
         sodipodi:cx="84.805275"
         sodipodi:cy="123.90538"
         sodipodi:rx="23.863871"
         sodipodi:ry="20.228487"
         sodipodi:start="0.3299983"
         sodipodi:end="2.8109716"
         sodipodi:arc-type="arc"
         d="M 107.38152,130.46025 A 23.863871,20.228487 0 0 1 84.812706,144.13387 23.863871,20.228487 0 0 1 62.23385,130.47216"
         sodipodi:open="true" />
      <path
         style="fill:none;fill-opacity:1;stroke:#00ba0a;stroke-width:0.246944;stroke-linecap:round;stroke-linejoin:round;stroke-miterlimit:10.433;stroke-dasharray:none;stroke-opacity:1"
         id="path7228-3-20-3"
         sodipodi:type="arc"
         sodipodi:cx="-81.105881"
         sodipodi:cy="-155.75037"
         sodipodi:rx="23.863871"
         sodipodi:ry="20.228487"
         sodipodi:start="0.3299983"
         sodipodi:end="2.8109716"
         sodipodi:arc-type="arc"
         sodipodi:open="true"
         d="m -58.529636,-149.1955 a 23.863871,20.228487 0 0 1 -22.568814,13.67362 23.863871,20.228487 0 0 1 -22.57886,-13.6617"
         transform="rotate(179.47869)" />
      <g
         inkscape:label=""
         transform="matrix(0.26382941,0,0,0.26382941,63.258666,120.96693)"
         id="g15161"
         style="fill:#ff0000">
        <g
           id="g5433"
           style="fill:#ff0000">
          <g
             style="fill:#ff0000;fill-opacity:1"
             id="g2535">
            <use
               xlink:href="#symbol4630"
               x="91.925003"
               y="81.962997"
               id="use8985"
               width="100%"
               height="100%"
               style="fill:#ff0000" />
          </g>
          <g
             style="fill:#ff0000;fill-opacity:1"
             id="g2569">
            <use
               xlink:href="#symbol1498"
               x="97.861"
               y="83.457001"
               id="use5390"
               width="100%"
               height="100%"
               style="fill:#ff0000" />
          </g>
        </g>
      </g>
      <g
         inkscape:label=""
         transform="matrix(0.26382941,0,0,0.26382941,63.590548,116.77892)"
         id="g15393"
         style="fill:#00ba0a">
        <g
           id="g1958"
           style="fill:#00ba0a">
          <g
             style="fill:#00ba0a;fill-opacity:1"
             id="g6508">
            <use
               xlink:href="#symbol7317"
               x="91.925003"
               y="81.962997"
               id="use7414"
               width="100%"
               height="100%"
               style="fill:#00ba0a" />
          </g>
          <g
             style="fill:#00ba0a;fill-opacity:1"
             id="g5416">
            <use
               xlink:href="#symbol3227"
               x="97.861"
               y="83.457001"
               id="use909"
               width="100%"
               height="100%"
               style="fill:#00ba0a" />
          </g>
        </g>
      </g>
      <g
         inkscape:label=""
         transform="matrix(0.26382941,0,0,0.26382941,42.230165,107.22251)"
         id="g15655"
         style="fill:#0091ff;fill-opacity:1;stroke:#0091ff;stroke-opacity:1">
        <g
           id="g5654"
           style="fill:#0091ff;fill-opacity:1;stroke:#0091ff;stroke-opacity:1">
          <g
             id="g19861"
             transform="translate(90.981469,40.999155)"
             style="fill:#0091ff;fill-opacity:1;stroke:#0091ff;stroke-opacity:1">
            <g
               style="fill:#0091ff;fill-opacity:1;stroke:#0091ff;stroke-opacity:1"
               id="g7409"
               transform="matrix(0.77615393,0,0,0.77615393,24.539678,18.805526)">
              <use
                 xlink:href="#symbol4598"
                 x="91.925003"
                 y="81.962997"
                 id="use2138"
                 width="100%"
                 height="100%"
                 style="fill:#0091ff;fill-opacity:1;stroke:#0091ff;stroke-opacity:1" />
            </g>
            <g
               style="fill:#0091ff;fill-opacity:1;stroke:#0091ff;stroke-opacity:1"
               id="g1918"
               transform="translate(-0.54398099,0.50549116)">
              <use
                 xlink:href="#symbol7460"
                 x="102.441"
                 y="81.962997"
                 id="use6262"
                 width="100%"
                 height="100%"
                 style="fill:#0091ff;fill-opacity:1;stroke:#0091ff;stroke-opacity:1" />
            </g>
          </g>
        </g>
      </g>
      <g
         inkscape:label=""
         transform="matrix(0.26382941,0,0,0.26382941,79.17199,111.07782)"
         id="g15941"
         style="fill:#ff0000">
        <g
           id="g785"
           style="fill:#ff0000">
          <g
             style="fill:#ff0000;fill-opacity:1"
             id="g8415">
            <use
               xlink:href="#symbol5711"
               x="91.925003"
               y="81.962997"
               id="use8942"
               width="100%"
               height="100%"
               style="fill:#ff0000" />
          </g>
        </g>
      </g>
      <g
         inkscape:label=""
         transform="matrix(0.26382941,0,0,0.26382941,76.8762,126.22627)"
         id="g16239"
         style="fill:#00ba0a">
        <g
           id="g5172"
           style="fill:#00ba0a">
          <g
             style="fill:#00ba0a;fill-opacity:1"
             id="g74">
            <use
               xlink:href="#symbol5442"
               x="91.925003"
               y="81.962997"
               id="use4904"
               width="100%"
               height="100%"
               style="fill:#00ba0a" />
          </g>
        </g>
      </g>
      <g
         inkscape:label=""
         transform="matrix(0.192962,0,0,0.192962,61.627652,116.32884)"
         id="g18235"
         style="fill:#0091ff;stroke:#0091ff">
        <g
           id="g6231"
           style="fill:#0091ff;stroke:#0091ff">
          <g
             inkscape:label=""
             transform="matrix(1.1878465,0,0,1.1878465,-35.467356,-21.034884)"
             id="g28334"
             style="fill:#0091ff;stroke:#0091ff">
            <g
               id="g6706"
               style="fill:#0091ff;stroke:#0091ff">
              <g
                 id="g28487"
                 transform="translate(-1.1772194,30.658508)"
                 style="fill:#0091ff;stroke:#0091ff">
                <g
                   style="fill:#0091ff;fill-opacity:1;stroke:#0091ff"
                   id="g4444"
                   transform="translate(2.6830765,-0.34752581)" />
                <g
                   id="g28943"
                   transform="translate(-2.069797,1.6076161)"
                   style="fill:#0091ff;stroke:#0091ff">
                  <g
                     style="fill:#0091ff;fill-opacity:1;stroke:#0091ff"
                     id="g6108"
                     transform="translate(2.7814433,-1.2661662)">
                    <use
                       xlink:href="#symbol8098"
                       x="91.925003"
                       y="81.962997"
                       id="use3409"
                       width="100%"
                       height="100%"
                       style="fill:#0091ff;stroke:#0091ff" />
                  </g>
                  <use
                     xlink:href="#symbol22"
                     x="96.938004"
                     y="83.457001"
                     id="use3960"
                     width="100%"
                     height="100%"
                     transform="translate(2.7814402,-1.266162)"
                     style="fill:#0091ff;fill-opacity:1;stroke:#0091ff" />
                  <g
                     style="fill:#0091ff;fill-opacity:1;stroke:#0091ff"
                     id="g4474">
                    <use
                       xlink:href="#symbol5473"
                       x="104.525"
                       y="81.962997"
                       id="use1066"
                       width="100%"
                       height="100%"
                       style="fill:#0091ff;stroke:#0091ff" />
                  </g>
                  <g
                     style="fill:#0091ff;fill-opacity:1;stroke:#0091ff"
                     id="g1184"
                     transform="translate(-1.8015819,-1.0389511)">
                    <use
                       xlink:href="#symbol8098"
                       x="115.041"
                       y="81.962997"
                       id="use5496"
                       width="100%"
                       height="100%"
                       style="fill:#0091ff;stroke:#0091ff" />
                  </g>
                  <g
                     style="fill:#0091ff;fill-opacity:1;stroke:#0091ff"
                     id="g1387"
                     transform="translate(-1.8015819,-1.0389511)">
                    <use
                       xlink:href="#symbol374"
                       x="120.053"
                       y="83.457001"
                       id="use3393"
                       width="100%"
                       height="100%"
                       style="fill:#0091ff;stroke:#0091ff" />
                  </g>
                  <g
                     style="fill:#0091ff;fill-opacity:1;stroke:#0091ff"
                     id="g4639"
                     transform="translate(-3.3765911,-0.1408559)">
                    <use
                       xlink:href="#symbol5473"
                       x="126.822"
                       y="81.962997"
                       id="use2542"
                       width="100%"
                       height="100%"
                       style="fill:#0091ff;stroke:#0091ff" />
                  </g>
                  <g
                     style="fill:#0091ff;fill-opacity:1;stroke:#0091ff"
                     id="g9314"
                     transform="translate(-4.9407094,-0.79792727)">
                    <use
                       xlink:href="#symbol8098"
                       x="137.338"
                       y="81.962997"
                       id="use3963"
                       width="100%"
                       height="100%"
                       style="fill:#0091ff;stroke:#0091ff" />
                  </g>
                </g>
              </g>
            </g>
          </g>
        </g>
      </g>
      <path
         style="fill:none;fill-opacity:1;stroke:#0091ff;stroke-width:0.105833;stroke-linecap:round;stroke-linejoin:round;stroke-miterlimit:10.433;stroke-dasharray:none;stroke-opacity:1"
         d="m 91.546898,136.25737 -0.84669,7.2496"
         id="path20117" />
      <path
         style="fill:#ff0000;fill-opacity:1;stroke:#00ba0a;stroke-width:0.105833;stroke-linecap:round;stroke-linejoin:round;stroke-miterlimit:10.433;stroke-dasharray:none;stroke-opacity:1"
         d="m 91.5472,136.25747 -1.51607,4.40354"
         id="path26377" />
      <path
         style="fill:#ff0000;fill-opacity:1;stroke:#ff0000;stroke-width:0.105833;stroke-linecap:round;stroke-linejoin:round;stroke-miterlimit:10.433;stroke-dasharray:none;stroke-opacity:1"
         d="M 90.700391,143.50693 90.03113,140.66101"
         id="path26379" />
      <path
         style="fill:none;fill-opacity:1;stroke:#0091ff;stroke-width:0.105833;stroke-linecap:round;stroke-linejoin:round;stroke-miterlimit:10.433;stroke-dasharray:none;stroke-opacity:1;marker-start:url(#DotM)"
         d="m 90.03113,140.66101 c -0.385698,-0.29523 -0.811197,-0.53838 -1.261351,-0.72082 -0.314462,-0.12744 -0.647562,-0.2263 -0.986787,-0.21891 -0.215237,0.005 -0.427032,0.052 -0.640922,0.0765 -0.213891,0.0245 -0.437734,0.0248 -0.63569,-0.0599 -0.149246,-0.0638 -0.275307,-0.17251 -0.384436,-0.29266 -0.109128,-0.12015 -0.203507,-0.25281 -0.306852,-0.37797 -0.112876,-0.1367 -0.236523,-0.26451 -0.369418,-0.38185"
         id="path29501"
         inkscape:path-effect="#path-effect29503"
         inkscape:original-d="m 90.03113,140.66101 c -0.534588,-0.16838 -0.726236,-0.55191 -1.261351,-0.72082 -0.535117,-0.16892 -0.785854,0.0284 -0.986787,-0.21891 -0.200935,-0.24735 -0.907495,0.15409 -1.276612,0.0166 -0.369118,-0.13748 -0.390052,-0.69203 -0.691288,-0.67063 -0.301236,0.0214 -0.122472,-0.25142 -0.369418,-0.38185"
         sodipodi:nodetypes="cssssc" />
    </g>
  </g>
</svg>
