####
#
# OBJ File Generated by Meshlab
#
####
# Object l_hand_chull.obj
#
# Vertices: 12
# Faces: 20
#
####
vn -0.183312 0.084687 0.979400
v 0.061107 0.000219 -0.029116
vn -0.690322 0.660238 0.295874
v 0.064236 -0.026294 -0.011304
vn -0.234166 0.544470 -0.805431
v 0.060928 -0.017353 0.024331
vn -0.459083 -0.315104 0.830634
v 0.066275 0.085778 -0.020613
vn -0.507078 0.033295 -0.861257
v 0.067078 0.083564 0.041062
vn 0.065117 -0.664191 0.744721
v -0.021183 0.129655 -0.019892
vn -0.115546 -0.513934 -0.850013
v 0.027593 0.124337 0.043604
vn 0.275016 0.099088 0.956320
v -0.068692 -0.011252 -0.037484
vn 0.074879 0.214253 -0.973904
v -0.068819 -0.019412 0.032032
vn 0.518640 0.854982 -0.004236
v -0.068491 -0.035373 0.000075
vn 0.831747 -0.335640 0.442201
v -0.068492 0.091014 -0.020384
vn 0.797511 -0.322193 -0.510067
v -0.068537 0.090410 0.039389
# 12 vertices, 0 vertices normals

f 11//11 8//8 6//6
f 7//7 4//4 5//5
f 2//2 4//4 1//1
f 5//5 2//2 3//3
f 3//3 9//9 5//5
f 5//5 9//9 7//7
f 8//8 1//1 4//4
f 8//8 4//4 6//6
f 4//4 7//7 6//6
f 1//1 8//8 2//2
f 12//12 7//7 9//9
f 10//10 2//2 8//8
f 10//10 9//9 3//3
f 3//3 2//2 10//10
f 12//12 6//6 7//7
f 12//12 11//11 6//6
f 4//4 2//2 5//5
f 12//12 8//8 11//11
f 12//12 10//10 8//8
f 12//12 9//9 10//10
# 20 faces, 0 coords texture

# End of File