####
#
# OBJ File Generated by Meshlab
#
####
# Object r_foot.obj
#
# Vertices: 156
# Faces: 248
#
####
vn 0.019147 -0.471390 -0.881717
v 0.117552 -0.063927 -0.081351
vn 0.063434 -0.997959 0.007410
v 0.117552 -0.063927 -0.055877
vn -0.110154 -0.993860 0.010423
v -0.057022 -0.063927 -0.055877
vn -0.051743 -0.469232 -0.881558
v -0.058741 -0.063927 -0.081351
vn 0.156216 -0.350375 -0.923490
v 0.142419 -0.054526 -0.081351
vn 0.207495 -0.335223 -0.919006
v 0.161322 -0.045125 -0.081351
vn 0.499674 -0.863540 0.068008
v 0.161322 -0.045125 -0.068311
vn 0.404846 -0.911254 0.075606
v 0.142419 -0.054526 -0.063560
vn -0.136922 -0.095142 0.986002
v -0.078756 -0.041789 -0.034346
vn -0.919807 -0.377166 0.108169
v -0.083203 -0.041789 -0.055877
vn -0.035816 -0.317598 0.947549
v -0.054293 -0.063927 -0.034346
vn -0.995553 0.000000 0.094203
v -0.083203 0.015425 -0.055877
vn -0.107641 0.000000 -0.994190
v -0.083203 0.015425 -0.081351
vn -0.090362 0.000000 -0.995909
v -0.083203 -0.013182 -0.081351
vn -0.995553 0.000000 0.094203
v -0.083203 -0.013182 -0.055877
vn -0.104386 0.994444 0.013549
v -0.056719 0.066170 -0.055877
vn 0.045878 0.998933 0.005360
v 0.117552 0.066170 -0.055877
vn 0.030625 0.753409 -0.656838
v 0.117552 0.066170 -0.081351
vn -0.081262 0.417073 -0.905233
v -0.058741 0.066170 -0.081351
vn 0.483369 0.359327 0.798272
v 0.155964 0.047368 -0.055271
vn 0.499674 0.863540 0.068008
v 0.161322 0.047368 -0.068311
vn 0.404846 0.911254 0.075606
v 0.142419 0.056769 -0.063560
vn 0.598027 0.444275 0.667071
v 0.134838 0.056769 -0.045668
vn -0.889678 0.451876 0.065423
v -0.083203 0.044032 -0.055877
vn -0.814226 0.408735 0.412276
v -0.078756 0.044032 -0.034346
vn -0.038454 0.643711 0.764302
v -0.054293 0.066170 -0.034346
vn 0.000000 0.000000 -1.000000
v 0.142419 0.019671 -0.081351
vn 0.000000 0.000000 -1.000000
v 0.161322 0.016537 -0.081351
vn 0.000000 0.000000 -1.000000
v 0.161322 -0.014294 -0.081351
vn 0.000000 0.000000 -1.000000
v 0.142419 -0.017427 -0.081351
vn 1.000000 0.000000 0.000000
v 0.180124 0.012191 -0.071343
vn 0.621840 0.000000 0.783144
v 0.180124 0.012191 -0.061336
vn 0.746045 0.000000 0.665896
v 0.180124 -0.009947 -0.061336
vn 1.000000 0.000000 0.000000
v 0.180124 -0.009947 -0.071343
vn 0.382104 0.022010 0.923857
v 0.161322 0.016537 -0.055271
vn 0.539684 0.048462 0.840472
v 0.142419 0.019671 -0.045668
vn 0.510762 -0.050033 0.858265
v 0.142419 -0.017427 -0.045668
vn 0.356297 -0.024212 0.934059
v 0.161322 -0.014294 -0.055271
vn 0.327574 -0.175082 -0.928462
v 0.180124 -0.032186 -0.081351
vn 0.869752 -0.493489 0.000000
v 0.180124 -0.032186 -0.071343
vn 0.598027 -0.444275 0.667071
v 0.134838 -0.054526 -0.045668
vn 0.060968 -0.699036 0.712482
v 0.117552 -0.063927 -0.034346
vn 0.553722 0.330665 0.764233
v 0.180124 0.034429 -0.061336
vn 0.869752 0.493489 0.000000
v 0.180124 0.034429 -0.071343
vn 0.156216 0.350375 -0.923490
v 0.142419 0.056769 -0.081351
vn 0.000000 0.000000 -1.000000
v 0.117552 0.022804 -0.081351
vn 0.000000 0.000000 -1.000000
v 0.117552 -0.020561 -0.081351
vn 0.426437 0.000000 -0.904517
v 0.180124 -0.009947 -0.081351
vn 0.623639 0.000000 -0.781712
v 0.180124 0.012191 -0.081351
vn 0.061126 -0.006873 0.998106
v 0.128065 -0.020561 -0.034346
vn 0.054438 0.007955 0.998485
v 0.128065 0.022804 -0.034346
vn -0.086899 0.000000 0.996217
v -0.078756 -0.013182 -0.034346
vn -0.074409 0.000000 0.997228
v -0.078756 0.015425 -0.034346
vn 0.483369 -0.359327 0.798272
v 0.155964 -0.045125 -0.055271
vn -0.872198 -0.435230 -0.223258
v -0.083203 -0.041789 -0.081351
vn 0.036685 0.221745 0.974414
v 0.117552 0.066170 -0.034346
vn 0.207495 0.335223 -0.919006
v 0.161322 0.047368 -0.081351
vn -0.119664 0.057687 -0.991137
v -0.083203 0.044032 -0.081351
vn 0.643461 -0.303971 0.702538
v 0.180124 -0.032186 -0.061336
vn 0.492496 0.161275 -0.855241
v 0.180124 0.034429 -0.081351
vn 0.169037 -0.014712 0.985500
v -0.014162 -0.049269 -0.027877
vn 0.982873 0.022880 0.182855
v -0.014162 0.052524 -0.027877
vn 0.027512 0.114635 0.993027
v -0.019014 0.057376 -0.027877
vn -0.169037 0.014712 0.985500
v -0.054596 0.052524 -0.027877
vn -0.071870 0.982226 0.173400
v -0.049744 0.057376 -0.027877
vn -0.982873 -0.022880 0.182855
v -0.054596 -0.049269 -0.027877
vn -0.027512 -0.114635 0.993027
v -0.049744 -0.054121 -0.027877
vn 0.071870 -0.982225 0.173401
v -0.019014 -0.054121 -0.027877
vn 0.999729 -0.023272 0.000000
v -0.014162 -0.049269 -0.040613
vn 0.996234 0.086708 0.000000
v -0.014162 0.052524 -0.040613
vn 0.072976 0.997334 0.000000
v -0.019014 0.057376 -0.040613
vn -0.233373 0.972387 0.000000
v -0.049744 0.057376 -0.040613
vn -0.999729 0.023272 0.000000
v -0.054596 0.052524 -0.040613
vn -0.996234 -0.086708 0.000000
v -0.054596 -0.049269 -0.040613
vn -0.072976 -0.997334 0.000000
v -0.049744 -0.054121 -0.040613
vn 0.233373 -0.972387 0.000000
v -0.019014 -0.054121 -0.040613
vn 0.102309 -0.022067 0.994508
v 0.107444 -0.049775 -0.032223
vn 0.974244 0.062306 0.216716
v 0.107444 -0.025514 -0.032223
vn 0.042822 0.220056 0.974547
v 0.104108 -0.021875 -0.032223
vn -0.103838 0.021966 0.994352
v 0.070042 -0.025514 -0.032223
vn -0.054437 0.969285 0.239838
v 0.073378 -0.021875 -0.032223
vn -0.973954 -0.062652 0.217919
v 0.070042 -0.049775 -0.032223
vn -0.039937 -0.223890 0.973796
v 0.073378 -0.053111 -0.032223
vn 0.050144 -0.974002 0.220921
v 0.104108 -0.053111 -0.032223
vn 0.997937 -0.064195 0.000000
v 0.107444 -0.049775 -0.039198
vn 0.978350 0.206958 0.000000
v 0.107444 -0.025514 -0.039198
vn 0.056074 0.998427 0.000000
v 0.104108 -0.021875 -0.039198
vn -0.191012 0.981588 0.000000
v 0.073378 -0.021875 -0.039198
vn -0.997961 0.063823 0.000000
v 0.070042 -0.025514 -0.039198
vn -0.977521 -0.210838 0.000000
v 0.070042 -0.049775 -0.039198
vn -0.051414 -0.998677 0.000000
v 0.073378 -0.053111 -0.039198
vn 0.175607 -0.984460 0.000000
v 0.104108 -0.053111 -0.039198
vn 0.104159 -0.021893 0.994320
v 0.107444 0.030083 -0.032223
vn 0.973954 0.062652 0.217918
v 0.107444 0.054343 -0.032223
vn 0.039937 0.223890 0.973796
v 0.104108 0.057679 -0.032223
vn -0.102127 0.022027 0.994527
v 0.070042 0.054343 -0.032223
vn -0.050144 0.974002 0.220921
v 0.073378 0.057679 -0.032223
vn -0.974340 -0.062192 0.216318
v 0.070042 0.030083 -0.032223
vn -0.043761 -0.218805 0.974787
v 0.073378 0.026342 -0.032223
vn 0.055854 -0.967639 0.246081
v 0.104108 0.026342 -0.032223
vn 0.997969 -0.063700 0.000000
v 0.107444 0.030083 -0.039198
vn 0.977521 0.210838 0.000000
v 0.107444 0.054343 -0.039198
vn 0.051414 0.998677 0.000000
v 0.104108 0.057679 -0.039198
vn -0.175606 0.984460 0.000000
v 0.073378 0.057679 -0.039198
vn -0.997937 0.064195 0.000000
v 0.070042 0.054343 -0.039198
vn -0.978616 -0.205697 0.000000
v 0.070042 0.030083 -0.039198
vn -0.057626 -0.998338 0.000000
v 0.073378 0.026342 -0.039198
vn 0.196116 -0.980581 0.000000
v 0.104108 0.026342 -0.039198
vn 0.106043 -0.015315 0.994244
v 0.116743 -0.014900 -0.028888
vn 0.974956 0.042898 0.218221
v 0.116743 0.020581 -0.028888
vn 0.041095 0.155389 0.986998
v 0.113408 0.025433 -0.028888
vn -0.104266 0.015395 0.994430
v 0.080049 0.020581 -0.028888
vn -0.072518 0.947264 0.312142
v 0.083385 0.025433 -0.028888
vn -0.975275 -0.042628 0.216846
v 0.080049 -0.014900 -0.028888
vn -0.044468 -0.152283 0.987336
v 0.083385 -0.020258 -0.028888
vn 0.079185 -0.936780 0.340842
v 0.113408 -0.020258 -0.028888
vn 0.999046 -0.043667 0.000000
v 0.116743 -0.014900 -0.035862
vn 0.989275 0.146067 0.000000
v 0.116743 0.020581 -0.035862
vn 0.076332 0.997082 0.000000
v 0.113408 0.025433 -0.035862
vn -0.255673 0.966763 0.000000
v 0.083385 0.025433 -0.035862
vn -0.999033 0.043957 0.000000
v 0.080049 0.020581 -0.035862
vn -0.989732 -0.142937 0.000000
v 0.080049 -0.014900 -0.035862
vn -0.084229 -0.996446 0.000000
v 0.083385 -0.020258 -0.035862
vn 0.280304 -0.959911 0.000000
v 0.113408 -0.020258 -0.035862
vn 0.051637 -0.011475 0.998600
v 0.065796 -0.049775 -0.032223
vn 0.972724 0.064094 0.222934
v 0.065796 -0.025514 -0.032223
vn 0.021841 0.218410 0.975613
v 0.062359 -0.021875 -0.032223
vn -0.052427 0.011090 0.998563
v -0.006884 -0.025514 -0.032223
vn -0.026086 0.968794 0.246489
v -0.003548 -0.021875 -0.032223
vn -0.973954 -0.062652 0.217918
v -0.006884 -0.049775 -0.032223
vn -0.020384 -0.221752 0.974890
v -0.003548 -0.053111 -0.032223
vn 0.024013 -0.973621 0.226905
v 0.062359 -0.053111 -0.032223
vn 0.997811 -0.066132 0.000000
v 0.065796 -0.049775 -0.039198
vn 0.977063 0.212949 0.000000
v 0.065796 -0.025514 -0.039198
vn 0.026896 0.999638 0.000000
v 0.062359 -0.021875 -0.039198
vn -0.099778 0.995010 0.000000
v -0.003548 -0.021875 -0.039198
vn -0.997961 0.063823 0.000000
v -0.006884 -0.025514 -0.039198
vn -0.977521 -0.210838 0.000000
v -0.006884 -0.049775 -0.039198
vn -0.024675 -0.999696 0.000000
v -0.003548 -0.053111 -0.039198
vn 0.091284 -0.995825 0.000000
v 0.062359 -0.053111 -0.039198
vn 0.052556 -0.011381 0.998553
v 0.065796 0.030083 -0.032223
vn 0.972417 0.064449 0.224167
v 0.065796 0.054343 -0.032223
vn 0.020381 0.222340 0.974756
v 0.062359 0.057679 -0.032223
vn -0.051576 0.011124 0.998607
v -0.006884 0.054343 -0.032223
vn -0.024030 0.973583 0.227065
v -0.003548 0.057679 -0.032223
vn -0.974340 -0.062192 0.216318
v -0.006884 0.030083 -0.032223
vn -0.022319 -0.216556 0.976015
v -0.003548 0.026342 -0.032223
vn 0.026745 -0.967169 0.252722
v 0.062359 0.026342 -0.032223
vn 0.997845 -0.065622 0.000000
v 0.065796 0.030083 -0.039198
vn 0.976187 0.216930 0.000000
v 0.065796 0.054343 -0.039198
vn 0.024656 0.999696 0.000000
v 0.062359 0.057679 -0.039198
vn -0.091536 0.995802 0.000000
v -0.003548 0.057679 -0.039198
vn -0.997937 0.064195 0.000000
v -0.006884 0.054343 -0.039198
vn -0.978616 -0.205696 0.000000
v -0.006884 0.030083 -0.039198
vn -0.027663 -0.999617 0.000000
v -0.003548 0.026342 -0.039198
vn 0.102239 -0.994760 0.000000
v 0.062359 0.026342 -0.039198
# 156 vertices, 0 vertices normals

f 3//3 4//4 1//1
f 1//1 2//2 3//3
f 7//7 8//8 5//5
f 5//5 6//6 7//7
f 3//3 11//11 9//9
f 9//9 10//10 3//3
f 14//14 15//15 12//12
f 12//12 13//13 14//14
f 18//18 19//19 16//16
f 16//16 17//17 18//18
f 22//22 23//23 20//20
f 20//20 21//21 22//22
f 25//25 26//26 16//16
f 16//16 24//24 25//25
f 29//29 30//30 27//27
f 27//27 28//28 29//29
f 33//33 34//34 31//31
f 31//31 32//32 33//33
f 37//37 38//38 35//35
f 35//35 36//36 37//37
f 40//40 7//7 6//6
f 6//6 39//39 40//40
f 2//2 8//8 41//41
f 41//41 42//42 2//2
f 21//21 20//20 43//43
f 43//43 44//44 21//21
f 22//22 45//45 18//18
f 18//18 17//17 22//22
f 30//30 47//47 46//46
f 46//46 27//27 30//30
f 28//28 49//49 48//48
f 48//48 29//29 28//28
f 38//38 33//33 32//32
f 32//32 35//35 38//38
f 36//36 51//51 50//50
f 50//50 37//37 36//36
f 47//47 14//14 13//13
f 13//13 46//46 47//47
f 51//51 53//53 52//52
f 52//52 50//50 51//51
f 3//3 2//2 42//42
f 42//42 11//11 3//3
f 8//8 7//7 54//54
f 54//54 41//41 8//8
f 3//3 10//10 55//55
f 55//55 4//4 3//3
f 15//15 52//52 53//53
f 53//53 12//12 15//15
f 17//17 16//16 26//26
f 26//26 56//56 17//17
f 45//45 22//22 21//21
f 21//21 57//57 45//45
f 24//24 16//16 19//19
f 19//19 58//58 24//24
f 34//34 48//48 49//49
f 49//49 31//31 34//34
f 7//7 40//40 59//59
f 59//59 54//54 7//7
f 8//8 2//2 1//1
f 1//1 5//5 8//8
f 57//57 21//21 44//44
f 44//44 60//60 57//57
f 23//23 22//22 17//17
f 17//17 56//56 23//23
f 63//63 64//64 61//61
f 61//61 62//62 63//63
f 63//63 65//65 64//64
f 67//67 61//61 64//64
f 64//64 66//66 67//67
f 68//68 61//61 67//67
f 62//62 61//61 69//69
f 69//69 70//70 62//62
f 65//65 63//63 71//71
f 71//71 72//72 65//65
f 66//66 64//64 73//73
f 73//73 74//74 66//66
f 68//68 67//67 75//75
f 75//75 76//76 68//68
f 79//79 80//80 77//77
f 77//77 78//78 79//79
f 79//79 81//81 80//80
f 83//83 77//77 80//80
f 80//80 82//82 83//83
f 84//84 77//77 83//83
f 78//78 77//77 85//85
f 85//85 86//86 78//78
f 81//81 79//79 87//87
f 87//87 88//88 81//81
f 82//82 80//80 89//89
f 89//89 90//90 82//82
f 84//84 83//83 91//91
f 91//91 92//92 84//84
f 79//79 78//78 86//86
f 86//86 87//87 79//79
f 92//92 85//85 77//77
f 77//77 84//84 92//92
f 80//80 81//81 88//88
f 88//88 89//89 80//80
f 83//83 82//82 90//90
f 90//90 91//91 83//83
f 95//95 96//96 93//93
f 93//93 94//94 95//95
f 95//95 97//97 96//96
f 99//99 93//93 96//96
f 96//96 98//98 99//99
f 100//100 93//93 99//99
f 94//94 93//93 101//101
f 101//101 102//102 94//94
f 97//97 95//95 103//103
f 103//103 104//104 97//97
f 98//98 96//96 105//105
f 105//105 106//106 98//98
f 100//100 99//99 107//107
f 107//107 108//108 100//100
f 95//95 94//94 102//102
f 102//102 103//103 95//95
f 108//108 101//101 93//93
f 93//93 100//100 108//108
f 96//96 97//97 104//104
f 104//104 105//105 96//96
f 99//99 98//98 106//106
f 106//106 107//107 99//99
f 111//111 112//112 109//109
f 109//109 110//110 111//111
f 111//111 113//113 112//112
f 115//115 109//109 112//112
f 112//112 114//114 115//115
f 116//116 109//109 115//115
f 110//110 109//109 117//117
f 117//117 118//118 110//110
f 113//113 111//111 119//119
f 119//119 120//120 113//113
f 114//114 112//112 121//121
f 121//121 122//122 114//114
f 116//116 115//115 123//123
f 123//123 124//124 116//116
f 111//111 110//110 118//118
f 118//118 119//119 111//111
f 124//124 117//117 109//109
f 109//109 116//116 124//124
f 112//112 113//113 120//120
f 120//120 121//121 112//112
f 115//115 114//114 122//122
f 122//122 123//123 115//115
f 63//63 62//62 70//70
f 70//70 71//71 63//63
f 76//76 69//69 61//61
f 61//61 68//68 76//76
f 64//64 65//65 72//72
f 72//72 73//73 64//64
f 67//67 66//66 74//74
f 74//74 75//75 67//67
f 13//13 12//12 24//24
f 24//24 58//58 13//13
f 15//15 14//14 55//55
f 55//55 10//10 15//15
f 57//57 28//28 27//27
f 27//27 45//45 57//57
f 30//30 29//29 6//6
f 6//6 5//5 30//30
f 32//32 31//31 44//44
f 44//44 43//43 32//32
f 34//34 33//33 59//59
f 59//59 40//40 34//34
f 36//36 35//35 20//20
f 20//20 23//23 36//36
f 54//54 38//38 37//37
f 37//37 41//41 54//54
f 45//45 27//27 46//46
f 46//46 18//18 45//45
f 47//47 30//30 5//5
f 5//5 1//1 47//47
f 29//29 48//48 39//39
f 39//39 6//6 29//29
f 60//60 49//49 28//28
f 28//28 57//57 60//60
f 35//35 32//32 43//43
f 43//43 20//20 35//35
f 59//59 33//33 38//38
f 38//38 54//54 59//59
f 41//41 37//37 50//50
f 50//50 42//42 41//41
f 51//51 36//36 23//23
f 23//23 56//56 51//51
f 46//46 58//58 19//19
f 19//19 18//18 46//46
f 13//13 58//58 46//46
f 14//14 1//1 4//4
f 4//4 55//55 14//14
f 47//47 1//1 14//14
f 50//50 9//9 11//11
f 11//11 42//42 50//50
f 52//52 9//9 50//50
f 53//53 56//56 26//26
f 26//26 25//25 53//53
f 51//51 56//56 53//53
f 12//12 53//53 25//25
f 25//25 24//24 12//12
f 52//52 15//15 10//10
f 10//10 9//9 52//52
f 31//31 49//49 60//60
f 60//60 44//44 31//31
f 48//48 34//34 40//40
f 40//40 39//39 48//48
f 127//127 128//128 125//125
f 125//125 126//126 127//127
f 127//127 129//129 128//128
f 131//131 125//125 128//128
f 128//128 130//130 131//131
f 132//132 125//125 131//131
f 126//126 125//125 133//133
f 133//133 134//134 126//126
f 129//129 127//127 135//135
f 135//135 136//136 129//129
f 130//130 128//128 137//137
f 137//137 138//138 130//130
f 132//132 131//131 139//139
f 139//139 140//140 132//132
f 127//127 126//126 134//134
f 134//134 135//135 127//127
f 140//140 133//133 125//125
f 125//125 132//132 140//140
f 128//128 129//129 136//136
f 136//136 137//137 128//128
f 131//131 130//130 138//138
f 138//138 139//139 131//131
f 143//143 144//144 141//141
f 141//141 142//142 143//143
f 143//143 145//145 144//144
f 147//147 141//141 144//144
f 144//144 146//146 147//147
f 148//148 141//141 147//147
f 142//142 141//141 149//149
f 149//149 150//150 142//142
f 145//145 143//143 151//151
f 151//151 152//152 145//145
f 146//146 144//144 153//153
f 153//153 154//154 146//146
f 148//148 147//147 155//155
f 155//155 156//156 148//148
f 143//143 142//142 150//150
f 150//150 151//151 143//143
f 156//156 149//149 141//141
f 141//141 148//148 156//156
f 144//144 145//145 152//152
f 152//152 153//153 144//144
f 147//147 146//146 154//154
f 154//154 155//155 147//147
# 248 faces, 0 coords texture

# End of File