####
#
# OBJ File Generated by Meshlab
#
####
# Object r_hand.obj
#
# Vertices: 94
# Faces: 168
#
####
vn -0.995184 0.011283 -0.097373
v 0.055580 0.000246 -0.028859
vn -0.717484 0.555291 -0.420557
v 0.055580 0.020549 -0.020448
vn -0.990044 0.139437 0.019254
v 0.055580 0.028957 -0.000146
vn -0.717455 0.420587 0.555306
v 0.055580 0.020549 0.020156
vn -0.996170 -0.008152 0.087056
v 0.055580 0.000246 0.028566
vn -0.994549 -0.010420 0.103752
v 0.055580 -0.020057 0.021509
vn -1.000000 0.000006 -0.000008
v 0.055580 -0.019828 -0.008689
vn -0.692054 -0.099421 -0.714967
v 0.055580 -0.020057 -0.019095
vn 0.981481 -0.034399 -0.188444
v 0.060971 0.000245 -0.028859
vn 0.717501 0.420548 -0.555276
v 0.060972 0.020549 -0.020448
vn 0.995505 0.093822 -0.012954
v 0.060971 0.028958 -0.000146
vn 0.717489 0.555288 0.420552
v 0.060972 0.020549 0.020156
vn 0.991930 0.020067 0.125189
v 0.060971 0.000245 0.028566
vn 0.445969 0.048727 0.893721
v 0.060971 -0.020056 0.021509
vn 0.996040 0.068783 -0.056325
v 0.060972 -0.019828 -0.008689
vn 0.956430 -0.040218 -0.289177
v 0.060971 -0.020056 -0.019095
vn -0.941754 0.000000 0.336303
v 0.055580 -0.069970 0.021509
vn -1.000000 0.000008 0.000000
v 0.055579 -0.069742 -0.008689
vn -0.968034 0.000007 -0.250820
v 0.055580 -0.069970 -0.019095
vn 0.000003 -0.494435 0.869214
v 0.060971 -0.069969 0.021509
vn 0.902456 -0.124485 -0.412403
v 0.060971 -0.069742 -0.008689
vn 0.694399 -0.000000 -0.719590
v 0.060971 -0.069969 -0.019095
vn 0.986851 0.046904 -0.154676
v 0.065715 -0.019828 -0.008689
vn 0.970706 0.184522 0.153887
v 0.065715 -0.020057 0.021509
vn 0.986850 -0.046891 0.154687
v 0.065716 -0.069969 0.021509
vn 0.970702 -0.184532 -0.153904
v 0.065716 -0.069742 -0.008689
vn 0.055785 0.913023 -0.404076
v -0.001202 -0.092780 -0.020063
vn 0.782872 0.188573 -0.592918
v 0.020854 -0.092780 -0.010927
vn 0.600730 0.795138 0.082944
v 0.029991 -0.092780 0.011130
vn 0.592915 0.188574 0.782874
v 0.020854 -0.092780 0.033187
vn -0.055791 0.913023 0.404074
v -0.001202 -0.092780 0.042323
vn -0.782876 0.188587 0.592909
v -0.023260 -0.092781 0.033187
vn -0.600726 0.795142 -0.082934
v -0.032395 -0.092780 0.011130
vn -0.592906 0.188585 -0.782878
v -0.023260 -0.092781 -0.010927
vn -0.134315 -0.188574 -0.972830
v -0.001202 -0.124202 -0.020063
vn 0.366116 -0.795148 -0.483424
v 0.020854 -0.124202 -0.010927
vn 0.972829 -0.188575 -0.134322
v 0.029991 -0.124202 0.011130
vn 0.325155 -0.913032 0.246268
v 0.020854 -0.124202 0.033187
vn 0.134315 -0.188574 0.972831
v -0.001202 -0.124202 0.042323
vn -0.366120 -0.795147 0.483422
v -0.023260 -0.124201 0.033187
vn -0.972833 -0.188568 0.134309
v -0.032395 -0.124202 0.011130
vn -0.325168 -0.913030 -0.246256
v -0.023260 -0.124201 -0.010927
vn -0.990748 0.029077 -0.132563
v -0.068628 -0.001079 -0.034649
vn -0.571460 0.648614 -0.502726
v -0.068628 0.024634 -0.025420
vn -0.990174 0.138526 0.019125
v -0.068628 0.035285 0.000295
vn -0.574238 0.474645 0.667056
v -0.068628 0.024634 0.026008
vn -0.944107 0.028884 0.328372
v -0.068628 -0.001079 0.035237
vn -0.293146 -0.351611 0.889064
v -0.068628 -0.022653 0.033651
vn -0.999331 -0.007183 0.035870
v -0.068628 -0.031712 0.026595
vn -0.349285 -0.329421 -0.877201
v -0.068628 -0.027246 -0.033210
vn 0.915066 0.032716 -0.401975
v -0.058095 -0.001079 -0.034649
vn 0.939213 0.199056 -0.279742
v -0.058095 0.024634 -0.025420
vn 0.947458 0.316874 -0.043748
v -0.058095 0.035285 0.000295
vn 0.940239 0.269135 0.208608
v -0.058095 0.024634 0.026008
vn 0.912410 0.092164 0.398766
v -0.058095 -0.001079 0.035237
vn 0.895853 -0.085429 0.436062
v -0.058095 -0.022653 0.033651
vn 0.989233 -0.028735 0.143499
v -0.058095 -0.031712 0.026595
vn 0.960321 -0.098050 -0.261095
v -0.058095 -0.027246 -0.033210
vn -0.967404 -0.028851 -0.251589
v -0.068628 -0.039752 -0.020126
vn 0.977213 -0.152514 -0.147627
v -0.058095 -0.039752 -0.020126
vn -0.982751 0.037562 0.181078
v -0.068628 -0.057889 0.026595
vn 0.988978 0.075600 0.127305
v -0.058095 -0.057889 0.026595
vn -0.971295 -0.218652 -0.093688
v -0.068628 -0.090550 -0.020126
vn 0.975778 -0.110128 -0.189021
v -0.058095 -0.090550 -0.020126
vn -0.526495 0.442873 0.725718
v -0.068628 -0.065878 0.039112
vn 0.450352 0.182020 0.874100
v -0.058095 -0.065878 0.039112
vn -0.939253 -0.264642 0.218560
v -0.068628 -0.090395 0.038791
vn 0.868344 -0.485364 0.101981
v -0.058095 -0.090395 0.038791
vn -0.628090 -0.778087 0.009140
v -0.068333 -0.084646 0.039141
vn -0.594629 -0.736635 -0.322157
v -0.068333 -0.084646 -0.020245
vn -0.629358 0.000001 0.777115
v -0.068332 -0.083251 0.039141
vn -0.968682 0.000001 -0.248303
v -0.068332 -0.083251 -0.020245
vn 0.668053 -0.676029 0.310949
v 0.066199 -0.085203 0.039141
vn 0.602766 -0.797810 -0.013118
v 0.066199 -0.085203 -0.020245
vn 0.965693 -0.000000 0.259688
v 0.066199 -0.083250 0.039141
vn 0.671467 0.000000 -0.741034
v 0.066199 -0.083250 -0.020245
vn -0.128840 -0.955975 -0.263653
v -0.055341 -0.093738 -0.020245
vn 0.036789 -0.993481 -0.107897
v 0.053609 -0.093738 -0.020245
vn 0.121765 -0.956754 0.264189
v 0.053609 -0.093738 0.039141
vn -0.039124 -0.993463 0.107238
v -0.055341 -0.093738 0.039141
vn 0.123320 0.960788 -0.248353
v -0.037888 -0.083250 -0.020245
vn -0.396531 0.772344 -0.496233
v 0.035755 -0.083250 -0.020245
vn 0.396530 0.772344 0.496234
v -0.037888 -0.083250 0.039141
vn -0.123298 0.960620 0.249013
v 0.035755 -0.083250 0.039141
vn 0.283695 0.913734 0.290873
v 0.066199 -0.064346 0.039141
vn 0.763814 0.615026 -0.195784
v 0.066199 -0.064346 -0.020245
vn -0.283697 0.913734 -0.290873
v 0.035755 -0.064346 -0.020245
vn -0.763813 0.615027 0.195784
v 0.035755 -0.064346 0.039141
vn -0.283695 0.913732 -0.290878
v -0.068333 -0.064346 -0.020245
vn -0.763823 0.615011 0.195796
v -0.068333 -0.064346 0.039141
vn 0.283685 0.913736 0.290876
v -0.037888 -0.064346 0.039141
vn 0.763798 0.615044 -0.195789
v -0.037888 -0.064346 -0.020245
vn 0.975516 0.000000 -0.219927
v -0.058095 -0.040071 -0.020126
vn 1.000000 -0.000000 -0.000000
v -0.058095 -0.011957 -0.000211
# 94 vertices, 0 vertices normals

f 1//1 2//2 10//10
f 10//10 9//9 1//1
f 2//2 3//3 11//11
f 11//11 10//10 2//2
f 3//3 4//4 12//12
f 12//12 11//11 3//3
f 4//4 5//5 13//13
f 13//13 12//12 4//4
f 5//5 6//6 14//14
f 14//14 13//13 5//5
f 8//8 1//1 9//9
f 9//9 16//16 8//8
f 7//7 6//6 5//5
f 5//5 1//1 7//7
f 5//5 4//4 3//3
f 3//3 1//1 5//5
f 3//3 2//2 1//1
f 8//8 7//7 1//1
f 9//9 10//10 11//11
f 11//11 15//15 9//9
f 11//11 12//12 13//13
f 13//13 15//15 11//11
f 13//13 14//14 15//15
f 9//9 15//15 16//16
f 14//14 6//6 17//17
f 17//17 20//20 14//14
f 6//6 7//7 18//18
f 18//18 17//17 6//6
f 23//23 24//24 25//25
f 25//25 26//26 23//23
f 7//7 8//8 19//19
f 19//19 18//18 7//7
f 8//8 16//16 22//22
f 22//22 19//19 8//8
f 16//16 15//15 21//21
f 21//21 22//22 16//16
f 15//15 14//14 24//24
f 24//24 23//23 15//15
f 14//14 20//20 25//25
f 25//25 24//24 14//14
f 20//20 21//21 26//26
f 26//26 25//25 20//20
f 21//21 15//15 23//23
f 23//23 26//26 21//21
f 27//27 28//28 36//36
f 36//36 35//35 27//27
f 28//28 29//29 37//37
f 37//37 36//36 28//28
f 29//29 30//30 38//38
f 38//38 37//37 29//29
f 30//30 31//31 39//39
f 39//39 38//38 30//30
f 31//31 32//32 40//40
f 40//40 39//39 31//31
f 32//32 33//33 41//41
f 41//41 40//40 32//32
f 33//33 34//34 42//42
f 42//42 41//41 33//33
f 34//34 27//27 35//35
f 35//35 42//42 34//34
f 33//33 32//32 31//31
f 31//31 27//27 33//33
f 31//31 30//30 29//29
f 29//29 27//27 31//31
f 29//29 28//28 27//27
f 34//34 33//33 27//27
f 36//36 37//37 38//38
f 38//38 42//42 36//36
f 38//38 39//39 40//40
f 40//40 42//42 38//38
f 40//40 41//41 42//42
f 35//35 36//36 42//42
f 43//43 44//44 52//52
f 52//52 51//51 43//43
f 44//44 45//45 53//53
f 53//53 52//52 44//44
f 45//45 46//46 54//54
f 54//54 53//53 45//45
f 46//46 47//47 55//55
f 55//55 54//54 46//46
f 48//48 56//56 47//47
f 47//47 56//56 55//55
f 48//48 49//49 57//57
f 57//57 56//56 48//48
f 50//50 43//43 51//51
f 51//51 58//58 50//50
f 50//50 58//58 60//60
f 60//60 59//59 50//50
f 57//57 49//49 61//61
f 61//61 62//62 57//57
f 49//49 59//59 63//63
f 63//63 61//61 49//49
f 93//93 64//64 59//59
f 59//59 60//60 93//93
f 59//59 64//64 63//63
f 62//62 61//61 65//65
f 65//65 66//66 62//62
f 61//61 63//63 67//67
f 67//67 65//65 61//61
f 63//63 64//64 68//68
f 68//68 67//67 63//63
f 62//62 66//66 68//68
f 68//68 64//64 62//62
f 64//64 93//93 57//57
f 57//57 62//62 64//64
f 57//57 93//93 60//60
f 66//66 65//65 67//67
f 67//67 68//68 66//66
f 69//69 71//71 72//72
f 72//72 70//70 69//69
f 73//73 74//74 76//76
f 76//76 75//75 73//73
f 78//78 79//79 80//80
f 80//80 77//77 78//78
f 82//82 78//78 77//77
f 77//77 81//81 82//82
f 84//84 82//82 81//81
f 81//81 83//83 84//84
f 79//79 84//84 83//83
f 83//83 80//80 79//79
f 74//74 73//73 79//79
f 79//79 78//78 74//74
f 69//69 70//70 77//77
f 77//77 80//80 69//69
f 76//76 74//74 78//78
f 78//78 82//82 76//76
f 70//70 72//72 81//81
f 81//81 77//77 70//70
f 85//85 86//86 87//87
f 87//87 88//88 85//85
f 89//89 90//90 91//91
f 91//91 92//92 89//89
f 73//73 75//75 84//84
f 84//84 79//79 73//73
f 71//71 69//69 80//80
f 80//80 83//83 71//71
f 75//75 76//76 86//86
f 86//86 85//85 75//75
f 76//76 82//82 87//87
f 87//87 86//86 76//76
f 82//82 84//84 88//88
f 88//88 87//87 82//82
f 84//84 75//75 85//85
f 85//85 88//88 84//84
f 72//72 71//71 90//90
f 90//90 89//89 72//72
f 71//71 83//83 91//91
f 91//91 90//90 71//71
f 83//83 81//81 92//92
f 92//92 91//91 83//83
f 81//81 72//72 89//89
f 89//89 92//92 81//81
f 94//94 54//54 55//55
f 55//55 56//56 94//94
f 94//94 52//52 53//53
f 53//53 54//54 94//94
f 94//94 56//56 57//57
f 57//57 60//60 94//94
f 58//58 51//51 94//94
f 94//94 60//60 58//58
f 94//94 51//51 52//52
f 45//45 44//44 43//43
f 43//43 49//49 45//45
f 49//49 48//48 47//47
f 49//49 47//47 45//45
f 59//59 49//49 43//43
f 43//43 50//50 59//59
f 47//47 46//46 45//45
# 168 faces, 0 coords texture

# End of File