# This file uses centimeters as units for non-parametric coordinates.

v 0.043091 -0.052504 0.009811
v 0.043555 -0.052090 0.008384
v 0.047981 -0.048108 0.008384
v 0.042359 -0.053112 0.011238
v 0.041452 -0.053779 0.014758
v 0.041420 -0.053803 0.014758
v 0.042626 -0.052917 0.011238
v 0.033100 -0.059341 0.008388
v 0.034148 -0.058744 0.011238
v 0.029456 -0.061169 0.008385
v 0.027747 -0.062027 0.008384
v 0.038500 -0.055930 0.011238
v 0.038445 -0.055850 0.014758
v 0.035433 -0.057922 0.014758
v 0.040458 -0.054516 0.017682
v 0.042868 -0.052716 0.024651
v 0.039465 -0.055253 0.020607
v 0.042348 -0.053098 0.024651
v 0.038494 -0.055921 0.020607
v 0.038500 -0.055930 0.024651
v 0.037519 -0.056593 0.020607
v 0.033874 -0.058904 0.024651
v 0.036476 -0.057257 0.017682
v 0.030842 -0.060491 0.016506
v 0.030837 -0.060494 0.016492
v -0.035447 0.057975 0.014758
v -0.034151 0.058742 0.011238
v -0.036728 0.057109 0.011238
v -0.038474 0.055891 0.014758
v -0.033102 0.059339 0.008384
v -0.027743 0.061974 0.008384
v -0.030807 0.060411 0.016517
v -0.037531 0.056648 0.020607
v -0.038509 0.055943 0.020607
v -0.036971 0.056952 0.024651
v -0.033870 0.058849 0.024651
v -0.041456 0.053839 0.014758
v -0.047981 0.048108 0.008384
v -0.040461 0.054546 0.017682
v -0.042872 0.052713 0.024651
v -0.039465 0.055253 0.020607
v -0.039966 0.054892 0.024651
v -0.038486 0.055910 0.024651
v -0.038487 0.055910 0.011238
v -0.039732 0.055062 0.011238
v -0.042622 0.052856 0.011238
v -0.043088 0.052473 0.009811
v -0.043555 0.052090 0.008384
v -0.016832 0.065712 0.021663
v -0.016764 0.065730 0.021603
v -0.017745 0.065540 0.016697
v -0.016758 0.065702 0.011510
v -0.016761 0.065701 0.011507
v -0.020307 0.064792 0.014465
v -0.022447 0.063993 0.012553
v -0.020238 0.064814 0.008384
v -0.027115 0.062251 0.008384
v -0.024648 0.063268 0.022515
v -0.027115 0.062251 0.024651
v -0.020238 0.064814 0.024651
v -0.022448 0.063993 0.020661
v -0.011033 0.067048 0.018674
v -0.011033 0.067048 0.014630
v -0.013425 0.066611 0.018674
v -0.013284 0.066588 0.014630
v -0.011033 0.067048 0.008384
v -0.005881 0.067645 0.008384
v -0.005885 0.067695 0.024651
v -0.011030 0.066998 0.021663
v -0.011033 0.067048 0.024651
v 0.014541 0.066325 0.014148
v 0.019458 0.065052 0.011841
v 0.014102 0.066419 0.013157
v 0.018697 0.065274 0.010402
v 0.018578 0.065309 0.010177
v 0.014664 0.066298 0.024651
v 0.019685 0.064984 0.024651
v 0.014653 0.066350 0.015130
v 0.019685 0.064984 0.014053
v 0.019558 0.065022 0.012820
v -0.001353 0.067887 0.024651
v 0.003835 0.067792 0.024651
v -0.001358 0.067936 0.014053
v 0.003829 0.067842 0.015130
v -0.001260 0.067888 0.012651
v 0.004097 0.067776 0.013607
v 0.004728 0.067735 0.012798
v 0.000000 0.067897 0.010036
v -0.000592 0.067897 0.010693
v 0.017102 0.065711 0.008945
v 0.016627 0.065827 0.008775
v 0.013304 0.066584 0.012530
v 0.015080 0.066204 0.008222
v 0.011811 0.066916 0.012257
v 0.012943 0.066706 0.008082
v 0.009267 0.067265 0.012257
v 0.009267 0.067265 0.008082
v 0.006718 0.067617 0.012257
v 0.005577 0.067720 0.008082
v 0.005723 0.067658 0.012353
v 0.002591 0.067851 0.008425
v 0.000627 0.067897 0.009340
v 0.036556 0.057279 0.018674
v 0.036556 0.057279 0.024651
v 0.040827 0.054254 0.024651
v 0.031455 0.060123 0.011550
v 0.029454 0.061167 0.009583
v 0.026014 0.062629 0.012519
v 0.023946 0.063537 0.010630
v 0.028233 0.061804 0.008384
v 0.021414 0.064435 0.008384
v 0.031447 0.060106 0.021583
v 0.030587 0.060621 0.016697
v 0.031364 0.060148 0.021663
v 0.028190 0.061772 0.018825
v 0.028245 0.061747 0.024651
v 0.026013 0.062627 0.020696
v 0.021484 0.064412 0.024651
v 0.036556 0.057279 0.008384
v 0.036560 0.057217 0.011507
v 0.040823 0.054320 0.008384
v 0.036556 0.057279 0.014630
v 0.034589 0.058488 0.014630
v 0.034483 0.058550 0.018674
v 0.023701 -0.063629 0.008384
v 0.027114 -0.062305 0.008384
v 0.020273 -0.064803 0.014474
v 0.016832 -0.065712 0.021663
v 0.016764 -0.065730 0.021603
v 0.017745 -0.065592 0.016697
v 0.016770 -0.065750 0.011499
v 0.020238 -0.064866 0.008384
v 0.024648 -0.063268 0.022515
v 0.027115 -0.062251 0.024651
v 0.020238 -0.064814 0.024651
v 0.022448 -0.064009 0.020661
v 0.011033 -0.067048 0.018674
v 0.011030 -0.066998 0.014630
v 0.013425 -0.066611 0.018674
v 0.013285 -0.066638 0.014630
v 0.015102 -0.066175 0.012998
v 0.011033 -0.067048 0.024651
v 0.005885 -0.067695 0.024651
v 0.011033 -0.067048 0.008384
v 0.005885 -0.067695 0.008384
v 0.005881 -0.067645 0.016517
v -0.014541 -0.066325 0.014148
v -0.019466 -0.065050 0.011867
v -0.014102 -0.066419 0.013157
v -0.018707 -0.065272 0.010400
v -0.018614 -0.065299 0.010221
v -0.014664 -0.066298 0.024651
v -0.019685 -0.064984 0.024651
v -0.014653 -0.066350 0.015130
v -0.019685 -0.064984 0.014053
v -0.019561 -0.065021 0.012816
v 0.001353 -0.067887 0.014053
v 0.001356 -0.067936 0.024651
v 0.000002 -0.067912 0.024651
v -0.004089 -0.067777 0.013666
v 0.001225 -0.067889 0.012283
v -0.003962 -0.067784 0.014399
v -0.003835 -0.067792 0.015130
v -0.003832 -0.067842 0.024651
v -0.004365 -0.067759 0.013316
v 0.000505 -0.067898 0.010575
v 0.000807 -0.067894 0.011291
v -0.005585 -0.067670 0.008082
v -0.003396 -0.067808 0.008277
v -0.005245 -0.067695 0.012590
v -0.004750 -0.067734 0.012825
v -0.000866 -0.067894 0.009228
v -0.000639 -0.067895 0.009452
v -0.017156 -0.065697 0.008976
v -0.016625 -0.065827 0.008780
v -0.013304 -0.066584 0.012530
v -0.015143 -0.066190 0.008234
v -0.011813 -0.066915 0.012257
v -0.012947 -0.066654 0.008082
v -0.009280 -0.067263 0.012257
v -0.009280 -0.067263 0.008082
v -0.006726 -0.067566 0.012257
v -0.005789 -0.067653 0.012330
v -0.036560 -0.057217 0.021663
v -0.036556 -0.057279 0.024651
v -0.040823 -0.054320 0.024651
v -0.040827 -0.054254 0.008384
v -0.036560 -0.057217 0.008384
v -0.036560 -0.057217 0.014630
v -0.036556 -0.057279 0.018674
v -0.034483 -0.058550 0.018674
v -0.034608 -0.058418 0.014630
v -0.031475 -0.060163 0.021597
v -0.031426 -0.060082 0.011507
v -0.028178 -0.061777 0.008384
v -0.030587 -0.060621 0.016697
v -0.031432 -0.060080 0.011512
v -0.021414 -0.064435 0.008384
v -0.023947 -0.063537 0.010631
v -0.026014 -0.062629 0.012519
v -0.021411 -0.064489 0.024651
v -0.028241 -0.061803 0.024651
v -0.026012 -0.062644 0.020696
v -0.031383 -0.060212 0.021686
v -0.028190 -0.061772 0.018824
v -0.031400 -0.060204 0.021670
vn 0.668956 -0.743298 0.002558
vn 0.668833 -0.743410 0.001795
vn 0.643703 -0.765232 -0.008211
vn 0.589743 -0.807590 -0.001200
vn 0.680563 -0.731165 0.047242
vn 0.582026 -0.813125 0.008629
vn 0.678138 -0.733729 0.042088
vn 0.448264 -0.893622 0.022355
vn 0.467375 -0.883270 0.037362
vn 0.448476 -0.893526 0.021919
vn 0.473950 -0.880537 -0.005205
vn 0.559433 -0.828626 0.020351
vn 0.557428 -0.829973 0.020457
vn 0.501155 -0.865358 -0.000491
vn 0.633416 -0.773648 -0.015918
vn 0.630286 -0.776168 -0.017399
vn 0.589799 -0.807499 0.009065
vn 0.591682 -0.806170 0.001559
vn 0.582796 -0.812617 0.001889
vn 0.567803 -0.823163 0.001786
vn 0.540800 -0.841147 0.002593
vn 0.515218 -0.857009 -0.009221
vn 0.504783 -0.863210 -0.007985
vn 0.499615 -0.866169 -0.011666
vn 0.482948 -0.875454 -0.018477
vn -0.481837 0.876154 0.013704
vn -0.454987 0.890145 0.025091
vn -0.554093 0.832453 -0.002008
vn -0.566266 0.824198 0.006336
vn -0.441099 0.897096 0.025528
vn -0.456175 0.889869 0.006228
vn -0.473787 0.880639 -0.001198
vn -0.502078 0.864818 -0.002820
vn -0.578434 0.815668 0.009990
vn -0.535193 0.844682 0.009022
vn -0.501815 0.864819 -0.016400
vn -0.657696 0.752495 0.034455
vn -0.644948 0.764173 -0.009046
vn -0.636531 0.771135 -0.013348
vn -0.629962 0.776493 -0.014377
vn -0.592655 0.805447 0.003987
vn -0.591512 0.806296 0.000280
vn -0.566676 0.823881 0.009946
vn -0.563102 0.826361 0.006540
vn -0.583024 0.812444 -0.004236
vn -0.654812 0.755765 0.006320
vn -0.668656 0.743329 0.018996
vn -0.668709 0.743272 0.019348
vn -0.245442 0.969342 0.011554
vn -0.244118 0.969733 -0.004868
vn -0.242119 0.970215 -0.007837
vn -0.246760 0.969049 -0.007278
vn -0.285466 0.958302 0.012911
vn -0.281886 0.958467 -0.043363
vn -0.323070 0.946375 -0.000089
vn -0.316216 0.948492 0.019236
vn -0.349226 0.937038 -0.000512
vn -0.341194 0.939679 0.024305
vn -0.348908 0.936181 0.042766
vn -0.310346 0.950622 -0.001620
vn -0.324069 0.945912 -0.015141
vn -0.126627 0.991949 -0.001606
vn -0.128220 0.991745 -0.001354
vn -0.241368 0.970367 -0.011334
vn -0.238668 0.971087 -0.005341
vn -0.115107 0.993353 0.000000
vn -0.118403 0.992964 -0.001673
vn -0.123158 0.992382 -0.003190
vn -0.137414 0.990498 0.005560
vn -0.124683 0.992056 -0.016732
vn 0.247643 0.968441 -0.028181
vn 0.251060 0.967916 0.010327
vn 0.234599 0.972080 -0.004845
vn 0.251151 0.967805 0.016662
vn 0.250669 0.967941 0.015967
vn 0.253171 0.967409 0.004992
vn 0.256202 0.966618 0.003276
vn 0.259072 0.965854 -0.002794
vn 0.260772 0.965401 -0.000170
vn 0.252330 0.967633 0.003857
vn 0.018309 0.999822 0.004613
vn 0.017966 0.999827 0.004781
vn 0.018613 0.999826 -0.000701
vn 0.018337 0.999832 -0.000178
vn 0.021631 0.999738 -0.007439
vn 0.031125 0.999272 -0.022083
vn 0.051488 0.998653 -0.006390
vn 0.020988 0.999665 0.015141
vn 0.018189 0.999760 0.012247
vn 0.247943 0.968677 0.013775
vn 0.232402 0.972594 0.007079
vn 0.216457 0.976292 -0.000674
vn 0.229795 0.973181 0.010651
vn 0.167060 0.985929 -0.005843
vn 0.185599 0.982616 0.004297
vn 0.140693 0.990048 -0.003153
vn 0.139026 0.990284 -0.003072
vn 0.111665 0.993745 -0.001218
vn 0.083955 0.996468 0.001967
vn 0.053430 0.998555 0.005807
vn 0.037573 0.999225 0.011751
vn 0.026442 0.999531 0.015468
vn 0.571382 0.820680 0.002468
vn 0.577981 0.816050 0.000000
vn 0.575916 0.817506 0.002210
vn 0.436461 0.899723 -0.000079
vn 0.416244 0.908124 0.045300
vn 0.408691 0.912672 0.001002
vn 0.371606 0.928229 -0.017293
vn 0.392249 0.919007 0.039592
vn 0.359775 0.932463 -0.032772
vn 0.463432 0.886131 0.001576
vn 0.455217 0.890374 -0.003437
vn 0.452752 0.891627 0.004146
vn 0.429661 0.902968 0.006272
vn 0.396326 0.918110 -0.000060
vn 0.366441 0.930441 0.000227
vn 0.366712 0.930334 0.000051
vn 0.569782 0.821648 0.015583
vn 0.559340 0.828921 -0.005416
vn 0.571944 0.820287 0.003069
vn 0.558760 0.829327 -0.002148
vn 0.471794 0.881708 0.001410
vn 0.477241 0.878772 -0.001101
vn 0.353288 -0.935330 0.018557
vn 0.361566 -0.932042 0.023851
vn 0.293220 -0.956044 -0.001196
vn 0.238184 -0.971007 0.020323
vn 0.239254 -0.970956 0.001559
vn 0.235169 -0.971946 -0.004166
vn 0.254255 -0.967137 0.000678
vn 0.307771 -0.951426 0.008074
vn 0.341894 -0.939380 0.025969
vn 0.348908 -0.936181 0.042766
vn 0.310452 -0.950582 0.003710
vn 0.326492 -0.945149 -0.009849
vn 0.127436 -0.991841 -0.003472
vn 0.145600 -0.989327 -0.005745
vn 0.230229 -0.973127 -0.004256
vn 0.225286 -0.974292 0.001325
vn 0.248655 -0.968590 0.002065
vn 0.124699 -0.992195 0.000000
vn 0.120951 -0.992653 -0.003278
vn 0.124696 -0.992163 0.008005
vn 0.122368 -0.992470 0.005488
vn 0.114467 -0.993426 0.001547
vn -0.247664 -0.968434 -0.028243
vn -0.251056 -0.967914 0.010630
vn -0.234678 -0.972062 -0.004758
vn -0.250956 -0.967858 0.016508
vn -0.250625 -0.967954 0.015902
vn -0.253171 -0.967409 0.004992
vn -0.256202 -0.966618 0.003276
vn -0.259072 -0.965854 -0.002794
vn -0.260767 -0.965402 -0.000188
vn -0.252398 -0.967615 0.003954
vn -0.019261 -0.999808 -0.003532
vn -0.017727 -0.999832 -0.004619
vn -0.018449 -0.999817 -0.004975
vn -0.027450 -0.999593 -0.007737
vn -0.018734 -0.999804 0.006334
vn -0.020756 -0.999774 -0.004655
vn -0.019188 -0.999803 -0.005053
vn -0.018254 -0.999820 -0.005245
vn -0.039552 -0.999193 -0.007056
vn -0.018814 -0.999709 0.015074
vn -0.017709 -0.999762 0.012742
vn -0.090515 -0.995890 -0.003286
vn -0.046789 -0.998900 0.002972
vn -0.070621 -0.997500 -0.002557
vn -0.050260 -0.998733 -0.002745
vn -0.033983 -0.999400 0.006713
vn -0.019252 -0.999677 0.016621
vn -0.247872 -0.968695 0.013770
vn -0.233139 -0.972416 0.007358
vn -0.216241 -0.976340 -0.000783
vn -0.222215 -0.974989 0.004240
vn -0.164570 -0.986241 -0.015690
vn -0.181011 -0.983464 -0.005874
vn -0.136251 -0.990656 -0.006050
vn -0.139333 -0.990244 -0.001770
vn -0.109372 -0.993998 -0.002336
vn -0.085845 -0.996309 -0.000136
vn -0.559438 -0.828855 0.005456
vn -0.569775 -0.821639 -0.016285
vn -0.568844 -0.822436 -0.003881
vn -0.570367 -0.821384 -0.003193
vn -0.569666 -0.821871 -0.002923
vn -0.558779 -0.829312 -0.002697
vn -0.565846 -0.824471 -0.008100
vn -0.481591 -0.876286 -0.013912
vn -0.479509 -0.877479 -0.010039
vn -0.471318 -0.881905 -0.010165
vn -0.473678 -0.880573 -0.014878
vn -0.406794 -0.913520 0.000184
vn -0.455470 -0.890250 -0.001377
vn -0.472098 -0.881497 -0.009344
vn -0.365440 -0.929962 -0.040302
vn -0.373881 -0.927210 -0.022253
vn -0.390671 -0.920411 0.014805
vn -0.365969 -0.930590 -0.008370
vn -0.392434 -0.919422 -0.025664
vn -0.385847 -0.922522 -0.008645
vn -0.415415 -0.909443 -0.018548
vn -0.419396 -0.907411 0.026682
vn -0.437680 -0.899123 0.003891
f 1//1 2//2 3//3
f 4//4 5//5 6//6
f 1//1 3//3 7//7
f 8//8 9//9 10//10
f 10//10 9//9 11//11
f 4//4 6//6 12//12
f 12//12 6//6 13//13
f 12//12 13//13 9//9
f 9//9 13//13 14//14
f 9//9 14//14 11//11
f 4//4 7//7 5//5
f 5//5 7//7 3//3
f 5//5 3//3 15//15
f 15//15 3//3 16//16
f 15//15 16//16 17//17
f 17//17 16//16 18//18
f 17//17 18//18 19//19
f 19//19 18//18 20//20
f 19//19 20//20 21//21
f 21//21 20//20 22//22
f 21//21 22//22 23//23
f 23//23 22//22 24//24
f 23//23 24//24 14//14
f 14//14 24//24 25//25
f 14//14 25//25 11//11
f 26//26 27//27 28//28
f 26//26 28//28 29//29
f 30//30 27//27 31//31
f 31//31 27//27 26//26
f 31//31 26//26 32//32
f 32//32 26//26 33//33
f 34//34 35//35 33//33
f 33//33 35//35 36//36
f 33//33 36//36 32//32
f 37//37 38//38 39//39
f 39//39 38//38 40//40
f 39//39 40//40 41//41
f 41//41 40//40 42//42
f 41//41 42//42 34//34
f 34//34 42//42 43//43
f 34//34 43//43 35//35
f 28//28 44//44 29//29
f 29//29 44//44 45//45
f 29//29 45//45 37//37
f 37//37 45//45 46//46
f 37//37 46//46 38//38
f 38//38 46//46 47//47
f 38//38 47//47 48//48
f 49//49 50//50 51//51
f 52//52 53//53 54//54
f 54//54 53//53 55//55
f 55//55 53//53 56//56
f 55//55 56//56 57//57
f 58//58 59//59 60//60
f 49//49 51//51 60//60
f 60//60 51//51 61//61
f 60//60 61//61 58//58
f 62//62 63//63 64//64
f 64//64 63//63 65//65
f 64//64 65//65 50//50
f 50//50 65//65 52//52
f 50//50 52//52 51//51
f 51//51 52//52 54//54
f 66//66 63//63 67//67
f 67//67 63//63 62//62
f 67//67 62//62 68//68
f 68//68 62//62 69//69
f 68//68 69//69 70//70
f 71//71 72//72 73//73
f 73//73 72//72 74//74
f 73//73 74//74 75//75
f 76//76 77//77 78//78
f 78//78 77//77 79//79
f 78//78 79//79 71//71
f 71//71 79//79 80//80
f 71//71 80//80 72//72
f 81//81 82//82 83//83
f 83//83 82//82 84//84
f 83//83 84//84 85//85
f 85//85 84//84 86//86
f 87//87 88//88 86//86
f 86//86 88//88 89//89
f 86//86 89//89 85//85
f 75//75 90//90 73//73
f 73//73 90//90 91//91
f 73//73 91//91 92//92
f 92//92 91//91 93//93
f 92//92 93//93 94//94
f 94//94 93//93 95//95
f 94//94 95//95 96//96
f 96//96 95//95 97//97
f 96//96 97//97 98//98
f 98//98 97//97 99//99
f 98//98 99//99 100//100
f 100//100 99//99 101//101
f 100//100 101//101 87//87
f 87//87 101//101 102//102
f 87//87 102//102 88//88
f 103//103 104//104 105//105
f 106//106 107//107 108//108
f 108//108 107//107 109//109
f 109//109 107//107 110//110
f 109//109 110//110 111//111
f 112//112 113//113 114//114
f 114//114 113//113 115//115
f 114//114 115//115 116//116
f 116//116 115//115 117//117
f 116//116 117//117 118//118
f 119//119 120//120 121//121
f 121//121 120//120 122//122
f 108//108 113//113 106//106
f 106//106 113//113 112//112
f 106//106 112//112 123//123
f 123//123 112//112 124//124
f 123//123 124//124 122//122
f 122//122 124//124 103//103
f 122//122 103//103 121//121
f 121//121 103//103 105//105
f 125//125 126//126 127//127
f 128//128 129//129 130//130
f 130//130 129//129 131//131
f 130//130 131//131 127//127
f 127//127 131//131 132//132
f 127//127 132//132 125//125
f 133//133 134//134 135//135
f 128//128 130//130 135//135
f 135//135 130//130 136//136
f 135//135 136//136 133//133
f 137//137 138//138 139//139
f 139//139 138//138 140//140
f 139//139 140//140 129//129
f 129//129 140//140 141//141
f 129//129 141//141 131//131
f 137//137 142//142 143//143
f 144//144 138//138 145//145
f 145//145 138//138 137//137
f 145//145 137//137 146//146
f 146//146 137//137 143//143
f 147//147 148//148 149//149
f 149//149 148//148 150//150
f 149//149 150//150 151//151
f 152//152 153//153 154//154
f 154//154 153//153 155//155
f 154//154 155//155 147//147
f 147//147 155//155 156//156
f 147//147 156//156 148//148
f 157//157 158//158 159//159
f 160//160 161//161 162//162
f 162//162 161//161 157//157
f 162//162 157//157 163//163
f 163//163 157//157 159//159
f 163//163 159//159 164//164
f 165//165 166//166 160//160
f 160//160 166//166 167//167
f 160//160 167//167 161//161
f 168//168 169//169 170//170
f 170//170 169//169 171//171
f 171//171 169//169 172//172
f 171//171 172//172 165//165
f 165//165 172//172 173//173
f 165//165 173//173 166//166
f 151//151 174//174 149//149
f 149//149 174//174 175//175
f 149//149 175//175 176//176
f 176//176 175//175 177//177
f 176//176 177//177 178//178
f 178//178 177//177 179//179
f 178//178 179//179 180//180
f 180//180 179//179 181//181
f 180//180 181//181 182//182
f 182//182 181//181 168//168
f 182//182 168//168 183//183
f 183//183 168//168 170//170
f 184//184 185//185 186//186
f 187//187 188//188 186//186
f 186//186 188//188 189//189
f 184//184 186//186 190//190
f 190//190 186//186 189//189
f 190//190 189//189 191//191
f 191//191 189//189 192//192
f 191//191 192//192 193//193
f 194//194 195//195 196//196
f 194//194 196//196 197//197
f 198//198 199//199 195//195
f 195//195 199//199 200//200
f 195//195 200//200 196//196
f 201//201 202//202 203//203
f 203//203 202//202 204//204
f 203//203 204//204 205//205
f 205//205 204//204 206//206
f 205//205 206//206 196//196
f 196//196 206//206 193//193
f 196//196 193//193 197//197
f 197//197 193//193 192//192
