# GENERATED BY maliput::utility::GenerateObjFile()
#
# DON'T BE A HERO.  Do not edit by hand.

mtllib ChangeOrigin.mtl
# Vertices
v 0.000 0.000 0.000
v 0.200 0.000 0.000
v 0.200 0.200 0.000
v 0.000 0.200 0.000
v 0.200 0.400 0.000
v 0.000 0.400 0.000
v 0.200 0.600 0.000
v 0.000 0.600 0.000
v 0.200 0.800 0.000
v 0.000 0.800 0.000
v 0.200 1.000 0.000
v 0.000 1.000 0.000
v 0.000 -0.200 0.000
v 0.200 -0.200 0.000
v 0.000 -0.400 0.000
v 0.200 -0.400 0.000
v 0.000 -0.600 0.000
v 0.200 -0.600 0.000
v 0.000 -0.800 0.000
v 0.200 -0.800 0.000
v 0.000 -1.000 0.000
v 0.200 -1.000 0.000
v 0.400 0.000 0.000
v 0.400 0.200 0.000
v 0.400 0.400 0.000
v 0.400 0.600 0.000
v 0.400 0.800 0.000
v 0.400 1.000 0.000
v 0.400 -0.200 0.000
v 0.400 -0.400 0.000
v 0.400 -0.600 0.000
v 0.400 -0.800 0.000
v 0.400 -1.000 0.000
v 0.600 0.000 0.000
v 0.600 0.200 0.000
v 0.600 0.400 0.000
v 0.600 0.600 0.000
v 0.600 0.800 0.000
v 0.600 1.000 0.000
v 0.600 -0.200 0.000
v 0.600 -0.400 0.000
v 0.600 -0.600 0.000
v 0.600 -0.800 0.000
v 0.600 -1.000 0.000
v 0.800 0.000 0.000
v 0.800 0.200 0.000
v 0.800 0.400 0.000
v 0.800 0.600 0.000
v 0.800 0.800 0.000
v 0.800 1.000 0.000
v 0.800 -0.200 0.000
v 0.800 -0.400 0.000
v 0.800 -0.600 0.000
v 0.800 -0.800 0.000
v 0.800 -1.000 0.000
v 1.000 0.000 0.000
v 1.000 0.200 0.000
v 1.000 0.400 0.000
v 1.000 0.600 0.000
v 1.000 0.800 0.000
v 1.000 1.000 0.000
v 1.000 -0.200 0.000
v 1.000 -0.400 0.000
v 1.000 -0.600 0.000
v 1.000 -0.800 0.000
v 1.000 -1.000 0.000
# Normals
vn 0.000 0.000 1.000

# Faces
usemtl bland_asphalt
f 1//1 2//1 3//1 4//1
f 4//1 3//1 5//1 6//1
f 6//1 5//1 7//1 8//1
f 8//1 7//1 9//1 10//1
f 10//1 9//1 11//1 12//1
f 1//1 13//1 14//1 2//1
f 13//1 15//1 16//1 14//1
f 15//1 17//1 18//1 16//1
f 17//1 19//1 20//1 18//1
f 19//1 21//1 22//1 20//1
f 2//1 23//1 24//1 3//1
f 3//1 24//1 25//1 5//1
f 5//1 25//1 26//1 7//1
f 7//1 26//1 27//1 9//1
f 9//1 27//1 28//1 11//1
f 2//1 14//1 29//1 23//1
f 14//1 16//1 30//1 29//1
f 16//1 18//1 31//1 30//1
f 18//1 20//1 32//1 31//1
f 20//1 22//1 33//1 32//1
f 23//1 34//1 35//1 24//1
f 24//1 35//1 36//1 25//1
f 25//1 36//1 37//1 26//1
f 26//1 37//1 38//1 27//1
f 27//1 38//1 39//1 28//1
f 23//1 29//1 40//1 34//1
f 29//1 30//1 41//1 40//1
f 30//1 31//1 42//1 41//1
f 31//1 32//1 43//1 42//1
f 32//1 33//1 44//1 43//1
f 34//1 45//1 46//1 35//1
f 35//1 46//1 47//1 36//1
f 36//1 47//1 48//1 37//1
f 37//1 48//1 49//1 38//1
f 38//1 49//1 50//1 39//1
f 34//1 40//1 51//1 45//1
f 40//1 41//1 52//1 51//1
f 41//1 42//1 53//1 52//1
f 42//1 43//1 54//1 53//1
f 43//1 44//1 55//1 54//1
f 45//1 56//1 57//1 46//1
f 46//1 57//1 58//1 47//1
f 47//1 58//1 59//1 48//1
f 48//1 59//1 60//1 49//1
f 49//1 60//1 61//1 50//1
f 45//1 51//1 62//1 56//1
f 51//1 52//1 63//1 62//1
f 52//1 53//1 64//1 63//1
f 53//1 54//1 65//1 64//1
f 54//1 55//1 66//1 65//1
# Vertices
v 0.000 0.000 0.020
v 0.200 0.000 0.020
v 0.200 0.200 0.020
v 0.000 0.200 0.020
v 0.200 0.400 0.020
v 0.000 0.400 0.020
v 0.200 0.500 0.020
v 0.000 0.500 0.020
v 0.000 -0.200 0.020
v 0.200 -0.200 0.020
v 0.000 -0.400 0.020
v 0.200 -0.400 0.020
v 0.000 -0.500 0.020
v 0.200 -0.500 0.020
v 0.400 0.000 0.020
v 0.400 0.200 0.020
v 0.400 0.400 0.020
v 0.400 0.500 0.020
v 0.400 -0.200 0.020
v 0.400 -0.400 0.020
v 0.400 -0.500 0.020
v 0.600 0.000 0.020
v 0.600 0.200 0.020
v 0.600 0.400 0.020
v 0.600 0.500 0.020
v 0.600 -0.200 0.020
v 0.600 -0.400 0.020
v 0.600 -0.500 0.020
v 0.800 0.000 0.020
v 0.800 0.200 0.020
v 0.800 0.400 0.020
v 0.800 0.500 0.020
v 0.800 -0.200 0.020
v 0.800 -0.400 0.020
v 0.800 -0.500 0.020
v 1.000 0.000 0.020
v 1.000 0.200 0.020
v 1.000 0.400 0.020
v 1.000 0.500 0.020
v 1.000 -0.200 0.020
v 1.000 -0.400 0.020
v 1.000 -0.500 0.020
# Normals
vn 0.000 0.000 1.000

# Faces
usemtl lane_haze
f 67//2 68//2 69//2 70//2
f 70//2 69//2 71//2 72//2
f 72//2 71//2 73//2 74//2
f 67//2 75//2 76//2 68//2
f 75//2 77//2 78//2 76//2
f 77//2 79//2 80//2 78//2
f 68//2 81//2 82//2 69//2
f 69//2 82//2 83//2 71//2
f 71//2 83//2 84//2 73//2
f 68//2 76//2 85//2 81//2
f 76//2 78//2 86//2 85//2
f 78//2 80//2 87//2 86//2
f 81//2 88//2 89//2 82//2
f 82//2 89//2 90//2 83//2
f 83//2 90//2 91//2 84//2
f 81//2 85//2 92//2 88//2
f 85//2 86//2 93//2 92//2
f 86//2 87//2 94//2 93//2
f 88//2 95//2 96//2 89//2
f 89//2 96//2 97//2 90//2
f 90//2 97//2 98//2 91//2
f 88//2 92//2 99//2 95//2
f 92//2 93//2 100//2 99//2
f 93//2 94//2 101//2 100//2
f 95//2 102//2 103//2 96//2
f 96//2 103//2 104//2 97//2
f 97//2 104//2 105//2 98//2
f 95//2 99//2 106//2 102//2
f 99//2 100//2 107//2 106//2
f 100//2 101//2 108//2 107//2
# Vertices
v 0.000 0.375 0.050
v 0.200 0.375 0.050
v 0.200 0.625 0.050
v 0.000 0.625 0.050
v 0.000 -0.625 0.050
v 0.200 -0.625 0.050
v 0.200 -0.375 0.050
v 0.000 -0.375 0.050
v 0.400 0.375 0.050
v 0.400 0.625 0.050
v 0.400 -0.625 0.050
v 0.400 -0.375 0.050
v 0.600 0.375 0.050
v 0.600 0.625 0.050
v 0.600 -0.625 0.050
v 0.600 -0.375 0.050
v 0.800 0.375 0.050
v 0.800 0.625 0.050
v 0.800 -0.625 0.050
v 0.800 -0.375 0.050
v 1.000 0.375 0.050
v 1.000 0.625 0.050
v 1.000 -0.625 0.050
v 1.000 -0.375 0.050
v 0.010 0.000 0.050
v 0.160 0.000 0.050
v 0.160 0.200 0.050
v 0.010 0.200 0.050
v 0.010 0.400 0.050
v 0.010 -0.200 0.050
v 0.160 -0.200 0.050
v 0.010 -0.400 0.050
v 0.310 0.000 0.050
v 0.690 0.000 0.050
v 0.840 0.000 0.050
v 0.840 0.200 0.050
v 0.690 0.200 0.050
v 0.690 0.400 0.050
v 0.690 -0.200 0.050
v 0.840 -0.200 0.050
v 0.690 -0.400 0.050
v 0.990 0.000 0.050
# Normals
vn 0.000 0.000 1.000

# Faces
usemtl marker_paint
f 109//3 110//3 111//3 112//3
f 113//3 114//3 115//3 116//3
f 110//3 117//3 118//3 111//3
f 114//3 119//3 120//3 115//3
f 117//3 121//3 122//3 118//3
f 119//3 123//3 124//3 120//3
f 121//3 125//3 126//3 122//3
f 123//3 127//3 128//3 124//3
f 125//3 129//3 130//3 126//3
f 127//3 131//3 132//3 128//3
f 133//3 134//3 135//3 136//3
f 136//3 135//3 137//3
f 133//3 138//3 139//3 134//3
f 138//3 140//3 139//3
f 134//3 141//3 135//3
f 134//3 139//3 141//3
f 142//3 143//3 144//3 145//3
f 145//3 144//3 146//3
f 142//3 147//3 148//3 143//3
f 147//3 149//3 148//3
f 143//3 150//3 144//3
f 143//3 148//3 150//3
# Vertices
v 0.000 0.000 0.250
v 0.000 -0.050 0.500
v 0.000 0.000 0.750
v 0.000 0.050 0.500
v 0.400 -0.005 0.500
v 0.400 0.005 0.500
v 0.400 0.000 0.525
v 0.400 0.000 0.475
v 1.000 0.000 0.250
v 1.000 0.050 0.500
v 1.000 0.000 0.750
v 1.000 -0.050 0.500
v 0.600 0.005 0.500
v 0.600 -0.005 0.500
v 0.600 0.000 0.525
v 0.600 0.000 0.475
# Normals
vn 1.000 0.000 0.000
vn 0.000 0.000 1.000
vn 0.000 1.000 0.000
vn -1.000 0.000 0.000
vn 0.000 -1.000 0.000

# Faces
usemtl branch_point_glow
f 151//4 152//4 153//4 154//4
f 154//5 152//5 155//5 156//5
f 151//6 153//6 157//6 158//6
f 159//7 160//7 161//7 162//7
f 162//5 160//5 163//5 164//5
f 159//8 161//8 165//8 166//8
# Vertices
v 0.000 0.000 5.000
v 0.200 0.000 5.000
v 0.200 0.200 5.000
v 0.000 0.200 5.000
v 0.200 0.400 5.000
v 0.000 0.400 5.000
v 0.200 0.600 5.000
v 0.000 0.600 5.000
v 0.200 0.800 5.000
v 0.000 0.800 5.000
v 0.200 1.000 5.000
v 0.000 1.000 5.000
v 0.000 -0.200 5.000
v 0.200 -0.200 5.000
v 0.000 -0.400 5.000
v 0.200 -0.400 5.000
v 0.000 -0.600 5.000
v 0.200 -0.600 5.000
v 0.000 -0.800 5.000
v 0.200 -0.800 5.000
v 0.000 -1.000 5.000
v 0.200 -1.000 5.000
v 0.400 0.000 5.000
v 0.400 0.200 5.000
v 0.400 0.400 5.000
v 0.400 0.600 5.000
v 0.400 0.800 5.000
v 0.400 1.000 5.000
v 0.400 -0.200 5.000
v 0.400 -0.400 5.000
v 0.400 -0.600 5.000
v 0.400 -0.800 5.000
v 0.400 -1.000 5.000
v 0.600 0.000 5.000
v 0.600 0.200 5.000
v 0.600 0.400 5.000
v 0.600 0.600 5.000
v 0.600 0.800 5.000
v 0.600 1.000 5.000
v 0.600 -0.200 5.000
v 0.600 -0.400 5.000
v 0.600 -0.600 5.000
v 0.600 -0.800 5.000
v 0.600 -1.000 5.000
v 0.800 0.000 5.000
v 0.800 0.200 5.000
v 0.800 0.400 5.000
v 0.800 0.600 5.000
v 0.800 0.800 5.000
v 0.800 1.000 5.000
v 0.800 -0.200 5.000
v 0.800 -0.400 5.000
v 0.800 -0.600 5.000
v 0.800 -0.800 5.000
v 0.800 -1.000 5.000
v 1.000 0.000 5.000
v 1.000 0.200 5.000
v 1.000 0.400 5.000
v 1.000 0.600 5.000
v 1.000 0.800 5.000
v 1.000 1.000 5.000
v 1.000 -0.200 5.000
v 1.000 -0.400 5.000
v 1.000 -0.600 5.000
v 1.000 -0.800 5.000
v 1.000 -1.000 5.000
v 0.000 0.000 0.000
v 0.200 0.000 0.000
v 0.200 0.200 0.000
v 0.000 0.200 0.000
v 0.200 0.400 0.000
v 0.000 0.400 0.000
v 0.200 0.600 0.000
v 0.000 0.600 0.000
v 0.200 0.800 0.000
v 0.000 0.800 0.000
v 0.200 1.000 0.000
v 0.000 1.000 0.000
v 0.000 -0.200 0.000
v 0.200 -0.200 0.000
v 0.000 -0.400 0.000
v 0.200 -0.400 0.000
v 0.000 -0.600 0.000
v 0.200 -0.600 0.000
v 0.000 -0.800 0.000
v 0.200 -0.800 0.000
v 0.000 -1.000 0.000
v 0.200 -1.000 0.000
v 0.400 0.000 0.000
v 0.400 0.200 0.000
v 0.400 0.400 0.000
v 0.400 0.600 0.000
v 0.400 0.800 0.000
v 0.400 1.000 0.000
v 0.400 -0.200 0.000
v 0.400 -0.400 0.000
v 0.400 -0.600 0.000
v 0.400 -0.800 0.000
v 0.400 -1.000 0.000
v 0.600 0.000 0.000
v 0.600 0.200 0.000
v 0.600 0.400 0.000
v 0.600 0.600 0.000
v 0.600 0.800 0.000
v 0.600 1.000 0.000
v 0.600 -0.200 0.000
v 0.600 -0.400 0.000
v 0.600 -0.600 0.000
v 0.600 -0.800 0.000
v 0.600 -1.000 0.000
v 0.800 0.000 0.000
v 0.800 0.200 0.000
v 0.800 0.400 0.000
v 0.800 0.600 0.000
v 0.800 0.800 0.000
v 0.800 1.000 0.000
v 0.800 -0.200 0.000
v 0.800 -0.400 0.000
v 0.800 -0.600 0.000
v 0.800 -0.800 0.000
v 0.800 -1.000 0.000
v 1.000 0.000 0.000
v 1.000 0.200 0.000
v 1.000 0.400 0.000
v 1.000 0.600 0.000
v 1.000 0.800 0.000
v 1.000 1.000 0.000
v 1.000 -0.200 0.000
v 1.000 -0.400 0.000
v 1.000 -0.600 0.000
v 1.000 -0.800 0.000
v 1.000 -1.000 0.000
# Normals
vn 0.000 0.000 1.000

# Faces
usemtl h_bounds_haze
f 167//9 168//9 169//9 170//9
f 170//9 169//9 171//9 172//9
f 172//9 171//9 173//9 174//9
f 174//9 173//9 175//9 176//9
f 176//9 175//9 177//9 178//9
f 167//9 179//9 180//9 168//9
f 179//9 181//9 182//9 180//9
f 181//9 183//9 184//9 182//9
f 183//9 185//9 186//9 184//9
f 185//9 187//9 188//9 186//9
f 168//9 189//9 190//9 169//9
f 169//9 190//9 191//9 171//9
f 171//9 191//9 192//9 173//9
f 173//9 192//9 193//9 175//9
f 175//9 193//9 194//9 177//9
f 168//9 180//9 195//9 189//9
f 180//9 182//9 196//9 195//9
f 182//9 184//9 197//9 196//9
f 184//9 186//9 198//9 197//9
f 186//9 188//9 199//9 198//9
f 189//9 200//9 201//9 190//9
f 190//9 201//9 202//9 191//9
f 191//9 202//9 203//9 192//9
f 192//9 203//9 204//9 193//9
f 193//9 204//9 205//9 194//9
f 189//9 195//9 206//9 200//9
f 195//9 196//9 207//9 206//9
f 196//9 197//9 208//9 207//9
f 197//9 198//9 209//9 208//9
f 198//9 199//9 210//9 209//9
f 200//9 211//9 212//9 201//9
f 201//9 212//9 213//9 202//9
f 202//9 213//9 214//9 203//9
f 203//9 214//9 215//9 204//9
f 204//9 215//9 216//9 205//9
f 200//9 206//9 217//9 211//9
f 206//9 207//9 218//9 217//9
f 207//9 208//9 219//9 218//9
f 208//9 209//9 220//9 219//9
f 209//9 210//9 221//9 220//9
f 211//9 222//9 223//9 212//9
f 212//9 223//9 224//9 213//9
f 213//9 224//9 225//9 214//9
f 214//9 225//9 226//9 215//9
f 215//9 226//9 227//9 216//9
f 211//9 217//9 228//9 222//9
f 217//9 218//9 229//9 228//9
f 218//9 219//9 230//9 229//9
f 219//9 220//9 231//9 230//9
f 220//9 221//9 232//9 231//9
f 233//9 234//9 235//9 236//9
f 236//9 235//9 237//9 238//9
f 238//9 237//9 239//9 240//9
f 240//9 239//9 241//9 242//9
f 242//9 241//9 243//9 244//9
f 233//9 245//9 246//9 234//9
f 245//9 247//9 248//9 246//9
f 247//9 249//9 250//9 248//9
f 249//9 251//9 252//9 250//9
f 251//9 253//9 254//9 252//9
f 234//9 255//9 256//9 235//9
f 235//9 256//9 257//9 237//9
f 237//9 257//9 258//9 239//9
f 239//9 258//9 259//9 241//9
f 241//9 259//9 260//9 243//9
f 234//9 246//9 261//9 255//9
f 246//9 248//9 262//9 261//9
f 248//9 250//9 263//9 262//9
f 250//9 252//9 264//9 263//9
f 252//9 254//9 265//9 264//9
f 255//9 266//9 267//9 256//9
f 256//9 267//9 268//9 257//9
f 257//9 268//9 269//9 258//9
f 258//9 269//9 270//9 259//9
f 259//9 270//9 271//9 260//9
f 255//9 261//9 272//9 266//9
f 261//9 262//9 273//9 272//9
f 262//9 263//9 274//9 273//9
f 263//9 264//9 275//9 274//9
f 264//9 265//9 276//9 275//9
f 266//9 277//9 278//9 267//9
f 267//9 278//9 279//9 268//9
f 268//9 279//9 280//9 269//9
f 269//9 280//9 281//9 270//9
f 270//9 281//9 282//9 271//9
f 266//9 272//9 283//9 277//9
f 272//9 273//9 284//9 283//9
f 273//9 274//9 285//9 284//9
f 274//9 275//9 286//9 285//9
f 275//9 276//9 287//9 286//9
f 277//9 288//9 289//9 278//9
f 278//9 289//9 290//9 279//9
f 279//9 290//9 291//9 280//9
f 280//9 291//9 292//9 281//9
f 281//9 292//9 293//9 282//9
f 277//9 283//9 294//9 288//9
f 283//9 284//9 295//9 294//9
f 284//9 285//9 296//9 295//9
f 285//9 286//9 297//9 296//9
f 286//9 287//9 298//9 297//9
