####
#
# OBJ File Generated by Meshlab
#
####
# Object l_gripper_finger_link.obj
#
# Vertices: 116
# Faces: 228
#
####
vn 0.000000 -1.540612 0.306455
v 0.029000 0.102850 0.011150
vn 0.000000 -1.527417 0.303830
v 0.029000 0.103002 0.011915
vn -0.001835 1.104411 -1.104408
v -0.029000 0.116882 -0.012150
vn -0.000021 0.012625 -0.012625
v 0.029000 0.116564 -0.012564
vn -0.001835 1.104411 -1.104408
v -0.029000 0.116150 -0.012882
vn 0.000000 0.306446 -1.540614
v 0.029000 0.115150 -0.013150
vn 0.594350 -0.139456 0.397131
v 0.030414 0.104850 0.012564
vn 1.475459 0.293486 0.293488
v 0.030848 0.115150 0.011915
vn 0.774378 0.154033 0.154034
v 0.031000 0.115150 0.011150
vn 0.154032 -0.154032 0.774377
v 0.029765 0.104850 0.012998
vn -0.001378 1.512998 0.405412
v -0.029000 0.116882 0.012150
vn -0.000016 0.017239 0.004619
v 0.029000 0.116998 0.011915
vn 0.268691 -1.350766 -0.053446
v 0.029707 0.103002 -0.011443
vn 0.268691 -1.350767 -0.053446
v 0.029765 0.103002 -0.011150
vn 0.656487 0.154035 0.438649
v 0.030414 0.115150 0.012564
vn 0.000925 -0.872688 1.306069
v 0.029000 0.103869 0.012854
vn 0.000003 -0.002479 0.003710
v -0.029000 0.103850 0.012882
vn -0.001378 0.405406 1.512999
v -0.029000 0.116150 0.012882
vn 0.000925 1.306065 0.872693
v 0.029000 0.116854 0.012131
vn 0.000000 -0.303821 -1.527419
v 0.029000 0.104085 -0.012998
vn 0.000919 -1.298604 -0.867692
v 0.029000 0.103436 -0.012564
vn 0.268691 -1.350766 0.053446
v 0.029707 0.103002 0.011443
vn 0.000925 1.306065 -0.872693
v 0.029000 0.116854 -0.012131
vn 0.190431 1.432842 -0.957353
v 0.029000 0.116998 -0.011915
vn 0.119679 0.900381 -0.601604
v 0.029293 0.116998 -0.011857
vn 0.000922 0.870196 -1.302356
v 0.029000 0.115915 -0.012998
vn 0.215899 0.725228 -1.085393
v 0.029000 0.116131 -0.012854
vn 0.774378 -0.154034 -0.154033
v 0.030707 0.104085 -0.011857
vn 0.701082 -0.139454 -0.139454
v 0.031000 0.104850 -0.011150
vn 1.250844 -0.293488 0.835772
v 0.030848 0.104850 0.011915
vn 0.870873 -0.581897 -0.173232
v 0.030704 0.103869 -0.011150
vn 1.167919 -0.920514 -0.780375
v 0.030307 0.103436 -0.011691
vn 0.614621 -0.484423 -0.410675
v 0.030000 0.103436 -0.012150
vn 0.410677 -0.484424 -0.614620
v 0.029541 0.103436 -0.012457
vn 0.268776 -0.317041 -0.402251
v 0.030307 0.104085 -0.012457
vn 0.058135 -0.195282 0.292263
v 0.029707 0.104085 0.012857
vn 0.238592 -0.801459 1.199482
v 0.029000 0.104085 0.012998
vn 0.312469 -0.551625 0.208784
v 0.029541 0.103002 0.011691
vn 0.499157 -0.881200 0.333525
v 0.030307 0.103436 0.011691
vn 1.016869 -0.801461 0.679448
v 0.030307 0.104085 0.012457
vn 0.614620 -0.484423 0.410675
v 0.030707 0.104085 0.011857
vn 0.106854 0.282320 -0.159920
v 0.029541 0.116564 -0.012457
vn 1.199491 0.801449 0.238593
v 0.030848 0.115915 0.011150
vn 0.292264 0.195278 0.058135
v 0.030707 0.115915 0.011857
vn 0.000922 0.870196 1.302356
v 0.029000 0.115915 0.012998
vn 0.421655 0.631076 0.083872
v 0.029981 0.116854 0.011150
vn 0.053447 1.350768 0.268692
v 0.029293 0.116998 0.011857
vn 0.014932 0.377374 0.075066
v 0.029000 0.117150 0.011150
vn 0.227786 -1.350766 -0.152201
v 0.029541 0.103002 -0.011691
vn 0.620866 -0.414849 0.123501
v 0.030704 0.103869 0.011150
vn 1.377654 -0.920517 0.274040
v 0.030414 0.103436 0.011150
vn 0.957372 -1.432825 0.190432
v 0.029765 0.103002 0.011150
vn 0.215899 -0.725228 -1.085393
v 0.029000 0.103869 -0.012854
vn 0.058135 -0.195282 -0.292263
v 0.029707 0.104085 -0.012857
vn 1.250844 -0.293488 -0.835772
v 0.030848 0.104850 -0.011915
vn 0.542301 -1.432820 0.811620
v 0.029293 0.103002 0.011857
vn 0.106854 -0.282320 0.159920
v 0.029541 0.103436 0.012457
vn 0.440381 -1.163518 0.659074
v 0.030000 0.103436 0.012150
vn 0.154640 -1.163517 0.777430
v 0.029000 0.103436 0.012564
vn 0.957354 1.432838 -0.190429
v 0.029765 0.116998 -0.011150
vn 0.421655 0.631076 -0.083872
v 0.029981 0.116854 -0.011150
vn 0.063638 0.377372 -0.042521
v 0.029000 0.117150 -0.011150
vn 0.227786 1.350769 -0.152201
v 0.029707 0.116998 -0.011443
vn 0.308067 0.308067 1.548753
v 0.029707 0.115915 0.012857
vn 0.835779 0.293487 1.250835
v 0.029765 0.115150 0.012998
vn 0.877300 0.308070 1.312972
v 0.030307 0.115915 0.012457
vn 0.601606 0.900379 0.119678
v 0.029707 0.116998 0.011443
vn 0.499157 0.881200 0.333525
v 0.030307 0.116564 0.011691
vn 0.620866 0.414849 0.123501
v 0.030704 0.116131 0.011150
vn 0.154642 1.163511 0.777440
v 0.029000 0.116564 0.012564
vn 0.440381 1.163518 0.659074
v 0.030000 0.116564 0.012150
vn 0.333522 0.881204 0.499157
v 0.029541 0.116998 0.011691
vn 0.410677 0.484424 0.614619
v 0.029541 0.116564 0.012457
vn 0.123498 0.414851 0.620868
v 0.029000 0.116131 0.012854
vn 0.042522 -0.377377 -0.063639
v 0.029000 0.102850 -0.011150
vn 0.152201 -1.350772 -0.227787
v 0.029293 0.103002 -0.011857
vn 0.117119 -0.881199 -0.588792
v 0.029000 0.103002 -0.011915
vn 0.159919 0.282317 -0.106854
v 0.030307 0.116564 -0.011691
vn 0.835779 -0.293487 -1.250835
v 0.029765 0.104850 -0.012998
vn 0.438648 -0.154033 -0.656486
v 0.030414 0.104850 -0.012564
vn 0.208785 0.551624 -0.312467
v 0.029541 0.116998 -0.011691
vn 1.475459 0.293486 -0.293488
v 0.030848 0.115150 -0.011915
vn 0.553301 0.436093 -0.369703
v 0.030000 0.116564 -0.012150
vn 1.312969 0.308070 -0.877296
v 0.030307 0.115915 -0.012457
vn 0.656487 0.154036 -0.438649
v 0.030707 0.115915 -0.011857
vn 0.438649 0.154033 -0.656486
v 0.029707 0.115915 -0.012857
vn 0.397130 0.139455 -0.594346
v 0.030414 0.115150 -0.012564
vn 0.000000 -1.570796 0.000000
v -0.029000 0.102850 -0.011150
vn 0.000000 -1.203738 0.000000
v -0.029000 0.102850 0.011150
vn 0.000000 0.367058 0.000000
v -0.029000 0.117150 0.011150
vn 0.000000 0.000000 1.395043
v -0.029000 0.104850 0.013150
vn 0.000000 0.000000 0.175754
v 0.029000 0.115150 0.013150
vn 0.306446 0.000000 1.540614
v 0.029000 0.104850 0.013150
vn -1.126879 0.000000 0.000000
v -0.029000 0.115150 0.013150
vn -0.026696 0.000000 0.000000
v -0.029000 0.103118 -0.012150
vn -2.617994 0.000000 0.000000
v -0.029000 0.104850 -0.013150
vn -2.617992 0.000000 0.000000
v -0.029000 0.103850 -0.012882
vn -2.796873 0.000000 0.000000
v -0.029000 0.115150 -0.013150
vn -1.237849 0.000000 0.000000
v -0.029000 0.117150 -0.011150
vn -0.261803 0.000000 0.000000
v -0.029000 0.103118 0.012150
vn 1.540614 0.000000 0.306448
v 0.031000 0.104850 0.011150
vn 0.432692 0.000000 0.000000
v 0.031000 0.115150 -0.011150
vn 0.000000 0.000000 -1.395043
v 0.029000 0.104850 -0.013150
vn 1.306082 -0.872669 0.000000
v 0.030848 0.104085 0.011150
vn 0.009672 -0.006462 0.000000
v 0.030848 0.104085 -0.011150
vn 1.264050 0.000000 0.844608
v 0.030704 0.104850 0.012131
vn 1.306077 0.000000 0.872677
v 0.030704 0.115150 0.012131
vn 0.872664 1.306085 0.000000
v 0.029765 0.116998 0.011150
vn 0.872681 -1.306074 0.000000
v 0.030414 0.103436 -0.011150
vn 0.872689 1.306069 0.000000
v 0.030414 0.116564 0.011150
vn 1.306082 0.872669 0.000000
v 0.030848 0.115915 -0.011150
vn 1.306070 0.872687 0.000000
v 0.030414 0.116564 -0.011150
vn 0.019422 0.012978 0.000000
v 0.030704 0.116131 -0.011150
vn 1.306071 0.000000 -0.872685
v 0.030704 0.115150 -0.012131
vn 1.264050 0.000000 -0.844608
v 0.030704 0.104850 -0.012131
vn 0.872686 0.000000 -1.306071
v 0.029765 0.115150 -0.012998
# 116 vertices, 0 vertices normals

f 1//1 2//2 89//89
f 18//18 70//70 11//11
f 26//26 98//98 5//5
f 3//3 4//4 5//5
f 26//26 6//6 98//98
f 41//41 7//7 40//40
f 44//44 8//8 9//9
f 17//17 37//37 91//91
f 91//91 37//37 93//93
f 2//2 100//100 89//89
f 17//17 100//100 59//59
f 100//100 2//2 59//59
f 44//44 71//71 66//66
f 44//44 66//66 15//15
f 9//9 43//43 44//44
f 37//37 10//10 93//93
f 11//11 12//12 90//90
f 90//90 12//12 48//48
f 96//96 20//20 97//97
f 21//21 95//95 97//97
f 13//13 14//14 75//75
f 14//14 13//13 109//109
f 99//99 24//24 3//3
f 62//62 24//24 99//99
f 62//62 25//25 24//24
f 41//41 104//104 101//101
f 15//15 107//107 44//44
f 8//8 44//44 107//107
f 30//30 41//41 101//101
f 17//17 59//59 16//16
f 17//17 16//16 37//37
f 22//22 38//38 1//1
f 38//38 22//22 39//39
f 94//94 45//45 18//18
f 92//92 45//45 94//94
f 65//65 45//45 92//92
f 70//70 19//19 11//11
f 12//12 11//11 19//19
f 53//53 21//21 97//97
f 20//20 53//53 97//97
f 21//21 53//53 34//34
f 103//103 20//20 96//96
f 75//75 88//88 77//77
f 95//95 77//77 88//88
f 77//77 95//95 21//21
f 34//34 77//77 21//21
f 1//1 52//52 22//22
f 4//4 3//3 23//23
f 24//24 23//23 3//3
f 23//23 42//42 4//4
f 24//24 25//25 23//23
f 42//42 23//23 25//25
f 42//42 27//27 4//4
f 5//5 27//27 26//26
f 4//4 27//27 5//5
f 27//27 86//86 26//26
f 42//42 86//86 27//27
f 28//28 105//105 31//31
f 105//105 28//28 29//29
f 41//41 39//39 50//50
f 41//41 50//50 104//104
f 41//41 106//106 7//7
f 30//30 106//106 41//41
f 109//109 32//32 31//31
f 28//28 31//31 32//32
f 28//28 32//32 33//33
f 13//13 32//32 109//109
f 34//34 35//35 33//33
f 33//33 35//35 28//28
f 28//28 55//55 29//29
f 16//16 36//36 37//37
f 37//37 36//36 10//10
f 10//10 36//36 7//7
f 40//40 7//7 36//36
f 1//1 56//56 2//2
f 38//38 56//56 1//1
f 58//58 38//38 39//39
f 41//41 58//58 39//39
f 40//40 58//58 41//41
f 81//81 42//42 25//25
f 62//62 81//81 25//25
f 43//43 69//69 44//44
f 74//74 70//70 18//18
f 45//45 74//74 18//18
f 67//67 108//108 48//48
f 72//72 67//67 48//48
f 108//108 67//67 46//46
f 12//12 47//47 48//48
f 72//72 48//48 47//47
f 19//19 47//47 12//12
f 13//13 75//75 49//49
f 33//33 49//49 34//34
f 13//13 49//49 32//32
f 32//32 49//49 33//33
f 116//116 6//6 26//26
f 86//86 116//116 26//26
f 50//50 39//39 51//51
f 22//22 51//51 39//39
f 52//52 51//51 22//22
f 34//34 54//54 35//35
f 53//53 54//54 34//34
f 53//53 20//20 54//54
f 55//55 28//28 115//115
f 56//56 38//38 57//57
f 58//58 57//57 38//38
f 2//2 57//57 59//59
f 56//56 57//57 2//2
f 16//16 59//59 57//57
f 57//57 36//36 16//16
f 36//36 57//57 40//40
f 58//58 40//40 57//57
f 63//63 60//60 61//61
f 60//60 63//63 62//62
f 62//62 63//63 81//81
f 64//64 74//74 45//45
f 64//64 45//45 65//65
f 15//15 64//64 65//65
f 66//66 64//64 15//15
f 46//46 68//68 110//110
f 67//67 68//68 46//46
f 44//44 68//68 71//71
f 71//71 68//68 72//72
f 68//68 67//67 72//72
f 69//69 68//68 44//44
f 68//68 69//69 110//110
f 19//19 70//70 73//73
f 73//73 47//47 19//19
f 72//72 73//73 71//71
f 47//47 73//73 72//72
f 66//66 71//71 73//73
f 64//64 66//66 73//73
f 74//74 73//73 70//70
f 64//64 73//73 74//74
f 77//77 76//76 75//75
f 49//49 75//75 76//76
f 76//76 77//77 34//34
f 49//49 76//76 34//34
f 103//103 79//79 20//20
f 54//54 20//20 79//79
f 112//112 78//78 61//61
f 63//63 61//61 78//78
f 63//63 78//78 81//81
f 113//113 78//78 112//112
f 54//54 80//80 35//35
f 79//79 80//80 54//54
f 35//35 80//80 28//28
f 115//115 28//28 80//80
f 81//81 83//83 42//42
f 78//78 83//83 81//81
f 113//113 111//111 85//85
f 78//78 113//113 85//85
f 111//111 102//102 85//85
f 83//83 78//78 85//85
f 85//85 102//102 82//82
f 85//85 84//84 83//83
f 84//84 86//86 42//42
f 83//83 84//84 42//42
f 82//82 114//114 85//85
f 84//84 85//85 87//87
f 114//114 87//87 85//85
f 116//116 86//86 87//87
f 84//84 87//87 86//86
f 88//88 75//75 89//89
f 89//89 75//75 1//1
f 90//90 62//62 99//99
f 48//48 62//62 90//90
f 91//91 92//92 94//94
f 93//93 92//92 91//91
f 92//92 93//93 10//10
f 92//92 10//10 65//65
f 7//7 15//15 10//10
f 65//65 10//10 15//15
f 18//18 11//11 95//95
f 99//99 95//95 90//90
f 88//88 89//89 95//95
f 95//95 100//100 17//17
f 91//91 94//94 95//95
f 90//90 95//95 11//11
f 98//98 96//96 95//95
f 17//17 91//91 95//95
f 18//18 95//95 94//94
f 97//97 95//95 96//96
f 5//5 98//98 95//95
f 99//99 3//3 95//95
f 5//5 95//95 3//3
f 100//100 95//95 89//89
f 8//8 30//30 9//9
f 9//9 30//30 101//101
f 101//101 102//102 9//9
f 29//29 102//102 101//101
f 60//60 62//62 48//48
f 108//108 60//60 48//48
f 98//98 103//103 96//96
f 6//6 103//103 98//98
f 75//75 52//52 1//1
f 14//14 52//52 75//75
f 105//105 29//29 101//101
f 104//104 105//105 101//101
f 104//104 50//50 105//105
f 105//105 50//50 31//31
f 7//7 106//106 15//15
f 15//15 106//106 107//107
f 30//30 8//8 106//106
f 107//107 106//106 8//8
f 102//102 111//111 9//9
f 9//9 111//111 43//43
f 46//46 60//60 108//108
f 60//60 46//46 61//61
f 50//50 51//51 31//31
f 109//109 31//31 51//51
f 51//51 52//52 14//14
f 109//109 51//51 14//14
f 46//46 112//112 61//61
f 46//46 110//110 112//112
f 111//111 113//113 43//43
f 43//43 113//113 69//69
f 112//112 110//110 113//113
f 69//69 113//113 110//110
f 103//103 6//6 79//79
f 116//116 79//79 6//6
f 102//102 29//29 82//82
f 55//55 82//82 29//29
f 55//55 114//114 82//82
f 115//115 114//114 55//55
f 114//114 115//115 87//87
f 80//80 87//87 115//115
f 79//79 116//116 87//87
f 87//87 80//80 79//79
# 228 faces, 0 coords texture

# End of File