####
#
# OBJ File Generated by Meshlab
#
####
# Object torso_fixed_link.obj
#
# Vertices: 60
# Faces: 232
#
####
mtllib ./torso_fixed_link.obj.mtl

vn -5.557612 2.914646 -6.085635
v -0.148316 0.123305 -0.018569
vn -5.817944 2.352393 6.085643
v -0.159329 0.099519 0.443306
vn -5.557616 2.914638 6.085651
v -0.148316 0.123305 0.443306
vn -0.768896 -6.187648 -5.788670
v -0.117466 -0.155350 -0.018569
vn -0.000004 -0.000003 -12.566370
v -0.125949 -0.150084 -0.018569
vn 0.813089 -5.759594 -6.176142
v -0.035066 -0.155350 -0.018569
vn -2.891303 -5.362293 -5.294185
v -0.127432 -0.152834 -0.018569
vn -0.000003 -0.000000 -12.566371
v -0.164945 -0.073882 -0.018569
vn -0.000003 0.000000 -12.566375
v -0.164945 0.073882 -0.018569
vn 1.626190 -0.000000 -12.352309
v -0.035065 0.152225 -0.018569
vn 3.034487 -5.236044 -5.256108
v -0.033566 -0.155350 -0.018167
vn -4.829177 3.910916 5.689885
v -0.135010 0.145890 0.443306
vn -4.829187 3.910910 -5.689897
v -0.135011 0.145890 -0.018569
vn 0.813091 5.759593 -6.176140
v -0.035065 0.155350 -0.018569
vn -0.000004 0.000003 -12.566371
v -0.125949 0.150084 -0.018569
vn -0.768895 6.187649 -5.788671
v -0.117465 0.155350 -0.018569
vn -0.768887 -6.187637 5.788671
v -0.117465 -0.155350 0.443306
vn -2.891305 -5.362292 5.294186
v -0.127432 -0.152834 0.443306
vn -5.817946 -2.352385 -6.085649
v -0.159330 -0.099519 -0.018569
vn -6.251237 -0.446900 -5.997707
v -0.168288 -0.072369 -0.018569
vn -5.817946 2.352382 -6.085625
v -0.159330 0.099519 -0.018569
vn -6.251214 0.446907 -5.997701
v -0.168288 0.072368 -0.018569
vn 10.511896 -0.000001 -6.069190
v -0.032467 0.152225 -0.017069
vn 5.255925 -5.235902 -3.034582
v -0.032467 -0.155350 -0.017069
vn -5.557616 -2.914640 -6.085634
v -0.148316 -0.123305 -0.018569
vn -4.829191 -3.910908 5.689906
v -0.135010 -0.145890 0.443306
vn -5.557614 -2.914641 6.085645
v -0.148316 -0.123305 0.443306
vn -2.891294 5.362303 5.294205
v -0.127432 0.152834 0.443306
vn -0.768895 6.187637 5.788663
v -0.117465 0.155350 0.443306
vn 10.512020 -0.000001 6.069094
v -0.032467 0.152225 0.441806
vn 6.176169 -5.759597 0.813093
v -0.032065 -0.155350 0.440306
vn 12.352284 -0.000001 1.626172
v -0.032065 0.152225 0.440306
vn 0.000000 0.000000 12.566372
v -0.156432 0.098347 0.443306
vn -5.817941 -2.352395 6.085654
v -0.159329 -0.099519 0.443306
vn -6.076731 -1.479307 -5.898955
v -0.167944 -0.074762 -0.018569
vn -6.076766 -1.479206 5.898884
v -0.167943 -0.074762 0.443306
vn -0.000004 -0.000002 -12.566370
v -0.145549 -0.121854 -0.018569
vn -6.076753 1.479317 -5.898967
v -0.167944 0.074762 -0.018569
vn -0.000004 0.000002 -12.566370
v -0.145549 0.121854 -0.018569
vn 6.068927 -0.000001 -10.512123
v -0.033565 0.152225 -0.018167
vn -2.891303 5.362291 -5.294182
v -0.127432 0.152834 -0.018569
vn 0.813114 -5.759584 6.176136
v -0.035065 -0.155350 0.443306
vn 1.626175 -0.000000 12.352316
v -0.035065 0.152225 0.443306
vn 0.000000 0.000000 12.566371
v -0.156432 -0.098347 0.443306
vn -4.829191 -3.910911 -5.689898
v -0.135011 -0.145890 -0.018569
vn -6.076745 1.479210 5.898905
v -0.167943 0.074762 0.443306
vn 12.352292 -0.000001 -1.626142
v -0.032065 0.152225 -0.015569
vn 6.176174 -5.759681 -0.813078
v -0.032066 -0.155350 -0.015569
vn 3.034575 -5.235996 5.256035
v -0.033565 -0.155350 0.442904
vn 6.069036 -0.000001 10.511993
v -0.033565 0.152225 0.442904
vn 5.255987 -5.236057 3.034534
v -0.032467 -0.155350 0.441806
vn -6.251252 0.446797 5.997783
v -0.168287 0.072368 0.443306
vn -6.251232 -0.446783 5.997798
v -0.168287 -0.072369 0.443306
vn 0.813084 5.759604 6.176145
v -0.035065 0.155350 0.443306
vn 3.034518 5.235976 5.255997
v -0.033565 0.155350 0.442904
vn 5.255987 5.235974 3.034534
v -0.032467 0.155350 0.441806
vn 6.176139 5.759781 0.813086
v -0.032065 0.155350 0.440306
vn 5.255925 5.235901 -3.034582
v -0.032467 0.155350 -0.017069
vn 6.176148 5.759611 -0.813071
v -0.032065 0.155350 -0.015569
vn 3.034463 5.236045 -5.256062
v -0.033565 0.155350 -0.018167
# 60 vertices, 0 vertices normals


usemtl material_0
vt 0.411945 0.000000
vt 0.441345 0.600169
vt 0.411945 0.600169
f 1/1/1 2/2/2 3/3/3
vt 0.105062 0.596271
vt 0.115542 0.603114
vt 0.003272 0.596271
f 4/4/4 5/5/5 6/6/6
vt 0.117374 0.599540
f 7/7/7 5/5/5 4/4/4
vt 0.163715 0.702132
vt 0.163715 0.894139
f 8/8/8 9/9/9 6/6/6
vt 0.003272 0.995939
vt 0.001402 0.596271
f 10/10/10 11/11/11 6/6/6
vt 0.178905 0.927452
vt 0.208933 0.987707
vt 0.192504 0.958360
f 2/12/2 12/13/12 3/14/3
vt 0.384030 0.600169
f 3/3/3 12/15/12 1/1/1
vt 0.384030 0.000000
f 12/15/12 13/16/13 1/1/1
vt 0.003272 1.000000
vt 0.115542 0.993157
vt 0.105062 1.000000
f 14/17/14 15/18/15 16/19/16
vt 0.990222 0.600169
vt 0.977765 0.000000
vt 0.990222 0.000000
f 7/20/7 17/21/17 18/22/18
vt 0.977765 0.600169
f 4/23/4 17/21/17 7/20/7
vt 0.156778 0.668819
vt 0.167844 0.704098
f 8/8/8 19/24/19 20/25/20
vt 0.126736 0.987707
vt 0.156778 0.927452
vt 0.143172 0.958360
f 13/26/13 21/27/21 1/28/1
vt 0.167844 0.892172
f 22/29/22 21/27/21 9/9/9
vt 0.441345 0.000000
f 1/1/1 21/30/21 2/2/2
vt 0.000000 0.995939
vt 0.000000 0.596271
f 11/11/11 23/31/23 24/32/24
vt 0.716759 0.000000
vt 0.744674 0.600169
vt 0.716759 0.600169
f 25/33/25 26/34/26 27/35/27
vt 0.218290 0.996731
f 2/12/2 28/36/28 12/13/12
vt 0.230596 1.000000
f 29/37/29 28/36/28 2/12/2
vt 0.003863 0.000000
vt 0.384030 0.001949
vt 0.003863 0.001949
f 30/38/30 31/39/31 32/40/32
vt 0.182482 0.925930
f 29/37/29 2/12/2 33/41/33
vt 0.230596 0.596271
vt 0.178905 0.668819
vt 0.218290 0.599540
f 17/42/17 34/43/34 18/44/18
vt 0.208933 0.608563
f 34/43/34 26/45/26 18/44/18
vt 0.192504 0.637910
f 26/45/26 34/43/34 27/46/27
vt 0.687359 0.600169
f 27/35/27 34/47/34 25/33/25
vt 0.687359 0.000000
f 25/33/25 34/47/34 19/48/19
vt 0.167419 0.700988
f 19/24/19 35/49/35 20/25/20
vt 0.656759 0.600169
vt 0.656759 0.000000
f 36/50/36 35/51/35 34/47/34
f 34/47/34 35/51/35 19/48/19
vt 0.139754 0.639796
f 37/52/37 19/24/19 8/8/8
f 37/52/37 8/8/8 6/6/6
f 5/5/5 37/52/37 6/6/6
vt 0.471945 0.000000
f 21/30/21 38/53/38 2/2/2
vt 0.167419 0.895282
f 21/27/21 22/29/22 38/54/38
vt 0.139754 0.956474
f 15/18/15 39/55/39 13/26/13
f 39/55/39 21/27/21 13/26/13
f 21/27/21 39/55/39 9/9/9
f 9/9/9 39/55/39 14/17/14
f 15/18/15 14/17/14 39/55/39
vt 0.001402 0.995939
f 23/31/23 11/11/11 40/56/40
f 11/11/11 10/10/10 40/56/40
vt 0.766909 0.000000
vt 0.766909 0.600169
vt 0.754452 0.600169
f 29/57/29 16/58/16 41/59/41
vt 0.754452 0.000000
f 41/59/41 28/60/28 29/57/29
vt 0.117374 0.996731
f 15/18/15 41/61/41 16/19/16
f 15/18/15 13/26/13 41/61/41
vt 0.332340 0.596271
vt 0.332340 0.995939
f 17/42/17 42/62/42 43/63/43
vt 0.182482 0.670341
f 34/43/34 17/42/17 44/64/44
f 29/37/29 44/64/44 17/42/17
f 33/41/33 44/64/44 29/37/29
vt 0.126736 0.608563
f 5/5/5 7/7/7 45/65/45
f 37/52/37 5/5/5 45/65/45
vt 0.744674 0.000000
f 26/34/26 25/33/25 45/66/45
vt 0.143172 0.637910
f 19/24/19 45/65/45 25/67/25
f 37/52/37 45/65/45 19/24/19
vt 1.000000 0.600169
f 18/22/18 45/68/45 7/20/7
vt 1.000000 0.000000
f 26/69/26 45/68/45 18/22/18
vt 0.471945 0.600169
f 38/53/38 46/70/46 2/2/2
vt 0.003863 0.594321
vt 0.384030 0.594321
vt 0.003863 0.596271
f 47/71/47 48/72/48 23/73/23
vt 0.384030 0.596271
f 23/73/23 48/72/48 24/74/24
vt 0.334214 0.596271
vt 0.334215 0.995939
f 43/63/43 49/75/49 50/76/50
f 42/62/42 49/75/49 43/63/43
vt 0.335632 0.995939
f 49/75/49 30/77/30 50/76/50
f 31/39/31 30/38/30 51/16/51
vt 0.335632 0.596271
f 49/75/49 51/78/51 30/77/30
f 9/9/9 14/17/14 10/10/10
f 9/9/9 10/10/10 6/6/6
vt 0.474903 0.600169
vt 0.474903 0.000000
vt 0.653800 0.600169
f 52/79/52 22/80/22 53/81/53
vt 0.653800 0.000000
f 53/81/53 22/80/22 20/82/20
f 8/8/8 20/25/20 22/29/22
f 22/29/22 9/9/9 8/8/8
vt 0.332340 1.000000
f 29/37/29 43/63/43 54/83/54
f 17/42/17 43/63/43 29/37/29
vt 0.334215 1.000000
f 43/63/43 55/84/55 54/83/54
f 55/84/55 43/63/43 50/76/50
vt 0.335632 1.000000
f 55/84/55 30/77/30 56/85/56
f 55/84/55 50/76/50 30/77/30
vt 0.868634 0.600169
vt 0.872337 0.003898
f 14/86/14 16/58/16 57/87/57
f 29/57/29 57/87/57 16/58/16
vt 0.871841 0.598220
vt 0.872337 0.596271
f 58/88/58 57/87/57 59/89/59
vt 0.870485 0.599647
f 14/86/14 57/87/57 60/90/60
f 58/88/58 60/90/60 57/87/57
vt 0.868633 0.000000
f 57/87/57 29/57/29 54/91/54
vt 0.870485 0.000522
vt 0.871841 0.001949
f 55/92/55 56/93/56 57/87/57
f 55/92/55 57/87/57 54/91/54
vt 0.000000 0.001949
vt 0.000000 0.000000
f 30/38/30 57/94/57 56/95/56
f 30/38/30 32/40/32 57/94/57
f 53/81/53 35/51/35 36/50/36
f 53/81/53 20/82/20 35/51/35
vt 0.000000 1.000000
vt 0.001402 1.000000
f 58/96/58 40/56/40 60/97/60
f 23/31/23 40/56/40 58/96/58
f 60/97/60 40/56/40 14/17/14
f 14/17/14 40/56/40 10/10/10
vt 0.000000 0.594321
f 59/98/59 47/71/47 58/32/58
f 58/32/58 47/71/47 23/73/23
f 57/94/57 47/71/47 59/98/59
f 47/71/47 57/94/57 32/40/32
vt 0.744674 0.600169
f 12/66/12 41/59/41 13/99/13
f 28/60/28 41/59/41 12/66/12
vt 0.167844 0.704098
vt 0.168268 0.895282
f 53/100/53 46/101/46 52/29/52
f 44/64/44 46/101/46 34/43/34
vt 0.168268 0.700988
f 36/102/36 46/101/46 53/100/53
f 33/41/33 2/12/2 46/101/46
f 34/43/34 46/101/46 36/102/36
f 46/101/46 44/64/44 33/41/33
f 22/80/22 52/79/52 46/70/46
f 38/53/38 22/80/22 46/70/46
f 32/40/32 48/72/48 47/71/47
f 31/39/31 48/72/48 32/40/32
vt 0.874189 0.599647
vt 0.872833 0.598220
vt 0.872833 0.001949
f 11/103/11 24/104/24 51/105/51
vt 0.876041 0.600169
f 4/23/4 6/106/6 51/105/51
f 11/103/11 51/105/51 6/106/6
f 17/21/17 4/23/4 51/105/51
f 48/89/48 51/105/51 24/104/24
vt 0.876041 0.000000
f 42/107/42 17/21/17 51/105/51
vt 0.872337 0.003898
f 51/105/51 48/89/48 31/108/31
vt 0.874189 0.000522
f 49/109/49 42/107/42 51/105/51
f 1/1/1 2/2/2 3/3/3
f 4/4/4 5/5/5 6/6/6
f 7/7/7 5/5/5 4/4/4
f 8/8/8 9/9/9 6/6/6
f 10/10/10 11/11/11 6/6/6
f 2/12/2 12/13/12 3/14/3
f 3/3/3 12/15/12 1/1/1
f 12/15/12 13/16/13 1/1/1
f 14/17/14 15/18/15 16/19/16
f 7/20/7 17/21/17 18/22/18
f 4/23/4 17/21/17 7/20/7
f 8/8/8 19/24/19 20/25/20
f 13/26/13 21/27/21 1/28/1
f 22/29/22 21/27/21 9/9/9
f 1/1/1 21/30/21 2/2/2
f 11/11/11 23/31/23 24/32/24
f 25/33/25 26/34/26 27/35/27
f 2/12/2 28/36/28 12/13/12
f 29/37/29 28/36/28 2/12/2
f 30/38/30 31/39/31 32/40/32
f 29/37/29 2/12/2 33/41/33
f 17/42/17 34/43/34 18/44/18
f 34/43/34 26/45/26 18/44/18
f 26/45/26 34/43/34 27/46/27
f 27/35/27 34/47/34 25/33/25
f 25/33/25 34/47/34 19/48/19
f 19/24/19 35/49/35 20/25/20
f 36/50/36 35/51/35 34/47/34
f 34/47/34 35/51/35 19/48/19
f 37/52/37 19/24/19 8/8/8
f 37/52/37 8/8/8 6/6/6
f 5/5/5 37/52/37 6/6/6
f 21/30/21 38/53/38 2/2/2
f 21/27/21 22/29/22 38/54/38
f 15/18/15 39/55/39 13/26/13
f 39/55/39 21/27/21 13/26/13
f 21/27/21 39/55/39 9/9/9
f 9/9/9 39/55/39 14/17/14
f 15/18/15 14/17/14 39/55/39
f 23/31/23 11/11/11 40/56/40
f 11/11/11 10/10/10 40/56/40
f 29/57/29 16/58/16 41/59/41
f 41/59/41 28/60/28 29/57/29
f 15/18/15 41/61/41 16/19/16
f 15/18/15 13/26/13 41/61/41
f 17/42/17 42/62/42 43/63/43
f 34/43/34 17/42/17 44/64/44
f 29/37/29 44/64/44 17/42/17
f 33/41/33 44/64/44 29/37/29
f 5/5/5 7/7/7 45/65/45
f 37/52/37 5/5/5 45/65/45
f 26/34/26 25/33/25 45/66/45
f 19/24/19 45/65/45 25/67/25
f 37/52/37 45/65/45 19/24/19
f 18/22/18 45/68/45 7/20/7
f 26/69/26 45/68/45 18/22/18
f 38/53/38 46/70/46 2/2/2
f 47/71/47 48/72/48 23/73/23
f 23/73/23 48/72/48 24/74/24
f 43/63/43 49/75/49 50/76/50
f 42/62/42 49/75/49 43/63/43
f 49/75/49 30/77/30 50/76/50
f 31/39/31 30/38/30 51/16/51
f 49/75/49 51/78/51 30/77/30
f 9/9/9 14/17/14 10/10/10
f 9/9/9 10/10/10 6/6/6
f 52/79/52 22/80/22 53/81/53
f 53/81/53 22/80/22 20/82/20
f 8/8/8 20/25/20 22/29/22
f 22/29/22 9/9/9 8/8/8
f 29/37/29 43/63/43 54/83/54
f 17/42/17 43/63/43 29/37/29
f 43/63/43 55/84/55 54/83/54
f 55/84/55 43/63/43 50/76/50
f 55/84/55 30/77/30 56/85/56
f 55/84/55 50/76/50 30/77/30
f 14/86/14 16/58/16 57/87/57
f 29/57/29 57/87/57 16/58/16
f 58/88/58 57/87/57 59/89/59
f 14/86/14 57/87/57 60/90/60
f 58/88/58 60/90/60 57/87/57
f 57/87/57 29/57/29 54/91/54
f 55/92/55 56/93/56 57/87/57
f 55/92/55 57/87/57 54/91/54
f 30/38/30 57/94/57 56/95/56
f 30/38/30 32/40/32 57/94/57
f 53/81/53 35/51/35 36/50/36
f 53/81/53 20/82/20 35/51/35
f 58/96/58 40/56/40 60/97/60
f 23/31/23 40/56/40 58/96/58
f 60/97/60 40/56/40 14/17/14
f 14/17/14 40/56/40 10/10/10
f 59/98/59 47/71/47 58/32/58
f 58/32/58 47/71/47 23/73/23
f 57/94/57 47/71/47 59/98/59
f 47/71/47 57/94/57 32/40/32
f 12/66/12 41/59/41 13/99/13
f 28/60/28 41/59/41 12/66/12
f 53/100/53 46/101/46 52/29/52
f 44/64/44 46/101/46 34/43/34
f 36/102/36 46/101/46 53/100/53
f 33/41/33 2/12/2 46/101/46
f 34/43/34 46/101/46 36/102/36
f 46/101/46 44/64/44 33/41/33
f 22/80/22 52/79/52 46/70/46
f 38/53/38 22/80/22 46/70/46
f 32/40/32 48/72/48 47/71/47
f 31/39/31 48/72/48 32/40/32
f 11/103/11 24/104/24 51/105/51
f 4/23/4 6/106/6 51/105/51
f 11/103/11 51/105/51 6/106/6
f 17/21/17 4/23/4 51/105/51
f 48/89/48 51/105/51 24/104/24
f 42/107/42 17/21/17 51/105/51
f 51/105/51 48/89/48 31/108/31
f 49/109/49 42/107/42 51/105/51
# 232 faces, 109 coords texture

# End of File