####
#
# OBJ File Generated by Meshlab
#
####
# Object GRIPPER_OPEN_FINGER_2_chull_1.obj
#
# Vertices: 179
# Faces: 354
#
####
vn 0.851141 -0.502008 -0.153450
v 0.106158 -0.008938 0.021603
vn 0.910868 -0.362084 -0.198029
v 0.099065 -0.008938 -0.015831
vn 0.649473 -0.707603 -0.278357
v 0.098559 -0.008938 -0.017245
vn 0.794218 -0.597174 0.112256
v 0.106205 -0.008938 0.023104
vn 0.907309 -0.272539 0.320177
v 0.105788 -0.008938 0.024547
vn 0.380212 0.898811 -0.218122
v 0.070432 0.008876 -0.068830
vn 0.903920 -0.249199 0.347603
v 0.097893 -0.015173 0.041351
vn 0.611419 -0.778337 0.142680
v 0.097893 -0.015194 0.041291
vn -0.744770 -0.649132 0.154742
v 0.027912 -0.001781 -0.056012
vn -0.812819 -0.581259 0.038255
v 0.027580 -0.001781 -0.058646
vn -0.654605 -0.750305 0.092384
v 0.038214 -0.011366 -0.058383
vn -0.774708 -0.632189 -0.012859
v 0.027568 -0.001781 -0.058960
vn -0.785194 -0.612641 0.090233
v 0.027596 -0.001781 -0.058357
vn -0.696575 -0.707454 0.119548
v 0.027851 -0.001781 -0.056321
vn -0.767915 -0.604061 0.213113
v 0.027974 -0.001781 -0.055729
vn -0.354319 -0.829755 -0.431237
v 0.040427 -0.011366 -0.064335
vn -0.176227 -0.871529 -0.457582
v 0.042345 -0.011366 -0.065424
vn -0.165154 -0.867729 -0.468797
v 0.067034 -0.008938 -0.079157
vn -0.825291 -0.544615 -0.149293
v 0.027700 -0.001781 -0.061611
vn -0.604211 -0.788697 -0.113519
v 0.038230 -0.011366 -0.060588
vn -0.887100 0.117646 0.446332
v 0.084059 0.011603 0.057334
vn 0.000487 0.255204 0.966887
v 0.085647 0.011603 0.057333
vn 0.968757 -0.047781 -0.243367
v 0.099244 0.001002 -0.017467
vn 0.645808 0.746051 -0.162298
v 0.099244 0.008876 -0.017467
vn 0.000487 -0.255204 0.966887
v 0.085647 -0.011603 0.057333
vn -0.887179 -0.117607 0.446186
v 0.084059 -0.011603 0.057334
vn 0.747273 -0.169802 0.642456
v 0.091997 -0.011603 0.057330
vn -0.768033 0.591826 0.244677
v 0.028632 0.001781 -0.053520
vn -0.688493 0.674563 0.266349
v 0.028735 0.001781 -0.053250
vn -0.793337 0.564512 0.227908
v 0.028031 0.001781 -0.055482
vn -0.793747 -0.556654 0.245158
v 0.028544 -0.001781 -0.053759
vn -0.654610 0.750107 0.093942
v 0.038214 0.011366 -0.058383
vn -0.738944 0.673747 -0.005206
v 0.027577 0.001781 -0.058706
vn -0.812495 0.580881 0.049294
v 0.027592 0.001781 -0.058417
vn -0.831599 0.544731 0.108222
v 0.027614 0.001781 -0.058103
vn -0.687127 0.716146 0.122434
v 0.027900 0.001781 -0.056071
vn -0.810512 0.580423 -0.078608
v 0.027639 0.001781 -0.061071
vn -0.809501 -0.580375 -0.088729
v 0.027663 -0.001781 -0.061298
vn -0.788131 -0.614607 -0.033279
v 0.027634 -0.001781 -0.061010
vn -0.779958 0.612374 -0.129088
v 0.027670 0.001781 -0.061358
vn -0.836584 0.547360 -0.022883
v 0.027612 0.001781 -0.060757
vn -0.754327 0.626961 -0.194706
v 0.028101 0.001781 -0.063684
vn -0.779888 -0.603474 -0.166114
v 0.028087 -0.001781 -0.063626
vn -0.824478 0.544584 -0.153833
v 0.028025 0.001781 -0.063379
vn -0.415460 -0.877463 -0.239690
v 0.038998 -0.011366 -0.062655
vn -0.836519 -0.402385 0.371916
v 0.028758 -0.001781 -0.053194
vn -0.895985 0.056230 0.440509
v 0.028853 0.001781 -0.052958
vn -0.021294 0.884965 -0.465171
v 0.044519 0.011366 -0.065792
vn -0.124380 -0.004072 -0.992226
v 0.043390 -0.001781 -0.076322
vn -0.136545 -0.041322 -0.989772
v 0.041354 -0.001781 -0.076066
vn 0.347341 0.849260 -0.397632
v 0.069289 0.008876 -0.070184
vn 0.174924 0.830968 -0.528104
v 0.067733 0.008876 -0.071034
vn 0.721789 0.176844 0.669139
v 0.091997 0.011603 0.057330
vn 0.801516 0.499791 0.328302
v 0.097893 0.015173 0.041351
vn 0.604206 0.780032 0.162743
v 0.097893 0.015194 0.041291
vn -0.509020 -0.579599 -0.636367
v 0.033900 -0.001781 -0.072643
vn -0.047700 0.627217 -0.777383
v 0.043450 0.001781 -0.076326
vn -0.109606 0.473706 -0.873836
v 0.043136 0.001781 -0.076304
vn -0.024749 0.631426 -0.775041
v 0.043739 0.001781 -0.076341
vn -0.017124 0.816579 -0.576979
v 0.065976 0.008876 -0.071265
vn -0.534475 -0.612663 -0.582220
v 0.033675 -0.001781 -0.072460
vn -0.517809 0.579493 -0.629335
v 0.033722 0.001781 -0.072498
vn -0.363883 -0.545907 -0.754702
v 0.036369 -0.001781 -0.074288
vn -0.580228 -0.553553 -0.597423
v 0.032178 -0.001781 -0.071057
vn -0.576297 0.545137 -0.608858
v 0.033481 0.001781 -0.072296
vn -0.167693 0.628165 -0.759794
v 0.040821 0.001781 -0.075957
vn -0.117538 0.666595 -0.736095
v 0.041104 0.001781 -0.076017
vn -0.245084 -0.310629 -0.918392
v 0.040762 -0.001781 -0.075944
vn -0.237014 0.544902 -0.804305
v 0.040515 0.001781 -0.075887
vn -0.278282 -0.331284 -0.901560
v 0.038791 -0.001781 -0.075373
vn -0.460127 0.612936 -0.642333
v 0.033947 0.001781 -0.072680
vn -0.477781 -0.545391 -0.688675
v 0.034147 -0.001781 -0.072837
vn -0.285235 0.626502 -0.725352
v 0.038283 0.001781 -0.075182
vn -0.359415 0.545761 -0.756945
v 0.037991 0.001781 -0.075065
vn -0.190186 0.831299 -0.522276
v 0.042345 0.011366 -0.065424
vn -0.243616 0.600359 -0.761722
v 0.038553 0.001781 -0.075286
vn -0.276100 -0.726758 -0.628960
v 0.038227 -0.001781 -0.075160
vn -0.412891 0.582411 -0.700227
v 0.035897 0.001781 -0.074020
vn -0.344680 0.673646 -0.653756
v 0.036147 0.001781 -0.074165
vn -0.473890 0.545473 -0.691294
v 0.035627 0.001781 -0.073858
vn -0.436771 -0.613551 -0.657865
v 0.035845 -0.001781 -0.073989
vn -0.350613 -0.705199 -0.616251
v 0.036095 -0.001781 -0.074135
vn -0.582115 0.629098 -0.515148
v 0.031812 0.001781 -0.070656
vn -0.562296 0.600990 -0.568009
v 0.032006 0.001781 -0.070870
vn -0.576863 -0.664072 -0.475644
v 0.031772 -0.001781 -0.070610
vn -0.357025 0.828143 -0.432102
v 0.040427 0.011366 -0.064335
vn -0.651154 -0.626691 -0.428085
v 0.030338 -0.001781 -0.068729
vn -0.666686 -0.546217 -0.507126
v 0.030513 -0.001781 -0.068990
vn -0.605820 0.632079 -0.483175
v 0.031606 0.001781 -0.070418
vn -0.695864 -0.600220 -0.394346
v 0.030181 -0.001781 -0.068485
vn -0.645981 0.604453 -0.466203
v 0.030371 0.001781 -0.068779
vn -0.709649 -0.627700 -0.319986
v 0.029059 -0.001781 -0.066403
vn -0.738686 -0.544709 -0.397032
v 0.029191 -0.001781 -0.066688
vn -0.728895 0.552921 -0.403721
v 0.030047 0.001781 -0.068270
vn -0.727728 0.631967 -0.266513
v 0.028844 0.001781 -0.065904
vn -0.711518 0.603830 -0.359347
v 0.029084 0.001781 -0.066458
vn -0.698315 -0.666637 -0.260675
v 0.028943 -0.001781 -0.066138
vn -0.787009 -0.555367 -0.268670
v 0.028246 -0.001781 -0.064208
vn -0.757789 0.602486 -0.250531
v 0.028176 0.001781 -0.063964
vn -0.605108 0.788704 -0.108585
v 0.038230 0.011366 -0.060588
vn -0.416794 0.877433 -0.237476
v 0.038998 0.011366 -0.062655
vn 0.687736 0.480899 0.543833
v 0.091996 0.014865 0.056151
vn -0.833410 0.187727 0.519794
v 0.084059 0.014315 0.056492
vn 0.790770 0.208280 0.575589
v 0.091996 0.014315 0.056487
vn -0.797215 0.417701 0.435860
v 0.084059 0.014865 0.056156
vn 0.024955 -0.999683 0.003419
v 0.097893 -0.015367 0.040258
vn 0.152103 -0.984578 -0.086431
v 0.081494 -0.015367 -0.007150
vn 0.104506 -0.991169 -0.081619
v 0.056053 -0.015367 -0.051920
vn -0.006220 -0.999975 0.003394
v 0.084058 -0.015367 0.054997
vn -0.345669 -0.930677 0.119801
v 0.045012 -0.015367 -0.045646
vn -0.027840 -0.995329 -0.092437
v 0.048336 -0.015367 -0.052649
vn 0.244133 -0.962763 -0.116128
v 0.099720 -0.015367 0.024926
vn 0.033774 -0.999199 0.021480
v 0.091996 -0.015367 0.054993
vn 0.684020 -0.726382 -0.066969
v 0.099819 -0.015367 0.025299
vn -0.840934 0.092533 0.533167
v 0.084060 0.008829 0.057940
vn 0.723455 0.060143 0.687747
v 0.091997 0.006012 0.058301
vn -0.866933 0.042594 0.496601
v 0.084060 0.006012 0.058306
vn 0.799809 0.102710 0.591402
v 0.091997 0.008829 0.057936
vn 0.261266 -0.886048 0.382960
v 0.091996 -0.015236 0.055624
vn -0.686658 -0.675557 0.268557
v 0.084058 -0.015236 0.055629
vn 0.913464 -0.003871 -0.406901
v 0.073112 -0.006588 -0.076544
vn 0.586737 0.751596 -0.301400
v 0.098667 0.008876 -0.019142
vn 0.912605 0.009112 -0.408741
v 0.073112 -0.003413 -0.076544
vn 0.916109 -0.045944 -0.398287
v 0.098667 0.001002 -0.019142
vn 0.784363 0.440441 -0.436791
v 0.072759 -0.001064 -0.077209
vn 0.412147 -0.889593 -0.196875
v 0.072759 -0.008938 -0.077209
vn -0.003089 0.999994 0.001686
v 0.084058 0.015367 0.054997
vn -0.022115 0.998998 -0.038919
v 0.048336 0.015367 -0.052649
vn -0.559659 0.805678 0.194075
v 0.045012 0.015367 -0.045646
vn 0.118224 0.990825 -0.065487
v 0.099720 0.015367 0.024926
vn 0.444651 0.893485 -0.063007
v 0.099819 0.015367 0.025299
vn 0.237507 0.970806 0.033566
v 0.097893 0.015367 0.040258
vn 0.033774 0.999199 0.021480
v 0.091996 0.015367 0.054993
vn 0.145839 0.985831 -0.082872
v 0.081494 0.015367 -0.007150
vn 0.081575 0.992948 -0.086018
v 0.056053 0.015367 -0.051920
vn 0.725358 0.591079 0.352820
v 0.091996 0.015236 0.055624
vn -0.686740 0.675453 0.268612
v 0.084058 0.015236 0.055629
vn 0.769887 -0.105455 0.629407
v 0.091997 -0.008829 0.057936
vn -0.854792 -0.090042 0.511100
v 0.084060 -0.008829 0.057940
vn -0.853630 -0.045826 0.518860
v 0.084060 -0.006012 0.058306
vn 0.775526 -0.051220 0.629234
v 0.091997 -0.006012 0.058301
vn -0.020398 0.540409 -0.841155
v 0.068634 -0.001064 -0.079448
vn -0.123294 -0.003615 -0.992364
v 0.068443 -0.006588 -0.079442
vn -0.122031 0.003142 -0.992521
v 0.068443 -0.003413 -0.079442
vn -0.009357 -0.883816 -0.467741
v 0.068634 -0.008938 -0.079448
vn 0.969864 -0.001168 -0.243645
v 0.099078 0.003351 -0.018192
vn 0.969860 0.002832 -0.243645
v 0.099078 0.006526 -0.018192
vn 0.872522 0.440176 -0.212013
v 0.108943 0.008876 0.021763
vn 0.969956 -0.106467 -0.218748
v 0.108943 0.001002 0.021763
vn -0.780278 -0.427192 0.456807
v 0.084059 -0.014865 0.056156
vn 0.889560 -0.248888 0.383064
v 0.091996 -0.014865 0.056151
vn 0.803402 -0.208959 0.557567
v 0.091996 -0.014315 0.056487
vn -0.838755 -0.182786 0.512912
v 0.084059 -0.014315 0.056492
vn 0.000630 -0.013278 0.999912
v 0.085648 -0.003175 0.058427
vn 0.000630 0.020288 0.999794
v 0.085648 0.003175 0.058427
vn 0.775740 0.007121 0.631012
v 0.091998 0.003175 0.058423
vn 0.859738 -0.004237 0.510718
v 0.091998 -0.003175 0.058423
vn -0.892361 -0.005892 0.451284
v 0.084060 -0.003175 0.058428
vn -0.887321 0.006007 0.461113
v 0.084060 0.003175 0.058428
vn 0.997165 -0.002538 -0.075201
v 0.108980 0.003351 0.021960
vn 0.998036 0.004456 -0.062482
v 0.108980 0.006526 0.021960
vn 0.999599 0.004786 -0.027918
v 0.109034 0.006526 0.023049
vn 0.999181 -0.007193 -0.039808
v 0.109034 0.003351 0.023049
vn 0.976780 -0.195963 0.086596
v 0.109015 0.001002 0.023263
vn 0.640010 0.763665 0.084867
v 0.109015 0.008876 0.023263
vn 0.895975 0.100662 0.432545
v 0.108623 0.008876 0.024713
vn 0.908403 -0.125313 0.398874
v 0.108623 0.001002 0.024713
vn 0.741844 0.005061 -0.670554
v 0.072337 -0.003413 -0.077777
vn 0.741798 -0.012273 -0.670512
v 0.072337 -0.006588 -0.077777
vn 0.507091 0.510080 -0.694750
v 0.071668 -0.001064 -0.078416
vn 0.259207 -0.911368 -0.319718
v 0.071668 -0.008938 -0.078416
vn 0.158110 0.003558 -0.987415
v 0.069891 -0.003413 -0.079295
vn 0.158105 -0.008628 -0.987385
v 0.069891 -0.006588 -0.079295
vn 0.297388 0.476050 -0.827609
v 0.070239 -0.001064 -0.079191
vn 0.143605 -0.910898 -0.386837
v 0.070239 -0.008938 -0.079191
vn 0.965336 0.004248 0.260977
v 0.108842 0.006526 0.024121
vn 0.965293 -0.010302 0.260965
v 0.108842 0.003351 0.024121
vn 0.476735 0.004557 -0.879035
v 0.071230 -0.003413 -0.078723
vn 0.476711 -0.011050 -0.878991
v 0.071230 -0.006588 -0.078723
# 179 vertices, 0 vertices normals

f 3//3 2//2 112//112
f 17//17 16//16 82//82
f 111//111 16//16 17//17
f 108//108 111//111 145//145
f 124//124 2//2 3//3
f 20//20 11//11 12//12
f 11//11 20//20 110//110
f 18//18 145//145 111//111
f 18//18 111//111 17//17
f 45//45 111//111 110//110
f 45//45 110//110 20//20
f 45//45 16//16 111//111
f 149//149 1//1 2//2
f 149//149 164//164 1//1
f 149//149 163//163 164//164
f 4//4 1//1 164//164
f 167//167 4//4 164//164
f 120//120 110//110 109//109
f 120//120 46//46 110//110
f 97//97 45//45 20//20
f 2//2 124//124 23//23
f 23//23 149//149 2//2
f 1//1 4//4 114//114
f 114//114 112//112 2//2
f 114//114 2//2 1//1
f 167//167 5//5 4//4
f 134//134 6//6 135//135
f 122//122 134//134 130//130
f 6//6 134//134 122//122
f 151//151 167//167 152//152
f 31//31 110//110 46//46
f 14//14 11//11 110//110
f 14//14 110//110 9//9
f 14//14 13//13 11//11
f 36//36 14//14 9//9
f 39//39 12//12 41//41
f 39//39 20//20 12//12
f 33//33 41//41 12//12
f 126//126 124//124 3//3
f 126//126 3//3 112//112
f 112//112 107//107 126//126
f 126//126 107//107 108//108
f 108//108 171//171 126//126
f 64//64 61//61 16//16
f 135//135 6//6 51//51
f 51//51 52//52 135//135
f 77//77 18//18 17//17
f 77//77 70//70 18//18
f 145//145 18//18 50//50
f 137//137 129//129 29//29
f 135//135 48//48 128//128
f 128//128 48//48 75//75
f 98//98 97//97 20//20
f 106//106 4//4 8//8
f 106//106 114//114 4//4
f 8//8 113//113 106//106
f 104//104 103//103 53//53
f 53//53 103//103 22//22
f 177//177 167//167 164//164
f 157//157 141//141 167//167
f 167//167 27//27 152//152
f 115//115 53//53 22//22
f 115//115 118//118 53//53
f 29//29 46//46 47//47
f 117//117 115//115 47//47
f 47//47 103//103 105//105
f 47//47 105//105 137//137
f 47//47 137//137 29//29
f 7//7 8//8 4//4
f 5//5 7//7 4//4
f 7//7 5//5 167//167
f 7//7 167//167 151//151
f 6//6 122//122 125//125
f 125//125 122//122 123//123
f 125//125 51//51 6//6
f 24//24 130//130 131//131
f 24//24 122//122 130//130
f 24//24 147//147 122//122
f 139//139 140//140 46//46
f 139//139 46//46 26//26
f 153//153 26//26 46//46
f 153//153 152//152 27//27
f 119//119 7//7 151//151
f 119//119 113//113 8//8
f 7//7 119//119 8//8
f 15//15 9//9 110//110
f 15//15 110//110 31//31
f 15//15 36//36 9//9
f 11//11 10//10 12//12
f 13//13 10//10 11//11
f 10//10 33//33 12//12
f 10//10 13//13 34//34
f 10//10 34//34 33//33
f 34//34 13//13 35//35
f 14//14 35//35 13//13
f 36//36 35//35 14//14
f 36//36 30//30 129//129
f 30//30 15//15 31//31
f 15//15 30//30 36//36
f 38//38 19//19 20//20
f 39//39 38//38 20//20
f 33//33 100//100 41//41
f 40//40 44//44 19//19
f 38//38 40//40 19//19
f 40//40 100//100 44//44
f 175//175 108//108 145//145
f 175//175 171//171 108//108
f 126//126 121//121 124//124
f 81//81 82//82 16//16
f 16//16 72//72 81//81
f 56//56 16//16 61//61
f 56//56 72//72 16//16
f 45//45 85//85 16//16
f 85//85 64//64 16//16
f 85//85 45//45 88//88
f 60//60 135//135 52//52
f 60//60 48//48 135//135
f 50//50 143//143 145//145
f 143//143 50//50 49//49
f 63//63 17//17 82//82
f 63//63 77//77 17//17
f 68//68 18//18 70//70
f 68//68 50//50 18//18
f 129//129 137//137 127//127
f 20//20 19//19 43//43
f 43//43 98//98 20//20
f 19//19 44//44 43//43
f 98//98 43//43 99//99
f 90//90 45//45 93//93
f 92//92 45//45 97//97
f 92//92 93//93 45//45
f 117//117 47//47 159//159
f 141//141 138//138 167//167
f 138//138 27//27 167//167
f 138//138 139//139 27//27
f 22//22 103//103 21//21
f 21//21 115//115 22//22
f 47//47 21//21 103//103
f 21//21 47//47 115//115
f 55//55 132//132 133//133
f 55//55 133//133 136//136
f 55//55 136//136 54//54
f 142//142 60//60 52//52
f 169//169 126//126 171//171
f 146//146 23//23 124//124
f 146//146 149//149 23//23
f 148//148 24//24 131//131
f 147//147 24//24 148//148
f 46//46 120//120 150//150
f 150//150 153//153 46//46
f 25//25 26//26 153//153
f 25//25 153//153 27//27
f 25//25 139//139 26//26
f 25//25 27//27 139//139
f 129//129 28//28 29//29
f 30//30 28//28 129//129
f 28//28 30//30 31//31
f 28//28 46//46 29//29
f 28//28 31//31 46//46
f 32//32 33//33 34//34
f 32//32 100//100 33//33
f 34//34 35//35 32//32
f 32//32 35//35 36//36
f 32//32 36//36 129//129
f 32//32 129//129 100//100
f 86//86 128//128 75//75
f 37//37 38//38 39//39
f 37//37 40//40 38//38
f 37//37 39//39 41//41
f 41//41 100//100 37//37
f 100//100 40//40 37//37
f 75//75 48//48 67//67
f 68//68 67//67 50//50
f 43//43 42//42 99//99
f 42//42 43//43 44//44
f 42//42 100//100 99//99
f 44//44 100//100 42//42
f 88//88 45//45 87//87
f 87//87 45//45 90//90
f 46//46 140//140 158//158
f 158//158 47//47 46//46
f 158//158 159//159 47//47
f 155//155 116//116 117//117
f 155//155 156//156 116//116
f 159//159 155//155 117//117
f 174//174 142//142 52//52
f 132//132 55//55 165//165
f 131//131 132//132 165//165
f 165//165 148//148 131//131
f 101//101 128//128 86//86
f 101//101 129//129 128//128
f 101//101 100//100 129//129
f 48//48 60//60 58//58
f 58//58 67//67 48//48
f 58//58 142//142 144//144
f 144//144 143//143 58//58
f 58//58 143//143 49//49
f 50//50 58//58 49//49
f 58//58 50//50 67//67
f 56//56 71//71 72//72
f 140//140 141//141 154//154
f 141//141 157//157 154//154
f 154//154 158//158 140//140
f 52//52 51//51 170//170
f 170//170 174//174 52//52
f 125//125 170//170 51//51
f 173//173 175//175 145//145
f 163//163 149//149 160//160
f 162//162 161//161 148//148
f 162//162 148//148 165//165
f 118//118 116//116 166//166
f 166//166 116//116 156//156
f 166//166 53//53 118//118
f 104//104 53//53 166//166
f 166//166 102//102 104//104
f 166//166 136//136 102//102
f 54//54 136//136 166//166
f 166//166 55//55 54//54
f 166//166 165//165 55//55
f 60//60 142//142 59//59
f 62//62 56//56 61//61
f 62//62 71//71 56//56
f 71//71 62//62 86//86
f 74//74 77//77 63//63
f 168//168 170//170 125//125
f 175//175 179//179 171//171
f 142//142 174//174 172//172
f 176//176 165//165 166//166
f 58//58 57//57 142//142
f 57//57 59//59 142//142
f 57//57 58//58 60//60
f 60//60 59//59 57//57
f 64//64 65//65 61//61
f 65//65 62//62 61//61
f 86//86 62//62 65//65
f 69//69 68//68 70//70
f 79//79 86//86 75//75
f 79//79 75//75 74//74
f 79//79 63//63 82//82
f 79//79 74//74 63//63
f 174//174 170//170 178//178
f 64//64 85//85 84//84
f 84//84 65//65 64//64
f 86//86 65//65 84//84
f 75//75 67//67 66//66
f 66//66 69//69 75//75
f 66//66 67//67 68//68
f 66//66 68//68 69//69
f 69//69 76//76 75//75
f 76//76 69//69 70//70
f 76//76 70//70 77//77
f 80//80 71//71 86//86
f 80//80 81//81 72//72
f 80//80 72//72 71//71
f 89//89 85//85 88//88
f 89//89 101//101 86//86
f 73//73 74//74 75//75
f 73//73 75//75 76//76
f 77//77 74//74 73//73
f 73//73 76//76 77//77
f 86//86 79//79 78//78
f 78//78 80//80 86//86
f 80//80 78//78 81//81
f 82//82 81//81 78//78
f 78//78 79//79 82//82
f 83//83 84//84 85//85
f 83//83 85//85 89//89
f 86//86 84//84 83//83
f 83//83 89//89 86//86
f 87//87 91//91 88//88
f 91//91 89//89 88//88
f 91//91 87//87 90//90
f 91//91 101//101 89//89
f 94//94 90//90 93//93
f 94//94 91//91 90//90
f 91//91 94//94 101//101
f 92//92 96//96 93//93
f 96//96 94//94 93//93
f 96//96 92//92 97//97
f 101//101 94//94 96//96
f 95//95 96//96 97//97
f 95//95 98//98 99//99
f 95//95 97//97 98//98
f 95//95 99//99 100//100
f 100//100 101//101 95//95
f 101//101 96//96 95//95
f 102//102 103//103 104//104
f 102//102 105//105 103//103
f 106//106 108//108 107//107
f 106//106 109//109 110//110
f 106//106 111//111 108//108
f 106//106 107//107 112//112
f 110//110 111//111 106//106
f 106//106 113//113 109//109
f 114//114 106//106 112//112
f 117//117 116//116 115//115
f 115//115 116//116 118//118
f 119//119 109//109 113//113
f 119//119 120//120 109//109
f 123//123 122//122 121//121
f 121//121 122//122 124//124
f 121//121 125//125 123//123
f 121//121 126//126 125//125
f 127//127 128//128 129//129
f 130//130 127//127 131//131
f 133//133 132//132 127//127
f 127//127 130//130 134//134
f 127//127 134//134 135//135
f 135//135 128//128 127//127
f 127//127 132//132 131//131
f 127//127 136//136 133//133
f 136//136 127//127 137//137
f 102//102 136//136 105//105
f 136//136 137//137 105//105
f 140//140 139//139 138//138
f 138//138 141//141 140//140
f 142//142 143//143 144//144
f 145//145 143//143 142//142
f 146//146 124//124 122//122
f 122//122 147//147 146//146
f 148//148 146//146 147//147
f 146//146 148//148 149//149
f 120//120 119//119 150//150
f 150//150 119//119 151//151
f 150//150 151//151 152//152
f 152//152 153//153 150//150
f 155//155 154//154 156//156
f 154//154 157//157 156//156
f 158//158 154//154 159//159
f 154//154 155//155 159//159
f 148//148 160//160 149//149
f 161//161 160//160 148//148
f 162//162 160//160 161//161
f 163//163 160//160 162//162
f 162//162 164//164 163//163
f 162//162 165//165 164//164
f 156//156 157//157 166//166
f 166//166 157//157 167//167
f 168//168 125//125 126//126
f 168//168 126//126 169//169
f 171//171 170//170 168//168
f 168//168 169//169 171//171
f 145//145 142//142 172//172
f 172//172 173//173 145//145
f 172//172 174//174 175//175
f 172//172 175//175 173//173
f 164//164 165//165 176//176
f 176//176 177//177 164//164
f 176//176 166//166 167//167
f 167//167 177//177 176//176
f 178//178 175//175 174//174
f 178//178 179//179 175//175
f 178//178 170//170 171//171
f 179//179 178//178 171//171
# 354 faces, 0 coords texture

# End of File