####
#
# OBJ File Generated by Meshlab
#
####
# Object l_elbow_rx_chull.obj
#
# Vertices: 12
# Faces: 20
#
####
vn -0.408940 -0.576459 0.707434
v -0.066668 -0.022831 0.032992
vn -0.249808 0.655667 0.712528
v -0.028932 0.188080 0.026111
vn -0.591188 0.414200 -0.692051
v -0.035709 0.190554 -0.031146
vn 0.666055 0.705109 -0.243295
v 0.053860 0.187539 -0.017883
vn 0.056603 0.132579 0.989555
v 0.000406 0.118261 0.048040
vn 0.877997 0.167486 0.448409
v 0.066044 0.103697 0.027683
vn 0.746050 0.065065 -0.662704
v 0.066450 0.089125 -0.029979
vn -0.625330 -0.233242 -0.744689
v -0.074052 0.021409 -0.027208
vn 0.024363 0.002252 -0.999701
v -0.000857 0.081040 -0.049857
vn -0.876281 0.186340 0.444308
v -0.066961 0.090426 0.029122
vn 0.385370 -0.587689 -0.711415
v 0.066607 -0.031277 -0.025015
vn 0.319899 -0.297791 0.899436
v 0.068028 -0.023150 0.040715
# 12 vertices, 0 vertices normals

f 6//6 4//4 5//5
f 12//12 6//6 5//5
f 10//10 2//2 3//3
f 10//10 1//1 5//5
f 5//5 2//2 10//10
f 7//7 11//11 9//9
f 1//1 11//11 12//12
f 8//8 11//11 1//1
f 9//9 4//4 7//7
f 4//4 9//9 3//3
f 7//7 4//4 6//6
f 8//8 3//3 9//9
f 8//8 10//10 3//3
f 12//12 5//5 1//1
f 1//1 10//10 8//8
f 11//11 8//8 9//9
f 5//5 4//4 2//2
f 3//3 2//2 4//4
f 11//11 7//7 6//6
f 11//11 6//6 12//12
# 20 faces, 0 coords texture

# End of File