####
#
# OBJ File Generated by Meshlab
#
####
# Object l_farm_chull.obj
#
# Vertices: 12
# Faces: 20
#
####
vn 0.610110 0.222556 -0.760418
v 0.061631 0.134717 -0.029609
vn 0.573205 -0.237888 -0.784121
v 0.063772 0.024045 -0.023247
vn -0.883601 -0.089826 -0.459543
v -0.068529 0.025541 -0.022917
vn -0.770556 -0.393174 0.501656
v -0.068439 0.024599 0.014361
vn -0.058130 -0.486472 -0.871760
v -0.005524 -0.007327 -0.026175
vn 0.632801 -0.403522 0.660857
v 0.061759 0.023562 0.015147
vn 0.536823 0.081042 0.839794
v 0.063148 0.134236 0.044633
vn -0.144389 -0.098560 0.984600
v -0.045938 0.123224 0.054800
vn 0.073754 -0.491984 0.867474
v -0.000867 -0.006824 0.019799
vn -0.709481 0.663140 0.238500
v -0.052026 0.165194 0.029516
vn 0.182593 0.971700 -0.149863
v 0.049873 0.162480 0.006118
vn -0.181642 0.246776 -0.951897
v -0.050031 0.141841 -0.043949
# 12 vertices, 0 vertices normals

f 9//9 7//7 8//8
f 7//7 9//9 6//6
f 1//1 11//11 7//7
f 5//5 3//3 12//12
f 11//11 1//1 12//12
f 7//7 10//10 8//8
f 11//11 10//10 7//7
f 9//9 8//8 4//4
f 4//4 5//5 9//9
f 9//9 5//5 2//2
f 2//2 6//6 9//9
f 12//12 2//2 5//5
f 1//1 2//2 12//12
f 4//4 8//8 10//10
f 12//12 3//3 10//10
f 3//3 4//4 10//10
f 5//5 4//4 3//3
f 6//6 2//2 7//7
f 2//2 1//1 7//7
f 11//11 12//12 10//10
# 20 faces, 0 coords texture

# End of File