####
#
# OBJ File Generated by Meshlab
#
####
# Object l_foot.obj
#
# Vertices: 156
# Faces: 248
#
####
vn 0.019147 0.471394 -0.881715
v 0.116827 0.064725 -0.080970
vn 0.063434 0.997959 0.007410
v 0.116827 0.064725 -0.055496
vn -0.110155 0.993860 0.010423
v -0.057747 0.064725 -0.055496
vn -0.051745 0.469237 -0.881555
v -0.059466 0.064725 -0.080970
vn 0.156215 0.350370 -0.923492
v 0.141694 0.055324 -0.080970
vn 0.207496 0.335225 -0.919005
v 0.160597 0.045923 -0.080970
vn 0.499675 0.863540 0.068002
v 0.160597 0.045923 -0.067930
vn 0.404847 0.911254 0.075601
v 0.141694 0.055324 -0.063179
vn -0.136921 0.095142 0.986002
v -0.079481 0.042587 -0.033965
vn -0.919809 0.377166 0.108150
v -0.083928 0.042587 -0.055496
vn -0.035815 0.317593 0.947550
v -0.055018 0.064725 -0.033965
vn -0.995555 0.000000 0.094186
v -0.083928 -0.014627 -0.055496
vn -0.107642 0.000000 -0.994190
v -0.083928 -0.014627 -0.080970
vn -0.090363 0.000000 -0.995909
v -0.083928 0.013980 -0.080970
vn -0.995555 0.000000 0.094186
v -0.083928 0.013980 -0.055496
vn -0.104387 -0.994444 0.013548
v -0.057444 -0.065372 -0.055496
vn 0.045878 -0.998933 0.005359
v 0.116827 -0.065372 -0.055496
vn 0.030625 -0.753419 -0.656827
v 0.116827 -0.065372 -0.080970
vn -0.081265 -0.417080 -0.905229
v -0.059466 -0.065372 -0.080970
vn 0.483369 -0.359327 0.798272
v 0.155240 -0.046570 -0.054890
vn 0.499675 -0.863540 0.068002
v 0.160597 -0.046570 -0.067930
vn 0.404847 -0.911254 0.075601
v 0.141694 -0.055971 -0.063179
vn 0.598032 -0.444276 0.667066
v 0.134113 -0.055971 -0.045287
vn -0.889683 -0.451869 0.065415
v -0.083928 -0.043234 -0.055496
vn -0.814233 -0.408737 0.412261
v -0.079481 -0.043234 -0.033965
vn -0.038454 -0.643707 0.764305
v -0.055018 -0.065372 -0.033965
vn 0.000000 0.000000 -1.000000
v 0.141694 -0.018873 -0.080970
vn 0.000000 0.000000 -1.000000
v 0.160597 -0.015739 -0.080970
vn 0.000000 0.000000 -1.000000
v 0.160597 0.015092 -0.080970
vn 0.000000 0.000000 -1.000000
v 0.141694 0.018225 -0.080970
vn 1.000000 0.000000 0.000000
v 0.179399 -0.011393 -0.070962
vn 0.621821 0.000000 0.783159
v 0.179399 -0.011393 -0.060955
vn 0.746030 0.000000 0.665913
v 0.179399 0.010745 -0.060955
vn 1.000000 0.000000 0.000000
v 0.179399 0.010745 -0.070962
vn 0.382099 -0.022008 0.923859
v 0.160597 -0.015739 -0.054890
vn 0.539692 -0.048459 0.840467
v 0.141694 -0.018873 -0.045287
vn 0.510765 0.050030 0.858263
v 0.141694 0.018225 -0.045287
vn 0.356291 0.024209 0.934061
v 0.160597 0.015092 -0.054890
vn 0.327587 0.175089 -0.928456
v 0.179399 0.032984 -0.080970
vn 0.869755 0.493484 0.000000
v 0.179399 0.032984 -0.070962
vn 0.598031 0.444268 0.667072
v 0.134113 0.055324 -0.045287
vn 0.060970 0.699030 0.712488
v 0.116827 0.064725 -0.033965
vn 0.553714 -0.330666 0.764238
v 0.179399 -0.033631 -0.060955
vn 0.869745 -0.493502 0.000000
v 0.179399 -0.033631 -0.070962
vn 0.156218 -0.350377 -0.923489
v 0.141694 -0.055971 -0.080970
vn 0.000000 0.000000 -1.000000
v 0.116827 -0.022007 -0.080970
vn 0.000000 0.000000 -1.000000
v 0.116827 0.021359 -0.080970
vn 0.426453 0.000000 -0.904510
v 0.179399 0.010745 -0.080970
vn 0.623658 0.000000 -0.781697
v 0.179399 -0.011393 -0.080970
vn 0.061129 0.006873 0.998106
v 0.127340 0.021359 -0.033965
vn 0.054440 -0.007955 0.998485
v 0.127340 -0.022007 -0.033965
vn -0.086898 0.000000 0.996217
v -0.079481 0.013980 -0.033965
vn -0.074408 0.000000 0.997228
v -0.079481 -0.014627 -0.033965
vn 0.483368 0.359324 0.798275
v 0.155240 0.045923 -0.054890
vn -0.872205 0.435226 -0.223243
v -0.083928 0.042587 -0.080970
vn 0.036685 -0.221745 0.974414
v 0.116827 -0.065372 -0.033965
vn 0.207498 -0.335228 -0.919003
v 0.160597 -0.046570 -0.080970
vn -0.119667 -0.057686 -0.991137
v -0.083928 -0.043234 -0.080970
vn 0.643454 0.303968 0.702545
v 0.179399 0.032984 -0.060955
vn 0.492507 -0.161284 -0.855233
v 0.179399 -0.033631 -0.080970
vn 0.169027 0.014711 0.985502
v -0.014887 0.050067 -0.027496
vn 0.982873 -0.022880 0.182856
v -0.014887 -0.051726 -0.027496
vn 0.027512 -0.114637 0.993026
v -0.019739 -0.056578 -0.027496
vn -0.169040 -0.014712 0.985499
v -0.055321 -0.051726 -0.027496
vn -0.071869 -0.982227 0.173395
v -0.050469 -0.056578 -0.027496
vn -0.982873 0.022878 0.182856
v -0.055321 0.050067 -0.027496
vn -0.027510 0.114628 0.993028
v -0.050469 0.054919 -0.027496
vn 0.071869 0.982224 0.173408
v -0.019739 0.054919 -0.027496
vn 0.999729 0.023271 0.000000
v -0.014887 0.050067 -0.040232
vn 0.996234 -0.086706 0.000000
v -0.014887 -0.051726 -0.040233
vn 0.072974 -0.997334 0.000000
v -0.019739 -0.056578 -0.040233
vn -0.233369 -0.972388 0.000000
v -0.050469 -0.056578 -0.040233
vn -0.999729 -0.023272 0.000000
v -0.055321 -0.051726 -0.040233
vn -0.996234 0.086706 0.000000
v -0.055321 0.050067 -0.040232
vn -0.072974 0.997334 0.000000
v -0.050469 0.054919 -0.040232
vn 0.233369 0.972388 0.000000
v -0.019739 0.054919 -0.040232
vn 0.102310 0.022067 0.994508
v 0.106719 0.050573 -0.031842
vn 0.974242 -0.062308 0.216726
v 0.106719 0.026312 -0.031842
vn 0.042820 -0.220055 0.974547
v 0.103383 0.022673 -0.031842
vn -0.103837 -0.021966 0.994352
v 0.069317 0.026312 -0.031842
vn -0.054436 -0.969287 0.239831
v 0.072653 0.022673 -0.031842
vn -0.973952 0.062654 0.217927
v 0.069317 0.050573 -0.031842
vn -0.039938 0.223886 0.973797
v 0.072653 0.053909 -0.031842
vn 0.050146 0.974000 0.220930
v 0.103383 0.053909 -0.031842
vn 0.997937 0.064197 0.000000
v 0.106719 0.050573 -0.038817
vn 0.978348 -0.206967 0.000000
v 0.106719 0.026312 -0.038817
vn 0.056073 -0.998427 0.000000
v 0.103383 0.022673 -0.038817
vn -0.191006 -0.981589 0.000000
v 0.072653 0.022673 -0.038817
vn -0.997961 -0.063825 0.000000
v 0.069317 0.026312 -0.038817
vn -0.977520 0.210843 0.000000
v 0.069317 0.050573 -0.038817
vn -0.051417 0.998677 0.000000
v 0.072653 0.053909 -0.038817
vn 0.175614 0.984459 0.000000
v 0.103383 0.053909 -0.038817
vn 0.104159 0.021895 0.994320
v 0.106719 -0.029285 -0.031842
vn 0.973952 -0.062656 0.217927
v 0.106719 -0.053545 -0.031842
vn 0.039939 -0.223893 0.973795
v 0.103383 -0.056881 -0.031842
vn -0.102128 -0.022029 0.994527
v 0.069317 -0.053545 -0.031842
vn -0.050146 -0.974000 0.220930
v 0.072653 -0.056881 -0.031842
vn -0.974338 0.062196 0.216328
v 0.069317 -0.029285 -0.031842
vn -0.043760 0.218812 0.974785
v 0.072653 -0.025545 -0.031842
vn 0.055852 0.967642 0.246069
v 0.103383 -0.025545 -0.031842
vn 0.997969 0.063705 0.000000
v 0.106719 -0.029285 -0.038817
vn 0.977519 -0.210850 0.000000
v 0.106719 -0.053545 -0.038817
vn 0.051417 -0.998677 0.000000
v 0.103383 -0.056881 -0.038817
vn -0.175614 -0.984459 0.000000
v 0.072653 -0.056881 -0.038817
vn -0.997937 -0.064199 0.000000
v 0.069317 -0.053545 -0.038817
vn -0.978613 0.205712 0.000000
v 0.069317 -0.029285 -0.038817
vn -0.057624 0.998338 0.000000
v 0.072653 -0.025545 -0.038817
vn 0.196106 0.980583 0.000000
v 0.103383 -0.025545 -0.038817
vn 0.106031 0.015309 0.994245
v 0.116018 0.015698 -0.028507
vn 0.974962 -0.042888 0.218197
v 0.116018 -0.019783 -0.028507
vn 0.041089 -0.155366 0.987002
v 0.112683 -0.024635 -0.028507
vn -0.104251 -0.015394 0.994432
v 0.079324 -0.019783 -0.028507
vn -0.072514 -0.947254 0.312172
v 0.082660 -0.024635 -0.028507
vn -0.975266 0.042630 0.216883
v 0.079324 0.015698 -0.028507
vn -0.044466 0.152265 0.987339
v 0.082660 0.021056 -0.028507
vn 0.079190 0.936754 0.340911
v 0.112683 0.021056 -0.028507
vn 0.999047 0.043656 0.000000
v 0.116018 0.015698 -0.035481
vn 0.989280 -0.146033 0.000000
v 0.116018 -0.019783 -0.035481
vn 0.076330 -0.997083 0.000000
v 0.112683 -0.024635 -0.035481
vn -0.255661 -0.966766 0.000000
v 0.082660 -0.024635 -0.035481
vn -0.999033 -0.043960 0.000000
v 0.079324 -0.019783 -0.035481
vn -0.989731 0.142942 0.000000
v 0.079324 0.015698 -0.035481
vn -0.084235 0.996446 0.000000
v 0.082660 0.021056 -0.035481
vn 0.280335 0.959902 0.000000
v 0.112683 0.021056 -0.035481
vn 0.051638 0.011472 0.998600
v 0.065071 0.050573 -0.031842
vn 0.972738 -0.064077 0.222878
v 0.065071 0.026312 -0.031842
vn 0.021841 -0.218406 0.975613
v 0.061635 0.022673 -0.031842
vn -0.052427 -0.011091 0.998563
v -0.007609 0.026312 -0.031842
vn -0.026085 -0.968796 0.246482
v -0.004273 0.022673 -0.031842
vn -0.973952 0.062654 0.217928
v -0.007609 0.050573 -0.031842
vn -0.020385 0.221751 0.974890
v -0.004273 0.053909 -0.031842
vn 0.024014 0.973618 0.226916
v 0.061635 0.053909 -0.031842
vn 0.997812 0.066113 0.000000
v 0.065071 0.050573 -0.038817
vn 0.977075 -0.212894 0.000000
v 0.065071 0.026312 -0.038817
vn 0.026896 -0.999638 0.000000
v 0.061635 0.022673 -0.038817
vn -0.099775 -0.995010 0.000000
v -0.004273 0.022673 -0.038817
vn -0.997961 -0.063825 0.000000
v -0.007609 0.026312 -0.038817
vn -0.977520 0.210843 0.000000
v -0.007609 0.050573 -0.038817
vn -0.024676 0.999695 0.000000
v -0.004273 0.053909 -0.038817
vn 0.091291 0.995824 0.000000
v 0.061635 0.053909 -0.038817
vn 0.052556 0.011379 0.998553
v 0.065071 -0.029285 -0.031842
vn 0.972432 -0.064434 0.224109
v 0.065071 -0.053545 -0.031842
vn 0.020383 -0.222339 0.974756
v 0.061635 -0.056881 -0.031842
vn -0.051577 -0.011125 0.998607
v -0.007609 -0.053545 -0.031842
vn -0.024031 -0.973581 0.227075
v -0.004273 -0.056881 -0.031842
vn -0.974338 0.062197 0.216328
v -0.007609 -0.029285 -0.031842
vn -0.022319 0.216566 0.976013
v -0.004273 -0.025545 -0.031842
vn 0.026744 0.967172 0.252712
v 0.061635 -0.025545 -0.031842
vn 0.997846 0.065607 0.000000
v 0.065071 -0.029285 -0.038817
vn 0.976199 -0.216877 0.000000
v 0.065071 -0.053545 -0.038817
vn 0.024658 -0.999696 0.000000
v 0.061635 -0.056881 -0.038817
vn -0.091540 -0.995801 0.000000
v -0.004273 -0.056881 -0.038817
vn -0.997937 -0.064199 0.000000
v -0.007609 -0.053545 -0.038817
vn -0.978613 0.205712 0.000000
v -0.007609 -0.029285 -0.038817
vn -0.027662 0.999617 0.000000
v -0.004273 -0.025545 -0.038817
vn 0.102237 0.994760 0.000000
v 0.061635 -0.025545 -0.038817
# 156 vertices, 0 vertices normals

f 3//3 2//2 1//1
f 1//1 4//4 3//3
f 7//7 6//6 5//5
f 5//5 8//8 7//7
f 3//3 10//10 9//9
f 9//9 11//11 3//3
f 14//14 13//13 12//12
f 12//12 15//15 14//14
f 18//18 17//17 16//16
f 16//16 19//19 18//18
f 22//22 21//21 20//20
f 20//20 23//23 22//22
f 25//25 24//24 16//16
f 16//16 26//26 25//25
f 29//29 28//28 27//27
f 27//27 30//30 29//29
f 33//33 32//32 31//31
f 31//31 34//34 33//33
f 37//37 36//36 35//35
f 35//35 38//38 37//37
f 40//40 39//39 6//6
f 6//6 7//7 40//40
f 2//2 42//42 41//41
f 41//41 8//8 2//2
f 21//21 44//44 43//43
f 43//43 20//20 21//21
f 22//22 17//17 18//18
f 18//18 45//45 22//22
f 30//30 27//27 46//46
f 46//46 47//47 30//30
f 28//28 29//29 48//48
f 48//48 49//49 28//28
f 38//38 35//35 32//32
f 32//32 33//33 38//38
f 36//36 37//37 50//50
f 50//50 51//51 36//36
f 47//47 46//46 13//13
f 13//13 14//14 47//47
f 51//51 50//50 52//52
f 52//52 53//53 51//51
f 3//3 11//11 42//42
f 42//42 2//2 3//3
f 8//8 41//41 54//54
f 54//54 7//7 8//8
f 3//3 4//4 55//55
f 55//55 10//10 3//3
f 15//15 12//12 53//53
f 53//53 52//52 15//15
f 17//17 56//56 26//26
f 26//26 16//16 17//17
f 45//45 57//57 21//21
f 21//21 22//22 45//45
f 24//24 58//58 19//19
f 19//19 16//16 24//24
f 34//34 31//31 49//49
f 49//49 48//48 34//34
f 7//7 54//54 59//59
f 59//59 40//40 7//7
f 8//8 5//5 1//1
f 1//1 2//2 8//8
f 57//57 60//60 44//44
f 44//44 21//21 57//57
f 23//23 56//56 17//17
f 17//17 22//22 23//23
f 63//63 62//62 61//61
f 61//61 64//64 63//63
f 63//63 64//64 65//65
f 67//67 66//66 64//64
f 64//64 61//61 67//67
f 68//68 67//67 61//61
f 62//62 70//70 69//69
f 69//69 61//61 62//62
f 65//65 72//72 71//71
f 71//71 63//63 65//65
f 66//66 74//74 73//73
f 73//73 64//64 66//66
f 68//68 76//76 75//75
f 75//75 67//67 68//68
f 79//79 78//78 77//77
f 77//77 80//80 79//79
f 79//79 80//80 81//81
f 83//83 82//82 80//80
f 80//80 77//77 83//83
f 84//84 83//83 77//77
f 78//78 86//86 85//85
f 85//85 77//77 78//78
f 81//81 88//88 87//87
f 87//87 79//79 81//81
f 82//82 90//90 89//89
f 89//89 80//80 82//82
f 84//84 92//92 91//91
f 91//91 83//83 84//84
f 79//79 87//87 86//86
f 86//86 78//78 79//79
f 92//92 84//84 77//77
f 77//77 85//85 92//92
f 80//80 89//89 88//88
f 88//88 81//81 80//80
f 83//83 91//91 90//90
f 90//90 82//82 83//83
f 95//95 94//94 93//93
f 93//93 96//96 95//95
f 95//95 96//96 97//97
f 99//99 98//98 96//96
f 96//96 93//93 99//99
f 100//100 99//99 93//93
f 94//94 102//102 101//101
f 101//101 93//93 94//94
f 97//97 104//104 103//103
f 103//103 95//95 97//97
f 98//98 106//106 105//105
f 105//105 96//96 98//98
f 100//100 108//108 107//107
f 107//107 99//99 100//100
f 95//95 103//103 102//102
f 102//102 94//94 95//95
f 108//108 100//100 93//93
f 93//93 101//101 108//108
f 96//96 105//105 104//104
f 104//104 97//97 96//96
f 99//99 107//107 106//106
f 106//106 98//98 99//99
f 111//111 110//110 109//109
f 109//109 112//112 111//111
f 111//111 112//112 113//113
f 115//115 114//114 112//112
f 112//112 109//109 115//115
f 116//116 115//115 109//109
f 110//110 118//118 117//117
f 117//117 109//109 110//110
f 113//113 120//120 119//119
f 119//119 111//111 113//113
f 114//114 122//122 121//121
f 121//121 112//112 114//114
f 116//116 124//124 123//123
f 123//123 115//115 116//116
f 111//111 119//119 118//118
f 118//118 110//110 111//111
f 124//124 116//116 109//109
f 109//109 117//117 124//124
f 112//112 121//121 120//120
f 120//120 113//113 112//112
f 115//115 123//123 122//122
f 122//122 114//114 115//115
f 63//63 71//71 70//70
f 70//70 62//62 63//63
f 76//76 68//68 61//61
f 61//61 69//69 76//76
f 64//64 73//73 72//72
f 72//72 65//65 64//64
f 67//67 75//75 74//74
f 74//74 66//66 67//67
f 13//13 58//58 24//24
f 24//24 12//12 13//13
f 15//15 10//10 55//55
f 55//55 14//14 15//15
f 57//57 45//45 27//27
f 27//27 28//28 57//57
f 30//30 5//5 6//6
f 6//6 29//29 30//30
f 32//32 43//43 44//44
f 44//44 31//31 32//32
f 34//34 40//40 59//59
f 59//59 33//33 34//34
f 36//36 23//23 20//20
f 20//20 35//35 36//36
f 54//54 41//41 37//37
f 37//37 38//38 54//54
f 45//45 18//18 46//46
f 46//46 27//27 45//45
f 47//47 1//1 5//5
f 5//5 30//30 47//47
f 29//29 6//6 39//39
f 39//39 48//48 29//29
f 60//60 57//57 28//28
f 28//28 49//49 60//60
f 35//35 20//20 43//43
f 43//43 32//32 35//35
f 59//59 54//54 38//38
f 38//38 33//33 59//59
f 41//41 42//42 50//50
f 50//50 37//37 41//41
f 51//51 56//56 23//23
f 23//23 36//36 51//51
f 46//46 18//18 19//19
f 19//19 58//58 46//46
f 13//13 46//46 58//58
f 14//14 55//55 4//4
f 4//4 1//1 14//14
f 47//47 14//14 1//1
f 50//50 42//42 11//11
f 11//11 9//9 50//50
f 52//52 50//50 9//9
f 53//53 25//25 26//26
f 26//26 56//56 53//53
f 51//51 53//53 56//56
f 12//12 24//24 25//25
f 25//25 53//53 12//12
f 52//52 9//9 10//10
f 10//10 15//15 52//52
f 31//31 44//44 60//60
f 60//60 49//49 31//31
f 48//48 39//39 40//40
f 40//40 34//34 48//48
f 127//127 126//126 125//125
f 125//125 128//128 127//127
f 127//127 128//128 129//129
f 131//131 130//130 128//128
f 128//128 125//125 131//131
f 132//132 131//131 125//125
f 126//126 134//134 133//133
f 133//133 125//125 126//126
f 129//129 136//136 135//135
f 135//135 127//127 129//129
f 130//130 138//138 137//137
f 137//137 128//128 130//130
f 132//132 140//140 139//139
f 139//139 131//131 132//132
f 127//127 135//135 134//134
f 134//134 126//126 127//127
f 140//140 132//132 125//125
f 125//125 133//133 140//140
f 128//128 137//137 136//136
f 136//136 129//129 128//128
f 131//131 139//139 138//138
f 138//138 130//130 131//131
f 143//143 142//142 141//141
f 141//141 144//144 143//143
f 143//143 144//144 145//145
f 147//147 146//146 144//144
f 144//144 141//141 147//147
f 148//148 147//147 141//141
f 142//142 150//150 149//149
f 149//149 141//141 142//142
f 145//145 152//152 151//151
f 151//151 143//143 145//145
f 146//146 154//154 153//153
f 153//153 144//144 146//146
f 148//148 156//156 155//155
f 155//155 147//147 148//148
f 143//143 151//151 150//150
f 150//150 142//142 143//143
f 156//156 148//148 141//141
f 141//141 149//149 156//156
f 144//144 153//153 152//152
f 152//152 145//145 144//144
f 147//147 155//155 154//154
f 154//154 146//146 147//147
# 248 faces, 0 coords texture

# End of File