####
#
# OBJ File Generated by Meshlab
#
####
# Object l_lglut.obj
#
# Vertices: 82
# Faces: 164
#
####
vn 0.264932 -0.262776 -0.927772
v -0.033767 -0.002022 -0.017732
vn 0.059329 -0.953493 -0.295518
v -0.033767 -0.019307 -0.005602
vn -0.061102 -0.902348 -0.426655
v 0.048213 -0.019509 -0.005602
vn -0.230379 0.103883 -0.967540
v 0.048112 -0.001921 -0.017631
vn 0.336651 0.649782 -0.681505
v -0.033767 0.017083 -0.008735
vn -0.249274 0.903759 -0.347968
v 0.048314 0.016679 -0.009847
vn 0.073424 0.938231 0.338129
v -0.033767 0.018903 0.012189
vn -0.043954 0.771486 0.634727
v 0.048213 0.018903 0.012189
vn -0.000007 0.211235 0.977435
v -0.033767 0.001617 0.024319
vn -0.000007 -0.073632 0.997285
v 0.048213 0.001617 0.024320
vn -0.000003 -0.742075 0.670317
v -0.033767 -0.017488 0.015424
vn -0.000742 -0.876785 0.480881
v 0.048213 -0.017488 0.015424
vn 0.943343 -0.033673 0.330106
v 0.081975 0.001617 0.024320
vn 0.470125 0.720572 0.509665
v 0.081975 0.018903 0.012189
vn 0.948920 0.292711 -0.117776
v 0.081975 0.017083 -0.008735
vn 0.946938 -0.267053 -0.178863
v 0.081975 -0.019307 -0.005602
vn 0.520608 0.077588 -0.850263
v 0.081975 -0.002022 -0.017732
vn 0.490971 -0.796818 0.352178
v 0.081975 -0.017488 0.015424
vn -0.961172 -0.075477 -0.265427
v -0.061161 -0.002022 -0.017732
vn -0.569707 0.572892 -0.589261
v -0.061161 0.017083 -0.008735
vn -0.961338 0.266971 0.067492
v -0.061161 0.018903 0.012189
vn -0.961311 -0.191764 0.197757
v -0.061161 -0.017488 0.015424
vn -0.571815 0.225766 0.788706
v -0.061161 0.001617 0.024319
vn -0.571526 -0.795731 -0.200423
v -0.061161 -0.019307 -0.005602
vn 0.000000 0.141421 0.989949
v -0.051255 0.001617 0.024319
vn -0.407334 0.776960 0.480012
v -0.051255 0.018903 0.012189
vn 0.000000 -0.787794 0.615939
v -0.051255 -0.017488 0.015424
vn -0.000000 0.142328 0.989820
v 0.069845 0.001617 0.024320
vn 0.006496 -0.849520 0.527517
v 0.069845 -0.017488 0.015424
vn 0.014195 -0.868343 -0.495761
v -0.051255 -0.019307 -0.005602
vn 0.537659 -0.824665 -0.175641
v 0.069845 -0.018903 -0.005197
vn -0.944526 0.034513 -0.326619
v -0.051255 -0.002022 -0.017732
vn -0.960547 0.253874 -0.113568
v -0.051255 0.017083 -0.008735
vn 0.820561 -0.166054 -0.546906
v 0.070654 -0.003336 -0.017530
vn 0.927170 -0.102685 -0.360295
v 0.071058 0.017387 -0.008938
vn 0.271356 0.676252 0.684871
v 0.069542 0.018094 0.012493
vn -0.303078 0.937900 0.168780
v -0.051255 0.041344 -0.044419
vn 0.109041 0.987858 0.110668
v -0.032857 0.041344 -0.042902
vn 0.360638 0.006283 0.932685
v -0.032857 0.023047 -0.042902
vn 0.140527 -0.979692 -0.143025
v -0.032857 0.017286 -0.042902
vn 0.696904 -0.004325 0.717152
v -0.032857 0.035077 -0.042902
vn -0.152283 -0.933239 -0.325383
v -0.051255 0.017286 -0.055639
vn -0.970091 0.081458 -0.228665
v -0.051255 0.023047 -0.052809
vn -0.954112 0.080736 -0.288362
v -0.051255 0.035077 -0.047249
vn -0.148739 0.890504 -0.429975
v -0.027197 0.041344 -0.081921
vn 0.035549 0.965416 -0.258278
v -0.009709 0.041344 -0.081921
vn 0.009738 -0.988459 -0.151178
v -0.009709 0.017286 -0.082022
vn -0.506349 -0.621777 -0.597498
v -0.027197 0.017286 -0.082022
vn -0.669855 0.098705 -0.735902
v -0.027197 0.023047 -0.082022
vn -0.689315 0.057304 -0.722192
v -0.027197 0.035077 -0.081921
vn 0.128695 0.004486 -0.991674
v -0.009709 0.023047 -0.082022
vn 0.133404 0.006443 -0.991041
v -0.009709 0.035077 -0.081921
vn -0.229053 -0.001003 0.973413
v 0.021021 0.023047 -0.042397
vn -0.366030 -0.921580 0.129274
v 0.021021 0.017286 -0.042397
vn -0.169894 0.000000 0.985462
v 0.021021 0.035077 -0.042397
vn -0.569102 0.820549 0.053124
v 0.021021 0.041344 -0.042397
vn 0.150194 0.941944 -0.300305
v 0.054986 0.041344 -0.071813
vn 0.463338 0.003509 -0.886174
v 0.054986 0.035077 -0.071813
vn 0.378391 0.006493 -0.925623
v 0.054986 0.023047 -0.071914
vn -0.168832 -0.588701 -0.790523
v 0.054986 0.017286 -0.071914
vn -0.862148 -0.105260 0.495601
v 0.039621 0.023047 -0.028447
vn -0.753024 -0.039555 0.656803
v 0.039621 0.017286 -0.028447
vn -0.862275 0.010135 0.506340
v 0.039621 0.035077 -0.028346
vn -0.844929 -0.023440 0.534365
v 0.039621 0.041344 -0.028346
vn -0.377182 0.925896 0.021214
v 0.021021 0.055294 -0.042397
vn -0.264852 0.716347 -0.645524
v 0.054986 0.055294 -0.071813
vn 0.459847 0.880774 -0.113044
v 0.067621 0.055294 -0.046036
vn -0.104521 0.954926 0.277834
v 0.039621 0.055294 -0.028346
vn 0.911739 -0.214176 -0.350516
v 0.067621 0.035077 -0.046036
vn 0.915469 -0.016193 -0.402063
v 0.067621 0.041344 -0.046036
vn 0.974248 0.007702 -0.225348
v 0.067621 0.023047 -0.046036
vn 0.955730 -0.017670 -0.293715
v 0.067621 0.017286 -0.046137
vn 0.230308 -0.750813 -0.619063
v 0.054986 -0.010109 -0.071914
vn -0.762816 -0.390232 -0.515588
v 0.021021 -0.010109 -0.042397
vn -0.464159 -0.814220 0.348715
v 0.039621 -0.010109 -0.028447
vn 0.522200 -0.810168 -0.266336
v 0.067621 -0.010109 -0.046137
vn 0.950711 0.173590 0.256934
v 0.082885 0.037503 -0.009241
vn -0.368682 0.131339 0.920230
v 0.049426 0.037503 0.008449
vn -0.169899 0.798691 0.577258
v 0.047505 0.046196 0.005720
vn 0.264006 0.927230 0.265606
v 0.080965 0.046196 -0.011970
vn -0.621965 0.271313 0.734540
v 0.049123 0.030123 0.009258
vn 0.960254 -0.102092 0.259788
v 0.082481 0.030123 -0.008432
# 82 vertices, 0 vertices normals

f 3//3 2//2 1//1
f 1//1 4//4 3//3
f 4//4 1//1 5//5
f 5//5 6//6 4//4
f 6//6 5//5 7//7
f 7//7 8//8 6//6
f 8//8 7//7 9//9
f 9//9 10//10 8//8
f 10//10 9//9 11//11
f 11//11 12//12 10//10
f 12//12 11//11 2//2
f 2//2 3//3 12//12
f 15//15 14//14 13//13
f 13//13 16//16 15//15
f 15//15 16//16 17//17
f 18//18 16//16 13//13
f 21//21 20//20 19//19
f 19//19 22//22 21//21
f 21//21 22//22 23//23
f 24//24 22//22 19//19
f 7//7 26//26 25//25
f 25//25 9//9 7//7
f 9//9 25//25 27//27
f 27//27 11//11 9//9
f 12//12 29//29 28//28
f 28//28 10//10 12//12
f 11//11 27//27 30//30
f 30//30 2//2 11//11
f 3//3 31//31 29//29
f 29//29 12//12 3//3
f 30//30 24//24 19//19
f 19//19 32//32 30//30
f 32//32 19//19 20//20
f 20//20 33//33 32//32
f 33//33 20//20 21//21
f 21//21 26//26 33//33
f 26//26 21//21 23//23
f 23//23 25//25 26//26
f 25//25 23//23 22//22
f 22//22 27//27 25//25
f 27//27 22//22 24//24
f 24//24 30//30 27//27
f 34//34 17//17 16//16
f 16//16 31//31 34//34
f 35//35 15//15 17//17
f 17//17 34//34 35//35
f 36//36 14//14 15//15
f 15//15 35//35 36//36
f 28//28 13//13 14//14
f 14//14 36//36 28//28
f 29//29 18//18 13//13
f 13//13 28//28 29//29
f 31//31 16//16 18//18
f 18//18 29//29 31//31
f 37//37 26//26 7//7
f 7//7 38//38 37//37
f 39//39 1//1 2//2
f 2//2 40//40 39//39
f 41//41 5//5 1//1
f 1//1 39//39 41//41
f 38//38 7//7 5//5
f 5//5 41//41 38//38
f 40//40 2//2 30//30
f 30//30 42//42 40//40
f 42//42 30//30 32//32
f 32//32 43//43 42//42
f 43//43 32//32 33//33
f 33//33 44//44 43//43
f 44//44 33//33 26//26
f 26//26 37//37 44//44
f 45//45 37//37 38//38
f 38//38 46//46 45//45
f 47//47 40//40 42//42
f 42//42 48//48 47//47
f 48//48 42//42 43//43
f 43//43 49//49 48//48
f 49//49 43//43 44//44
f 44//44 50//50 49//49
f 50//50 44//44 37//37
f 37//37 45//45 50//50
f 47//47 48//48 49//49
f 49//49 50//50 47//47
f 47//47 50//50 45//45
f 45//45 51//51 47//47
f 52//52 51//51 45//45
f 45//45 46//46 52//52
f 53//53 39//39 40//40
f 40//40 54//54 53//53
f 55//55 41//41 39//39
f 39//39 53//53 55//55
f 56//56 38//38 41//41
f 41//41 55//55 56//56
f 57//57 46//46 38//38
f 38//38 56//56 57//57
f 58//58 52//52 46//46
f 46//46 57//57 58//58
f 59//59 51//51 52//52
f 52//52 58//58 59//59
f 60//60 47//47 51//51
f 51//51 59//59 60//60
f 54//54 40//40 47//47
f 47//47 60//60 54//54
f 61//61 53//53 54//54
f 54//54 62//62 61//61
f 63//63 55//55 53//53
f 53//53 61//61 63//63
f 64//64 56//56 55//55
f 55//55 63//63 64//64
f 67//67 66//66 65//65
f 65//65 68//68 67//67
f 69//69 58//58 57//57
f 57//57 70//70 69//69
f 71//71 59//59 58//58
f 58//58 69//69 71//71
f 72//72 60//60 59//59
f 59//59 71//71 72//72
f 75//75 74//74 73//73
f 73//73 76//76 75//75
f 66//66 57//57 56//56
f 56//56 65//65 66//66
f 67//67 70//70 57//57
f 57//57 66//66 67//67
f 79//79 78//78 77//77
f 77//77 80//80 79//79
f 65//65 56//56 64//64
f 64//64 68//68 65//65
f 74//74 54//54 60//60
f 60//60 73//73 74//74
f 75//75 62//62 54//54
f 54//54 74//74 75//75
f 73//73 60//60 72//72
f 72//72 76//76 73//73
f 6//6 61//61 62//62
f 62//62 4//4 6//6
f 81//81 63//63 61//61
f 61//61 6//6 81//81
f 78//78 64//64 63//63
f 63//63 81//81 78//78
f 79//79 68//68 64//64
f 64//64 78//78 79//79
f 80//80 67//67 68//68
f 68//68 79//79 80//80
f 77//77 70//70 67//67
f 67//67 80//80 77//77
f 82//82 69//69 70//70
f 70//70 77//77 82//82
f 35//35 71//71 69//69
f 69//69 82//82 35//35
f 34//34 72//72 71//71
f 71//71 35//35 34//34
f 31//31 76//76 72//72
f 72//72 34//34 31//31
f 3//3 75//75 76//76
f 76//76 31//31 3//3
f 4//4 62//62 75//75
f 75//75 3//3 4//4
f 6//6 8//8 81//81
f 82//82 36//36 35//35
f 28//28 36//36 8//8
f 8//8 10//10 28//28
f 36//36 82//82 81//81
f 81//81 8//8 36//36
f 82//82 77//77 78//78
f 78//78 81//81 82//82
# 164 faces, 0 coords texture

# End of File