####
#
# OBJ File Generated by Meshlab
#
####
# Object l_sh_rx.obj
#
# Vertices: 163
# Faces: 310
#
####
vn 0.000000 0.128585 -0.991698
v -0.041525 0.129584 -0.012708
vn 0.000000 -0.107869 -0.994165
v -0.041526 0.064897 -0.012780
vn 0.040029 -0.119497 -0.992027
v 0.055921 0.064897 -0.012780
vn 0.158165 0.120207 -0.980068
v 0.055921 0.129584 -0.012708
vn 0.000000 0.060732 0.998154
v -0.041526 0.129584 0.043617
vn 0.078162 0.235750 0.968665
v 0.055921 0.129584 0.043617
vn 0.080281 -0.060536 0.994932
v 0.055921 0.064968 0.043617
vn 0.000000 -0.236474 0.971638
v -0.041526 0.064968 0.043617
vn 0.723654 -0.690163 0.000869
v 0.055921 0.064968 0.035754
vn 0.820932 0.148648 0.551339
v 0.055921 0.129584 0.035754
vn 0.957664 0.210169 -0.196743
v 0.055921 0.129584 -0.004846
vn 0.386976 -0.922088 0.001468
v 0.055921 0.064897 -0.004916
vn 0.000000 -0.999999 0.001592
v -0.041526 0.064968 0.035754
vn 0.000000 -0.999999 0.001259
v -0.041526 0.064897 -0.004916
vn -0.983426 0.181312 0.000000
v -0.053454 0.129584 0.035754
vn -0.983385 -0.181531 0.000229
v -0.053454 0.064968 0.035754
vn -0.983379 -0.181564 0.000289
v -0.053454 0.064897 -0.004916
vn -0.983419 0.181347 0.000000
v -0.053454 0.129584 -0.004846
vn -0.412629 0.765608 0.493541
v -0.041526 0.129584 0.035754
vn -0.173167 0.528221 -0.831261
v -0.041525 0.129584 -0.004846
vn -0.788262 0.145512 0.597888
v -0.053454 0.129584 0.043617
vn -0.312516 -0.057690 0.948159
v -0.053454 0.064968 0.043617
vn -0.788354 -0.144722 -0.597958
v -0.053454 0.064897 -0.012780
vn -0.312450 0.058675 -0.948120
v -0.053454 0.129584 -0.012708
vn 0.262222 0.559151 0.786504
v 0.055921 0.144166 0.035754
vn 0.362084 -0.002232 -0.932143
v 0.055921 0.144238 -0.004916
vn -0.316647 -0.000915 -0.948543
v -0.041526 0.144238 -0.004916
vn -0.334067 0.383191 0.861141
v -0.041526 0.144166 0.035754
vn 0.314538 0.770771 0.554057
v 0.055921 0.173472 0.009736
vn 0.066897 0.447066 -0.891996
v 0.055921 0.173401 -0.004916
vn -0.452584 0.399553 -0.797198
v -0.041526 0.173401 -0.004916
vn -0.044134 0.811192 0.583113
v -0.041526 0.173472 0.009736
vn 0.521524 0.850162 -0.072366
v 0.039343 0.187482 0.015597
vn 0.597883 0.137779 -0.789654
v 0.028021 0.187410 -0.011636
vn 0.769735 0.135859 -0.623739
v 0.028021 0.133801 -0.011636
vn 0.985442 0.135278 0.102978
v 0.039343 0.133801 0.015669
vn -0.099159 0.687331 -0.719544
v 0.000829 0.187482 -0.022858
vn 0.101963 0.136252 -0.985413
v 0.000829 0.133801 -0.022930
vn -0.789961 0.137973 -0.597432
v -0.026464 0.187410 -0.011636
vn -0.624108 0.136399 -0.769340
v -0.026464 0.133801 -0.011636
vn -0.520703 0.850769 0.071136
v -0.037684 0.187482 0.015597
vn -0.985467 0.136027 -0.101739
v -0.037684 0.133801 0.015669
vn -0.598448 0.137156 0.789334
v -0.026464 0.187482 0.042902
vn -0.769753 0.135215 0.623857
v -0.026464 0.133801 0.042830
vn 0.099356 0.688362 0.718531
v 0.000829 0.187482 0.054195
vn -0.102634 0.135155 0.985494
v 0.000829 0.133801 0.054124
vn 0.789467 0.137018 0.598304
v 0.028021 0.187482 0.042902
vn 0.624185 0.134966 0.769530
v 0.028021 0.133801 0.042830
vn 0.619125 0.106203 -0.778078
v 0.033581 0.127226 -0.017211
vn 0.987942 0.105991 -0.112856
v 0.047126 0.127226 0.015669
vn -0.113312 0.105867 -0.987903
v 0.000829 0.127298 -0.030720
vn -0.778210 0.105711 -0.619043
v -0.031922 0.127226 -0.017211
vn -0.987775 0.106669 0.113672
v -0.045569 0.127226 0.015669
vn -0.618184 0.106391 0.778800
v -0.031922 0.127226 0.048406
vn 0.113272 0.106913 0.987795
v 0.000829 0.127226 0.061987
vn 0.778997 0.106815 0.617863
v 0.033581 0.127226 0.048406
vn 0.789726 -0.142316 -0.596724
v 0.033581 0.064826 -0.017140
vn 0.507605 -0.858690 0.070630
v 0.047126 0.064826 0.015597
vn 0.097198 -0.699999 -0.707499
v 0.000829 0.064826 -0.030720
vn -0.596775 -0.142259 -0.789697
v -0.031922 0.064826 -0.017140
vn -0.508394 -0.858296 -0.069742
v -0.045569 0.064826 0.015597
vn -0.788448 -0.142214 0.598436
v -0.031922 0.064897 0.048406
vn -0.097534 -0.700537 0.706919
v 0.000829 0.064897 0.061987
vn 0.598157 -0.142481 0.788611
v 0.033581 0.064897 0.048406
vn 0.158771 -0.978107 0.134534
v -0.057951 -0.028740 -0.000651
vn 0.183399 -0.593476 0.783678
v -0.057951 -0.020806 0.018577
vn 0.097382 -0.793554 0.600657
v -0.004005 -0.020806 0.018577
vn 0.751063 -0.654072 -0.089966
v -0.004005 -0.028740 -0.000651
vn 0.293774 0.128933 0.947139
v -0.057951 -0.001506 0.026583
vn 0.553579 -0.115217 0.824788
v -0.004005 -0.001506 0.026583
vn 0.465665 0.705754 0.533918
v -0.057951 0.017721 0.018649
vn 0.097290 0.600488 0.793693
v -0.004005 0.017721 0.018649
vn 0.170103 0.975954 -0.136302
v -0.057951 0.025655 -0.000579
vn 0.750709 0.654594 0.089119
v -0.004005 0.025655 -0.000579
vn 0.036186 0.603127 -0.796824
v -0.057951 0.017650 -0.019878
vn 0.097216 0.793428 -0.600851
v -0.004005 0.017650 -0.019878
vn 0.118886 -0.135293 -0.983647
v -0.057951 -0.001578 -0.027812
vn 0.554630 0.113381 -0.824336
v -0.004005 -0.001578 -0.027812
vn 0.142505 -0.789337 -0.597193
v -0.057951 -0.020806 -0.019878
vn 0.097289 -0.600461 -0.793714
v -0.004005 -0.020806 -0.019878
vn 0.499683 -0.857129 -0.125087
v -0.057951 -0.036679 -0.000651
vn 0.663517 -0.684888 0.301121
v -0.057951 -0.027255 0.025946
vn 0.873221 -0.250307 0.418128
v -0.057951 -0.013993 0.045785
vn 0.842217 0.005901 0.539106
v -0.057951 0.024798 0.045207
vn 0.932715 -0.001947 0.360609
v -0.057951 0.033732 0.045416
vn 0.982982 0.086244 -0.162196
v -0.057951 0.018467 -0.027420
vn 0.432405 0.061329 -0.899592
v -0.057951 -0.001578 -0.033531
vn 0.491302 -0.489392 -0.720499
v -0.057951 -0.026366 -0.025732
vn -0.439737 -0.892835 0.097353
v -0.071197 -0.036679 -0.000651
vn -0.970145 -0.213183 0.115632
v -0.071197 -0.027255 0.025946
vn -0.534653 -0.170235 0.827748
v -0.071197 -0.013993 0.045785
vn -0.994895 0.000285 0.100920
v -0.071197 0.024798 0.045207
vn -0.990668 -0.000942 0.136291
v -0.071197 0.033732 0.045416
vn -0.978677 0.096436 -0.181362
v -0.071197 0.018467 -0.027420
vn -0.313995 -0.128190 -0.940731
v -0.071197 -0.001578 -0.033531
vn -0.989847 -0.111884 -0.087664
v -0.071197 -0.026366 -0.025732
vn 0.981390 -0.142354 0.128877
v -0.057951 0.058821 0.045345
vn 0.929733 0.151691 -0.335537
v -0.057951 0.034918 -0.014125
vn -0.980629 -0.001397 0.195870
v -0.071197 0.055033 0.045416
vn -0.973638 0.042229 -0.224157
v -0.071197 0.034918 -0.014125
vn 0.942530 -0.267179 0.200629
v -0.052231 0.066112 0.045897
vn 0.866958 -0.422337 -0.264605
v -0.052231 0.066612 -0.013954
vn -0.891247 -0.013383 0.453320
v -0.071197 0.066112 0.045897
vn -0.977547 0.001017 -0.210715
v -0.071197 0.066612 -0.013954
vn 0.944334 0.317446 0.086378
v -0.052231 0.089205 0.045825
vn 0.568416 0.772449 -0.283243
v -0.052231 0.089205 -0.013954
vn -0.466154 0.853665 0.232286
v -0.063053 0.089205 0.045825
vn -0.763372 0.642457 -0.067172
v -0.063053 0.089205 -0.013954
vn 0.930259 -0.071042 -0.359960
v 0.068227 0.026156 -0.001651
vn 0.543068 0.496349 -0.677285
v 0.068227 0.017650 -0.020402
vn 0.978019 -0.028412 -0.206571
v 0.068227 -0.001578 -0.028336
vn 0.991371 -0.128855 0.024068
v 0.068227 -0.029766 -0.001174
vn 0.547548 -0.653163 -0.523038
v 0.068227 -0.020806 -0.020402
vn 0.000035 -0.310037 0.950724
v 0.068227 0.034766 0.045772
vn 0.689483 -0.537220 0.485807
v 0.068227 -0.019291 0.021308
vn -0.988388 -0.150833 -0.018428
v 0.060548 -0.029766 -0.001174
vn -0.954644 -0.220536 0.200048
v 0.060548 -0.019291 0.021308
vn -0.550393 -0.496713 -0.671077
v 0.060548 -0.020806 -0.020402
vn -0.978019 0.028412 -0.206571
v 0.060548 -0.001578 -0.028336
vn -0.548887 0.653488 -0.521226
v 0.060548 0.017650 -0.020402
vn -0.999170 0.018376 -0.036356
v 0.060548 0.026156 -0.001651
vn -0.972446 -0.046875 0.228367
v 0.060548 0.034766 0.045772
vn 0.991581 0.000512 0.129488
v 0.074603 0.057106 0.045772
vn 0.989097 -0.011922 -0.146781
v 0.074603 0.054747 -0.001651
vn 0.000000 -0.256618 -0.966513
v 0.068227 0.054747 -0.001651
vn -0.969584 -0.103100 -0.221987
v 0.060548 0.054747 -0.001651
vn -0.993455 -0.031086 0.109913
v 0.060548 0.057106 0.045772
vn 0.000000 0.000000 1.000000
v 0.068227 0.057106 0.045772
vn 0.995679 0.000000 0.092858
v 0.074603 0.064754 0.045772
vn 0.986291 -0.113388 -0.119889
v 0.074603 0.062324 -0.007226
vn 0.000000 -0.796771 -0.604282
v 0.068227 0.062324 -0.007226
vn -0.672932 -0.724372 -0.149826
v 0.058715 0.062324 -0.007226
vn -0.893567 -0.432046 0.121957
v 0.058715 0.064754 0.045772
vn 0.000000 0.000000 1.000000
v 0.068227 0.064754 0.045772
vn 0.994267 0.000000 0.106924
v 0.074603 0.065683 0.045772
vn 0.994655 -0.067869 -0.077821
v 0.074603 0.065611 -0.013517
vn 0.000000 -0.314428 -0.949281
v 0.068227 0.065611 -0.013517
vn -0.839612 -0.491346 -0.231582
v 0.054642 0.065611 -0.013517
vn -0.916074 -0.356303 0.184001
v 0.054643 0.065683 0.045772
vn 0.000000 0.000000 1.000000
v 0.068227 0.065683 0.045772
vn 0.741533 0.666254 0.078959
v 0.066328 0.089842 0.045772
vn 0.734432 0.659854 -0.158754
v 0.066328 0.089772 -0.013517
vn 0.000000 0.932912 -0.360106
v 0.059951 0.089772 -0.013517
vn -0.950012 0.309253 -0.042885
v 0.054642 0.089772 -0.013517
vn -0.910125 0.296250 0.289670
v 0.054643 0.089842 0.045772
vn 0.000000 0.982794 0.184704
v 0.059951 0.089842 0.045772
vn 0.963000 0.248933 0.103261
v 0.074603 0.073535 0.045772
vn 0.922699 0.377352 -0.078947
v 0.074603 0.073464 -0.013517
vn 0.000000 0.000000 -1.000000
v 0.068227 0.073464 -0.013517
vn -0.964270 0.000000 -0.264921
v 0.054642 0.073464 -0.013517
vn -0.990772 0.000000 0.135537
v 0.054643 0.073535 0.045772
vn 0.000000 0.000000 1.000000
v 0.068227 0.073535 0.045772
vn 0.881038 -0.292127 0.372067
v 0.068227 -0.002609 0.028857
vn -0.950322 -0.128338 0.283579
v 0.060548 -0.002322 0.028988
vn 0.880081 0.432413 -0.196155
v 0.068227 0.026018 -0.001955
vn 0.990462 -0.064167 -0.121935
v 0.074624 0.026156 -0.001651
vn 0.981284 -0.051913 0.185435
v 0.074623 0.034766 0.045772
vn 0.953386 -0.292143 -0.075544
v 0.074643 -0.002609 0.028857
vn 0.893468 -0.158983 -0.420047
v -0.057565 0.057939 -0.014015
vn 0.880623 0.001476 0.473815
v -0.052231 0.072925 0.045876
vn 0.987928 0.000000 -0.154912
v -0.052231 0.073278 -0.013954
vn -0.931111 0.332369 0.150213
v -0.071197 0.072925 0.045876
vn -0.840028 0.302802 -0.450181
v -0.071197 0.073278 -0.013954
# 163 vertices, 0 vertices normals

f 3//3 2//2 1//1
f 1//1 4//4 3//3
f 7//7 6//6 5//5
f 5//5 8//8 7//7
f 11//11 10//10 9//9
f 9//9 12//12 11//11
f 12//12 9//9 13//13
f 13//13 14//14 12//12
f 17//17 16//16 15//15
f 15//15 18//18 17//17
f 19//19 5//5 6//6
f 6//6 10//10 19//19
f 11//11 4//4 1//1
f 1//1 20//20 11//11
f 10//10 6//6 7//7
f 7//7 9//9 10//10
f 12//12 3//3 4//4
f 4//4 11//11 12//12
f 9//9 7//7 8//8
f 8//8 13//13 9//9
f 14//14 2//2 3//3
f 3//3 12//12 14//14
f 16//16 22//22 21//21
f 21//21 15//15 16//16
f 18//18 24//24 23//23
f 23//23 17//17 18//18
f 25//25 10//10 11//11
f 11//11 26//26 25//25
f 27//27 20//20 19//19
f 19//19 28//28 27//27
f 28//28 19//19 10//10
f 10//10 25//25 28//28
f 26//26 11//11 20//20
f 20//20 27//27 26//26
f 29//29 25//25 26//26
f 26//26 30//30 29//29
f 31//31 27//27 28//28
f 28//28 32//32 31//31
f 32//32 28//28 25//25
f 25//25 29//29 32//32
f 30//30 26//26 27//27
f 27//27 31//31 30//30
f 30//30 31//31 32//32
f 32//32 29//29 30//30
f 24//24 1//1 2//2
f 2//2 23//23 24//24
f 18//18 20//20 1//1
f 1//1 24//24 18//18
f 15//15 19//19 20//20
f 20//20 18//18 15//15
f 21//21 5//5 19//19
f 19//19 15//15 21//21
f 22//22 8//8 5//5
f 5//5 21//21 22//22
f 16//16 13//13 8//8
f 8//8 22//22 16//16
f 17//17 14//14 13//13
f 13//13 16//16 17//17
f 23//23 2//2 14//14
f 14//14 17//17 23//23
f 35//35 34//34 33//33
f 33//33 36//36 35//35
f 38//38 37//37 34//34
f 34//34 35//35 38//38
f 40//40 39//39 37//37
f 37//37 38//38 40//40
f 42//42 41//41 39//39
f 39//39 40//40 42//42
f 44//44 43//43 41//41
f 41//41 42//42 44//44
f 46//46 45//45 43//43
f 43//43 44//44 46//46
f 48//48 47//47 45//45
f 45//45 46//46 48//48
f 36//36 33//33 47//47
f 47//47 48//48 36//36
f 41//41 43//43 45//45
f 45//45 33//33 41//41
f 37//37 39//39 41//41
f 41//41 33//33 37//37
f 37//37 33//33 34//34
f 47//47 33//33 45//45
f 49//49 35//35 36//36
f 36//36 50//50 49//49
f 51//51 38//38 35//35
f 35//35 49//49 51//51
f 52//52 40//40 38//38
f 38//38 51//51 52//52
f 53//53 42//42 40//40
f 40//40 52//52 53//53
f 54//54 44//44 42//42
f 42//42 53//53 54//54
f 55//55 46//46 44//44
f 44//44 54//54 55//55
f 56//56 48//48 46//46
f 46//46 55//55 56//56
f 50//50 36//36 48//48
f 48//48 56//56 50//50
f 57//57 49//49 50//50
f 50//50 58//58 57//57
f 59//59 51//51 49//49
f 49//49 57//57 59//59
f 60//60 52//52 51//51
f 51//51 59//59 60//60
f 61//61 53//53 52//52
f 52//52 60//60 61//61
f 62//62 54//54 53//53
f 53//53 61//61 62//62
f 63//63 55//55 54//54
f 54//54 62//62 63//63
f 64//64 56//56 55//55
f 55//55 63//63 64//64
f 58//58 50//50 56//56
f 56//56 64//64 58//58
f 61//61 60//60 59//59
f 59//59 58//58 61//61
f 63//63 62//62 61//61
f 61//61 58//58 63//63
f 63//63 58//58 64//64
f 57//57 58//58 59//59
f 67//67 66//66 65//65
f 65//65 68//68 67//67
f 70//70 69//69 66//66
f 66//66 67//67 70//70
f 72//72 71//71 69//69
f 69//69 70//70 72//72
f 74//74 73//73 71//71
f 71//71 72//72 74//74
f 76//76 75//75 73//73
f 73//73 74//74 76//76
f 78//78 77//77 75//75
f 75//75 76//76 78//78
f 80//80 79//79 77//77
f 77//77 78//78 80//80
f 68//68 65//65 79//79
f 79//79 80//80 68//68
f 74//74 72//72 70//70
f 70//70 68//68 74//74
f 78//78 76//76 74//74
f 74//74 68//68 78//78
f 78//78 68//68 80//80
f 67//67 68//68 70//70
f 81//81 65//65 66//66
f 66//66 82//82 81//81
f 82//82 66//66 69//69
f 69//69 83//83 82//82
f 83//83 69//69 71//71
f 71//71 84//84 83//83
f 84//84 71//71 73//73
f 73//73 85//85 84//84
f 85//85 73//73 75//75
f 75//75 86//86 85//85
f 86//86 75//75 77//77
f 77//77 87//87 86//86
f 87//87 77//77 79//79
f 79//79 88//88 87//87
f 88//88 79//79 65//65
f 65//65 81//81 88//88
f 89//89 81//81 82//82
f 82//82 90//90 89//89
f 90//90 82//82 83//83
f 83//83 91//91 90//90
f 91//91 83//83 84//84
f 84//84 92//92 91//91
f 92//92 84//84 85//85
f 85//85 93//93 92//92
f 94//94 86//86 87//87
f 87//87 95//95 94//94
f 95//95 87//87 88//88
f 88//88 96//96 95//95
f 96//96 88//88 81//81
f 81//81 89//89 96//96
f 94//94 95//95 96//96
f 96//96 92//92 94//94
f 94//94 92//92 93//93
f 90//90 91//91 92//92
f 92//92 96//96 90//90
f 89//89 90//90 96//96
f 97//97 85//85 86//86
f 86//86 98//98 97//97
f 99//99 93//93 85//85
f 85//85 97//97 99//99
f 98//98 86//86 94//94
f 94//94 100//100 98//98
f 100//100 94//94 93//93
f 93//93 99//99 100//100
f 97//97 159//159 102//102
f 102//102 101//101 97//97
f 103//103 99//99 97//97
f 97//97 101//101 103//103
f 100//100 104//104 159//159
f 159//159 98//98 100//100
f 104//104 100//100 99//99
f 99//99 103//103 104//104
f 101//101 102//102 161//161
f 161//161 160//160 101//101
f 103//103 101//101 160//160
f 160//160 162//162 103//103
f 102//102 104//104 163//163
f 163//163 161//161 102//102
f 104//104 103//103 162//162
f 162//162 163//163 104//104
f 106//106 108//108 107//107
f 107//107 105//105 106//106
f 155//155 109//109 111//111
f 111//111 110//110 155//155
f 109//109 112//112 111//111
f 111//111 112//112 113//113
f 117//117 116//116 112//112
f 112//112 115//115 117//117
f 116//116 118//118 113//113
f 113//113 112//112 116//116
f 118//118 119//119 111//111
f 111//111 113//113 118//118
f 119//119 120//120 110//110
f 110//110 111//111 119//119
f 109//109 155//155 120//120
f 120//120 121//121 109//109
f 120//120 155//155 110//110
f 114//114 122//122 154//154
f 154//154 153//153 114//114
f 119//119 118//118 116//116
f 116//116 121//121 119//119
f 119//119 121//121 120//120
f 121//121 154//154 122//122
f 124//124 123//123 157//157
f 157//157 156//156 124//124
f 126//126 125//125 109//109
f 109//109 121//121 126//126
f 128//128 127//127 122//122
f 122//122 114//114 128//128
f 127//127 126//126 121//121
f 121//121 122//122 127//127
f 130//130 129//129 123//123
f 123//123 124//124 130//130
f 132//132 131//131 125//125
f 125//125 126//126 132//132
f 134//134 133//133 127//127
f 127//127 128//128 134//134
f 133//133 132//132 126//126
f 126//126 127//127 133//133
f 136//136 135//135 129//129
f 129//129 130//130 136//136
f 138//138 137//137 131//131
f 131//131 132//132 138//138
f 140//140 139//139 133//133
f 133//133 134//134 140//140
f 139//139 138//138 132//132
f 132//132 133//133 139//139
f 147//147 135//135 136//136
f 136//136 148//148 147//147
f 150//150 149//149 137//137
f 137//137 138//138 150//150
f 152//152 151//151 139//139
f 139//139 140//140 152//152
f 150//150 138//138 139//139
f 139//139 151//151 150//150
f 146//146 143//143 144//144
f 144//144 145//145 146//146
f 124//124 156//156 109//109
f 109//109 125//125 124//124
f 130//130 124//124 125//125
f 125//125 131//131 130//130
f 136//136 130//130 131//131
f 131//131 137//137 136//136
f 148//148 136//136 137//137
f 137//137 149//149 148//148
f 141//141 142//142 143//143
f 143//143 146//146 141//141
f 141//141 146//146 152//152
f 152//152 147//147 141//141
f 129//129 135//135 140//140
f 140//140 134//134 129//129
f 123//123 129//129 134//134
f 134//134 128//128 123//123
f 157//157 123//123 128//128
f 128//128 114//114 157//157
f 141//141 147//147 148//148
f 148//148 142//142 141//141
f 143//143 149//149 150//150
f 150//150 144//144 143//143
f 145//145 151//151 152//152
f 152//152 146//146 145//145
f 144//144 150//150 151//151
f 151//151 145//145 144//144
f 142//142 148//148 149//149
f 149//149 143//143 142//142
f 140//140 135//135 147//147
f 147//147 152//152 140//140
f 112//112 109//109 153//153
f 153//153 115//115 112//112
f 153//153 154//154 117//117
f 117//117 115//115 153//153
f 117//117 154//154 121//121
f 121//121 116//116 117//117
f 153//153 158//158 157//157
f 157//157 114//114 153//153
f 109//109 156//156 158//158
f 158//158 153//153 109//109
f 156//156 157//157 158//158
f 159//159 97//97 98//98
f 159//159 104//104 102//102
f 105//105 160//160 161//161
f 161//161 106//106 105//105
f 107//107 162//162 160//160
f 160//160 105//105 107//107
f 106//106 161//161 163//163
f 163//163 108//108 106//106
f 108//108 163//163 162//162
f 162//162 107//107 108//108
# 310 faces, 0 coords texture

# End of File