####
#
# OBJ File Generated by Meshlab
#
####
# Object l_talus.obj
#
# Vertices: 24
# Faces: 44
#
####
vn 0.454377 -0.745991 0.486866
v 0.011681 -0.013074 -0.012451
vn -0.204999 -0.506240 0.837673
v -0.034212 -0.013074 -0.012451
vn -0.460426 -0.565265 0.684458
v -0.021880 -0.010345 -0.002242
vn 0.604446 -0.785462 0.133023
v 0.011681 -0.010345 -0.002242
vn -0.062854 -0.913772 0.401336
v -0.009143 -0.009233 0.007968
vn -0.408270 -0.118003 0.905202
v -0.003785 -0.003774 0.012719
vn 0.092423 -0.491700 0.865846
v 0.011681 -0.003774 0.012719
vn 0.806258 -0.541625 0.237887
v 0.011681 -0.009233 0.007968
vn -0.086398 0.411326 0.907385
v -0.003785 0.003403 0.012921
vn 0.693144 0.146171 0.705823
v 0.011681 0.003403 0.012921
vn -0.514591 0.328085 0.792185
v -0.009143 0.009064 0.008372
vn 0.066700 0.930403 0.360418
v 0.011681 0.009064 0.008372
vn -0.386718 0.466865 0.795290
v -0.034212 0.013208 -0.011946
vn 0.383432 0.598884 0.703077
v 0.011681 0.013208 -0.011946
vn 0.507043 0.839291 0.196209
v 0.011681 0.010378 -0.001736
vn -0.354668 0.737332 0.574936
v -0.021880 0.010378 -0.001736
vn -0.077542 0.184877 -0.979698
v -0.040682 0.023418 -0.025289
vn -0.298076 -0.157263 -0.941498
v -0.040682 -0.023183 -0.025794
vn 0.077831 -0.164253 -0.983343
v 0.011681 -0.023183 -0.025794
vn 0.297063 0.177065 -0.938297
v 0.011681 0.023418 -0.025289
vn 0.593214 -0.550425 0.587477
v 0.011681 -0.023183 -0.017505
vn -0.445533 -0.672572 0.590887
v -0.040682 -0.023183 -0.017505
vn -0.534846 0.489516 0.688704
v -0.040682 0.023418 -0.017000
vn 0.516079 0.774597 0.365599
v 0.011681 0.023418 -0.017000
# 24 vertices, 0 vertices normals

f 3//3 2//2 1//1
f 1//1 4//4 3//3
f 7//7 6//6 5//5
f 5//5 8//8 7//7
f 10//10 9//9 6//6
f 6//6 7//7 10//10
f 12//12 11//11 9//9
f 9//9 10//10 12//12
f 15//15 14//14 13//13
f 13//13 16//16 15//15
f 19//19 18//18 17//17
f 17//17 20//20 19//19
f 3//3 16//16 13//13
f 13//13 2//2 3//3
f 4//4 1//1 14//14
f 14//14 15//15 4//4
f 2//2 22//22 21//21
f 21//21 1//1 2//2
f 4//4 8//8 5//5
f 5//5 3//3 4//4
f 14//14 24//24 23//23
f 23//23 13//13 14//14
f 16//16 11//11 12//12
f 12//12 15//15 16//16
f 6//6 9//9 11//11
f 11//11 3//3 6//6
f 6//6 3//3 5//5
f 16//16 3//3 11//11
f 13//13 23//23 22//22
f 22//22 2//2 13//13
f 1//1 21//21 24//24
f 24//24 14//14 1//1
f 10//10 7//7 8//8
f 8//8 15//15 10//10
f 10//10 15//15 12//12
f 4//4 15//15 8//8
f 22//22 18//18 19//19
f 19//19 21//21 22//22
f 24//24 20//20 17//17
f 17//17 23//23 24//24
f 23//23 17//17 18//18
f 18//18 22//22 23//23
f 21//21 19//19 20//20
f 20//20 24//24 21//21
# 44 faces, 0 coords texture

# End of File