####
#
# OBJ File Generated by Meshlab
#
####
# Object pelvis_chull.obj
#
# Vertices: 12
# Faces: 20
#
####
vn 0.800990 0.237914 0.549374
v 0.171620 0.106219 0.118184
vn -0.433351 0.652898 -0.621233
v -0.152904 0.069962 -0.163059
vn -0.158587 -0.719373 -0.676279
v -0.146046 -0.070794 -0.161004
vn -0.909054 -0.289020 0.300146
v -0.157029 -0.106479 0.115166
vn 0.370044 0.902807 -0.219105
v 0.080725 0.206635 0.103680
vn 0.795835 -0.264663 0.544610
v 0.171694 -0.127074 0.115564
vn 0.002336 -0.000733 0.999997
v -0.017081 -0.001033 0.184371
vn 0.640894 0.000802 -0.767629
v 0.171027 -0.000360 -0.090182
vn -0.389263 0.860727 0.328061
v -0.034930 0.206315 0.109406
vn -0.372129 -0.872991 0.315288
v -0.032118 -0.207980 0.110404
vn 0.343110 -0.906800 -0.244927
v 0.076150 -0.209879 0.104080
vn -0.850493 0.339390 0.401841
v -0.155901 0.094316 0.117599
# 12 vertices, 0 vertices normals

f 12//12 7//7 9//9
f 10//10 3//3 11//11
f 5//5 9//9 7//7
f 7//7 11//11 6//6
f 10//10 4//4 3//3
f 4//4 12//12 2//2
f 5//5 7//7 1//1
f 1//1 8//8 5//5
f 9//9 2//2 12//12
f 10//10 11//11 7//7
f 8//8 1//1 6//6
f 3//3 8//8 11//11
f 11//11 8//8 6//6
f 3//3 4//4 2//2
f 2//2 5//5 8//8
f 4//4 10//10 7//7
f 9//9 5//5 2//2
f 6//6 1//1 7//7
f 3//3 2//2 8//8
f 12//12 4//4 7//7
# 20 faces, 0 coords texture

# End of File