####
#
# OBJ File Generated by Meshlab
#
####
# Object r_clav_chull.obj
#
# Vertices: 12
# Faces: 20
#
####
vn 0.036947 -0.802441 -0.595586
v 0.007355 -0.011192 0.175882
vn 0.917936 -0.386973 -0.087437
v -0.066742 -0.061303 0.162273
vn -0.976156 -0.216444 0.016468
v 0.050963 -0.073218 0.171957
vn -0.296788 0.467148 0.832880
v 0.022856 -0.066101 0.072265
vn -0.683017 -0.682712 0.259599
v 0.021596 -0.028835 0.092902
vn 0.571166 -0.667313 0.477979
v -0.020344 -0.033543 0.088682
vn 0.453438 0.779372 0.432404
v -0.054000 -0.186943 0.188786
vn 0.484537 -0.149863 -0.861838
v -0.065918 -0.146851 0.241674
vn 0.686787 0.285516 0.668434
v -0.058234 -0.095772 0.112974
vn -0.483681 0.699252 -0.526402
v 0.049847 -0.184108 0.234736
vn -0.576822 0.612382 0.540616
v 0.053345 -0.182081 0.176760
vn -0.291597 -0.371648 -0.881390
v 0.048573 -0.133458 0.250412
# 12 vertices, 0 vertices normals

f 1//1 8//8 2//2
f 6//6 5//5 1//1
f 8//8 1//1 12//12
f 2//2 6//6 1//1
f 3//3 4//4 11//11
f 6//6 9//9 4//4
f 5//5 6//6 4//4
f 7//7 4//4 9//9
f 7//7 11//11 4//4
f 3//3 5//5 4//4
f 1//1 5//5 3//3
f 1//1 3//3 12//12
f 9//9 6//6 2//2
f 8//8 12//12 10//10
f 8//8 10//10 7//7
f 11//11 7//7 10//10
f 2//2 8//8 7//7
f 7//7 9//9 2//2
f 3//3 11//11 10//10
f 3//3 10//10 12//12
# 20 faces, 0 coords texture

# End of File