####
#
# OBJ File Generated by Meshlab
#
####
# Object r_elbow_rx.obj
#
# Vertices: 148
# Faces: 280
#
####
vn 0.000000 -0.128583 -0.991699
v -0.041691 -0.129797 -0.037439
vn 0.000000 0.107854 -0.994167
v -0.041691 -0.065109 -0.037511
vn 0.040023 0.119480 -0.992030
v 0.055756 -0.065109 -0.037511
vn 0.158154 -0.120206 -0.980070
v 0.055756 -0.129797 -0.037439
vn 0.000000 -0.060732 0.998154
v -0.041691 -0.129797 0.018886
vn 0.078162 -0.235750 0.968665
v 0.055756 -0.129797 0.018886
vn 0.080281 0.060536 0.994932
v 0.055756 -0.065181 0.018886
vn 0.000000 0.236474 0.971638
v -0.041691 -0.065181 0.018886
vn 0.723654 0.690163 0.000881
v 0.055756 -0.065181 0.011023
vn 0.820946 -0.148652 0.551316
v 0.055756 -0.129797 0.011023
vn 0.957669 -0.210157 -0.196731
v 0.055756 -0.129797 -0.029577
vn 0.386978 0.922088 0.001489
v 0.055756 -0.065109 -0.029648
vn 0.000000 0.999999 0.001614
v -0.041691 -0.065181 0.011023
vn 0.000000 0.999999 0.001277
v -0.041691 -0.065109 -0.029648
vn -0.983427 -0.181302 0.000000
v -0.053619 -0.129797 0.011023
vn -0.983385 0.181531 0.000232
v -0.053619 -0.065181 0.011023
vn -0.983379 0.181564 0.000293
v -0.053619 -0.065109 -0.029648
vn -0.983422 -0.181333 0.000000
v -0.053619 -0.129797 -0.029577
vn -0.412611 -0.765632 0.493518
v -0.041691 -0.129797 0.011023
vn -0.173169 -0.528206 -0.831271
v -0.041691 -0.129797 -0.029577
vn -0.788262 -0.145512 0.597888
v -0.053619 -0.129797 0.018886
vn -0.312516 0.057690 0.948159
v -0.053619 -0.065181 0.018886
vn -0.788337 0.144707 -0.597983
v -0.053619 -0.065109 -0.037511
vn -0.312462 -0.058671 -0.948117
v -0.053619 -0.129797 -0.037439
vn 0.262221 -0.559157 0.786501
v 0.055756 -0.144378 0.011023
vn 0.362098 0.002264 -0.932137
v 0.055756 -0.144450 -0.029648
vn -0.316647 0.000923 -0.948543
v -0.041691 -0.144450 -0.029648
vn -0.334080 -0.383200 0.861132
v -0.041691 -0.144378 0.011023
vn 0.314543 -0.770776 0.554047
v 0.055756 -0.173684 -0.014995
vn 0.066900 -0.447090 -0.891984
v 0.055756 -0.173613 -0.029648
vn -0.452592 -0.399573 -0.797183
v -0.041691 -0.173613 -0.029648
vn -0.044136 -0.811198 0.583103
v -0.041691 -0.173684 -0.014995
vn 0.521516 -0.850168 -0.072362
v 0.039178 -0.187694 -0.009134
vn 0.597875 -0.137777 -0.789660
v 0.027856 -0.187623 -0.036367
vn 0.769723 -0.135869 -0.623752
v 0.027856 -0.134014 -0.036367
vn 0.985442 -0.135278 0.102973
v 0.039178 -0.134014 -0.009062
vn -0.099152 -0.687338 -0.719538
v 0.000664 -0.187694 -0.047589
vn 0.101959 -0.136261 -0.985412
v 0.000664 -0.134014 -0.047660
vn -0.789961 -0.137975 -0.597432
v -0.026629 -0.187623 -0.036367
vn -0.624106 -0.136392 -0.769343
v -0.026629 -0.134014 -0.036367
vn -0.520692 -0.850775 0.071140
v -0.037849 -0.187694 -0.009134
vn -0.985468 -0.136025 -0.101735
v -0.037849 -0.134014 -0.009062
vn -0.598448 -0.137158 0.789334
v -0.026629 -0.187694 0.018171
vn -0.769750 -0.135215 0.623861
v -0.026629 -0.134014 0.018099
vn 0.099355 -0.688368 0.718525
v 0.000664 -0.187694 0.029464
vn -0.102629 -0.135155 0.985495
v 0.000664 -0.134014 0.029393
vn 0.789467 -0.137021 0.598304
v 0.027856 -0.187694 0.018171
vn 0.624189 -0.134966 0.769527
v 0.027856 -0.134014 0.018099
vn 0.619139 -0.106202 -0.778067
v 0.033416 -0.127438 -0.041942
vn 0.987943 -0.105990 -0.112853
v 0.046961 -0.127438 -0.009062
vn -0.113319 -0.105883 -0.987901
v 0.000664 -0.127509 -0.055452
vn -0.778209 -0.105717 -0.619043
v -0.032087 -0.127438 -0.041942
vn -0.987776 -0.106668 0.113669
v -0.045734 -0.127438 -0.009062
vn -0.618187 -0.106390 0.778798
v -0.032087 -0.127438 0.023675
vn 0.113269 -0.106912 0.987795
v 0.000664 -0.127438 0.037256
vn 0.778995 -0.106814 0.617866
v 0.033416 -0.127438 0.023675
vn 0.789729 0.142312 -0.596720
v 0.033416 -0.065038 -0.041871
vn 0.507602 0.858692 0.070629
v 0.046961 -0.065038 -0.009134
vn 0.097205 0.700006 -0.707491
v 0.000664 -0.065038 -0.055452
vn -0.596790 0.142256 -0.789687
v -0.032087 -0.065038 -0.041871
vn -0.508391 0.858297 -0.069742
v -0.045734 -0.065038 -0.009134
vn -0.788448 0.142214 0.598436
v -0.032087 -0.065109 0.023675
vn -0.097534 0.700537 0.706919
v 0.000664 -0.065109 0.037256
vn 0.598157 0.142481 0.788611
v 0.033416 -0.065109 0.023675
vn -0.112191 0.984418 -0.135402
v 0.057980 0.028527 0.000373
vn -0.224598 0.588287 -0.776836
v 0.057980 0.020593 -0.018855
vn -0.098230 0.793490 -0.600604
v 0.004505 0.020593 -0.018855
vn -0.753917 0.650841 0.089521
v 0.004505 0.028527 0.000373
vn -0.161679 -0.133125 -0.977823
v 0.057980 0.001294 -0.026860
vn -0.556943 0.114880 -0.822567
v 0.004505 0.001294 -0.026860
vn -0.297935 -0.761260 -0.575950
v 0.057980 -0.017934 -0.018926
vn -0.098137 -0.600411 -0.793647
v 0.004505 -0.017934 -0.018926
vn -0.158181 -0.977914 0.136612
v 0.057980 -0.025868 0.000301
vn -0.753580 -0.651349 -0.088669
v 0.004505 -0.025868 0.000301
vn -0.175705 -0.594125 0.784948
v 0.057980 -0.017862 0.019600
vn -0.098060 -0.793345 0.600823
v 0.004505 -0.017862 0.019600
vn -0.122768 0.135233 0.983178
v 0.057980 0.001366 0.027534
vn -0.558000 -0.113076 0.822101
v 0.004505 0.001366 0.027534
vn -0.111911 0.792475 0.599550
v 0.057980 0.020593 0.019600
vn -0.098134 0.600427 0.793635
v 0.004505 0.020593 0.019600
vn -0.663042 0.725939 0.182723
v 0.057980 0.034246 0.000373
vn -0.839707 0.532724 -0.105339
v 0.057980 0.033459 -0.026717
vn -0.841190 0.119206 -0.527436
v 0.057980 0.022666 -0.035080
vn -0.808878 -0.056557 -0.585250
v 0.057980 -0.025010 -0.034008
vn -0.956189 -0.070480 -0.284140
v 0.057980 -0.033945 -0.026074
vn -0.986889 -0.032567 0.158079
v 0.057980 -0.028655 0.020530
vn -0.480682 -0.163425 0.861532
v 0.057980 0.001366 0.033253
vn -0.511906 0.518913 0.684604
v 0.057980 0.024596 0.023603
vn 0.374598 0.922182 0.096209
v 0.066875 0.034246 0.000373
vn 0.993066 0.104697 -0.053460
v 0.066875 0.033459 -0.026717
vn 0.397972 0.053658 -0.915827
v 0.066875 0.022666 -0.035080
vn 0.996091 -0.022102 -0.085520
v 0.066875 -0.025010 -0.034008
vn 0.995528 -0.023978 -0.091375
v 0.066875 -0.033945 -0.026074
vn 0.979381 -0.040763 0.197867
v 0.066875 -0.028655 0.020530
vn 0.650786 0.065053 0.756469
v 0.066875 0.001366 0.033253
vn 0.995770 0.073225 0.055503
v 0.066875 0.024596 0.023603
vn -0.981122 0.141646 -0.131669
v 0.057980 -0.059033 -0.026003
vn -0.947264 0.173260 0.269578
v 0.057980 -0.060392 0.020530
vn 0.964265 0.054194 -0.259338
v 0.066875 -0.055245 -0.026074
vn 0.988635 0.000000 0.150339
v 0.066875 -0.060392 0.020530
vn -0.923230 0.238676 -0.301133
v 0.054138 -0.066324 -0.038154
vn -0.988065 0.069828 0.137304
v 0.054138 -0.066825 0.020530
vn 0.986683 0.075332 -0.144161
v 0.066875 -0.066324 -0.038154
vn 0.959843 0.000000 0.280539
v 0.066875 -0.066825 0.020530
vn -0.961070 -0.255390 -0.105452
v 0.054138 -0.090555 -0.038082
vn -0.653541 -0.701572 0.284043
v 0.054138 -0.090555 0.020530
vn 0.659834 -0.694535 -0.286778
v 0.066875 -0.090555 -0.038082
vn 0.961366 -0.255155 0.103304
v 0.066875 -0.090555 0.020530
vn -0.970860 0.018599 0.238923
v -0.061503 -0.026368 0.008664
vn -0.404863 -0.453257 0.794131
v -0.061503 -0.017862 0.019600
vn -0.980118 0.027037 0.196566
v -0.061503 0.001366 0.027534
vn -0.996140 0.086958 -0.011961
v -0.061503 0.028527 0.000373
vn -0.662385 0.597447 0.452000
v -0.061503 0.020593 0.019600
vn -0.941696 0.211710 -0.261509
v -0.061503 -0.004353 -0.030792
vn -0.818513 0.395205 -0.416953
v -0.061503 0.020593 -0.018855
vn 0.991794 0.126657 0.017421
v -0.055539 0.028527 0.000373
vn 0.974945 0.153027 -0.161448
v -0.055539 0.020593 -0.018855
vn 0.662385 0.452000 0.597447
v -0.055539 0.020593 0.019600
vn 0.980117 -0.027037 0.196570
v -0.055539 0.001366 0.027534
vn 0.454500 -0.565816 0.687955
v -0.055539 -0.017862 0.019600
vn 0.999456 -0.009324 0.031629
v -0.055539 -0.026368 0.008664
vn 0.973486 0.020529 -0.227823
v -0.055539 -0.004353 -0.030792
vn -0.989958 0.059970 -0.128011
v -0.066456 -0.004353 -0.030792
vn -0.992493 0.014369 -0.121455
v -0.066456 -0.057318 -0.030720
vn -0.995857 0.007801 0.090596
v -0.066456 -0.054959 0.008664
vn -0.904724 0.313462 0.288472
v -0.066456 -0.026368 0.008664
vn 0.000000 0.247031 0.969007
v -0.061503 -0.054959 0.008664
vn 0.977651 0.018035 0.209458
v -0.055539 -0.054959 0.008664
vn 0.993233 0.013646 -0.115338
v -0.055539 -0.057318 -0.030720
vn 0.000000 0.034581 -0.999402
v -0.061503 -0.057318 -0.030720
vn -0.993331 0.084431 -0.078517
v -0.066456 -0.064966 -0.034794
vn -0.989316 0.100174 0.105917
v -0.066456 -0.062536 0.014240
vn 0.000000 0.788685 0.614797
v -0.061503 -0.062536 0.014240
vn 0.971070 0.164086 0.173493
v -0.055539 -0.062536 0.014240
vn 0.993285 0.084720 -0.078786
v -0.055539 -0.064966 -0.034794
vn 0.000000 0.568842 -0.822446
v -0.061503 -0.064966 -0.034794
vn -0.996408 0.005275 -0.084518
v -0.066456 -0.065895 -0.037868
vn -0.995016 0.037772 0.092283
v -0.066456 -0.065824 0.020530
vn 0.000000 0.120990 0.992654
v -0.061503 -0.065824 0.020530
vn 0.997848 0.024838 0.060683
v -0.055539 -0.065824 0.020530
vn 0.984305 0.010994 -0.176133
v -0.055539 -0.065895 -0.037868
vn 0.000000 0.229965 -0.973199
v -0.061503 -0.065895 -0.037868
vn -0.922444 -0.378217 -0.077770
v -0.066456 -0.090055 -0.037868
vn -0.991255 -0.101610 0.084196
v -0.066456 -0.089983 0.020530
vn 0.000000 -0.961498 0.274811
v -0.061503 -0.089983 0.020530
vn 0.881909 -0.435425 0.180670
v -0.055539 -0.089983 0.020530
vn 0.991204 -0.122344 -0.050465
v -0.055539 -0.090055 -0.037868
vn 0.000000 -0.882158 -0.470954
v -0.061503 -0.090055 -0.037868
# 148 vertices, 0 vertices normals

f 1//1 2//2 3//3
f 3//3 4//4 1//1
f 5//5 6//6 7//7
f 7//7 8//8 5//5
f 9//9 10//10 11//11
f 11//11 12//12 9//9
f 13//13 9//9 12//12
f 12//12 14//14 13//13
f 15//15 16//16 17//17
f 17//17 18//18 15//15
f 6//6 5//5 19//19
f 19//19 10//10 6//6
f 1//1 4//4 11//11
f 11//11 20//20 1//1
f 7//7 6//6 10//10
f 10//10 9//9 7//7
f 4//4 3//3 12//12
f 12//12 11//11 4//4
f 8//8 7//7 9//9
f 9//9 13//13 8//8
f 3//3 2//2 14//14
f 14//14 12//12 3//3
f 21//21 22//22 16//16
f 16//16 15//15 21//21
f 23//23 24//24 18//18
f 18//18 17//17 23//23
f 11//11 10//10 25//25
f 25//25 26//26 11//11
f 19//19 20//20 27//27
f 27//27 28//28 19//19
f 10//10 19//19 28//28
f 28//28 25//25 10//10
f 20//20 11//11 26//26
f 26//26 27//27 20//20
f 26//26 25//25 29//29
f 29//29 30//30 26//26
f 28//28 27//27 31//31
f 31//31 32//32 28//28
f 25//25 28//28 32//32
f 32//32 29//29 25//25
f 27//27 26//26 30//30
f 30//30 31//31 27//27
f 32//32 31//31 30//30
f 30//30 29//29 32//32
f 2//2 1//1 24//24
f 24//24 23//23 2//2
f 1//1 20//20 18//18
f 18//18 24//24 1//1
f 20//20 19//19 15//15
f 15//15 18//18 20//20
f 19//19 5//5 21//21
f 21//21 15//15 19//19
f 5//5 8//8 22//22
f 22//22 21//21 5//5
f 8//8 13//13 16//16
f 16//16 22//22 8//8
f 13//13 14//14 17//17
f 17//17 16//16 13//13
f 14//14 2//2 23//23
f 23//23 17//17 14//14
f 33//33 34//34 35//35
f 35//35 36//36 33//33
f 34//34 37//37 38//38
f 38//38 35//35 34//34
f 37//37 39//39 40//40
f 40//40 38//38 37//37
f 39//39 41//41 42//42
f 42//42 40//40 39//39
f 41//41 43//43 44//44
f 44//44 42//42 41//41
f 43//43 45//45 46//46
f 46//46 44//44 43//43
f 45//45 47//47 48//48
f 48//48 46//46 45//45
f 47//47 33//33 36//36
f 36//36 48//48 47//47
f 45//45 43//43 41//41
f 41//41 33//33 45//45
f 41//41 39//39 37//37
f 37//37 33//33 41//41
f 37//37 34//34 33//33
f 47//47 45//45 33//33
f 36//36 35//35 49//49
f 49//49 50//50 36//36
f 35//35 38//38 51//51
f 51//51 49//49 35//35
f 38//38 40//40 52//52
f 52//52 51//51 38//38
f 40//40 42//42 53//53
f 53//53 52//52 40//40
f 42//42 44//44 54//54
f 54//54 53//53 42//42
f 44//44 46//46 55//55
f 55//55 54//54 44//44
f 46//46 48//48 56//56
f 56//56 55//55 46//46
f 48//48 36//36 50//50
f 50//50 56//56 48//48
f 50//50 49//49 57//57
f 57//57 58//58 50//50
f 49//49 51//51 59//59
f 59//59 57//57 49//49
f 51//51 52//52 60//60
f 60//60 59//59 51//51
f 52//52 53//53 61//61
f 61//61 60//60 52//52
f 53//53 54//54 62//62
f 62//62 61//61 53//53
f 54//54 55//55 63//63
f 63//63 62//62 54//54
f 55//55 56//56 64//64
f 64//64 63//63 55//55
f 56//56 50//50 58//58
f 58//58 64//64 56//56
f 59//59 60//60 61//61
f 61//61 58//58 59//59
f 61//61 62//62 63//63
f 63//63 58//58 61//61
f 63//63 64//64 58//58
f 57//57 59//59 58//58
f 65//65 66//66 67//67
f 67//67 68//68 65//65
f 66//66 69//69 70//70
f 70//70 67//67 66//66
f 69//69 71//71 72//72
f 72//72 70//70 69//69
f 71//71 73//73 74//74
f 74//74 72//72 71//71
f 73//73 75//75 76//76
f 76//76 74//74 73//73
f 75//75 77//77 78//78
f 78//78 76//76 75//75
f 77//77 79//79 80//80
f 80//80 78//78 77//77
f 79//79 65//65 68//68
f 68//68 80//80 79//79
f 70//70 72//72 74//74
f 74//74 68//68 70//70
f 74//74 76//76 78//78
f 78//78 68//68 74//74
f 78//78 80//80 68//68
f 67//67 70//70 68//68
f 66//66 65//65 81//81
f 81//81 82//82 66//66
f 69//69 66//66 82//82
f 82//82 83//83 69//69
f 71//71 69//69 83//83
f 83//83 84//84 71//71
f 73//73 71//71 84//84
f 84//84 85//85 73//73
f 75//75 73//73 85//85
f 85//85 86//86 75//75
f 77//77 75//75 86//86
f 86//86 87//87 77//77
f 79//79 77//77 87//87
f 87//87 88//88 79//79
f 65//65 79//79 88//88
f 88//88 81//81 65//65
f 82//82 81//81 89//89
f 89//89 90//90 82//82
f 83//83 82//82 90//90
f 90//90 91//91 83//83
f 84//84 83//83 91//91
f 91//91 92//92 84//84
f 85//85 84//84 92//92
f 92//92 93//93 85//85
f 87//87 86//86 94//94
f 94//94 95//95 87//87
f 88//88 87//87 95//95
f 95//95 96//96 88//88
f 81//81 88//88 96//96
f 96//96 89//89 81//81
f 96//96 95//95 94//94
f 94//94 92//92 96//96
f 94//94 93//93 92//92
f 92//92 91//91 90//90
f 90//90 96//96 92//92
f 89//89 96//96 90//90
f 86//86 85//85 97//97
f 97//97 98//98 86//86
f 85//85 93//93 99//99
f 99//99 97//97 85//85
f 94//94 86//86 98//98
f 98//98 100//100 94//94
f 93//93 94//94 100//100
f 100//100 99//99 93//93
f 98//98 97//97 101//101
f 101//101 102//102 98//98
f 97//97 99//99 103//103
f 103//103 101//101 97//97
f 100//100 98//98 102//102
f 102//102 104//104 100//100
f 99//99 100//100 104//104
f 104//104 103//103 99//99
f 102//102 101//101 105//105
f 105//105 106//106 102//102
f 101//101 103//103 107//107
f 107//107 105//105 101//101
f 104//104 102//102 106//106
f 106//106 108//108 104//104
f 103//103 104//104 108//108
f 108//108 107//107 103//103
f 107//107 108//108 106//106
f 106//106 105//105 107//107
f 109//109 110//110 111//111
f 111//111 112//112 109//109
f 111//111 113//113 112//112
f 114//114 109//109 112//112
f 112//112 115//115 114//114
f 112//112 116//116 117//117
f 117//117 115//115 112//112
f 113//113 118//118 116//116
f 116//116 112//112 113//113
f 111//111 119//119 118//118
f 118//118 113//113 111//111
f 110//110 120//120 119//119
f 119//119 111//111 110//110
f 109//109 121//121 120//120
f 120//120 110//110 109//109
f 114//114 115//115 117//117
f 117//117 122//122 114//114
f 116//116 118//118 119//119
f 119//119 121//121 116//116
f 119//119 120//120 121//121
f 117//117 116//116 121//121
f 121//121 122//122 117//117
f 123//123 124//124 125//125
f 125//125 126//126 123//123
f 109//109 127//127 128//128
f 128//128 121//121 109//109
f 122//122 129//129 130//130
f 130//130 114//114 122//122
f 121//121 128//128 129//129
f 129//129 122//122 121//121
f 124//124 131//131 132//132
f 132//132 125//125 124//124
f 127//127 133//133 134//134
f 134//134 128//128 127//127
f 129//129 135//135 136//136
f 136//136 130//130 129//129
f 128//128 134//134 135//135
f 135//135 129//129 128//128
f 131//131 137//137 138//138
f 138//138 132//132 131//131
f 133//133 139//139 140//140
f 140//140 134//134 133//133
f 135//135 141//141 142//142
f 142//142 136//136 135//135
f 134//134 140//140 141//141
f 141//141 135//135 134//134
f 137//137 143//143 144//144
f 144//144 138//138 137//137
f 139//139 145//145 146//146
f 146//146 140//140 139//139
f 141//141 147//147 148//148
f 148//148 142//142 141//141
f 140//140 146//146 147//147
f 147//147 141//141 140//140
f 146//146 145//145 148//148
f 148//148 147//147 146//146
f 114//114 123//123 126//126
f 126//126 109//109 114//114
f 109//109 126//126 125//125
f 125//125 127//127 109//109
f 127//127 125//125 132//132
f 132//132 133//133 127//127
f 133//133 132//132 138//138
f 138//138 139//139 133//133
f 139//139 138//138 144//144
f 144//144 145//145 139//139
f 145//145 144//144 143//143
f 143//143 148//148 145//145
f 148//148 143//143 137//137
f 137//137 142//142 148//148
f 142//142 137//137 131//131
f 131//131 136//136 142//142
f 136//136 131//131 124//124
f 124//124 130//130 136//136
f 130//130 124//124 123//123
f 123//123 114//114 130//130
# 280 faces, 0 coords texture

# End of File