####
#
# OBJ File Generated by Meshlab
#
####
# Object r_elbow_rx_chull.obj
#
# Vertices: 12
# Faces: 20
#
####
vn 0.408940 -0.576459 -0.707435
v -0.066164 0.023274 0.024400
vn 0.249810 0.655666 -0.712528
v -0.028429 -0.187637 0.017519
vn 0.591192 0.414195 0.692051
v -0.035205 -0.190112 -0.039738
vn -0.666055 0.705109 0.243293
v 0.054364 -0.187097 -0.026475
vn -0.056603 0.132580 -0.989555
v 0.000910 -0.117818 0.039448
vn -0.877996 0.167486 -0.448409
v 0.066548 -0.103254 0.019091
vn -0.746050 0.065065 0.662704
v 0.066954 -0.088682 -0.038571
vn 0.625332 -0.233241 0.744687
v -0.073547 -0.020965 -0.035800
vn -0.024363 0.002252 0.999701
v -0.000353 -0.080597 -0.058449
vn 0.876286 0.186338 -0.444299
v -0.066456 -0.089983 0.020530
vn -0.385373 -0.587689 0.711413
v 0.067111 0.031720 -0.033607
vn -0.319899 -0.297791 -0.899436
v 0.068532 0.023593 0.032123
# 12 vertices, 0 vertices normals

f 6//6 4//4 5//5
f 12//12 6//6 5//5
f 10//10 2//2 3//3
f 10//10 1//1 5//5
f 5//5 2//2 10//10
f 7//7 11//11 9//9
f 1//1 11//11 12//12
f 8//8 11//11 1//1
f 9//9 4//4 7//7
f 4//4 9//9 3//3
f 7//7 4//4 6//6
f 8//8 3//3 9//9
f 8//8 10//10 3//3
f 12//12 5//5 1//1
f 1//1 10//10 8//8
f 11//11 8//8 9//9
f 5//5 4//4 2//2
f 3//3 2//2 4//4
f 11//11 7//7 6//6
f 11//11 6//6 12//12
# 20 faces, 0 coords texture

# End of File