####
#
# OBJ File Generated by Meshlab
#
####
# Object r_lglut_chull.obj
#
# Vertices: 12
# Faces: 20
#
####
vn 0.436056 -0.411174 0.800495
v -0.045417 -0.021114 -0.089387
vn 0.063906 0.805366 -0.589324
v 0.034932 -0.046414 0.001564
vn 0.372997 0.919218 -0.126140
v -0.063828 -0.041562 -0.048575
vn -0.525307 -0.840881 -0.130278
v 0.079179 0.020743 0.006363
vn 0.082814 -0.695010 -0.714215
v -0.073734 0.017270 0.011268
vn 0.464712 0.358866 -0.809480
v -0.081167 -0.010838 0.018503
vn -0.271744 0.245536 -0.930520
v 0.069402 -0.001835 0.020163
vn 0.248854 -0.926574 0.282014
v -0.073734 0.019089 -0.009758
vn -0.293451 0.953771 -0.064858
v 0.058885 -0.061701 -0.035818
vn -0.627588 0.209411 0.749853
v 0.042413 -0.055512 -0.075969
vn 0.202014 0.928879 0.310443
v -0.038217 -0.041530 -0.088045
vn -0.179260 -0.794293 0.580487
v 0.042425 0.009885 -0.076093
# 12 vertices, 0 vertices normals

f 8//8 12//12 4//4
f 4//4 5//5 8//8
f 9//9 7//7 4//4
f 2//2 6//6 7//7
f 7//7 9//9 2//2
f 6//6 2//2 3//3
f 1//1 12//12 8//8
f 10//10 4//4 12//12
f 1//1 8//8 6//6
f 3//3 1//1 6//6
f 1//1 3//3 11//11
f 10//10 9//9 4//4
f 11//11 3//3 9//9
f 9//9 10//10 11//11
f 9//9 3//3 2//2
f 1//1 11//11 10//10
f 1//1 10//10 12//12
f 4//4 6//6 5//5
f 4//4 7//7 6//6
f 6//6 8//8 5//5
# 20 faces, 0 coords texture

# End of File