####
#
# OBJ File Generated by Meshlab
#
####
# Object r_lleg_chull.obj
#
# Vertices: 12
# Faces: 20
#
####
vn -0.494094 0.851366 -0.176203
v 0.066633 -0.059363 0.012215
vn -0.200728 -0.969874 -0.138034
v 0.053752 0.061200 0.014200
vn -0.337749 0.925608 0.170808
v 0.053650 -0.043630 -0.354387
vn -0.362248 -0.919890 0.150264
v 0.053514 0.044533 -0.354441
vn -0.981495 0.131408 0.139285
v 0.072970 0.000363 -0.341550
vn -0.980831 -0.193849 -0.019835
v 0.090222 0.027232 -0.027413
vn 0.777888 -0.473682 -0.412935
v -0.017124 0.052520 0.021877
vn 0.590094 0.496713 -0.636447
v -0.016731 -0.051584 0.019649
vn 0.689040 -0.721358 0.069761
v -0.045031 0.047392 -0.281254
vn 0.468845 0.874337 0.125378
v -0.041374 -0.044974 -0.321969
vn 0.393660 -0.175753 0.902299
v -0.002302 0.000075 -0.446185
vn 0.902863 0.424897 -0.065587
v -0.041570 -0.051427 -0.081914
# 12 vertices, 0 vertices normals

f 12//12 1//1 10//10
f 6//6 5//5 1//1
f 1//1 12//12 8//8
f 9//9 7//7 12//12
f 2//2 7//7 9//9
f 4//4 6//6 2//2
f 10//10 1//1 3//3
f 10//10 3//3 11//11
f 10//10 11//11 9//9
f 2//2 1//1 7//7
f 5//5 11//11 3//3
f 2//2 9//9 4//4
f 11//11 4//4 9//9
f 4//4 11//11 5//5
f 1//1 5//5 3//3
f 4//4 5//5 6//6
f 6//6 1//1 2//2
f 1//1 8//8 7//7
f 10//10 9//9 12//12
f 12//12 7//7 8//8
# 20 faces, 0 coords texture

# End of File