####
#
# OBJ File Generated by Meshlab
#
####
# Object r_uleg_chull.obj
#
# Vertices: 12
# Faces: 20
#
####
vn 0.257592 0.965516 0.037754
v -0.074878 -0.128698 -0.160943
vn 0.479429 -0.804583 0.350418
v -0.068245 0.047979 -0.398457
vn -0.325112 0.909964 0.257424
v 0.021366 -0.088323 -0.341291
vn -0.546167 -0.837080 -0.031595
v 0.045276 0.083935 -0.105583
vn -0.529472 -0.792550 0.302530
v 0.017996 0.056169 -0.341816
vn -0.880387 0.459416 -0.117707
v 0.088535 -0.057201 -0.132869
vn -0.525433 -0.456808 -0.717807
v 0.005835 0.025359 0.030217
vn 0.345089 0.627150 -0.698282
v -0.011469 -0.097130 0.051184
vn 0.649125 -0.717353 -0.253063
v -0.094235 0.078808 -0.085638
vn 0.992373 0.104169 -0.065920
v -0.121126 -0.019484 -0.142103
vn -0.899801 -0.142383 0.412415
v 0.064432 -0.024045 -0.354939
vn 0.691447 0.503451 0.518110
v -0.067616 -0.037120 -0.401063
# 12 vertices, 0 vertices normals

f 1//1 12//12 10//10
f 7//7 9//9 4//4
f 8//8 6//6 1//1
f 10//10 2//2 9//9
f 9//9 7//7 8//8
f 10//10 8//8 1//1
f 4//4 6//6 7//7
f 6//6 3//3 1//1
f 9//9 2//2 4//4
f 11//11 6//6 4//4
f 5//5 11//11 4//4
f 12//12 3//3 11//11
f 11//11 3//3 6//6
f 4//4 2//2 5//5
f 2//2 11//11 5//5
f 12//12 1//1 3//3
f 2//2 10//10 12//12
f 6//6 8//8 7//7
f 8//8 10//10 9//9
f 2//2 12//12 11//11
# 20 faces, 0 coords texture

# End of File