####
#
# OBJ File Generated by Meshlab
#
####
# Object utorso_chull.obj
#
# Vertices: 12
# Faces: 20
#
####
vn -0.060471 -0.985137 0.160777
v 0.083065 0.237161 0.141431
vn -0.075924 0.985215 0.153578
v 0.081882 -0.246494 0.138109
vn 0.841908 0.360153 0.401846
v -0.119230 -0.104578 0.029923
vn 0.548206 -0.496516 0.673010
v -0.114967 0.086977 -0.007449
vn 0.717501 -0.655361 -0.235996
v -0.186579 0.186061 0.580247
vn -0.750551 -0.649421 -0.122174
v 0.262201 0.155230 0.552626
vn -0.673184 0.702831 -0.229895
v 0.260902 -0.156854 0.553204
vn -0.812587 0.285359 0.508206
v 0.211217 -0.074377 0.043077
vn -0.709352 -0.460312 0.533791
v 0.210446 0.074118 0.043661
vn -0.391537 -0.447524 -0.804003
v 0.156034 0.071271 0.729451
vn 0.606180 0.755733 -0.247817
v -0.185740 -0.187876 0.574937
vn 0.183728 0.313230 -0.931736
v 0.066444 -0.052658 0.763671
# 12 vertices, 0 vertices normals

f 5//5 10//10 12//12
f 11//11 2//2 3//3
f 5//5 4//4 1//1
f 9//9 4//4 8//8
f 2//2 11//11 7//7
f 7//7 11//11 12//12
f 3//3 2//2 8//8
f 3//3 8//8 4//4
f 10//10 5//5 6//6
f 5//5 1//1 6//6
f 4//4 9//9 1//1
f 9//9 6//6 1//1
f 7//7 8//8 2//2
f 5//5 11//11 3//3
f 5//5 3//3 4//4
f 12//12 11//11 5//5
f 8//8 7//7 6//6
f 8//8 6//6 9//9
f 7//7 10//10 6//6
f 7//7 12//12 10//10
# 20 faces, 0 coords texture

# End of File