# https://github.com/mikedh/trimesh

o piece_000.obj
v -0.00083619 0.26490960 -0.05656461
v 0.00973399 0.26468652 -0.06199579
v 0.00970822 0.26453894 -0.03759501
v -0.00101127 0.26481771 -0.03917829
v -0.00117118 0.26468676 -0.02527795
v 0.01005595 0.26426190 -0.01071085
v -0.00137390 0.26441097 -0.00774303
v 0.00095803 0.26520321 -0.10757134
v 0.01357576 0.26482922 -0.10714123
v -0.01378192 0.26419392 -0.00989975
v -0.01675963 0.26442319 -0.04883198
v -0.01831874 0.26427117 -0.03209331
v -0.01909571 0.26395515 -0.00744999
v -0.01067159 0.26491579 -0.10728510
v 0.00101566 0.26514986 -0.11109728
v -0.01859839 0.26453722 -0.10679006
v -0.01826801 0.26379848 -0.00077356
v 0.01546991 0.26420024 -0.02878798
v 0.01854769 0.26383319 -0.01273338
v 0.01386801 0.26401883 -0.00660600
v 0.01665187 0.26456943 -0.10136501
v 0.01639049 0.26439387 -0.06921805
v 0.01391122 0.26380566 -0.00084246
v -0.01714291 0.26449516 -0.11091556
v -0.03130927 0.26306185 -0.00048513
v -0.02659653 0.26350862 -0.00872899
v -0.02640165 0.26363319 -0.03557789
v -0.02557997 0.26383808 -0.10601971
v -0.04435213 0.26166716 -0.01072781
v -0.04321747 0.26178735 -0.03952846
v -0.04325723 0.26168969 -0.07673715
v -0.04330359 0.26160547 -0.09393234
v -0.03820906 0.26251090 -0.00055191
v -0.02621251 0.26365793 -0.11079265
v -0.03562222 0.26259357 -0.11101875
v -0.03650703 0.26257321 -0.10664108
v 0.01586759 0.26454780 -0.11100504
v 0.02668509 0.26314825 -0.00792263
v 0.02302701 0.26331326 -0.00227721
v 0.02264668 0.26412007 -0.10628724
v 0.02867518 0.26341370 -0.08518269
v 0.02647614 0.26372865 -0.09768037
v -0.02573934 0.26350966 -0.11281389
v 0.02918108 0.26285037 -0.00045709
v 0.04211542 0.26176670 -0.07096104
v 0.03770747 0.26242658 -0.08767232
v 0.03765337 0.26194778 -0.01157717
v 0.03376829 0.26290047 -0.10665084
v 0.02587031 0.26349685 -0.11261672
v 0.03255903 0.26292148 -0.11116185
v 0.04116439 0.26190031 -0.10148013
v 0.04313019 0.26173034 -0.08970172
v 0.04278219 0.26115561 -0.00731384
v 0.04544021 0.26070526 -0.00036615
v 0.04300736 0.26133746 -0.11154161
v 0.04682541 0.26087099 -0.10716818
v 0.04823444 0.26049820 -0.11089827
v 0.05168757 0.26014990 -0.09673261
v 0.05274484 0.25989354 -0.07799588
v 0.06757498 0.25588217 -0.00765636
v 0.07822884 0.25323334 -0.00723948
v 0.07003143 0.25571641 -0.05521771
v 0.06263611 0.25760934 -0.05687935
v 0.07003989 0.25585905 -0.07716675
v 0.06240473 0.25786856 -0.07711302
v 0.06279803 0.25776950 -0.09596106
v 0.07094436 0.25555804 -0.09769613
v 0.07909784 0.25327030 -0.08964355
v 0.07786787 0.25353098 -0.10544749
v 0.07874662 0.25329947 -0.05744759
v 0.05761072 0.25895417 -0.09635045
v 0.05339934 0.25957599 -0.10614903
v 0.05603038 0.25889528 -0.11129428
v 0.06034567 0.25815845 -0.10626008
v 0.01901766 0.26401699 -0.11282751
v 0.06022994 0.25746888 -0.00080990
v 0.06580574 0.25671238 -0.11093738
v 0.06746034 0.25634664 -0.10651586
v 0.07461896 0.25414547 -0.00044625
v 0.03581546 0.26212347 -0.11293449
v 0.05525193 0.25896770 -0.11252603
v 0.07909119 0.25301018 -0.11118484
v 0.06404226 0.25701407 -0.11267555
v 0.08480211 0.25124973 -0.00761716
v 0.08712894 0.25056469 -0.02772314
v 0.08580394 0.25109744 -0.05739574
v 0.08563653 0.25122842 -0.09434874
v 0.08482935 0.25139040 -0.10669619
v 0.09113873 0.24908146 -0.00509346
v 0.08677988 0.25051272 -0.00043536
v 0.08729184 0.25042447 -0.11162327
v 0.10408408 0.24450684 -0.00896096
v 0.09710978 0.24701948 -0.01192884
v 0.09064545 0.24946757 -0.09049673
v 0.09014641 0.24957186 -0.10586787
v 0.09713002 0.24708304 -0.05947394
v 0.09840199 0.24662355 -0.07592770
v 0.09012162 0.24961022 -0.05965251
v 0.09737874 0.24698158 -0.09521146
v 0.09898544 0.24627957 -0.10560734
v 0.09418530 0.24793634 -0.11101027
v 0.10807279 0.24282290 -0.10630772
v 0.10445083 0.24431056 -0.09273744
v 0.10936095 0.24240579 -0.08964219
v 0.11178970 0.24137203 -0.00627258
v 0.11420922 0.24033494 -0.07485562
v 0.11337097 0.24061933 -0.09688798
v 0.11550914 0.23948023 -0.11048089
v 0.07172766 0.25466749 -0.11292715
v 0.11021408 0.24177031 -0.11069670
v 0.06714235 0.25592643 -0.11295392
v 0.10490327 0.24389255 -0.11128401
v 0.09828351 0.24624358 -0.11266939
v 0.10455575 0.24389604 -0.11262010
v 0.09225925 0.24837208 -0.11274924
v 0.10966238 0.24173747 -0.11259689
v 0.11815708 0.23850629 -0.02303447
v 0.12247275 0.23651999 -0.00728632
v 0.11938500 0.23794037 -0.07431501
v 0.11855338 0.23824714 -0.09638597
v 0.12182547 0.23655212 -0.10595919
v 0.12810312 0.23370422 -0.01551073
v 0.12802033 0.23362868 -0.07826179
v 0.12639068 0.23428722 -0.10586750
v 0.11935242 0.23761445 -0.11096971
v 0.13164635 0.23167428 -0.09583663
v 0.11910131 0.23743209 -0.11280821
v 0.13305521 0.23107392 -0.00290709
v 0.13402104 0.23057103 -0.01290338
v 0.13328888 0.23078078 -0.08679523
v 0.13307865 0.23094234 -0.07562797
v 0.12836447 0.23311694 -0.11122960
v 0.13144755 0.23196559 -0.00057025
v 0.13369587 0.23025280 -0.11108057
v -0.04641547 0.26098472 -0.10644416
v -0.05149285 0.26020309 -0.07580399
v 0.14002159 0.22664069 -0.11054467
v 0.13794564 0.22796959 -0.10120858
v 0.14107402 0.22643259 -0.00820803
v 0.14424939 0.22425038 -0.08012514
v 0.15012950 0.22058354 -0.09573781
v 0.15194204 0.21966887 -0.00827977
v 0.14603619 0.22285041 -0.11123713
v 0.15374109 0.21801506 -0.11052107
v 0.14303559 0.22473896 -0.11119115
v 0.15194324 0.21940586 -0.08186639
v 0.15444069 0.21786164 -0.00056157
v 0.14818569 0.22183518 -0.00037716
v 0.15217677 0.21878763 -0.11272562
v 0.16693614 0.20896289 -0.10489115
v 0.16507703 0.21007907 -0.11085946
v 0.16250545 0.21181731 -0.11268920
v 0.16488683 0.21057238 -0.07769667
v 0.16441029 0.21099465 -0.01171093
v 0.15885030 0.21494529 -0.00065663
v 0.16027078 0.21354210 -0.11089209
v 0.15907846 0.21413775 -0.11276646
v 0.16817112 0.20820810 -0.00695686
v 0.16860566 0.20790684 -0.05840207
v 0.16869010 0.20781681 -0.08153810
v 0.16846023 0.20789857 -0.09623458
v 0.16860169 0.20790994 -0.03885577
v 0.17013693 0.20662068 -0.00396483
v 0.15620191 0.21624617 -0.11252661
v 0.17064527 0.20592685 -0.11131261
v 0.17514797 0.20277049 -0.01147345
v 0.17488937 0.20293798 -0.07498352
v 0.17420483 0.20338742 -0.09961989
v 0.17549154 0.20227516 -0.10608860
v 0.18017490 0.19858378 -0.07561065
v 0.18094440 0.19781901 -0.09728202
v 0.17756937 0.20077142 -0.00894899
v 0.18071374 0.19820176 -0.02582995
v 0.16432960 0.21031675 -0.11291824
v 0.17361365 0.20332599 -0.11285231
v 0.17924826 0.19891202 -0.11098593
v 0.18140465 0.19725427 -0.10626208
v 0.18424210 0.19504045 -0.00583298
v 0.18686251 0.19275506 -0.01418429
v 0.18704353 0.19211751 -0.10701127
v 0.19036056 0.18948020 -0.02102975
v 0.19127198 0.18843417 -0.07506427
v 0.19042553 0.18915640 -0.09513753
v 0.18903761 0.19020742 -0.00066343
v 0.19252999 0.18729456 -0.00576269
v 0.18699744 0.19179624 -0.11271415
v 0.18959518 0.18946899 -0.11100013
v 0.19239530 0.18702658 -0.10644567
v 0.19391197 0.18526635 -0.11101794
v 0.19745290 0.18232560 -0.07833441
v 0.19693831 0.18298526 -0.02442371
v 0.19747381 0.18245944 -0.01285588
v 0.20099063 0.17830923 -0.10616358
v 0.19713181 0.18252282 -0.09372005
v 0.19107537 0.18778184 -0.11279428
v 0.19948815 0.17990486 -0.00058331
v 0.19547333 0.18341707 -0.11280772
v 0.20122507 0.17843087 -0.00503780
v 0.20502295 0.17382272 -0.11070254
v 0.20719503 0.17210047 -0.01183738
v 0.20722513 0.17157307 -0.10601000
v 0.20717144 0.17188591 -0.07684797
v 0.20755671 0.17158990 -0.03593760
v 0.19890751 0.17986062 -0.11301871
v 0.19999592 0.17914636 -0.11086039
v 0.20394491 0.17475982 -0.11274609
v 0.20731379 0.17175803 -0.00488660
v 0.20802703 0.17063563 -0.00082190
v 0.20982970 0.16846281 -0.11099948
v 0.21251220 0.16582122 -0.00728553
v 0.21245487 0.16551681 -0.10669445
v 0.21692745 0.16013162 -0.10611245
v 0.21668746 0.16066802 -0.04231757
v 0.21278781 0.16537796 -0.04201720
v 0.21730842 0.16004638 -0.00726417
v 0.21081086 0.16730872 -0.00052978
v 0.21499020 0.16225931 -0.11119741
v 0.21327052 0.16408391 -0.11284838
v 0.22164415 0.15445337 -0.00512957
v 0.22072698 0.15537205 -0.10647266
v 0.22190358 0.15418686 -0.01255375
v 0.22220069 0.15371840 -0.04027160
v 0.22150497 0.15445368 -0.08473255
v 0.22144893 0.15415962 -0.11129922
v 0.22465490 0.15000661 -0.00076191
v 0.22310531 0.15226795 -0.08504657
v 0.22479863 0.14974374 -0.10635383
v 0.22549008 0.14859395 -0.11090596
v 0.22293270 0.15180558 -0.11280248
v 0.22664578 0.14764217 -0.01096744
v 0.22760978 0.14616796 -0.00592352
v 0.22658958 0.14731586 -0.00061048
v 0.23318830 0.13757949 -0.09458341
v 0.23101687 0.14053041 -0.10665457
v 0.23349085 0.13733721 -0.07711337
v 0.23363493 0.13727511 -0.04067569
v 0.23369870 0.13728051 -0.01336395
v 0.23163004 0.13996279 -0.00050782
v 0.23532240 0.13449919 -0.00053870
v 0.23366761 0.13720462 -0.00421347
v 0.22910395 0.14307193 -0.11266772
v 0.23099677 0.14038768 -0.11117519
v 0.23479080 0.13468248 -0.10628448
v 0.23333119 0.13664649 -0.11258259
v 0.23634404 0.13203450 -0.11128601
v 0.23179811 0.13856275 -0.11294518
v 0.23837529 0.12887833 -0.10657310
v 0.23889996 0.12818490 -0.09731746
v 0.23738113 0.13112673 -0.00773282
v 0.23803775 0.12987331 -0.00235587
v 0.24327721 0.12072616 -0.00856812
v 0.24528326 0.11680839 -0.06823263
v 0.24708204 0.11329264 -0.09702327
v 0.24138856 0.12347758 -0.10630636
v 0.24687795 0.11351798 -0.10526232
v 0.24695030 0.11373941 -0.06053470
v 0.24744338 0.11285833 -0.00734570
v 0.24728583 0.11319245 -0.01751458
v 0.24560088 0.11589473 -0.10675630
v 0.24399315 0.11857118 -0.11141955
v 0.24356396 0.11989656 -0.00064380
v 0.24402611 0.11806861 -0.11272902
v 0.24623978 0.11392249 -0.11278990
v 0.24719483 0.11243699 -0.11159755
v 0.24838215 0.11076370 -0.00072098
v 0.25192496 0.10362448 -0.00957236
v 0.25126249 0.10477134 -0.00065574
v 0.25304449 0.10105938 -0.00479574
v 0.25215542 0.10225876 -0.10647541
v 0.25289059 0.10094605 -0.07063726
v 0.25278252 0.10045958 -0.11267715
v 0.25395551 0.09893132 -0.00053738
v 0.25483817 0.09591629 -0.11269478
v 0.25525871 0.09586759 -0.00194518
v 0.25526786 0.09586773 -0.01575118
v 0.25550309 0.09498062 -0.07527889
v 0.25527737 0.09529801 -0.09879283
v 0.25492337 0.09600035 -0.10614743
v 0.25742939 0.09055654 -0.01327351
v 0.25703979 0.09143047 -0.00217623
v 0.25694913 0.09083530 -0.10672490
v 0.25978002 0.08327089 -0.10719599
v 0.25916776 0.08471709 -0.11145733
v 0.25682783 0.09095760 -0.11132511
v 0.26128522 0.07879552 -0.11277249
v 0.26213530 0.07673249 -0.10682913
v 0.26232570 0.07703038 -0.00592311
v 0.25936583 0.08550811 -0.01221319
v 0.26213467 0.07752346 -0.01821757
v 0.25920126 0.08566865 -0.07510155
v 0.26191902 0.07781400 -0.07782193
v 0.25907150 0.08571190 -0.09213918
v 0.26016164 0.08333322 -0.00056215
v 0.25610593 0.09180129 -0.11295274
v 0.26301152 0.07380371 -0.11143454
v 0.26246226 0.07636376 -0.00058241
v 0.26421937 0.07042932 -0.07378424
v 0.26460055 0.06850599 -0.10647853
v 0.26455376 0.06956013 -0.00849220
v 0.26436856 0.06967147 -0.09784989
v 0.18493341 0.19337952 -0.11304562
v 0.26552051 0.06490179 -0.11120383
v 0.26743752 0.05910401 -0.00246786
v 0.26335055 0.07196981 -0.11291298
v 0.26711628 0.05999105 -0.09880515
v 0.26723567 0.05980549 -0.07753339
v 0.26719007 0.05915702 -0.10661899
v 0.26767364 0.05671940 -0.11140873
v 0.26909009 0.05132850 -0.10729156
v 0.26897681 0.05225130 -0.10001154
v 0.26780650 0.05570025 -0.11276581
v 0.26565638 0.06409794 -0.11272125
v 0.26955897 0.04787346 -0.11290199
v 0.27127612 0.04120416 -0.06535193
v 0.27143124 0.04018165 -0.00040876
v 0.27113956 0.04194055 -0.00531762
v 0.27094376 0.04275618 -0.09867199
v 0.22859026 -0.14430971 -0.11262058
v 0.22774926 -0.14529340 -0.11295647
v 0.22473307 -0.14990884 -0.11259257
v 0.22102535 -0.15495312 -0.11133699
v 0.22786863 -0.14575569 -0.08064730
v 0.22249606 -0.15312441 -0.09835946
v 0.22828083 -0.14507681 -0.10019223
v 0.22238012 -0.15342665 -0.08012504
v 0.22385098 -0.15149888 -0.06199326
v 0.22277555 -0.15309016 -0.03885583
v 0.22742659 -0.14656250 -0.03861495
v 0.22554341 -0.14942506 -0.00660711
v 0.23084337 -0.14167622 -0.00727381
v 0.23376656 -0.13711222 -0.07977994
v 0.23380724 -0.13679141 -0.09930629
v 0.23384768 -0.13709649 -0.05380609
v 0.23382933 -0.13720682 -0.02109856
v 0.23317321 -0.13739808 -0.11130472
v 0.23648925 -0.13211571 -0.11258502
v 0.22163203 -0.15469240 -0.00629501
v 0.21666588 -0.16115373 -0.00655499
v 0.21672790 -0.16046394 -0.10548782
v 0.21752854 -0.15944605 -0.11263531
v 0.21904241 -0.15736890 -0.11292858
v 0.22264846 -0.15326585 -0.00067459
v 0.23510312 -0.13524051 -0.00053925
v 0.21933335 -0.15747675 -0.00055778
v 0.20748726 -0.17162630 -0.07608708
v 0.20717834 -0.17182602 -0.09746365
v 0.20757847 -0.17179503 -0.01607430
v 0.20728171 -0.17211290 -0.00680606
v 0.21429822 -0.16328122 -0.11271003
v 0.21447362 -0.16353026 -0.00062556
v 0.20853157 -0.17020127 -0.11268014
v 0.23850285 -0.12884085 -0.10552653
v 0.23907900 -0.12805131 -0.09929212
v 0.21080008 -0.16725342 -0.11292458
v 0.23916234 -0.12838484 -0.00490576
v 0.23961726 -0.12730762 -0.07638738
v 0.20495874 -0.17405154 -0.11303151
v 0.19997367 -0.17948073 -0.10650735
v 0.19942786 -0.17997026 -0.11278580
v 0.19880404 -0.18084382 -0.09019604
v 0.19874130 -0.18099102 -0.07964374
v 0.19083509 -0.18923049 -0.01918175
v 0.19026385 -0.18919623 -0.11101120
v 0.19068688 -0.18904603 -0.09820127
v 0.19048499 -0.18935445 -0.07729784
v 0.19919771 -0.18064336 -0.03626604
v 0.20000117 -0.17981663 -0.01992577
v 0.19038653 -0.18953736 -0.00693600
v 0.19830240 -0.18145354 -0.00601499
v 0.20155570 -0.17796235 -0.00064526
v 0.18977481 -0.18953447 -0.11310796
v 0.18466432 -0.19473432 -0.00068546
v 0.18187279 -0.19699360 -0.11274547
v 0.18001044 -0.19900317 -0.07550045
v 0.18024153 -0.19888122 -0.02178949
v 0.18009594 -0.19884902 -0.00729381
v 0.18048646 -0.19846448 -0.10009562
v 0.17996179 -0.19878776 -0.10610974
v 0.17972255 -0.19906504 -0.00072073
v 0.17490065 -0.20325202 -0.00074274
v 0.17141344 -0.20637992 -0.00154117
v 0.17167042 -0.20577765 -0.09879480
v 0.17224780 -0.20500620 -0.11262426
v 0.16876623 -0.20797855 -0.10521246
v 0.16458757 -0.21117416 -0.11126699
v 0.16873315 -0.20785441 -0.11282010
v 0.16462810 -0.21129443 -0.09797572
v 0.15873170 -0.21564846 -0.11262136
v 0.16589795 -0.20994505 -0.11290766
v 0.15534660 -0.21803327 -0.09907757
v 0.15618147 -0.21738337 -0.11082570
v 0.15576994 -0.21821326 -0.00065848
v 0.14724146 -0.22361360 -0.01828627
v 0.14639263 -0.22416249 -0.00684897
v 0.14805044 -0.22288080 -0.09682325
v 0.15177809 -0.22032942 -0.11287732
v 0.14832532 -0.22252603 -0.11267153
v 0.21629597 -0.16091318 -0.00050646
v 0.14395240 -0.22561622 -0.00058694
v 0.23987089 -0.12614383 -0.11257830
v 0.24351706 -0.11958740 -0.11105398
v 0.24396241 -0.11905123 -0.10607684
v 0.24449927 -0.11827175 -0.10024913
v 0.24493203 -0.11765911 -0.07451614
v 0.24463946 -0.11849190 -0.00746443
v 0.24800913 -0.11205501 -0.00455678
v 0.24209540 -0.12206984 -0.11259774
v 0.24746257 -0.11234297 -0.10713425
v 0.24742405 -0.11275264 -0.09906927
v 0.24629807 -0.11414593 -0.11270487
v 0.24357364 -0.11899985 -0.11293008
v 0.25107965 -0.10572733 -0.00698449
v 0.25328773 -0.10109826 -0.00691621
v 0.25303525 -0.10098924 -0.07844633
v 0.25270364 -0.10115276 -0.10668804
v 0.25255355 -0.10109583 -0.11242737
v 0.25305375 -0.10064751 -0.09925705
v 0.25014949 -0.10636306 -0.11127470
v 0.25541967 -0.09617348 -0.00166989
v 0.25479233 -0.09603639 -0.11270661
v 0.25571761 -0.09422321 -0.10702879
v 0.25613666 -0.09369949 -0.09929181
v 0.25666884 -0.09333234 -0.00592556
v 0.25590545 -0.09503092 -0.00051225
v 0.25707114 -0.09217251 -0.00191945
v 0.25677708 -0.09122597 -0.11135727
v 0.25941977 -0.08534294 -0.07827015
v 0.25961155 -0.08563213 -0.00671767
v 0.25920483 -0.08541247 -0.09770930
v 0.26126960 -0.07908548 -0.11255664
v 0.26090983 -0.08190867 -0.00050382
v 0.26252711 -0.07730760 -0.00634946
v 0.25703597 -0.09002870 -0.11274321
v 0.26254177 -0.07538345 -0.11275391
v 0.26200199 -0.07756107 -0.09792586
v 0.26277667 -0.07650793 -0.00043130
v 0.26523733 -0.06698436 -0.09935363
v 0.26368609 -0.07138905 -0.11287256
v 0.26534411 -0.06609800 -0.11124266
v 0.23868111 -0.12798515 -0.11293036
v 0.26748198 -0.05824740 -0.10472289
v 0.26564395 -0.06442633 -0.11272166
v 0.26769856 -0.05678254 -0.11141117
v 0.26768622 -0.05625565 -0.11273970
v 0.26965615 -0.04874481 -0.11122770
v 0.26927447 -0.05062815 -0.10149571
v 0.27060851 -0.04447092 -0.09846115
v 0.27114433 -0.04262734 -0.00652150
v 0.27069029 -0.04373812 -0.10567158
v 0.27123436 -0.04050641 -0.11137399
v 0.13814744 -0.22867703 -0.09938232
v 0.14474040 -0.22467679 -0.11259925
v 0.13543877 -0.23017663 -0.11132403
v 0.13134854 -0.23266356 -0.01879723
v 0.13760003 -0.22921880 -0.00626181
v 0.12992020 -0.23316011 -0.11117510
v 0.13114056 -0.23262927 -0.10030740
v 0.14065059 -0.22746722 -0.00057482
v 0.20280515 -0.17626056 -0.11307660
v 0.27268851 -0.03178116 -0.00208991
v 0.27349553 -0.02616755 -0.00660193
v 0.27334768 -0.02617956 -0.10266141
v 0.27186212 -0.03632712 -0.10633391
v 0.27331138 -0.02528343 -0.11128090
v 0.27204260 -0.03448303 -0.11273934
v 0.27298668 -0.02932573 -0.00060535
v 0.27434504 -0.01545985 -0.11124875
v 0.27418545 -0.01797479 -0.04447616
v 0.27416787 -0.01764432 -0.01557509
v 0.27327779 -0.02396695 -0.11271728
v 0.27421644 -0.01674386 -0.00157204
v 0.27397993 -0.01828534 -0.00056912
v 0.12433615 -0.23634072 -0.00059081
v 0.11247107 -0.24152669 -0.08304892
v 0.11203930 -0.24165234 -0.10385410
v 0.12153443 -0.23729484 -0.09827892
v 0.12258837 -0.23675849 -0.10592780
v 0.12131476 -0.23732716 -0.11125786
v 0.11597220 -0.23983219 -0.11263208
v 0.12041638 -0.23757821 -0.11284708
v 0.12497733 -0.23549922 -0.11267851
v 0.10945695 -0.24305314 -0.00061291
v 0.10499342 -0.24440725 -0.10787504
v 0.10096031 -0.24592467 -0.11133563
v 0.10558347 -0.24405637 -0.11271575
v 0.10442328 -0.24475884 -0.09900996
v 0.09559700 -0.24818751 -0.09938322
v 0.08901381 -0.25047922 -0.11148682
v 0.09421671 -0.24842760 -0.11282922
v 0.09495586 -0.24846986 -0.00938385
v 0.08729704 -0.25114605 -0.09868731
v 0.08565810 -0.25185746 -0.00051226
v 0.08396752 -0.25209528 -0.10786396
v 0.08145071 -0.25280765 -0.11278444
v 0.23691721 -0.13094985 -0.11293431
v 0.07896373 -0.25372598 -0.10007367
v 0.07898307 -0.25372863 -0.07711866
v 0.07506868 -0.25469747 -0.11270472
v 0.07032423 -0.25608340 -0.07676470
v 0.07068477 -0.25594252 -0.09954946
v 0.06930526 -0.25644049 -0.00058396
v 0.06156694 -0.25828174 -0.07708254
v 0.06154893 -0.25823402 -0.09863566
v 0.06184262 -0.25826231 -0.02129739
v 0.06594574 -0.25699365 -0.11186726
v 0.05307461 -0.25998476 -0.10444929
v 0.05295042 -0.26008379 -0.09488624
v 0.06109016 -0.25841495 -0.00056126
v 0.05692346 -0.25898382 -0.11142958
v 0.05107084 -0.26075125 -0.00049753
v 0.04643355 -0.26111794 -0.11129817
v 0.27457407 -0.01095296 -0.05974725
v 0.27455962 -0.01161482 -0.03464094
v 0.27463314 -0.00867972 -0.00814667
v 0.27497917 -0.00042621 -0.03140885
v 0.27483308 -0.00065107 -0.00820972
v 0.27500001 -0.00078662 -0.04950643
v 0.27419949 -0.01287877 -0.11273663
v 0.27487701 -0.00251980 -0.11144181
v 0.27473295 -0.00120657 -0.00147827
v 0.27461529 0.00916598 -0.01484588
v 0.27471539 0.00920929 -0.02867577
v 0.27472642 0.00994674 -0.05211462
v 0.27433836 0.01346285 -0.00147320
v 0.27425802 0.01664496 -0.00820788
v 0.27439639 0.01634346 -0.03943739
v 0.27468961 0.00894151 -0.11144619
v 0.27437192 0.01575554 -0.11123919
v 0.27347225 0.02535943 -0.00284594
v 0.27405065 0.01609031 -0.11277464
v 0.27340513 0.02629802 -0.10409622
v 0.27335259 0.02669663 -0.01379915
v 0.27347231 0.02640284 -0.03098585
v 0.27342969 0.02632613 -0.09736139
v 0.27325556 0.02631667 -0.11133434
v 0.27252010 0.03225789 -0.00061092
v 0.27232009 0.03478973 -0.04332699
v 0.27198389 0.03636285 -0.00451884
v 0.27128702 0.04150464 -0.03712600
v 0.27071351 0.04359885 -0.10633431
v 0.27176401 0.03765751 -0.10700206
v 0.27156851 0.03882184 -0.11138563
v 0.26999807 0.04679939 -0.11276036
v 0.26973414 0.04825297 -0.11134921
v -0.22132558 -0.15437746 -0.11119235
v -0.22545132 -0.14879969 -0.11285630
v -0.21831535 -0.15814459 -0.11289497
v -0.22715545 -0.14643987 -0.10692424
v -0.22048049 -0.15563121 -0.10392161
v -0.22693209 -0.14680474 -0.09893787
v -0.22697161 -0.14715064 -0.00751461
v -0.23400036 -0.13604254 -0.09875301
v -0.22076780 -0.15572198 -0.00075853
v -0.23308703 -0.13729490 -0.11282665
v -0.23817098 -0.12923737 -0.10647105
v -0.22663197 -0.14753312 -0.00069459
v -0.23585467 -0.13402262 -0.00066946
v -0.23855506 -0.12964256 -0.00074183
v -0.24698591 -0.11346348 -0.10121104
v -0.24704517 -0.11325181 -0.10558230
v -0.24239141 -0.12153254 -0.11158641
v -0.24618018 -0.11444068 -0.11298604
v -0.24702373 -0.11432242 -0.00079503
v -0.24456759 -0.11859488 -0.00074433
v -0.24842794 -0.11006887 -0.11151883
v -0.21326907 -0.16449237 -0.10555315
v -0.21456005 -0.16281074 -0.11137803
v -0.21352392 -0.16424297 -0.10025015
v -0.20763135 -0.17115390 -0.07665641
v -0.20735899 -0.17176941 -0.02217519
v -0.21455134 -0.16354091 -0.00067147
v -0.21195143 -0.16667341 -0.00066935
v -0.21003890 -0.16821454 -0.11287251
v -0.20646635 -0.17281748 -0.00790250
v -0.20609879 -0.17271499 -0.10017454
v -0.20905036 -0.16983829 -0.00069834
v -0.20564432 -0.17371385 -0.00083996
v -0.20809811 -0.17040049 -0.11283334
v -0.19741720 -0.18221323 -0.07333882
v -0.19708872 -0.18278462 -0.01713952
v -0.19798990 -0.18145484 -0.09817841
v -0.19825399 -0.18154162 -0.00081455
v -0.19795345 -0.18128304 -0.11081978
v -0.19097745 -0.18873440 -0.07649468
v -0.18956406 -0.19025095 -0.02005067
v -0.18900433 -0.19076349 -0.00923474
v -0.18933798 -0.19019306 -0.09746423
v -0.19243304 -0.18731795 -0.00080088
v -0.18828283 -0.19132157 -0.07347271
v -0.18812278 -0.19106804 -0.11284748
v -0.18819624 -0.19140786 -0.00088980
v -0.18046665 -0.19803323 -0.11295982
v -0.17962098 -0.19895792 -0.07358808
v -0.17943563 -0.19920772 -0.01739868
v -0.17665887 -0.20142134 -0.07218973
v -0.16776101 -0.20871949 -0.00082047
v -0.16963050 -0.20691128 -0.10541352
v -0.17114660 -0.20566919 -0.11058142
v -0.17151603 -0.20520283 -0.11317264
v -0.16869991 -0.20754716 -0.11289853
v -0.16326079 -0.21153571 -0.09982213
v -0.15379515 -0.21816510 -0.11286370
v -0.15814497 -0.21564709 -0.00078945
v -0.14607909 -0.22325888 -0.09986385
v -0.15323699 -0.21892637 -0.00069530
v -0.14311442 -0.22500131 -0.11166548
v -0.13741773 -0.22884467 -0.00807399
v -0.13032968 -0.23246737 -0.10002995
v -0.12927853 -0.23297834 -0.10571522
v -0.12832697 -0.23342584 -0.11284661
v -0.12146202 -0.23700738 -0.11170118
v -0.11615097 -0.23954503 -0.11149208
v -0.11545090 -0.23983105 -0.11289869
v -0.11330448 -0.24112132 -0.00930161
v -0.10885125 -0.24319938 -0.00070420
v -0.11084010 -0.24227861 -0.00071509
v -0.11105612 -0.24172133 -0.11174031
v -0.10389202 -0.24476902 -0.11155185
v -0.09661181 -0.24789214 -0.00151195
v -0.09257890 -0.24907048 -0.10641430
v -0.09341072 -0.24873839 -0.11144026
v -0.09989160 -0.24626186 -0.11276859
v -0.10424735 -0.24443650 -0.11291648
v -0.08702388 -0.25097394 -0.10361971
v -0.09435437 -0.24827208 -0.11285309
v -0.08805085 -0.25058088 -0.11246064
v -0.08324315 -0.25220111 -0.10696115
v -0.08124335 -0.25281084 -0.11282072
v -0.07512485 -0.25470155 -0.11282210
v -0.07777465 -0.25395471 -0.00055439
v -0.06098580 -0.25845432 -0.02002896
v -0.06138895 -0.25832760 -0.00820098
v -0.06199406 -0.25806671 -0.09873775
v -0.06963525 -0.25615284 -0.09971614
v -0.06005169 -0.25840849 -0.10615183
v -0.05142329 -0.26074901 -0.00050223
v -0.04655154 -0.26123351 -0.11285263
v -0.05013094 -0.26057121 -0.10643003
v -0.05189443 -0.26025850 -0.09758580
v -0.04318845 -0.26191679 -0.09877661
v -0.04373591 -0.26191020 -0.01793915
v -0.03882530 -0.26256207 -0.11136667
v -0.06606581 -0.25699484 -0.11303908
v -0.04173126 -0.26212588 -0.00059124
v -0.03874652 -0.26237208 -0.11292724
v -0.03175423 -0.26336396 -0.11282093
v -0.02674607 -0.26400977 -0.09961028
v -0.02710964 -0.26365802 -0.00903266
v -0.02565587 -0.26402763 -0.10590743
v -0.02536186 -0.26397011 -0.11151471
v -0.01552584 -0.26484716 -0.10053445
v -0.01612472 -0.26464915 -0.11141013
v -0.01633337 -0.26438296 -0.01252214
v -0.01701737 -0.26419961 -0.00487075
v -0.01361567 -0.26465553 -0.11285140
v -0.01144641 -0.26433799 -0.00070751
v -0.00560206 -0.26475325 -0.00952616
v -0.00062724 -0.26487061 -0.01307804
v -0.00008742 -0.26520321 -0.10027953
v -0.01149279 -0.26490670 -0.10654708
v -0.00180914 -0.26513422 -0.11157604
v 0.00012243 -0.26461181 -0.00069911
v 0.00068671 -0.26501429 -0.11290941
v 0.00665343 -0.26505998 -0.11129909
v 0.01039331 -0.26467794 -0.01104168
v 0.01048069 -0.26499096 -0.10047552
v 0.01741173 -0.26421973 -0.00426947
v 0.01443033 -0.26422989 -0.00071056
v 0.01116615 -0.26478967 -0.11286444
v 0.01822522 -0.26442733 -0.01290873
v 0.01797980 -0.26468065 -0.09974738
v 0.01665736 -0.26458052 -0.11116145
v 0.02800392 -0.26364446 -0.00788644
v 0.02789889 -0.26344386 -0.00196876
v 0.02166263 -0.26370856 -0.00053668
v 0.03533806 -0.26287335 -0.00043635
v 0.02824127 -0.26369748 -0.02179291
v 0.02758173 -0.26384836 -0.09973876
v 0.02765701 -0.26373631 -0.10640079
v 0.03002499 -0.26338843 -0.11281455
v 0.03727918 -0.26268390 -0.01965589
v 0.03620142 -0.26279080 -0.10255339
v 0.03639923 -0.26274148 -0.11144880
v 0.04238454 -0.26198292 -0.00054405
v 0.04385629 -0.26190302 -0.02201540
v 0.04414017 -0.26177382 -0.07571229
v 0.04394531 -0.26176238 -0.09513049
v 0.04355048 -0.26174712 -0.10292058
v -0.18541403 -0.19323930 -0.11323223
v 0.03371093 -0.26280069 -0.11292902
v -0.25322008 -0.10096306 -0.00812358
v -0.25381842 -0.09969212 -0.00068294
v -0.24856241 -0.11103898 -0.00085563
v -0.25503021 -0.09601127 -0.10648448
v -0.25514787 -0.09556966 -0.11119945
v -0.25484857 -0.09653348 -0.10065825
v -0.25596395 -0.09495416 -0.00077130
v -0.25494188 -0.09576238 -0.11294807
v -0.26193041 -0.07875054 -0.00855942
v -0.26129457 -0.07943982 -0.09812947
v -0.26155177 -0.07816814 -0.10602327
v -0.26124355 -0.07880373 -0.11156908
v -0.26455286 -0.06803802 -0.11140433
v -0.26444477 -0.06873608 -0.10652926
v -0.26428345 -0.07117610 -0.00074978
v -0.26711780 -0.05888811 -0.10671838
v -0.26941273 -0.05072907 -0.09716719
v -0.26775533 -0.05607961 -0.11126885
v -0.26938251 -0.04996111 -0.11116391
v -0.26919436 -0.05229508 -0.00053025
v -0.26772130 -0.05537809 -0.11309417
v -0.24603516 0.11527009 -0.10555089
v -0.25380906 0.09883948 -0.09662188
v -0.25379056 0.09869817 -0.10573611
v -0.25195462 0.10245334 -0.11076704
v -0.25389719 0.09821124 -0.11096329
v -0.24786153 0.11127114 -0.11121600
v -0.23896313 0.12803718 -0.09700778
v -0.24556164 0.11590243 -0.11109226
v -0.24028108 0.12542135 -0.11109079
v -0.24343880 0.11976915 -0.11096209
v -0.23824857 0.12913948 -0.10449734
v -0.23479210 0.13460310 -0.11127098
v -0.23751886 0.13020982 -0.11130817
v -0.23466028 0.13511738 -0.09553613
v -0.24446905 0.11869904 -0.00067681
v -0.24667197 0.11463701 -0.00073739
v -0.25387731 0.09982494 -0.00060608
v -0.22909428 0.14399298 -0.00467566
v -0.23076050 0.14154474 -0.00063674
v -0.22776550 0.14535749 -0.10631391
v -0.22943880 0.14281748 -0.11108502
v -0.23316146 0.13711080 -0.11243650
v -0.22613660 0.14771007 -0.11101811
v -0.22407362 0.15117827 -0.00752905
v -0.22672440 0.14739987 -0.00062422
v -0.22893819 0.14336920 -0.11291594
v -0.23067869 0.14049688 -0.11312617
v -0.22148593 0.15471734 -0.00462456
v -0.22445597 0.14989282 -0.11273518
v -0.22084269 0.15498619 -0.10619449
v -0.22229226 0.15298726 -0.11133983
v -0.21788186 0.15879652 -0.09331854
v -0.21749987 0.15938754 -0.07486690
v -0.21714121 0.16019873 -0.00707319
v -0.20718595 0.17176254 -0.08109952
v -0.20717762 0.17167601 -0.09785000
v -0.20751368 0.17164992 -0.02961620
v -0.20693429 0.17230935 -0.00801660
v -0.21370670 0.16433935 -0.00519176
v -0.21483077 0.16237479 -0.11161013
v -0.21230078 0.16566852 -0.10649884
v -0.23616071 0.13202864 -0.11287411
v -0.21449089 0.16338773 -0.00110937
v -0.21019518 0.16801144 -0.11131632
v -0.22254682 0.15238181 -0.11292149
v -0.23983751 0.12592785 -0.11275762
v -0.23834996 0.12827499 -0.11302049
v -0.20703781 0.17152931 -0.11276855
v -0.21475211 0.16226099 -0.11288046
v -0.25271967 0.10044064 -0.11272649
v -0.25472018 0.09608707 -0.11271440
v -0.20749283 0.17164440 -0.00059383
v -0.20170255 0.17798674 -0.00075925
v -0.24814467 0.11007795 -0.11292682
v -0.25693071 0.09098859 -0.09608380
v -0.25684527 0.09083010 -0.11120338
v -0.26118279 0.07999157 -0.09634800
v -0.26141417 0.07886502 -0.10675513
v -0.26066345 0.08076336 -0.11099737
v -0.25900352 0.08505239 -0.11274197
v -0.26029417 0.08313156 -0.00056951
v -0.26130122 0.07888982 -0.11267843
v -0.19823380 0.18143483 -0.02108404
v -0.19762427 0.18163493 -0.09662738
v -0.20096517 0.17836110 -0.07458141
v -0.19686922 0.18256809 -0.07270917
v -0.18989128 0.18946475 -0.09669362
v -0.19038825 0.18908587 -0.07485699
v -0.19014837 0.18955719 -0.01989921
v -0.19998889 0.17892969 -0.11268739
v -0.19773167 0.18128558 -0.11254239
v -0.19467874 0.18428648 -0.11273611
v -0.19141826 0.18760185 -0.11271402
v -0.18908380 0.18990484 -0.11258299
v -0.18864955 0.19093345 -0.00899785
v -0.18537959 0.19332457 -0.11269280
v -0.17981604 0.19876839 -0.02649853
v -0.17865993 0.19970571 -0.01118168
v -0.17942703 0.19903207 -0.07447274
v -0.18012592 0.19824043 -0.09686920
v -0.17918052 0.19891261 -0.10634740
v -0.17163095 0.20558877 -0.00085769
v -0.18317397 0.19566961 -0.00065383
v -0.17450105 0.20263170 -0.11162746
v -0.17249294 0.20456359 -0.07710760
v -0.17282255 0.20403717 -0.10690726
v -0.17002861 0.20617044 -0.10107391
v -0.17018464 0.20632544 -0.07408854
v -0.16281123 0.21151040 -0.09770160
v -0.15056714 0.22024025 -0.07748967
v -0.15116049 0.21967018 -0.09532046
v -0.17542955 0.20163946 -0.11284288
v -0.17294146 0.20355779 -0.11309785
v -0.16302751 0.21119753 -0.10652137
v -0.16414525 0.21015549 -0.11246086
v -0.14987792 0.22040866 -0.10659602
v -0.15138412 0.21915577 -0.11146329
v -0.15812153 0.21446110 -0.11137720
v -0.15822279 0.21415773 -0.11281978
v -0.15203674 0.21845324 -0.11278345
v -0.14540087 0.22299147 -0.11157563
v -0.14992468 0.22103177 -0.00061692
v -0.14626372 0.22341323 -0.00061657
v -0.14178061 0.22553496 -0.09694093
v -0.13688754 0.22844271 -0.10683260
v -0.13477798 0.22958757 -0.11104172
v -0.13893281 0.22700176 -0.11258303
v -0.14560249 0.22268528 -0.11284713
v -0.13175067 0.23170175 -0.07554670
v -0.13156419 0.23164865 -0.09667553
v -0.13619308 0.22893383 -0.09840084
v -0.13641380 0.22947355 -0.00060635
v -0.13447370 0.22945634 -0.11298791
v -0.12804125 0.23316292 -0.11260376
v -0.11991442 0.23743643 -0.10658296
v -0.11937033 0.23761471 -0.11269578
v -0.12378138 0.23536815 -0.11265048
v -0.11252009 0.24121565 -0.07098922
v -0.11305784 0.24076094 -0.09733373
v -0.11128338 0.24141347 -0.10641900
v -0.11421612 0.24079214 -0.00061376
v -0.10822846 0.24265850 -0.11096044
v -0.09953006 0.24641553 -0.10683779
v -0.11033273 0.24215429 -0.06965832
v -0.10343805 0.24519818 -0.00828283
v -0.10101784 0.24569716 -0.11080689
v -0.09839114 0.24711579 -0.00745072
v -0.08588014 0.25135171 -0.08245432
v -0.09213055 0.24922924 -0.07362303
v -0.09717701 0.24744432 -0.06792774
v -0.09955841 0.24669415 -0.00066733
v -0.09333800 0.24866636 -0.10628674
v -0.09543253 0.24784467 -0.11130959
v -0.09845050 0.24644464 -0.11281972
v -0.09249263 0.24930152 -0.00069804
v -0.08544624 0.25139233 -0.10638384
v -0.08748089 0.25057533 -0.11116541
v -0.09390621 0.24806318 -0.11303825
v -0.08099052 0.25263214 -0.11262875
v -0.07788192 0.25379217 -0.10670697
v -0.07538933 0.25442985 -0.11099546
v -0.07722981 0.25410923 -0.07046147
v -0.07088365 0.25582957 -0.07004488
v -0.07096178 0.25570947 -0.10673872
v -0.06867220 0.25619137 -0.11130692
v -0.07342572 0.25470454 -0.11301158
v -0.05818724 0.25852364 -0.10593545
v -0.05028530 0.26031426 -0.09756190
v -0.05990964 0.25837249 -0.07694097
v -0.05966134 0.25830516 -0.09684107
v -0.05036173 0.26076797 -0.00039101
v -0.06604806 0.25659600 -0.11308177
v -0.05496836 0.25901860 -0.11267208
v -0.04490284 0.26111689 -0.11116658
v -0.19177508 0.18675269 -0.11316661
v -0.19809170 0.18030590 -0.11318797
v -0.26374799 0.07067499 -0.11143398
v -0.26522022 0.06579076 -0.11033398
v -0.26681873 0.06058777 -0.09709039
v -0.26690611 0.05979601 -0.10716331
v -0.26392519 0.07067635 -0.09754273
v -0.26674917 0.06120333 -0.07608466
v -0.26743570 0.05750130 -0.11098653
v -0.26759842 0.05796474 -0.00283458
v -0.26768950 0.05749490 -0.00049502
v -0.26953435 0.04865547 -0.11084038
v -0.27015316 0.04619994 -0.10712994
v -0.27023730 0.04672785 -0.09510183
v -0.27042052 0.04655816 -0.02233606
v -0.26946375 0.05059097 -0.00196343
v -0.26763412 0.05594020 -0.11279002
v -0.27089879 0.04169919 -0.11122151
v -0.26980969 0.04719999 -0.11276061
v -0.27101648 0.04153947 -0.10573642
v -0.27166364 0.03822210 -0.09771762
v -0.27341923 0.02691863 -0.09733281
v -0.27345628 0.02680797 -0.07088226
v -0.27335539 0.02702801 -0.10395469
v -0.27329436 0.02636234 -0.11115547
v -0.27260450 0.03314847 -0.00082707
v -0.27306959 0.02587563 -0.11298598
v -0.27091125 0.03950643 -0.11292702
v -0.27349937 0.02675367 -0.00063580
v -0.27431139 0.01751672 -0.00163796
v -0.27421033 0.01601022 -0.11129104
v -0.27391738 0.01665657 -0.11289404
v -0.27430326 0.01624175 -0.09747781
v -0.27490613 -0.00040541 -0.09676518
v -0.27500001 -0.00025463 -0.06732168
v -0.27487567 0.00048259 -0.11144137
v -0.27499527 0.00122561 -0.00164572
v -0.27428171 0.01454960 -0.00054925
v -0.16611241 0.20801280 -0.11315939
v -0.27442154 -0.01448351 -0.11137470
v -0.27452388 -0.01500417 -0.00158979
v -0.27444845 -0.00916548 -0.00056316
v -0.27358723 -0.02614836 -0.10597110
v -0.27355567 -0.02664441 -0.09834953
v -0.27344587 -0.02537029 -0.11276484
v -0.27195343 -0.03582583 -0.11274662
v -0.27168244 -0.03854024 -0.10608291
v -0.27087781 -0.04296041 -0.11116917
v -0.27127725 -0.04089607 -0.10241855
v -0.27133748 -0.04086957 -0.00051300
v -0.27056539 -0.04466657 -0.10539830
v -0.26936942 -0.05141159 -0.01783643
v -0.27001739 -0.04665455 -0.11293717
v -0.26983592 -0.04544074 -0.00024941
v -0.26796326 -0.05463175 -0.00036433
v -0.26967579 0.04623705 -0.00016346
v -0.26778695 0.05504288 -0.00016883
v -0.26156628 0.07801802 -0.00034264
v -0.25931457 0.08318254 -0.00028979
v -0.25735313 0.08881081 -0.00036088
v -0.27270919 -0.02388529 -0.00043422
v -0.27274147 0.02311371 -0.00038604
v -0.25246191 0.10096718 -0.00034773
v -0.24531057 0.11577603 -0.00043342
v -0.24232064 0.12112573 -0.00038399
v -0.26174319 -0.07740656 -0.00046389
v -0.25397548 -0.09735556 -0.00052759
v -0.25066987 -0.10440821 -0.00053982
v -0.23509984 0.13380720 -0.00038370
v -0.23063250 0.14060102 -0.00035692
v -0.22558029 0.14767866 -0.00037661
v -0.22086152 0.15433213 -0.00045858
v -0.20630363 0.17145137 -0.00039992
v -0.21405110 0.16301462 -0.00047688
v -0.21680814 0.16009776 -0.00055195
v -0.19382159 0.18547046 -0.00041770
v -0.18803927 0.18951075 -0.00033429
v -0.18043034 0.19683181 -0.00038210
v -0.15629227 0.21605122 -0.00051931
v -0.14095619 0.22582045 -0.00050483
v -0.13029045 0.23214722 -0.00046117
v -0.12400657 0.23628639 -0.00051320
v -0.11166934 0.24062176 -0.00033757
v -0.10625793 0.24334206 -0.00033593
v -0.27225891 0.03345384 -0.00048109
v -0.27144790 0.04070515 -0.00047509
v -0.25030288 -0.10670022 -0.00064983
v -0.24502254 -0.11625675 -0.00056537
v -0.23633766 -0.13173005 -0.00053829
v -0.22744641 -0.14501460 -0.00050990
v -0.21105543 -0.16644682 -0.00050639
v -0.19355579 -0.18554746 -0.00060919
v -0.18168543 -0.19676535 -0.00069124
v -0.17584047 -0.20101431 -0.00062685
v -0.15337075 -0.21829826 -0.00056936
v -0.14970286 -0.22087213 -0.00056468
v -0.12473386 -0.23515327 -0.00058129
v -0.11069598 -0.24166553 -0.00056407
v -0.10489070 -0.24388990 -0.00049842
v -0.18435000 -0.19463870 -0.00075559
v -0.08367363 -0.25140664 -0.00030571
v -0.07806202 -0.25313559 -0.00035696
v -0.05103588 -0.25997290 -0.00026937
v -0.04139214 -0.26143482 -0.00030003
v 0.03200230 -0.26210445 -0.00023796
v -0.02371280 -0.26220155 -0.00027991
v -0.00220610 -0.26406929 -0.00046077
v 0.05508959 -0.25895321 -0.00035734
v 0.04412450 -0.26141679 -0.00038735
v -0.13190171 -0.23211677 -0.00073666
v -0.12748834 -0.23455894 -0.00072405
v 0.08005328 -0.25244224 -0.00025200
v 0.08563899 -0.25090307 -0.00032279
v 0.10490415 -0.24391307 -0.00038821
v 0.14949211 -0.22121862 -0.00038689
v 0.14212094 -0.22573110 -0.00039386
v 0.12840237 -0.23429030 -0.00043531
v 0.15450515 -0.21812597 -0.00042593
v 0.17628027 -0.20121838 -0.00055501
v 0.19646798 -0.18244115 -0.00042873
v 0.19247127 -0.18648282 -0.00044888
v 0.18804736 -0.19068986 -0.00049138
v 0.21018441 -0.16733646 -0.00036901
v 0.20530461 -0.17399305 -0.00064364
v 0.20850538 -0.17052339 -0.00060496
v 0.17001931 -0.20727235 -0.00064418
v 0.22523651 -0.14799243 -0.00039736
v 0.23122561 -0.13947202 -0.00037115
v 0.23428163 -0.13435742 -0.00035453
v 0.23844139 -0.12968500 -0.00051000
v 0.24642499 -0.11524242 -0.00054712
v 0.24572596 -0.11434253 -0.00043146
v 0.25029460 -0.10525417 -0.00042608
v 0.25383389 -0.09972110 -0.00054900
v 0.25920254 -0.08359119 -0.00029228
v 0.24887021 -0.11014591 -0.00061040
v 0.16777785 -0.20928566 -0.00070154
v 0.22526269 -0.14955121 -0.00052444
v -0.11475076 -0.24046654 -0.00075858
v -0.08491512 0.25116703 -0.00017278
v -0.05305443 0.25962639 -0.00012610
v -0.04072418 0.26163167 -0.00024798
v -0.02210131 0.26214617 -0.00026049
v 0.01499978 0.26354635 -0.00060757
v 0.03458373 0.26163664 -0.00010290
v 0.04788608 0.25961116 -0.00007129
v 0.07587518 0.25321278 -0.00010597
v 0.08290166 0.25105646 0.00000000
v 0.10868681 0.24180652 -0.00011531
v 0.12686934 0.23330016 -0.00020282
v 0.12254646 0.23643720 -0.00031903
v 0.14003809 0.22626063 -0.00021611
v 0.14460574 0.22301693 -0.00020777
v 0.15160885 0.21891324 -0.00022289
v 0.16627303 0.20862733 -0.00031487
v 0.17782596 0.19937256 -0.00033383
v 0.18852033 0.18942611 -0.00024110
v 0.20002338 0.17874138 -0.00019294
v 0.18912581 0.18971764 -0.00027339
v 0.18241487 0.19631764 -0.00058538
v 0.21465847 0.16165273 -0.00031905
v 0.22410513 0.15016949 -0.00037833
v 0.22743246 0.14495569 -0.00031027
v 0.23429146 0.13519107 -0.00027443
v 0.24337605 0.11900187 -0.00037127
v 0.24993105 0.10579921 -0.00037769
v 0.25393960 0.09740696 -0.00039471
v 0.25909775 0.08364169 -0.00033601
v 0.26115111 0.07828064 -0.00038184
v 0.26782975 0.05461857 -0.00021086
v 0.27003214 0.04432965 -0.00021212
v 0.27222943 0.03285128 -0.00045215
v 0.27042478 -0.04240499 -0.00025892
v 0.27442396 -0.00065622 -0.00050451
v 0.27396291 0.01799478 -0.00057484
v 0.26883325 -0.04691451 -0.00023008
v 0.26740971 -0.05547191 -0.00021803
v 0.26945922 -0.05133246 -0.00035211
v -0.07036541 -0.25605112 -0.00065952
v -0.16975138 0.20694631 -0.00066962
v -0.27369750 -0.02537874 -0.00063110
v 0.22755189 -0.14651397 -0.00062711
v -0.02014648 0.26346818 -0.00049192
v 0.27147856 -0.04005129 -0.00041173
v -0.09292548 -0.24906869 -0.00067882
v -0.08508213 -0.25191045 -0.00050892
v -0.03514979 -0.26295140 -0.00050785
v -0.02264739 -0.26352245 -0.00050275
v -0.20928352 0.16963974 -0.00064945
v 0.26388022 0.07155842 -0.00057255
v -0.23164986 -0.14053173 -0.00070305
v 0.23151091 -0.14072126 -0.00056176
v -0.25573686 0.09542122 -0.00071151
v -0.13942203 0.22775623 -0.00071593
v -0.26044440 -0.08261293 -0.00067743
v -0.16638608 0.20971258 -0.00072452
v -0.16261749 0.21241395 -0.00071397
v -0.16057241 0.21403621 -0.00075487
v -0.11024436 0.24249260 -0.00058997
v -0.15276693 0.21942012 -0.00068784
v 0.20727633 0.17114903 -0.00044732
v 0.26475990 -0.07008127 -0.00056085
v 0.21087627 -0.16787875 -0.00057468
v -0.23812923 0.13018036 -0.00072640
v -0.14171880 -0.22632322 -0.00076425
v -0.22454940 0.15004168 -0.00053146
v 0.16432218 -0.21191975 -0.00069610
v 0.05328503 0.25904667 -0.00056371
v -0.21930914 0.15737657 -0.00063342
v 0.15088585 -0.22133385 -0.00064382
v -0.26268783 -0.07644361 -0.00065818
v 0.24659890 0.11432756 -0.00064710
v -0.17997934 -0.19865441 -0.00082000
v -0.14611244 -0.22364637 -0.00075930
v -0.12812862 0.23413639 -0.00063660
v -0.13488045 0.23049742 -0.00079617
v -0.23556276 0.13442716 -0.00062341
v -0.26394871 0.07187895 -0.00070024
v 0.19200388 -0.18782288 -0.00071378
v -0.08440974 0.25216144 -0.00041841
v -0.07905904 0.25375679 -0.00047532
v -0.06967641 0.25630087 -0.00059330
v -0.06458260 0.25748569 -0.00064074
v -0.17871809 0.19955952 -0.00076536
v 0.26940590 0.05146961 -0.00044077
v 0.09237613 0.24862219 -0.00061085
v 0.14580098 0.22346917 -0.00053748
v 0.21441977 0.16300328 -0.00056127
v 0.22015673 0.15600498 -0.00065217
v -0.26237360 0.07731665 -0.00057920
v -0.00129614 0.26418000 -0.00081271
v -0.22217295 0.15383011 -0.00076589
v 0.16999955 0.20662715 -0.00061846
v 0.12758629 0.23396952 -0.00057583
v 0.13622785 0.22928013 -0.00057586
v -0.10553138 0.24440210 -0.00065932
v 0.08219731 0.25207496 -0.00034679
v 0.16226427 0.21240745 -0.00062945
v 0.11439262 0.24014682 -0.00056672
v -0.26968545 0.04932074 -0.00044289
v 0.10362083 0.24454953 -0.00051051
v 0.10809165 0.24285051 -0.00050461
v 0.16756433 0.20858368 -0.00071540
v 0.17913453 0.19913772 -0.00069387
v -0.17032039 -0.20672289 -0.00107147
v -0.18587705 0.19340496 -0.00079781
v -0.19302247 0.18677606 -0.00077162
v -0.23074614 -0.12066845 -0.11350670
v -0.21303795 -0.14951663 -0.11344171
v 0.21494643 0.14639591 -0.11325286
v -0.02793795 0.25748894 -0.11323178
v -0.01279768 0.26440310 -0.11297183
v -0.03609026 0.26224601 -0.11295096
v 0.00350955 0.26481056 -0.11295702
v 0.00701446 0.25640184 -0.11336949
v 0.02301679 0.25642058 -0.11328423
v 0.02663998 0.26319617 -0.11295196
v -0.04308497 0.26127368 -0.11282663
v 0.06062508 0.25749326 -0.11295419
v 0.07932401 0.25272164 -0.11272009
v 0.08864848 0.24890454 -0.11295146
v 0.08724684 0.25032547 -0.11260507
v 0.09974803 0.24499390 -0.11291914
v 0.09529831 0.23963070 -0.11312917
v 0.11164401 0.24005473 -0.11292186
v 0.12306004 0.23473473 -0.11293580
v 0.13254304 0.22982730 -0.11294856
v 0.12823811 0.23312242 -0.11260485
v 0.12420237 0.23522480 -0.11252645
v 0.13515188 0.22919513 -0.11277086
v 0.13352682 0.22120826 -0.11312664
v 0.14557785 0.22293657 -0.11290833
v 0.15728319 0.21510197 -0.11296073
v 0.16429521 0.20975730 -0.11301469
v 0.11405998 0.23986031 -0.11268482
v 0.13988721 0.22651125 -0.11266959
v 0.06778656 0.24755792 -0.11324394
v 0.04504476 0.26035473 -0.11296485
v 0.17101561 0.19573776 -0.11323319
v 0.20180446 0.17691441 -0.11301800
v 0.19580416 0.16968374 -0.11326274
v 0.20321816 0.16315596 -0.11324421
v 0.21250004 0.16447586 -0.11302862
v 0.21679884 0.15969083 -0.11298867
v 0.20697950 0.17159338 -0.11269322
v 0.22019678 0.15532899 -0.11298599
v 0.22763520 0.14501461 -0.11296946
v 0.23130174 0.12118306 -0.11327996
v 0.17041126 0.20575856 -0.11301479
v 0.18399504 0.19460033 -0.11279442
v 0.24110237 0.12151872 -0.11296313
v 0.24838944 0.10928304 -0.11289863
v 0.25389320 0.09736029 -0.11293270
v 0.24624947 0.09355414 -0.11319575
v 0.25643197 0.06702759 -0.11319169
v 0.26476815 0.06639477 -0.11294200
v 0.26496026 0.03869722 -0.11310477
v 0.26638755 0.00451722 -0.11307018
v 0.27291226 0.00844648 -0.11289592
v 0.26989341 -0.04418760 -0.11290481
v 0.26612723 -0.03353183 -0.11302214
v 0.26402268 -0.03621697 -0.11305026
v 0.27257699 0.02991208 -0.11286110
v 0.27209005 0.03445460 -0.11274369
v 0.27452135 0.00174271 -0.11278238
v 0.27223882 -0.02940469 -0.11285188
v 0.23953651 0.12639280 -0.11275457
v 0.23583767 0.13227797 -0.11293904
v 0.26997787 -0.04677878 -0.11276399
v -0.06671313 0.24761865 -0.11329886
v -0.09431663 0.23834817 -0.11326405
v -0.10447445 0.24412705 -0.11266280
v -0.10838424 0.24229488 -0.11279053
v -0.11485390 0.23913941 -0.11306093
v -0.11520863 0.23959333 -0.11265793
v -0.13178976 0.21956944 -0.11327238
v -0.14169200 0.22491720 -0.11302941
v -0.15170008 0.21807536 -0.11310409
v -0.15901282 0.21316557 -0.11313292
v -0.17787474 0.19912893 -0.11313438
v -0.18659721 0.19188452 -0.11313638
v -0.21452489 0.16207822 -0.11317053
v -0.21339624 0.14903417 -0.11343262
v -0.22309540 0.15096878 -0.11319857
v -0.20704912 0.17094243 -0.11317128
v -0.22426665 0.14227164 -0.11330358
v -0.24748285 0.08992435 -0.11329879
v -0.25162348 0.10198334 -0.11299814
v -0.25655740 0.09078567 -0.11305896
v -0.25988492 0.08154854 -0.11303809
v -0.25936979 0.06531000 -0.11322454
v -0.26496246 0.01498793 -0.11345784
v -0.27389926 0.00709265 -0.11306164
v -0.27257186 -0.03055373 -0.11302944
v -0.27185860 0.03456672 -0.11276823
v -0.26473618 -0.02887134 -0.11347814
v -0.26464787 -0.06182680 -0.11329138
v -0.25521180 -0.06404780 -0.11352371
v -0.25686982 -0.08903193 -0.11329026
v -0.24677569 -0.08922314 -0.11355801
v -0.25546470 -0.09359048 -0.11322398
v -0.24893409 -0.10853593 -0.11301287
v -0.25890645 -0.08499993 -0.11290776
v -0.26330972 -0.07153238 -0.11309215
v -0.26110762 -0.07874341 -0.11288191
v -0.24215394 -0.12028367 -0.11313573
v -0.25276765 -0.10067575 -0.11276374
v -0.25749967 -0.06753136 -0.11347777
v -0.26660836 0.03052475 -0.11328263
v -0.26501054 0.06494325 -0.11308997
v -0.26315132 0.07177207 -0.11302069
v -0.26554647 0.06409094 -0.11289541
v -0.27461457 -0.00051297 -0.11293429
v -0.24592356 0.11459389 -0.11284330
v -0.27402249 -0.01730329 -0.11303236
v -0.18212834 0.19631229 -0.11268476
v -0.23978516 -0.12614511 -0.11284227
v -0.23550518 -0.13261993 -0.11316890
v -0.23745558 -0.13035277 -0.11279379
v -0.23041920 -0.14068796 -0.11324012
v -0.22887246 -0.14382213 -0.11289822
v -0.22444159 -0.14987765 -0.11307577
v -0.26873419 0.04861969 -0.11299963
v 0.26636612 -0.05930265 -0.11292031
v 0.04280634 0.26124907 -0.11271612
v 0.25777197 -0.06678011 -0.11306892
v 0.24929889 -0.08880037 -0.11308325
v 0.25213110 -0.10143483 -0.11292557
v 0.25766349 -0.08623131 -0.11292177
v 0.24832760 -0.11019037 -0.11266172
v 0.23176952 -0.12514015 -0.11315025
v 0.23338370 -0.13676763 -0.11293536
v 0.22132586 -0.13942926 -0.11314233
v 0.22382048 -0.15087180 -0.11294106
v 0.21487913 -0.15164733 -0.11313234
v 0.17942047 -0.19905652 -0.11302101
v 0.26049629 -0.08058970 -0.11289647
v 0.04975508 0.25989091 -0.11274922
v 0.12900907 -0.23332655 -0.11284090
v 0.14135401 -0.22665200 -0.11266887
v 0.13428478 -0.23073389 -0.11265869
v 0.10085982 -0.24555218 -0.11289838
v 0.11113123 -0.24186148 -0.11266209
v 0.09535971 -0.24012221 -0.11302429
v 0.08805247 -0.25061673 -0.11286304
v 0.07699399 -0.25396246 -0.11291673
v 0.07331429 -0.24749112 -0.11301152
v 0.03016568 -0.25534502 -0.11305812
v 0.01208679 -0.25764883 -0.11307608
v -0.03272048 -0.26306692 -0.11293425
v -0.05594389 -0.25905728 -0.11300042
v -0.07224404 -0.25519407 -0.11302489
v -0.08789854 -0.25038987 -0.11297587
v -0.09462207 -0.23955505 -0.11315078
v -0.12013520 -0.23757592 -0.11303660
v -0.09919669 -0.24597737 -0.11300922
v 0.04488527 -0.26126963 -0.11289766
v 0.06590185 -0.25697246 -0.11279036
v -0.11061889 -0.24186487 -0.11283380
v 0.05601700 -0.25907108 -0.11278138
v -0.13712393 -0.22820631 -0.11306410
v -0.13264264 -0.23117454 -0.11289345
v -0.14616621 -0.22296311 -0.11296392
v -0.16269596 -0.21185616 -0.11319181
v -0.15024522 -0.22042586 -0.11281510
v -0.13670239 -0.22888987 -0.11291291
v -0.17687759 -0.20066233 -0.11320038
v -0.19325772 -0.18549727 -0.11325988
v -0.20122159 -0.17731886 -0.11323935
v -0.20782304 -0.17003530 -0.11321643
v -0.20554832 -0.17307216 -0.11313121
v -0.21579646 -0.16101629 -0.11312106
v -0.19770753 -0.18142195 -0.11296533
v -0.26475534 -0.06558048 -0.11324217
v -0.26555139 -0.06401668 -0.11293623
v -0.21870297 -0.15694986 -0.11325172
f 970 1042 1013
f 517 513 512
f 1043 1042 436
f 1013 1012 1011
f 1011 1012 79
f 1043 436 1067
f 1042 970 977
f 1038 1042 1043
f 7 17 1096
f 4 3 8
f 2 9 8
f 8 3 2
f 2 3 9
f 9 3 18
f 921 970 1013
f 968 970 921
f 921 919 968
f 59 65 71
f 58 59 71
f 1247 1251 1249
f 1249 1251 1252
f 1252 1253 1249
f 1251 1253 1252
f 8 9 15
f 24 15 1117
f 1117 15 1119
f 971 970 968
f 1000 436 1042
f 998 1000 994
f 994 1000 1042
f 1042 1038 1041
f 315 539 316
f 706 704 707
f 898 901 900
f 896 901 898
f 897 901 896
f 1048 1096 17
f 922 1005 942
f 923 922 924
f 976 612 614
f 627 624 626
f 1073 79 76
f 76 60 1073
f 79 60 76
f 63 60 79
f 79 65 63
f 1073 60 63
f 63 65 1073
f 1102 1012 1013
f 79 1012 1102
f 1073 65 54
f 65 59 54
f 54 47 44
f 44 1010 54
f 1010 1011 54
f 54 79 1073
f 54 1011 79
f 37 15 9
f 1119 15 37
f 1119 37 75
f 59 58 52
f 45 54 52
f 52 54 59
f 129 126 133
f 1016 1100 133
f 196 185 184
f 184 185 178
f 1027 232 1094
f 192 200 190
f 190 191 192
f 182 191 190
f 252 251 256
f 239 1029 261
f 267 272 268
f 863 1117 1116
f 1116 1175 863
f 863 1175 849
f 106 120 107
f 106 119 120
f 92 105 104
f 104 103 92
f 105 106 104
f 104 106 107
f 99 94 97
f 92 103 97
f 97 103 99
f 479 475 1248
f 517 527 523
f 527 528 523
f 523 528 526
f 74 57 72
f 72 57 58
f 71 74 72
f 72 58 71
f 71 65 66
f 66 74 71
f 970 971 972
f 424 1000 998
f 424 998 996
f 996 999 424
f 436 1000 424
f 424 431 436
f 973 977 970
f 973 510 977
f 977 510 501
f 676 673 677
f 503 510 507
f 996 998 997
f 998 994 997
f 996 997 995
f 995 997 994
f 514 513 517
f 272 1032 1033
f 1049 1038 1043
f 1049 472 1038
f 1030 261 1029
f 537 539 315
f 315 533 537
f 534 533 526
f 534 528 531
f 526 528 534
f 534 537 533
f 1205 1213 1203
f 1236 1238 1205
f 1205 1153 1236
f 1203 1197 1205
f 1205 1197 1188
f 1279 1280 711
f 711 1280 918
f 918 1280 709
f 709 706 707
f 1218 1198 1220
f 1220 905 1218
f 1218 905 901
f 1218 897 1198
f 901 897 1218
f 890 897 896
f 1228 893 1215
f 1220 1198 1201
f 1198 1197 1201
f 1201 1202 1220
f 1201 1213 1202
f 1203 1213 1201
f 1201 1197 1203
f 805 797 800
f 1188 867 904
f 44 23 1009
f 1009 23 1096
f 1096 1048 1009
f 1009 1010 44
f 1009 1048 1010
f 6 18 3
f 7 1096 6
f 1006 1011 1010
f 1013 1011 1006
f 1006 1005 922
f 1006 921 1013
f 922 921 1006
f 924 922 935
f 922 942 935
f 7 6 5
f 3 4 5
f 5 6 3
f 26 13 12
f 12 5 4
f 9 18 22
f 18 38 22
f 42 38 44
f 1083 876 1095
f 922 923 1095
f 1095 876 922
f 1105 921 922
f 922 876 1105
f 1105 876 881
f 875 876 1083
f 881 876 875
f 574 580 577
f 926 1046 919
f 919 1046 915
f 915 1046 909
f 909 912 915
f 902 898 900
f 902 895 898
f 969 971 968
f 969 1052 971
f 650 651 649
f 649 651 647
f 648 1052 647
f 647 651 648
f 651 653 648
f 647 1052 642
f 626 624 620
f 612 976 611
f 1259 1260 1269
f 70 68 64
f 64 66 65
f 1107 105 92
f 45 47 53
f 53 54 45
f 47 54 53
f 80 50 1230
f 49 37 50
f 49 75 37
f 50 80 49
f 128 1100 129
f 129 133 128
f 128 133 1100
f 1016 133 1099
f 1099 133 122
f 1024 1023 196
f 196 184 1024
f 120 119 123
f 123 119 122
f 122 133 123
f 123 133 126
f 200 192 198
f 198 185 196
f 198 192 185
f 207 210 200
f 200 198 207
f 1093 1094 215
f 215 210 1093
f 1093 1027 1094
f 238 1029 239
f 238 1027 1029
f 232 1027 238
f 1028 1023 1029
f 1029 1027 1028
f 191 182 181
f 185 192 181
f 181 192 191
f 154 155 158
f 155 154 153
f 153 146 142
f 142 155 153
f 147 155 142
f 170 167 173
f 173 167 166
f 239 261 250
f 250 261 251
f 249 250 251
f 239 250 249
f 266 267 268
f 257 251 1077
f 251 261 1077
f 272 267 1077
f 1077 1030 272
f 261 1030 1077
f 499 500 496
f 496 501 499
f 505 500 503
f 26 12 27
f 1117 863 1118
f 856 852 855
f 856 864 863
f 135 864 856
f 117 106 105
f 96 94 92
f 92 97 96
f 96 97 94
f 530 528 527
f 531 528 535
f 535 530 1168
f 528 530 535
f 520 514 516
f 1236 1153 1160
f 1094 232 225
f 222 220 215
f 544 310 317
f 317 539 314
f 306 310 305
f 305 300 306
f 309 310 544
f 305 310 309
f 260 247 259
f 268 272 275
f 275 266 268
f 276 266 275
f 971 1052 1053
f 1053 972 971
f 974 973 970
f 510 973 974
f 970 676 974
f 974 676 510
f 667 673 674
f 673 676 674
f 674 668 667
f 676 668 674
f 681 676 677
f 687 507 510
f 1248 475 483
f 343 995 993
f 993 995 994
f 992 1003 993
f 356 353 403
f 331 353 356
f 356 995 331
f 469 461 468
f 472 1049 466
f 466 1049 460
f 460 461 466
f 460 1049 448
f 448 461 460
f 448 1049 1043
f 1039 472 520
f 520 1040 1039
f 1038 472 1039
f 315 1040 536
f 526 533 529
f 529 536 1040
f 1031 1032 272
f 272 1030 1031
f 1031 1030 1029
f 1029 1033 1031
f 1031 1033 1032
f 1035 1055 296
f 1035 1033 1029
f 1029 1023 1035
f 1035 1023 1013
f 913 709 707
f 918 709 913
f 910 905 1220
f 706 709 708
f 708 709 1280
f 900 901 899
f 899 905 900
f 901 905 899
f 897 890 892
f 1198 897 892
f 892 893 1228
f 1228 1215 892
f 887 895 888
f 898 895 887
f 896 898 887
f 1197 1215 1196
f 884 1215 893
f 722 718 725
f 1190 867 1188
f 759 867 1190
f 781 867 759
f 759 747 781
f 801 1059 815
f 815 1059 816
f 799 797 796
f 1181 1175 1188
f 1188 904 1181
f 844 850 849
f 848 850 844
f 855 852 851
f 851 853 855
f 852 850 851
f 19 38 18
f 44 38 19
f 1007 1006 1010
f 725 718 1082
f 1061 799 796
f 816 1059 822
f 11 12 4
f 10 12 13
f 5 12 10
f 7 5 10
f 10 17 7
f 10 13 17
f 40 37 9
f 50 37 40
f 40 22 38
f 38 42 40
f 52 51 48
f 50 40 48
f 48 40 42
f 44 47 46
f 46 47 45
f 45 52 46
f 52 48 46
f 46 48 42
f 888 895 894
f 1004 976 614
f 955 956 919
f 919 954 955
f 575 574 570
f 582 577 580
f 574 577 572
f 570 574 572
f 957 956 572
f 900 905 906
f 906 902 900
f 909 1046 906
f 700 702 695
f 695 702 1208
f 1213 1205 1204
f 1279 1202 1204
f 1202 1213 1204
f 560 565 562
f 559 696 560
f 689 1272 592
f 689 1273 1269
f 1269 1272 689
f 1277 573 547
f 1276 1273 1278
f 573 1277 1276
f 589 587 592
f 592 587 590
f 590 689 592
f 1278 1273 590
f 1273 689 590
f 585 580 584
f 584 589 585
f 587 589 584
f 652 651 650
f 656 1053 1052
f 662 972 656
f 972 1053 656
f 650 649 646
f 646 652 650
f 655 652 646
f 646 649 647
f 647 642 646
f 636 632 631
f 636 969 968
f 1052 969 636
f 626 620 621
f 621 620 618
f 622 621 618
f 1271 1270 1268
f 628 627 626
f 1257 628 1258
f 629 628 1257
f 629 1257 643
f 643 1259 1254
f 1260 1259 643
f 61 1102 70
f 70 64 61
f 79 1102 61
f 61 64 79
f 62 65 79
f 79 64 62
f 62 64 65
f 67 68 69
f 67 64 68
f 66 64 67
f 69 78 67
f 78 66 67
f 1102 85 86
f 87 68 86
f 86 68 70
f 70 1102 86
f 92 94 98
f 98 86 85
f 98 94 87
f 87 86 98
f 1016 105 1104
f 1104 1107 1016
f 105 1107 1104
f 1016 1107 1014
f 1014 1015 1016
f 75 49 1122
f 1122 49 80
f 1119 75 1122
f 1122 80 1143
f 122 119 118
f 118 1099 122
f 1016 1099 118
f 118 105 1016
f 118 117 105
f 119 106 118
f 106 117 118
f 1023 1024 1022
f 1092 147 142
f 115 1125 1127
f 77 78 69
f 74 66 77
f 77 66 78
f 210 207 208
f 208 198 196
f 208 207 198
f 1027 1093 1026
f 1023 1028 1026
f 1026 1028 1027
f 200 210 214
f 214 210 215
f 199 193 201
f 199 201 1150
f 213 214 215
f 212 220 217
f 217 211 212
f 215 220 212
f 212 213 215
f 211 214 212
f 214 213 212
f 178 185 179
f 185 181 179
f 179 173 178
f 170 173 179
f 160 153 159
f 159 153 154
f 159 167 160
f 166 167 159
f 1013 1023 1018
f 1018 1014 1013
f 158 155 1108
f 178 173 172
f 172 173 166
f 172 1109 178
f 1098 1109 172
f 239 249 237
f 257 266 258
f 258 266 256
f 258 251 257
f 258 256 251
f 257 1077 265
f 265 1077 267
f 265 266 257
f 267 266 265
f 501 496 497
f 509 1265 1263
f 1263 505 509
f 1262 1251 1263
f 1263 1265 1262
f 16 27 12
f 12 11 16
f 16 24 34
f 34 28 16
f 32 36 135
f 31 36 32
f 30 36 31
f 857 850 852
f 852 856 857
f 857 856 863
f 857 863 849
f 849 850 857
f 24 1117 43
f 1117 1118 43
f 34 24 43
f 1123 1118 863
f 863 864 1123
f 859 136 135
f 340 325 338
f 371 1205 1238
f 371 1113 1205
f 1249 1253 371
f 1253 1254 371
f 371 1247 1249
f 371 396 1247
f 475 479 474
f 479 473 474
f 977 501 492
f 491 487 492
f 501 497 492
f 492 496 491
f 492 497 496
f 1247 396 480
f 480 479 1248
f 977 979 982
f 1001 999 996
f 996 412 1001
f 996 409 406
f 406 412 996
f 409 412 406
f 1043 1067 441
f 522 523 526
f 524 1040 520
f 520 516 524
f 524 529 1040
f 190 193 194
f 101 100 112
f 1168 1164 1162
f 1162 313 1168
f 543 313 311
f 1161 311 313
f 1161 1162 1160
f 313 1162 1161
f 531 535 542
f 542 317 314
f 314 539 542
f 312 311 304
f 311 1161 304
f 312 304 295
f 295 304 285
f 299 1055 303
f 303 306 299
f 305 309 307
f 233 247 243
f 245 243 247
f 244 242 245
f 242 243 245
f 248 233 235
f 248 247 233
f 248 249 251
f 248 251 252
f 244 245 1172
f 1172 247 260
f 1172 245 247
f 260 259 264
f 285 304 294
f 294 304 1161
f 294 1161 1160
f 276 275 279
f 999 1001 413
f 413 1001 412
f 413 412 409
f 428 431 425
f 431 424 425
f 502 510 503
f 502 504 510
f 501 504 502
f 499 501 502
f 502 500 499
f 503 500 502
f 508 501 510
f 510 504 508
f 508 504 501
f 675 668 676
f 970 972 675
f 675 676 970
f 675 972 662
f 662 668 675
f 510 676 684
f 1262 1265 511
f 511 1265 509
f 488 487 491
f 327 329 337
f 337 338 327
f 327 338 325
f 1003 1047 1057
f 343 993 1057
f 1057 993 1003
f 1057 1047 330
f 1057 334 343
f 404 356 403
f 404 409 996
f 403 409 404
f 995 356 355
f 472 466 471
f 471 466 461
f 461 469 471
f 520 472 471
f 471 514 520
f 513 514 471
f 471 468 513
f 471 469 468
f 1037 1040 315
f 538 533 315
f 315 536 538
f 536 529 538
f 1055 1035 1090
f 303 1055 1090
f 315 316 1090
f 1090 316 539
f 1090 306 303
f 310 306 1090
f 539 317 1090
f 1090 317 310
f 1034 1035 296
f 1033 1035 1034
f 1036 1037 315
f 315 1090 1036
f 1036 1090 1035
f 1038 1039 1036
f 1036 1039 1040
f 1040 1037 1036
f 1036 1041 1038
f 1042 1041 1036
f 1013 1042 1036
f 1036 1035 1013
f 707 917 916
f 916 913 707
f 908 912 909
f 905 910 908
f 909 906 908
f 908 906 905
f 1199 910 1220
f 1199 711 918
f 1279 711 1199
f 1220 1202 1199
f 1199 1202 1279
f 1214 1215 1197
f 1214 892 1215
f 1214 1197 1198
f 1198 892 1214
f 889 887 886
f 883 890 889
f 889 890 896
f 896 887 889
f 1188 1197 1192
f 1197 1196 1192
f 1192 1196 1215
f 1215 1194 1192
f 1200 892 890
f 1200 890 883
f 883 884 1200
f 893 892 1200
f 1200 884 893
f 879 886 880
f 1215 884 1217
f 773 1216 1217
f 1217 1216 1215
f 755 747 759
f 752 747 755
f 746 752 748
f 746 747 752
f 776 747 746
f 757 1219 719
f 721 757 719
f 743 744 752
f 752 741 743
f 743 741 744
f 778 791 1221
f 777 779 778
f 775 747 776
f 775 776 777
f 777 778 775
f 806 797 805
f 807 815 816
f 816 818 807
f 807 802 801
f 801 815 807
f 805 800 807
f 807 800 802
f 829 830 826
f 774 779 777
f 748 752 1054
f 798 800 797
f 797 799 798
f 798 799 800
f 1175 1181 1176
f 866 904 867
f 866 1185 904
f 1186 1185 866
f 787 1186 785
f 1221 1186 787
f 785 778 787
f 787 778 1221
f 837 844 1177
f 849 1178 1177
f 834 844 837
f 831 830 834
f 834 830 829
f 829 835 834
f 848 844 847
f 847 850 848
f 847 851 850
f 18 6 20
f 20 19 18
f 1096 23 20
f 20 6 1096
f 1010 1048 1008
f 1008 1007 1010
f 1048 1007 1008
f 25 1048 17
f 25 1007 1048
f 17 13 25
f 25 13 26
f 1086 1087 853
f 855 853 854
f 853 1087 854
f 855 854 860
f 860 854 1087
f 1088 860 1087
f 725 1082 731
f 935 1082 934
f 1069 1082 718
f 726 1082 1069
f 1081 822 1059
f 943 948 946
f 943 942 1005
f 1005 948 943
f 1 4 8
f 9 22 21
f 21 40 9
f 22 40 21
f 50 48 55
f 1230 50 55
f 55 57 1230
f 41 42 44
f 44 46 41
f 41 46 42
f 921 1105 951
f 881 880 951
f 951 1105 881
f 880 886 951
f 886 887 951
f 895 902 903
f 903 894 895
f 604 1271 1070
f 603 605 596
f 960 956 957
f 960 961 956
f 596 605 960
f 605 961 960
f 956 961 966
f 966 967 968
f 968 919 966
f 919 956 966
f 962 961 976
f 964 966 962
f 962 966 961
f 963 962 976
f 964 962 963
f 932 954 919
f 700 697 699
f 707 704 705
f 705 704 700
f 691 696 559
f 691 697 696
f 562 1211 1223
f 569 575 570
f 570 572 569
f 569 572 573
f 957 582 588
f 588 965 957
f 591 965 588
f 588 582 580
f 577 582 576
f 576 572 577
f 576 582 957
f 957 572 576
f 573 572 568
f 700 704 701
f 701 702 700
f 704 702 701
f 703 702 704
f 704 706 703
f 706 708 703
f 703 708 1280
f 1208 702 1210
f 700 695 694
f 694 697 700
f 696 697 694
f 694 560 696
f 698 695 1208
f 592 1272 599
f 599 1272 1269
f 1114 1259 1269
f 1269 1273 1114
f 1254 1259 1114
f 1114 1273 1281
f 1281 1113 1114
f 1114 371 1254
f 1113 371 1114
f 573 1276 578
f 578 569 573
f 575 569 578
f 578 1276 1278
f 1281 1273 1274
f 1273 1276 1274
f 1278 590 583
f 583 590 587
f 583 578 1278
f 657 653 651
f 658 662 657
f 662 656 657
f 657 659 658
f 651 659 657
f 1052 648 654
f 654 656 1052
f 654 648 653
f 653 657 654
f 654 657 656
f 677 671 678
f 678 681 677
f 666 671 670
f 670 673 667
f 677 673 670
f 670 671 677
f 690 1254 1253
f 690 1251 1262
f 690 1253 1251
f 666 659 664
f 664 671 666
f 661 659 651
f 661 664 659
f 661 652 655
f 645 642 637
f 645 646 642
f 641 642 1052
f 637 642 640
f 640 636 637
f 642 641 640
f 640 641 636
f 606 1271 604
f 1270 1271 606
f 1268 1269 1266
f 1266 1271 1268
f 1269 1260 1266
f 1260 1267 1266
f 1266 1267 1271
f 1258 628 625
f 625 623 1258
f 622 623 625
f 625 628 626
f 626 621 625
f 621 622 625
f 638 643 637
f 637 636 638
f 638 636 639
f 629 643 634
f 84 85 1102
f 90 1091 1102
f 93 98 85
f 93 1091 92
f 92 98 93
f 1106 1014 1107
f 1106 90 1102
f 1106 1102 1013
f 1013 1014 1106
f 1091 90 1106
f 1106 1107 92
f 92 1091 1106
f 131 126 129
f 131 130 126
f 95 100 101
f 87 94 95
f 95 94 99
f 99 100 95
f 82 1127 1125
f 82 77 69
f 83 82 1125
f 77 82 83
f 220 228 224
f 228 229 224
f 229 1151 224
f 217 220 224
f 224 1149 217
f 224 1151 1149
f 1152 1151 229
f 1153 1151 1152
f 216 1093 210
f 210 208 216
f 1023 1026 216
f 216 1026 1093
f 216 208 196
f 202 214 211
f 211 201 202
f 190 200 202
f 202 193 190
f 202 201 193
f 217 1149 218
f 209 201 211
f 209 1150 201
f 209 211 217
f 217 218 209
f 209 218 1150
f 232 238 231
f 231 237 230
f 227 228 220
f 227 230 235
f 235 233 227
f 221 222 215
f 221 230 222
f 162 154 158
f 162 159 154
f 158 166 162
f 166 159 162
f 1015 1014 1017
f 1014 1018 1017
f 1016 1015 1017
f 1017 1100 1016
f 1103 1108 155
f 1098 1108 1103
f 1103 1020 1098
f 155 147 1103
f 147 1020 1103
f 1025 184 178
f 178 1109 1025
f 1025 1024 184
f 1025 1109 1098
f 163 1108 1098
f 1098 172 163
f 163 172 166
f 163 166 158
f 158 1108 163
f 256 266 253
f 266 269 253
f 252 256 253
f 253 248 252
f 259 248 253
f 270 266 276
f 270 269 266
f 14 16 11
f 14 1 8
f 8 15 14
f 14 11 4
f 4 1 14
f 14 15 24
f 24 16 14
f 1118 1123 35
f 35 28 34
f 35 36 28
f 34 43 35
f 35 43 1118
f 865 864 135
f 865 1123 864
f 865 35 1123
f 135 36 865
f 36 35 865
f 135 856 858
f 858 859 135
f 321 325 340
f 340 320 321
f 352 400 353
f 353 336 352
f 352 336 400
f 332 353 331
f 332 336 353
f 459 1239 341
f 341 320 340
f 341 1239 320
f 495 336 1237
f 1237 336 318
f 318 320 319
f 320 1239 319
f 319 1237 318
f 319 1239 459
f 319 459 1236
f 319 1236 495
f 495 1237 319
f 1236 459 1240
f 459 371 1240
f 1240 1238 1236
f 1240 371 1238
f 486 483 475
f 487 483 486
f 388 385 387
f 382 1002 387
f 381 1002 382
f 983 987 986
f 1084 985 986
f 977 492 978
f 978 979 977
f 492 979 978
f 482 979 492
f 482 474 473
f 473 982 482
f 482 982 979
f 475 474 482
f 482 486 475
f 487 486 482
f 399 395 394
f 432 431 428
f 436 431 432
f 432 1067 436
f 434 435 430
f 437 435 434
f 437 441 1067
f 1067 432 437
f 437 432 435
f 447 448 1043
f 515 522 516
f 515 514 517
f 515 516 514
f 517 523 515
f 523 522 515
f 516 522 521
f 521 524 516
f 526 529 525
f 529 524 525
f 525 522 526
f 525 521 522
f 524 521 525
f 150 153 160
f 101 112 113
f 115 1127 113
f 108 1134 1140
f 107 120 108
f 102 112 100
f 99 103 102
f 102 100 99
f 103 104 102
f 102 104 107
f 107 108 102
f 234 242 228
f 234 227 233
f 228 227 234
f 233 243 234
f 234 243 242
f 1160 1162 1163
f 1163 1162 1164
f 543 542 1169
f 1168 313 1169
f 1169 313 543
f 1169 535 1168
f 1169 542 535
f 544 317 540
f 317 542 540
f 540 543 544
f 540 542 543
f 541 534 531
f 531 542 541
f 537 534 541
f 539 537 541
f 541 542 539
f 272 1033 293
f 288 279 293
f 293 1034 296
f 1033 1034 293
f 298 300 305
f 298 295 300
f 286 291 300
f 300 295 286
f 286 295 285
f 285 282 286
f 287 293 296
f 296 1055 287
f 1055 299 287
f 308 309 544
f 308 307 309
f 544 543 308
f 543 311 308
f 308 311 312
f 236 237 249
f 249 248 236
f 236 248 235
f 235 230 236
f 230 237 236
f 254 259 247
f 247 248 254
f 254 248 259
f 260 264 263
f 1157 263 271
f 271 263 264
f 271 264 269
f 1159 1160 1153
f 1153 294 1159
f 1159 294 1160
f 276 279 290
f 290 279 288
f 288 293 290
f 290 293 291
f 291 286 290
f 423 413 422
f 423 425 424
f 423 422 428
f 428 425 423
f 414 413 409
f 422 413 414
f 676 681 685
f 685 684 676
f 510 684 685
f 685 678 682
f 681 678 685
f 507 687 506
f 506 511 509
f 503 507 506
f 506 505 503
f 509 505 506
f 688 506 687
f 511 506 688
f 1248 483 484
f 484 483 487
f 487 488 484
f 491 496 493
f 493 488 491
f 496 494 493
f 493 494 488
f 343 334 333
f 331 995 333
f 333 995 343
f 334 1057 333
f 333 1057 330
f 330 322 333
f 405 404 996
f 356 404 405
f 405 355 356
f 996 995 405
f 995 355 405
f 532 529 533
f 533 538 532
f 532 538 529
f 913 916 914
f 914 915 912
f 912 913 914
f 917 915 914
f 914 916 917
f 911 908 910
f 918 913 911
f 911 913 912
f 912 908 911
f 911 1199 918
f 910 1199 911
f 1195 1194 1215
f 1215 1216 1195
f 773 1194 1195
f 1195 1216 773
f 1189 1190 1188
f 1187 1190 1189
f 886 879 885
f 883 889 885
f 885 889 886
f 878 884 883
f 883 885 878
f 878 885 879
f 878 877 884
f 878 879 877
f 882 1217 884
f 725 733 723
f 1221 791 792
f 782 775 778
f 782 781 747
f 747 775 782
f 791 778 790
f 790 786 788
f 796 797 790
f 797 792 790
f 790 792 791
f 809 806 805
f 808 806 809
f 805 807 809
f 809 807 808
f 797 806 795
f 803 1221 795
f 795 792 797
f 1221 792 795
f 811 806 808
f 808 807 812
f 812 807 818
f 816 822 821
f 821 1081 820
f 822 1081 821
f 780 778 779
f 786 790 780
f 780 790 778
f 748 1054 749
f 1097 742 734
f 741 742 1097
f 752 744 745
f 1179 1176 1181
f 849 1175 1179
f 1175 1176 1179
f 1179 1178 849
f 785 1186 784
f 1186 866 784
f 781 782 784
f 784 778 785
f 784 782 778
f 845 844 849
f 849 1177 845
f 845 1177 844
f 841 834 836
f 843 847 844
f 844 834 843
f 843 841 840
f 834 841 843
f 44 19 39
f 19 20 39
f 39 23 44
f 39 20 23
f 1006 1007 862
f 862 1088 1087
f 136 860 862
f 860 1088 862
f 862 1086 1006
f 1087 1086 862
f 29 30 862
f 862 30 31
f 31 32 862
f 135 136 862
f 862 32 135
f 26 27 33
f 33 25 26
f 33 16 28
f 27 16 33
f 28 36 33
f 29 862 33
f 33 30 29
f 36 30 33
f 1007 25 33
f 33 862 1007
f 1005 1006 1085
f 1006 1086 1085
f 851 847 1085
f 853 851 1085
f 1085 1086 853
f 719 1219 717
f 1219 765 717
f 727 728 726
f 925 923 924
f 925 728 923
f 732 733 725
f 725 731 732
f 732 731 734
f 930 1082 726
f 930 934 1082
f 935 934 930
f 820 1081 1080
f 1080 821 820
f 949 948 1005
f 1005 1085 949
f 786 780 1112
f 779 774 1112
f 1112 780 779
f 789 1089 793
f 788 789 793
f 793 790 788
f 793 1061 796
f 796 790 793
f 823 1081 1059
f 823 1080 1081
f 1065 1059 801
f 801 802 1065
f 944 943 946
f 813 1065 944
f 56 48 51
f 56 55 48
f 57 55 56
f 58 57 56
f 56 52 58
f 56 51 52
f 921 951 950
f 950 951 894
f 950 903 921
f 894 903 950
f 888 894 891
f 894 951 891
f 891 887 888
f 891 951 887
f 907 903 902
f 907 906 1046
f 902 906 907
f 1046 926 907
f 604 1070 1079
f 1079 961 605
f 1079 1070 961
f 975 1267 976
f 1271 1267 975
f 976 961 975
f 961 1070 975
f 597 598 600
f 600 599 1269
f 600 598 592
f 592 599 600
f 596 597 601
f 601 603 596
f 597 600 601
f 601 600 1269
f 605 603 602
f 602 606 604
f 1270 606 602
f 604 1079 602
f 602 1079 605
f 602 1269 1268
f 1268 1270 602
f 602 601 1269
f 603 601 602
f 968 967 1051
f 1051 636 968
f 967 966 1051
f 1051 966 964
f 627 628 1051
f 1051 628 629
f 624 627 1051
f 1051 620 624
f 1078 965 591
f 596 960 959
f 959 960 957
f 595 598 597
f 592 598 595
f 697 691 692
f 919 915 710
f 710 915 917
f 710 917 707
f 707 705 710
f 919 710 920
f 697 692 931
f 931 692 932
f 931 932 919
f 919 920 931
f 559 560 561
f 561 555 559
f 561 560 562
f 545 546 547
f 547 546 1227
f 1227 1277 547
f 1281 1277 1227
f 557 955 954
f 557 1056 955
f 556 1056 553
f 955 1056 556
f 551 546 553
f 553 1056 551
f 1226 1227 546
f 591 588 586
f 586 580 585
f 586 588 580
f 585 589 586
f 589 594 586
f 586 1078 591
f 594 1078 586
f 547 573 567
f 571 568 572
f 571 556 553
f 955 556 571
f 956 955 571
f 571 572 956
f 1208 1210 1209
f 1279 1204 1209
f 1209 1280 1279
f 1209 703 1280
f 702 703 1209
f 1209 1210 702
f 1206 698 1208
f 1208 1209 1206
f 1206 1209 1204
f 1206 1207 698
f 562 1207 1206
f 1206 1211 562
f 1206 1223 1211
f 695 698 1212
f 1212 694 695
f 562 565 1212
f 565 560 1212
f 560 694 1212
f 1212 1207 562
f 698 1207 1212
f 1281 1274 1275
f 1275 1274 1276
f 1275 1277 1281
f 1275 1276 1277
f 587 584 581
f 581 583 587
f 575 578 581
f 578 583 581
f 666 670 665
f 658 659 665
f 665 659 666
f 665 662 658
f 665 668 662
f 667 668 665
f 665 670 667
f 680 690 1262
f 651 652 660
f 660 661 651
f 652 661 660
f 637 643 1256
f 1256 645 637
f 655 646 1255
f 646 645 1255
f 645 1256 1255
f 1255 643 1254
f 1255 1256 643
f 1052 636 644
f 644 641 1052
f 636 641 644
f 1261 623 1260
f 1258 623 1261
f 1261 1257 1258
f 1260 643 1261
f 1261 643 1257
f 1264 622 618
f 1264 623 622
f 976 1267 608
f 608 1267 609
f 608 611 976
f 609 611 608
f 610 611 609
f 609 1267 610
f 1260 611 610
f 610 1267 1260
f 633 638 639
f 639 636 633
f 633 636 631
f 631 634 633
f 633 634 643
f 85 84 89
f 89 93 85
f 1091 93 89
f 1102 1091 89
f 89 84 1102
f 130 131 139
f 139 131 129
f 129 1100 139
f 1100 1092 139
f 139 1092 142
f 91 95 101
f 101 113 91
f 91 113 1127
f 1127 82 91
f 1230 1243 1124
f 1124 80 1230
f 1143 80 1124
f 74 77 73
f 77 83 73
f 73 57 74
f 228 242 241
f 241 229 228
f 241 1152 229
f 241 242 244
f 244 1152 241
f 244 1172 1173
f 1173 263 1157
f 1172 263 1173
f 1153 1152 1173
f 196 1023 1066
f 1066 216 196
f 1023 216 1066
f 200 214 203
f 203 202 200
f 214 202 203
f 240 238 239
f 240 231 238
f 239 237 240
f 237 231 240
f 226 227 220
f 222 230 226
f 230 227 226
f 219 231 230
f 230 221 219
f 219 225 232
f 232 231 219
f 1094 225 219
f 215 1094 219
f 219 221 215
f 1019 1017 1018
f 1023 1022 1019
f 1019 1018 1023
f 1019 1022 1024
f 1024 1020 1019
f 1098 1020 1021
f 1021 1025 1098
f 1021 1020 1024
f 1024 1025 1021
f 269 264 255
f 255 253 269
f 255 264 259
f 259 253 255
f 277 270 276
f 276 290 277
f 278 269 277
f 269 270 277
f 859 858 861
f 136 859 861
f 861 860 136
f 861 858 856
f 861 856 855
f 855 860 861
f 323 320 325
f 325 321 323
f 323 321 320
f 329 327 326
f 326 327 325
f 328 1047 329
f 329 322 328
f 330 1047 328
f 328 322 330
f 324 320 318
f 325 320 324
f 324 332 331
f 318 332 324
f 331 333 324
f 324 333 322
f 324 326 325
f 324 322 329
f 329 326 324
f 318 336 335
f 335 332 318
f 336 332 335
f 340 338 339
f 339 351 340
f 338 351 339
f 349 341 340
f 340 351 349
f 459 341 357
f 342 338 337
f 342 344 338
f 337 329 342
f 329 1047 342
f 342 1047 1003
f 1003 344 342
f 992 993 988
f 988 1003 992
f 988 993 994
f 1042 977 988
f 988 994 1042
f 359 371 459
f 459 357 359
f 390 388 392
f 392 395 390
f 390 395 396
f 385 388 386
f 394 395 393
f 396 395 397
f 479 480 481
f 1084 986 372
f 372 986 987
f 1072 983 392
f 392 388 1072
f 1072 388 387
f 387 1002 1072
f 984 987 983
f 490 492 487
f 487 482 490
f 490 482 492
f 392 983 1075
f 983 399 1075
f 1075 399 394
f 394 393 1075
f 1075 395 392
f 1075 393 395
f 980 399 983
f 982 399 980
f 980 988 977
f 985 988 980
f 983 986 980
f 980 986 985
f 457 982 473
f 400 401 402
f 403 353 402
f 353 400 402
f 402 409 403
f 407 401 400
f 410 401 407
f 407 411 410
f 410 411 1235
f 495 1236 440
f 1236 411 440
f 440 336 495
f 400 336 440
f 440 407 400
f 411 407 440
f 427 432 428
f 435 432 427
f 428 422 427
f 422 430 429
f 429 430 435
f 429 427 422
f 435 427 429
f 426 430 422
f 439 437 434
f 441 437 439
f 1043 441 446
f 461 448 462
f 161 150 160
f 153 150 156
f 188 194 193
f 120 123 124
f 124 123 126
f 1128 1126 115
f 1128 1130 1126
f 115 113 1128
f 114 113 112
f 114 116 1140
f 1140 1128 114
f 114 1128 113
f 112 102 110
f 110 102 108
f 110 114 112
f 116 114 110
f 1140 116 110
f 110 108 1140
f 1160 1163 1231
f 1236 1160 1231
f 1231 1232 1236
f 272 293 280
f 280 293 279
f 285 284 283
f 283 282 285
f 295 298 302
f 312 295 302
f 305 307 302
f 302 298 305
f 302 308 312
f 307 308 302
f 297 287 299
f 297 306 300
f 297 299 306
f 300 291 297
f 291 287 297
f 291 293 289
f 289 287 291
f 293 287 289
f 262 1172 260
f 260 263 262
f 262 263 1172
f 1157 271 1158
f 273 269 278
f 273 271 269
f 278 284 273
f 273 284 285
f 285 294 273
f 294 1158 273
f 273 1158 271
f 281 283 284
f 282 283 281
f 281 284 278
f 278 277 281
f 419 423 424
f 413 423 419
f 419 424 999
f 999 413 419
f 417 414 409
f 422 414 417
f 682 687 686
f 686 685 682
f 686 687 510
f 510 685 686
f 1251 1247 1250
f 1250 494 1251
f 488 494 1250
f 498 494 496
f 498 496 500
f 500 505 498
f 505 1263 498
f 498 1263 1251
f 1251 494 498
f 489 484 488
f 488 1250 489
f 489 1250 1247
f 1194 765 1193
f 1191 1192 1194
f 1188 1192 1191
f 1191 1189 1188
f 758 765 1219
f 1219 757 758
f 758 1193 765
f 1194 1193 758
f 737 732 734
f 733 732 737
f 877 879 874
f 884 877 874
f 874 882 884
f 1217 882 874
f 881 875 873
f 873 875 1083
f 873 880 881
f 873 879 880
f 1217 874 869
f 869 874 871
f 751 741 752
f 751 742 741
f 752 755 751
f 742 751 760
f 759 1190 760
f 760 1190 1187
f 760 755 759
f 760 751 755
f 724 722 725
f 725 723 724
f 724 723 733
f 904 1185 804
f 803 795 804
f 804 795 806
f 804 1185 1186
f 804 1221 803
f 804 1186 1221
f 819 811 808
f 808 812 819
f 819 812 818
f 1182 819 824
f 824 819 818
f 824 1179 1182
f 827 1179 824
f 1180 1177 1178
f 1178 1179 1180
f 1180 1179 827
f 1180 830 831
f 1180 826 830
f 1180 827 826
f 816 821 817
f 817 818 816
f 730 1082 935
f 750 1054 752
f 752 745 750
f 754 745 1097
f 1054 750 754
f 754 750 745
f 744 741 739
f 739 745 744
f 741 1097 739
f 1097 745 739
f 1184 1181 904
f 1184 1179 1181
f 904 804 1184
f 1184 819 1182
f 811 819 1184
f 781 784 783
f 783 784 866
f 867 781 783
f 783 866 867
f 842 841 836
f 840 1085 839
f 839 1085 847
f 839 843 840
f 847 843 839
f 712 727 726
f 719 717 712
f 712 721 719
f 712 1069 718
f 726 1069 712
f 728 727 712
f 728 1058 772
f 772 1095 923
f 923 728 772
f 726 728 929
f 929 930 726
f 928 925 924
f 924 935 928
f 935 930 928
f 930 929 928
f 728 925 928
f 928 929 728
f 1064 949 1085
f 1064 834 835
f 1064 835 829
f 829 832 1064
f 947 823 946
f 1080 823 947
f 946 948 947
f 948 949 947
f 947 832 829
f 947 1064 832
f 949 1064 947
f 829 826 947
f 826 821 947
f 821 1080 947
f 763 749 1054
f 764 1112 774
f 748 749 764
f 749 763 764
f 764 746 748
f 776 746 764
f 777 776 764
f 764 774 777
f 786 1112 1111
f 1112 794 1111
f 1111 789 788
f 788 786 1111
f 1111 1089 789
f 1111 794 1089
f 1045 794 943
f 1045 944 1061
f 943 944 1045
f 1089 794 1045
f 1061 793 1045
f 1045 793 1089
f 946 823 814
f 813 944 814
f 814 1065 813
f 814 823 1059
f 1059 1065 814
f 800 799 1063
f 799 1061 1063
f 802 800 1063
f 1063 1065 802
f 1061 944 1062
f 1062 944 1065
f 1062 1063 1061
f 1065 1063 1062
f 773 770 771
f 770 767 771
f 771 1194 773
f 761 717 765
f 714 767 766
f 714 717 715
f 921 903 927
f 903 907 927
f 927 907 926
f 919 921 927
f 927 926 919
f 607 1070 1271
f 1271 975 607
f 607 975 1070
f 632 636 1044
f 631 632 1044
f 1044 1051 629
f 1044 634 631
f 629 634 1044
f 1050 1051 615
f 615 1051 964
f 964 963 615
f 615 617 618
f 615 963 976
f 614 612 615
f 612 617 615
f 620 1051 619
f 619 1051 1050
f 1050 615 619
f 618 620 619
f 619 615 618
f 596 1078 1110
f 1110 1078 594
f 594 595 1110
f 1110 597 596
f 1110 595 597
f 958 1078 596
f 596 959 958
f 965 1078 958
f 957 965 958
f 958 959 957
f 592 595 593
f 593 595 594
f 593 589 592
f 593 594 589
f 954 932 933
f 1076 699 697
f 1076 710 705
f 700 699 1076
f 1076 705 700
f 1076 920 710
f 1076 931 920
f 1222 561 562
f 562 1223 1222
f 548 1226 546
f 1056 1226 548
f 1056 557 552
f 552 1226 1056
f 554 1226 552
f 1227 1226 1225
f 1281 1227 1225
f 1225 1226 554
f 1225 1113 1281
f 1225 1206 1204
f 1223 1206 1225
f 1225 1204 1205
f 1205 1113 1225
f 573 568 566
f 566 567 573
f 568 571 549
f 549 545 547
f 549 571 553
f 549 566 568
f 553 546 549
f 546 545 549
f 547 567 549
f 567 566 549
f 579 584 580
f 579 581 584
f 579 580 574
f 574 575 579
f 575 581 579
f 679 678 671
f 679 680 678
f 690 680 669
f 682 678 683
f 678 680 683
f 683 687 682
f 683 688 687
f 511 688 683
f 1262 511 683
f 683 680 1262
f 1260 623 613
f 623 1264 613
f 612 611 613
f 613 611 1260
f 613 617 612
f 618 617 613
f 613 1264 618
f 643 638 635
f 635 633 643
f 638 633 635
f 88 82 69
f 88 91 82
f 88 68 87
f 69 68 88
f 87 95 88
f 95 91 88
f 111 83 1125
f 111 1124 83
f 1126 1142 111
f 111 1142 1124
f 81 73 83
f 81 1124 1243
f 83 1124 81
f 57 73 81
f 81 1243 1230
f 1230 57 81
f 246 1152 244
f 244 1173 246
f 246 1173 1152
f 220 222 223
f 223 226 220
f 222 226 223
f 1017 1019 148
f 148 1092 1100
f 1100 1017 148
f 147 1092 148
f 148 1020 147
f 148 1019 1020
f 354 357 341
f 351 357 354
f 341 349 354
f 354 349 351
f 338 348 347
f 370 985 1084
f 1068 348 338
f 1068 988 985
f 369 370 1084
f 348 370 369
f 371 359 363
f 363 359 364
f 373 371 363
f 363 364 373
f 381 382 374
f 374 375 381
f 396 388 391
f 391 390 396
f 388 390 391
f 382 386 383
f 385 386 384
f 384 386 382
f 387 385 384
f 384 382 387
f 389 388 396
f 389 386 388
f 380 1002 381
f 381 375 376
f 376 372 381
f 375 372 376
f 362 372 375
f 375 374 362
f 362 369 1084
f 1002 380 991
f 991 984 983
f 991 372 987
f 987 984 991
f 983 1072 991
f 991 1072 1002
f 977 982 981
f 981 980 977
f 982 980 981
f 395 399 451
f 399 455 451
f 477 457 473
f 477 456 457
f 409 402 408
f 410 1235 408
f 408 401 410
f 408 402 401
f 1233 1235 411
f 1236 1232 1233
f 1233 411 1236
f 1232 1231 1233
f 421 426 422
f 430 426 420
f 426 421 420
f 416 1235 420
f 1235 1233 420
f 420 421 422
f 438 439 434
f 445 447 1043
f 1043 446 445
f 445 446 441
f 1170 530 527
f 1170 1164 1168
f 1168 530 1170
f 448 447 450
f 468 461 467
f 461 462 467
f 513 468 467
f 467 512 513
f 467 462 464
f 146 153 141
f 153 156 141
f 142 146 141
f 141 139 142
f 140 139 141
f 151 156 150
f 205 193 199
f 205 188 193
f 199 1150 205
f 194 188 183
f 183 182 190
f 190 194 183
f 183 181 182
f 183 179 181
f 1149 1151 1148
f 1148 1151 1153
f 1153 1115 1148
f 121 124 1134
f 121 108 120
f 120 124 121
f 127 1128 1140
f 1130 1128 127
f 1140 1134 127
f 1188 1175 1120
f 1120 1175 1116
f 1120 1146 1153
f 1120 1205 1188
f 1153 1205 1120
f 1119 1122 1120
f 1116 1117 1120
f 1120 1117 1119
f 1130 127 1131
f 1131 127 1132
f 1126 1130 1131
f 1131 1142 1126
f 274 279 275
f 274 280 279
f 274 275 272
f 272 280 274
f 1156 1173 1157
f 1157 1158 1156
f 1153 1173 1156
f 1156 294 1153
f 1156 1158 294
f 292 277 290
f 292 281 277
f 282 281 292
f 292 286 282
f 292 290 286
f 422 417 415
f 415 420 422
f 416 420 415
f 415 408 1235
f 415 417 409
f 409 408 415
f 1248 484 485
f 484 489 485
f 485 489 1247
f 485 480 1248
f 1247 480 485
f 753 758 757
f 757 724 753
f 753 724 733
f 879 873 870
f 870 874 879
f 871 874 870
f 870 869 871
f 1083 1095 872
f 872 873 1083
f 872 870 873
f 869 870 872
f 773 1217 868
f 868 869 773
f 1217 869 868
f 742 760 756
f 1187 1189 756
f 756 760 1187
f 722 724 720
f 718 722 720
f 757 721 720
f 720 724 757
f 720 712 718
f 721 712 720
f 806 811 810
f 810 804 806
f 811 1184 810
f 810 1184 804
f 837 1177 833
f 1177 1180 833
f 833 1180 831
f 831 834 833
f 833 834 837
f 827 824 828
f 826 827 828
f 828 821 826
f 825 824 818
f 818 817 825
f 825 828 824
f 825 817 821
f 821 828 825
f 936 935 942
f 942 938 936
f 1054 754 1074
f 1074 754 1097
f 1074 763 1054
f 735 1097 734
f 1182 1179 1183
f 1183 1184 1182
f 1179 1184 1183
f 846 842 1085
f 840 841 846
f 846 1085 840
f 1085 842 1101
f 1101 1064 1085
f 1101 842 836
f 836 834 1101
f 834 1064 1101
f 938 763 939
f 939 936 938
f 937 936 939
f 941 794 1112
f 941 938 942
f 941 763 938
f 1112 764 941
f 941 764 763
f 942 943 941
f 943 794 941
f 945 944 946
f 946 814 945
f 945 814 944
f 767 714 762
f 762 771 767
f 1194 771 762
f 762 765 1194
f 762 761 765
f 766 1058 713
f 713 714 766
f 713 1058 728
f 728 712 713
f 713 712 717
f 717 714 713
f 636 1051 630
f 630 1044 636
f 1051 1044 630
f 616 1004 614
f 614 615 616
f 976 1004 616
f 616 615 976
f 697 931 1060
f 1060 1076 697
f 931 1076 1060
f 555 561 1224
f 561 1222 1224
f 554 552 1224
f 1224 1222 1223
f 1224 552 557
f 1224 1225 554
f 1223 1225 1224
f 693 692 691
f 693 563 692
f 693 691 559
f 559 563 693
f 954 933 953
f 953 557 954
f 559 555 558
f 558 563 559
f 555 1224 558
f 558 1224 557
f 550 551 1056
f 1056 548 550
f 546 551 550
f 550 548 546
f 672 679 671
f 680 679 672
f 672 669 680
f 671 664 672
f 664 669 672
f 664 661 663
f 663 669 664
f 663 661 655
f 655 1255 663
f 690 669 663
f 1254 690 663
f 663 1255 1254
f 109 111 1125
f 1126 111 109
f 109 1125 115
f 115 1126 109
f 345 351 338
f 338 347 345
f 338 344 350
f 350 1068 338
f 344 1068 350
f 989 370 348
f 398 1068 344
f 988 1068 398
f 398 344 1003
f 1003 988 398
f 377 374 382
f 373 364 377
f 1084 372 368
f 368 362 1084
f 372 362 368
f 365 377 364
f 365 362 374
f 374 377 365
f 372 991 379
f 379 991 380
f 381 372 379
f 379 380 381
f 458 399 982
f 982 455 458
f 458 455 399
f 982 457 454
f 454 455 982
f 457 455 454
f 395 451 453
f 457 456 453
f 453 455 457
f 453 451 455
f 476 473 479
f 479 477 476
f 476 477 473
f 478 477 479
f 456 477 478
f 479 481 478
f 481 456 478
f 1234 1231 1229
f 1234 1233 1231
f 434 430 1242
f 1242 420 1233
f 1242 438 434
f 1233 1234 1242
f 1229 438 1242
f 1242 1234 1229
f 441 439 443
f 443 445 441
f 463 462 448
f 448 450 463
f 463 450 462
f 464 462 465
f 462 450 465
f 447 445 449
f 449 450 447
f 445 450 449
f 519 1170 527
f 519 527 517
f 517 512 519
f 512 467 519
f 150 161 168
f 168 169 150
f 168 161 160
f 160 167 168
f 168 167 170
f 140 141 138
f 138 139 140
f 130 139 138
f 126 130 138
f 156 151 152
f 175 176 1155
f 175 301 1154
f 1155 301 175
f 150 169 165
f 165 151 150
f 169 176 165
f 176 175 165
f 165 175 1154
f 1154 152 165
f 165 152 151
f 188 205 189
f 180 183 188
f 1146 301 1147
f 1147 1148 1115
f 1153 1146 1147
f 1147 1115 1153
f 1134 108 125
f 125 121 1134
f 108 121 125
f 1132 1139 1136
f 144 141 156
f 1138 1139 1132
f 1154 1139 1138
f 1132 127 1135
f 1135 134 1141
f 1124 1142 1121
f 1142 1120 1121
f 1143 1124 1121
f 1121 1122 1143
f 1121 1120 1122
f 1167 1231 1163
f 1163 1166 1167
f 1167 1166 1231
f 418 1235 416
f 416 415 418
f 418 415 1235
f 758 753 738
f 733 737 738
f 738 753 733
f 1194 758 738
f 738 756 1189
f 737 756 738
f 738 1191 1194
f 1189 1191 738
f 768 872 1095
f 1095 772 768
f 768 772 1058
f 768 1058 766
f 766 767 768
f 768 767 770
f 734 742 740
f 742 756 740
f 740 737 734
f 740 756 737
f 1071 936 937
f 935 936 1071
f 729 735 734
f 734 731 729
f 729 731 1082
f 1082 730 729
f 841 842 838
f 838 846 841
f 842 846 838
f 763 1074 940
f 940 939 763
f 937 939 940
f 940 1071 937
f 1074 1071 940
f 716 714 715
f 716 762 714
f 761 762 716
f 715 717 716
f 717 761 716
f 692 563 952
f 563 953 952
f 952 953 933
f 932 692 952
f 952 933 932
f 564 953 563
f 563 558 564
f 557 953 564
f 564 558 557
f 346 357 351
f 351 345 346
f 370 989 990
f 985 370 990
f 990 1068 985
f 348 1068 990
f 990 989 348
f 1241 383 386
f 1241 371 373
f 386 389 1241
f 396 371 1241
f 1241 389 396
f 382 383 378
f 378 377 382
f 383 1241 378
f 373 377 378
f 378 1241 373
f 367 347 348
f 367 366 347
f 348 369 367
f 369 362 367
f 362 366 367
f 452 397 395
f 395 453 452
f 1246 456 481
f 1246 453 456
f 430 420 433
f 433 1242 430
f 420 1242 433
f 470 467 464
f 464 465 470
f 1164 1170 1171
f 1171 470 465
f 1174 450 445
f 1174 465 450
f 445 443 1174
f 443 444 1174
f 1174 438 1229
f 1174 444 438
f 195 301 1155
f 188 189 187
f 187 180 188
f 177 176 169
f 1155 176 177
f 177 180 1155
f 1132 1136 1129
f 1129 1136 1142
f 1129 1131 1132
f 1142 1131 1129
f 1144 1139 1154
f 1144 1136 1139
f 1154 301 1144
f 1144 301 1146
f 1142 1136 1144
f 1146 1120 1144
f 1144 1120 1142
f 156 152 164
f 164 144 156
f 174 152 1154
f 1154 1138 174
f 1134 124 132
f 132 124 126
f 126 134 132
f 1133 127 1134
f 1133 1135 127
f 134 1135 1133
f 1134 132 1133
f 1133 132 134
f 869 872 769
f 872 768 769
f 773 869 769
f 769 770 773
f 769 768 770
f 736 1074 1097
f 736 1071 1074
f 736 729 730
f 736 730 935
f 935 1071 736
f 1097 735 736
f 735 729 736
f 361 346 345
f 361 345 347
f 347 366 361
f 361 365 364
f 362 365 361
f 361 366 362
f 1245 452 453
f 453 1246 1245
f 397 452 1245
f 396 397 1245
f 1245 1246 396
f 1244 481 480
f 1244 1246 481
f 1244 480 396
f 396 1246 1244
f 442 443 439
f 442 444 443
f 439 438 442
f 438 444 442
f 518 1171 1170
f 470 1171 518
f 467 470 518
f 1170 519 518
f 518 519 467
f 1165 1171 465
f 465 1174 1165
f 1165 1174 1229
f 1229 1231 1165
f 1231 1166 1165
f 1164 1171 1165
f 1165 1163 1164
f 1165 1166 1163
f 141 144 143
f 143 145 141
f 144 164 143
f 126 138 137
f 137 134 126
f 137 138 141
f 141 145 137
f 1141 134 137
f 137 145 1141
f 206 205 1150
f 197 189 205
f 197 195 189
f 1155 180 186
f 180 187 186
f 186 195 1155
f 189 195 186
f 186 187 189
f 170 179 171
f 179 183 171
f 171 177 169
f 183 180 171
f 180 177 171
f 171 168 170
f 169 168 171
f 157 164 152
f 152 174 157
f 157 174 1138
f 346 361 358
f 358 359 357
f 357 346 358
f 364 359 358
f 1141 145 1137
f 145 143 1137
f 1137 1135 1141
f 1137 1138 1132
f 1132 1135 1137
f 205 206 1145
f 1145 197 205
f 1145 206 1150
f 1150 218 1145
f 1145 1147 301
f 1148 1147 1145
f 1145 218 1149
f 1149 1148 1145
f 360 361 364
f 364 358 360
f 360 358 361
f 149 143 164
f 149 1137 143
f 164 157 149
f 149 157 1138
f 1138 1137 149
f 195 197 204
f 197 1145 204
f 301 195 204
f 204 1145 301

