####
#
# OBJ File Generated by Meshlab
#
####
# Object link_0_1.obj
#
# Vertices: 110
# Faces: 216
#
####
vn 0.465654 0.884964 -0.002216
v -0.007237 0.030163 -0.000547
vn 0.771588 0.257281 0.581772
v 0.006267 0.022225 0.015367
vn -0.608569 0.785988 -0.108935
v -0.035540 0.030163 -0.002720
vn -0.143351 0.033021 -0.989121
v -0.023804 0.022225 -0.015195
vn 0.670260 0.379957 -0.637483
v 0.006267 0.022225 -0.015367
vn -0.149320 0.032614 0.988251
v -0.023804 0.022225 0.015195
vn -0.084147 0.928099 0.362700
v -0.024769 0.030163 0.013912
vn -0.931149 0.018618 0.364162
v -0.035819 0.022225 0.005614
vn -0.563880 0.032642 0.825212
v -0.030170 0.022225 0.012697
vn -0.173574 0.187736 -0.966761
v -0.023695 0.030163 -0.014120
vn 0.173750 0.978340 0.112527
v -0.009521 0.030163 0.007766
vn 0.078605 0.977659 0.194946
v -0.016173 0.030163 0.013252
vn -0.139441 0.926649 0.349110
v -0.026855 0.030163 0.013252
vn -0.194360 0.923668 0.330246
v -0.028815 0.030163 0.012281
vn -0.467052 0.874056 0.133746
v -0.035291 0.030163 0.003786
vn -0.974994 0.032709 0.219810
v -0.036496 0.022225 0.003419
vn -0.566998 0.823596 -0.014228
v -0.035791 0.030163 -0.000547
vn -0.996432 0.032754 -0.077788
v -0.036838 0.022225 -0.001148
vn -0.866501 0.032677 0.498105
v -0.034822 0.022225 0.007683
vn -0.782366 0.018599 0.622541
v -0.033528 0.022225 0.009581
vn -0.644077 0.601425 -0.472708
v -0.032877 0.030163 -0.008661
vn -0.853763 0.023801 -0.520118
v -0.034822 0.022225 -0.007683
vn -0.653064 0.676254 -0.340864
v -0.034066 0.030163 -0.006825
vn -0.639112 0.737509 -0.218211
v -0.034960 0.030163 -0.004829
vn -0.437159 0.331540 -0.836046
v -0.027853 0.030163 -0.012804
vn -0.692579 0.023862 -0.720947
v -0.031966 0.022225 -0.011265
vn -0.606240 0.515335 -0.605725
v -0.031421 0.030163 -0.010294
vn 0.199547 0.975797 0.089445
v -0.008476 0.030163 0.005845
vn 0.149911 0.979635 0.133571
v -0.010847 0.030163 0.009506
vn -0.304019 0.912211 0.274669
v -0.032180 0.030163 0.009506
vn -0.358783 0.902952 0.236542
v -0.033506 0.030163 0.007766
vn -0.249168 0.918956 0.305671
v -0.030604 0.030163 0.011023
vn 0.293162 0.954373 -0.056825
v -0.007488 0.030163 -0.002720
vn 0.289928 0.951370 -0.104106
v -0.008067 0.030163 -0.004829
vn 0.271567 0.920129 -0.282161
v -0.011606 0.030163 -0.010294
vn 0.279857 0.936046 -0.213301
v -0.010151 0.030163 -0.008661
vn 0.238204 0.843763 -0.480961
v -0.015174 0.030163 -0.012804
vn 0.258964 0.892986 -0.368121
v -0.013294 0.030163 -0.011686
vn -0.004936 0.153864 -0.988080
v -0.021514 0.030163 -0.014287
vn 0.200655 0.746731 -0.634138
v -0.017203 0.030163 -0.013622
vn 0.935376 -0.002237 0.353648
v 0.006267 -0.008448 0.015367
vn 0.006304 -0.997838 -0.065413
v -0.009777 -0.014287 -0.015367
vn 0.072413 -0.997373 0.002101
v -0.007563 -0.014191 0.015367
vn -0.968707 -0.027786 -0.246648
v -0.036496 -0.014287 -0.003419
vn -0.929904 0.018679 -0.367327
v -0.035819 0.022225 -0.005614
vn 0.999986 -0.002392 -0.004780
v 0.006267 -0.008448 -0.015367
vn 0.963064 -0.213137 0.164558
v 0.006192 -0.009135 0.015367
vn 0.976372 -0.216083 -0.002447
v 0.006192 -0.009135 -0.015367
vn -0.428943 0.032935 -0.902731
v -0.028181 0.022225 -0.013845
vn -0.005496 -0.069220 -0.997586
v -0.021514 -0.014287 -0.015367
vn -0.291709 0.018769 -0.956323
v -0.026043 0.022225 -0.014684
vn 0.461686 -0.886291 0.036524
v 0.004559 -0.011265 0.015367
vn 0.253334 -0.967378 0.001360
v -0.003203 -0.013422 0.015367
vn 0.267741 -0.963472 0.006014
v 0.003914 -0.011515 0.015367
vn 0.267703 -0.963332 -0.018080
v 0.003914 -0.011515 -0.015367
vn -0.434181 0.018578 0.900634
v -0.028181 0.022225 0.013845
vn -0.990974 -0.111643 0.074209
v -0.036838 -0.014287 0.001148
vn -0.997155 0.018638 0.073042
v -0.036838 0.022225 0.001148
vn -0.996541 -0.036553 -0.074626
v -0.036838 -0.014287 -0.001148
vn -0.978529 0.023788 -0.204733
v -0.036496 0.022225 -0.003419
vn -0.971898 -0.078980 0.221756
v -0.036496 -0.014287 0.003419
vn -0.910877 -0.205975 0.357600
v -0.035819 -0.014287 0.005614
vn -0.878158 -0.003128 -0.478361
v -0.034822 -0.014287 -0.007683
vn 0.461889 -0.886681 -0.021349
v 0.004559 -0.011265 -0.015367
vn 0.788657 -0.605601 0.106149
v 0.005611 -0.010381 0.015367
vn -0.563136 -0.018714 -0.826152
v -0.030170 -0.014287 -0.012697
vn -0.560843 0.018741 -0.827710
v -0.030170 0.022225 -0.012697
vn -0.661647 -0.003139 -0.749809
v -0.031966 -0.014287 -0.011265
vn -0.275336 0.023664 0.961057
v -0.026043 0.022225 0.014684
vn -0.142204 -0.300998 0.942963
v -0.023804 -0.014287 0.015195
vn -0.007096 0.016713 0.999835
v -0.021514 0.022225 0.015367
vn -0.743127 -0.310957 0.592510
v -0.033528 -0.014287 0.009581
vn -0.665542 0.023690 0.745984
v -0.031966 0.022225 0.011265
vn 0.002705 -0.999986 0.004536
v -0.009777 -0.014287 0.015367
vn -0.858340 -0.132402 0.495704
v -0.034822 -0.014287 0.007683
vn -0.549358 -0.220612 0.805938
v -0.030170 -0.014287 0.012697
vn -0.433708 -0.020843 -0.900812
v -0.028181 -0.014287 -0.013845
vn -0.675931 -0.251207 0.692829
v -0.031966 -0.014287 0.011265
vn -0.930674 -0.018699 -0.365372
v -0.035819 -0.014287 -0.005614
vn -0.385733 -0.457538 0.801167
v -0.028181 -0.014287 0.013845
vn -0.174572 -0.974757 -0.139190
v -0.033528 -0.014287 -0.009581
vn -0.297431 -0.357638 0.885229
v -0.026043 -0.014287 0.014684
vn -0.293945 -0.072939 -0.953035
v -0.026043 -0.014287 -0.014684
vn -0.148885 -0.056074 -0.987263
v -0.023804 -0.014287 -0.015195
vn -0.778766 0.032851 -0.626454
v -0.033528 0.022225 -0.009581
vn 0.643321 -0.765581 -0.004816
v 0.005133 -0.010880 -0.015367
vn -0.006057 0.014126 -0.999882
v -0.021514 0.022225 -0.015367
vn 0.242905 -0.969504 -0.032554
v -0.003203 -0.013422 -0.015367
vn 0.173298 -0.982551 -0.067539
v -0.005366 -0.013902 -0.015367
vn 0.101226 -0.992440 -0.069404
v -0.007563 -0.014191 -0.015367
vn 0.038609 -0.018003 -0.999092
v 0.005970 -0.009790 -0.015367
vn 0.793136 -0.609040 -0.002447
v 0.005611 -0.010381 -0.015367
vn 0.636717 -0.757722 0.143003
v 0.005133 -0.010880 0.015367
vn -0.008243 -0.456641 0.889613
v -0.021514 -0.014287 0.015367
vn 0.873256 -0.407193 0.267614
v 0.005970 -0.009790 0.015367
vn 0.023628 -0.133966 0.990704
v -0.005366 -0.013902 0.015367
vn -0.039853 0.913892 0.403997
v -0.022607 0.030163 0.014246
vn -0.313500 0.250639 -0.915914
v -0.025825 0.030163 -0.013622
vn -0.518933 0.852250 0.066163
v -0.035707 0.030163 0.001639
vn 0.126759 0.979945 0.153755
v -0.012423 0.030163 0.011023
vn 0.103365 0.979324 0.173898
v -0.014213 0.030163 0.012281
vn 0.051036 0.974601 0.218058
v -0.018258 0.030163 0.013912
vn -0.413244 0.890566 0.190056
v -0.034551 0.030163 0.005845
vn -0.536671 0.422728 -0.730264
v -0.029734 0.030163 -0.011686
vn 0.263868 0.964078 0.030449
v -0.007321 0.030163 0.001639
vn 0.027368 0.970971 0.237628
v -0.020420 0.030163 0.014246
vn 0.228838 0.971434 0.062841
v -0.007737 0.030163 0.003786
vn 0.000000 0.372991 0.927835
v -0.021514 0.030163 0.014287
vn 0.004059 0.999646 -0.026313
v -0.019333 0.030163 -0.014120
vn 0.285660 0.945655 -0.155354
v -0.008962 0.030163 -0.006825
# 110 vertices, 0 vertices normals

f 5//5 1//1 2//2
f 2//2 108//108 71//71
f 108//108 97//97 71//71
f 14//14 32//32 9//9
f 18//18 3//3 60//60
f 26//26 85//85 27//27
f 25//25 98//98 49//49
f 39//39 87//87 4//4
f 87//87 39//39 5//5
f 98//98 51//51 49//49
f 97//97 6//6 71//71
f 7//7 6//6 97//97
f 69//69 6//6 7//7
f 14//14 9//9 56//56
f 16//16 99//99 58//58
f 8//8 19//19 103//103
f 32//32 73//73 9//9
f 19//19 31//31 103//103
f 45//45 23//23 22//22
f 25//25 49//49 67//67
f 10//10 39//39 4//4
f 51//51 10//10 4//4
f 51//51 98//98 10//10
f 1//1 105//105 2//2
f 11//11 29//29 2//2
f 28//28 11//11 2//2
f 12//12 102//102 2//2
f 101//101 12//12 2//2
f 56//56 13//13 14//14
f 69//69 13//13 56//56
f 69//69 7//7 13//13
f 15//15 99//99 16//16
f 8//8 15//15 16//16
f 8//8 103//103 15//15
f 58//58 17//17 18//18
f 99//99 17//17 58//58
f 17//17 3//3 18//18
f 31//31 19//19 20//20
f 85//85 21//21 27//27
f 22//22 21//21 85//85
f 23//23 21//21 22//22
f 24//24 23//23 45//45
f 60//60 24//24 45//45
f 3//3 24//24 60//60
f 67//67 104//104 25//25
f 26//26 104//104 67//67
f 26//26 27//27 104//104
f 28//28 2//2 107//107
f 105//105 107//107 2//2
f 106//106 108//108 2//2
f 102//102 106//106 2//2
f 29//29 100//100 2//2
f 100//100 101//101 2//2
f 20//20 30//30 31//31
f 73//73 30//30 20//20
f 73//73 32//32 30//30
f 5//5 33//33 1//1
f 34//34 33//33 5//5
f 35//35 36//36 5//5
f 37//37 5//5 40//40
f 38//38 35//35 5//5
f 37//37 38//38 5//5
f 110//110 34//34 5//5
f 36//36 110//110 5//5
f 39//39 109//109 5//5
f 40//40 5//5 109//109
f 2//2 41//41 46//46
f 2//2 46//46 5//5
f 74//74 42//42 43//43
f 42//42 90//90 43//43
f 79//79 44//44 45//45
f 44//44 60//60 45//45
f 61//61 58//58 57//57
f 61//61 16//16 58//58
f 47//47 46//46 41//41
f 47//47 48//48 46//46
f 83//83 77//77 51//51
f 49//49 51//51 77//77
f 50//50 84//84 87//87
f 87//87 84//84 4//4
f 51//51 84//84 83//83
f 84//84 51//51 4//4
f 54//54 55//55 52//52
f 52//52 55//55 64//64
f 53//53 55//55 54//54
f 53//53 88//88 55//55
f 80//80 56//56 76//76
f 76//76 56//56 9//9
f 80//80 82//82 56//56
f 69//69 56//56 82//82
f 58//58 59//59 57//57
f 18//18 59//59 58//58
f 44//44 59//59 60//60
f 18//18 60//60 59//59
f 61//61 62//62 8//8
f 61//61 8//8 16//16
f 75//75 8//8 62//62
f 19//19 8//8 75//75
f 78//78 76//76 73//73
f 9//9 73//73 76//76
f 45//45 63//63 79//79
f 22//22 63//63 45//45
f 52//52 86//86 93//93
f 52//52 64//64 86//86
f 93//93 86//86 65//65
f 86//86 92//92 65//65
f 66//66 67//67 77//77
f 77//77 67//67 49//49
f 66//66 68//68 67//67
f 26//26 67//67 68//68
f 69//69 82//82 70//70
f 6//6 69//69 70//70
f 71//71 70//70 94//94
f 6//6 70//70 71//71
f 75//75 72//72 20//20
f 19//19 75//75 20//20
f 78//78 20//20 72//72
f 73//73 20//20 78//78
f 94//94 81//81 74//74
f 81//81 59//59 44//44
f 62//62 81//81 75//75
f 81//81 44//44 79//79
f 42//42 74//74 81//81
f 75//75 81//81 72//72
f 77//77 81//81 66//66
f 76//76 81//81 80//80
f 83//83 81//81 77//77
f 78//78 81//81 76//76
f 66//66 81//81 68//68
f 61//61 81//81 62//62
f 63//63 81//81 79//79
f 42//42 81//81 50//50
f 72//72 81//81 78//78
f 80//80 81//81 82//82
f 84//84 81//81 83//83
f 57//57 81//81 61//61
f 81//81 84//84 50//50
f 59//59 81//81 57//57
f 70//70 81//81 94//94
f 81//81 70//70 82//82
f 81//81 26//26 68//68
f 26//26 81//81 85//85
f 81//81 63//63 22//22
f 81//81 22//22 85//85
f 46//46 91//91 5//5
f 86//86 91//91 92//92
f 48//48 91//91 46//46
f 5//5 91//91 87//87
f 42//42 91//91 90//90
f 87//87 91//91 50//50
f 89//89 91//91 88//88
f 42//42 50//50 91//91
f 55//55 88//88 91//91
f 55//55 91//91 64//64
f 86//86 64//64 91//91
f 89//89 90//90 91//91
f 47//47 91//91 48//48
f 95//95 91//91 47//47
f 92//92 91//91 65//65
f 95//95 65//65 91//91
f 93//93 96//96 52//52
f 2//2 96//96 41//41
f 94//94 96//96 71//71
f 71//71 96//96 2//2
f 47//47 96//96 95//95
f 52//52 96//96 54//54
f 43//43 96//96 74//74
f 93//93 65//65 96//96
f 96//96 94//94 74//74
f 41//41 96//96 47//47
f 53//53 54//54 96//96
f 95//95 96//96 65//65
f 90//90 96//96 43//43
f 89//89 96//96 90//90
f 53//53 96//96 88//88
f 88//88 96//96 89//89
f 14//14 109//109 32//32
f 97//97 108//108 109//109
f 40//40 109//109 37//37
f 25//25 109//109 98//98
f 15//15 109//109 99//99
f 100//100 109//109 101//101
f 97//97 109//109 7//7
f 21//21 23//23 109//109
f 101//101 109//109 12//12
f 102//102 12//12 109//109
f 24//24 109//109 23//23
f 10//10 109//109 39//39
f 33//33 34//34 109//109
f 11//11 28//28 109//109
f 13//13 109//109 14//14
f 31//31 109//109 103//103
f 17//17 99//99 109//109
f 10//10 98//98 109//109
f 104//104 109//109 25//25
f 1//1 109//109 105//105
f 11//11 109//109 29//29
f 105//105 109//109 107//107
f 106//106 102//102 109//109
f 13//13 7//7 109//109
f 15//15 103//103 109//109
f 17//17 109//109 3//3
f 21//21 109//109 27//27
f 24//24 3//3 109//109
f 104//104 27//27 109//109
f 30//30 109//109 31//31
f 38//38 37//37 109//109
f 107//107 109//109 28//28
f 106//106 109//109 108//108
f 100//100 29//29 109//109
f 30//30 32//32 109//109
f 33//33 109//109 1//1
f 36//36 35//35 109//109
f 110//110 36//36 109//109
f 38//38 109//109 35//35
f 110//110 109//109 34//34
# 216 faces, 0 coords texture

# End of File