####
#
# OBJ File Generated by Meshlab
#
####
# Object link6_chull.obj
#
# Vertices: 52
# Faces: 100
#
####
vn 1.311313 0.035765 -5.869311
v 0.506000 -0.712000 0.025000
vn 1.408336 -1.018255 -5.787421
v 0.506000 -0.707659 0.024620
vn 1.348144 0.984214 -5.788023
v 0.506000 -0.716341 0.024620
vn 1.361535 3.319375 -4.752134
v 0.505894 -0.726348 0.020520
vn 1.412764 -5.760786 -0.408093
v 0.505974 -0.687013 0.002136
vn -2.780442 -0.539547 -3.033017
v 0.515000 -0.707627 0.024801
vn 1.312893 -2.110706 -5.458709
v 0.506000 -0.703449 0.023492
vn 1.343646 4.415028 -3.841104
v 0.506000 -0.731151 0.016070
vn -2.764602 2.959954 -1.668221
v 0.514575 -0.732524 0.014371
vn 1.315534 5.124520 -2.816873
v 0.506000 -0.733651 0.012500
vn 0.483728 5.552713 0.407412
v 0.506079 -0.737034 -0.002193
vn 4.082294 -2.440552 -1.334892
v 0.472271 -0.704336 0.003643
vn 4.195685 0.668571 2.926677
v 0.472437 -0.713891 -0.008287
vn 4.073914 1.877130 2.190411
v 0.472375 -0.717438 -0.006644
vn 4.057862 -2.086889 2.188439
v 0.472431 -0.705808 -0.005925
vn 4.078484 2.805771 -0.830780
v 0.472424 -0.720224 0.002399
vn 4.079724 1.896705 -2.217288
v 0.472417 -0.717452 0.006660
vn 4.206713 -1.838498 -2.306533
v 0.472437 -0.706700 0.006646
vn 4.142163 -0.670778 -2.828080
v 0.472412 -0.709967 0.008316
vn 4.080005 2.804557 0.823633
v 0.472419 -0.720222 -0.002399
vn 1.129803 0.172576 -0.016437
v 0.469585 -0.704905 -0.001155
vn 3.761535 -0.349581 1.454476
v 0.471967 -0.710021 -0.008101
vn 4.202273 0.636574 -2.861271
v 0.472437 -0.713891 0.008287
vn -2.801214 1.778449 2.523059
v 0.514999 -0.726707 -0.020319
vn 1.349303 4.419430 3.836713
v 0.506000 -0.731151 -0.016070
vn 1.299413 3.205659 4.792891
v 0.505974 -0.726343 -0.020572
vn -2.754392 3.026332 1.714053
v 0.514575 -0.732524 -0.014371
vn 1.339099 5.095342 2.909776
v 0.506000 -0.733651 -0.012500
vn 1.003903 -3.680183 4.511440
v 0.506000 -0.695930 -0.019151
vn -2.660924 -1.127855 2.799603
v 0.515000 -0.703325 -0.023768
vn 1.357582 -2.506562 5.221128
v 0.505961 -0.701433 -0.022742
vn 1.344924 -5.101761 -2.909011
v 0.506000 -0.690349 0.012500
vn 1.340964 -4.411458 -3.846861
v 0.506000 -0.692849 0.016070
vn -2.826784 -2.587366 -1.691435
v 0.514998 -0.691232 0.014066
vn 1.274973 -5.515306 -1.949824
v 0.506000 -0.688508 0.008551
vn -2.652717 -3.035704 -0.249090
v 0.514990 -0.686717 0.002212
vn 1.341692 2.107810 -5.460154
v 0.506000 -0.720550 0.023492
vn -2.837219 0.734139 -3.008162
v 0.515000 -0.718111 0.024327
vn 0.601670 5.485312 -1.208079
v 0.506101 -0.736280 0.006484
vn 1.249085 0.011854 5.845691
v 0.506000 -0.712000 -0.025000
vn 0.761076 5.500631 1.707209
v 0.506066 -0.735521 -0.008557
vn 1.282536 -1.006891 5.764010
v 0.506000 -0.707659 -0.024620
vn 0.795029 -4.307517 3.871146
v 0.506316 -0.693033 -0.016510
vn 1.359113 -5.097111 2.866637
v 0.506000 -0.690349 -0.012500
vn -2.800866 -1.752827 -2.545448
v 0.514999 -0.697594 0.020577
vn 1.369904 -3.320426 -4.746498
v 0.505880 -0.697640 0.020508
vn -2.703700 0.584450 3.005205
v 0.514998 -0.716928 -0.024752
vn 1.363030 1.632291 5.534002
v 0.505866 -0.718506 -0.024173
vn -2.764391 -2.857759 1.426605
v 0.514774 -0.689104 -0.010245
vn 1.316128 -5.600724 1.399606
v 0.505866 -0.687812 -0.006452
vn -2.810067 1.785464 -2.520457
v 0.515000 -0.726406 0.020577
vn -3.708062 3.063706 0.129117
v 0.515000 -0.734500 -0.001969
# 52 vertices, 0 vertices normals

f 5//5 12//12 21//21
f 21//21 50//50 5//5
f 41//41 28//28 20//20
f 40//40 42//42 22//22
f 1//1 3//3 23//23
f 19//19 7//7 2//2
f 7//7 19//19 46//46
f 17//17 10//10 16//16
f 11//11 41//41 20//20
f 21//21 44//44 50//50
f 29//29 43//43 15//15
f 22//22 42//42 31//31
f 14//14 26//26 48//48
f 11//11 39//39 52//52
f 18//18 12//12 33//33
f 18//18 33//33 46//46
f 19//19 18//18 46//46
f 33//33 12//12 32//32
f 20//20 28//28 14//14
f 14//14 28//28 25//25
f 14//14 25//25 26//26
f 13//13 40//40 22//22
f 13//13 48//48 40//40
f 13//13 14//14 48//48
f 51//51 52//52 9//9
f 19//19 1//1 23//23
f 19//19 2//2 1//1
f 10//10 39//39 16//16
f 8//8 17//17 4//4
f 10//10 17//17 8//8
f 39//39 11//11 16//16
f 16//16 11//11 20//20
f 44//44 21//21 15//15
f 43//43 44//44 15//15
f 31//31 29//29 15//15
f 31//31 15//15 22//22
f 35//35 12//12 5//5
f 35//35 32//32 12//12
f 37//37 23//23 3//3
f 37//37 17//17 23//23
f 4//4 17//17 37//37
f 39//39 9//9 52//52
f 52//52 24//24 27//27
f 41//41 11//11 52//52
f 27//27 41//41 52//52
f 43//43 30//30 49//49
f 1//1 2//2 6//6
f 1//1 6//6 38//38
f 38//38 3//3 1//1
f 6//6 2//2 7//7
f 8//8 4//4 51//51
f 8//8 51//51 9//9
f 9//9 10//10 8//8
f 15//15 16//16 20//20
f 15//15 21//21 12//12
f 14//14 13//13 15//15
f 15//15 17//17 16//16
f 15//15 18//18 19//19
f 12//12 18//18 15//15
f 20//20 14//14 15//15
f 15//15 13//13 22//22
f 15//15 19//19 23//23
f 23//23 17//17 15//15
f 24//24 26//26 25//25
f 24//24 25//25 27//27
f 27//27 25//25 28//28
f 31//31 30//30 29//29
f 30//30 43//43 29//29
f 33//33 32//32 34//34
f 36//36 35//35 5//5
f 35//35 34//34 32//32
f 35//35 36//36 34//34
f 45//45 6//6 7//7
f 45//45 7//7 46//46
f 37//37 3//3 38//38
f 51//51 4//4 37//37
f 37//37 38//38 51//51
f 39//39 10//10 9//9
f 47//47 40//40 48//48
f 41//41 27//27 28//28
f 30//30 40//40 47//47
f 30//30 42//42 40//40
f 42//42 30//30 31//31
f 36//36 5//5 50//50
f 43//43 49//49 44//44
f 45//45 33//33 34//34
f 45//45 46//46 33//33
f 26//26 24//24 47//47
f 47//47 48//48 26//26
f 49//49 50//50 44//44
f 49//49 36//36 50//50
f 51//51 38//38 30//30
f 38//38 6//6 30//30
f 36//36 30//30 34//34
f 52//52 51//51 30//30
f 47//47 24//24 30//30
f 45//45 34//34 30//30
f 6//6 45//45 30//30
f 24//24 52//52 30//30
f 49//49 30//30 36//36
# 100 faces, 0 coords texture

# End of File