####
#
# OBJ File Generated by Meshlab
#
####
# Object link1_chull.obj
#
# Vertices: 52
# Faces: 100
#
####
vn -3.880160 0.739104 3.197145
v 0.175707 -0.220589 -0.126565
vn 1.362600 2.977363 4.238963
v 0.016611 -0.405613 -0.108750
vn 6.142270 -0.653766 -0.480219
v -0.148855 -0.194279 0.111625
vn -4.839624 -1.930232 0.721900
v 0.184343 -0.178035 -0.101926
vn 6.039309 -0.034114 1.328406
v -0.143246 -0.194279 0.008033
vn 3.835174 -3.157922 -1.223480
v -0.140846 -0.141577 0.088297
vn 2.344225 2.090587 4.460012
v -0.009243 -0.387222 -0.108750
vn 4.458961 -2.314022 2.380101
v -0.121480 -0.141700 -0.044665
vn 4.834807 -2.441025 0.852298
v -0.140504 -0.141700 0.008550
vn 2.049377 -5.275768 0.349280
v -0.072825 -0.089593 -0.006457
vn 2.794771 0.709387 4.721811
v -0.062118 -0.245874 -0.117810
vn 5.290251 0.327219 3.019095
v -0.123928 -0.194279 -0.046004
vn -0.777087 -5.277203 -2.650623
v 0.019768 -0.102794 0.087630
vn 1.849417 -4.543190 3.043429
v -0.053059 -0.108009 -0.082640
vn 3.811559 -2.105357 3.735878
v -0.086942 -0.141700 -0.089396
vn 1.815773 -2.315072 4.986603
v -0.058234 -0.141700 -0.109000
vn -3.921310 -1.037174 -3.659620
v 0.174725 -0.235808 0.166850
vn -3.615470 -3.104227 -2.040329
v 0.178879 -0.185793 0.130566
vn 0.453811 -5.804647 -1.382395
v -0.020832 -0.089133 0.051410
vn 0.953122 -4.221685 -3.744941
v -0.071188 -0.141748 0.145329
vn 2.187803 -0.597079 5.341942
v -0.058860 -0.180365 -0.118000
vn -2.149923 -2.072317 2.717044
v 0.170754 -0.167505 -0.128389
vn -0.328559 -4.030137 3.780535
v 0.022288 -0.112089 -0.101687
vn 0.407265 3.455606 3.427891
v 0.080297 -0.427276 -0.108750
vn -1.603939 2.456939 2.214513
v 0.112054 -0.428466 -0.108750
vn 1.233284 4.309006 -2.666047
v -0.115882 -0.443346 0.140384
vn 2.613781 -1.731155 -4.326863
v -0.114185 -0.189194 0.168424
vn -4.580605 1.282438 -2.400692
v 0.167020 -0.376621 0.171169
vn -1.268101 -2.928654 -4.736734
v 0.125021 -0.200740 0.175869
vn 0.728806 -2.039350 -5.646048
v -0.095642 -0.188974 0.171960
vn -2.522345 4.654053 -1.734868
v 0.116490 -0.444039 0.167622
vn -3.919173 3.280857 -1.719694
v 0.146220 -0.422160 0.166436
vn -5.994427 1.638122 0.231432
v 0.169211 -0.370266 0.134000
vn -5.555732 2.518199 0.051609
v 0.160211 -0.397965 0.134000
vn 6.257132 -0.086151 0.376762
v -0.154486 -0.392500 0.097228
vn 5.770864 0.731747 1.649459
v -0.154486 -0.419676 0.097228
vn 2.624902 2.021335 -1.418927
v -0.155639 -0.438537 0.126615
vn 2.982925 3.379685 1.216756
v -0.150566 -0.440400 0.099148
vn -5.825293 -0.590708 -0.786763
v 0.194267 -0.222400 0.110420
vn -6.189755 0.722591 0.341016
v 0.192283 -0.234565 0.070200
vn 4.947449 -1.309003 -2.593438
v -0.144816 -0.193164 0.133818
vn -0.650642 0.139004 5.986860
v 0.144368 -0.222800 -0.136536
vn -2.712869 -5.239676 -1.157768
v 0.096119 -0.111327 0.043394
vn 0.035205 -5.856570 1.408334
v -0.009463 -0.088885 -0.050577
vn -1.837241 -5.514992 0.305041
v 0.069515 -0.092007 -0.011567
vn 0.411097 6.219125 0.557136
v -0.097774 -0.444000 0.089968
vn -0.631133 4.751235 -2.010091
v 0.086554 -0.454324 0.171136
vn 2.549518 0.241471 -5.670228
v -0.105968 -0.235000 0.170654
vn -1.724464 -0.450245 -5.502051
v 0.126597 -0.310596 0.204355
vn -1.557602 1.818659 -4.847847
v 0.111947 -0.408441 0.204339
vn 0.919671 2.063648 -5.025824
v 0.010539 -0.412118 0.204413
vn 0.747060 -0.479278 -6.093659
v 0.007859 -0.320181 0.204102
# 52 vertices, 0 vertices normals

f 33//33 1//1 25//25
f 33//33 40//40 1//1
f 3//3 5//5 9//9
f 2//2 7//7 38//38
f 2//2 42//42 7//7
f 31//31 32//32 25//25
f 34//34 33//33 25//25
f 25//25 32//32 34//34
f 40//40 4//4 1//1
f 22//22 1//1 4//4
f 3//3 6//6 41//41
f 6//6 3//3 9//9
f 35//35 36//36 5//5
f 3//3 35//35 5//5
f 10//10 6//6 9//9
f 46//46 24//24 38//38
f 24//24 2//2 38//38
f 2//2 24//24 42//42
f 47//47 31//31 25//25
f 37//37 3//3 41//41
f 37//37 35//35 3//3
f 37//37 38//38 36//36
f 6//6 27//27 41//41
f 4//4 40//40 39//39
f 22//22 42//42 1//1
f 1//1 42//42 25//25
f 5//5 36//36 12//12
f 9//9 5//5 12//12
f 36//36 38//38 12//12
f 45//45 23//23 22//22
f 18//18 29//29 13//13
f 18//18 17//17 29//29
f 13//13 29//29 20//20
f 29//29 30//30 20//20
f 20//20 30//30 27//27
f 43//43 18//18 13//13
f 42//42 24//24 25//25
f 22//22 4//4 45//45
f 18//18 4//4 39//39
f 45//45 43//43 13//13
f 10//10 19//19 6//6
f 39//39 28//28 17//17
f 42//42 11//11 7//7
f 11//11 38//38 7//7
f 11//11 12//12 38//38
f 11//11 42//42 21//21
f 14//14 44//44 10//10
f 16//16 15//15 21//21
f 22//22 16//16 21//21
f 9//9 12//12 8//8
f 15//15 8//8 12//12
f 8//8 10//10 9//9
f 8//8 15//15 14//14
f 14//14 10//10 8//8
f 11//11 15//15 12//12
f 21//21 15//15 11//11
f 4//4 18//18 43//43
f 19//19 45//45 13//13
f 46//46 38//38 26//26
f 42//42 22//22 21//21
f 16//16 14//14 15//15
f 14//14 16//16 23//23
f 23//23 16//16 22//22
f 18//18 39//39 17//17
f 27//27 6//6 20//20
f 20//20 6//6 19//19
f 20//20 19//19 13//13
f 23//23 45//45 44//44
f 26//26 51//51 47//47
f 46//46 47//47 25//25
f 46//46 25//25 24//24
f 31//31 50//50 32//32
f 28//28 49//49 17//17
f 51//51 26//26 37//37
f 50//50 47//47 51//51
f 47//47 50//50 31//31
f 28//28 50//50 49//49
f 50//50 28//28 32//32
f 29//29 17//17 49//49
f 51//51 37//37 48//48
f 52//52 51//51 48//48
f 30//30 52//52 27//27
f 49//49 30//30 29//29
f 32//32 28//28 33//33
f 32//32 33//33 34//34
f 36//36 35//35 37//37
f 37//37 26//26 38//38
f 39//39 33//33 28//28
f 33//33 39//39 40//40
f 4//4 43//43 45//45
f 37//37 27//27 48//48
f 41//41 27//27 37//37
f 44//44 14//14 23//23
f 44//44 45//45 19//19
f 19//19 10//10 44//44
f 26//26 47//47 46//46
f 52//52 48//48 27//27
f 49//49 50//50 51//51
f 51//51 52//52 49//49
f 52//52 30//30 49//49
# 100 faces, 0 coords texture

# End of File