{
    "asset": {
        "version": "2.0",
        "generator": "gltfpack 0.23"
    },
    "extensionsUsed": [
        "EXT_meshopt_compression"
    ],
    "buffers": [
        {
            "uri": "cube_with_hole.bin",
            "byteLength": 824
        },
        {
            "uri": "cube_with_hole.fallback.bin",
            "byteLength": 1728,
            "extensions": {
                "EXT_meshopt_compression": {
                    "fallback": true
                }
            }
        }
    ],
    "bufferViews": [
        {
            "buffer": 1,
            "byteOffset": 0,
            "byteLength": 768,
            "byteStride": 12,
            "target": 34962,
            "extensions": {
                "EXT_meshopt_compression": {
                    "buffer": 0,
                    "byteOffset": 0,
                    "byteLength": 480,
                    "byteStride": 12,
                    "mode": "ATTRIBUTES",
                    "count": 64
                }
            }
        },
        {
            "buffer": 1,
            "byteOffset": 768,
            "byteLength": 768,
            "byteStride": 12,
            "target": 34962,
            "extensions": {
                "EXT_meshopt_compression": {
                    "buffer": 0,
                    "byteOffset": 480,
                    "byteLength": 290,
                    "byteStride": 12,
                    "mode": "ATTRIBUTES",
                    "count": 64
                }
            }
        },
        {
            "buffer": 1,
            "byteOffset": 1536,
            "byteLength": 192,
            "target": 34963,
            "extensions": {
                "EXT_meshopt_compression": {
                    "buffer": 0,
                    "byteOffset": 772,
                    "byteLength": 49,
                    "byteStride": 2,
                    "mode": "TRIANGLES",
                    "count": 96
                }
            }
        }
    ],
    "accessors": [
        {
            "bufferView": 0,
            "byteOffset": 0,
            "componentType": 5126,
            "count": 64,
            "type": "VEC3",
            "min": [
                -1,
                -1,
                -1
            ],
            "max": [
                1,
                1,
                1
            ]
        },
        {
            "bufferView": 1,
            "byteOffset": 0,
            "componentType": 5126,
            "count": 64,
            "type": "VEC3"
        },
        {
            "bufferView": 2,
            "byteOffset": 0,
            "componentType": 5123,
            "count": 96,
            "type": "SCALAR"
        }
    ],
    "meshes": [
        {
            "primitives": [
                {
                    "attributes": {
                        "POSITION": 0,
                        "NORMAL": 1
                    },
                    "indices": 2
                }
            ]
        }
    ],
    "nodes": [
        {
            "name": "Cube",
            "mesh": 0
        }
    ],
    "scenes": [
        {
            "name": "Scene",
            "nodes": [
                0
            ]
        }
    ],
    "scene": 0
}