# Mesh one for the NonUniformScaleTest in both internal_render_engine_vtk_test
# and internal_render_engine_gl_test.
# This mesh should have the unit scale applied to it.
# If the scale [1/2, 1/4, 1/8] is applied, it will produce the mesh
# rotated_cube_squished.obj.
mtllib rotated_cube.mtl
v -1.7071067811865475 -1.1102230246251565e-16 -0.29289321881345254
v -0.7071067811865477 1.414213562373095 0.7071067811865474
v -0.2928932188134523 -1.1102230246251565e-16 -1.7071067811865475
v 0.7071067811865475 1.414213562373095 -0.7071067811865476
v -0.7071067811865475 -1.414213562373095 0.7071067811865476
v 0.2928932188134523 1.1102230246251565e-16 1.7071067811865475
v 0.7071067811865477 -1.414213562373095 -0.7071067811865474
v 1.7071067811865475 1.1102230246251565e-16 0.29289321881345254
vn 0.7071067811865476 0 -0.7071067811865475
vn -0.7071067811865476 0 0.7071067811865475
vn 0.4999999999999999 0.7071067811865476 0.5
vn -0.4999999999999999 -0.7071067811865476 -0.5
vn 0.5 -0.7071067811865475 0.5000000000000001
vn -0.5 0.7071067811865475 -0.5000000000000001
usemtl red
f 1//6 2//6 4//6 3//6
f 1//4 3//4 7//4 5//4
f 1//2 5//2 6//2 2//2
f 8//5 6//5 5//5 7//5
f 8//1 7//1 3//1 4//1
f 8//3 4//3 2//3 6//3
