# Mesh two for the NonUniformScaleTest in both internal_render_engine_vtk_test
# and internal_render_engine_gl_test.
# This mesh should have the scale [2, 4, 8] applied to it. That scale will
# make it the same cube as rotated_cube_unit_scale.obj.
mtllib rotated_cube.mtl
v -0.8535533905932737 -2.7755575615628914e-17 -0.03661165235168157
v -0.35355339059327384 0.35355339059327373 0.08838834764831842
v -0.14644660940672616 -2.7755575615628914e-17 -0.21338834764831843
v 0.35355339059327373 0.35355339059327373 -0.08838834764831845
v -0.35355339059327373 -0.35355339059327373 0.08838834764831845
v 0.14644660940672616 2.7755575615628914e-17 0.21338834764831843
v 0.35355339059327384 -0.35355339059327373 -0.08838834764831842
v 0.8535533905932737 2.7755575615628914e-17 0.03661165235168157
vn 0.24253562503633302 0 -0.9701425001453319
vn -0.24253562503633302 0 0.9701425001453319
vn 0.19999999999999996 0.565685424949238 0.8
vn -0.19999999999999996 -0.565685424949238 -0.8
vn 0.19999999999999996 -0.5656854249492379 0.8
vn -0.19999999999999996 0.5656854249492379 -0.8
usemtl red
f 1//6 2//6 4//6 3//6
f 1//4 3//4 7//4 5//4
f 1//2 5//2 6//2 2//2
f 8//5 6//5 5//5 7//5
f 8//1 7//1 3//1 4//1
f 8//3 4//3 2//3 6//3
